<?xml version="1.0" encoding="UTF-8" standalone="no"?>
<!-- Created with Inkscape (http://www.inkscape.org/) -->

<svg
   sodipodi:docname="ambusher.svg"
   inkscape:version="1.2.2 (b0a8486541, 2022-12-01)"
   id="svg8"
   version="1.1"
   viewBox="0 0 6.8589293 6.8461938"
   height="6.8461938mm"
   width="6.8589292mm"
   xml:space="preserve"
   xmlns:inkscape="http://www.inkscape.org/namespaces/inkscape"
   xmlns:sodipodi="http://sodipodi.sourceforge.net/DTD/sodipodi-0.dtd"
   xmlns="http://www.w3.org/2000/svg"
   xmlns:svg="http://www.w3.org/2000/svg"
   xmlns:rdf="http://www.w3.org/1999/02/22-rdf-syntax-ns#"
   xmlns:cc="http://creativecommons.org/ns#"
   xmlns:dc="http://purl.org/dc/elements/1.1/"><defs
     id="defs2" /><sodipodi:namedview
     id="base"
     pagecolor="#ffffff"
     bordercolor="#666666"
     borderopacity="1.0"
     inkscape:pageopacity="0.0"
     inkscape:pageshadow="2"
     inkscape:zoom="2.8284271"
     inkscape:cx="36.94633"
     inkscape:cy="13.611806"
     inkscape:document-units="mm"
     inkscape:current-layer="layer1"
     showgrid="false"
     inkscape:window-width="1197"
     inkscape:window-height="1016"
     inkscape:window-x="723"
     inkscape:window-y="27"
     inkscape:window-maximized="0"
     inkscape:snap-global="false"
     fit-margin-top="0"
     fit-margin-left="0"
     fit-margin-right="0"
     fit-margin-bottom="0"
     showguides="false"
     inkscape:guide-bbox="true"
     inkscape:pagecheckerboard="0"
     inkscape:showpageshadow="2"
     inkscape:deskcolor="#d1d1d1" /><metadata
     id="metadata5"><rdf:RDF><cc:Work
         rdf:about=""><dc:format>image/svg+xml</dc:format><dc:type
           rdf:resource="http://purl.org/dc/dcmitype/StillImage" /></cc:Work></rdf:RDF></metadata><g
     inkscape:label="Capa 1"
     inkscape:groupmode="layer"
     id="layer1"
     transform="translate(-150.4884,-112.94971)"><rect
       style="opacity:1;vector-effect:none;fill:#1a1a1a;fill-opacity:1;stroke:none;stroke-width:0.1;stroke-linecap:butt;stroke-linejoin:miter;stroke-miterlimit:4;stroke-dasharray:none;stroke-dashoffset:0;stroke-opacity:1"
       id="rect860"
       width="7.0941477"
       height="0"
       x="148.86763"
       y="129.31949" /><path
       style="fill:#000000;stroke-width:0.0342808"
       d="m 150.49888,119.72756 c 0.0104,-0.0438 0.17784,-1.04864 0.37221,-2.23314 0.24108,-1.46908 0.36098,-2.12288 0.3772,-2.05686 0.0131,0.0532 0.0643,0.41303 0.11388,0.79955 0.0496,0.38652 0.10084,0.7292 0.11396,0.76151 0.0178,0.0439 0.23547,-0.23822 0.86373,-1.11981 0.46194,-0.6482 0.8431,-1.17535 0.84701,-1.17146 0.005,0.005 -0.39507,0.9367 -0.88664,2.07291 -0.49157,1.1362 -0.88559,2.07399 -0.8756,2.08398 0.01,0.01 0.94776,-0.38404 2.08395,-0.87563 1.13619,-0.49158 2.06908,-0.89009 2.0731,-0.88556 0.005,0.005 -0.52366,0.38613 -1.1726,0.84803 -0.89486,0.63694 -1.16515,0.84544 -1.11891,0.86318 0.0336,0.0128 0.38494,0.0637 0.78088,0.11298 0.39595,0.0493 0.75847,0.0984 0.8056,0.10904 0.0483,0.0109 -0.84164,0.17401 -2.03971,0.37372 -1.16898,0.19486 -2.1775,0.36391 -2.24114,0.37567 -0.1077,0.0198 -0.11442,0.0158 -0.0969,-0.058 z m 1.37966,-1.39074 c 0.42904,-0.74571 1.01644,-1.44968 2.27064,-2.72126 l 0.76522,-0.77582 -0.15571,-0.25648 c -0.13651,-0.22486 -0.16607,-0.2545 -0.23965,-0.24043 -0.0985,0.0187 -0.25944,-0.12073 -0.25944,-0.22495 0,-0.11551 0.13139,-0.24616 0.24758,-0.24616 0.0879,0 0.1663,0.06 0.47011,0.35934 l 0.36464,0.35931 0.29014,-0.34722 c 0.29361,-0.35137 0.55973,-0.59855 0.87969,-0.81707 0.13051,-0.0892 0.1856,-0.15298 0.21432,-0.24834 0.0709,-0.23522 0.34524,-0.30474 0.51859,-0.13138 0.18836,0.18836 0.0975,0.46157 -0.17188,0.51684 -0.056,0.0116 -0.14896,0.10922 -0.28182,0.29621 -0.22267,0.31341 -0.51103,0.61369 -0.86049,0.89604 l -0.23567,0.19041 0.36224,0.36337 c 0.30711,0.30806 0.36225,0.37986 0.36225,0.47174 0,0.11682 -0.12848,0.25045 -0.2408,0.25045 -0.10544,0 -0.2111,-0.1152 -0.221,-0.24096 -0.008,-0.10723 -0.0325,-0.13191 -0.25778,-0.265 l -0.24848,-0.14676 -0.87878,0.86629 c -0.87517,0.86271 -1.52234,1.43461 -2.04405,1.80627 -0.26103,0.18597 -0.68535,0.44839 -0.725,0.44839 -0.0102,0 0.0237,-0.0732 0.0752,-0.16283 z"
       id="path10585"
       sodipodi:nodetypes="sssscscssssscscssssscssssscsssscsscssssscssss" /></g></svg>
