<?xml version="1.0" encoding="UTF-8" standalone="no"?>
<!-- Created with Inkscape (http://www.inkscape.org/) -->

<svg
   sodipodi:docname="amphibious.svg"
   inkscape:version="1.1.2 (0a00cf5339, 2022-02-04)"
   id="svg8"
   version="1.1"
   viewBox="0 0 6.8589293 6.8461938"
   height="6.8461938mm"
   width="6.8589292mm"
   xmlns:inkscape="http://www.inkscape.org/namespaces/inkscape"
   xmlns:sodipodi="http://sodipodi.sourceforge.net/DTD/sodipodi-0.dtd"
   xmlns="http://www.w3.org/2000/svg"
   xmlns:svg="http://www.w3.org/2000/svg"
   xmlns:rdf="http://www.w3.org/1999/02/22-rdf-syntax-ns#"
   xmlns:cc="http://creativecommons.org/ns#"
   xmlns:dc="http://purl.org/dc/elements/1.1/">
  <defs
     id="defs2" />
  <sodipodi:namedview
     id="base"
     pagecolor="#ffffff"
     bordercolor="#666666"
     borderopacity="1.0"
     inkscape:pageopacity="0.0"
     inkscape:pageshadow="2"
     inkscape:zoom="7.9999999"
     inkscape:cx="15.3125"
     inkscape:cy="-0.1875"
     inkscape:document-units="mm"
     inkscape:current-layer="layer1"
     showgrid="false"
     inkscape:window-width="1850"
     inkscape:window-height="1016"
     inkscape:window-x="70"
     inkscape:window-y="1107"
     inkscape:window-maximized="1"
     inkscape:snap-global="false"
     fit-margin-top="0"
     fit-margin-left="0"
     fit-margin-right="0"
     fit-margin-bottom="0"
     showguides="false"
     inkscape:guide-bbox="true"
     inkscape:pagecheckerboard="0" />
  <metadata
     id="metadata5">
    <rdf:RDF>
      <cc:Work
         rdf:about="">
        <dc:format>image/svg+xml</dc:format>
        <dc:type
           rdf:resource="http://purl.org/dc/dcmitype/StillImage" />
      </cc:Work>
    </rdf:RDF>
  </metadata>
  <g
     inkscape:label="Capa 1"
     inkscape:groupmode="layer"
     id="layer1"
     transform="translate(-150.4884,-112.94971)">
    <path
       id="path828-36"
       style="vector-effect:none;fill:#000000;fill-opacity:1;fill-rule:nonzero;stroke:none;stroke-width:0.112413;stroke-linecap:round;stroke-linejoin:miter;stroke-miterlimit:4;stroke-dasharray:none;stroke-dashoffset:0;stroke-opacity:1"
       d="m 153.11098,113.54432 -0.74828,1.48208 1.67484,0.84542 -0.21394,0.39378 h -0.96015 v 0.40928 h 2.76572 l 0.27234,0.13746 0.74827,-1.48208 z m -0.49351,1.9513 -1.01131,0.004 -0.002,0.004 -0.12764,0.0455 -0.42065,1.017 0.11007,0.0894 -0.003,0.006 1.4702,0.0372 z m -0.86558,0.13126 h 0.75137 v 0.16123 h -0.65267 z m -0.19069,0.004 0.12041,0.19586 -0.24701,0.72657 h -0.2248 z m 2.80913,0.40876 0.44804,0.22583 h -0.57103 z m 2.36368,0.12041 c -0.20682,2e-5 -0.3744,0.16783 -0.37413,0.37465 2e-5,0.20663 0.16751,0.37412 0.37413,0.37414 0.20662,-2e-5 0.37412,-0.16752 0.37414,-0.37414 2.6e-4,-0.20682 -0.16731,-0.37463 -0.37414,-0.37465 z m -5.52524,0.55604 -5.2e-4,5.1e-4 c -0.16325,-0.001 -0.26077,7.7e-4 -0.27027,0.005 -0.0788,0.045 -0.42788,0.44184 -0.42788,0.44184 -0.0197,0.0225 -0.0507,0.37993 0,0.44183 0.002,7.7e-4 0.0905,9e-4 0.0987,0.002 l 0.16071,0.0992 c 0.0113,0.007 0.026,0.003 0.0331,-0.008 l 0.0305,-0.0491 c 0.007,-0.0114 0.004,-0.0261 -0.008,-0.0331 l -0.009,-0.005 c 0.0315,8.2e-4 0.0767,0.002 0.11575,0.003 0.21843,-0.21492 0.34256,-0.27828 0.53641,-0.2775 0.1954,7.4e-4 0.33109,0.0683 0.51159,0.25373 0.0983,0.10092 0.17915,0.15947 0.2589,0.1757 0.0153,-0.0455 0.0233,-0.0931 0.0238,-0.14108 0.0445,1.3e-4 0.0945,3.8e-4 0.14005,5.2e-4 v 5.1e-4 c 5.1e-4,0.0365 0.005,0.0727 0.0145,0.10801 0.0595,-0.0314 0.12371,-0.0828 0.19844,-0.15452 0.19247,-0.18483 0.3118,-0.24287 0.49816,-0.24287 0.18873,0 0.308,0.059 0.52038,0.25838 0.25577,0.262 0.41654,0.1393 0.6134,-0.0176 0.12907,-0.14289 0.33588,-0.24081 0.5085,-0.24081 0.17279,0 0.38819,0.10159 0.49868,0.23564 0.0549,0.0666 0.10816,0.11544 0.16226,0.14779 0.009,-0.0315 0.0145,-0.0639 0.0165,-0.0966 0.0462,-1.7e-4 0.097,-3.3e-4 0.14211,-5.2e-4 0.11191,0.19521 0.15073,0.092 0.30592,-0.031 0.21919,-0.20584 0.32048,-0.25561 0.51832,-0.25477 0.19225,6.9e-4 0.3172,0.0645 0.52865,0.2744 0.0166,-3.7e-4 0.0387,-6.3e-4 0.0543,-0.001 l -0.0341,0.0212 c 0.004,0.004 0.007,0.007 0.0109,0.0103 0.0239,0.0243 0.0452,0.0465 0.0646,0.0677 l 0.11214,-0.0692 c 0.0111,-0.007 0.0143,-0.0208 0.008,-0.032 0.0233,-9e-4 0.17047,-0.002 0.17364,-0.003 0.0597,-0.0597 0.0319,-0.40993 0,-0.44183 -0.0239,-0.0478 -0.45114,-0.20774 -0.45114,-0.20774 -0.13933,-0.0975 -4.51528,-0.23175 -5.65805,-0.23926 z m 0.23099,0.90692 c -0.20272,-8.1e-4 -0.32907,0.0679 -0.56689,0.30747 -0.2053,0.20686 -0.24178,0.29091 -0.16588,0.38241 0.0736,0.0887 0.16501,0.0481 0.39429,-0.1757 0.20621,-0.2012 0.22997,-0.21652 0.3359,-0.21652 0.10204,0 0.1317,0.0166 0.28112,0.15916 0.21352,0.20374 0.35227,0.27411 0.53795,0.27337 0.18776,-7.8e-4 0.34006,-0.0725 0.48576,-0.22893 0.14218,-0.15272 0.23254,-0.2036 0.36122,-0.2036 0.0824,0 0.12583,0.0271 0.28628,0.17776 0.21918,0.20584 0.32046,0.25551 0.51832,0.25477 0.18474,-7.6e-4 0.32889,-0.069 0.48162,-0.22841 0.26173,-0.27319 0.41524,-0.27319 0.67696,0 0.15274,0.15955 0.29637,0.22767 0.48111,0.22841 0.19786,8.2e-4 0.29964,-0.0489 0.51883,-0.25477 0.16449,-0.15449 0.20216,-0.17796 0.29146,-0.17776 0.12471,2.3e-4 0.19189,0.0448 0.39842,0.26406 0.16707,0.17732 0.26815,0.21526 0.34055,0.12816 0.0758,-0.0913 0.0394,-0.17549 -0.16588,-0.38447 -0.23062,-0.23485 -0.35769,-0.30417 -0.55914,-0.30489 -0.19784,-8.4e-4 -0.29912,0.0489 -0.51831,0.25476 -0.16449,0.15451 -0.20267,0.17797 -0.29197,0.17777 -0.11877,-2.2e-4 -0.22335,-0.0622 -0.33487,-0.19741 -0.11049,-0.13405 -0.32589,-0.23564 -0.49868,-0.23564 -0.17262,0 -0.37994,0.0979 -0.50901,0.24081 -0.13438,0.14868 -0.20761,0.19224 -0.32401,0.19224 -0.0898,0 -0.12784,-0.023 -0.28939,-0.17467 -0.21238,-0.19938 -0.33113,-0.25838 -0.51986,-0.25838 -0.18636,0 -0.30569,0.058 -0.49816,0.24288 -0.26263,0.25194 -0.39898,0.25443 -0.63614,0.0108 -0.1805,-0.18539 -0.3162,-0.253 -0.5116,-0.25373 z m -0.56327,0.0465 c -0.004,0.002 -0.008,0.005 -0.0108,0.009 l -0.004,0.006 c 0.005,-0.005 0.009,-0.0103 0.0145,-0.0155 z m 2.18178,0.79633 c -0.18636,0 -0.30569,0.0586 -0.49816,0.2434 -0.26263,0.25194 -0.39846,0.25391 -0.63562,0.0103 -0.1805,-0.18539 -0.3162,-0.25248 -0.5116,-0.25321 -0.20272,-8.1e-4 -0.32907,0.0679 -0.56689,0.30747 -0.2053,0.20686 -0.24178,0.29091 -0.16588,0.38241 0.0736,0.0887 0.16501,0.0481 0.39429,-0.1757 0.20621,-0.2012 0.22997,-0.21653 0.3359,-0.21653 0.10204,0 0.13118,0.0166 0.2806,0.15917 0.21352,0.20374 0.35227,0.27411 0.53795,0.27337 0.18776,-7.8e-4 0.34006,-0.0725 0.48576,-0.22893 0.14218,-0.15272 0.23254,-0.20361 0.36122,-0.20361 0.0824,0 0.12584,0.0271 0.28629,0.17777 0.21918,0.20584 0.32097,0.25551 0.51883,0.25477 0.18474,-7.6e-4 0.32838,-0.069 0.48111,-0.22841 0.26173,-0.27319 0.41523,-0.27319 0.67696,0 0.15273,0.15955 0.29688,0.22767 0.48162,0.22841 0.19786,8.2e-4 0.29913,-0.0489 0.51832,-0.25477 0.16449,-0.15449 0.20267,-0.17797 0.29197,-0.17777 0.12471,2.3e-4 0.19138,0.0448 0.39791,0.26407 0.16707,0.17732 0.26866,0.21526 0.34106,0.12816 0.0758,-0.0913 0.0394,-0.17549 -0.16588,-0.38447 -0.23062,-0.23485 -0.35769,-0.30417 -0.55914,-0.30489 -0.19784,-8.4e-4 -0.29964,0.0489 -0.51883,0.25476 -0.16449,0.15451 -0.20267,0.17745 -0.29197,0.17725 -0.11877,-2.2e-4 -0.22335,-0.0617 -0.33487,-0.19689 -0.11049,-0.13405 -0.32588,-0.23616 -0.49867,-0.23616 -0.17262,0 -0.37943,0.0984 -0.5085,0.24133 -0.13438,0.14868 -0.20761,0.19224 -0.32401,0.19224 -0.0898,0 -0.12784,-0.023 -0.28939,-0.17467 -0.21238,-0.19938 -0.33165,-0.2589 -0.52038,-0.2589 z" />
    <rect
       style="opacity:1;vector-effect:none;fill:#1a1a1a;fill-opacity:1;stroke:none;stroke-width:0.1;stroke-linecap:butt;stroke-linejoin:miter;stroke-miterlimit:4;stroke-dasharray:none;stroke-dashoffset:0;stroke-opacity:1"
       id="rect860"
       width="7.0941477"
       height="0"
       x="148.86763"
       y="129.31949" />
  </g>
</svg>
