<?xml version="1.0" encoding="UTF-8" standalone="no"?>
<!-- Created with Inkscape (http://www.inkscape.org/) -->

<svg
   xmlns:dc="http://purl.org/dc/elements/1.1/"
   xmlns:cc="http://creativecommons.org/ns#"
   xmlns:rdf="http://www.w3.org/1999/02/22-rdf-syntax-ns#"
   xmlns:svg="http://www.w3.org/2000/svg"
   xmlns="http://www.w3.org/2000/svg"
   xmlns:sodipodi="http://sodipodi.sourceforge.net/DTD/sodipodi-0.dtd"
   xmlns:inkscape="http://www.inkscape.org/namespaces/inkscape"
   sodipodi:docname="ams.svg"
   inkscape:version="0.92.5 (2060ec1f9f, 2020-04-08)"
   id="svg8"
   version="1.1"
   viewBox="0 0 6.8589293 6.8461938"
   height="6.8461938mm"
   width="6.8589292mm">
  <defs
     id="defs2" />
  <sodipodi:namedview
     id="base"
     pagecolor="#ffffff"
     bordercolor="#666666"
     borderopacity="1.0"
     inkscape:pageopacity="0.0"
     inkscape:pageshadow="2"
     inkscape:zoom="7.9999999"
     inkscape:cx="10.426833"
     inkscape:cy="0.45265001"
     inkscape:document-units="mm"
     inkscape:current-layer="layer1"
     showgrid="false"
     inkscape:window-width="924"
     inkscape:window-height="1016"
     inkscape:window-x="996"
     inkscape:window-y="27"
     inkscape:window-maximized="0"
     inkscape:snap-global="false"
     fit-margin-top="0"
     fit-margin-left="0"
     fit-margin-right="0"
     fit-margin-bottom="0"
     showguides="false"
     inkscape:guide-bbox="true" />
  <metadata
     id="metadata5">
    <rdf:RDF>
      <cc:Work
         rdf:about="">
        <dc:format>image/svg+xml</dc:format>
        <dc:type
           rdf:resource="http://purl.org/dc/dcmitype/StillImage" />
        <dc:title></dc:title>
      </cc:Work>
    </rdf:RDF>
  </metadata>
  <g
     inkscape:label="Capa 1"
     inkscape:groupmode="layer"
     id="layer1"
     transform="translate(-150.4884,-112.94971)">
    <rect
       style="opacity:1;vector-effect:none;fill:#1a1a1a;fill-opacity:1;stroke:none;stroke-width:0.1;stroke-linecap:butt;stroke-linejoin:miter;stroke-miterlimit:4;stroke-dasharray:none;stroke-dashoffset:0;stroke-opacity:1"
       id="rect860"
       width="7.0941477"
       height="0"
       x="148.86763"
       y="129.31949" />
    <path
       style="fill:#000000;stroke-width:0.0457251"
       d="M 6.3066406 0.70507812 C 6.2689587 0.70507812 5.9922566 0.95192205 5.6914062 1.2539062 L 5.1445312 1.8027344 L 5.6679688 2.328125 L 6.1914062 2.8535156 L 5.875 3.1757812 L 5.5566406 3.4960938 L 5.0507812 2.9921875 C 4.7732884 2.7153749 4.5264567 2.4902344 4.5 2.4902344 C 4.4748661 2.4902344 4.1984664 2.7460902 3.8847656 3.0605469 L 3.3144531 3.6328125 L 3.8398438 4.1582031 L 4.3632812 4.6835938 L 4.0449219 5.0039062 L 3.7265625 5.3261719 L 3.2226562 4.8222656 C 2.9450501 4.5454152 2.6965053 4.3183594 2.6738281 4.3183594 C 2.614036 4.3183594 1.5527344 5.3793586 1.5527344 5.4394531 C 1.5527344 5.4654563 1.7690141 5.7017886 2.0332031 5.9648438 C 2.2971275 6.2278988 2.5136719 6.4618247 2.5136719 6.4882812 C 2.5136719 6.5132261 2.4159301 6.6329615 2.296875 6.7539062 L 2.0800781 6.9726562 L 2.4570312 7.3476562 L 2.8320312 7.7246094 L 3.0742188 7.484375 L 3.3164062 7.2441406 L 3.7617188 7.6953125 C 4.0058383 7.9435141 4.2050781 8.1688558 4.2050781 8.1953125 C 4.2050781 8.2217692 4.1138271 8.3444035 4.0019531 8.46875 L 3.7988281 8.6933594 L 4.1621094 9.0546875 L 4.5234375 9.4160156 L 4.765625 9.1757812 L 5.0078125 8.9375 L 7.7773438 11.714844 C 9.3001153 13.242982 10.569246 14.536489 10.595703 14.587891 C 10.635766 14.664048 10.617543 14.737255 10.5 14.974609 C 10.365827 15.242162 10.353516 15.306905 10.353516 15.705078 C 10.353516 16.205154 10.400664 16.377343 10.890625 16.900391 L 4.2070312 16.900391 C 2.6810122 16.900391 1.4511719 17.740371 1.4511719 18.785156 L 1.4511719 22.933594 C 1.4511719 23.978379 2.6810122 24.820312 4.2070312 24.820312 L 17.416016 24.820312 C 18.942035 24.820312 20.171875 23.978379 20.171875 22.933594 L 20.171875 22.042969 C 21.499908 20.761532 23.711911 18.540478 23.800781 18.363281 C 23.905852 18.153933 23.937362 17.782454 23.875 17.492188 C 23.815548 17.214884 23.679684 17.002584 23.263672 16.539062 C 22.946192 16.184619 22.894545 16.061003 22.964844 15.806641 C 23.037222 15.544493 23.204064 15.333348 23.632812 14.964844 C 23.986198 14.661095 24.259348 14.348471 24.457031 14.033203 L 25.3125 13.085938 C 25.739139 12.613565 25.714366 11.877053 25.255859 11.435547 L 22.107422 8.4042969 C 22.122126 8.3866326 22.236305 8.2725586 22.242188 8.2636719 C 22.415289 8.0007679 22.421466 7.7020014 22.257812 7.4238281 C 22.123678 7.1958092 21.569506 6.6281149 21.300781 6.4414062 C 21.07091 6.2822882 20.742775 6.2457991 20.515625 6.3535156 C 20.496597 6.3625421 20.223586 6.6304616 20.148438 6.6953125 C 19.7495 6.570768 19.301987 6.6693382 18.998047 7.0058594 L 17.865234 8.2597656 C 17.638551 8.5107483 17.548449 8.8343504 17.574219 9.1503906 L 17.207031 9.5097656 L 16.638672 9.5097656 C 16.107573 9.5097656 16.055023 9.5168444 15.832031 9.6347656 C 15.700882 9.703553 15.560287 9.7597656 15.517578 9.7597656 C 15.475096 9.7597656 14.172048 8.4948186 12.623047 6.9492188 L 9.8066406 4.1386719 L 10.033203 3.9082031 L 10.261719 3.6777344 L 9.9003906 3.3144531 L 9.5410156 2.9511719 L 9.3144531 3.1542969 C 9.1901067 3.2665488 9.0737118 3.3574219 9.0585938 3.3574219 C 9.0420016 3.3574219 8.8224703 3.1533043 8.5722656 2.9023438 L 8.1171875 2.4453125 L 8.34375 2.2148438 L 8.5703125 1.984375 L 8.1953125 1.609375 L 7.8183594 1.2324219 L 7.5898438 1.4589844 L 7.359375 1.6855469 L 6.8671875 1.1953125 C 6.5966867 0.9257188 6.3444359 0.70507813 6.3066406 0.70507812 z M 6.9472656 3.6132812 L 7.4277344 4.0917969 L 7.9082031 4.5683594 L 7.5996094 4.8789062 C 7.4306645 5.0497409 7.2826962 5.1875 7.2675781 5.1875 C 7.2538962 5.1875 7.0327765 4.9772697 6.7753906 4.71875 L 6.3066406 4.2480469 L 6.6269531 3.9316406 L 6.9472656 3.6132812 z M 8.640625 5.3046875 L 11.486328 8.1503906 L 14.332031 10.996094 L 14.011719 11.316406 L 13.691406 11.636719 L 10.84375 8.7890625 L 7.9980469 5.9414062 L 8.3183594 5.6230469 L 8.640625 5.3046875 z M 5.1191406 5.4414062 L 5.5761719 5.8984375 C 5.8276238 6.1487934 6.0332031 6.3739339 6.0332031 6.4003906 C 6.0332031 6.4264694 5.9040779 6.5763274 5.7460938 6.7324219 C 5.5881095 6.8892723 5.4468855 7.0175781 5.4355469 7.0175781 C 5.4231878 7.0175781 5.2026983 6.8050167 4.9453125 6.546875 L 4.4785156 6.078125 L 4.7988281 5.7597656 L 5.1191406 5.4414062 z M 6.8125 7.1328125 L 9.65625 9.9785156 L 12.501953 12.824219 L 12.181641 13.144531 L 11.863281 13.464844 L 9.015625 10.619141 L 6.1699219 7.7714844 L 6.4902344 7.453125 L 6.8125 7.1328125 z M 19.328125 11.263672 L 21.712891 13.560547 C 21.637935 13.665972 21.510651 13.876882 21.480469 13.902344 C 21.353855 14.006281 21.308431 14.020724 21.117188 13.998047 C 20.764633 13.956245 20.594415 13.84486 19.980469 13.25 L 19.400391 12.6875 L 19.367188 12.263672 C 19.347534 12.011086 19.298629 11.760814 19.246094 11.640625 L 19.15625 11.4375 L 19.328125 11.263672 z "
       transform="matrix(0.26458333,0,0,0.26458333,150.4884,112.94971)"
       id="path1106" />
  </g>
</svg>
