<?xml version="1.0" encoding="UTF-8" standalone="no"?>
<!-- Created with Inkscape (http://www.inkscape.org/) -->

<svg
   sodipodi:docname="anti-personnel.svg"
   inkscape:version="1.2.2 (b0a8486541, 2022-12-01)"
   id="svg8"
   version="1.1"
   viewBox="0 0 6.8589293 6.8461938"
   height="25.875378"
   width="25.923512"
   xml:space="preserve"
   xmlns:inkscape="http://www.inkscape.org/namespaces/inkscape"
   xmlns:sodipodi="http://sodipodi.sourceforge.net/DTD/sodipodi-0.dtd"
   xmlns="http://www.w3.org/2000/svg"
   xmlns:svg="http://www.w3.org/2000/svg"
   xmlns:rdf="http://www.w3.org/1999/02/22-rdf-syntax-ns#"
   xmlns:cc="http://creativecommons.org/ns#"
   xmlns:dc="http://purl.org/dc/elements/1.1/"><defs
     id="defs2" /><sodipodi:namedview
     id="base"
     pagecolor="#ffffff"
     bordercolor="#666666"
     borderopacity="1.0"
     inkscape:pageopacity="0.0"
     inkscape:pageshadow="2"
     inkscape:zoom="8"
     inkscape:cx="37.0625"
     inkscape:cy="12.5"
     inkscape:document-units="mm"
     inkscape:current-layer="layer1"
     showgrid="false"
     inkscape:window-width="1920"
     inkscape:window-height="1043"
     inkscape:window-x="1920"
     inkscape:window-y="0"
     inkscape:window-maximized="1"
     inkscape:snap-global="false"
     fit-margin-top="0"
     fit-margin-left="0"
     fit-margin-right="0"
     fit-margin-bottom="0"
     showguides="false"
     inkscape:guide-bbox="true"
     units="px"
     inkscape:pagecheckerboard="0"
     inkscape:showpageshadow="2"
     inkscape:deskcolor="#d1d1d1" /><metadata
     id="metadata5"><rdf:RDF><cc:Work
         rdf:about=""><dc:format>image/svg+xml</dc:format><dc:type
           rdf:resource="http://purl.org/dc/dcmitype/StillImage" /></cc:Work></rdf:RDF></metadata><g
     inkscape:label="Capa 1"
     inkscape:groupmode="layer"
     id="layer1"
     transform="translate(-150.4884,-112.94971)"><rect
       style="opacity:1;vector-effect:none;fill:#1a1a1a;fill-opacity:1;stroke:none;stroke-width:0.1;stroke-linecap:butt;stroke-linejoin:miter;stroke-miterlimit:4;stroke-dasharray:none;stroke-dashoffset:0;stroke-opacity:1"
       id="rect860"
       width="7.0941477"
       height="0"
       x="148.86763"
       y="129.31949" /><path
       id="path3580"
       style="fill:#000000;stroke-width:0.00744574"
       d="m 151.72936,113.3232 c -0.01,0 -0.0176,0.1616 -0.0176,0.35864 v 0.35811 h -0.35863 c -0.19087,0 -0.34848,0.008 -0.35812,0.0181 0,0.0101 0.12126,0.13925 0.26924,0.28681 l 0.26871,0.2682 h 0.23513 c 0.21457,0 0.23348,0.004 0.21756,0.0419 -0.0649,0.15563 -0.0622,0.36294 0.007,0.53124 0.0247,0.0603 0.34004,0.39525 0.62994,0.68368 -0.0523,0.0155 -0.0609,0.0183 -0.13281,0.0393 -0.16381,0.0478 -0.31811,0.0928 -0.34261,0.10077 -0.0657,0.0204 -0.39664,0.11712 -0.43564,0.12712 -0.0184,0.005 -0.0421,0.0158 -0.0522,0.0248 -0.012,0.01 -0.0137,0.0106 -0.008,0.003 0.009,-0.011 0.009,-0.0128 0,-0.009 -0.006,0.002 -0.11438,0.0338 -0.24133,0.0708 -0.12695,0.037 -0.23268,0.0683 -0.23668,0.0692 -0.003,0.001 0.0249,0.015 0.0631,0.031 0.0381,0.016 0.12463,0.0523 0.19223,0.0806 0.16009,0.0671 0.35512,0.14901 0.53589,0.22531 0.0799,0.0337 0.18703,0.0788 0.23823,0.10025 0.0512,0.0214 0.16673,0.0696 0.25683,0.10749 0.0901,0.0379 0.18666,0.0784 0.21446,0.0899 0.0278,0.0115 0.0523,0.0239 0.0543,0.0269 0.002,0.003 -0.0145,0.0384 -0.0367,0.0785 -0.0222,0.0402 -0.0914,0.16697 -0.154,0.28163 -0.0626,0.11467 -0.1306,0.23854 -0.1509,0.27544 -0.0362,0.066 -0.17422,0.32009 -0.3638,0.66921 -0.0531,0.0977 -0.095,0.17883 -0.094,0.17983 0.001,0.001 0.0292,-0.009 0.062,-0.0222 0.0328,-0.0135 0.17184,-0.0702 0.30903,-0.12609 0.13719,-0.0559 0.28463,-0.11646 0.32763,-0.13436 0.15914,-0.0662 0.20667,-0.0857 0.30127,-0.12299 0.0533,-0.021 0.11127,-0.0447 0.12867,-0.0527 0.0173,-0.008 0.0326,-0.0145 0.0346,-0.0145 0.002,0 0.0932,-0.0371 0.20257,-0.0822 0.10941,-0.045 0.19941,-0.0806 0.19999,-0.0796 7e-4,0.001 0.01,0.0318 0.0202,0.0687 0.0105,0.0369 0.0313,0.10803 0.046,0.15813 0.0147,0.0502 0.0386,0.1307 0.0527,0.1788 0.075,0.25582 0.12901,0.44033 0.19741,0.67179 0.0918,0.31078 0.12346,0.41859 0.14366,0.48989 l 5.1e-4,-0.001 c 0.008,0.0298 0.0177,0.0516 0.0207,0.0486 0.003,-0.003 0.0194,-0.0393 0.0367,-0.0801 l 0.11731,-0.27957 c 0.0246,-0.0594 0.0664,-0.15974 0.093,-0.22324 0.0266,-0.0635 0.07,-0.1675 0.0966,-0.231 0.0508,-0.12135 0.28244,-0.67163 0.30024,-0.71313 0.006,-0.0133 0.012,-0.0238 0.014,-0.0238 0.004,0 0.0768,0.0397 0.28318,0.15399 0.0737,0.0409 0.1419,0.0782 0.1509,0.0832 l 0.0165,0.009 v -0.1664 -0.16588 l -0.0543,-0.0305 c -0.0922,-0.0518 -0.52201,-0.28387 -0.53381,-0.28887 -0.008,-0.003 -0.0188,0.0129 -0.0403,0.0646 -0.0158,0.0379 -0.0448,0.10741 -0.0646,0.15451 -0.0198,0.0471 -0.0768,0.18303 -0.1266,0.30179 -0.0499,0.11876 -0.11371,0.2714 -0.14211,0.339 -0.0285,0.0676 -0.0619,0.14887 -0.0744,0.18087 -0.0125,0.032 -0.0243,0.0563 -0.0264,0.0543 -0.002,-0.002 -0.0196,-0.0582 -0.0393,-0.12506 -0.0197,-0.0669 -0.0485,-0.16325 -0.0636,-0.21445 -0.0151,-0.0512 -0.0526,-0.17876 -0.0832,-0.28319 -0.0306,-0.10443 -0.0671,-0.22995 -0.0816,-0.27905 -0.0145,-0.0491 -0.0364,-0.12229 -0.0481,-0.16279 -0.0118,-0.0404 -0.0223,-0.0745 -0.0243,-0.0765 -0.004,-0.004 -0.0576,0.0168 -0.27286,0.10542 -0.0962,0.0396 -0.22378,0.0913 -0.28318,0.11524 -0.0594,0.0239 -0.16136,0.0659 -0.22686,0.093 -0.22642,0.0937 -0.31801,0.13022 -0.32401,0.13022 -0.005,0 0.0238,-0.0555 0.11368,-0.216 0.0103,-0.0184 0.0302,-0.055 0.0444,-0.0816 0.0141,-0.0266 0.0943,-0.17406 0.17828,-0.32763 0.084,-0.15357 0.16578,-0.30265 0.18138,-0.33125 0.0156,-0.0286 0.0332,-0.0592 0.0383,-0.0672 0.005,-0.008 0.01,-0.0182 0.01,-0.0222 0,-0.004 -0.0308,-0.0209 -0.0687,-0.0367 -0.0379,-0.0158 -0.11106,-0.0465 -0.16226,-0.0682 -0.0512,-0.0216 -0.15629,-0.0661 -0.23409,-0.0987 -0.0778,-0.0327 -0.19334,-0.0813 -0.25684,-0.10801 -0.0635,-0.0267 -0.17556,-0.0734 -0.24856,-0.10387 -0.0957,-0.04 -0.12886,-0.0565 -0.11886,-0.0605 0.007,-0.003 0.0804,-0.0248 0.16227,-0.0486 0.15689,-0.0456 0.19647,-0.0572 0.40618,-0.11938 0.0649,-0.0193 0.16681,-0.0494 0.24236,-0.0713 0.10827,0.10217 0.19388,0.17778 0.23047,0.19947 0.11527,0.0683 0.36336,0.0956 0.49713,0.0543 0.14352,-0.0446 0.29962,-0.17297 0.37621,-0.30954 0.0652,-0.11628 0.0739,-0.15333 0.0739,-0.32246 0,-0.16442 -0.008,-0.20621 -0.0641,-0.29869 -0.0149,-0.0251 -0.0548,-0.0729 -0.10955,-0.13384 0.0124,-0.0297 0.0262,-0.0628 0.0341,-0.0816 0.0154,-0.0369 0.0499,-0.11892 0.0765,-0.18242 0.0266,-0.0635 0.0926,-0.22136 0.14676,-0.35036 0.0543,-0.12899 0.10624,-0.25231 0.11524,-0.27441 l 0.0165,-0.0403 0.0155,0.0475 c 0.008,0.0262 0.0431,0.14164 0.0765,0.25631 0.0334,0.11466 0.0802,0.27357 0.10387,0.35347 0.0237,0.0799 0.0652,0.22313 0.093,0.31833 0.0278,0.0952 0.0528,0.17311 0.0558,0.17311 0.003,0 0.0583,-0.0222 0.1235,-0.0491 0.0651,-0.027 0.1456,-0.0591 0.1788,-0.0718 l 0.0605,-0.0233 -0.003,-0.0672 c -0.003,-0.0551 -1.9e-4,-0.0757 0.0124,-0.11162 0.0299,-0.0849 0.1015,-0.15594 0.1819,-0.17984 0.0531,-0.0157 0.13487,-0.0139 0.18707,0.004 0.0238,0.008 0.0436,0.015 0.0439,0.015 2.3e-4,0 5.2e-4,-0.0334 5.2e-4,-0.0744 v -0.0744 c 0,6e-4 -0.23098,0.0945 -0.30128,0.12248 -0.0553,0.022 -0.14475,0.0585 -0.19895,0.0811 -0.0542,0.0226 -0.0993,0.0387 -0.10129,0.0357 -0.002,-0.003 -0.0132,-0.0402 -0.0258,-0.0832 -0.0126,-0.043 -0.0365,-0.1235 -0.0527,-0.1788 -0.0162,-0.0553 -0.0497,-0.17084 -0.0749,-0.25684 -0.0252,-0.086 -0.0541,-0.1832 -0.0641,-0.216 -0.01,-0.0328 -0.0266,-0.0892 -0.0372,-0.12609 -0.0106,-0.0369 -0.0309,-0.10642 -0.045,-0.15452 -0.0141,-0.0481 -0.0374,-0.12815 -0.0517,-0.17725 -0.11475,-0.39349 -0.12522,-0.42509 -0.13022,-0.41909 -0.003,0.003 -0.0253,0.0548 -0.0501,0.1142 -0.12289,0.29397 -0.20622,0.49287 -0.29972,0.71469 -0.0319,0.0758 -0.0906,0.21482 -0.13022,0.30902 -0.0396,0.0942 -0.0895,0.21287 -0.11111,0.26407 -0.0216,0.0512 -0.0446,0.10552 -0.0496,0.12092 -0.006,0.0153 -0.012,0.0279 -0.016,0.0279 -1.2e-4,0 -8.7e-4,-4.9e-4 -0.001,-5.2e-4 -0.30583,-0.31382 -0.7184,-0.70726 -0.78703,-0.73536 -0.1683,-0.0689 -0.37563,-0.0711 -0.53124,-0.007 -0.0382,0.016 -0.0419,-0.003 -0.0419,-0.21859 v -0.23565 l -0.26924,-0.2682 c -0.14798,-0.14757 -0.27665,-0.26872 -0.28629,-0.26872 z m 4.14549,1.21337 c -0.038,-2.2e-4 -0.061,0.003 -0.0863,0.0103 -0.18163,0.0528 -0.30803,0.21791 -0.30851,0.40256 -1e-4,0.0521 0.0219,0.13747 0.0506,0.19637 0.0255,0.0523 0.10385,0.13345 0.16175,0.16795 0.0246,0.0146 0.0493,0.0269 0.0563,0.0269 0.0132,2e-5 0.0195,-0.0125 0.0744,-0.15296 0.0832,-0.21257 0.0904,-0.2277 0.13074,-0.2713 0.0713,-0.077 0.16207,-0.10844 0.26252,-0.0904 0.0284,0.005 0.0571,0.0136 0.0651,0.0196 0.023,0.0175 0.0246,0.0128 0.009,-0.0326 -0.0366,-0.10844 -0.11422,-0.19194 -0.22789,-0.24494 -0.054,-0.0253 -0.064,-0.027 -0.14418,-0.03 -0.0167,-7.3e-4 -0.0312,-0.001 -0.0439,-0.002 z m 0.28525,0.38188 c -0.046,10e-4 -0.0922,0.0191 -0.12867,0.0558 -0.0325,0.0327 -0.0413,0.0523 -0.1416,0.30335 -0.0589,0.14742 -0.10969,0.27143 -0.11369,0.27543 -0.004,0.005 -0.0178,-0.005 -0.0372,-0.0264 -0.0475,-0.052 -0.26336,-0.28017 -0.32556,-0.34417 -0.0366,-0.0376 -0.0684,-0.0627 -0.092,-0.0729 -0.0469,-0.0205 -0.11224,-0.0213 -0.15554,-0.002 -0.0371,0.0165 -0.0844,0.0657 -0.10077,0.1049 -0.0155,0.0379 -0.0141,0.11192 0.004,0.15142 0.01,0.0216 0.1007,0.12412 0.27699,0.3116 0.40546,0.43093 0.38408,0.41022 0.44338,0.42892 l -5.1e-4,5.2e-4 c 0.0536,0.0168 0.10248,0.009 0.15658,-0.0248 0.0428,-0.0267 0.0641,-0.0606 0.10748,-0.17001 0.0211,-0.053 0.0463,-0.11496 0.0553,-0.13746 0.009,-0.0225 0.0697,-0.17177 0.13384,-0.33177 0.12776,-0.31869 0.12939,-0.32591 0.10129,-0.40101 -0.03,-0.0802 -0.10628,-0.12375 -0.18294,-0.12144 z m 0.47336,0.11008 c -0.0217,1.5e-4 -0.0364,0.005 -0.0615,0.016 -0.0502,0.0229 -0.0921,0.0657 -0.10645,0.10956 -0.006,0.0184 -0.0162,0.0956 -0.0222,0.17105 -0.006,0.0755 -0.0125,0.13804 -0.0145,0.14004 -0.003,0.003 -0.0251,-0.0326 -0.0475,-0.0755 -0.007,-0.014 -0.008,-0.014 -0.015,0 -0.004,0.008 -0.0308,0.0725 -0.0594,0.14418 -0.11338,0.28375 -0.19747,0.4894 -0.21187,0.5178 -0.0407,0.0801 -0.10582,0.12884 -0.19792,0.14934 -0.0654,0.0145 -0.113,0.009 -0.185,-0.0233 -0.0463,-0.0205 -0.0585,-0.0319 -0.29663,-0.28629 -0.0939,-0.10033 -0.21266,-0.22745 -0.26406,-0.28215 -0.0514,-0.0547 -0.10453,-0.11118 -0.11783,-0.12558 -0.0133,-0.0143 -0.0238,-0.0242 -0.0238,-0.0212 0,0.006 -0.0406,0.20623 -0.11213,0.55552 -0.11645,0.56809 -0.12803,0.62976 -0.12403,0.65526 0.004,0.0312 0.0721,0.19008 0.22634,0.52865 0.0102,0.0225 0.0315,0.0691 0.047,0.10387 0.0156,0.0348 0.051,0.11378 0.0791,0.17518 l 0.0511,0.11162 0.004,0.66663 0.004,0.6661 0.0232,0.0486 c 0.0398,0.084 0.11644,0.1449 0.20464,0.1633 0.0417,0.008 0.11804,0.003 0.16175,-0.0114 0.0437,-0.0143 0.10109,-0.0579 0.13539,-0.10335 0.0514,-0.0679 0.0492,-0.044 0.0532,-0.73381 0.002,-0.34195 9.3e-4,-0.6638 -0.002,-0.7152 l -0.006,-0.0935 -0.0863,-0.19586 c -0.0476,-0.10781 -0.0863,-0.20554 -0.0863,-0.21704 0,-0.0307 0.0294,-0.0616 0.0579,-0.061 0.037,0.001 0.0494,0.0128 0.0739,0.0667 0.0127,0.0279 0.071,0.15784 0.12971,0.28888 l 0.10697,0.23822 0.004,0.66663 0.004,0.66663 0.0248,0.0496 c 0.0954,0.19381 0.36888,0.21591 0.49816,0.0403 l 0.0325,-0.0444 -0.002,-0.009 0.0103,-0.0217 c 0.008,-0.0175 0.01,-0.16737 0.01,-0.74053 v -0.71882 l -0.0584,-0.13022 c -0.032,-0.0717 -0.0886,-0.19867 -0.12558,-0.28267 -0.037,-0.084 -0.0937,-0.21247 -0.12609,-0.28577 l -0.0584,-0.13333 0.0139,-0.0754 c 0.0268,-0.14051 0.11999,-0.58767 0.12299,-0.59067 0.002,-0.002 0.007,0.004 0.0124,0.014 0.005,0.01 0.0368,0.0593 0.0703,0.11058 0.0566,0.0866 0.064,0.0949 0.10594,0.11731 0.0362,0.019 0.0539,0.0243 0.0889,0.0243 0.0765,-1.3e-4 0.14967,-0.0478 0.17777,-0.11524 0.0134,-0.0319 0.0206,-0.10294 0.0558,-0.55501 0.0123,-0.15767 0.0249,-0.30686 0.0269,-0.33176 0.0122,-0.12092 -0.0636,-0.21579 -0.18035,-0.22479 -0.01,-7.5e-4 -0.0175,-10e-4 -0.0248,-10e-4 z" /></g></svg>
