<?xml version="1.0" encoding="UTF-8" standalone="no"?>
<!-- Created with Inkscape (http://www.inkscape.org/) -->

<svg
   sodipodi:docname="artemis.svg"
   inkscape:version="1.1.2 (0a00cf5339, 2022-02-04)"
   id="svg8"
   version="1.1"
   viewBox="0 0 6.8589293 6.8461938"
   height="25.875378"
   width="25.923512"
   xmlns:inkscape="http://www.inkscape.org/namespaces/inkscape"
   xmlns:sodipodi="http://sodipodi.sourceforge.net/DTD/sodipodi-0.dtd"
   xmlns="http://www.w3.org/2000/svg"
   xmlns:svg="http://www.w3.org/2000/svg"
   xmlns:rdf="http://www.w3.org/1999/02/22-rdf-syntax-ns#"
   xmlns:cc="http://creativecommons.org/ns#"
   xmlns:dc="http://purl.org/dc/elements/1.1/">
  <defs
     id="defs2" />
  <sodipodi:namedview
     id="base"
     pagecolor="#ffffff"
     bordercolor="#666666"
     borderopacity="1.0"
     inkscape:pageopacity="0.0"
     inkscape:pageshadow="2"
     inkscape:zoom="16"
     inkscape:cx="9.28125"
     inkscape:cy="13"
     inkscape:document-units="mm"
     inkscape:current-layer="layer1"
     showgrid="false"
     inkscape:window-width="1920"
     inkscape:window-height="1043"
     inkscape:window-x="0"
     inkscape:window-y="0"
     inkscape:window-maximized="1"
     inkscape:snap-global="false"
     fit-margin-top="0"
     fit-margin-left="0"
     fit-margin-right="0"
     fit-margin-bottom="0"
     showguides="true"
     inkscape:guide-bbox="true"
     units="px"
     inkscape:pagecheckerboard="0" />
  <metadata
     id="metadata5">
    <rdf:RDF>
      <cc:Work
         rdf:about="">
        <dc:format>image/svg+xml</dc:format>
        <dc:type
           rdf:resource="http://purl.org/dc/dcmitype/StillImage" />
      </cc:Work>
    </rdf:RDF>
  </metadata>
  <g
     inkscape:label="Capa 1"
     inkscape:groupmode="layer"
     id="layer1"
     transform="translate(-150.4884,-112.94971)">
    <rect
       style="opacity:1;vector-effect:none;fill:#1a1a1a;fill-opacity:1;stroke:none;stroke-width:0.1;stroke-linecap:butt;stroke-linejoin:miter;stroke-miterlimit:4;stroke-dasharray:none;stroke-dashoffset:0;stroke-opacity:1"
       id="rect860"
       width="7.0941477"
       height="0"
       x="148.86763"
       y="129.31949" />
    <path
       id="path1225"
       style="display:inline;fill:#000000;stroke:#000000;stroke-width:0.0763138;stroke-linecap:round;stop-color:#000000"
       d="m 153.30384,113.64683 a 2.0247961,2.561557 39.559363 0 0 -1.37873,0.46043 c 0.0454,0.0299 0.0855,0.0569 0.12919,0.0858 a 1.3662777,1.7501423 35.886181 0 1 1.26452,-0.17312 1.3662777,1.7501423 35.886181 0 1 0.5023,2.05207 1.3662777,1.7501423 35.886181 0 1 -2.07429,1.0449 1.3662777,1.7501423 35.886181 0 1 -0.52607,-1.99419 c -0.0441,-0.0643 -0.0845,-0.12303 -0.12971,-0.18914 a 2.0247961,2.561557 39.559363 0 0 -0.10232,0.1571 2.0247961,2.561557 39.559363 0 0 0.50281,3.0887 2.0247961,2.561557 39.559363 0 0 2.19108,-0.25839 l 0.30955,0.37879 c 0.008,0.01 0.0167,0.0187 0.0258,0.0269 0.004,0.006 0.007,0.0113 0.0109,0.0165 l 0.54467,0.68368 c 0.0661,0.083 0.1862,0.0966 0.26923,0.0305 l 2.36213,-1.88206 c 0.083,-0.0661 0.0966,-0.1862 0.0305,-0.26923 l -0.54467,-0.68368 c -0.0372,-0.0467 -0.0911,-0.0714 -0.14624,-0.0724 -0.0429,-7.2e-4 -0.0867,0.0129 -0.12299,0.0419 l -1.66399,1.32602 -0.28318,-0.34675 a 2.0247961,2.561557 39.559363 0 0 0.17053,-0.25115 2.0247961,2.561557 39.559363 0 0 -0.50281,-3.0887 2.0247961,2.561557 39.559363 0 0 -0.83819,-0.18448 z m -2.17817,0.47904 c -0.0127,0 1.08951,1.64726 1.13379,1.69447 0.0924,0.0985 0.25495,0.14539 0.37103,0.10697 0.0928,-0.0307 0.13808,-0.0601 0.20257,-0.13178 0.13217,-0.14701 0.14084,-0.35308 0.0212,-0.49816 -0.0268,-0.0325 -0.35091,-0.25727 -0.8816,-0.61133 -0.46171,-0.30804 -0.84305,-0.56017 -0.84698,-0.56017 z" />
  </g>
</svg>
