<?xml version="1.0" encoding="UTF-8" standalone="no"?>
<!-- Created with Inkscape (http://www.inkscape.org/) -->

<svg
   xmlns:dc="http://purl.org/dc/elements/1.1/"
   xmlns:cc="http://creativecommons.org/ns#"
   xmlns:rdf="http://www.w3.org/1999/02/22-rdf-syntax-ns#"
   xmlns:svg="http://www.w3.org/2000/svg"
   xmlns="http://www.w3.org/2000/svg"
   xmlns:sodipodi="http://sodipodi.sourceforge.net/DTD/sodipodi-0.dtd"
   xmlns:inkscape="http://www.inkscape.org/namespaces/inkscape"
   sodipodi:docname="bad aim.svg"
   inkscape:version="0.92.5 (2060ec1f9f, 2020-04-08)"
   id="svg8"
   version="1.1"
   viewBox="0 0 6.8589293 6.8461938"
   height="25.875378"
   width="25.923512">
  <defs
     id="defs2" />
  <sodipodi:namedview
     id="base"
     pagecolor="#ffffff"
     bordercolor="#666666"
     borderopacity="1.0"
     inkscape:pageopacity="0.0"
     inkscape:pageshadow="2"
     inkscape:zoom="4"
     inkscape:cx="-80.790984"
     inkscape:cy="19.260496"
     inkscape:document-units="mm"
     inkscape:current-layer="layer1"
     showgrid="false"
     inkscape:window-width="1920"
     inkscape:window-height="1043"
     inkscape:window-x="0"
     inkscape:window-y="0"
     inkscape:window-maximized="1"
     inkscape:snap-global="false"
     fit-margin-top="0"
     fit-margin-left="0"
     fit-margin-right="0"
     fit-margin-bottom="0"
     showguides="false"
     inkscape:guide-bbox="true"
     units="px" />
  <metadata
     id="metadata5">
    <rdf:RDF>
      <cc:Work
         rdf:about="">
        <dc:format>image/svg+xml</dc:format>
        <dc:type
           rdf:resource="http://purl.org/dc/dcmitype/StillImage" />
        <dc:title></dc:title>
      </cc:Work>
    </rdf:RDF>
  </metadata>
  <g
     inkscape:label="Capa 1"
     inkscape:groupmode="layer"
     id="layer1"
     transform="translate(-150.4884,-112.94971)">
    <rect
       style="opacity:1;vector-effect:none;fill:#1a1a1a;fill-opacity:1;stroke:none;stroke-width:0.1;stroke-linecap:butt;stroke-linejoin:miter;stroke-miterlimit:4;stroke-dasharray:none;stroke-dashoffset:0;stroke-opacity:1"
       id="rect860"
       width="7.0941477"
       height="0"
       x="148.86763"
       y="129.31949" />
    <path
       style="fill:#000000;stroke:#000000;stroke-width:0.90259677;stroke-miterlimit:4;stroke-dasharray:none;stroke-opacity:1"
       d="M 11.621094 0.61523438 L 11.621094 1.4765625 L 11.621094 2.3359375 L 11.326172 2.3828125 C 9.8380963 2.6196755 8.3726188 3.2039603 7.0410156 4.0898438 C 6.1939101 4.6534091 4.7396078 6.100956 4.1582031 6.9589844 C 3.345189 8.1587198 2.7548013 9.5628336 2.4902344 10.927734 L 2.3652344 11.568359 L 1.515625 11.568359 L 0.66796875 11.568359 L 0.66796875 13.128906 L 0.66796875 14.6875 L 1.5195312 14.6875 L 2.3730469 14.6875 L 2.4941406 15.3125 C 2.934532 17.609937 4.1825873 19.705095 6.03125 21.318359 C 6.6917013 20.809963 7.0735693 20.514792 7.8925781 19.884766 C 6.4374054 18.761044 5.3615637 17.178273 4.8632812 15.316406 L 4.6953125 14.6875 L 6.5585938 14.6875 L 8.4238281 14.6875 L 8.4472656 13.128906 L 8.46875 11.568359 L 6.6152344 11.568359 L 4.7597656 11.568359 L 4.7597656 11.402344 C 4.7597656 11.119862 5.1033787 10.037275 5.3789062 9.4492188 C 5.7849409 8.5828376 6.3088966 7.8576226 7.1113281 7.0527344 C 7.8744903 6.2871911 8.5916795 5.7671371 9.4375 5.3671875 C 9.9716606 5.1144883 10.914787 4.8012093 11.347656 4.7324219 L 11.623047 4.6875 L 11.623047 6.5683594 L 11.623047 8.4492188 L 13.126953 8.4492188 C 13.531157 8.0583694 14.13871 7.4706685 14.673828 6.953125 L 14.673828 6.578125 C 14.673828 4.4095833 14.575285 4.6004818 15.550781 4.8828125 C 15.878069 4.9776233 16.181936 5.0885002 16.476562 5.2089844 C 16.939518 4.7611703 17.01647 4.687363 17.533203 4.1875 L 18.25 3.4941406 C 17.311984 2.9977904 16.320629 2.6443473 15.3125 2.4511719 L 14.669922 2.328125 L 14.669922 1.4707031 L 14.669922 0.61523438 L 13.146484 0.61523438 L 11.621094 0.61523438 z M 23.048828 8.6113281 C 22.269428 8.9491339 21.600242 9.2372316 20.921875 9.53125 C 21.177312 10.093136 21.397683 10.687457 21.5625 11.376953 L 21.609375 11.568359 L 19.736328 11.568359 L 19.283203 11.568359 L 20.667969 11.941406 L 23.935547 12.824219 L 22.041016 13.652344 C 20.629424 14.269584 20.346621 14.393941 19.675781 14.6875 L 19.726562 14.6875 L 21.591797 14.6875 L 21.527344 14.982422 C 21.404018 15.548406 21.10031 16.389954 20.806641 16.974609 C 20.005948 18.570213 18.652537 19.931451 17.076172 20.728516 C 16.504216 21.017763 15.269401 21.455211 14.916016 21.494141 L 14.708984 21.515625 L 14.708984 19.662109 L 14.708984 19.148438 C 13.768649 19.492062 12.959029 19.786428 11.599609 20.283203 C 11.590761 20.81483 11.586204 21.489579 11.566406 21.501953 C 11.537795 21.518583 11.294178 21.475101 11.027344 21.408203 C 10.580039 21.295465 10.154436 21.140297 9.7402344 20.962891 C 8.4838377 21.422014 7.8547706 21.651069 6.8945312 22.001953 C 6.9654089 22.053145 7.0292763 22.110274 7.1015625 22.160156 C 8.1568066 22.888396 9.47574 23.439823 10.857422 23.730469 L 11.585938 23.882812 L 11.605469 24.726562 L 11.623047 25.572266 L 13.142578 25.572266 L 14.664062 25.572266 L 14.683594 24.730469 L 14.705078 23.888672 L 15.431641 23.724609 C 16.737014 23.432036 17.777849 23.01305 18.916016 22.322266 C 21.388318 20.821642 23.204346 18.209278 23.798828 15.294922 L 23.921875 14.6875 L 24.773438 14.6875 L 25.623047 14.6875 L 25.623047 13.128906 L 25.623047 11.568359 L 24.771484 11.568359 L 23.919922 11.568359 L 23.798828 10.927734 C 23.651703 10.149453 23.390468 9.3676312 23.048828 8.6113281 z "
       transform="matrix(0.26458333,0,0,0.26458333,150.4884,112.94971)"
       id="path1101" />
  </g>
</svg>
