<?xml version="1.0" encoding="UTF-8" standalone="no"?>
<!-- Created with Inkscape (http://www.inkscape.org/) -->

<svg
   sodipodi:docname="breastplate.svg"
   inkscape:version="1.2.2 (b0a8486541, 2022-12-01)"
   id="svg8"
   version="1.1"
   viewBox="0 0 6.8589293 6.8461938"
   height="6.8461938mm"
   width="6.8589292mm"
   xmlns:inkscape="http://www.inkscape.org/namespaces/inkscape"
   xmlns:sodipodi="http://sodipodi.sourceforge.net/DTD/sodipodi-0.dtd"
   xmlns="http://www.w3.org/2000/svg"
   xmlns:svg="http://www.w3.org/2000/svg"
   xmlns:rdf="http://www.w3.org/1999/02/22-rdf-syntax-ns#"
   xmlns:cc="http://creativecommons.org/ns#"
   xmlns:dc="http://purl.org/dc/elements/1.1/">
  <defs
     id="defs2" />
  <sodipodi:namedview
     id="base"
     pagecolor="#ffffff"
     bordercolor="#666666"
     borderopacity="1.0"
     inkscape:pageopacity="0.0"
     inkscape:pageshadow="2"
     inkscape:zoom="4"
     inkscape:cx="26.125"
     inkscape:cy="58.250001"
     inkscape:document-units="mm"
     inkscape:current-layer="layer1"
     showgrid="false"
     inkscape:window-width="1920"
     inkscape:window-height="1043"
     inkscape:window-x="1920"
     inkscape:window-y="0"
     inkscape:window-maximized="1"
     inkscape:snap-global="false"
     fit-margin-top="0"
     fit-margin-left="0"
     fit-margin-right="0"
     fit-margin-bottom="0"
     showguides="false"
     inkscape:guide-bbox="true"
     inkscape:showpageshadow="2"
     inkscape:pagecheckerboard="0"
     inkscape:deskcolor="#d1d1d1" />
  <metadata
     id="metadata5">
    <rdf:RDF>
      <cc:Work
         rdf:about="">
        <dc:format>image/svg+xml</dc:format>
        <dc:type
           rdf:resource="http://purl.org/dc/dcmitype/StillImage" />
      </cc:Work>
    </rdf:RDF>
  </metadata>
  <g
     inkscape:label="Capa 1"
     inkscape:groupmode="layer"
     id="layer1"
     transform="translate(-150.4884,-112.94971)">
    <rect
       style="opacity:1;vector-effect:none;fill:#1a1a1a;fill-opacity:1;stroke:none;stroke-width:0.1;stroke-linecap:butt;stroke-linejoin:miter;stroke-miterlimit:4;stroke-dasharray:none;stroke-dashoffset:0;stroke-opacity:1"
       id="rect860"
       width="7.0941477"
       height="0"
       x="148.86763"
       y="129.31949" />
    <path
       id="path831-2-3-2"
       style="display:inline;fill:#000000;fill-opacity:1;stroke-width:0.0144334"
       d="m 154.80564,114.30839 c -0.021,0.007 -0.0505,0.0197 -0.0956,0.0382 -0.16394,0.067 -0.36484,0.11946 -0.53589,0.14056 -0.0516,0.006 -0.0803,0.01 -0.10232,0.0119 h -0.32194 v 0.001 l -0.0847,-0.0114 c -0.18275,-0.0232 -0.38077,-0.0745 -0.54725,-0.14263 -0.0421,-0.0172 -0.0707,-0.0287 -0.0915,-0.0362 a 1.5417265,1.5417265 0 0 1 -1.27486,1.28209 c 0.006,0.15089 0.022,0.46417 0.0284,0.55759 0.0492,0.7127 0.006,0.5221 0.24237,1.22628 l 0.18965,0.70487 h 0.79323 1.81746 0.79324 l 0.17311,-0.70487 c 0.23598,-0.70418 0.24275,-0.51358 0.29197,-1.22628 0.007,-0.0952 0.001,-0.41041 -0.001,-0.55759 a 1.5417265,1.5417265 0 0 1 -1.27434,-1.28364 z m -0.96325,0.64647 h 0.15038 v 2.836 h -0.15038 z m -1.60972,3.2427 v 0.23978 h 3.36517 v -0.23978 z" />
  </g>
</svg>
