<?xml version="1.0" encoding="UTF-8" standalone="no"?>
<!-- Created with Inkscape (http://www.inkscape.org/) -->

<svg
   sodipodi:docname="abrelatas.svg"
   inkscape:version="1.2.2 (b0a8486541, 2022-12-01)"
   id="svg8"
   version="1.1"
   viewBox="0 0 6.8589293 6.8461938"
   height="25.875378"
   width="25.923512"
   xml:space="preserve"
   xmlns:inkscape="http://www.inkscape.org/namespaces/inkscape"
   xmlns:sodipodi="http://sodipodi.sourceforge.net/DTD/sodipodi-0.dtd"
   xmlns="http://www.w3.org/2000/svg"
   xmlns:svg="http://www.w3.org/2000/svg"
   xmlns:rdf="http://www.w3.org/1999/02/22-rdf-syntax-ns#"
   xmlns:cc="http://creativecommons.org/ns#"
   xmlns:dc="http://purl.org/dc/elements/1.1/"><defs
     id="defs2" /><sodipodi:namedview
     id="base"
     pagecolor="#ffffff"
     bordercolor="#666666"
     borderopacity="1.0"
     inkscape:pageopacity="0.0"
     inkscape:pageshadow="2"
     inkscape:zoom="8"
     inkscape:cx="59.375"
     inkscape:cy="2.125"
     inkscape:document-units="mm"
     inkscape:current-layer="layer1"
     showgrid="false"
     inkscape:window-width="1920"
     inkscape:window-height="1043"
     inkscape:window-x="1920"
     inkscape:window-y="0"
     inkscape:window-maximized="1"
     inkscape:snap-global="false"
     fit-margin-top="0"
     fit-margin-left="0"
     fit-margin-right="0"
     fit-margin-bottom="0"
     showguides="false"
     inkscape:guide-bbox="true"
     units="px"
     inkscape:pagecheckerboard="0"
     inkscape:showpageshadow="2"
     inkscape:deskcolor="#d1d1d1" /><metadata
     id="metadata5"><rdf:RDF><cc:Work
         rdf:about=""><dc:format>image/svg+xml</dc:format><dc:type
           rdf:resource="http://purl.org/dc/dcmitype/StillImage" /></cc:Work></rdf:RDF></metadata><g
     inkscape:label="Capa 1"
     inkscape:groupmode="layer"
     id="layer1"
     transform="translate(-150.4884,-112.94971)"><rect
       style="opacity:1;vector-effect:none;fill:#1a1a1a;fill-opacity:1;stroke:none;stroke-width:0.1;stroke-linecap:butt;stroke-linejoin:miter;stroke-miterlimit:4;stroke-dasharray:none;stroke-dashoffset:0;stroke-opacity:1"
       id="rect860"
       width="7.0941477"
       height="0"
       x="148.86763"
       y="129.31949" /><path
       id="path23643"
       style="color:#000000;fill:#000000;stroke-linecap:round;stroke-linejoin:round;-inkscape-stroke:none"
       d="M 2.6411675 -9.9466037 A 1.8274528 1.8274528 0 0 0 1.9193291 -9.7127687 L -11.020388 -2.2427571 A 1.8274528 1.8274528 0 0 0 -11.935395 -0.65928748 L -11.935395 3.844578 L -8.280452 1.6053537 L -8.280452 0.39551171 L 2.8317939 -6.0222424 L 13.946582 0.39551171 L 13.946582 13.225937 L 2.8317939 19.643691 L 2.0947053 19.219229 L -1.450945 21.389828 L 1.9193291 23.336759 A 1.8274528 1.8274528 0 0 0 3.7468004 23.336759 L 16.686518 15.864205 A 1.8274528 1.8274528 0 0 0 17.598983 14.280736 L 17.598983 -0.65928748 A 1.8274528 1.8274528 0 0 0 16.686518 -2.2427571 L 3.7468004 -9.7127687 A 1.8274528 1.8274528 0 0 0 2.6411675 -9.9466037 z "
       transform="matrix(0.20331566,0,0,0.20331566,153.3419,114.98803)" /><path
       style="fill:#000000;stroke-width:0.020477"
       d="m 151.24979,118.17753 c 0.007,-0.61757 -7.8e-4,-0.59348 0.34288,-0.94395 l 0.24553,-0.25042 -0.0323,-0.13232 c -0.0393,-0.16114 -0.0442,-0.57238 -0.009,-0.7466 0.0732,-0.36155 0.23699,-0.69923 0.4816,-0.99315 0.22023,-0.26461 0.54771,-0.47738 0.90239,-0.58627 0.17065,-0.0524 0.21003,-0.0566 0.5324,-0.0565 0.29311,1.6e-4 0.3733,0.006 0.50749,0.0443 0.20468,0.0566 0.47175,0.18208 0.64355,0.30216 l 0.13523,0.0946 0.22746,-0.22682 c 0.1251,-0.12475 0.24148,-0.22681 0.25862,-0.22681 0.0396,0 0.22415,0.18591 0.22415,0.22565 0,0.0164 -0.78325,0.81319 -1.74055,1.77074 l -1.74054,1.74099 v 0.24044 0.24045 h -0.49277 -0.49276 z m 0.60539,-0.25276 c 0.0603,-0.0677 0.0588,-0.15252 -0.004,-0.22035 -0.14234,-0.15358 -0.38493,0.0377 -0.26499,0.20893 0.0678,0.0969 0.18824,0.10197 0.26913,0.0111 z m 1.33151,-1.11966 c 0.11879,-0.11991 0.1261,-0.13258 0.10945,-0.19087 -0.01,-0.0345 -0.01,-0.11056 -8.7e-4,-0.17013 0.044,-0.27793 0.27362,-0.45484 0.54995,-0.42357 l 0.11669,0.0132 0.12668,-0.13191 c 0.0697,-0.0726 0.12666,-0.14156 0.12666,-0.15337 0,-0.0381 -0.089,-0.10602 -0.22231,-0.16977 -0.0983,-0.0471 -0.16978,-0.065 -0.29213,-0.0734 -0.72064,-0.0494 -1.17881,0.72049 -0.79201,1.33092 0.0834,0.13187 0.12051,0.12773 0.27799,-0.0312 z m 0.50513,1.59161 c -0.0314,-0.0737 -0.0654,-0.13931 -0.0759,-0.14578 -0.011,-0.006 -0.0681,0.0367 -0.128,0.0958 -0.13186,0.13023 -0.16417,0.12591 -0.18327,-0.0244 -0.027,-0.21265 -0.038,-0.2186 -0.20083,-0.10896 -0.16398,0.11045 -0.16531,0.10946 -0.15871,-0.11547 0.003,-0.0748 -0.005,-0.1414 -0.0155,-0.14802 -0.011,-0.006 -0.0766,0.006 -0.14622,0.0307 -0.0697,0.0235 -0.13268,0.0368 -0.14001,0.0296 -0.007,-0.007 0.18566,-0.21231 0.42887,-0.4555 l 0.44218,-0.44218 0.12844,0.0641 c 0.46504,0.23239 0.90943,-0.22884 0.66707,-0.69237 l -0.0569,-0.10872 0.44076,-0.44211 c 0.24244,-0.24317 0.44686,-0.43603 0.45433,-0.42855 0.007,0.007 -0.006,0.0705 -0.0292,0.14021 -0.0235,0.0697 -0.0371,0.13592 -0.0301,0.14723 0.007,0.0124 0.0722,0.016 0.16458,0.009 0.18991,-0.0144 0.20283,0.006 0.10074,0.15996 -0.0409,0.0614 -0.0741,0.12064 -0.0741,0.13171 0,0.0324 0.0634,0.0564 0.18909,0.0716 0.0645,0.007 0.12273,0.0228 0.12917,0.0333 0.007,0.011 -0.0349,0.0683 -0.0918,0.1285 -0.057,0.0602 -0.10356,0.1233 -0.10356,0.14015 0,0.0186 0.0504,0.0504 0.12797,0.0807 0.16231,0.0636 0.16515,0.0981 0.0155,0.18813 -0.0619,0.0372 -0.11534,0.0816 -0.11867,0.099 -0.004,0.0185 0.0416,0.0674 0.1086,0.11806 0.0632,0.0476 0.1113,0.0974 0.10713,0.11068 -0.004,0.0132 -0.0641,0.0425 -0.13333,0.065 -0.1862,0.0607 -0.18945,0.0693 -0.0781,0.20589 0.0524,0.0644 0.092,0.12734 0.0878,0.13987 -0.004,0.0128 -0.0748,0.0274 -0.15928,0.0331 -0.18015,0.0123 -0.19018,0.0284 -0.1124,0.18196 0.0801,0.15796 0.0739,0.17498 -0.0552,0.15632 -0.0592,-0.009 -0.13514,-0.0167 -0.16892,-0.0182 -0.0686,-0.003 -0.0683,-0.005 -0.04,0.21746 0.0175,0.13746 0.011,0.14037 -0.13405,0.0666 -0.17673,-0.0895 -0.20478,-0.0712 -0.20478,0.13357 0,0.13623 -0.0241,0.16473 -0.0925,0.10947 -0.19338,-0.15597 -0.19382,-0.15621 -0.2231,-0.13191 -0.0159,0.0131 -0.04,0.0719 -0.0538,0.13044 -0.0245,0.10491 -0.0514,0.15769 -0.0802,0.15769 -0.007,0 -0.0581,-0.056 -0.1113,-0.1244 -0.11093,-0.14287 -0.11708,-0.14192 -0.21629,0.0339 -0.0344,0.0609 -0.0753,0.11094 -0.0909,0.11094 -0.0155,0 -0.0538,-0.0603 -0.0852,-0.13405 z"
       id="path24080"
       sodipodi:nodetypes="sccssscccscsssscccccscsscccscsccsccscccccssccccscsscscscccsccsscsccssccccccssssccsccscc" /></g></svg>
