<?xml version="1.0" encoding="UTF-8" standalone="no"?>
<!-- Created with Inkscape (http://www.inkscape.org/) -->

<svg
   sodipodi:docname="cargo.svg"
   inkscape:version="1.1.2 (0a00cf5339, 2022-02-04)"
   id="svg8"
   version="1.1"
   viewBox="0 0 6.8589293 6.8461938"
   height="6.8461938mm"
   width="6.8589292mm"
   xmlns:inkscape="http://www.inkscape.org/namespaces/inkscape"
   xmlns:sodipodi="http://sodipodi.sourceforge.net/DTD/sodipodi-0.dtd"
   xmlns="http://www.w3.org/2000/svg"
   xmlns:svg="http://www.w3.org/2000/svg"
   xmlns:rdf="http://www.w3.org/1999/02/22-rdf-syntax-ns#"
   xmlns:cc="http://creativecommons.org/ns#"
   xmlns:dc="http://purl.org/dc/elements/1.1/">
  <defs
     id="defs2" />
  <sodipodi:namedview
     id="base"
     pagecolor="#ffffff"
     bordercolor="#666666"
     borderopacity="1.0"
     inkscape:pageopacity="0.0"
     inkscape:pageshadow="2"
     inkscape:zoom="5.6568542"
     inkscape:cx="-16.882175"
     inkscape:cy="25.102291"
     inkscape:document-units="mm"
     inkscape:current-layer="layer1"
     showgrid="false"
     inkscape:window-width="1920"
     inkscape:window-height="1043"
     inkscape:window-x="1920"
     inkscape:window-y="1080"
     inkscape:window-maximized="1"
     inkscape:snap-global="true"
     fit-margin-top="0"
     fit-margin-left="0"
     fit-margin-right="0"
     fit-margin-bottom="0"
     showguides="false"
     inkscape:guide-bbox="true"
     inkscape:pagecheckerboard="0" />
  <metadata
     id="metadata5">
    <rdf:RDF>
      <cc:Work
         rdf:about="">
        <dc:format>image/svg+xml</dc:format>
        <dc:type
           rdf:resource="http://purl.org/dc/dcmitype/StillImage" />
      </cc:Work>
    </rdf:RDF>
  </metadata>
  <g
     inkscape:label="Capa 1"
     inkscape:groupmode="layer"
     id="layer1"
     transform="translate(-150.4884,-112.94971)">
    <rect
       style="opacity:1;vector-effect:none;fill:#1a1a1a;fill-opacity:1;stroke:none;stroke-width:0.1;stroke-linecap:butt;stroke-linejoin:miter;stroke-miterlimit:4;stroke-dasharray:none;stroke-dashoffset:0;stroke-opacity:1"
       id="rect860"
       width="7.0941477"
       height="0"
       x="148.86763"
       y="129.31949" />
    <path
       id="path916"
       style="fill:#000000;stroke-width:0.0790537"
       d="M 3.5078125 0.0546875 L 0.91992188 0.07421875 L -0.04296875 0.080078125 L -0.04296875 3.4550781 L 0.8984375 3.4550781 L 3.5078125 3.4550781 L 3.5078125 1.7558594 L 3.5078125 0.0546875 z M 5.8222656 1.5546875 L 5.8222656 4.5585938 L 5.8242188 7.5625 L 8.3925781 7.5625 L 10.958984 7.5625 L 10.982422 4.5585938 L 11.001953 1.5546875 L 8.4121094 1.5546875 L 5.8222656 1.5546875 z M 12.75 3.2324219 L 12.75 4.9335938 L 12.75 6.6328125 L 15.318359 6.6328125 L 17.888672 6.6328125 L 17.888672 4.9335938 L 17.888672 3.2324219 L 15.318359 3.2324219 L 12.75 3.2324219 z M -0.04296875 4.2304688 L -0.04296875 7.609375 C 0.28879347 7.6143023 0.56993657 7.6148142 0.95507812 7.6289062 L 3.5117188 7.6289062 L 3.5117188 5.9296875 L 3.5117188 4.2304688 L 0.90234375 4.2304688 L -0.04296875 4.2304688 z M 12.75 7.6542969 L 12.75 10.619141 L 12.75 13.582031 L 19.904297 13.582031 L 26.021484 13.582031 L 26.021484 7.6542969 L 19.904297 7.6542969 L 12.75 7.6542969 z M -0.04296875 9.078125 L -0.04296875 15.046875 L 3.8066406 15.046875 L 10.960938 15.046875 L 10.960938 12.0625 L 10.960938 9.078125 L 3.8066406 9.078125 L -0.04296875 9.078125 z M 12.75 15.480469 L 12.75 16.152344 L 12.75 16.824219 L 0.41796875 16.824219 L -0.04296875 16.824219 L -0.04296875 25.857422 L 26.021484 25.857422 L 26.021484 15.480469 L 20.300781 15.480469 L 12.75 15.480469 z "
       transform="matrix(0.26458333,0,0,0.26458333,150.4884,112.94971)" />
  </g>
</svg>
