<?xml version="1.0" encoding="UTF-8" standalone="no"?>
<!-- Created with Inkscape (http://www.inkscape.org/) -->

<svg
   xmlns:dc="http://purl.org/dc/elements/1.1/"
   xmlns:cc="http://creativecommons.org/ns#"
   xmlns:rdf="http://www.w3.org/1999/02/22-rdf-syntax-ns#"
   xmlns:svg="http://www.w3.org/2000/svg"
   xmlns="http://www.w3.org/2000/svg"
   xmlns:sodipodi="http://sodipodi.sourceforge.net/DTD/sodipodi-0.dtd"
   xmlns:inkscape="http://www.inkscape.org/namespaces/inkscape"
   sodipodi:docname="cost.svg"
   inkscape:version="0.92.5 (2060ec1f9f, 2020-04-08)"
   id="svg8"
   version="1.1"
   viewBox="0 0 6.8589293 6.8461938"
   height="6.8461938mm"
   width="6.8589292mm">
  <defs
     id="defs2" />
  <sodipodi:namedview
     id="base"
     pagecolor="#ffffff"
     bordercolor="#666666"
     borderopacity="1.0"
     inkscape:pageopacity="0.0"
     inkscape:pageshadow="2"
     inkscape:zoom="5.6568542"
     inkscape:cx="-9.5980679"
     inkscape:cy="10.811523"
     inkscape:document-units="mm"
     inkscape:current-layer="layer1"
     showgrid="false"
     inkscape:window-width="924"
     inkscape:window-height="1016"
     inkscape:window-x="996"
     inkscape:window-y="27"
     inkscape:window-maximized="0"
     inkscape:snap-global="false"
     fit-margin-top="0"
     fit-margin-left="0"
     fit-margin-right="0"
     fit-margin-bottom="0"
     showguides="false"
     inkscape:guide-bbox="true" />
  <metadata
     id="metadata5">
    <rdf:RDF>
      <cc:Work
         rdf:about="">
        <dc:format>image/svg+xml</dc:format>
        <dc:type
           rdf:resource="http://purl.org/dc/dcmitype/StillImage" />
        <dc:title></dc:title>
      </cc:Work>
    </rdf:RDF>
  </metadata>
  <g
     inkscape:label="Capa 1"
     inkscape:groupmode="layer"
     id="layer1"
     transform="translate(-150.4884,-112.94971)">
    <rect
       style="opacity:1;vector-effect:none;fill:#1a1a1a;fill-opacity:1;stroke:none;stroke-width:0.1;stroke-linecap:butt;stroke-linejoin:miter;stroke-miterlimit:4;stroke-dasharray:none;stroke-dashoffset:0;stroke-opacity:1"
       id="rect860"
       width="7.0941477"
       height="0"
       x="148.86763"
       y="129.31949" />
    <path
       style="display:inline;fill:#000000;stroke-width:0.01426566"
       d="m 151.94698,119.35677 c -0.42825,-0.0796 -0.81195,-0.38356 -0.98519,-0.78037 -0.14312,-0.32782 -0.15617,-0.74629 -0.0374,-1.19747 0.19002,-0.72165 0.70958,-1.493 1.47495,-2.18978 l 0.21948,-0.1998 h 1.29489 1.29488 l 0.1296,0.11173 c 0.43206,0.37247 0.88768,0.90075 1.15975,1.34472 0.36062,0.58844 0.53604,1.19863 0.4852,1.68776 -0.0222,0.21327 -0.0696,0.36885 -0.16656,0.54613 -0.17022,0.31128 -0.46003,0.54231 -0.81975,0.6535 l -0.12022,0.0372 -1.916,0.002 c -1.55132,0.002 -1.93458,-9.5e-4 -2.01367,-0.0158 z m 2.22405,-0.97405 v -0.18186 l 0.0864,-0.0224 c 0.34596,-0.0896 0.54531,-0.31166 0.54457,-0.60655 -5.8e-4,-0.2133 -0.11788,-0.37529 -0.34152,-0.47148 -0.0906,-0.039 -0.16108,-0.0567 -0.54961,-0.13865 -0.27833,-0.0587 -0.36175,-0.11405 -0.36175,-0.24014 0,-0.0867 0.0552,-0.16111 0.15131,-0.20373 0.0615,-0.0273 0.0949,-0.0321 0.22264,-0.0321 0.13868,0 0.15662,0.003 0.2325,0.0406 0.0851,0.0421 0.14679,0.10812 0.16118,0.17267 l 0.008,0.0372 h 0.21811 0.21812 l -0.009,-0.071 c -0.0272,-0.20668 -0.2391,-0.40737 -0.50548,-0.47866 l -0.0754,-0.0202 v -0.18908 -0.18906 h -0.25547 -0.25546 v 0.18851 0.1885 l -0.0789,0.0231 c -0.2184,0.0639 -0.38312,0.19176 -0.44934,0.34898 -0.0293,0.0695 -0.0353,0.10924 -0.0353,0.23278 0,0.13283 0.004,0.15725 0.0398,0.22545 0.0428,0.0823 0.12777,0.16726 0.21892,0.21887 0.0886,0.0502 0.20176,0.0834 0.47012,0.13801 0.34658,0.0706 0.42007,0.0982 0.4851,0.18245 0.0314,0.0407 0.0338,0.13685 0.005,0.18725 -0.0683,0.11827 -0.26105,0.17901 -0.47953,0.15108 -0.18495,-0.0236 -0.30757,-0.0969 -0.34364,-0.20544 l -0.0171,-0.0512 h -0.22303 c -0.12267,0 -0.22291,0.005 -0.22277,0.0102 1.7e-4,0.006 0.01,0.0512 0.0217,0.10121 0.0525,0.22323 0.25065,0.38939 0.54535,0.45729 l 0.0639,0.0147 v 0.18231 0.1823 h 0.25547 0.25546 z m -1.66452,-4.18906 c -0.0683,-0.17686 -0.12411,-0.34157 -0.12398,-0.36602 5.7e-4,-0.1027 0.0834,-0.19529 0.1956,-0.21851 0.0372,-0.008 0.22578,-0.0141 0.41909,-0.0143 l 0.35146,-3.3e-4 0.0665,-0.0553 c 0.27124,-0.22532 0.74228,-0.22134 1.01131,0.008 l 0.0526,0.0449 0.39072,0.005 c 0.44786,0.005 0.47545,0.0105 0.5415,0.11216 0.0593,0.0913 0.051,0.13849 -0.086,0.49031 l -0.12304,0.31591 -1.28578,-7e-5 -1.28579,-6e-5 -0.12422,-0.32157 z"
       id="path427-5"
       inkscape:connector-curvature="0" />
  </g>
</svg>
