<?xml version="1.0" encoding="UTF-8" standalone="no"?>
<!-- Created with Inkscape (http://www.inkscape.org/) -->

<svg
   sodipodi:docname="critical.svg"
   inkscape:version="1.2.2 (b0a8486541, 2022-12-01)"
   id="svg8"
   version="1.1"
   viewBox="0 0 6.8589293 6.8461938"
   height="6.8461938mm"
   width="6.8589292mm"
   xml:space="preserve"
   xmlns:inkscape="http://www.inkscape.org/namespaces/inkscape"
   xmlns:sodipodi="http://sodipodi.sourceforge.net/DTD/sodipodi-0.dtd"
   xmlns="http://www.w3.org/2000/svg"
   xmlns:svg="http://www.w3.org/2000/svg"
   xmlns:rdf="http://www.w3.org/1999/02/22-rdf-syntax-ns#"
   xmlns:cc="http://creativecommons.org/ns#"
   xmlns:dc="http://purl.org/dc/elements/1.1/"><defs
     id="defs2" /><sodipodi:namedview
     id="base"
     pagecolor="#ffffff"
     bordercolor="#666666"
     borderopacity="1.0"
     inkscape:pageopacity="0.0"
     inkscape:pageshadow="2"
     inkscape:zoom="5.6568542"
     inkscape:cx="0.26516505"
     inkscape:cy="25.190679"
     inkscape:document-units="mm"
     inkscape:current-layer="layer1"
     showgrid="false"
     inkscape:window-width="1197"
     inkscape:window-height="1016"
     inkscape:window-x="723"
     inkscape:window-y="27"
     inkscape:window-maximized="0"
     inkscape:snap-global="false"
     fit-margin-top="0"
     fit-margin-left="0"
     fit-margin-right="0"
     fit-margin-bottom="0"
     showguides="false"
     inkscape:guide-bbox="true"
     inkscape:pagecheckerboard="0"
     inkscape:showpageshadow="2"
     inkscape:deskcolor="#d1d1d1" /><metadata
     id="metadata5"><rdf:RDF><cc:Work
         rdf:about=""><dc:format>image/svg+xml</dc:format><dc:type
           rdf:resource="http://purl.org/dc/dcmitype/StillImage" /></cc:Work></rdf:RDF></metadata><g
     inkscape:label="Capa 1"
     inkscape:groupmode="layer"
     id="layer1"
     transform="translate(-150.4884,-112.94971)"><rect
       style="opacity:1;vector-effect:none;fill:#1a1a1a;fill-opacity:1;stroke:none;stroke-width:0.1;stroke-linecap:butt;stroke-linejoin:miter;stroke-miterlimit:4;stroke-dasharray:none;stroke-dashoffset:0;stroke-opacity:1"
       id="rect860"
       width="7.0941477"
       height="0"
       x="148.86763"
       y="129.31949" /><path
       style="fill:#000000;stroke-width:0.0326585"
       d="m 153.82894,119.46832 c -0.0171,-0.0225 -0.10942,-0.41845 -0.20514,-0.87997 -0.16831,-0.81158 -0.17694,-0.84035 -0.26223,-0.87569 -0.0825,-0.0341 -0.13548,-0.005 -0.81624,0.44139 -0.57548,0.37777 -0.74409,0.47387 -0.80471,0.45866 -0.0476,-0.0121 -0.0767,-0.0433 -0.0767,-0.0828 0,-0.0349 0.19777,-0.36519 0.4395,-0.73375 0.54221,-0.82673 0.51652,-0.77902 0.47208,-0.87656 -0.0331,-0.0725 -0.1022,-0.0925 -0.88778,-0.2569 -0.88652,-0.18553 -0.96693,-0.21681 -0.88623,-0.34477 0.0263,-0.0417 0.25309,-0.10154 0.88703,-0.23404 0.78314,-0.16369 0.85452,-0.18429 0.88722,-0.25608 0.0442,-0.0969 0.0698,-0.0494 -0.4741,-0.8787 -0.28719,-0.43789 -0.43781,-0.69716 -0.43134,-0.74252 0.0204,-0.14315 0.13793,-0.0964 0.73238,0.29172 0.32114,0.20967 0.58687,0.38363 0.59049,0.3866 0.005,0.003 0.0662,0.36495 0.13928,0.80439 0.073,0.43946 0.14867,0.83022 0.1682,0.86839 0.0256,0.0502 0.0255,0.0881 -4.8e-4,0.13665 -0.0199,0.0371 -0.0359,0.22589 -0.0359,0.42138 0,0.53747 0.0671,0.59726 0.66948,0.59726 0.60248,0 0.66951,-0.0598 0.66951,-0.59726 0,-0.19477 -0.0151,-0.38254 -0.0339,-0.41729 -0.0239,-0.0446 -0.0226,-0.0841 0.005,-0.13425 0.0208,-0.0391 0.0652,-0.41599 0.0984,-0.83754 0.0333,-0.42156 0.0644,-0.76999 0.0693,-0.77432 0.10714,-0.095 1.28743,-0.83177 1.33227,-0.83177 0.0393,0 0.0707,0.0292 0.0828,0.0772 0.0154,0.0613 -0.0792,0.22727 -0.45855,0.80498 -0.44645,0.67988 -0.47553,0.7336 -0.44147,0.8158 0.0352,0.085 0.0653,0.094 0.88956,0.26652 0.88646,0.18552 0.96804,0.21714 0.88794,0.34416 -0.0256,0.0405 -0.25985,0.1023 -0.88676,0.2335 -0.78554,0.16439 -0.85473,0.18441 -0.88777,0.2569 -0.0445,0.0976 -0.0701,0.0499 0.47207,0.87656 0.24172,0.36856 0.43951,0.68874 0.43951,0.7115 0,0.0533 -0.0665,0.11977 -0.11976,0.11977 -0.0227,0 -0.34295,-0.19777 -0.71151,-0.43951 -0.82669,-0.54218 -0.77903,-0.5165 -0.8765,-0.47209 -0.0724,0.0331 -0.0921,0.10112 -0.25236,0.87376 -0.0955,0.46089 -0.18779,0.85635 -0.20488,0.87879 -0.0171,0.0225 -0.0569,0.0409 -0.0884,0.0409 -0.0315,0 -0.0714,-0.0183 -0.0884,-0.0409 z m -0.29695,-2.05587 c -0.0246,-0.0246 -0.0392,-0.14634 -0.0392,-0.32543 0,-0.35082 0.005,-0.35387 0.4409,-0.35387 0.43469,0 0.44089,0.005 0.44089,0.3414 0,0.15057 -0.008,0.29702 -0.0199,0.32544 -0.0164,0.0431 -0.0837,0.0517 -0.4017,0.0517 -0.25348,0 -0.39506,-0.0133 -0.42107,-0.0392 z m 0.002,-0.94873 c -0.0182,-0.0225 -0.10186,-0.45966 -0.18599,-0.97159 -0.0841,-0.51191 -0.15973,-0.95494 -0.16805,-0.98448 -0.0306,-0.10918 0.0728,-0.14647 0.61248,-0.22066 0.29372,-0.0404 0.55685,-0.0797 0.58474,-0.0874 0.0278,-0.007 0.0759,0.005 0.10682,0.0271 0.053,0.0388 0.0514,0.1023 -0.0281,1.11763 -0.0463,0.59211 -0.0999,1.09542 -0.11904,1.11846 -0.0483,0.058 -0.75604,0.0589 -0.80292,0.002 z m 0.12429,-2.44575 c 7.4e-4,-0.0244 0.0346,-0.19771 0.0754,-0.38505 0.0784,-0.35951 0.13211,-0.4433 0.24093,-0.37466 0.0363,0.0229 0.0749,0.12737 0.10834,0.29376 0.0286,0.142 0.0618,0.29696 0.0739,0.34435 0.021,0.0822 0.0148,0.0871 -0.13285,0.10778 -0.0852,0.0119 -0.20259,0.0298 -0.26097,0.0399 -0.0771,0.0134 -0.10574,0.006 -0.10488,-0.0261 z"
       id="path6297" /></g></svg>
