<?xml version="1.0" encoding="UTF-8" standalone="no"?>
<!-- Created with Inkscape (http://www.inkscape.org/) -->

<svg
   xmlns:dc="http://purl.org/dc/elements/1.1/"
   xmlns:cc="http://creativecommons.org/ns#"
   xmlns:rdf="http://www.w3.org/1999/02/22-rdf-syntax-ns#"
   xmlns:svg="http://www.w3.org/2000/svg"
   xmlns="http://www.w3.org/2000/svg"
   xmlns:sodipodi="http://sodipodi.sourceforge.net/DTD/sodipodi-0.dtd"
   xmlns:inkscape="http://www.inkscape.org/namespaces/inkscape"
   sodipodi:docname="defense.svg"
   inkscape:version="0.92.5 (2060ec1f9f, 2020-04-08)"
   id="svg8"
   version="1.1"
   viewBox="0 0 6.8589293 6.8461938"
   height="6.8461938mm"
   width="6.8589292mm">
  <defs
     id="defs2" />
  <sodipodi:namedview
     id="base"
     pagecolor="#ffffff"
     bordercolor="#666666"
     borderopacity="1.0"
     inkscape:pageopacity="0.0"
     inkscape:pageshadow="2"
     inkscape:zoom="4"
     inkscape:cx="30.518656"
     inkscape:cy="-50.53927"
     inkscape:document-units="mm"
     inkscape:current-layer="layer1"
     showgrid="false"
     inkscape:window-width="924"
     inkscape:window-height="1016"
     inkscape:window-x="996"
     inkscape:window-y="27"
     inkscape:window-maximized="0"
     inkscape:snap-global="false"
     fit-margin-top="0"
     fit-margin-left="0"
     fit-margin-right="0"
     fit-margin-bottom="0"
     showguides="false"
     inkscape:guide-bbox="true" />
  <metadata
     id="metadata5">
    <rdf:RDF>
      <cc:Work
         rdf:about="">
        <dc:format>image/svg+xml</dc:format>
        <dc:type
           rdf:resource="http://purl.org/dc/dcmitype/StillImage" />
        <dc:title></dc:title>
      </cc:Work>
    </rdf:RDF>
  </metadata>
  <g
     inkscape:label="Capa 1"
     inkscape:groupmode="layer"
     id="layer1"
     transform="translate(-150.4884,-112.94971)">
    <rect
       style="opacity:1;vector-effect:none;fill:#1a1a1a;fill-opacity:1;stroke:none;stroke-width:0.1;stroke-linecap:butt;stroke-linejoin:miter;stroke-miterlimit:4;stroke-dasharray:none;stroke-dashoffset:0;stroke-opacity:1"
       id="rect860"
       width="7.0941477"
       height="0"
       x="148.86763"
       y="129.31949" />
    <path
       style="display:inline;fill:#000000;stroke-width:0.01172598"
       d="m 153.79015,119.34502 c -0.31918,-0.10873 -0.79682,-0.46394 -1.15558,-0.85937 -0.58908,-0.64929 -0.95936,-1.37087 -1.12858,-2.1993 -0.0702,-0.34374 -0.0779,-0.44565 -0.0837,-1.10655 -0.005,-0.60994 -0.005,-0.61289 0.0201,-0.66518 0.014,-0.0289 0.0402,-0.065 0.0583,-0.0802 0.0181,-0.0153 0.55874,-0.26136 1.20142,-0.54695 1.13678,-0.50515 1.17015,-0.5191 1.22963,-0.51405 0.0488,0.004 0.29155,0.10748 1.20443,0.51276 0.62881,0.27916 1.16155,0.52192 1.18387,0.53948 0.0223,0.0176 0.053,0.0552 0.0683,0.0837 l 0.0277,0.0519 -0.005,0.60975 c -0.004,0.46688 -0.01,0.64409 -0.0242,0.75632 -0.12609,0.97793 -0.51617,1.81814 -1.18774,2.55835 -0.36256,0.39962 -0.86657,0.77238 -1.16901,0.86458 -0.10238,0.0312 -0.13475,0.0305 -0.23961,-0.005 z"
       id="path1391"
       inkscape:connector-curvature="0"
       inkscape:export-filename="shield.png"
       inkscape:export-xdpi="300"
       inkscape:export-ydpi="300" />
  </g>
</svg>
