<?xml version="1.0" encoding="UTF-8" standalone="no"?>
<!-- Created with Inkscape (http://www.inkscape.org/) -->

<svg
   xmlns:dc="http://purl.org/dc/elements/1.1/"
   xmlns:cc="http://creativecommons.org/ns#"
   xmlns:rdf="http://www.w3.org/1999/02/22-rdf-syntax-ns#"
   xmlns:svg="http://www.w3.org/2000/svg"
   xmlns="http://www.w3.org/2000/svg"
   xmlns:sodipodi="http://sodipodi.sourceforge.net/DTD/sodipodi-0.dtd"
   xmlns:inkscape="http://www.inkscape.org/namespaces/inkscape"
   width="7.4903407mm"
   height="7.7181492mm"
   viewBox="0 0 7.4903407 7.7181492"
   version="1.1"
   id="svg8"
   sodipodi:docname="cube.svg"
   inkscape:version="0.92.5 (2060ec1f9f, 2020-04-08)">
  <defs
     id="defs2" />
  <sodipodi:namedview
     id="base"
     pagecolor="#ffffff"
     bordercolor="#666666"
     borderopacity="1.0"
     inkscape:pageopacity="0.0"
     inkscape:pageshadow="2"
     inkscape:zoom="7.9195959"
     inkscape:cx="2.2323664"
     inkscape:cy="4.07522"
     inkscape:document-units="mm"
     inkscape:current-layer="layer1"
     showgrid="false"
     inkscape:window-width="1848"
     inkscape:window-height="1016"
     inkscape:window-x="72"
     inkscape:window-y="1107"
     inkscape:window-maximized="1"
     fit-margin-top="0"
     fit-margin-left="0"
     fit-margin-right="0"
     fit-margin-bottom="0" />
  <metadata
     id="metadata5">
    <rdf:RDF>
      <cc:Work
         rdf:about="">
        <dc:format>image/svg+xml</dc:format>
        <dc:type
           rdf:resource="http://purl.org/dc/dcmitype/StillImage" />
        <dc:title></dc:title>
      </cc:Work>
    </rdf:RDF>
  </metadata>
  <g
     inkscape:label="Capa 1"
     inkscape:groupmode="layer"
     id="layer1"
     transform="translate(-11.640318,-44.414081)">
    <path
       style="fill:#000000;stroke:#000000;stroke-width:0.229;stroke-miterlimit:4;stroke-dasharray:none;stroke-opacity:1"
       d="m 15.55133,51.922274 c -0.685146,-0.279517 -3.20637,-1.507059 -3.324727,-1.618753 -0.03438,-0.03244 -0.07718,-0.127286 -0.09554,-0.211722 -0.08948,-0.411375 -0.262648,-1.722668 -0.332832,-2.520399 -0.05025,-0.57112 -0.147731,-1.868548 -0.01364,-2.094972 0.08095,-0.136693 0.184184,-0.143729 0.562025,-0.267256 0.722856,-0.236322 1.733468,-0.499615 2.410752,-0.628071 0.275408,-0.05224 0.396016,-0.0603 0.707347,-0.04732 0.415417,0.01732 1.429283,0.142198 2.38188,0.293384 0.766175,0.121598 1.019543,0.178219 1.103853,0.246676 0.08962,0.04617 0.06023,1.063709 0.05773,1.549624 -0.0081,1.566318 -0.04308,2.635128 -0.0968,2.95367 -0.03024,0.179307 -0.04114,0.197626 -0.223796,0.376151 -0.196508,0.192058 -2.306176,1.852072 -2.49635,1.964276 -0.172205,0.101604 -0.398334,0.103271 -0.639907,0.0047 z m 1.066156,-0.630188 c 0.512819,-0.384159 0.974155,-0.694743 1.43121,-1.059414 0.862682,-0.655537 0.695844,-1.159733 0.74057,-1.865667 0.03729,-0.595073 0.07314,-1.336545 0.0983,-2.0771 0.06289,-1.216064 -0.327878,-1.050763 -1.133302,-0.695522 -0.705985,0.270413 -1.108744,0.46007 -1.419646,0.604952 -0.833969,0.313802 -0.548365,0.747428 -0.609318,1.950257 0.0095,0.876336 0.09429,1.390213 0.09468,2.342749 7.4e-4,1.224552 0.254696,1.262889 0.797508,0.799745 z m -1.006851,-0.696419 c -0.01218,-0.535923 -0.02681,-1.694557 -0.03252,-2.574744 -0.04967,-1.598836 -0.03412,-1.684521 -1.096869,-1.89126 -0.405732,-0.07862 -0.968128,-0.183736 -1.453767,-0.269196 -0.641554,-0.101586 -1.242888,-0.384039 -1.094588,0.906982 5.78e-4,0.445614 0.02013,0.700777 0.09037,1.988136 0.184164,1.399837 0.385903,1.463186 1.130948,1.849551 0.390028,0.201577 0.845786,0.419335 1.162754,0.547574 0.660127,0.270712 1.326045,0.867619 1.293674,-0.557043 z m 0.778946,-4.666157 c 0.521312,-0.175316 1.176458,-0.404171 1.427651,-0.515567 0.888248,-0.364543 -0.04242,-0.400234 -0.489129,-0.468402 -0.56676,-0.08617 -1.241357,-0.180346 -1.714069,-0.235453 -0.349053,-0.04069 -0.466344,-0.04391 -0.635169,-0.01741 -0.08005,0.01257 -0.34004,0.08315 -0.657114,0.172528 -0.317073,0.08938 -0.691235,0.197542 -0.999642,0.285263 -1.368961,0.329296 -0.405738,0.48938 0.17936,0.559971 0.663054,0.121643 1.078262,0.237749 1.458154,0.300087 0.514433,0.0939 1.073791,0.03819 1.429958,-0.08102 z"
       id="path828"
       inkscape:connector-curvature="0"
       sodipodi:nodetypes="cccsssssscccscccccccccccccccccccccccccssscccccc" />
  </g>
</svg>
