<?xml version="1.0" encoding="UTF-8" standalone="no"?>
<!-- Created with Inkscape (http://www.inkscape.org/) -->

<svg
   sodipodi:docname="easy.svg"
   inkscape:version="1.2.2 (b0a8486541, 2022-12-01)"
   id="svg8"
   version="1.1"
   viewBox="0 0 6.8589293 6.8461938"
   height="6.8461938mm"
   width="6.8589292mm"
   xml:space="preserve"
   xmlns:inkscape="http://www.inkscape.org/namespaces/inkscape"
   xmlns:sodipodi="http://sodipodi.sourceforge.net/DTD/sodipodi-0.dtd"
   xmlns="http://www.w3.org/2000/svg"
   xmlns:svg="http://www.w3.org/2000/svg"
   xmlns:rdf="http://www.w3.org/1999/02/22-rdf-syntax-ns#"
   xmlns:cc="http://creativecommons.org/ns#"
   xmlns:dc="http://purl.org/dc/elements/1.1/"><defs
     id="defs2" /><sodipodi:namedview
     id="base"
     pagecolor="#ffffff"
     bordercolor="#666666"
     borderopacity="1.0"
     inkscape:pageopacity="0.0"
     inkscape:pageshadow="2"
     inkscape:zoom="7.9999999"
     inkscape:cx="-1.375"
     inkscape:cy="-3.375"
     inkscape:document-units="mm"
     inkscape:current-layer="layer1"
     showgrid="false"
     inkscape:window-width="1920"
     inkscape:window-height="1043"
     inkscape:window-x="0"
     inkscape:window-y="0"
     inkscape:window-maximized="1"
     inkscape:snap-global="false"
     fit-margin-top="0"
     fit-margin-left="0"
     fit-margin-right="0"
     fit-margin-bottom="0"
     showguides="false"
     inkscape:guide-bbox="true"
     inkscape:pagecheckerboard="0"
     inkscape:showpageshadow="2"
     inkscape:deskcolor="#d1d1d1" /><metadata
     id="metadata5"><rdf:RDF><cc:Work
         rdf:about=""><dc:format>image/svg+xml</dc:format><dc:type
           rdf:resource="http://purl.org/dc/dcmitype/StillImage" /></cc:Work></rdf:RDF></metadata><g
     inkscape:label="Capa 1"
     inkscape:groupmode="layer"
     id="layer1"
     transform="translate(-150.4884,-112.94971)"><rect
       style="opacity:1;vector-effect:none;fill:#1a1a1a;fill-opacity:1;stroke:none;stroke-width:0.1;stroke-linecap:butt;stroke-linejoin:miter;stroke-miterlimit:4;stroke-dasharray:none;stroke-dashoffset:0;stroke-opacity:1"
       id="rect860"
       width="7.0941477"
       height="0"
       x="148.86763"
       y="129.31949" /><path
       style="fill:#000000;stroke-width:0.0282401"
       d="m 152.6175,118.69568 -0.85189,-0.85402 0.1536,-0.16721 c 0.0845,-0.092 0.18843,-0.23811 0.23101,-0.32476 0.0687,-0.13988 0.0774,-0.18924 0.0774,-0.43996 1e-5,-0.384 -0.0661,-0.51839 -0.44793,-0.91122 l -0.28185,-0.28993 0.0775,-0.0809 c 0.0427,-0.0445 0.14162,-0.11579 0.22001,-0.15845 0.1222,-0.0665 0.16438,-0.0753 0.2958,-0.0618 0.26898,0.0278 0.54143,0.23044 0.82906,0.61678 l 0.16076,0.21592 1.21127,-1.21152 c 0.8506,-0.85078 1.23914,-1.22072 1.30488,-1.24242 0.27121,-0.0895 0.54181,0.16692 0.47222,0.44753 -0.0121,0.0489 -0.22118,0.28162 -0.56086,0.62448 -0.32658,0.32966 -0.51352,0.53713 -0.47094,0.52268 0.26167,-0.0888 0.50832,0.0777 0.50832,0.34315 0,0.11283 -0.0331,0.1913 -0.12355,0.29284 l -0.06,0.0673 0.0617,-0.0321 c 0.0339,-0.0176 0.11484,-0.0321 0.17982,-0.0321 0.10021,0 0.13531,0.0172 0.23126,0.11312 0.10964,0.10964 0.11273,0.11792 0.1002,0.26891 -0.0102,0.1225 -0.0305,0.17468 -0.0953,0.24424 -0.0648,0.0696 -0.0703,0.0837 -0.0259,0.0663 0.17629,-0.069 0.33766,-0.0325 0.45092,0.10217 0.083,0.0987 0.0974,0.28869 0.0313,0.4139 -0.0471,0.0892 -1.37029,1.4068 -1.5067,1.50037 -0.0509,0.0349 -0.27952,0.14513 -0.50797,0.24487 -0.38471,0.16797 -0.42999,0.19589 -0.61381,0.37849 l -0.19846,0.19713 z m -0.34123,-4.74487 -0.26107,-0.26218 0.1279,-0.12553 0.12791,-0.12553 0.26044,0.26044 0.26044,0.26044 -0.12726,0.12726 -0.12727,0.12727 z m 1.77238,0.1344 -0.12521,-0.12758 0.26045,-0.26044 0.26044,-0.26044 0.13375,0.13375 0.13374,0.13375 -0.25308,0.25427 c -0.13921,0.13985 -0.26025,0.25427 -0.26899,0.25427 -0.009,0 -0.0723,-0.0574 -0.1411,-0.12758 z m -0.87496,-0.52194 v -0.36713 h 0.18357 0.18356 v 0.36713 0.36712 h -0.18356 -0.18357 z"
       id="path249" /></g></svg>
