<?xml version="1.0" encoding="UTF-8" standalone="no"?>
<!-- Created with Inkscape (http://www.inkscape.org/) -->

<svg
   sodipodi:docname="ECM.svg"
   inkscape:version="1.1.2 (0a00cf5339, 2022-02-04)"
   id="svg8"
   version="1.1"
   viewBox="0 0 6.8589293 6.8461938"
   height="6.8461938mm"
   width="6.8589292mm"
   xmlns:inkscape="http://www.inkscape.org/namespaces/inkscape"
   xmlns:sodipodi="http://sodipodi.sourceforge.net/DTD/sodipodi-0.dtd"
   xmlns="http://www.w3.org/2000/svg"
   xmlns:svg="http://www.w3.org/2000/svg"
   xmlns:rdf="http://www.w3.org/1999/02/22-rdf-syntax-ns#"
   xmlns:cc="http://creativecommons.org/ns#"
   xmlns:dc="http://purl.org/dc/elements/1.1/">
  <defs
     id="defs2" />
  <sodipodi:namedview
     id="base"
     pagecolor="#ffffff"
     bordercolor="#666666"
     borderopacity="1.0"
     inkscape:pageopacity="0.0"
     inkscape:pageshadow="2"
     inkscape:zoom="5.6568542"
     inkscape:cx="11.313709"
     inkscape:cy="8.2201163"
     inkscape:document-units="mm"
     inkscape:current-layer="layer1"
     showgrid="false"
     inkscape:window-width="1197"
     inkscape:window-height="1016"
     inkscape:window-x="723"
     inkscape:window-y="27"
     inkscape:window-maximized="0"
     inkscape:snap-global="false"
     fit-margin-top="0"
     fit-margin-left="0"
     fit-margin-right="0"
     fit-margin-bottom="0"
     showguides="false"
     inkscape:guide-bbox="true"
     inkscape:pagecheckerboard="0" />
  <metadata
     id="metadata5">
    <rdf:RDF>
      <cc:Work
         rdf:about="">
        <dc:format>image/svg+xml</dc:format>
        <dc:type
           rdf:resource="http://purl.org/dc/dcmitype/StillImage" />
      </cc:Work>
    </rdf:RDF>
  </metadata>
  <g
     inkscape:label="Capa 1"
     inkscape:groupmode="layer"
     id="layer1"
     transform="translate(-150.4884,-112.94971)">
    <rect
       style="opacity:1;vector-effect:none;fill:#1a1a1a;fill-opacity:1;stroke:none;stroke-width:0.1;stroke-linecap:butt;stroke-linejoin:miter;stroke-miterlimit:4;stroke-dasharray:none;stroke-dashoffset:0;stroke-opacity:1"
       id="rect860"
       width="7.0941477"
       height="0"
       x="148.86763"
       y="129.31949" />
    <path
       id="path1391"
       style="display:inline;fill:#000000;stroke-width:0.0443187"
       d="M 12.972656 1.5996094 C 12.757831 1.5966668 12.395148 1.7550203 8.3671875 3.5449219 C 5.9381607 4.6243172 3.8945813 5.5535014 3.8261719 5.6113281 C 3.7577624 5.6687769 3.6583819 5.8048342 3.6054688 5.9140625 C 3.5106026 6.111694 3.5103992 6.1224493 3.5292969 8.4277344 C 3.5512181 10.925624 3.5803803 11.312153 3.8457031 12.611328 C 4.4852748 15.742402 5.8848842 18.469819 8.1113281 20.923828 C 8.3010386 21.13293 8.5005161 21.338285 8.7050781 21.539062 C 8.9450169 20.603109 9.1709885 19.727607 9.4414062 18.669922 C 9.6503385 17.852448 9.847117 17.085526 9.9941406 16.505859 C 10.141542 15.926155 10.249912 15.480215 10.251953 15.472656 C 10.257097 15.450211 10.256572 15.449724 10.257812 15.441406 C 10.249503 15.433223 10.243453 15.424633 10.216797 15.404297 L 10.208984 15.398438 L 8.6503906 15.367188 C 7.6548631 15.35018 7.1634403 15.35262 6.7382812 15.279297 C 6.31316 15.205898 5.9009277 14.875343 5.7421875 14.6875 C 5.3948489 14.274246 5.2684395 13.642656 5.4921875 13.123047 C 5.5908332 12.892874 5.6151843 12.901129 5.6835938 12.806641 C 5.7520032 12.712152 5.8361453 12.601224 5.9355469 12.474609 C 6.1343122 12.221116 6.3938896 11.902472 6.6660156 11.580078 C 7.6008259 10.472866 11.827638 5.4266583 14.527344 2.1992188 C 13.532286 1.7690487 13.122611 1.610492 13.013672 1.6015625 C 12.999621 1.6003696 12.986978 1.5998055 12.972656 1.5996094 z M 17.416016 3.4726562 C 17.203212 4.30266 17.053498 4.8849266 16.673828 6.3691406 C 16.184606 8.281506 15.920968 9.3355424 15.789062 9.9121094 C 15.730858 10.160387 15.71251 10.287188 15.701172 10.371094 C 15.723117 10.380603 15.749503 10.407786 15.798828 10.419922 C 15.826702 10.421339 15.878853 10.425908 15.929688 10.429688 C 16.031092 10.437247 16.17115 10.449345 16.335938 10.453125 C 16.663056 10.464464 17.086686 10.473249 17.515625 10.474609 L 17.523438 10.474609 C 18.38997 10.476499 18.828906 10.467503 19.228516 10.535156 C 19.629864 10.603074 20.030837 10.924366 20.181641 11.103516 L 20.189453 11.103516 C 20.480855 11.449267 20.627117 12.074994 20.492188 12.511719 C 20.30597 13.111416 19.992405 13.344493 15.345703 18.875 C 14.984456 19.305072 13.643056 20.905882 12.371094 22.425781 C 11.979189 22.894078 11.684113 23.241288 11.355469 23.628906 C 11.760788 23.870797 12.143327 24.057692 12.478516 24.171875 L 12.480469 24.171875 C 12.87679 24.306048 12.999771 24.309328 13.386719 24.191406 C 14.529799 23.842934 16.434382 22.434203 17.804688 20.923828 C 20.342903 18.126184 21.816408 14.95002 22.292969 11.253906 C 22.346638 10.82973 22.369648 10.159117 22.384766 8.3945312 L 22.404297 6.0917969 L 22.298828 5.8945312 C 22.241001 5.7868149 22.125299 5.6446447 22.041016 5.578125 C 21.956657 5.5117565 19.943011 4.5941554 17.566406 3.5390625 C 17.505828 3.5121683 17.4699 3.4965097 17.416016 3.4726562 z "
       transform="matrix(0.26458333,0,0,0.26458333,150.4884,112.94971)" />
    <path
       style="fill:#000000;stroke:none;stroke-width:0.402786;stroke-miterlimit:4;stroke-dasharray:none"
       d="m 152.90575,119.39378 c -0.0251,-0.011 -0.0493,-0.0333 -0.0535,-0.0497 -0.004,-0.0164 0.0238,-0.15138 0.0625,-0.30003 0.12875,-0.49532 0.48539,-1.89029 0.50241,-1.9651 0.0214,-0.094 -0.004,-0.16225 -0.0834,-0.22271 l -0.0556,-0.0424 -0.46541,-0.008 c -0.51107,-0.009 -0.51694,-0.01 -0.59569,-0.10289 -0.0496,-0.059 -0.0622,-0.12894 -0.0346,-0.19297 0.0118,-0.0277 0.13359,-0.18292 0.27045,-0.34502 0.25703,-0.30444 1.47278,-1.7546 2.15132,-2.56613 0.22187,-0.26536 0.24426,-0.28239 0.32608,-0.24798 0.0575,0.0242 0.0642,0.0478 0.0403,0.14159 -0.011,0.0434 -0.14382,0.56268 -0.2951,1.15408 -0.25135,0.98251 -0.27366,1.07995 -0.25875,1.1297 0.022,0.0735 0.10013,0.13907 0.18823,0.15797 0.0393,0.009 0.25604,0.0159 0.48163,0.0166 0.44834,9.7e-4 0.45788,0.003 0.53065,0.0895 0.05,0.0595 0.0611,0.1072 0.0406,0.17389 -0.0167,0.0538 -0.0908,0.14417 -1.28404,1.56431 -0.0932,0.11094 -0.43676,0.52109 -0.76344,0.91145 -0.32669,0.39037 -0.5997,0.70976 -0.60669,0.70976 -0.007,0 -0.0216,0.003 -0.0323,0.007 -0.0108,0.004 -0.0403,-0.002 -0.0654,-0.0131 z"
       id="path836-5" />
  </g>
</svg>
