<?xml version="1.0" encoding="UTF-8" standalone="no"?>
<!-- Created with Inkscape (http://www.inkscape.org/) -->

<svg
   sodipodi:docname="electric.svg"
   inkscape:version="1.2.2 (b0a8486541, 2022-12-01)"
   id="svg8"
   version="1.1"
   viewBox="0 0 6.8589293 6.8461938"
   height="6.8461938mm"
   width="6.8589292mm"
   xml:space="preserve"
   xmlns:inkscape="http://www.inkscape.org/namespaces/inkscape"
   xmlns:sodipodi="http://sodipodi.sourceforge.net/DTD/sodipodi-0.dtd"
   xmlns="http://www.w3.org/2000/svg"
   xmlns:svg="http://www.w3.org/2000/svg"
   xmlns:rdf="http://www.w3.org/1999/02/22-rdf-syntax-ns#"
   xmlns:cc="http://creativecommons.org/ns#"
   xmlns:dc="http://purl.org/dc/elements/1.1/"><defs
     id="defs2" /><sodipodi:namedview
     id="base"
     pagecolor="#ffffff"
     bordercolor="#666666"
     borderopacity="1.0"
     inkscape:pageopacity="0.0"
     inkscape:pageshadow="2"
     inkscape:zoom="11.313708"
     inkscape:cx="14.18633"
     inkscape:cy="1.5467961"
     inkscape:document-units="mm"
     inkscape:current-layer="layer1"
     showgrid="false"
     inkscape:window-width="924"
     inkscape:window-height="1016"
     inkscape:window-x="996"
     inkscape:window-y="27"
     inkscape:window-maximized="0"
     inkscape:snap-global="false"
     fit-margin-top="0"
     fit-margin-left="0"
     fit-margin-right="0"
     fit-margin-bottom="0"
     showguides="false"
     inkscape:guide-bbox="true"
     inkscape:showpageshadow="2"
     inkscape:pagecheckerboard="0"
     inkscape:deskcolor="#d1d1d1" /><metadata
     id="metadata5"><rdf:RDF><cc:Work
         rdf:about=""><dc:format>image/svg+xml</dc:format><dc:type
           rdf:resource="http://purl.org/dc/dcmitype/StillImage" /><dc:title /></cc:Work></rdf:RDF></metadata><g
     inkscape:label="Capa 1"
     inkscape:groupmode="layer"
     id="layer1"
     transform="translate(-150.4884,-112.94971)"><rect
       style="opacity:1;vector-effect:none;fill:#1a1a1a;fill-opacity:1;stroke:none;stroke-width:0.1;stroke-linecap:butt;stroke-linejoin:miter;stroke-miterlimit:4;stroke-dasharray:none;stroke-dashoffset:0;stroke-opacity:1"
       id="rect860"
       width="7.0941477"
       height="0"
       x="148.86763"
       y="129.31949" /><path
       style="fill:#000000;stroke-width:0.0328548"
       d="m 152.20668,119.43726 c -0.0218,-0.0418 0.0809,-0.39824 0.37618,-1.30598 0.22337,-0.68667 0.40637,-1.25914 0.40664,-1.27217 2.5e-4,-0.013 -0.19381,-0.0278 -0.4313,-0.0328 -0.35526,-0.007 -0.43773,-0.0186 -0.46525,-0.0623 -0.0256,-0.0406 0.11234,-0.44414 0.58374,-1.70847 0.33945,-0.91043 0.63799,-1.68879 0.66342,-1.72968 l 0.0463,-0.0744 1.10424,0.008 c 0.95438,0.007 1.10859,0.0155 1.13629,0.0595 0.0245,0.0387 -0.10815,0.30038 -0.55765,1.10063 l -0.58968,1.04982 0.59161,0.009 c 0.60635,0.009 0.69152,0.0271 0.67203,0.14115 -0.0154,0.09 -3.3853,3.87459 -3.45001,3.87459 -0.0311,0 -0.07,-0.0258 -0.0866,-0.0575 z"
       id="path1164" /></g></svg>
