<?xml version="1.0" encoding="UTF-8" standalone="no"?>
<!-- Created with Inkscape (http://www.inkscape.org/) -->

<svg
   sodipodi:docname="entrenched.svg"
   inkscape:version="1.1.2 (0a00cf5339, 2022-02-04)"
   id="svg8"
   version="1.1"
   viewBox="0 0 6.8589293 6.8461938"
   height="6.8461938mm"
   width="6.8589292mm"
   xmlns:inkscape="http://www.inkscape.org/namespaces/inkscape"
   xmlns:sodipodi="http://sodipodi.sourceforge.net/DTD/sodipodi-0.dtd"
   xmlns="http://www.w3.org/2000/svg"
   xmlns:svg="http://www.w3.org/2000/svg"
   xmlns:rdf="http://www.w3.org/1999/02/22-rdf-syntax-ns#"
   xmlns:cc="http://creativecommons.org/ns#"
   xmlns:dc="http://purl.org/dc/elements/1.1/">
  <defs
     id="defs2" />
  <sodipodi:namedview
     id="base"
     pagecolor="#ffffff"
     bordercolor="#666666"
     borderopacity="1.0"
     inkscape:pageopacity="0.0"
     inkscape:pageshadow="2"
     inkscape:zoom="5.6568542"
     inkscape:cx="37.034718"
     inkscape:cy="36.416"
     inkscape:document-units="mm"
     inkscape:current-layer="layer1"
     showgrid="false"
     inkscape:window-width="1920"
     inkscape:window-height="1043"
     inkscape:window-x="1920"
     inkscape:window-y="1080"
     inkscape:window-maximized="1"
     inkscape:snap-global="false"
     fit-margin-top="0"
     fit-margin-left="0"
     fit-margin-right="0"
     fit-margin-bottom="0"
     showguides="false"
     inkscape:guide-bbox="true"
     inkscape:pagecheckerboard="0" />
  <metadata
     id="metadata5">
    <rdf:RDF>
      <cc:Work
         rdf:about="">
        <dc:format>image/svg+xml</dc:format>
        <dc:type
           rdf:resource="http://purl.org/dc/dcmitype/StillImage" />
      </cc:Work>
    </rdf:RDF>
  </metadata>
  <g
     inkscape:label="Capa 1"
     inkscape:groupmode="layer"
     id="layer1"
     transform="translate(-150.4884,-112.94971)">
    <rect
       style="opacity:1;vector-effect:none;fill:#1a1a1a;fill-opacity:1;stroke:none;stroke-width:0.1;stroke-linecap:butt;stroke-linejoin:miter;stroke-miterlimit:4;stroke-dasharray:none;stroke-dashoffset:0;stroke-opacity:1"
       id="rect860"
       width="7.0941477"
       height="0"
       x="148.86763"
       y="129.31949" />
    <path
       id="path1562"
       style="stroke-width:0.020652"
       d="m 155.71367,113.14303 c -0.21688,8e-5 -0.26785,0.14993 -0.19637,0.57929 0.04,0.2405 0.0447,0.40133 0.0269,0.95395 -0.008,0.24497 -0.006,0.45312 0.003,0.4625 0.009,0.009 0.0952,0.0165 0.19069,0.016 0.0955,-5.4e-4 0.17309,0.005 0.17311,0.0114 0,0.006 -0.0876,0.0125 -0.19534,0.0139 l -0.19585,0.002 0.002,0.10852 c 0.003,0.19112 0.0493,1.40153 0.0574,1.50792 0.0111,0.15163 0.10746,0.22839 0.21807,0.17467 0.0299,-0.0142 0.0621,-0.0414 0.0708,-0.06 0.0217,-0.0457 0.0805,-1.56034 0.0682,-1.75906 -0.0234,-0.38015 -0.0144,-1.25397 0.014,-1.45211 0.0651,-0.44485 0.0169,-0.5587 -0.23617,-0.55862 z m -0.19224,2.96416 -0.0703,0.009 c -0.0387,0.005 -0.16126,0.009 -0.27182,0.008 l -0.20102,-0.002 0.001,0.71416 c 2.7e-4,0.20315 0.003,0.3891 0.008,0.524 0.0158,0.0334 0.0337,0.0628 0.0563,0.0879 0.0678,0.0816 0.11366,0.0672 0.26304,-0.0822 0.11621,-0.11621 0.26117,-0.18035 0.40669,-0.18035 0.12444,0 0.30151,0.0524 0.39326,0.11678 0.21906,0.15337 0.3317,0.0739 0.37569,-0.30334 1.4e-4,-0.0547 5.1e-4,-0.11284 5.1e-4,-0.1788 l -5.1e-4,-0.70331 -0.21963,0.003 c -0.12064,0.002 -0.24217,-2.2e-4 -0.27027,-0.006 -0.0492,-0.008 -0.0515,0.005 -0.0656,0.38293 -0.008,0.23164 -0.0273,0.41264 -0.046,0.44183 -0.0653,0.10309 -0.24637,0.10093 -0.30747,-0.003 -0.0142,-0.0244 -0.0315,-0.22109 -0.0388,-0.43718 z m -4.4819,0.43718 c -0.32425,0.30242 -0.21996,0.66666 -0.47852,0.9865 -0.13149,0.44278 -0.0977,1.03715 -0.0977,1.03715 0,0.70958 0.0183,0.93404 0.092,1.03456 h 6.68744 c 0.16664,-0.80908 0.28169,-2.27537 -0.31936,-2.92488 -0.12569,-0.0278 -0.20021,-0.045 -0.24391,-0.0775 -0.0218,-0.008 -0.0405,-0.0129 -0.0568,-0.0145 v 5.2e-4 c -0.11384,-0.009 -0.0486,0.15013 -0.0708,0.24288 -0.019,0.62277 -0.18208,0.76062 -0.44907,0.57361 -0.0917,-0.0642 -0.26878,-0.11679 -0.39326,-0.11679 -0.14546,0 -0.29051,0.0642 -0.40669,0.18035 -0.14926,0.14926 -0.1948,0.16364 -0.26252,0.0822 -0.23721,-0.14056 0.009,-0.70457 -0.29403,-0.81855 -0.0743,-0.006 -0.0813,-0.0197 -0.2372,-0.0186 -0.2559,0.002 -0.15933,0.15945 -0.28887,0.41237 -0.0457,0.0892 -0.12534,0.16227 -0.17725,0.16227 -0.1491,0 -0.32649,0.2392 -0.37776,0.50901 -0.10862,0.57147 -0.0654,0.96875 -1.09037,0.9741 -1.13587,-0.0651 -0.61904,-1.43871 -1.32343,-1.96732 -0.0796,-0.13504 -0.0111,-0.25735 -0.21188,-0.25735 z" />
  </g>
</svg>
