<?xml version="1.0" encoding="UTF-8" standalone="no"?>
<!-- Created with Inkscape (http://www.inkscape.org/) -->

<svg
   sodipodi:docname="flare.svg"
   inkscape:version="1.4.3 (0d15f75042, 2025-12-25)"
   id="svg8"
   version="1.1"
   viewBox="0 0 6.8589293 6.8461938"
   height="6.8461938mm"
   width="6.8589292mm"
   xml:space="preserve"
   xmlns:inkscape="http://www.inkscape.org/namespaces/inkscape"
   xmlns:sodipodi="http://sodipodi.sourceforge.net/DTD/sodipodi-0.dtd"
   xmlns="http://www.w3.org/2000/svg"
   xmlns:svg="http://www.w3.org/2000/svg"
   xmlns:rdf="http://www.w3.org/1999/02/22-rdf-syntax-ns#"
   xmlns:cc="http://creativecommons.org/ns#"
   xmlns:dc="http://purl.org/dc/elements/1.1/"><defs
     id="defs2" /><sodipodi:namedview
     id="base"
     pagecolor="#ffffff"
     bordercolor="#666666"
     borderopacity="1.0"
     inkscape:pageopacity="0.0"
     inkscape:pageshadow="2"
     inkscape:zoom="11.313708"
     inkscape:cx="8.1317283"
     inkscape:cy="17.103146"
     inkscape:document-units="mm"
     inkscape:current-layer="layer1"
     showgrid="false"
     inkscape:window-width="1853"
     inkscape:window-height="1011"
     inkscape:window-x="0"
     inkscape:window-y="0"
     inkscape:window-maximized="1"
     inkscape:snap-global="false"
     fit-margin-top="0"
     fit-margin-left="0"
     fit-margin-right="0"
     fit-margin-bottom="0"
     showguides="false"
     inkscape:guide-bbox="true"
     inkscape:pagecheckerboard="0"
     inkscape:showpageshadow="2"
     inkscape:deskcolor="#d1d1d1" /><metadata
     id="metadata5"><rdf:RDF><cc:Work
         rdf:about=""><dc:format>image/svg+xml</dc:format><dc:type
           rdf:resource="http://purl.org/dc/dcmitype/StillImage" /></cc:Work></rdf:RDF></metadata><g
     inkscape:label="Capa 1"
     inkscape:groupmode="layer"
     id="layer1"
     transform="translate(-150.4884,-112.94971)"><rect
       style="opacity:1;vector-effect:none;fill:#1a1a1a;fill-opacity:1;stroke:none;stroke-width:0.1;stroke-linecap:butt;stroke-linejoin:miter;stroke-miterlimit:4;stroke-dasharray:none;stroke-dashoffset:0;stroke-opacity:1"
       id="rect860"
       width="7.0941477"
       height="0"
       x="148.86763"
       y="129.31949" /><path
       id="rect1"
       style="fill:#000000;stroke-width:0.264583"
       d="m 151.60333,116.78853 c -0.12584,0.11191 -0.137,0.30313 -0.025,0.42898 l 1.2283,1.38065 c 0.11192,0.12584 0.30313,0.137 0.42897,0.0251 l 0.21117,-0.18793 -1.63222,-1.83469 z m 0.40964,-0.36445 1.63222,1.83469 2.17717,-1.93688 -1.63223,-1.8347 z m 2.37562,-2.11343 1.63222,1.83469 0.21158,-0.18823 c 0.12584,-0.11192 0.137,-0.30316 0.025,-0.429 l -1.22828,-1.38066 c -0.11192,-0.12585 -0.30315,-0.137 -0.429,-0.0251 z" /><g
       id="g2"
       transform="translate(-0.12233542,0.0975519)"><path
         style="fill:#000000;stroke-width:0.0172571"
         d="m 152.04376,114.76697 -0.0867,-0.41655 -0.41643,-0.0867 c -0.22905,-0.0477 -0.41644,-0.0879 -0.41644,-0.0892 0,-0.002 0.18739,-0.0416 0.41644,-0.0892 l 0.41643,-0.0867 0.0867,-0.41655 c 0.0477,-0.2291 0.088,-0.41655 0.0895,-0.41655 0.002,0 0.0418,0.18736 0.0894,0.41636 l 0.0867,0.41637 0.41873,0.087 c 0.23029,0.0478 0.41873,0.0881 0.41873,0.0893 0,0.002 -0.18844,0.0414 -0.41873,0.0893 l -0.41873,0.087 -0.0867,0.41636 c -0.0477,0.22901 -0.0879,0.41637 -0.0894,0.41637 -0.002,0 -0.0418,-0.18744 -0.0895,-0.41655 z"
         id="path2"
         sodipodi:nodetypes="cccscccscccscccscc" /><path
         style="fill:#000000;stroke-width:0.0172571"
         d="m 155.85315,118.96838 -0.0867,-0.41655 -0.41643,-0.0867 c -0.22905,-0.0477 -0.41644,-0.0879 -0.41644,-0.0892 0,-0.002 0.18739,-0.0416 0.41644,-0.0892 l 0.41643,-0.0867 0.0867,-0.41655 c 0.0477,-0.2291 0.088,-0.41655 0.0895,-0.41655 0.002,0 0.0418,0.18736 0.0894,0.41636 l 0.0867,0.41637 0.41873,0.087 c 0.23029,0.0478 0.41873,0.0881 0.41873,0.0893 0,0.002 -0.18844,0.0414 -0.41873,0.0893 l -0.41873,0.087 -0.0867,0.41636 c -0.0477,0.22901 -0.0879,0.41637 -0.0894,0.41637 -0.002,0 -0.0418,-0.18744 -0.0895,-0.41655 z"
         id="path2-2"
         sodipodi:nodetypes="cccscccscccscccscc" /></g></g></svg>
