<?xml version="1.0" encoding="UTF-8" standalone="no"?>
<!-- Created with Inkscape (http://www.inkscape.org/) -->

<svg
   xmlns:dc="http://purl.org/dc/elements/1.1/"
   xmlns:cc="http://creativecommons.org/ns#"
   xmlns:rdf="http://www.w3.org/1999/02/22-rdf-syntax-ns#"
   xmlns:svg="http://www.w3.org/2000/svg"
   xmlns="http://www.w3.org/2000/svg"
   xmlns:sodipodi="http://sodipodi.sourceforge.net/DTD/sodipodi-0.dtd"
   xmlns:inkscape="http://www.inkscape.org/namespaces/inkscape"
   sodipodi:docname="fragile.svg"
   inkscape:version="0.92.5 (2060ec1f9f, 2020-04-08)"
   id="svg8"
   version="1.1"
   viewBox="0 0 6.8589293 6.8461938"
   height="25.875378"
   width="25.923512">
  <defs
     id="defs2" />
  <sodipodi:namedview
     id="base"
     pagecolor="#ffffff"
     bordercolor="#666666"
     borderopacity="1.0"
     inkscape:pageopacity="0.0"
     inkscape:pageshadow="2"
     inkscape:zoom="5.6568543"
     inkscape:cx="25.686188"
     inkscape:cy="9.0016766"
     inkscape:document-units="mm"
     inkscape:current-layer="layer1"
     showgrid="false"
     inkscape:window-width="1920"
     inkscape:window-height="1043"
     inkscape:window-x="1920"
     inkscape:window-y="0"
     inkscape:window-maximized="1"
     inkscape:snap-global="false"
     fit-margin-top="0"
     fit-margin-left="0"
     fit-margin-right="0"
     fit-margin-bottom="0"
     showguides="false"
     inkscape:guide-bbox="true"
     units="px" />
  <metadata
     id="metadata5">
    <rdf:RDF>
      <cc:Work
         rdf:about="">
        <dc:format>image/svg+xml</dc:format>
        <dc:type
           rdf:resource="http://purl.org/dc/dcmitype/StillImage" />
        <dc:title></dc:title>
      </cc:Work>
    </rdf:RDF>
  </metadata>
  <g
     inkscape:label="Capa 1"
     inkscape:groupmode="layer"
     id="layer1"
     transform="translate(-150.4884,-112.94971)">
    <rect
       style="opacity:1;vector-effect:none;fill:#1a1a1a;fill-opacity:1;stroke:none;stroke-width:0.1;stroke-linecap:butt;stroke-linejoin:miter;stroke-miterlimit:4;stroke-dasharray:none;stroke-dashoffset:0;stroke-opacity:1"
       id="rect860"
       width="7.0941477"
       height="0"
       x="148.86763"
       y="129.31949" />
    <path
       style="display:inline;fill:#000000;stroke-width:0.03565571"
       d="m 153.73833,119.14557 c -0.0113,-0.0264 -0.0139,-0.28799 -0.008,-0.58129 l 0.009,-0.53326 h 0.1961 0.1961 v 0.57049 0.57049 l -0.18759,0.0102 c -0.13233,0.008 -0.19302,-0.002 -0.20602,-0.0373 z m -1.27555,-0.4123 c -0.0527,-0.0551 -0.0958,-0.12345 -0.0958,-0.15218 0,-0.0671 0.71579,-0.78183 0.78309,-0.78183 0.07,0 0.25093,0.17882 0.25093,0.24797 0,0.0727 -0.71451,0.78604 -0.78728,0.78604 -0.0303,0 -0.0982,-0.0449 -0.15092,-0.10001 z m 2.33706,-0.26608 c -0.20066,-0.20134 -0.36483,-0.38272 -0.36483,-0.40305 0,-0.0469 0.22314,-0.26488 0.27116,-0.26488 0.0197,0 0.20907,0.17562 0.42058,0.39024 0.3988,0.4047 0.40004,0.40737 0.25945,0.56354 -0.12505,0.13889 -0.19898,0.10286 -0.58636,-0.28585 z m -3.99828,-1.0696 c -0.0472,-0.0243 -0.1194,-0.0892 -0.16045,-0.14459 -0.0691,-0.093 -0.0756,-0.15472 -0.0856,-0.82021 -0.0121,-0.82733 0.0113,-0.95439 0.20397,-1.08397 l 0.12182,-0.082 1.35794,0.009 1.35794,0.009 0.10161,0.18959 c 0.0559,0.10433 0.0959,0.19394 0.0891,0.19922 -0.007,0.006 -0.22573,0.0945 -0.48639,0.19816 -0.26066,0.10365 -0.46596,0.19651 -0.45621,0.20625 0.009,0.009 0.223,0.11317 0.47392,0.22997 0.25092,0.11671 0.46825,0.22391 0.48297,0.23815 0.0146,0.0143 -0.26191,0.12936 -0.61473,0.25582 -0.3528,0.12654 -0.64162,0.23835 -0.64181,0.2486 -1.3e-4,0.009 0.16412,0.10149 0.36514,0.20294 l 0.36547,0.1843 -1.19447,0.001 c -0.88059,10e-4 -1.21698,-0.0113 -1.28017,-0.0425 z m 3.40491,-0.10262 c -0.19831,-0.10138 -0.26768,-0.15299 -0.23372,-0.17398 0.0265,-0.0164 0.32595,-0.1295 0.66531,-0.25131 0.33937,-0.12182 0.61702,-0.23189 0.61702,-0.24464 0,-0.0135 -0.23666,-0.13567 -0.52591,-0.27314 l -0.52592,-0.24997 0.18719,-0.0676 c 0.10296,-0.0372 0.18719,-0.0816 0.18719,-0.0988 0,-0.0171 -0.0401,-0.10217 -0.0891,-0.18906 -0.049,-0.0869 -0.13017,-0.23062 -0.18047,-0.31952 l -0.0913,-0.16164 1.40995,0.0113 1.40994,0.009 0.11658,0.11643 0.11657,0.11645 0.0102,0.78327 c 0.0121,0.86663 -0.007,0.96319 -0.20409,1.08008 -0.092,0.0544 -0.23633,0.0607 -1.34543,0.0591 l -1.24245,-10e-4 -0.28202,-0.14414 z m -1.47466,-2.71429 c -0.20066,-0.20133 -0.36483,-0.39088 -0.36483,-0.42119 0,-0.0688 0.18186,-0.24674 0.25216,-0.24674 0.0671,0 0.78186,0.71579 0.78186,0.78308 0,0.07 -0.17884,0.25094 -0.24799,0.25094 -0.031,0 -0.22054,-0.16474 -0.4212,-0.36609 z m 1.81717,0.24851 c -0.0627,-0.0646 -0.11389,-0.13314 -0.11389,-0.15217 0,-0.0699 0.73189,-0.76427 0.80556,-0.76427 0.0678,0 0.18124,0.0962 0.2443,0.207 0.028,0.0494 -0.70757,0.82702 -0.78232,0.82702 -0.0218,0 -0.0908,-0.0528 -0.15357,-0.11765 z m -0.84045,-0.15105 c -0.0332,-0.0865 -0.0258,-1.02541 0.008,-1.07956 0.0196,-0.0309 0.0887,-0.043 0.20448,-0.0357 l 0.17483,0.0102 v 0.5705 0.57049 l -0.18272,0.0113 c -0.14259,0.008 -0.18762,-0.002 -0.20502,-0.0475 z"
       id="path1110"
       inkscape:connector-curvature="0" />
  </g>
</svg>
