<?xml version="1.0" encoding="UTF-8" standalone="no"?>
<!-- Created with Inkscape (http://www.inkscape.org/) -->

<svg
   sodipodi:docname="grapple.svg"
   inkscape:version="1.1.2 (0a00cf5339, 2022-02-04)"
   id="svg8"
   version="1.1"
   viewBox="0 0 6.8589293 6.8461938"
   height="6.8461938mm"
   width="6.8589292mm"
   xmlns:inkscape="http://www.inkscape.org/namespaces/inkscape"
   xmlns:sodipodi="http://sodipodi.sourceforge.net/DTD/sodipodi-0.dtd"
   xmlns="http://www.w3.org/2000/svg"
   xmlns:svg="http://www.w3.org/2000/svg"
   xmlns:rdf="http://www.w3.org/1999/02/22-rdf-syntax-ns#"
   xmlns:cc="http://creativecommons.org/ns#"
   xmlns:dc="http://purl.org/dc/elements/1.1/">
  <defs
     id="defs2" />
  <sodipodi:namedview
     id="base"
     pagecolor="#ffffff"
     bordercolor="#666666"
     borderopacity="1.0"
     inkscape:pageopacity="0.0"
     inkscape:pageshadow="2"
     inkscape:zoom="4"
     inkscape:cx="-30.125"
     inkscape:cy="20.625"
     inkscape:document-units="mm"
     inkscape:current-layer="layer1"
     showgrid="false"
     inkscape:window-width="1846"
     inkscape:window-height="1016"
     inkscape:window-x="74"
     inkscape:window-y="27"
     inkscape:window-maximized="1"
     inkscape:snap-global="false"
     fit-margin-top="0"
     fit-margin-left="0"
     fit-margin-right="0"
     fit-margin-bottom="0"
     showguides="false"
     inkscape:guide-bbox="true"
     inkscape:pagecheckerboard="0" />
  <metadata
     id="metadata5">
    <rdf:RDF>
      <cc:Work
         rdf:about="">
        <dc:format>image/svg+xml</dc:format>
        <dc:type
           rdf:resource="http://purl.org/dc/dcmitype/StillImage" />
      </cc:Work>
    </rdf:RDF>
  </metadata>
  <g
     inkscape:label="Capa 1"
     inkscape:groupmode="layer"
     id="layer1"
     transform="translate(-150.4884,-112.94971)">
    <rect
       style="opacity:1;vector-effect:none;fill:#1a1a1a;fill-opacity:1;stroke:none;stroke-width:0.1;stroke-linecap:butt;stroke-linejoin:miter;stroke-miterlimit:4;stroke-dasharray:none;stroke-dashoffset:0;stroke-opacity:1"
       id="rect860"
       width="7.0941477"
       height="0"
       x="148.86763"
       y="129.31949" />
    <path
       id="path916"
       style="fill:#000000;stroke-width:0.208698"
       d="M 10.779297 0.203125 L 3.4746094 0.30273438 C 3.5172047 0.38475012 6.3201281 5.0389096 7.6777344 7.3632812 L 7.6777344 7.359375 C 9.8755674 11.122424 10.283684 11.867919 10.496094 11.40625 C 10.632459 11.109897 12.045613 10.156916 12.833984 10.013672 L 13.605469 9.8730469 L 10.779297 0.203125 z M 13.400391 11.775391 C 12.932551 11.781757 12.470009 11.958072 12.091797 12.308594 C 11.654128 12.714591 11.539062 13.013811 11.539062 13.751953 C 11.539062 14.53492 11.641508 14.768395 12.181641 15.222656 C 14.125074 16.857944 16.686745 14.19854 14.894531 12.40625 C 14.467276 11.979215 13.930609 11.768175 13.400391 11.775391 z M 16.710938 12.113281 C 16.600144 12.112029 16.533863 12.115268 16.527344 12.125 C 16.513737 12.144238 16.526404 12.746141 16.556641 13.462891 L 16.611328 14.767578 L 17.865234 14.871094 L 19.117188 14.976562 L 19.121094 16.046875 C 19.124873 16.635688 19.127207 17.711049 19.134766 18.435547 C 19.145877 19.693865 19.114506 19.776549 18.392578 20.302734 C 17.536931 20.926281 17.518185 20.998473 18.060547 21.654297 L 18.0625 21.654297 C 18.278084 21.915009 18.528432 22.120714 18.619141 22.109375 C 18.709849 22.099246 19.256435 21.743771 19.833984 21.320312 L 20.884766 20.550781 L 20.779297 16.550781 C 20.721848 14.350038 20.619632 12.505597 20.552734 12.451172 C 20.453786 12.371471 17.486491 12.12205 16.710938 12.113281 z M 10.306641 12.705078 C 10.148624 12.72171 9.2055454 12.966769 8.1152344 13.275391 L 6 13.873047 L 6.2089844 15.277344 C 6.3228993 16.049652 6.6087267 17.870096 6.8457031 19.322266 L 7.2773438 21.962891 L 8.296875 22.480469 L 8.2988281 22.480469 C 9.9060344 23.296242 9.9888147 23.308617 10.144531 22.767578 C 10.221256 22.501084 10.375147 22.164287 10.484375 22.019531 C 10.637219 21.817213 10.460497 21.655937 9.7285156 21.332031 L 8.7753906 20.910156 L 8.4277344 18.634766 C 8.2349785 17.383288 8.1449881 16.299507 8.2285156 16.226562 C 8.3094353 16.152975 8.8754431 15.968721 9.4863281 15.816406 C 10.097591 15.664469 10.618201 15.534776 10.648438 15.523438 C 10.676784 15.513422 10.603493 14.999959 10.486328 14.384766 C 10.368785 13.76927 10.307279 13.146646 10.349609 13 C 10.390806 12.853354 10.379905 12.720196 10.328125 12.705078 C 10.324759 12.70411 10.317175 12.703969 10.306641 12.705078 z M 16.199219 19.070312 L 11.984375 19.318359 C 11.580548 19.342127 11.273107 19.68797 11.296875 20.091797 L 11.544922 24.306641 C 11.568689 24.710468 11.914532 25.015955 12.318359 24.992188 L 16.533203 24.744141 C 16.93703 24.720373 17.242518 24.376483 17.21875 23.972656 L 16.970703 19.757812 C 16.946936 19.353985 16.603046 19.046545 16.199219 19.070312 z "
       transform="matrix(0.26458333,0,0,0.26458333,150.4884,112.94971)" />
  </g>
</svg>
