<?xml version="1.0" encoding="UTF-8" standalone="no"?>
<!-- Created with Inkscape (http://www.inkscape.org/) -->

<svg
   sodipodi:docname="grapple.svg"
   inkscape:version="1.1.2 (0a00cf5339, 2022-02-04)"
   id="svg8"
   version="1.1"
   viewBox="0 0 6.8589293 6.8461938"
   height="6.8461938mm"
   width="6.8589292mm"
   xmlns:inkscape="http://www.inkscape.org/namespaces/inkscape"
   xmlns:sodipodi="http://sodipodi.sourceforge.net/DTD/sodipodi-0.dtd"
   xmlns="http://www.w3.org/2000/svg"
   xmlns:svg="http://www.w3.org/2000/svg"
   xmlns:rdf="http://www.w3.org/1999/02/22-rdf-syntax-ns#"
   xmlns:cc="http://creativecommons.org/ns#"
   xmlns:dc="http://purl.org/dc/elements/1.1/">
  <defs
     id="defs2" />
  <sodipodi:namedview
     id="base"
     pagecolor="#ffffff"
     bordercolor="#666666"
     borderopacity="1.0"
     inkscape:pageopacity="0.0"
     inkscape:pageshadow="2"
     inkscape:zoom="5.6568542"
     inkscape:cx="-32.438524"
     inkscape:cy="-17.766058"
     inkscape:document-units="mm"
     inkscape:current-layer="layer1"
     showgrid="false"
     inkscape:window-width="1846"
     inkscape:window-height="1016"
     inkscape:window-x="74"
     inkscape:window-y="27"
     inkscape:window-maximized="1"
     inkscape:snap-global="false"
     fit-margin-top="0"
     fit-margin-left="0"
     fit-margin-right="0"
     fit-margin-bottom="0"
     showguides="false"
     inkscape:guide-bbox="true"
     inkscape:pagecheckerboard="0" />
  <metadata
     id="metadata5">
    <rdf:RDF>
      <cc:Work
         rdf:about="">
        <dc:format>image/svg+xml</dc:format>
        <dc:type
           rdf:resource="http://purl.org/dc/dcmitype/StillImage" />
      </cc:Work>
    </rdf:RDF>
  </metadata>
  <g
     inkscape:label="Capa 1"
     inkscape:groupmode="layer"
     id="layer1"
     transform="translate(-150.4884,-112.94971)">
    <rect
       style="opacity:1;vector-effect:none;fill:#1a1a1a;fill-opacity:1;stroke:none;stroke-width:0.1;stroke-linecap:butt;stroke-linejoin:miter;stroke-miterlimit:4;stroke-dasharray:none;stroke-dashoffset:0;stroke-opacity:1"
       id="rect860"
       width="7.0941477"
       height="0"
       x="148.86763"
       y="129.31949" />
    <path
       id="path21185-9"
       style="display:inline;fill:#000000;stroke:none;stroke-width:0.697731;stroke-linecap:round;stroke-miterlimit:4;stroke-dasharray:none"
       d="M 6.2050781 0.203125 L 6.2148438 0.2265625 L 6.2714844 0.203125 L 6.2050781 0.203125 z M 6.984375 0.203125 L 6.3320312 0.5078125 L 6.4511719 0.765625 L 7.4609375 0.28515625 L 7.421875 0.203125 L 6.984375 0.203125 z M 9.5371094 0.203125 C 9.6804808 1.2537882 9.8288009 2.2586831 9.9765625 3.1640625 L 9.6015625 3.9550781 L 9.640625 3.96875 L 9.890625 4.0722656 L 10.056641 3.6640625 C 10.397252 5.6722704 10.722971 7.1244697 10.939453 7.2304688 L 15.125 7.0917969 C 15.237807 6.8635613 15.406315 3.9793785 15.542969 0.203125 L 14.667969 0.203125 C 14.650708 0.68653022 14.63358 1.16291 14.613281 1.5996094 C 14.564147 2.652548 14.511013 3.5547392 14.443359 4.2285156 C 14.409722 4.5653849 14.371716 4.8429094 14.332031 5.0625 C 14.291968 5.2822039 14.287778 5.4089311 14.15625 5.59375 L 14.060547 5.734375 L 13.890625 5.7421875 C 13.890625 5.7421875 13.562035 5.7601458 13.166016 5.7714844 C 12.769959 5.782823 12.323025 5.7907555 12.007812 5.7480469 L 11.837891 5.7265625 L 11.75 5.5722656 C 11.603732 5.3148042 11.522786 4.9660047 11.410156 4.4414062 C 11.297904 3.916808 11.177963 3.2504463 11.056641 2.4785156 C 10.948477 1.7909546 10.838749 1.0150754 10.730469 0.203125 L 9.5371094 0.203125 z M 11.439453 0.203125 C 11.543835 0.97514323 11.649121 1.7133628 11.751953 2.3671875 C 11.872142 3.1313702 11.983702 3.7914132 12.091797 4.2949219 C 12.17986 4.706588 12.253664 4.926815 12.304688 5.0625 C 12.539583 5.0778449 12.84362 5.0856841 13.154297 5.078125 C 13.40847 5.0705659 13.49555 5.0622466 13.619141 5.0546875 C 13.638038 5.0047977 13.635273 5.0240512 13.650391 4.9375 C 13.684406 4.7486748 13.717937 4.4804701 13.751953 4.1542969 C 13.817339 3.5022528 13.873119 2.6080685 13.921875 1.5625 C 13.941674 1.1379268 13.960048 0.67275367 13.976562 0.203125 L 11.439453 0.203125 z M 7.5644531 0.5 L 6.5917969 1.0527344 L 6.7304688 1.296875 L 7.6972656 0.74414062 L 7.5644531 0.5 z M 7.8378906 0.96484375 L 6.8867188 1.5546875 L 6.9238281 1.5996094 L 7.0566406 1.8066406 L 7.9863281 1.1796875 L 7.8613281 0.99414062 L 7.8378906 0.96484375 z M 8.1328125 1.3867188 L 7.2324219 2.0507812 L 7.2988281 2.1308594 L 7.4257812 2.2871094 L 8.2890625 1.578125 L 8.1777344 1.4453125 L 8.1328125 1.3867188 z M 8.4589844 1.7695312 L 7.625 2.5234375 L 7.7207031 2.625 L 7.8378906 2.7441406 L 8.6289062 1.953125 L 8.53125 1.8496094 L 8.4589844 1.7695312 z M 8.8125 2.1230469 L 8.0664062 2.9589844 L 8.1933594 3.0761719 L 8.3027344 3.15625 L 8.9960938 2.2851562 L 8.9160156 2.21875 L 8.8125 2.1230469 z M 9.1972656 2.4335938 L 8.546875 3.3496094 L 8.7246094 3.4746094 L 8.8046875 3.5273438 L 9.4023438 2.5742188 L 9.3515625 2.5429688 L 9.1972656 2.4335938 z M 9.609375 2.7070312 L 9.0703125 3.6894531 L 9.3222656 3.8222656 L 9.3515625 3.8378906 L 9.8242188 2.8261719 L 9.609375 2.7070312 z M 16.283203 3.3789062 L 16.003906 3.3945312 L 16.078125 4.5097656 L 16.349609 4.4941406 L 16.283203 3.3789062 z M 16.59375 3.3789062 L 16.59375 4.4941406 L 16.748047 4.4941406 L 16.837891 4.5019531 L 16.917969 3.3867188 L 16.792969 3.3789062 L 16.59375 3.3789062 z M 17.191406 3.4023438 L 17.117188 4.5234375 L 17.148438 4.5234375 L 17.347656 4.5546875 L 17.517578 3.4472656 L 17.273438 3.4082031 L 17.191406 3.4023438 z M 15.685547 3.4238281 L 15.412109 3.4628906 L 15.552734 4.5703125 L 15.826172 4.53125 L 15.685547 3.4238281 z M 17.826172 3.4980469 L 17.589844 4.5898438 L 17.701172 4.6210938 L 17.833984 4.6582031 L 18.123047 3.5742188 L 17.958984 3.5292969 L 17.826172 3.4980469 z M 18.447266 3.6757812 L 18.048828 4.7246094 L 18.173828 4.7675781 L 18.277344 4.8125 L 18.734375 3.7929688 L 18.601562 3.734375 L 18.447266 3.6757812 z M 19.052734 3.9628906 L 18.455078 4.9082031 L 18.550781 4.9667969 L 18.646484 5.0410156 L 19.318359 4.1484375 L 19.177734 4.0449219 L 19.052734 3.9628906 z M 19.591797 4.3984375 L 18.779297 5.1660156 L 18.816406 5.2050781 L 18.882812 5.2929688 L 18.890625 5.3007812 L 19.835938 4.703125 L 19.804688 4.6503906 L 19.666016 4.4746094 L 19.591797 4.3984375 z M 19.996094 4.9980469 L 18.992188 5.4921875 L 19.023438 5.5722656 L 19.039062 5.6464844 L 20.130859 5.3730469 L 20.09375 5.2480469 L 20.019531 5.0332031 L 19.996094 4.9980469 z M 20.189453 5.765625 L 19.066406 5.8085938 L 19.074219 5.9355469 L 19.066406 6.0371094 L 20.181641 6.0976562 L 20.189453 5.9414062 L 20.189453 5.765625 z M 19.044922 6.2226562 L 19.007812 6.3769531 L 19.007812 6.3847656 L 20.025391 6.84375 L 20.078125 6.7324219 L 20.136719 6.4667969 L 19.044922 6.2226562 z M 18.919922 6.5546875 L 18.888672 6.6074219 L 18.837891 6.6660156 L 18.806641 6.6953125 L 19.626953 7.4628906 L 19.693359 7.390625 L 19.802734 7.2421875 L 19.855469 7.1601562 L 18.919922 6.5546875 z M 18.660156 6.84375 L 18.572266 6.9160156 L 18.476562 6.9824219 L 19.111328 7.90625 L 19.244141 7.8105469 L 19.376953 7.7070312 L 18.660156 6.84375 z M 18.269531 7.109375 L 18.216797 7.1386719 L 18.033203 7.25 L 18.59375 8.2167969 L 18.792969 8.1054688 L 18.845703 8.0683594 L 18.269531 7.109375 z M 15.244141 7.4101562 L 10.976562 7.4257812 C 10.649008 7.4269836 10.385516 7.6919743 10.386719 8.0195312 L 10.388672 8.40625 C 10.389874 8.7338072 10.654865 8.9972958 10.982422 8.9960938 L 15.25 8.9804688 C 15.577557 8.9792664 15.841046 8.7142757 15.839844 8.3867188 L 15.837891 8 C 15.836688 7.6724428 15.571698 7.4089542 15.244141 7.4101562 z M 17.759766 7.4121094 L 17.546875 7.5585938 L 17.494141 7.5976562 L 18.1875 8.4746094 L 18.203125 8.4609375 L 18.388672 8.3417969 L 17.759766 7.4121094 z M 17.236328 7.8164062 L 17.066406 7.9804688 L 17.007812 8.0527344 L 17.863281 8.7695312 L 17.894531 8.7382812 L 18.027344 8.6054688 L 17.236328 7.8164062 z M 16.800781 8.3417969 L 16.742188 8.4375 L 16.646484 8.6074219 L 16.623047 8.6503906 L 17.640625 9.1171875 L 17.648438 9.1015625 L 17.708984 8.9980469 L 17.746094 8.9394531 L 16.800781 8.3417969 z M 16.505859 8.9472656 L 16.482422 8.9980469 L 16.416016 9.2128906 L 16.416016 9.2148438 L 8.8359375 9.2421875 C 8.2270258 9.2444226 7.7379993 9.7367917 7.7402344 10.345703 L 7.7539062 14.167969 C 7.7561413 14.77688 8.2485101 15.263954 8.8574219 15.261719 L 17.580078 15.230469 C 18.18899 15.228234 18.678016 14.735865 18.675781 14.126953 L 18.662109 10.306641 C 18.659874 9.6977277 18.167505 9.2087024 17.558594 9.2109375 L 17.21875 9.2128906 L 16.505859 8.9472656 z M 19.089844 9.9960938 C 19.229686 13.441435 19.595398 15.021595 18.582031 15.408203 L 20.5 16.505859 C 20.960006 14.189236 23.354853 13.898594 24.945312 14.724609 C 24.893158 13.985976 20.040244 9.9515709 19.089844 9.9960938 z M 7.1992188 10.175781 C 6.817746 10.210676 1.0794328 14.253033 0.98828125 14.822266 C 2.9945679 13.732023 5.2476042 14.733226 5.5722656 16.589844 L 7.5605469 15.648438 C 7.0457752 14.850617 6.9763556 13.627649 7.2148438 10.177734 C 7.2115325 10.176239 7.2052736 10.175227 7.1992188 10.175781 z M 23.220703 14.824219 A 2.5286899 2.5286899 0 0 0 20.701172 17.361328 A 2.5286899 2.5286899 0 0 0 23.240234 19.880859 A 2.5286899 2.5286899 0 0 0 25.759766 17.34375 A 2.5286899 2.5286899 0 0 0 23.220703 14.824219 z M 2.8105469 15.039062 A 2.5286899 2.5286899 0 0 0 0.29101562 17.576172 A 2.5286899 2.5286899 0 0 0 2.828125 20.095703 A 2.5286899 2.5286899 0 0 0 5.3476562 17.558594 A 2.5286899 2.5286899 0 0 0 2.8105469 15.039062 z M 20.705078 18.835938 L 19.607422 20.806641 L 20.71875 24.734375 L 25.054688 19.912109 C 23.011475 21.041621 21.17374 20.19373 20.705078 18.835938 z M 5.5097656 18.841797 C 5.246068 20.162024 3.0770814 21.124021 1.2890625 20.279297 C 1.3933775 20.715001 5.3984375 24.900391 5.3984375 24.900391 L 6.4824219 20.964844 C 6.505666 20.564932 5.5097656 18.841797 5.5097656 18.841797 z M 19.464844 21.880859 L 14.617188 23.759766 C 14.055625 24.148566 14.529297 25.505859 14.529297 25.505859 C 14.529297 25.505859 19.970191 25.07975 20.396484 25.078125 C 20.822702 25.076575 19.464844 21.880859 19.464844 21.880859 z M 6.5898438 21.925781 C 6.5898438 21.925781 5.2534324 25.130494 5.6796875 25.128906 C 6.1059804 25.127281 11.550781 25.513672 11.550781 25.513672 C 11.550781 25.513672 12.015607 24.154174 11.451172 23.769531 L 6.5898438 21.925781 z "
       transform="matrix(0.26458333,0,0,0.26458333,150.4884,112.94971)" />
  </g>
</svg>
