<?xml version="1.0" encoding="UTF-8" standalone="no"?>
<!-- Created with Inkscape (http://www.inkscape.org/) -->

<svg
   xmlns:dc="http://purl.org/dc/elements/1.1/"
   xmlns:cc="http://creativecommons.org/ns#"
   xmlns:rdf="http://www.w3.org/1999/02/22-rdf-syntax-ns#"
   xmlns:svg="http://www.w3.org/2000/svg"
   xmlns="http://www.w3.org/2000/svg"
   xmlns:sodipodi="http://sodipodi.sourceforge.net/DTD/sodipodi-0.dtd"
   xmlns:inkscape="http://www.inkscape.org/namespaces/inkscape"
   sodipodi:docname="head.svg"
   inkscape:version="0.92.5 (2060ec1f9f, 2020-04-08)"
   id="svg8"
   version="1.1"
   viewBox="0 0 6.8589293 6.8461938"
   height="6.8461938mm"
   width="6.8589292mm">
  <defs
     id="defs2" />
  <sodipodi:namedview
     id="base"
     pagecolor="#ffffff"
     bordercolor="#666666"
     borderopacity="1.0"
     inkscape:pageopacity="0.0"
     inkscape:pageshadow="2"
     inkscape:zoom="5.6568542"
     inkscape:cx="-12.341601"
     inkscape:cy="7.4961823"
     inkscape:document-units="mm"
     inkscape:current-layer="layer1"
     showgrid="false"
     inkscape:window-width="924"
     inkscape:window-height="1016"
     inkscape:window-x="996"
     inkscape:window-y="27"
     inkscape:window-maximized="0"
     inkscape:snap-global="false"
     fit-margin-top="0"
     fit-margin-left="0"
     fit-margin-right="0"
     fit-margin-bottom="0"
     showguides="false"
     inkscape:guide-bbox="true" />
  <metadata
     id="metadata5">
    <rdf:RDF>
      <cc:Work
         rdf:about="">
        <dc:format>image/svg+xml</dc:format>
        <dc:type
           rdf:resource="http://purl.org/dc/dcmitype/StillImage" />
        <dc:title></dc:title>
      </cc:Work>
    </rdf:RDF>
  </metadata>
  <g
     inkscape:label="Capa 1"
     inkscape:groupmode="layer"
     id="layer1"
     transform="translate(-150.4884,-112.94971)">
    <rect
       style="opacity:1;vector-effect:none;fill:#1a1a1a;fill-opacity:1;stroke:none;stroke-width:0.1;stroke-linecap:butt;stroke-linejoin:miter;stroke-miterlimit:4;stroke-dasharray:none;stroke-dashoffset:0;stroke-opacity:1"
       id="rect860"
       width="7.0941477"
       height="0"
       x="148.86763"
       y="129.31949" />
    <path
       style="display:inline;fill:#000000;fill-opacity:1;stroke-width:0.03410808"
       d="m 153.53093,113.53813 c -0.67598,0.0704 -1.29475,0.35831 -1.78359,0.82993 -0.37772,0.36441 -0.70486,0.91254 -0.70146,1.17548 0.002,0.13449 0.43039,2.17217 0.46322,2.20203 l 1.79821,1.49807 h 1.20338 l 1.8216,-1.49874 c 0.0359,-0.032 0.45799,-2.07107 0.45759,-2.21058 -6.8e-4,-0.26355 -0.30811,-0.78837 -0.66884,-1.14152 -0.50405,-0.49345 -1.09169,-0.7725 -1.79394,-0.85174 -0.25336,-0.0569 -0.5323,-0.0462 -0.79617,-0.003 z m -0.13949,1.88939 h 1.0585 l 0.46591,0.48336 1.15046,-0.16371 -0.25054,1.56029 -1.32059,0.96694 -0.18017,0.43202 h -0.8337 l -0.18165,-0.43202 -1.22586,-0.96694 -0.36731,-1.55017 1.21903,0.15359 z"
       id="path1772-8"
       inkscape:connector-curvature="0"
       sodipodi:nodetypes="ccccccccccccccccccccccccc" />
  </g>
</svg>
