<?xml version="1.0" encoding="UTF-8" standalone="no"?>
<!-- Created with Inkscape (http://www.inkscape.org/) -->

<svg
   xmlns:dc="http://purl.org/dc/elements/1.1/"
   xmlns:cc="http://creativecommons.org/ns#"
   xmlns:rdf="http://www.w3.org/1999/02/22-rdf-syntax-ns#"
   xmlns:svg="http://www.w3.org/2000/svg"
   xmlns="http://www.w3.org/2000/svg"
   xmlns:sodipodi="http://sodipodi.sourceforge.net/DTD/sodipodi-0.dtd"
   xmlns:inkscape="http://www.inkscape.org/namespaces/inkscape"
   sodipodi:docname="heatsink.svg"
   inkscape:version="0.92.5 (2060ec1f9f, 2020-04-08)"
   id="svg8"
   version="1.1"
   viewBox="0 0 6.8589293 6.8461938"
   height="6.8461938mm"
   width="6.8589292mm">
  <defs
     id="defs2" />
  <sodipodi:namedview
     id="base"
     pagecolor="#ffffff"
     bordercolor="#666666"
     borderopacity="1.0"
     inkscape:pageopacity="0.0"
     inkscape:pageshadow="2"
     inkscape:zoom="11.313708"
     inkscape:cx="11.998159"
     inkscape:cy="-3.2236693"
     inkscape:document-units="mm"
     inkscape:current-layer="layer1"
     showgrid="false"
     inkscape:window-width="924"
     inkscape:window-height="1016"
     inkscape:window-x="996"
     inkscape:window-y="27"
     inkscape:window-maximized="0"
     inkscape:snap-global="false"
     fit-margin-top="0"
     fit-margin-left="0"
     fit-margin-right="0"
     fit-margin-bottom="0"
     showguides="false"
     inkscape:guide-bbox="true" />
  <metadata
     id="metadata5">
    <rdf:RDF>
      <cc:Work
         rdf:about="">
        <dc:format>image/svg+xml</dc:format>
        <dc:type
           rdf:resource="http://purl.org/dc/dcmitype/StillImage" />
        <dc:title></dc:title>
      </cc:Work>
    </rdf:RDF>
  </metadata>
  <g
     inkscape:label="Capa 1"
     inkscape:groupmode="layer"
     id="layer1"
     transform="translate(-150.4884,-112.94971)">
    <rect
       style="opacity:1;vector-effect:none;fill:#1a1a1a;fill-opacity:1;stroke:none;stroke-width:0.1;stroke-linecap:butt;stroke-linejoin:miter;stroke-miterlimit:4;stroke-dasharray:none;stroke-dashoffset:0;stroke-opacity:1"
       id="rect860"
       width="7.0941477"
       height="0"
       x="148.86763"
       y="129.31949" />
    <path
       style="display:inline;fill:#000000;stroke-width:0.05032003"
       d="m 150.90693,119.30524 c -0.0442,-0.0466 -0.0588,-0.72606 -0.0588,-2.74037 0,-2.91066 -0.005,-2.84925 0.27523,-3.08193 0.14933,-0.1238 0.46809,-0.14252 0.64681,-0.0379 0.0623,0.0365 0.15589,0.13439 0.20801,0.21771 0.0891,0.14252 0.0948,0.2595 0.0951,1.97535 l 3.1e-4,1.82387 0.20833,-0.0159 0.20832,-0.0159 0.0245,-1.86468 c 0.0265,-2.01493 0.0191,-1.96301 0.30036,-2.11628 0.17344,-0.0945 0.40228,-0.0945 0.57572,0 0.28124,0.15327 0.27387,0.10138 0.30036,2.11628 l 0.0245,1.86468 0.20832,0.0159 0.20833,0.0159 v -1.81352 c 0,-1.99049 0.007,-2.03906 0.2925,-2.19494 0.21017,-0.11453 0.5018,-0.0997 0.66268,0.0336 0.25966,0.21524 0.27027,0.30206 0.27027,2.21091 v 1.75799 l 0.39831,0.006 v -1.81352 c 0,-1.99048 0.007,-2.03905 0.29251,-2.19494 0.33751,-0.18392 0.72293,-0.0432 0.86536,0.31608 0.0924,0.23298 0.10061,5.43896 0.009,5.53576 -0.0853,0.0899 -5.9305,0.0899 -6.01579,0 z"
       id="path1008-9"
       inkscape:connector-curvature="0"
       sodipodi:nodetypes="csccsccccsccccccsccsccsccccc" />
  </g>
</svg>
