<?xml version="1.0" encoding="UTF-8" standalone="no"?>
<!-- Created with Inkscape (http://www.inkscape.org/) -->

<svg
   sodipodi:docname="improved-cooling.svg"
   inkscape:version="1.2.2 (b0a8486541, 2022-12-01)"
   id="svg8"
   version="1.1"
   viewBox="0 0 6.8589293 6.8461938"
   height="6.8461938mm"
   width="6.8589292mm"
   xml:space="preserve"
   xmlns:inkscape="http://www.inkscape.org/namespaces/inkscape"
   xmlns:sodipodi="http://sodipodi.sourceforge.net/DTD/sodipodi-0.dtd"
   xmlns="http://www.w3.org/2000/svg"
   xmlns:svg="http://www.w3.org/2000/svg"
   xmlns:rdf="http://www.w3.org/1999/02/22-rdf-syntax-ns#"
   xmlns:cc="http://creativecommons.org/ns#"
   xmlns:dc="http://purl.org/dc/elements/1.1/"><defs
     id="defs2" /><sodipodi:namedview
     id="base"
     pagecolor="#ffffff"
     bordercolor="#666666"
     borderopacity="1.0"
     inkscape:pageopacity="0.0"
     inkscape:pageshadow="2"
     inkscape:zoom="5.6568542"
     inkscape:cx="-32.173359"
     inkscape:cy="-10.253048"
     inkscape:document-units="mm"
     inkscape:current-layer="layer1"
     showgrid="false"
     inkscape:window-width="1920"
     inkscape:window-height="1043"
     inkscape:window-x="0"
     inkscape:window-y="0"
     inkscape:window-maximized="1"
     inkscape:snap-global="false"
     fit-margin-top="0"
     fit-margin-left="0"
     fit-margin-right="0"
     fit-margin-bottom="0"
     showguides="false"
     inkscape:guide-bbox="true"
     inkscape:showpageshadow="2"
     inkscape:pagecheckerboard="0"
     inkscape:deskcolor="#d1d1d1" /><metadata
     id="metadata5"><rdf:RDF><cc:Work
         rdf:about=""><dc:format>image/svg+xml</dc:format><dc:type
           rdf:resource="http://purl.org/dc/dcmitype/StillImage" /><dc:title /></cc:Work></rdf:RDF></metadata><g
     inkscape:label="Capa 1"
     inkscape:groupmode="layer"
     id="layer1"
     transform="translate(-150.4884,-112.94971)"><rect
       style="opacity:1;vector-effect:none;fill:#1a1a1a;fill-opacity:1;stroke:none;stroke-width:0.1;stroke-linecap:butt;stroke-linejoin:miter;stroke-miterlimit:4;stroke-dasharray:none;stroke-dashoffset:0;stroke-opacity:1"
       id="rect860"
       width="7.0941477"
       height="0"
       x="148.86763"
       y="129.31949" /><path
       style="fill:#000000;stroke-width:0.0133019"
       d="m 153.82644,119.32878 c -0.0243,-0.0124 -0.0602,-0.0435 -0.0798,-0.0692 l -0.0356,-0.0467 -0.004,-0.35639 -0.004,-0.35639 -0.26736,0.20009 c -0.14703,0.11003 -0.28294,0.20611 -0.302,0.21348 -0.0888,0.0343 -0.21586,-0.0225 -0.26047,-0.11647 -0.0267,-0.0562 -0.0204,-0.1492 0.0135,-0.20092 0.0111,-0.017 0.19965,-0.16562 0.41892,-0.33027 l 0.39867,-0.29934 v -0.31131 -0.31132 l -0.24276,-0.14003 c -0.13352,-0.077 -0.25317,-0.14397 -0.2659,-0.14881 -0.0156,-0.006 -0.10371,0.0374 -0.27269,0.13429 -0.13725,0.0787 -0.25714,0.14995 -0.26643,0.15839 -0.0107,0.01 -0.0387,0.19537 -0.0762,0.50508 -0.064,0.52861 -0.0685,0.54636 -0.15236,0.60285 -0.0531,0.0358 -0.15462,0.0404 -0.21376,0.01 -0.0214,-0.011 -0.054,-0.0424 -0.0725,-0.0696 -0.0428,-0.0631 -0.0429,-0.10517 -3e-4,-0.44903 0.0181,-0.14633 0.033,-0.27927 0.0331,-0.29542 1e-4,-0.0263 -0.026,-0.0142 -0.24265,0.11116 -0.311,0.18002 -0.35942,0.2042 -0.40902,0.2042 -0.17321,0 -0.27647,-0.21248 -0.16667,-0.34297 0.0175,-0.0208 0.16068,-0.11219 0.31819,-0.20311 0.1575,-0.0909 0.28212,-0.16923 0.27692,-0.17402 -0.005,-0.005 -0.13814,-0.0635 -0.29543,-0.13061 -0.15729,-0.067 -0.29975,-0.13086 -0.31655,-0.14179 -0.12147,-0.079 -0.10718,-0.28831 0.0242,-0.3543 0.092,-0.0462 0.1261,-0.0366 0.61033,0.17096 l 0.4531,0.19426 0.27292,-0.15706 0.27292,-0.15705 v -0.30054 -0.30055 l -0.27292,-0.15705 -0.27292,-0.15706 -0.4531,0.19426 c -0.48423,0.20761 -0.51836,0.21717 -0.61033,0.17097 -0.13135,-0.066 -0.14563,-0.27528 -0.0242,-0.3543 0.0168,-0.011 0.15926,-0.0748 0.31655,-0.1418 0.15729,-0.0671 0.29024,-0.12582 0.29543,-0.13061 0.005,-0.005 -0.11942,-0.0831 -0.27692,-0.17401 -0.15751,-0.0909 -0.30069,-0.18232 -0.31819,-0.20312 -0.11775,-0.13995 0.009,-0.36445 0.19149,-0.33944 0.0289,0.004 0.16478,0.0739 0.33765,0.17379 0.25597,0.1479 0.2893,0.16379 0.2892,0.13792 -5e-5,-0.0161 -0.0149,-0.14896 -0.0331,-0.29528 -0.0425,-0.34388 -0.0425,-0.38598 3e-4,-0.44904 0.0185,-0.0272 0.0512,-0.0585 0.0725,-0.0696 0.0591,-0.0306 0.16068,-0.0259 0.21376,0.01 0.0838,0.0565 0.0883,0.0743 0.15236,0.60285 0.0376,0.30972 0.0655,0.49539 0.0762,0.50509 0.009,0.008 0.12918,0.0797 0.26643,0.15839 0.16898,0.0969 0.25703,0.14022 0.27269,0.13428 0.0127,-0.005 0.13238,-0.0718 0.2659,-0.14881 l 0.24276,-0.14003 v -0.31131 -0.31131 l -0.39626,-0.29755 c -0.21795,-0.16364 -0.40661,-0.31332 -0.41926,-0.33261 -0.0127,-0.0193 -0.0265,-0.0612 -0.0309,-0.0931 -0.0192,-0.14043 0.11609,-0.26004 0.25874,-0.22871 0.0209,0.005 0.16147,0.10062 0.31228,0.21339 l 0.27421,0.20502 0.004,-0.35764 c 0.004,-0.33715 0.006,-0.35974 0.0314,-0.39435 0.0519,-0.0694 0.0948,-0.0915 0.17745,-0.0915 0.0626,0 0.0851,0.006 0.12351,0.0358 0.0865,0.066 0.0906,0.0875 0.0906,0.46828 v 0.34046 l 0.26796,-0.20054 c 0.14738,-0.11029 0.28356,-0.20656 0.30262,-0.21393 0.0506,-0.0196 0.14558,-0.002 0.19453,0.0348 0.0866,0.066 0.10917,0.19239 0.0504,0.28208 -0.0127,0.0193 -0.2013,0.16897 -0.41926,0.33261 l -0.39626,0.29754 v 0.31116 0.31115 l 0.24441,0.14072 c 0.13442,0.0774 0.25421,0.14448 0.26619,0.14908 0.014,0.006 0.11129,-0.0428 0.27105,-0.13433 0.13709,-0.0785 0.2568,-0.14977 0.26602,-0.1584 0.0105,-0.01 0.039,-0.19927 0.0761,-0.50537 0.064,-0.5287 0.0686,-0.54653 0.15258,-0.60315 0.0531,-0.0358 0.15462,-0.0404 0.21375,-0.01 0.0214,0.011 0.054,0.0424 0.0725,0.0696 0.0428,0.0631 0.0429,0.10517 3.1e-4,0.44904 -0.0181,0.14632 -0.033,0.27927 -0.0331,0.29544 -1e-4,0.0261 0.0325,0.0105 0.2892,-0.13785 0.17229,-0.0996 0.30886,-0.16996 0.33765,-0.17395 0.18357,-0.0254 0.30918,0.1995 0.19032,0.34076 -0.0181,0.0216 -0.16126,0.11302 -0.31805,0.20325 -0.15679,0.0902 -0.28089,0.16791 -0.27577,0.17263 0.005,0.005 0.13801,0.0635 0.29531,0.13048 0.32319,0.13777 0.33722,0.14545 0.37304,0.20418 0.0594,0.0975 0.021,0.23682 -0.0802,0.29058 -0.0907,0.0482 -0.12483,0.0387 -0.61076,-0.16962 l -0.45305,-0.19424 -0.27298,0.15732 -0.27296,0.15732 v 0.29998 0.29999 l 0.27296,0.15731 0.27298,0.15732 0.45305,-0.19424 c 0.48418,-0.20759 0.51832,-0.21715 0.61028,-0.17095 0.13136,0.066 0.14564,0.27527 0.0242,0.3543 -0.0169,0.011 -0.15926,0.0747 -0.31655,0.14179 -0.1573,0.0671 -0.29019,0.12578 -0.2953,0.13049 -0.005,0.005 0.11897,0.0824 0.27575,0.17262 0.1568,0.0902 0.29992,0.18169 0.31805,0.20325 0.0863,0.1026 0.0477,0.26338 -0.0776,0.32282 -0.0967,0.0459 -0.10616,0.0425 -0.49032,-0.17936 -0.2228,-0.12866 -0.2494,-0.14088 -0.2493,-0.11456 5e-5,0.0162 0.0149,0.14918 0.0331,0.29551 0.0426,0.34387 0.0425,0.38596 -2.9e-4,0.44904 -0.0185,0.0272 -0.0512,0.0585 -0.0725,0.0696 -0.0591,0.0306 -0.16068,0.0259 -0.21375,-0.01 -0.084,-0.0566 -0.0885,-0.0744 -0.15258,-0.60314 -0.0371,-0.3061 -0.0656,-0.49554 -0.0761,-0.50537 -0.009,-0.009 -0.12894,-0.0799 -0.26603,-0.1584 -0.15977,-0.0915 -0.25708,-0.13969 -0.27104,-0.13433 -0.012,0.005 -0.13177,0.0717 -0.2662,0.14908 l -0.24441,0.14071 v 0.31116 0.31115 l 0.39627,0.29754 c 0.21794,0.16365 0.40661,0.31333 0.41925,0.33262 0.0588,0.0897 0.0362,0.21604 -0.0504,0.28208 -0.049,0.0373 -0.14395,0.0543 -0.19453,0.0348 -0.0191,-0.007 -0.15524,-0.10364 -0.30262,-0.21393 l -0.26796,-0.20054 v 0.34046 c 0,0.37962 -0.004,0.40248 -0.0889,0.46697 -0.0579,0.0442 -0.15238,0.0539 -0.21467,0.0222 z m 0.35676,-2.50408 0.24608,-0.14319 v -0.31076 -0.31077 l -0.24608,-0.14318 c -0.13535,-0.0787 -0.25506,-0.1431 -0.26603,-0.14299 -0.011,1e-4 -0.1307,0.0645 -0.26605,0.14309 l -0.24609,0.14291 v 0.31094 0.31095 l 0.24609,0.1429 c 0.13535,0.0786 0.25507,0.14298 0.26605,0.14309 0.0109,10e-5 0.13068,-0.0642 0.26603,-0.14299 z"
       id="path19026" /></g></svg>
