<?xml version="1.0" encoding="UTF-8" standalone="no"?>
<!-- Created with Inkscape (http://www.inkscape.org/) -->

<svg
   xmlns:dc="http://purl.org/dc/elements/1.1/"
   xmlns:cc="http://creativecommons.org/ns#"
   xmlns:rdf="http://www.w3.org/1999/02/22-rdf-syntax-ns#"
   xmlns:svg="http://www.w3.org/2000/svg"
   xmlns="http://www.w3.org/2000/svg"
   xmlns:sodipodi="http://sodipodi.sourceforge.net/DTD/sodipodi-0.dtd"
   xmlns:inkscape="http://www.inkscape.org/namespaces/inkscape"
   sodipodi:docname="IndirectFire.svg"
   inkscape:version="0.92.5 (2060ec1f9f, 2020-04-08)"
   id="svg8"
   version="1.1"
   viewBox="0 0 6.8589293 6.8461938"
   height="25.875378"
   width="25.923512">
  <defs
     id="defs2" />
  <sodipodi:namedview
     id="base"
     pagecolor="#ffffff"
     bordercolor="#666666"
     borderopacity="1.0"
     inkscape:pageopacity="0.0"
     inkscape:pageshadow="2"
     inkscape:zoom="5.6568543"
     inkscape:cx="-15.767947"
     inkscape:cy="8.6481232"
     inkscape:document-units="mm"
     inkscape:current-layer="layer1"
     showgrid="false"
     inkscape:window-width="1920"
     inkscape:window-height="1043"
     inkscape:window-x="1920"
     inkscape:window-y="0"
     inkscape:window-maximized="1"
     inkscape:snap-global="false"
     fit-margin-top="0"
     fit-margin-left="0"
     fit-margin-right="0"
     fit-margin-bottom="0"
     showguides="false"
     inkscape:guide-bbox="true"
     units="px" />
  <metadata
     id="metadata5">
    <rdf:RDF>
      <cc:Work
         rdf:about="">
        <dc:format>image/svg+xml</dc:format>
        <dc:type
           rdf:resource="http://purl.org/dc/dcmitype/StillImage" />
        <dc:title></dc:title>
      </cc:Work>
    </rdf:RDF>
  </metadata>
  <g
     inkscape:label="Capa 1"
     inkscape:groupmode="layer"
     id="layer1"
     transform="translate(-150.4884,-112.94971)">
    <rect
       style="opacity:1;vector-effect:none;fill:#1a1a1a;fill-opacity:1;stroke:none;stroke-width:0.1;stroke-linecap:butt;stroke-linejoin:miter;stroke-miterlimit:4;stroke-dasharray:none;stroke-dashoffset:0;stroke-opacity:1"
       id="rect860"
       width="7.0941477"
       height="0"
       x="148.86763"
       y="129.31949" />
    <g
       style="display:inline"
       id="g925"
       transform="matrix(1.5301347,0,0,1.5301347,45.240023,69.044662)">
      <path
         inkscape:connector-curvature="0"
         id="path917"
         d="m 70.941729,32.427433 c -0.0095,-0.01153 -0.09485,-0.187767 -0.189648,-0.391641 -0.09479,-0.203874 -0.179939,-0.384914 -0.189212,-0.402311 -0.01617,-0.03034 -0.01524,-0.03057 0.02284,-0.0056 0.02183,0.01431 0.122228,0.08455 0.223097,0.156096 0.100869,0.07155 0.185678,0.127805 0.188464,0.125018 0.0028,-0.0028 -0.06351,-0.206848 -0.147326,-0.453469 l -0.152393,-0.448402 0.09182,0.08712 c 0.0505,0.04792 0.15891,0.152309 0.240902,0.231985 0.134773,0.130964 0.149078,0.140811 0.149078,0.102611 0,-0.02324 -0.01106,-0.27252 -0.02458,-0.553955 -0.01352,-0.281435 -0.02258,-0.513532 -0.02015,-0.51577 0.0024,-0.0022 0.134977,0.18997 0.29453,0.427131 0.201004,0.298774 0.29316,0.423228 0.300069,0.405237 0.0055,-0.01428 0.01929,-0.125947 0.03068,-0.248146 0.01139,-0.122199 0.02523,-0.224977 0.03076,-0.228396 0.0055,-0.0034 0.04534,0.09154 0.08847,0.211016 0.04313,0.119478 0.08343,0.211377 0.08956,0.204221 0.0061,-0.0072 0.07943,-0.241462 0.162894,-0.520681 l 0.151747,-0.50767 0.01,0.306214 c 0.0055,0.168418 0.01093,0.434944 0.01209,0.592282 0.0012,0.157337 0.0082,0.286068 0.0157,0.286068 0.0075,0 0.06255,-0.05801 0.12239,-0.128918 0.05984,-0.0709 0.115504,-0.133066 0.123709,-0.138137 0.009,-0.0056 0.01089,0.07206 0.0047,0.197413 l -0.01023,0.206632 0.223455,-0.21863 c 0.328571,-0.321477 0.414032,-0.40199 0.420173,-0.395849 0.003,0.003 -0.09244,0.294357 -0.212157,0.64739 -0.119719,0.353033 -0.21434,0.645207 -0.210271,0.649277 0.0041,0.0041 0.09604,-0.02604 0.204379,-0.06692 0.108338,-0.04087 0.199308,-0.07199 0.202156,-0.06914 0.0028,0.0028 -0.05607,0.109584 -0.130937,0.237193 l -0.136114,0.232015 -0.236609,-0.0031 c -0.130135,-0.0017 -0.239256,-0.0057 -0.242491,-0.0089 -0.0032,-0.0032 0.01183,-0.110251 0.03348,-0.237813 0.03654,-0.215296 0.03931,-0.272776 0.01121,-0.233001 -0.0062,0.0087 -0.07286,0.07017 -0.148202,0.136523 -0.07534,0.06636 -0.142039,0.127702 -0.148211,0.136317 -0.01549,0.02162 -0.02291,-0.0075 -0.046,-0.180406 -0.01092,-0.08174 -0.02608,-0.144774 -0.03369,-0.140068 -0.0076,0.0047 -0.01417,0.02082 -0.01457,0.03581 -4.03e-4,0.01499 -0.0098,0.04861 -0.02097,0.07471 l -0.02024,0.04745 -0.05854,-0.09359 -0.05854,-0.09359 -0.0091,0.05822 c -0.005,0.03202 -0.01322,0.08434 -0.01822,0.11626 l -0.0091,0.05804 -0.139984,-0.187691 -0.139983,-0.187691 -0.01303,0.262213 c -0.0072,0.144217 -0.01558,0.264762 -0.01869,0.267878 -0.0031,0.0031 -0.05745,-0.032 -0.120739,-0.07803 -0.06329,-0.04603 -0.119012,-0.07976 -0.123826,-0.07494 -0.0048,0.0048 0.0016,0.07525 0.01424,0.15652 0.01617,0.103862 0.01781,0.149332 0.0055,0.153032 -0.0096,0.0029 -0.105117,0.0098 -0.212245,0.0154 -0.150153,0.0078 -0.198739,0.0053 -0.212072,-0.01083 z"
         style="fill:#000000;stroke-width:0.01611651" />
      <path
         sodipodi:nodetypes="cc"
         inkscape:connector-curvature="0"
         id="path921"
         d="m 68.847824,29.562684 c 2.315104,-0.07087 2.281678,0.141935 2.877438,1.419674"
         style="fill:none;stroke:#000000;stroke-width:0.26499999;stroke-linecap:butt;stroke-linejoin:miter;stroke-miterlimit:4;stroke-dasharray:0.52999997, 0.26499999;stroke-dashoffset:0;stroke-opacity:1" />
    </g>
  </g>
</svg>
