<?xml version="1.0" encoding="UTF-8" standalone="no"?>
<!-- Created with Inkscape (http://www.inkscape.org/) -->

<svg
   width="6.8589301mm"
   height="6.8589301mm"
   viewBox="0 0 6.8589301 6.8589301"
   version="1.1"
   id="svg2451"
   inkscape:version="1.1.2 (0a00cf5339, 2022-02-04)"
   sodipodi:docname="infantry.svg"
   xmlns:inkscape="http://www.inkscape.org/namespaces/inkscape"
   xmlns:sodipodi="http://sodipodi.sourceforge.net/DTD/sodipodi-0.dtd"
   xmlns="http://www.w3.org/2000/svg"
   xmlns:svg="http://www.w3.org/2000/svg"
   xmlns:rdf="http://www.w3.org/1999/02/22-rdf-syntax-ns#"
   xmlns:cc="http://creativecommons.org/ns#"
   xmlns:dc="http://purl.org/dc/elements/1.1/">
  <defs
     id="defs2445" />
  <sodipodi:namedview
     id="base"
     pagecolor="#ffffff"
     bordercolor="#666666"
     borderopacity="1.0"
     inkscape:pageopacity="0.0"
     inkscape:pageshadow="2"
     inkscape:zoom="5.6"
     inkscape:cx="-17.232143"
     inkscape:cy="18.839286"
     inkscape:document-units="mm"
     inkscape:current-layer="layer1"
     showgrid="false"
     fit-margin-top="0"
     fit-margin-left="0"
     fit-margin-right="0"
     fit-margin-bottom="0"
     inkscape:window-width="1846"
     inkscape:window-height="1016"
     inkscape:window-x="74"
     inkscape:window-y="1107"
     inkscape:window-maximized="1"
     inkscape:pagecheckerboard="0"
     inkscape:snap-global="true" />
  <metadata
     id="metadata2448">
    <rdf:RDF>
      <cc:Work
         rdf:about="">
        <dc:format>image/svg+xml</dc:format>
        <dc:type
           rdf:resource="http://purl.org/dc/dcmitype/StillImage" />
      </cc:Work>
    </rdf:RDF>
  </metadata>
  <g
     inkscape:label="Capa 1"
     inkscape:groupmode="layer"
     id="layer1"
     transform="translate(199.91374,49.768952)">
    <path
       style="fill:#000000;stroke-width:0.0193118"
       d="m -196.63119,-42.911305 c -1.07075,-0.06455 -1.76874,-0.213319 -1.9926,-0.424721 l -0.0835,-0.07876 v -0.501357 c 0,-0.556177 0.0119,-0.639975 0.12094,-0.844358 0.0839,-0.157275 0.21647,-0.297435 0.36387,-0.38448 0.0674,-0.03983 0.13276,-0.07242 0.14513,-0.07242 0.0123,0 0.0833,0.07225 0.15772,0.160571 0.20071,0.238346 0.67592,0.710218 0.9504,0.943735 0.49823,0.423879 0.86153,0.686421 1.41288,1.02108 l 0.24454,0.148423 -0.0997,0.01202 c -0.12041,0.01451 -1.05703,0.03008 -1.21977,0.02027 z m 1.55448,-0.165622 c -0.91927,-0.493055 -1.82847,-1.202408 -2.53248,-1.975815 -0.16331,-0.179412 -0.22076,-0.254637 -0.20229,-0.264965 0.0142,-0.008 0.0872,-0.03658 0.16226,-0.06365 l 0.1365,-0.04924 0.0738,0.05052 c 0.18774,0.128451 0.4444,0.234502 0.66768,0.275874 0.10537,0.01953 0.11898,0.0048 0.0313,-0.03391 -0.22195,-0.09825 -0.63015,-0.472244 -0.76729,-0.703016 -0.15463,-0.260203 -0.16622,-0.310021 -0.1732,-0.744314 l -0.006,-0.392794 -0.0516,0.01174 c -0.0284,0.0065 -0.12542,0.04848 -0.21557,0.0934 -0.17432,0.08684 -0.20082,0.09019 -0.25967,0.03281 -0.0432,-0.04206 -0.0564,0.04745 0.12321,-0.829684 0.0642,-0.313332 0.11671,-0.580559 0.11678,-0.593836 6e-5,-0.01328 -0.0128,-0.02413 -0.0285,-0.02413 -0.0156,0 -0.0413,-0.01956 -0.0568,-0.04346 -0.0235,-0.03604 -0.0249,-0.0698 -0.008,-0.197944 0.0245,-0.185832 0.0532,-0.226542 0.15519,-0.219184 0.085,0.0062 0.0897,0.0018 0.1505,-0.138084 0.0779,-0.179299 0.24556,-0.416652 0.38207,-0.540701 0.23284,-0.211595 0.46603,-0.292946 0.9534,-0.332598 0.45203,-0.03678 0.91585,0.02179 1.18547,0.149684 0.25381,0.120391 0.51781,0.420162 0.65614,0.745032 l 0.0544,0.127631 0.079,-0.0089 c 0.11007,-0.01241 0.1373,0.02507 0.16373,0.22523 0.0189,0.143575 0.0178,0.166734 -0.0105,0.197945 -0.0176,0.01945 -0.0437,0.03535 -0.058,0.03535 -0.0143,0 -0.0259,0.01086 -0.0257,0.02413 1.5e-4,0.01328 0.0527,0.280503 0.11681,0.593836 0.17844,0.872252 0.16534,0.785084 0.12467,0.830025 -0.0508,0.05613 -0.10342,0.04883 -0.27397,-0.03801 -0.0833,-0.04237 -0.17462,-0.08229 -0.20321,-0.08871 l -0.052,-0.01171 -0.006,0.392875 c -0.006,0.43454 -0.0183,0.484847 -0.17291,0.743924 -0.13584,0.227598 -0.53185,0.593959 -0.74571,0.689891 -0.24168,0.108399 0.11762,0.04741 0.38159,-0.06478 0.069,-0.02933 0.18093,-0.08846 0.24864,-0.131377 l 0.12311,-0.07803 0.12794,0.04427 c 0.25089,0.08679 0.44578,0.163168 0.54627,0.214091 0.13815,0.07 0.32589,0.26199 0.40025,0.409315 0.10711,0.212164 0.11804,0.28979 0.11804,0.837287 v 0.496567 l -0.0507,0.06026 c -0.12792,0.152013 -0.47486,0.265768 -1.14775,0.376311 -0.0334,0.0055 -0.10793,-0.02327 -0.23072,-0.08913 z m -0.8056,-2.350975 c 0.35448,-0.138946 0.76384,-0.566578 0.82518,-0.86201 0.0126,-0.06123 0.0186,-0.288336 0.0152,-0.580985 -0.005,-0.467111 -0.007,-0.480353 -0.0444,-0.47677 -0.0213,0.0021 -0.12986,0.01325 -0.24138,0.02493 -0.49312,0.05169 -1.48142,0.04211 -1.85761,-0.018 -0.0564,-0.009 -0.10504,-0.01404 -0.10809,-0.01117 -0.003,0.0029 -0.005,0.251585 -0.005,0.552711 l 1.3e-4,0.547503 0.0578,0.116425 c 0.14996,0.302482 0.49216,0.606382 0.81845,0.726836 0.13691,0.05055 0.38416,0.04164 0.54006,-0.01948 z m -1.03803,-2.388105 c 0.10702,-0.03634 0.33383,-0.181979 0.51792,-0.332601 0.12142,-0.09934 0.14399,-0.110396 0.22522,-0.110396 0.0771,0 0.10372,0.01126 0.18231,0.07725 0.14801,0.124227 0.32797,0.249479 0.4582,0.318895 0.16297,0.08686 0.35736,0.101325 0.52279,0.0389 0.13644,-0.05148 0.30748,-0.202634 0.35025,-0.309504 0.12981,-0.324424 -0.0534,-0.813577 -0.3666,-0.978519 -0.23128,-0.12182 -0.646,-0.189328 -1.15676,-0.188292 -0.49034,9.95e-4 -0.90634,0.06793 -1.12937,0.181707 -0.26625,0.135836 -0.47049,0.574411 -0.40721,0.874454 0.0692,0.328228 0.46933,0.541477 0.80325,0.428109 z m -0.30599,-0.164885 c -0.0406,-0.0095 -0.11139,-0.04325 -0.15741,-0.07492 -0.18559,-0.127689 -0.21438,-0.355626 -0.0794,-0.628728 0.12092,-0.244667 0.23491,-0.310911 0.6678,-0.388047 0.27872,-0.04967 0.96835,-0.05076 1.23595,-0.002 0.42479,0.07746 0.54933,0.150313 0.66824,0.390894 0.1419,0.28712 0.10477,0.513274 -0.10503,0.639789 -0.12617,0.07609 -0.23544,0.09382 -0.35546,0.0577 -0.0997,-0.02999 -0.35975,-0.195402 -0.49742,-0.316347 -0.22912,-0.201267 -0.42018,-0.200567 -0.66041,0.0025 -0.17263,0.145869 -0.416,0.296053 -0.51775,0.319494 -0.0995,0.02292 -0.10049,0.02292 -0.19912,-2.84e-4 z m -1.14351,2.643853 c -0.007,-0.02448 -0.15517,-0.383435 -0.32829,-0.797673 -0.17313,-0.414236 -0.38538,-0.922522 -0.47166,-1.129523 -0.0862,-0.207 -0.15436,-0.393107 -0.1513,-0.41357 0.004,-0.0256 0.0468,-0.05461 0.13751,-0.09298 0.14773,-0.06245 0.16993,-0.05684 0.20586,0.05202 0.0257,0.07772 0.0542,0.08679 0.27421,0.08713 0.0923,1.53e-4 0.17288,0.0085 0.17905,0.01843 0.006,0.01002 -0.0497,0.0873 -0.12438,0.171809 -0.0746,0.08451 -0.13562,0.160193 -0.13562,0.168197 0,0.008 0.0845,0.21682 0.18755,0.464041 l 0.18755,0.449489 0.18011,0.04163 c 0.11112,0.02568 0.19817,0.05767 0.22723,0.08351 0.0399,0.03547 0.29911,0.610248 0.29899,0.662981 -10e-6,0.0089 -0.0847,0.04573 -0.18829,0.08181 -0.15021,0.05234 -0.35861,0.140077 -0.45214,0.190321 -0.007,0.0038 -0.0189,-0.01313 -0.0264,-0.03762 z"
       id="path857" />
  </g>
</svg>
