<?xml version="1.0" encoding="UTF-8" standalone="no"?>
<!-- Created with Inkscape (http://www.inkscape.org/) -->

<svg
   sodipodi:docname="laser-tag.svg"
   inkscape:version="1.2.2 (b0a8486541, 2022-12-01)"
   id="svg8"
   version="1.1"
   viewBox="0 0 6.8589293 6.8461938"
   height="25.875378"
   width="25.923512"
   xml:space="preserve"
   xmlns:inkscape="http://www.inkscape.org/namespaces/inkscape"
   xmlns:sodipodi="http://sodipodi.sourceforge.net/DTD/sodipodi-0.dtd"
   xmlns="http://www.w3.org/2000/svg"
   xmlns:svg="http://www.w3.org/2000/svg"
   xmlns:rdf="http://www.w3.org/1999/02/22-rdf-syntax-ns#"
   xmlns:cc="http://creativecommons.org/ns#"
   xmlns:dc="http://purl.org/dc/elements/1.1/"><defs
     id="defs2" /><sodipodi:namedview
     id="base"
     pagecolor="#ffffff"
     bordercolor="#666666"
     borderopacity="1.0"
     inkscape:pageopacity="0.0"
     inkscape:pageshadow="2"
     inkscape:zoom="16"
     inkscape:cx="11.21875"
     inkscape:cy="-0.74999999"
     inkscape:document-units="mm"
     inkscape:current-layer="layer1"
     showgrid="false"
     inkscape:window-width="1920"
     inkscape:window-height="1043"
     inkscape:window-x="1920"
     inkscape:window-y="1080"
     inkscape:window-maximized="1"
     inkscape:snap-global="false"
     fit-margin-top="0"
     fit-margin-left="0"
     fit-margin-right="0"
     fit-margin-bottom="0"
     showguides="true"
     inkscape:guide-bbox="true"
     units="px"
     inkscape:pagecheckerboard="0"
     inkscape:showpageshadow="2"
     inkscape:deskcolor="#d1d1d1" /><metadata
     id="metadata5"><rdf:RDF><cc:Work
         rdf:about=""><dc:format>image/svg+xml</dc:format><dc:type
           rdf:resource="http://purl.org/dc/dcmitype/StillImage" /></cc:Work></rdf:RDF></metadata><g
     inkscape:label="Capa 1"
     inkscape:groupmode="layer"
     id="layer1"
     transform="translate(-150.4884,-112.94971)"><rect
       style="opacity:1;vector-effect:none;fill:#1a1a1a;fill-opacity:1;stroke:none;stroke-width:0.1;stroke-linecap:butt;stroke-linejoin:miter;stroke-miterlimit:4;stroke-dasharray:none;stroke-dashoffset:0;stroke-opacity:1"
       id="rect860"
       width="7.0941477"
       height="0"
       x="148.86763"
       y="129.31949" /><path
       style="fill:#000000;stroke-width:0.0219319"
       d="m 153.06599,117.93605 c -0.002,-0.26539 -0.005,-0.50225 -0.008,-0.52637 -0.003,-0.0242 -0.007,-0.13269 -0.008,-0.24125 -0.002,-0.10856 -0.0111,-0.19739 -0.0213,-0.19739 -0.0102,0 -0.0591,0.14926 -0.10872,0.33169 -0.0496,0.18242 -0.0939,0.33547 -0.0985,0.34009 -0.018,0.018 -0.14701,-0.0207 -0.14701,-0.0441 0,-0.0136 0.039,-0.16746 0.0868,-0.34182 0.0478,-0.17437 0.0823,-0.32154 0.0767,-0.32704 -0.0134,-0.0134 0.0174,-0.065 -0.37128,0.62236 -0.19096,0.33776 -0.34978,0.61736 -0.35294,0.62133 -0.005,0.005 -0.0684,-0.0294 -0.1377,-0.0757 -0.004,-0.003 0.14883,-0.27949 0.33994,-0.61494 0.40297,-0.70728 0.36997,-0.64342 0.33249,-0.64342 -0.0163,0 -0.13766,0.10837 -0.26972,0.24084 l -0.24009,0.24085 -0.0616,-0.059 -0.0616,-0.0591 0.24617,-0.24687 c 0.13539,-0.13578 0.24173,-0.2513 0.2363,-0.2567 -0.005,-0.005 -0.28507,0.15249 -0.62143,0.35089 -0.33634,0.1984 -0.61321,0.35794 -0.61525,0.35453 -0.002,-0.004 -0.0216,-0.0347 -0.0435,-0.0696 -0.0328,-0.0524 -0.0345,-0.0667 -0.01,-0.0816 0.0165,-0.01 0.28588,-0.16921 0.59862,-0.35387 0.31275,-0.18467 0.5724,-0.3471 0.57703,-0.36097 0.005,-0.015 -0.12643,0.0104 -0.32402,0.0625 -0.18284,0.0482 -0.33682,0.0833 -0.3422,0.0779 -0.005,-0.005 -0.0152,-0.0432 -0.0218,-0.0841 l -0.0121,-0.0743 0.3036,-0.0738 c 0.16698,-0.0406 0.3184,-0.0821 0.33649,-0.0922 0.0185,-0.0104 -0.19665,-0.0199 -0.49346,-0.0217 -0.2895,-0.002 -0.61271,-0.005 -0.71823,-0.006 l -0.19186,-0.003 -4e-5,-0.0823 -5e-5,-0.0822 h 0.70182 0.70182 v -0.0503 c 0,-0.0415 -0.0182,-0.0551 -0.10417,-0.0778 -0.0573,-0.0152 -0.2013,-0.0574 -0.32,-0.0938 -0.21228,-0.0652 -0.21559,-0.0672 -0.20132,-0.12504 0.008,-0.0323 0.0224,-0.0668 0.0319,-0.0766 0.01,-0.01 0.1501,0.0223 0.31236,0.0713 0.32082,0.0969 0.38464,0.10793 0.31418,0.0543 -0.0241,-0.0184 -0.29793,-0.18646 -0.60844,-0.37358 l -0.56457,-0.34022 0.0333,-0.0643 c 0.0183,-0.0354 0.0422,-0.0644 0.0532,-0.0644 0.011,0 0.28358,0.15841 0.60585,0.35202 0.64293,0.38623 0.72441,0.4128 0.50061,0.16327 -0.0713,-0.0795 -0.17137,-0.19169 -0.22243,-0.24938 l -0.0928,-0.10489 0.0599,-0.0561 0.0599,-0.0561 0.22946,0.25224 c 0.12621,0.13874 0.23279,0.24227 0.23685,0.23008 0.004,-0.0122 -0.14018,-0.29704 -0.32053,-0.63302 l -0.32792,-0.61085 0.0651,-0.0414 c 0.0373,-0.0238 0.0728,-0.0331 0.0834,-0.022 0.0101,0.0108 0.1583,0.281 0.32924,0.60066 0.17094,0.31966 0.31978,0.59041 0.33075,0.60166 0.0505,0.0519 0.0454,-0.0342 -0.0196,-0.33117 -0.0386,-0.17649 -0.0675,-0.32349 -0.0644,-0.32664 0.003,-0.003 0.0404,-0.0122 0.0826,-0.0201 l 0.0767,-0.0143 0.0649,0.30912 c 0.0696,0.33176 0.0814,0.36546 0.11905,0.34219 0.0171,-0.0105 0.0244,-0.22528 0.0244,-0.71561 v -0.70052 h 0.0767 0.0767 v 0.71279 c 0,0.59016 0.005,0.71278 0.0301,0.71278 0.0166,0 0.0356,-0.0272 0.0423,-0.0603 0.007,-0.0332 0.053,-0.17551 0.1031,-0.3163 l 0.091,-0.25597 0.0696,0.0234 c 0.0383,0.0129 0.0724,0.0256 0.0758,0.0283 0.004,0.002 -0.0432,0.14997 -0.10376,0.32741 -0.0625,0.18321 -0.0985,0.3188 -0.0834,0.31378 0.0146,-0.005 0.19226,-0.26469 0.39481,-0.5774 0.20255,-0.3127 0.38041,-0.57095 0.39524,-0.57387 0.0148,-0.003 0.0499,0.0125 0.0781,0.0343 l 0.0511,0.0397 -0.38845,0.59701 c -0.21364,0.32835 -0.38264,0.60281 -0.37553,0.6099 0.007,0.007 0.12875,-0.0923 0.27034,-0.22079 l 0.25744,-0.2337 0.056,0.0564 0.056,0.0564 -0.12062,0.11427 c -0.0664,0.0629 -0.18173,0.16993 -0.25641,0.23798 -0.0746,0.0681 -0.13097,0.12854 -0.12509,0.13442 0.006,0.006 0.29396,-0.14002 0.64021,-0.32421 l 0.62953,-0.33488 0.0367,0.0689 c 0.0202,0.0379 0.03,0.0755 0.022,0.0836 -0.008,0.008 -0.28863,0.15958 -0.62336,0.33658 -0.33474,0.17699 -0.60862,0.33187 -0.60862,0.34418 0,0.0125 0.0217,0.0165 0.0494,0.009 0.2976,-0.0803 0.60783,-0.15328 0.61565,-0.14487 0.005,0.005 0.0164,0.0412 0.0244,0.0788 l 0.0146,0.0683 -0.33004,0.0852 c -0.18153,0.0469 -0.33005,0.0926 -0.33007,0.10168 1.60278,0.0269 1.63116,0.0338 3.2748,0.0388 v 0.0767 0.0767 c -1.63392,0.004 -1.6738,0.007 -3.30773,0.0109 l 0.18643,0.0585 c 0.10253,0.0322 0.25862,0.0797 0.34687,0.10554 l 0.16045,0.047 -0.015,0.07 c -0.008,0.0385 -0.0188,0.0741 -0.0235,0.0792 -0.005,0.005 -0.16144,-0.0356 -0.34835,-0.0905 -0.18691,-0.0548 -0.33982,-0.0927 -0.33982,-0.0842 0,0.009 0.2759,0.17755 0.6131,0.37557 0.3372,0.19802 0.61333,0.3699 0.61361,0.38196 2.5e-4,0.0121 -0.0179,0.0459 -0.0404,0.0752 l -0.041,0.0533 -0.61942,-0.36657 c -0.34069,-0.2016 -0.62499,-0.36098 -0.63181,-0.35417 -0.007,0.007 0.0662,0.0935 0.16231,0.19265 0.0961,0.0991 0.20868,0.21743 0.25022,0.26285 l 0.0755,0.0826 -0.0553,0.0553 -0.0553,0.0553 -0.24936,-0.25275 c -0.13715,-0.139 -0.25359,-0.24852 -0.25875,-0.24336 -0.005,0.005 0.14959,0.28744 0.34391,0.62728 0.19431,0.33983 0.35329,0.62143 0.35329,0.62577 0,0.005 -0.0309,0.0238 -0.0687,0.0434 -0.0567,0.0293 -0.072,0.0304 -0.0873,0.006 -0.0102,-0.0162 -0.17425,-0.30084 -0.36446,-0.63248 -0.2151,-0.37505 -0.34809,-0.58646 -0.35182,-0.55926 -0.003,0.0241 0.0322,0.18471 0.0789,0.35704 0.0467,0.17232 0.079,0.31673 0.0718,0.32091 -0.007,0.004 -0.0437,0.0142 -0.0811,0.0222 l -0.068,0.0146 -0.0836,-0.32451 c -0.046,-0.17849 -0.0919,-0.3339 -0.10198,-0.34535 -0.0101,-0.0115 -0.0185,0.30683 -0.0185,0.7073 v 0.72814 h -0.0767 -0.0767 z"
       id="path22624"
       sodipodi:nodetypes="cccsccsccccccscccccccccccccscccccccccccscccscccccsccccccccccccccccccccscccsscccccccccccccccccccscccccsccccccccccccccccsscccccscccccscsccccccccccscccc" /></g></svg>
