<?xml version="1.0" encoding="UTF-8" standalone="no"?>
<!-- Created with Inkscape (http://www.inkscape.org/) -->

<svg
   sodipodi:docname="light-laser-tag.svg"
   inkscape:version="1.2.2 (b0a8486541, 2022-12-01)"
   id="svg8"
   version="1.1"
   viewBox="0 0 6.8589293 6.8461938"
   height="25.875378"
   width="25.923512"
   xml:space="preserve"
   xmlns:inkscape="http://www.inkscape.org/namespaces/inkscape"
   xmlns:sodipodi="http://sodipodi.sourceforge.net/DTD/sodipodi-0.dtd"
   xmlns="http://www.w3.org/2000/svg"
   xmlns:svg="http://www.w3.org/2000/svg"
   xmlns:rdf="http://www.w3.org/1999/02/22-rdf-syntax-ns#"
   xmlns:cc="http://creativecommons.org/ns#"
   xmlns:dc="http://purl.org/dc/elements/1.1/"><defs
     id="defs2" /><sodipodi:namedview
     id="base"
     pagecolor="#ffffff"
     bordercolor="#666666"
     borderopacity="1.0"
     inkscape:pageopacity="0.0"
     inkscape:pageshadow="2"
     inkscape:zoom="16"
     inkscape:cx="-3.96875"
     inkscape:cy="17.5625"
     inkscape:document-units="mm"
     inkscape:current-layer="layer1"
     showgrid="false"
     inkscape:window-width="1854"
     inkscape:window-height="1011"
     inkscape:window-x="66"
     inkscape:window-y="1112"
     inkscape:window-maximized="1"
     inkscape:snap-global="false"
     fit-margin-top="0"
     fit-margin-left="0"
     fit-margin-right="0"
     fit-margin-bottom="0"
     showguides="true"
     inkscape:guide-bbox="true"
     units="px"
     inkscape:pagecheckerboard="0"
     inkscape:showpageshadow="2"
     inkscape:deskcolor="#d1d1d1" /><metadata
     id="metadata5"><rdf:RDF><cc:Work
         rdf:about=""><dc:format>image/svg+xml</dc:format><dc:type
           rdf:resource="http://purl.org/dc/dcmitype/StillImage" /></cc:Work></rdf:RDF></metadata><g
     inkscape:label="Capa 1"
     inkscape:groupmode="layer"
     id="layer1"
     transform="translate(-150.4884,-112.94971)"><path
       id="path2114"
       style="fill:#000000;stroke-width:0.0235222"
       d="m 153.0665,114.38738 c -0.0174,4.5e-4 -0.0371,0.008 -0.0641,0.0225 -0.0431,0.0232 -0.0458,0.0562 -0.0458,0.71039 0,0.3791 -0.009,0.67613 -0.02,0.66379 -0.011,-0.0123 -0.0486,-0.0966 -0.0838,-0.1872 -0.17192,-0.44156 -0.21725,-0.49905 -0.32372,-0.41283 l -0.0511,0.0413 0.0556,0.15083 c 0.0305,0.0828 0.0853,0.21753 0.12181,0.2996 0.0364,0.0821 0.0662,0.1613 0.0662,0.17617 0,0.0149 -0.2091,-0.18196 -0.46473,-0.43735 -0.36862,-0.36827 -0.47775,-0.46433 -0.52687,-0.46433 -0.0614,0 -0.0903,0.0364 -0.0903,0.11363 0,0.0217 0.20633,0.24582 0.45861,0.49785 0.25227,0.25202 0.4586,0.46671 0.4586,0.47699 0,0.0105 -0.0194,0.008 -0.0429,-0.004 -0.0713,-0.0381 -0.56838,-0.23748 -0.59227,-0.23748 -0.0123,0 -0.0391,0.0259 -0.0596,0.0573 -0.0586,0.0894 -0.0151,0.13279 0.23747,0.23666 0.46046,0.18938 0.48738,0.17215 -0.2759,0.17452 -0.58019,0.002 -0.67981,0.007 -0.71161,0.0388 -0.0469,0.0469 -0.0469,0.0908 0,0.13774 0.0318,0.0317 0.13142,0.0376 0.71161,0.0392 0.76328,0.002 0.73636,-0.0153 0.2759,0.17412 -0.22856,0.094 -0.28431,0.13996 -0.2571,0.21091 0.0349,0.0908 0.0926,0.0871 0.36501,-0.0237 0.14533,-0.0592 0.28347,-0.11782 0.30696,-0.13039 0.0235,-0.0123 0.0426,-0.0144 0.0426,-0.004 0,0.0103 -0.20633,0.22497 -0.4586,0.477 -0.25229,0.25202 -0.45861,0.47577 -0.45861,0.49744 0,0.0773 0.0289,0.11403 0.0903,0.11403 0.049,0 0.1595,-0.097 0.52973,-0.46473 0.2572,-0.25552 0.46204,-0.44319 0.45492,-0.41732 -0.007,0.0259 -0.0621,0.1674 -0.12221,0.31432 -0.0601,0.14691 -0.10439,0.2808 -0.0973,0.29797 0.006,0.0172 0.0338,0.0434 0.0605,0.0577 0.076,0.0406 0.14207,-0.0461 0.25873,-0.34048 0.0564,-0.14231 0.11163,-0.26888 0.12262,-0.28121 0.011,-0.0123 0.0196,0.28601 0.0196,0.66338 0,0.62821 0.004,0.68759 0.0413,0.70958 v -8e-4 c 0.0581,0.0338 0.0911,0.0311 0.13365,-0.0115 0.0318,-0.0318 0.0365,-0.13149 0.0388,-0.71161 0.002,-0.76505 -0.0177,-0.73521 0.17698,-0.2661 0.0894,0.21539 0.14036,0.27273 0.21582,0.24402 0.0857,-0.0326 0.0778,-0.0948 -0.0507,-0.40465 -0.07,-0.16864 -0.12038,-0.30697 -0.11199,-0.30697 0.008,0 0.2217,0.20674 0.47372,0.45902 0.45325,0.45371 0.5147,0.49898 0.58327,0.4304 0.0683,-0.0683 0.0222,-0.13065 -0.44797,-0.60411 -0.26198,-0.26381 -0.46082,-0.47388 -0.44144,-0.46597 0.0194,0.008 0.16512,0.0676 0.32372,0.13325 0.31906,0.13239 0.38217,0.13284 0.38217,0.002 0,-0.0623 -0.0156,-0.074 -0.21745,-0.16064 -0.11967,-0.0513 -0.25469,-0.107 -0.30001,-0.12385 -0.0453,-0.0168 -0.0924,-0.0394 -0.10464,-0.0503 -0.0123,-0.0108 0.57697,-0.0196 1.3096,-0.0196 0.37989,0 1.8697,-3.6e-4 2.06742,-0.002 v -0.20763 c -0.19773,-0.002 -1.68753,-0.002 -2.06742,-0.002 -0.73263,0 -1.32186,-0.009 -1.3096,-0.0196 0.0123,-0.0108 0.0593,-0.0335 0.10464,-0.0503 0.0452,-0.0168 0.18034,-0.0729 0.30001,-0.12425 0.20184,-0.0866 0.21745,-0.0979 0.21745,-0.16022 0,-0.13016 -0.0631,-0.13014 -0.38217,0.002 -0.1586,0.0657 -0.30435,0.12534 -0.32372,0.13325 -0.0194,0.008 0.17946,-0.20216 0.44144,-0.46597 0.47025,-0.47345 0.51623,-0.53544 0.44797,-0.6037 -0.0686,-0.0687 -0.13002,-0.0233 -0.58327,0.4304 -0.25202,0.25228 -0.46534,0.45861 -0.47372,0.45861 -0.008,0 0.0417,-0.13687 0.11117,-0.30451 0.0696,-0.16764 0.12032,-0.32138 0.11241,-0.34171 -0.0214,-0.0559 -0.0958,-0.0883 -0.14388,-0.0626 -0.0226,0.0121 -0.0825,0.12104 -0.13284,0.24197 -0.19485,0.46831 -0.17461,0.49853 -0.17699,-0.26649 -0.002,-0.58012 -0.007,-0.67982 -0.0388,-0.71162 -0.0244,-0.0244 -0.0426,-0.0357 -0.065,-0.0351 z"
       sodipodi:nodetypes="ccsccccccscsscscsccccccccccscsscsccccssccsccccscscscscccsccscccscscccscccccccc" /><rect
       style="opacity:1;vector-effect:none;fill:#1a1a1a;fill-opacity:1;stroke:none;stroke-width:0.1;stroke-linecap:butt;stroke-linejoin:miter;stroke-miterlimit:4;stroke-dasharray:none;stroke-dashoffset:0;stroke-opacity:1"
       id="rect860"
       width="7.0941477"
       height="0"
       x="148.86763"
       y="129.31949" /></g></svg>
