<?xml version="1.0" encoding="UTF-8" standalone="no"?>
<!-- Created with Inkscape (http://www.inkscape.org/) -->

<svg
   sodipodi:docname="masc.svg"
   inkscape:version="1.1.2 (0a00cf5339, 2022-02-04)"
   id="svg8"
   version="1.1"
   viewBox="0 0 6.8589293 6.8461938"
   height="6.8461938mm"
   width="6.8589292mm"
   xmlns:inkscape="http://www.inkscape.org/namespaces/inkscape"
   xmlns:sodipodi="http://sodipodi.sourceforge.net/DTD/sodipodi-0.dtd"
   xmlns="http://www.w3.org/2000/svg"
   xmlns:svg="http://www.w3.org/2000/svg"
   xmlns:rdf="http://www.w3.org/1999/02/22-rdf-syntax-ns#"
   xmlns:cc="http://creativecommons.org/ns#"
   xmlns:dc="http://purl.org/dc/elements/1.1/">
  <defs
     id="defs2" />
  <sodipodi:namedview
     id="base"
     pagecolor="#ffffff"
     bordercolor="#666666"
     borderopacity="1.0"
     inkscape:pageopacity="0.0"
     inkscape:pageshadow="2"
     inkscape:zoom="16"
     inkscape:cx="20.03125"
     inkscape:cy="9.3125"
     inkscape:document-units="mm"
     inkscape:current-layer="layer1"
     showgrid="false"
     inkscape:window-width="1920"
     inkscape:window-height="1043"
     inkscape:window-x="1920"
     inkscape:window-y="1080"
     inkscape:window-maximized="1"
     inkscape:snap-global="false"
     fit-margin-top="0"
     fit-margin-left="0"
     fit-margin-right="0"
     fit-margin-bottom="0"
     showguides="false"
     inkscape:guide-bbox="true"
     inkscape:pagecheckerboard="0" />
  <metadata
     id="metadata5">
    <rdf:RDF>
      <cc:Work
         rdf:about="">
        <dc:format>image/svg+xml</dc:format>
        <dc:type
           rdf:resource="http://purl.org/dc/dcmitype/StillImage" />
      </cc:Work>
    </rdf:RDF>
  </metadata>
  <g
     inkscape:label="Capa 1"
     inkscape:groupmode="layer"
     id="layer1"
     transform="translate(-150.4884,-112.94971)">
    <rect
       style="opacity:1;vector-effect:none;fill:#1a1a1a;fill-opacity:1;stroke:none;stroke-width:0.1;stroke-linecap:butt;stroke-linejoin:miter;stroke-miterlimit:4;stroke-dasharray:none;stroke-dashoffset:0;stroke-opacity:1"
       id="rect860"
       width="7.0941477"
       height="0"
       x="148.86763"
       y="129.31949" />
    <path
       id="path951"
       style="color:#000000;fill:#000000;stroke-width:0.419528;-inkscape-stroke:none"
       d="m 13.195312,4.0214844 c -0.343911,0.0034 -0.667885,0.018541 -0.90039,0.044922 -1.452494,0.1687413 -2.8441612,0.6170728 -4.0722658,1.3125 -2.9200629,1.6537701 -4.8588199,4.5263264 -5.3222656,7.8769526 -0.1084724,0.801941 -0.09423,2.183706 0.03125,2.97461 0.1107402,0.703521 0.3057857,1.51068 0.515625,2.082031 0.1277481,0.348094 0.3258805,0.768393 0.5175782,1.144531 0.191622,0.376063 0.3576018,0.686033 0.5097656,0.855469 0.3193701,0.355654 0.7669842,0.531422 1.2246094,0.642578 0.345872,0.114465 0.6881506,0.140584 0.9726566,0.14255 0.4236472,0.0038 1.0111191,0.0021 1.7050781,0.0059 1.3879181,0.0038 3.2045525,0.0078 5.0273435,0.0078 1.822753,-3.8e-5 3.649079,-0.0022 5.042969,-0.0078 0.696945,-0.0027 1.284745,-0.0016 1.71289,-0.0059 0.213922,-0.002 0.388331,-0.004 0.515625,-0.0078 0.12737,-0.0024 0.193749,-0.0013 0.251953,-0.0078 0.794986,-0.09033 1.410681,-0.557954 1.851563,-1.373047 0.859956,-1.590122 1.269633,-3.237472 1.277344,-5.09375 0.0038,-1.284888 -0.170283,-2.318865 -0.613282,-3.595703 C 23.324682,10.677484 23.100287,10.175396 22.882812,9.7363281 22.773962,9.5167376 22.662218,9.3165531 22.572266,9.1601562 22.527289,9.08192 22.492495,9.0153627 22.455078,8.9609375 22.417283,8.9065123 22.404784,8.868815 22.314453,8.8125 c -1.51e-4,-1.134e-4 -0.06603,-0.029297 -0.06641,-0.029297 -1.89e-4,-3.78e-5 -0.0504,-0.00781 -0.05078,-0.00781 -4.54e-4,3.78e-5 -0.07384,0.015625 -0.07422,0.015625 -6.05e-4,2.268e-4 -0.0293,0.021484 -0.0293,0.021484 -6.8e-4,4.157e-4 -0.01588,0.00373 -0.02344,0.00781 -0.02268,0.015118 -0.02577,0.025771 -0.03711,0.037109 -0.0189,0.018898 -0.04051,0.040705 -0.06055,0.066406 -0.04044,0.051024 -0.09269,0.120858 -0.154297,0.2070313 -0.12359,0.1719685 -0.281283,0.4075348 -0.457031,0.671875 l -0.701172,1.0566407 0.207032,0.464844 c 0.473574,1.078488 0.685395,2.091986 0.685546,3.292969 1.14e-4,1.33387 -0.264345,2.489604 -0.826172,3.623046 L 20.556628,18.58789 H 13.425781 6.2949219 L 6.1835938,18.359375 C 5.8759402,17.755747 5.6857549,17.244897 5.5195312,16.580078 5.2761297,15.610289 5.2164455,14.499257 5.3574219,13.501953 5.8752927,9.8468098 8.7459287,7.0155242 12.40625,6.5488281 c 0.660775,-0.085039 1.819861,-0.053658 2.429688,0.058594 0.550979,0.1016693 1.201132,0.2928163 1.660156,0.4863281 0.215811,0.091087 0.457339,0.1856125 0.486328,0.1992188 v 0.00781 h 0.0078 c 0.04876,0.018898 0.135977,0.030743 0.207032,0.015625 0.07106,-0.015118 0.136985,-0.044426 0.214843,-0.087891 0.156095,-0.086929 0.38995,-0.2401497 0.81836,-0.5253906 0.257008,-0.1712126 0.491338,-0.3281216 0.664062,-0.4433594 0.08655,-0.057827 0.156764,-0.1046561 0.207031,-0.1386718 0.02646,-0.015118 0.04385,-0.034717 0.05859,-0.044922 0.0076,-0.00378 0.0081,-0.0035 0.01563,-0.00781 0.0029,-0.00208 0.01185,-0.00403 0.01563,-0.00781 0.0019,-0.0014 0.0022,-0.011846 0.0078,-0.015625 8.69e-4,-7.559e-4 0.04259,-0.049647 0.04297,-0.050781 5.29e-4,-9.071e-4 0.03125,-0.073463 0.03125,-0.074219 1.88e-4,-0.00106 1.51e-4,-0.065272 0,-0.066406 -1.52e-4,-0.00121 -0.0078,-0.049269 -0.0078,-0.050781 -10e-4,-0.00268 -0.02577,-0.046563 -0.03711,-0.060547 -0.01134,-0.015118 -0.01991,-0.025771 -0.03125,-0.037109 -0.0378,-0.037795 -0.0707,-0.057276 -0.117188,-0.087891 C 18.987102,5.5555812 18.848777,5.4711857 18.644531,5.3574219 17.48792,4.7130124 16.152995,4.2761 14.798828,4.0957031 14.407978,4.0409 13.769917,4.0158114 13.195312,4.0214844 Z m 9.897855,0.7020949 v 0.00195 c -3.4e-4,7.56e-5 -0.03125,0.00781 -0.03125,0.00781 l -0.0078,0.00781 c -0.01134,0.00756 -0.01796,0.00989 -0.0293,0.013672 -0.0189,0.011339 -0.04474,0.027158 -0.07422,0.044922 -0.05896,0.037795 -0.138504,0.097355 -0.25,0.1699219 -2.792184,1.8692563 -8.33878,6.2745968 -10.831448,8.0283738 -0.156095,0.116787 -0.231112,0.16786 -0.296875,0.257812 -0.501997,0.6816 -0.581055,1.578171 -0.212891,2.355469 0.283329,0.598483 0.881555,1.091427 1.505859,1.238281 l 0.002,0.002 0.0332,0.0059 c 0.01292,0.0028 0.02612,0.0073 0.03906,0.0098 0.736177,0.14022 1.496291,-0.05117 2.007813,-0.525391 6.42e-4,-6.05e-4 0.0177,-0.0177 0.02148,-0.02148 l 0.01563,-0.01562 c 0.0076,-0.0076 0.0081,-0.01991 0.01563,-0.03125 0.01512,-0.0189 0.03743,-0.03976 0.05859,-0.07227 0.04573,-0.06576 0.103845,-0.156272 0.183594,-0.273438 1.880209,-2.80761 6.378517,-8.2748589 8.085354,-10.8936077 7.5e-5,-1.134e-4 -0.01397,-0.2440629 -0.01397,-0.2440629 l 2.99e-4,-7.77e-5 -0.04492,-0.037109 c 0,0 -0.175403,-0.029297 -0.175781,-0.029297 z"
       transform="matrix(0.26458333,0,0,0.26458333,150.4884,112.94971)"
       sodipodi:nodetypes="scccccccccccccccccscccccccccscccccccccccccccccccscccccccccccccscccscccccccccccccccssccccccccc" />
  </g>
</svg>
