<?xml version="1.0" encoding="UTF-8" standalone="no"?>
<!-- Created with Inkscape (http://www.inkscape.org/) -->

<svg
   sodipodi:docname="multiples-targets.svg"
   inkscape:version="1.2.2 (b0a8486541, 2022-12-01)"
   id="svg8"
   version="1.1"
   viewBox="0 0 6.8589293 6.8461938"
   height="6.8461938mm"
   width="6.8589292mm"
   xml:space="preserve"
   xmlns:inkscape="http://www.inkscape.org/namespaces/inkscape"
   xmlns:sodipodi="http://sodipodi.sourceforge.net/DTD/sodipodi-0.dtd"
   xmlns="http://www.w3.org/2000/svg"
   xmlns:svg="http://www.w3.org/2000/svg"
   xmlns:rdf="http://www.w3.org/1999/02/22-rdf-syntax-ns#"
   xmlns:cc="http://creativecommons.org/ns#"
   xmlns:dc="http://purl.org/dc/elements/1.1/"><defs
     id="defs2" /><sodipodi:namedview
     id="base"
     pagecolor="#ffffff"
     bordercolor="#666666"
     borderopacity="1.0"
     inkscape:pageopacity="0.0"
     inkscape:pageshadow="2"
     inkscape:zoom="3.9999998"
     inkscape:cx="33.875002"
     inkscape:cy="28.250002"
     inkscape:document-units="mm"
     inkscape:current-layer="layer1"
     showgrid="false"
     inkscape:window-width="1549"
     inkscape:window-height="773"
     inkscape:window-x="2119"
     inkscape:window-y="1215"
     inkscape:window-maximized="0"
     inkscape:snap-global="false"
     fit-margin-top="0"
     fit-margin-left="0"
     fit-margin-right="0"
     fit-margin-bottom="0"
     showguides="false"
     inkscape:guide-bbox="true"
     inkscape:pagecheckerboard="0"
     inkscape:showpageshadow="2"
     inkscape:deskcolor="#d1d1d1" /><metadata
     id="metadata5"><rdf:RDF><cc:Work
         rdf:about=""><dc:format>image/svg+xml</dc:format><dc:type
           rdf:resource="http://purl.org/dc/dcmitype/StillImage" /></cc:Work></rdf:RDF></metadata><g
     inkscape:label="Capa 1"
     inkscape:groupmode="layer"
     id="layer1"
     transform="translate(-150.4884,-112.94971)"><rect
       style="opacity:1;vector-effect:none;fill:#1a1a1a;fill-opacity:1;stroke:none;stroke-width:0.1;stroke-linecap:butt;stroke-linejoin:miter;stroke-miterlimit:4;stroke-dasharray:none;stroke-dashoffset:0;stroke-opacity:1"
       id="rect860"
       width="7.0941477"
       height="0"
       x="148.86763"
       y="129.31949" /><g
       id="g15415"
       transform="translate(0.01516206,-0.17010571)"><path
         d="m 152.49666,118.52287 c -0.11002,-0.20748 -0.22954,-0.37724 -0.26548,-0.37724 -0.036,0 -0.24944,0.0933 -0.47442,0.2073 -0.23084,0.11698 -0.43031,0.17297 -0.45777,0.1285 -0.0267,-0.0433 0.008,-0.21611 0.0789,-0.38396 0.18466,-0.44198 0.16271,-0.50986 -0.18467,-0.57142 -0.73855,-0.13092 -0.78096,-0.22609 -0.20983,-0.4709 0.21655,-0.0929 0.40934,-0.18439 0.42843,-0.20349 0.019,-0.019 -0.0644,-0.1845 -0.18561,-0.3676 -0.35365,-0.53443 -0.3195,-0.57498 0.32181,-0.38198 0.22113,0.0665 0.42851,0.10464 0.46085,0.0848 0.0324,-0.0201 0.10138,-0.20557 0.1535,-0.4124 0.10802,-0.42872 0.27467,-0.48726 0.41893,-0.1471 0.0534,0.12593 0.14909,0.29822 0.21263,0.38288 0.11101,0.14797 0.13191,0.14504 0.53781,-0.0759 0.23225,-0.12636 0.44839,-0.20369 0.48033,-0.17176 0.032,0.032 -0.005,0.23117 -0.0846,0.44274 -0.0785,0.21158 -0.12637,0.40094 -0.10647,0.42082 0.0199,0.0199 0.22854,0.0796 0.46369,0.13264 0.23515,0.0532 0.43468,0.13318 0.44339,0.17795 0.008,0.0448 -0.17778,0.17591 -0.4144,0.29138 l -0.43027,0.20993 0.24769,0.35409 c 0.13618,0.19475 0.22588,0.38936 0.19924,0.43246 -0.0291,0.0472 -0.20519,0.0308 -0.44181,-0.0409 -0.56086,-0.1702 -0.58003,-0.16287 -0.70162,0.26765 -0.0605,0.21384 -0.1504,0.40232 -0.20002,0.41886 -0.0496,0.0165 -0.18025,-0.13972 -0.29031,-0.34718 z m 0.34279,-0.46819 c 0.0978,-0.36347 0.0599,-0.35271 0.65837,-0.18738 l 0.20256,0.056 -0.18903,-0.30589 -0.18906,-0.30587 0.34563,-0.15474 c 0.34147,-0.1529 0.31205,-0.2599 -0.0715,-0.2599 -0.26578,0 -0.33724,-0.15957 -0.20894,-0.46664 0.13447,-0.32191 0.11955,-0.33185 -0.22879,-0.15172 -0.30314,0.15676 -0.45655,0.11215 -0.5852,-0.17019 -0.12736,-0.2795 -0.19559,-0.26537 -0.29036,0.0601 -0.0837,0.28752 -0.259,0.33691 -0.68651,0.19348 l -0.20006,-0.0671 0.17925,0.29006 c 0.0986,0.15951 0.17926,0.31321 0.17926,0.34152 0,0.0283 -0.14043,0.11401 -0.31218,0.19041 l -0.3122,0.13888 0.3601,0.0834 c 0.30973,0.0718 0.35328,0.10789 0.31153,0.25765 -0.0267,0.0958 -0.0716,0.26072 -0.0998,0.36651 l -0.0513,0.19235 0.28087,-0.17123 c 0.15447,-0.0941 0.3102,-0.17137 0.34609,-0.17152 0.0359,-1.8e-4 0.14261,0.13077 0.23716,0.29105 0.0945,0.16027 0.18551,0.29138 0.20212,0.29138 0.0166,0 0.0715,-0.15331 0.12196,-0.3407 z"
         style="fill:#000000;stroke-width:0.0832504"
         id="path15134" /><path
         id="path15134-3-6"
         style="fill:#000000;stroke-width:0.0832504"
         d="m 153.75296,114.78617 c -0.0835,0.002 -0.16314,0.12566 -0.22391,0.36681 -0.0522,0.20683 -0.12085,0.3924 -0.15324,0.41248 -0.0324,0.0199 -0.23971,-0.0183 -0.46084,-0.0848 -0.31948,-0.0961 -0.48842,-0.13456 -0.53366,-0.0827 0.051,0.0246 0.10253,0.0936 0.15161,0.20923 0.0534,0.12593 0.14895,0.29847 0.21249,0.38312 0.0761,0.10148 0.11037,0.13162 0.25487,0.0695 -0.0182,-0.0313 -0.0373,-0.0639 -0.0576,-0.0968 l -0.17934,-0.28966 0.19999,0.0669 c 0.42751,0.14343 0.6032,0.094 0.68691,-0.19346 0.0948,-0.32552 0.16284,-0.33983 0.2902,-0.0604 0.12864,0.28234 0.28215,0.3274 0.58529,0.17065 0.34834,-0.18013 0.36327,-0.17029 0.22879,0.15162 -0.12829,0.30707 -0.0571,0.46682 0.20868,0.46682 0.38356,0 0.41322,0.10687 0.0717,0.25976 l -0.34564,0.15489 0.18913,0.30541 0.18911,0.30596 -0.2027,-0.0559 c -0.59843,-0.16532 -0.56085,-0.17598 -0.65866,0.18749 -0.0505,0.18739 -0.10516,0.34075 -0.12172,0.34075 -0.0166,0 -0.10763,-0.13103 -0.20217,-0.29129 -0.0302,-0.0512 -0.0613,-0.0989 -0.0913,-0.14075 l -0.15597,0.076 0.24782,0.35379 c 0.13618,0.19475 0.22608,0.38948 0.19944,0.43257 -0.001,0.002 -0.002,0.003 -0.004,0.005 0.0319,0.03 0.0586,0.0448 0.0755,0.0391 0.0496,-0.0165 0.13952,-0.20461 0.19999,-0.41845 0.12159,-0.43052 0.14072,-0.43811 0.70158,-0.26791 0.23662,0.0717 0.41269,0.088 0.44182,0.0408 0.0266,-0.0431 -0.0633,-0.23728 -0.19944,-0.43203 l -0.2478,-0.35432 0.4304,-0.20977 c 0.23662,-0.11547 0.42306,-0.24649 0.41464,-0.29129 -0.008,-0.0448 -0.2083,-0.12504 -0.44345,-0.17825 -0.23514,-0.053 -0.44368,-0.11273 -0.46355,-0.1326 -0.0199,-0.0199 0.0276,-0.20905 0.10597,-0.42062 0.0793,-0.21158 0.11675,-0.41095 0.0848,-0.44292 -0.032,-0.032 -0.24815,0.0453 -0.48041,0.17173 -0.40589,0.22097 -0.42645,0.22406 -0.53746,0.0761 -0.0635,-0.0846 -0.15961,-0.2572 -0.21303,-0.38313 -0.0631,-0.14882 -0.1302,-0.22097 -0.1951,-0.21955 z" /><path
         id="path15134-3-6-8"
         style="fill:#000000;stroke-width:0.0832504"
         d="m 155.07053,114.21456 c -0.0835,0.002 -0.16314,0.12566 -0.2239,0.36682 -0.0522,0.20683 -0.12086,0.3924 -0.15325,0.41248 -0.0324,0.0199 -0.2397,-0.0183 -0.46084,-0.0848 -0.31947,-0.0961 -0.48842,-0.13456 -0.53366,-0.0827 0.051,0.0246 0.10253,0.0936 0.15161,0.20924 0.0534,0.12593 0.14896,0.29847 0.2125,0.38311 0.0761,0.10149 0.11036,0.13163 0.25487,0.0695 -0.0182,-0.0313 -0.0373,-0.0639 -0.0576,-0.0968 l -0.17933,-0.28966 0.19998,0.0669 c 0.42751,0.14343 0.60321,0.094 0.68692,-0.19346 0.0948,-0.32552 0.16283,-0.33983 0.29019,-0.0604 0.12865,0.28234 0.28215,0.3274 0.5853,0.17065 0.34834,-0.18014 0.36326,-0.17029 0.22879,0.15162 -0.1283,0.30707 -0.0571,0.46682 0.20867,0.46682 0.38356,0 0.41322,0.10686 0.0717,0.25976 l -0.34563,0.15488 0.18912,0.30542 0.18911,0.30596 -0.2027,-0.0559 c -0.59843,-0.16532 -0.56085,-0.17598 -0.65865,0.18749 -0.0505,0.18739 -0.10517,0.34074 -0.12173,0.34074 -0.0166,0 -0.10762,-0.13102 -0.20216,-0.29129 -0.0302,-0.0512 -0.0613,-0.0988 -0.0913,-0.14075 l -0.15597,0.076 0.24781,0.35379 c 0.13618,0.19475 0.22608,0.38948 0.19945,0.43257 -0.001,0.002 -0.002,0.003 -0.004,0.005 0.0319,0.03 0.0586,0.0448 0.0755,0.0391 0.0496,-0.0165 0.13952,-0.20461 0.19998,-0.41845 0.12159,-0.43052 0.14072,-0.43811 0.70159,-0.26792 0.23661,0.0717 0.41269,0.088 0.44182,0.0408 0.0266,-0.0431 -0.0633,-0.23728 -0.19944,-0.43203 l -0.24781,-0.35433 0.4304,-0.20976 c 0.23663,-0.11547 0.42306,-0.2465 0.41465,-0.29129 -0.008,-0.0448 -0.20831,-0.12504 -0.44345,-0.17826 -0.23515,-0.053 -0.44369,-0.11272 -0.46356,-0.1326 -0.0199,-0.0199 0.0275,-0.20904 0.10597,-0.42061 0.0793,-0.21158 0.11675,-0.41095 0.0848,-0.44292 -0.032,-0.032 -0.24815,0.0453 -0.4804,0.17173 -0.4059,0.22097 -0.42646,0.22406 -0.53747,0.0761 -0.0635,-0.0847 -0.1596,-0.2572 -0.21303,-0.38313 -0.0631,-0.14883 -0.1302,-0.22097 -0.19509,-0.21955 z" /></g></g></svg>
