<?xml version="1.0" encoding="UTF-8" standalone="no"?>
<!-- Created with Inkscape (http://www.inkscape.org/) -->

<svg
   sodipodi:docname="narrow.svg"
   inkscape:version="1.2.2 (b0a8486541, 2022-12-01)"
   id="svg8"
   version="1.1"
   viewBox="0 0 6.8589293 6.8461938"
   height="6.8461938mm"
   width="6.8589292mm"
   xmlns:inkscape="http://www.inkscape.org/namespaces/inkscape"
   xmlns:sodipodi="http://sodipodi.sourceforge.net/DTD/sodipodi-0.dtd"
   xmlns="http://www.w3.org/2000/svg"
   xmlns:svg="http://www.w3.org/2000/svg"
   xmlns:rdf="http://www.w3.org/1999/02/22-rdf-syntax-ns#"
   xmlns:cc="http://creativecommons.org/ns#"
   xmlns:dc="http://purl.org/dc/elements/1.1/">
  <defs
     id="defs2" />
  <sodipodi:namedview
     id="base"
     pagecolor="#ffffff"
     bordercolor="#666666"
     borderopacity="1.0"
     inkscape:pageopacity="0.0"
     inkscape:pageshadow="2"
     inkscape:zoom="8"
     inkscape:cx="-11.125"
     inkscape:cy="16"
     inkscape:document-units="mm"
     inkscape:current-layer="layer1"
     showgrid="false"
     inkscape:window-width="1920"
     inkscape:window-height="1043"
     inkscape:window-x="0"
     inkscape:window-y="0"
     inkscape:window-maximized="1"
     inkscape:snap-global="false"
     fit-margin-top="0"
     fit-margin-left="0"
     fit-margin-right="0"
     fit-margin-bottom="0"
     showguides="false"
     inkscape:guide-bbox="true"
     inkscape:showpageshadow="2"
     inkscape:pagecheckerboard="0"
     inkscape:deskcolor="#d1d1d1" />
  <metadata
     id="metadata5">
    <rdf:RDF>
      <cc:Work
         rdf:about="">
        <dc:format>image/svg+xml</dc:format>
        <dc:type
           rdf:resource="http://purl.org/dc/dcmitype/StillImage" />
        <dc:title />
      </cc:Work>
    </rdf:RDF>
  </metadata>
  <g
     inkscape:label="Capa 1"
     inkscape:groupmode="layer"
     id="layer1"
     transform="translate(-150.4884,-112.94971)">
    <rect
       style="opacity:1;vector-effect:none;fill:#1a1a1a;fill-opacity:1;stroke:none;stroke-width:0.1;stroke-linecap:butt;stroke-linejoin:miter;stroke-miterlimit:4;stroke-dasharray:none;stroke-dashoffset:0;stroke-opacity:1"
       id="rect860"
       width="7.0941477"
       height="0"
       x="148.86763"
       y="129.31949" />
    <path
       style="color:#000000;fill:#000000;stroke-width:0.377;-inkscape-stroke:none"
       d="m 150.93767,119.36971 c 0.002,0.002 -0.0568,-0.31706 -0.0568,-3.03014 0,-2.83124 0.003,-2.97003 0.0627,-3.0242 0.0573,-0.0519 0.31706,-0.0568 3.03014,-0.0568 2.83122,0 2.97003,0.003 3.02418,0.0627 0.0519,0.0573 0.0568,0.31707 0.0568,3.03015 0,2.83122 -0.003,2.97002 -0.0627,3.02419 -0.0573,0.0519 -0.31706,0.0514 -3.03015,0.0567 -2.62098,0.005 -2.97001,-0.003 -3.02418,-0.0627 z m 5.77407,-3.02418 v -2.74392 h -2.74393 -2.74392 v 2.74392 2.74391 h 2.74392 2.74393 z"
       id="path18034"
       sodipodi:nodetypes="cscscsccccccccccccc" />
    <path
       id="path18036"
       style="color:#000000;fill:#000000;stroke-width:1.04571;-inkscape-stroke:none"
       d="m 153.92483,112.95054 c -1.41983,0 -2.19832,3e-4 -2.63277,0.008 -0.21723,0.004 -0.34672,0.0111 -0.43753,0.0204 -0.0908,0.009 -0.16591,0.0193 -0.23472,0.0815 -0.023,0.0209 -0.0561,0.0642 -0.0719,0.10365 -0.0158,0.0394 -0.0207,0.074 -0.0265,0.11663 -0.0114,0.0853 -0.0178,0.20298 -0.0222,0.41198 -0.008,0.41798 -0.0108,1.19464 -0.0108,2.67384 0,1.40247 0.0158,2.17798 0.0309,2.62201 0.014,0.2841 0.0289,0.47488 0.0822,0.67548 l 0.006,0.008 c 0.0775,0.0445 0.0869,0.0744 0.24932,0.0918 0.098,0.0109 0.23729,0.0174 0.46024,0.0222 0.44591,0.009 1.22425,0.0111 2.59599,0.008 1.41969,-0.003 2.19654,-0.005 2.6306,-0.0124 0.21704,-0.004 0.34703,-0.007 0.43753,-0.0162 0.0906,-0.008 0.16465,-0.0182 0.23472,-0.0815 0.0231,-0.0209 0.0561,-0.0647 0.0719,-0.10416 0.0158,-0.0394 0.0207,-0.0756 0.0265,-0.11826 0.0114,-0.0853 0.0178,-0.20353 0.0222,-0.41252 0.008,-0.41798 0.0108,-1.19195 0.0108,-2.67113 0,-1.41753 -0.002,-2.19474 -0.0108,-2.62849 -0.004,-0.21688 -0.009,-0.34615 -0.0184,-0.43682 -0.009,-0.0907 -0.0214,-0.16401 -0.0838,-0.23273 -0.0209,-0.023 -0.0626,-0.0555 -0.10225,-0.0712 -0.0395,-0.0158 -0.0757,-0.023 -0.11844,-0.0286 -0.0854,-0.0114 -0.20332,-0.0183 -0.41265,-0.0227 -0.41866,-0.008 -1.19443,-0.008 -2.67603,-0.008 z m -2.68198,0.75323 h 2.67603 2.67386 v 2.66953 2.66896 h -2.67386 -2.67603 v -2.66896 z"
       sodipodi:nodetypes="ccccsccsccccsccccsccsscccccccccccccccc" />
    <g
       id="g17461"
       transform="translate(1.7957863e-4,0.17189559)">
      <path
         d="m 155.70006,115.12227 c 0.0446,8.8e-4 0.0997,0.009 0.15345,0.0464 0.0614,0.0428 0.086,0.10009 0.10153,0.14434 0.008,0.0234 0.0235,0.068 0.0173,0.12567 -0.006,0.0576 -0.0338,0.10422 -0.0619,0.14115 -0.0563,0.0738 -0.13572,0.14632 -0.29095,0.29278 l -0.0137,0.0136 h 0.20126 0.41981 v 0.61242 h -0.48355 -0.13752 l 0.007,0.007 c 0.0883,0.083 0.16835,0.16268 0.22858,0.22721 0.0301,0.0322 0.0552,0.0604 0.0756,0.0861 0.0102,0.0128 0.0199,0.0243 0.0296,0.0396 0.005,0.008 0.01,0.0158 0.0155,0.0292 0.003,0.007 0.007,0.0143 0.0101,0.0255 0.004,0.0112 0.007,0.0476 0.007,0.0483 0,0.0708 -0.019,0.0876 -0.026,0.10517 -0.005,0.0131 -0.008,0.0227 -0.008,0.0219 l -0.003,0.0178 -0.009,0.0205 -0.004,0.005 -0.002,0.004 c -0.0273,0.0511 -0.088,0.12429 -0.17713,0.13977 -0.0891,0.0155 -0.15639,-0.0181 -0.21673,-0.0537 -0.12071,-0.0712 -0.25571,-0.19411 -0.48401,-0.40752 -0.11996,-0.11213 -0.23112,-0.21887 -0.31463,-0.30279 -0.0418,-0.0419 -0.0766,-0.0778 -0.10336,-0.107 -0.0134,-0.0146 -0.0256,-0.0269 -0.0359,-0.0396 -0.0104,-0.0128 -0.0168,-0.009 -0.0382,-0.0651 -0.0314,-0.083 -0.0312,-0.13072 0,-0.21356 0.0213,-0.0567 0.0277,-0.0528 0.0382,-0.0656 0.0104,-0.0128 0.0225,-0.0246 0.0359,-0.0391 0.0267,-0.0292 0.0616,-0.065 0.10336,-0.107 0.0834,-0.0839 0.19338,-0.1925 0.31326,-0.30461 0.18336,-0.17146 0.29504,-0.2725 0.3802,-0.33876 0.0851,-0.0663 0.16811,-0.10837 0.25134,-0.10837 v -4.6e-4 c 0.006,0 0.0123,-1.8e-4 0.0187,0 z"
         style="color:#000000;fill:#000000;stroke-width:0.881109;-inkscape-stroke:none"
         id="path17341"
         sodipodi:nodetypes="ccccccccccccccccccscccccccccccsccccccccccc" />
      <path
         d="m 152.13531,115.12222 c -0.0446,8.8e-4 -0.0997,0.009 -0.15344,0.0464 -0.0614,0.0428 -0.086,0.10009 -0.10154,0.14434 -0.008,0.0234 -0.0235,0.068 -0.0173,0.12566 0.006,0.0576 0.0338,0.10422 0.0619,0.14116 0.0563,0.0738 0.13573,0.14631 0.29095,0.29277 l 0.0137,0.0137 h -0.20125 -0.41982 v 0.61241 h 0.48356 0.13751 l -0.007,0.007 c -0.0883,0.083 -0.16834,0.16268 -0.22858,0.22721 -0.0301,0.0323 -0.0551,0.0605 -0.0756,0.0861 -0.0102,0.0128 -0.0199,0.0243 -0.0296,0.0396 -0.005,0.008 -0.01,0.0158 -0.0155,0.0292 -0.003,0.007 -0.007,0.0143 -0.01,0.0255 -0.004,0.0112 -0.007,0.0476 -0.007,0.0483 0,0.0708 0.019,0.0876 0.026,0.10518 0.005,0.0131 0.008,0.0227 0.008,0.0219 l 0.003,0.0178 0.009,0.0205 0.004,0.005 0.002,0.004 c 0.0273,0.0511 0.088,0.1243 0.17713,0.13978 0.0891,0.0155 0.15639,-0.0182 0.21674,-0.0537 0.1207,-0.0712 0.2557,-0.19411 0.48401,-0.40751 0.11995,-0.11213 0.23111,-0.21888 0.31462,-0.30279 0.0418,-0.0419 0.0766,-0.0778 0.10337,-0.10701 0.0134,-0.0146 0.0256,-0.0269 0.036,-0.0396 0.0104,-0.0128 0.0168,-0.009 0.0382,-0.0651 0.0314,-0.083 0.0312,-0.13071 0,-0.21355 -0.0213,-0.0568 -0.0278,-0.0528 -0.0382,-0.0656 -0.0104,-0.0128 -0.0226,-0.0246 -0.036,-0.0391 -0.0267,-0.0292 -0.0616,-0.065 -0.10337,-0.107 -0.0834,-0.0839 -0.19337,-0.19251 -0.31326,-0.30462 -0.18336,-0.17145 -0.29504,-0.27249 -0.3802,-0.33876 -0.0851,-0.0663 -0.16811,-0.10837 -0.25134,-0.10837 v -4.5e-4 c -0.006,0 -0.0122,-1.8e-4 -0.0187,0 z"
         style="color:#000000;fill:#000000;stroke-width:0.881109;-inkscape-stroke:none"
         id="path17379" />
    </g>
    <rect
       style="fill:#000000;stroke:#000000;stroke-width:0.252;stroke-linecap:round;stop-color:#000000"
       id="rect17399"
       width="0.29440954"
       height="4.5122976"
       x="153.77058"
       y="114.12516"
       ry="0.14720477" />
  </g>
</svg>
