<?xml version="1.0" encoding="UTF-8" standalone="no"?>
<!-- Created with Inkscape (http://www.inkscape.org/) -->

<svg
   sodipodi:docname="no-cover.svg"
   inkscape:version="1.1.2 (0a00cf5339, 2022-02-04)"
   id="svg8"
   version="1.1"
   viewBox="0 0 6.8589293 6.8461938"
   height="25.875378"
   width="25.923512"
   xmlns:inkscape="http://www.inkscape.org/namespaces/inkscape"
   xmlns:sodipodi="http://sodipodi.sourceforge.net/DTD/sodipodi-0.dtd"
   xmlns="http://www.w3.org/2000/svg"
   xmlns:svg="http://www.w3.org/2000/svg"
   xmlns:rdf="http://www.w3.org/1999/02/22-rdf-syntax-ns#"
   xmlns:cc="http://creativecommons.org/ns#"
   xmlns:dc="http://purl.org/dc/elements/1.1/">
  <defs
     id="defs2" />
  <sodipodi:namedview
     id="base"
     pagecolor="#ffffff"
     bordercolor="#666666"
     borderopacity="1.0"
     inkscape:pageopacity="0.0"
     inkscape:pageshadow="2"
     inkscape:zoom="11.313709"
     inkscape:cx="9.0598056"
     inkscape:cy="-2.6958446"
     inkscape:document-units="mm"
     inkscape:current-layer="layer1"
     showgrid="false"
     inkscape:window-width="1846"
     inkscape:window-height="1016"
     inkscape:window-x="74"
     inkscape:window-y="1107"
     inkscape:window-maximized="1"
     inkscape:snap-global="false"
     fit-margin-top="0"
     fit-margin-left="0"
     fit-margin-right="0"
     fit-margin-bottom="0"
     showguides="false"
     inkscape:guide-bbox="true"
     units="px"
     inkscape:pagecheckerboard="0" />
  <metadata
     id="metadata5">
    <rdf:RDF>
      <cc:Work
         rdf:about="">
        <dc:format>image/svg+xml</dc:format>
        <dc:type
           rdf:resource="http://purl.org/dc/dcmitype/StillImage" />
      </cc:Work>
    </rdf:RDF>
  </metadata>
  <g
     inkscape:label="Capa 1"
     inkscape:groupmode="layer"
     id="layer1"
     transform="translate(-150.4884,-112.94971)">
    <rect
       style="opacity:1;vector-effect:none;fill:#1a1a1a;fill-opacity:1;stroke:none;stroke-width:0.1;stroke-linecap:butt;stroke-linejoin:miter;stroke-miterlimit:4;stroke-dasharray:none;stroke-dashoffset:0;stroke-opacity:1"
       id="rect860"
       width="7.0941477"
       height="0"
       x="148.86763"
       y="129.31949" />
    <path
       style="fill:#000000;stroke-width:0.0133824"
       d="m 153.67169,119.7868 c -1.37191,-0.10779 -2.53514,-1.00056 -2.98415,-2.29054 -0.24281,-0.6976 -0.25156,-1.46808 -0.0247,-2.1714 0.3381,-1.04785 1.15925,-1.86902 2.20764,-2.2077 0.60275,-0.19472 1.26886,-0.21697 1.87845,-0.0628 0.82817,0.2095 1.53213,0.70452 2.01175,1.41465 0.28706,0.42504 0.46428,0.88884 0.5462,1.42945 0.04,0.26439 0.04,0.68576 0,0.95015 -0.11325,0.74716 -0.41943,1.37345 -0.93159,1.90535 -0.52896,0.54933 -1.25418,0.91385 -2.014,1.0123 -0.18338,0.0237 -0.52039,0.0337 -0.68965,0.0205 z m 0.51716,-0.61687 c 0.50388,-0.0508 0.95417,-0.22111 1.38316,-0.5231 0.16073,-0.1131 0.51013,-0.46317 0.62262,-0.62373 0.2987,-0.42632 0.46609,-0.86703 0.52085,-1.3713 0.0505,-0.46394 -0.0344,-0.98132 -0.23445,-1.43279 -0.0562,-0.12685 -0.19016,-0.3646 -0.24667,-0.43794 l -0.0258,-0.0334 -0.32421,0.26813 c 0.0157,-0.28598 -0.18947,-0.57247 -0.63938,-0.56795 0.21778,-0.21787 0.33353,-0.33341 0.33353,-0.33813 0,-0.0156 -0.24582,-0.1685 -0.38083,-0.23788 -0.75022,-0.38542 -1.64771,-0.40845 -2.42847,-0.0623 -0.31573,0.13997 -0.55766,0.30974 -0.83096,0.58304 -0.28401,0.28401 -0.45019,0.52501 -0.59873,0.86831 -0.26961,0.62309 -0.30217,1.34622 -0.0895,1.98841 0.0526,0.15895 0.12997,0.3405 0.1949,0.45778 0.0614,0.11076 0.20029,0.32574 0.2105,0.32574 0.005,0 0.29563,-0.27981 0.51097,-0.49504 0.11891,-0.11875 0.0362,-0.10832 0.43168,0.18015 0.24242,0.0829 0.46522,0.0268 0.60112,0.0539 l -0.7761,0.75975 c -0.0679,0.0683 -0.12357,0.12794 -0.12357,0.13263 0,0.0156 0.2158,0.14715 0.36042,0.2198 0.31229,0.15686 0.67779,0.26052 1.02467,0.29066 0.12247,0.0109 0.37436,0.008 0.50377,-0.005 z"
       id="path861"
       sodipodi:nodetypes="cccccccccccccccccccccsccscccsccccscccc" />
    <g
       id="Primer_plano"
       transform="matrix(0.24185197,0,0,-0.24185197,-27.623955,154.0352)">
      <path
         d="m 752.4,147.3 c -0.5,1.9 -0.5,4.8 0,4.8 0.1,0 0.4,0.1 0.8,0.3 0.5,0.3 0.6,0.3 1.2,0.2 1.6,-0.4 3.5,0.9 3.5,2.5 0,0.2 0.1,0.5 0.3,0.6 0.4,0.4 0.7,1.2 0.7,1.9 0,0.9 -0.2,1.5 -0.8,2 -0.3,0.3 -0.4,0.5 -0.5,1 -0.1,1.2 -1.2,2.2 -2.4,2.3 -0.7,0.1 -0.7,0.1 -0.8,0.5 -0.2,0.7 -1,1.4 -1.8,1.7 -0.8,0.2 -0.9,0.2 -1.7,0 -0.4,-0.1 -0.8,-0.4 -1.1,-0.7 l -0.5,-0.5 -0.7,0.2 c -1.2,0.3 -2.3,-0.1 -3,-1.1 -0.3,-0.4 -0.5,-0.6 -0.8,-0.7 -1.3,-0.4 -2.2,-1.9 -1.9,-3.2 0.1,-0.3 0,-0.5 -0.1,-0.8 -0.4,-0.6 -0.5,-1.5 -0.4,-2.2 0.2,-0.7 0.8,-1.5 1.4,-1.8 0.2,-0.1 0.4,-0.4 0.6,-0.8 0.5,-1.5 2.1,-2.2 3.6,-1.7 l 0.7,0.2 0.5,-0.5 c 0.8,-0.8 0.9,-2.1 0.5,-4.1 l -0.2,-1.2 h 1.7 1.7 z"
         id="path4"
         sodipodi:nodetypes="csccscscccccsscccccccscccsccccc" />
    </g>
  </g>
</svg>
