<?xml version="1.0" encoding="UTF-8" standalone="no"?>
<!-- Created with Inkscape (http://www.inkscape.org/) -->

<svg
   sodipodi:docname="no-heat.svg"
   inkscape:version="1.1.2 (0a00cf5339, 2022-02-04)"
   id="svg8"
   version="1.1"
   viewBox="0 0 6.8589293 6.8461938"
   height="6.8461938mm"
   width="6.8589292mm"
   xmlns:inkscape="http://www.inkscape.org/namespaces/inkscape"
   xmlns:sodipodi="http://sodipodi.sourceforge.net/DTD/sodipodi-0.dtd"
   xmlns="http://www.w3.org/2000/svg"
   xmlns:svg="http://www.w3.org/2000/svg"
   xmlns:rdf="http://www.w3.org/1999/02/22-rdf-syntax-ns#"
   xmlns:cc="http://creativecommons.org/ns#"
   xmlns:dc="http://purl.org/dc/elements/1.1/">
  <defs
     id="defs2" />
  <sodipodi:namedview
     id="base"
     pagecolor="#ffffff"
     bordercolor="#666666"
     borderopacity="1.0"
     inkscape:pageopacity="0.0"
     inkscape:pageshadow="2"
     inkscape:zoom="16"
     inkscape:cx="16.21875"
     inkscape:cy="19.25"
     inkscape:document-units="mm"
     inkscape:current-layer="layer1"
     showgrid="false"
     inkscape:window-width="1920"
     inkscape:window-height="1043"
     inkscape:window-x="1920"
     inkscape:window-y="1080"
     inkscape:window-maximized="1"
     inkscape:snap-global="false"
     fit-margin-top="0"
     fit-margin-left="0"
     fit-margin-right="0"
     fit-margin-bottom="0"
     showguides="false"
     inkscape:guide-bbox="true"
     inkscape:pagecheckerboard="0" />
  <metadata
     id="metadata5">
    <rdf:RDF>
      <cc:Work
         rdf:about="">
        <dc:format>image/svg+xml</dc:format>
        <dc:type
           rdf:resource="http://purl.org/dc/dcmitype/StillImage" />
      </cc:Work>
    </rdf:RDF>
  </metadata>
  <g
     inkscape:label="Capa 1"
     inkscape:groupmode="layer"
     id="layer1"
     transform="translate(-150.4884,-112.94971)">
    <g
       id="path826-7"
       transform="translate(-8.337843,1.4894299)"
       style="fill:#000000">
      <path
         style="color:#000000;fill:#000000;stroke-width:0.3;-inkscape-stroke:none"
         d="m 161.33151,117.65688 c -0.74037,-0.42454 -1.16314,-1.30599 -1.02903,-2.14547 0.0723,-0.45236 0.2054,-0.75728 0.51281,-1.17452 0.85527,-1.16082 1.01121,-1.47811 1.05737,-2.15132 0.0145,-0.21106 0.0365,-0.38375 0.049,-0.38375 0.0124,0 0.16766,0.10751 0.34491,0.23891 0.70314,0.52126 1.09798,1.22932 1.19018,2.13433 l 0.0354,0.34789 0.128,-0.13562 c 0.0704,-0.0746 0.15533,-0.22937 0.18875,-0.34397 l 0.0607,-0.20837 0.19095,0.39085 c 0.22785,0.46637 0.37002,0.95442 0.40996,1.40733 0.0722,0.81861 -0.34269,1.61611 -1.05246,2.0231 -0.2846,0.16319 -0.39256,0.19094 -0.22255,0.0572 0.17356,-0.13653 0.36875,-0.53511 0.39724,-0.81118 0.0384,-0.37175 -0.0755,-0.6917 -0.40901,-1.14935 -0.33453,-0.45901 -0.48778,-0.77035 -0.5329,-1.08258 l -0.0324,-0.22468 -0.18304,0.17817 c -0.34859,0.3393 -0.59598,1.08145 -0.53424,1.6027 0.0148,0.1247 0.009,0.22675 -0.0126,0.22675 -0.089,0 -0.3255,-0.33503 -0.35229,-0.49904 -0.0158,-0.0965 -0.0345,-0.20683 -0.0417,-0.2452 -0.0169,-0.0902 -0.24644,0.40925 -0.30534,0.66445 -0.10998,0.4766 -0.0184,0.91088 0.26098,1.23724 0.0901,0.10532 0.15704,0.19129 0.14865,0.19105 -0.008,-1.8e-4 -0.12865,-0.0654 -0.26725,-0.14494 z"
         id="path1281" />
      <path
         style="color:#000000;fill:#000000;-inkscape-stroke:none"
         d="m 161.92187,111.65234 c -1.9e-4,0 -0.0584,0.0116 -0.0586,0.0117 -2e-4,9e-5 -0.0369,0.0213 -0.0371,0.0215 -2e-4,1.6e-4 -0.0213,0.0212 -0.0215,0.0215 -2.1e-4,2.5e-4 -0.009,0.011 -0.0117,0.0156 -0.012,0.0185 -0.0145,0.0284 -0.0176,0.0371 -0.006,0.0174 -0.009,0.0277 -0.0117,0.041 -0.006,0.0266 -0.009,0.0587 -0.0137,0.0957 -0.009,0.0739 -0.0199,0.17139 -0.0273,0.2793 -0.0224,0.32671 -0.0655,0.54404 -0.20899,0.83594 -0.14347,0.2919 -0.39201,0.65767 -0.81836,1.23633 -0.31584,0.42869 -0.46584,0.76991 -0.54101,1.24023 -0.14444,0.90412 0.3068,1.84198 1.10351,2.29883 l 0.0488,0.0293 h 0.002 c 0.0484,0.0274 0.0986,0.0546 0.13477,0.0742 0.025,0.0135 0.0456,0.0247 0.0625,0.0332 0.008,0.004 0.0155,0.008 0.0234,0.0117 0.004,0.002 0.007,0.003 0.0137,0.006 0.003,0.001 0.007,0.002 0.0137,0.004 0.003,9.2e-4 0.0135,0.004 0.0137,0.004 1.8e-4,3e-5 0.0253,0.002 0.0254,0.002 0.004,-6.3e-4 0.0585,-0.01 0.0586,-0.01 9e-5,-4e-5 0.0663,-0.0507 0.0664,-0.0508 6e-5,-8e-5 0.0254,-0.0624 0.0254,-0.0625 3e-5,-1.3e-4 0.004,-0.0389 0.004,-0.0391 -3e-5,-3.2e-4 -0.01,-0.0386 -0.01,-0.0391 -1.6e-4,-4.8e-4 -0.004,-0.0114 -0.006,-0.0156 -0.008,-0.017 -0.0124,-0.0236 -0.0176,-0.0312 -0.0104,-0.0154 -0.0225,-0.0301 -0.0371,-0.0488 -0.0292,-0.0375 -0.069,-0.0866 -0.11524,-0.14063 -0.24716,-0.28872 -0.3299,-0.6661 -0.22851,-1.10547 0.0174,-0.0755 0.0668,-0.19636 0.11133,-0.30664 0.0346,0.0854 0.0643,0.17233 0.11914,0.25 0.0409,0.0579 0.0837,0.1106 0.1289,0.1543 0.0452,0.0437 0.077,0.0977 0.19336,0.0977 10e-4,0 0.0828,-0.0246 0.084,-0.0254 6.1e-4,-3.9e-4 0.0201,-0.0143 0.0273,-0.0215 0.007,-0.007 0.0129,-0.0131 0.0176,-0.0195 0.0187,-0.0258 0.0228,-0.045 0.0273,-0.0605 0.009,-0.0312 0.0122,-0.0549 0.0137,-0.082 0.003,-0.0542 4.3e-4,-0.11616 -0.008,-0.18555 -0.0535,-0.45153 0.19056,-1.16078 0.48047,-1.45703 0.0594,0.32707 0.20846,0.64694 0.53125,1.08985 0.32349,0.44389 0.41524,0.71207 0.38086,1.04492 -0.0114,0.11057 -0.0611,0.26976 -0.12891,0.4082 -0.0678,0.13844 -0.15843,0.25948 -0.21093,0.30078 -0.0466,0.0367 -0.0742,0.0521 -0.10938,0.10352 -0.004,0.006 -0.009,0.0131 -0.0137,0.0234 -0.005,0.0103 -0.0135,0.0419 -0.0137,0.043 -2e-4,10e-4 0.006,0.0793 0.006,0.0801 1.4e-4,4.1e-4 0.0251,0.0426 0.0254,0.043 2.6e-4,3.3e-4 0.0348,0.0329 0.0351,0.0332 3.8e-4,2.5e-4 0.0327,0.0174 0.0332,0.0176 4.9e-4,1.8e-4 0.0194,0.004 0.0273,0.006 0.0159,0.003 0.0274,0.004 0.0371,0.004 0.0194,-9.3e-4 0.0316,-0.005 0.043,-0.008 0.0908,-0.0234 0.17214,-0.0705 0.31836,-0.1543 0.76124,-0.4365 1.20432,-1.29077 1.12695,-2.16797 -0.0418,-0.47454 -0.18866,-0.97764 -0.42383,-1.45898 l -0.36133,-0.74024 -0.16992,0.58203 c -0.011,0.0376 -0.0417,0.077 -0.0684,0.12696 -0.10251,-0.92402 -0.51552,-1.67174 -1.24023,-2.20899 -0.0897,-0.0665 -0.17385,-0.12725 -0.23828,-0.17187 -0.0322,-0.0223 -0.0581,-0.0407 -0.0801,-0.0547 -0.011,-0.007 -0.0207,-0.0117 -0.0312,-0.0176 -0.005,-0.003 -0.0108,-0.006 -0.0195,-0.01 -0.004,-0.002 -0.009,-0.005 -0.0176,-0.008 -0.004,-0.001 -0.0173,-0.004 -0.0176,-0.004 -2.6e-4,-6e-5 -0.0291,-0.002 -0.0293,-0.002 z m 0.11329,0.40625 c 0.0463,0.0331 0.0883,0.0633 0.14257,0.10352 0.67252,0.49856 1.04029,1.15744 1.12891,2.02734 l 0.0703,0.67578 0.35157,-0.375 c 0.0697,-0.0738 0.11163,-0.18027 0.15625,-0.28125 l 0.041,0.082 c 0.22054,0.45139 0.3565,0.92419 0.39453,1.35546 0.0533,0.60487 -0.23647,1.14724 -0.66601,1.55469 0.0326,-0.0957 0.0784,-0.19094 0.0879,-0.2832 0.0424,-0.41066 -0.094,-0.7825 -0.4375,-1.25391 -0.32836,-0.45054 -0.4656,-0.73701 -0.50586,-1.01562 l -0.0742,-0.51563 -0.39453,0.38282 c -0.37607,0.36604 -0.56899,1.0539 -0.54102,1.61914 -0.05,-0.0827 -0.10162,-0.18152 -0.10547,-0.20508 -0.0159,-0.0971 -0.0329,-0.20472 -0.041,-0.24805 -0.003,-0.0135 -0.008,-0.0293 -0.0195,-0.0508 -0.006,-0.0108 -0.0248,-0.0346 -0.0254,-0.0352 -5.7e-4,-5.7e-4 -0.0443,-0.0329 -0.0449,-0.0332 -6.5e-4,-3.1e-4 -0.0559,-0.0136 -0.0566,-0.0137 -7.4e-4,-5e-5 -0.046,0.004 -0.0469,0.004 -8.4e-4,2.1e-4 -0.0243,0.007 -0.0332,0.0117 -0.009,0.004 -0.0154,0.01 -0.0215,0.0137 -0.0485,0.0334 -0.0557,0.0527 -0.0723,0.0781 -0.0331,0.0508 -0.0664,0.11685 -0.10157,0.19336 -0.0703,0.15301 -0.1435,0.34192 -0.17773,0.49023 -0.0893,0.38703 0.0649,0.71474 0.2207,1.03125 -0.57179,-0.42453 -0.92497,-1.13192 -0.8125,-1.83593 0.0694,-0.43441 0.1854,-0.70359 0.48438,-1.10938 0.42892,-0.58216 0.68584,-0.956 0.8457,-1.28125 0.15986,-0.32525 0.21648,-0.60272 0.24023,-0.94922 0.004,-0.0539 0.009,-0.0906 0.0137,-0.13672 z"
         id="path1283" />
    </g>
    <rect
       style="opacity:1;vector-effect:none;fill:#1a1a1a;fill-opacity:1;stroke:none;stroke-width:0.1;stroke-linecap:butt;stroke-linejoin:miter;stroke-miterlimit:4;stroke-dasharray:none;stroke-dashoffset:0;stroke-opacity:1"
       id="rect860"
       width="7.0941477"
       height="0"
       x="148.86763"
       y="129.31949" />
    <rect
       style="fill:#ffffff;stroke:none;stroke-width:0.213;stroke-linecap:round;stroke-miterlimit:4;stroke-dasharray:none;stroke-opacity:1"
       id="rect1627-5"
       width="6.7970333"
       height="0.73555547"
       x="26.720995"
       y="190.44336"
       transform="rotate(-43.888262)" />
    <rect
       style="fill:#ffffff;stroke:none;stroke-width:0.213;stroke-linecap:round;stroke-miterlimit:4;stroke-dasharray:none;stroke-opacity:1"
       id="rect1627-5-6"
       width="6.7970333"
       height="0.73555547"
       x="26.944534"
       y="190.02762"
       transform="rotate(-43.888262)" />
    <rect
       style="fill:#000000;stroke:none;stroke-width:0.213;stroke-linecap:round;stroke-miterlimit:4;stroke-dasharray:none;stroke-opacity:1"
       id="rect1627"
       width="6.7970333"
       height="0.73555547"
       x="26.74579"
       y="190.25186"
       transform="rotate(-43.888262)" />
  </g>
</svg>
