<?xml version="1.0" encoding="UTF-8" standalone="no"?>
<!-- Created with Inkscape (http://www.inkscape.org/) -->

<svg
   sodipodi:docname="no-infantry.svg"
   inkscape:version="1.1.2 (0a00cf5339, 2022-02-04)"
   id="svg8"
   version="1.1"
   viewBox="0 0 6.8589293 6.8461938"
   height="25.875378"
   width="25.923512"
   xmlns:inkscape="http://www.inkscape.org/namespaces/inkscape"
   xmlns:sodipodi="http://sodipodi.sourceforge.net/DTD/sodipodi-0.dtd"
   xmlns="http://www.w3.org/2000/svg"
   xmlns:svg="http://www.w3.org/2000/svg"
   xmlns:rdf="http://www.w3.org/1999/02/22-rdf-syntax-ns#"
   xmlns:cc="http://creativecommons.org/ns#"
   xmlns:dc="http://purl.org/dc/elements/1.1/">
  <defs
     id="defs2" />
  <sodipodi:namedview
     id="base"
     pagecolor="#ffffff"
     bordercolor="#666666"
     borderopacity="1.0"
     inkscape:pageopacity="0.0"
     inkscape:pageshadow="2"
     inkscape:zoom="8"
     inkscape:cx="-18.0625"
     inkscape:cy="36.0625"
     inkscape:document-units="mm"
     inkscape:current-layer="layer1"
     showgrid="false"
     inkscape:window-width="1846"
     inkscape:window-height="1016"
     inkscape:window-x="74"
     inkscape:window-y="27"
     inkscape:window-maximized="1"
     inkscape:snap-global="false"
     fit-margin-top="0"
     fit-margin-left="0"
     fit-margin-right="0"
     fit-margin-bottom="0"
     showguides="false"
     inkscape:guide-bbox="true"
     units="px"
     inkscape:pagecheckerboard="0" />
  <metadata
     id="metadata5">
    <rdf:RDF>
      <cc:Work
         rdf:about="">
        <dc:format>image/svg+xml</dc:format>
        <dc:type
           rdf:resource="http://purl.org/dc/dcmitype/StillImage" />
      </cc:Work>
    </rdf:RDF>
  </metadata>
  <g
     inkscape:label="Capa 1"
     inkscape:groupmode="layer"
     id="layer1"
     transform="translate(-150.4884,-112.94971)">
    <rect
       style="opacity:1;vector-effect:none;fill:#1a1a1a;fill-opacity:1;stroke:none;stroke-width:0.1;stroke-linecap:butt;stroke-linejoin:miter;stroke-miterlimit:4;stroke-dasharray:none;stroke-dashoffset:0;stroke-opacity:1"
       id="rect860"
       width="7.0941477"
       height="0"
       x="148.86763"
       y="129.31949" />
    <path
       style="fill:#000000;stroke-width:0.0133824"
       d="m 153.67169,119.7868 c -1.37191,-0.10779 -2.53514,-1.00056 -2.98415,-2.29054 -0.24281,-0.6976 -0.25156,-1.46808 -0.0247,-2.1714 0.3381,-1.04785 1.15925,-1.86902 2.20764,-2.2077 0.60275,-0.19472 1.26886,-0.21697 1.87845,-0.0628 0.82817,0.2095 1.53213,0.70452 2.01175,1.41465 0.28706,0.42504 0.46428,0.88884 0.5462,1.42945 0.04,0.26439 0.04,0.68576 0,0.95015 -0.11325,0.74716 -0.41943,1.37345 -0.93159,1.90535 -0.52896,0.54933 -1.25418,0.91385 -2.014,1.0123 -0.18338,0.0237 -0.52039,0.0337 -0.68965,0.0205 z m 0.51716,-0.61687 c 0.50388,-0.0508 0.95417,-0.22111 1.38316,-0.5231 0.16073,-0.1131 0.51013,-0.46317 0.62262,-0.62373 0.2987,-0.42632 0.46609,-0.86703 0.52085,-1.3713 0.0505,-0.46394 -0.0344,-0.98132 -0.23445,-1.43279 -0.0562,-0.12685 -0.19016,-0.3646 -0.24667,-0.43794 l -0.0258,-0.0334 -0.6877,0.68719 -0.6877,0.6872 -0.0455,-0.0237 c -0.025,-0.0125 -0.095,-0.0397 -0.15544,-0.0594 l -0.11013,-0.0356 0.0478,-0.0458 c 0.12404,-0.11872 0.22631,-0.3056 0.26627,-0.48615 0.03,-0.13591 0.0214,-0.33558 -0.0205,-0.46836 l -0.0291,-0.0925 0.39597,-0.39613 c 0.21778,-0.21787 0.39597,-0.39998 0.39597,-0.4047 0,-0.0156 -0.24582,-0.1685 -0.38083,-0.23788 -0.75022,-0.38542 -1.64771,-0.40845 -2.42847,-0.0623 -0.31573,0.13997 -0.55766,0.30974 -0.83096,0.58304 -0.28401,0.28401 -0.45019,0.52501 -0.59873,0.86831 -0.26961,0.62309 -0.30217,1.34622 -0.0895,1.98841 0.0526,0.15895 0.12997,0.3405 0.1949,0.45778 0.0614,0.11076 0.20029,0.32574 0.2105,0.32574 0.005,0 0.18477,-0.17612 0.40011,-0.39135 l 0.39152,-0.39136 v 0.57871 0.57871 h 0.0498 0.0498 l -0.12356,0.12403 c -0.0679,0.0683 -0.12357,0.12794 -0.12357,0.13263 0,0.0156 0.2158,0.14715 0.36042,0.2198 0.31229,0.15686 0.67779,0.26052 1.02467,0.29066 0.12247,0.0109 0.37436,0.008 0.50377,-0.005 z m -1.56745,-1.56851 c 2.5e-4,-0.72221 0.003,-0.74561 0.10107,-0.94462 0.10889,-0.22061 0.31257,-0.38972 0.56122,-0.46602 0.0725,-0.0222 0.1345,-0.0247 0.64235,-0.0247 h 0.56207 l 0.11528,0.0412 c 0.23248,0.0833 0.40858,0.23843 0.51498,0.45386 0.0958,0.19396 0.0986,0.22012 0.0987,0.94011 l 2.5e-4,0.63232 h -0.25427 -0.25426 v -0.61559 -0.61559 h -0.0803 -0.0803 v 0.61559 0.61559 h -0.62899 -0.62898 v -0.61559 -0.61559 h -0.0803 -0.0803 v 0.61559 0.61559 h -0.25427 -0.25427 l 2.5e-4,-0.63232 z m 1.19751,-1.55754 c -0.28269,-0.0433 -0.50729,-0.22321 -0.61564,-0.49332 -0.049,-0.12201 -0.0612,-0.31702 -0.0281,-0.4484 0.072,-0.28645 0.30216,-0.50813 0.59025,-0.56861 0.1181,-0.0248 0.18969,-0.0248 0.30781,0 0.28496,0.0598 0.51726,0.28143 0.58859,0.56147 0.099,0.38874 -0.14122,0.80919 -0.52694,0.92249 -0.0761,0.0223 -0.24822,0.0367 -0.31592,0.0264 z"
       id="path861" />
  </g>
</svg>
