<?xml version="1.0" encoding="UTF-8" standalone="no"?>
<!-- Created with Inkscape (http://www.inkscape.org/) -->

<svg
   sodipodi:docname="no-vehicles.svg"
   inkscape:version="1.1.2 (0a00cf5339, 2022-02-04)"
   id="svg8"
   version="1.1"
   viewBox="0 0 6.8589293 6.8461938"
   height="25.875378"
   width="25.923512"
   xmlns:inkscape="http://www.inkscape.org/namespaces/inkscape"
   xmlns:sodipodi="http://sodipodi.sourceforge.net/DTD/sodipodi-0.dtd"
   xmlns="http://www.w3.org/2000/svg"
   xmlns:svg="http://www.w3.org/2000/svg"
   xmlns:rdf="http://www.w3.org/1999/02/22-rdf-syntax-ns#"
   xmlns:cc="http://creativecommons.org/ns#"
   xmlns:dc="http://purl.org/dc/elements/1.1/">
  <defs
     id="defs2" />
  <sodipodi:namedview
     id="base"
     pagecolor="#ffffff"
     bordercolor="#666666"
     borderopacity="1.0"
     inkscape:pageopacity="0.0"
     inkscape:pageshadow="2"
     inkscape:zoom="16"
     inkscape:cx="13.34375"
     inkscape:cy="23.03125"
     inkscape:document-units="mm"
     inkscape:current-layer="layer1"
     showgrid="false"
     inkscape:window-width="1846"
     inkscape:window-height="1016"
     inkscape:window-x="74"
     inkscape:window-y="1107"
     inkscape:window-maximized="1"
     inkscape:snap-global="false"
     fit-margin-top="0"
     fit-margin-left="0"
     fit-margin-right="0"
     fit-margin-bottom="0"
     showguides="false"
     inkscape:guide-bbox="true"
     units="px"
     inkscape:pagecheckerboard="0" />
  <metadata
     id="metadata5">
    <rdf:RDF>
      <cc:Work
         rdf:about="">
        <dc:format>image/svg+xml</dc:format>
        <dc:type
           rdf:resource="http://purl.org/dc/dcmitype/StillImage" />
      </cc:Work>
    </rdf:RDF>
  </metadata>
  <g
     inkscape:label="Capa 1"
     inkscape:groupmode="layer"
     id="layer1"
     transform="translate(-150.4884,-112.94971)">
    <rect
       style="opacity:1;vector-effect:none;fill:#1a1a1a;fill-opacity:1;stroke:none;stroke-width:0.1;stroke-linecap:butt;stroke-linejoin:miter;stroke-miterlimit:4;stroke-dasharray:none;stroke-dashoffset:0;stroke-opacity:1"
       id="rect860"
       width="7.0941477"
       height="0"
       x="148.86763"
       y="129.31949" />
    <path
       style="fill:#000000;stroke-width:0.0133824"
       d="m 153.67169,119.7868 c -1.37191,-0.10779 -2.53514,-1.00056 -2.98415,-2.29054 -0.24281,-0.6976 -0.25156,-1.46808 -0.0247,-2.1714 0.3381,-1.04785 1.15925,-1.86902 2.20764,-2.2077 0.60275,-0.19472 1.26886,-0.21697 1.87845,-0.0628 0.82817,0.2095 1.53213,0.70452 2.01175,1.41465 0.28706,0.42504 0.46428,0.88884 0.5462,1.42945 0.04,0.26439 0.04,0.68576 0,0.95015 -0.11325,0.74716 -0.41943,1.37345 -0.93159,1.90535 -0.52896,0.54933 -1.25418,0.91385 -2.014,1.0123 -0.18338,0.0237 -0.52039,0.0337 -0.68965,0.0205 z m 0.51716,-0.61687 c 0.50388,-0.0508 0.95417,-0.22111 1.38316,-0.5231 0.16073,-0.1131 0.51013,-0.46317 0.62262,-0.62373 0.2987,-0.42632 0.46609,-0.86703 0.52085,-1.3713 0.0505,-0.46394 -0.0344,-0.98132 -0.23445,-1.43279 -0.0562,-0.12685 -0.19016,-0.3646 -0.24667,-0.43794 l -0.0258,-0.0334 -0.1373,0.11507 -1.39603,0.15854 0.11133,-0.11073 0.39597,-0.39613 c 0.21778,-0.21787 0.39597,-0.39998 0.39597,-0.4047 0,-0.0156 -0.24582,-0.1685 -0.38083,-0.23788 -0.75022,-0.38542 -1.64771,-0.40845 -2.42847,-0.0623 -0.31573,0.13997 -0.55766,0.30974 -0.83096,0.58304 -0.28401,0.28401 -0.45019,0.52501 -0.59873,0.86831 -0.26961,0.62309 -0.30217,1.34622 -0.0895,1.98841 0.0526,0.15895 0.12997,0.3405 0.1949,0.45778 0.0614,0.11076 0.20029,0.32574 0.2105,0.32574 0.005,0 0.12034,-0.1295 0.33568,-0.34473 0.11891,-0.11875 0.0362,-0.10832 0.43168,0.18015 0.24242,0.0829 0.46522,0.0268 0.60112,0.0539 l -0.60081,0.60944 c -0.0679,0.0683 -0.12357,0.12794 -0.12357,0.13263 0,0.0156 0.2158,0.14715 0.36042,0.2198 0.31229,0.15686 0.67779,0.26052 1.02467,0.29066 0.12247,0.0109 0.37436,0.008 0.50377,-0.005 z"
       id="path861"
       sodipodi:nodetypes="cccccccccccccccccccccccsccscccsccccscccc" />
    <path
       style="fill:#000000;stroke-width:0.00801205"
       d="m 152.70786,117.60178 c -0.0482,-0.006 -0.11342,-0.0286 -0.16825,-0.0569 -0.048,-0.0247 -0.0856,-0.0583 -0.26152,-0.23364 -0.19041,-0.18975 -0.20673,-0.20823 -0.22312,-0.25279 -0.0467,-0.12704 0.0126,-0.27072 0.13514,-0.32738 l 0.0371,-0.0172 h 1.65449 1.65448 l 0.0448,0.0209 c 0.0943,0.0442 0.14751,0.12781 0.14732,0.2314 -9e-5,0.0436 -0.005,0.07 -0.0166,0.0961 -0.0268,0.0583 -0.25469,0.37053 -0.30209,0.41386 -0.0471,0.0429 -0.12745,0.0885 -0.1978,0.11214 -0.042,0.0141 -0.10114,0.0148 -1.26189,0.0157 -0.66981,5.1e-4 -1.22866,-5.1e-4 -1.24187,-0.002 z m -0.7487,-0.84589 c -7.5e-4,-0.0389 0.0411,-0.36056 0.0524,-0.39867 0.0185,-0.0624 0.0354,-0.0929 0.12575,-0.22711 0.0865,-0.1285 0.11447,-0.15415 0.19341,-0.1776 0.0564,-0.0167 1.78701,-0.0175 1.85533,-5.2e-4 0.0536,0.0131 1.27103,0.45579 1.31463,0.47803 0.045,0.023 0.0867,0.0682 0.10851,0.11734 0.0274,0.062 0.0259,0.0689 -0.011,0.0522 -0.028,-0.0126 -0.14785,-0.0138 -1.68854,-0.0157 -1.16405,-0.002 -1.67096,4.5e-4 -1.7003,0.006 -0.0853,0.0176 -0.18945,0.088 -0.23663,0.15985 -0.0105,0.016 -0.0132,0.0172 -0.0135,0.006 z m 0.44164,-1.10155 c 0.002,-0.15122 0.004,-0.16022 0.0236,-0.203 0.0267,-0.0569 0.0696,-0.0999 0.12654,-0.12654 l 0.0448,-0.0209 h 0.54883 0.54882 l 0.0454,0.0222 c 0.0249,0.0122 0.0583,0.0365 0.074,0.0541 0.0167,0.0185 0.0706,0.11552 0.12895,0.23211 l 0.10022,0.20033 h -0.82187 -0.82186 z m 1.67457,-0.063 c -0.0321,-0.0644 -0.0573,-0.1179 -0.0559,-0.1189 0.002,-7.5e-4 0.29446,-0.0404 0.6514,-0.0874 0.35694,-0.0471 0.65966,-0.0883 0.6727,-0.0916 0.0157,-0.005 0.0252,-0.0125 0.0282,-0.0252 0.009,-0.0388 0.0336,-0.0466 0.22964,-0.0725 0.20232,-0.0268 0.2183,-0.0258 0.23437,0.0149 0.007,0.0185 0.0408,0.2518 0.0408,0.28409 0,0.006 -0.008,0.0217 -0.018,0.0332 -0.017,0.0196 -0.0286,0.0222 -0.20653,0.0459 -0.10385,0.0139 -0.19823,0.0226 -0.21017,0.0197 -0.0122,-0.003 -0.0268,-0.0153 -0.0333,-0.0279 l -0.0116,-0.0224 -0.61551,0.0823 c -0.33852,0.0453 -0.62277,0.0825 -0.63166,0.0826 -0.0129,2e-4 -0.028,-0.0235 -0.0745,-0.11685 z"
       id="path1011" />
  </g>
</svg>
