<?xml version="1.0" encoding="UTF-8" standalone="no"?>
<!-- Created with Inkscape (http://www.inkscape.org/) -->

<svg
   xmlns:dc="http://purl.org/dc/elements/1.1/"
   xmlns:cc="http://creativecommons.org/ns#"
   xmlns:rdf="http://www.w3.org/1999/02/22-rdf-syntax-ns#"
   xmlns:svg="http://www.w3.org/2000/svg"
   xmlns="http://www.w3.org/2000/svg"
   xmlns:sodipodi="http://sodipodi.sourceforge.net/DTD/sodipodi-0.dtd"
   xmlns:inkscape="http://www.inkscape.org/namespaces/inkscape"
   sodipodi:docname="pilot.svg"
   inkscape:version="0.92.5 (2060ec1f9f, 2020-04-08)"
   id="svg8"
   version="1.1"
   viewBox="0 0 6.8589293 6.8461938"
   height="6.8461938mm"
   width="6.8589292mm">
  <defs
     id="defs2" />
  <sodipodi:namedview
     id="base"
     pagecolor="#ffffff"
     bordercolor="#666666"
     borderopacity="1.0"
     inkscape:pageopacity="0.0"
     inkscape:pageshadow="2"
     inkscape:zoom="7.9999999"
     inkscape:cx="14.971192"
     inkscape:cy="-1.2094978"
     inkscape:document-units="mm"
     inkscape:current-layer="layer1"
     showgrid="false"
     inkscape:window-width="924"
     inkscape:window-height="1016"
     inkscape:window-x="996"
     inkscape:window-y="27"
     inkscape:window-maximized="0"
     inkscape:snap-global="false"
     fit-margin-top="0"
     fit-margin-left="0"
     fit-margin-right="0"
     fit-margin-bottom="0"
     showguides="false"
     inkscape:guide-bbox="true" />
  <metadata
     id="metadata5">
    <rdf:RDF>
      <cc:Work
         rdf:about="">
        <dc:format>image/svg+xml</dc:format>
        <dc:type
           rdf:resource="http://purl.org/dc/dcmitype/StillImage" />
        <dc:title></dc:title>
      </cc:Work>
    </rdf:RDF>
  </metadata>
  <g
     inkscape:label="Capa 1"
     inkscape:groupmode="layer"
     id="layer1"
     transform="translate(-150.4884,-112.94971)">
    <rect
       style="opacity:1;vector-effect:none;fill:#1a1a1a;fill-opacity:1;stroke:none;stroke-width:0.1;stroke-linecap:butt;stroke-linejoin:miter;stroke-miterlimit:4;stroke-dasharray:none;stroke-dashoffset:0;stroke-opacity:1"
       id="rect860"
       width="7.0941477"
       height="0"
       x="148.86763"
       y="129.31949" />
    <path
       style="display:inline;fill:#000000;stroke-width:0.01570963"
       d="m 153.65776,119.71293 c -0.58618,-0.0889 -1.10091,-0.37665 -1.47739,-0.82577 -0.0952,-0.11362 -0.15677,-0.16907 -0.27572,-0.24848 -0.34797,-0.23228 -0.60936,-0.4787 -0.74977,-0.70687 -0.068,-0.11052 -0.12407,-0.25108 -0.15033,-0.37699 -0.006,-0.0297 -0.0265,-0.046 -0.0835,-0.0668 -0.1401,-0.0512 -0.13753,-0.0397 -0.14247,-0.63231 -0.004,-0.47454 -0.002,-0.52284 0.024,-0.57072 0.0223,-0.0412 0.0764,-0.0869 0.12604,-0.1065 0.002,-7.1e-4 0.0113,-0.0999 0.0197,-0.21993 0.0586,-0.82983 0.35899,-1.50928 0.89325,-2.02042 0.20121,-0.19251 0.40414,-0.33537 0.65365,-0.46017 0.17571,-0.0879 0.4974,-0.21202 0.549,-0.21185 0.0107,3e-5 0.0165,0.0698 0.0165,0.19776 0,0.18883 0.002,0.19906 0.0371,0.22774 0.049,0.0396 0.0743,0.0379 0.12072,-0.009 0.0375,-0.0375 0.0386,-0.0449 0.0386,-0.27418 0,-0.13828 0.007,-0.25132 0.0173,-0.27365 0.01,-0.0209 0.0441,-0.053 0.0768,-0.0715 0.0572,-0.0322 0.0785,-0.0334 0.5681,-0.0334 0.46264,0 0.51352,0.002 0.5622,0.0287 0.0954,0.0512 0.11093,0.10363 0.11093,0.37469 0,0.22909 0.001,0.23992 0.0349,0.26337 0.0479,0.0336 0.0701,0.0308 0.11505,-0.0141 0.0367,-0.0367 0.0386,-0.0478 0.0386,-0.22778 0,-0.10409 0.006,-0.18924 0.0124,-0.18924 0.0426,0 0.33455,0.10872 0.48853,0.18188 0.38351,0.18224 0.70574,0.43623 0.96508,0.7607 0.35802,0.44795 0.58686,1.05352 0.63852,1.68963 0.009,0.11005 0.0162,0.21655 0.0162,0.23668 0,0.0249 0.0153,0.0445 0.0478,0.0613 0.0263,0.0136 0.0616,0.0473 0.0785,0.075 0.0288,0.0472 0.0307,0.0822 0.0307,0.56685 7e-5,0.49055 -0.002,0.51915 -0.0316,0.56781 -0.0305,0.0493 -0.11336,0.10171 -0.16089,0.10171 -0.0152,0 -0.0315,0.0355 -0.0487,0.10604 -0.0846,0.34749 -0.39119,0.70218 -0.88763,1.02674 -0.11252,0.0736 -0.17538,0.12814 -0.23854,0.20713 -0.26743,0.33445 -0.65054,0.60927 -1.04404,0.74893 -0.25021,0.0888 -0.38239,0.11189 -0.67551,0.11799 -0.14689,0.003 -0.28827,0.002 -0.3142,-0.001 z m -0.48699,-0.56048 c 0.0828,-0.0472 0.2117,-0.0974 0.33776,-0.13166 0.081,-0.022 0.1655,-0.0804 0.40845,-0.0807 0.35321,-2.9e-4 0.47241,0.0754 0.70201,0.18902 l 0.12861,0.0636 0.0756,-0.044 c 0.15209,-0.0885 0.31514,-0.22018 0.48014,-0.38777 0.0929,-0.0943 0.16887,-0.17894 0.16887,-0.18799 0,-0.009 -0.0151,-0.0123 -0.0353,-0.007 -0.0194,0.005 -0.0954,0.0142 -0.16887,0.0199 -0.12949,0.01 -0.13507,0.0121 -0.18408,0.0688 -0.094,0.10867 -0.0998,0.10964 -0.65663,0.10964 -0.4764,0 -0.50075,-10e-4 -0.55667,-0.0328 -0.16186,-0.091 -0.19368,-0.32554 -0.061,-0.44945 0.0837,-0.0782 0.12089,-0.0832 0.61345,-0.0831 0.26802,5e-5 0.4844,0.007 0.51845,0.0163 0.0321,0.009 0.0847,0.041 0.1168,0.0712 0.0581,0.0548 0.0588,0.055 0.16935,0.0454 0.15162,-0.0132 0.36567,-0.0522 0.42725,-0.0779 0.0411,-0.0172 0.063,-0.0465 0.11468,-0.15316 0.0351,-0.0726 0.0805,-0.181 0.10095,-0.24099 0.023,-0.0675 0.0685,-0.1505 0.11935,-0.21773 0.23255,-0.30724 0.3011,-0.72825 0.22157,-1.36078 -0.0708,-0.56332 -0.10546,-0.63178 -0.36029,-0.71228 -0.4754,-0.15018 -1.06684,-0.21633 -1.93424,-0.21633 -0.727,0 -1.233,0.044 -1.67173,0.1453 -0.33743,0.0779 -0.46271,0.13999 -0.51806,0.25662 -0.0559,0.11786 -0.13488,0.69297 -0.13499,0.98322 -6e-5,0.18121 0.033,0.43528 0.0725,0.55769 0.0377,0.11658 0.1274,0.28158 0.1948,0.35815 0.0389,0.0442 0.0735,0.1094 0.10015,0.1888 0.12298,0.36635 0.43082,0.82031 0.72694,1.07196 0.11645,0.099 0.37456,0.27422 0.40342,0.27391 0.01,-1.1e-4 0.0462,-0.0163 0.0808,-0.036 z"
       id="path873"
       inkscape:connector-curvature="0"
       sodipodi:nodetypes="cccccccccccccsccsccscsccsscccsccccsccccccccccccccscccsccccccccccccscccccccccc" />
    <path
       style="display:inline;fill:#000000;stroke-width:0.0180911"
       d="m 152.41616,117.845 c -0.14386,-0.0313 -0.33443,-0.1071 -0.4631,-0.18414 -0.18605,-0.11147 -0.32029,-0.29971 -0.38707,-0.54287 -0.0396,-0.14411 -0.0539,-0.60039 -0.0271,-0.85892 0.0329,-0.31683 0.089,-0.63532 0.11661,-0.66296 0.0294,-0.0294 0.26887,-0.099 0.51401,-0.14949 0.87266,-0.17957 2.51142,-0.18396 3.44148,-0.009 0.2169,0.0408 0.52402,0.12869 0.55395,0.15862 0.0281,0.0281 0.0658,0.22196 0.1063,0.54704 0.0319,0.25568 0.037,0.67667 0.0104,0.84349 -0.06,0.37486 -0.23467,0.61132 -0.55226,0.74775 -0.25619,0.11009 -0.41469,0.14265 -0.64992,0.13365 -0.30878,-0.0119 -0.47798,-0.0866 -0.75875,-0.33513 -0.0814,-0.0721 -0.19058,-0.16063 -0.24263,-0.19682 -0.0852,-0.0593 -0.10353,-0.0649 -0.18471,-0.0571 -0.0987,0.009 -0.15377,0.0465 -0.42621,0.28656 -0.15131,0.13331 -0.36638,0.25305 -0.51561,0.28703 -0.11216,0.0256 -0.40228,0.0215 -0.53534,-0.008 z m 0.21813,-0.37566 c -0.091,-0.44107 -0.0865,-1.31559 0.009,-1.72268 0.009,-0.0395 0.0134,-0.0753 0.009,-0.0796 -0.0221,-0.0221 -0.71803,0.12122 -0.75161,0.15481 -0.0299,0.0299 -0.0889,0.57298 -0.0889,0.81902 0,0.36417 0.0643,0.5798 0.21443,0.72004 0.0911,0.085 0.43572,0.21703 0.57485,0.2202 l 0.0565,0.001 z m 0.5237,-0.0681 c -9.1e-4,-0.0248 -0.0119,-0.14017 -0.0245,-0.25648 -0.0155,-0.14236 -0.0197,-0.3464 -0.0129,-0.62416 0.0104,-0.43647 0.0143,-0.48202 0.0583,-0.73585 0.0153,-0.0882 0.0242,-0.16402 0.0197,-0.16846 -0.005,-0.005 -0.0553,-0.001 -0.11297,0.007 l -0.10491,0.0146 -0.0218,0.11795 c -0.0737,0.3993 -0.0905,1.06466 -0.0377,1.49381 0.0394,0.3207 0.0319,0.30795 0.14524,0.24697 0.075,-0.0403 0.0927,-0.0588 0.0914,-0.0951 z"
       id="path873-3"
       inkscape:connector-curvature="0"
       sodipodi:nodetypes="cccccccscccccccccccccccscccccccccccccccc" />
  </g>
</svg>
