<?xml version="1.0" encoding="UTF-8" standalone="no"?>
<!-- Created with Inkscape (http://www.inkscape.org/) -->

<svg
   sodipodi:docname="repair.svg"
   inkscape:version="1.1.2 (0a00cf5339, 2022-02-04)"
   id="svg8"
   version="1.1"
   viewBox="0 0 6.8589293 6.8461938"
   height="6.8461938mm"
   width="6.8589292mm"
   xmlns:inkscape="http://www.inkscape.org/namespaces/inkscape"
   xmlns:sodipodi="http://sodipodi.sourceforge.net/DTD/sodipodi-0.dtd"
   xmlns="http://www.w3.org/2000/svg"
   xmlns:svg="http://www.w3.org/2000/svg"
   xmlns:rdf="http://www.w3.org/1999/02/22-rdf-syntax-ns#"
   xmlns:cc="http://creativecommons.org/ns#"
   xmlns:dc="http://purl.org/dc/elements/1.1/">
  <defs
     id="defs2" />
  <sodipodi:namedview
     id="base"
     pagecolor="#ffffff"
     bordercolor="#666666"
     borderopacity="1.0"
     inkscape:pageopacity="0.0"
     inkscape:pageshadow="2"
     inkscape:zoom="11.313708"
     inkscape:cx="0.13258252"
     inkscape:cy="13.302446"
     inkscape:document-units="mm"
     inkscape:current-layer="layer1"
     showgrid="false"
     inkscape:window-width="1846"
     inkscape:window-height="1016"
     inkscape:window-x="74"
     inkscape:window-y="27"
     inkscape:window-maximized="1"
     inkscape:snap-global="false"
     fit-margin-top="0"
     fit-margin-left="0"
     fit-margin-right="0"
     fit-margin-bottom="0"
     showguides="false"
     inkscape:guide-bbox="true"
     inkscape:pagecheckerboard="0" />
  <metadata
     id="metadata5">
    <rdf:RDF>
      <cc:Work
         rdf:about="">
        <dc:format>image/svg+xml</dc:format>
        <dc:type
           rdf:resource="http://purl.org/dc/dcmitype/StillImage" />
        <dc:title />
      </cc:Work>
    </rdf:RDF>
  </metadata>
  <g
     inkscape:label="Capa 1"
     inkscape:groupmode="layer"
     id="layer1"
     transform="translate(-150.4884,-112.94971)">
    <rect
       style="opacity:1;vector-effect:none;fill:#1a1a1a;fill-opacity:1;stroke:none;stroke-width:0.1;stroke-linecap:butt;stroke-linejoin:miter;stroke-miterlimit:4;stroke-dasharray:none;stroke-dashoffset:0;stroke-opacity:1"
       id="rect860"
       width="7.0941477"
       height="0"
       x="148.86763"
       y="129.31949" />
    <path
       style="fill:#000000;stroke-width:0.00825548"
       d="m 151.33485,119.66424 c -0.15316,-0.0292 -0.27705,-0.0851 -0.39035,-0.17614 -0.15639,-0.12565 -0.2579,-0.29184 -0.29864,-0.4889 -0.0235,-0.11387 -0.0175,-0.28774 0.0135,-0.39142 0.0273,-0.0911 0.0663,-0.17662 0.11217,-0.24537 0.0241,-0.0361 0.45978,-0.47769 1.38457,-1.40324 l 1.3495,-1.35059 -0.0219,-0.0694 c -0.12719,-0.40229 -0.11168,-0.86508 0.0421,-1.25583 0.25942,-0.65929 0.84823,-1.11428 1.55136,-1.19882 0.13825,-0.0166 0.16817,-0.0162 0.21738,0.002 0.0611,0.0232 0.0968,0.0549 0.12464,0.11059 0.0319,0.0639 0.0342,0.13081 0.006,0.18977 -0.0138,0.0292 -0.10733,0.12951 -0.3652,0.39173 -0.24909,0.25327 -0.34637,0.35739 -0.34543,0.3697 0.002,0.0261 0.20989,1.19655 0.21312,1.19978 9.8e-4,9.8e-4 0.2766,0.0514 0.61121,0.11061 l 0.60841,0.1078 0.34794,-0.34698 c 0.2347,-0.23406 0.3597,-0.35285 0.38408,-0.36504 0.11031,-0.0551 0.2384,-0.0121 0.2971,0.0997 l 0.0278,0.0529 -0.005,0.10319 c -0.0108,0.2325 -0.0752,0.47094 -0.19091,0.70585 -0.0705,0.14332 -0.13122,0.23906 -0.22475,0.35498 -0.28338,0.35115 -0.66621,0.58244 -1.11548,0.67389 -0.10413,0.0212 -0.14629,0.0253 -0.29881,0.0295 -0.23264,0.006 -0.40216,-0.0134 -0.59211,-0.0684 l -0.0714,-0.0207 -1.35437,1.35305 c -0.74489,0.74418 -1.37356,1.36672 -1.39702,1.38343 -0.0648,0.0462 -0.19105,0.10268 -0.28115,0.12595 -0.10068,0.026 -0.24967,0.0331 -0.33883,0.016 z m 0.38764,-0.64734 c 0.17354,-0.0481 0.28631,-0.22098 0.25675,-0.39356 -0.0209,-0.12215 -0.0897,-0.21384 -0.20053,-0.26724 -0.0598,-0.0288 -0.0651,-0.0298 -0.15273,-0.0297 -0.10321,2.9e-4 -0.13872,0.0119 -0.21739,0.0713 -0.12411,0.0936 -0.16913,0.27959 -0.1023,0.42242 0.076,0.1624 0.24751,0.24345 0.4162,0.19667 z"
       id="path39" />
  </g>
</svg>
