<?xml version="1.0" encoding="UTF-8" standalone="no"?>
<!-- Created with Inkscape (http://www.inkscape.org/) -->

<svg
   width="7.4903407mm"
   height="7.7181492mm"
   viewBox="0 0 7.4903407 7.7181492"
   version="1.1"
   id="svg8"
   sodipodi:docname="reroll.svg"
   inkscape:version="1.1.2 (0a00cf5339, 2022-02-04)"
   xmlns:inkscape="http://www.inkscape.org/namespaces/inkscape"
   xmlns:sodipodi="http://sodipodi.sourceforge.net/DTD/sodipodi-0.dtd"
   xmlns="http://www.w3.org/2000/svg"
   xmlns:svg="http://www.w3.org/2000/svg"
   xmlns:rdf="http://www.w3.org/1999/02/22-rdf-syntax-ns#"
   xmlns:cc="http://creativecommons.org/ns#"
   xmlns:dc="http://purl.org/dc/elements/1.1/">
  <defs
     id="defs2" />
  <sodipodi:namedview
     id="base"
     pagecolor="#ffffff"
     bordercolor="#666666"
     borderopacity="1.0"
     inkscape:pageopacity="0.0"
     inkscape:pageshadow="2"
     inkscape:zoom="7.9195959"
     inkscape:cx="-29.041886"
     inkscape:cy="22.539029"
     inkscape:document-units="mm"
     inkscape:current-layer="layer1"
     showgrid="false"
     inkscape:window-width="1846"
     inkscape:window-height="1016"
     inkscape:window-x="74"
     inkscape:window-y="27"
     inkscape:window-maximized="1"
     fit-margin-top="0"
     fit-margin-left="0"
     fit-margin-right="0"
     fit-margin-bottom="0"
     inkscape:pagecheckerboard="0" />
  <metadata
     id="metadata5">
    <rdf:RDF>
      <cc:Work
         rdf:about="">
        <dc:format>image/svg+xml</dc:format>
        <dc:type
           rdf:resource="http://purl.org/dc/dcmitype/StillImage" />
      </cc:Work>
    </rdf:RDF>
  </metadata>
  <g
     inkscape:label="Capa 1"
     inkscape:groupmode="layer"
     id="layer1"
     transform="translate(-11.640318,-44.414081)">
    <path
       id="path828"
       style="fill:#000000;stroke:#000000;stroke-width:0.865512;stroke-miterlimit:4;stroke-dasharray:none;stroke-opacity:1"
       d="M 13.638672,0.43164062 C 13.031263,0.4357489 12.58736,0.4920326 11.855469,0.63085938 9.295655,1.1163624 5.4761948,2.1126739 2.7441406,3.0058594 1.3160802,3.4727331 0.92509338,3.49899 0.61914062,4.015625 0.11234001,4.8714007 0.48195374,9.7750298 0.671875,11.933594 c 0.26526236,3.015046 0.9196204,7.970587 1.2578125,9.52539 0.069392,0.319129 0.231388,0.678174 0.3613281,0.800782 0.4473336,0.42215 9.9749254,5.060745 12.5644534,6.117187 0.913032,0.372552 1.769068,0.366437 2.419922,-0.01758 0.718767,-0.424078 8.692839,-6.69794 9.435547,-7.423828 0.690352,-0.67474 0.73141,-0.744179 0.845703,-1.421875 0.203036,-1.203938 0.33462,-5.244121 0.365234,-11.1640626 0.0094,-1.8365292 0.119971,-5.680968 -0.21875,-5.8554688 C 27.384473,2.2354055 26.42703,2.0201299 23.53125,1.5605469 19.930883,0.9891352 16.099377,0.51858642 14.529297,0.453125 14.235126,0.44086043 13.986189,0.4325985 13.761719,0.43164062 c -0.04209,-1.796e-4 -0.08255,-2.7388e-4 -0.123047,0 z M 12.700514,1.3757902 c 0,0 14.012992,0.8016617 14.528788,2.0443994 0.261647,0.666788 0.295213,2.4532088 0.237495,3.6696542 -0.09509,2.7989479 -0.232108,5.6005142 -0.373047,7.8496092 -0.169043,2.668097 0.461702,4.575114 -2.798828,7.052735 -1.727452,1.378283 -3.46999,2.551966 -5.408203,4.003906 -1.868765,1.385249 -2.225864,1.994684 -3.705078,1.449218 -1.699764,-0.698019 -3.48427,-1.34546 -4.990235,-1.976562 C 8.9934173,24.984067 7.2709966,24.160302 5.796875,23.398438 4.5594036,22.75671 3.7184484,22.350926 3.1054688,21.648438 L 2.7675781,21.486328 2.7539062,21.171875 C 2.1915333,20.265695 1.8484936,18.893812 1.5214844,16.408203 1.2560104,11.542594 0.96758885,10.60681 0.96540425,8.9225996 0.80414081,7.8421483 0.82647982,6.3349636 0.98821213,5.3810854 1.0880629,4.9280053 1.2306025,4.0747995 2.0175781,3.8964844 c 0,0 10.4197289,-2.4726186 10.6829359,-2.5206942 z"
       transform="matrix(0.26458333,0,0,0.26458333,11.640318,44.414081)"
       sodipodi:nodetypes="scscccccscccccsssccccccccccccccccc" />
    <path
       id="path435"
       style="fill:#000000;stroke-width:0.46356;stroke-linecap:round;stop-color:#000000"
       d="m 14.032243,46.087119 c -0.988157,0.719462 -1.205954,2.103771 -0.486458,3.091905 0.496444,0.681428 1.336935,1.021604 2.167587,0.877299 l -0.06051,-1.081447 c -0.462529,0.13408 -0.95951,-0.03572 -1.243339,-0.424753 -0.372221,-0.511086 -0.259556,-1.227159 0.251616,-1.599261 0.511089,-0.371934 1.226915,-0.25917 1.598916,0.251866 0.172215,0.237246 0.246804,0.531537 0.208426,0.822173 0.01691,0.0025 0.0357,0.006 0.05296,0.0086 l -0.661208,-0.09128 0.968974,1.300559 1.33968,-0.982234 -0.64191,-0.08855 c 0.07631,-0.564526 -0.06724,-1.137166 -0.402842,-1.598434 -0.719461,-0.988157 -2.103769,-1.205953 -3.091901,-0.486459 z" />
  </g>
</svg>
