<?xml version="1.0" encoding="UTF-8" standalone="no"?>
<!-- Created with Inkscape (http://www.inkscape.org/) -->

<svg
   sodipodi:docname="rotor.svg"
   inkscape:version="1.1.2 (0a00cf5339, 2022-02-04)"
   id="svg8"
   version="1.1"
   viewBox="0 0 6.8589293 6.8461938"
   height="25.875378"
   width="25.923512"
   xmlns:inkscape="http://www.inkscape.org/namespaces/inkscape"
   xmlns:sodipodi="http://sodipodi.sourceforge.net/DTD/sodipodi-0.dtd"
   xmlns="http://www.w3.org/2000/svg"
   xmlns:svg="http://www.w3.org/2000/svg"
   xmlns:rdf="http://www.w3.org/1999/02/22-rdf-syntax-ns#"
   xmlns:cc="http://creativecommons.org/ns#"
   xmlns:dc="http://purl.org/dc/elements/1.1/">
  <defs
     id="defs2" />
  <sodipodi:namedview
     id="base"
     pagecolor="#ffffff"
     bordercolor="#666666"
     borderopacity="1.0"
     inkscape:pageopacity="0.0"
     inkscape:pageshadow="2"
     inkscape:zoom="16"
     inkscape:cx="1.71875"
     inkscape:cy="3.0625"
     inkscape:document-units="mm"
     inkscape:current-layer="layer1"
     showgrid="false"
     inkscape:window-width="1920"
     inkscape:window-height="1043"
     inkscape:window-x="1920"
     inkscape:window-y="0"
     inkscape:window-maximized="1"
     inkscape:snap-global="true"
     fit-margin-top="0"
     fit-margin-left="0"
     fit-margin-right="0"
     fit-margin-bottom="0"
     showguides="false"
     inkscape:guide-bbox="true"
     units="px"
     inkscape:pagecheckerboard="0" />
  <metadata
     id="metadata5">
    <rdf:RDF>
      <cc:Work
         rdf:about="">
        <dc:format>image/svg+xml</dc:format>
        <dc:type
           rdf:resource="http://purl.org/dc/dcmitype/StillImage" />
      </cc:Work>
    </rdf:RDF>
  </metadata>
  <g
     inkscape:label="Capa 1"
     inkscape:groupmode="layer"
     id="layer1"
     transform="translate(-150.4884,-112.94971)">
    <rect
       style="opacity:1;vector-effect:none;fill:#1a1a1a;fill-opacity:1;stroke:none;stroke-width:0.1;stroke-linecap:butt;stroke-linejoin:miter;stroke-miterlimit:4;stroke-dasharray:none;stroke-dashoffset:0;stroke-opacity:1"
       id="rect860"
       width="7.0941477"
       height="0"
       x="148.86763"
       y="129.31949" />
    <path
       style="fill:#000000;stroke-width:0.0348413"
       d="m 154.84804,118.42371 c -0.68419,-1.18843 -0.72157,-1.24532 -0.81489,-1.23994 -0.19019,0.011 -0.45985,-0.0628 -0.5995,-0.1639 -0.19332,-0.14005 -0.29384,-0.34379 -0.31626,-0.64103 l -0.0182,-0.24183 -0.22647,-0.0571 c -0.48537,-0.12231 -0.45553,-0.0622 -0.73682,-1.48607 -0.1313,-0.6647 -0.23873,-1.24112 -0.23873,-1.28094 0,-0.10418 0.3047,-0.28739 0.36961,-0.22225 0.0252,0.0253 0.35686,0.58674 0.73719,1.24786 l 0.69154,1.20203 0.24189,0.0198 c 0.27247,0.0224 0.40064,0.0787 0.5624,0.24727 0.15189,0.15834 0.21951,0.33669 0.21951,0.57885 v 0.20359 l 0.18293,0.0453 c 0.30029,0.0744 0.46965,0.16212 0.5268,0.27265 0.0611,0.11832 0.51879,2.41917 0.50295,2.52886 -0.0104,0.0692 -0.2382,0.23045 -0.3281,0.23178 -0.0213,2.6e-4 -0.36143,-0.55994 -0.75582,-1.245 z m -0.75726,-1.89672 c 0.0391,-0.042 0.071,-0.11541 0.071,-0.16325 0,-0.11438 -0.1289,-0.24828 -0.23901,-0.24828 -0.12033,0 -0.24877,0.12906 -0.24877,0.24996 0,0.21227 0.27145,0.31752 0.41673,0.16157 z m -0.69126,2.68726 c -0.63451,-0.11332 -1.27385,-0.4902 -1.69533,-0.99933 -0.32762,-0.39579 -0.64324,-1.14443 -0.64324,-1.52579 0,-0.0616 -0.009,-0.16102 -0.0218,-0.2209 l -0.0218,-0.10888 -0.24824,-7.1e-4 -0.24825,-7.2e-4 0.34841,-0.3285 c 0.19162,-0.18067 0.35888,-0.32913 0.37167,-0.32989 0.0294,-10e-4 0.66948,0.58562 0.68518,0.6287 0.006,0.0176 -0.0995,0.0319 -0.23517,0.0319 h -0.24679 v 0.13708 c 0,0.36117 0.1604,0.85401 0.39698,1.21971 0.42307,0.65402 1.07946,1.04855 1.8877,1.13466 0.19045,0.0203 0.65775,-0.0209 0.78417,-0.069 0.0328,-0.0125 0.0829,0.0409 0.14863,0.15804 0.0546,0.0973 0.0938,0.182 0.0871,0.18825 -0.0932,0.0875 -1.01304,0.14628 -1.34927,0.0863 z m 2.82647,-2.49945 c -0.17736,-0.16675 -0.32239,-0.31494 -0.32228,-0.32932 1e-4,-0.0143 0.10993,-0.0262 0.24407,-0.0262 h 0.24389 v -0.1412 c 0,-0.20668 -0.099,-0.61155 -0.20931,-0.85656 -0.32464,-0.72066 -0.99336,-1.26787 -1.74483,-1.42781 -0.25405,-0.0541 -0.91388,-0.0511 -1.0986,0.005 -0.0613,0.0186 -0.0895,-0.006 -0.16643,-0.14332 -0.0509,-0.0911 -0.0803,-0.178 -0.0653,-0.19304 0.0634,-0.0634 0.69282,-0.1423 0.96935,-0.12159 0.75657,0.0566 1.39163,0.35087 1.90137,0.88084 0.50386,0.52384 0.70553,0.97731 0.81491,1.83232 l 0.0211,0.16549 0.25046,0.001 0.25047,0.001 -0.34525,0.32933 c -0.18988,0.18113 -0.36235,0.32858 -0.38325,0.32765 -0.0209,-7.2e-4 -0.18312,-0.13811 -0.36049,-0.30486 z"
       id="path859"
       sodipodi:nodetypes="ccsscsssscccsscsccccssssscssscccscsscscsccccccsscscssssscsccccccc" />
  </g>
</svg>
