<?xml version="1.0" encoding="UTF-8" standalone="no"?>
<!-- Created with Inkscape (http://www.inkscape.org/) -->

<svg
   xmlns:dc="http://purl.org/dc/elements/1.1/"
   xmlns:cc="http://creativecommons.org/ns#"
   xmlns:rdf="http://www.w3.org/1999/02/22-rdf-syntax-ns#"
   xmlns:svg="http://www.w3.org/2000/svg"
   xmlns="http://www.w3.org/2000/svg"
   xmlns:sodipodi="http://sodipodi.sourceforge.net/DTD/sodipodi-0.dtd"
   xmlns:inkscape="http://www.inkscape.org/namespaces/inkscape"
   sodipodi:docname="shoulder.svg"
   inkscape:version="0.92.5 (2060ec1f9f, 2020-04-08)"
   id="svg8"
   version="1.1"
   viewBox="0 0 6.8589293 6.8461938"
   height="6.8461938mm"
   width="6.8589292mm">
  <defs
     id="defs2" />
  <sodipodi:namedview
     id="base"
     pagecolor="#ffffff"
     bordercolor="#666666"
     borderopacity="1.0"
     inkscape:pageopacity="0.0"
     inkscape:pageshadow="2"
     inkscape:zoom="5.6568542"
     inkscape:cx="13.551689"
     inkscape:cy="5.8485813"
     inkscape:document-units="mm"
     inkscape:current-layer="layer1"
     showgrid="false"
     inkscape:window-width="924"
     inkscape:window-height="1016"
     inkscape:window-x="996"
     inkscape:window-y="27"
     inkscape:window-maximized="0"
     inkscape:snap-global="false"
     fit-margin-top="0"
     fit-margin-left="0"
     fit-margin-right="0"
     fit-margin-bottom="0"
     showguides="false"
     inkscape:guide-bbox="true" />
  <metadata
     id="metadata5">
    <rdf:RDF>
      <cc:Work
         rdf:about="">
        <dc:format>image/svg+xml</dc:format>
        <dc:type
           rdf:resource="http://purl.org/dc/dcmitype/StillImage" />
        <dc:title></dc:title>
      </cc:Work>
    </rdf:RDF>
  </metadata>
  <g
     inkscape:label="Capa 1"
     inkscape:groupmode="layer"
     id="layer1"
     transform="translate(-150.4884,-112.94971)">
    <rect
       style="opacity:1;vector-effect:none;fill:#1a1a1a;fill-opacity:1;stroke:none;stroke-width:0.1;stroke-linecap:butt;stroke-linejoin:miter;stroke-miterlimit:4;stroke-dasharray:none;stroke-dashoffset:0;stroke-opacity:1"
       id="rect860"
       width="7.0941477"
       height="0"
       x="148.86763"
       y="129.31949" />
    <path
       style="display:inline;fill:#000000;fill-opacity:1;stroke-width:0.01959438"
       d="m 154.48444,113.38112 c -0.20886,-0.005 -0.41924,0.0478 -0.60222,0.16054 -0.095,0.0585 -0.26069,0.21576 -0.32281,0.30612 -0.24663,0.3587 -0.25633,0.83373 -0.0245,1.20568 0.0525,0.0843 0.18926,0.23246 0.26836,0.29084 0.12047,0.0889 0.28002,0.16168 0.42222,0.19266 0.0953,0.0208 0.28255,0.027 0.38356,0.0127 0.44927,-0.0638 0.81628,-0.40431 0.9131,-0.84724 0.0208,-0.0953 0.0275,-0.3009 0.0126,-0.39218 -0.0378,-0.23326 -0.12824,-0.41776 -0.28608,-0.58396 -0.0553,-0.0583 -0.13053,-0.12585 -0.17089,-0.15368 -0.17694,-0.12205 -0.38441,-0.18605 -0.59327,-0.19143 z m -1.37119,0.69198 c -0.0138,1.3e-4 -1.93129,1.28304 -1.93156,1.29228 -1.2e-4,0.005 0.0319,0.0147 0.0713,0.0211 0.16268,0.0261 0.29422,0.0981 0.41905,0.22954 0.15507,0.16329 0.21972,0.34008 0.20793,0.56887 -0.005,0.1165 -0.054,0.29028 -0.0893,0.32403 -0.007,0.006 -0.005,0.0112 0.003,0.011 0.008,-1.5e-4 0.29877,-0.0993 0.64473,-0.22023 0.34596,-0.12095 0.82508,-0.28858 1.06466,-0.37233 0.23959,-0.0838 0.43746,-0.15388 0.43977,-0.15613 0.002,-0.002 -0.0399,-0.0244 -0.0938,-0.0491 -0.16764,-0.077 -0.29155,-0.17152 -0.43309,-0.33019 -0.15137,-0.16969 -0.22284,-0.29369 -0.28715,-0.49861 -0.0753,-0.23983 -0.0854,-0.475 -0.0307,-0.71884 0.0237,-0.10561 0.0232,-0.10147 0.0146,-0.10136 z m 2.68922,0.15772 -0.008,1.8e-4 -0.0136,0.0115 c 0.0179,0.0876 0.0273,0.17664 0.0277,0.26607 0,0.75234 -0.61,1.36235 -1.36234,1.36235 -0.11059,-5.8e-4 -0.2207,-0.0147 -0.32791,-0.0417 -2.7e-4,0.0164 -6.9e-4,0.0306 -6.9e-4,0.0527 1.4e-4,0.0889 -0.0228,1.33868 -0.012,1.49496 0.17082,1.11718 0.37855,1.15049 0.64052,1.98793 h 1.07677 1.07696 v -2.64637 l 0.0169,-2.47777 z m -4.70701,1.44713 c -0.0618,0.002 -0.12128,0.0174 -0.17651,0.0421 l 0.44909,0.81054 c 0.016,-0.0135 0.0341,-0.0298 0.0587,-0.0533 0.0869,-0.0825 0.0947,-0.0934 0.12399,-0.17283 0.0714,-0.19322 0.007,-0.41522 -0.15315,-0.53162 -0.095,-0.0689 -0.20069,-0.0983 -0.30208,-0.095 z"
       id="path831-2-6-7"
       inkscape:connector-curvature="0"
       sodipodi:nodetypes="ccccccccccccccccccccccccscccccccccccccccccccccccccc" />
  </g>
</svg>
