<?xml version="1.0" encoding="UTF-8" standalone="no"?>
<!-- Created with Inkscape (http://www.inkscape.org/) -->

<svg
   sodipodi:docname="slow-reload.svg"
   inkscape:version="1.2.2 (b0a8486541, 2022-12-01)"
   id="svg8"
   version="1.1"
   viewBox="0 0 6.8589293 6.8461938"
   height="6.8461938mm"
   width="6.8589292mm"
   xml:space="preserve"
   xmlns:inkscape="http://www.inkscape.org/namespaces/inkscape"
   xmlns:sodipodi="http://sodipodi.sourceforge.net/DTD/sodipodi-0.dtd"
   xmlns="http://www.w3.org/2000/svg"
   xmlns:svg="http://www.w3.org/2000/svg"
   xmlns:rdf="http://www.w3.org/1999/02/22-rdf-syntax-ns#"
   xmlns:cc="http://creativecommons.org/ns#"
   xmlns:dc="http://purl.org/dc/elements/1.1/"><defs
     id="defs2" /><sodipodi:namedview
     id="base"
     pagecolor="#ffffff"
     bordercolor="#666666"
     borderopacity="1.0"
     inkscape:pageopacity="0.0"
     inkscape:pageshadow="2"
     inkscape:zoom="15.999999"
     inkscape:cx="-4.3750003"
     inkscape:cy="19.312501"
     inkscape:document-units="mm"
     inkscape:current-layer="layer1"
     showgrid="false"
     inkscape:window-width="1854"
     inkscape:window-height="1011"
     inkscape:window-x="66"
     inkscape:window-y="1112"
     inkscape:window-maximized="1"
     inkscape:snap-global="false"
     fit-margin-top="0"
     fit-margin-left="0"
     fit-margin-right="0"
     fit-margin-bottom="0"
     showguides="false"
     inkscape:guide-bbox="true"
     inkscape:pagecheckerboard="0"
     inkscape:showpageshadow="2"
     inkscape:deskcolor="#d1d1d1" /><metadata
     id="metadata5"><rdf:RDF><cc:Work
         rdf:about=""><dc:format>image/svg+xml</dc:format><dc:type
           rdf:resource="http://purl.org/dc/dcmitype/StillImage" /></cc:Work></rdf:RDF></metadata><g
     inkscape:label="Capa 1"
     inkscape:groupmode="layer"
     id="layer1"
     transform="translate(-150.4884,-112.94971)"><rect
       style="opacity:1;vector-effect:none;fill:#1a1a1a;fill-opacity:1;stroke:none;stroke-width:0.1;stroke-linecap:butt;stroke-linejoin:miter;stroke-miterlimit:4;stroke-dasharray:none;stroke-dashoffset:0;stroke-opacity:1"
       id="rect860"
       width="7.0941477"
       height="0"
       x="148.86763"
       y="129.31949" /><path
       id="path3264"
       style="fill:#000000;stroke:#000000;stroke-width:0.00916555"
       d="M 152.01802 113.6246 C 151.90863 113.62258 151.80113 113.67926 151.74207 113.78118 C 151.7014 113.8515 151.69876 113.89581 151.70176 114.42456 L 151.70435 114.91962 L 151.72863 114.97129 C 151.75883 115.03569 151.81715 115.09367 151.88315 115.12477 L 151.93379 115.14906 L 152.46967 115.14906 L 153.00608 115.14906 L 153.05982 115.12167 C 153.23962 115.03054 153.28734 114.79495 153.15645 114.64625 C 153.08964 114.57039 153.04179 114.54983 152.90996 114.54083 L 152.82262 114.53463 L 152.96473 114.46383 C 153.39991 114.24743 153.87502 114.18546 154.35018 114.28296 C 155.23053 114.46364 155.8942 115.16848 156.03225 116.06993 C 156.05482 116.21728 156.05475 116.52937 156.03225 116.67455 C 155.96274 117.12348 155.77756 117.50706 155.47104 117.83623 C 155.19627 118.13131 154.81955 118.35045 154.42098 118.44705 C 154.23525 118.49205 154.13916 118.50234 153.91816 118.50234 C 153.69716 118.50234 153.60056 118.49205 153.41484 118.44705 C 152.48978 118.22289 151.8235 117.40989 151.786 116.46009 C 151.7834 116.39403 151.77653 116.32156 151.77153 116.29886 C 151.73363 116.14048 151.57284 116.0411 151.41031 116.0751 C 151.31489 116.09507 151.23948 116.15478 151.19688 116.24408 C 151.17568 116.28753 151.1725 116.30873 151.1695 116.39963 C 151.1639 116.58242 151.19553 116.83489 151.25063 117.05075 C 151.34706 117.42844 151.52448 117.78528 151.76946 118.09307 C 151.86423 118.21214 152.08448 118.43121 152.20406 118.52611 C 152.61341 118.85088 153.09648 119.05009 153.61534 119.10799 L 153.61482 119.10851 C 153.74698 119.12311 154.04709 119.12544 154.17913 119.11264 C 154.7126 119.0609 155.21029 118.85994 155.63124 118.52663 C 155.75492 118.42871 155.98151 118.20081 156.07721 118.07756 C 156.41147 117.64698 156.60822 117.15465 156.65702 116.62907 C 156.66952 116.49534 156.66973 116.23811 156.65753 116.11489 C 156.60431 115.57615 156.4035 115.07847 156.06894 114.65607 C 155.97631 114.53913 155.7555 114.31732 155.64054 114.22612 C 155.21901 113.89159 154.73461 113.69257 154.206 113.63597 C 154.04228 113.61817 153.69547 113.62276 153.54144 113.64476 C 153.14545 113.70119 152.74153 113.85277 152.41645 114.06644 C 152.36565 114.09974 152.32178 114.1269 152.31878 114.1269 C 152.31578 114.1269 152.31361 114.06914 152.31361 113.99874 C 152.31361 113.89246 152.31051 113.86237 152.29501 113.82097 C 152.27291 113.76185 152.21717 113.69511 152.16427 113.66491 C 152.11827 113.63863 152.06775 113.62552 152.01802 113.6246 z M 153.98638 115.07464 C 153.94664 115.07625 153.90782 115.08349 153.87941 115.09635 C 153.81691 115.12465 153.75351 115.19007 153.72231 115.25758 L 153.69647 115.31339 L 153.69441 115.89527 L 153.69234 116.47766 L 153.34042 116.83009 C 152.93646 117.23496 152.93677 117.23473 152.93735 117.36649 C 152.93752 117.42549 152.94232 117.44947 152.96112 117.49 C 153.01152 117.59828 153.11316 117.66631 153.23035 117.67035 C 153.26505 117.67232 153.30664 117.66851 153.3244 117.66363 C 153.3919 117.64333 153.46358 117.57864 153.85409 117.18666 C 154.20737 116.83204 154.26212 116.77264 154.28455 116.72467 L 154.31039 116.6699 L 154.31039 115.9919 L 154.31039 115.31339 L 154.28455 115.25758 C 154.25335 115.19008 154.18936 115.1246 154.12694 115.09635 C 154.09038 115.07981 154.03747 115.07258 153.98638 115.07464 z " /></g></svg>
