<?xml version="1.0" encoding="UTF-8" standalone="no"?>
<!-- Created with Inkscape (http://www.inkscape.org/) -->

<svg
   xmlns:dc="http://purl.org/dc/elements/1.1/"
   xmlns:cc="http://creativecommons.org/ns#"
   xmlns:rdf="http://www.w3.org/1999/02/22-rdf-syntax-ns#"
   xmlns:svg="http://www.w3.org/2000/svg"
   xmlns="http://www.w3.org/2000/svg"
   xmlns:sodipodi="http://sodipodi.sourceforge.net/DTD/sodipodi-0.dtd"
   xmlns:inkscape="http://www.inkscape.org/namespaces/inkscape"
   sodipodi:docname="dispersion.svg"
   inkscape:version="0.92.5 (2060ec1f9f, 2020-04-08)"
   id="svg8"
   version="1.1"
   viewBox="0 0 6.8600003 6.8600001"
   height="6.8600001mm"
   width="6.8600001mm">
  <defs
     id="defs2" />
  <sodipodi:namedview
     id="base"
     pagecolor="#ffffff"
     bordercolor="#666666"
     borderopacity="1.0"
     inkscape:pageopacity="0.0"
     inkscape:pageshadow="2"
     inkscape:zoom="4"
     inkscape:cx="-14.275575"
     inkscape:cy="33.569827"
     inkscape:document-units="mm"
     inkscape:current-layer="layer1"
     showgrid="false"
     inkscape:window-width="1848"
     inkscape:window-height="1016"
     inkscape:window-x="72"
     inkscape:window-y="1107"
     inkscape:window-maximized="1"
     inkscape:snap-global="false"
     fit-margin-top="0"
     fit-margin-left="0"
     fit-margin-right="0"
     fit-margin-bottom="0"
     showguides="false"
     inkscape:guide-bbox="true" />
  <metadata
     id="metadata5">
    <rdf:RDF>
      <cc:Work
         rdf:about="">
        <dc:format>image/svg+xml</dc:format>
        <dc:type
           rdf:resource="http://purl.org/dc/dcmitype/StillImage" />
        <dc:title></dc:title>
      </cc:Work>
    </rdf:RDF>
  </metadata>
  <g
     inkscape:label="Capa 1"
     inkscape:groupmode="layer"
     id="layer1"
     transform="translate(-150.4884,-112.9359)">
    <rect
       style="opacity:1;vector-effect:none;fill:#1a1a1a;fill-opacity:1;stroke:none;stroke-width:0.1;stroke-linecap:butt;stroke-linejoin:miter;stroke-miterlimit:4;stroke-dasharray:none;stroke-dashoffset:0;stroke-opacity:1"
       id="rect860"
       width="7.0941477"
       height="0"
       x="148.86763"
       y="129.31949" />
    <path
       style="fill:#000000;stroke:#000000;stroke-width:0.20942611;stroke-miterlimit:4;stroke-dasharray:none;stroke-opacity:1"
       d="m 150.81067,113.47052 v 0.19998 0.19948 l -0.0687,0.0109 c -0.0499,0.008 -0.0992,0.0213 -0.14883,0.0326 v 0.55449 c 0.057,-0.0172 0.11728,-0.0361 0.15348,-0.0419 l 0.0641,-0.0103 v 0.43666 0.43615 h 0.35347 0.35398 v -0.43408 c 0,-0.50316 -0.0233,-0.45876 0.20309,-0.39326 0.32803,0.095 0.576,0.23981 0.82786,0.48421 0.29627,0.28748 0.46412,0.59063 0.5674,1.02268 l 0.0109,0.0444 h -0.4346 -0.4346 v 0.36174 0.36225 h 0.43253 0.43253 l -0.015,0.0682 c -0.0286,0.13132 -0.0993,0.32684 -0.16743,0.4625 -0.18578,0.37022 -0.4993,0.68581 -0.86506,0.87075 -0.13271,0.0671 -0.41926,0.16825 -0.50126,0.17725 l -0.0481,0.005 v -0.43047 -0.42994 h -0.35812 -0.3576 v 0.42529 h -0.001 c 0,0.23392 -0.005,0.42802 -0.0124,0.43202 -0.007,0.004 -0.0626,-0.006 -0.12454,-0.0217 -0.0274,-0.007 -0.0527,-0.0179 -0.0796,-0.0258 v 0.55397 c 0.0136,0.003 0.0267,0.007 0.0403,0.0103 l 0.16898,0.0357 0.004,0.19585 0.005,0.19586 h 0.35295 0.35295 l 0.004,-0.19534 0.005,-0.19534 0.16846,-0.0377 c 0.30288,-0.0679 0.54466,-0.16528 0.80874,-0.32556 0.57364,-0.34818 0.99481,-0.9547 1.13275,-1.63091 l 0.0284,-0.14056 h 0.1974 0.19741 v -0.36173 -0.36226 h -0.19741 -0.19792 l -0.0279,-0.14831 c -0.0598,-0.31633 -0.19438,-0.63775 -0.38447,-0.91881 -0.1394,-0.20615 -0.47205,-0.53548 -0.68058,-0.67386 -0.28019,-0.18593 -0.58901,-0.31373 -0.90434,-0.37413 l -0.14883,-0.0289 v -0.19844 -0.19895 h -0.35347 z"
       id="path1101"
       inkscape:connector-curvature="0" />
    <path
       style="fill:#000000;stroke-width:0.04291296"
       d="m 155.39686,119.16773 c -0.25963,-0.0587 -0.49619,-0.12644 -0.52569,-0.1506 -0.092,-0.0754 -0.0593,-0.21666 0.0844,-0.3648 l 0.13797,-0.14235 -0.50272,-0.50404 c -0.37693,-0.37791 -0.50273,-0.53126 -0.50273,-0.61282 0,-0.14334 0.0743,-0.21178 0.22989,-0.21178 0.10433,0 0.21604,0.088 0.62684,0.49376 l 0.49991,0.49377 0.12361,-0.129 c 0.13169,-0.13745 0.28048,-0.16649 0.36032,-0.0703 0.0879,0.10594 0.30588,1.14701 0.25865,1.23524 -0.0555,0.10369 -0.1966,0.097 -0.79037,-0.0371 z m 0.73667,-2.10082 c -0.0158,-0.0157 -0.0286,-0.12195 -0.0286,-0.23602 v -0.20742 l -0.67588,-6.4e-4 c -0.79014,-8.2e-4 -0.89044,-0.0296 -0.89044,-0.25685 0,-0.22704 0.10046,-0.2561 0.8882,-0.25685 l 0.67363,-6.4e-4 0.013,-0.22529 c 0.0125,-0.21637 0.0181,-0.22568 0.14171,-0.23482 0.0957,-0.008 0.2432,0.0645 0.57481,0.27919 0.24534,0.1588 0.46731,0.32239 0.49327,0.36355 0.0736,0.11672 -0.002,0.1956 -0.49327,0.51212 -0.40513,0.26121 -0.61819,0.34186 -0.69641,0.26364 z m -1.99402,-1.56775 c -0.0283,-0.0283 -0.0515,-0.10861 -0.0515,-0.17841 0,-0.10432 0.088,-0.21602 0.49376,-0.62682 l 0.49377,-0.49993 -0.12901,-0.12359 c -0.137,-0.13126 -0.16654,-0.28045 -0.0712,-0.35959 0.0822,-0.0682 1.00305,-0.26983 1.1616,-0.25437 0.10858,0.0107 0.13477,0.034 0.14591,0.13099 0.017,0.14703 -0.18853,1.09573 -0.25451,1.17523 -0.0796,0.096 -0.22854,0.0668 -0.3601,-0.0705 l -0.1236,-0.12902 -0.49993,0.49377 c -0.41079,0.40573 -0.52254,0.49377 -0.62682,0.49377 -0.0698,0 -0.15008,-0.0232 -0.17841,-0.0515 z"
       id="path853"
       inkscape:connector-curvature="0"
       sodipodi:nodetypes="sccccsssccccscsccscccccccccsssccccccscsss" />
  </g>
</svg>
