<?xml version="1.0" encoding="UTF-8" standalone="no"?>
<!-- Created with Inkscape (http://www.inkscape.org/) -->

<svg
   sodipodi:docname="stabilized.svg"
   inkscape:version="1.2.2 (b0a8486541, 2022-12-01)"
   id="svg8"
   version="1.1"
   viewBox="0 0 6.8589293 6.8461938"
   height="6.8461938mm"
   width="6.8589292mm"
   xmlns:inkscape="http://www.inkscape.org/namespaces/inkscape"
   xmlns:sodipodi="http://sodipodi.sourceforge.net/DTD/sodipodi-0.dtd"
   xmlns="http://www.w3.org/2000/svg"
   xmlns:svg="http://www.w3.org/2000/svg"
   xmlns:rdf="http://www.w3.org/1999/02/22-rdf-syntax-ns#"
   xmlns:cc="http://creativecommons.org/ns#"
   xmlns:dc="http://purl.org/dc/elements/1.1/">
  <defs
     id="defs2" />
  <sodipodi:namedview
     id="base"
     pagecolor="#ffffff"
     bordercolor="#666666"
     borderopacity="1.0"
     inkscape:pageopacity="0.0"
     inkscape:pageshadow="2"
     inkscape:zoom="22.627417"
     inkscape:cx="10.739184"
     inkscape:cy="17.456699"
     inkscape:document-units="mm"
     inkscape:current-layer="layer1"
     showgrid="false"
     inkscape:window-width="1920"
     inkscape:window-height="1043"
     inkscape:window-x="0"
     inkscape:window-y="0"
     inkscape:window-maximized="1"
     inkscape:snap-global="false"
     fit-margin-top="0"
     fit-margin-left="0"
     fit-margin-right="0"
     fit-margin-bottom="0"
     showguides="false"
     inkscape:guide-bbox="true"
     inkscape:showpageshadow="2"
     inkscape:pagecheckerboard="0"
     inkscape:deskcolor="#d1d1d1" />
  <metadata
     id="metadata5">
    <rdf:RDF>
      <cc:Work
         rdf:about="">
        <dc:format>image/svg+xml</dc:format>
        <dc:type
           rdf:resource="http://purl.org/dc/dcmitype/StillImage" />
        <dc:title />
      </cc:Work>
    </rdf:RDF>
  </metadata>
  <g
     inkscape:label="Capa 1"
     inkscape:groupmode="layer"
     id="layer1"
     transform="translate(-150.4884,-112.94971)">
    <rect
       style="opacity:1;vector-effect:none;fill:#1a1a1a;fill-opacity:1;stroke:none;stroke-width:0.1;stroke-linecap:butt;stroke-linejoin:miter;stroke-miterlimit:4;stroke-dasharray:none;stroke-dashoffset:0;stroke-opacity:1"
       id="rect860"
       width="7.0941477"
       height="0"
       x="148.86763"
       y="129.31949" />
    <g
       id="path17500">
      <path
         style="color:#000000;fill:#000000;stroke-width:0.377;-inkscape-stroke:none"
         d="m 150.93767,119.36971 c 0.002,0.002 -0.0568,-0.31706 -0.0568,-3.03014 0,-2.83124 0.003,-2.97003 0.0627,-3.0242 0.0573,-0.0519 0.31706,-0.0568 3.03014,-0.0568 2.83122,0 2.97003,0.003 3.02418,0.0627 0.0519,0.0573 0.0568,0.31707 0.0568,3.03015 0,2.83122 -0.003,2.97002 -0.0627,3.02419 -0.0573,0.0519 -0.31706,0.0514 -3.03015,0.0567 -2.62098,0.005 -2.97001,-0.003 -3.02418,-0.0627 z m 5.77407,-3.02418 v -2.74392 h -2.74393 -2.74392 v 2.74392 2.74391 h 2.74392 2.74393 z m -2.08458,0.97253 c -0.006,-0.0387 -0.0336,-0.084 -0.0336,-0.10966 0,-0.0258 0.15981,-0.19696 0.35514,-0.38052 l 0.35512,-0.33377 -0.63134,3e-5 -0.63135,3e-5 -0.2506,0.23636 c -0.23922,0.22564 -0.3085,0.26411 -0.38206,0.2122 -0.0239,-0.0169 -0.62066,-0.72188 -0.69801,-0.82467 -0.006,-0.007 -0.10246,0.0749 -0.21646,0.1815 -0.1139,0.10658 -0.23287,0.19382 -0.26427,0.19382 -0.0872,0 -0.17218,-0.11127 -0.15061,-0.19728 0.0247,-0.0984 0.53339,-0.59191 0.61013,-0.59191 0.0333,0 0.11081,0.0532 0.17217,0.11837 0.0844,0.0895 0.55229,0.64374 0.61732,0.7312 0.006,0.007 0.10086,-0.0746 0.21228,-0.18152 l 0.20259,-0.19453 0.70511,-1.2e-4 0.7051,-1.1e-4 -0.36286,-0.34235 c -0.35184,-0.33196 -0.36193,-0.34516 -0.33071,-0.43389 0.0262,-0.0746 0.0504,-0.0915 0.13107,-0.0915 0.0838,0 0.17377,0.0701 0.58832,0.45773 0.26918,0.25175 0.49875,0.4826 0.51016,0.51297 0.0114,0.0303 0.0114,0.0801 -1e-4,0.11048 -0.0114,0.0303 -0.24117,0.26121 -0.51051,0.51297 -0.51443,0.48086 -0.62989,0.54899 -0.70197,0.4143 z"
         id="path18034" />
      <path
         style="color:#000000;fill:#000000;-inkscape-stroke:none"
         d="m 153.97461,113.07031 c -1.35665,0 -2.10051,3e-5 -2.51563,0.008 -0.20756,0.004 -0.33119,0.0105 -0.41796,0.0195 -0.0868,0.009 -0.15886,0.0186 -0.22461,0.0781 -0.022,0.02 -0.0533,0.0619 -0.0684,0.0996 -0.0151,0.0377 -0.0199,0.0705 -0.0254,0.11133 -0.0109,0.0816 -0.0173,0.19451 -0.0215,0.39453 -0.008,0.40003 -0.01,1.14291 -0.01,2.55859 0,1.34224 0.0149,2.08482 0.0293,2.50977 0.0134,0.2719 0.0275,0.4546 0.0784,0.64658 l 0.006,0.008 c 0.074,0.0426 0.083,0.071 0.23819,0.0877 0.0936,0.0104 0.22642,0.017 0.43945,0.0215 0.42606,0.009 1.16977,0.0103 2.48047,0.008 1.35652,-0.003 2.09892,-0.005 2.51367,-0.0117 0.20738,-0.004 0.33149,-0.007 0.41797,-0.0156 0.0865,-0.008 0.15765,-0.0175 0.22461,-0.0781 0.022,-0.02 0.0533,-0.0619 0.0684,-0.0996 0.0151,-0.0377 0.0199,-0.0725 0.0254,-0.11329 0.0109,-0.0816 0.0173,-0.19451 0.0215,-0.39453 0.008,-0.40003 0.01,-1.14096 0.01,-2.55664 0,-1.35665 -0.002,-2.1005 -0.01,-2.51562 -0.004,-0.20756 -0.009,-0.3312 -0.0176,-0.41797 -0.009,-0.0868 -0.0205,-0.1569 -0.0801,-0.22266 -0.02,-0.022 -0.0599,-0.0533 -0.0977,-0.0684 -0.0377,-0.0151 -0.0725,-0.0219 -0.11328,-0.0273 -0.0816,-0.0109 -0.19451,-0.0173 -0.39453,-0.0215 -0.40003,-0.008 -1.14097,-0.008 -2.55664,-0.008 z m -2.5625,0.72071 h 2.55664 2.55469 v 2.55468 2.55469 h -2.55469 -2.55664 v -2.55469 z m 3.33008,1.33007 c -0.0535,0 -0.12566,0.004 -0.19532,0.0527 -0.0697,0.0486 -0.0976,0.11384 -0.11523,0.16406 -0.009,0.0266 -0.0266,0.0772 -0.0195,0.14258 0.007,0.0654 0.0384,0.11824 0.0703,0.16016 0.0639,0.0838 0.15391,0.16581 0.33008,0.33203 l 0.0156,0.0156 h -0.22851 -0.78125 l -0.25781,0.24805 c -0.0225,0.0216 -0.0383,0.034 -0.0586,0.0527 -0.16144,-0.19819 -0.41446,-0.50085 -0.5039,-0.5957 -0.0403,-0.0428 -0.0828,-0.079 -0.12696,-0.10938 -0.0441,-0.0303 -0.0646,-0.0683 -0.18164,-0.0683 -0.11061,-1e-5 -0.11734,0.0308 -0.14843,0.0508 -0.0311,0.02 -0.063,0.0437 -0.0957,0.0703 -0.0655,0.0532 -0.13792,0.12057 -0.21094,0.19141 -0.073,0.0708 -0.14567,0.14498 -0.20312,0.21093 -0.0287,0.033 -0.0523,0.0632 -0.0742,0.0937 -0.0219,0.0305 -0.0434,0.0488 -0.0606,0.11719 -0.0297,0.11826 0.01,0.21677 0.0664,0.29102 0.0567,0.0742 0.1438,0.14062 0.26758,0.14062 0.0951,0 0.10347,-0.0235 0.13086,-0.0391 0.0274,-0.0155 0.0541,-0.0342 0.082,-0.0547 0.0558,-0.0409 0.11756,-0.0923 0.17969,-0.15039 0.0246,-0.023 0.0406,-0.0369 0.0625,-0.0566 0.0753,0.0916 0.14156,0.17463 0.25,0.30273 0.0812,0.096 0.16147,0.19088 0.22265,0.26172 0.0306,0.0354 0.0563,0.0636 0.0762,0.0859 0.01,0.0112 0.0179,0.0212 0.0254,0.0293 l 0.0117,0.0117 c 0.004,0.004 0.0266,0.0229 0.0274,0.0234 v 0.002 c 0.0387,0.0273 0.10159,0.0542 0.16601,0.0547 0.0644,5.3e-4 0.1186,-0.0216 0.16407,-0.0469 0.0909,-0.0505 0.16868,-0.1229 0.29101,-0.23828 l 0.19531,-0.1836 h 0.55664 0.15625 l -0.008,0.008 c -0.10027,0.0942 -0.1914,0.18457 -0.25976,0.25781 -0.0342,0.0366 -0.0627,0.0686 -0.0859,0.0977 -0.0116,0.0145 -0.0222,0.0275 -0.0332,0.0449 -0.006,0.009 -0.0108,0.018 -0.0176,0.0332 -0.003,0.008 -0.008,0.0166 -0.0117,0.0293 -0.004,0.0127 -0.008,0.0539 -0.008,0.0547 0,0.0804 0.0214,0.0992 0.0293,0.11915 0.008,0.0199 0.01,0.0324 0.008,0.0195 l 0.004,0.0254 0.01,0.0234 0.004,0.006 0.002,0.004 c 0.031,0.058 0.10009,0.14063 0.20117,0.1582 0.10108,0.0176 0.1776,-0.0201 0.24609,-0.0605 0.13699,-0.0808 0.28972,-0.22069 0.54883,-0.46289 0.13614,-0.12726 0.26264,-0.24851 0.35742,-0.34375 0.0474,-0.0476 0.0868,-0.088 0.11719,-0.1211 0.0152,-0.0166 0.0292,-0.0304 0.041,-0.0449 0.0118,-0.0145 0.0187,-0.01 0.043,-0.0742 0.0356,-0.0942 0.0354,-0.14817 0,-0.24219 -0.0242,-0.0644 -0.0311,-0.0597 -0.043,-0.0742 -0.0118,-0.0145 -0.0258,-0.0284 -0.041,-0.0449 -0.0303,-0.0331 -0.0698,-0.0735 -0.11719,-0.12109 -0.0947,-0.0952 -0.21941,-0.21846 -0.35547,-0.3457 -0.2081,-0.19459 -0.33499,-0.30956 -0.43164,-0.38477 -0.0966,-0.0752 -0.19069,-0.12305 -0.28515,-0.12305 z m -2.05078,0.80274 c 0.004,0.003 0.008,0.004 0.0117,0.008 -0.0114,5.4e-4 -0.016,0.002 -0.0234,0.002 0.001,-9.4e-4 0.003,-0.003 0.004,-0.004 0.003,-0.003 0.005,-0.003 0.008,-0.006 z m -0.13086,0.30664 c 0.002,0.002 0.01,0.0113 0.0117,0.0137 -9e-4,-6.9e-4 -0.006,-0.004 -0.006,-0.004 z m 0.91992,0.50976 c 0.004,-1.6e-4 0.004,1.8e-4 0.008,0 -0.001,7.7e-4 -0.005,0.003 -0.006,0.004 -9.1e-4,-0.001 -0.001,-0.003 -0.002,-0.004 z"
         id="path18036"
         sodipodi:nodetypes="ccccsccsccccsccccsccssccccccccccccccccccccccccccccccccccsccsccscccccsccccccccccccccscccccccccccsccccccccccccscccccccccc" />
    </g>
  </g>
</svg>
