<?xml version="1.0" encoding="UTF-8" standalone="no"?>
<!-- Created with Inkscape (http://www.inkscape.org/) -->

<svg
   sodipodi:docname="stealth-armor.svg"
   inkscape:version="1.2.2 (b0a8486541, 2022-12-01)"
   id="svg8"
   version="1.1"
   viewBox="0 0 6.8589293 6.8461938"
   height="6.8461938mm"
   width="6.8589292mm"
   xmlns:inkscape="http://www.inkscape.org/namespaces/inkscape"
   xmlns:sodipodi="http://sodipodi.sourceforge.net/DTD/sodipodi-0.dtd"
   xmlns="http://www.w3.org/2000/svg"
   xmlns:svg="http://www.w3.org/2000/svg"
   xmlns:rdf="http://www.w3.org/1999/02/22-rdf-syntax-ns#"
   xmlns:cc="http://creativecommons.org/ns#"
   xmlns:dc="http://purl.org/dc/elements/1.1/">
  <defs
     id="defs2" />
  <sodipodi:namedview
     id="base"
     pagecolor="#ffffff"
     bordercolor="#666666"
     borderopacity="1.0"
     inkscape:pageopacity="0.0"
     inkscape:pageshadow="2"
     inkscape:zoom="4"
     inkscape:cx="-50.625"
     inkscape:cy="-27.25"
     inkscape:document-units="mm"
     inkscape:current-layer="layer1"
     showgrid="false"
     inkscape:window-width="1549"
     inkscape:window-height="773"
     inkscape:window-x="181"
     inkscape:window-y="200"
     inkscape:window-maximized="0"
     inkscape:snap-global="false"
     fit-margin-top="0"
     fit-margin-left="0"
     fit-margin-right="0"
     fit-margin-bottom="0"
     showguides="false"
     inkscape:guide-bbox="true"
     inkscape:showpageshadow="2"
     inkscape:pagecheckerboard="0"
     inkscape:deskcolor="#d1d1d1" />
  <metadata
     id="metadata5">
    <rdf:RDF>
      <cc:Work
         rdf:about="">
        <dc:format>image/svg+xml</dc:format>
        <dc:type
           rdf:resource="http://purl.org/dc/dcmitype/StillImage" />
        <dc:title />
      </cc:Work>
    </rdf:RDF>
  </metadata>
  <g
     inkscape:label="Capa 1"
     inkscape:groupmode="layer"
     id="layer1"
     transform="translate(-150.4884,-112.94971)">
    <rect
       style="opacity:1;vector-effect:none;fill:#1a1a1a;fill-opacity:1;stroke:none;stroke-width:0.1;stroke-linecap:butt;stroke-linejoin:miter;stroke-miterlimit:4;stroke-dasharray:none;stroke-dashoffset:0;stroke-opacity:1"
       id="rect860"
       width="7.0941477"
       height="0"
       x="148.86763"
       y="129.31949" />
    <g
       id="g20649">
      <path
         id="path831-2-3"
         style="display:inline;fill:#000000;fill-opacity:1;stroke-width:0.01443335"
         d="M 151.8356 114.00339 L 151.8356 114.00391 C 151.7909 114.00417 151.74681 114.00666 151.70331 114.01166 C 151.16002 114.07946 150.68677 114.43777 150.53232 114.89791 C 150.49593 115.00652 150.4867 115.08869 150.507 115.11909 C 150.5371 115.16419 150.58231 115.17048 150.74937 115.15268 C 151.07328 115.11808 151.26791 115.17418 151.45682 115.35731 C 151.52452 115.42301 151.57981 115.46453 151.6103 115.47152 C 151.6669 115.48482 151.74392 115.47555 151.79788 115.44775 C 151.81928 115.43695 151.9143 115.33882 152.00872 115.22967 C 152.22623 114.97816 152.37197 114.8415 152.53737 114.73565 C 152.69764 114.633 152.74448 114.58829 152.75648 114.52429 C 152.76918 114.45649 152.74108 114.39604 152.65468 114.30415 C 152.48061 114.11905 152.14919 114.00099 151.83612 114.00339 L 151.8356 114.00339 z M 155.99711 114.00391 C 155.68403 114.00191 155.35263 114.11959 155.17855 114.30467 C 155.09205 114.39657 155.06402 114.45701 155.07675 114.52481 C 155.08875 114.58881 155.13555 114.63348 155.29586 114.73616 C 155.46123 114.84204 155.6072 114.97839 155.82451 115.22967 C 155.99773 115.42994 156.02468 115.45357 156.10304 115.47307 C 156.12684 115.47907 156.16001 115.48072 156.17591 115.47772 C 156.19181 115.47372 156.21629 115.47204 156.23069 115.47204 C 156.24509 115.47193 156.30839 115.42233 156.37125 115.36248 C 156.57024 115.17287 156.75782 115.11778 157.08438 115.15268 C 157.34716 115.18078 157.38204 115.14018 157.3009 114.89843 C 157.14644 114.4383 156.67321 114.07998 156.12992 114.01218 C 156.08642 114.00718 156.04231 114.00391 155.99762 114.00391 L 155.99711 114.00391 z M 152.98644 114.60594 C 152.97758 114.60733 152.97534 114.61359 152.97249 114.62454 C 152.95639 114.68854 152.87368 114.79117 152.7973 114.84158 C 152.7538 114.87028 152.68142 114.91779 152.63607 114.94752 C 152.51694 115.02572 152.39319 115.1455 152.17564 115.39349 C 152.01124 115.5809 151.97096 115.61854 151.894 115.65704 C 151.8446 115.68164 151.79234 115.70148 151.77773 115.70148 C 151.75403 115.70148 151.75127 115.71478 151.75137 115.82085 C 151.75145 115.88635 151.77448 116.33981 151.78238 116.45492 C 151.83158 117.16762 151.78837 116.97702 152.02474 117.6812 L 152.21439 118.38607 L 152.82314 118.38607 C 152.87397 118.18851 152.91337 118.03497 152.96577 117.83003 C 153.01945 117.62012 153.0706 117.42436 153.1084 117.27554 C 153.1403 117.14979 153.15824 117.08042 153.16524 117.05282 L 152.80971 117.04507 C 152.55403 117.04057 152.42903 117.0416 152.31154 117.0213 C 152.19406 117.00101 152.06739 116.90185 152.02629 116.85335 C 151.92719 116.73547 151.88946 116.54931 151.95446 116.3986 C 151.98346 116.3317 151.99092 116.33318 152.00872 116.30868 C 152.02692 116.28358 152.04958 116.25373 152.07538 116.22083 C 152.12693 116.15508 152.19277 116.07562 152.26297 115.99242 C 152.40591 115.82311 152.8449 115.29943 153.3275 114.72325 C 153.25558 114.70243 153.18536 114.67856 153.12028 114.65193 C 153.05158 114.62383 153.01652 114.60924 152.99781 114.60594 C 152.99313 114.60519 152.98939 114.60548 152.98644 114.60594 z M 154.91449 114.72428 C 154.7944 115.19369 154.7256 115.46208 154.69279 115.60536 C 154.68309 115.64586 154.68336 115.65541 154.67936 115.67771 C 154.68418 115.67826 154.67849 115.67738 154.68349 115.67771 C 154.7086 115.67971 154.74495 115.68239 154.78685 115.68339 C 154.87066 115.68639 154.97919 115.68719 155.08967 115.68753 C 155.31421 115.68803 155.42478 115.68403 155.53667 115.70303 C 155.64857 115.72199 155.77291 115.82076 155.81211 115.86736 C 155.89301 115.96351 155.93786 116.1539 155.89996 116.27716 C 155.84446 116.45597 155.76157 116.50953 154.56825 117.92977 C 154.52182 117.98505 154.32494 118.22045 154.18637 118.38607 L 154.82509 118.38607 L 155.61832 118.38607 L 155.79144 117.6812 C 156.02743 116.97702 156.03419 117.16762 156.08341 116.45492 C 156.09141 116.33981 156.08134 115.88636 156.08134 115.82085 C 156.08148 115.71479 156.07839 115.70148 156.05499 115.70148 C 156.04039 115.70148 155.98808 115.68164 155.93871 115.65704 C 155.86171 115.61854 155.82147 115.58094 155.65708 115.39349 C 155.43796 115.14372 155.31593 115.02584 155.19302 114.94494 C 155.14572 114.91374 155.07327 114.86624 155.03179 114.839 C 154.99101 114.81224 154.94788 114.76878 154.91449 114.72428 z M 154.38842 114.75373 C 154.31591 114.77073 154.24388 114.78419 154.17655 114.79249 C 154.12495 114.79849 154.09625 114.80248 154.07423 114.80438 L 153.91506 114.80438 C 153.36009 115.4672 152.81199 116.12153 152.64744 116.31643 C 152.58147 116.39456 152.51814 116.47024 152.47174 116.52934 C 152.52851 116.53404 152.60904 116.53929 152.81952 116.54329 L 153.36626 116.55311 L 153.48718 116.64509 C 153.55284 116.69513 153.61781 116.76593 153.65151 116.85593 C 153.68521 116.94597 153.68335 117.04282 153.66495 117.12362 C 153.65605 117.16272 153.63257 117.24979 153.59467 117.39905 C 153.55677 117.54831 153.50781 117.74551 153.45411 117.95561 C 153.41357 118.11421 153.37909 118.24653 153.34301 118.38607 L 153.52956 118.38607 C 153.80835 118.05294 154.10251 117.70124 154.18275 117.60576 C 155.09011 116.52587 155.30698 116.24329 155.35219 116.19706 C 155.30175 116.19427 155.24828 116.19223 155.08915 116.19189 L 155.08709 116.19189 C 154.97199 116.19089 154.85956 116.18869 154.76876 116.18569 C 154.72337 116.18369 154.68505 116.18149 154.65145 116.17949 C 154.61905 116.17779 154.60118 116.17862 154.55378 116.16812 C 154.37886 116.13059 154.23571 116.02875 154.17861 115.83791 C 154.16391 115.78733 154.16125 115.72289 154.16725 115.67409 C 154.17335 115.62532 154.18409 115.57426 154.20239 115.49426 C 154.23336 115.35902 154.29632 115.11332 154.38842 114.75373 z M 152.23506 118.50286 L 152.23506 118.74264 L 152.73116 118.74264 C 152.74887 118.67412 152.77229 118.58389 152.79317 118.50286 L 152.23506 118.50286 z M 153.31303 118.50286 C 153.29623 118.56785 153.27775 118.6398 153.26084 118.70543 C 153.31686 118.63895 153.35777 118.59095 153.41897 118.51785 C 153.42431 118.51146 153.42602 118.50925 153.43137 118.50286 L 153.31303 118.50286 z M 154.0887 118.50286 C 154.00909 118.59801 153.97389 118.6396 153.88768 118.74264 L 155.60023 118.74264 L 155.60023 118.50286 L 154.0887 118.50286 z " />
      <path
         style="color:#000000;fill:#000000;stroke-width:0.503;-inkscape-stroke:none"
         d="m 152.90575,119.39378 c -0.0251,-0.011 -0.0493,-0.0333 -0.0535,-0.0497 -0.004,-0.0164 0.0238,-0.15138 0.0625,-0.30003 0.12875,-0.49532 0.48539,-1.89029 0.50241,-1.9651 0.0214,-0.094 -0.004,-0.16225 -0.0834,-0.22271 l -0.0556,-0.0424 -0.46541,-0.008 c -0.51107,-0.009 -0.51694,-0.01 -0.59569,-0.10289 -0.0496,-0.059 -0.0622,-0.12894 -0.0346,-0.19297 0.0118,-0.0277 0.13359,-0.18292 0.27045,-0.34502 0.25703,-0.30444 1.47278,-1.7546 2.15132,-2.56613 0.22187,-0.26536 0.24426,-0.28239 0.32608,-0.24798 0.0575,0.0242 0.0642,0.0478 0.0403,0.14159 -0.011,0.0434 -0.14382,0.56268 -0.2951,1.15408 -0.25135,0.98251 -0.27366,1.07995 -0.25875,1.1297 0.022,0.0735 0.10013,0.13907 0.18823,0.15797 0.0393,0.009 0.25604,0.0159 0.48163,0.0166 0.44834,9.7e-4 0.45788,0.003 0.53065,0.0895 0.05,0.0595 0.0611,0.1072 0.0406,0.17389 -0.0167,0.0538 -0.0908,0.14417 -1.28404,1.56431 -0.0932,0.11094 -0.43676,0.52109 -0.76344,0.91145 -0.32669,0.39037 -0.5997,0.70976 -0.60669,0.70976 -0.007,0 -0.0216,0.003 -0.0323,0.007 -0.0108,0.004 -0.0403,-0.002 -0.0654,-0.0131 z"
         id="path18566" />
    </g>
  </g>
</svg>
