<?xml version="1.0" encoding="UTF-8" standalone="no"?>
<!-- Created with Inkscape (http://www.inkscape.org/) -->

<svg
   sodipodi:docname="targeting computer.svg"
   inkscape:version="1.1.2 (0a00cf5339, 2022-02-04)"
   id="svg8"
   version="1.1"
   viewBox="0 0 6.8589293 6.8461938"
   height="6.8461938mm"
   width="6.8589292mm"
   xmlns:inkscape="http://www.inkscape.org/namespaces/inkscape"
   xmlns:sodipodi="http://sodipodi.sourceforge.net/DTD/sodipodi-0.dtd"
   xmlns="http://www.w3.org/2000/svg"
   xmlns:svg="http://www.w3.org/2000/svg"
   xmlns:rdf="http://www.w3.org/1999/02/22-rdf-syntax-ns#"
   xmlns:cc="http://creativecommons.org/ns#"
   xmlns:dc="http://purl.org/dc/elements/1.1/">
  <defs
     id="defs2" />
  <sodipodi:namedview
     id="base"
     pagecolor="#ffffff"
     bordercolor="#666666"
     borderopacity="1.0"
     inkscape:pageopacity="0.0"
     inkscape:pageshadow="2"
     inkscape:zoom="22.627417"
     inkscape:cx="10.761281"
     inkscape:cy="6.6512232"
     inkscape:document-units="mm"
     inkscape:current-layer="layer1"
     showgrid="false"
     inkscape:window-width="1850"
     inkscape:window-height="1016"
     inkscape:window-x="70"
     inkscape:window-y="1107"
     inkscape:window-maximized="1"
     inkscape:snap-global="false"
     fit-margin-top="0"
     fit-margin-left="0"
     fit-margin-right="0"
     fit-margin-bottom="0"
     showguides="false"
     inkscape:guide-bbox="true"
     inkscape:pagecheckerboard="0" />
  <metadata
     id="metadata5">
    <rdf:RDF>
      <cc:Work
         rdf:about="">
        <dc:format>image/svg+xml</dc:format>
        <dc:type
           rdf:resource="http://purl.org/dc/dcmitype/StillImage" />
      </cc:Work>
    </rdf:RDF>
  </metadata>
  <g
     inkscape:label="Capa 1"
     inkscape:groupmode="layer"
     id="layer1"
     transform="translate(-150.4884,-112.94971)">
    <rect
       style="opacity:1;vector-effect:none;fill:#1a1a1a;fill-opacity:1;stroke:none;stroke-width:0.1;stroke-linecap:butt;stroke-linejoin:miter;stroke-miterlimit:4;stroke-dasharray:none;stroke-dashoffset:0;stroke-opacity:1"
       id="rect860"
       width="7.0941477"
       height="0"
       x="148.86763"
       y="129.31949" />
    <path
       id="path1074"
       style="color:#000000;fill:#000000;stroke-width:3.77953;stroke-linejoin:round;-inkscape-stroke:none"
       d="M 1.5566406 3.0976562 C 0.68716031 3.0976562 -0.044921875 3.8316916 -0.044921875 4.7011719 L -0.044921875 21.177734 C -0.044921875 22.047215 0.68716031 22.771484 1.5566406 22.771484 L 24.367188 22.771484 C 25.23663 22.771484 25.96875 22.047215 25.96875 21.177734 L 25.96875 4.7011719 C 25.968788 3.8316916 25.23663 3.0976562 24.367188 3.0976562 L 1.5566406 3.0976562 z M 2.8398438 5.0390625 L 23.083984 5.0390625 L 21.082031 6.4570312 L 5.1367188 6.4570312 C 5.0519792 6.4570312 4.9702569 6.4692077 4.8925781 6.4921875 L 2.8398438 5.0390625 z M 1.8964844 5.5957031 L 4.2695312 7.2773438 C 4.2685194 7.2943825 4.265625 7.3108495 4.265625 7.328125 L 4.265625 18.179688 C 4.265625 18.280615 4.286221 18.376867 4.3183594 18.466797 L 1.8964844 20.183594 L 1.8964844 5.5957031 z M 24.027344 5.5976562 L 24.027344 20.183594 L 21.833984 18.626953 C 21.913927 18.496622 21.960938 18.34354 21.960938 18.179688 L 21.960938 7.328125 C 21.960938 7.2440376 21.948422 7.1630853 21.925781 7.0859375 L 24.027344 5.5976562 z M 5.5097656 6.9296875 L 20.414062 6.9296875 L 16.554688 9.6640625 C 15.854779 8.8968282 14.914529 8.353682 13.853516 8.15625 L 13.853516 7.7167969 L 12.070312 7.7167969 L 12.070312 8.15625 C 11.009268 8.3536876 10.069055 8.8967933 9.3691406 9.6640625 L 5.5097656 6.9296875 z M 21.488281 7.3945312 L 21.488281 18.179688 C 21.488281 18.243361 21.473816 18.302995 21.449219 18.355469 L 17.193359 15.335938 C 17.455692 14.875103 17.643958 14.368401 17.744141 13.830078 L 18.193359 13.830078 L 18.193359 12.044922 L 17.744141 12.044922 C 17.638481 11.478424 17.434696 10.946489 17.150391 10.466797 L 21.488281 7.3945312 z M 4.7382812 7.609375 L 8.7734375 10.46875 C 8.4896895 10.947988 8.2852047 11.479117 8.1796875 12.044922 L 7.7304688 12.044922 L 7.7304688 13.830078 L 8.1796875 13.830078 C 8.2798783 14.368503 8.4700229 14.875031 8.7324219 15.335938 L 4.7382812 18.167969 L 4.7382812 7.609375 z M 12.070312 9.3398438 L 12.070312 10.115234 L 13.853516 10.115234 L 13.853516 9.3398438 C 15.187531 9.6666223 16.233045 10.711182 16.560547 12.044922 L 15.792969 12.044922 L 15.792969 13.830078 L 16.560547 13.830078 C 16.233549 15.164674 15.188137 16.210176 13.853516 16.537109 L 13.853516 15.759766 L 12.070312 15.759766 L 12.070312 16.537109 C 10.735631 16.210162 9.6902291 15.16476 9.3632812 13.830078 L 10.130859 13.830078 L 10.130859 12.044922 L 9.3652344 12.044922 C 9.6928128 10.711315 10.736389 9.6665996 12.070312 9.3398438 z M 9.3164062 16.154297 C 10.021366 16.952302 10.982629 17.518283 12.070312 17.720703 L 12.070312 18.160156 L 13.853516 18.160156 L 13.853516 17.720703 C 14.941199 17.518283 15.902462 16.952302 16.607422 16.154297 L 20.029297 18.578125 L 5.8945312 18.578125 L 9.3164062 16.154297 z M 5.2382812 19.042969 L 20.685547 19.042969 L 23.220703 20.837891 L 2.703125 20.837891 L 5.2382812 19.042969 z "
       transform="matrix(0.26458333,0,0,0.26458333,150.4884,112.94971)" />
  </g>
</svg>
