<?xml version="1.0" encoding="UTF-8" standalone="no"?>
<!-- Created with Inkscape (http://www.inkscape.org/) -->

<svg
   sodipodi:docname="thermometer-min.svg"
   inkscape:version="1.1.2 (0a00cf5339, 2022-02-04)"
   id="svg8"
   version="1.1"
   viewBox="0 0 6.8589293 6.8461938"
   height="6.8461938mm"
   width="6.8589292mm"
   xmlns:inkscape="http://www.inkscape.org/namespaces/inkscape"
   xmlns:sodipodi="http://sodipodi.sourceforge.net/DTD/sodipodi-0.dtd"
   xmlns="http://www.w3.org/2000/svg"
   xmlns:svg="http://www.w3.org/2000/svg"
   xmlns:rdf="http://www.w3.org/1999/02/22-rdf-syntax-ns#"
   xmlns:cc="http://creativecommons.org/ns#"
   xmlns:dc="http://purl.org/dc/elements/1.1/">
  <defs
     id="defs2" />
  <sodipodi:namedview
     id="base"
     pagecolor="#ffffff"
     bordercolor="#666666"
     borderopacity="1.0"
     inkscape:pageopacity="0.0"
     inkscape:pageshadow="2"
     inkscape:zoom="32"
     inkscape:cx="19.859375"
     inkscape:cy="15.625"
     inkscape:document-units="mm"
     inkscape:current-layer="layer1"
     showgrid="false"
     inkscape:window-width="1920"
     inkscape:window-height="1043"
     inkscape:window-x="1920"
     inkscape:window-y="1080"
     inkscape:window-maximized="1"
     inkscape:snap-global="false"
     fit-margin-top="0"
     fit-margin-left="0"
     fit-margin-right="0"
     fit-margin-bottom="0"
     showguides="false"
     inkscape:guide-bbox="true"
     inkscape:pagecheckerboard="0" />
  <metadata
     id="metadata5">
    <rdf:RDF>
      <cc:Work
         rdf:about="">
        <dc:format>image/svg+xml</dc:format>
        <dc:type
           rdf:resource="http://purl.org/dc/dcmitype/StillImage" />
      </cc:Work>
    </rdf:RDF>
  </metadata>
  <g
     inkscape:label="Capa 1"
     inkscape:groupmode="layer"
     id="layer1"
     transform="translate(-150.4884,-112.94971)">
    <rect
       style="opacity:1;vector-effect:none;fill:#1a1a1a;fill-opacity:1;stroke:none;stroke-width:0.1;stroke-linecap:butt;stroke-linejoin:miter;stroke-miterlimit:4;stroke-dasharray:none;stroke-dashoffset:0;stroke-opacity:1"
       id="rect860"
       width="7.0941477"
       height="0"
       x="148.86763"
       y="129.31949" />
    <path
       style="display:inline;fill:#000000;stroke-width:0.00694871"
       d="m 153.46606,119.77106 c -0.43106,-0.0423 -0.8398,-0.29251 -1.07851,-0.66037 -0.11092,-0.17103 -0.18282,-0.35176 -0.22093,-0.5559 -0.019,-0.1015 -0.0259,-0.31259 -0.0145,-0.41746 0.0453,-0.3913 0.22897,-0.72913 0.53403,-0.98212 l 0.0915,-0.0759 0.001,-0.38972 c 0.001,-0.21435 0.003,-0.98682 0.004,-1.71659 l 0.001,-1.32688 0.025,-0.0698 c 0.0482,-0.13452 0.12106,-0.26187 0.19985,-0.3492 0.0959,-0.10629 0.27803,-0.21022 0.42486,-0.24228 0.0417,-0.009 0.0892,-0.0116 0.19417,-0.013 0.12295,-3.2e-4 0.14604,0.001 0.20013,0.0155 0.15585,0.0404 0.27937,0.11426 0.39568,0.23646 0.13844,0.14544 0.21407,0.31302 0.2278,0.50448 0.004,0.0647 0.0145,2.43896 0.0145,3.31917 l -3e-5,0.0324 0.0608,0.0473 c 0.2664,0.20772 0.46015,0.50987 0.53676,0.83703 0.0497,0.21213 0.0485,0.46453 -0.003,0.6767 -0.0378,0.15584 -0.11179,0.3301 -0.19469,0.45862 -0.22945,0.35579 -0.60165,0.60143 -1,0.65994 -0.0886,0.013 -0.31594,0.0191 -0.40088,0.0101 z m 0.68305,-6.09774 -0.0248,-0.0572 c -0.0646,-0.14895 -0.21354,-0.28565 -0.35277,-0.32373 -0.0526,-0.0145 -0.15779,-0.0197 -0.2328,-0.0116 -0.19499,0.0206 -0.36847,0.17854 -0.43136,0.39271 l -0.0192,2.45768 c 6.5e-4,6.4e-4 0.24143,3.2e-4 0.53509,-6.5e-4 l 0.53394,-10e-4 -0.008,-2.45621 z m 0.67926,3.20053 c -0.0747,-0.006 -0.11266,-0.0256 -0.1351,-0.0701 -0.0268,-0.0532 -0.0172,-0.10441 0.0288,-0.15369 l 0.0317,-0.0339 0.38643,1.3e-4 c 0.38684,1.3e-4 0.46805,0.004 0.49945,0.0248 0.0216,0.0145 0.0416,0.0479 0.0469,0.0797 0.0116,0.0647 -0.0353,0.13365 -0.0973,0.14502 -0.0427,0.007 -0.67923,0.0146 -0.76089,0.009 z m -0.0436,-0.80696 c -0.071,-0.0116 -0.10354,-0.0505 -0.10412,-0.12337 -5.9e-4,-0.0657 0.0288,-0.10383 0.0928,-0.11961 0.0193,-0.004 0.17868,-0.009 0.42878,-0.0116 l 0.3982,-0.004 0.0243,0.0236 c 0.0837,0.0808 0.0856,0.138 0.007,0.21988 l -0.0216,0.0226 -0.39645,-9.7e-4 c -0.21805,-3.4e-4 -0.41137,-0.003 -0.4296,-0.006 z m 0.009,-0.79851 -0.0588,-0.004 -0.0227,-0.0298 c -0.0397,-0.0521 -0.0445,-0.0982 -0.0156,-0.155 0.0145,-0.0271 0.0376,-0.0458 0.0717,-0.0559 0.0116,-0.004 0.19998,-0.006 0.43167,-0.006 l 0.40998,6e-5 0.0324,0.0337 c 0.0401,0.0418 0.0523,0.0792 0.0407,0.12526 -0.0101,0.0413 -0.0287,0.066 -0.0608,0.082 -0.0246,0.0116 -0.0489,0.013 -0.39796,0.013 -0.20446,1.9e-4 -0.39819,-10e-4 -0.4305,-0.003 z m -0.0718,-0.82641 c -0.0533,-0.057 -0.0573,-0.11063 -0.013,-0.17229 0.0395,-0.0545 0.0209,-0.0526 0.47229,-0.0491 0.27845,0.003 0.40837,0.006 0.42608,0.0116 0.0323,0.0101 0.0654,0.0478 0.0756,0.0851 0.0148,0.055 -0.0145,0.12309 -0.0588,0.13786 -0.0462,0.0152 -0.1862,0.0209 -0.52598,0.0209 l -0.34474,1.1e-4 z m 0.007,-0.7924 c -0.0326,-0.0361 -0.0442,-0.0552 -0.0497,-0.0817 -0.007,-0.0348 0.007,-0.0743 0.0421,-0.11281 l 0.0319,-0.0353 0.3659,2.5e-4 c 0.39998,2.7e-4 0.49325,0.004 0.5211,0.0256 0.0436,0.0326 0.0576,0.11251 0.0294,0.16787 -0.0264,0.0516 -0.0261,0.0516 -0.25313,0.0572 -0.11135,0.003 -0.30602,0.006 -0.43265,0.006 l -0.23024,6.6e-4 z"
       id="path1171"
       inkscape:connector-curvature="0"
       sodipodi:nodetypes="ccccccccccccccccccccccccccccccccccccccscccccccccccccccccccccccccccccccccccccccccccccccccc" />
  </g>
</svg>
