<?xml version="1.0" encoding="UTF-8" standalone="no"?>
<!-- Created with Inkscape (http://www.inkscape.org/) -->

<svg
   xmlns:dc="http://purl.org/dc/elements/1.1/"
   xmlns:cc="http://creativecommons.org/ns#"
   xmlns:rdf="http://www.w3.org/1999/02/22-rdf-syntax-ns#"
   xmlns:svg="http://www.w3.org/2000/svg"
   xmlns="http://www.w3.org/2000/svg"
   xmlns:sodipodi="http://sodipodi.sourceforge.net/DTD/sodipodi-0.dtd"
   xmlns:inkscape="http://www.inkscape.org/namespaces/inkscape"
   sodipodi:docname="torso.svg"
   inkscape:version="0.92.5 (2060ec1f9f, 2020-04-08)"
   id="svg8"
   version="1.1"
   viewBox="0 0 6.8589293 6.8461938"
   height="6.8461938mm"
   width="6.8589292mm">
  <defs
     id="defs2" />
  <sodipodi:namedview
     id="base"
     pagecolor="#ffffff"
     bordercolor="#666666"
     borderopacity="1.0"
     inkscape:pageopacity="0.0"
     inkscape:pageshadow="2"
     inkscape:zoom="5.6568542"
     inkscape:cx="19.478204"
     inkscape:cy="7.4961823"
     inkscape:document-units="mm"
     inkscape:current-layer="layer1"
     showgrid="false"
     inkscape:window-width="924"
     inkscape:window-height="1016"
     inkscape:window-x="996"
     inkscape:window-y="27"
     inkscape:window-maximized="0"
     inkscape:snap-global="false"
     fit-margin-top="0"
     fit-margin-left="0"
     fit-margin-right="0"
     fit-margin-bottom="0"
     showguides="false"
     inkscape:guide-bbox="true" />
  <metadata
     id="metadata5">
    <rdf:RDF>
      <cc:Work
         rdf:about="">
        <dc:format>image/svg+xml</dc:format>
        <dc:type
           rdf:resource="http://purl.org/dc/dcmitype/StillImage" />
        <dc:title></dc:title>
      </cc:Work>
    </rdf:RDF>
  </metadata>
  <g
     inkscape:label="Capa 1"
     inkscape:groupmode="layer"
     id="layer1"
     transform="translate(-150.4884,-112.94971)">
    <rect
       style="opacity:1;vector-effect:none;fill:#1a1a1a;fill-opacity:1;stroke:none;stroke-width:0.1;stroke-linecap:butt;stroke-linejoin:miter;stroke-miterlimit:4;stroke-dasharray:none;stroke-dashoffset:0;stroke-opacity:1"
       id="rect860"
       width="7.0941477"
       height="0"
       x="148.86763"
       y="129.31949" />
    <path
       style="display:inline;fill:#000000;fill-opacity:1;stroke-width:0.01443335"
       d="m 151.83585,114.00319 v 5.1e-4 c -0.0447,2.6e-4 -0.0888,0.003 -0.1323,0.008 -0.54329,0.0678 -1.01653,0.42611 -1.17098,0.88625 -0.0364,0.10861 -0.0461,0.19077 -0.0258,0.22117 0.0301,0.0451 0.0753,0.0514 0.24236,0.0336 0.32391,-0.0346 0.51854,0.0215 0.70745,0.20464 0.0677,0.0657 0.12299,0.10721 0.15348,0.1142 0.0566,0.0133 0.13363,0.004 0.18759,-0.0238 0.0214,-0.0108 0.11641,-0.10892 0.21083,-0.21807 0.21751,-0.25151 0.36325,-0.38818 0.52865,-0.49403 0.16027,-0.10265 0.20711,-0.14735 0.21911,-0.21135 0.0127,-0.0678 -0.0154,-0.12825 -0.1018,-0.22014 -0.17407,-0.1851 -0.50548,-0.30316 -0.81855,-0.30076 z m 4.1615,5.1e-4 c -0.31308,-0.002 -0.64448,0.11568 -0.81856,0.30076 -0.0865,0.0919 -0.11453,0.15234 -0.1018,0.22014 0.012,0.064 0.0588,0.10868 0.21911,0.21136 0.16537,0.10588 0.31134,0.24223 0.52865,0.49351 0.17322,0.20027 0.20017,0.22389 0.27853,0.24339 0.0238,0.006 0.0565,0.008 0.0724,0.005 0.0159,-0.004 0.0404,-0.006 0.0548,-0.006 0.0144,-1.1e-4 0.0777,-0.0497 0.14056,-0.10955 0.199,-0.18961 0.38658,-0.24471 0.71314,-0.20981 0.26278,0.0281 0.29766,-0.0125 0.21652,-0.25425 -0.15446,-0.46013 -0.6277,-0.81845 -1.17099,-0.88625 -0.0435,-0.005 -0.0876,-0.008 -0.13229,-0.008 z m -1.16221,0.60204 c -0.0188,0.003 -0.0538,0.0178 -0.12247,0.046 -0.16394,0.067 -0.36483,0.11946 -0.53588,0.14056 -0.0516,0.006 -0.0803,0.01 -0.10232,0.0119 h -0.32195 v 0.001 l -0.0848,-0.0109 c -0.18275,-0.0232 -0.38077,-0.0745 -0.54725,-0.14262 -0.0687,-0.0281 -0.10376,-0.0422 -0.12247,-0.0455 -0.0187,-0.003 -0.0215,0.004 -0.0253,0.0186 -0.0161,0.064 -0.0988,0.16663 -0.17518,0.21704 -0.0435,0.0287 -0.11588,0.0762 -0.16123,0.10593 -0.11913,0.0782 -0.24289,0.19798 -0.46044,0.44597 -0.1644,0.18741 -0.20468,0.22505 -0.28164,0.26355 -0.0494,0.0246 -0.10166,0.0444 -0.11627,0.0444 -0.0237,0 -0.0265,0.0133 -0.0264,0.11937 8e-5,0.0655 0.0231,0.51896 0.031,0.63407 0.0492,0.7127 0.006,0.52211 0.24237,1.22629 l 0.18965,0.70486 h 0.79323 1.81746 0.79323 l 0.17312,-0.70486 c 0.23599,-0.70418 0.24275,-0.51359 0.29197,-1.22629 0.008,-0.11511 -0.002,-0.56856 -0.002,-0.63407 1.4e-4,-0.10606 -0.003,-0.11937 -0.0264,-0.11937 -0.0146,0 -0.0669,-0.0198 -0.11627,-0.0444 -0.077,-0.0385 -0.11725,-0.0761 -0.28164,-0.26355 -0.21912,-0.24977 -0.34115,-0.36765 -0.46406,-0.44855 -0.0473,-0.0312 -0.11975,-0.0787 -0.16123,-0.10594 -0.0733,-0.0481 -0.15575,-0.15146 -0.17157,-0.21445 -0.004,-0.0153 -0.007,-0.0225 -0.0253,-0.0191 z m -2.59984,3.89692 v 0.23977 h 3.36517 v -0.23977 z"
       id="path831-2-3"
       inkscape:connector-curvature="0" />
  </g>
</svg>
