<?xml version="1.0" encoding="UTF-8" standalone="no"?>
<!-- Created with Inkscape (http://www.inkscape.org/) -->

<svg
   xmlns:dc="http://purl.org/dc/elements/1.1/"
   xmlns:cc="http://creativecommons.org/ns#"
   xmlns:rdf="http://www.w3.org/1999/02/22-rdf-syntax-ns#"
   xmlns:svg="http://www.w3.org/2000/svg"
   xmlns="http://www.w3.org/2000/svg"
   xmlns:sodipodi="http://sodipodi.sourceforge.net/DTD/sodipodi-0.dtd"
   xmlns:inkscape="http://www.inkscape.org/namespaces/inkscape"
   width="26"
   height="26"
   viewBox="0 0 6.8791665 6.8791668"
   version="1.1"
   id="svg8"
   inkscape:version="0.92.5 (2060ec1f9f, 2020-04-08)"
   sodipodi:docname="vehicleBack (copia).svg">
  <defs
     id="defs2" />
  <sodipodi:namedview
     id="base"
     pagecolor="#ffffff"
     bordercolor="#666666"
     borderopacity="1.0"
     inkscape:pageopacity="0.0"
     inkscape:pageshadow="2"
     inkscape:zoom="8"
     inkscape:cx="-28.327164"
     inkscape:cy="-11.954219"
     inkscape:document-units="mm"
     inkscape:current-layer="layer1"
     showgrid="false"
     inkscape:window-width="1848"
     inkscape:window-height="1016"
     inkscape:window-x="72"
     inkscape:window-y="1107"
     inkscape:window-maximized="1"
     inkscape:snap-global="false"
     units="px" />
  <metadata
     id="metadata5">
    <rdf:RDF>
      <cc:Work
         rdf:about="">
        <dc:format>image/svg+xml</dc:format>
        <dc:type
           rdf:resource="http://purl.org/dc/dcmitype/StillImage" />
        <dc:title />
      </cc:Work>
    </rdf:RDF>
  </metadata>
  <g
     inkscape:label="Capa 1"
     inkscape:groupmode="layer"
     id="layer1"
     transform="translate(0,-290.12081)">
    <path
       style="opacity:1;vector-effect:none;fill:#000000;fill-opacity:1;fill-rule:nonzero;stroke:none;stroke-width:0.11241291;stroke-linecap:round;stroke-linejoin:miter;stroke-miterlimit:4;stroke-dasharray:none;stroke-dashoffset:0;stroke-opacity:1"
       d="m 2.6330239,291.23187 -0.7482747,1.48208 1.6748331,0.84543 -0.2139405,0.39377 h -0.960148 v 0.40928 h 2.7657226 l 0.2723348,0.13746 0.7482748,-1.48208 z m -0.4935099,1.9513 -1.0113078,0.004 -0.00155,0.004 -0.12764077,0.0455 -0.42064614,1.01699 0.11007079,0.0894 -0.002584,0.006 1.47019442,0.0372 z m -0.8655803,0.13126 h 0.7513754 v 0.16123 H 1.3726357 Z m -0.190686,0.004 0.1204061,0.19585 -0.24701333,0.72657 H 0.73184799 Z m 2.809131,0.40876 0.4480345,0.22582 H 3.7693887 Z m 2.3636798,0.1204 a 0.37417734,0.37417734 0 0 0 -0.3741373,0.37466 0.37417734,0.37417734 0 0 0 0.3741373,0.37413 0.37417734,0.37417734 0 0 0 0.3741375,-0.37413 0.37417734,0.37417734 0 0 0 -0.3741375,-0.37466 z m -5.52576081,0.55656 c -0.16325257,-0.001 -0.26076735,5.9e-4 -0.27026775,0.005 -0.0788181,0.045 -0.42788084,0.44183 -0.42788084,0.44183 -0.019705,0.0225 -0.050669,0.37993 0,0.44183 0.0015339,7.7e-4 0.09000804,8.3e-4 0.09818522,0.002 l 0.16071371,0.0992 c 0.0113238,0.007 0.0260449,0.003 0.0330729,-0.008 l 0.0304891,-0.0491 c 0.006975,-0.0114 0.003657,-0.0261 -0.007751,-0.0331 l -0.008785,-0.005 c 0.11434654,0.003 0.26942912,0.006 0.52916666,0.008 a 0.45852638,0.45852638 0 0 0 0,0.004 0.45852638,0.45852638 0 0 0 0.45888671,0.45837 0.45852638,0.45852638 0 0 0 0.4583699,-0.45733 c 0.044541,1.3e-4 0.094478,4e-4 0.1400431,5.1e-4 a 0.45852638,0.45852638 0 0 0 0,10e-4 0.45852638,0.45852638 0 0 0 0.4588867,0.45837 0.45852638,0.45852638 0 0 0 0.4583699,-0.45786 c 0.050217,2e-5 0.090001,0 0.1405599,0 a 0.45852638,0.45852638 0 0 0 0.45837,0.44494 0.45852638,0.45852638 0 0 0 0.4578532,-0.44494 c 0.050866,-8e-5 0.09108,-4.2e-4 0.1415934,-5.1e-4 a 0.45852638,0.45852638 0 0 0 0.4578532,0.43408 0.45852638,0.45852638 0 0 0 0.4573365,-0.43667 c 0.046145,-1.7e-4 0.097024,-3.3e-4 0.1421101,-5.1e-4 a 0.45852638,0.45852638 0 0 0 0.4578533,0.43718 0.45852638,0.45852638 0 0 0 0.457853,-0.44287 c 0.2376262,-0.002 0.3768632,-0.004 0.4914429,-0.007 l -0.1322917,0.0817 c -0.011409,0.007 -0.015242,0.0217 -0.00827,0.0331 l 0.030489,0.0491 c 0.00703,0.0114 0.02175,0.0151 0.033073,0.008 l 0.2304767,-0.14211 c 0.011101,-0.007 0.013992,-0.0208 0.00775,-0.032 0.023299,-9.1e-4 0.1704557,-0.002 0.1736328,-0.003 0.059714,-0.0597 0.031847,-0.40993 0,-0.44183 -0.023885,-0.0478 -0.4511352,-0.20774 -0.4511352,-0.20774 -0.1393317,-0.0975 -4.5152844,-0.23175 -5.65805237,-0.23926 z m -0.32762857,0.95136 c -0.005996,0.001 -0.0114722,0.005 -0.0149861,0.0109 l -0.0304891,0.0491 c -0.006975,0.0114 -0.003657,0.0266 0.007751,0.0336 l 0.2304769,0.14159 c 0.0113238,0.007 0.0260449,0.003 0.0330729,-0.008 l 0.0304891,-0.0491 c 0.006976,-0.0114 0.003141,-0.0261 -0.008268,-0.0331 L 0.4207557,295.3589 c -0.005662,-0.003 -0.0120909,-0.005 -0.0180868,-0.003 z m 5.91746828,0.0698 c -0.006,-0.001 -0.012425,-8.1e-4 -0.018087,0.003 l -0.2304767,0.14159 c -0.011409,0.007 -0.014727,0.0222 -0.00775,0.0336 l 0.030489,0.0491 c 0.00703,0.0114 0.02175,0.0147 0.033073,0.008 l 0.2299602,-0.1416 c 0.011409,-0.007 0.014725,-0.0217 0.00775,-0.0331 l -0.029973,-0.0491 c -0.00351,-0.006 -0.00899,-0.009 -0.014986,-0.0109 z m -5.60792647,0.11628 c -0.005996,0.001 -0.0114722,0.005 -0.0149862,0.0109 l -0.0304891,0.0491 c -0.006975,0.0114 -0.003141,0.0261 0.008268,0.0331 l 0.22996014,0.1416 c 0.0113237,0.007 0.0260449,0.004 0.0330729,-0.008 l 0.0304891,-0.0491 c 0.006975,-0.0114 0.003657,-0.0266 -0.007751,-0.0336 L 0.73029787,295.544 c -0.005662,-0.003 -0.0120909,-0.004 -0.0180868,-0.003 z m 5.30871977,0.0589 c -0.006,-10e-4 -0.012425,-8.7e-4 -0.018087,0.003 l -0.2304769,0.14211 c -0.011409,0.007 -0.014725,0.0217 -0.00775,0.0331 l 0.030489,0.0491 c 0.00703,0.0114 0.02175,0.0152 0.033073,0.008 l 0.22996,-0.1416 c 0.011409,-0.007 0.015243,-0.0222 0.00827,-0.0336 l -0.030489,-0.0491 c -0.00352,-0.006 -0.00899,-0.009 -0.014986,-0.0109 z m -4.9929768,0.12299 c -0.013023,-0.003 -0.025905,0.005 -0.0289388,0.0181 l -0.0129191,0.0563 c -0.003011,0.0129 0.005064,0.0259 0.0180868,0.0289 l 0.263033,0.0615 c 0.013023,0.003 0.025909,-0.005 0.028939,-0.0181 l 0.013436,-0.0563 c 0.00301,-0.0129 -0.00506,-0.0259 -0.018087,-0.0289 z m 0.3431315,0.0496 c -0.013367,0 -0.023771,0.0104 -0.023771,0.0238 v 0.0579 c 0,0.0133 0.010405,0.0243 0.023771,0.0243 h 0.2702678 c 0.013367,0 0.024288,-0.0109 0.024288,-0.0243 v -0.0579 c 0,-0.0133 -0.010922,-0.0238 -0.024288,-0.0238 z m 0.3710368,0 c -0.013367,0 -0.024288,0.0104 -0.024288,0.0238 v 0.0579 c 0,0.0133 0.010922,0.0243 0.024288,0.0243 h 0.269751 c 0.013366,0 0.024288,-0.0109 0.024288,-0.0243 v -0.0579 c 0,-0.0133 -0.010922,-0.0238 -0.024288,-0.0238 z m 0.37052,0 c -0.013366,0 -0.024288,0.0104 -0.024288,0.0238 v 0.0579 c 0,0.0133 0.010922,0.0243 0.024288,0.0243 H 2.38291 c 0.013367,0 0.023771,-0.0109 0.023771,-0.0243 v -0.0579 c 0,-0.0133 -0.010405,-0.0238 -0.023771,-0.0238 z m 0.37052,0 c -0.013366,0 -0.024288,0.0104 -0.024288,0.0238 v 0.0579 c 0,0.0133 0.010922,0.0243 0.024288,0.0243 H 2.75343 c 0.013367,0 0.024288,-0.0109 0.024288,-0.0243 v -0.0579 c 0,-0.0133 -0.010922,-0.0238 -0.024288,-0.0238 z m 0.37052,0 c -0.013367,0 -0.023771,0.0104 -0.023771,0.0238 v 0.0579 c 0,0.0133 0.010405,0.0243 0.023771,0.0243 h 0.2702679 c 0.013366,0 0.024288,-0.0109 0.024288,-0.0243 v -0.0579 c 0,-0.0133 -0.010922,-0.0238 -0.024288,-0.0238 z m 0.3705201,0 c -0.013367,0 -0.023771,0.0104 -0.023771,0.0238 v 0.0579 c 0,0.0133 0.010405,0.0243 0.023771,0.0243 H 3.49447 c 0.013367,0 0.024288,-0.0109 0.024288,-0.0243 v -0.0579 c 0,-0.0133 -0.010922,-0.0238 -0.024288,-0.0238 z m 0.3710369,0 c -0.013366,0 -0.024288,0.0104 -0.024288,0.0238 v 0.0579 c 0,0.0133 0.010922,0.0243 0.024288,0.0243 h 0.2702676 c 0.013367,0 0.023771,-0.0109 0.023771,-0.0243 v -0.0579 c 0,-0.0133 -0.010405,-0.0238 -0.023771,-0.0238 z m 0.3705198,0 c -0.013367,0 -0.024288,0.0104 -0.024288,0.0238 v 0.0579 c 0,0.0133 0.010922,0.0243 0.024288,0.0243 h 0.2702679 c 0.013366,0 0.023771,-0.0109 0.023771,-0.0243 v -0.0579 c 0,-0.0133 -0.010405,-0.0238 -0.023771,-0.0238 z m 0.3705201,0 c -0.013367,0 -0.024288,0.0104 -0.024288,0.0238 v 0.0579 c 0,0.0133 0.010922,0.0243 0.024288,0.0243 h 0.2702677 c 0.013366,0 0.024288,-0.0109 0.024288,-0.0243 v -0.0579 c 0,-0.0133 -0.010922,-0.0238 -0.024288,-0.0238 z m 0.3705199,0 c -0.013367,0 -0.023771,0.0104 -0.023771,0.0238 v 0.0579 c 0,0.0133 0.010405,0.0243 0.023771,0.0243 h 0.2702679 c 0.013367,0 0.024288,-0.0109 0.024288,-0.0243 v -0.0579 c 0,-0.0133 -0.010922,-0.0238 -0.024288,-0.0238 z m 0.3710368,0 c -0.013367,0 -0.024288,0.0104 -0.024288,0.0238 v 0.0579 c 0,0.0133 0.010922,0.0243 0.024288,0.0243 H 5.347587 c 0.013366,0 0.024288,-0.0109 0.024288,-0.0243 v -0.0579 c 0,-0.0133 -0.010922,-0.0238 -0.024288,-0.0238 z m 0.3705201,0 c -0.013367,0 -0.024288,0.0104 -0.024288,0.0238 v 0.0579 c 0,0.0133 0.010922,0.0243 0.024288,0.0243 h 0.2702677 c 0.013366,0 0.023771,-0.0109 0.023771,-0.0243 v -0.0579 c 0,-0.0133 -0.010405,-0.0238 -0.023771,-0.0238 z"
       id="path828-36"
       inkscape:connector-curvature="0" />
  </g>
</svg>
