<?xml version="1.0" encoding="UTF-8" standalone="no"?>
<!-- Created with Inkscape (http://www.inkscape.org/) -->

<svg
   xmlns:dc="http://purl.org/dc/elements/1.1/"
   xmlns:cc="http://creativecommons.org/ns#"
   xmlns:rdf="http://www.w3.org/1999/02/22-rdf-syntax-ns#"
   xmlns:svg="http://www.w3.org/2000/svg"
   xmlns="http://www.w3.org/2000/svg"
   xmlns:sodipodi="http://sodipodi.sourceforge.net/DTD/sodipodi-0.dtd"
   xmlns:inkscape="http://www.inkscape.org/namespaces/inkscape"
   width="26"
   height="26"
   viewBox="0 0 6.8791665 6.8791669"
   version="1.1"
   id="svg8"
   inkscape:version="0.92.5 (2060ec1f9f, 2020-04-08)"
   sodipodi:docname="vehicleFront.svg">
  <defs
     id="defs2" />
  <sodipodi:namedview
     id="base"
     pagecolor="#ffffff"
     bordercolor="#666666"
     borderopacity="1.0"
     inkscape:pageopacity="0.0"
     inkscape:pageshadow="2"
     inkscape:zoom="22.627417"
     inkscape:cx="11.323891"
     inkscape:cy="27.262137"
     inkscape:document-units="mm"
     inkscape:current-layer="layer1"
     showgrid="false"
     inkscape:window-width="1920"
     inkscape:window-height="1043"
     inkscape:window-x="0"
     inkscape:window-y="0"
     inkscape:window-maximized="1"
     units="px"
     inkscape:snap-global="false" />
  <metadata
     id="metadata5">
    <rdf:RDF>
      <cc:Work
         rdf:about="">
        <dc:format>image/svg+xml</dc:format>
        <dc:type
           rdf:resource="http://purl.org/dc/dcmitype/StillImage" />
        <dc:title />
      </cc:Work>
    </rdf:RDF>
  </metadata>
  <g
     inkscape:label="Capa 1"
     inkscape:groupmode="layer"
     id="layer1"
     transform="translate(0,-290.12082)">
    <path
       style="opacity:1;vector-effect:none;fill:#000000;fill-opacity:1;fill-rule:nonzero;stroke:none;stroke-width:0.62216544;stroke-linecap:round;stroke-linejoin:miter;stroke-miterlimit:4;stroke-dasharray:none;stroke-dashoffset:0;stroke-opacity:1"
       d="M 8.8769531 4.3730469 L 7.6132812 7.796875 L 9.2832031 7.7988281 A 1.1097559 0.61227917 0 0 1 9.0117188 7.3964844 A 1.1097559 0.61227917 0 0 1 10.121094 6.7851562 A 1.1097559 0.61227917 0 0 1 11.230469 7.3964844 A 1.1097559 0.61227917 0 0 1 10.958984 7.7988281 L 12.027344 7.7988281 A 1.1097559 0.61227916 0 0 1 11.742188 7.390625 A 1.1097559 0.61227916 0 0 1 12.851562 6.7773438 A 1.1097559 0.61227916 0 0 1 13.960938 7.390625 A 1.1097559 0.61227916 0 0 1 12.851562 8.0019531 A 1.1097559 0.61227916 0 0 1 12.794922 8 L 13.154297 9.1679688 L 21.074219 9.1679688 L 19.306641 4.3730469 L 8.8769531 4.3730469 z M 12.851562 4.875 A 1.1097559 0.61227912 0 0 1 13.960938 5.4882812 A 1.1097559 0.61227912 0 0 1 12.851562 6.0996094 A 1.1097559 0.61227912 0 0 1 11.742188 5.4882812 A 1.1097559 0.61227912 0 0 1 12.851562 4.875 z M 15.582031 4.875 A 1.1097559 0.61227911 0 0 1 16.691406 5.4882812 A 1.1097559 0.61227911 0 0 1 15.582031 6.0996094 A 1.1097559 0.61227911 0 0 1 14.472656 5.4882812 A 1.1097559 0.61227911 0 0 1 15.582031 4.875 z M 18.3125 4.875 A 1.1097559 0.6122791 0 0 1 19.421875 5.4863281 A 1.1097559 0.6122791 0 0 1 18.3125 6.0996094 A 1.1097559 0.6122791 0 0 1 17.203125 5.4863281 A 1.1097559 0.6122791 0 0 1 18.3125 4.875 z M 10.121094 4.8808594 A 1.1097559 0.61227913 0 0 1 11.230469 5.4941406 A 1.1097559 0.61227913 0 0 1 10.121094 6.1054688 A 1.1097559 0.61227913 0 0 1 9.0117188 5.4941406 A 1.1097559 0.61227913 0 0 1 10.121094 4.8808594 z M 15.582031 6.7773438 A 1.1097559 0.61227915 0 0 1 16.691406 7.390625 A 1.1097559 0.61227915 0 0 1 15.582031 8.0019531 A 1.1097559 0.61227915 0 0 1 14.472656 7.390625 A 1.1097559 0.61227915 0 0 1 15.582031 6.7773438 z M 18.3125 6.7773438 A 1.1097559 0.61227914 0 0 1 19.421875 7.390625 A 1.1097559 0.61227914 0 0 1 18.3125 8.0019531 A 1.1097559 0.61227914 0 0 1 17.203125 7.390625 A 1.1097559 0.61227914 0 0 1 18.3125 6.7773438 z M 13.189453 9.2832031 L 13.927734 11.673828 L 20.953125 11.673828 L 21.09375 9.2832031 L 13.189453 9.2832031 z M 13.957031 11.769531 L 14.265625 12.769531 L 21.210938 12.769531 C 21.366749 12.769531 21.492188 12.644094 21.492188 12.488281 L 21.492188 12.050781 C 21.492188 11.894969 21.366749 11.769531 21.210938 11.769531 L 13.957031 11.769531 z "
       transform="matrix(0.26458333,0,0,0.26458333,0,290.12082)"
       id="rect1078" />
    <path
       style="fill:#000000;stroke-width:0.03190769"
       d="m 1.3603872,293.54995 c -0.38861623,0.009 -0.64329862,0.019 -0.66274266,0.0347 -0.0340643,0.0258 -0.11305727,0.0472 -0.1755103,0.0479 -0.15240321,0.001 -0.20471022,0.0474 -0.2997625,0.26424 l -0.0804399,0.18358 H 0.98228312 1.8226569 c 0.041114,0.45938 0.1678796,0.80407 0.2092036,1.22789 l 2.9577136,0.005 c 0.011223,-0.0341 0.2254916,-1.13319 0.2250305,-1.21112 -9.14e-5,-0.0142 0.3731634,-0.0239 0.8294431,-0.0239 0.4562798,0 0.8295995,-0.0121 0.8295995,-0.028 0,-0.0719 -0.1608453,-0.38053 -0.2077008,-0.3985 -0.029027,-0.0121 -0.099115,-0.0214 -0.1557479,-0.0214 -0.056633,0 -0.1308288,-0.0214 -0.1648937,-0.047 -0.018762,-0.0143 -0.2565661,-0.0257 -0.6216976,-0.0341 H 1.3603845 Z M 0.314499,294.1744 c -0.0327668,0 -0.059159,0.0263 -0.059159,0.059 v 0.0692 c 0,0.0327 0.026394,0.059 0.059159,0.059 h 1.441928 c 0.032767,0 0.059135,-0.0264 0.059135,-0.059 v -0.0692 c 0,-0.0327 -0.026368,-0.059 -0.059135,-0.059 z m 5.0475951,0.0142 c -0.032766,0 -0.059137,0.0263 -0.059137,0.059 v 0.0692 c 0,0.0328 0.026368,0.0591 0.059137,0.0591 h 1.441928 c 0.022755,0 0.042211,-0.0121 0.052109,-0.0316 0.00663,-0.009 0.010726,-0.0189 0.010726,-0.0304 v -0.0579 c 0,-0.007 -0.00196,-0.0143 -0.0052,-0.0214 -0.00595,-0.0263 -0.029403,-0.046 -0.057641,-0.046 z m -5.13124677,0.23933 c -0.0327644,0 -0.0591348,0.0263 -0.0591348,0.059 v 0.0692 c 0,0.0327 0.0263682,0.0591 0.0591348,0.0591 h 0.13448995 c 0.10892585,0.005 0.2809318,0.007 0.55310328,0.007 0.28367534,0 0.45677614,-10e-4 0.56363254,-0.007 h 0.1907032 c 0.032767,0 0.059135,-0.0263 0.059135,-0.0591 v -0.0692 c 0,-0.0327 -0.026368,-0.059 -0.059135,-0.059 z m 5.21866827,0.003 c -0.032766,0 -0.059136,0.0263 -0.059136,0.059 v 0.0692 c 0,0.0327 0.026368,0.0591 0.059136,0.0591 h 1.4419282 c 0.032766,0 0.059136,-0.0263 0.059136,-0.0591 v -0.0692 c 0,-0.0327 -0.026368,-0.059 -0.059136,-0.059 z m -5.26990736,0.24869 c -0.0327668,0 -0.0591348,0.0263 -0.0591348,0.059 v 0.0692 c 0,0.0328 0.0263682,0.0591 0.0591348,0.0591 h 0.67365042 l 0.043499,0.003 0.28365634,-0.003 h 0.4411221 c 0.032764,0 0.059159,-0.0264 0.059159,-0.0591 v -0.0692 c 0,-0.0327 -0.026394,-0.059 -0.059159,-0.059 z m 5.33312536,0.0121 c -0.032766,0 -0.059137,0.0263 -0.059137,0.059 v 0.0692 c 0,0.0327 0.026368,0.059 0.059137,0.059 h 1.4419281 c 0.032766,0 0.059158,-0.0263 0.059158,-0.059 v -0.0692 c 0,-0.0328 -0.026394,-0.059 -0.059158,-0.059 z m -5.29919659,0.2497 c -0.0327644,0 -0.0591348,0.0263 -0.0591348,0.0591 v 0.0692 c 0,0.0327 0.0263682,0.059 0.0591348,0.059 h 0.23549683 c 0.10815504,0.003 0.25710338,0.005 0.46940696,0.005 0.2253224,0 0.3803384,-8e-4 0.4885025,-0.005 H 1.655466 c 0.032764,0 0.059159,-0.0264 0.059159,-0.059 v -0.0692 c 0,-0.0327 -0.026389,-0.0591 -0.059159,-0.0591 z m 5.92410659,1.1e-4 c -0.1851375,0 -0.3190604,7.9e-4 -0.4220272,0.003 H 5.4668482 c -0.032766,0 -0.059136,0.0263 -0.059136,0.0591 v 0.0692 c 0,0.0327 0.026368,0.059 0.059136,0.059 H 5.911963 c 0.070689,4.3e-4 0.1480328,8.1e-4 0.2401134,8.1e-4 0.1012106,0 0.1883384,-1.6e-4 0.2649406,-8.1e-4 h 0.4917592 c 0.032766,0 0.059158,-0.0263 0.059158,-0.059 v -0.0692 c 0,-0.0327 -0.026394,-0.0591 -0.059158,-0.0591 h -0.312009 c -0.1049472,-0.003 -0.2513527,-0.003 -0.4591236,-0.003 z m -0.7274106,0.25523 -0.068148,0.0958 c -0.065267,0.0915 -0.078229,0.0958 -0.3052946,0.0958 -0.1304242,0 -0.2444545,-0.006 -0.2444545,0.004 0,0.009 0.035711,0.0858 0.070415,0.15404 0.064723,0.12688 0.1945739,0.26028 0.3076363,0.28857 0.01927,0.005 0.1124297,0.003 0.2389977,0 h 0.9072057 l 0.2790171,-0.28031 c 0.2189292,-0.21985 0.2706465,-0.28865 0.2402243,-0.31908 -0.028042,-0.028 -0.230626,-0.0387 -0.7321842,-0.0387 z m -4.56721299,8e-4 c -0.29116053,4.3e-4 -0.55601258,0.007 -0.58761244,0.019 -0.0901825,0.0347 -0.0547971,0.0927 0.21945723,0.36042 l 0.26993763,0.26347 H 1.5806029 c 0.096814,0.003 0.1750004,0.003 0.2371238,0 h 0.017337 v -8.1e-4 c 0.2813897,-0.0165 0.2347141,-0.10174 0.3514253,-0.28549 l 0.092083,-0.1655 -0.2582925,-6.2e-4 c -0.2184943,-0.0143 -0.2669562,-0.0263 -0.296416,-0.0797 -0.019376,-0.0351 -0.049573,-0.0742 -0.067123,-0.0872 -0.021535,-0.0165 -0.4393672,-0.0242 -0.81371654,-0.0237 z"
       id="path826"
       inkscape:connector-curvature="0"
       sodipodi:nodetypes="ccccccccccsscsccccsssssssssssssscsscsssssscscsssssssssssssssssscccsssssssssssssssssscscsssssscsssscscsssscsccssccccccccccccccccccccccc" />
    <path
       inkscape:connector-curvature="0"
       style="opacity:1;vector-effect:none;fill:#000000;fill-opacity:1;fill-rule:nonzero;stroke:none;stroke-width:0.40094632;stroke-linecap:round;stroke-linejoin:miter;stroke-miterlimit:4;stroke-dasharray:none;stroke-dashoffset:0;stroke-opacity:1"
       d="m 1.418518,292.36072 -0.3700032,1.2392 h 0.3136759 l 0.2651001,-0.88883 0.2123902,0.21239 -0.00155,1.22266 h 0.1638143 l 0.00207,-1.15187 0.6717936,0.002 -0.00206,1.15032 h 0.1643309 l 0.00156,-1.2206 0.2113566,-0.21135 0.2645833,0.88573 h 0.313676 l -0.3700164,-1.2392 z m 0.3999756,0.30747 h 1.0454143 l -0.1881023,0.18707 -0.00206,0.002 -0.6697266,-0.002 z"
       id="rect814" />
  </g>
</svg>
