<?xml version="1.0" encoding="UTF-8" standalone="no"?>
<!-- Created with Inkscape (http://www.inkscape.org/) -->

<svg
   xmlns:dc="http://purl.org/dc/elements/1.1/"
   xmlns:cc="http://creativecommons.org/ns#"
   xmlns:rdf="http://www.w3.org/1999/02/22-rdf-syntax-ns#"
   xmlns:svg="http://www.w3.org/2000/svg"
   xmlns="http://www.w3.org/2000/svg"
   xmlns:sodipodi="http://sodipodi.sourceforge.net/DTD/sodipodi-0.dtd"
   xmlns:inkscape="http://www.inkscape.org/namespaces/inkscape"
   width="26"
   height="26"
   viewBox="0 0 6.8791665 6.8791668"
   version="1.1"
   id="svg8"
   inkscape:version="0.92.5 (2060ec1f9f, 2020-04-08)"
   sodipodi:docname="vehicleBack.svg">
  <defs
     id="defs2" />
  <sodipodi:namedview
     id="base"
     pagecolor="#ffffff"
     bordercolor="#666666"
     borderopacity="1.0"
     inkscape:pageopacity="0.0"
     inkscape:pageshadow="2"
     inkscape:zoom="4"
     inkscape:cx="2.9641444"
     inkscape:cy="-47.747914"
     inkscape:document-units="mm"
     inkscape:current-layer="layer1"
     showgrid="false"
     inkscape:window-width="1848"
     inkscape:window-height="1016"
     inkscape:window-x="72"
     inkscape:window-y="1107"
     inkscape:window-maximized="1"
     inkscape:snap-global="false"
     units="px" />
  <metadata
     id="metadata5">
    <rdf:RDF>
      <cc:Work
         rdf:about="">
        <dc:format>image/svg+xml</dc:format>
        <dc:type
           rdf:resource="http://purl.org/dc/dcmitype/StillImage" />
        <dc:title />
      </cc:Work>
    </rdf:RDF>
  </metadata>
  <g
     inkscape:label="Capa 1"
     inkscape:groupmode="layer"
     id="layer1"
     transform="translate(0,-290.12081)">
    <g
       id="g1224"
       transform="translate(0.02016399,0.41082833)">
      <path
         sodipodi:nodetypes="ccccccccccccccsscccccsccccsssscccsscssssssssscssssscscsssssscsssscscsssscsccscccccccsccccccccccccccc"
         inkscape:connector-curvature="0"
         id="path826"
         d="m 1.3447034,292.94606 c -0.37538712,0.007 -0.62139931,0.0193 -0.6401809,0.0335 -0.0329045,0.0249 -0.10920797,0.0457 -0.16953676,0.0462 -0.14721541,9.9e-4 -0.19774221,0.0458 -0.28955733,0.25526 l -0.0777007,0.1772 c 0,0 -0.08915577,0.43233 -0.13930562,0.53264 l 1.80993781,-0.005 c 0.01743,0.19364 0.035787,0.39393 0.044324,0.48154 l 0.018791,0.19262 h 0.1850942 l 2.6838675,-0.006 c 0.1226495,0.006 0.178496,-0.002 0.1877234,-0.0308 0.00632,-0.0193 0.04248,-0.37767 0.071602,-0.68901 l 0.2094651,5.3e-4 c 0.00614,0.025 0.028498,0.0435 0.055399,0.0435 h 1.3928395 c 0.025456,0 0.046876,-0.0165 0.054301,-0.0394 l 0.06865,1.7e-4 c -0.050149,-0.10019 -0.1393055,-0.53263 -0.1393055,-0.53263 l -0.00491,-3e-5 c -0.023828,-0.0973 -0.1554419,-0.3442 -0.1965578,-0.35999 -0.028037,-0.0113 -0.095742,-0.0195 -0.1504453,-0.0195 -0.054705,0 -0.1263742,-0.0204 -0.1592802,-0.0452 -0.018123,-0.0138 -0.2478323,-0.0246 -0.6005335,-0.033 H 1.3447034 Z m -1.14058183,1.09115 c -0.0316511,0 -0.057123,0.0254 -0.057123,0.0571 v 0.067 c 0,0.0317 0.0254716,0.0571 0.057123,0.0571 h 0.65071736 l 0.0420179,0.002 0.27400017,-0.002 h 0.4261045 c 0.031651,0 0.057145,-0.0255 0.057145,-0.0571 v -0.067 c 0,-0.0317 -0.025493,-0.0571 -0.057145,-0.0571 z m 5.15156943,0.0125 c -0.03165,0 -0.057122,0.0255 -0.057122,0.0571 v 0.067 c 0,0.0316 0.025472,0.0571 0.057122,0.0571 h 1.3928404 c 0.031651,0 0.057145,-0.0255 0.057145,-0.0571 v -0.067 c 0,-0.0317 -0.025493,-0.0571 -0.057145,-0.0571 z m -5.11879534,0.2412 c -0.0316513,0 -0.057123,0.0255 -0.057123,0.0571 v 0.067 c 0,0.0318 0.0254716,0.0571 0.057123,0.0571 h 0.22747843 c 0.10447338,0.002 0.24835081,0.004 0.45342708,0.004 0.21765173,0 0.36739053,-7.9e-4 0.47187213,-0.004 h 0.2400624 c 0.031651,0 0.057145,-0.0255 0.057145,-0.0571 v -0.067 c 0,-0.0318 -0.025493,-0.0571 -0.057145,-0.0571 z m 5.72243144,1e-4 c -0.1788346,0 -0.3081987,8e-4 -0.4076601,0.002 H 5.3113678 c -0.031651,0 -0.057124,0.0255 -0.057124,0.0571 v 0.0668 c 0,0.0318 0.025472,0.0571 0.057124,0.0571 h 0.4299616 c 0.068282,5.4e-4 0.1429927,5.4e-4 0.2319389,5.4e-4 0.097764,0 0.1819269,-1.6e-4 0.2559215,-5.4e-4 h 0.475018 c 0.031651,0 0.057145,-0.0255 0.057145,-0.0571 v -0.0668 c 0,-0.0318 -0.025493,-0.0571 -0.057145,-0.0571 H 6.4028207 c -0.1013735,-0.002 -0.2427959,-0.002 -0.4434936,-0.002 z m -0.7026472,0.24657 -0.065827,0.0925 c -0.063046,0.0885 -0.075567,0.0924 -0.2949014,0.0924 -0.125984,0 -0.2290728,0.007 -0.2290728,0.0166 0,0.009 0.027439,0.0705 0.060958,0.13611 0.06252,0.1225 0.1879503,0.25143 0.2971638,0.27876 0.018613,0.005 0.1086018,0.002 0.2308614,0 h 0.8763215 l 0.2695182,-0.27077 c 0.2114762,-0.21246 0.261433,-0.27883 0.2320463,-0.30822 -0.027088,-0.0271 -0.2227746,-0.0375 -0.7072583,-0.0375 z m -4.41173121,8.1e-4 c -0.28124863,5.4e-4 -0.53708413,0.006 -0.56760818,0.0179 -0.0871128,0.0335 -0.0529327,0.0895 0.21198576,0.34815 l 0.26074806,0.25449 H 1.5574217 c 0.093517,0.002 0.1690427,0.002 0.2290516,0 h 0.016743 v -7.9e-4 c 0.2718102,-0.0162 0.2267231,-0.0984 0.3394616,-0.2758 l 0.091772,-0.14443 -0.2523232,-0.0154 c -0.2110571,-0.0129 -0.2578683,-0.0255 -0.2863251,-0.0772 -0.01871,-0.0339 -0.047886,-0.0719 -0.064836,-0.0842 -0.020793,-0.0153 -0.4244098,-0.0234 -0.78601601,-0.0227 z"
         style="fill:#000000;stroke-width:0.03082145" />
      <path
         inkscape:connector-curvature="0"
         id="rect1132-1"
         d="m 2.1763997,291.13875 -0.2599509,0.52157 h 0.072465 c 0.00523,-0.0453 0.043519,-0.0804 0.09035,-0.0804 h 0.066195 c 0.046829,0 0.08512,0.035 0.09035,0.0804 h 0.609497 c 0.00523,-0.0453 0.04352,-0.0804 0.09035,-0.0804 h 0.066195 c 0.048343,0 0.087531,0.0374 0.090693,0.0849 0.047325,0.0135 0.081816,0.0569 0.081816,0.10861 v 1.00883 H 3.686568 v -1.00279 c 0,-0.043 0.024017,-0.08 0.059341,-0.0988 v -0.01 c 0,-0.0503 0.040594,-0.091 0.091017,-0.091 h 0.066195 c 0.049244,0 0.089007,0.0388 0.090844,0.0876 h 0.6061138 c 0.00183,-0.0488 0.0416,-0.0876 0.090846,-0.0876 h 0.066195 c 0.049245,0 0.089007,0.0388 0.090846,0.0876 h 0.077938 L 4.6624174,291.1387 Z"
         style="opacity:1;vector-effect:none;fill:#000000;fill-opacity:1;fill-rule:nonzero;stroke:none;stroke-width:0.01567896;stroke-linecap:round;stroke-linejoin:miter;stroke-miterlimit:4;stroke-dasharray:none;stroke-dashoffset:0;stroke-opacity:1" />
      <path
         inkscape:connector-curvature="0"
         id="rect1070-6"
         d="m 2.9681209,291.62701 c 0.051861,0 0.093624,0.0417 0.093624,0.0937 v 0.0596 c 0.012988,0.0181 0.020707,0.0404 0.020707,0.0644 v 0.87542 c 0,0.024 -0.00773,0.0462 -0.020707,0.0645 v 0.0596 c 0,0.0519 -0.041763,0.0937 -0.093624,0.0937 -0.051862,0 -0.093604,-0.0417 -0.093604,-0.0937 v -0.0134 H 2.2075101 v 0.0134 c 0,0.0519 -0.041741,0.0937 -0.093603,0.0937 -0.051861,0 -0.093624,-0.0417 -0.093624,-0.0937 v -0.0134 H 1.3532967 v 0.0134 c 0,0.0519 -0.041741,0.0937 -0.093603,0.0937 -0.051861,0 -0.093625,-0.0417 -0.093625,-0.0937 v -0.0595 c -0.013007,-0.0181 -0.02073,-0.0403 -0.02073,-0.0645 v -0.60616 h -0.023808 c -0.010039,0 -0.018098,-0.007 -0.018098,-0.0181 v -0.16986 c 0,-0.01 0.00806,-0.0181 0.018098,-0.0181 h 0.023809 v -0.0631 c 0,-0.0241 0.00773,-0.0462 0.02073,-0.0645 v -0.0595 c 0,-0.0519 0.041763,-0.0937 0.093625,-0.0937 0.051862,0 0.093603,0.0417 0.093603,0.0937 v 0.0134 h 0.6669859 v -0.0134 c 0,-0.0519 0.041762,-0.0937 0.093625,-0.0937 0.051862,0 0.093603,0.0417 0.093603,0.0937 v 0.0134 h 0.6670078 v -0.0134 c 0,-0.0519 0.041741,-0.0937 0.093602,-0.0937 z"
         style="opacity:1;vector-effect:none;fill:#000000;fill-opacity:1;fill-rule:nonzero;stroke:none;stroke-width:0.02096155;stroke-linecap:round;stroke-linejoin:miter;stroke-miterlimit:4;stroke-dasharray:none;stroke-dashoffset:0;stroke-opacity:1" />
      <path
         inkscape:connector-curvature="0"
         id="rect1070"
         d="m 3.8707173,291.62701 c -0.051861,0 -0.093624,0.0417 -0.093624,0.0937 v 0.0596 c -0.012989,0.0181 -0.020707,0.0404 -0.020707,0.0644 v 0.87542 c 0,0.024 0.00773,0.0462 0.020707,0.0645 v 0.0596 c 0,0.0519 0.041763,0.0937 0.093624,0.0937 0.051861,0 0.093603,-0.0417 0.093603,-0.0937 v -0.0134 h 0.6670075 v 0.0134 c 0,0.0519 0.041741,0.0937 0.093602,0.0937 0.051862,0 0.093624,-0.0417 0.093624,-0.0937 v -0.0134 H 5.48554 v 0.0134 c 0,0.0519 0.04174,0.0937 0.093602,0.0937 0.051861,0 0.093625,-0.0417 0.093625,-0.0937 v -0.0595 c 0.013007,-0.0181 0.02073,-0.0403 0.02073,-0.0645 v -0.60616 h 0.023809 c 0.010039,0 0.018098,-0.007 0.018098,-0.0181 v -0.16986 c 0,-0.01 -0.00806,-0.0181 -0.018098,-0.0181 H 5.693497 v -0.0631 c 0,-0.0241 -0.00773,-0.0462 -0.02073,-0.0645 v -0.0595 c 0,-0.0519 -0.041763,-0.0937 -0.093625,-0.0937 -0.051862,0 -0.093602,0.0417 -0.093602,0.0937 v 0.0134 H 4.8185553 v -0.0134 c 0,-0.0519 -0.041763,-0.0937 -0.093625,-0.0937 -0.051861,0 -0.093602,0.0417 -0.093602,0.0937 v 0.0134 h -0.667008 v -0.0134 c 0,-0.0519 -0.041741,-0.0937 -0.093603,-0.0937 z"
         style="opacity:1;vector-effect:none;fill:#000000;fill-opacity:1;fill-rule:nonzero;stroke:none;stroke-width:0.02096155;stroke-linecap:round;stroke-linejoin:miter;stroke-miterlimit:4;stroke-dasharray:none;stroke-dashoffset:0;stroke-opacity:1" />
    </g>
  </g>
</svg>
