<?xml version="1.0" encoding="UTF-8" standalone="no"?>
<!-- Created with Inkscape (http://www.inkscape.org/) -->

<svg
   width="60mm"
   height="42mm"
   viewBox="0 0 60 42"
   version="1.1"
   id="svg8"
   inkscape:version="1.1.2 (0a00cf5339, 2022-02-04)"
   sodipodi:docname="Behemoth II.svg"
   xmlns:inkscape="http://www.inkscape.org/namespaces/inkscape"
   xmlns:sodipodi="http://sodipodi.sourceforge.net/DTD/sodipodi-0.dtd"
   xmlns="http://www.w3.org/2000/svg"
   xmlns:svg="http://www.w3.org/2000/svg"
   xmlns:rdf="http://www.w3.org/1999/02/22-rdf-syntax-ns#"
   xmlns:cc="http://creativecommons.org/ns#"
   xmlns:dc="http://purl.org/dc/elements/1.1/">
  <defs
     id="defs2" />
  <sodipodi:namedview
     id="base"
     pagecolor="#ffffff"
     bordercolor="#666666"
     borderopacity="1.0"
     inkscape:pageopacity="0.0"
     inkscape:pageshadow="2"
     inkscape:zoom="1"
     inkscape:cx="188.5"
     inkscape:cy="55.5"
     inkscape:document-units="mm"
     inkscape:current-layer="layer1"
     showgrid="false"
     inkscape:window-width="1846"
     inkscape:window-height="1016"
     inkscape:window-x="74"
     inkscape:window-y="1107"
     inkscape:window-maximized="1"
     inkscape:snap-global="false"
     showguides="false"
     inkscape:pagecheckerboard="0" />
  <metadata
     id="metadata5">
    <rdf:RDF>
      <cc:Work
         rdf:about="">
        <dc:format>image/svg+xml</dc:format>
        <dc:type
           rdf:resource="http://purl.org/dc/dcmitype/StillImage" />
      </cc:Work>
    </rdf:RDF>
  </metadata>
  <g
     inkscape:label="Capa 1"
     inkscape:groupmode="layer"
     id="layer1"
     transform="translate(0,-255)">
    <g
       id="g21799">
      <path
         id="rect21245"
         style="stroke-width:0.335;stroke-linecap:round;stroke-linejoin:round;stroke-dashoffset:3.79844"
         d="m 56.11813,269.78751 1.666314,0.0165 0.283926,0.74192 h -1.95024 z"
         sodipodi:nodetypes="ccccc" />
      <path
         id="rect19473"
         style="fill:#000000;stroke:none;stroke-width:0.318333;stroke-linecap:round;stroke-linejoin:round;stroke-miterlimit:4;stroke-dasharray:none;stroke-dashoffset:3.79844"
         d="m 10.32839,269.69765 v 2.2505 l 9.146444,0.35389 c -0.02877,-0.21754 -0.136278,-0.75299 -0.114985,-0.87195 0.175781,-0.28079 1.417653,-0.83203 2.806372,-1.37938 0.06108,-0.0451 0.133458,-0.074 0.212135,-0.083 0.233283,-0.0909 0.860218,-0.30645 1.094846,-0.39515 z"
         sodipodi:nodetypes="cccccccc" />
      <path
         id="rect18347"
         style="stroke-width:1.20315;stroke-linecap:round;stroke-linejoin:round;stroke-dashoffset:3.79844"
         d="M 141.57812 81.712891 L 103.08398 88.736328 L 103.08398 92.054688 L 73.779297 92.054688 C 73.735915 94.032641 73.544794 96.009346 73.345703 96.666016 L 103.08398 96.666016 L 113.12695 96.666016 L 207.00391 96.666016 L 207.00391 97.488281 C 211.58856 97.628124 214.30477 97.762219 214.54297 97.875 C 220.959 99.328984 222.70264 104.45631 222.85547 107.56055 C 223.02525 113.58768 219.9171 118.16126 213.53906 124.12891 L 220.26953 124.12891 L 224.45703 119.82617 L 224.45703 96.666016 L 224.45703 96.591797 L 224.45703 96.517578 L 224.45703 81.712891 L 141.57812 81.712891 z M 100.42383 87.232422 L 78.037109 87.677734 C 77.92111 88.481028 77.761842 89.171728 77.529297 89.4375 C 76.841461 89.720095 75.431969 89.883457 73.757812 89.960938 C 73.776782 90.311171 73.767574 90.741731 73.769531 91.144531 L 100.42383 91.144531 L 100.42383 87.232422 z M 62.037109 87.996094 L 61.912109 87.998047 C 61.7982 88.596307 61.645455 89.073718 61.457031 89.289062 C 60.769195 89.571696 59.359708 89.73502 57.685547 89.8125 C 57.706896 90.206659 57.699198 90.686286 57.699219 91.144531 L 65.824219 91.144531 C 65.826297 90.710808 65.816725 90.250298 65.84375 89.878906 C 64.085053 89.769413 62.762077 89.607201 62.523438 89.4375 C 62.278961 89.349021 62.134969 88.747535 62.037109 87.996094 z M 46.011719 88.314453 L 23.894531 88.753906 L 23.712891 91.144531 L 49.75 91.144531 C 49.74933 90.654627 49.74129 90.145418 49.771484 89.730469 C 48.012787 89.620976 46.689849 89.459141 46.451172 89.289062 C 46.255899 89.218395 46.112607 88.841627 46.011719 88.314453 z M 22.503906 92.054688 L 17.691406 96.666016 L 50.365234 96.666016 C 50.073172 96.085872 49.82032 94.038837 49.751953 92.054688 L 22.503906 92.054688 z M 57.701172 92.054688 C 57.648366 94.115022 57.441464 96.184915 57.234375 96.666016 L 66.363281 96.666016 C 66.095299 95.890553 65.871597 93.914259 65.816406 92.054688 L 57.701172 92.054688 z "
         transform="matrix(0.26458333,0,0,0.26458333,0,255)" />
      <path
         id="rect13882"
         style="fill:#000000;stroke-width:0.318333;stroke-linecap:round;stroke-linejoin:round;stroke-dashoffset:3.79844"
         d="m 27.268269,268.98709 c 0,0 -6.560023,2.23037 -6.981801,2.90409 -0.122161,0.68251 0.625871,3.39856 1.711813,3.43001 l 14.695451,0.0103 v -0.0275 l -6.363382,-0.59061 0.671469,-3.56138 2.06496,-0.0153 c -0.348535,-0.68658 -0.676716,-1.59305 -0.847067,-2.14971 z"
         sodipodi:nodetypes="cccccccccc" />
      <path
         id="rect8297-4-84"
         style="fill:#ffffff;stroke:none;stroke-width:0.338295;stroke-linecap:round;stroke-linejoin:round;stroke-miterlimit:4;stroke-dasharray:none;stroke-dashoffset:3.79844"
         d="m 47.960559,265.30039 c -0.337866,0 -0.558555,0.13741 -0.558555,0.49241 v 4.9e-4 c -0.224969,0.0307 -0.991685,0.23407 -1.043683,0.41674 -0.04998,0.17558 -0.08058,1.01388 0.01799,1.15524 0.108639,0.14168 0.748282,0.47308 0.961739,0.50521 0.01627,0.13489 0.0067,0.17523 0.0046,0.30984 -0.222459,0.0195 -0.942666,0.21289 -0.994698,0.39567 -0.04999,0.1756 -0.04329,1.07948 0.01274,1.15256 0.105869,0.13807 0.765559,0.38232 0.989739,0.42608 v 0.0267 c 0,0.355 0.272408,0.53928 0.610274,0.53928 h 7.757874 c 0.337867,0 0.609211,-0.30225 0.609211,-0.4712 v -0.11478 l 0.301419,0.005 c 0.172235,0.003 0.426231,-0.3751 0.426231,-0.58831 v -0.75093 c 0,-0.2132 -0.253999,-0.57577 -0.426231,-0.57862 l -0.301419,-0.005 v -0.055 -0.39617 h 0.258438 c 0.17225,0 0.462759,-0.38084 0.462759,-0.59406 v -0.75144 c 0,-0.21321 -0.290509,-0.50395 -0.462759,-0.50395 h -0.258473 v -0.0553 c 0,-0.35499 -0.271344,-0.56044 -0.609211,-0.56044 z"
         sodipodi:nodetypes="sscscccsccssssccssccccsssscsss" />
      <path
         style="fill:#000000;stroke:none;stroke-width:0.472959;stroke-linecap:butt;stroke-linejoin:miter;stroke-miterlimit:4;stroke-dasharray:3.78368, 0.472959;stroke-dashoffset:0;stroke-opacity:1"
         d="m 6.4176335,282.22776 c 1.862068,-0.59718 47.8642925,-0.17298 48.3755205,0 1.593624,0.25793 2.026616,1.16765 2.064574,1.71834 0.06879,1.74419 -3.901999,4.71267 -5.792991,4.86526 H 11.060979 c -1.7714761,-0.0141 -6.4679626,-3.06048 -6.3616735,-4.86526 -0.2164224,-0.62212 0.2496985,-1.39639 1.718328,-1.71834 z"
         id="path917-3"
         sodipodi:nodetypes="ccccccc" />
      <path
         id="rect6047"
         style="fill:#000000;stroke-width:0.223513"
         d="m 18.536115,274.22761 c -0.722804,0.004 -1.455031,0.1101 -1.616345,0.30801 -0.102734,0.26375 -0.107205,2.35086 0,2.57397 0.259259,0.20319 2.884758,0.21382 3.176688,0 0.199896,-0.32538 0.09571,-2.28976 0,-2.57397 -0.124226,-0.21222 -0.83754,-0.31158 -1.560343,-0.30801 z m 1.613545,2.94079 c -0.01588,0.0571 -0.03424,0.0995 -0.0553,0.1239 -0.291929,0.21382 -2.918129,0.20319 -3.177389,0 -0.0099,-0.0204 -0.01794,-0.056 -0.0259,-0.10501 -0.150195,0.17674 -0.160494,1.05328 0.0259,1.12073 0.167256,0.11916 2.682516,0.22263 3.22429,0 0.176449,-0.20165 0.225092,-1.01506 0.0083,-1.13962 z m -2.376567,1.38253 c -0.05906,0.41799 -0.09868,1.53366 0.0252,1.61635 0.216596,0.14568 1.08436,0.15245 1.382538,0 0.08114,-0.0852 0.08465,-1.16089 0.0287,-1.59814 -0.464039,0.0168 -1.000688,0.007 -1.43644,-0.0182 z" />
      <path
         id="rect6047-3"
         style="fill:#000000;stroke-width:0.223513"
         d="m 14.309392,274.20796 c -0.722804,0.004 -1.455031,0.1101 -1.616345,0.30801 -0.102734,0.26375 -0.107205,2.35086 0,2.57397 0.25926,0.20319 2.884759,0.21382 3.176688,0 0.199896,-0.32538 0.09571,-2.28976 0,-2.57397 -0.124226,-0.21222 -0.837539,-0.31158 -1.560343,-0.30801 z m 1.613545,2.94079 c -0.01589,0.057 -0.03424,0.0995 -0.0553,0.1239 -0.291929,0.21382 -2.918128,0.20319 -3.177389,0 -0.0099,-0.0205 -0.01794,-0.056 -0.0259,-0.10501 -0.150196,0.17674 -0.160494,1.05328 0.0259,1.12073 0.167256,0.11916 2.682517,0.22263 3.224291,0 0.176448,-0.20166 0.225091,-1.01506 0.0083,-1.13962 z m -2.376566,1.38252 c -0.05906,0.418 -0.09868,1.53367 0.0252,1.61636 0.216597,0.14568 1.084361,0.15245 1.382539,0 0.08114,-0.0852 0.08465,-1.16089 0.02869,-1.59814 -0.464039,0.0168 -1.000688,0.007 -1.436439,-0.0183 z" />
      <path
         id="rect28327"
         style="stroke-width:0.259087;stroke-linecap:round"
         d="M 167.60938 26.568359 C 167.22465 26.587257 166.88033 26.849457 166.77734 27.242188 L 162.25977 44.482422 C 162.13296 44.966126 162.41865 45.459172 162.90234 45.585938 L 164.33203 45.960938 C 164.81569 46.08755 165.30679 45.80011 165.43359 45.316406 L 169.95117 28.074219 C 170.07798 27.590553 169.79031 27.099422 169.30664 26.972656 L 167.87891 26.597656 C 167.78824 26.5712 167.69817 26.56458 167.60938 26.568359 z M 162.46484 28.027344 C 162.16108 28.027722 161.85265 28.028428 161.54492 28.029297 C 160.72431 28.031678 159.8918 28.03749 159.05859 28.048828 L 159.05859 28.046875 C 155.72579 28.073332 152.39301 28.132701 149.8418 28.210938 C 148.5662 28.250998 147.48266 28.28674 146.69531 28.333984 C 146.30162 28.360441 145.98601 28.386409 145.74609 28.412109 C 145.62613 28.423448 145.52474 28.439519 145.44141 28.453125 C 145.35803 28.472023 145.31286 28.471911 145.20117 28.53125 L 145.16211 28.556641 L 145.13086 28.583984 C 144.99918 28.710599 144.95608 28.844902 144.9043 29.003906 C 144.85259 29.163024 144.81132 29.35105 144.77148 29.572266 C 144.69181 30.015453 144.62277 30.58939 144.57031 31.253906 C 144.46517 32.582939 144.41041 34.274488 144.40039 35.964844 C 144.39056 37.655162 144.42892 39.340406 144.50977 40.650391 C 144.55013 41.305345 144.59992 41.864937 144.66406 42.292969 C 144.69581 42.50689 144.73111 42.687503 144.77344 42.837891 C 144.81577 42.987938 144.83405 43.107032 144.97461 43.242188 L 144.98242 43.242188 C 145.09698 43.350658 145.16918 43.35787 145.25781 43.382812 C 145.34644 43.409269 145.44768 43.426417 145.56836 43.445312 C 145.80972 43.485375 146.12688 43.513174 146.51758 43.544922 C 147.29895 43.608796 148.36607 43.666717 149.63281 43.710938 C 149.82694 43.717743 150.08798 43.72019 150.29102 43.726562 C 150.32764 44.487525 150.39194 45.383601 150.50586 45.867188 L 145.08008 45.867188 C 144.58004 45.867188 144.17578 46.271415 144.17578 46.771484 L 144.17578 47.152344 C 144.70494 47.136732 145.27996 47.124078 145.87109 47.113281 L 145.87109 49.154297 L 161.18359 49.154297 L 161.18359 47.310547 C 161.18665 47.310754 161.19031 47.31034 161.19336 47.310547 L 161.19336 46.771484 C 161.19336 46.271415 160.79106 45.867188 160.29102 45.867188 L 159.06055 45.867188 C 160.31142 45.031101 160.95096 44.759723 161.31445 43.851562 C 161.57004 43.850349 161.83282 43.851216 162.08594 43.849609 L 166.22461 28.054688 C 165.32076 28.047128 164.36403 28.035156 163.36719 28.035156 C 163.06906 28.034778 162.7686 28.034778 162.46484 28.035156 L 162.46484 28.027344 z M 170.27148 28.138672 C 170.27024 28.145932 170.26736 28.153701 170.26562 28.160156 L 166.17188 43.787109 C 166.83329 43.768212 167.46768 43.751761 168.05859 43.734375 C 169.34671 43.691666 170.44414 43.632863 171.25781 43.564453 C 171.66465 43.526658 172.00201 43.497787 172.26172 43.455078 C 172.50833 43.414637 172.65435 43.398981 172.83789 43.275391 C 172.93888 43.217186 172.99485 43.146095 173.02539 43.087891 C 173.05978 43.023261 173.08299 42.957018 173.10352 42.886719 C 173.14452 42.745364 173.17332 42.578363 173.20312 42.371094 C 173.26288 41.956291 173.31297 41.400984 173.35156 40.738281 C 173.42885 39.412839 173.46826 37.67806 173.46875 35.935547 C 173.46917 34.192996 173.42851 32.439879 173.35156 31.091797 C 173.31286 30.417794 173.26292 29.848722 173.20312 29.417969 C 173.17329 29.202536 173.14331 29.020637 173.10352 28.873047 C 173.0661 28.734338 173.05207 28.617944 172.89258 28.484375 C 172.78989 28.389131 172.71527 28.371153 172.63477 28.349609 C 172.54648 28.323153 172.44399 28.30607 172.32422 28.289062 C 172.08467 28.251269 171.77274 28.221769 171.38281 28.195312 C 171.06295 28.176417 170.68344 28.156058 170.27148 28.138672 z M 148.27539 30.447266 C 148.2856 30.447039 148.29644 30.447266 148.30664 30.447266 L 160.83203 30.447266 C 161.50855 30.447266 162.06445 31.001237 162.06445 31.677734 L 162.06445 39.726562 C 162.06445 40.403022 161.50855 40.958984 160.83203 40.958984 L 148.30664 40.958984 C 147.63012 40.958984 147.07617 40.403022 147.07617 39.726562 L 147.07617 31.677734 C 147.07617 31.011782 147.61334 30.464198 148.27539 30.447266 z M 143.57812 30.712891 C 143.0781 30.712891 141.54899 31.143625 141.38281 31.615234 C 141.23772 32.027014 141.22018 33.207505 141.38281 33.378906 C 141.72713 33.741741 143.0781 34.28125 143.57812 34.28125 L 143.63867 34.28125 C 143.66664 33.030982 143.71973 31.832862 143.79688 30.830078 C 143.80022 30.787747 143.80324 30.754087 143.80664 30.712891 L 143.57812 30.712891 z M 174.2168 30.712891 C 174.2727 31.737256 174.30308 32.988614 174.32031 34.28125 L 174.66602 34.28125 C 175.16605 34.28125 175.56836 33.878938 175.56836 33.378906 L 175.56836 31.615234 C 175.56836 31.115203 175.16605 30.712891 174.66602 30.712891 L 174.2168 30.712891 z M 148.27539 31.103516 C 147.96641 31.122413 147.73047 31.364563 147.73047 31.677734 L 147.73047 39.726562 C 147.73047 40.05009 147.98309 40.304688 148.30664 40.304688 L 160.83203 40.304688 C 161.15556 40.304688 161.40039 40.05043 161.40039 39.726562 L 161.40039 31.677734 C 161.40039 31.354207 161.15558 31.103591 160.83203 31.103516 L 148.30664 31.103516 C 148.29681 31.103591 148.28717 31.103024 148.27734 31.103516 L 148.27539 31.103516 z M 143.52734 37.066406 C 142.98291 37.092863 141.54379 37.511919 141.38281 37.96875 C 141.23772 38.380567 141.22018 39.557114 141.38281 39.728516 C 141.72713 40.09135 143.0781 40.630859 143.57812 40.630859 L 143.70898 40.630859 C 143.65456 39.575653 143.62426 38.350009 143.61719 37.066406 L 143.57812 37.066406 C 143.56264 37.066406 143.54699 37.065575 143.5293 37.066406 L 143.52734 37.066406 z M 174.32617 37.066406 C 174.31446 38.34657 174.29005 39.581625 174.24023 40.630859 L 174.66602 40.630859 C 175.16605 40.630859 175.56836 40.228547 175.56836 39.728516 L 175.56836 37.96875 C 175.56836 37.468719 175.16605 37.066406 174.66602 37.066406 L 174.32617 37.066406 z M 164.15625 42.623047 C 164.76025 42.623047 165.25586 43.116697 165.25586 43.720703 C 165.25586 44.324709 164.76025 44.810547 164.15625 44.810547 C 163.55224 44.810547 163.05859 44.324709 163.05859 43.720703 C 163.05859 43.116697 163.55224 42.623047 164.15625 42.623047 z M 164.15625 42.880859 C 163.69227 42.880859 163.32422 43.256766 163.32422 43.720703 C 163.32422 44.18464 163.69225 44.554688 164.15625 44.554688 C 164.62024 44.554688 164.99805 44.184527 164.99805 43.720703 C 164.99805 43.256577 164.62021 42.880859 164.15625 42.880859 z "
         transform="matrix(0.26458333,0,0,0.26458333,0,255)" />
      <rect
         style="fill:#ffffff;stroke-width:0.593387;stroke-linejoin:round;stroke-miterlimit:4;stroke-dasharray:4.74711, 0.593387;stroke-dashoffset:0"
         id="rect2807-3-1"
         width="5.8753967"
         height="7.0587435"
         x="30.28772"
         y="281.84207" />
      <rect
         style="fill:#ffffff;stroke-width:0.583042;stroke-linejoin:round;stroke-miterlimit:4;stroke-dasharray:4.66435, 0.583042;stroke-dashoffset:0"
         id="rect2807-3-1-5"
         width="5.7637525"
         height="6.9467912"
         x="24.571053"
         y="281.91483" />
      <path
         style="fill:none;stroke:#000000;stroke-width:0.536889;stroke-linecap:butt;stroke-linejoin:miter;stroke-miterlimit:4;stroke-dasharray:4.29512, 0.536889;stroke-dashoffset:0;stroke-opacity:1"
         d="m 5.2381983,281.57588 c 1.9439406,-0.73714 49.9688257,-0.21352 50.5025317,0 1.663694,0.31837 2.115724,1.44128 2.155351,2.12101 0.07182,2.15292 -4.073564,5.81703 -6.047701,6.00539 H 10.085707 c -1.8493673,-0.0174 -6.7523523,-3.77768 -6.6413895,-6.00539 -0.2259384,-0.7679 0.2606767,-1.72362 1.7938808,-2.12101 z"
         id="path917"
         sodipodi:nodetypes="ccccccc" />
      <rect
         style="fill:#000000;stroke-width:0.536888;stroke-linejoin:round;stroke-miterlimit:4;stroke-dasharray:4.29513, 0.536888;stroke-dashoffset:0"
         id="rect2807"
         width="5.0345635"
         height="6.7436762"
         x="24.935648"
         y="282.01636" />
      <rect
         style="fill:#000000;stroke-width:0.536888;stroke-linejoin:round;stroke-miterlimit:4;stroke-dasharray:4.29513, 0.536888;stroke-dashoffset:0"
         id="rect2807-3"
         width="5.0345635"
         height="6.7436762"
         x="30.763958"
         y="282.01636" />
      <circle
         style="fill:#000000;stroke:#000000;stroke-width:0.536888;stroke-linejoin:round;stroke-miterlimit:4;stroke-dasharray:none;stroke-dashoffset:0"
         id="path2980"
         cx="20.95994"
         cy="285.4588"
         r="3.3249083" />
      <circle
         style="fill:none;stroke:#ffffff;stroke-width:0.536888;stroke-linejoin:round;stroke-miterlimit:4;stroke-dasharray:0.536888, 1.07377;stroke-dashoffset:0.859021"
         id="path3402"
         cx="21.045755"
         cy="285.4595"
         r="1.8801548" />
      <circle
         style="fill:none;stroke:#ffffff;stroke-width:0.403855;stroke-linejoin:round;stroke-miterlimit:4;stroke-dasharray:none;stroke-dashoffset:0"
         id="path2980-2"
         cx="20.95994"
         cy="285.4588"
         r="3.6795688" />
      <circle
         style="fill:none;stroke:#ffffff;stroke-width:0.460637;stroke-linejoin:round;stroke-miterlimit:4;stroke-dasharray:none;stroke-dashoffset:0"
         id="path2980-2-3"
         cx="20.95994"
         cy="285.4588"
         r="2.8526919" />
      <circle
         style="fill:#000000;stroke:#000000;stroke-width:0.536888;stroke-linejoin:round;stroke-miterlimit:4;stroke-dasharray:none;stroke-dashoffset:0"
         id="path2980-8"
         cx="13.286633"
         cy="285.33966"
         r="3.3249083" />
      <circle
         style="fill:none;stroke:#ffffff;stroke-width:0.536888;stroke-linejoin:round;stroke-miterlimit:4;stroke-dasharray:0.536888, 1.07377;stroke-dashoffset:0.859021"
         id="path3402-9"
         cx="13.372447"
         cy="285.34039"
         r="1.8801548" />
      <circle
         style="fill:none;stroke:#ffffff;stroke-width:0.403855;stroke-linejoin:round;stroke-miterlimit:4;stroke-dasharray:none;stroke-dashoffset:0"
         id="path2980-2-7"
         cx="13.286633"
         cy="285.33966"
         r="3.6795688" />
      <circle
         style="fill:none;stroke:#ffffff;stroke-width:0.460637;stroke-linejoin:round;stroke-miterlimit:4;stroke-dasharray:none;stroke-dashoffset:0"
         id="path2980-2-3-3"
         cx="13.286633"
         cy="285.33966"
         r="2.8526919" />
      <circle
         style="fill:#000000;stroke:#000000;stroke-width:0.536888;stroke-linejoin:round;stroke-miterlimit:4;stroke-dasharray:none;stroke-dashoffset:0"
         id="path2980-1"
         cx="39.983746"
         cy="285.44019"
         r="3.3249083" />
      <circle
         style="fill:none;stroke:#ffffff;stroke-width:0.536888;stroke-linejoin:round;stroke-miterlimit:4;stroke-dasharray:0.536888, 1.07377;stroke-dashoffset:0.859021"
         id="path3402-2"
         cx="40.069561"
         cy="285.44092"
         r="1.8801548" />
      <circle
         style="fill:none;stroke:#ffffff;stroke-width:0.403855;stroke-linejoin:round;stroke-miterlimit:4;stroke-dasharray:none;stroke-dashoffset:0"
         id="path2980-2-9"
         cx="39.983746"
         cy="285.44019"
         r="3.6795688" />
      <circle
         style="fill:none;stroke:#ffffff;stroke-width:0.460637;stroke-linejoin:round;stroke-miterlimit:4;stroke-dasharray:none;stroke-dashoffset:0"
         id="path2980-2-3-31"
         cx="39.983746"
         cy="285.44019"
         r="2.8526919" />
      <circle
         style="fill:#000000;stroke:#000000;stroke-width:0.536888;stroke-linejoin:round;stroke-miterlimit:4;stroke-dasharray:none;stroke-dashoffset:0"
         id="path2980-4"
         cx="47.872105"
         cy="285.414"
         r="3.3249083" />
      <circle
         style="fill:none;stroke:#ffffff;stroke-width:0.536888;stroke-linejoin:round;stroke-miterlimit:4;stroke-dasharray:0.536888, 1.07377;stroke-dashoffset:0.859021"
         id="path3402-7"
         cx="47.957916"
         cy="285.4147"
         r="1.8801548" />
      <circle
         style="fill:none;stroke:#ffffff;stroke-width:0.403855;stroke-linejoin:round;stroke-miterlimit:4;stroke-dasharray:none;stroke-dashoffset:0"
         id="path2980-2-8"
         cx="47.872105"
         cy="285.414"
         r="3.6795688" />
      <circle
         style="fill:none;stroke:#ffffff;stroke-width:0.460637;stroke-linejoin:round;stroke-miterlimit:4;stroke-dasharray:none;stroke-dashoffset:0"
         id="path2980-2-3-4"
         cx="47.872105"
         cy="285.414"
         r="2.8526919" />
      <circle
         style="fill:#000000;stroke:#000000;stroke-width:0.296299;stroke-linejoin:round;stroke-miterlimit:4;stroke-dasharray:none;stroke-dashoffset:0"
         id="path2980-0"
         cx="6.3047638"
         cy="284.03473"
         r="1.8349577" />
      <circle
         style="fill:none;stroke:#ffffff;stroke-width:0.318333;stroke-linejoin:round;stroke-miterlimit:4;stroke-dasharray:0.318333, 0.636665;stroke-dashoffset:0.954998"
         id="path3402-3"
         cx="6.3384953"
         cy="284.02188"
         r="0.92034101" />
      <circle
         style="fill:none;stroke:#ffffff;stroke-width:0.22288;stroke-linejoin:round;stroke-miterlimit:4;stroke-dasharray:none;stroke-dashoffset:0"
         id="path2980-2-6"
         cx="6.3047638"
         cy="284.03473"
         r="2.0306888" />
      <circle
         style="fill:none;stroke:#ffffff;stroke-width:0.254218;stroke-linejoin:round;stroke-miterlimit:4;stroke-dasharray:none;stroke-dashoffset:0"
         id="path2980-2-3-1"
         cx="6.3047638"
         cy="284.03473"
         r="1.57435" />
      <circle
         style="fill:#000000;stroke:#000000;stroke-width:0.296299;stroke-linejoin:round;stroke-miterlimit:4;stroke-dasharray:none;stroke-dashoffset:0"
         id="path2980-0-0"
         cx="54.982788"
         cy="284.0527"
         r="1.8349577" />
      <circle
         style="fill:none;stroke:#ffffff;stroke-width:0.318333;stroke-linejoin:round;stroke-miterlimit:4;stroke-dasharray:0.318333, 0.636665;stroke-dashoffset:0.954998"
         id="path3402-3-6"
         cx="55.016514"
         cy="284.03986"
         r="0.92034101" />
      <circle
         style="fill:none;stroke:#ffffff;stroke-width:0.22288;stroke-linejoin:round;stroke-miterlimit:4;stroke-dasharray:none;stroke-dashoffset:0"
         id="path2980-2-6-3"
         cx="54.982788"
         cy="284.0527"
         r="2.0306888" />
      <circle
         style="fill:none;stroke:#ffffff;stroke-width:0.254218;stroke-linejoin:round;stroke-miterlimit:4;stroke-dasharray:none;stroke-dashoffset:0"
         id="path2980-2-3-1-2"
         cx="54.982788"
         cy="284.0527"
         r="1.57435" />
      <rect
         style="fill:#ffffff;stroke:none;stroke-width:0.294685;stroke-linecap:round;stroke-linejoin:round;stroke-miterlimit:4;stroke-dasharray:none;stroke-dashoffset:3.79844"
         id="rect6910"
         width="22.869484"
         height="2.8179262"
         x="32.143871"
         y="278.08008"
         ry="0.70343906" />
      <path
         id="rect5361"
         style="stroke-width:0.46676;stroke-linecap:round;stroke-linejoin:round;stroke-dasharray:0.46676, 0.933521;stroke-dashoffset:1.40028"
         d="m 33.128502,278.40207 c -0.216069,0 -0.389895,0.17432 -0.389895,0.39038 v 1.39361 c 0,0.21608 0.173826,0.3899 0.389895,0.3899 h 3.810577 v -2.17389 z m 4.061014,0 v 2.17389 h 1.033668 v -2.17389 z m 1.28607,0 v 2.17389 h 10.131912 v -2.17389 z m 10.382348,0 v 2.17389 h 1.035632 v -2.17389 z m 1.286071,0 v 2.17389 h 3.884725 c 0.21607,0 0.389896,-0.17382 0.389896,-0.3899 v -1.39361 c 0,-0.21606 -0.173826,-0.39038 -0.389896,-0.39038 z" />
      <path
         id="rect14468-3"
         style="fill:#000000;stroke-width:0.577161;stroke-linecap:round;stroke-linejoin:round;stroke-dashoffset:3.79844"
         d="m 35.790015,266.90601 c -1.284475,2.4e-4 -2.57129,0.0453 -2.980696,0.13504 v 0.96148 h 5.946658 v -0.96148 c -0.399724,-0.0906 -1.681491,-0.13527 -2.965962,-0.13504 z m -2.980696,1.33714 v 0.51315 c -0.05769,0.27738 0.434196,1.52617 0.883688,2.36038 l 1.962252,-0.0148 -0.209966,-0.69521 h 3.310684 v -1.65043 -0.51315 z"
         sodipodi:nodetypes="sccccsccccccccc" />
      <path
         id="rect9723"
         style="fill:#000000;stroke-width:0.318333;stroke-linecap:round;stroke-linejoin:round;stroke-dashoffset:3.79844"
         d="m 36.186865,270.81834 h 22.315056 l -0.627241,4.51298 H 37.488757 Z"
         sodipodi:nodetypes="ccccc" />
      <path
         id="rect8297-5"
         style="fill:#000000;stroke:none;stroke-width:0.311469;stroke-linecap:round;stroke-linejoin:round;stroke-miterlimit:4;stroke-dasharray:none;stroke-dashoffset:3.79844"
         d="m 48.196481,265.57091 c -0.318863,0 -0.575778,0.25691 -0.575778,0.57577 v 1.7231 h 8.472688 v -1.7231 c 0,-0.31886 -0.256384,-0.57577 -0.575247,-0.57577 z m -0.575778,2.56951 v 1.72362 c 0,0.31886 0.256915,0.57578 0.575778,0.57578 h 7.321663 c 0.318863,0 0.575247,-0.25692 0.575247,-0.57578 v -1.72362 z" />
      <path
         id="rect28327-5"
         style="stroke-width:0.0855261;stroke-linecap:round"
         d="m 47.227103,266.11976 c -0.148363,0 -0.602183,0.15814 -0.65149,0.33135 -0.04305,0.15124 -0.04825,0.58461 0,0.64756 0.102157,0.13322 0.503127,0.33134 0.65149,0.33134 h 0.01833 c 0.0084,-0.45917 0.02356,-0.89884 0.04644,-1.26713 9.79e-4,-0.0156 0.002,-0.0278 0.003,-0.0431 z m 9.090923,0 c 0.01659,0.37621 0.02545,0.83552 0.03056,1.31025 h 0.10268 c 0.148365,0 0.267687,-0.14769 0.267687,-0.33134 v -0.64756 c 0,-0.18365 -0.119322,-0.33135 -0.267687,-0.33135 z m -9.105592,2.33304 c -0.161537,0.009 -0.589058,0.16355 -0.636821,0.33134 -0.04305,0.15124 -0.04825,0.58385 0,0.64679 0.102157,0.13323 0.503127,0.33136 0.65149,0.33136 h 0.03911 c -0.01615,-0.38755 -0.02539,-0.83807 -0.02749,-1.30949 h -0.01159 c -0.0046,0 -0.0095,-3e-4 -0.01467,0 z m 9.137986,0 c -0.0036,0.47014 -0.01087,0.92413 -0.02566,1.30949 h 0.126507 c 0.148364,0 0.267686,-0.1477 0.267686,-0.33136 v -0.64679 c 0,-0.18365 -0.119322,-0.33134 -0.267686,-0.33134 z" />
      <path
         id="rect8297-4"
         style="fill:#ffffff;stroke:none;stroke-width:0.338295;stroke-linecap:round;stroke-linejoin:round;stroke-miterlimit:4;stroke-dasharray:none;stroke-dashoffset:3.79844"
         d="m 47.975723,270.4897 c -0.337866,0 -0.558555,0.13741 -0.558555,0.49241 v 4.9e-4 c -0.22497,0.0307 -0.991686,0.23407 -1.043684,0.41673 -0.04999,0.17559 -0.08058,1.01389 0.01799,1.15525 0.108641,0.14168 0.748282,0.47307 0.961742,0.50521 0.01627,0.13488 0.0067,0.17523 0.0046,0.30984 -0.22246,0.0195 -0.942667,0.21289 -0.994698,0.39567 -0.04998,0.1756 -0.04329,1.07948 0.01274,1.15256 0.10587,0.13807 0.765561,0.38231 0.98974,0.42609 v 0.0267 c 0,0.355 0.272407,0.53928 0.610274,0.53928 h 7.757875 c 0.337864,0 0.609211,-0.30226 0.609211,-0.4712 v -0.1148 l 0.301419,0.005 c 0.172233,0.003 0.426229,-0.37511 0.426229,-0.58832 v -0.75092 c 0,-0.2132 -0.253999,-0.57578 -0.426229,-0.57863 l -0.301419,-0.005 v -0.055 -0.39618 h 0.258435 c 0.172252,0 0.46276,-0.38083 0.46276,-0.59406 v -0.75143 c 0,-0.21321 -0.290508,-0.50395 -0.46276,-0.50395 h -0.258479 v -0.0553 c 0,-0.35499 -0.271347,-0.56045 -0.609212,-0.56045 z"
         sodipodi:nodetypes="sscscccsccssssccssccccsssscsss" />
      <path
         id="rect8297"
         style="fill:#000000;stroke:none;stroke-width:0.311469;stroke-linecap:round;stroke-linejoin:round;stroke-miterlimit:4;stroke-dasharray:none;stroke-dashoffset:3.79844"
         d="m 48.196481,270.78315 c -0.318863,0 -0.575778,0.25693 -0.575778,0.57578 v 1.72363 h 8.472688 v -1.72363 c 0,-0.31885 -0.256384,-0.57578 -0.575247,-0.57578 z m -0.575778,2.57005 v 1.72361 c 0,0.31887 0.256915,0.57525 0.575778,0.57525 h 7.321663 c 0.318863,0 0.575247,-0.25638 0.575247,-0.57525 v -1.72361 z" />
      <path
         id="rect28327-5-4"
         style="stroke-width:0.0855261;stroke-linecap:round"
         d="m 47.319317,271.35867 c -0.148364,0 -0.602184,0.15813 -0.65149,0.33134 -0.04305,0.15123 -0.04826,0.58461 0,0.64756 0.102157,0.13321 0.503126,0.33133 0.65149,0.33133 h 0.01833 c 0.0084,-0.45916 0.02356,-0.89883 0.04644,-1.26712 9.79e-4,-0.0156 0.002,-0.0278 0.003,-0.0431 z m 9.090922,0 c 0.01659,0.37621 0.02545,0.83551 0.03056,1.31023 h 0.102681 c 0.148364,0 0.267686,-0.14768 0.267686,-0.33133 v -0.64756 c 0,-0.18364 -0.119322,-0.33134 -0.267686,-0.33134 z m -9.105591,2.33302 c -0.161537,0.009 -0.589059,0.16356 -0.636821,0.33134 -0.04305,0.15125 -0.04826,0.58385 0,0.64681 0.102157,0.13322 0.503126,0.33135 0.65149,0.33135 h 0.03911 c -0.01614,-0.38754 -0.0254,-0.83808 -0.02749,-1.3095 h -0.0116 c -0.0046,0 -0.0095,-3e-4 -0.01466,0 z m 9.137985,0 c -0.0036,0.47015 -0.01087,0.92414 -0.02566,1.3095 h 0.126507 c 0.148364,0 0.267685,-0.1477 0.267685,-0.33135 v -0.64681 c 0,-0.18363 -0.119321,-0.33134 -0.267685,-0.33134 z" />
      <path
         id="rect11804"
         style="stroke-width:0.318333;stroke-linecap:round;stroke-linejoin:round;stroke-dashoffset:3.79844"
         d="m 58.675375,271.5561 h 0.289629 v 3.03746 h -0.706201 z"
         sodipodi:nodetypes="ccccc" />
      <path
         id="rect13479"
         style="stroke-width:0.373794;stroke-linecap:round;stroke-linejoin:round;stroke-dashoffset:3.79844"
         d="m 31.323525,271.33977 4.700633,-0.0361 0.986431,3.59672 -6.197265,-0.51017 z"
         sodipodi:nodetypes="ccccc" />
      <rect
         style="fill:#000000;stroke:#ffffff;stroke-width:0.318333;stroke-linecap:round;stroke-linejoin:round;stroke-miterlimit:4;stroke-dasharray:none;stroke-dashoffset:3.79844"
         id="rect17079"
         width="8.4594688"
         height="0.97731185"
         x="22.104891"
         y="270.34174"
         ry="0.26056835" />
      <rect
         style="fill:#000000;stroke:#ffffff;stroke-width:0.224941;stroke-linecap:round;stroke-linejoin:round;stroke-miterlimit:4;stroke-dasharray:none;stroke-dashoffset:3.79844"
         id="rect17079-2"
         width="3.8555145"
         height="1.0707035"
         x="46.233082"
         y="269.77277"
         transform="rotate(3.0904189)"
         ry="0.30005661" />
      <rect
         style="fill:#000000;stroke:none;stroke-width:0.355052;stroke-linecap:round;stroke-linejoin:round;stroke-miterlimit:4;stroke-dasharray:none;stroke-dashoffset:3.79844"
         id="rect17565"
         width="6.4642453"
         height="2.2991927"
         x="39.120056"
         y="268.25085" />
      <path
         id="rect17760"
         style="stroke-width:0.318333;stroke-linecap:round;stroke-linejoin:round;stroke-dashoffset:3.79844"
         d="m 50.780645,264.43167 c 0.194132,-0.1141 2.196378,-0.0706 2.432368,0 0,0 0.08684,0.72141 0.104469,0.88044 h -2.641307 c -0.03077,-0.15295 0.10447,-0.88044 0.10447,-0.88044 z"
         sodipodi:nodetypes="ccccc" />
      <rect
         style="fill:#000000;stroke:none;stroke-width:0.37878;stroke-linecap:round;stroke-linejoin:round;stroke-miterlimit:4;stroke-dasharray:none;stroke-dashoffset:3.79844"
         id="rect18150"
         width="18.74032"
         height="0.58272719"
         x="38.525375"
         y="275.69376" />
      <path
         id="rect19369"
         style="fill:#000000;stroke:none;stroke-width:0.318333;stroke-linecap:round;stroke-linejoin:round;stroke-miterlimit:4;stroke-dasharray:none;stroke-dashoffset:3.79844"
         d="m 0.6124024,268.34676 v 1.24237 h 9.1203397 v -1.24237 z m 0,1.49476 v 1.60526 h 9.1203397 v -1.60526 z m 0,1.85619 v 1.24237 h 9.1203397 v -1.24237 z" />
    </g>
  </g>
</svg>
