<?xml version="1.0" encoding="UTF-8" standalone="no"?>
<!-- Created with Inkscape (http://www.inkscape.org/) -->

<svg
   width="60mm"
   height="42mm"
   viewBox="0 0 60 42"
   version="1.1"
   id="svg8"
   inkscape:version="1.1.2 (0a00cf5339, 2022-02-04)"
   sodipodi:docname="Condor Tank.svg"
   xmlns:inkscape="http://www.inkscape.org/namespaces/inkscape"
   xmlns:sodipodi="http://sodipodi.sourceforge.net/DTD/sodipodi-0.dtd"
   xmlns="http://www.w3.org/2000/svg"
   xmlns:svg="http://www.w3.org/2000/svg"
   xmlns:rdf="http://www.w3.org/1999/02/22-rdf-syntax-ns#"
   xmlns:cc="http://creativecommons.org/ns#"
   xmlns:dc="http://purl.org/dc/elements/1.1/">
  <defs
     id="defs2" />
  <sodipodi:namedview
     id="base"
     pagecolor="#ffffff"
     bordercolor="#666666"
     borderopacity="1.0"
     inkscape:pageopacity="0.0"
     inkscape:pageshadow="2"
     inkscape:zoom="2.0000001"
     inkscape:cx="4.2499999"
     inkscape:cy="85.249998"
     inkscape:document-units="mm"
     inkscape:current-layer="layer1"
     showgrid="false"
     inkscape:window-width="1850"
     inkscape:window-height="1016"
     inkscape:window-x="70"
     inkscape:window-y="1107"
     inkscape:window-maximized="1"
     inkscape:snap-global="false"
     showguides="true"
     inkscape:pagecheckerboard="0" />
  <metadata
     id="metadata5">
    <rdf:RDF>
      <cc:Work
         rdf:about="">
        <dc:format>image/svg+xml</dc:format>
        <dc:type
           rdf:resource="http://purl.org/dc/dcmitype/StillImage" />
      </cc:Work>
    </rdf:RDF>
  </metadata>
  <g
     inkscape:label="Capa 1"
     inkscape:groupmode="layer"
     id="layer1"
     transform="translate(0,-255)"
     style="display:inline">
    <g
       id="g14250">
      <g
         id="g14167"
         transform="translate(-1.2079803,8.7033455)">
        <path
           id="path4829"
           style="color:#000000;fill:#000000;stroke-width:1.67748;-inkscape-stroke:none"
           d="m 99.195312,19.425781 -1.111328,13.625 c 4.377946,-0.141305 10.529916,-0.262943 16.199216,-0.357422 -0.0313,-0.283662 -0.0488,-0.571439 -0.0488,-0.863281 0,-4.550155 3.89874,-8.201172 8.60742,-8.201172 4.70868,0 8.61523,3.651017 8.61523,8.201172 0,1.518701 -0.43848,2.935422 -1.19336,4.150391 l 0.88672,2 1.45899,-0.740235 c -0.007,-0.361322 -0.0258,-0.674945 -0.0254,-1.050781 8.4e-4,-0.882368 0.0223,-1.474897 0.0625,-2.195312 0.02,-0.360189 0.0437,-0.677469 0.0742,-0.9375 0.0306,-0.260032 0.0592,-0.448243 0.125,-0.617188 l 0.0176,-0.04883 0.0332,-0.04102 c 0.19091,-0.23433 0.46726,-0.373776 0.80469,-0.498047 0.33744,-0.124343 0.7438,-0.224183 1.19922,-0.304687 0.91084,-0.16063 2.01879,-0.240488 3.12305,-0.248047 l 0.002,-0.0039 c 1.10433,-0.0038 2.19965,0.06587 3.08594,0.224609 0.20904,0.0378 0.40396,0.08128 0.58789,0.128907 -0.23864,-4.257223 -1.33458,-8.222825 -3.61719,-11.914063 z M 42.90625,23.072266 c -0.592139,0.0378 -1.058594,0.723082 -1.058594,1.560546 V 35.875 c 0,0.864794 0.496122,1.564453 1.115235,1.564453 h 6.173828 c 0.619147,0 1.115234,-0.699357 1.115234,-1.564453 V 24.632812 c 0,-0.86479 -0.496106,-1.560546 -1.115234,-1.560546 h -6.173828 c -0.01928,0 -0.03702,-0.0013 -0.05664,0 z m 28.414062,0.09961 c -0.71167,0 -1.287109,0.800793 -1.287109,1.794922 v 10.773437 c 0,0.99413 0.575439,1.796875 1.287109,1.796875 h 5.976563 L 92.257812,33.375 c 0.327761,-0.08617 1.854884,-0.167858 3.785157,-0.246094 v -8.162109 c 0,-0.994129 -0.571511,-1.794922 -1.283203,-1.794922 z m -18.818359,0.128906 c -0.711696,0 -1.285156,0.80286 -1.285156,1.796875 V 35.875 c 1.1e-5,0.994091 0.57346,1.792969 1.285156,1.792969 h 15.28125 c 0.711697,0 1.287113,-0.798878 1.287109,-1.792969 V 25.097656 c 0,-0.994015 -0.575412,-1.796875 -1.287109,-1.796875 z m 70.339847,2.595703 c -3.55184,0 -6.34766,2.679495 -6.34766,5.933594 0,0.280168 0.0223,0.555947 0.0625,0.826172 0.69038,-0.01091 1.35777,-0.02129 2.01758,-0.03125 -0.0485,-0.258451 -0.0801,-0.523116 -0.0801,-0.794922 0,-2.388137 1.95952,-4.347656 4.34766,-4.347656 2.38814,0 4.34765,1.959519 4.34765,4.347656 0,0.231739 -0.0328,0.455463 -0.0684,0.677734 0.93127,-0.01149 1.59766,-0.01953 1.59766,-0.01953 l 0.30469,0.689453 c 0.10747,-0.433699 0.16797,-0.884384 0.16797,-1.347656 0,-3.254099 -2.79777,-5.933594 -6.34961,-5.933594 z m -44.242191,2.449219 h 6.548829 c 0.635181,0 1.146484,0.511303 1.146484,1.146485 v 1.513671 c 0,0.635182 -0.511303,1.146485 -1.146484,1.146485 h -6.548829 c -0.635181,0 -1.146484,-0.511303 -1.146484,-1.146485 v -1.513671 c 0,-0.635182 0.511303,-1.146485 1.146484,-1.146485 z m -21.714843,0.203125 h 6.548828 c 0.635181,0 1.146484,0.511304 1.146484,1.146484 v 1.511719 c 0,0.635182 -0.511303,1.146485 -1.146484,1.146485 h -6.548828 c -0.635182,0 -1.146485,-0.511303 -1.146485,-1.146485 v -1.511719 c 0,-0.63518 0.511303,-1.146484 1.146485,-1.146484 z m 65.898434,1.066406 c -1.20658,0.03 -2.14843,1.000059 -2.14843,2.214844 0,0.270831 0.0544,0.525505 0.14062,0.763672 1.56679,-0.02255 2.97073,-0.04302 4.1582,-0.05859 0.074,-0.222005 0.12305,-0.455942 0.12305,-0.705078 0,-1.234067 -0.98077,-2.214844 -2.21484,-2.214844 -0.0193,0 -0.0394,-4.76e-4 -0.0586,0 z m 10.47657,7.21875 c 6.5e-4,0.06387 0.005,0.112664 0.006,0.175782 h 0.002 c -9.1e-4,-0.06425 -0.005,-0.110774 -0.006,-0.175782 z"
           transform="matrix(0.26458333,0,0,0.26458333,0,255)" />
        <path
           id="path10483"
           style="fill:#000000;stroke:none;stroke-width:0.264583px;stroke-linecap:butt;stroke-linejoin:miter;stroke-opacity:1"
           d="m 17.044437,265.38541 -0.451651,1.26918 2.159041,0.001 c 0.05132,-0.39258 0.184114,-1.0624 0.257865,-1.1281 l 0.510563,-0.14211 z" />
        <path
           id="rect9127"
           style="fill:#000000;stroke:none;stroke-width:0.0593738;stroke-linecap:round;stroke-miterlimit:4;stroke-dasharray:none;stop-color:#000000"
           d="m 39.392428,261.94945 c -0.184129,0 -0.332279,0.14815 -0.332279,0.33228 v 0.95549 c 0.211478,-0.0286 0.45013,-0.0443 0.689364,-0.046 v -10e-4 c 0.292184,-0.002 0.581988,0.0179 0.816485,0.0599 0.117248,0.021 0.220734,0.0474 0.305925,0.0822 0.08519,0.0348 0.15594,0.0756 0.197921,0.14728 l 0.0047,0.008 0.0026,0.009 c 0.0274,0.0814 0.04321,0.21555 0.05943,0.40049 0.0041,0.0472 0.0078,0.0968 0.01138,0.14883 0.01754,0.25153 0.02819,0.47584 0.02429,0.74672 -8e-6,1.1e-4 5e-6,5.9e-4 0,10e-4 -0.0016,0.11062 -0.0055,0.21676 -0.01241,0.31316 -0.0044,0.0616 -0.01048,0.11641 -0.0181,0.16691 -0.0052,0.0369 -0.0109,0.0706 -0.01757,0.10077 h 1.594218 c -0.548498,-0.43743 -0.965785,-0.60736 -1.439707,-0.7059 l 0.831474,-0.13023 c 0,0 -0.414226,-1.71941 -0.269234,-2.26342 0.993113,-0.54045 4.530111,-0.10171 5.582089,0.15554 v -0.14882 c 0,-0.18413 -0.148151,-0.33228 -0.33228,-0.33228 z" />
        <path
           id="path8571"
           style="fill:#000000;stroke:none;stroke-width:0.999999px;stroke-linecap:butt;stroke-linejoin:miter;stroke-opacity:1"
           d="m 184.99805,28.658203 -3.77344,0.388672 c 1.88831,1.363427 4.91859,4.429319 7.23242,6.878906 l -0.84375,-4.054687 -1.28711,0.07422 z m -26.64258,3.789063 -0.0644,2.761718 c 0.23603,0.01512 0.44106,0.03793 0.61914,0.0625 -0.14669,-0.656957 -0.34783,-1.604565 -0.55469,-2.824218 z m 31.69531,11.148437 c -3.46667,1.143836 -17.53922,2.368822 -20.4414,2.613281 0.85696,1.282848 1.40234,2.160157 1.40234,2.160157 l 0.58594,0.535156 h 16.83203 2.72461 z m -13.83594,9.519531 0.54883,0.5 -0.0547,9.134766 c 2.09836,0.855983 5.28586,2.294367 7.89063,4.066406 0.0357,-0.396422 0.0725,-0.85625 0.10351,-1.40625 0.0798,-1.413203 0.13994,-3.243644 0.1543,-5.085937 0.0144,-1.842331 -0.0206,-3.693393 -0.125,-5.136719 -0.0522,-0.721663 -0.12002,-1.342966 -0.20703,-1.794922 -0.0196,-0.101597 -0.0452,-0.193541 -0.0703,-0.277344 z m 9.27344,0 c 0.006,0.0297 0.0117,0.05525 0.0176,0.08594 0.0997,0.517909 0.16884,1.167353 0.22266,1.912109 0.0153,0.211137 0.0287,0.430937 0.041,0.65625 l 3.48047,-0.21289 h 0.008 c 0.44455,-0.01973 0.74262,0.210179 1.04102,0.464843 0.29841,0.254665 0.58728,0.576993 0.84765,0.921875 0.26038,0.344882 0.48805,0.706112 0.66407,1.041016 0.17605,0.334893 0.31559,0.601213 0.32617,0.953125 v 0.0293 l -0.44336,5.771484 -0.16992,0.132813 c -0.38009,0.301455 -0.87677,0.440086 -1.49219,0.591797 -0.61542,0.151721 -1.32582,0.278346 -2.00781,0.382812 -1.15343,0.17671 -2.0639,0.270994 -2.36719,0.300781 -0.0287,0.427625 -0.0581,0.807362 -0.0898,1.117188 -0.008,0.08244 -0.0168,0.154833 -0.0254,0.228516 1.13333,0.861951 2.09565,1.790033 2.71679,2.757812 l 6.60938,-3.478516 -2.83789,-13.65625 h -3.59961 z m 3.8125,3.4375 -3.48633,0.22461 c 0.0386,1.11673 0.0487,2.337487 0.0391,3.554687 -0.01,1.212564 -0.0391,2.41722 -0.0801,3.507813 l 0.0664,1.267578 c 0.35824,-0.03617 0.97022,-0.08774 2.0293,-0.25 0.66442,-0.101821 1.35314,-0.229412 1.91992,-0.369141 0.48072,-0.118488 0.78235,-0.25556 0.94336,-0.339843 l 0.40625,-5.189454 c -8.7e-4,0.01646 -0.0696,-0.237072 -0.21289,-0.509765 -0.14509,-0.276042 -0.35547,-0.605539 -0.58398,-0.908203 -0.2285,-0.302657 -0.47846,-0.576383 -0.69336,-0.759766 -0.21491,-0.18342 -0.39781,-0.226293 -0.34766,-0.228516 z"
           transform="matrix(0.26458333,0,0,0.26458333,0,255)" />
        <path
           id="rect6047"
           style="fill:#000000;stroke-width:0.570225"
           d="m 138.11328,32.613281 c -1.84402,0.01134 -3.71345,0.280174 -4.125,0.785157 -0.23253,0.596942 -0.26605,4.852284 -0.0801,6.203124 h 8.31446 c 0.32766,-1.420404 0.091,-5.550049 -0.12891,-6.203124 -0.31691,-0.541418 -2.13644,-0.794265 -3.98047,-0.785157 z"
           transform="matrix(0.26458333,0,0,0.26458333,0,255)" />
        <path
           id="rect6047-6"
           style="fill:#000000;stroke-width:0.570225"
           d="m 150.32227,32.273438 c -1.84403,0.01134 -3.71346,0.282126 -4.125,0.787109 -0.25895,0.664749 -0.27317,5.866618 -0.01,6.541015 h 8.12891 c 0.49167,-0.896336 0.22829,-5.822452 -0.0137,-6.541015 -0.31691,-0.541417 -2.13644,-0.796218 -3.98046,-0.787109 z"
           transform="matrix(0.26458333,0,0,0.26458333,0,255)" />
        <path
           id="path6784"
           style="fill:#000000;stroke:none;stroke-width:0.264583px;stroke-linecap:butt;stroke-linejoin:miter;stroke-opacity:1"
           d="m 33.805688,264.17567 c 0,0 -8.659122,0.01 -9.161198,0.14211 l -5.227071,1.45417 c -0.07895,0.0703 -0.225293,0.83253 -0.267167,1.20613 1.229517,0.008 2.439522,0.0393 3.126941,0.12506 v -0.80977 c 0,0 1.442378,-0.27558 2.730066,-0.30076 0.429229,-0.008 0.840931,0.0113 1.176672,0.078 l -0.02015,0.66404 c 0.08271,-0.18883 0.214586,-0.36714 0.353467,-0.33693 l 1.055748,0.22996 v -0.56689 c 0,-0.22183 0.17866,-0.40049 0.400492,-0.40049 h 8.189683 c 0.04342,-0.0145 0.09006,-0.0227 0.13849,-0.0227 h 4.541843 c 0.144269,0 0.271246,0.0699 0.349851,0.17777 0.148942,0.0751 0.250629,0.22942 0.250629,0.40824 v 1.77612 c 0,0.14331 -0.06534,0.27033 -0.167947,0.35399 v 10e-4 c 0,0.23988 -0.192646,0.43305 -0.432533,0.43305 h -2.027782 v 0.73225 c 0,0.22183 -0.17866,0.40049 -0.400492,0.40049 h -1.042316 c -0.15776,0.43258 -0.568946,0.72055 -1.029393,0.72089 -0.460637,-1.4e-4 -0.872085,-0.28813 -1.029912,-0.72089 H 35.05626 c -0.157033,0.43395 -0.568939,0.72316 -1.030428,0.72347 -0.461677,-10e-5 -0.873847,-0.28934 -1.030944,-0.72347 h -0.496612 c -0.16887,0.41125 -0.569322,0.67985 -1.013891,0.68007 -0.444569,-2.2e-4 -0.845019,-0.26882 -1.013892,-0.68007 l -2.209167,0.75293 -0.150379,0.0362 c 6.382901,-0.16912 14.020901,-0.039 18.268654,0.94361 l 0.01704,-2.44222 -0.195337,-0.15762 h -2.832901 -0.404628 v -0.55707 -0.55707 h 0.404628 1.47071 c -0.127138,-0.18054 -2.072905,-2.92441 -3.01997,-3.00809 -0.210709,-0.26445 -6.17165,0.21618 -6.451285,0.38551 l -0.918292,0.31213 z m -10.842232,6.2544 0.02584,0.4873 c 0.925181,-0.0523 1.935976,-0.0995 2.997233,-0.14004 -0.0023,-0.0176 -0.0061,-0.0357 -0.0057,-0.0522 l 0.0067,-0.24081 c -0.516738,0.0822 -2.100236,0.003 -3.024105,-0.0543 z" />
        <path
           id="rect2364"
           style="fill:#000000;stroke:none;stroke-width:0.3;stroke-linecap:round;stroke-miterlimit:4;stroke-dasharray:none;stop-color:#000000"
           d="m 30.477727,267.36204 c -0.203137,0 -0.366387,0.16376 -0.366387,0.3669 v 0.64182 c 0,0.20314 0.16325,0.36639 0.366387,0.36639 h 0.135908 a 1.1614267,1.1614267 0 0 1 0.870747,-0.39481 1.1614267,1.1614267 0 0 1 0.872815,0.39481 h 0.838192 a 1.1614268,1.1614268 0 0 1 0.83044,-0.35089 1.1614268,1.1614268 0 0 1 0.830958,0.35089 h 0.667142 c 0.203136,0 0.366387,-0.16325 0.366387,-0.36639 v -0.64182 c 0,-0.20314 -0.163251,-0.3669 -0.366387,-0.3669 z" />
        <g
           id="g1274"
           transform="translate(-1.6349757)">
          <path
             id="rect28327"
             style="stroke-width:0.0926603;stroke-linecap:round"
             d="m 42.115374,255.79369 c -0.178834,0 -0.725859,0.15399 -0.785291,0.32266 -0.05189,0.14727 -0.05816,0.56929 0,0.63059 0.123138,0.12973 0.606457,0.32266 0.785291,0.32266 h 0.0221 c 0.01012,-0.44714 0.0284,-0.87529 0.05598,-1.23393 0.0012,-0.0151 0.0024,-0.0271 0.0037,-0.0419 z m 10.957982,0 c 0.01999,0.36635 0.03068,0.81362 0.03684,1.27591 h 0.123766 c 0.178835,0 0.322663,-0.14382 0.322663,-0.32266 v -0.63059 c 0,-0.17883 -0.143828,-0.32266 -0.322663,-0.32266 z m -10.975664,2.27189 c -0.194713,0.009 -0.710037,0.15927 -0.767609,0.32266 -0.05189,0.14728 -0.05816,0.56855 0,0.62985 0.123138,0.12973 0.606457,0.32267 0.785291,0.32267 h 0.04714 c -0.01946,-0.37739 -0.03061,-0.81611 -0.03314,-1.27518 h -0.01397 c -0.0056,0 -0.0114,-2.9e-4 -0.01768,0 z m 11.01471,0 c -0.0043,0.45783 -0.01311,0.89992 -0.03093,1.27518 h 0.152487 c 0.178835,0 0.322663,-0.14383 0.322663,-0.32267 v -0.62985 c 0,-0.17883 -0.143828,-0.32266 -0.322663,-0.32266 z" />
          <path
             id="path18877"
             style="color:#000000;fill:#000000;stroke-width:0.889002;stroke-linecap:round;-inkscape-stroke:none"
             d="m 191.66016,-2.6015625 c -0.52004,0.022677 -0.9858,0.3790192 -1.125,0.9101563 l -6.10547,23.3046872 c -0.1714,0.653821 0.21534,1.316918 0.86914,1.488281 l 1.93164,0.507813 c 0.65377,0.171213 1.31884,-0.217311 1.49023,-0.871094 l 6.10547,-23.30468725 c 0.1714,-0.65382045 -0.21728,-1.31890835 -0.87109,-1.49023435 L 192.02539,-2.5625 c -0.12257,-0.034016 -0.2452,-0.042401 -0.36523,-0.037109 z m -6.95508,1.97070312 c -0.41061,4.9134e-4 -0.82623,7.8148e-4 -1.24219,0.001953 -1.10923,0.00325 -2.23312,0.0120989 -3.35937,0.0234375 v -0.001953 c -4.50503,0.0340158 -9.01242,0.11645153 -12.46094,0.22265626 -1.72426,0.0540472 -3.18769,0.10176365 -4.25196,0.16601562 -0.53216,0.0340158 -0.9589,0.0706971 -1.2832,0.10546875 -0.16214,0.01511811 -0.29945,0.034656 -0.41211,0.0546875 -0.11267,0.02267717 -0.1733,0.0226971 -0.32422,0.10546875 l -0.0527,0.03320312 -0.043,0.03515626 c -0.17798,0.17083464 -0.23668,0.35142672 -0.30664,0.56640624 -0.0699,0.21505512 -0.12391,0.47034388 -0.17773,0.76953128 -0.10772,0.5990929 -0.2025,1.3732796 -0.27344,2.2714843 -0.14215,1.7964851 -0.2169,4.0823498 -0.23047,6.3671878 -0.0136,2.284838 0.0391,4.563313 0.14844,6.333984 0.0545,0.885354 0.12036,1.644049 0.20703,2.222656 0.0431,0.289134 0.0913,0.531075 0.14844,0.734375 0.0572,0.202961 0.0834,0.366202 0.27343,0.548829 h 0.0117 c 0.15481,0.146645 0.24937,0.156193 0.36914,0.189453 0.11978,0.03402 0.25678,0.05791 0.41992,0.08398 0.32629,0.05405 0.75705,0.09363 1.28516,0.136719 1.0562,0.08655 2.4967,0.162939 4.20899,0.222656 3.42457,0.120189 7.91644,0.189329 12.41796,0.197266 1.48501,0.0036 2.9669,-0.0014 4.41602,-0.01172 l 5.59375,-21.3496095 C 188.56536,-0.61290108 187.27324,-0.625 185.92578,-0.625 c -0.40296,-5.2913e-4 -0.81011,-5.2913e-4 -1.2207,0 z m 10.55273,0.1484375 c -0.002,0.0101128 -0.004,0.0211372 -0.006,0.03125 L 189.7168,20.669922 c 0.89407,-0.02268 1.75203,-0.04386 2.55078,-0.07031 1.74117,-0.0582 3.22436,-0.13787 4.32422,-0.230468 0.54993,-0.04838 1.00832,-0.09137 1.35937,-0.148438 0.33336,-0.05443 0.5273,-0.07551 0.77539,-0.242187 0.13652,-0.07861 0.21264,-0.173339 0.25391,-0.251954 0.0463,-0.08769 0.0777,-0.178193 0.10547,-0.273437 0.0554,-0.190866 0.0964,-0.415212 0.13672,-0.695313 0.0808,-0.560692 0.14897,-1.313236 0.20117,-2.208984 0.10446,-1.791609 0.15756,-4.136786 0.1582,-6.492187 5.7e-4,-2.3554397 -0.0542,-4.7246895 -0.1582,-6.5468754 -0.0523,-0.9110929 -0.12037,-1.6814356 -0.20117,-2.2636718 -0.0404,-0.29102367 -0.0829,-0.53489159 -0.13672,-0.73437505 -0.0506,-0.18746457 -0.0676,-0.34675792 -0.28321,-0.52734375 -0.13878,-0.12888189 -0.2388,-0.15020719 -0.34765,-0.1796875 -0.11936,-0.0340158 -0.25998,-0.0601734 -0.42188,-0.0839844 -0.32375,-0.0483779 -0.74441,-0.0894724 -1.27148,-0.125 -0.43238,-0.0264567 -0.94706,-0.0546919 -1.50391,-0.078125 z M 165.52734,2.640625 c 0.014,-3.024e-4 0.0271,0 0.041,0 H 182.5 c 0.91446,0 1.66406,0.7476905 1.66406,1.6621094 V 15.183594 c 0,0.914419 -0.7496,1.666015 -1.66406,1.666015 h -16.93164 c -0.91446,0 -1.66211,-0.751596 -1.66211,-1.666015 V 4.3027344 c 0,-0.9001701 0.72619,-1.6392055 1.62109,-1.6621094 z m 0,0.8847656 c -0.41766,0.022677 -0.73828,0.3538855 -0.73828,0.7773438 V 15.183594 c 0,0.43748 0.34195,0.779297 0.7793,0.779297 H 182.5 c 0.43734,0 0.76758,-0.341779 0.76758,-0.779297 V 4.3027344 c 0,-0.4374803 -0.33025,-0.7772682 -0.76758,-0.7773438 h -16.93164 c -0.0136,7.56e-5 -0.0275,-6.425e-4 -0.041,0 z m 2.23828,2.1835938 a 0.49999937,0.49999937 0 0 1 0.1875,0.064453 l 12.38672,7.2851566 a 0.49999937,0.49999937 0 0 1 0.17774,0.679687 0.49999937,0.49999937 0 0 1 -0.6875,0.177735 L 167.44336,6.6367188 a 0.49999937,0.49999937 0 0 1 -0.17774,-0.6875 0.49999937,0.49999937 0 0 1 0.30274,-0.2285157 0.49999937,0.49999937 0 0 1 0.19726,-0.011719 z m 19.22852,13.3886716 c 0.81644,0 1.48438,0.66796 1.48438,1.484375 0,0.816454 -0.66794,1.472657 -1.48438,1.472657 -0.81645,0 -1.48437,-0.656203 -1.48437,-1.472657 0,-0.816415 0.66792,-1.484375 1.48437,-1.484375 z m -0.0586,0.34961 c -0.59939,0.03043 -1.06641,0.527007 -1.06641,1.134765 0,0.627099 0.49783,1.128907 1.125,1.128907 0.62718,0 1.13477,-0.501808 1.13477,-1.128907 0,-0.627364 -0.50761,-1.134765 -1.13477,-1.134765 -0.0196,0 -0.0393,-9.82e-4 -0.0586,0 z"
             transform="matrix(0.26458333,0,0,0.26458333,0,255)" />
          <path
             id="rect27086"
             style="fill:#000000;fill-opacity:1;stroke:none;stroke-width:0.0926604;stroke-linecap:round;stroke-miterlimit:4;stroke-dasharray:none;stroke-opacity:1"
             d="m 44.500534,259.9743 c 0,0 0.01339,0.90185 0.09282,1.23908 h -1.940391 c -0.178835,0 -0.323398,0.14456 -0.323398,0.3234 v 0.13628 c 0.545203,-0.0161 1.195669,-0.0252 1.874827,-0.0265 0.240664,-7.2e-4 0.483893,-8.3e-4 0.727832,0 0.975757,0.003 1.949485,0.0187 2.688847,0.0442 0.314097,0.0114 0.58116,0.0239 0.794132,0.0383 v -0.19227 c 0,-0.17884 -0.143825,-0.3234 -0.322662,-0.3234 H 47.65275 c 0.601678,-0.40216 0.808035,-0.43896 0.910347,-1.15589 z"
             sodipodi:nodetypes="ccsscccccssccc" />
        </g>
        <path
           id="rect1298"
           style="color:#000000;fill:#000000;stroke-width:1;stroke-linecap:round;-inkscape-stroke:none"
           d="m 36.540921,265.80089 c -0.299439,0 -0.546735,0.24523 -0.546735,0.54467 v 1.67587 c 0,0.29944 0.247296,0.54518 0.546735,0.54518 h 3.91604 c 0.212489,0 0.397602,-0.12403 0.487309,-0.30282 h -0.487309 -3.580659 -0.04961 v -0.005 c -0.11236,-0.022 -0.194304,-0.1177 -0.194304,-0.23771 v -1.67587 c 0,-0.12001 0.08194,-0.21522 0.194304,-0.23719 v -0.005 h 4.117578 c -0.08971,-0.17879 -0.27482,-0.30231 -0.487309,-0.30231 z" />
        <g
           id="g2196"
           transform="translate(-0.03697338,0.00996739)">
          <path
             style="fill:none;stroke:#000000;stroke-width:0.264583px;stroke-linecap:round;stroke-linejoin:miter;stroke-opacity:1"
             d="M 36.847567,266.29487 H 41.08013"
             id="path1996" />
          <path
             style="fill:none;stroke:#000000;stroke-width:0.264583px;stroke-linecap:round;stroke-linejoin:miter;stroke-opacity:1"
             d="M 36.847567,266.64644 H 41.08013"
             id="path1996-3" />
          <path
             style="fill:none;stroke:#000000;stroke-width:0.264583px;stroke-linecap:round;stroke-linejoin:miter;stroke-opacity:1"
             d="M 36.847567,266.998 H 41.08013"
             id="path1996-6" />
          <path
             style="fill:none;stroke:#000000;stroke-width:0.264583px;stroke-linecap:round;stroke-linejoin:miter;stroke-opacity:1"
             d="M 36.847567,267.34957 H 41.08013"
             id="path1996-7" />
          <path
             style="fill:none;stroke:#000000;stroke-width:0.264583px;stroke-linecap:round;stroke-linejoin:miter;stroke-opacity:1"
             d="M 36.847567,267.70113 H 41.08013"
             id="path1996-5" />
          <path
             style="fill:none;stroke:#000000;stroke-width:0.264583px;stroke-linecap:round;stroke-linejoin:miter;stroke-opacity:1"
             d="M 36.847567,268.0527 H 41.08013"
             id="path1996-35" />
        </g>
        <circle
           style="fill:#000000;stroke:none;stroke-width:0.3;stroke-linecap:round;stroke-miterlimit:4;stroke-dasharray:none;stop-color:#000000"
           id="path2220"
           cx="31.484556"
           cy="269.50378"
           r="0.92742538" />
        <circle
           style="fill:#000000;stroke:none;stroke-width:0.3;stroke-linecap:round;stroke-miterlimit:4;stroke-dasharray:none;stop-color:#000000"
           id="path2220-6"
           cx="34.025627"
           cy="269.54764"
           r="0.92742538" />
        <circle
           style="fill:#000000;stroke:none;stroke-width:0.3;stroke-linecap:round;stroke-miterlimit:4;stroke-dasharray:none;stop-color:#000000"
           id="path2220-2"
           cx="36.343288"
           cy="269.54477"
           r="0.92742538" />
        <path
           style="fill:#000000;stroke:none;stroke-width:0.264583px;stroke-linecap:butt;stroke-linejoin:miter;stroke-opacity:1"
           d="m 26.642173,266.73459 c -0.207272,0.0539 -0.205888,3.93003 -0.07152,4.0126 0,0 2.947687,-0.526 3.224127,-0.80654 0.08817,-0.11444 0.116057,-2.23644 0.02244,-2.34319 -0.14234,-0.24152 -2.974358,-0.99976 -3.175047,-0.86287 z"
           id="path2606"
           sodipodi:nodetypes="ccccc" />
        <path
           style="fill:#000000;stroke:none;stroke-width:0.264583px;stroke-linecap:butt;stroke-linejoin:miter;stroke-opacity:1"
           d="m 30.394391,265.68706 -0.03842,1.56915 1.59182,-0.2152 -0.266454,-1.19239 z"
           id="path3085" />
        <path
           style="fill:#000000;stroke:none;stroke-width:0.264583px;stroke-linecap:butt;stroke-linejoin:miter;stroke-opacity:1"
           d="m 32.743677,266.22036 0.118059,0.78702 2.871317,0.0883 -0.216935,-0.91898 c -0.365725,-0.24264 -1.878861,-0.40325 -2.772441,0.0437 z"
           id="path3087"
           sodipodi:nodetypes="ccccc" />
        <path
           style="fill:#000000;stroke:none;stroke-width:0.065;stroke-linecap:butt;stroke-linejoin:miter;stroke-miterlimit:4;stroke-dasharray:none;stroke-opacity:1"
           d="m 31.861879,266.28177 0.139284,0.64136 h 0.747279 l -0.115679,-0.6049 z"
           id="path3293" />
        <path
           style="fill:#000000;stroke:none;stroke-width:0.264583px;stroke-linecap:butt;stroke-linejoin:miter;stroke-opacity:1"
           d="m 27.672846,266.50763 c 0.273367,0.0131 2.210911,0.38982 2.366188,0.1571 0,0 0.212039,-0.64276 0.12006,-0.81175 -0.09627,-0.10215 -2.346458,-0.50441 -2.486248,0.65465 z"
           id="path3444"
           sodipodi:nodetypes="cccc" />
        <path
           id="rect5069"
           style="fill:#000000;stroke-width:0.100683;stroke-linecap:round;stop-color:#000000"
           d="m 32.139122,270.99644 c -7.436874,0.0307 -15.618581,0.55167 -20.200316,1.47071 -0.789725,0.15841 -1.477471,0.58449 -1.714624,1.26711 h 39.330932 c -0.281075,-0.58203 -1.022271,-0.83591 -1.685169,-1.26711 -1.601697,-1.04186 -8.293946,-1.50142 -15.730823,-1.47071 z m -21.831741,4.56406 c 0.287449,0.61279 0.907447,1.03611 1.631425,1.03611 h 35.931139 c 0.723932,0 1.343435,-0.42339 1.630908,-1.03611 z" />
        <rect
           style="fill:#000000;stroke:none;stroke-width:0.0649999;stroke-linecap:round;stroke-miterlimit:4;stroke-dasharray:none;stop-color:#000000"
           id="rect5435"
           width="43.873497"
           height="1.0660928"
           x="6.5749054"
           y="274.11423"
           ry="0.53304642" />
        <path
           id="path5665"
           style="fill:#000000;stroke:none;stroke-width:0.275508px;stroke-linecap:butt;stroke-linejoin:miter;stroke-opacity:1"
           d="m 25.08684,266.34659 c -1.11284,0.003 -2.427242,0.25374 -2.427242,0.25374 v 0.56947 c 0.05683,0.0148 0.102869,0.0301 0.13591,0.047 l 0.148311,2.83962 c 0.680788,0.0452 2.452482,0.15119 2.885095,0.0574 l 0.112138,-3.70055 c -0.246727,-0.049 -0.542616,-0.0675 -0.854212,-0.0667 z" />
        <path
           style="fill:#000000;stroke:none;stroke-width:0.264583px;stroke-linecap:butt;stroke-linejoin:miter;stroke-opacity:1"
           d="m 15.893017,267.315 -3.375426,4.75798 c 1.328271,-0.61346 10.216873,-1.13376 10.216873,-1.13376 l -0.180108,-3.44603 C 21.91387,267.16509 15.893017,267.315 15.893017,267.315 Z"
           id="path5929"
           sodipodi:nodetypes="ccccc" />
        <path
           id="rect6524"
           style="fill:#000000;stroke:none;stroke-width:0.0649999;stroke-linecap:round;stroke-miterlimit:4;stroke-dasharray:none;stop-color:#000000"
           d="m 42.907457,268.09791 v 0.39842 0.39843 h 0.398426 6.395476 1.381311 c 0.220678,0 0.398425,-0.17775 0.398425,-0.39843 0,-0.22067 -0.177747,-0.39842 -0.398425,-0.39842 h -1.381311 -6.395476 z" />
        <path
           id="path7485"
           style="fill:#000000;stroke:none;stroke-width:0.264583px;stroke-linecap:butt;stroke-linejoin:miter;stroke-opacity:1"
           d="m 43.656765,262.32255 c -0.654148,0.003 -1.221311,0.0657 -1.524971,0.22686 -0.130992,0.47938 0.243396,1.99419 0.243396,1.99419 l -0.750859,0.11473 c 0.800722,0.16238 1.421903,0.54335 2.975531,2.27893 0,0 5.127884,-0.40682 5.345409,-0.71882 0,0 0.575754,-0.4579 0.207222,-0.90331 0,0 -2.086409,-2.28147 -2.721798,-2.5461 -0.186278,-0.12983 -2.224628,-0.45411 -3.77393,-0.44648 z m -0.07648,1.16375 3.431315,0.0605 0.879017,1.01596 a 0.1322915,0.1322915 0 0 1 -0.01344,0.18759 0.1322915,0.1322915 0 0 1 -0.185517,-0.014 l -0.803051,-0.92759 -2.947109,-0.0512 0.44907,1.44332 a 0.1322915,0.1322915 0 0 1 -0.08785,0.1664 0.1322915,0.1322915 0 0 1 -0.163814,-0.0879 z" />
        <rect
           style="fill:#000000;stroke:none;stroke-width:0.0706439;stroke-linecap:round;stroke-miterlimit:4;stroke-dasharray:none;stop-color:#000000"
           id="rect9272"
           width="1.101905"
           height="1.0255576"
           x="37.485329"
           y="268.72342"
           ry="0.47051451" />
        <path
           id="path10162"
           style="fill:#000000;stroke:none;stroke-width:0.999999px;stroke-linecap:butt;stroke-linejoin:miter;stroke-opacity:1"
           d="m 83.041016,17.201172 -5.648438,0.125 1.71875,2.074219 a 1.0677165,1.0677165 0 0 1 -0.146484,1.505859 1.0677165,1.0677165 0 0 1 -1.5,-0.140625 l -2.796875,-3.378906 -3.636719,0.08008 1.525391,1.84375 a 1.0677165,1.0677165 0 0 1 -0.140625,1.505859 1.0677165,1.0677165 0 0 1 -1.498047,-0.146484 l -2.605469,-3.142578 -3.621094,0.08008 1.31836,1.59375 a 1.0677165,1.0677165 0 0 1 -0.140625,1.505859 1.0677165,1.0677165 0 0 1 -1.50586,-0.140625 l -2.398437,-2.898437 -3.644532,0.08008 1.140626,1.378906 A 1.0677165,1.0677165 0 0 1 59.320312,20.625 1.0677165,1.0677165 0 0 1 57.814453,20.484375 l -2.214844,-2.675781 -3.798828,0.08398 1.113281,1.34375 a 1.0677165,1.0677165 0 0 1 -0.140624,1.50586 1.0677165,1.0677165 0 0 1 -1.50586,-0.146485 l -2.1875,-2.644531 -3.419922,0.07617 -2.023437,4.125 39.083984,0.101562 z"
           transform="matrix(0.26458333,0,0,0.26458333,0,255)" />
        <path
           id="path10332"
           style="fill:#000000;stroke:none;stroke-width:0.999999px;stroke-linecap:butt;stroke-linejoin:miter;stroke-opacity:1"
           d="m 121.69531,16.101562 -5.9375,0.126954 a 1.0677165,1.0677165 0 0 1 -0.35742,0.564453 1.0677165,1.0677165 0 0 1 -1.49805,-0.138672 l -0.31445,-0.380859 -3.31836,0.07031 a 1.0677165,1.0677165 0 0 1 -0.38281,0.908203 1.0677165,1.0677165 0 0 1 -1.50586,-0.140625 l -0.5918,-0.714844 -3.58594,0.07617 a 1.0677165,1.0677165 0 0 1 -0.37695,0.683594 1.0677165,1.0677165 0 0 1 -1.50586,-0.140625 l -0.4082,-0.494141 -4.697266,0.09961 a 1.0677165,1.0677165 0 0 1 -0.22461,1.390625 1.0677165,1.0677165 0 0 1 -1.505859,-0.140625 l -0.986328,-1.191406 -3.294922,0.06836 2.273437,2.748047 a 1.0677165,1.0677165 0 0 1 -0.140624,1.505859 1.0677165,1.0677165 0 0 1 -1.498047,-0.148437 l -3.353516,-4.046875 -3.863281,0.08203 -0.47461,5.333984 13.117188,-0.02148 0.513672,-3.953125 25.003906,0.09766 z"
           transform="matrix(0.26458333,0,0,0.26458333,0,255)" />
      </g>
    </g>
    <path
       id="rect20686"
       style="fill:#000000;stroke:none;stroke-width:0.487556;stroke-linecap:round;stroke-miterlimit:4;stroke-dasharray:none;stop-color:#000000"
       d="m 20.531001,266.02262 5.29e-4,5.3e-4 c -0.146378,0.009 -0.27006,0.1201 -0.290938,0.2713 l -0.0021,0.0155 c -0.02386,0.17279 0.09593,0.33116 0.268718,0.35502 l 2.69751,0.37259 c -0.01628,0.16766 0.101829,0.31885 0.270267,0.3421 l 3.293341,0.44855 c 0.841906,-0.007 1.683699,-0.0336 2.525656,-0.0336 0.0061,-0.28072 0.06841,-0.55326 -0.02249,-0.76603 l -2.119744,-0.38636 c -0.0334,-0.006 -0.06445,-0.0159 -0.09405,-0.0289 l -3.412198,-0.4713 c -0.168438,-0.0232 -0.323163,0.0906 -0.35295,0.25632 l -2.69751,-0.37259 c -0.0216,-0.003 -0.04317,-0.004 -0.06408,-0.003 z"
       sodipodi:nodetypes="cccccccccccccccc" />
  </g>
</svg>
