<?xml version="1.0" encoding="UTF-8" standalone="no"?>
<!-- Created with Inkscape (http://www.inkscape.org/) -->

<svg
   width="60mm"
   height="42mm"
   viewBox="0 0 60 42"
   version="1.1"
   id="svg8"
   inkscape:version="1.1.2 (0a00cf5339, 2022-02-04)"
   sodipodi:docname="DI Schmitt.svg"
   xmlns:inkscape="http://www.inkscape.org/namespaces/inkscape"
   xmlns:sodipodi="http://sodipodi.sourceforge.net/DTD/sodipodi-0.dtd"
   xmlns="http://www.w3.org/2000/svg"
   xmlns:svg="http://www.w3.org/2000/svg"
   xmlns:rdf="http://www.w3.org/1999/02/22-rdf-syntax-ns#"
   xmlns:cc="http://creativecommons.org/ns#"
   xmlns:dc="http://purl.org/dc/elements/1.1/">
  <defs
     id="defs2" />
  <sodipodi:namedview
     id="base"
     pagecolor="#ffffff"
     bordercolor="#666666"
     borderopacity="1.0"
     inkscape:pageopacity="0.0"
     inkscape:pageshadow="2"
     inkscape:zoom="1.4142136"
     inkscape:cx="138.23937"
     inkscape:cy="212.48559"
     inkscape:document-units="mm"
     inkscape:current-layer="layer1"
     showgrid="false"
     inkscape:window-width="1846"
     inkscape:window-height="1016"
     inkscape:window-x="74"
     inkscape:window-y="1107"
     inkscape:window-maximized="1"
     inkscape:snap-global="false"
     showguides="true"
     inkscape:pagecheckerboard="0" />
  <metadata
     id="metadata5">
    <rdf:RDF>
      <cc:Work
         rdf:about="">
        <dc:format>image/svg+xml</dc:format>
        <dc:type
           rdf:resource="http://purl.org/dc/dcmitype/StillImage" />
      </cc:Work>
    </rdf:RDF>
  </metadata>
  <g
     inkscape:label="Capa 1"
     inkscape:groupmode="layer"
     id="layer1"
     transform="translate(0,-255)">
    <g
       id="g876"
       transform="translate(0.32770082,-0.73968)">
      <path
         id="rect28327"
         style="stroke-width:0.0926603;stroke-linecap:round"
         d="m 47.59203,264.06141 c -0.178834,0 -0.725859,0.15399 -0.785291,0.32266 -0.05189,0.14727 -0.05816,0.56929 0,0.63059 0.123138,0.12973 0.606457,0.32266 0.785291,0.32266 h 0.0221 c 0.01012,-0.44714 0.0284,-0.87529 0.05598,-1.23393 0.0012,-0.0151 0.0024,-0.0271 0.0037,-0.0419 z m 10.957982,0 c 0.01999,0.36635 0.03068,0.81362 0.03684,1.27591 h 0.123766 c 0.178835,0 0.322663,-0.14382 0.322663,-0.32266 v -0.63059 c 0,-0.17883 -0.143828,-0.32266 -0.322663,-0.32266 z m -10.975664,2.27189 c -0.194713,0.009 -0.710037,0.15927 -0.767609,0.32266 -0.05189,0.14728 -0.05816,0.56855 0,0.62985 0.123138,0.12973 0.606457,0.32267 0.785291,0.32267 h 0.04714 c -0.01946,-0.37739 -0.03061,-0.81611 -0.03314,-1.27518 h -0.01397 c -0.0056,0 -0.0114,-2.9e-4 -0.01768,0 z m 11.01471,0 c -0.0043,0.45783 -0.01311,0.89992 -0.03093,1.27518 h 0.152487 c 0.178835,0 0.322663,-0.14383 0.322663,-0.32267 v -0.62985 c 0,-0.17883 -0.143828,-0.32266 -0.322663,-0.32266 z" />
      <path
         id="rect22320"
         style="display:inline;fill:#000000;fill-opacity:1;stroke:none;stroke-width:0.0926604;stroke-linecap:round;stroke-miterlimit:4;stroke-dasharray:none;stroke-opacity:1"
         d="m 17.402326,267.10312 c -0.202821,0.006 -0.370273,0.16505 -0.384542,0.37202 0,0 -0.144742,1.19497 -0.395593,1.161 l -2.061206,-0.12376 c -0.115797,-0.008 -0.223215,0.0335 -0.301298,0.10681 L 2.8611732,267.83316 c -0.2207764,-0.0152 -0.411313,0.15051 -0.4265325,0.37129 l -0.00442,0.0648 -1.65088,-0.11418 c -0.2207734,-0.0152 -0.4105764,0.15124 -0.4257958,0.37202 l -0.041254,0.60333 c -0.015219,0.22078 0.1497689,0.41058 0.3705456,0.4258 l 1.6508801,0.11345 -0.00442,0.0656 c -0.015219,0.22078 0.1505055,0.41058 0.3712822,0.4258 l 11.3992502,0.78602 c 0.06729,0.0834 0.167822,0.13935 0.283619,0.14734 l 2.373554,0.16354 -0.0066,0.0936 c -0.01522,0.22077 0.150505,0.41057 0.371282,0.42579 l 5.923574,0.40885 c 0.220777,0.0152 0.410577,-0.1505 0.425796,-0.37128 l 0.107554,-0.13849 1.470396,0.10976 c 0.165235,0.0114 0.312687,-0.0788 0.383069,-0.21732 0.02716,0.007 0.05555,0.012 0.08472,0.014 l 2.158447,0.14881 c 0.03729,0.19115 0.198256,0.33954 0.402222,0.3536 l 1.968387,0.13555 c -0.0011,0.2313 0.176216,0.42586 0.410325,0.442 l 1.623621,0.11197 c 0.219142,-0.60391 0.433476,-1.01943 0.570923,-1.02986 0.156056,-0.02 1.541434,-0.003 3.085176,-0.009 v 7.5e-4 0.0913 c 0.03334,-0.009 0.06608,-0.0206 0.102399,-0.0206 h 0.902495 l 0.248185,-1.76801 c 0.01678,-0.24369 -0.166629,-0.4532 -0.410325,-0.46999 l -5.881583,-0.40591 c -0.234041,-0.0161 -0.436479,0.15167 -0.467049,0.38086 l -1.96765,-0.13555 c -0.203713,-0.0141 -0.383776,0.11154 -0.447159,0.29541 L 25.65676,269.5554 c -0.02889,-0.002 -0.05777,-4.5e-4 -0.08545,0.003 -0.05048,-0.14729 -0.184335,-0.256 -0.349919,-0.26741 l -0.889162,-0.12892 c -0.260268,-0.14388 -0.329292,-1.18236 -0.329292,-1.18236 0.01523,-0.22077 -0.149769,-0.41057 -0.370546,-0.42579 l -6.188774,-0.44938 c -0.0138,-9.5e-4 -0.02773,-0.002 -0.04125,-10e-4 z"
         sodipodi:nodetypes="sccccccccccccccccccccccccccccccccccsccccccccccccccs" />
      <path
         id="rect20397-8-8"
         style="fill:#000000;stroke-width:0.0926604;stroke-linecap:round"
         d="m 31.391713,272.82485 c -0.481631,1.50889 -0.892337,3.77033 -0.391173,4.43034 0,0 0.235799,0.004 0.249732,0.004 -0.07022,-1.23575 0.440424,-3.29646 0.880321,-4.35373 z"
         sodipodi:nodetypes="ccccc" />
      <path
         id="rect6047"
         style="fill:#000000;stroke-width:0.235215"
         d="m 20.019719,272.31728 c -0.760649,0.004 -1.531214,0.11586 -1.700974,0.32414 -0.108113,0.27755 -0.112818,2.47394 0,2.70874 0.272834,0.21383 3.035799,0.22501 3.343014,0 0.210362,-0.34242 0.100715,-2.40965 0,-2.70874 -0.130731,-0.22334 -0.881392,-0.3279 -1.64204,-0.32414 z m 1.698027,3.09476 c -0.01672,0.06 -0.03603,0.10468 -0.0582,0.13039 -0.307215,0.22501 -3.070917,0.21383 -3.343751,0 -0.01041,-0.0215 -0.01888,-0.0589 -0.02726,-0.1105 -0.15806,0.18599 -0.168898,1.10842 0.02726,1.17941 0.176013,0.12539 2.822967,0.23428 3.393108,0 0.185687,-0.21222 0.236877,-1.06822 0.0088,-1.1993 z m -2.500999,1.45492 c -0.06215,0.43988 -0.103846,1.61396 0.02652,1.70098 0.227937,0.15331 1.141136,0.16043 1.454926,0 0.08538,-0.0897 0.08908,-1.22167 0.0302,-1.68182 -0.488336,0.0177 -1.053082,0.007 -1.511649,-0.0192 z" />
      <path
         id="rect6047-7"
         style="fill:#000000;stroke-width:0.235215"
         d="m 24.277814,272.27033 c -0.760648,0.004 -1.531214,0.1159 -1.700972,0.32414 -0.108114,0.27756 -0.112818,2.47394 0,2.70874 0.272833,0.21383 3.035798,0.22501 3.343013,0 0.210362,-0.34242 0.100714,-2.40964 0,-2.70874 -0.130737,-0.22334 -0.881391,-0.3279 -1.642041,-0.32414 z m 1.698028,3.09476 c -0.01672,0.06 -0.03602,0.10464 -0.05819,0.13044 -0.307215,0.22501 -3.070917,0.21383 -3.34375,0 -0.01041,-0.0215 -0.01887,-0.0589 -0.02726,-0.11048 -0.15806,0.18599 -0.168897,1.10842 0.02726,1.17941 0.176012,0.12545 2.822965,0.23429 3.393106,0 0.185688,-0.21222 0.236878,-1.06822 0.0088,-1.1993 z m -2.500999,1.45493 c -0.06215,0.43988 -0.103851,1.61396 0.02651,1.70097 0.227936,0.15332 1.141135,0.16043 1.454926,0 0.08538,-0.0897 0.08908,-1.22166 0.03021,-1.68181 -0.488336,0.0177 -1.053082,0.007 -1.511648,-0.0191 z" />
      <path
         id="rect6047-9"
         style="fill:#000000;stroke-width:0.235215"
         d="m 28.496385,272.14982 c -0.760649,0.004 -1.531215,0.11589 -1.700974,0.32414 -0.108114,0.27755 -0.112818,2.47393 0,2.70873 0.272833,0.21384 3.035799,0.22501 3.343014,0 0.210362,-0.34241 0.100715,-2.40964 0,-2.70873 -0.130737,-0.22334 -0.881392,-0.32791 -1.64204,-0.32414 z m 1.698027,3.09476 c -0.01672,0.06 -0.03602,0.10463 -0.05819,0.13043 -0.307215,0.22501 -3.070918,0.21384 -3.343751,0 -0.01041,-0.0215 -0.01888,-0.0589 -0.02726,-0.11048 -0.15806,0.186 -0.168898,1.10842 0.02726,1.17942 0.176013,0.12544 2.822967,0.23428 3.393108,0 0.185687,-0.21223 0.236877,-1.06822 0.0088,-1.1993 z m -2.500999,1.45492 c -0.06215,0.43988 -0.103851,1.61396 0.02652,1.70098 0.227937,0.15332 1.141135,0.16043 1.454925,0 0.08538,-0.0897 0.08908,-1.22167 0.03021,-1.68182 -0.488336,0.0177 -1.053082,0.007 -1.511648,-0.0191 z" />
      <path
         id="path2573"
         style="color:#000000;fill:#000000;stroke-width:0.584943;stroke-dasharray:1.16989, 0.584943;-inkscape-stroke:none"
         d="m 14.888804,281.6347 c -0.02558,0.0471 -0.121666,0.0815 -0.224685,0.1547 0.06934,-0.004 0.138881,-0.007 0.209215,-0.007 1.978148,0 3.586115,1.60796 3.586115,3.58612 0,1.97814 -1.607967,3.58611 -3.586115,3.58611 -1.978147,0 -3.583169,-1.60797 -3.583169,-3.58611 0,-1.09412 0.491301,-2.07414 1.264865,-2.73232 -0.240113,-0.012 -0.502436,-0.0295 -0.775715,-0.0545 -0.09034,-0.008 -0.219513,-0.0245 -0.362442,-0.0427 a 4.4793021,4.4793021 0 0 0 -0.119341,0.13849 l -0.232788,-0.18195 -0.014,0.0199 -0.134074,0.18637 -0.122288,0.19227 -0.117131,0.20038 -0.103133,0.20553 -0.09724,0.21216 -0.02799,0.0722 0.273305,0.10756 a 4.4793021,4.4793021 0 0 0 -0.181221,0.55471 l -0.283619,-0.0803 -0.0059,0.0111 -0.05304,0.23131 -0.04125,0.23352 -0.03094,0.23942 -0.01694,0.24237 -0.0081,0.24531 0.0029,0.042 0.292458,-0.007 a 4.4793021,4.4793021 0 0 0 0.04273,0.58271 l -0.290985,0.0368 0.0088,0.0722 0.04125,0.23647 0.05304,0.22837 0.06704,0.22837 0.07219,0.22247 0.08324,0.20627 0.275515,-0.10829 a 4.4793021,4.4793021 0 0 0 0.260782,0.52378 l -0.254889,0.14733 0.03904,0.0633 0.122287,0.19522 0.134075,0.18638 0.142177,0.17827 0.150281,0.17533 0.155438,0.16428 0.02505,0.0221 0.203321,-0.21289 a 4.4793021,4.4793021 0 0 0 0.441266,0.38306 l -0.181958,0.23132 0.03315,0.0273 0.186378,0.13112 0.195218,0.12524 0.197428,0.11418 0.206268,0.10608 0.211425,0.0943 0.05599,0.0229 0.10829,-0.27404 a 4.4793021,4.4793021 0 0 0 0.553977,0.18417 l -0.0803,0.28435 0.02726,0.009 0.231315,0.053 0.234261,0.0412 0.239419,0.0309 0.241628,0.0192 0.245311,0.006 h 0.02505 l -0.0074,-0.29246 a 4.4793021,4.4793021 0 0 0 0.584181,-0.0413 l 0.03609,0.28878 0.08914,-0.011 0.236472,-0.042 0.231314,-0.053 0.225422,-0.0641 0.222475,-0.0751 0.192271,-0.0751 -0.107554,-0.27331 a 4.4793021,4.4793021 0 0 0 0.523773,-0.26078 l 0.145861,0.25341 0.07809,-0.0449 0.195218,-0.12524 0.186378,-0.13039 0.181221,-0.14218 0.172381,-0.15028 0.164278,-0.15912 0.01105,-0.0111 -0.211425,-0.20185 a 4.4793021,4.4793021 0 0 0 0.384542,-0.43979 l 0.230578,0.17975 0.0361,-0.0449 0.131128,-0.18637 0.125234,-0.19449 0.114184,-0.20111 0.10608,-0.20553 0.09429,-0.21216 0.01694,-0.0383 -0.272568,-0.10829 a 4.4793021,4.4793021 0 0 0 0.187114,-0.55324 l 0.282882,0.0803 0.01105,-0.0449 0.05304,-0.22837 0.04199,-0.23647 0.0302,-0.23942 0.01989,-0.24236 0.0052,-0.23647 -0.291722,-0.006 0.291722,-0.008 v -0.0707 l -0.293932,0.007 a 4.4793021,4.4793021 0 0 0 -0.04567,-0.58197 l 0.289512,-0.0376 -0.0052,-0.039 -0.04199,-0.23352 -0.05304,-0.23132 -0.06409,-0.22542 -0.07514,-0.22321 -0.08619,-0.21659 -0.014,-0.0369 -0.270358,0.12229 a 4.4793021,4.4793021 0 0 0 -0.265202,-0.52082 l 0.254151,-0.1466 -0.01915,-0.0368 -0.125234,-0.19153 -0.131127,-0.18712 -0.142178,-0.18048 -0.15028,-0.17312 -0.158385,-0.16649 -0.04715,-0.0449 -0.203321,0.2129 a 4.4793021,4.4793021 0 0 0 -0.444212,-0.37937 l 0.03241,-0.0413 z m -0.01547,0.50462 c -0.17954,0 -0.355228,0.0147 -0.52672,0.0427 -0.0458,0.0653 -0.09265,0.12899 -0.139967,0.18711 -0.09738,0.11953 -0.179775,0.22472 -0.326345,0.27846 l -0.0361,0.0118 h -0.04125 c 0,0 -0.27105,0.005 -0.681421,-0.004 -0.889605,0.57459 -1.477762,1.57391 -1.477762,2.7139 0,1.78633 1.443225,3.23251 3.229566,3.23251 1.786343,0 3.232514,-1.44618 3.232514,-3.23251 0,-1.78636 -1.446171,-3.22957 -3.232514,-3.22957 z m -0.632064,0.7794 0.0582,0.2512 -0.03831,0.008 -0.111975,0.0309 -0.08324,0.028 -0.08103,-0.24237 0.08914,-0.028 0.123024,-0.0361 z m 1.578687,0.12302 0.02505,0.0111 0.114184,0.0501 0.103134,0.053 -0.117131,0.22837 -0.09724,-0.0501 -0.103134,-0.0479 -0.01694,-0.005 z m -3.096229,0.91568 0.209214,0.14734 -0.01989,0.025 -0.0582,0.095 -0.05009,0.0862 -0.222474,-0.12817 0.0523,-0.0921 0.06704,-0.10534 z m 4.438444,0.34255 0.0052,0.0111 0.05009,0.11419 0.04788,0.11713 0.0029,0.0111 -0.242365,0.081 v -0.006 l -0.04199,-0.10314 -0.04715,-0.10313 -0.0029,-0.005 z m 0.0029,1.1249 0.255625,0.008 -0.0029,0.12819 -0.01105,0.13039 v 0.009 l -0.253415,-0.0331 0.0088,-0.11713 z m -4.630715,0.28657 0.0088,0.0722 0.0221,0.11418 0.01105,0.0501 -0.247522,0.0589 -0.014,-0.0589 -0.0221,-0.12524 -0.01179,-0.0803 z m 4.039905,1.26707 0.192271,0.16723 -0.01621,0.0169 -0.08398,0.0921 -0.08914,0.0803 -0.175328,-0.18343 0.08324,-0.0781 0.07588,-0.081 z m -3.265664,0.19743 0.05599,0.0471 0.08619,0.067 0.04715,0.0361 -0.147334,0.20921 -0.05304,-0.039 -0.09724,-0.0781 -0.05893,-0.0501 z m 1.793058,0.56282 0.03315,0.25341 -0.0302,0.002 -0.131128,0.0118 -0.108291,0.003 -0.0059,-0.25636 0.100187,-0.003 0.120078,-0.008 z" />
      <path
         id="path2573-2"
         style="color:#000000;display:inline;fill:#000000;stroke-width:0.584943;stroke-dasharray:1.16989, 0.584943;-inkscape-stroke:none"
         d="m 22.229732,282.32054 -0.162067,0.12671 -0.172381,0.15028 -0.167225,0.15617 -0.03315,0.0361 0.213635,0.20406 a 4.4793021,4.4793021 0 0 0 -0.381596,0.44274 l -0.232788,-0.18196 -0.014,0.0199 -0.134074,0.18637 -0.122287,0.19227 -0.117131,0.20038 -0.103134,0.20553 -0.09724,0.21216 -0.02799,0.0722 0.273305,0.10756 a 4.4793021,4.4793021 0 0 0 -0.181221,0.55471 l -0.283618,-0.0803 -0.0059,0.0111 -0.05304,0.23131 -0.04125,0.23353 -0.03094,0.23941 -0.01694,0.24237 -0.0081,0.24531 0.0029,0.042 0.292458,-0.007 a 4.4793021,4.4793021 0 0 0 0.04273,0.58271 l -0.290985,0.0368 0.0088,0.0722 0.04125,0.23647 0.05304,0.22836 0.06704,0.22837 0.07219,0.22248 0.08324,0.20626 0.275515,-0.10829 a 4.4793021,4.4793021 0 0 0 0.260782,0.52378 l -0.254889,0.14733 0.03904,0.0633 0.122288,0.19522 0.134073,0.18638 0.142178,0.17828 0.150281,0.17532 0.155438,0.16428 0.02505,0.0221 0.203321,-0.21289 a 4.4793021,4.4793021 0 0 0 0.441266,0.38306 l -0.181958,0.23132 0.03315,0.0265 0.186378,0.13187 0.195218,0.12523 0.197428,0.11418 0.206267,0.10608 0.211425,0.0943 0.05599,0.0228 0.108291,-0.27404 a 4.4793021,4.4793021 0 0 0 0.553977,0.18416 l -0.0803,0.28436 0.02726,0.008 0.231314,0.053 0.234262,0.0413 0.239418,0.0309 0.241628,0.0192 0.245312,0.006 h 0.02505 l -0.0074,-0.29246 a 4.4793021,4.4793021 0 0 0 0.58418,-0.0412 l 0.0361,0.28878 0.08914,-0.0118 0.236471,-0.042 0.231315,-0.053 0.225421,-0.0641 0.222475,-0.0751 0.192271,-0.0751 -0.107554,-0.27331 a 4.4793021,4.4793021 0 0 0 0.523773,-0.26078 l 0.145861,0.25342 0.07809,-0.0449 0.195217,-0.12523 0.186378,-0.13039 0.181221,-0.14218 0.172381,-0.15028 0.164278,-0.15913 0.01105,-0.011 -0.211424,-0.20184 a 4.4793021,4.4793021 0 0 0 0.384542,-0.4398 l 0.230578,0.17975 0.0361,-0.0449 0.131127,-0.18637 0.125234,-0.19448 0.114184,-0.20112 0.106081,-0.20553 0.09429,-0.21216 0.01694,-0.0383 -0.272569,-0.1083 a 4.4793021,4.4793021 0 0 0 0.187115,-0.55324 l 0.282882,0.0803 0.01105,-0.0449 0.05304,-0.22836 0.04199,-0.23648 0.0302,-0.23941 0.01989,-0.24237 0.0052,-0.23647 -0.291722,-0.006 0.291722,-0.009 v -0.0707 l -0.293932,0.007 a 4.4793021,4.4793021 0 0 0 -0.04567,-0.58197 l 0.289512,-0.0376 -0.0052,-0.039 -0.04199,-0.23353 -0.05304,-0.23131 -0.06409,-0.22542 -0.07514,-0.22321 -0.08619,-0.21658 -0.014,-0.0368 -0.270359,0.12228 a 4.4793021,4.4793021 0 0 0 -0.203321,-0.40885 c -0.295062,-0.003 -0.703692,-0.009 -1.074067,-0.014 0.470851,0.60687 0.751405,1.36903 0.751405,2.19528 0,1.97814 -1.607967,3.58611 -3.586115,3.58611 -1.978147,0 -3.583169,-1.60797 -3.583169,-3.58611 0,-1.10186 0.498013,-2.08882 1.281071,-2.74705 -0.01783,-0.0262 -0.03556,-0.0515 -0.05378,-0.0796 -0.122493,-0.1889 -0.244106,-0.41804 -0.353602,-0.63796 -0.06463,-0.1298 -0.116803,-0.24099 -0.163541,-0.34255 z m 0.802972,1.32527 c -0.709176,0.59197 -1.159521,1.48378 -1.159521,2.48185 0,1.78633 1.443226,3.23251 3.229567,3.23251 1.786342,0 3.232513,-1.44618 3.232513,-3.23251 0,-0.85141 -0.328301,-1.62551 -0.865589,-2.20191 -0.162745,-0.003 -0.287087,-0.003 -0.452316,-0.006 -0.190973,-0.003 -0.489879,-0.0113 -0.749931,-0.0177 l 0.02431,0.0125 -0.117131,0.22836 -0.09724,-0.0501 -0.103133,-0.0479 -0.01694,-0.006 0.05525,-0.14291 c -0.57804,-0.0149 -1.092493,-0.0304 -1.502072,-0.0457 l 0.01842,0.0781 -0.03831,0.008 -0.111974,0.0309 -0.08324,0.028 -0.05157,-0.15396 c -0.0029,-1.2e-4 -0.0104,-7.5e-4 -0.01326,-7.5e-4 -0.287208,-0.0124 -0.530933,-0.0286 -0.712361,-0.0449 -0.09072,-0.008 -0.167511,-0.0173 -0.228368,-0.0273 -0.03042,-0.006 -0.05654,-0.008 -0.08398,-0.0169 -0.01775,-0.005 -0.04461,-0.0248 -0.06925,-0.0391 -0.03763,-0.0192 -0.07166,-0.042 -0.10387,-0.067 z m -0.07956,1.07038 0.209215,0.14734 -0.01989,0.025 -0.0582,0.095 -0.05009,0.0862 -0.222475,-0.12818 0.0523,-0.0921 0.06704,-0.10534 z m 4.438444,0.34255 0.0052,0.0111 0.05009,0.11418 0.04788,0.11713 0.0029,0.0118 -0.242365,0.0803 v -0.005 l -0.04199,-0.10314 -0.04715,-0.10313 -0.0029,-0.006 z m 0.0029,1.1249 0.255625,0.008 -0.0029,0.12818 -0.01105,0.1304 v 0.009 l -0.253415,-0.0331 0.0088,-0.11713 z m -4.630715,0.28657 0.0088,0.0714 0.0221,0.11419 0.01105,0.0501 -0.247521,0.0589 -0.014,-0.0589 -0.0221,-0.12523 -0.01179,-0.0803 z m 4.039905,1.26707 0.192271,0.16723 -0.01621,0.0169 -0.08398,0.0921 -0.08914,0.0796 -0.175328,-0.1827 0.08324,-0.0788 0.07588,-0.0803 z m -3.265663,0.19743 0.05599,0.0471 0.08619,0.067 0.04715,0.0353 -0.147334,0.20921 -0.05304,-0.039 -0.09724,-0.0781 -0.05893,-0.0501 z m 1.793057,0.56282 0.03315,0.25341 -0.0302,0.002 -0.131127,0.0118 -0.108291,0.003 -0.0059,-0.25636 0.100187,-0.003 0.120078,-0.009 z" />
      <path
         id="path2573-7"
         style="color:#000000;display:inline;fill:#000000;stroke-width:0.584943;stroke-dasharray:1.16989, 0.584943;-inkscape-stroke:none"
         d="m 39.440581,282.35737 -0.464839,0.64901 -0.105345,-0.005 c 0,0 -0.311004,-0.0177 -0.448632,-0.0258 0.699193,0.6547 1.136683,1.58493 1.136683,2.61665 0,1.97814 -1.607967,3.58612 -3.586114,3.58612 -1.978147,0 -3.583169,-1.60798 -3.583169,-3.58612 0,-1.1605 0.5532,-2.19294 1.409253,-2.84871 -0.265068,-0.0104 -0.538969,-0.0217 -0.772769,-0.0287 -0.16762,-0.005 -0.323288,-0.009 -0.468524,-0.0118 a 4.4793021,4.4793021 0 0 0 -0.159858,0.19817 l -0.233524,-0.18196 -0.01328,0.0199 -0.134071,0.18638 -0.122288,0.19227 -0.117132,0.20037 -0.103135,0.20553 -0.09724,0.21216 -0.02799,0.0722 0.273306,0.10755 a 4.4793021,4.4793021 0 0 0 -0.181222,0.55472 l -0.283617,-0.0803 -0.0059,0.0111 -0.05304,0.23132 -0.04125,0.23352 -0.03093,0.23942 -0.01694,0.24237 -0.0081,0.24531 0.003,0.042 0.292459,-0.007 a 4.4793021,4.4793021 0 0 0 0.04273,0.58271 l -0.290983,0.0369 0.0088,0.0722 0.04126,0.23647 0.05304,0.22837 0.06704,0.22837 0.07219,0.22248 0.08325,0.20626 0.275515,-0.10829 a 4.4793021,4.4793021 0 0 0 0.260779,0.52378 l -0.254888,0.14733 0.03905,0.0634 0.122288,0.19521 0.13407,0.18638 0.142181,0.17827 0.150281,0.17533 0.155435,0.16428 0.02504,0.0221 0.20332,-0.2129 a 4.4793021,4.4793021 0 0 0 0.441269,0.38307 l -0.18196,0.23132 0.03315,0.0273 0.186378,0.13113 0.195218,0.12523 0.197429,0.11419 0.20627,0.10608 0.211422,0.0943 0.05599,0.0228 0.108291,-0.27404 a 4.4793021,4.4793021 0 0 0 0.553977,0.18417 l -0.0803,0.28435 0.02727,0.009 0.231318,0.053 0.23426,0.0412 0.239419,0.0309 0.241627,0.0192 0.245311,0.006 h 0.02504 l -0.0074,-0.29245 a 4.4793021,4.4793021 0 0 0 0.584178,-0.0412 l 0.0361,0.28877 0.08913,-0.0111 0.236475,-0.042 0.231314,-0.053 0.225423,-0.0641 0.222473,-0.0751 0.192269,-0.0751 -0.107552,-0.2733 a 4.4793021,4.4793021 0 0 0 0.523773,-0.26078 l 0.145861,0.25341 0.07809,-0.0449 0.195218,-0.12523 0.186378,-0.13039 0.181222,-0.14218 0.17238,-0.15028 0.164279,-0.15912 0.01105,-0.011 -0.211422,-0.20185 a 4.4793021,4.4793021 0 0 0 0.384542,-0.4398 l 0.230579,0.17976 0.0361,-0.0449 0.131125,-0.18638 0.125237,-0.19448 0.114182,-0.20111 0.106081,-0.20554 0.09429,-0.21216 0.01693,-0.0383 -0.272566,-0.10829 a 4.4793021,4.4793021 0 0 0 0.187113,-0.55324 l 0.282882,0.0803 0.01105,-0.0449 0.05304,-0.22837 0.04199,-0.23647 0.03021,-0.23942 0.01988,-0.24237 0.0052,-0.23647 -0.291719,-0.006 0.291719,-0.008 v -0.0707 l -0.293929,0.007 a 4.4793021,4.4793021 0 0 0 -0.04568,-0.58198 l 0.289512,-0.0376 -0.0052,-0.039 -0.04199,-0.23352 -0.05304,-0.23132 -0.06409,-0.22542 -0.07514,-0.22321 -0.08619,-0.21658 -0.01399,-0.0368 -0.270359,0.12228 a 4.4793021,4.4793021 0 0 0 -0.2652,-0.52082 l 0.254152,-0.1466 -0.01916,-0.0369 -0.125237,-0.19154 -0.131126,-0.18711 -0.142176,-0.18048 -0.150282,-0.17312 -0.02433,-0.0258 z m -5.036623,0.41033 c -0.991304,0.55078 -1.661191,1.6078 -1.661191,2.8244 0,1.78633 1.443225,3.23251 3.229567,3.23251 1.786341,0 3.232512,-1.44618 3.232512,-3.23251 0,-1.09977 -0.548229,-2.06907 -1.386415,-2.65202 -0.627639,-0.0352 -1.466953,-0.0802 -2.328618,-0.12229 -0.36451,-0.0178 -0.728511,-0.0345 -1.085855,-0.0501 z m 0.936312,0.37423 0.05819,0.2512 -0.03831,0.008 -0.111972,0.0309 -0.08325,0.028 -0.08103,-0.24237 0.08914,-0.028 0.123023,-0.0361 z m 1.578684,0.12302 0.02504,0.0111 0.114182,0.0501 0.103135,0.0531 -0.117132,0.22837 -0.09724,-0.0501 -0.103134,-0.0479 -0.01694,-0.005 z m -3.096227,0.91568 0.209215,0.14734 -0.01988,0.025 -0.05819,0.095 -0.0501,0.0862 -0.222473,-0.12818 0.0523,-0.0921 0.06704,-0.10535 z m 4.438444,0.34256 0.0052,0.0111 0.05009,0.11418 0.04788,0.11713 0.003,0.0111 -0.242365,0.081 v -0.005 l -0.04199,-0.10314 -0.04715,-0.10313 -0.003,-0.005 z m 0.0038,1.12489 0.255627,0.008 -0.0038,0.12818 -0.01105,0.13039 v 0.009 l -0.253413,-0.0331 0.0088,-0.11713 z m -4.630713,0.28657 0.0088,0.0722 0.0221,0.11419 0.01105,0.0501 -0.247521,0.0589 -0.01399,-0.0589 -0.0221,-0.12523 -0.01177,-0.0803 z m 4.039905,1.26707 0.192269,0.16723 -0.01622,0.0169 -0.08398,0.0921 -0.08914,0.0803 -0.17533,-0.18343 0.08325,-0.0781 0.07588,-0.081 z m -3.265666,0.19743 0.05599,0.0472 0.08619,0.067 0.04715,0.0361 -0.147336,0.20922 -0.05304,-0.039 -0.09724,-0.0781 -0.05893,-0.0501 z m 1.793059,0.56282 0.03315,0.25341 -0.03021,0.002 -0.131125,0.0118 -0.108291,0.004 -0.0059,-0.25636 0.10019,-0.004 0.120077,-0.008 z" />
      <path
         id="path2573-0"
         style="color:#000000;display:inline;fill:#000000;stroke-width:0.584943;stroke-dasharray:1.16989, 0.584943;-inkscape-stroke:none"
         d="m 42.996491,282.50102 -0.100921,0.0877 -0.167225,0.15617 -0.03315,0.0361 0.213632,0.20406 a 4.4793021,4.4793021 0 0 0 -0.381596,0.44273 l -0.232785,-0.18195 -0.01399,0.0199 -0.134074,0.18638 -0.122288,0.19227 -0.117132,0.20038 -0.103131,0.20553 -0.09724,0.21216 -0.02799,0.0722 0.273305,0.10756 a 4.4793021,4.4793021 0 0 0 -0.181221,0.55471 l -0.283618,-0.0803 -0.0059,0.0111 -0.05304,0.23132 -0.04125,0.23352 -0.03093,0.23942 -0.01693,0.24237 -0.0081,0.24531 0.003,0.0427 0.292458,-0.007 a 4.4793021,4.4793021 0 0 0 0.04273,0.58271 l -0.290984,0.0369 0.0088,0.0722 0.04125,0.23647 0.05304,0.22837 0.06704,0.22837 0.0722,0.22247 0.08324,0.20627 0.275516,-0.10829 a 4.4793021,4.4793021 0 0 0 0.260779,0.52378 l -0.254888,0.14733 0.03905,0.0634 0.122287,0.19522 0.134075,0.18638 0.142176,0.17827 0.150282,0.17533 0.155438,0.16428 0.02505,0.0221 0.203324,-0.2129 a 4.4793021,4.4793021 0 0 0 0.441265,0.38308 l -0.181957,0.23131 0.03315,0.0273 0.186377,0.13113 0.195215,0.12523 0.197429,0.11418 0.20627,0.10609 0.211422,0.0943 0.05599,0.0221 0.108291,-0.2733 a 4.4793021,4.4793021 0 0 0 0.553976,0.18416 l -0.0803,0.28436 0.02727,0.008 0.231314,0.053 0.23426,0.0412 0.23942,0.0309 0.241627,0.0192 0.245311,0.006 h 0.02504 l -0.0074,-0.29246 a 4.4793021,4.4793021 0 0 0 0.584181,-0.0413 l 0.0361,0.28878 0.08914,-0.0118 0.23647,-0.042 0.231314,-0.053 0.225423,-0.0641 0.222474,-0.0751 0.192272,-0.0751 -0.107555,-0.2733 a 4.4793021,4.4793021 0 0 0 0.523772,-0.26079 l 0.145862,0.25342 0.07809,-0.0449 0.195219,-0.12524 0.186378,-0.13038 0.181221,-0.14218 0.172381,-0.15028 0.164279,-0.15913 0.01105,-0.011 -0.211426,-0.20185 a 4.4793021,4.4793021 0 0 0 0.384542,-0.43979 l 0.230579,0.17975 0.0361,-0.0449 0.131129,-0.18637 0.125234,-0.19449 0.114182,-0.20111 0.106081,-0.20553 0.09429,-0.21216 0.01693,-0.0383 -0.272566,-0.10829 a 4.4793021,4.4793021 0 0 0 0.187113,-0.55324 l 0.282882,0.0803 0.01105,-0.0449 0.05304,-0.22837 0.04199,-0.23647 0.03021,-0.23942 0.01988,-0.24236 0.0052,-0.23647 -0.291723,-0.006 0.291723,-0.009 v -0.0707 l -0.293933,0.007 a 4.4793021,4.4793021 0 0 0 -0.04567,-0.58197 l 0.289508,-0.0376 -0.0052,-0.0391 -0.04199,-0.23352 -0.05304,-0.23132 -0.06409,-0.22542 -0.0324,-0.0958 c -0.430946,-0.0246 -0.875561,-0.0513 -1.133738,-0.0648 -0.06055,-0.003 -0.11657,-0.007 -0.176801,-0.0103 0.237628,0.47909 0.371281,1.01871 0.371281,1.589 0,1.97814 -1.607964,3.58611 -3.586115,3.58611 -1.978146,0 -3.583168,-1.60797 -3.583168,-3.58611 0,-1.74335 1.246626,-3.19876 2.896592,-3.51982 z m 3.106543,0.38823 c -1.786342,0 -3.229566,1.44321 -3.229566,3.22957 0,1.78633 1.443224,3.23251 3.229566,3.23251 1.786345,0 3.232512,-1.44618 3.232512,-3.23251 0,-0.58769 -0.15655,-1.13834 -0.430214,-1.61258 -0.968085,-0.0578 -1.788639,-0.12155 -1.788639,-0.12155 l -0.114182,-0.009 -0.626172,-1.47481 c -0.09008,-0.008 -0.18127,-0.0118 -0.273305,-0.0118 z m -0.632063,0.7794 0.0582,0.2512 -0.03831,0.009 -0.111976,0.0309 -0.08324,0.028 -0.08104,-0.24236 0.08914,-0.028 0.123023,-0.0361 z m -1.517544,1.0387 0.209216,0.14734 -0.01988,0.025 -0.0582,0.095 -0.05009,0.0862 -0.222478,-0.12818 0.05231,-0.0921 0.06704,-0.10534 z m 4.438445,0.34256 0.0052,0.011 0.0501,0.11419 0.04788,0.11786 0.003,0.0111 -0.242365,0.081 v -0.006 l -0.04199,-0.10314 -0.04715,-0.10313 -0.003,-0.006 z m 0.003,1.12489 0.255627,0.009 -0.003,0.12818 -0.01105,0.13039 v 0.008 l -0.253416,-0.0332 0.0088,-0.11713 z m -4.630714,0.28657 0.0088,0.0722 0.0221,0.11418 0.01105,0.0501 -0.247522,0.0589 -0.01399,-0.0589 -0.0221,-0.12523 -0.01177,-0.0803 z m 4.039906,1.26707 0.192269,0.16723 -0.01622,0.0169 -0.08398,0.0921 -0.08914,0.0803 -0.175327,-0.18343 0.08324,-0.0781 0.07588,-0.081 z m -3.265662,0.19743 0.05598,0.0471 0.08619,0.067 0.04715,0.0361 -0.147336,0.20922 -0.05304,-0.0391 -0.09724,-0.0781 -0.05893,-0.0501 z m 1.793055,0.56282 0.03315,0.25341 -0.03021,0.003 -0.131125,0.0111 -0.108291,0.003 -0.0059,-0.25636 0.100189,-0.003 0.120078,-0.008 z" />
      <path
         id="path3195"
         style="color:#000000;fill:#000000;stroke-width:0.377175px;-inkscape-stroke:none"
         d="m 12.177854,278.19002 c -0.0393,1.5e-4 -0.07802,5.9e-4 -0.116394,7.4e-4 v 7.4e-4 c -0.614022,0.003 -1.114921,0.0126 -1.484393,0.0332 -0.184734,0.01 -0.33624,0.0254 -0.456735,0.042 -0.1205025,0.0165 -0.2007425,0.0254 -0.2917225,0.0751 l -0.02284,0.0111 -0.01621,0.0169 c -0.155146,0.14961 -0.250695,0.38058 -0.359495,0.67627 -0.108798,0.29567 -0.210195,0.64838 -0.297616,0.99966 -0.08743,0.35128 -0.160835,0.69919 -0.203321,0.98272 -0.02124,0.1417 -0.034,0.26811 -0.03904,0.37349 -0.005,0.10535 -0.01282,0.17941 0.02799,0.28141 l 0.0081,0.0221 0.014,0.0191 c 0.0609,0.0825 0.112588,0.0906 0.167225,0.11124 0.05464,0.0207 0.113974,0.039 0.186378,0.056 0.144803,0.0338 0.331623,0.0662 0.54882,0.0972 0.4343925,0.0619 0.9898755,0.11993 1.5396425,0.17017 1.099534,0.1005 2.174654,0.16943 2.174654,0.16943 h 0.04125 l 0.0361,-0.0111 c 0.14657,-0.0537 0.228967,-0.15893 0.326345,-0.27846 0.09738,-0.1196 0.1932,-0.26008 0.280672,-0.3978 0.140388,-0.22103 0.20975,-0.35385 0.250468,-0.42874 l 7.891222,0.30866 c 0.03674,0.0881 0.149068,0.36064 0.339605,0.7433 0.109496,0.21992 0.23111,0.44906 0.353602,0.63796 0.118777,0.18314 0.223556,0.32715 0.389699,0.4118 0.02463,0.0143 0.0515,0.0339 0.06925,0.039 0.02744,0.009 0.05356,0.0117 0.08398,0.017 0.06086,0.01 0.137652,0.0191 0.228368,0.0272 0.181428,0.0164 0.425154,0.0326 0.712361,0.0449 0.574417,0.0249 1.319084,0.0419 2.06047,0.0553 1.482766,0.0267 2.945948,0.0339 2.945947,0.0339 h 0.02799 l 0.02505,-0.009 c 0.162683,-0.0485 0.330646,-0.15101 0.514932,-0.27846 0.184296,-0.12745 0.377719,-0.28092 0.556923,-0.42875 0.32987,-0.27211 0.558974,-0.48689 0.601123,-0.52598 0.06757,-0.007 0.667616,0.0133 0.886216,0.0133 h 0.0096 l 6.270545,0.27625 v -10e-4 c -3e-6,0 0.01474,7.3e-4 0.01474,7.3e-4 l 0.105341,0.006 0.464843,-0.64901 7.682004,0.3455 0.740354,1.74296 0.114186,0.009 c 0,0 1.172134,0.0923 2.377976,0.15544 0.602919,0.0317 1.214581,0.0572 1.695815,0.0589 0.24062,7.6e-4 0.44758,-0.005 0.609965,-0.0169 0.08118,-0.007 0.150093,-0.0153 0.211422,-0.028 0.06133,-0.0128 0.113247,-0.0149 0.186378,-0.0803 l 0.0059,-0.006 0.0052,-0.006 c 0.05688,-0.059 0.06973,-0.11047 0.08324,-0.16427 0.01354,-0.0537 0.01992,-0.11127 0.02505,-0.17533 0.01026,-0.12816 0.01079,-0.28593 0.0029,-0.46484 -0.01603,-0.3578 -0.06392,-0.80259 -0.125234,-1.24719 -0.06131,-0.44458 -0.137277,-0.88559 -0.214372,-1.23097 -0.03855,-0.17268 -0.07504,-0.32254 -0.114182,-0.4398 -0.01958,-0.0586 -0.04121,-0.10729 -0.06409,-0.15322 -0.02289,-0.0459 -0.038,-0.0912 -0.108291,-0.13923 h -0.0029 l -0.0029,-0.003 c -0.07203,-0.0463 -0.08158,-0.0326 -0.114182,-0.039 -0.03259,-0.007 -0.07029,-0.0125 -0.117132,-0.0192 -0.0937,-0.0128 -0.219381,-0.0266 -0.380857,-0.042 -0.323009,-0.0308 -0.783213,-0.0695 -1.35916,-0.11124 -1.151891,-0.0835 -2.773112,-0.18629 -4.711014,-0.30056 -3.875627,-0.22848 -9.015799,-0.50067 -14.180182,-0.7433 -5.164378,-0.24261 -10.351965,-0.45399 -14.327517,-0.56503 -1.863539,-0.052 -3.460377,-0.0822 -4.664602,-0.0818 -0.04014,2e-5 -0.08004,-1.4e-4 -0.119341,0 z m -1.202984,0.9481 c 0.02464,-6.8e-4 0.04925,0.004 0.07367,0.0133 0.09697,0.0384 0.144599,0.14764 0.106081,0.24458 l -0.841279,1.71202 c -0.0384,0.0972 -0.148445,0.14457 -0.245311,0.10608 -0.09647,-0.0373 -0.1446715,-0.14557 -0.1082915,-0.24237 l 0.8442255,-1.71202 c 0.02794,-0.074 0.097,-0.11949 0.170908,-0.12155 z m 1.130054,0.10313 c 0.02464,-6.7e-4 0.04999,0.003 0.0744,0.0125 0.09697,0.0384 0.144599,0.14837 0.106081,0.24531 l -0.841278,1.71202 c -0.0384,0.0972 -0.148446,0.14457 -0.245312,0.10608 -0.09647,-0.0373 -0.14467,-0.14557 -0.10829,-0.24236 l 0.844228,-1.712 c 0.02794,-0.074 0.09626,-0.11949 0.170171,-0.12155 z m 1.231714,0.12229 c 0.02464,-6.8e-4 0.04999,0.004 0.0744,0.0133 0.09696,0.0384 0.144598,0.14764 0.10608,0.24458 l -0.841278,1.71276 c -0.0384,0.0972 -0.148446,0.14383 -0.245312,0.10534 -0.09647,-0.0373 -0.14467,-0.14557 -0.108291,-0.24236 l 0.844226,-1.71203 c 0.02794,-0.074 0.09626,-0.11949 0.170171,-0.12155 z m 16.255386,0.23868 c 0.0147,4.9e-4 0.02928,0.003 0.04346,0.007 0.09961,0.0267 0.159334,0.1284 0.134075,0.22837 l -0.657111,2.54446 c -0.02569,0.10051 -0.127719,0.1614 -0.228368,0.13629 -0.102264,-0.0253 -0.163972,-0.12948 -0.137021,-0.23132 l 0.657111,-2.54151 c 0.0194,-0.0778 0.08589,-0.13485 0.165751,-0.14218 0.0073,-6.8e-4 0.01473,-8.9e-4 0.0221,-7.4e-4 z m -4.707329,7.4e-4 c 0.01442,3.2e-4 0.02876,0.002 0.04273,0.006 0.100505,0.0257 0.161396,0.12772 0.136284,0.22837 l -0.65711,2.54446 c -0.02564,0.10197 -0.129701,0.16328 -0.231315,0.13629 -0.100771,-0.027 -0.160516,-0.13061 -0.133338,-0.23132 l 0.657111,-2.54151 c 0.01939,-0.0768 0.08473,-0.13333 0.163541,-0.14144 0.0073,-6.8e-4 0.01473,-8.9e-4 0.0221,-7.4e-4 z m 0.940729,0 c 0.01442,3.2e-4 0.02876,0.002 0.04273,0.006 0.100803,0.0254 0.162086,0.1275 0.137021,0.22837 l -0.657111,2.54446 c -0.02564,0.10197 -0.129701,0.16328 -0.231314,0.13629 -0.100771,-0.027 -0.160516,-0.13061 -0.133338,-0.23132 l 0.657111,-2.54151 c 0.0193,-0.0766 0.08427,-0.13304 0.162804,-0.14144 0.0073,-6.8e-4 0.01473,-8.9e-4 0.0221,-7.4e-4 z m 0.941466,0 c 0.01442,3.2e-4 0.02876,0.002 0.04273,0.006 0.100505,0.0257 0.161396,0.12772 0.136284,0.22837 l -0.657111,2.54446 c -0.02568,0.10051 -0.127718,0.1614 -0.228368,0.13629 -0.101965,-0.0256 -0.163277,-0.1297 -0.136284,-0.23132 l 0.657111,-2.54151 c 0.01939,-0.0768 0.08473,-0.13333 0.163541,-0.14144 0.0073,-6.8e-4 0.01473,-8.9e-4 0.0221,-7.4e-4 z m 0.940729,0 c 0.01442,3.2e-4 0.02876,0.002 0.04273,0.006 0.100803,0.0254 0.162087,0.1275 0.137021,0.22837 l -0.657111,2.54446 c -0.02569,0.10051 -0.127719,0.1614 -0.228368,0.13629 -0.101965,-0.0256 -0.163278,-0.1297 -0.136284,-0.23132 l 0.656374,-2.54151 c 0.01939,-0.0768 0.08473,-0.13333 0.163541,-0.14144 0.0073,-6.8e-4 0.01473,-8.9e-4 0.0221,-7.4e-4 z m 0.941466,0 c 0.01442,3.2e-4 0.02876,0.002 0.04273,0.006 0.100505,0.0257 0.161396,0.12772 0.136284,0.22837 l -0.657111,2.54446 c -0.02569,0.10051 -0.127719,0.1614 -0.228368,0.13629 -0.101965,-0.0256 -0.163278,-0.1297 -0.136284,-0.23132 l 0.657111,-2.54151 c 0.01939,-0.0768 0.08473,-0.13333 0.163541,-0.14144 0.0073,-6.8e-4 0.01473,-8.9e-4 0.0221,-7.4e-4 z m 4.314685,0.56282 c 0.104726,-0.002 0.191062,0.0816 0.192269,0.18637 l 0.0221,1.617 -0.377912,-0.0162 -0.02063,-1.59784 c -3.78e-4,-0.10274 0.08146,-0.18692 0.184171,-0.18932 z m 0.929677,0 c 0.104731,-0.002 0.191062,0.0816 0.192269,0.18637 l 0.02063,1.65751 -0.37644,-0.0162 -0.02283,-1.63836 c -3.77e-4,-0.10358 0.0828,-0.18811 0.186377,-0.18932 z m 0.930417,0 c 0.103588,-4.2e-4 0.188113,0.0828 0.189324,0.18637 l 0.02357,1.69803 -0.37865,-0.0162 -0.02136,-1.67887 c -3.77e-4,-0.10387 0.08325,-0.18851 0.187117,-0.18932 z m 0.929678,0 c 0.103584,-4.2e-4 0.188112,0.0828 0.189323,0.18637 l 0.02357,1.73855 -0.377912,-0.0162 -0.02136,-1.71939 c -3.77e-4,-0.10358 0.0828,-0.18811 0.186378,-0.18932 z m 0.926732,0 h 7.35e-4 c 0.104444,-0.002 0.190327,0.0819 0.191538,0.18637 l 0.02283,1.77907 -0.377911,-0.0162 -0.02357,-1.75991 c -3.77e-4,-0.10358 0.08279,-0.18932 0.186378,-0.18932 z m 0.930417,0 c 0.10473,-0.002 0.191062,0.0816 0.192269,0.18637 l 0.02284,1.82032 -0.377176,-0.0169 -0.02431,-1.80043 c -3.77e-4,-0.10358 0.0828,-0.18811 0.186378,-0.18932 z m 11.640141,0.86117 c 0.08253,-0.004 0.158075,0.0461 0.186378,0.12376 l 0.746246,2.00742 c 0.03621,0.0977 -0.01362,0.20615 -0.111237,0.24237 -0.09764,0.0362 -0.206145,-0.0136 -0.242365,-0.11124 l -0.746246,-2.00743 c -0.03643,-0.097 0.01226,-0.20525 0.109026,-0.24236 0.01863,-0.007 0.03826,-0.0115 0.0582,-0.0125 z m -1.19783,10e-4 c 0.08135,-0.003 0.155615,0.046 0.184171,0.12229 l 0.749191,2.00742 c 0.03621,0.0977 -0.01362,0.20615 -0.111236,0.24237 -0.09764,0.0362 -0.206146,-0.0136 -0.242366,-0.11124 l -0.749191,-2.00743 c -0.03621,-0.0976 0.01362,-0.20614 0.111236,-0.24236 0.01871,-0.007 0.03834,-0.0105 0.05819,-0.0111 z m 2.397128,0 c 0.08135,-0.003 0.155612,0.046 0.184168,0.12229 l 0.746249,2.00742 c 0.03621,0.0977 -0.01362,0.20615 -0.111236,0.24237 -0.09764,0.0362 -0.206146,-0.0136 -0.242366,-0.11124 l -0.74625,-2.00743 c -0.03613,-0.0979 0.01403,-0.20644 0.111976,-0.24236 0.01844,-0.007 0.03785,-0.0104 0.05746,-0.0111 z" />
      <path
         id="rect6837"
         style="stroke-width:0.235215"
         d="m 18.561605,278.16144 c 0.204126,-0.0466 11.119264,-0.0897 11.31896,0 0.160883,0.18904 0,1.19076 0,1.19076 h -11.31896 c 0,0 -0.143461,-1.07576 0,-1.19076 z"
         sodipodi:nodetypes="ccccc" />
      <path
         id="rect7728"
         style="display:inline;fill:#000000;fill-opacity:1;stroke-width:0.235215"
         d="m 22.220155,275.71997 c -0.04276,1.4e-4 -0.08482,5.6e-4 -0.127444,7.5e-4 0.0032,0.44664 -0.113754,0.93773 -0.229104,1.07112 -0.184059,0.0765 -0.473441,0.13762 -0.931153,0.16133 0.02778,0.26921 0.03187,0.70701 0.01842,1.08733 h 2.304307 c -0.0096,-0.34559 0.003,-0.7253 0.03462,-0.95178 l 0.02136,-0.1105 c -0.482481,-0.0215 -0.860957,-0.0809 -0.924522,-0.12671 -0.139095,-0.0509 -0.226686,-0.65698 -0.166488,-1.13153 z m 4.129779,0 c 0.01308,0.45965 -0.107849,0.98343 -0.227631,1.12195 -0.18406,0.0765 -0.47344,0.13766 -0.931153,0.16133 0.02658,0.25753 0.03125,0.66902 0.01989,1.03723 h 2.28368 c -0.01465,-0.36648 -0.0026,-0.79042 0.03167,-1.03576 l 0.02137,-0.1105 c -0.482481,-0.0215 -0.860957,-0.0817 -0.924522,-0.12744 -0.131058,-0.048 -0.214476,-0.58697 -0.173854,-1.04608 -0.03395,-1.5e-4 -0.06519,-6e-4 -0.09945,-7.5e-4 z m -8.395105,0.0331 c -0.60163,0.01 -1.064117,0.0201 -1.123423,0.0317 v 2.25569 h 1.461556 c 0.03986,-0.19183 0.20707,-0.33061 0.402959,-0.33445 0.116092,4.5e-4 0.221754,0.0496 0.298352,0.12818 -0.0017,-0.21664 0.0036,-0.43306 0.01768,-0.6107 -0.07578,0.10949 -0.202266,0.18119 -0.345499,0.18122 -0.231888,-4e-5 -0.41986,-0.18801 -0.419903,-0.4199 9e-6,-0.0493 0.01017,-0.096 0.02578,-0.13997 -0.07048,-0.0148 -0.125247,-0.0297 -0.144387,-0.0435 -0.07171,-0.0263 -0.129959,-0.20068 -0.161331,-0.42801 -0.01721,0.21612 -0.195681,0.38671 -0.416219,0.38675 -0.231889,-4e-5 -0.419861,-0.18801 -0.419903,-0.4199 4.2e-5,-0.23189 0.188014,-0.41986 0.419903,-0.4199 0.192338,3e-5 0.352491,0.13001 0.402222,0.30645 -0.01244,-0.15349 -0.01187,-0.31642 0.0022,-0.47368 z m 11.907553,1.12416 c -0.126363,0.0179 -0.265463,0.0332 -0.434636,0.042 0.02867,0.27778 0.03201,0.73301 0.01694,1.12121 h 0.285092 c 0.08248,-0.12168 0.12897,-0.64871 0.132601,-1.1632 z m -12.282518,0.18416 c 0.231888,5e-5 0.41986,0.18802 0.419902,0.41991 -4.2e-5,0.23188 -0.188014,0.41986 -0.419902,0.4199 -0.231888,-4e-5 -0.41986,-0.18802 -0.419903,-0.4199 4.3e-5,-0.23189 0.188015,-0.41986 0.419903,-0.41991 z" />
      <rect
         style="display:inline;fill:#000000;fill-opacity:1;stroke-width:0.196486"
         id="rect7856"
         width="1.258212"
         height="1.0030469"
         x="11.009714"
         y="276.41711" />
      <path
         id="rect8156"
         style="display:inline;fill:#000000;stroke-width:0.198158"
         d="m 12.433479,275.88645 v 2.06195 h 0.563553 l -7.54e-4,-0.22911 h 0.674054 v 0.22911 h 0.56429 l -7.54e-4,-0.22911 h 0.674054 v 0.22911 h 0.563553 l -7.54e-4,-0.22911 h 0.674791 v 0.22911 h 0.563553 l -0.0074,-2.06195 h -0.556187 v 1.11532 h -0.677737 l -0.0037,-1.11532 h -0.556187 v 1.11532 h -0.677001 l -0.0044,-1.11532 h -0.55617 v 1.11532 h -0.677001 l -0.0037,-1.11532 z" />
      <path
         id="path18877"
         style="color:#000000;fill:#000000;stroke-width:0.235215;stroke-linecap:round;-inkscape-stroke:none"
         d="m 56.186772,262.57923 c -0.137593,0.006 -0.260782,0.10036 -0.297614,0.24089 l -1.615522,6.16594 c -0.04535,0.17299 0.05686,0.34877 0.229844,0.39411 l 0.51125,0.13414 c 0.172976,0.0453 0.34877,-0.0576 0.394118,-0.23058 l 1.615518,-6.16594 c 0.04535,-0.17299 -0.05759,-0.34879 -0.230578,-0.39412 l -0.51051,-0.13401 c -0.03243,-0.009 -0.06475,-0.0114 -0.09651,-0.01 z m -1.840205,0.52156 c -0.108641,1.3e-4 -0.218498,4.2e-4 -0.328554,7.3e-4 -0.293484,8.6e-4 -0.591174,0.003 -0.889162,0.006 v -7.4e-4 c -1.191954,0.009 -2.384184,0.0308 -3.296605,0.0589 -0.456209,0.0143 -0.843308,0.0272 -1.124896,0.0442 -0.140801,0.009 -0.253801,0.0187 -0.339606,0.0279 -0.0429,0.004 -0.07922,0.009 -0.109026,0.0143 -0.02981,0.006 -0.04626,0.006 -0.08619,0.0279 l -0.01397,0.009 -0.01112,0.009 c -0.04709,0.0452 -0.06252,0.0934 -0.08103,0.15028 -0.0185,0.0569 -0.0329,0.12417 -0.04714,0.20333 -0.0285,0.15851 -0.05342,0.36347 -0.07219,0.60112 -0.03761,0.47532 -0.05755,1.08024 -0.06114,1.68477 -0.0036,0.60453 0.01012,1.20742 0.03905,1.67591 0.01443,0.23425 0.03232,0.43478 0.05525,0.58787 0.0114,0.0765 0.02392,0.1407 0.03905,0.19449 0.01513,0.0537 0.02191,0.0968 0.07219,0.14512 h 0.003 c 0.04096,0.0388 0.06629,0.0412 0.09798,0.05 0.03169,0.009 0.06807,0.0152 0.111235,0.0221 0.08633,0.0143 0.199877,0.0247 0.339606,0.0361 0.279453,0.0229 0.660803,0.0432 1.113845,0.059 0.906085,0.0318 2.094527,0.0502 3.285555,0.0523 0.392907,9.4e-4 0.784947,-2.8e-4 1.168361,-0.003 l 1.479969,-5.64879 c -0.323254,-0.003 -0.665246,-0.006 -1.021761,-0.006 -0.106617,-1.4e-4 -0.214025,-1.4e-4 -0.322662,0 z m 2.791985,0.0383 c -6.6e-4,0.003 -7.61e-4,0.006 -0.0014,0.009 l -1.464502,5.5884 c 0.236557,-0.006 0.463455,-0.0114 0.674791,-0.0184 0.460685,-0.0154 0.853046,-0.0366 1.144049,-0.0611 0.145502,-0.0128 0.266614,-0.024 0.359497,-0.0391 0.0882,-0.0144 0.139889,-0.02 0.205531,-0.0641 0.03612,-0.0208 0.05611,-0.0462 0.06703,-0.067 0.01226,-0.0232 0.02066,-0.0469 0.028,-0.0721 0.01467,-0.0505 0.02542,-0.11005 0.03609,-0.18416 0.02137,-0.14835 0.03923,-0.34718 0.05304,-0.58418 0.02764,-0.47403 0.04183,-1.09472 0.042,-1.71792 1.5e-4,-0.62321 -0.01448,-1.24979 -0.042,-1.73191 -0.01383,-0.24106 -0.03166,-0.44487 -0.05304,-0.59892 -0.01069,-0.077 -0.02185,-0.1417 -0.03609,-0.19448 -0.0134,-0.0496 -0.0181,-0.0915 -0.07514,-0.13928 -0.03672,-0.0341 -0.06328,-0.0401 -0.09208,-0.0479 -0.03158,-0.009 -0.0684,-0.0158 -0.111235,-0.0221 -0.08566,-0.0128 -0.197206,-0.0237 -0.33666,-0.0331 -0.1144,-0.007 -0.250467,-0.0145 -0.3978,-0.0207 z m -7.866174,0.82727 c 0.0037,-8e-5 0.0073,0 0.01098,0 h 4.4797 c 0.241951,0 0.44053,0.19786 0.44053,0.4398 v 2.87892 c 0,0.24194 -0.198579,0.44052 -0.44053,0.44052 h -4.4797 c -0.241951,0 -0.43979,-0.19858 -0.43979,-0.44052 v -2.87892 c 0,-0.23817 0.191967,-0.43374 0.428743,-0.4398 z m 0,0.23426 c -0.110508,0.006 -0.195218,0.0935 -0.195218,0.20554 v 2.87892 c 0,0.11575 0.09055,0.20626 0.206265,0.20626 h 4.4797 c 0.115712,0 0.20332,-0.0905 0.20332,-0.20626 v -2.87892 c 0,-0.11575 -0.08761,-0.20552 -0.20332,-0.20554 h -4.4797 c -0.0036,2e-5 -0.0074,-1.7e-4 -0.01098,0 z m 5.679734,4.12022 c 0.216015,0 0.392646,0.17662 0.392646,0.39263 0,0.21602 -0.176631,0.38971 -0.392646,0.38971 -0.216018,0 -0.392648,-0.17369 -0.392648,-0.38971 0,-0.21601 0.17663,-0.39263 0.392648,-0.39263 z m 0,0.0921 c -0.16594,0 -0.297616,0.13457 -0.297616,0.30056 0,0.16592 0.131678,0.29835 0.297616,0.29835 0.165942,0 0.300563,-0.13243 0.300563,-0.29835 0,-0.16599 -0.134628,-0.30056 -0.300563,-0.30056 z" />
      <path
         id="rect27631"
         style="fill:#000000;stroke-width:0.0926603;stroke-linecap:round"
         d="m 40.895599,269.2166 c -1.536473,0.009 -3.26294,0.11205 -3.770109,0.35105 0.07531,0.21034 -0.204944,2.384 -0.222997,2.53711 0.339923,0.004 0.683982,0.0482 0.683982,0.0482 0.01397,-0.2228 0.02716,-0.45993 0.042,-0.65416 0.02542,-0.33265 0.05199,-0.61538 0.07956,-0.82581 0.01383,-0.10521 0.02748,-0.19193 0.04272,-0.26078 0.0076,-0.0345 0.01742,-0.0657 0.02726,-0.0935 0.0098,-0.0279 0.01507,-0.0525 0.04788,-0.0877 l 0.0067,-0.006 0.003,-0.003 c 0.03778,-0.0328 0.06492,-0.0385 0.09428,-0.0456 0.02938,-0.01 0.06145,-0.0164 0.09946,-0.0221 0.07597,-0.0128 0.173271,-0.0261 0.29172,-0.0361 0.236911,-0.0202 0.556718,-0.0342 0.933362,-0.0456 0.564968,-0.0181 1.256715,-0.0281 1.978701,-0.0295 v -7.4e-4 c 0.240661,-7.1e-4 0.483893,-8.2e-4 0.727828,0 0.975758,0.004 1.949486,0.02 2.688852,0.0456 0.173817,0.006 0.333283,0.0128 0.4781,0.02 v -0.49947 c -0.653687,-0.26759 -2.490838,-0.40168 -4.232179,-0.39191 z"
         sodipodi:nodetypes="ccccscccccccccccccccccc" />
      <path
         id="path20004"
         style="color:#000000;fill:#000000;stroke-width:0.235215;stroke-linecap:round;-inkscape-stroke:none"
         d="m 41.12461,270.30691 c -0.772324,10e-4 -1.507258,0.0128 -2.063415,0.0339 -0.27808,0.01 -0.511118,0.0231 -0.684366,0.0391 -0.08663,0.009 -0.158237,0.0171 -0.215111,0.0272 -0.05687,0.01 -0.08971,0.004 -0.150278,0.053 l -0.0052,0.004 -0.0044,0.004 c -0.0301,0.0302 -0.03674,0.0527 -0.04568,0.0766 -0.009,0.024 -0.01589,0.05 -0.02283,0.0796 -0.01397,0.059 -0.0264,0.13314 -0.03905,0.22321 -0.02528,0.18015 -0.04965,0.42241 -0.07293,0.7072 -0.04656,0.56959 -0.0891,1.30859 -0.121549,2.045 -0.03247,0.73641 -0.05471,1.46995 -0.06262,2.02659 -6.83e-4,0.0475 -2.76e-4,0.0856 -7.36e-4,0.13039 h 1.060068 c -0.0023,-0.01 -0.0033,-0.0201 -0.0037,-0.0302 v -4.47969 c -4.11e-4,-0.10473 0.08459,-0.18974 0.189324,-0.18933 h 7.35e-4 c 0.10473,-4.1e-4 0.189704,0.0846 0.189327,0.18933 v 4.47969 c -3.77e-4,0.0102 -0.0018,0.0202 -0.0037,0.0302 h 0.8457 c -0.0023,-0.01 -0.0033,-0.0201 -0.0037,-0.0302 v -4.47969 c -4.12e-4,-0.10473 0.0846,-0.18974 0.189327,-0.18933 0.10473,-4.1e-4 0.1897,0.0846 0.189323,0.18933 v 4.47969 c -3.77e-4,0.0102 -0.0018,0.0202 -0.0037,0.0302 H 43.0767 c -0.0023,-0.01 -0.004,-0.0201 -0.0044,-0.0302 v -4.47969 c -4.11e-4,-0.10473 0.08459,-0.18974 0.189323,-0.18933 0.103577,10e-4 0.186755,0.0857 0.186378,0.18933 v 4.47969 c -3.77e-4,0.0101 -0.0011,0.0202 -0.0029,0.0302 h 0.847906 c -0.0023,-0.01 -0.0033,-0.0201 -0.0037,-0.0302 v -4.47969 c -4.11e-4,-0.10473 0.08459,-0.18974 0.189323,-0.18933 0.103576,10e-4 0.186755,0.0857 0.186378,0.18933 v 4.47969 c -3.77e-4,0.0102 -0.0018,0.0202 -0.0037,0.0302 h 1.191931 c -0.001,-0.0676 -7.54e-4,-0.10897 -0.0022,-0.1827 -0.01112,-0.56309 -0.03379,-1.29456 -0.06409,-2.02511 -0.03029,-0.73055 -0.0681,-1.45966 -0.110501,-2.01921 -0.0212,-0.27978 -0.04302,-0.51679 -0.0663,-0.69247 -0.01155,-0.0878 -0.02386,-0.16006 -0.03683,-0.21732 -0.0064,-0.0287 -0.01272,-0.0531 -0.02136,-0.0766 -0.0084,-0.0228 -0.0149,-0.0451 -0.04568,-0.0751 -0.04995,-0.0498 -0.06839,-0.0409 -0.09577,-0.0471 -0.0278,-0.006 -0.06017,-0.0114 -0.09872,-0.0162 -0.07711,-0.01 -0.17995,-0.0184 -0.307194,-0.0265 -0.254488,-0.0164 -0.604435,-0.0294 -1.01366,-0.0405 -0.818444,-0.0224 -1.873397,-0.0344 -2.866387,-0.0317 z m -3.488875,5.82706 c 4.94e-4,0.0598 2.3e-4,0.12518 0.0015,0.1746 0.0023,0.0848 0.0047,0.15383 0.0096,0.20626 0.0023,0.0262 0.0054,0.0481 0.0096,0.0692 0.0023,0.01 0.0043,0.0203 0.0088,0.0332 0.0046,0.0128 0.0077,0.0293 0.03536,0.0553 l 0.03388,0.0317 h 8.082757 l 0.02431,-0.0855 c 0.01426,-0.0498 0.01112,-0.0735 0.01326,-0.12891 0.0023,-0.0556 0.0034,-0.12887 0.0037,-0.21732 1.47e-4,-0.0351 -0.0014,-0.0986 -0.0015,-0.1385 z" />
      <path
         id="path20004-3"
         style="color:#000000;fill:#000000;stroke-width:0.235215;stroke-linecap:round;-inkscape-stroke:none"
         d="m 49.70584,270.30687 c -0.772324,10e-4 -1.507258,0.0128 -2.063415,0.0339 -0.27808,0.01 -0.511118,0.0231 -0.684366,0.0391 -0.08663,0.009 -0.158237,0.0171 -0.215111,0.0272 -0.05688,0.01 -0.08971,0.004 -0.150278,0.053 l -0.0051,0.004 -0.0044,0.004 c -0.03009,0.0302 -0.03674,0.0526 -0.04568,0.0765 -0.009,0.024 -0.01588,0.05 -0.02282,0.0796 -0.01397,0.059 -0.0264,0.13314 -0.03904,0.22321 -0.02528,0.18015 -0.04965,0.4224 -0.07293,0.7072 -0.04656,0.56959 -0.0891,1.30859 -0.121542,2.045 -0.03247,0.73641 -0.0547,1.46995 -0.06262,2.02659 -7.55e-4,0.0475 -2.76e-4,0.0855 -7.55e-4,0.13043 h 1.060068 c -0.0023,-0.01 -0.0034,-0.0201 -0.0037,-0.0302 v -4.4797 c -3.78e-4,-0.10478 0.08459,-0.18974 0.189324,-0.18933 h 7.54e-4 c 0.104735,-4.1e-4 0.189705,0.0845 0.189327,0.18933 v 4.4797 c -3.78e-4,0.01 -0.0019,0.0202 -0.0037,0.0302 h 0.8457 c -0.0023,-0.01 -0.0034,-0.0201 -0.0037,-0.0302 v -4.4797 c -3.77e-4,-0.10478 0.08459,-0.18974 0.189327,-0.18933 0.104735,-4.1e-4 0.1897,0.0845 0.189323,0.18933 v 4.4797 c -3.77e-4,0.01 -0.0019,0.0202 -0.0037,0.0302 h 2.79125 c -0.0023,-0.01 -0.004,-0.0201 -0.0044,-0.0302 v -4.4797 c -3.76e-4,-0.10478 0.08459,-0.18974 0.189324,-0.18933 0.10358,0.001 0.186755,0.0857 0.186377,0.18933 v 4.4797 c -3.76e-4,0.01 -0.0011,0.0202 -0.003,0.0302 h 0.847905 c -0.0023,-0.01 -0.0034,-0.0201 -0.0037,-0.0302 v -4.4797 c -3.78e-4,-0.10478 0.08459,-0.18974 0.189322,-0.18933 0.10358,0.001 0.186755,0.0857 0.186377,0.18933 v 4.4797 c -3.76e-4,0.01 -0.0019,0.0202 -0.0037,0.0302 h 1.191931 c -0.0011,-0.0676 -7.55e-4,-0.10891 -0.0023,-0.18268 -0.01112,-0.56309 -0.0338,-1.29457 -0.06409,-2.02512 -0.03029,-0.73055 -0.0681,-1.45966 -0.110494,-2.01921 -0.0212,-0.27978 -0.04302,-0.51679 -0.0663,-0.69247 -0.01155,-0.0878 -0.02388,-0.16005 -0.03681,-0.21731 -0.0064,-0.0287 -0.01269,-0.053 -0.02134,-0.0766 -0.0084,-0.0228 -0.0149,-0.045 -0.04568,-0.0751 -0.04995,-0.0498 -0.06838,-0.0409 -0.09577,-0.0472 -0.0278,-0.006 -0.06017,-0.0114 -0.09872,-0.0163 -0.07711,-0.01 -0.179949,-0.0184 -0.307194,-0.0265 -0.254488,-0.0164 -0.604435,-0.0294 -1.013659,-0.0405 -0.818445,-0.0224 -1.873397,-0.0344 -2.866388,-0.0316 z m -3.488874,5.82708 c 3.76e-4,0.0597 2.3e-4,0.12516 0.0016,0.17458 0.0023,0.0848 0.0047,0.15385 0.0096,0.20628 0.0023,0.0262 0.0054,0.0482 0.0096,0.0693 0.0023,0.01 0.0043,0.0204 0.0088,0.0332 0.0046,0.0128 0.0077,0.0294 0.03534,0.0553 l 0.03387,0.0316 h 8.082757 l 0.02429,-0.0854 c 0.01425,-0.0498 0.01112,-0.0734 0.01326,-0.12887 0.0023,-0.0556 0.0034,-0.12886 0.0037,-0.21732 1.47e-4,-0.0351 -0.0016,-0.0986 -0.0016,-0.13842 z" />
      <rect
         style="fill:#000000;fill-opacity:1;stroke:none;stroke-width:0.0926603;stroke-linecap:round;stroke-miterlimit:4;stroke-dasharray:none;stroke-opacity:1"
         id="rect20200"
         width="1.6020256"
         height="4.0596519"
         x="35.870094"
         y="272.16635"
         ry="0.32280239" />
      <rect
         style="fill:#000000;fill-opacity:1;stroke:none;stroke-width:0.0811368;stroke-linecap:round;stroke-miterlimit:4;stroke-dasharray:none;stroke-opacity:1"
         id="rect20200-4"
         width="1.6020256"
         height="3.1127014"
         x="54.674152"
         y="273.11331"
         ry="0.2475058" />
      <path
         id="rect21497"
         style="fill:#000000;fill-opacity:1;stroke:none;stroke-width:0.0926604;stroke-linecap:round;stroke-miterlimit:4;stroke-dasharray:none;stroke-opacity:1"
         d="m 36.048946,277.61395 c -0.216209,0 -0.389698,0.17422 -0.389698,0.39043 v 0.21806 c 0,0.21621 0.173489,0.39043 0.389698,0.39043 h 2.604134 v 1.01366 c 0,0.21621 0.174225,0.39044 0.390437,0.39044 h 9.433072 c 0.216212,0 0.389698,-0.17423 0.389698,-0.39044 v -1.01366 h 2.604134 c 0.216212,0 0.390437,-0.17422 0.390437,-0.39043 v -0.21806 c 0,-0.21621 -0.174225,-0.39043 -0.390437,-0.39043 z" />
      <path
         id="rect22320-7"
         style="display:inline;fill:#000000;fill-opacity:1;stroke:none;stroke-width:0.0926604;stroke-linecap:round;stroke-miterlimit:4;stroke-dasharray:none;stroke-opacity:1"
         d="m 3.6346778,270.56032 c -0.103589,0.0682 -0.174386,0.18292 -0.1797475,0.31677 l -0.00294,0.0648 -1.6530899,-0.0663 c -0.221126,-0.009 -0.4058882,0.16268 -0.4147461,0.3838 l -0.024309,0.60407 c -0.00885,0.22112 0.161946,0.40589 0.383069,0.41475 l 1.6530903,0.0663 -0.00294,0.0656 c -0.00885,0.22113 0.1626834,0.40589 0.3838057,0.41475 l 11.4169307,0.45747 c 0.06967,0.0814 0.172059,0.13458 0.288038,0.13923 l 2.03054,0.0493 -0.0037,0.0943 c -0.0052,0.12968 0.05209,0.24614 0.144388,0.32266 -0.0024,-0.69116 0.02432,-1.40854 0.08472,-1.56542 0.01618,-0.0201 0.04508,-0.0387 0.07293,-0.0575 l -0.954263,-0.0485 c -0.225576,-0.0167 -0.394202,-0.22408 -0.378649,-0.46558 l 0.0066,-0.10313 -2.425859,-0.17901 c -0.118313,-0.009 -0.220771,-0.0694 -0.289511,-0.1606 z"
         sodipodi:nodetypes="ccccccccccccccccccccccc" />
      <path
         id="rect20397"
         style="fill:#000000;stroke-width:0.0926604;stroke-linecap:round"
         d="m 35.645851,271.95631 c -1.543746,0.006 -2.722718,0.0159 -2.878775,0.0346 -0.484712,0.036 -1.867641,4.83143 -1.097641,5.84548 0,0 22.413033,0.40104 22.960567,0.12082 0.0712,-0.0769 0.123733,-0.59409 0.158946,-1.02996 h -8.638209 l -0.0081,0.0295 h -8.818691 l -0.03685,-0.0354 c -3.77e-4,-7.2e-4 -0.01795,-0.0222 -0.01841,-0.0228 -3.77e-4,-10e-4 -0.0061,-0.0127 -0.0088,-0.0169 -0.0053,-0.0105 -0.0094,-0.0201 -0.01177,-0.0258 -0.0051,-0.0148 -0.0066,-0.0284 -0.0088,-0.0398 -0.0047,-0.0245 -0.01056,-0.0502 -0.01328,-0.081 -0.005,-0.0584 -0.006,-0.13694 -0.0081,-0.22984 h -1.18102 c -0.216212,0 -0.390414,-0.17423 -0.390437,-0.39044 l -3.77e-4,-3.91752 z m 19.064448,0.28509 c 0.01011,0.19687 0.02169,0.35734 0.03093,0.56356 0.0064,-3.8e-4 0.01343,0 0.01988,0 h 0.0088 c -0.01773,-0.22824 -0.03708,-0.42469 -0.05967,-0.56356 z"
         sodipodi:nodetypes="cccccccccccccccssccccsccc" />
      <path
         id="rect27086"
         style="fill:#000000;fill-opacity:1;stroke:none;stroke-width:0.0926604;stroke-linecap:round;stroke-miterlimit:4;stroke-dasharray:none;stroke-opacity:1"
         d="m 49.97719,268.24202 c 0,0 0.01339,0.90185 0.09282,1.23908 h -1.940391 c -0.178835,0 -0.323398,0.14456 -0.323398,0.3234 v 0.13628 c 0.545203,-0.0161 1.195669,-0.0252 1.874827,-0.0265 0.240664,-7.2e-4 0.483893,-8.3e-4 0.727832,0 0.975757,0.003 1.949485,0.0187 2.688847,0.0442 0.314097,0.0114 0.58116,0.0239 0.794132,0.0383 v -0.19227 c 0,-0.17884 -0.143825,-0.3234 -0.322662,-0.3234 h -0.439791 c 0.601678,-0.40216 0.808035,-0.43896 0.910347,-1.15589 z"
         sodipodi:nodetypes="ccsscccccssccc" />
      <path
         id="rect29923"
         style="display:inline;fill:#000000;fill-opacity:1;stroke:none;stroke-width:0.0926603;stroke-linecap:round;stroke-miterlimit:4;stroke-dasharray:none;stroke-opacity:1"
         d="m 40.645655,266.086 c -0.966791,-8.5e-4 -1.855383,0.0728 -2.263054,0.26373 l -0.0058,0.0251 h -3.281916 c -0.05949,0 -0.112219,0.0254 -0.149547,0.0656 h -2.310935 c -0.113359,0 -0.20406,0.0914 -0.20406,0.2048 v 0.35434 c 0,0.11333 0.09069,0.20406 0.20406,0.20406 h 2.255687 v 0.18121 h -2.327882 c -0.11336,0 -0.204796,0.0907 -0.204796,0.20407 v 0.35433 c 0,0.11333 0.09143,0.2048 0.204796,0.2048 h 2.327882 v 0.004 c 0,0.11333 0.09143,0.2048 0.204795,0.2048 h 2.797139 l -0.128912,0.52598 h 7.102987 c 0,0 -0.305897,-2.30653 -0.599653,-2.36398 -0.180506,-0.22175 -2.009418,-0.43102 -3.62074,-0.43243 z" />
      <path
         id="rect7285"
         style="display:inline;fill:#000000;fill-opacity:1;stroke-width:0.235215"
         d="m 53.806405,284.46941 v 0.34844 h -0.765402 v 0.45895 c -0.679931,0.0636 -1.632707,0.0694 -2.061205,0.0398 l 0.05304,1.04828 c 0.495523,-0.0252 2.700638,0.17607 2.700638,0.17607 -0.0538,-0.0237 -0.102248,-0.0485 -0.146596,-0.0737 h 0.219527 v 0.34182 h 0.95399 v -2.33967 z" />
    </g>
  </g>
</svg>
