<?xml version="1.0" encoding="UTF-8" standalone="no"?>
<!-- Created with Inkscape (http://www.inkscape.org/) -->

<svg
   width="60mm"
   height="42mm"
   viewBox="0 0 60 42"
   version="1.1"
   id="svg8"
   inkscape:version="1.1.2 (0a00cf5339, 2022-02-04)"
   sodipodi:docname="DI Schmitt.svg"
   xmlns:inkscape="http://www.inkscape.org/namespaces/inkscape"
   xmlns:sodipodi="http://sodipodi.sourceforge.net/DTD/sodipodi-0.dtd"
   xmlns="http://www.w3.org/2000/svg"
   xmlns:svg="http://www.w3.org/2000/svg"
   xmlns:rdf="http://www.w3.org/1999/02/22-rdf-syntax-ns#"
   xmlns:cc="http://creativecommons.org/ns#"
   xmlns:dc="http://purl.org/dc/elements/1.1/">
  <defs
     id="defs2" />
  <sodipodi:namedview
     id="base"
     pagecolor="#ffffff"
     bordercolor="#666666"
     borderopacity="1.0"
     inkscape:pageopacity="0.0"
     inkscape:pageshadow="2"
     inkscape:zoom="5.6568543"
     inkscape:cx="188.00201"
     inkscape:cy="100.32077"
     inkscape:document-units="mm"
     inkscape:current-layer="layer1"
     showgrid="false"
     inkscape:window-width="1846"
     inkscape:window-height="1016"
     inkscape:window-x="74"
     inkscape:window-y="1107"
     inkscape:window-maximized="1"
     inkscape:snap-global="false"
     showguides="true"
     inkscape:pagecheckerboard="0" />
  <metadata
     id="metadata5">
    <rdf:RDF>
      <cc:Work
         rdf:about="">
        <dc:format>image/svg+xml</dc:format>
        <dc:type
           rdf:resource="http://purl.org/dc/dcmitype/StillImage" />
      </cc:Work>
    </rdf:RDF>
  </metadata>
  <g
     inkscape:label="Capa 1"
     inkscape:groupmode="layer"
     id="layer1"
     transform="translate(0,-255)">
    <path
       id="rect28327"
       style="stroke-width:0.0649999;stroke-linecap:round"
       d="m 38.79931,268.40642 c -0.12545,0 -0.50918,0.10802 -0.550871,0.22634 -0.0364,0.10331 -0.0408,0.39935 0,0.44235 0.08638,0.091 0.425421,0.22634 0.550871,0.22634 h 0.0155 c 0.0071,-0.31366 0.01992,-0.614 0.03927,-0.86558 8.14e-4,-0.0106 0.0017,-0.019 0.0026,-0.0294 z m 7.686868,0 c 0.01402,0.25699 0.02152,0.57074 0.02584,0.89503 h 0.08682 c 0.12545,0 0.226343,-0.10089 0.226343,-0.22634 v -0.44235 c 0,-0.12545 -0.100893,-0.22634 -0.226343,-0.22634 z m -7.699272,1.5937 c -0.136588,0.006 -0.498081,0.11172 -0.538467,0.22634 -0.0364,0.10331 -0.0408,0.39883 0,0.44183 0.08638,0.091 0.425421,0.22635 0.550871,0.22635 h 0.03307 c -0.01365,-0.26474 -0.02147,-0.57249 -0.02325,-0.89452 h -0.0098 c -0.0039,0 -0.008,-2.1e-4 -0.0124,0 z m 7.726662,0 c -0.003,0.32116 -0.0092,0.63128 -0.0217,0.89452 h 0.106968 c 0.12545,0 0.226343,-0.1009 0.226343,-0.22635 v -0.44183 c 0,-0.12545 -0.100893,-0.22634 -0.226343,-0.22634 z" />
    <path
       id="rect22320"
       style="display:inline;fill:#000000;fill-opacity:1;stroke:none;stroke-width:0.245669;stroke-linecap:round;stroke-miterlimit:4;stroke-dasharray:none;stroke-opacity:1"
       d="m 66.601562,58.734375 c -0.537737,0.01704 -0.981699,0.437573 -1.019531,0.986328 0,0 -0.383752,3.168199 -1.048828,3.078125 l -5.464844,-0.328125 c -0.307011,-0.02117 -0.591808,0.08875 -0.798828,0.283203 L 28.048828,60.669922 c -0.585341,-0.04037 -1.090508,0.399032 -1.130859,0.984375 l -0.01172,0.171875 -4.376953,-0.302734 c -0.585333,-0.04037 -1.088555,0.400985 -1.128906,0.986328 l -0.109375,1.599609 c -0.04035,0.585339 0.39708,1.088556 0.982422,1.128906 l 4.376953,0.300781 -0.01172,0.173829 c -0.04035,0.585343 0.399033,1.088556 0.984375,1.128906 l 30.222656,2.083984 c 0.178394,0.221027 0.444942,0.369449 0.751953,0.390625 l 6.292969,0.433594 -0.01758,0.248047 c -0.04036,0.585343 0.399032,1.088556 0.984375,1.128906 L 81.5625,72.210938 c 0.585343,0.04036 1.088556,-0.399036 1.128906,-0.984376 l 0.285156,-0.367187 3.898438,0.291016 c 0.438085,0.03024 0.829022,-0.209029 1.015625,-0.576172 0.072,0.01928 0.14728,0.03182 0.224609,0.03711 l 5.722657,0.394531 c 0.09887,0.506809 0.525635,0.900219 1.066406,0.9375 l 5.218753,0.359375 c -0.003,0.613248 0.4672,1.129087 1.08789,1.171875 l 4.30468,0.296875 c 0.58101,-1.601153 1.14927,-2.702818 1.51368,-2.730468 0.41375,-0.05291 4.08678,-0.0083 8.17968,-0.02344 v 0.002 0.242188 c 0.0884,-0.02441 0.1752,-0.05469 0.27149,-0.05469 h 2.39277 l 0.65801,-4.6875 c 0.0445,-0.646106 -0.44178,-1.201553 -1.08789,-1.246093 l -15.59375,-1.076172 c -0.62051,-0.04278 -1.15723,0.402119 -1.23828,1.009765 l -5.216799,-0.359375 c -0.540102,-0.03742 -1.017501,0.295727 -1.185547,0.783203 l -5.722656,-0.394531 c -0.07661,-0.0053 -0.153164,-0.0012 -0.226562,0.0078 -0.133833,-0.390501 -0.488724,-0.678722 -0.927735,-0.708985 l -2.357422,-0.341797 c -0.690043,-0.381456 -0.873045,-3.134765 -0.873047,-3.134765 0.04037,-0.585343 -0.397078,-1.088553 -0.982421,-1.128906 L 66.710938,58.738281 c -0.03658,-0.0025 -0.07353,-0.005 -0.109376,-0.0039 z"
       transform="matrix(0.26458333,0,0,0.26458333,0,255)"
       sodipodi:nodetypes="sccccccccccccccccccccccccccccccccccsccccccccccccccs" />
    <path
       id="rect20397-8-8"
       style="fill:#000000;stroke-width:0.245669;stroke-linecap:round"
       d="m 103.69141,73.904297 c -1.27694,4.000492 -2.36584,9.996234 -1.03711,11.746094 0,0 0.62517,0.01172 0.66211,0.01172 -0.18617,-3.27632 1.16769,-8.739863 2.33398,-11.542968 z"
       transform="matrix(0.26458333,0,0,0.26458333,0,255)"
       sodipodi:nodetypes="ccccc" />
    <path
       id="rect6047"
       style="fill:#000000;stroke-width:0.623622"
       d="M 73.541016 72.558594 C 71.524319 72.568576 69.481331 72.865761 69.03125 73.417969 C 68.744611 74.153843 68.732138 79.977083 69.03125 80.599609 C 69.75461 81.166539 77.080017 81.19617 77.894531 80.599609 C 78.452261 79.691767 78.161555 74.210951 77.894531 73.417969 C 77.547928 72.82583 75.557712 72.548611 73.541016 72.558594 z M 78.042969 80.763672 C 77.998642 80.922627 77.947445 81.041227 77.888672 81.109375 C 77.074157 81.705936 69.746798 81.676304 69.023438 81.109375 C 68.995847 81.052304 68.973395 80.953225 68.951172 80.816406 C 68.532109 81.309521 68.503375 83.755139 69.023438 83.943359 C 69.490098 84.275814 76.507925 84.564516 78.019531 83.943359 C 78.511841 83.380701 78.647561 81.111199 78.042969 80.763672 z M 71.412109 84.621094 C 71.247322 85.787343 71.136784 88.900157 71.482422 89.130859 C 72.086746 89.537348 74.507898 89.556207 75.339844 89.130859 C 75.5662 88.893127 75.576016 85.891869 75.419922 84.671875 C 74.125203 84.718741 72.6279 84.690637 71.412109 84.621094 z "
       transform="matrix(0.26458333,0,0,0.26458333,0,255)" />
    <path
       id="rect6047-7"
       style="fill:#000000;stroke-width:0.165"
       d="m 22.44472,274.16486 c -0.533584,0.003 -1.074125,0.0813 -1.193208,0.22738 -0.07584,0.1947 -0.07914,1.73543 0,1.90014 0.191389,0.15 2.129569,0.15784 2.345076,0 0.147566,-0.2402 0.07065,-1.69033 0,-1.90014 -0.09171,-0.15667 -0.618283,-0.23002 -1.151868,-0.22738 z m 1.191142,2.17093 c -0.01173,0.0421 -0.02527,0.0734 -0.04082,0.0915 -0.215507,0.15784 -2.154204,0.15 -2.345593,0 -0.0073,-0.0151 -0.01324,-0.0413 -0.01912,-0.0775 -0.110877,0.13047 -0.118479,0.77754 0.01912,0.82734 0.12347,0.088 1.98027,0.16435 2.380216,0 0.130257,-0.14887 0.166166,-0.74934 0.0062,-0.84129 z m -1.754415,1.02061 c -0.0436,0.30857 -0.07285,1.13217 0.0186,1.19321 0.159894,0.10755 0.80049,0.11254 1.02061,0 0.05989,-0.0629 0.06249,-0.85698 0.02119,-1.17977 -0.342561,0.0124 -0.738722,0.005 -1.0604,-0.0134 z" />
    <path
       id="rect6047-9"
       style="fill:#000000;stroke-width:0.165"
       d="m 25.403987,274.08032 c -0.533584,0.003 -1.074125,0.0813 -1.193209,0.22738 -0.07584,0.1947 -0.07914,1.73543 0,1.90014 0.191389,0.15 2.12957,0.15784 2.345077,0 0.147566,-0.2402 0.07065,-1.69033 0,-1.90014 -0.09171,-0.15667 -0.618284,-0.23002 -1.151868,-0.22738 z m 1.191142,2.17093 c -0.01173,0.0421 -0.02527,0.0734 -0.04082,0.0915 -0.215507,0.15784 -2.154205,0.15 -2.345594,0 -0.0073,-0.0151 -0.01324,-0.0413 -0.01912,-0.0775 -0.110877,0.13047 -0.11848,0.77754 0.01912,0.82734 0.123471,0.088 1.980271,0.16435 2.380217,0 0.130257,-0.14887 0.166166,-0.74934 0.0062,-0.84129 z m -1.754415,1.02061 c -0.0436,0.30857 -0.07285,1.13217 0.0186,1.19321 0.159894,0.10755 0.80049,0.11254 1.020609,0 0.05989,-0.0629 0.06249,-0.85698 0.02119,-1.17977 -0.342561,0.0124 -0.738722,0.005 -1.0604,-0.0134 z" />
    <path
       id="path2573"
       style="color:#000000;fill:#000000;stroke-width:1.55085;stroke-dasharray:3.1017, 1.55085;-inkscape-stroke:none"
       d="m 59.9375,97.261719 c -0.06783,0.124763 -0.322572,0.215968 -0.595703,0.410156 0.183826,-0.01063 0.368213,-0.01758 0.554687,-0.01758 5.244635,0 9.507813,4.263155 9.507813,9.507815 0,5.24462 -4.263178,9.50781 -9.507813,9.50781 -5.244631,0 -9.5,-4.26319 -9.5,-9.50781 0,-2.9008 1.302579,-5.49911 3.353516,-7.244143 -0.636608,-0.03168 -1.332101,-0.07831 -2.056641,-0.144531 -0.239506,-0.02191 -0.581991,-0.065 -0.960937,-0.113282 a 11.875905,11.875905 0 0 0 -0.316406,0.367186 l -0.617188,-0.48242 -0.03711,0.05273 -0.355469,0.49414 -0.324219,0.50976 -0.310547,0.53125 -0.273437,0.54492 -0.257813,0.5625 -0.07422,0.19141 0.724609,0.28516 a 11.875905,11.875905 0 0 0 -0.480469,1.4707 l -0.751953,-0.21289 -0.01563,0.0293 -0.140625,0.61328 -0.109375,0.61914 -0.08203,0.63476 -0.04492,0.64258 -0.02148,0.65039 0.0078,0.11133 0.775391,-0.0195 a 11.875905,11.875905 0 0 0 0.113281,1.54492 l -0.771484,0.0977 0.02344,0.1914 0.109375,0.62696 0.140625,0.60547 0.177734,0.60546 0.191407,0.58985 0.220703,0.54687 0.730469,-0.28711 a 11.875905,11.875905 0 0 0 0.691406,1.38868 l -0.675781,0.39062 0.103515,0.16797 0.324219,0.51758 0.355469,0.49414 0.376953,0.47265 0.398437,0.46485 0.41211,0.43555 0.06641,0.0586 0.539063,-0.56445 a 11.875905,11.875905 0 0 0 1.169921,1.01562 l -0.482421,0.61328 0.08789,0.0723 0.494141,0.34765 0.517578,0.33204 0.523437,0.30273 0.546875,0.28125 0.560547,0.25 0.148438,0.0606 0.287109,-0.72657 a 11.875905,11.875905 0 0 0 1.46875,0.48828 l -0.212891,0.75391 0.07227,0.0234 0.613281,0.14062 0.621094,0.10938 0.634766,0.082 0.640625,0.0508 0.65039,0.0156 h 0.06641 l -0.01953,-0.77539 a 11.875905,11.875905 0 0 0 1.548829,-0.10938 l 0.0957,0.76563 0.236328,-0.0293 0.626953,-0.11133 0.613281,-0.14062 0.597656,-0.16993 0.589844,-0.19921 0.509766,-0.19922 -0.285157,-0.72461 a 11.875905,11.875905 0 0 0 1.388672,-0.69141 l 0.386719,0.67188 0.207031,-0.11914 0.517578,-0.33204 0.494141,-0.3457 0.480469,-0.37695 0.457031,-0.39844 0.435547,-0.42187 0.0293,-0.0293 -0.560547,-0.53516 a 11.875905,11.875905 0 0 0 1.019531,-1.16601 l 0.611328,0.47656 0.0957,-0.11914 0.347657,-0.49414 0.332031,-0.51563 0.302734,-0.5332 0.28125,-0.54492 0.25,-0.5625 0.04492,-0.10156 -0.722656,-0.28711 a 11.875905,11.875905 0 0 0 0.496094,-1.4668 l 0.75,0.21289 0.0293,-0.11914 0.140625,-0.60547 0.111328,-0.62695 0.08008,-0.63477 0.05273,-0.64258 0.01367,-0.62695 -0.773437,-0.0156 0.773437,-0.0215 v -0.1875 l -0.779297,0.0195 a 11.875905,11.875905 0 0 0 -0.121093,-1.54297 l 0.767578,-0.0996 -0.01367,-0.10351 -0.111328,-0.61914 -0.140625,-0.61328 -0.169922,-0.59766 -0.199219,-0.5918 -0.228516,-0.57422 -0.03711,-0.0977 -0.716797,0.32422 a 11.875905,11.875905 0 0 0 -0.703125,-1.38086 l 0.673828,-0.38867 -0.05078,-0.0977 -0.332031,-0.50781 -0.347657,-0.496093 -0.376953,-0.478515 -0.398437,-0.458985 -0.419922,-0.441406 -0.125,-0.119141 -0.539062,0.564453 A 11.875905,11.875905 0 0 0 67.001953,97.65625 l 0.08594,-0.109375 z m -0.04102,1.33789 c -0.476012,0 -0.941812,0.03894 -1.396484,0.113282 -0.121436,0.173025 -0.245643,0.342011 -0.371094,0.496093 -0.258183,0.316914 -0.476634,0.595793 -0.865234,0.738282 l -0.0957,0.03125 h -0.109375 c 0,0 -0.718632,0.01208 -1.806641,-0.01172 -2.358597,1.523414 -3.917969,4.172884 -3.917969,7.195314 0,4.73609 3.826401,8.57031 8.5625,8.57031 4.736104,0 8.570313,-3.83422 8.570313,-8.57031 0,-4.73613 -3.834209,-8.562502 -8.570313,-8.562502 z m -1.675781,2.066411 0.154297,0.66601 -0.101562,0.0215 -0.296876,0.082 -0.220703,0.0742 -0.214843,-0.64258 0.236328,-0.0742 0.326172,-0.0957 z m 4.185547,0.32617 0.06641,0.0293 0.302735,0.13282 0.273437,0.14062 -0.310547,0.60547 -0.257812,-0.13281 -0.273438,-0.12696 -0.04492,-0.0137 z m -8.208984,2.42773 0.554687,0.39063 -0.05273,0.0664 -0.154297,0.25196 -0.132813,0.22851 -0.589843,-0.33984 0.138672,-0.24414 0.177734,-0.2793 z m 11.767578,0.9082 0.01367,0.0293 0.132812,0.30274 0.126953,0.31054 0.0078,0.0293 -0.642578,0.21484 v -0.0156 l -0.111328,-0.27344 -0.125,-0.27344 -0.0078,-0.0137 z m 0.0078,2.98243 0.677735,0.0215 -0.0078,0.33985 -0.0293,0.3457 v 0.0234 l -0.671875,-0.0879 0.02344,-0.31054 z m -12.277344,0.75976 0.02344,0.19141 0.05859,0.30273 0.0293,0.13282 -0.65625,0.15625 -0.03711,-0.15625 -0.05859,-0.33204 -0.03125,-0.21289 z m 10.710938,3.35938 0.509766,0.44336 -0.04297,0.0449 -0.222656,0.24414 -0.236329,0.21289 -0.464843,-0.48633 0.220703,-0.20703 0.201172,-0.21484 z m -8.658203,0.52343 0.148437,0.125 0.228516,0.17774 0.125,0.0957 -0.390625,0.55469 -0.140625,-0.10352 -0.257812,-0.20703 -0.15625,-0.13281 z m 4.753906,1.49219 0.08789,0.67188 -0.08008,0.006 -0.347657,0.0312 -0.287109,0.008 -0.01563,-0.67969 0.265625,-0.008 0.318359,-0.0215 z"
       transform="matrix(0.26458333,0,0,0.26458333,0,255)" />
    <path
       id="path2573-2"
       style="color:#000000;display:inline;fill:#000000;stroke-width:1.55085;stroke-dasharray:3.1017, 1.55085;-inkscape-stroke:none"
       d="m 79.400391,99.080078 -0.429688,0.335938 -0.457031,0.398437 -0.44336,0.414067 -0.08789,0.0957 0.566406,0.54101 a 11.875905,11.875905 0 0 0 -1.011719,1.17383 l -0.617187,-0.48242 -0.03711,0.0527 -0.355468,0.49414 -0.324219,0.50976 -0.310547,0.53125 -0.273437,0.54492 -0.257813,0.5625 -0.07422,0.19141 0.72461,0.28516 a 11.875905,11.875905 0 0 0 -0.480469,1.4707 l -0.751953,-0.21289 -0.01563,0.0293 -0.140625,0.61329 -0.109375,0.61914 -0.08203,0.63476 -0.04492,0.64258 -0.02148,0.65039 0.0078,0.11133 0.775391,-0.0176 a 11.875905,11.875905 0 0 0 0.113281,1.54492 l -0.771485,0.0977 0.02344,0.19141 0.109375,0.62695 0.140625,0.60547 0.177734,0.60547 0.191406,0.58984 0.220704,0.54687 0.730468,-0.2871 a 11.875905,11.875905 0 0 0 0.691407,1.38867 l -0.675782,0.39062 0.103516,0.16797 0.324219,0.51758 0.355468,0.49414 0.376954,0.47266 0.398437,0.46484 0.412109,0.43555 0.06641,0.0586 0.539062,-0.56445 a 11.875905,11.875905 0 0 0 1.169922,1.01562 l -0.482422,0.61328 0.08789,0.0703 0.49414,0.34961 0.517579,0.33203 0.523437,0.30273 0.546875,0.28125 0.560547,0.25 0.148438,0.0605 0.287109,-0.72656 a 11.875905,11.875905 0 0 0 1.46875,0.48828 l -0.212891,0.7539 0.07227,0.0215 0.613281,0.14062 0.621094,0.10938 0.634765,0.082 0.640626,0.0508 0.65039,0.0156 h 0.06641 l -0.01953,-0.77539 a 11.875905,11.875905 0 0 0 1.548828,-0.10937 l 0.0957,0.76562 0.236328,-0.0312 0.626954,-0.11132 0.613281,-0.14063 0.597656,-0.16992 0.589844,-0.19922 0.509765,-0.19922 -0.285156,-0.72461 a 11.875905,11.875905 0 0 0 1.388672,-0.6914 l 0.386719,0.67187 0.207031,-0.11914 0.517578,-0.33203 0.494141,-0.3457 0.480469,-0.37696 0.457031,-0.39843 0.435547,-0.42188 0.0293,-0.0293 -0.560547,-0.53515 a 11.875905,11.875905 0 0 0 1.019531,-1.16602 l 0.611328,0.47656 0.0957,-0.11914 0.347656,-0.49414 0.332032,-0.51562 0.302734,-0.53321 0.28125,-0.54492 0.25,-0.5625 0.04492,-0.10156 -0.722656,-0.28711 a 11.875905,11.875905 0 0 0 0.496094,-1.4668 l 0.75,0.21289 0.0293,-0.11914 0.140625,-0.60546 0.111329,-0.62696 0.08008,-0.63476 0.05273,-0.64258 0.01367,-0.62695 -0.773438,-0.0156 0.773438,-0.0234 v -0.1875 l -0.779297,0.0195 a 11.875905,11.875905 0 0 0 -0.121094,-1.54296 l 0.767578,-0.0996 -0.01367,-0.10352 -0.111329,-0.61914 -0.140625,-0.61328 -0.169922,-0.59766 -0.199218,-0.59179 -0.228516,-0.57422 -0.03711,-0.0977 -0.716797,0.32422 a 11.875905,11.875905 0 0 0 -0.539063,-1.08399 c -0.782294,-0.007 -1.865686,-0.0241 -2.847656,-0.0371 1.248359,1.609 1.992188,3.62971 1.992188,5.82031 0,5.24462 -4.263178,9.50781 -9.507813,9.50781 -5.244631,0 -9.5,-4.26319 -9.5,-9.50781 0,-2.92134 1.320373,-5.53805 3.396484,-7.28321 -0.04728,-0.0694 -0.09427,-0.13645 -0.142578,-0.21093 -0.324763,-0.50083 -0.647194,-1.10834 -0.9375,-1.691409 -0.171361,-0.344148 -0.309679,-0.638937 -0.433593,-0.908203 z m 2.128906,3.513672 c -1.880227,1.56948 -3.074219,3.93392 -3.074219,6.58008 0,4.73609 3.826401,8.57031 8.5625,8.57031 4.736103,0 8.570313,-3.83422 8.570313,-8.57031 0,-2.25732 -0.870419,-4.30968 -2.294922,-5.83789 -0.431485,-0.007 -0.761149,-0.008 -1.199219,-0.0156 -0.506324,-0.009 -1.29881,-0.0301 -1.988281,-0.0469 l 0.06445,0.0332 -0.310547,0.60547 -0.257813,-0.13281 -0.273437,-0.12696 -0.04492,-0.0156 0.146485,-0.37891 c -1.532549,-0.0394 -2.89651,-0.0807 -3.982422,-0.12109 l 0.04883,0.20703 -0.101563,0.0215 -0.296875,0.082 -0.220703,0.0742 -0.136719,-0.4082 c -0.0077,-3.3e-4 -0.02756,-0.002 -0.03516,-0.002 -0.761469,-0.0329 -1.407655,-0.0757 -1.888672,-0.11914 -0.240518,-0.0215 -0.44412,-0.0458 -0.605468,-0.0723 -0.08066,-0.0147 -0.149901,-0.0222 -0.222657,-0.0449 -0.04706,-0.0136 -0.118283,-0.0657 -0.183593,-0.10352 -0.09978,-0.0508 -0.189983,-0.11136 -0.275391,-0.17773 z m -0.210938,2.83789 0.554688,0.39063 -0.05273,0.0664 -0.154296,0.25195 -0.132813,0.22852 -0.589844,-0.33984 0.138672,-0.24414 0.177735,-0.2793 z m 11.767579,0.9082 0.01367,0.0293 0.132813,0.30274 0.126953,0.31054 0.0078,0.0312 -0.642579,0.21289 v -0.0137 l -0.111328,-0.27344 -0.125,-0.27343 -0.0078,-0.0156 z m 0.0078,2.98243 0.677734,0.0215 -0.0078,0.33984 -0.0293,0.34571 v 0.0234 l -0.671875,-0.0879 0.02344,-0.31054 z m -12.277344,0.75976 0.02344,0.18945 0.05859,0.30274 0.0293,0.13281 -0.65625,0.15625 -0.03711,-0.15625 -0.05859,-0.33203 -0.03125,-0.21289 z m 10.710938,3.35938 0.509765,0.44336 -0.04297,0.0449 -0.222657,0.24414 -0.236328,0.21094 -0.464844,-0.48438 0.220704,-0.20898 0.201172,-0.21289 z m -8.658203,0.52343 0.148437,0.125 0.228516,0.17774 0.125,0.0937 -0.390625,0.55469 -0.140625,-0.10352 -0.257813,-0.20703 -0.15625,-0.13281 z m 4.753906,1.49219 0.08789,0.67188 -0.08008,0.006 -0.347656,0.0312 -0.287109,0.008 -0.01563,-0.67969 0.265625,-0.008 0.318359,-0.0234 z"
       transform="matrix(0.26458333,0,0,0.26458333,0,255)" />
    <path
       id="path2573-7"
       style="color:#000000;display:inline;fill:#000000;stroke-width:1.55085;stroke-dasharray:3.1017, 1.55085;-inkscape-stroke:none"
       d="m 125.03125,99.177734 -1.23242,1.720706 -0.2793,-0.0137 c 0,0 -0.82456,-0.047 -1.18945,-0.0684 1.85376,1.73582 3.01367,4.2021 3.01367,6.9375 0,5.24462 -4.26318,9.50781 -9.50781,9.50781 -5.24463,0 -9.5,-4.26319 -9.5,-9.50781 0,-3.07681 1.46669,-5.81411 3.73633,-7.55274 -0.70277,-0.0276 -1.42896,-0.0574 -2.04883,-0.0762 -0.44441,-0.0141 -0.85713,-0.0239 -1.24219,-0.0312 a 11.875905,11.875905 0 0 0 -0.42383,0.52539 l -0.61914,-0.48242 -0.0352,0.0527 -0.35546,0.49414 -0.32422,0.50977 -0.31055,0.53125 -0.27344,0.54492 -0.25781,0.5625 -0.0742,0.19141 0.72461,0.28515 a 11.875905,11.875905 0 0 0 -0.48047,1.47071 l -0.75195,-0.21289 -0.0156,0.0293 -0.14062,0.61328 -0.10938,0.61914 -0.082,0.63477 -0.0449,0.64258 -0.0215,0.65039 0.008,0.11133 0.77539,-0.0195 a 11.875905,11.875905 0 0 0 0.11328,1.54492 l -0.77148,0.0977 0.0234,0.19141 0.10938,0.62695 0.14062,0.60547 0.17774,0.60547 0.1914,0.58985 0.22071,0.54687 0.73047,-0.28711 a 11.875905,11.875905 0 0 0 0.6914,1.38867 l -0.67578,0.39063 0.10352,0.16797 0.32422,0.51757 0.35546,0.49414 0.37696,0.47266 0.39844,0.46484 0.4121,0.43555 0.0664,0.0586 0.53906,-0.56446 a 11.875905,11.875905 0 0 0 1.16993,1.01563 l -0.48243,0.61328 0.0879,0.0723 0.49414,0.34766 0.51758,0.33203 0.52344,0.30274 0.54688,0.28125 0.56054,0.25 0.14844,0.0605 0.28711,-0.72656 a 11.875905,11.875905 0 0 0 1.46875,0.48828 l -0.21289,0.75391 0.0723,0.0234 0.61329,0.14062 0.62109,0.10938 0.63477,0.082 0.64062,0.0508 0.65039,0.0156 h 0.0664 l -0.0195,-0.77539 a 11.875905,11.875905 0 0 0 1.54882,-0.10937 l 0.0957,0.76562 0.23632,-0.0293 0.62696,-0.11133 0.61328,-0.14063 0.59766,-0.16992 0.58984,-0.19922 0.50976,-0.19922 -0.28515,-0.72461 a 11.875905,11.875905 0 0 0 1.38867,-0.6914 l 0.38672,0.67187 0.20703,-0.11914 0.51758,-0.33203 0.49414,-0.3457 0.48047,-0.37696 0.45703,-0.39843 0.43555,-0.42188 0.0293,-0.0293 -0.56054,-0.53516 a 11.875905,11.875905 0 0 0 1.01953,-1.16602 l 0.61133,0.47657 0.0957,-0.11915 0.34765,-0.49414 0.33204,-0.51562 0.30273,-0.5332 0.28125,-0.54493 0.25,-0.5625 0.0449,-0.10156 -0.72265,-0.28711 a 11.875905,11.875905 0 0 0 0.49609,-1.46679 l 0.75,0.21289 0.0293,-0.11914 0.14062,-0.60547 0.11133,-0.62696 0.0801,-0.63476 0.0527,-0.64258 0.0137,-0.62695 -0.77343,-0.0156 0.77343,-0.0215 v -0.1875 l -0.77929,0.0195 a 11.875905,11.875905 0 0 0 -0.1211,-1.54297 l 0.76758,-0.0996 -0.0137,-0.10352 -0.11133,-0.61914 -0.14062,-0.61328 -0.16992,-0.59765 -0.19922,-0.5918 -0.22852,-0.57422 -0.0371,-0.0977 -0.7168,0.32421 a 11.875905,11.875905 0 0 0 -0.70312,-1.38086 l 0.67383,-0.38867 -0.0508,-0.0977 -0.33204,-0.50782 -0.34765,-0.49609 -0.37695,-0.478516 -0.39844,-0.458984 -0.0645,-0.06836 z m -13.35352,1.087886 c -2.62823,1.46027 -4.40429,4.26274 -4.40429,7.48829 0,4.73608 3.8264,8.57031 8.5625,8.57031 4.7361,0 8.57031,-3.83423 8.57031,-8.57031 0,-2.9158 -1.45351,-5.48568 -3.67578,-7.03125 -1.66405,-0.0934 -3.88931,-0.21272 -6.17383,-0.32422 -0.96642,-0.0472 -1.93149,-0.0914 -2.87891,-0.13282 z m 2.48243,0.99219 0.15429,0.66602 -0.10156,0.0215 -0.29687,0.082 -0.22071,0.0742 -0.21484,-0.64258 0.23633,-0.0742 0.32617,-0.0957 z m 4.18554,0.32617 0.0664,0.0293 0.30273,0.13281 0.27344,0.14063 -0.31055,0.60547 -0.25781,-0.13281 -0.27344,-0.12696 -0.0449,-0.0137 z m -8.20898,2.42774 0.55469,0.39062 -0.0527,0.0664 -0.15429,0.25195 -0.13282,0.22852 -0.58984,-0.33984 0.13867,-0.24415 0.17773,-0.27929 z m 11.76758,0.9082 0.0137,0.0293 0.13281,0.30273 0.12695,0.31055 0.008,0.0293 -0.64258,0.21484 v -0.0137 l -0.11133,-0.27344 -0.125,-0.27344 -0.008,-0.0137 z m 0.01,2.98242 0.67774,0.0215 -0.01,0.33984 -0.0293,0.34571 v 0.0234 l -0.67187,-0.0879 0.0234,-0.31054 z m -12.27734,0.75977 0.0234,0.19141 0.0586,0.30273 0.0293,0.13281 -0.65625,0.15625 -0.0371,-0.15625 -0.0586,-0.33203 -0.0312,-0.21289 z m 10.71094,3.35937 0.50976,0.44336 -0.043,0.0449 -0.22265,0.24414 -0.23633,0.21289 -0.46485,-0.48633 0.22071,-0.20703 0.20117,-0.21485 z m -8.65821,0.52344 0.14844,0.125 0.22852,0.17774 0.125,0.0957 -0.39063,0.55469 -0.14062,-0.10352 -0.25782,-0.20703 -0.15625,-0.13281 z m 4.75391,1.49219 0.0879,0.67187 -0.0801,0.006 -0.34765,0.0312 -0.28711,0.01 -0.0156,-0.67969 0.26563,-0.01 0.31836,-0.0215 z"
       transform="matrix(0.26458333,0,0,0.26458333,0,255)" />
    <path
       id="path2573-0"
       style="color:#000000;display:inline;fill:#000000;stroke-width:1.55085;stroke-dasharray:3.1017, 1.55085;-inkscape-stroke:none"
       d="m 134.45898,99.558594 -0.26757,0.232422 -0.44336,0.414064 -0.0879,0.0957 0.5664,0.54102 a 11.875905,11.875905 0 0 0 -1.01172,1.17382 l -0.61718,-0.48242 -0.0371,0.0527 -0.35547,0.49414 -0.32422,0.50976 -0.31055,0.53125 -0.27343,0.54493 -0.25782,0.5625 -0.0742,0.1914 0.72461,0.28516 a 11.875905,11.875905 0 0 0 -0.48047,1.4707 l -0.75195,-0.21289 -0.0156,0.0293 -0.14063,0.61328 -0.10937,0.61914 -0.082,0.63477 -0.0449,0.64257 -0.0215,0.65039 0.008,0.11328 0.77539,-0.0195 a 11.875905,11.875905 0 0 0 0.11328,1.54493 l -0.77148,0.0977 0.0234,0.19141 0.10937,0.62695 0.14063,0.60547 0.17773,0.60547 0.19141,0.58984 0.2207,0.54688 0.73047,-0.28711 a 11.875905,11.875905 0 0 0 0.6914,1.38867 l -0.67578,0.39063 0.10352,0.16796 0.32422,0.51758 0.35547,0.49414 0.37695,0.47266 0.39844,0.46484 0.41211,0.43555 0.0664,0.0586 0.53907,-0.56445 a 11.875905,11.875905 0 0 0 1.16992,1.01563 l -0.48242,0.61328 0.0879,0.0723 0.49414,0.34766 0.51757,0.33203 0.52344,0.30273 0.54688,0.28125 0.56054,0.25 0.14844,0.0586 0.28711,-0.72461 a 11.875905,11.875905 0 0 0 1.46875,0.48828 l -0.21289,0.75391 0.0723,0.0215 0.61328,0.14063 0.62109,0.10937 0.63477,0.082 0.64062,0.0508 0.65039,0.0156 h 0.0664 l -0.0195,-0.77539 a 11.875905,11.875905 0 0 0 1.54883,-0.10938 l 0.0957,0.76563 0.23633,-0.0312 0.62695,-0.11133 0.61328,-0.14063 0.59766,-0.16992 0.58984,-0.19922 0.50977,-0.19922 -0.28516,-0.7246 a 11.875905,11.875905 0 0 0 1.38867,-0.69141 l 0.38672,0.67187 0.20703,-0.11914 0.51758,-0.33203 0.49414,-0.3457 0.48047,-0.37695 0.45703,-0.39844 0.43555,-0.42188 0.0293,-0.0293 -0.56055,-0.53516 a 11.875905,11.875905 0 0 0 1.01953,-1.16602 l 0.61133,0.47657 0.0957,-0.11914 0.34766,-0.49414 0.33203,-0.51563 0.30273,-0.5332 0.28125,-0.54492 0.25,-0.5625 0.0449,-0.10157 -0.72265,-0.28711 a 11.875905,11.875905 0 0 0 0.49609,-1.46679 l 0.75,0.21289 0.0293,-0.11914 0.14062,-0.60547 0.11133,-0.62696 0.0801,-0.63476 0.0527,-0.64258 0.0137,-0.62695 -0.77344,-0.0156 0.77344,-0.0234 v -0.1875 l -0.7793,0.0195 a 11.875905,11.875905 0 0 0 -0.12109,-1.54297 l 0.76757,-0.0996 -0.0137,-0.10352 -0.11133,-0.61914 -0.14062,-0.61328 -0.16992,-0.59766 -0.0859,-0.2539 c -1.14256,-0.0653 -2.32136,-0.13595 -3.00586,-0.17188 -0.16053,-0.008 -0.30906,-0.0186 -0.46875,-0.0273 0.63002,1.27022 0.98437,2.70089 0.98437,4.21289 0,5.24462 -4.26317,9.50781 -9.50781,9.50781 -5.24463,0 -9.5,-4.26319 -9.5,-9.50781 0,-4.6221 3.30516,-8.48081 7.67969,-9.332031 z m 8.23633,1.029296 c -4.7361,0 -8.5625,3.82637 -8.5625,8.5625 0,4.73609 3.8264,8.57031 8.5625,8.57031 4.73611,0 8.57031,-3.83422 8.57031,-8.57031 0,-1.55812 -0.41506,-3.01805 -1.14062,-4.27539 -2.56667,-0.15333 -4.74219,-0.32227 -4.74219,-0.32227 l -0.30273,-0.0234 -1.66016,-3.91016 c -0.23882,-0.0199 -0.4806,-0.0312 -0.72461,-0.0312 z m -1.67578,2.06641 0.1543,0.66601 -0.10156,0.0234 -0.29688,0.082 -0.2207,0.0742 -0.21485,-0.64258 0.23633,-0.0742 0.32617,-0.0957 z m -4.02344,2.7539 0.55469,0.39063 -0.0527,0.0664 -0.1543,0.25196 -0.13281,0.22851 -0.58985,-0.33984 0.13868,-0.24414 0.17773,-0.2793 z m 11.76758,0.90821 0.0137,0.0293 0.13282,0.30274 0.12695,0.3125 0.008,0.0293 -0.64258,0.21485 v -0.0156 l -0.11132,-0.27343 -0.125,-0.27344 -0.008,-0.0156 z m 0.008,2.98242 0.67774,0.0234 -0.008,0.33984 -0.0293,0.3457 v 0.0215 l -0.67188,-0.0879 0.0234,-0.31055 z m -12.27734,0.75976 0.0234,0.19141 0.0586,0.30273 0.0293,0.13282 -0.65625,0.15625 -0.0371,-0.15625 -0.0586,-0.33203 -0.0312,-0.2129 z m 10.71094,3.35938 0.50976,0.44336 -0.043,0.0449 -0.22266,0.24414 -0.23633,0.21289 -0.46484,-0.48633 0.2207,-0.20703 0.20117,-0.21484 z m -8.6582,0.52344 0.14843,0.125 0.22852,0.17773 0.125,0.0957 -0.39063,0.55469 -0.14062,-0.10351 -0.25781,-0.20704 -0.15625,-0.13281 z m 4.7539,1.49218 0.0879,0.67188 -0.0801,0.008 -0.34765,0.0293 -0.28711,0.008 -0.0156,-0.67969 0.26563,-0.008 0.31836,-0.0215 z"
       transform="matrix(0.26458333,0,0,0.26458333,0,255)" />
    <path
       id="path3195"
       style="color:#000000;fill:#000000;stroke-width:0.999999px;-inkscape-stroke:none"
       d="M 52.75 88.128906 C 52.645793 88.129284 52.543153 88.130459 52.441406 88.130859 L 52.441406 88.132812 C 50.813458 88.140412 49.485434 88.166283 48.505859 88.220703 C 48.016074 88.247163 47.61439 88.288193 47.294922 88.332031 C 46.975438 88.375871 46.762698 88.399341 46.521484 88.53125 L 46.460938 88.560547 L 46.417969 88.605469 C 46.006631 89.00213 45.753305 89.614488 45.464844 90.398438 C 45.17639 91.182342 44.907557 92.117477 44.675781 93.048828 C 44.443983 93.980179 44.24936 94.902587 44.136719 95.654297 C 44.080409 96.029982 44.046579 96.365149 44.033203 96.644531 C 44.019973 96.923838 43.999212 97.1202 44.107422 97.390625 L 44.128906 97.449219 L 44.166016 97.5 C 44.327477 97.718835 44.464517 97.740119 44.609375 97.794922 C 44.754244 97.849722 44.911553 97.898383 45.103516 97.943359 C 45.487432 98.032929 45.982745 98.118778 46.558594 98.201172 C 47.710291 98.365203 49.183035 98.519153 50.640625 98.652344 C 53.555801 98.9188 56.40625 99.101564 56.40625 99.101562 L 56.515625 99.101562 L 56.611328 99.072266 C 56.999928 98.929777 57.218386 98.650898 57.476562 98.333984 C 57.734742 98.016882 57.988791 97.644437 58.220703 97.279297 C 58.592911 96.693281 58.776811 96.341155 58.884766 96.142578 L 79.806641 96.960938 C 79.904041 97.194505 80.201863 97.917102 80.707031 98.931641 C 80.997337 99.514708 81.319768 100.12222 81.644531 100.62305 C 81.959441 101.1086 82.237242 101.49042 82.677734 101.71484 C 82.743044 101.75264 82.814273 101.80474 82.861328 101.81836 C 82.934088 101.84106 83.003329 101.84928 83.083984 101.86328 C 83.245332 101.88978 83.448939 101.91395 83.689453 101.93555 C 84.17047 101.97905 84.816656 102.02185 85.578125 102.05469 C 87.101067 102.12079 89.075393 102.16564 91.041016 102.20117 C 94.972253 102.27187 98.851564 102.29102 98.851562 102.29102 L 98.925781 102.29102 L 98.992188 102.26758 C 99.423508 102.13907 99.868825 101.86722 100.35742 101.5293 C 100.84604 101.19141 101.35886 100.78452 101.83398 100.39258 C 102.70856 99.671126 103.31598 99.101682 103.42773 98.998047 C 103.60688 98.979147 105.19777 99.033203 105.77734 99.033203 L 105.80273 99.033203 L 122.42773 99.765625 L 122.42773 99.761719 C 122.42772 99.761714 122.4668 99.763672 122.4668 99.763672 L 122.74609 99.779297 L 123.97852 98.058594 L 144.3457 98.974609 L 146.30859 103.5957 L 146.61133 103.61914 C 146.61133 103.61914 149.71899 103.86389 152.91602 104.03125 C 154.51453 104.11515 156.13622 104.18296 157.41211 104.1875 C 158.05006 104.1895 158.59877 104.17548 159.0293 104.14258 C 159.24454 104.12368 159.42724 104.10196 159.58984 104.06836 C 159.75244 104.03436 159.89009 104.02896 160.08398 103.85547 L 160.09961 103.83984 L 160.11328 103.82422 C 160.26408 103.66775 160.29815 103.53131 160.33398 103.38867 C 160.36988 103.24618 160.38679 103.09368 160.40039 102.92383 C 160.42759 102.58405 160.429 102.16574 160.4082 101.69141 C 160.3657 100.74278 160.23873 99.563525 160.07617 98.384766 C 159.91361 97.206044 159.71221 96.036798 159.50781 95.121094 C 159.40561 94.66328 159.30886 94.265944 159.20508 93.955078 C 159.15318 93.79974 159.09582 93.670605 159.03516 93.548828 C 158.97446 93.427127 158.93442 93.307051 158.74805 93.179688 L 158.74023 93.179688 L 158.73242 93.171875 C 158.54144 93.04904 158.51613 93.085365 158.42969 93.068359 C 158.34329 93.049459 158.24334 93.035338 158.11914 93.017578 C 157.87071 92.983558 157.5375 92.947068 157.10938 92.90625 C 156.25299 92.82461 155.03286 92.722068 153.50586 92.611328 C 150.45187 92.389848 146.15355 92.11742 141.01562 91.814453 C 130.74023 91.208676 117.11217 90.487026 103.41992 89.84375 C 89.727686 89.200512 75.973914 88.640091 65.433594 88.345703 C 60.492821 88.207869 56.259149 88.127719 53.066406 88.128906 C 52.959982 88.128946 52.854207 88.128528 52.75 88.128906 z M 49.560547 90.642578 C 49.625867 90.640778 49.691126 90.652374 49.755859 90.677734 C 50.012943 90.779479 50.139232 91.069164 50.037109 91.326172 L 47.806641 95.865234 C 47.704835 96.122998 47.413069 96.248532 47.15625 96.146484 C 46.900489 96.047614 46.772687 95.760536 46.869141 95.503906 L 49.107422 90.964844 C 49.181512 90.768686 49.364584 90.648035 49.560547 90.642578 z M 52.556641 90.916016 C 52.621961 90.914216 52.689172 90.923919 52.753906 90.949219 C 53.01099 91.050964 53.137279 91.342602 53.035156 91.599609 L 50.804688 96.138672 C 50.702882 96.396436 50.411116 96.521969 50.154297 96.419922 C 49.898536 96.321052 49.770734 96.033974 49.867188 95.777344 L 52.105469 91.238281 C 52.179559 91.042124 52.360678 90.921472 52.556641 90.916016 z M 55.822266 91.240234 C 55.887586 91.238434 55.954797 91.250031 56.019531 91.275391 C 56.276615 91.377136 56.402904 91.66682 56.300781 91.923828 L 54.070312 96.464844 C 53.968509 96.722608 53.676741 96.846188 53.419922 96.744141 C 53.164161 96.645271 53.036361 96.358192 53.132812 96.101562 L 55.371094 91.5625 C 55.445184 91.366343 55.626303 91.245691 55.822266 91.240234 z M 98.919922 91.873047 C 98.958892 91.874347 98.997562 91.880245 99.035156 91.890625 C 99.29925 91.961325 99.457594 92.231029 99.390625 92.496094 L 97.648438 99.242188 C 97.580338 99.508654 97.309819 99.670095 97.042969 99.603516 C 96.771837 99.536436 96.608232 99.260246 96.679688 98.990234 L 98.421875 92.251953 C 98.473305 92.045645 98.649595 91.894432 98.861328 91.875 C 98.880808 91.8732 98.900372 91.872647 98.919922 91.873047 z M 86.439453 91.875 C 86.477683 91.875859 86.515693 91.881095 86.552734 91.890625 C 86.819201 91.958725 86.980641 92.229244 86.914062 92.496094 L 85.171875 99.242188 C 85.103905 99.512526 84.828002 99.675084 84.558594 99.603516 C 84.291421 99.532046 84.133022 99.25725 84.205078 98.990234 L 85.947266 92.251953 C 85.998676 92.048283 86.171905 91.898463 86.380859 91.876953 C 86.400339 91.875153 86.419903 91.8746 86.439453 91.875 z M 88.933594 91.875 C 88.971824 91.875859 89.009834 91.881095 89.046875 91.890625 C 89.314133 91.957845 89.476612 92.228644 89.410156 92.496094 L 87.667969 99.242188 C 87.599999 99.512526 87.324095 99.675084 87.054688 99.603516 C 86.787515 99.532046 86.629116 99.25725 86.701172 98.990234 L 88.443359 92.251953 C 88.494519 92.0489 88.66679 91.899235 88.875 91.876953 C 88.89448 91.875153 88.914044 91.8746 88.933594 91.875 z M 91.429688 91.875 C 91.467917 91.875859 91.505928 91.881095 91.542969 91.890625 C 91.809436 91.958725 91.970876 92.229244 91.904297 92.496094 L 90.162109 99.242188 C 90.094009 99.508653 89.823491 99.670094 89.556641 99.603516 C 89.286301 99.535546 89.123745 99.259642 89.195312 98.990234 L 90.9375 92.251953 C 90.98891 92.048283 91.16214 91.898463 91.371094 91.876953 C 91.390574 91.875153 91.410138 91.8746 91.429688 91.875 z M 93.923828 91.875 C 93.962058 91.875859 94.000068 91.881095 94.037109 91.890625 C 94.304368 91.957845 94.466847 92.228644 94.400391 92.496094 L 92.658203 99.242188 C 92.590103 99.508654 92.319584 99.670095 92.052734 99.603516 C 91.782395 99.535546 91.619838 99.259642 91.691406 98.990234 L 93.431641 92.251953 C 93.483051 92.048283 93.65628 91.898463 93.865234 91.876953 C 93.884714 91.875153 93.904278 91.8746 93.923828 91.875 z M 96.419922 91.875 C 96.458152 91.875859 96.496162 91.881095 96.533203 91.890625 C 96.79967 91.958725 96.96111 92.229244 96.894531 92.496094 L 95.152344 99.242188 C 95.084244 99.508654 94.813725 99.670095 94.546875 99.603516 C 94.276536 99.535546 94.113979 99.259642 94.185547 98.990234 L 95.927734 92.251953 C 95.979144 92.048283 96.152374 91.898463 96.361328 91.876953 C 96.380808 91.875153 96.400372 91.8746 96.419922 91.875 z M 107.85938 93.367188 C 108.13704 93.361788 108.36594 93.583625 108.36914 93.861328 L 108.42773 98.148438 L 107.42578 98.105469 L 107.37109 93.869141 C 107.37009 93.596753 107.58707 93.373569 107.85938 93.367188 z M 110.32422 93.367188 C 110.60189 93.361788 110.83078 93.583629 110.83398 93.861328 L 110.88867 98.255859 L 109.89062 98.212891 L 109.83008 93.869141 C 109.82908 93.59451 110.04961 93.370403 110.32422 93.367188 z M 112.79102 93.367188 C 113.06566 93.366088 113.28976 93.586711 113.29297 93.861328 L 113.35547 98.363281 L 112.35156 98.320312 L 112.29492 93.869141 C 112.29392 93.593757 112.51564 93.369338 112.79102 93.367188 z M 115.25586 93.367188 C 115.53049 93.366088 115.7546 93.586715 115.75781 93.861328 L 115.82031 98.470703 L 114.81836 98.427734 L 114.76172 93.869141 C 114.76072 93.59451 114.98125 93.370403 115.25586 93.367188 z M 117.71289 93.367188 L 117.71484 93.367188 C 117.99175 93.362788 118.21945 93.584401 118.22266 93.861328 L 118.2832 98.578125 L 117.28125 98.535156 L 117.21875 93.869141 C 117.21775 93.59451 117.43826 93.367188 117.71289 93.367188 z M 120.17969 93.367188 C 120.45736 93.361788 120.68625 93.583629 120.68945 93.861328 L 120.75 98.6875 L 119.75 98.642578 L 119.68555 93.869141 C 119.68455 93.59451 119.90508 93.370403 120.17969 93.367188 z M 151.04102 95.650391 C 151.25983 95.639701 151.46012 95.7727 151.53516 95.978516 L 153.51367 101.30078 C 153.60967 101.55966 153.47757 101.84733 153.21875 101.94336 C 152.95987 102.03936 152.6722 101.90726 152.57617 101.64844 L 150.59766 96.326172 C 150.50106 96.06894 150.63016 95.781981 150.88672 95.683594 C 150.93612 95.664424 150.98815 95.653221 151.04102 95.650391 z M 147.86523 95.654297 C 148.08091 95.645597 148.27781 95.776371 148.35352 95.978516 L 150.33984 101.30078 C 150.43584 101.55966 150.30374 101.84733 150.04492 101.94336 C 149.78604 102.03936 149.49837 101.90726 149.40234 101.64844 L 147.41602 96.326172 C 147.32002 96.06729 147.45212 95.779622 147.71094 95.683594 C 147.76054 95.665764 147.81258 95.655877 147.86523 95.654297 z M 154.2207 95.654297 C 154.43638 95.645597 154.63327 95.776375 154.70898 95.978516 L 156.6875 101.30078 C 156.7835 101.55966 156.6514 101.84733 156.39258 101.94336 C 156.1337 102.03936 155.84603 101.90726 155.75 101.64844 L 153.77148 96.326172 C 153.67568 96.066735 153.80868 95.778826 154.06836 95.683594 C 154.11726 95.665964 154.16871 95.656077 154.2207 95.654297 z "
       transform="matrix(0.26458333,0,0,0.26458333,0,255)" />
    <path
       id="rect6837"
       style="stroke-width:0.165"
       d="m 18.434881,278.29739 c 0.143191,-0.0327 7.800005,-0.0629 7.940089,0 0.112857,0.13261 0,0.8353 0,0.8353 h -7.940089 c 0,0 -0.100636,-0.75463 0,-0.8353 z"
       sodipodi:nodetypes="ccccc" />
    <path
       id="rect7728"
       style="display:inline;fill:#000000;fill-opacity:1;stroke-width:0.623622"
       d="m 79.375,81.580078 c -0.113375,3.88e-4 -0.22488,0.0015 -0.337891,0.002 0.0085,1.184177 -0.301596,2.486182 -0.607421,2.839844 -0.487993,0.202847 -1.255227,0.364874 -2.46875,0.427734 0.07366,0.713761 0.08449,1.874469 0.04883,2.882813 h 6.109375 c -0.02552,-0.916265 0.0079,-1.922972 0.0918,-2.523438 l 0.05664,-0.292968 c -1.279196,-0.05707 -2.282643,-0.214615 -2.451172,-0.335938 -0.36878,-0.135064 -0.60101,-1.741849 -0.441406,-3 z m 10.949219,0 c 0.03469,1.218672 -0.285938,2.607351 -0.603516,2.97461 -0.487994,0.202884 -1.255223,0.364994 -2.46875,0.427734 0.07046,0.68279 0.08284,1.773757 0.05273,2.75 h 6.054687 c -0.03883,-0.971633 -0.0069,-2.095641 0.08398,-2.746094 L 93.5,84.693359 c -1.279196,-0.05707 -2.282643,-0.216567 -2.451172,-0.33789 -0.347473,-0.127261 -0.568638,-1.556224 -0.460937,-2.773438 -0.09001,-4.14e-4 -0.172829,-0.0016 -0.263672,-0.002 z m -22.257813,0.08789 c -1.595093,0.02526 -2.821279,0.05333 -2.978515,0.08398 v 5.980469 h 3.875 c 0.10569,-0.508591 0.549002,-0.876532 1.068359,-0.886719 0.307793,0.0012 0.587935,0.131401 0.791016,0.339844 -0.0046,-0.574377 0.0096,-1.148169 0.04687,-1.619141 -0.200924,0.290287 -0.536265,0.480399 -0.916016,0.480469 -0.614801,-1.13e-4 -1.113168,-0.49848 -1.113281,-1.113281 2.4e-5,-0.130691 0.02697,-0.254594 0.06836,-0.371094 -0.186862,-0.03935 -0.332066,-0.07866 -0.382812,-0.115234 -0.190112,-0.06963 -0.344557,-0.532041 -0.427735,-1.134766 -0.04563,0.572999 -0.518806,1.025283 -1.103515,1.025391 -0.614802,-1.12e-4 -1.11317,-0.49848 -1.113282,-1.113282 1.13e-4,-0.614802 0.49848,-1.113169 1.113282,-1.113281 0.509945,9.4e-5 0.934555,0.344709 1.066406,0.8125 -0.03297,-0.40696 -0.03147,-0.838917 0.0059,-1.255859 z m 31.570313,2.980469 c -0.335025,0.04738 -0.703819,0.08814 -1.152344,0.111328 0.076,0.736479 0.08486,1.943429 0.04492,2.972656 h 0.755859 c 0.218676,-0.32261 0.341936,-1.719921 0.351565,-3.083984 z m -32.564453,0.488281 c 0.614801,1.13e-4 1.113168,0.49848 1.113281,1.113281 -1.13e-4,0.614801 -0.49848,1.113168 -1.113281,1.113281 -0.614802,-1.12e-4 -1.113169,-0.498479 -1.113282,-1.113281 1.13e-4,-0.614802 0.49848,-1.113169 1.113282,-1.113281 z"
       transform="matrix(0.26458333,0,0,0.26458333,0,255)" />
    <rect
       style="display:inline;fill:#000000;fill-opacity:1;stroke-width:0.137832"
       id="rect7856"
       width="0.88261777"
       height="0.70362306"
       x="13.137338"
       y="22.073753"
       transform="translate(0,255)" />
    <path
       id="rect8156"
       style="display:inline;fill:#000000;stroke-width:0.525373"
       d="m 53.427734,82.021484 v 5.466797 h 1.494141 l -0.002,-0.607422 h 1.787109 v 0.607422 h 1.496094 l -0.002,-0.607422 h 1.787109 v 0.607422 h 1.494141 l -0.002,-0.607422 h 1.789062 v 0.607422 h 1.494141 l -0.01953,-5.466797 h -1.47461 v 2.957032 h -1.796875 l -0.0098,-2.957032 h -1.47461 v 2.957032 h -1.794922 l -0.01172,-2.957032 h -1.47461 v 2.957032 h -1.794922 l -0.0098,-2.957032 z"
       transform="matrix(0.26458333,0,0,0.26458333,0,255)" />
    <path
       id="path18877"
       style="color:#000000;fill:#000000;stroke-width:0.165;stroke-linecap:round;-inkscape-stroke:none"
       d="m 44.828399,267.36669 c -0.09652,0.004 -0.182935,0.0704 -0.208772,0.16898 l -1.133266,4.32532 c -0.03181,0.12135 0.03989,0.24466 0.161232,0.27646 l 0.358635,0.0941 c 0.12134,0.0318 0.244657,-0.0404 0.276468,-0.16175 l 1.133263,-4.32532 c 0.03181,-0.12135 -0.0404,-0.24467 -0.161747,-0.27647 l -0.358116,-0.094 c -0.02275,-0.006 -0.04542,-0.008 -0.0677,-0.007 z m -1.290878,0.36587 c -0.07621,9e-5 -0.153273,2.9e-4 -0.230476,5.1e-4 -0.205875,6e-4 -0.4147,0.002 -0.623734,0.004 v -5.2e-4 c -0.836139,0.006 -1.672471,0.0216 -2.312522,0.0413 -0.320024,0.01 -0.591568,0.0191 -0.789098,0.031 -0.09877,0.006 -0.178038,0.0131 -0.238229,0.0196 -0.03009,0.003 -0.05557,0.006 -0.07648,0.01 -0.02091,0.004 -0.03245,0.004 -0.06046,0.0196 l -0.0098,0.006 -0.0078,0.006 c -0.03303,0.0317 -0.04386,0.0655 -0.05684,0.10542 -0.01298,0.0399 -0.02308,0.0871 -0.03307,0.14263 -0.01999,0.11119 -0.03747,0.25497 -0.05064,0.42168 -0.02638,0.33343 -0.04037,0.75777 -0.04289,1.18184 -0.0025,0.42407 0.0071,0.84699 0.02739,1.17563 0.01012,0.16432 0.02267,0.30499 0.03876,0.41238 0.008,0.0537 0.01678,0.0987 0.02739,0.13643 0.01061,0.0377 0.01537,0.0679 0.05064,0.1018 h 0.0021 c 0.02873,0.0272 0.0465,0.0289 0.06873,0.0351 0.02223,0.006 0.04775,0.0107 0.07803,0.0155 0.06056,0.01 0.140211,0.0173 0.238229,0.0253 0.196032,0.0161 0.463544,0.0303 0.781346,0.0414 0.635606,0.0223 1.469281,0.0352 2.30477,0.0367 0.275619,6.6e-4 0.550629,-2e-4 0.819589,-0.002 l 1.038177,-3.96255 c -0.226758,-0.002 -0.466661,-0.004 -0.716751,-0.004 -0.07479,-1e-4 -0.150135,-1e-4 -0.226343,0 z m 1.958538,0.0269 c -4.63e-4,0.002 -5.34e-4,0.004 -0.001,0.006 l -1.027327,3.92018 c 0.165941,-0.004 0.325107,-0.008 0.473356,-0.0129 0.323164,-0.0108 0.5984,-0.0257 0.802534,-0.0429 0.102068,-0.009 0.187026,-0.0168 0.252182,-0.0274 0.06187,-0.0101 0.09813,-0.014 0.144177,-0.045 0.02534,-0.0146 0.03936,-0.0324 0.04702,-0.047 0.0086,-0.0163 0.01449,-0.0329 0.01964,-0.0506 0.01029,-0.0354 0.01783,-0.0772 0.02532,-0.12919 0.01499,-0.10406 0.02752,-0.24354 0.03721,-0.40979 0.01939,-0.33253 0.02934,-0.76793 0.02946,-1.2051 1.05e-4,-0.43717 -0.01016,-0.87671 -0.02946,-1.21491 -0.0097,-0.1691 -0.02221,-0.31207 -0.03721,-0.42013 -0.0075,-0.054 -0.01533,-0.0994 -0.02532,-0.13643 -0.0094,-0.0348 -0.0127,-0.0642 -0.05271,-0.0977 -0.02576,-0.0239 -0.04439,-0.0281 -0.06459,-0.0336 -0.02215,-0.006 -0.04798,-0.0111 -0.07803,-0.0155 -0.06009,-0.009 -0.138337,-0.0166 -0.236162,-0.0232 -0.08025,-0.005 -0.175699,-0.0102 -0.279051,-0.0145 z m -5.518009,0.58032 c 0.0026,-6e-5 0.0051,0 0.0077,0 h 3.142446 c 0.169725,0 0.309025,0.13879 0.309025,0.30851 v 2.01952 c 0,0.16972 -0.1393,0.30902 -0.309025,0.30902 H 39.98575 c -0.169725,0 -0.308506,-0.1393 -0.308506,-0.30902 v -2.01952 c 0,-0.16707 0.134662,-0.30426 0.300757,-0.30851 z m 0,0.16433 c -0.07752,0.004 -0.136943,0.0656 -0.136943,0.14418 v 2.01952 c 0,0.0812 0.06352,0.14469 0.144692,0.14469 h 3.142446 c 0.08117,0 0.142626,-0.0635 0.142626,-0.14469 v -2.01952 c 0,-0.0812 -0.06146,-0.14417 -0.142626,-0.14418 h -3.142446 c -0.0025,10e-6 -0.0052,-1.2e-4 -0.0077,0 z m 3.984252,2.89027 c 0.151532,0 0.275436,0.1239 0.275436,0.27543 0,0.15153 -0.123904,0.27337 -0.275436,0.27337 -0.151533,0 -0.275437,-0.12184 -0.275437,-0.27337 0,-0.15153 0.123904,-0.27543 0.275437,-0.27543 z m 0,0.0646 c -0.116404,0 -0.208773,0.0944 -0.208773,0.21084 0,0.11639 0.09237,0.20929 0.208773,0.20929 0.116406,0 0.210841,-0.0929 0.210841,-0.20929 0,-0.11644 -0.09444,-0.21084 -0.210841,-0.21084 z" />
    <path
       id="rect27631"
       style="fill:#000000;stroke-width:0.0649999;stroke-linecap:round"
       d="m 34.101859,272.02271 c -1.077814,0.006 -2.288906,0.0786 -2.644678,0.24626 0.05283,0.14755 -0.143765,1.67234 -0.156429,1.77974 0.238451,0.003 0.479804,0.0338 0.479804,0.0338 0.0098,-0.15629 0.01905,-0.32263 0.02946,-0.45888 0.01783,-0.23335 0.03647,-0.43168 0.05581,-0.5793 0.0097,-0.0738 0.01928,-0.13463 0.02997,-0.18293 0.0053,-0.0242 0.01222,-0.0461 0.01912,-0.0656 0.0069,-0.0196 0.01057,-0.0368 0.03359,-0.0615 l 0.0047,-0.004 0.0021,-0.002 c 0.0265,-0.023 0.04554,-0.027 0.06614,-0.032 0.02061,-0.007 0.04311,-0.0115 0.06977,-0.0155 0.05329,-0.009 0.121547,-0.0183 0.204637,-0.0253 0.16619,-0.0142 0.39053,-0.024 0.65474,-0.032 0.396317,-0.0127 0.881568,-0.0197 1.388031,-0.0207 v -5.2e-4 c 0.16882,-5e-4 0.339444,-5.8e-4 0.510561,0 0.68448,0.003 1.367536,0.014 1.886191,0.032 0.12193,0.004 0.233793,0.009 0.33538,0.014 v -0.35037 c -0.458552,-0.18771 -1.747287,-0.28177 -2.968813,-0.27492 z"
       sodipodi:nodetypes="ccccscccccccccccccccccc" />
    <path
       id="path20004"
       style="color:#000000;fill:#000000;stroke-width:0.623622;stroke-linecap:round;-inkscape-stroke:none"
       d="M 129.49609 67.228516 C 127.44844 67.232295 125.49992 67.262422 124.02539 67.318359 C 123.28812 67.344816 122.67027 67.379544 122.21094 67.421875 C 121.98126 67.444552 121.79141 67.467306 121.64062 67.494141 C 121.48983 67.520597 121.40278 67.505506 121.24219 67.634766 L 121.22852 67.646484 L 121.2168 67.658203 C 121.13701 67.738329 121.1194 67.797832 121.0957 67.861328 C 121.07189 67.924824 121.05356 67.994029 121.03516 68.072266 C 120.99812 68.228738 120.96517 68.425273 120.93164 68.664062 C 120.86463 69.141681 120.8 69.783989 120.73828 70.539062 C 120.61484 72.049211 120.50204 74.008509 120.41602 75.960938 C 120.32992 77.913365 120.27098 79.858192 120.25 81.333984 C 120.24819 81.460048 120.24927 81.560826 120.24805 81.679688 L 123.05859 81.679688 C 123.05259 81.653298 123.04983 81.626519 123.04883 81.599609 L 123.04883 69.722656 C 123.04774 69.444987 123.27311 69.219603 123.55078 69.220703 L 123.55273 69.220703 C 123.8304 69.219618 124.05569 69.444987 124.05469 69.722656 L 124.05469 81.599609 C 124.05369 81.626519 124.04992 81.653298 124.04492 81.679688 L 126.28711 81.679688 C 126.28111 81.653298 126.27834 81.626519 126.27734 81.599609 L 126.27734 69.722656 C 126.27625 69.444987 126.50163 69.219603 126.7793 69.220703 C 127.05697 69.219612 127.28225 69.444983 127.28125 69.722656 L 127.28125 81.599609 C 127.28025 81.626519 127.27648 81.653298 127.27148 81.679688 L 134.67188 81.679688 C 134.66588 81.653298 134.66116 81.626519 134.66016 81.599609 L 134.66016 69.722656 C 134.65907 69.444987 134.88444 69.219603 135.16211 69.220703 C 135.43672 69.223919 135.65725 69.448025 135.65625 69.722656 L 135.65625 81.599609 C 135.65525 81.626469 135.65344 81.653248 135.64844 81.679688 L 137.89648 81.679688 C 137.89048 81.653298 137.88772 81.626519 137.88672 81.599609 L 137.88672 69.722656 C 137.88563 69.444987 138.111 69.219603 138.38867 69.220703 C 138.66328 69.223919 138.88381 69.448025 138.88281 69.722656 L 138.88281 81.599609 C 138.88181 81.626519 138.87805 81.653298 138.87305 81.679688 L 142.0332 81.679688 C 142.03045 81.500539 142.0312 81.390788 142.02734 81.195312 C 141.99786 79.7024 141.93774 77.763066 141.85742 75.826172 C 141.77711 73.889277 141.67686 71.956196 141.56445 70.472656 C 141.50825 69.730886 141.45039 69.102508 141.38867 68.636719 C 141.35806 68.4039 141.32541 68.21237 141.29102 68.060547 C 141.27401 67.984578 141.25731 67.919784 141.23438 67.857422 C 141.21208 67.796949 141.19488 67.737951 141.11328 67.658203 C 140.98085 67.526298 140.93197 67.549833 140.85938 67.533203 C 140.78567 67.518085 140.69985 67.503085 140.59766 67.490234 C 140.39322 67.463778 140.12056 67.441465 139.7832 67.419922 C 139.10848 67.376457 138.18067 67.34198 137.0957 67.3125 C 134.92577 67.253161 132.12879 67.221335 129.49609 67.228516 z M 120.24609 82.677734 C 120.2474 82.836139 120.2467 83.009599 120.25 83.140625 C 120.25605 83.365507 120.26254 83.548489 120.27539 83.6875 C 120.28144 83.757043 120.28982 83.815157 120.30078 83.871094 C 120.30683 83.89755 120.31212 83.924969 120.32422 83.958984 C 120.33631 83.993 120.34468 84.036681 120.41797 84.105469 L 120.50781 84.189453 L 141.9375 84.189453 L 142.00195 83.962891 C 142.03975 83.830985 142.03144 83.768117 142.03711 83.621094 C 142.04316 83.473692 142.04612 83.279442 142.04688 83.044922 C 142.04727 82.95186 142.04326 82.783433 142.04297 82.677734 L 120.24609 82.677734 z "
       transform="matrix(0.26458333,0,0,0.26458333,0,255)" />
    <path
       id="path20004-3"
       style="color:#000000;fill:#000000;stroke-width:0.165;stroke-linecap:round;-inkscape-stroke:none"
       d="m 40.282117,272.78752 c -0.541774,0.001 -1.05732,0.009 -1.447456,0.0238 -0.195069,0.007 -0.358542,0.0162 -0.480073,0.0274 -0.06077,0.006 -0.111001,0.012 -0.150897,0.0191 -0.0399,0.007 -0.06293,0.003 -0.105418,0.0372 l -0.0036,0.003 -0.0031,0.003 c -0.02111,0.0212 -0.02577,0.0369 -0.03204,0.0537 -0.0063,0.0168 -0.01114,0.0351 -0.01601,0.0558 -0.0098,0.0414 -0.01852,0.0934 -0.02739,0.15658 -0.01773,0.12637 -0.03483,0.29631 -0.05116,0.49609 -0.03266,0.39956 -0.0625,0.91796 -0.08526,1.43454 -0.02278,0.51658 -0.03837,1.03115 -0.04393,1.42162 -5.29e-4,0.0333 -1.93e-4,0.06 -5.29e-4,0.0915 h 0.743622 c -0.0016,-0.007 -0.0024,-0.0141 -0.0026,-0.0212 v -3.14245 c -2.65e-4,-0.0735 0.05934,-0.1331 0.132808,-0.13281 h 5.29e-4 c 0.07347,-2.9e-4 0.133075,0.0593 0.13281,0.13281 v 3.14245 c -2.65e-4,0.007 -0.0013,0.0142 -0.0026,0.0212 h 0.593246 c -0.0016,-0.007 -0.0024,-0.0141 -0.0026,-0.0212 v -3.14245 c -2.65e-4,-0.0735 0.05934,-0.1331 0.13281,-0.13281 0.07347,-2.9e-4 0.133072,0.0593 0.132807,0.13281 v 3.14245 c -2.64e-4,0.007 -0.0013,0.0142 -0.0026,0.0212 h 1.958022 c -0.0016,-0.007 -0.0028,-0.0141 -0.0031,-0.0212 v -3.14245 c -2.64e-4,-0.0735 0.05934,-0.1331 0.132808,-0.13281 0.07266,8.5e-4 0.131006,0.0601 0.130741,0.13281 v 3.14245 c -2.64e-4,0.007 -7.94e-4,0.0142 -0.0021,0.0212 h 0.594793 c -0.0016,-0.007 -0.0024,-0.0141 -0.0026,-0.0212 v -3.14245 c -2.65e-4,-0.0735 0.05934,-0.1331 0.132807,-0.13281 0.07266,8.5e-4 0.131006,0.0601 0.130741,0.13281 v 3.14245 c -2.64e-4,0.007 -0.0013,0.0142 -0.0026,0.0212 h 0.836123 c -7.94e-4,-0.0474 -5.3e-4,-0.0764 -0.0016,-0.12815 -0.0078,-0.395 -0.02371,-0.90812 -0.04496,-1.42059 -0.02125,-0.51247 -0.04777,-1.02393 -0.07751,-1.41645 -0.01487,-0.19626 -0.03018,-0.36252 -0.04651,-0.48576 -0.0081,-0.0616 -0.01675,-0.11227 -0.02582,-0.15244 -0.0045,-0.0201 -0.0089,-0.0372 -0.01497,-0.0537 -0.0059,-0.016 -0.01045,-0.0316 -0.03204,-0.0527 -0.03504,-0.0349 -0.04797,-0.0287 -0.06718,-0.0331 -0.0195,-0.004 -0.04221,-0.008 -0.06925,-0.0114 -0.05409,-0.007 -0.126232,-0.0129 -0.215492,-0.0186 -0.17852,-0.0115 -0.424003,-0.0206 -0.711068,-0.0284 -0.574127,-0.0157 -1.314161,-0.0241 -2.01073,-0.0222 z m -2.447395,4.08761 c 2.64e-4,0.0419 1.61e-4,0.0878 0.0011,0.12247 0.0016,0.0595 0.0033,0.10792 0.0067,0.1447 0.0016,0.0184 0.0038,0.0338 0.0067,0.0486 0.0016,0.007 0.003,0.0143 0.0062,0.0233 0.0032,0.009 0.0054,0.0206 0.02479,0.0388 l 0.02376,0.0222 h 5.669939 l 0.01704,-0.0599 c 0.01,-0.0349 0.0078,-0.0515 0.0093,-0.0904 0.0016,-0.039 0.0024,-0.0904 0.0026,-0.15245 1.03e-4,-0.0246 -0.0011,-0.0692 -0.0011,-0.0971 z" />
    <rect
       style="fill:#000000;fill-opacity:1;stroke:none;stroke-width:0.0649999;stroke-linecap:round;stroke-miterlimit:4;stroke-dasharray:none;stroke-opacity:1"
       id="rect20200"
       width="1.1237981"
       height="2.8477879"
       x="30.576538"
       y="274.09192"
       ry="0.22644126" />
    <rect
       style="fill:#000000;fill-opacity:1;stroke:none;stroke-width:0.0569163;stroke-linecap:round;stroke-miterlimit:4;stroke-dasharray:none;stroke-opacity:1"
       id="rect20200-4"
       width="1.1237981"
       height="2.1835155"
       x="43.767319"
       y="274.7562"
       ry="0.17362179" />
    <path
       id="rect21497"
       style="fill:#000000;fill-opacity:1;stroke:none;stroke-width:0.245669;stroke-linecap:round;stroke-miterlimit:4;stroke-dasharray:none;stroke-opacity:1"
       d="M 116.03906 86.601562 C 115.46583 86.601562 115.00586 87.063484 115.00586 87.636719 L 115.00586 88.214844 C 115.00586 88.788079 115.46583 89.25 116.03906 89.25 L 122.94336 89.25 L 122.94336 91.9375 C 122.94336 92.510735 123.40528 92.972656 123.97852 92.972656 L 148.98828 92.972656 C 149.56152 92.972656 150.02148 92.510735 150.02148 91.9375 L 150.02148 89.25 L 156.92578 89.25 C 157.49902 89.25 157.96094 88.788079 157.96094 88.214844 L 157.96094 87.636719 C 157.96094 87.063484 157.49902 86.601562 156.92578 86.601562 L 116.03906 86.601562 z "
       transform="matrix(0.26458333,0,0,0.26458333,0,255)" />
    <path
       id="rect22320-7"
       style="display:inline;fill:#000000;fill-opacity:1;stroke:none;stroke-width:0.245669;stroke-linecap:round;stroke-miterlimit:4;stroke-dasharray:none;stroke-opacity:1"
       d="m 30.099609,67.900391 c -0.274644,0.180948 -0.462347,0.484967 -0.476562,0.839843 l -0.0078,0.171875 -4.382812,-0.175781 c -0.586268,-0.02343 -1.076125,0.431317 -1.09961,1.017578 l -0.06445,1.601563 c -0.02347,0.586254 0.429365,1.076123 1.015625,1.099609 l 4.382813,0.175781 -0.0078,0.173829 c -0.02347,0.586263 0.43132,1.076123 1.017578,1.099609 l 30.269532,1.212891 c 0.184705,0.215771 0.456177,0.356819 0.763672,0.36914 l 5.383539,0.130567 -0.0098,0.25 c -0.01374,0.343812 0.138117,0.652586 0.382813,0.855469 -0.0064,-1.832467 0.06448,-3.734448 0.224609,-4.150391 0.04291,-0.05328 0.119518,-0.102704 0.19336,-0.152343 l -2.530024,-0.128614 c -0.598065,-0.04414 -1.045141,-0.594101 -1.003906,-1.234375 l 0.01758,-0.273438 -6.431641,-0.474609 c -0.313682,-0.02317 -0.585329,-0.184005 -0.767578,-0.425782 z"
       transform="matrix(0.26458333,0,0,0.26458333,0,255)"
       sodipodi:nodetypes="ccccccccccccccccccccccc" />
    <path
       id="rect20397"
       style="fill:#000000;stroke-width:0.245669;stroke-linecap:round"
       d="m 114.97034,71.601562 c -4.09291,0.01482 -7.2187,0.04207 -7.63245,0.0918 -1.28511,0.09557 -4.95165,12.809507 -2.91016,15.498047 0,0 59.42333,1.063263 60.875,0.320313 0.18877,-0.20375 0.32805,-1.575084 0.42141,-2.730713 h -22.90235 l -0.0215,0.07813 h -23.38086 l -0.0977,-0.09375 c -0.001,-0.0019 -0.0476,-0.05873 -0.0488,-0.06055 -0.001,-0.0038 -0.0162,-0.03358 -0.0234,-0.04492 -0.014,-0.02797 -0.0248,-0.05324 -0.0312,-0.06836 -0.0136,-0.03931 -0.0174,-0.07523 -0.0234,-0.105469 -0.0125,-0.06501 -0.028,-0.133206 -0.0352,-0.214844 -0.0133,-0.154876 -0.0159,-0.36306 -0.0215,-0.609375 h -3.13122 c -0.57324,0 -1.0351,-0.461921 -1.03516,-1.035156 l -0.001,-10.386475 z m 50.54528,0.75586 c 0.0268,0.521933 0.0575,0.947385 0.082,1.49414 0.0169,-0.001 0.0356,0 0.0527,0 h 0.0234 c -0.047,-0.605126 -0.0983,-1.125959 -0.15821,-1.49414 z"
       sodipodi:nodetypes="cccccccccccccccssccccsccc"
       transform="matrix(0.26458333,0,0,0.26458333,0,255)" />
    <path
       id="rect27086"
       style="fill:#000000;fill-opacity:1;stroke:none;stroke-width:0.245669;stroke-linecap:round;stroke-miterlimit:4;stroke-dasharray:none;stroke-opacity:1"
       d="m 152.9668,61.753906 c 0,0 0.0355,2.391057 0.24609,3.285156 h -5.14453 c -0.47414,0 -0.85742,0.383281 -0.85742,0.857422 v 0.361328 c 1.44549,-0.04271 3.17006,-0.06691 4.9707,-0.07031 0.63807,-0.0019 1.28294,-0.0022 1.92969,0 2.58701,0.0076 5.16864,0.04953 7.1289,0.117188 0.83276,0.03024 1.54082,0.06339 2.10547,0.101562 v -0.509766 c 0,-0.474141 -0.38132,-0.857422 -0.85547,-0.857422 h -1.16601 c 1.59522,-1.066234 2.14233,-1.163804 2.41359,-3.06458 z"
       transform="matrix(0.26458333,0,0,0.26458333,0,255)"
       sodipodi:nodetypes="ccsscccccssccc" />
    <path
       id="rect29923"
       style="display:inline;fill:#000000;fill-opacity:1;stroke:none;stroke-width:0.0649999;stroke-linecap:round;stroke-miterlimit:4;stroke-dasharray:none;stroke-opacity:1"
       d="m 33.926527,269.82664 c -0.67819,-6e-4 -1.301525,0.0511 -1.5875,0.185 l -0.0041,0.0176 H 30.03271 c -0.04173,0 -0.07872,0.0178 -0.104905,0.046 h -1.621088 c -0.07952,0 -0.143145,0.0641 -0.143145,0.14366 v 0.24857 c 0,0.0795 0.06362,0.14314 0.143145,0.14314 h 1.582332 v 0.12712 h -1.632976 c -0.07952,0 -0.143661,0.0636 -0.143661,0.14315 v 0.24856 c 0,0.0795 0.06414,0.14366 0.143661,0.14366 h 1.632976 v 0.003 c 0,0.0795 0.06414,0.14366 0.143661,0.14366 h 1.962153 l -0.09043,0.36897 h 4.982644 c 0,0 -0.214582,-1.618 -0.420648,-1.6583 -0.126622,-0.15555 -1.409578,-0.30235 -2.539897,-0.30334 z" />
    <path
       id="rect7285"
       style="display:inline;fill:#000000;fill-opacity:1;stroke-width:0.623622"
       d="m 163.11914,104.77734 v 0.92383 h -2.0293 v 1.2168 c -1.80269,0.16869 -4.32877,0.18394 -5.46484,0.10547 l 0.14062,2.77929 c 1.31377,-0.0669 7.16016,0.4668 7.16016,0.4668 -0.14265,-0.0629 -0.27109,-0.12851 -0.38867,-0.19531 h 0.58203 v 0.90625 h 2.5293 v -6.20313 z"
       transform="matrix(0.26458333,0,0,0.26458333,0,255)" />
  </g>
</svg>
