<?xml version="1.0" encoding="UTF-8" standalone="no"?>
<!-- Created with Inkscape (http://www.inkscape.org/) -->

<svg
   width="60mm"
   height="42mm"
   viewBox="0 0 60 42"
   version="1.1"
   id="svg8"
   inkscape:version="1.1.2 (0a00cf5339, 2022-02-04)"
   sodipodi:docname="Donar Assault Helicopter.svg"
   xmlns:inkscape="http://www.inkscape.org/namespaces/inkscape"
   xmlns:sodipodi="http://sodipodi.sourceforge.net/DTD/sodipodi-0.dtd"
   xmlns="http://www.w3.org/2000/svg"
   xmlns:svg="http://www.w3.org/2000/svg"
   xmlns:rdf="http://www.w3.org/1999/02/22-rdf-syntax-ns#"
   xmlns:cc="http://creativecommons.org/ns#"
   xmlns:dc="http://purl.org/dc/elements/1.1/">
  <defs
     id="defs2" />
  <sodipodi:namedview
     id="base"
     pagecolor="#ffffff"
     bordercolor="#666666"
     borderopacity="1.0"
     inkscape:pageopacity="0.0"
     inkscape:pageshadow="2"
     inkscape:zoom="1.4142136"
     inkscape:cx="203.2932"
     inkscape:cy="195.51503"
     inkscape:document-units="mm"
     inkscape:current-layer="layer1"
     showgrid="false"
     inkscape:window-width="1846"
     inkscape:window-height="1016"
     inkscape:window-x="74"
     inkscape:window-y="1107"
     inkscape:window-maximized="1"
     inkscape:snap-global="false"
     showguides="false"
     inkscape:pagecheckerboard="0" />
  <metadata
     id="metadata5">
    <rdf:RDF>
      <cc:Work
         rdf:about="">
        <dc:format>image/svg+xml</dc:format>
        <dc:type
           rdf:resource="http://purl.org/dc/dcmitype/StillImage" />
      </cc:Work>
    </rdf:RDF>
  </metadata>
  <g
     inkscape:label="Capa 1"
     inkscape:groupmode="layer"
     id="layer1"
     transform="translate(0,-255)">
    <g
       id="g16034"
       transform="translate(-1.8900424,-0.21716523)">
      <path
         id="path13018"
         style="fill:#000000;fill-opacity:1;stroke:none;stroke-width:0.999999px;stroke-linecap:butt;stroke-linejoin:miter;stroke-opacity:1"
         d="m 153.61719,71.824219 2.13281,5.423828 c 4.11062,-0.0045 8.56413,0.157812 11.68193,0.255573 0.44973,0.159291 0.91292,1.067979 1.29101,2.423828 -0.16974,-1.150882 -0.42717,-2.170276 -0.79882,-2.945312 0.51107,-0.362079 11.27315,-0.169636 11.27315,-0.169636 l 0.0215,4.822266 1.22266,-0.0332 0.16992,-4.789062 h 5.20312 c 0,0 -0.13377,7.381949 0.54883,8.082031 0.29527,0.61697 8.97266,0.150391 8.97266,0.150391 0.63715,0 0.60742,4.566406 0.60742,4.566406 -0.63618,0.428469 -21.92084,3.072741 -26.64453,3.191406 -0.36469,1.207647 -0.86738,2.303777 -1.54102,3.197266 -0.0184,0.02627 -0.10209,0.07317 -0.23437,0.136719 l 0.084,0.839843 c 0,0 10.31074,-1.447689 11.74219,-2.46289 0,0 7.69597,-0.800009 8.125,-0.691406 l 0.45117,0.570312 c 0.45705,0.31368 6.97852,-0.818359 6.97852,-0.818359 l 0.50195,-1.646485 c 0,0 13.45157,-1.748949 14.67773,-2.699218 0,0 0.56489,-1.42169 0.16211,-1.525391 -4.05836,0.20437 -12.39639,0.58538 -12.91992,0.300781 -0.66726,-0.806815 0.0508,-4.798828 0.0508,-4.798828 l -3.08203,-1.632812 -0.0762,-3.785157 0.17578,-0.505859 c 0,0 11.98309,-0.118731 17.28007,0.09375 0.44058,-0.670981 -0.16093,-1.652344 -0.16093,-1.652344 -3.82946,-1.601395 -44.28787,-1.393477 -44.28787,-1.393477 -0.19986,-0.381525 -1.3215,-1.149491 -1.3215,-1.149491 -0.63812,-0.603176 -12.28711,-1.355469 -12.28711,-1.355469 z m 33.81836,5.191406 h 5.55664 c 0.6264,0 1.1289,0.504455 1.1289,1.130859 v 5.404297 c 0,0.626405 -0.5025,1.13086 -1.1289,1.13086 h -5.55664 c -0.62641,0 -1.13086,-0.504455 -1.13086,-1.13086 v -5.404297 c 0,-0.626404 0.50445,-1.130859 1.13086,-1.130859 z"
         transform="matrix(0.26458333,0,0,0.26458333,0,255)"
         sodipodi:nodetypes="ccccccccccccccccccccccccccccccccccsssssssss" />
      <path
         id="path9906"
         style="fill:#000000;fill-opacity:1;stroke:none;stroke-width:0.999999px;stroke-linecap:butt;stroke-linejoin:miter;stroke-opacity:1"
         d="m 99.306641,101.42773 3.781249,5.06641 c 0,0 1.47588,0.009 1.91602,0.0117 0.14674,-1.88482 0.26653,-3.65866 0.32812,-5.07031 z m 34.076169,0.0488 c -0.54712,1.28115 -1.32572,3.08735 -2.26953,5.20899 6.45579,0.0534 11.59514,0.10767 11.75781,0.14843 0.45849,0.11509 2.86524,-5.33984 2.86524,-5.33984 z"
         transform="matrix(0.26458333,0,0,0.26458333,0,255)" />
      <path
         id="rect2742"
         style="fill:#000000;fill-opacity:1;stroke:none;stroke-width:0.873071;stroke-linecap:round"
         d="m 99.134766,77.832031 c -0.633577,0 -1.144532,0.510955 -1.144532,1.144531 v 20.888672 c 0,0.534256 0.363835,0.978626 0.857422,1.105466 V 82.919922 h 27.511724 v -3.94336 c -1e-5,-0.633576 -0.51096,-1.144531 -1.14454,-1.144531 z"
         transform="matrix(0.26458333,0,0,0.26458333,0,255)" />
      <path
         id="rect2746"
         style="fill:#000000;fill-opacity:1;stroke:none;stroke-width:0.873071;stroke-linecap:round"
         d="m 129.25195,78.603516 c -0.63357,0 -1.14453,0.509001 -1.14453,1.142578 v 3.173828 h 19.04297 v 17.636718 c 0.31344,-0.20354 0.51953,-0.55584 0.51953,-0.958984 V 79.746094 c 0,-0.633577 -0.509,-1.142578 -1.14258,-1.142578 z"
         transform="matrix(0.26458333,0,0,0.26458333,0,255)" />
      <path
         id="path1017"
         style="fill:#000000;fill-opacity:1;stroke:none;stroke-width:0.999999px;stroke-linecap:butt;stroke-linejoin:miter;stroke-opacity:1"
         d="m 96.816406,82.601562 c -2.316619,0.05777 -70.027342,10.9375 -70.027344,10.9375 -1.103313,0.468888 -1.160882,2.938172 -0.125,3.1875 l 48.996094,3.384768 c -0.658573,-1.317923 -0.32969,-6.074505 0.333985,-6.845705 l -0.146485,-0.958984 17.792969,-0.140625 1.808594,1.644531 -0.06055,6.515623 -1.175781,1.06836 2.074218,0.14258 c 0.985673,-1.12065 1.860854,-18.820688 0.572266,-18.935548 -0.01007,-8.97e-4 -0.02473,-4.54e-4 -0.04297,0 z"
         transform="matrix(0.26458333,0,0,0.26458333,0,255)" />
      <path
         id="path1021"
         style="fill:#000000;fill-opacity:1;stroke:none;stroke-width:0.999999px;stroke-linecap:butt;stroke-linejoin:miter;stroke-opacity:1"
         d="m 88.707031,74.763672 -46.46875,13.591797 c -1.00879,0.483628 -1.74414,2.589843 -1.74414,2.589843 L 97.632812,81.621094 C 97.77257,80.949437 96.49328,78.706699 94.902956,76.933967 91.681508,76.744565 89.134932,76.84173 88.5611,76.408784 88.51514,76.087729 88.5478,75.575442 88.707031,74.763672 Z"
         transform="matrix(0.26458333,0,0,0.26458333,0,255)"
         sodipodi:nodetypes="ccccccc" />
      <path
         style="fill:none;stroke:#000000;stroke-width:0.264583px;stroke-linecap:butt;stroke-linejoin:miter;stroke-opacity:1"
         d="m 12.153962,277.78701 11.227654,-3.2445 c 0.170234,-0.60287 -0.558449,-1.61908 -1.976257,-1.59711 -0.690959,-0.0513 -7.001745,2.63315 -7.635793,2.99051 -2.086569,1.16944 -1.615604,1.8511 -1.615604,1.8511 z"
         id="path1609"
         sodipodi:nodetypes="ccccc" />
      <path
         style="fill:#000000;fill-opacity:1;stroke:none;stroke-width:0.264583px;stroke-linecap:butt;stroke-linejoin:miter;stroke-opacity:1"
         d="m 16.720808,276.49682 0.921693,-0.25883 -0.554302,-2.04648 c -0.260761,-0.40462 -0.996695,-0.0231 -0.822426,0.33701 z"
         id="path2149"
         sodipodi:nodetypes="ccccc" />
      <path
         style="fill:#000000;fill-opacity:1;stroke:none;stroke-width:0.264583px;stroke-linecap:butt;stroke-linejoin:miter;stroke-opacity:1"
         d="m 20.760902,275.27414 0.921693,-0.25883 -0.685341,-2.19079 c -0.260761,-0.40462 -0.996695,-0.0231 -0.822426,0.33701 z"
         id="path2149-3"
         sodipodi:nodetypes="ccccc" />
      <path
         id="rect2717"
         style="fill:#000000;stroke-width:0.873071;stroke-linecap:round"
         d="m 99.451172,83.400391 v 17.167969 h 5.976558 c 0.0305,-1.047103 0.0172,-1.793984 -0.0664,-2.060548 l -4.80078,-1.84375 c -0.972003,-1.266179 0.24225,-7.391808 1.24414,-7.787109 1.521,-0.933959 37.59998,0.796613 38.28711,1.345703 0.95867,1.069985 0.79029,5.448152 -0.0215,5.800782 l -5.88672,3.671874 c 0,0 -0.14269,0.334858 -0.37109,0.873048 h 12.49805 V 83.400391 Z"
         transform="matrix(0.26458333,0,0,0.26458333,0,255)" />
      <path
         style="fill:#000000;fill-opacity:1;stroke:none;stroke-width:0.264583px;stroke-linecap:butt;stroke-linejoin:miter;stroke-opacity:1"
         d="m 23.680745,275.15529 14.759953,0.439 c 0,-0.15007 -0.573726,-1.91884 -0.853233,-1.91884 l -9.626296,-0.30756 -1.74839,1.25023 -2.574657,0.34608 c -0.190233,-0.0364 -0.163562,0.17553 0.04262,0.19109 z"
         id="path3164"
         sodipodi:nodetypes="ccccccc" />
      <path
         style="fill:#000000;fill-opacity:1;stroke:none;stroke-width:0.264583px;stroke-linecap:butt;stroke-linejoin:miter;stroke-opacity:1"
         d="m 27.967987,272.27654 -0.0026,1.01215 9.670138,0.22557 -0.528841,-1.20166 z"
         id="path3680"
         sodipodi:nodetypes="ccccc" />
      <path
         id="path3964"
         style="fill:#000000;fill-opacity:1;stroke:none;stroke-width:0.999999px;stroke-linecap:butt;stroke-linejoin:miter;stroke-opacity:1"
         d="m 105.61133,65.292969 -6.435549,3.693359 -8.669922,1 -1.152343,5.158203 9.779296,-1.363281 6.332028,-4.441406 z m -0.72461,1.09375 c 0,0 -0.0547,2.461783 -0.0547,2.603515 0,0.141581 -6.046874,4.34961 -6.046874,4.34961 l -4.304687,0.527344 c 0,0 0.310986,-2.605792 0.300781,-3.248047 l 4.357422,-0.447266 z"
         transform="matrix(0.26458333,0,0,0.26458333,0,255)" />
      <g
         id="g9364"
         transform="translate(-1.5656809,-0.31901719)">
        <path
           id="rect4993"
           style="fill:#000000;fill-opacity:1;stroke:none;stroke-width:0.873071;stroke-linecap:round"
           d="m 83.646484,104.55273 c -0.67151,0.0338 -1.203125,0.58738 -1.203125,1.26758 v 8.76563 c 0,0.70214 0.565433,1.26758 1.267579,1.26758 h 17.750002 c 0.70214,0 1.26562,-0.56544 1.26562,-1.26758 v -8.76563 c 0,-0.70214 -0.56348,-1.26758 -1.26562,-1.26758 H 83.710938 c -0.02194,0 -0.04279,-10e-4 -0.06445,0 z m 12.007813,1.01563 a 4.6351121,4.6351121 0 0 1 4.634763,4.63476 4.6351121,4.6351121 0 0 1 -4.634763,4.63477 4.6351121,4.6351121 0 0 1 -4.634766,-4.63477 4.6351121,4.6351121 0 0 1 4.634766,-4.63476 z m 0,0.81445 a 3.8204383,3.8204383 0 0 0 -3.820313,3.82031 3.8204383,3.8204383 0 0 0 3.820313,3.82032 3.8204383,3.8204383 0 0 0 3.820312,-3.82032 3.8204383,3.8204383 0 0 0 -3.820312,-3.82031 z"
           transform="matrix(0.26458333,0,0,0.26458333,0,255)" />
        <path
           id="rect5466"
           style="fill:#000000;fill-opacity:1;stroke:none;stroke-width:0.873071;stroke-linecap:round"
           d="m 35.162109,105.26758 c -0.684111,0 -1.236328,0.55026 -1.236328,1.23437 v 4.17188 c 0,0.68411 0.552217,1.23437 1.236328,1.23437 h 0.78711 v 0.69922 c 0,0.5755 0.463559,1.03906 1.039062,1.03906 h 0.935547 c 0.575503,0 1.039063,-0.46356 1.039063,-1.03906 v -0.69922 h 0.40625 v 0.69922 c 0,0.5755 0.463559,1.03906 1.039062,1.03906 h 0.935547 c 0.575503,0 1.039062,-0.46356 1.039062,-1.03906 v -0.69922 h 0.40625 v 0.69922 c 0,0.5755 0.46356,1.03906 1.039063,1.03906 h 0.935547 c 0.575503,0 1.039062,-0.46356 1.039062,-1.03906 v -0.69922 h 0.404297 v 0.69922 c 0,0.5755 0.46356,1.03906 1.039063,1.03906 h 0.935547 c 0.575503,0 1.039062,-0.46356 1.039062,-1.03906 v -0.69922 h 0.40625 v 0.69922 c 0,0.5755 0.46356,1.03906 1.039063,1.03906 h 0.935546 c 0.575503,0 1.039063,-0.46356 1.039063,-1.03906 v -0.69922 h 0.40625 v 0.69922 c 0,0.5755 0.46356,1.03906 1.039063,1.03906 h 0.935546 c 0.575503,0 1.039063,-0.46356 1.039063,-1.03906 v -0.69922 h 0.40625 v 0.69922 c 0,0.5755 0.461606,1.03906 1.037109,1.03906 h 0.9375 c 0.575503,0 1.03711,-0.46356 1.03711,-1.03906 v -0.69922 h 0.40625 v 0.69922 c 0,0.5755 0.463559,1.03906 1.039062,1.03906 h 0.935547 c 0.575503,0 1.039063,-0.46356 1.039063,-1.03906 v -0.69922 h 0.40625 v 0.69922 c -10e-7,0.5755 0.463559,1.03906 1.039062,1.03906 h 0.935547 c 0.575503,0 1.039062,-0.46356 1.039062,-1.03906 v -0.69922 h 0.40625 v 0.69922 c 0,0.5755 0.46356,1.03906 1.039063,1.03906 h 0.935547 c 0.575503,0 1.039062,-0.46356 1.039062,-1.03906 v -0.69922 h 0.404297 v 0.69922 c 0,0.5755 0.46356,1.03906 1.039063,1.03906 h 0.935547 c 0.575502,0 1.039062,-0.46356 1.039062,-1.03906 v -0.69922 h 0.40625 v 0.69922 c 0,0.5755 0.46356,1.03906 1.039062,1.03906 h 0.935547 c 0.575503,0 1.039063,-0.46356 1.039063,-1.03906 v -0.69922 h 0.40625 v 0.69922 c 0,0.5755 0.463559,1.03906 1.039062,1.03906 h 0.935547 c 0.575503,0 1.039063,-0.46356 1.039063,-1.03906 v -0.69922 h 1 c 0.684111,0 1.234375,-0.55026 1.234375,-1.23437 v -4.17188 c 0,-0.68411 -0.550264,-1.23437 -1.234375,-1.23437 z"
           transform="matrix(0.26458333,0,0,0.26458333,0,255)" />
      </g>
      <path
         id="path6039"
         style="fill:#000000;fill-opacity:1;stroke:none;stroke-width:0.999999px;stroke-linecap:butt;stroke-linejoin:miter;stroke-opacity:1"
         d="m 140.98633,65.767578 c 0.0344,0.07719 0.10647,0.252208 0.19726,0.476563 l 8.14649,0.03711 c -0.0827,-0.228286 -0.13672,-0.376953 -0.13672,-0.376953 z m 0.29687,0.722656 c 0.057,0.141859 0.10746,0.269239 0.17383,0.435547 l 8.12109,0.03711 c -0.0582,-0.157713 -0.11202,-0.303476 -0.16015,-0.435547 z m 0.27149,0.679688 c 0.0571,0.143506 0.11372,0.286165 0.17383,0.4375 l 8.10351,0.03516 c -0.0567,-0.151237 -0.10896,-0.29218 -0.16211,-0.435547 z m 0.27148,0.68164 c 0.0576,0.145151 0.11444,0.288461 0.17188,0.433594 l 8.08984,0.03516 c -0.0549,-0.142716 -0.10926,-0.288593 -0.16406,-0.433593 z m 0.26758,0.677735 c 0.0573,0.144949 0.11765,0.296247 0.17187,0.433594 L 150.35352,69 c -0.0552,-0.13688 -0.11298,-0.284448 -0.17188,-0.435547 z m 0.26953,0.677734 c 0.0565,0.143174 0.12333,0.312406 0.17188,0.435547 l 8.10546,0.03125 c -0.0541,-0.116136 -0.1183,-0.263102 -0.1875,-0.429687 z m 0.26758,0.681641 c 0.0928,0.235657 0.19141,0.484375 0.19141,0.484375 l 0.29687,0.673828 8.13086,-0.408203 c -0.23993,-0.415363 -0.40134,-0.673828 -0.43359,-0.673828 -0.0101,0 -0.0249,-0.01343 -0.043,-0.03906 z m 8.75586,0.988281 -8.16211,0.410156 0.26562,0.605469 8.23438,-0.414062 c -0.12118,-0.218387 -0.23476,-0.419999 -0.33789,-0.601563 z m 0.46875,0.839844 -8.25977,0.416015 0.25782,0.587891 8.32421,-0.417969 c -0.11134,-0.203888 -0.21843,-0.39774 -0.32226,-0.585937 z m 0.45312,0.822265 -8.34961,0.419922 0.26954,0.615235 8.4121,-0.421875 c -0.11189,-0.207234 -0.22308,-0.413085 -0.33203,-0.613282 z m 0.45899,0.851563 -8.4336,0.423828 0.26954,0.611328 L 153.0957,74 c -0.10891,-0.202959 -0.21858,-0.406214 -0.32812,-0.609375 z m 0.45898,0.853516 -8.51367,0.429687 0.27344,0.621094 8.57226,-0.429688 c -0.10751,-0.201417 -0.21993,-0.41186 -0.33203,-0.621093 z m 0.45899,0.857421 -8.59375,0.431641 0.26758,0.611328 8.65039,-0.433593 c -0.10126,-0.190521 -0.21323,-0.401161 -0.32422,-0.609376 z m 0.45507,0.853516 -8.67187,0.435547 0.27148,0.619141 8.72657,-0.4375 c -0.0938,-0.177198 -0.21006,-0.398431 -0.32618,-0.617188 z m 0.45313,0.855469 -8.74805,0.4375 0.22071,0.501953 8.84375,-0.337891 c 0,0 -0.1342,-0.256866 -0.31641,-0.601562 z"
         transform="matrix(0.26458333,0,0,0.26458333,0,255)" />
      <path
         style="fill:#000000;fill-opacity:1;stroke:none;stroke-width:0.264583px;stroke-linecap:butt;stroke-linejoin:miter;stroke-opacity:1"
         d="m 39.168647,275.80818 c 0,0 0.16627,0.0619 0.195637,0.24295 -0.0084,0.0804 -0.03712,5.51182 -0.03712,5.51182 0,0.14222 -0.325268,0.33914 -0.325268,0.33914 0.274153,0.17015 5.007791,-1.39104 5.090771,-1.50308 1.064015,-1.33373 0.532996,-4.46691 0.05882,-4.62563 -1.451087,-0.043 -4.446619,-0.13348 -4.982844,0.0348 z"
         id="path7515"
         sodipodi:nodetypes="ccccccc" />
      <rect
         style="fill:#000000;fill-opacity:1;stroke:none;stroke-width:0.0649999;stroke-linecap:round;stroke-miterlimit:4;stroke-dasharray:none"
         id="rect8632"
         width="1.8606821"
         height="1.8246565"
         x="49.403149"
         y="275.48529"
         ry="0.26915002" />
      <path
         style="fill:#000000;fill-opacity:1;stroke:none;stroke-width:0.264583px;stroke-linecap:butt;stroke-linejoin:miter;stroke-opacity:1"
         d="m 27.750121,285.54353 c 0.668254,0.30223 5.218256,0.14436 5.218256,0.14436 0.467074,-0.30818 2.339657,-4.46309 2.339657,-4.46309 l 1.474198,-0.85438 c 0.20326,-0.0821 0.245437,-1.10088 0.0054,-1.34988 -0.17205,-0.12777 -9.205728,-0.53054 -9.586574,-0.3132 -0.250863,0.092 -0.554998,1.51773 -0.311618,1.81239 l 1.201848,0.42872 c 0.123739,0.36692 -0.341167,4.59508 -0.341167,4.59508 z"
         id="path8747"
         sodipodi:nodetypes="ccccccccc" />
      <path
         id="rect9413"
         style="fill:#000000;fill-opacity:1;stroke:none;stroke-width:0.245669;stroke-linecap:round;stroke-miterlimit:4;stroke-dasharray:none"
         d="m 116.41797,44.240234 c -1.13241,0 -2.04297,0.91251 -2.04297,2.044922 v 2.78711 h -2.9375 c -0.71574,0 -1.29102,0.577225 -1.29102,1.292968 v 0.25 H 25.105469 c -0.563562,0 -1.017578,0.452063 -1.017578,1.015625 v 2.248047 c 0,0.563562 0.454016,1.017578 1.017578,1.017578 h 85.041011 v 0.25 c 0,0.715744 0.57528,1.291016 1.29102,1.291016 h 2.9375 v 6.035156 c 0,1.132412 0.91056,2.044922 2.04297,2.044922 h 8.22265 c 1.13242,0 2.04493,-0.91251 2.04493,-2.044922 V 56.4375 h 2.93554 c 0.71575,0 1.29102,-0.575272 1.29102,-1.291016 v -0.25 h 85.04101 c 0.56357,0 1.01758,-0.454016 1.01758,-1.017578 v -2.248047 c 0,-0.563562 -0.45401,-1.015625 -1.01758,-1.015625 h -85.04101 v -0.25 c 0,-0.715743 -0.57527,-1.292968 -1.29102,-1.292968 h -2.93554 v -2.78711 c 0,-1.132412 -0.91251,-2.044922 -2.04493,-2.044922 z"
         transform="matrix(0.26458333,0,0,0.26458333,0,255)" />
      <path
         style="fill:#000000;fill-opacity:1;stroke:none;stroke-width:0.264583px;stroke-linecap:butt;stroke-linejoin:miter;stroke-opacity:1"
         d="m 38.819862,282.07923 c 0.734419,0.12191 5.238319,-1.45161 5.238319,-1.45161 0.113971,0.0632 -0.139814,0.89086 -0.139814,0.89086 -0.0912,0.13462 -4.793115,1.84159 -4.793115,1.84159 0,0 -0.727716,0.0395 -0.771306,-0.2428 z"
         id="path10195"
         sodipodi:nodetypes="cccccc" />
      <path
         style="fill:#000000;fill-opacity:1;stroke:none;stroke-width:0.264583px;stroke-linecap:butt;stroke-linejoin:miter;stroke-opacity:1"
         d="m 44.77736,275.5974 c 0.215078,0.22581 0.367437,3.02605 0.137547,3.68843 0.277305,0.12153 6.464989,-0.64174 6.640978,-0.76027 0,0 0.02021,-0.90687 -0.139946,-0.90687 0,0 -2.1812,0.11698 -2.255415,-0.0381 -0.171574,-0.17597 -0.137934,-2.0311 -0.137934,-2.0311 h -1.056725 v 1.21204 h -0.696846 v -1.21204 c 0,0 -2.3632,-0.0431 -2.491659,0.0479 z"
         id="path10727"
         sodipodi:nodetypes="ccccccccccc" />
      <path
         style="fill:#000000;fill-opacity:1;stroke:none;stroke-width:0.264583px;stroke-linecap:butt;stroke-linejoin:miter;stroke-opacity:1"
         d="m 51.513393,275.62917 v 0.77667 l 0.822569,0.43389 c 0,0 -0.136648,1.03524 0.01654,1.22046 0.158975,0.0864 3.412776,-0.009 3.412776,-0.009 0.299694,-0.19197 0.412221,-2.19747 0.224793,-2.37224 -0.489671,-0.1042 -4.476674,-0.05 -4.476674,-0.05 z"
         id="path11802"
         sodipodi:nodetypes="ccccccc" />
      <path
         style="display:inline;fill:#000000;fill-opacity:1;stroke:none;stroke-width:0.264583px;stroke-linecap:butt;stroke-linejoin:miter;stroke-opacity:1"
         d="m 20.194529,279.55382 c 0,0 0.659401,0.14958 0.658676,0.26792 v 1.63916 c 0.03472,0.11258 -0.658676,0.30604 -0.658676,0.30604 0,0 4.483563,0.10967 4.561447,0 l 0.276742,-0.30604 c 0.07594,-0.0802 0.0727,-1.50653 0,-1.63916 l -0.276742,-0.26792 c -0.107113,-0.0764 -4.561447,0 -4.561447,0 z"
         id="path14093"
         sodipodi:nodetypes="ccccccccc" />
      <path
         id="rect14750"
         style="display:inline;stroke-width:0.0725027;stroke-linecap:round"
         d="m 20.355154,279.85443 h 0.435719 v 0.76894 h -0.435719 c -0.149109,0 -0.26915,-0.14935 -0.26915,-0.33487 v -0.0992 c 0,-0.18552 0.120041,-0.33487 0.26915,-0.33487 z"
         sodipodi:nodetypes="sccssss" />
      <path
         id="rect14750-6"
         style="display:inline;stroke-width:0.0725027;stroke-linecap:round"
         d="m 20.355154,280.69739 h 0.435719 v 0.76894 h -0.435719 c -0.149109,0 -0.26915,-0.14935 -0.26915,-0.33487 v -0.0992 c 0,-0.18552 0.120041,-0.33487 0.26915,-0.33487 z"
         sodipodi:nodetypes="sccssss" />
    </g>
  </g>
</svg>
