<?xml version="1.0" encoding="UTF-8" standalone="no"?>
<!-- Created with Inkscape (http://www.inkscape.org/) -->

<svg
   width="60mm"
   height="42mm"
   viewBox="0 0 60 42"
   version="1.1"
   id="svg8"
   inkscape:version="1.1.2 (0a00cf5339, 2022-02-04)"
   sodipodi:docname="Fox Armored Car.svg"
   xmlns:inkscape="http://www.inkscape.org/namespaces/inkscape"
   xmlns:sodipodi="http://sodipodi.sourceforge.net/DTD/sodipodi-0.dtd"
   xmlns="http://www.w3.org/2000/svg"
   xmlns:svg="http://www.w3.org/2000/svg"
   xmlns:rdf="http://www.w3.org/1999/02/22-rdf-syntax-ns#"
   xmlns:cc="http://creativecommons.org/ns#"
   xmlns:dc="http://purl.org/dc/elements/1.1/">
  <defs
     id="defs2" />
  <sodipodi:namedview
     id="base"
     pagecolor="#ffffff"
     bordercolor="#666666"
     borderopacity="1.0"
     inkscape:pageopacity="0.0"
     inkscape:pageshadow="2"
     inkscape:zoom="2.0000001"
     inkscape:cx="109.75"
     inkscape:cy="16"
     inkscape:document-units="mm"
     inkscape:current-layer="layer1"
     showgrid="false"
     inkscape:window-width="1920"
     inkscape:window-height="1043"
     inkscape:window-x="1920"
     inkscape:window-y="0"
     inkscape:window-maximized="1"
     inkscape:snap-global="false"
     showguides="false"
     inkscape:pagecheckerboard="0" />
  <metadata
     id="metadata5">
    <rdf:RDF>
      <cc:Work
         rdf:about="">
        <dc:format>image/svg+xml</dc:format>
        <dc:type
           rdf:resource="http://purl.org/dc/dcmitype/StillImage" />
      </cc:Work>
    </rdf:RDF>
  </metadata>
  <g
     inkscape:label="Capa 1"
     inkscape:groupmode="layer"
     id="layer1"
     transform="translate(0,-255)"
     style="display:inline">
    <path
       id="rect11075-2-6"
       style="display:inline;fill:#000000;stroke:none;stroke-width:0.359733;stroke-linecap:round;stop-color:#000000"
       d="m 24.665624,273.46675 c -0.193675,0 -0.36665,0.0855 -0.483691,0.22066 -0.227544,0.0394 -0.404659,0.22159 -0.436666,0.45165 h -2.716629 c -0.191356,0 -0.364776,0.0749 -0.492478,0.19689 h -2.978629 c -0.285516,0 -0.515214,0.22969 -0.515214,0.51521 0,0.28552 0.229698,0.51521 0.515214,0.51521 h 2.978629 c 0.127701,0.12198 0.301122,0.19689 0.492478,0.19689 h 2.716629 c 0.03046,0.21895 0.192373,0.39452 0.404109,0.44493 0.0781,0.10657 0.189211,0.18662 0.31781,0.22841 0.197839,-0.41123 0.63084,-0.68313 1.131714,-0.73535 0.921601,-0.0961 2.065479,-0.15537 3.718635,-0.17105 v -1.22421 c 0,-0.35415 -0.285085,-0.63924 -0.639235,-0.63924 z" />
    <path
       id="path16695"
       style="fill:#000000;stroke:none;stroke-width:0.264583px;stroke-linecap:butt;stroke-linejoin:miter;stroke-opacity:1"
       d="m 40.770777,262.21122 -3.85e-4,0.003 c -0.155459,0.014 -5.762999,2.31317 -5.762999,2.31317 l 0.611834,0.39556 5.105604,-1.96912 -0.163513,2.63155 c 0.287406,1.48084 0.223948,3.46683 -0.264826,4.26806 l -0.04695,0.75313 2.055548,-0.14435 -0.324418,-7.836 z"
       sodipodi:nodetypes="ccccccccccc" />
    <path
       id="rect11386-6"
       style="display:inline;fill:#000000;stroke:none;stroke-width:0.372192;stroke-linecap:round;stop-color:#000000"
       d="m 11.543007,283.30558 c -0.180951,0 -0.344808,0.0748 -0.465619,0.19668 H 9.6177525 c -0.270158,0 -0.487723,0.22993 -0.487723,0.51545 0,0.28552 0.217565,0.51545 0.487723,0.51545 h 1.4596355 c 0.12082,0.1219 0.284623,0.19669 0.465619,0.19669 h 0.205 l -0.516601,-1.07951 1.808283,-0.34476 z"
       sodipodi:nodetypes="scssscscccs" />
    <path
       id="path5536"
       style="fill:#000000;stroke:none;stroke-width:0.180905px;stroke-linecap:butt;stroke-linejoin:miter;stroke-opacity:1"
       d="m 15.170323,283.09793 -3.718302,0.68653 1.359778,2.64059 1.170947,0.19096 v -1.23992 c 0,-0.69333 0.568297,-1.25148 1.274211,-1.25148 h 0.598601 v -1.02668 z"
       sodipodi:nodetypes="ccccssccc" />
    <path
       id="path7952"
       style="fill:#000000;stroke:none;stroke-width:0.0878557;stroke-linecap:round;stop-color:#000000"
       d="m 42.811211,283.43809 v 2.2875 c 0,0.55003 -0.438922,0.99284 -0.984178,0.99284 h -0.198191 c 0.517625,0.31928 1.237457,0.62657 1.770538,0.61719 0.659723,-0.0424 4.036547,-1.32384 4.807096,-1.61907 h 0.04974 c 0.599489,0 1.082144,-0.48266 1.082144,-1.08215 v -0.11416 c 0,-0.5995 -0.482655,-1.08215 -1.082144,-1.08215 z" />
    <path
       id="rect3687"
       style="fill:#000000;stroke-width:0.0825221;stroke-linecap:round;stop-color:#000000"
       d="m 15.473921,284.44978 c -0.690404,0 -1.246423,0.49459 -1.246423,1.10874 v 1.56792 c 0,0.61413 0.556019,1.1084 1.246423,1.1084 H 38.04707 c 0.690407,0 1.246424,-0.49427 1.246424,-1.1084 v -1.56792 c 0,-0.61415 -0.556017,-1.10874 -1.246424,-1.10874 z m 1.946501,0.34019 h 7.990598 c 0.632404,0 1.146197,0.45738 1.146197,1.01992 v 0.97534 c 0,0.56255 -0.513795,1.01992 -1.146197,1.01992 h -7.990598 c -0.632403,0 -1.146574,-0.45737 -1.146574,-1.01992 v -0.97534 c 0,-0.56254 0.51417,-1.01992 1.146574,-1.01992 z m 10.689173,0 h 7.990599 c 0.632399,0 1.146197,0.45738 1.146197,1.01992 v 0.97534 c 0,0.56255 -0.513799,1.01992 -1.146197,1.01992 h -7.990599 c -0.632403,0 -1.146574,-0.45737 -1.146574,-1.01992 v -0.97534 c 0,-0.56254 0.51417,-1.01992 1.146574,-1.01992 z m -10.689173,0.26345 c -0.473132,0 -0.84891,0.3356 -0.84891,0.75647 v 0.97534 c 0,0.42088 0.375776,0.75514 0.84891,0.75514 h 7.990598 c 0.473133,0 0.85004,-0.33426 0.85004,-0.75514 v -0.97534 c 0,-0.42087 -0.376908,-0.75647 -0.85004,-0.75647 z m 10.689173,0 c -0.473131,0 -0.84891,0.3356 -0.84891,0.75647 v 0.97534 c 0,0.42088 0.375776,0.75514 0.84891,0.75514 h 7.990599 c 0.473129,0 0.850038,-0.33426 0.850038,-0.75514 v -0.97534 c 2e-6,-0.42087 -0.376911,-0.75647 -0.850038,-0.75647 z m 0.223436,0.30433 h 1.619447 v 0.35259 h -2.14507 l 0.02261,-0.0335 c 0.08349,-0.12282 0.211685,-0.21771 0.370008,-0.27283 z m 1.8199,0 h 1.95592 1.956297 v 0.35259 H 30.15293 Z m 4.11267,0 h 1.619822 l 0.122081,0.0432 c 0.171582,0.0606 0.288808,0.14719 0.371138,0.27316 l 0.02374,0.0362 h -2.136779 z m -16.604409,0.0151 h 1.619446 v 0.35259 h -2.145069 l 0.02261,-0.0335 c 0.08349,-0.12282 0.211685,-0.21736 0.370008,-0.27249 z m 1.819899,0 h 1.955919 1.956297 v 0.35259 h -3.912216 z m 4.112669,0 h 1.619823 l 0.12208,0.0432 c 0.171582,0.0606 0.288809,0.14719 0.371139,0.27317 l 0.02374,0.0362 H 23.59376 Z m 4.175217,0.48834 h 2.183502 v 0.18602 h -2.183502 z m 2.383954,0 h 3.912218 v 0.18602 h -3.912218 z m 4.11267,0 h 2.183878 v 0.18602 h -2.183878 z m -17.168465,0.0151 h 2.183502 v 0.18602 h -2.183502 z m 2.383955,0 h 3.912216 v 0.18602 h -3.912216 z m 4.112669,0 h 2.183878 v 0.18602 H 23.59376 Z m 4.175217,0.32176 h 2.183502 v 0.18635 h -2.183502 c -4.8e-5,-0.0318 0,-0.0587 0,-0.0945 z m 2.383954,0 h 3.912218 v 0.18635 h -3.912218 z m 4.11267,0 h 2.183878 v 0.0992 0.0872 h -2.183878 z m -17.168465,0.0151 h 2.183502 v 0.18636 h -2.183502 c -4.8e-5,-0.0317 0,-0.0587 0,-0.0945 z m 2.383955,0 h 3.912216 v 0.18636 h -3.912216 z m 4.112669,0 h 2.183878 v 0.0992 0.0872 H 23.59376 Z m 4.176347,0.32211 h 2.182372 v 0.18635 h -2.175213 c -0.0043,-0.0502 -0.0061,-0.11046 -0.0072,-0.18635 z m 2.382824,0 h 3.912218 v 0.18635 h -3.912218 z m 4.11267,0 h 2.183878 v 0.18635 h -2.183878 z m -17.167334,0.0151 h 2.182371 v 0.18635 h -2.175212 c -0.0042,-0.0502 -0.0062,-0.11047 -0.0072,-0.18635 z m 2.382824,0 h 3.912216 v 0.18635 h -3.912216 z m 4.112669,0 h 2.183878 v 0.18635 H 23.59376 Z m 10.471389,0.32076 v 0.35092 l -1.923518,0.002 c -0.824178,6.9e-4 -1.46773,6.9e-4 -1.9887,3.4e-4 v -0.35259 z m -4.11267,3.3e-4 v 0.35261 c -1.208015,-0.002 -1.615362,-0.006 -1.662778,-0.0178 v 3.3e-4 c -0.143028,-0.0342 -0.21286,-0.0679 -0.322156,-0.15585 -0.08424,-0.0678 -0.132616,-0.10862 -0.160512,-0.17898 z m 6.458567,0 -0.02148,0.0328 c -0.07074,0.10844 -0.236655,0.23126 -0.380183,0.28121 l -0.102487,0.0358 -1.641299,0.002 v -0.35092 z m -13.017739,0.0148 v 0.35092 l -1.923516,0.002 c -0.824178,6.9e-4 -1.467731,6.9e-4 -1.9887,3.5e-4 v -0.35261 z m 2.345899,3.5e-4 -0.02148,0.0328 c -0.07074,0.10844 -0.236655,0.23126 -0.380182,0.2812 l -0.102487,0.0358 -1.6413,0.002 v -0.35092 z m -8.604014,3.4e-4 h 2.145446 v 0.35226 c -1.208015,-0.002 -1.615363,-0.006 -1.662777,-0.0174 -0.143029,-0.0342 -0.212861,-0.0679 -0.322156,-0.15585 -0.08424,-0.0678 -0.132618,-0.10862 -0.160513,-0.17898 z" />
    <rect
       style="fill:#000000;stroke-width:0.0874961;stroke-linecap:round;stop-color:#000000"
       id="rect962"
       width="1.9118605"
       height="9.9234066"
       x="40.681255"
       y="276.55679"
       ry="0.95593023" />
    <path
       id="rect1067"
       style="fill:#000000;stroke-width:0.0730243;stroke-linecap:round;stop-color:#000000"
       d="m 42.914037,280.75798 v 1.73625 h 7.087807 c 0.480909,0 0.868126,-0.38721 0.868126,-0.86812 0,-0.48091 -0.387217,-0.86813 -0.868126,-0.86813 z"
       sodipodi:nodetypes="ccsssc" />
    <path
       id="path8320"
       style="color:#000000;fill:#000000;stroke-width:0.17487px;-inkscape-stroke:none"
       d="m 43.741446,270.68276 v 0.001 c -0.01357,0 -0.03678,7.6e-4 -0.0615,10e-4 v 5.17849 h 2.535762 a 0.1322915,0.1322915 0 0 1 0.132807,0.13281 0.1322915,0.1322915 0 0 1 -0.132807,0.13281 h -2.535762 v 1.8495 h 2.535762 a 0.1322915,0.1322915 0 0 1 0.132807,0.13281 0.1322915,0.1322915 0 0 1 -0.132807,0.13281 h -2.535762 v 1.31774 c 2.081896,0.19748 5.010547,0.0367 5.010547,0.0367 0.131017,-2.06431 -0.441761,-6.16851 -0.69505,-6.50297 -0.358714,-0.45114 -3.487917,-2.33161 -4.254002,-2.41277 z m -0.232029,0.0109 c -1.555774,0.0853 -9.873112,0.73397 -10.436053,1.20664 -0.436181,0.27872 -2.048613,2.56808 -1.918748,2.90267 0.342583,0.28375 11.035848,0.98073 11.209652,1.07487 0.354365,0.11256 0.469543,0.32627 0.498679,0.72192 0,0 0.0743,2.42407 0.178282,2.88612 0.148502,0.0225 0.305567,0.042 0.468188,0.0594 z" />
    <path
       id="rect3429"
       style="stroke-width:0.0874961;stroke-linecap:round;stop-color:#000000"
       d="m 30.745856,275.7083 c -0.133207,-2.1e-4 -0.263633,2.6e-4 -0.391192,5.3e-4 -2.040903,0.004 -3.372236,0.0661 -4.418851,0.17518 -0.686683,0.0716 -1.246433,0.55602 -1.246433,1.24643 v 0.15865 h 4.807974 c 0.339928,0 0.619082,0.27915 0.619082,0.61908 v 4.17753 c 0,0.33993 -0.279154,0.6196 -0.619082,0.6196 h -4.712375 c 0.187664,0.44111 0.631732,0.74111 1.150834,0.77153 l 13.096359,0.76739 c 0.689221,0.0404 1.245918,-0.55552 1.245918,-1.24592 v -0.79116 c -0.07966,0.22299 -0.291566,0.38189 -0.542602,0.38189 H 31.34582 c -0.319601,0 -0.57671,-0.25711 -0.57671,-0.57671 v -3.9543 c 0,-0.31961 0.257109,-0.57671 0.57671,-0.57671 h 8.389668 c 0.251036,0 0.462941,0.15941 0.542602,0.38241 v -0.73329 c 0,-0.69041 -0.555871,-1.22419 -1.245918,-1.24643 -3.642968,-0.11736 -6.288225,-0.17259 -8.286316,-0.1757 z m -6.056476,1.88929 v 4.63331 c 0,0.0564 0.0042,0.11142 0.01138,0.16536 h 4.796607 c 0.175162,0 0.312642,-0.13541 0.312642,-0.31058 v -4.17752 c 0,-0.17516 -0.13748,-0.31057 -0.312642,-0.31057 z" />
    <path
       id="path1183-6-2"
       style="display:inline;fill:#000000;stroke-width:0.456241;stroke-linecap:round;stop-color:#000000"
       d="m 39.530872,277.90944 a 1.2131213,1.2131213 0 0 1 0.204974,0.67484 1.2131213,1.2131213 0 0 1 -1.213265,1.21288 1.2131213,1.2131213 0 0 1 -1.177847,-0.92464 1.2882455,1.2882455 0 0 0 1.28674,1.24718 1.2882455,1.2882455 0 0 0 1.288246,-1.28825 1.2882455,1.2882455 0 0 0 -0.388848,-0.92201 z" />
    <circle
       style="fill:#000000;stroke-width:0.369671;stroke-linecap:round;stop-color:#000000"
       id="path1183"
       cx="38.51683"
       cy="278.56897"
       r="1.0438067" />
    <path
       id="rect1287"
       style="fill:#000000;stroke-width:0.369671;stroke-linecap:round;stop-color:#000000"
       d="m 38.486786,280.1717 c -0.216646,0 -0.400511,0.1345 -0.473627,0.32479 h -6.483812 c -0.188865,0 -0.340619,0.15213 -0.340619,0.34099 0,0.18887 0.151755,0.34063 0.340619,0.34063 h 6.449902 v 0.11454 h -6.449902 c -0.188865,0 -0.340619,0.15213 -0.340619,0.34099 0,0.18887 0.151755,0.34099 0.340619,0.34099 h 6.483812 c 0.07312,0.19029 0.25698,0.3248 0.473627,0.3248 0.281203,0 0.507537,-0.22633 0.507537,-0.50754 v -1.11266 c 0,-0.2812 -0.226334,-0.50753 -0.507537,-0.50753 z m 1.152223,0.0282 c -0.275081,0.007 -0.494349,0.23073 -0.494349,0.50755 v 1.11228 c 0,0.2812 0.226335,0.50754 0.507537,0.50754 0.281205,0 0.507537,-0.22634 0.507537,-0.50754 v -1.11228 c 0,-0.28121 -0.226332,-0.50755 -0.507537,-0.50755 -0.0044,0 -0.0088,-1.1e-4 -0.01319,0 z" />
    <rect
       style="fill:#000000;stroke-width:0.377149;stroke-linecap:round;stop-color:#000000"
       id="rect1418"
       width="7.4009051"
       height="0.68181932"
       x="31.188726"
       y="277.77628"
       ry="0.34090966" />
    <rect
       style="fill:#000000;stroke-width:0.369671;stroke-linecap:round;stop-color:#000000"
       id="rect1820"
       width="5.9799285"
       height="1.1959857"
       x="31.188726"
       y="278.87973"
       ry="0.34090906" />
    <path
       id="path3425"
       style="fill:#000000;stroke:none;stroke-width:0.187657px;stroke-linecap:butt;stroke-linejoin:miter;stroke-opacity:1"
       d="m 23.440359,278.03684 c -0.168247,1.2e-4 -0.326661,0.0193 -0.417029,0.0703 -0.162362,0.11315 -2.180905,2.01216 -2.364197,2.49855 -0.114006,0.61723 -0.212376,3.01634 0,3.30471 0.155538,0.0738 2.276093,0.14244 3.106787,0.0713 l 2.431376,0.0103 c -0.974498,-0.11034 -1.488469,-0.34493 -1.753897,-0.65629 h -2.15129 c -0.313095,0 -0.567924,-0.25484 -0.567924,-0.56793 v -1.3286 c 0,-0.31309 0.254829,-0.56792 0.567924,-0.56792 h 1.892906 c -0.0069,-1.36511 -0.04252,-2.68385 -0.09095,-2.73523 -0.06558,-0.0466 -0.373295,-0.0994 -0.653708,-0.0992 z m -1.14825,3.04115 c -0.201997,0 -0.361218,0.15923 -0.361218,0.36122 v 1.3286 c 0,0.202 0.159221,0.36122 0.361218,0.36122 h 2.014863 c -0.08705,-0.17458 -0.12102,-0.36651 -0.130222,-0.56947 0.0078,-0.44729 0.01029,-0.96331 0.0088,-1.48157 z" />
    <path
       id="path4004"
       style="fill:#000000;stroke:none;stroke-width:0.187657px;stroke-linecap:butt;stroke-linejoin:miter;stroke-opacity:1"
       d="m 19.342299,281.10312 c -0.189703,3.3e-4 -0.376686,0.007 -0.534784,0.0196 0.004,0.10747 -0.03292,0.21603 -0.110879,0.29842 l -1.862473,1.96873 c -0.08305,0.0878 -0.194667,0.12622 -0.302687,0.11568 -0.0045,0.16953 0.0083,0.34058 0.05134,0.37453 0.07975,0.089 3.581651,0.0626 3.717105,0 l 0.103034,-0.0475 c -0.06773,-0.31197 -0.0794,-2.47727 0,-2.63979 -0.02026,-0.0508 -0.549216,-0.0906 -1.060655,-0.0897 z" />
    <rect
       style="fill:#000000;stroke:none;stroke-width:0.284139;stroke-linecap:round;stop-color:#000000"
       id="rect5150"
       width="3.1120892"
       height="0.69829309"
       x="-182.98804"
       y="206.48134"
       ry="0.27754459"
       transform="matrix(0.68730059,-0.72637312,0.68730059,0.72637312,0,0)" />
    <rect
       style="fill:#000000;stroke:none;stroke-width:0.284139;stroke-linecap:round;stop-color:#000000"
       id="rect5254"
       width="2.3350303"
       height="0.87322664"
       x="-182.61488"
       y="205.47182"
       ry="0.27754459"
       transform="matrix(0.68730059,-0.72637312,0.68730059,0.72637312,0,0)" />
    <path
       id="path6116-3"
       style="display:inline;fill:#000000;stroke:none;stroke-width:0.187657px;stroke-linecap:butt;stroke-linejoin:miter;stroke-opacity:1"
       d="m 21.031341,275.89276 c -0.0456,-2.7e-4 -0.08966,4.4e-4 -0.131913,0.002 -1.704531,0.0327 -4.783367,1.27962 -4.992937,5.39198 l 0.279619,-0.0592 0.661706,-0.69857 c -0.164663,-0.004 -0.226141,-0.006 -0.226141,-0.006 0.05748,-2.47452 2.477298,-4.06992 3.828535,-4.10146 0.01064,-2.5e-4 0.02123,-1.5e-4 0.03173,0 0.04335,6.4e-4 0.08542,0.005 0.126208,0.0124 0.05355,0.1189 -0.004,3.3875 -0.17489,3.49257 -0.211554,0.1301 -0.186269,0.47387 -0.241366,0.61191 -0.03521,0.0408 -1.289058,0.0276 -2.301353,0.0102 0.08081,0.093 0.112462,0.18405 0.07819,0.29725 l 0.14546,-0.15863 c 0.05972,-0.0843 0.278348,-0.0983 0.441266,0.0362 l 0.116226,0.1266 c 0.02047,0.0223 0.03652,0.0474 0.05027,0.0735 l 1.67637,0.0554 c 0,0 0.02682,-0.5472 0.06667,-0.69141 0.01873,-0.0594 0.157854,-0.21857 0.381748,-0.45562 -0.004,-0.003 0.0044,-0.0182 0.0015,-0.021 -0.03941,-0.0726 0.137448,-3.32427 0.202699,-3.42098 0.620889,0.0136 1.978725,0.4501 2.409185,0.9854 l 0.0064,0.39526 c 0.0706,-10e-4 0.144794,2.5e-4 0.224254,0.002 0.04964,-0.29591 0.09496,-0.80784 0.03518,-0.89903 -0.09616,-0.18162 -1.767415,-0.97544 -2.69464,-0.98088 z"
       sodipodi:nodetypes="scccccssccccccccccccccccccss" />
    <path
       style="fill:#000000;stroke:none;stroke-width:0.187657px;stroke-linecap:butt;stroke-linejoin:miter;stroke-opacity:1"
       d="m 16.002628,282.54622 -0.398908,-0.46233 c -0.06728,-0.1897 -0.0359,-0.40854 0.134967,-0.5756 -0.05246,-0.075 -1.056382,-0.0342 -1.185384,0.10931 -0.159481,0.14987 -0.211548,0.83155 -0.144103,1.31794 l 0.881685,-0.14226 0.603532,-0.0465 z"
       id="path14949"
       sodipodi:nodetypes="cccccccc" />
    <path
       id="rect16317"
       style="stroke-width:0.507;stroke-linecap:round;stop-color:#000000"
       d="m 39.146602,263.73411 c 1.438344,-0.0357 1.730762,6.31261 0.322743,6.41227 -0.257221,0.0129 -0.523428,-0.18587 -0.487667,-0.44093 0.124592,-0.88861 -0.113514,-5.125 -0.276005,-5.48367 -0.106287,-0.23459 0.183708,-0.47472 0.440929,-0.48767 z"
       sodipodi:nodetypes="ccssc" />
    <path
       id="rect1756"
       style="stroke-width:0.330833;stroke-linecap:round;stop-color:#000000"
       d="m 34.96634,264.42496 0.598428,0.0253 c 0.167907,0.007 0.297888,0.14802 0.29026,0.3159 l -0.06835,1.50446 c -0.0076,0.16788 -0.147995,0.29736 -0.315902,0.29026 l -0.598428,-0.0253 c -0.167907,-0.007 -0.297364,-0.0365 -0.290261,-0.20442 l 0.06836,-1.61593 c 0.0071,-0.16791 0.147996,-0.29736 0.315903,-0.29026 z"
       sodipodi:nodetypes="sssssssss" />
  </g>
</svg>
