<?xml version="1.0" encoding="UTF-8" standalone="no"?>
<!-- Created with Inkscape (http://www.inkscape.org/) -->

<svg
   width="60mm"
   height="42mm"
   viewBox="0 0 60 42"
   version="1.1"
   id="svg8"
   inkscape:version="1.1.2 (0a00cf5339, 2022-02-04)"
   sodipodi:docname="Fox Armored Car.svg"
   xmlns:inkscape="http://www.inkscape.org/namespaces/inkscape"
   xmlns:sodipodi="http://sodipodi.sourceforge.net/DTD/sodipodi-0.dtd"
   xmlns="http://www.w3.org/2000/svg"
   xmlns:svg="http://www.w3.org/2000/svg"
   xmlns:rdf="http://www.w3.org/1999/02/22-rdf-syntax-ns#"
   xmlns:cc="http://creativecommons.org/ns#"
   xmlns:dc="http://purl.org/dc/elements/1.1/">
  <defs
     id="defs2" />
  <sodipodi:namedview
     id="base"
     pagecolor="#ffffff"
     bordercolor="#666666"
     borderopacity="1.0"
     inkscape:pageopacity="0.0"
     inkscape:pageshadow="2"
     inkscape:zoom="8.0000002"
     inkscape:cx="164.1875"
     inkscape:cy="113.6875"
     inkscape:document-units="mm"
     inkscape:current-layer="layer1"
     showgrid="false"
     inkscape:window-width="1846"
     inkscape:window-height="1016"
     inkscape:window-x="74"
     inkscape:window-y="27"
     inkscape:window-maximized="1"
     inkscape:snap-global="false"
     showguides="false"
     inkscape:pagecheckerboard="0" />
  <metadata
     id="metadata5">
    <rdf:RDF>
      <cc:Work
         rdf:about="">
        <dc:format>image/svg+xml</dc:format>
        <dc:type
           rdf:resource="http://purl.org/dc/dcmitype/StillImage" />
        <dc:title />
      </cc:Work>
    </rdf:RDF>
  </metadata>
  <g
     inkscape:label="Capa 1"
     inkscape:groupmode="layer"
     id="layer1"
     transform="translate(0,-255)"
     style="display:inline">
    <path
       id="rect11075-2-6"
       style="display:inline;fill:#000000;stroke:none;stroke-width:0.359733;stroke-linecap:round;stop-color:#000000"
       d="m 27.802971,273.46675 c -0.193675,0 -0.36665,0.0855 -0.483691,0.22066 -0.227544,0.0394 -0.404659,0.22159 -0.436666,0.45165 h -2.71663 c -0.191355,0 -0.364776,0.0749 -0.492477,0.19689 h -2.978629 c -0.285516,0 -0.515214,0.22969 -0.515214,0.51521 0,0.28552 0.229698,0.51521 0.515214,0.51521 h 2.978629 c 0.127701,0.12198 0.301122,0.19689 0.492477,0.19689 h 2.71663 c 0.03046,0.21895 0.192373,0.39452 0.404109,0.44493 0.0781,0.10657 0.189211,0.18662 0.31781,0.22841 0.197839,-0.41123 0.630839,-0.68313 1.131714,-0.73535 0.921601,-0.0961 2.065479,-0.15537 3.718635,-0.17105 v -1.22421 c 0,-0.35415 -0.285085,-0.63924 -0.639235,-0.63924 z" />
    <path
       id="path16695"
       style="fill:#000000;stroke:none;stroke-width:0.264583px;stroke-linecap:butt;stroke-linejoin:miter;stroke-opacity:1"
       d="m 43.908124,262.21122 -3.86e-4,0.003 c -0.155459,0.014 -5.762999,2.31317 -5.762999,2.31317 l 0.611835,0.39556 5.105604,-1.96912 -0.163513,2.63155 c 0.287406,1.48084 0.223948,3.46683 -0.264827,4.26806 l -0.04695,0.75313 2.055548,-0.14435 -0.324418,-7.836 z"
       sodipodi:nodetypes="ccccccccccc" />
    <path
       id="rect11386-6"
       style="display:inline;fill:#000000;stroke:none;stroke-width:0.372192;stroke-linecap:round;stop-color:#000000"
       d="m 14.680353,283.30558 c -0.180951,0 -0.344808,0.0748 -0.465619,0.19668 h -2.994788 c -0.270158,0 -0.487723,0.22993 -0.487723,0.51545 0,0.28552 0.217565,0.51545 0.487723,0.51545 h 2.994788 c 0.12082,0.1219 0.284623,0.19669 0.465619,0.19669 h 0.205 l -0.516601,-1.07951 1.808283,-0.34476 z"
       sodipodi:nodetypes="scssscscccs" />
    <path
       id="path5536"
       style="fill:#000000;stroke:none;stroke-width:0.180905px;stroke-linecap:butt;stroke-linejoin:miter;stroke-opacity:1"
       d="m 18.307669,283.09793 -3.718302,0.68653 1.359778,2.64059 1.170947,0.19096 v -1.23992 c 0,-0.69333 0.568297,-1.25148 1.274212,-1.25148 h 0.598601 v -1.02668 z"
       sodipodi:nodetypes="ccccssccc" />
    <path
       id="path7952"
       style="fill:#000000;stroke:none;stroke-width:0.0878557;stroke-linecap:round;stop-color:#000000"
       d="m 45.948557,283.43809 v 2.2875 c 0,0.55003 -0.438922,0.99284 -0.984177,0.99284 h -0.198191 c 0.517625,0.31928 1.237457,0.62657 1.770538,0.61719 0.659722,-0.0424 4.036547,-1.32384 4.807095,-1.61907 h 0.04974 c 0.599489,0 1.082144,-0.48266 1.082144,-1.08215 v -0.11416 c 0,-0.5995 -0.482655,-1.08215 -1.082144,-1.08215 z" />
    <path
       id="rect3687"
       style="fill:#000000;stroke-width:0.0825221;stroke-linecap:round;stop-color:#000000"
       d="m 18.611268,284.44978 c -0.690405,0 -1.246423,0.49459 -1.246423,1.10874 v 1.56792 c 0,0.61413 0.556018,1.1084 1.246423,1.1084 h 22.573149 c 0.690407,0 1.246424,-0.49427 1.246424,-1.1084 v -1.56792 c 0,-0.61415 -0.556017,-1.10874 -1.246424,-1.10874 z m 1.946501,0.34019 h 7.990598 c 0.632404,0 1.146197,0.45738 1.146197,1.01992 v 0.97534 c 0,0.56255 -0.513795,1.01992 -1.146197,1.01992 h -7.990598 c -0.632403,0 -1.146574,-0.45737 -1.146574,-1.01992 v -0.97534 c 0,-0.56254 0.51417,-1.01992 1.146574,-1.01992 z m 10.689173,0 h 7.990599 c 0.632399,0 1.146196,0.45738 1.146196,1.01992 v 0.97534 c 0,0.56255 -0.513799,1.01992 -1.146196,1.01992 h -7.990599 c -0.632403,0 -1.146574,-0.45737 -1.146574,-1.01992 v -0.97534 c 0,-0.56254 0.51417,-1.01992 1.146574,-1.01992 z m -10.689173,0.26345 c -0.473132,0 -0.84891,0.3356 -0.84891,0.75647 v 0.97534 c 0,0.42088 0.375776,0.75514 0.84891,0.75514 h 7.990598 c 0.473133,0 0.85004,-0.33426 0.85004,-0.75514 v -0.97534 c 0,-0.42087 -0.376908,-0.75647 -0.85004,-0.75647 z m 10.689173,0 c -0.473132,0 -0.84891,0.3356 -0.84891,0.75647 v 0.97534 c 0,0.42088 0.375776,0.75514 0.84891,0.75514 h 7.990599 c 0.473129,0 0.850038,-0.33426 0.850038,-0.75514 v -0.97534 c 2e-6,-0.42087 -0.376911,-0.75647 -0.850038,-0.75647 z m 0.223436,0.30433 h 1.619447 v 0.35259 h -2.14507 l 0.02261,-0.0335 c 0.08349,-0.12282 0.211685,-0.21771 0.370008,-0.27283 z m 1.819899,0 h 1.95592 1.956298 v 0.35259 h -3.912218 z m 4.11267,0 h 1.619822 l 0.122081,0.0432 c 0.171582,0.0606 0.288808,0.14719 0.371138,0.27316 l 0.02374,0.0362 h -2.136779 z m -16.604409,0.0151 h 1.619446 v 0.35259 h -2.145069 l 0.02261,-0.0335 c 0.08349,-0.12282 0.211685,-0.21736 0.370008,-0.27249 z m 1.819899,0 h 1.955919 1.956297 v 0.35259 h -3.912216 z m 4.112669,0 h 1.619823 l 0.12208,0.0432 c 0.171582,0.0606 0.288809,0.14719 0.371139,0.27317 l 0.02374,0.0362 h -2.136782 z m 4.175217,0.48834 h 2.183502 v 0.18602 h -2.183502 z m 2.383954,0 h 3.912218 v 0.18602 h -3.912218 z m 4.11267,0 h 2.183878 v 0.18602 h -2.183878 z m -17.168465,0.0151 h 2.183502 v 0.18602 h -2.183502 z m 2.383955,0 h 3.912216 v 0.18602 h -3.912216 z m 4.112669,0 h 2.183878 v 0.18602 h -2.183878 z m 4.175217,0.32176 h 2.183502 v 0.18635 h -2.183502 c -4.8e-5,-0.0318 0,-0.0587 0,-0.0945 z m 2.383954,0 h 3.912218 v 0.18635 h -3.912218 z m 4.11267,0 h 2.183878 v 0.0992 0.0872 h -2.183878 z m -17.168465,0.0151 h 2.183502 v 0.18636 h -2.183502 c -4.8e-5,-0.0317 0,-0.0587 0,-0.0945 z m 2.383955,0 h 3.912216 v 0.18636 h -3.912216 z m 4.112669,0 h 2.183878 v 0.0992 0.0872 h -2.183878 z m 4.176347,0.32211 h 2.182372 v 0.18635 h -2.175213 c -0.0043,-0.0502 -0.0061,-0.11046 -0.0072,-0.18635 z m 2.382824,0 h 3.912218 v 0.18635 h -3.912218 z m 4.11267,0 h 2.183878 v 0.18635 h -2.183878 z m -17.167334,0.0151 h 2.182371 v 0.18635 h -2.175212 c -0.0042,-0.0502 -0.0062,-0.11047 -0.0072,-0.18635 z m 2.382824,0 h 3.912216 v 0.18635 h -3.912216 z m 4.112669,0 h 2.183878 v 0.18635 h -2.183878 z m 10.471389,0.32076 v 0.35092 l -1.923518,0.002 c -0.824178,6.9e-4 -1.46773,6.9e-4 -1.9887,3.4e-4 v -0.35259 z m -4.11267,3.3e-4 v 0.35261 c -1.208015,-0.002 -1.615362,-0.006 -1.662778,-0.0178 v 3.3e-4 c -0.143028,-0.0342 -0.21286,-0.0679 -0.322156,-0.15585 -0.08424,-0.0678 -0.132616,-0.10862 -0.160512,-0.17898 z m 6.458567,0 -0.02148,0.0328 c -0.07074,0.10844 -0.236655,0.23126 -0.380183,0.28121 l -0.102487,0.0358 -1.641299,0.002 v -0.35092 z m -13.017739,0.0148 v 0.35092 l -1.923516,0.002 c -0.824178,6.9e-4 -1.467731,6.9e-4 -1.9887,3.5e-4 v -0.35261 z m 2.345899,3.5e-4 -0.02148,0.0328 c -0.07074,0.10844 -0.236655,0.23126 -0.380182,0.2812 l -0.102487,0.0358 -1.6413,0.002 v -0.35092 z m -8.604014,3.4e-4 h 2.145446 v 0.35226 c -1.208015,-0.002 -1.615363,-0.006 -1.662777,-0.0174 -0.143029,-0.0342 -0.212861,-0.0679 -0.322156,-0.15585 -0.08424,-0.0678 -0.132618,-0.10862 -0.160513,-0.17898 z" />
    <rect
       style="fill:#000000;stroke-width:0.0874961;stroke-linecap:round;stop-color:#000000"
       id="rect962"
       width="1.9118605"
       height="9.9234066"
       x="43.818604"
       y="276.55679"
       ry="0.95593023" />
    <path
       id="rect1067"
       style="fill:#000000;stroke-width:0.0730243;stroke-linecap:round;stop-color:#000000"
       d="m 46.051384,280.75798 v 1.73625 h 7.087807 c 0.480909,0 0.868126,-0.38721 0.868126,-0.86812 0,-0.48091 -0.387217,-0.86813 -0.868126,-0.86813 z"
       sodipodi:nodetypes="ccsssc" />
    <path
       id="path8320"
       style="color:#000000;fill:#000000;stroke-width:0.660926px;-inkscape-stroke:none"
       d="M 177.17969 59.273438 L 177.17969 59.277344 C 177.12836 59.277344 177.0407 59.28023 176.94727 59.28125 L 176.94727 78.853516 L 186.53125 78.853516 A 0.49999936 0.49999936 0 0 1 187.0332 79.355469 A 0.49999936 0.49999936 0 0 1 186.53125 79.857422 L 176.94727 79.857422 L 176.94727 86.847656 L 186.53125 86.847656 A 0.49999937 0.49999937 0 0 1 187.0332 87.349609 A 0.49999937 0.49999937 0 0 1 186.53125 87.851562 L 176.94727 87.851562 L 176.94727 92.832031 C 184.81585 93.578412 195.88477 92.970703 195.88477 92.970703 C 196.37995 85.168624 194.21512 69.656679 193.25781 68.392578 C 191.90204 66.687482 180.07513 59.580183 177.17969 59.273438 z M 176.30273 59.314453 C 170.42264 59.636847 138.98703 62.088531 136.85938 63.875 C 135.21082 64.92843 129.11659 73.581111 129.60742 74.845703 C 130.90222 75.918144 171.31771 78.552398 171.97461 78.908203 C 173.31394 79.333627 173.74926 80.141349 173.85938 81.636719 C 173.85938 81.636719 174.14021 90.798591 174.5332 92.544922 C 175.09447 92.629961 175.6881 92.703767 176.30273 92.769531 L 176.30273 59.314453 z "
       transform="matrix(0.26458333,0,0,0.26458333,0,255)" />
    <path
       id="rect3429"
       style="stroke-width:0.330694;stroke-linecap:round;stop-color:#000000"
       d="M 128.0625 78.267578 C 127.55904 78.266793 127.06609 78.268579 126.58398 78.269531 C 118.87033 78.284649 113.83852 78.51937 109.88281 78.931641 C 107.28747 79.202255 105.17188 81.033155 105.17188 83.642578 L 105.17188 84.242188 L 123.34375 84.242188 C 124.62852 84.242188 125.68359 85.297256 125.68359 86.582031 L 125.68359 102.37109 C 125.68359 103.65587 124.62852 104.71289 123.34375 104.71289 L 105.5332 104.71289 C 106.24248 106.38009 107.92085 107.51393 109.88281 107.62891 L 159.38086 110.5293 C 161.98579 110.68199 164.08984 108.4297 164.08984 105.82031 L 164.08984 102.83008 C 163.78877 103.67287 162.98786 104.27344 162.03906 104.27344 L 130.33008 104.27344 C 129.12214 104.27344 128.15039 103.30169 128.15039 102.09375 L 128.15039 87.148438 C 128.15039 85.940463 129.12214 84.96875 130.33008 84.96875 L 162.03906 84.96875 C 162.98786 84.96875 163.78876 85.571228 164.08984 86.414062 L 164.08984 83.642578 C 164.08984 81.033155 161.98891 79.015697 159.38086 78.931641 C 145.61216 78.488089 135.61434 78.279361 128.0625 78.267578 z M 105.17188 85.408203 L 105.17188 102.91992 C 105.17188 103.13327 105.18756 103.34104 105.21484 103.54492 L 123.34375 103.54492 C 124.00578 103.54492 124.52539 103.03312 124.52539 102.37109 L 124.52539 86.582031 C 124.52539 85.920009 124.00578 85.408203 123.34375 85.408203 L 105.17188 85.408203 z "
       transform="matrix(0.26458333,0,0,0.26458333,0,255)" />
    <path
       id="path1183-6-2"
       style="display:inline;fill:#000000;stroke-width:0.456241;stroke-linecap:round;stop-color:#000000"
       d="m 42.668219,277.90944 a 1.2131213,1.2131213 0 0 1 0.204974,0.67484 1.2131213,1.2131213 0 0 1 -1.213265,1.21288 1.2131213,1.2131213 0 0 1 -1.177848,-0.92464 1.2882455,1.2882455 0 0 0 1.28674,1.24718 1.2882455,1.2882455 0 0 0 1.288246,-1.28825 1.2882455,1.2882455 0 0 0 -0.388847,-0.92201 z" />
    <circle
       style="fill:#000000;stroke-width:0.369671;stroke-linecap:round;stop-color:#000000"
       id="path1183"
       cx="41.654179"
       cy="278.56897"
       r="1.0438067" />
    <path
       id="rect1287"
       style="fill:#000000;stroke-width:0.369671;stroke-linecap:round;stop-color:#000000"
       d="m 41.624132,280.1717 c -0.216646,0 -0.400511,0.1345 -0.473626,0.32479 h -6.483813 c -0.188864,0 -0.340619,0.15213 -0.340619,0.34099 0,0.18887 0.151755,0.34063 0.340619,0.34063 h 6.449902 v 0.11454 h -6.449902 c -0.188864,0 -0.340619,0.15213 -0.340619,0.34099 0,0.18887 0.151755,0.34099 0.340619,0.34099 h 6.483813 c 0.07312,0.19029 0.25698,0.3248 0.473626,0.3248 0.281203,0 0.507537,-0.22633 0.507537,-0.50754 v -1.11266 c 0,-0.2812 -0.226334,-0.50753 -0.507537,-0.50753 z m 1.152224,0.0282 c -0.275082,0.007 -0.494349,0.23073 -0.494349,0.50755 v 1.11228 c 0,0.2812 0.226334,0.50754 0.507537,0.50754 0.281205,0 0.507537,-0.22634 0.507537,-0.50754 v -1.11228 c 0,-0.28121 -0.226332,-0.50755 -0.507537,-0.50755 -0.0044,0 -0.0088,-1.1e-4 -0.01319,0 z" />
    <rect
       style="fill:#000000;stroke-width:0.377149;stroke-linecap:round;stop-color:#000000"
       id="rect1418"
       width="7.4009051"
       height="0.68181932"
       x="34.326073"
       y="277.77628"
       ry="0.34090966" />
    <rect
       style="fill:#000000;stroke-width:0.369671;stroke-linecap:round;stop-color:#000000"
       id="rect1820"
       width="5.9799285"
       height="1.1959857"
       x="34.326073"
       y="278.87973"
       ry="0.34090906" />
    <path
       id="path3425"
       style="fill:#000000;stroke:none;stroke-width:0.709255px;stroke-linecap:butt;stroke-linejoin:miter;stroke-opacity:1"
       d="M 100.45117 87.068359 C 99.815278 87.068813 99.216548 87.141228 98.875 87.333984 C 98.261348 87.761638 90.632207 94.939019 89.939453 96.777344 C 89.508564 99.110182 89.136772 108.17768 89.939453 109.26758 C 90.52731 109.54651 98.542006 109.80595 101.68164 109.53711 L 110.87109 109.57617 C 107.18795 109.15915 105.24538 108.2725 104.24219 107.0957 L 96.111328 107.0957 C 94.927977 107.0957 93.964844 106.13255 93.964844 104.94922 L 93.964844 99.927734 C 93.964844 98.744402 94.927977 97.78125 96.111328 97.78125 L 103.26562 97.78125 C 103.23948 92.621786 103.10493 87.637568 102.92188 87.443359 C 102.67401 87.267233 101.511 87.067603 100.45117 87.068359 z M 96.111328 98.5625 C 95.347875 98.5625 94.746094 99.164308 94.746094 99.927734 L 94.746094 104.94922 C 94.746094 105.71268 95.347875 106.31445 96.111328 106.31445 L 103.72656 106.31445 C 103.39755 105.65462 103.26916 104.9292 103.23438 104.16211 C 103.26395 102.47159 103.27329 100.52125 103.26758 98.5625 L 96.111328 98.5625 z "
       transform="matrix(0.26458333,0,0,0.26458333,0,255)" />
    <path
       id="path4004"
       style="fill:#000000;stroke:none;stroke-width:0.187657px;stroke-linecap:butt;stroke-linejoin:miter;stroke-opacity:1"
       d="m 22.479646,281.10312 c -0.189703,3.3e-4 -0.376686,0.007 -0.534784,0.0196 0.004,0.10747 -0.03292,0.21603 -0.110879,0.29842 l -1.862474,1.96873 c -0.08305,0.0878 -0.194666,0.12622 -0.302687,0.11568 -0.0045,0.16953 0.0083,0.34058 0.05134,0.37453 0.07975,0.089 3.581651,0.0626 3.717105,0 l 0.103035,-0.0475 c -0.06773,-0.31197 -0.0794,-2.47727 0,-2.63979 -0.02026,-0.0508 -0.549217,-0.0906 -1.060655,-0.0897 z" />
    <rect
       style="fill:#000000;stroke:none;stroke-width:0.284139;stroke-linecap:round;stop-color:#000000"
       id="rect5150"
       width="3.1120892"
       height="0.69829309"
       x="-180.70567"
       y="208.7637"
       ry="0.27754459"
       transform="matrix(0.68730059,-0.72637312,0.68730059,0.72637312,0,0)" />
    <rect
       style="fill:#000000;stroke:none;stroke-width:0.284139;stroke-linecap:round;stop-color:#000000"
       id="rect5254"
       width="2.3350303"
       height="0.87322664"
       x="-180.33252"
       y="207.75418"
       ry="0.27754459"
       transform="matrix(0.68730059,-0.72637312,0.68730059,0.72637312,0,0)" />
    <path
       id="path6116-3"
       style="display:inline;fill:#000000;stroke:none;stroke-width:0.187657px;stroke-linecap:butt;stroke-linejoin:miter;stroke-opacity:1"
       d="m 24.168688,275.89276 c -0.0456,-2.7e-4 -0.08966,4.4e-4 -0.131913,0.002 -1.704531,0.0327 -4.783367,1.27962 -4.992937,5.39198 l 0.279619,-0.0592 0.661706,-0.69857 c -0.164663,-0.004 -0.226141,-0.006 -0.226141,-0.006 0.05748,-2.47452 2.477298,-4.06992 3.828535,-4.10146 0.01064,-2.5e-4 0.02123,-1.5e-4 0.03173,0 0.04335,6.4e-4 0.08542,0.005 0.126208,0.0124 0.05355,0.1189 -0.004,3.3875 -0.17489,3.49257 -0.211554,0.1301 -0.186269,0.47387 -0.241366,0.61191 -0.03521,0.0408 -1.289058,0.0276 -2.301353,0.0102 0.08081,0.093 0.112462,0.18405 0.07819,0.29725 l 0.14546,-0.15863 c 0.05972,-0.0843 0.278348,-0.0983 0.441266,0.0362 l 0.116226,0.1266 c 0.02047,0.0223 0.03652,0.0474 0.05027,0.0735 l 1.67637,0.0554 c 0,0 0.02682,-0.5472 0.06667,-0.69141 0.01873,-0.0594 0.157854,-0.21857 0.381748,-0.45562 -0.004,-0.003 0.0044,-0.0182 0.0015,-0.021 -0.03941,-0.0726 0.137448,-3.32427 0.202699,-3.42098 0.620889,0.0136 1.978725,0.4501 2.409185,0.9854 l 0.0064,0.39526 c 0.0706,-10e-4 0.144794,2.5e-4 0.224254,0.002 0.04964,-0.29591 0.09496,-0.80784 0.03518,-0.89903 -0.09616,-0.18162 -1.767415,-0.97544 -2.69464,-0.98088 z"
       sodipodi:nodetypes="scccccssccccccccccccccccccss" />
    <path
       style="fill:#000000;stroke:none;stroke-width:0.187657px;stroke-linecap:butt;stroke-linejoin:miter;stroke-opacity:1"
       d="m 19.139975,282.54622 -0.398909,-0.46233 c -0.06728,-0.1897 -0.0359,-0.40854 0.134967,-0.5756 -0.05246,-0.075 -1.056382,-0.0342 -1.185384,0.10931 -0.159481,0.14987 -0.211548,0.83155 -0.144103,1.31794 l 0.881686,-0.14226 0.603532,-0.0465 z"
       id="path14949"
       sodipodi:nodetypes="cccccccc" />
    <path
       id="rect16317"
       style="stroke-width:0.507;stroke-linecap:round;stop-color:#000000"
       d="m 42.283948,263.73411 c 1.438344,-0.0357 1.730762,6.31261 0.322743,6.41227 -0.257221,0.0129 -0.523428,-0.18587 -0.487667,-0.44093 0.124592,-0.88861 -0.113514,-5.125 -0.276005,-5.48367 -0.106287,-0.23459 0.183708,-0.47472 0.440929,-0.48767 z"
       sodipodi:nodetypes="ccssc" />
    <path
       id="rect1756"
       style="stroke-width:0.330833;stroke-linecap:round;stop-color:#000000"
       transform="rotate(2.4223003)"
       d="m 49.245434,262.57825 h 0.598963 c 0.168057,0 0.303878,0.13529 0.303352,0.30335 l -0.0047,1.506 c -5.25e-4,0.16805 -0.135295,0.30335 -0.303352,0.30335 h -0.598963 c -0.168057,0 -0.298641,-0.0239 -0.298641,-0.19197 v -1.61738 c 0,-0.16806 0.135296,-0.30335 0.303353,-0.30335 z"
       sodipodi:nodetypes="sssssssss" />
  </g>
</svg>
