<?xml version="1.0" encoding="UTF-8" standalone="no"?>
<!-- Created with Inkscape (http://www.inkscape.org/) -->

<svg
   width="60mm"
   height="42mm"
   viewBox="0 0 60 42"
   version="1.1"
   id="svg8"
   inkscape:version="1.1.2 (0a00cf5339, 2022-02-04)"
   sodipodi:docname="Fox Armored Car.svg"
   xmlns:inkscape="http://www.inkscape.org/namespaces/inkscape"
   xmlns:sodipodi="http://sodipodi.sourceforge.net/DTD/sodipodi-0.dtd"
   xmlns="http://www.w3.org/2000/svg"
   xmlns:svg="http://www.w3.org/2000/svg"
   xmlns:rdf="http://www.w3.org/1999/02/22-rdf-syntax-ns#"
   xmlns:cc="http://creativecommons.org/ns#"
   xmlns:dc="http://purl.org/dc/elements/1.1/">
  <defs
     id="defs2" />
  <sodipodi:namedview
     id="base"
     pagecolor="#ffffff"
     bordercolor="#666666"
     borderopacity="1.0"
     inkscape:pageopacity="0.0"
     inkscape:pageshadow="2"
     inkscape:zoom="1.4142136"
     inkscape:cx="136.11805"
     inkscape:cy="94.398755"
     inkscape:document-units="mm"
     inkscape:current-layer="layer1"
     showgrid="false"
     inkscape:window-width="1846"
     inkscape:window-height="1016"
     inkscape:window-x="74"
     inkscape:window-y="27"
     inkscape:window-maximized="1"
     inkscape:snap-global="false"
     showguides="false"
     inkscape:pagecheckerboard="0" />
  <metadata
     id="metadata5">
    <rdf:RDF>
      <cc:Work
         rdf:about="">
        <dc:format>image/svg+xml</dc:format>
        <dc:type
           rdf:resource="http://purl.org/dc/dcmitype/StillImage" />
        <dc:title />
      </cc:Work>
    </rdf:RDF>
  </metadata>
  <g
     inkscape:label="Capa 1"
     inkscape:groupmode="layer"
     id="layer1"
     transform="translate(0,-255)"
     style="display:inline">
    <path
       id="path16695"
       style="fill:#000000;stroke:none;stroke-width:0.264583px;stroke-linecap:butt;stroke-linejoin:miter;stroke-opacity:1"
       d="m 43.908124,262.21122 -3.86e-4,0.003 c -0.155459,0.014 -5.762999,2.31317 -5.762999,2.31317 l 0.611835,0.39556 5.105604,-1.96912 -0.163513,2.63155 c 0.287406,1.48084 0.223948,3.46683 -0.264827,4.26806 l -0.04695,0.75313 2.055548,-0.14435 -0.324418,-7.836 z"
       sodipodi:nodetypes="ccccccccccc" />
    <path
       id="rect11386-6"
       style="display:inline;fill:#000000;stroke:none;stroke-width:0.372192;stroke-linecap:round;stop-color:#000000"
       d="m 13.413275,283.50188 c -0.180951,0 -0.344808,0.0748 -0.465619,0.19668 H 9.9528673 c -0.270158,0 -0.4877232,0.22993 -0.4877232,0.51545 0,0.28552 0.2175652,0.51545 0.4877232,0.51545 h 2.9947887 c 0.12082,0.1219 0.284623,0.19669 0.465619,0.19669 h 0.205 l -0.516601,-1.07951 1.808283,-0.34476 z m 4.210175,0.62095 c -0.325151,0.15212 -0.577525,0.44336 -0.690941,0.80332 h 0.02282 c 0.373293,0 0.673827,-0.31762 0.673827,-0.71214 0,-0.0309 -0.0022,-0.0614 -0.0057,-0.0912 z" />
    <path
       id="path5536"
       style="fill:#000000;stroke:none;stroke-width:0.187657px;stroke-linecap:butt;stroke-linejoin:miter;stroke-opacity:1"
       d="m 18.307669,283.09793 -4.952326,0.94423 1.359778,2.84138 h 2.404971 v -1.33421 c 0,-0.74605 0.568297,-1.34665 1.274212,-1.34665 h 0.598601 v -1.10475 z"
       sodipodi:nodetypes="ccccssccc" />
    <path
       id="path7952"
       style="fill:#000000;stroke:none;stroke-width:0.0878557;stroke-linecap:round;stop-color:#000000"
       d="m 45.948557,283.43809 v 2.2875 c 0,0.55003 -0.438922,0.99284 -0.984177,0.99284 h -0.198191 c 0.517625,0.31928 1.237457,0.62657 1.770538,0.61719 0.659722,-0.0424 4.036547,-1.32384 4.807095,-1.61907 h 0.04974 c 0.599489,0 1.082144,-0.48266 1.082144,-1.08215 v -0.11416 c 0,-0.5995 -0.482655,-1.08215 -1.082144,-1.08215 z" />
    <path
       id="rect3687"
       style="fill:#000000;stroke-width:0.0874961;stroke-linecap:round;stop-color:#000000"
       d="m 18.611268,284.44978 c -0.690405,0 -1.246423,0.55601 -1.246423,1.24642 v 1.76263 c 0,0.6904 0.556018,1.24604 1.246423,1.24604 h 22.573149 c 0.690407,0 1.246424,-0.55564 1.246424,-1.24604 v -1.76263 c 0,-0.69041 -0.556017,-1.24642 -1.246424,-1.24642 z m 1.946501,0.38244 h 7.990598 c 0.632404,0 1.146197,0.51417 1.146197,1.14657 v 1.09646 c 0,0.63241 -0.513795,1.14658 -1.146197,1.14658 h -7.990598 c -0.632403,0 -1.146574,-0.51417 -1.146574,-1.14658 v -1.09646 c 0,-0.6324 0.51417,-1.14657 1.146574,-1.14657 z m 10.689173,0 h 7.990599 c 0.632399,0 1.146196,0.51417 1.146196,1.14657 v 1.09646 c 0,0.63241 -0.513799,1.14658 -1.146196,1.14658 h -7.990599 c -0.632403,0 -1.146574,-0.51417 -1.146574,-1.14658 v -1.09646 c 0,-0.6324 0.51417,-1.14657 1.146574,-1.14657 z m -10.689173,0.29616 c -0.473132,0 -0.84891,0.37728 -0.84891,0.85041 v 1.09646 c 0,0.47314 0.375776,0.84891 0.84891,0.84891 h 7.990598 c 0.473133,0 0.85004,-0.37577 0.85004,-0.84891 v -1.09646 c 0,-0.47313 -0.376908,-0.85041 -0.85004,-0.85041 z m 10.689173,0 c -0.473132,0 -0.84891,0.37728 -0.84891,0.85041 v 1.09646 c 0,0.47314 0.375776,0.84891 0.84891,0.84891 h 7.990599 c 0.473129,0 0.850038,-0.37577 0.850038,-0.84891 v -1.09646 c 2e-6,-0.47313 -0.376911,-0.85041 -0.850038,-0.85041 z m 0.223436,0.34212 h 1.619447 v 0.39638 h -2.14507 l 0.02261,-0.0377 c 0.08349,-0.13807 0.211685,-0.24474 0.370008,-0.30671 z m 1.819899,0 h 1.95592 1.956298 v 0.39638 h -3.912218 z m 4.11267,0 h 1.619822 l 0.122081,0.0486 c 0.171582,0.0681 0.288808,0.16547 0.371138,0.30708 l 0.02374,0.0407 h -2.136779 z m -16.604409,0.017 h 1.619446 v 0.39638 h -2.145069 l 0.02261,-0.0377 c 0.08349,-0.13807 0.211685,-0.24435 0.370008,-0.30633 z m 1.819899,0 h 1.955919 1.956297 v 0.39638 h -3.912216 z m 4.112669,0 h 1.619823 l 0.12208,0.0486 c 0.171582,0.0681 0.288809,0.16547 0.371139,0.30709 l 0.02374,0.0407 h -2.136782 z m 4.175217,0.54898 h 2.183502 v 0.20912 h -2.183502 z m 2.383954,0 h 3.912218 v 0.20912 h -3.912218 z m 4.11267,0 h 2.183878 v 0.20912 h -2.183878 z m -17.168465,0.017 h 2.183502 v 0.20912 h -2.183502 z m 2.383955,0 h 3.912216 v 0.20912 h -3.912216 z m 4.112669,0 h 2.183878 v 0.20912 h -2.183878 z m 4.175217,0.36172 h 2.183502 v 0.20949 h -2.183502 c -4.8e-5,-0.0357 0,-0.066 0,-0.10625 z m 2.383954,0 h 3.912218 v 0.20949 h -3.912218 z m 4.11267,0 h 2.183878 v 0.11153 0.098 h -2.183878 z m -17.168465,0.017 h 2.183502 v 0.2095 h -2.183502 c -4.8e-5,-0.0357 0,-0.066 0,-0.10625 z m 2.383955,0 h 3.912216 v 0.2095 h -3.912216 z m 4.112669,0 h 2.183878 v 0.11153 0.098 h -2.183878 z m 4.176347,0.3621 h 2.182372 v 0.2095 h -2.175213 c -0.0043,-0.0564 -0.0061,-0.12418 -0.0072,-0.2095 z m 2.382824,0 h 3.912218 v 0.2095 h -3.912218 z m 4.11267,0 h 2.183878 v 0.2095 h -2.183878 z m -17.167334,0.017 h 2.182371 v 0.20949 h -2.175212 c -0.0042,-0.0564 -0.0062,-0.12418 -0.0072,-0.20949 z m 2.382824,0 h 3.912216 v 0.20949 h -3.912216 z m 4.112669,0 h 2.183878 v 0.20949 h -2.183878 z m 10.471389,0.36059 v 0.3945 l -1.923518,0.002 c -0.824178,7.8e-4 -1.46773,7.8e-4 -1.9887,3.9e-4 v -0.39638 z m -4.11267,3.8e-4 v 0.39639 c -1.208015,-0.002 -1.615362,-0.007 -1.662778,-0.02 v 3.8e-4 c -0.143028,-0.0385 -0.21286,-0.0763 -0.322156,-0.17521 -0.08424,-0.0762 -0.132616,-0.12211 -0.160512,-0.2012 z m 6.458567,0 -0.02148,0.0369 c -0.07074,0.12191 -0.236655,0.25998 -0.380183,0.31613 l -0.102487,0.0403 -1.641299,0.002 v -0.3945 z m -13.017739,0.0166 v 0.3945 l -1.923516,0.002 c -0.824178,7.7e-4 -1.467731,7.7e-4 -1.9887,3.9e-4 v -0.39639 z m 2.345899,3.9e-4 -0.02148,0.0369 c -0.07074,0.12191 -0.236655,0.25998 -0.380182,0.31612 l -0.102487,0.0403 -1.6413,0.002 v -0.3945 z m -8.604014,3.9e-4 h 2.145446 v 0.396 c -1.208015,-0.002 -1.615363,-0.007 -1.662777,-0.0196 -0.143029,-0.0385 -0.212861,-0.0763 -0.322156,-0.17521 -0.08424,-0.0762 -0.132618,-0.12211 -0.160513,-0.2012 z" />
    <rect
       style="fill:#000000;stroke-width:0.0874961;stroke-linecap:round;stop-color:#000000"
       id="rect962"
       width="1.9118605"
       height="9.9234066"
       x="43.818604"
       y="276.55679"
       ry="0.95593023" />
    <path
       id="rect1067"
       style="fill:#000000;stroke-width:0.0730243;stroke-linecap:round;stop-color:#000000"
       d="m 46.051384,280.75798 v 1.73625 h 7.087807 c 0.480909,0 0.868126,-0.38721 0.868126,-0.86812 0,-0.48091 -0.387217,-0.86813 -0.868126,-0.86813 z"
       sodipodi:nodetypes="ccsssc" />
    <path
       id="path8320"
       style="color:#000000;fill:#000000;stroke-width:0.17487px;-inkscape-stroke:none"
       d="m 46.879028,270.68362 c -0.01358,0 -0.0368,7.3e-4 -0.06152,10e-4 v 8.87734 c 2.081897,0.19748 5.01021,0.0363 5.01021,0.0363 0.131018,-2.0643 -0.441534,-6.16813 -0.694821,-6.50259 -0.358714,-0.45114 -3.487779,-2.33163 -4.253864,-2.41279 z m -0.232053,0.0101 c -1.555775,0.0853 -9.8731,0.73373 -10.436046,1.2064 -0.43618,0.27872 -2.04882,2.56835 -1.918953,2.90294 0.342581,0.28375 11.035973,0.98073 11.209778,1.07487 0.354364,0.11256 0.469412,0.32617 0.498547,0.72182 0,0 0.07424,2.42414 0.17822,2.88619 0.148501,0.0225 0.305831,0.0419 0.468454,0.0593 z" />
    <path
       id="rect3429"
       style="stroke-width:0.0874961;stroke-linecap:round;stop-color:#000000"
       d="m 33.49186,275.70861 c -2.040905,0.004 -3.37201,0.0665 -4.418624,0.17558 -0.686685,0.0716 -1.246423,0.55602 -1.246423,1.24643 v 5.10024 c 0,0.6904 0.557201,1.20565 1.246423,1.24604 l 13.096112,0.76752 c 0.689222,0.0404 1.246045,-0.55564 1.246045,-1.24604 v -0.79126 c -0.07966,0.22299 -0.291541,0.38206 -0.542578,0.38206 h -8.389619 c -0.319599,0 -0.576866,-0.25726 -0.576866,-0.57686 v -3.95404 c 0,-0.31961 0.257267,-0.57687 0.576866,-0.57687 h 8.389619 c 0.251037,0 0.462917,0.15907 0.542578,0.38207 v -0.73286 c 0,-0.69041 -0.555997,-1.22419 -1.246045,-1.24643 -3.885833,-0.12518 -6.636583,-0.17961 -8.677488,-0.17558 z" />
    <path
       id="path1183-6-2"
       style="display:inline;fill:#000000;stroke-width:0.456241;stroke-linecap:round;stop-color:#000000"
       d="m 42.668219,277.90944 a 1.2131213,1.2131213 0 0 1 0.204974,0.67484 1.2131213,1.2131213 0 0 1 -1.213265,1.21288 1.2131213,1.2131213 0 0 1 -1.177848,-0.92464 1.2882455,1.2882455 0 0 0 1.28674,1.24718 1.2882455,1.2882455 0 0 0 1.288246,-1.28825 1.2882455,1.2882455 0 0 0 -0.388847,-0.92201 z" />
    <circle
       style="fill:#000000;stroke-width:0.369671;stroke-linecap:round;stop-color:#000000"
       id="path1183"
       cx="41.654179"
       cy="278.56897"
       r="1.0438067" />
    <path
       id="rect1287"
       style="fill:#000000;stroke-width:0.369671;stroke-linecap:round;stop-color:#000000"
       d="m 41.624132,280.1717 c -0.216646,0 -0.400511,0.1345 -0.473626,0.32479 h -6.483813 c -0.188864,0 -0.340619,0.15213 -0.340619,0.34099 0,0.18887 0.151755,0.34063 0.340619,0.34063 h 6.449902 v 0.11454 h -6.449902 c -0.188864,0 -0.340619,0.15213 -0.340619,0.34099 0,0.18887 0.151755,0.34099 0.340619,0.34099 h 6.483813 c 0.07312,0.19029 0.25698,0.3248 0.473626,0.3248 0.281203,0 0.507537,-0.22633 0.507537,-0.50754 v -1.11266 c 0,-0.2812 -0.226334,-0.50753 -0.507537,-0.50753 z m 1.152224,0.0282 c -0.275082,0.007 -0.494349,0.23073 -0.494349,0.50755 v 1.11228 c 0,0.2812 0.226334,0.50754 0.507537,0.50754 0.281205,0 0.507537,-0.22634 0.507537,-0.50754 v -1.11228 c 0,-0.28121 -0.226332,-0.50755 -0.507537,-0.50755 -0.0044,0 -0.0088,-1.1e-4 -0.01319,0 z" />
    <rect
       style="fill:#000000;stroke-width:0.377149;stroke-linecap:round;stop-color:#000000"
       id="rect1418"
       width="7.4009051"
       height="0.68181932"
       x="34.326073"
       y="277.77628"
       ry="0.34090966" />
    <rect
       style="fill:#000000;stroke-width:0.369671;stroke-linecap:round;stop-color:#000000"
       id="rect1820"
       width="5.9799285"
       height="1.1959857"
       x="34.326073"
       y="278.87973"
       ry="0.34090906" />
    <path
       id="path3425"
       style="fill:#000000;stroke:none;stroke-width:0.187657px;stroke-linecap:butt;stroke-linejoin:miter;stroke-opacity:1"
       d="m 26.577873,278.0368 c -0.168247,1.2e-4 -0.326764,0.0195 -0.417132,0.0705 -0.162362,0.11315 -2.180809,2.01211 -2.3641,2.4985 -0.114006,0.61723 -0.212376,3.01646 0,3.30483 0.155537,0.0738 2.275685,0.14233 3.10638,0.0712 l 2.431485,0.0102 c -1.678002,-0.18999 -1.98941,-0.7489 -2.020414,-1.43255 0.0295,-1.68627 -0.01348,-4.35006 -0.08272,-4.42352 -0.06558,-0.0466 -0.373094,-0.0993 -0.653506,-0.0991 z" />
    <path
       id="path4004"
       style="fill:#000000;stroke:none;stroke-width:0.187657px;stroke-linecap:butt;stroke-linejoin:miter;stroke-opacity:1"
       d="m 22.479646,281.10312 c -0.189703,3.3e-4 -0.376686,0.007 -0.534784,0.0196 0.004,0.10747 -0.03292,0.21603 -0.110879,0.29842 l -1.862474,1.96873 c -0.08305,0.0878 -0.194666,0.12622 -0.302687,0.11568 -0.0045,0.16953 0.0083,0.34058 0.05134,0.37453 0.07975,0.089 3.581651,0.0626 3.717105,0 l 0.103035,-0.0475 c -0.06773,-0.31197 -0.0794,-2.47727 0,-2.63979 -0.02026,-0.0508 -0.549217,-0.0906 -1.060655,-0.0897 z" />
    <rect
       style="fill:#000000;stroke:none;stroke-width:0.284139;stroke-linecap:round;stop-color:#000000"
       id="rect5150"
       width="3.1120892"
       height="0.69829309"
       x="-180.70567"
       y="208.7637"
       ry="0.27754459"
       transform="matrix(0.68730059,-0.72637312,0.68730059,0.72637312,0,0)" />
    <rect
       style="fill:#000000;stroke:none;stroke-width:0.284139;stroke-linecap:round;stop-color:#000000"
       id="rect5254"
       width="2.3350303"
       height="0.87322664"
       x="-180.33252"
       y="207.75418"
       ry="0.27754459"
       transform="matrix(0.68730059,-0.72637312,0.68730059,0.72637312,0,0)" />
    <rect
       style="display:inline;fill:#000000;stroke:none;stroke-width:0.359734;stroke-linecap:round;stop-color:#000000"
       id="rect11075-2"
       width="5.2914882"
       height="2.8022025"
       x="27.510324"
       y="272.70544"
       ry="0.63925749" />
    <rect
       style="fill:#000000;stroke:none;stroke-width:0.304751;stroke-linecap:round;stop-color:#000000"
       id="rect11075"
       width="4.5411425"
       height="2.3433697"
       x="27.224037"
       y="272.91809"
       ry="0.53458542" />
    <rect
       style="fill:#000000;stroke:none;stroke-width:0.369671;stroke-linecap:round;stop-color:#000000"
       id="rect11204"
       width="23.520477"
       height="1.1200227"
       x="18.081038"
       y="289.11731"
       ry="0.56001133" />
    <rect
       style="fill:#000000;stroke:none;stroke-width:0.422693;stroke-linecap:round;stop-color:#000000"
       id="rect11386"
       width="6.3069067"
       height="1.424242"
       x="23.800344"
       y="273.37762"
       ry="0.71212101" />
    <rect
       style="display:inline;fill:#000000;stroke:none;stroke-width:0.359591;stroke-linecap:round;stop-color:#000000"
       id="rect11386-0"
       width="6.3069067"
       height="1.0307446"
       x="20.526157"
       y="273.57437"
       ry="0.51537228" />
    <path
       id="path6116-3"
       style="display:inline;fill:#000000;stroke:none;stroke-width:0.187657px;stroke-linecap:butt;stroke-linejoin:miter;stroke-opacity:1"
       d="m 24.168688,275.89276 c -0.0456,-2.7e-4 -0.08966,4.4e-4 -0.131913,0.002 -1.704531,0.0327 -4.783367,1.27962 -4.992937,5.39198 l 0.279619,-0.0592 0.661706,-0.69857 c -0.164663,-0.004 -0.226141,-0.006 -0.226141,-0.006 0.05748,-2.47452 2.477298,-4.06992 3.828535,-4.10146 0.01064,-2.5e-4 0.02123,-1.5e-4 0.03173,0 0.04335,6.4e-4 0.08542,0.005 0.126208,0.0124 0.05355,0.1189 -0.004,3.3875 -0.17489,3.49257 -0.211554,0.1301 -0.186269,0.47387 -0.241366,0.61191 -0.03521,0.0408 -1.289058,0.0276 -2.301353,0.0102 0.08081,0.093 0.112462,0.18405 0.07819,0.29725 l 0.14546,-0.15863 c 0.05972,-0.0843 0.278348,-0.0983 0.441266,0.0362 l 0.116226,0.1266 c 0.02047,0.0223 0.03652,0.0474 0.05027,0.0735 l 1.67637,0.0554 c 0,0 0.02682,-0.5472 0.06667,-0.69141 0.01873,-0.0594 0.157854,-0.21857 0.381748,-0.45562 -0.004,-0.003 0.0044,-0.0182 0.0015,-0.021 -0.03941,-0.0726 0.137448,-3.32427 0.202699,-3.42098 0.620889,0.0136 1.978725,0.4501 2.409185,0.9854 l 0.0064,0.39526 c 0.0706,-10e-4 0.144794,2.5e-4 0.224254,0.002 0.04964,-0.29591 0.09496,-0.80784 0.03518,-0.89903 -0.09616,-0.18162 -1.767415,-0.97544 -2.69464,-0.98088 z"
       sodipodi:nodetypes="scccccssccccccccccccccccccss" />
    <path
       style="fill:#000000;stroke:none;stroke-width:0.187657px;stroke-linecap:butt;stroke-linejoin:miter;stroke-opacity:1"
       d="m 19.139975,282.54622 -0.398909,-0.46233 c -0.06728,-0.1897 -0.0359,-0.40854 0.134967,-0.5756 -0.05246,-0.075 -1.056382,-0.0342 -1.185384,0.10931 -0.159481,0.14987 -0.211548,0.83155 -0.144103,1.31794 l 0.881686,-0.14226 0.603532,-0.0465 z"
       id="path14949"
       sodipodi:nodetypes="cccccccc" />
    <path
       id="rect16317"
       style="stroke-width:0.507;stroke-linecap:round;stop-color:#000000"
       d="m 42.283948,263.73411 c 1.438344,-0.0357 1.730762,6.31261 0.322743,6.41227 -0.257221,0.0129 -0.523428,-0.18587 -0.487667,-0.44093 0.124592,-0.88861 -0.113514,-5.125 -0.276005,-5.48367 -0.106287,-0.23459 0.183708,-0.47472 0.440929,-0.48767 z"
       sodipodi:nodetypes="ccssc" />
    <rect
       style="fill:#000000;stroke:none;stroke-width:0.330833;stroke-linecap:round;stop-color:#000000"
       id="rect17061"
       width="1.2056677"
       height="2.2240815"
       x="48.942081"
       y="262.57825"
       ry="0.30335262"
       transform="rotate(2.4223003)" />
  </g>
</svg>
