<?xml version="1.0" encoding="UTF-8" standalone="no"?>
<!-- Created with Inkscape (http://www.inkscape.org/) -->

<svg
   width="60mm"
   height="42mm"
   viewBox="0 0 60 42"
   version="1.1"
   id="svg8"
   inkscape:version="1.1.2 (0a00cf5339, 2022-02-04)"
   sodipodi:docname="Hawk Moth.svg"
   xmlns:inkscape="http://www.inkscape.org/namespaces/inkscape"
   xmlns:sodipodi="http://sodipodi.sourceforge.net/DTD/sodipodi-0.dtd"
   xmlns="http://www.w3.org/2000/svg"
   xmlns:svg="http://www.w3.org/2000/svg"
   xmlns:rdf="http://www.w3.org/1999/02/22-rdf-syntax-ns#"
   xmlns:cc="http://creativecommons.org/ns#"
   xmlns:dc="http://purl.org/dc/elements/1.1/">
  <defs
     id="defs2" />
  <sodipodi:namedview
     id="base"
     pagecolor="#ffffff"
     bordercolor="#666666"
     borderopacity="1.0"
     inkscape:pageopacity="0.0"
     inkscape:pageshadow="2"
     inkscape:zoom="1"
     inkscape:cx="-25.5"
     inkscape:cy="167.5"
     inkscape:document-units="mm"
     inkscape:current-layer="layer1"
     showgrid="false"
     inkscape:window-width="1846"
     inkscape:window-height="1016"
     inkscape:window-x="74"
     inkscape:window-y="1107"
     inkscape:window-maximized="1"
     inkscape:snap-global="false"
     showguides="false"
     inkscape:pagecheckerboard="0" />
  <metadata
     id="metadata5">
    <rdf:RDF>
      <cc:Work
         rdf:about="">
        <dc:format>image/svg+xml</dc:format>
        <dc:type
           rdf:resource="http://purl.org/dc/dcmitype/StillImage" />
      </cc:Work>
    </rdf:RDF>
  </metadata>
  <g
     inkscape:label="Capa 1"
     inkscape:groupmode="layer"
     id="layer1"
     transform="translate(0,-255)"
     style="display:inline">
    <g
       id="g16751">
      <path
         id="path15635"
         style="fill:#000000;fill-opacity:1;stroke:none;stroke-width:0.222943px;stroke-linecap:butt;stroke-linejoin:miter;stroke-opacity:1"
         d="m 49.15835,266.59032 c -0.532202,0.003 -1.982138,0.0392 -2.306508,0.35706 0.96169,0.76165 0.5303,3.25681 -0.11539,3.85579 0.08541,0.0411 2.745985,0.32421 3.258371,0.22555 0.261722,-0.004 0.714124,-0.11312 0.961009,-0.75504 -0.1146,-0.0156 -0.220045,-0.0645 -0.316127,-0.1389 a 0.54722337,0.64199698 54.89988 0 1 -0.259084,0.72805 0.54722337,0.64199698 54.89988 0 1 -0.33703,0.12497 c -0.01764,-0.0166 -0.03516,-0.0347 -0.05225,-0.0553 a 0.4726858,0.55455026 54.89988 0 0 0.351832,-0.11409 0.4726858,0.55455026 54.89988 0 0 0.181575,-0.70584 0.4726858,0.55455026 54.89988 0 0 -0.725436,-0.0679 0.4726858,0.55455026 54.89988 0 0 -0.14108,0.13586 c -0.0095,-0.0334 -0.01859,-0.0692 -0.02787,-0.10364 a 0.54722337,0.64199698 54.89988 0 1 0.112776,-0.10186 0.52514145,0.61609071 68.292103 0 1 -0.138469,0.006 c -0.0013,-0.005 -0.0027,-0.0103 -0.0039,-0.0153 a 0.4726858,0.55455026 68.292103 0 0 0.261699,-0.0448 0.4726858,0.55455026 68.292103 0 0 0.340511,-0.64444 0.4726858,0.55455026 68.292103 0 0 -0.690167,-0.23384 0.4726858,0.55455026 68.292103 0 0 -0.07751,0.037 c -0.0037,-0.0256 -0.0072,-0.0515 -0.01088,-0.077 a 0.52514145,0.61609071 68.292103 0 1 0.08404,-0.0448 0.52514145,0.61609071 68.292103 0 1 0.109731,-0.0301 0.51733801,0.60496384 80.044382 0 1 -0.205527,-0.006 c -0.0011,-0.008 -0.0024,-0.017 -0.0035,-0.0256 a 0.4726858,0.55455026 80.257256 0 0 0.199429,-0.003 0.4726858,0.55455026 80.257256 0 0 0.466353,-0.55954 0.4726858,0.55455026 80.257256 0 0 -0.626593,-0.37186 0.4726858,0.55455026 80.257256 0 0 -0.123665,0.0344 c -9.77e-4,-0.0167 -0.0012,-0.0326 -0.0022,-0.0492 a 0.51733801,0.60496384 80.044382 0 1 0.144129,-0.0419 0.51733801,0.60496384 80.044382 0 1 0.08317,-0.005 0.67544924,0.57573728 0 0 1 -0.232089,-0.0545 c -0.0019,-0.0413 -0.0046,-0.0836 -0.0061,-0.1241 a 0.55455026,0.4726858 0 0 0 0.289566,0.0696 0.55455026,0.4726858 0 0 0 0.55431,-0.47245 0.55455026,0.4726858 0 0 0 -0.55431,-0.47289 0.55455026,0.4726858 0 0 0 -0.282599,0.0662 c 0.0027,-0.0392 0.0066,-0.0747 0.01005,-0.11104 a 0.67544924,0.57573728 0 0 1 0.268231,-0.051 0.67544924,0.57573728 0 0 1 0.67536,0.57565 0.67544924,0.57573728 0 0 1 -0.0039,0.0557 c 0.03006,-0.0321 0.06267,-0.06 0.09797,-0.0828 -0.04725,-0.31956 -0.564268,-0.63496 -1.020228,-0.64662 0.0029,-0.0201 0.0054,-0.0423 0.0087,-0.0609 0,0 -0.07357,-10e-4 -0.196383,-4.3e-4 z m 0.922689,1.13518 a 0.67544924,0.57573728 0 0 1 -0.43413,0.17374 0.51733801,0.60496384 80.044382 0 1 0.364896,0.15937 c 0.01401,-0.11957 0.03709,-0.23197 0.06924,-0.33311 z m -0.06401,0.99932 a 0.51733801,0.60496384 80.044382 0 1 -0.326576,0.18942 0.52514145,0.61609071 68.292103 0 1 0.367071,0.0679 c -0.01679,-0.0851 -0.03046,-0.17128 -0.0405,-0.25735 z m 0.237313,0.88438 a 0.52514145,0.61609071 68.292103 0 1 -0.201171,0.23731 0.54722337,0.64199698 54.89988 0 1 0.365767,0.0518 c -0.06099,-0.0862 -0.11609,-0.18345 -0.164596,-0.28913 z" />
      <path
         id="path3493"
         style="fill:#000000;fill-opacity:1;stroke:none;stroke-width:0.222943px;stroke-linecap:butt;stroke-linejoin:miter;stroke-opacity:1"
         d="m 39.039237,275.20848 -5.028858,0.77812 c 0.0025,0.39143 -0.01527,0.83013 -0.05617,1.29325 -0.06885,0.77979 -0.18927,1.47896 -0.330496,1.98472 -0.07061,0.25288 -0.146365,0.45612 -0.227298,0.60221 -0.04047,0.073 -0.08167,0.13258 -0.128891,0.17505 -0.04723,0.0426 -0.103081,0.0686 -0.160674,0.0618 -0.05759,-0.007 -0.107924,-0.0456 -0.146742,-0.0984 -0.03881,-0.0527 -0.0698,-0.12098 -0.09667,-0.20204 -0.05372,-0.16215 -0.03118,-0.35806 -0.05613,-0.62233 -0.0499,-0.52855 0.03679,-1.27999 0.105651,-2.05978 0.03064,-0.34703 0.0727,-0.67409 0.121049,-0.9793 l -0.383933,0.0551 c -0.049,0.32343 -0.586016,3.97239 0.231681,4.22153 0.560852,0.16318 0.86404,-0.003 2.004287,-0.29303 0.507134,0.25474 1.12533,0.5271 1.328516,0.45721 0.536104,-0.0865 1.364738,-0.83586 1.900247,-1.37381 1.911906,-0.58149 3.574064,-1.13518 3.574064,-1.13518 z"
         sodipodi:nodetypes="ccsscccccsscccccccc" />
      <path
         id="path8148"
         style="fill:#000000;fill-opacity:1;stroke:#000000;stroke-width:0.222943px;stroke-linecap:butt;stroke-linejoin:miter;stroke-opacity:1"
         d="m 42.071617,265.70246 c 0.244104,1.46696 0.50165,3.46682 0.494657,3.83576 -0.188071,0.43484 -0.499448,0.34269 -0.499448,0.34269 l 0.007,0.19813 c 0.946929,0.10124 4.166502,0.65909 4.439579,0.32502 0.694487,-0.84963 0.607526,-3.02054 -0.427029,-3.92129 -0.490097,-0.2459 -2.656854,-0.58506 -4.014725,-0.78031 z"
         sodipodi:nodetypes="ccccscc" />
      <path
         id="path2638"
         style="fill:#000000;fill-opacity:1;stroke:#000000;stroke-width:0.222943px;stroke-linecap:butt;stroke-linejoin:miter;stroke-opacity:1"
         d="m 42.214877,274.4051 -0.0052,0.31264 -2.696659,0.41715 c 0.02669,0.0401 0.06061,0.0774 0.10189,0.1106 l 4.519834,4.9949 c 2.743248,0.49338 3.94561,-0.016 4.094845,-0.26214 0.188711,-0.25875 -2.670131,-4.53158 -2.82729,-4.53158 -0.378075,-0.32517 -1.860826,-0.76784 -3.187396,-1.04157 z" />
      <path
         id="path2456"
         style="fill:#000000;fill-opacity:1;stroke-width:0.168525;stroke-linecap:round"
         d="m 11.665509,284.95835 a 3.4951872,2.3580576 20.093502 0 0 -2.5446924,1.31719 3.4951872,2.3580576 20.093502 0 0 0.1785291,1.58281 c 0.30315,-0.34114 0.5967378,-0.63553 0.5974189,-0.63617 0.4787984,-0.29872 4.3774454,-0.0618 4.3774454,-0.0618 0.421456,0.17231 0.758491,1.54309 0.77856,2.32392 a 3.4951872,2.3580576 20.093502 0 0 0.633125,-0.8073 3.4951872,2.3580576 20.093502 0 0 -2.472409,-3.41556 3.4951872,2.3580576 20.093502 0 0 -1.547977,-0.30306 z" />
      <path
         id="rect1868"
         style="fill:#000000;fill-opacity:1;stroke-width:0.168525;stroke-linecap:round"
         d="m 4.1894958,286.86425 c -0.1215238,0 -0.2194601,0.098 -0.2194601,0.21946 v 0.10186 l -1.2092076,-0.02 -0.8064288,1.24143 c -0.090078,0.0273 -0.1554508,0.11067 -0.1554508,0.20988 v 1.06639 c 0,0.12152 0.097936,0.21945 0.2194601,0.21945 h 2.0970631 c 0.1215238,0 0.2194601,-0.098 0.2194601,-0.21945 v -0.21424 h 0.1454359 v 0.21424 c 0,0.12152 0.097936,0.21945 0.2194598,0.21945 h 2.5529649 c 0.1215251,0 0.2194605,-0.098 0.2194605,-0.21945 v -0.21424 h 0.1454358 v 0.21424 c 0,0.12152 0.097499,0.21945 0.2190245,0.21945 h 1.0515797 l 0.6527202,1.58152 1.5536379,0.0758 0.885678,-0.80208 c 0.685392,0.0182 1.303262,0.0266 1.303262,0.0266 0.520107,-0.12274 1.545466,-0.82145 1.468728,-1.04374 0.105592,-0.53976 -0.233333,-2.20512 -0.676233,-2.3862 0,0 -3.477072,-0.2112 -3.904126,0.0553 -7.13e-4,6.7e-4 -0.3608277,0.36171 -0.6727491,0.72806 H 9.0285034 v -1.0542 c 0,-0.12152 -0.097499,-0.21946 -0.2190245,-0.21946 z" />
      <path
         id="path14370"
         style="fill:#000000;fill-opacity:1;stroke:none;stroke-width:0.172957;stroke-linecap:round;stroke-miterlimit:4;stroke-dasharray:none;stroke-opacity:1"
         d="m 22.161709,275.62998 a 1.6914308,1.6914308 0 0 0 -1.558427,1.03635 l -2.358761,3.15299 h 0.635303 c 0.133413,0 0.240796,0.10739 0.240796,0.2408 v 0.2003 h 0.815138 v -0.2003 c 0,-0.13341 0.107384,-0.2408 0.240795,-0.2408 h 3.053284 l 0.441096,-1.73653 a 1.6914308,1.6914308 0 0 0 0.182013,-0.76157 1.6914308,1.6914308 0 0 0 -1.691237,-1.69124 z" />
      <path
         id="path14809"
         style="fill:#000000;fill-opacity:1;stroke:none;stroke-width:0.222943px;stroke-linecap:butt;stroke-linejoin:miter;stroke-opacity:1"
         d="m 22.883663,273.51202 c -0.177166,0.0174 -2.47981,1.11646 -2.47981,1.11646 0.0175,0.0801 0.01451,0.26631 -0.0122,0.462 0.507922,-0.5566 1.227455,-0.87641 1.983851,-0.88176 1.492839,10e-6 2.703057,1.20164 2.703191,2.68403 -8.3e-5,1.0247 -0.587659,1.95996 -1.514449,2.41058 l -0.06618,0.51599 h 1.203548 c 0.133412,0 0.240797,0.10739 0.240797,0.2408 v 0.37708 h 0.582835 c 0.209141,0 0.383438,0.0311 0.377523,0.24017 l -0.02053,0.7252 c 0.133647,-0.02 0.641401,-0.014 0.737903,-0.0945 0.06624,-0.0553 0.05003,-5.30868 0.03745,-5.5344 -0.0081,-0.14591 -0.672925,0.0845 -0.920949,0.081 -0.316714,-0.0594 -2.697136,-2.27636 -2.846015,-2.34265 -0.0017,-2.6e-4 -0.0041,-2.6e-4 -0.007,0 z m -2.974902,2.30476 c -1.19471,0.78578 -5.367427,3.53847 -5.476923,3.72517 l -0.06793,0.27737 h 3.48393 l 1.868459,-2.45281 c -0.02875,-0.15632 -0.04347,-0.31486 -0.04397,-0.47376 0.0031,-0.37103 0.08359,-0.73739 0.236442,-1.07597 z m 0.027,4.26685 -0.815138,0.007 v 0.16983 h 0.815138 z m 5.980538,4.43728 c -0.04897,0.0232 -0.177826,0.0994 -0.235765,0.10021 l -0.738121,0.0111 v 0.34966 c 0,0.13341 -0.107386,0.24123 -0.240798,0.24123 h -4.525058 c -0.133412,0 -0.240796,-0.10782 -0.240796,-0.24123 v -0.17897 h -0.815138 v 0.17897 c 0,0.13341 -0.107383,0.24123 -0.240796,0.24123 h -4.525493 c -0.133414,0 -0.240797,-0.10782 -0.240797,-0.24123 v -0.20509 h -0.621804 v 0.22251 c 0,0.13341 -0.107384,0.24079 -0.240797,0.24079 H 13.0367 l -0.09362,0.38188 2.509422,1.89284 1.441295,-1.54014 1.068996,0.32614 c 0,0 0.03972,0.4168 0.153274,0.44981 l 2.761104,0.40713 c 0.218434,0.51933 1.386495,0.62294 2.061358,0.42281 0,0 2.327898,-0.0437 2.516389,-0.12018 0.105261,-0.0428 0.166336,-0.59045 0.166336,-0.59045 0.986898,-0.1768 1.095162,-1.21231 0.384057,-2.0213 z"
         sodipodi:nodetypes="cccccccsscsscssccccccccccccccccscssssccssssccssccccccccsccc" />
      <path
         id="path9566"
         style="fill:#000000;fill-opacity:1;stroke:#000000;stroke-width:0.222943px;stroke-linecap:butt;stroke-linejoin:miter;stroke-opacity:1"
         d="m 26.079769,260.55211 c -0.995126,0.007 -2.54002,0.35276 -2.788536,0.66317 -0.06845,0.0815 0.246893,10.3849 -0.126712,11.93619 0,0 2.025112,1.88227 2.292574,1.94423 0.211216,0.18749 1.704174,-0.0691 1.915751,-0.25289 0.03813,-0.0689 -0.22637,-0.87904 -0.750086,-2.37758 l -0.09667,-0.32441 -0.298273,0.002 c -0.126432,0.0183 -0.242584,-0.0686 -0.260827,-0.19508 l -0.714987,-5.27749 c -0.01824,-0.12647 0.158351,-0.48046 0.284775,-0.49858 l 0.08534,-0.0122 0.0013,0.008 0.144566,-0.0174 0.985393,-2.36878 c -0.0099,-0.0687 0.0186,-0.13331 0.06837,-0.17417 l 0.04877,-0.005 c 0.03178,-1.65938 0.04238,-2.84708 0.01438,-2.88041 -0.110412,-0.12363 -0.415725,-0.17295 -0.805123,-0.17026 z m -0.246457,0.67537 c 0.183292,3e-5 0.331852,0.14586 0.331802,0.3257 5e-5,0.17985 -0.14851,0.32568 -0.331802,0.32571 -0.183293,-3e-5 -0.331852,-0.14586 -0.331802,-0.32571 -5e-5,-0.17984 0.148509,-0.32567 0.331802,-0.3257 z m 0.19464,2.17196 c 0.214376,4e-5 0.388106,0.17825 0.387973,0.39798 -1.04e-4,0.21957 -0.173764,0.39752 -0.387973,0.39756 -0.21421,-4e-5 -0.38787,-0.17799 -0.387975,-0.39756 -1.31e-4,-0.21973 0.1736,-0.39794 0.387975,-0.39798 z"
         sodipodi:nodetypes="ccccccccccccccccccccccccccccc" />
      <path
         id="rect1073"
         style="fill:#000000;stroke-width:0.0602099;stroke-linecap:round"
         d="m 32.920889,262.3431 c -0.370243,0.0623 -0.653821,0.33143 -0.751514,0.67132 l 1.951535,-0.2779 c -0.192765,-0.30539 -0.551202,-0.48537 -0.933116,-0.43099 l -0.242701,0.0346 c -0.0081,8.4e-4 -0.01611,0.002 -0.02415,0.003 z m -5.889563,1.62907 c -0.04978,0.0408 -0.07791,0.10545 -0.068,0.17418 l -0.805267,2.03892 14.624651,-2.0826 -1.367098,-1.75199 c -0.03616,-0.0464 -0.06689,-0.095 -0.104754,-0.12715 z m 14.187006,0.25849 -0.210741,0.0305 -2.82e-4,-8.4e-4 -15.15567,2.19497 -0.0012,-0.008 -0.08535,0.0122 c -0.126427,0.0181 -0.213255,0.13486 -0.195016,0.26132 l 0.699673,4.85153 c 0.01824,0.12644 0.134456,0.21332 0.260888,0.19508 l 0.29819,-0.002 1.38854,4.67308 0.200395,-0.029 -0.617829,-4.3386 c -0.02982,-0.20942 0.11862,-0.40923 0.328045,-0.43905 l 0.780269,-0.11115 c 0.209425,-0.0299 0.409464,0.12034 0.439287,0.32977 l 0.617461,4.336 0.568488,-0.0818 -0.614821,-4.31748 c -0.02972,-0.20868 0.12003,-0.40765 0.328722,-0.43738 l 1.547605,-0.22038 c 0.208702,-0.0297 0.4076,0.1196 0.43732,0.3283 l 0.614208,4.31316 0.568485,-0.0818 -0.610156,-4.28471 c -0.02972,-0.20873 0.119984,-0.40765 0.328724,-0.43738 l 2.280884,-0.32481 c 0.208742,-0.0297 0.407594,0.11957 0.437321,0.3283 l 0.609358,4.2791 0.568487,-0.0818 -0.613164,-4.30584 c -0.02972,-0.20869 0.119594,-0.4076 0.328291,-0.43731 l 1.548038,-0.22045 c 0.208701,-0.0297 0.407598,0.11959 0.437317,0.3283 l 0.612551,4.30152 0.568487,-0.0819 -0.614945,-4.31833 c -0.02982,-0.20941 0.120347,-0.40947 0.329772,-0.43929 l 0.780271,-0.11108 c 0.209426,-0.0297 0.409467,0.12036 0.439289,0.32979 l 0.614577,4.31574 0.223672,-0.0323 c 0.104621,-0.0152 0.176895,-0.11195 0.161806,-0.21656 l -0.06061,-4.70957 0.198926,-0.03 c 0.126437,-0.0182 0.21375,-0.13451 0.19551,-0.26096 l -0.699673,-4.85152 c -0.01824,-0.12645 -0.13496,-0.21369 -0.261379,-0.19544 z m -13.035589,7.78388 0.617769,4.33818 0.780032,-0.11279 -0.617524,-4.33645 z m 11.497971,-1.63734 0.614822,4.31747 0.780033,-0.11278 -0.614639,-4.31618 z m -9.378563,1.35537 0.614453,4.31489 1.54725,-0.2229 -0.614086,-4.3123 z m 6.499079,-0.92549 0.612796,4.30325 1.545956,-0.22271 -0.612428,-4.30066 z m -3.607665,0.5454 0.609298,4.27868 2.270807,-0.32763 -0.608745,-4.27479 z"
         sodipodi:nodetypes="cccsscccccccccccccccccccccssssccssssccssssccssssccsssscscccccccccccccccccccccccccccccccc" />
      <path
         style="color:#000000;fill:#ff00ff;stroke-width:0.222943px;-inkscape-stroke:none"
         d="M 27.240502,274.72552 H 42.55502"
         id="path2796" />
      <path
         style="fill:#000000;fill-opacity:1;stroke:#000000;stroke-width:0.222943px;stroke-linecap:butt;stroke-linejoin:miter;stroke-opacity:1"
         d="m 22.464807,260.86137 -9.14852,2.35676 -2.522049,2.79799 7.306669,5.57053 1.241098,-1.09203 3.482656,-0.68154 0.152377,-8.30403 z"
         id="path3985" />
      <path
         id="path7134"
         style="fill:#000000;stroke:#000000;stroke-width:0.222943px;stroke-linecap:butt;stroke-linejoin:miter;stroke-opacity:1"
         d="m 10.802909,266.59816 c -0.649806,0.44352 -1.8731719,1.98891 -2.4523803,3.16953 -0.2401307,0.55933 -0.6591046,7.11248 -0.4924784,7.78213 0.044016,0.24563 0.7579673,1.34438 1.4203943,2.2695 h 1.4330214 c -0.430661,-0.54225 -1.1527727,-1.67735 -1.1186361,-1.9808 0,0 2.1147871,-0.61183 2.5181311,-0.62877 0.0068,-2.9e-4 0.01298,-4.7e-4 0.01872,-4.5e-4 0.01723,1.3e-4 0.02997,0.002 0.03788,0.005 0.221209,0.1033 1.047338,1.69425 1.0076,2.00301 -0.137715,0.16868 -0.751487,0.41175 -1.293247,0.60177 h 1.475695 c 0.133413,0 0.240797,0.10738 0.240797,0.2408 v 0.091 l 0.293049,-0.0931 c 0.175629,-0.28348 0.136297,-0.64712 0.236007,-0.8578 0.180447,-0.28164 5.525763,-3.65441 5.682448,-3.80224 0.174401,-0.1243 0.09606,-0.93663 0.171128,-1.03111 0,0 2.596213,-1.13331 2.680549,-1.32024 0.06582,-0.13797 0.344227,-2.77199 0.13542,-2.77199 -0.208809,0 -3.237038,0.62876 -3.237038,0.62876 l -1.456099,1.2127 z m 0.411487,0.66491 c 0,0 2.288068,1.80428 2.280382,1.74218 0.03315,0.22506 -0.821622,1.57612 -1.112976,1.68513 -0.255437,0.14421 -2.8807437,-0.68424 -2.9661955,-0.87261 -0.065711,-0.28787 1.3533275,-2.39662 1.7987895,-2.5547 z m 3.264469,2.64528 2.118834,1.50748 c 0.05448,0.24139 -0.466958,0.71108 -0.657944,0.74547 -0.27157,0.14866 -2.46912,-0.90328 -2.530758,-1.12866 -0.07427,-0.23073 0.702092,-1.07871 1.069868,-1.12429 z m 7.615788,0.84257 c 0.235314,0.0489 0.328311,1.64311 0.244716,1.85931 -0.346936,0.29839 -2.679679,1.09425 -2.679679,1.09425 -0.276682,0.32815 -0.425357,0.94321 -0.43979,1.16393 -0.137079,0.14555 -1.28149,1.08902 -1.28149,1.08902 -0.154792,-0.0811 -0.552134,-1.00237 -0.552134,-1.00237 -0.04892,-0.13434 -0.233029,-1.85399 -0.1241,-2.03958 l 0.504236,-0.43197 c 0.243468,-0.0726 0.450786,0.0922 0.550827,0 0.332608,-0.15365 0.628434,-0.76473 1.262766,-1.22269 z m -12.7674391,0.0531 c 0.00615,-1.5e-4 0.012884,-1.9e-4 0.020033,0 0.4286499,0.0113 2.6729641,0.57951 2.8098721,0.85432 0.13403,0.46904 0.08855,4.17641 -0.05966,4.42491 -0.171215,0.20911 -2.7261834,0.60406 -2.8259837,0.50946 -0.1716483,-0.167 -0.1872246,-5.48436 0.015243,-5.78303 0.00841,-0.003 0.022095,-0.005 0.040497,-0.006 z m 3.8988991,1.2436 2.614798,0.7716 0.116696,2.20331 -2.926133,0.75461 z m 2.532065,4.21591 c 0.08312,-0.002 0.144527,0.005 0.176788,0.0239 0.157004,0.10442 0.479736,0.74472 0.402778,0.98757 -0.269374,0.34702 -2.158024,1.33288 -2.158024,1.33288 -0.270094,-0.15111 -0.885707,-1.4193 -0.865649,-1.72521 0.213064,-0.13596 1.862254,-0.60493 2.444107,-0.61918 z" />
      <path
         style="fill:#000000;fill-opacity:1;stroke:none;stroke-width:0.222943px;stroke-linecap:butt;stroke-linejoin:miter;stroke-opacity:1"
         d="m 27.222926,263.64082 c 0.394588,-0.046 4.72514,-0.653 4.72514,-0.653 l 0.110212,-0.71491 -1.316839,-0.60644 c -0.621017,-1.12664 -2.542616,-1.31956 -3.553937,0.0624 z"
         id="path11479"
         sodipodi:nodetypes="cccccc" />
      <path
         id="rect11729"
         style="fill:#000000;fill-opacity:1;stroke:none;stroke-width:0.387605;stroke-linecap:round;stroke-miterlimit:4;stroke-dasharray:none"
         d="m 9.0729562,280.16 c -0.1057067,0 -0.1907215,0.085 -0.1907215,0.19072 v 4.34087 c 0,0.10571 0.085016,0.19072 0.1907215,0.19072 h 4.0090648 c 0.105706,0 0.190721,-0.085 0.190721,-0.19072 v -0.15284 h 1.252316 v 0.15284 c 0,0.10571 0.08502,0.19072 0.190721,0.19072 h 4.009066 c 0.105706,0 0.190722,-0.085 0.190722,-0.19072 v -0.15284 h 1.252315 v 0.15284 c 0,0.10571 0.08502,0.19072 0.190722,0.19072 h 0.269536 v -0.81819 c 0,-0.27106 0.220984,-0.49204 0.492043,-0.49204 h 2.486778 c 0.271061,0 0.492046,0.22098 0.492046,0.49204 v 0.81819 h 0.268661 c 0.105709,0 0.190722,-0.085 0.190722,-0.19072 v -0.18942 h 0.931836 c 0.121523,0 0.219024,-0.098 0.219024,-0.21946 v -0.34791 c 0,-0.12152 -0.0975,-0.21902 -0.219024,-0.21902 H 24.55839 v -0.27216 h 1.362047 c 0.121524,0 0.219459,-0.098 0.219459,-0.21945 v -0.34792 c 0,-0.12152 -0.09793,-0.21902 -0.219459,-0.21902 H 24.55839 v -0.27215 h 1.387737 c 0.121525,0 0.219461,-0.098 0.219461,-0.21946 v -0.34791 c 0,-0.12153 -0.09794,-0.21947 -0.219461,-0.21947 H 24.55839 v -0.2717 h 0.85302 c 0.121525,0 0.219027,-0.098 0.219027,-0.21947 v -0.34791 c 0,-0.12153 -0.0975,-0.21946 -0.219027,-0.21946 h -0.85302 v -0.18898 c 0,-0.10571 -0.08502,-0.19072 -0.190722,-0.19072 h -4.009064 c -0.105704,0 -0.190722,0.085 -0.190722,0.19072 v 0.15283 h -1.252315 v -0.15283 c 0,-0.10571 -0.08502,-0.19072 -0.190722,-0.19072 h -4.009066 c -0.105704,0 -0.190721,0.085 -0.190721,0.19072 v 0.15283 h -1.252316 v -0.15283 c 0,-0.10571 -0.08502,-0.19072 -0.190721,-0.19072 z m -0.280858,0.40146 c -1.7997581,0.0702 -1.7843787,3.84419 0,3.8484 z m -0.4506763,0.73894 v 4.4e-4 c 0.00349,-1.5e-4 0.00698,-2e-5 0.010453,0 0.099007,7.6e-4 0.1866769,0.0762 0.2142342,0.19682 0.035276,0.1544 -0.041236,0.32466 -0.1711272,0.38013 -0.1298861,0.0555 -0.5168538,0.16795 -0.5521332,0.0134 -0.035276,-0.1544 0.2946597,-0.51756 0.424552,-0.57303 0.024865,-0.0107 0.049637,-0.0167 0.07402,-0.0179 z m 7.2905171,0.14196 0.09536,0.0113 c 0.947235,0.1235 1.658415,0.29699 2.141042,0.49727 0.241315,0.10012 0.426072,0.20714 0.554747,0.32266 0.128677,0.11551 0.205946,0.24525 0.205961,0.38318 1.6e-5,0.13792 -0.07843,0.26757 -0.207702,0.37883 -0.129273,0.11129 -0.312782,0.21094 -0.554311,0.30219 -0.483058,0.18253 -1.195396,0.32844 -2.142785,0.41672 l -0.09231,0.0103 v -0.39799 h -0.04267 l -0.0148,-0.007 c -0.359189,-0.13964 -0.585545,-0.39291 -0.600467,-0.68451 -0.01492,-0.29158 0.182392,-0.59251 0.589145,-0.82471 l 0.01959,-0.0103 h 0.04919 v -0.30307 z m 0.168078,0.20074 v 1.92549 c 0.876859,-0.0884 1.56845,-0.22241 2.007799,-0.3884 0.229763,-0.0868 0.398751,-0.18148 0.505106,-0.27302 0.106354,-0.0915 0.146317,-0.17429 0.146307,-0.25038 -9e-6,-0.0761 -0.04105,-0.16216 -0.148049,-0.25821 -0.106994,-0.096 -0.276856,-0.19585 -0.506848,-0.29131 -0.439432,-0.18237 -1.128534,-0.34314 -2.004315,-0.46417 z m -0.172869,0.38057 c -0.341371,0.20719 -0.494082,0.44209 -0.483769,0.64358 0.01056,0.20637 0.175357,0.40393 0.483769,0.52818 z m -7.6284144,0.97842 c 0.1334014,2e-4 0.3150674,0.0572 0.3962469,0.0919 0.129884,0.0555 0.2063993,0.22573 0.1711272,0.38014 -0.035276,0.15437 -0.1688182,0.23441 -0.2987094,0.17896 -0.1298923,-0.0554 -0.4598313,-0.41863 -0.424551,-0.57303 0.013232,-0.0578 0.075845,-0.0781 0.1558863,-0.078 z m 13.1214494,0.73937 c -0.180611,0 -0.3244,0.14205 -0.3244,0.32266 v 0.81819 h 3.133402 v -0.81819 c 0,-0.18061 -0.141613,-0.32266 -0.322224,-0.32266 z" />
      <path
         id="path14246"
         style="fill:#000000;fill-opacity:1;stroke:none;stroke-width:0.188368;stroke-linecap:round;stroke-miterlimit:4;stroke-dasharray:none;stroke-opacity:1"
         d="m 22.423408,274.46084 a 2.4730483,2.4850076 0 0 0 -2.473281,2.48503 2.4730483,2.4850076 0 0 0 0.01351,0.24429 l 0.482898,-0.64532 a 1.8449485,1.8449485 0 0 1 1.699946,-1.13039 1.8449485,1.8449485 0 0 1 1.844944,1.84451 1.8449485,1.8449485 0 0 1 -0.198557,0.83081 l -0.275198,1.08205 a 2.4730483,2.4850076 0 0 0 1.378594,-2.22595 2.4730483,2.4850076 0 0 0 -2.472846,-2.48503 z" />
      <path
         id="path4614"
         style="fill:#000000;fill-opacity:1;stroke:none;stroke-width:0.222943px;stroke-linecap:butt;stroke-linejoin:miter;stroke-opacity:1"
         d="m 27.547752,275.51536 -0.717336,0.1504 0.03836,3.64453 0.415408,-0.43021 c 0.08304,0.057 0.181214,0.0875 0.281729,0.0875 0.276265,6e-5 0.500268,-0.2253 0.500316,-0.50336 3.2e-5,-0.10602 -0.03319,-0.20933 -0.09492,-0.29522 l 0.128016,-0.13238 c 0.07839,0.0483 0.168486,0.0739 0.260392,0.0741 0.276266,7e-5 0.500268,-0.2253 0.500316,-0.50336 1.52e-4,-0.0976 -0.02784,-0.19296 -0.08055,-0.27475 l 0.169383,-0.17505 c 0.05017,0.0166 0.102635,0.0251 0.155452,0.0252 0.276263,-1.8e-4 0.500072,-0.22574 0.49988,-0.5038 -1.45e-4,-0.0577 -0.01015,-0.11505 -0.0296,-0.16938 l 0.0148,-0.0153 -1.661959,0.22872 c -0.09362,-0.30016 -0.201073,-0.79191 -0.379678,-1.20769 z"
         sodipodi:nodetypes="ccccsccccccccccccc" />
      <path
         id="path9117"
         style="fill:#000000;stroke:none;stroke-width:0.222943px;stroke-linecap:butt;stroke-linejoin:miter;stroke-opacity:1"
         d="m 51.260202,268.76968 c 0.330331,0.48389 0.324746,1.90082 -1.106008,2.46674 -0.348668,0.14414 -7.802748,-0.5451 -8.07474,-0.73762 l 0.03057,1.75002 c 0.09842,0.22217 3.86753,-0.13559 4.268068,0.23905 0.400333,0.34814 -0.0401,2.90236 0.286082,3.74215 0.694977,0.002 4.849187,-0.96272 7.815217,-1.67295 0.53837,0.26237 1.337959,0.55895 1.987768,0.41148 0.504435,-0.15139 0.757818,-0.65533 0.885242,-1.10862 0.05165,-0.0127 0.178094,-0.0435 0.178094,-0.0435 0.755801,-0.52436 0.852836,-2.29181 0.391024,-3.24139 z"
         sodipodi:nodetypes="cccccccccccc" />
      <path
         style="fill:#000000;fill-opacity:1;stroke:none;stroke-width:0.222943px;stroke-linecap:butt;stroke-linejoin:miter;stroke-opacity:1"
         d="m 42.116655,272.67253 c 0.533447,0.0764 3.757045,-0.36668 4.180299,0.15169 0.204168,0.22886 -0.200641,2.50147 0.05338,3.2141 0,0 -0.414819,-0.81645 -0.694938,-0.99224 -1.002531,-0.63384 -3.530449,-0.96772 -3.530449,-0.96772 z"
         id="path10487"
         sodipodi:nodetypes="cccccc" />
      <path
         style="fill:#000000;fill-opacity:1;stroke:none;stroke-width:0.222943px;stroke-linecap:butt;stroke-linejoin:miter;stroke-opacity:1"
         d="m 46.667034,276.65287 c 0.368769,0.30304 1.650366,2.1657 1.706639,2.6555 1.112205,-0.2545 2.786674,-1.66403 2.364147,-2.63535 0.266429,-0.26957 0.356879,-1.14194 0.356879,-1.14194 z"
         id="path11957"
         sodipodi:nodetypes="ccccc" />
      <path
         style="fill:#000000;fill-opacity:1;stroke:#000000;stroke-width:0.222943px;stroke-linecap:butt;stroke-linejoin:miter;stroke-opacity:1"
         d="m 48.338472,278.64074 0.380069,0.86322 c 0.544075,0.2068 0.946498,-0.40641 0.909501,-0.54433 l -0.645767,-0.68677 z"
         id="path12449"
         sodipodi:nodetypes="ccccc" />
      <path
         style="display:inline;fill:#000000;fill-opacity:1;stroke:#000000;stroke-width:0.222943px;stroke-linecap:butt;stroke-linejoin:miter;stroke-opacity:1"
         d="m 49.371503,278.03595 0.601273,0.72668 c 0.579863,0.0505 0.799611,-0.64934 0.726371,-0.77192 l -0.808713,-0.48441 z"
         id="path12449-9"
         sodipodi:nodetypes="ccccc" />
      <path
         style="display:inline;fill:#000000;fill-opacity:1;stroke:#000000;stroke-width:0.222943px;stroke-linecap:butt;stroke-linejoin:miter;stroke-opacity:1"
         d="m 49.955791,277.37986 0.897818,0.28902 c 0.515932,-0.26944 0.324618,-0.97757 0.196931,-1.04149 l -0.942314,0.0268 z"
         id="path12449-9-1"
         sodipodi:nodetypes="ccccc" />
      <path
         id="path13720"
         style="fill:#000000;fill-opacity:1;stroke:none;stroke-width:0.194646;stroke-linecap:round;stroke-miterlimit:4;stroke-dasharray:none;stroke-opacity:1"
         d="m 50.426341,267.41721 c -0.0091,5.4e-4 -0.01812,0.002 -0.027,0.003 -0.282139,0.0564 -0.38837,0.71665 -0.237312,1.47482 0.151111,0.75827 0.502381,1.32748 0.784656,1.27148 0.152492,-0.0618 0.315051,-0.76389 0.163855,-1.52229 -0.145631,-0.7304 -0.476253,-1.2322 -0.684201,-1.2275 z m 0.08753,0.47245 c 0.136535,0.0126 0.313822,0.38446 0.407567,0.85477 0.09941,0.49884 0.0688,0.92536 -0.06837,0.95273 -0.137193,0.0274 -0.329039,-0.35495 -0.428469,-0.85389 -0.09941,-0.49884 -0.0688,-0.92538 0.06837,-0.95274 0.0068,-0.001 0.01376,-0.002 0.02089,-8.7e-4 z"
         sodipodi:nodetypes="cccccccccscc" />
    </g>
  </g>
</svg>
