<?xml version="1.0" encoding="UTF-8" standalone="no"?>
<!-- Created with Inkscape (http://www.inkscape.org/) -->

<svg
   width="60mm"
   height="42mm"
   viewBox="0 0 60 42"
   version="1.1"
   id="svg8"
   inkscape:version="1.1.2 (0a00cf5339, 2022-02-04)"
   sodipodi:docname="JES II.svg"
   xmlns:inkscape="http://www.inkscape.org/namespaces/inkscape"
   xmlns:sodipodi="http://sodipodi.sourceforge.net/DTD/sodipodi-0.dtd"
   xmlns="http://www.w3.org/2000/svg"
   xmlns:svg="http://www.w3.org/2000/svg"
   xmlns:rdf="http://www.w3.org/1999/02/22-rdf-syntax-ns#"
   xmlns:cc="http://creativecommons.org/ns#"
   xmlns:dc="http://purl.org/dc/elements/1.1/">
  <defs
     id="defs2">
    <inkscape:path-effect
       effect="copy_rotate"
       starting_point="62.825012,51.902842"
       origin="61.825012,51.902842"
       id="path-effect2032"
       is_visible="true"
       lpeversion="1"
       method="normal"
       num_copies="19"
       starting_angle="0"
       rotation_angle="18.947368"
       gap="-0.01"
       copies_to_360="true"
       mirror_copies="false"
       split_items="false" />
    <inkscape:path-effect
       effect="copy_rotate"
       starting_point="62.81794,52.034264"
       origin="61.825012,52.034264"
       id="path-effect1183"
       is_visible="true"
       lpeversion="1"
       method="normal"
       num_copies="19"
       starting_angle="0"
       rotation_angle="18.947368"
       gap="-0.01"
       copies_to_360="true"
       mirror_copies="false"
       split_items="false" />
    <inkscape:path-effect
       effect="copy_rotate"
       starting_point="64.010074,52.034264"
       origin="61.825012,52.034264"
       id="path-effect2800"
       is_visible="true"
       lpeversion="1"
       method="normal"
       num_copies="8"
       starting_angle="0"
       rotation_angle="45"
       gap="-0.01"
       copies_to_360="true"
       mirror_copies="false"
       split_items="false" />
    <inkscape:path-effect
       effect="copy_rotate"
       starting_point="62.825012,51.902842"
       origin="61.825012,51.902842"
       id="path-effect2032-8"
       is_visible="true"
       lpeversion="1"
       method="normal"
       num_copies="19"
       starting_angle="0"
       rotation_angle="18.947368"
       gap="-0.01"
       copies_to_360="true"
       mirror_copies="false"
       split_items="false" />
    <inkscape:path-effect
       effect="copy_rotate"
       starting_point="62.81794,52.034264"
       origin="61.825012,52.034264"
       id="path-effect1183-9"
       is_visible="true"
       lpeversion="1"
       method="normal"
       num_copies="19"
       starting_angle="0"
       rotation_angle="18.947368"
       gap="-0.01"
       copies_to_360="true"
       mirror_copies="false"
       split_items="false" />
    <inkscape:path-effect
       effect="copy_rotate"
       starting_point="64.010074,52.034264"
       origin="61.825012,52.034264"
       id="path-effect2800-6"
       is_visible="true"
       lpeversion="1"
       method="normal"
       num_copies="8"
       starting_angle="0"
       rotation_angle="45"
       gap="-0.01"
       copies_to_360="true"
       mirror_copies="false"
       split_items="false" />
    <inkscape:path-effect
       effect="copy_rotate"
       starting_point="62.825012,51.902842"
       origin="61.825012,51.902842"
       id="path-effect2032-4"
       is_visible="true"
       lpeversion="1"
       method="normal"
       num_copies="19"
       starting_angle="0"
       rotation_angle="18.947368"
       gap="-0.01"
       copies_to_360="true"
       mirror_copies="false"
       split_items="false" />
    <inkscape:path-effect
       effect="copy_rotate"
       starting_point="62.81794,52.034264"
       origin="61.825012,52.034264"
       id="path-effect1183-8"
       is_visible="true"
       lpeversion="1"
       method="normal"
       num_copies="19"
       starting_angle="0"
       rotation_angle="18.947368"
       gap="-0.01"
       copies_to_360="true"
       mirror_copies="false"
       split_items="false" />
    <inkscape:path-effect
       effect="copy_rotate"
       starting_point="64.010074,52.034264"
       origin="61.825012,52.034264"
       id="path-effect2800-8"
       is_visible="true"
       lpeversion="1"
       method="normal"
       num_copies="8"
       starting_angle="0"
       rotation_angle="45"
       gap="-0.01"
       copies_to_360="true"
       mirror_copies="false"
       split_items="false" />
  </defs>
  <sodipodi:namedview
     id="base"
     pagecolor="#ffffff"
     bordercolor="#666666"
     borderopacity="1.0"
     inkscape:pageopacity="0.0"
     inkscape:pageshadow="2"
     inkscape:zoom="2"
     inkscape:cx="71.250001"
     inkscape:cy="155.25"
     inkscape:document-units="mm"
     inkscape:current-layer="layer1"
     showgrid="false"
     inkscape:window-width="1850"
     inkscape:window-height="1016"
     inkscape:window-x="70"
     inkscape:window-y="1107"
     inkscape:window-maximized="1"
     inkscape:snap-global="false"
     showguides="true"
     inkscape:pagecheckerboard="0" />
  <metadata
     id="metadata5">
    <rdf:RDF>
      <cc:Work
         rdf:about="">
        <dc:format>image/svg+xml</dc:format>
        <dc:type
           rdf:resource="http://purl.org/dc/dcmitype/StillImage" />
      </cc:Work>
    </rdf:RDF>
  </metadata>
  <g
     inkscape:label="Capa 1"
     inkscape:groupmode="layer"
     id="layer1"
     transform="translate(0,-255)">
    <g
       id="g13645"
       transform="matrix(0.94224458,0,0,0.94224458,5.6441376,15.477954)">
      <path
         id="rect11170"
         style="fill:#000000;stroke:none;stroke-width:1.75748;stroke-linecap:round;stroke-miterlimit:4;stroke-dasharray:none;stop-color:#000000"
         d="m 120.70117,56.185547 c -0.0106,0.01964 -0.0207,0.03903 -0.0312,0.05859 -0.44525,0.803111 -1.06642,1.433993 -1.83789,1.816406 -0.23827,0.117988 -0.50771,0.138807 -0.78906,0.121094 v 24.355468 h 11.59961 c -0.0186,-0.08378 -0.0351,-0.168355 -0.0488,-0.253906 l -3.00977,-0.0039 h -0.008 c -1.25642,-0.0046 -2.07389,-0.362581 -3.16601,-0.921875 -0.54607,-0.279647 -1.09539,-0.620963 -1.60938,-1.13086 -0.51398,-0.509886 -1.08228,-1.302298 -1.07812,-2.398437 0.004,-1.079131 0.56232,-1.86446 1.07031,-2.369141 0.3027,-0.30073 0.61688,-0.538976 0.93555,-0.740234 -0.31561,-0.203297 -0.62844,-0.431601 -0.92774,-0.728516 -0.51398,-0.509896 -1.08228,-1.304252 -1.07812,-2.40039 0.004,-1.079131 0.56232,-1.864461 1.07031,-2.369141 0.30197,-0.300013 0.61571,-0.537331 0.93359,-0.738281 -0.31491,-0.200932 -0.62712,-0.426374 -0.92578,-0.722656 -0.51398,-0.509859 -1.08228,-1.310112 -1.07812,-2.40625 0.004,-1.079131 0.56232,-1.866414 1.07031,-2.371094 0.48224,-0.485743 0.43201,-0.577802 0.93555,-0.875 l -1.0254,-0.01953 c -0.54948,-0.0073 -0.98885,-0.434251 -0.99218,-0.970703 l -0.01,-1.587891 z m -4.03711,6.921875 c -0.31077,0.308501 -0.66261,0.563448 -1.05078,0.755859 -0.49094,0.243024 -1.11087,0.06432 -1.70508,0.0059 0.36563,0.473688 0.84102,0.906907 0.89453,1.453125 0.084,0.857045 -0.11709,1.722203 -0.5625,2.52539 -0.44524,0.80315 -1.07423,1.441806 -1.8457,1.824219 -0.73895,0.367814 -1.70914,0.485609 -2.56641,0.06445 v 12.800781 h 6.83594 z m -21.136716,3.523437 -0.449219,0.824219 2.480469,1.373047 c 0.883846,0.489978 1.325721,1.424318 1.410156,2.28125 0.08442,0.856932 -0.122953,1.720305 -0.568359,2.523437 -0.445244,0.80315 -1.066418,1.433994 -1.837891,1.816407 -0.493058,0.244535 -1.116115,0.06869 -1.712891,0.0078 0.366229,0.473499 0.846533,0.906492 0.900391,1.453125 0.08442,0.856933 -0.12295,1.722203 -0.568359,2.525391 -0.445248,0.803112 -1.066425,1.433994 -1.837891,1.816406 -0.493058,0.244536 -1.116118,0.06869 -1.712891,0.0078 0.325934,0.4218 0.74175,0.811435 0.867188,1.277343 h 7.740233 V 69.242188 Z m 11.943356,1.810547 -1.57812,2.921875 -1.91992,-1.0625 -0.67969,0.634766 -1.68164,-0.931641 v 12.533203 h 6.84375 V 68.984375 Z M 92.371094,84.292969 c -0.09625,0.321676 -0.229896,0.637881 -0.400391,0.945312 -0.445243,0.80315 -1.07423,1.433994 -1.845703,1.816407 -0.490934,0.243384 -1.110868,0.06432 -1.705078,0.0059 0.365628,0.473688 0.841013,0.908861 0.894531,1.455078 0.0085,0.08634 0.01096,0.173328 0.01367,0.259766 h 16.228517 c 0.41211,-0.811882 1.29588,-1.545152 2.08008,-1.535157 l 37.83398,-0.04883 0.002,-1.248047 h -11.57422 c -1.38988,0 -2.62276,-0.644067 -3.41992,-1.65039 z m 65.820316,1.65039 -0.002,1.248047 h 8.27149 l -0.041,-1.248047 z m -92.601566,1.414063 -6.283203,5.292969 12.34375,-1.933594 z m 23.40625,3.173828 c -0.07118,0.171968 -0.151404,0.342538 -0.244141,0.509766 -0.445243,0.803149 -1.074233,1.439853 -1.845703,1.822265 -0.771473,0.382488 -1.795853,0.49783 -2.679688,0.0078 l -2.24414,-1.240235 -1.542969,2.857422 24.921877,-0.171875 c -0.0263,-0.127189 -0.041,-0.392578 -0.041,-0.392578 V 90.53125 Z m -14.845703,1.570312 -7.951172,1.246094 h 4.099609 c 1.142262,0 2.0625,0.920239 2.0625,2.0625 v 7.226564 c 1.637859,-5.038385 5.845151,-8.389452 6.976563,-8.140626 l 0.949218,-0.0059 -1.802734,-0.998046 -0.679687,0.634765 z m -13.865235,2.173829 -3.570312,0.558593 -1.615235,1.361328 2.488282,10.437498 -3.654297,0.0117 v -0.63672 c 0,-2.03773 -1.640003,-3.67773 -3.677735,-3.67773 H 37.123047 c -2.037732,0 -3.677735,1.64 -3.677735,3.67773 v 0.69727 l -15.753906,0.0469 16.546875,21.4668 h 40.728516 c -0.155056,-0.41541 -0.277632,-0.69589 -0.447266,-1.16992 -0.913958,-2.55394 -2.013466,-5.88979 -3.078125,-9.20508 -2.080714,-6.47925 -3.967181,-12.69953 -4.054687,-12.98828 h -5.378907 c -1.142242,0 -2.062499,-0.92024 -2.0625,-2.0625 v -7.382814 c 0,-0.420151 0.125582,-0.809438 0.339844,-1.134765 z m 11.716797,9.679689 c -0.370585,0.54313 -0.993184,0.90039 -1.703125,0.90039 H 68.4375 c 0.213312,0.70401 1.956368,6.44973 3.957031,12.67969 1.062921,3.30988 2.163498,6.64179 3.070313,9.17578 0.220532,0.61626 0.38065,0.99691 0.574218,1.50781 h 8.101563 c -4.656413,-5.05659 -12.223445,-15.46431 -12.302734,-20.48633 -0.04044,-0.0914 -0.06965,-0.17788 -0.0957,-0.26367 -0.01378,-0.16851 -0.03496,-0.34284 -0.03711,-0.50195 -0.02223,-1.04603 0.08752,-2.05373 0.296875,-3.01172 z"
         transform="matrix(0.26458333,0,0,0.26458333,0,255)" />
      <g
         id="g5868"
         transform="translate(-14.275023)">
        <path
           id="path1740-1-1-8-4"
           style="fill:#000000;stroke:none;stroke-width:0.264583px;stroke-linecap:butt;stroke-linejoin:miter;stroke-opacity:1"
           d="m 47.806606,271.70682 c -0.2499,0.007 -0.993212,0.27918 -0.994434,0.61807 -0.0013,0.34425 0.763643,0.62394 1.001288,0.62481 l 0.735229,9.7e-4 v -1.24112 l -0.730697,-0.003 c -0.0038,-1.9e-4 -0.0075,-3.8e-4 -0.01157,-4.2e-4 z"
           sodipodi:nodetypes="ccsccccc" />
        <path
           id="path1740-1-1-8-6"
           style="fill:#000000;stroke:none;stroke-width:0.264583px;stroke-linecap:butt;stroke-linejoin:miter;stroke-opacity:1"
           d="m 47.806606,273.35712 c -0.2499,0.007 -0.993212,0.27918 -0.994434,0.61807 -0.0013,0.34425 0.763643,0.62394 1.001288,0.62481 l 0.735229,9.7e-4 v -1.24112 l -0.730697,-0.003 c -0.0038,-1.9e-4 -0.0075,-3.8e-4 -0.01157,-4.2e-4 z"
           sodipodi:nodetypes="ccsccccc" />
        <path
           id="path1740-1-1-8-2"
           style="fill:#000000;stroke:none;stroke-width:0.264583px;stroke-linecap:butt;stroke-linejoin:miter;stroke-opacity:1"
           d="m 47.806606,275.00742 c -0.2499,0.007 -0.993212,0.27918 -0.994434,0.61807 -0.0013,0.34425 0.763643,0.62394 1.001288,0.62481 l 0.735229,9.7e-4 v -1.24112 l -0.730697,-0.003 c -0.0038,-1.9e-4 -0.0075,-3.8e-4 -0.01157,-4.2e-4 z"
           sodipodi:nodetypes="ccsccccc" />
      </g>
      <path
         id="rect1100"
         style="fill:#000000;stroke:none;stroke-width:6.82341;stroke-linecap:round;stop-color:#000000"
         d="m 122.49609,40.441406 c -0.4989,0 -0.90039,0.401455 -0.90039,0.900391 v 1.253906 2.310547 l 1.88086,1.103516 c 0.95676,0.560156 1.11766,1.138005 0.91445,2.91605 l 10.5727,9.4277 h 16.0734 V 42.595703 41.341797 c 0,-0.498936 -0.40344,-0.900391 -0.90234,-0.900391 h -0.51758 c -0.49892,0 -0.90039,0.401455 -0.90039,0.900391 v 0.384765 h -5.00196 v -0.384765 c 0,-0.498936 -0.27651,-0.900391 -0.61914,-0.900391 -0.34261,0 -0.61718,0.401455 -0.61718,0.900391 v 0.384765 h -3.86914 v -0.384765 c 0,-0.498936 -0.4015,-0.900391 -0.9004,-0.900391 h -2.7871 c -0.49891,0 -0.9004,0.401455 -0.9004,0.900391 v 0.384765 h -3.86914 v -0.384765 c 0,-0.498936 -0.27457,-0.900391 -0.61718,-0.900391 -0.34262,0 -0.61914,0.401455 -0.61914,0.900391 v 0.384765 h -5.00196 v -0.384765 c 0,-0.498936 -0.40149,-0.900391 -0.90039,-0.900391 z m -0.90039,13.04261 v 5.443718 1.253907 c 0,0.498897 0.40149,0.902343 0.90039,0.902343 h 0.51758 c 0.4989,0 0.90039,-0.403446 0.90039,-0.902343 l 5.27929,0.0021 c -2.59066,-2.058244 -4.91678,-4.614535 -7.59765,-6.69971 z"
         transform="matrix(0.26458333,0,0,0.26458333,0,255)"
         sodipodi:nodetypes="sscccccccssssccsssccssssccsssccsssccsssccc" />
      <path
         id="rect7230"
         style="fill:#000000;stroke:none;stroke-width:3.64724;stroke-linecap:round;stroke-miterlimit:4;stroke-dasharray:none;stop-color:#000000"
         d="m 62.457031,94.283203 c -0.883137,0 -1.59375,0.710613 -1.59375,1.59375 v 6.449217 c 0,0.88314 0.710613,1.59375 1.59375,1.59375 h 7.390625 c 0.883137,0 1.595703,-0.71061 1.595703,-1.59375 v -6.449217 c 0,-0.883137 -0.712566,-1.59375 -1.595703,-1.59375 z m 6.753907,1.796875 a 0.49999937,0.49999937 0 0 1 0.392578,0.179688 0.49999937,0.49999937 0 0 1 -0.06641,0.708984 l -6.134765,5.04102 a 0.49999937,0.49999937 0 0 1 -0.701172,-0.0742 0.49999937,0.49999937 0 0 1 0.06641,-0.70117 l 6.134766,-5.041021 a 0.49999937,0.49999937 0 0 1 0.308594,-0.113281 z"
         transform="matrix(0.26458333,0,0,0.26458333,0,255)" />
      <path
         style="color:#000000;fill:#000000;-inkscape-stroke:none"
         d="m 15.820712,277.34757 -3.125399,2.49423 0.923828,2.80273 0.916015,-0.30078 -0.71289,-2.16797 2.917968,-2.33203 z"
         id="path6864"
         sodipodi:nodetypes="ccccccc" />
      <g
         id="g895"
         transform="matrix(0.21439813,0,0,0.21439813,0.28301476,274.74083)">
        <circle
           style="fill:#000000;stroke:none;stroke-width:3.87714;stroke-linecap:round;stroke-miterlimit:4;stroke-dasharray:none;stop-color:#000000"
           id="path2306"
           cx="61.825012"
           cy="51.772316"
           r="19.375416" />
        <circle
           style="fill:#ffff00;stroke:#ffffff;stroke-width:3.68847;stroke-linecap:round;stroke-miterlimit:4;stroke-dasharray:none;stop-color:#000000"
           id="path2202"
           cx="61.825012"
           cy="51.772316"
           r="14.905806" />
        <path
           style="fill:#ffffff;stroke:#ffffff;stroke-width:3.765;stroke-linecap:round;stroke-linejoin:miter;stroke-miterlimit:4;stroke-dasharray:none;stroke-opacity:1"
           d="m 61.825012,32.76227 v 7.974309 m -6.214934,-6.93722 2.589254,7.542239 m -8.130703,-4.543357 4.897922,6.292851 m -9.165384,-1.657151 6.675824,4.361534 m -9.206855,1.408634 7.730298,1.957577 m -8.250619,4.321772 7.947072,-0.658513 m -6.4003,6.766577 7.302659,-3.203243 m -3.85641,8.47812 5.866889,-5.400853 m -0.894618,9.270927 3.795351,-7.013196 m 2.164119,9.059085 1.312529,-7.86555 m 4.988341,7.86555 -1.312529,-7.86555 m 7.271999,5.819661 -3.795351,-7.013196 m 8.767622,3.143122 -5.866889,-5.400853 m 9.313138,0.125976 -7.302659,-3.203243 m 8.849431,-2.904821 -7.947072,-0.658513 m 7.426751,-5.620836 -7.730298,1.957577 m 5.199267,-7.727745 -6.675824,4.361534 m 2.408362,-8.997234 -4.897922,6.292851 m -0.643527,-9.291733 -2.589254,7.542239"
           id="path1816"
           inkscape:path-effect="#path-effect2032"
           inkscape:original-d="m 61.825012,32.76227 v 7.974309" />
        <path
           style="fill:none;stroke:#000000;stroke-width:2.265;stroke-linecap:round;stroke-linejoin:miter;stroke-miterlimit:4;stroke-dasharray:none;stroke-opacity:1"
           d="m 61.825012,32.76227 v 9.21661 m -6.257606,-8.1724 2.992628,8.717228 m -8.572126,-5.697755 5.660959,7.2732 m -9.957722,-2.605671 7.715837,5.041008 m -10.264246,0.768779 8.934584,2.262544 m -9.458478,4.05992 9.18513,-0.761102 m -7.627738,6.911105 8.440326,-3.70227 m -4.970415,9.013364 6.780881,-6.24224 m -1.774469,10.138887 4.386621,-8.105767 m 1.613768,10.165703 1.517004,-9.090907 m 4.827128,9.090907 -1.517004,-9.090907 m 7.517393,7.030971 -4.386621,-8.105767 m 9.393033,4.20912 -6.780881,-6.24224 m 10.250792,0.931146 -8.440326,-3.70227 m 9.997718,-2.447733 -9.18513,-0.761102 m 8.661236,-5.561362 -8.934584,2.262544 m 6.386175,-8.072331 -7.715837,5.041008 m 3.419074,-9.708537 -5.660959,7.2732 m 0.08146,-10.292673 -2.992628,8.717228"
           id="path983"
           sodipodi:nodetypes="cc"
           inkscape:path-effect="#path-effect1183"
           inkscape:original-d="m 61.825012,32.76227 v 9.21661" />
        <circle
           style="fill:#000000;stroke-width:0.919478;-inkscape-stroke:none;stop-color:#000000"
           id="path846"
           cx="61.825012"
           cy="51.772316"
           r="14.971815" />
        <path
           style="fill:#ffffff;stroke:none;stroke-width:3.48423;stroke-linecap:round;stroke-miterlimit:4;stroke-dasharray:none;stop-color:#000000"
           id="path2674"
           inkscape:path-effect="#path-effect2800"
           sodipodi:type="arc"
           sodipodi:cx="61.825012"
           sodipodi:cy="41.978882"
           sodipodi:rx="2.1850624"
           sodipodi:ry="2.1850624"
           d="m 64.010075,41.978882 c 0,1.206776 -0.978286,2.185062 -2.185063,2.185062 -1.206776,0 -2.185062,-0.978286 -2.185062,-2.185062 0,-1.206777 0.978286,-2.185063 2.185062,-2.185063 1.206777,0 2.185063,0.978286 2.185063,2.185063 z m -7.750219,1.40008 c 0.85332,0.85332 0.85332,2.236825 0,3.090145 -0.85332,0.85332 -2.236825,0.85332 -3.090145,0 -0.85332,-0.85332 -0.85332,-2.236825 0,-3.090145 0.85332,-0.853319 2.236825,-0.853319 3.090145,0 z m -4.490226,6.470239 c 1.206776,0 2.185062,0.978286 2.185062,2.185063 0,1.206776 -0.978286,2.185062 -2.185062,2.185062 -1.206777,0 -2.185063,-0.978286 -2.185063,-2.185062 0,-1.206777 0.978286,-2.185063 2.185063,-2.185063 z m 1.40008,7.750219 c 0.85332,-0.85332 2.236825,-0.85332 3.090145,0 0.85332,0.85332 0.85332,2.236825 0,3.090145 -0.85332,0.85332 -2.236825,0.85332 -3.090145,0 -0.853319,-0.85332 -0.853319,-2.236825 0,-3.090145 z m 6.470239,4.490226 c 0,-1.206776 0.978286,-2.185062 2.185063,-2.185062 1.206776,0 2.185062,0.978286 2.185062,2.185062 0,1.206777 -0.978286,2.185063 -2.185062,2.185063 -1.206777,0 -2.185063,-0.978286 -2.185063,-2.185063 z m 7.750219,-1.40008 c -0.85332,-0.85332 -0.85332,-2.236825 0,-3.090145 0.85332,-0.85332 2.236825,-0.85332 3.090145,0 0.85332,0.85332 0.85332,2.236825 0,3.090145 -0.85332,0.853319 -2.236825,0.853319 -3.090145,0 z m 4.490226,-6.470239 c -1.206776,0 -2.185062,-0.978286 -2.185062,-2.185063 0,-1.206776 0.978286,-2.185062 2.185062,-2.185062 1.206777,0 2.185063,0.978286 2.185063,2.185062 0,1.206777 -0.978286,2.185063 -2.185063,2.185063 z m -1.40008,-7.750219 c -0.85332,0.85332 -2.236825,0.85332 -3.090145,0 -0.85332,-0.85332 -0.85332,-2.236825 0,-3.090145 0.85332,-0.85332 2.236825,-0.85332 3.090145,0 0.853319,0.85332 0.853319,2.236825 0,3.090145 z" />
      </g>
      <path
         style="color:#000000;fill:#000000;fill-rule:evenodd;stroke-width:0.524881;-inkscape-stroke:none"
         d="m 30.338244,285.43254 a 2.2622637,2.2622637 0 0 1 -2.262264,2.26226 2.2622637,2.2622637 0 0 1 -2.262264,-2.26226 2.2622637,2.2622637 0 0 1 2.262264,-2.26226 2.2622637,2.2622637 0 0 1 2.262264,2.26226 z"
         id="path11-8" />
      <path
         style="color:#000000;fill:#000000;fill-rule:evenodd;stroke-width:0.0712463;-inkscape-stroke:none"
         d="m 28.07598,282.2149 c -1.773073,0 -3.217638,1.44457 -3.217638,3.21764 0,1.77306 1.444565,3.21763 3.217638,3.21763 1.773073,0 3.217636,-1.44457 3.217636,-3.21763 0,-1.77307 -1.444563,-3.21764 -3.217636,-3.21764 z m 0,0.66891 c 1.411554,0 2.548588,1.13717 2.548588,2.54873 0,1.41155 -1.137034,2.54872 -2.548588,2.54872 -1.411555,0 -2.548728,-1.13717 -2.548728,-2.54872 0,-1.41156 1.137173,-2.54873 2.548728,-2.54873 z"
         id="path13-8" />
      <circle
         style="fill:#ffffff;stroke-width:0.0235778"
         id="path65-7-3-2-9"
         cx="26.534592"
         cy="285.43253"
         r="0.43475959" />
      <circle
         style="fill:#ffffff;stroke-width:0.0235778"
         id="path65-7-3-2-2-77"
         cx="29.617367"
         cy="285.43253"
         r="0.43475959" />
      <circle
         style="fill:#ffffff;stroke-width:0.0235778"
         id="path65-7-3-2-23-6"
         cx="283.89114"
         cy="-28.075979"
         r="0.43475959"
         transform="rotate(90)" />
      <circle
         style="fill:#ffffff;stroke-width:0.0235778"
         id="path65-7-3-2-2-7-4"
         cx="286.97391"
         cy="-28.075979"
         r="0.43475959"
         transform="rotate(90)" />
      <circle
         style="fill:#ffffff;stroke-width:0.0235778"
         id="path65-7-3-5-1-6-3"
         cx="284.3981"
         cy="-27.008663"
         r="0.43475959"
         transform="rotate(90)" />
      <circle
         style="fill:#ffffff;stroke-width:0.0235778"
         id="path65-7-3-5-2-1-0"
         cx="284.3981"
         cy="-29.150932"
         r="0.43475959"
         transform="rotate(90)" />
      <circle
         style="fill:#ffffff;stroke-width:0.0235778"
         id="path65-7-3-5-1-6-7-3"
         cx="286.46701"
         cy="-27.008663"
         r="0.43475959"
         transform="rotate(90)" />
      <circle
         style="fill:#ffffff;stroke-width:0.0235778"
         id="path65-7-3-5-2-1-9-0"
         cx="286.46701"
         cy="-29.150932"
         r="0.43475959"
         transform="rotate(90)" />
      <path
         style="color:#000000;fill:#000000;fill-rule:evenodd;stroke-width:0.288931;-inkscape-stroke:none"
         d="m 24.706531,283.81437 a 1.2453119,1.2453119 0 0 1 -1.245312,1.24531 1.2453119,1.2453119 0 0 1 -1.245312,-1.24531 1.2453119,1.2453119 0 0 1 1.245312,-1.2453 1.2453119,1.2453119 0 0 1 1.245312,1.2453 z"
         id="path11-9-9" />
      <path
         style="color:#000000;fill:#000000;fill-rule:evenodd;stroke-width:0.0392192;-inkscape-stroke:none"
         d="m 23.461219,282.04316 c -0.976027,0 -1.771218,0.79519 -1.771218,1.77121 0,0.97603 0.795191,1.77122 1.771218,1.77122 0.976026,0 1.771218,-0.79519 1.771218,-1.77122 0,-0.97602 -0.795192,-1.77121 -1.771218,-1.77121 z m 0,0.36821 c 0.777021,0 1.402926,0.62598 1.402926,1.403 0,0.77703 -0.625905,1.403 -1.402926,1.403 -0.777021,0 -1.403002,-0.62597 -1.403002,-1.403 0,-0.77702 0.625981,-1.403 1.403002,-1.403 z"
         id="path13-2-2" />
      <circle
         style="fill:#ffffff;stroke-width:0.0129789"
         id="path65-7-3-2-28-5"
         cx="22.61273"
         cy="283.81436"
         r="0.23932281" />
      <circle
         style="fill:#ffffff;stroke-width:0.0129789"
         id="path65-7-3-2-2-9-4"
         cx="24.30971"
         cy="283.81436"
         r="0.23932281" />
      <circle
         style="fill:#ffffff;stroke-width:0.0129789"
         id="path65-7-3-2-23-7-0"
         cx="282.96585"
         cy="-23.46122"
         r="0.23932281"
         transform="rotate(90)" />
      <circle
         style="fill:#ffffff;stroke-width:0.0129789"
         id="path65-7-3-2-2-7-3-59"
         cx="284.66284"
         cy="-23.46122"
         r="0.23932281"
         transform="rotate(90)" />
      <circle
         style="fill:#ffffff;stroke-width:0.0129789"
         id="path65-7-3-5-1-6-6-46"
         cx="283.2449"
         cy="-22.873692"
         r="0.23932281"
         transform="rotate(90)" />
      <circle
         style="fill:#ffffff;stroke-width:0.0129789"
         id="path65-7-3-5-2-1-1-9"
         cx="283.2449"
         cy="-24.05295"
         r="0.23932281"
         transform="rotate(90)" />
      <circle
         style="fill:#ffffff;stroke-width:0.0129789"
         id="path65-7-3-5-1-6-7-2-2"
         cx="284.38382"
         cy="-22.873692"
         r="0.23932281"
         transform="rotate(90)" />
      <circle
         style="fill:#ffffff;stroke-width:0.0129789"
         id="path65-7-3-5-2-1-9-9-2"
         cx="284.38382"
         cy="-24.05295"
         r="0.23932281"
         transform="rotate(90)" />
      <path
         style="fill:none;stroke:#000000;stroke-width:0.853744;stroke-linecap:butt;stroke-linejoin:miter;stroke-miterlimit:4;stroke-dasharray:3.41499, 0.853744;stroke-dashoffset:3.41499;stroke-opacity:1"
         d="m 21.609171,281.3628 c -0.363473,-0.0682 -1.411978,0.64833 -1.372382,2.23888 0.02663,1.68667 3.36212,5.7115 3.942474,5.90905 h 18.065088 c 0.473206,-0.14665 3.141957,-3.87716 3.564962,-5.24926 0.192047,-0.9155 -0.264092,-3.08983 -0.886504,-3.11145 z"
         id="path2051-0"
         sodipodi:nodetypes="ccccccc" />
      <g
         id="g1565"
         transform="matrix(-1,0,0,1,77.882235,9.6605818)">
        <path
           style="color:#000000;fill:#000000;fill-rule:evenodd;stroke-width:0.524881;-inkscape-stroke:none"
           d="m 41.714924,275.82259 a 2.2622637,2.2622637 0 0 1 -2.262264,2.26226 2.2622637,2.2622637 0 0 1 -2.262264,-2.26226 2.2622637,2.2622637 0 0 1 2.262264,-2.26226 2.2622637,2.2622637 0 0 1 2.262264,2.26226 z"
           id="path11-8-0" />
        <path
           style="color:#000000;fill:#000000;fill-rule:evenodd;stroke-width:0.0712463;-inkscape-stroke:none"
           d="m 39.45266,272.60495 c -1.773073,0 -3.217638,1.44457 -3.217638,3.21764 0,1.77306 1.444565,3.21763 3.217638,3.21763 1.773073,0 3.217636,-1.44457 3.217636,-3.21763 0,-1.77307 -1.444563,-3.21764 -3.217636,-3.21764 z m 0,0.66891 c 1.411554,0 2.548588,1.13717 2.548588,2.54873 0,1.41155 -1.137034,2.54872 -2.548588,2.54872 -1.411555,0 -2.548728,-1.13717 -2.548728,-2.54872 0,-1.41156 1.137173,-2.54873 2.548728,-2.54873 z"
           id="path13-8-9" />
        <circle
           style="fill:#ffffff;stroke-width:0.0235778"
           id="path65-7-3-2-9-2"
           cx="37.91127"
           cy="275.82257"
           r="0.43475959" />
        <circle
           style="fill:#ffffff;stroke-width:0.0235778"
           id="path65-7-3-2-2-77-5"
           cx="40.994045"
           cy="275.82257"
           r="0.43475959" />
        <circle
           style="fill:#ffffff;stroke-width:0.0235778"
           id="path65-7-3-2-23-6-4"
           cx="274.28119"
           cy="-39.45266"
           r="0.43475959"
           transform="rotate(90)" />
        <circle
           style="fill:#ffffff;stroke-width:0.0235778"
           id="path65-7-3-2-2-7-4-0"
           cx="277.36395"
           cy="-39.45266"
           r="0.43475959"
           transform="rotate(90)" />
        <circle
           style="fill:#ffffff;stroke-width:0.0235778"
           id="path65-7-3-5-1-6-3-5"
           cx="274.78815"
           cy="-38.385342"
           r="0.43475959"
           transform="rotate(90)" />
        <circle
           style="fill:#ffffff;stroke-width:0.0235778"
           id="path65-7-3-5-2-1-0-9"
           cx="274.78815"
           cy="-40.527611"
           r="0.43475959"
           transform="rotate(90)" />
        <circle
           style="fill:#ffffff;stroke-width:0.0235778"
           id="path65-7-3-5-1-6-7-3-4"
           cx="276.85706"
           cy="-38.385342"
           r="0.43475959"
           transform="rotate(90)" />
        <circle
           style="fill:#ffffff;stroke-width:0.0235778"
           id="path65-7-3-5-2-1-9-0-6"
           cx="276.85706"
           cy="-40.527611"
           r="0.43475959"
           transform="rotate(90)" />
        <path
           style="color:#000000;fill:#000000;fill-rule:evenodd;stroke-width:0.288931;-inkscape-stroke:none"
           d="m 36.083211,274.20442 a 1.2453119,1.2453119 0 0 1 -1.245312,1.24531 1.2453119,1.2453119 0 0 1 -1.245312,-1.24531 1.2453119,1.2453119 0 0 1 1.245312,-1.2453 1.2453119,1.2453119 0 0 1 1.245312,1.2453 z"
           id="path11-9-9-9" />
        <path
           style="color:#000000;fill:#000000;fill-rule:evenodd;stroke-width:0.0392192;-inkscape-stroke:none"
           d="m 34.837899,272.43321 c -0.976027,0 -1.771218,0.79519 -1.771218,1.77121 0,0.97603 0.795191,1.77122 1.771218,1.77122 0.976026,0 1.771218,-0.79519 1.771218,-1.77122 0,-0.97602 -0.795192,-1.77121 -1.771218,-1.77121 z m 0,0.36821 c 0.777021,0 1.402926,0.62598 1.402926,1.403 0,0.77703 -0.625905,1.403 -1.402926,1.403 -0.777021,0 -1.403002,-0.62597 -1.403002,-1.403 0,-0.77702 0.625981,-1.403 1.403002,-1.403 z"
           id="path13-2-2-2" />
        <circle
           style="fill:#ffffff;stroke-width:0.0129789"
           id="path65-7-3-2-28-5-2"
           cx="33.98941"
           cy="274.20441"
           r="0.23932281" />
        <circle
           style="fill:#ffffff;stroke-width:0.0129789"
           id="path65-7-3-2-2-9-4-4"
           cx="35.68639"
           cy="274.20441"
           r="0.23932281" />
        <circle
           style="fill:#ffffff;stroke-width:0.0129789"
           id="path65-7-3-2-23-7-0-7"
           cx="273.3559"
           cy="-34.837898"
           r="0.23932281"
           transform="rotate(90)" />
        <circle
           style="fill:#ffffff;stroke-width:0.0129789"
           id="path65-7-3-2-2-7-3-59-7"
           cx="275.05289"
           cy="-34.837898"
           r="0.23932281"
           transform="rotate(90)" />
        <circle
           style="fill:#ffffff;stroke-width:0.0129789"
           id="path65-7-3-5-1-6-6-46-5"
           cx="273.63495"
           cy="-34.25037"
           r="0.23932281"
           transform="rotate(90)" />
        <circle
           style="fill:#ffffff;stroke-width:0.0129789"
           id="path65-7-3-5-2-1-1-9-4"
           cx="273.63495"
           cy="-35.42963"
           r="0.23932281"
           transform="rotate(90)" />
        <circle
           style="fill:#ffffff;stroke-width:0.0129789"
           id="path65-7-3-5-1-6-7-2-2-8"
           cx="274.77386"
           cy="-34.25037"
           r="0.23932281"
           transform="rotate(90)" />
        <circle
           style="fill:#ffffff;stroke-width:0.0129789"
           id="path65-7-3-5-2-1-9-9-2-1"
           cx="274.77386"
           cy="-35.42963"
           r="0.23932281"
           transform="rotate(90)" />
      </g>
      <path
         style="color:#000000;fill:#ffffff;stroke-width:0.486389;-inkscape-stroke:none"
         d="M 43.797745,283.00765 H 31.279833"
         id="path4294-3-85" />
      <path
         style="color:#000000;fill:#ffffff;stroke-width:0.486389;-inkscape-stroke:none"
         d="M 44.455018,284.24752 H 31.937105"
         id="path4294-3-7-0" />
      <path
         style="color:#000000;fill:#ffffff;stroke-width:0.486389;-inkscape-stroke:none"
         d="M 43.904703,286.72726 H 31.38679"
         id="path4294-3-8-6" />
      <path
         style="color:#000000;fill:#ffffff;stroke-width:0.486389;-inkscape-stroke:none"
         d="M 44.167622,285.48739 H 31.64971"
         id="path4294-3-1-4" />
      <path
         id="path2051-8"
         style="fill:#000000;stroke:none;stroke-width:0.743968;stroke-linecap:butt;stroke-linejoin:miter;stroke-miterlimit:4;stroke-dasharray:none;stroke-dashoffset:14.1142;stroke-opacity:1"
         d="m 44.339776,281.842 -9.299819,0.0748 v 6.87002 h 0.309014 v -1.72505 c 0,0 2.233794,-2.66525 2.605819,-4.04962 0.04366,1.29421 1.030708,4.51841 1.046507,5.77467 h 2.910938 c 0.4326,-0.12181 2.664081,-3.54597 3.050792,-4.68569 0.175569,-0.76045 -0.05424,-2.24123 -0.623251,-2.25919 z m -10.103294,0.0815 -2.079901,0.0173 v 0.41275 l 2.079901,-9e-4 z m -2.883479,0.024 -9.070006,0.0141 c -0.332285,-0.0567 -1.290798,0.5385 -1.254599,1.85968 0.02435,1.40103 2.998204,4.81215 3.52876,4.97627 l 2.926,-0.005 c 0.0028,-1.23857 0.926244,-4.46847 0.970175,-5.77094 0.372027,1.38437 2.596802,4.04961 2.596802,4.04961 v 1.71572 l 0.302868,-6.1e-4 z m 2.883479,0.90704 -2.079901,1.6e-4 v 0.60947 l 2.079901,-9e-4 z m -10.66661,0.092 c 0.482235,0.003 1.010545,0.33461 1.010545,0.33461 0,0 0.371699,0.89703 0.430529,1.59775 -0.19658,0.39234 -1.827557,1.42551 -2.186969,1.50326 0,0 0.238655,-2.75112 0.543745,-3.41477 0.06534,-0.015 0.133259,-0.0213 0.20215,-0.0208 z m 19.394915,0 c 0.06889,-3.2e-4 0.136811,0.006 0.202151,0.0208 0.305089,0.66365 0.543847,3.41478 0.543847,3.41478 -0.359414,-0.0777 -1.990492,-1.11093 -2.187072,-1.50327 0.05883,-0.70073 0.430633,-1.59775 0.430633,-1.59775 0,0 0.528206,-0.33162 1.010441,-0.33462 z m -8.728305,1.01847 -2.079901,3e-4 v 0.60946 l 2.079901,-9e-4 z m 0,1.11061 -2.079901,2.9e-4 v 0.60947 l 2.079901,-9e-4 z m 0,1.1106 -2.079901,3.1e-4 v 0.6093 l 2.079901,-9e-4 z m 0,1.11062 -2.079901,1.5e-4 v 0.60947 l 2.079901,-9e-4 z m 0,1.11044 -2.079901,3e-4 v 0.37944 h 2.079901 z" />
      <path
         id="path11627"
         style="fill:#000000;stroke:none;stroke-width:0.999999px;stroke-linecap:butt;stroke-linejoin:miter;stroke-opacity:1"
         d="m 49.15625,78.955078 c -0.127266,0.0498 -0.231786,0.143625 -0.292969,0.263672 l -2.091797,0.02539 0.01367,1.21289 0.714844,0.285157 0.08203,0.982421 c 0.512776,0.0076 1.054229,0.01575 1.595703,0.01953 0.623598,0.0075 0.668758,0.01 1.238282,0.01758 v 4.279297 c 0,1.177335 0.697592,2.18533 1.703125,2.636718 l 5.875,-4.697265 -4.0625,-2.296875 c 0.0042,-0.01301 0.0033,-0.0109 0.0078,-0.02539 z m -2.833984,0.460938 -0.203125,0.0918 h -0.988282 -3.203125 l 0.02734,0.25 0.105469,0.886719 0.964844,0.564453 1.148437,0.128907 c 0.01739,0.0378 0.0112,0.04291 0.04102,0.08789 0.07858,0.118299 0.235849,0.275893 0.466797,0.267578 -0.0018,7.6e-5 0.183547,-8.6e-5 0.443359,0.002 0.0088,8.4e-5 0.02217,-7.9e-5 0.03125,0 v 0.002 c 0.255318,0.0022 0.581992,0.0043 0.978516,0.01172 0.294425,0.0025 0.648506,0.0081 0.99414,0.01563 v -0.002 c 0.01105,2.37e-4 0.02216,-2.41e-4 0.0332,0 l -0.05469,-0.664062 -0.734375,-0.294922 -0.01758,-1.347656 -0.0332,0.01563 z m -7.976563,0.351562 c -0.0096,3.26e-4 -0.01994,8.76e-4 -0.0293,0.002 -0.282179,0.02646 -0.500297,0.262845 -0.501953,0.552735 l -0.0039,0.503906 c -0.0018,0.308787 0.245654,0.558506 0.554687,0.560547 l 4.496094,0.03125 -0.140625,-0.01953 -0.964844,-0.564454 -0.105468,-0.886718 -0.01758,-0.160157 -3.257812,-0.01953 c -0.0096,7.6e-5 -0.01974,-3.26e-4 -0.0293,0 z"
         transform="matrix(0.26458333,0,0,0.26458333,0,255)" />
      <path
         id="path1740"
         style="fill:#000000;stroke:none;stroke-width:0.264583px;stroke-linecap:butt;stroke-linejoin:miter;stroke-opacity:1"
         d="m 24.364895,271.80682 -4.861289,-2.67409 -0.525079,0.23347 -0.319089,-0.17479 -6.359347,5.36415 0.604259,0.33821 -0.04321,0.22117 7.546875,4.24619 0.181389,-0.16536 0.410344,0.2297 3.777401,-6.86964 -0.47292,-0.26075 z m -7.021153,-2.9169 c -0.221695,-0.11555 -1.003385,-0.24006 -1.169552,0.0553 -0.168805,0.30003 0.362923,0.91692 0.570037,1.03345 l 0.231941,0.1305 1.014308,-0.85534 -0.636826,-0.3583 c -0.0032,-0.002 -0.0064,-0.004 -0.0099,-0.006 z m 7.559938,4.25355 -0.59836,1.08878 0.628718,0.35374 c 0.207114,0.11653 0.509587,-0.031 0.678392,-0.33103 0.168806,-0.30002 0.137892,-0.63513 -0.06922,-0.75166 z m -2.200261,-0.71795 a 0.33250002,0.33250002 0 0 1 0.137627,0.21381 0.33250002,0.33250002 0 0 1 -0.269267,0.38689 l -7.662169,1.35867 a 0.33250002,0.33250002 0 0 1 -0.38644,-0.26901 0.33250002,0.33250002 0 0 1 0.270365,-0.38568 l 7.662618,-1.35842 a 0.33250002,0.33250002 0 0 1 0.247266,0.0537 z m -6.775583,-2.31742 c -0.221695,-0.11556 -1.00268,-0.24026 -1.168847,0.0551 -0.168805,0.30002 0.362663,0.91736 0.569784,1.0339 l 0.214375,0.12062 1.014308,-0.85534 -0.61926,-0.34842 c -0.0032,-0.002 -0.0068,-0.004 -0.01036,-0.006 z m 8.130109,4.57435 -0.598812,1.08852 0.613857,0.34538 c 0.207114,0.11653 0.509587,-0.031 0.678392,-0.33102 0.168805,-0.30003 0.137892,-0.63514 -0.06922,-0.75167 z m -0.845933,1.53827 -0.599066,1.08897 0.598995,0.33702 c 0.207114,0.11654 0.509588,-0.031 0.678393,-0.33102 0.168805,-0.30002 0.138145,-0.63559 -0.06897,-0.75212 z m -8.750072,-4.92257 c -0.221697,-0.11556 -1.003131,-0.24051 -1.169298,0.0548 -0.168805,0.30002 0.362662,0.91736 0.569783,1.0339 l 0.248155,0.13962 1.013855,-0.8556 -0.652586,-0.36717 c -0.0032,-0.002 -0.0064,-0.004 -0.0099,-0.006 z m 7.903885,6.4613 -0.599065,1.08897 0.584133,0.32866 c 0.207114,0.11653 0.509588,-0.031 0.678393,-0.33103 0.168805,-0.30002 0.138145,-0.63559 -0.06897,-0.75212 z m -9.335104,-5.25174 c -0.221697,-0.11556 -1.003132,-0.24052 -1.169299,0.0548 -0.168805,0.30002 0.362668,0.91736 0.569784,1.03389 l 0.246353,0.13861 1.014308,-0.85533 -0.651238,-0.36642 c -0.0032,-0.002 -0.0064,-0.004 -0.0099,-0.006 z" />
      <path
         id="path1740-1"
         style="fill:#000000;stroke:none;stroke-width:0.264583px;stroke-linecap:butt;stroke-linejoin:miter;stroke-opacity:1"
         d="m 31.277195,265.70615 -4.861289,-2.67409 -0.525079,0.23347 -0.319089,-0.17479 -6.359347,5.36415 0.604259,0.33821 -0.04321,0.22117 7.546875,4.24619 0.181389,-0.16536 0.410344,0.2297 3.777401,-6.86964 -0.47292,-0.26075 z m -7.021153,-2.9169 c -0.221695,-0.11555 -1.003385,-0.24006 -1.169552,0.0553 -0.168805,0.30003 0.362923,0.91692 0.570037,1.03345 l 0.231941,0.1305 1.014308,-0.85534 -0.636826,-0.3583 c -0.0032,-0.002 -0.0064,-0.004 -0.0099,-0.006 z m 7.559938,4.25355 -0.59836,1.08878 0.628718,0.35374 c 0.207114,0.11653 0.509587,-0.031 0.678392,-0.33103 0.168806,-0.30002 0.137892,-0.63513 -0.06922,-0.75166 z m -2.200261,-0.71795 a 0.33250002,0.33250002 0 0 1 0.137627,0.21381 0.33250002,0.33250002 0 0 1 -0.269267,0.38689 l -7.662169,1.35867 a 0.33250002,0.33250002 0 0 1 -0.38644,-0.26901 0.33250002,0.33250002 0 0 1 0.270365,-0.38568 l 7.662618,-1.35842 a 0.33250002,0.33250002 0 0 1 0.247266,0.0537 z m -6.775583,-2.31742 c -0.221695,-0.11556 -1.00268,-0.24026 -1.168847,0.0551 -0.168805,0.30002 0.362663,0.91736 0.569784,1.0339 l 0.214375,0.12062 1.014308,-0.85534 -0.61926,-0.34842 c -0.0032,-0.002 -0.0068,-0.004 -0.01036,-0.006 z m 8.130109,4.57435 -0.598812,1.08852 0.613857,0.34538 c 0.207114,0.11653 0.509587,-0.031 0.678392,-0.33102 0.168805,-0.30003 0.137892,-0.63514 -0.06922,-0.75167 z m -0.845933,1.53827 -0.599066,1.08897 0.598995,0.33702 c 0.207114,0.11654 0.509588,-0.031 0.678393,-0.33102 0.168805,-0.30002 0.138145,-0.63559 -0.06897,-0.75212 z m -8.750072,-4.92257 c -0.221697,-0.11556 -1.003131,-0.24051 -1.169298,0.0548 -0.168805,0.30002 0.362662,0.91736 0.569783,1.0339 l 0.248155,0.13962 1.013855,-0.8556 -0.652586,-0.36717 c -0.0032,-0.002 -0.0064,-0.004 -0.0099,-0.006 z m 7.903885,6.4613 -0.599065,1.08897 0.584133,0.32866 c 0.207114,0.11653 0.509588,-0.031 0.678393,-0.33103 0.168805,-0.30002 0.138145,-0.63559 -0.06897,-0.75212 z m -9.335104,-5.25174 c -0.221697,-0.11556 -1.003132,-0.24052 -1.169299,0.0548 -0.168805,0.30002 0.362668,0.91736 0.569784,1.03389 l 0.246353,0.13861 1.014308,-0.85533 -0.651238,-0.36642 c -0.0032,-0.002 -0.0064,-0.004 -0.0099,-0.006 z" />
      <path
         id="rect4438"
         style="fill:#000000;stroke:none;stroke-width:2.51339;stroke-linecap:round;stroke-miterlimit:4;stroke-dasharray:none;stop-color:#000000"
         d="m 134.10547,59.990234 c -1.44309,0 -2.63638,1.032485 -2.88281,2.402344 h 41.21875 c -0.24644,-1.369859 -1.43971,-2.402344 -2.88282,-2.402344 z m -2.92969,3.40625 v 5.75 h 41.3125 v -5.75 z m 1.54492,6.90625 v 4.246094 h 38.46289 v -4.246094 z m -1.54492,5.402344 v 5.337891 h 41.3125 v -5.337891 z m 0.0469,6.333984 c 0.24643,1.369859 1.43972,2.402344 2.88281,2.402344 h 35.45312 c 1.44311,0 2.63638,-1.032485 2.88282,-2.402344 z"
         transform="matrix(0.26458333,0,0,0.26458333,0,255)" />
      <g
         id="g5711">
        <path
           id="path1740-1-1-8-5"
           style="fill:#000000;stroke:none;stroke-width:0.264583px;stroke-linecap:butt;stroke-linejoin:miter;stroke-opacity:1"
           d="m 45.856212,271.70613 0.0079,1.24234 0.721395,0.003 c 0.237644,8.7e-4 0.429922,-0.27533 0.431173,-0.61958 0.0013,-0.34425 -0.188998,-0.62184 -0.42664,-0.62271 z"
           sodipodi:nodetypes="cccccc" />
        <path
           id="path1740-1-1-8-5-0"
           style="fill:#000000;stroke:none;stroke-width:0.264583px;stroke-linecap:butt;stroke-linejoin:miter;stroke-opacity:1"
           d="m 45.856212,273.35603 0.0079,1.24234 0.721395,0.003 c 0.237644,8.7e-4 0.429922,-0.27533 0.431173,-0.61958 0.0013,-0.34425 -0.188998,-0.62184 -0.42664,-0.62271 z"
           sodipodi:nodetypes="cccccc" />
        <path
           id="path1740-1-1-8-5-6"
           style="fill:#000000;stroke:none;stroke-width:0.264583px;stroke-linecap:butt;stroke-linejoin:miter;stroke-opacity:1"
           d="m 45.856212,275.00593 0.0079,1.24234 0.721395,0.003 c 0.237644,8.7e-4 0.429922,-0.27533 0.431173,-0.61958 0.0013,-0.34425 -0.188998,-0.62184 -0.42664,-0.62271 z"
           sodipodi:nodetypes="cccccc" />
      </g>
      <rect
         style="fill:#000000;stroke:none;stroke-width:0.665001;stroke-linecap:round;stroke-miterlimit:4;stroke-dasharray:none;stop-color:#000000"
         id="rect5975"
         width="17.009281"
         height="1.7828652"
         x="28.289455"
         y="278.50153"
         ry="0.42177597" />
      <rect
         style="fill:#000000;stroke:none;stroke-width:0.665001;stroke-linecap:round;stroke-miterlimit:4;stroke-dasharray:none;stop-color:#000000"
         id="rect5977"
         width="2.6149323"
         height="2.0313723"
         x="38.864758"
         y="277.69833"
         ry="0.18630683" />
      <path
         id="path8221"
         style="color:#000000;fill:#000000;stroke-width:3.77953;-inkscape-stroke:none"
         d="m 123.90625,49.869141 c -0.0634,0.181255 -0.14375,0.362592 -0.24414,0.541015 -0.47761,0.848885 -1.23727,1.376339 -1.91797,1.402344 l 8.66016,7.648438 c 0.46423,-0.66701 1.23551,-1.103516 2.11328,-1.103516 h 1.00781 z"
         transform="matrix(0.26458333,0,0,0.26458333,0,255)" />
    </g>
  </g>
</svg>
