<?xml version="1.0" encoding="UTF-8" standalone="no"?>
<!-- Created with Inkscape (http://www.inkscape.org/) -->

<svg
   width="60mm"
   height="42mm"
   viewBox="0 0 60 42"
   version="1.1"
   id="svg8"
   inkscape:version="1.2.2 (b0a8486541, 2022-12-01)"
   sodipodi:docname="Joust BE701.svg"
   xmlns:inkscape="http://www.inkscape.org/namespaces/inkscape"
   xmlns:sodipodi="http://sodipodi.sourceforge.net/DTD/sodipodi-0.dtd"
   xmlns="http://www.w3.org/2000/svg"
   xmlns:svg="http://www.w3.org/2000/svg"
   xmlns:rdf="http://www.w3.org/1999/02/22-rdf-syntax-ns#"
   xmlns:cc="http://creativecommons.org/ns#"
   xmlns:dc="http://purl.org/dc/elements/1.1/">
  <defs
     id="defs2" />
  <sodipodi:namedview
     id="base"
     pagecolor="#ffffff"
     bordercolor="#666666"
     borderopacity="1.0"
     inkscape:pageopacity="0.0"
     inkscape:pageshadow="2"
     inkscape:zoom="2.8284271"
     inkscape:cx="121.44559"
     inkscape:cy="63.63961"
     inkscape:document-units="mm"
     inkscape:current-layer="layer1"
     showgrid="false"
     inkscape:window-width="1920"
     inkscape:window-height="1043"
     inkscape:window-x="1920"
     inkscape:window-y="1080"
     inkscape:window-maximized="1"
     inkscape:snap-global="false"
     showguides="false"
     inkscape:pagecheckerboard="0"
     inkscape:showpageshadow="2"
     inkscape:deskcolor="#d1d1d1" />
  <metadata
     id="metadata5">
    <rdf:RDF>
      <cc:Work
         rdf:about="">
        <dc:format>image/svg+xml</dc:format>
        <dc:type
           rdf:resource="http://purl.org/dc/dcmitype/StillImage" />
      </cc:Work>
    </rdf:RDF>
  </metadata>
  <g
     inkscape:label="Capa 1"
     inkscape:groupmode="layer"
     id="layer1"
     transform="translate(0,-255)">
    <path
       id="rect12823"
       style="fill:#000000;stroke:none;stroke-width:0.381;stroke-linecap:round;stroke-linejoin:round;stroke-dasharray:none;stop-color:#000000"
       d="m 43.596964,268.52582 c -0.24253,0 -0.437699,0.19517 -0.437699,0.4377 v 2.07739 c 0,0.24253 0.195169,0.4377 0.437699,0.4377 h 6.404777 c 0.24253,0 0.438216,-0.19517 0.438216,-0.4377 v -0.16485 h 0.172599 c 0.357751,0 0.645439,-0.28768 0.645439,-0.64544 v -0.53588 c 0,-0.35775 -0.287688,-0.64544 -0.645439,-0.64544 h -0.172599 v -0.0858 c 0,-0.24253 -0.195686,-0.4377 -0.438216,-0.4377 z" />
    <rect
       style="fill:#000000;stroke:#ffffff;stroke-width:0.205;stroke-linecap:round;stroke-linejoin:round;stroke-dasharray:none;stop-color:#000000"
       id="rect12880"
       width="3.1451349"
       height="1.2423279"
       x="44.115002"
       y="269.83566"
       ry="0.3380138" />
    <rect
       style="fill:#000000;stroke:#ffffff;stroke-width:0.205;stroke-linecap:round;stroke-linejoin:round;stroke-dasharray:none;stop-color:#000000"
       id="rect12882"
       width="3.5796263"
       height="0.79525787"
       x="43.785721"
       y="268.06625"
       ry="0.12593947" />
    <path
       id="path13642"
       style="color:#000000;fill:#000000;stroke-width:0.320603;stroke-linecap:round;stroke-linejoin:round;-inkscape-stroke:none"
       d="M 37.426656 268.77745 C 37.284398 268.77745 37.172408 268.87753 37.172408 269.00431 L 37.172408 269.88798 C 37.172408 269.98772 37.242057 270.07051 37.340873 270.1014 C 37.36879 270.09662 37.397256 270.09417 37.426656 270.09417 L 37.825598 270.09417 A 0.37487113 0.37487113 0 0 1 37.784774 269.92415 A 0.37487113 0.37487113 0 0 1 38.159428 269.5495 A 0.37487113 0.37487113 0 0 1 38.534599 269.92415 A 0.37487113 0.37487113 0 0 1 38.493774 270.09417 L 39.023458 270.09417 A 0.37487113 0.37487113 0 0 1 38.982633 269.92415 A 0.37487113 0.37487113 0 0 1 39.357288 269.5495 A 0.37487113 0.37487113 0 0 1 39.731942 269.92415 A 0.37487113 0.37487113 0 0 1 39.691117 270.09417 L 40.220801 270.09417 A 0.37487113 0.37487113 0 0 1 40.179976 269.92415 A 0.37487113 0.37487113 0 0 1 40.555147 269.5495 A 0.37487113 0.37487113 0 0 1 40.929801 269.92415 A 0.37487113 0.37487113 0 0 1 40.888977 270.09417 L 41.41866 270.09417 A 0.37487113 0.37487113 0 0 1 41.377836 269.92415 A 0.37487113 0.37487113 0 0 1 41.753007 269.5495 A 0.37487113 0.37487113 0 0 1 42.127661 269.92415 A 0.37487113 0.37487113 0 0 1 42.086837 270.09417 L 42.566911 270.09417 C 42.596441 270.09417 42.625178 270.09658 42.65321 270.1014 C 42.75192 270.07045 42.821159 269.98764 42.821159 269.88798 L 42.821159 269.00431 C 42.821159 268.87751 42.709169 268.77745 42.566911 268.77745 L 42.074434 268.77745 A 0.37487113 0.37487113 0 0 1 42.127661 268.96762 A 0.37487113 0.37487113 0 0 1 41.753007 269.34279 A 0.37487113 0.37487113 0 0 1 41.377836 268.96762 A 0.37487113 0.37487113 0 0 1 41.431063 268.77745 L 40.876575 268.77745 A 0.37487113 0.37487113 0 0 1 40.929801 268.96762 A 0.37487113 0.37487113 0 0 1 40.555147 269.34279 A 0.37487113 0.37487113 0 0 1 40.179976 268.96762 A 0.37487113 0.37487113 0 0 1 40.233203 268.77745 L 39.678715 268.77745 A 0.37487113 0.37487113 0 0 1 39.731942 268.96762 A 0.37487113 0.37487113 0 0 1 39.357288 269.34279 A 0.37487113 0.37487113 0 0 1 38.982633 268.96762 A 0.37487113 0.37487113 0 0 1 39.03586 268.77745 L 38.481372 268.77745 A 0.37487113 0.37487113 0 0 1 38.534599 268.96762 A 0.37487113 0.37487113 0 0 1 38.159428 269.34279 A 0.37487113 0.37487113 0 0 1 37.784774 268.96762 A 0.37487113 0.37487113 0 0 1 37.838 268.77745 L 37.426656 268.77745 z M 36.93728 268.99294 L 36.93728 269.15211 L 33.074467 269.15211 C 32.982347 269.15211 32.912203 269.22227 32.912203 269.31437 L 32.912203 269.57792 C 32.912203 269.67008 32.982347 269.73812 33.074467 269.73812 L 36.93728 269.73812 L 36.93728 269.89883 L 36.95485 269.89883 L 36.95485 269.8978 L 36.95485 269.0131 C 36.95485 269.00632 36.955556 268.99964 36.955884 268.99294 L 36.93728 268.99294 z M 37.427173 270.18564 C 37.229827 270.18564 37.070605 270.32758 37.070605 270.50345 L 37.070605 270.94838 L 38.128422 270.94838 A 0.37487113 0.37487113 0 0 1 38.160978 270.94476 A 0.37487113 0.37487113 0 0 1 38.193534 270.94838 L 39.326282 270.94838 A 0.37487113 0.37487113 0 0 1 39.358838 270.94476 A 0.37487113 0.37487113 0 0 1 39.391394 270.94838 L 40.524141 270.94838 A 0.37487113 0.37487113 0 0 1 40.556698 270.94476 A 0.37487113 0.37487113 0 0 1 40.589254 270.94838 L 41.722001 270.94838 A 0.37487113 0.37487113 0 0 1 41.754557 270.94476 A 0.37487113 0.37487113 0 0 1 41.787113 270.94838 L 42.222746 270.94838 C 42.422188 270.94838 42.590416 271.07677 42.653727 271.25637 L 42.74106 271.25689 C 42.806408 271.25689 42.867185 271.26958 42.922961 271.291 L 42.922961 270.50345 C 42.922961 270.32758 42.764258 270.18564 42.566911 270.18564 L 42.084253 270.18564 A 0.37487113 0.37487113 0 0 1 42.129211 270.3634 A 0.37487113 0.37487113 0 0 1 41.754557 270.73806 A 0.37487113 0.37487113 0 0 1 41.379386 270.3634 A 0.37487113 0.37487113 0 0 1 41.424862 270.18564 L 40.886393 270.18564 A 0.37487113 0.37487113 0 0 1 40.931352 270.3634 A 0.37487113 0.37487113 0 0 1 40.556698 270.73806 A 0.37487113 0.37487113 0 0 1 40.181527 270.3634 A 0.37487113 0.37487113 0 0 1 40.227002 270.18564 L 39.688534 270.18564 A 0.37487113 0.37487113 0 0 1 39.733492 270.3634 A 0.37487113 0.37487113 0 0 1 39.358838 270.73806 A 0.37487113 0.37487113 0 0 1 38.983667 270.3634 A 0.37487113 0.37487113 0 0 1 39.029142 270.18564 L 38.490674 270.18564 A 0.37487113 0.37487113 0 0 1 38.535632 270.3634 A 0.37487113 0.37487113 0 0 1 38.160978 270.73806 A 0.37487113 0.37487113 0 0 1 37.786324 270.3634 A 0.37487113 0.37487113 0 0 1 37.831799 270.18564 L 37.427173 270.18564 z M 36.93728 270.49259 L 36.93728 270.65227 L 33.074467 270.65227 C 32.982347 270.65227 32.912203 270.72244 32.912203 270.81454 L 32.912203 271.07602 C 32.912203 271.16813 32.982347 271.23829 33.074467 271.23829 L 34.288346 271.23829 C 34.356269 271.06809 34.520362 270.94838 34.713127 270.94838 L 36.967253 270.94838 L 36.967253 270.50396 C 36.967253 270.50014 36.967134 270.49639 36.967253 270.49259 L 36.93728 270.49259 z " />
    <g
       id="g13189-4-9"
       transform="translate(-0.59773219,4.2249605)">
      <circle
         style="fill:#ffffff;stroke:none;stroke-width:0.205;stroke-linecap:round;stroke-linejoin:round;stroke-dasharray:none;stop-color:#000000"
         id="path13026-9-5"
         cx="38.75721"
         cy="267.19882"
         r="0.37487113" />
      <circle
         style="fill:#ffffff;stroke:none;stroke-width:0.205;stroke-linecap:round;stroke-linejoin:round;stroke-dasharray:none;stop-color:#000000"
         id="path13026-4-2-0"
         cx="39.955002"
         cy="267.19882"
         r="0.37487113" />
      <circle
         style="fill:#ffffff;stroke:none;stroke-width:0.205;stroke-linecap:round;stroke-linejoin:round;stroke-dasharray:none;stop-color:#000000"
         id="path13026-3-0-4"
         cx="41.152798"
         cy="267.19882"
         r="0.37487113" />
      <circle
         style="fill:#ffffff;stroke:none;stroke-width:0.205;stroke-linecap:round;stroke-linejoin:round;stroke-dasharray:none;stop-color:#000000"
         id="path13026-1-6-8"
         cx="42.35059"
         cy="267.19882"
         r="0.37487113" />
    </g>
    <path
       id="rect10783"
       style="fill:#000000;stroke:none;stroke-width:0.347837;stroke-linecap:round;stroke-linejoin:round;stroke-dasharray:none;stop-color:#000000"
       d="M 34.847485 271.19901 C 34.701656 271.19901 34.58962 271.31105 34.58962 271.45688 L 34.58962 274.34766 L 42.312663 274.34766 L 42.312663 271.45688 C 42.312663 271.31105 42.200626 271.19901 42.054797 271.19901 L 34.847485 271.19901 z M 42.677498 271.5623 L 42.677498 272.5643 C 42.678895 272.66597 42.680107 272.76843 42.681116 272.87229 L 42.773617 272.87229 C 42.907307 272.87229 43.014945 272.7247 43.014945 272.54105 L 43.014945 271.89354 C 43.014945 271.70989 42.907307 271.5623 42.773617 271.5623 L 42.677498 271.5623 z M 34.224784 271.62327 C 34.069569 271.6848 33.90198 271.7861 33.874418 271.89354 C 33.835628 272.04478 33.830938 272.4781 33.874418 272.54105 C 33.929856 272.62127 34.082674 272.724 34.224784 272.79375 L 34.224784 271.62327 z M 43.337406 271.71319 C 43.349544 271.76755 43.35756 271.82319 43.35756 271.88011 L 43.35756 272.03152 C 43.3998 272.0204 43.44351 272.01304 43.488818 272.01188 C 43.493748 272.01176 43.498846 272.01188 43.503805 272.01188 L 45.554842 272.01188 C 45.872169 272.01188 46.131034 272.27074 46.131034 272.58807 L 46.131034 274.63859 C 46.131034 274.95592 45.872169 275.21479 45.554842 275.21479 L 43.503805 275.21479 C 43.453198 275.21479 43.404469 275.2075 43.35756 275.19515 L 43.35756 275.5419 C 43.35756 275.69732 43.311955 275.84925 43.222685 275.97185 C 43.12988 276.09935 42.97584 276.20439 42.785502 276.20439 L 42.669747 276.20439 C 42.62338 276.50169 42.364223 276.73252 42.054797 276.73252 L 34.847485 276.73252 C 34.521734 276.73252 34.251458 276.47676 34.226851 276.15685 C 34.144558 276.12602 34.070748 276.08458 34.002059 276.04626 C 33.867252 275.97101 33.719315 275.88473 33.613452 275.73155 C 33.568392 275.66632 33.551757 275.58672 33.548857 275.57342 C 33.542257 275.5432 33.535287 275.5082 33.531287 275.468 C 33.524087 275.39535 33.52529 275.32286 33.525602 275.25096 C 33.526252 275.10267 33.531007 274.94981 33.566427 274.81171 C 33.584855 274.73987 33.616774 274.68491 33.65531 274.64014 L 28.184326 274.63859 L 26.635067 275.96203 L 26.651603 275.95789 L 26.676925 276.53254 C 27.042947 277.09886 27.28083 277.14987 27.641724 277.72368 C 27.641724 277.72368 33.739101 277.76523 34.899162 277.73556 L 34.899162 277.26686 L 48.726225 277.26686 L 48.726225 276.08605 L 46.892745 276.08605 C 46.557587 276.08605 46.282963 275.81195 46.282963 275.47679 L 46.282963 272.45682 C 46.282963 272.12166 46.557587 271.84755 46.892745 271.84755 L 48.600651 271.84755 C 48.520015 271.76454 48.407149 271.71319 48.281807 271.71319 L 43.337406 271.71319 z M 33.531803 272.03514 L 31.243571 272.20205 L 32.316374 273.31826 A 0.13249999 0.13249999 0 0 1 32.312756 273.50585 A 0.13249999 0.13249999 0 0 1 32.126721 273.50171 L 30.900439 272.22686 L 30.371273 272.26561 L 31.386715 273.3224 A 0.13249999 0.13249999 0 0 1 31.382581 273.50998 A 0.13249999 0.13249999 0 0 1 31.195512 273.50585 L 30.028141 272.29093 L 29.504659 272.32917 L 30.457056 273.32033 A 0.13249999 0.13249999 0 0 1 30.452922 273.50585 A 0.13249999 0.13249999 0 0 1 30.265853 273.50378 L 29.160494 272.35398 L 28.639596 272.39222 L 29.527397 273.31464 A 0.13249999 0.13249999 0 0 1 29.523263 273.50223 A 0.13249999 0.13249999 0 0 1 29.336194 273.4981 L 28.295947 272.41702 L 25.875423 272.59376 L 26.570471 273.31826 A 0.13249999 0.13249999 0 0 1 26.566337 273.50585 A 0.13249999 0.13249999 0 0 1 26.378752 273.50171 L 25.532292 272.61856 L 25.016044 272.65629 L 25.650631 273.31826 A 0.13249999 0.13249999 0 0 1 25.646497 273.50585 A 0.13249999 0.13249999 0 0 1 25.458911 273.50171 L 24.672913 272.68109 L 24.154081 272.71933 L 24.728723 273.31826 A 0.13249999 0.13249999 0 0 1 24.724589 273.50585 A 0.13249999 0.13249999 0 0 1 24.537004 273.50171 L 24.141162 273.08882 C 24.091941 272.99152 24.003774 272.89254 23.852291 272.74104 L 23.205302 272.80201 L 23.753072 273.35702 C 23.795322 273.39912 23.795322 273.46792 23.753072 273.50998 C 23.711202 273.55118 23.64405 273.55118 23.602177 273.50998 L 22.929867 272.82785 L 21.648808 272.94826 L 22.099426 273.39939 C 22.141436 273.44139 22.141436 273.5093 22.099426 273.55132 C 22.057556 273.59252 21.990402 273.59252 21.948531 273.55132 L 21.371305 272.9741 L 20.730001 273.03456 L 21.094836 273.39939 C 21.136846 273.44139 21.136846 273.5093 21.094836 273.55132 C 21.052966 273.59252 20.985812 273.59252 20.943941 273.55132 L 20.453015 273.0604 L 19.811194 273.12086 L 20.08973 273.39939 C 20.13174 273.44139 20.13174 273.5093 20.08973 273.55132 C 20.04786 273.59252 19.980706 273.59252 19.938835 273.55132 L 19.534208 273.1467 L 18.892387 273.20664 L 19.08514 273.39939 C 19.12715 273.44139 19.12715 273.5093 19.08514 273.55132 C 19.04327 273.59252 18.976116 273.59252 18.934245 273.55132 L 18.614884 273.233 L 17.97358 273.29294 L 18.080033 273.39939 C 18.122043 273.44139 18.122043 273.5093 18.080033 273.55132 C 18.038163 273.59252 17.971009 273.59252 17.929138 273.55132 L 17.696077 273.31878 L 16.906462 273.39319 L 16.934884 273.81229 L 24.173718 273.82882 C 24.17378 273.82767 24.173657 273.82688 24.173718 273.82572 L 24.174235 273.82676 L 33.541622 274.02365 C 33.537815 274.00393 33.533666 273.98654 33.531287 273.96215 C 33.523987 273.88907 33.52529 273.81504 33.525602 273.74304 C 33.526252 273.59474 33.531157 273.44337 33.566427 273.30586 C 33.619068 273.10064 33.775708 273.02806 33.906458 272.95446 C 33.80282 272.8908 33.693152 272.83312 33.613452 272.71778 C 33.568392 272.65255 33.551757 272.57295 33.548857 272.55965 C 33.542367 272.52983 33.535287 272.49463 33.531287 272.45423 C 33.524087 272.38147 33.52529 272.30909 33.525602 272.23719 C 33.525896 272.17008 33.527366 272.10233 33.531803 272.03514 z M 46.892745 272.12712 C 46.707805 272.12712 46.562533 272.27188 46.562533 272.45682 L 46.562533 275.47679 C 46.562533 275.66173 46.707805 275.80648 46.892745 275.80648 L 49.912199 275.80648 C 50.09714 275.80648 50.242411 275.66173 50.242411 275.47679 L 50.242411 272.45682 C 50.242412 272.27188 50.09714 272.12712 49.912199 272.12712 L 46.892745 272.12712 z M 43.503805 272.27543 C 43.450507 272.27543 43.401079 272.28842 43.35756 272.31109 L 43.35756 272.52865 C 43.35756 272.68407 43.311955 272.83341 43.222685 272.95601 C 43.222437 272.95601 43.222934 272.95774 43.222685 272.95808 C 43.31278 273.08183 43.35756 273.23268 43.35756 273.38802 L 43.35756 274.0345 C 43.35756 274.18991 43.312795 274.34224 43.222685 274.466 C 43.31194 274.5886 43.35756 274.73847 43.35756 274.89388 L 43.35756 274.91558 C 43.401079 274.93825 43.450507 274.95124 43.503805 274.95124 L 45.554842 274.95124 C 45.729944 274.95124 45.865417 274.81369 45.865417 274.63859 L 45.865417 272.58807 C 45.865417 272.41297 45.729944 272.27543 45.554842 272.27543 L 43.503805 272.27543 z M 47.167147 272.63717 A 0.1322915 0.1322915 0 0 1 47.20177 272.64078 A 0.1322915 0.1322915 0 0 1 47.261715 272.67386 L 49.728748 275.06854 A 0.1322915 0.1322915 0 0 1 49.732365 275.25613 A 0.1322915 0.1322915 0 0 1 49.544779 275.25975 L 47.078263 272.86558 A 0.1322915 0.1322915 0 0 1 47.074129 272.67799 A 0.1322915 0.1322915 0 0 1 47.167147 272.63717 z M 45.325916 272.79116 A 0.1322915 0.1322915 0 0 1 45.4179 272.83612 A 0.1322915 0.1322915 0 0 1 45.404464 273.02319 L 43.826265 274.40243 A 0.1322915 0.1322915 0 0 1 43.640747 274.39055 A 0.1322915 0.1322915 0 0 1 43.652116 274.20296 L 45.230314 272.82424 A 0.1322915 0.1322915 0 0 1 45.325916 272.79116 z M 42.677498 273.06918 L 42.677498 274.07119 C 42.678895 274.17285 42.680107 274.27531 42.681116 274.37918 L 42.773617 274.37918 C 42.907307 274.37918 43.014945 274.23157 43.014945 274.04793 L 43.014945 273.40043 C 43.014945 273.21677 42.907307 273.06918 42.773617 273.06918 L 42.677498 273.06918 z M 50.519397 273.12241 L 50.519397 275.47834 C 50.519397 275.81349 50.24529 276.08812 49.910132 276.08812 L 48.895723 276.08812 C 48.951334 276.2674 49.118301 276.39663 49.31637 276.39663 L 50.801034 276.39663 C 51.044809 276.39663 51.2408 276.20064 51.2408 275.95686 L 51.2408 273.56217 C 51.2408 273.3184 51.044809 273.12241 50.801034 273.12241 L 50.519397 273.12241 z M 34.224784 273.13016 C 34.069569 273.19169 33.90198 273.29298 33.874418 273.40043 C 33.835628 273.55166 33.830938 273.98498 33.874418 274.04793 C 33.929856 274.12815 34.082674 274.23088 34.224784 274.30063 L 34.224784 273.13016 z M 16.201078 274.08049 C 16.113018 274.08449 16.043465 274.15725 16.043465 274.24637 L 16.043465 275.4432 C 16.043465 275.5353 16.11727 275.60959 16.209347 275.60959 L 17.127637 275.60959 C 17.219717 275.60959 17.293518 275.53535 17.293518 275.4432 L 17.293518 274.24637 C 17.293518 274.15427 17.219717 274.08049 17.127637 274.08049 L 16.209347 274.08049 C 16.206547 274.08049 16.203978 274.08035 16.201078 274.08049 z M 20.42666 274.09082 C 20.320819 274.09082 20.235457 274.17618 20.235457 274.28203 L 20.235457 275.42924 C 20.235457 275.53508 20.320823 275.62045 20.42666 275.62045 L 23.912752 275.62045 C 24.018595 275.62045 24.103438 275.53509 24.103438 275.42924 L 24.103438 274.28203 C 24.103438 274.17618 24.0186 274.09082 23.912752 274.09082 L 20.42666 274.09082 z M 24.401095 274.09496 C 24.310414 274.09496 24.237797 274.16758 24.237797 274.25826 L 24.237797 275.47007 C 24.237797 275.56075 24.310414 275.63388 24.401095 275.63388 L 26.683126 275.63388 L 28.114046 274.44222 L 28.114046 274.25826 C 28.114046 274.16758 28.040912 274.09496 27.950232 274.09496 L 24.401095 274.09496 z M 28.412219 274.09496 C 28.321539 274.09496 28.248922 274.16809 28.248922 274.25877 L 28.248922 274.37349 L 33.645492 274.42775 L 33.645492 274.26497 C 33.634413 274.25197 33.623636 274.23837 33.613452 274.22363 C 33.58781 274.18646 33.573265 274.14821 33.563326 274.11666 C 33.53927 274.10281 33.511511 274.09496 33.481677 274.09496 L 28.412219 274.09496 z M 17.628381 274.10478 C 17.522538 274.10478 17.436662 274.19013 17.436662 274.29598 L 17.436662 275.4432 C 17.436664 275.54904 17.522541 275.63388 17.628381 275.63388 L 19.900594 275.63388 C 20.006437 275.63388 20.092314 275.54902 20.092314 275.4432 L 20.092314 274.29598 C 20.092314 274.19014 20.006434 274.10478 19.900594 274.10478 L 17.628381 274.10478 z M 42.677498 274.57607 L 42.677498 275.57807 C 42.678895 275.67974 42.680107 275.78219 42.681116 275.88606 L 42.773617 275.88606 C 42.907307 275.88606 43.014945 275.73847 43.014945 275.55482 L 43.014945 274.90731 C 43.014945 274.72366 42.907307 274.57607 42.773617 274.57607 L 42.677498 274.57607 z M 34.58962 274.61327 L 34.58962 276.10931 C 34.58962 276.25514 34.701656 276.36717 34.847485 276.36717 L 42.054797 276.36717 C 42.200626 276.36717 42.312663 276.25514 42.312663 276.10931 L 42.312663 274.61327 L 34.58962 274.61327 z M 34.224784 274.63704 C 34.069569 274.69857 33.90198 274.79987 33.874418 274.90731 C 33.835628 275.05855 33.830938 275.49187 33.874418 275.55482 C 33.929856 275.63504 34.082674 275.73777 34.224784 275.80752 L 34.224784 274.63704 z M 17.086296 275.84369 C 16.995615 275.84369 16.922481 275.91631 16.922481 276.00699 L 16.922481 276.46226 C 16.922481 276.55294 16.995615 276.62555 17.086296 276.62555 L 17.574121 276.62555 L 18.072282 276.10724 A 0.13249999 0.13249999 0 0 1 18.165816 276.06641 A 0.13249999 0.13249999 0 0 1 18.259867 276.10362 A 0.13249999 0.13249999 0 0 1 18.263485 276.29069 L 17.941541 276.62555 L 18.48621 276.62555 L 18.988505 276.10362 A 0.13249999 0.13249999 0 0 1 19.082039 276.06228 A 0.13249999 0.13249999 0 0 1 19.175574 276.09949 A 0.13249999 0.13249999 0 0 1 19.179708 276.28707 L 18.854146 276.62555 L 19.398816 276.62555 L 19.904211 276.09949 A 0.13249999 0.13249999 0 0 1 19.996195 276.06073 L 19.996195 276.06021 A 0.13249999 0.13249999 0 0 1 20.091797 276.09742 A 0.13249999 0.13249999 0 0 1 20.095931 276.28501 L 19.768302 276.62555 L 20.318656 276.62555 L 20.820435 276.10362 A 0.13249999 0.13249999 0 0 1 20.911902 276.06228 A 0.13249999 0.13249999 0 0 1 21.00802 276.09949 A 0.13249999 0.13249999 0 0 1 21.011637 276.28707 L 20.686593 276.62555 L 21.23798 276.62555 L 21.736141 276.10724 A 0.13249999 0.13249999 0 0 1 21.828125 276.06641 A 0.13249999 0.13249999 0 0 1 21.923726 276.10362 A 0.13249999 0.13249999 0 0 1 21.927861 276.29069 L 21.605916 276.62555 L 22.150069 276.62555 L 22.652364 276.10362 A 0.13249999 0.13249999 0 0 1 22.744348 276.06228 A 0.13249999 0.13249999 0 0 1 22.83995 276.09949 A 0.13249999 0.13249999 0 0 1 22.842017 276.28707 L 22.516455 276.62555 L 23.062675 276.62555 L 23.568587 276.09949 A 0.13249999 0.13249999 0 0 1 23.660055 276.06073 A 0.13249999 0.13249999 0 0 1 23.755656 276.09742 A 0.13249999 0.13249999 0 0 1 23.757723 276.28501 L 23.430094 276.62555 L 23.981999 276.62555 L 24.484294 276.10362 A 0.13249999 0.13249999 0 0 1 24.576278 276.06228 A 0.13249999 0.13249999 0 0 1 24.669812 276.09949 A 0.13249999 0.13249999 0 0 1 24.673946 276.28707 L 24.348901 276.62555 L 24.900289 276.62555 L 25.39845 276.10724 A 0.13249999 0.13249999 0 0 1 25.491984 276.06641 A 0.13249999 0.13249999 0 0 1 25.586035 276.10362 A 0.13249999 0.13249999 0 0 1 25.589653 276.29069 L 25.267708 276.62555 L 25.812378 276.62555 L 26.314673 276.10362 A 0.13249999 0.13249999 0 0 1 26.396838 276.06486 L 26.390637 275.88813 L 26.370483 275.89433 L 26.431462 275.84369 L 17.086296 275.84369 z M 26.40769 276.38939 L 26.180314 276.62555 L 26.415442 276.62555 L 26.40769 276.38939 z M 35.205603 277.45393 L 35.205603 278.4611 L 48.705037 278.4611 L 48.705037 277.45393 L 35.205603 277.45393 z " />
    <path
       id="path9512"
       style="fill:#000000;stroke:none;stroke-width:0.264583px;stroke-linecap:butt;stroke-linejoin:miter;stroke-opacity:1"
       d="M 19.656165 277.86734 L 16.621724 278.40116 L 16.499251 278.59701 C 15.566559 278.72891 14.612535 278.86731 13.682886 279.00422 L 13.242603 278.7107 L 10.207646 279.24451 L 10.014893 279.55302 C 9.7018355 279.60076 9.1425944 279.68583 9.1425944 279.68583 L 9.1782511 280.35039 L 10.771952 280.52247 C 10.771665 280.56223 10.772022 280.60541 10.771952 280.6465 C 10.919548 280.5284 11.102258 280.42683 11.331091 280.34419 C 11.80679 280.09286 15.836205 279.95505 21.142379 279.89202 L 21.142379 278.9236 L 21.142896 278.9236 C 21.122524 278.48673 21.145025 278.17081 21.00647 278.04407 C 20.84781 278.04383 20.504153 278.0759 20.046838 278.12779 L 19.656165 277.86734 z M 36.099605 278.13347 L 21.407996 279.05435 L 21.407996 279.88944 C 25.932475 279.83816 31.319741 279.84063 36.246883 279.87083 C 36.173342 278.98581 36.099605 278.13347 36.099605 278.13347 z " />
    <path
       style="fill:#000000;stroke:none;stroke-width:0.405466;stroke-linecap:butt;stroke-linejoin:miter;stroke-miterlimit:4;stroke-dasharray:3.24374, 0.405466;stroke-dashoffset:0;stroke-opacity:1"
       d="m 12.272435,281.83482 c 1.368544,-0.59718 35.233898,-0.21887 35.60963,-0.0459 1.171249,0.25793 1.541152,1.60648 1.56905,2.15717 0.05056,1.74419 -2.867812,4.71267 -4.257614,4.86526 H 15.792358 c -1.301963,-0.0141 -4.75369,-3.06048 -4.675572,-4.86526 -0.159062,-0.62212 0.07627,-1.78933 1.155649,-2.11128 z"
       id="path917-3"
       sodipodi:nodetypes="cccccccc" />
    <rect
       style="fill:#ffffff;stroke-width:0.593387;stroke-linejoin:round;stroke-miterlimit:4;stroke-dasharray:4.74711, 0.593387;stroke-dashoffset:0"
       id="rect2807-3-1"
       width="5.8753967"
       height="7.0587435"
       x="30.28772"
       y="281.84207" />
    <rect
       style="fill:#ffffff;stroke-width:0.583042;stroke-linejoin:round;stroke-miterlimit:4;stroke-dasharray:4.66435, 0.583042;stroke-dashoffset:0"
       id="rect2807-3-1-5"
       width="5.7950315"
       height="7.0254827"
       x="24.539774"
       y="281.83612"
       ry="0" />
    <path
       style="fill:none;stroke:#000000;stroke-width:0.459048;stroke-linecap:butt;stroke-linejoin:miter;stroke-miterlimit:4;stroke-dasharray:3.67239, 0.459048;stroke-dashoffset:0;stroke-opacity:1"
       d="m 11.686409,281.19761 c 1.408103,-0.74395 36.182539,-0.41701 36.569131,-0.20151 1.623389,0.46153 1.702946,1.75632 1.823053,3.18051 0.05203,2.17282 -3.153908,5.37483 -4.583884,5.56493 l -28.610938,0.0232 c -3.702732,-0.13226 -6.492271,-4.01637 -6.411894,-6.26467 0.149028,-1.01952 0.103948,-1.90141 1.214532,-2.30247 z"
       id="path917"
       sodipodi:nodetypes="cccccccc" />
    <rect
       style="fill:#000000;stroke-width:0.536888;stroke-linejoin:round;stroke-miterlimit:4;stroke-dasharray:4.29513, 0.536888;stroke-dashoffset:0"
       id="rect2807"
       width="5.0345635"
       height="6.7436762"
       x="24.935648"
       y="282.01636" />
    <rect
       style="fill:#000000;stroke-width:0.536888;stroke-linejoin:round;stroke-miterlimit:4;stroke-dasharray:4.29513, 0.536888;stroke-dashoffset:0"
       id="rect2807-3"
       width="5.0345635"
       height="6.7436762"
       x="30.763958"
       y="282.01636" />
    <circle
       style="fill:#000000;stroke:#000000;stroke-width:0.536888;stroke-linejoin:round;stroke-miterlimit:4;stroke-dasharray:none;stroke-dashoffset:0"
       id="path2980"
       cx="20.542233"
       cy="285.2995"
       r="3.3249083" />
    <circle
       style="fill:none;stroke:#ffffff;stroke-width:0.536888;stroke-linejoin:round;stroke-miterlimit:4;stroke-dasharray:0.536888, 1.07377;stroke-dashoffset:0.859021"
       id="path3402"
       cx="20.628048"
       cy="285.3002"
       r="1.8801548" />
    <circle
       style="fill:none;stroke:#ffffff;stroke-width:0.403855;stroke-linejoin:round;stroke-miterlimit:4;stroke-dasharray:none;stroke-dashoffset:0"
       id="path2980-2"
       cx="20.542233"
       cy="285.2995"
       r="3.6795688" />
    <circle
       style="fill:none;stroke:#ffffff;stroke-width:0.460637;stroke-linejoin:round;stroke-miterlimit:4;stroke-dasharray:none;stroke-dashoffset:0"
       id="path2980-2-3"
       cx="20.542233"
       cy="285.2995"
       r="2.8526919" />
    <circle
       style="fill:#000000;stroke:#000000;stroke-width:0.536888;stroke-linejoin:round;stroke-miterlimit:4;stroke-dasharray:none;stroke-dashoffset:0"
       id="path2980-1"
       cx="40.368633"
       cy="285.44019"
       r="3.3249083" />
    <circle
       style="fill:none;stroke:#ffffff;stroke-width:0.536888;stroke-linejoin:round;stroke-miterlimit:4;stroke-dasharray:0.536888, 1.07377;stroke-dashoffset:0.859021"
       id="path3402-2"
       cx="40.454449"
       cy="285.44092"
       r="1.8801548" />
    <circle
       style="fill:none;stroke:#ffffff;stroke-width:0.403855;stroke-linejoin:round;stroke-miterlimit:4;stroke-dasharray:none;stroke-dashoffset:0"
       id="path2980-2-9"
       cx="40.368633"
       cy="285.44019"
       r="3.6795688" />
    <circle
       style="fill:none;stroke:#ffffff;stroke-width:0.460637;stroke-linejoin:round;stroke-miterlimit:4;stroke-dasharray:none;stroke-dashoffset:0"
       id="path2980-2-3-31"
       cx="40.368633"
       cy="285.44019"
       r="2.8526919" />
    <circle
       style="fill:#000000;stroke:#000000;stroke-width:0.296299;stroke-linejoin:round;stroke-miterlimit:4;stroke-dasharray:none;stroke-dashoffset:0"
       id="path2980-0"
       cx="13.881078"
       cy="284.03473"
       r="1.8349577" />
    <circle
       style="fill:none;stroke:#ffffff;stroke-width:0.318333;stroke-linejoin:round;stroke-miterlimit:4;stroke-dasharray:0.318333, 0.636665;stroke-dashoffset:0.954998"
       id="path3402-3"
       cx="13.914809"
       cy="284.02188"
       r="0.92034101" />
    <circle
       style="fill:none;stroke:#ffffff;stroke-width:0.22288;stroke-linejoin:round;stroke-miterlimit:4;stroke-dasharray:none;stroke-dashoffset:0"
       id="path2980-2-6"
       cx="13.881078"
       cy="284.03473"
       r="2.0306888" />
    <circle
       style="fill:none;stroke:#ffffff;stroke-width:0.254218;stroke-linejoin:round;stroke-miterlimit:4;stroke-dasharray:none;stroke-dashoffset:0"
       id="path2980-2-3-1"
       cx="13.881078"
       cy="284.03473"
       r="1.57435" />
    <circle
       style="fill:#000000;stroke:#000000;stroke-width:0.296299;stroke-linejoin:round;stroke-miterlimit:4;stroke-dasharray:none;stroke-dashoffset:0"
       id="path2980-0-0"
       cx="46.821594"
       cy="284.0527"
       r="1.8349577" />
    <circle
       style="fill:none;stroke:#ffffff;stroke-width:0.318333;stroke-linejoin:round;stroke-miterlimit:4;stroke-dasharray:0.318333, 0.636665;stroke-dashoffset:0.954998"
       id="path3402-3-6"
       cx="46.85532"
       cy="284.03986"
       r="0.92034101" />
    <circle
       style="fill:none;stroke:#ffffff;stroke-width:0.22288;stroke-linejoin:round;stroke-miterlimit:4;stroke-dasharray:none;stroke-dashoffset:0"
       id="path2980-2-6-3"
       cx="46.821594"
       cy="284.0527"
       r="2.0306888" />
    <circle
       style="fill:none;stroke:#ffffff;stroke-width:0.254218;stroke-linejoin:round;stroke-miterlimit:4;stroke-dasharray:none;stroke-dashoffset:0"
       id="path2980-2-3-1-2"
       cx="46.821594"
       cy="284.0527"
       r="1.57435" />
    <rect
       style="fill:#ffffff;stroke:none;stroke-width:0.233141;stroke-linecap:round;stroke-linejoin:round;stroke-miterlimit:4;stroke-dasharray:none;stroke-dashoffset:3.79844"
       id="rect6910"
       width="14.136381"
       height="2.8534591"
       x="34.891438"
       y="277.72223"
       ry="0.50044739" />
    <path
       id="rect5361"
       style="stroke-width:0.352858;stroke-linecap:round;stroke-linejoin:round;stroke-dasharray:0.352858, 0.705717;stroke-dashoffset:1.05858"
       d="m 35.519202,278.15645 c -0.132687,0 -0.239433,0.16223 -0.239433,0.3633 v 1.29694 c 0,0.20109 0.106746,0.36285 0.239433,0.36285 h 2.340057 v -2.02309 z m 2.493849,0 v 2.02309 h 0.63477 v -2.02309 z m 0.789769,0 v 2.02309 h 6.221956 v -2.02309 z m 6.375748,0 v 2.02309 h 0.635976 v -2.02309 z m 0.78977,0 v 2.02309 h 2.38559 c 0.132688,0 0.239434,-0.16176 0.239434,-0.36285 v -1.29694 c 0,-0.20107 -0.106746,-0.3633 -0.239434,-0.3633 z" />
    <path
       style="color:#000000;fill:#ffffff;stroke-width:0.264583px;-inkscape-stroke:none"
       d="m 34.482431,274.48081 h 7.986866"
       id="path11092" />
  </g>
</svg>
