<?xml version="1.0" encoding="UTF-8" standalone="no"?>
<!-- Created with Inkscape (http://www.inkscape.org/) -->

<svg
   width="60mm"
   height="42mm"
   viewBox="0 0 60 42"
   version="1.1"
   id="svg8"
   inkscape:version="1.2.2 (b0a8486541, 2022-12-01)"
   sodipodi:docname="Mars Assault Tank.svg"
   xml:space="preserve"
   xmlns:inkscape="http://www.inkscape.org/namespaces/inkscape"
   xmlns:sodipodi="http://sodipodi.sourceforge.net/DTD/sodipodi-0.dtd"
   xmlns="http://www.w3.org/2000/svg"
   xmlns:svg="http://www.w3.org/2000/svg"
   xmlns:rdf="http://www.w3.org/1999/02/22-rdf-syntax-ns#"
   xmlns:cc="http://creativecommons.org/ns#"
   xmlns:dc="http://purl.org/dc/elements/1.1/"><defs
     id="defs2" /><sodipodi:namedview
     id="base"
     pagecolor="#ffffff"
     bordercolor="#666666"
     borderopacity="1.0"
     inkscape:pageopacity="0.0"
     inkscape:pageshadow="2"
     inkscape:zoom="2.828427"
     inkscape:cx="180.84257"
     inkscape:cy="21.213204"
     inkscape:document-units="mm"
     inkscape:current-layer="layer1"
     showgrid="false"
     inkscape:window-width="1920"
     inkscape:window-height="1043"
     inkscape:window-x="1920"
     inkscape:window-y="0"
     inkscape:window-maximized="1"
     inkscape:snap-global="false"
     showguides="false"
     inkscape:pagecheckerboard="0"
     inkscape:showpageshadow="2"
     inkscape:deskcolor="#d1d1d1" /><metadata
     id="metadata5"><rdf:RDF><cc:Work
         rdf:about=""><dc:format>image/svg+xml</dc:format><dc:type
           rdf:resource="http://purl.org/dc/dcmitype/StillImage" /></cc:Work></rdf:RDF></metadata><g
     inkscape:label="Capa 1"
     inkscape:groupmode="layer"
     id="layer1"
     transform="translate(0,-255)"
     style="display:inline"><g
       id="g1210"
       transform="translate(4.6774333,31.346746)"><path
         id="path9385"
         style="color:#000000;fill:#000000;stroke-width:0.268999;stroke-linecap:round;stroke-linejoin:round;-inkscape-stroke:none"
         d="m 15.458133,236.4759 c -0.156084,0.003 -0.295732,0.10041 -0.353467,0.2465 l -0.274918,-0.0543 c -0.136319,-0.0268 -0.267755,0.0616 -0.294556,0.19792 -0.0268,0.13632 0.0616,0.26724 0.197921,0.29404 l 0.274918,0.0537 c -0.0022,0.18527 0.127144,0.35049 0.315743,0.38757 l 1.789038,0.35192 0.09095,-0.46095 c 0.05518,-0.28068 0.325491,-0.46188 0.606164,-0.4067 l 2.104782,0.41341 c 0.280672,0.0552 0.462388,0.32549 0.40721,0.60617 l -0.124024,0.63045 0.736906,0.14469 c 0.137412,0.027 0.269087,-0.0615 0.296106,-0.19895 l 0.104387,-0.5302 c 0.02702,-0.13742 -0.06155,-0.26961 -0.198955,-0.29662 l -0.146244,-0.0289 0.02532,-0.12816 c 0.02701,-0.13741 -0.06155,-0.27013 -0.198955,-0.29714 l -2.584338,-0.50849 c -0.08825,-0.0173 -0.173891,0.0139 -0.231511,0.0744 l -2.457214,-0.48317 c -0.02357,-0.005 -0.04711,-0.007 -0.07028,-0.007 v -5.2e-4 c -0.0051,-9e-5 -0.01,-1e-4 -0.01499,0 z m 2.329574,0.82114 c -0.182307,10e-4 -0.344264,0.1296 -0.380856,0.31574 l -0.09508,0.48628 c -0.04182,0.21272 0.09578,0.41758 0.308508,0.4594 l 1.912545,0.37621 c 0.212725,0.0418 0.417584,-0.0958 0.459403,-0.30851 l 0.0956,-0.48628 c 0.04182,-0.21273 -0.09578,-0.41758 -0.308509,-0.4594 l -1.912544,-0.37621 c -0.02659,-0.005 -0.05303,-0.007 -0.07906,-0.007 z m -15.1975215,1.43867 c -0.08928,0.004 -0.1555461,0.0757 -0.1555461,0.1664 v 1.77508 c 0,0.0936 0.070689,0.16589 0.1643311,0.16589 h 2.8086141 c 0.093642,0 0.1638143,-0.0722 0.1638143,-0.16589 v -1.77508 c 0,-0.0936 -0.070172,-0.1664 -0.1638143,-0.1664 H 2.5989705 c -0.00293,0 -0.00591,-1.4e-4 -0.00879,0 z m 3.2457967,0.10542 c 0.00283,0.0199 0.00517,0.0404 0.00517,0.061 v 0.16175 c 0.048249,-0.02 0.100836,-0.031 0.155546,-0.031 H 17.070438 c 0.0276,-0.002 0.05517,-0.004 0.0832,-0.004 0.02796,0 0.05514,0.002 0.08268,0.004 h 0.313676 c 0.07132,0 0.138487,0.0192 0.197404,0.0522 v -0.0775 c 0,-0.0936 -0.07069,-0.1664 -0.164331,-0.1664 z m 12.3754708,0.0413 -0.03101,0.23306 0.521416,-0.004 0.384989,0.81649 h 1.481047 l -0.45527,-0.98599 c -0.113314,0.16302 -0.315024,0.25275 -0.522965,0.21187 z m -1.057816,0.41397 c -0.581566,0 -1.049032,0.46901 -1.049032,1.05058 0,0.58156 0.467466,1.0511 1.049032,1.0511 0.581562,0 1.050582,-0.46954 1.050582,-1.0511 0,-0.58157 -0.46902,-1.05058 -1.050582,-1.05058 z m -11.1569411,0.006 c -0.076602,0 -0.1381791,0.0503 -0.155546,0.12247 v 0.67387 c 0.017527,0.0719 0.079115,0.12195 0.155546,0.12195 h 4.2390171 v -0.0331 c 0,-0.23801 0.195551,-0.43357 0.433565,-0.43357 h 3.849377 c 0.238014,0 0.433566,0.19556 0.433566,0.43357 v 0.0331 h 0.889351 c 0.03585,-0.37354 0.228714,-0.70135 0.51108,-0.91829 z m 12.5392851,0.0744 -0.488859,0.004 c 0.161119,0.14849 0.285843,0.33572 0.357601,0.54726 h 0.390674 z m -7.875488,0.64647 c -0.08928,0.004 -0.155546,0.0736 -0.155546,0.16433 v 0.49971 h 4.17959 v -0.49971 c 0,-0.0937 -0.07224,-0.16433 -0.165882,-0.16433 h -3.849377 c -0.0029,0 -0.0059,-1.4e-4 -0.0088,0 z m 7.803658,0.17001 c 0.0059,0.0505 0.0093,0.10191 0.0093,0.154 0,0.22758 -0.05799,0.44188 -0.160197,0.6289 h 0.976168 l -0.134876,-0.28629 -0.241845,-0.49661 z m 0.749308,0.004 0.0052,0.0103 0.382922,0.78703 h 4.612639 c 0.244806,-0.0446 0.192364,-0.6748 0,-0.79737 z m -13.3723091,0.262 v 0.21859 c 0,0.003 -4.426e-4,0.007 -5.168e-4,0.01 h 4.3950799 v -0.1974 H 5.9966959 c -0.054711,0 -0.1072972,-0.011 -0.155546,-0.031 z m 9.1110711,0.031 v 0.1974 h 0.928625 c -0.01718,-0.0642 -0.03042,-0.12976 -0.03772,-0.1974 z m 0.933793,0.21704 v 0.26908 h 0.109037 c -0.04606,-0.0845 -0.08222,-0.17489 -0.109037,-0.26923 z m -5.381067,0.24804 v 0.093 c 0,0.0936 0.07069,0.1664 0.164331,0.1664 h 3.849377 c 0.09365,0 0.165882,-0.0728 0.165882,-0.1664 v -0.093 z m 7.671366,0.22428 c -0.242487,0.29656 -0.610993,0.48627 -1.022676,0.48627 -0.109846,0 -0.216243,-0.0144 -0.318327,-0.0398 -0.118248,0.1642 -0.238829,0.34087 -0.353984,0.51728 -0.04521,0.0693 -0.08769,0.13704 -0.130741,0.20516 h 1.751314 c 7.27e-4,-0.007 0.0013,-0.013 0.0021,-0.0196 0.03773,-0.33849 0.0894,-0.68365 0.162264,-0.96686 0.01652,-0.0642 0.03425,-0.12498 0.05323,-0.18242 z m 0.425297,0 c -0.02777,0.0691 -0.05525,0.15244 -0.07958,0.24701 -0.06665,0.25909 -0.116108,0.59342 -0.152963,0.92191 h 3.124874 c -0.05142,-0.0849 -0.104441,-0.17009 -0.159163,-0.25425 -0.15723,-0.24182 -0.322198,-0.47263 -0.470772,-0.65009 -0.09881,-0.11802 -0.19635,-0.21021 -0.264584,-0.26458 h -0.922941 l 0.134876,0.28577 -0.238229,0.11317 -0.188102,-0.39894 z m 2.382284,0 c 0.02645,0.0301 0.05326,0.0613 0.08113,0.0946 0.158849,0.18972 0.330934,0.42954 0.492476,0.67799 0.08554,0.13156 0.168096,0.26547 0.244947,0.39636 h 0.712101 c 0.215308,0 0.389993,0.15321 0.42478,0.35708 l 0.850594,0.046 c -0.08737,-0.11443 -0.178127,-0.2317 -0.275435,-0.35244 -0.258009,-0.32015 -0.53953,-0.64462 -0.800985,-0.89658 -0.137498,-0.1325 -0.271958,-0.24305 -0.389123,-0.32298 z m 1.771468,0 c 0.04683,0.042 0.09359,0.0855 0.141593,0.13177 0.274736,0.26475 0.560537,0.59662 0.822689,0.92191 0.152123,0.18873 0.289224,0.36831 0.415479,0.53692 l 0.400492,0.0217 h 0.0041 c 0.09946,0.011 0.213463,0.0273 0.333313,0.046 -0.30141,-0.37405 -1.184795,-1.39576 -2.053621,-1.6583 z m -6.412528,0.20567 c -0.308225,0.24595 -0.6237,0.65666 -0.837159,0.96325 h 0.533301 c 0.07062,-0.11384 0.144063,-0.2309 0.221692,-0.34985 0.103361,-0.15836 0.210348,-0.31629 0.317293,-0.46664 -0.08377,-0.0409 -0.162414,-0.0898 -0.235127,-0.14676 z m -8.9048821,1.36529 c -0.01227,0 -0.022939,0.007 -0.027389,0.0181 -0.0015,0.004 -0.00207,0.007 -0.00207,0.0114 v 3.07216 c 0,0.0163 0.013096,0.0295 0.029456,0.0295 H 21.699093 22.51403 c 0.01636,0 0.02946,-0.0131 0.02946,-0.0295 v -0.66921 h 6.108154 0.0186 c 0.01636,0 0.02997,-0.0132 0.02997,-0.0294 v -1.42627 c 0,-0.0163 -0.01361,-0.0295 -0.02997,-0.0295 h -0.495575 -5.63118 v -0.91777 c 0,-0.0163 -0.0131,-0.0295 -0.02946,-0.0295 h -0.490405 -0.299207 -3.394625 -0.266133 -1.960604 -0.306958 -0.555522 z m 15.5080961,0.22014 v 0.32505 h 2.921269 c -0.51734,-0.10943 -1.010547,-0.2024 -1.349272,-0.2403 z m -16.6093448,0.36587 v 0.23255 c 0.2494951,1e-5 0.4939877,2e-5 0.7735962,0 h 0.038757 v -0.23255 z m 0,0.4961 v 0.35191 h 0.7090006 c 0.051812,-1e-5 0.072643,0 0.1033529,0 v -0.35191 h -0.038757 c -0.2796108,2e-5 -0.5241013,1e-5 -0.7735965,0 z m 0,0.61546 v 0.3514 h 0.6366536 c 0.088143,-10e-6 0.1294718,0 0.1756999,0 v -0.3514 c -0.03071,0 -0.05154,-1e-5 -0.1033529,0 -0.2566126,1e-5 -0.4797767,0 -0.7090006,0 z m 0,0.61495 v 0.23255 h 0.8123535 v -0.23255 c -0.046228,0 -0.087556,-1e-5 -0.1756999,0 z m 16.6093448,0.52194 v 0.26716 c 0,0.0697 -0.01666,0.13524 -0.04547,0.19327 l 5.437911,-0.0796 c 0.01326,-0.0427 0.05707,-0.18256 0.102836,-0.38085 z"
         sodipodi:nodetypes="cccsccccccccccccccccccccccccccccsscccccsssssssscccscscscscsccccccccccssssssccscsssscccsccccccsccssscccsccccccccccccscccscccccccccccccsssscccscccccsccccccssccccccccscscccscccccccccccccccccccssscssccssssccssccccccccccccccccccccccccccccccccccccccccscccc" /><path
         id="path6102"
         style="fill:#000000;stroke:none;stroke-width:0.264583px;stroke-linecap:butt;stroke-linejoin:miter;stroke-opacity:1"
         d="m 45.209446,238.69682 c -0.57636,0.008 -1.747677,0.12423 -2.359029,0.18862 -0.01466,0.0899 -0.01119,0.0692 -0.02687,0.16537 l 2.24069,-0.002 0.534851,0.87488 -0.03307,0.34985 h 1.205095 c -0.33614,-0.63012 -0.915232,-1.38907 -1.299663,-1.56683 -0.05764,-0.008 -0.148,-0.0112 -0.261999,-0.009 z m -3.163115,0.37414 -4.763016,1.65985 0.12609,0.32659 c 2.244121,-0.83212 3.982814,-1.47699 4.590418,-1.70222 0.02587,-0.1588 0.02251,-0.13703 0.04651,-0.28422 z m 2.869076,0.2434 -2.048454,0.002 -0.09198,0.0341 c -0.04195,0.25745 -0.09202,0.56702 -0.13901,0.85576 l 0.337964,0.12971 -5.16e-4,0.18603 c 0.120903,-0.0407 0.236019,-0.0672 0.330729,-0.0672 h 0.05529 c 0.07857,-0.10967 0.206826,-0.18138 0.350883,-0.18138 h 1.590601 l 0.02687,-0.28732 z m -2.96416,0.34158 c -0.677198,0.25094 -2.282996,0.84638 -4.446241,1.64848 l 0.132292,0.34468 4.220414,-1.41852 c 0.03199,-0.19662 0.0635,-0.39016 0.09354,-0.57464 z m 0.641304,0.817 c -0.07323,0.45018 -0.134845,0.82725 -0.211873,1.30225 -0.17334,1.06891 -0.347054,2.14197 -0.476974,2.95692 -0.0631,0.39581 -0.113895,0.72276 -0.151412,0.96584 l 0.94878,-0.005 0.0021,-1.62884 c -0.02831,-0.0197 -0.05479,-0.0411 -0.07855,-0.0661 -0.06469,-0.0681 -0.0521,-0.10574 -0.0584,-0.15244 -0.0063,-0.0468 -0.0086,-0.0971 -0.0083,-0.15038 6.4e-4,-0.1067 0.0052,-0.20986 0.03721,-0.30076 0.02354,-0.0668 0.06506,-0.10452 0.109554,-0.13488 l 5.17e-4,-0.49919 c -0.02902,-0.02 -0.05633,-0.0416 -0.08061,-0.0672 -0.06469,-0.0681 -0.0521,-0.10513 -0.0584,-0.15193 -0.0063,-0.0467 -0.0086,-0.0971 -0.0083,-0.15038 6.4e-4,-0.1067 0.0052,-0.21192 0.03721,-0.30282 0.02382,-0.0676 0.066,-0.10436 0.111104,-0.13436 l 5.17e-4,-0.49816 c -0.0297,-0.0203 -0.05739,-0.0426 -0.08216,-0.0687 -0.06469,-0.0681 -0.0521,-0.10358 -0.0584,-0.15038 -0.0063,-0.0467 -0.0086,-0.099 -0.0083,-0.15244 6.4e-4,-0.1067 0.0052,-0.20986 0.03721,-0.30076 0.02419,-0.0687 0.06727,-0.10669 0.113171,-0.13746 v -0.12816 z m -0.782898,0.0532 -4.076753,1.37046 1.470711,3.8163 1.774052,-0.0103 c 0.0052,-0.0335 0.008,-0.0532 0.01395,-0.0915 0.03811,-0.24717 0.09151,-0.5918 0.15658,-0.99994 0.130131,-0.81627 0.305128,-1.88973 0.478524,-2.95899 0.06661,-0.41077 0.118793,-0.73157 0.182934,-1.12603 z m 1.900659,0.0109 c -0.09471,0 -0.165881,0.0733 -0.165881,0.16795 v 0.71262 c 0,0.0798 0.05088,0.14444 0.123507,0.16278 0.01396,-0.001 0.02808,-0.003 0.04237,-0.003 h 3.06648 c 0.01446,0 0.02878,0.001 0.04289,0.003 0.07263,-0.0183 0.12299,-0.083 0.12299,-0.16278 v -0.71262 c 0,-0.0947 -0.07116,-0.16795 -0.165881,-0.16795 z m -0.488342,0.20722 c -0.05733,0.01 -0.118327,0.0169 -0.196887,0.045 -0.05566,0.0199 -0.10646,0.0433 -0.14056,0.0641 -0.02555,0.0154 -0.03752,0.0321 -0.03824,0.0295 -0.0071,0.0329 -0.01814,0.12528 -0.0186,0.20308 -2e-4,0.044 0.0019,0.0872 0.0057,0.11524 7.05e-4,0.005 0.0025,0.0102 0.0041,0.0145 0.03635,0.0238 0.124065,0.0753 0.210839,0.11059 0.06143,0.025 0.09411,0.0279 0.144694,0.0408 0.0066,-0.22076 0.01627,-0.43166 0.02894,-0.6227 z m -6.661092,0.23823 -5.430676,1.89291 0.645955,0.2744 c 0.07541,-0.0288 0.143859,-0.0552 0.250631,-0.0951 0.316075,-0.11801 0.761287,-0.28303 1.292944,-0.48059 0.925343,-0.34392 2.154651,-0.79919 3.372404,-1.25057 z m 0.226343,0.58808 c -1.218924,0.45185 -2.44943,0.90741 -3.375505,1.2516 -0.527561,0.19608 -0.967738,0.35924 -1.283126,0.47698 l 0.22841,0.0971 0.01964,0.0207 4.535124,-1.52394 z m 6.185152,0.0134 -5.17e-4,0.2434 c 0.121479,-0.041 0.237166,-0.0677 0.33228,-0.0677 h 0.05529 c 0.01162,-0.0162 0.02455,-0.0315 0.03824,-0.046 -0.01369,-0.0145 -0.02662,-0.0298 -0.03824,-0.046 h -0.05529 c -0.106733,0 -0.215604,-0.0373 -0.331763,-0.0837 z m 0.700732,0.26355 c -0.07543,0.0161 -0.128674,0.0805 -0.128674,0.16227 v 0.71468 c 0,0.0793 0.05018,0.14178 0.121956,0.1602 0.01444,-0.001 0.02912,-0.002 0.04393,-0.002 h 3.06648 c 0.01481,0 0.02948,5.9e-4 0.04393,0.002 0.07177,-0.0184 0.121956,-0.081 0.121956,-0.1602 v -0.71468 c 0,-0.0819 -0.05297,-0.14637 -0.128674,-0.16227 -0.01226,0.001 -0.02469,0.002 -0.03721,0.002 h -3.06648 c -0.01257,0 -0.02489,-9.9e-4 -0.03721,-0.002 z m -0.451135,0.20103 c -0.05734,0.01 -0.118327,0.0169 -0.196887,0.045 -0.05565,0.02 -0.10647,0.0438 -0.14056,0.0646 -0.02555,0.0154 -0.03752,0.0321 -0.03824,0.0295 -0.0071,0.0337 -0.01814,0.12608 -0.0186,0.20308 -2e-4,0.044 0.0019,0.0872 0.0057,0.11524 7.05e-4,0.005 0.0025,0.0102 0.0041,0.0145 0.03635,0.0238 0.124065,0.0753 0.210839,0.11059 0.06131,0.0249 0.09414,0.0279 0.144694,0.0408 0.0067,-0.22123 0.01623,-0.43187 0.02894,-0.62321 z m -6.215124,0.092 -4.431254,1.48931 1.971455,2.10944 3.838526,-0.0217 z m 5.96346,0.74931 v 0.24494 c 0.12211,-0.0415 0.238268,-0.0703 0.33383,-0.0703 h 0.05529 c 0.01133,-0.0158 0.0239,-0.0308 0.03721,-0.045 -0.01395,-0.0148 -0.02698,-0.0304 -0.03876,-0.047 h -0.05374 c -0.10734,0 -0.216925,-0.036 -0.33383,-0.0827 z m 0.696081,0.26406 c -0.07177,0.0184 -0.121956,0.081 -0.121956,0.1602 v 0.7152 c 0,0.0947 0.07116,0.16588 0.165881,0.16588 h 3.06648 c 0.09472,0 0.165881,-0.0712 0.165881,-0.16588 v -0.7152 c 0,-0.0793 -0.04966,-0.14178 -0.121439,-0.1602 h -5.17e-4 c -0.01444,0.001 -0.02912,0.002 -0.04393,0.002 h -3.06648 c -0.01481,0 -0.02948,-5.8e-4 -0.04393,-0.002 z m -13.42812,0.17364 c -0.751547,0.74533 -1.591635,2.44533 -1.591635,2.44533 l 4.858619,-0.0279 -1.595769,-1.70791 -0.241329,-0.10231 -0.112137,0.0377 -1.390613,1.71669 -0.206706,-0.16588 1.394747,-1.72238 z m 12.983703,0.0258 c -0.05734,0.01 -0.118327,0.0169 -0.196887,0.045 -0.05565,0.02 -0.10647,0.0438 -0.14056,0.0646 -0.02555,0.0154 -0.03752,0.0316 -0.03824,0.0289 -0.007,0.0332 -0.01814,0.12729 -0.0186,0.20515 -2e-4,0.044 0.0019,0.0852 0.0057,0.11318 7.05e-4,0.005 0.0025,0.0102 0.0041,0.0145 0.03629,0.0238 0.123987,0.0753 0.210839,0.11059 0.06131,0.0249 0.09414,0.0284 0.144694,0.0413 0.0067,-0.22123 0.01623,-0.43187 0.02894,-0.62321 z m -0.253214,0.84025 -0.0021,1.49759 1.826245,-0.0103 0.114721,-1.22008 h -1.197343 c -0.144057,0 -0.272318,-0.0722 -0.350883,-0.1819 h -0.05529 c -0.107862,0 -0.217831,-0.0381 -0.33538,-0.0853 z m 2.204516,0.26717 -0.114721,1.21853 1.086238,-0.006 c 0,0 0.13632,-0.5189 0.302307,-1.21285 z m -3.480407,1.63556 c -4.52e-4,0.0254 -0.0014,0.0145 0,0 z"
         sodipodi:nodetypes="ccccccccccccccscccccccscscccscccsscssccccccccccccccccccsccccccccssscssscsscsssscscccccccscccccccccscccccccscccscssscsscsscsssscccccccccsccccccccscccscccssssssccsscccccccccccccccccccccccccccscsccccccccc" /><path
         id="path11-6-3-4"
         style="color:#000000;display:inline;fill:#000000;fill-rule:evenodd;stroke-width:0.225482;-inkscape-stroke:none"
         d="m 30.556274,246.02742 -4.799707,0.13539 c 0.0097,0.0203 0.01459,0.0426 0.01447,0.0651 v 0.26975 h 2.408638 c 0.08314,-2e-4 0.150582,0.0672 0.150379,0.15038 v 0.0646 h 2.141988 z m 0.287321,0.0212 v 0.66404 h 1.670699 l -0.242362,-0.65732 z m 2.032434,0.0103 0.240813,0.65423 h 5.096846 l -0.232027,-0.63046 z m 5.707662,0.0269 0.231511,0.62735 h 9.163265 c 0.02392,-0.0847 0.03537,-0.15831 0.03101,-0.21136 -0.0078,-0.0146 -0.02298,-0.0542 -0.113172,-0.13074 -0.104566,-0.0888 -0.282379,-0.19201 -0.566373,-0.24391 z m -13.10566,0.16536 -13.150618,5.2e-4 v 4.66276 h 7.310148 v -2.2841 c 0,-0.0934 0.08069,-0.17415 0.17415,-0.17415 h 4.403865 c 0.09346,0 0.172083,0.0807 0.172083,0.17415 v 2.28358 h 1.090372 z m -15.449703,0.35657 -2.5481644,0.0718 c -0.2348562,0.11027 -0.4336213,0.42663 -0.5565552,0.73432 -0.1246018,0.31186 -0.1777669,0.59376 -0.1777669,0.59376 v 0.002 c -0.058084,0.2812 0.048339,0.74208 0.1813842,1.11879 0.1330469,0.37671 0.2816366,0.6718 0.2816366,0.6718 l 0.00568,0.0103 0.00413,0.01 c 0.04112,0.1336 0.2218534,0.33627 0.4842082,0.53123 0.2623548,0.195 0.5984142,0.3906 0.927592,0.56276 0.6502592,0.34007 1.258574,0.58156 1.273824,0.58756 0.5080675,0.0675 2.0779425,0.0832 4.1227455,0.0605 1.650553,-0.0184 3.619009,-0.0592 5.61051,-0.10903 v -0.27337 H 12.27522 c -0.08334,2e-4 -0.150871,-0.0676 -0.150379,-0.1509 v -0.0486 h -1.956986 c -0.08314,2e-4 -0.150582,-0.0672 -0.150379,-0.15038 v -4.18166 c 0.0017,-0.014 0.0053,-0.0278 0.01085,-0.0408 z m 0.287838,0.1912 v 3.88297 h 1.808675 v -3.88297 z m 15.454871,0 v 3.88297 h 2.25826 v -3.88297 z m 2.559017,0.21497 v 1.2361 h 19.88044 v -1.2361 z m 6.836275,0.28371 h 0.710551 v 0.7183 h -0.710551 z m 5.637899,0 h 0.710551 v 0.7183 h -0.710551 z m -27.261385,0.009 h 1.418001 c 0.07342,-1.6e-4 0.132973,0.0594 0.132808,0.13281 v 1.79886 c 1.65e-4,0.0734 -0.05939,0.13297 -0.132808,0.13281 h -1.418001 c -0.07342,1.6e-4 -0.132974,-0.0594 -0.132809,-0.13281 v -1.79886 c -1.65e-4,-0.0734 0.05939,-0.13297 0.132809,-0.13281 z m 0.132808,0.26562 v 1.53324 h 1.152384 v -1.53324 z m 16.569531,0.97823 -1.915128,5.2e-4 v 2.27945 c 2.03e-4,0.0831 -0.06724,0.15058 -0.150379,0.15038 h -2.408638 v 0.0486 c 4.92e-4,0.0825 -0.06578,0.14996 -0.148312,0.1509 h -1.235066 v 0.14107 c 2.755593,-0.0839 4.86792,-0.15893 5.53868,-0.18293 z m 0.332797,0 -0.06511,5.2e-4 -0.305924,2.48099 c 0.02671,-5.4e-4 0.203921,-0.004 0.371037,-0.008 z m 0.265616,5.2e-4 v 2.46703 c 0.428567,-0.009 1.075859,-0.0245 1.811259,-0.0439 l 0.206706,-2.42311 z m 2.585372,0 -0.206189,2.40709 c 0.691755,-0.0193 1.439419,-0.0415 2.226221,-0.0687 1.013472,-0.0351 2.032158,-0.0758 2.920752,-0.12144 l 0.190686,-2.21692 z m 5.699394,0 -0.187585,2.18488 c 0.09473,-0.005 0.199151,-0.0109 0.289388,-0.0165 0.525594,-0.0328 0.972454,-0.0691 1.295011,-0.10542 0.161278,-0.0182 0.291352,-0.0367 0.382922,-0.0548 0.04577,-0.009 0.08261,-0.0183 0.10542,-0.0253 0.01139,-0.003 0.01929,-0.009 0.02222,-0.0103 l 0.01499,-0.0134 0.03101,-0.008 c 0,0 1.083157,-0.28696 2.345593,-0.69349 1.134873,-0.36546 2.41511,-0.83396 3.163115,-1.25781 z m -19.203479,0.19482 v 3.16208 h 4.175456 v -3.16208 z m 2.653068,0.41651 h 0.990637 c 0.07342,-1.6e-4 0.132974,0.0594 0.132809,0.13281 v 1.44539 c 1.65e-4,0.0734 -0.05939,0.13297 -0.132809,0.13281 H 22.57795 c -0.07342,1.6e-4 -0.132973,-0.0594 -0.132808,-0.13281 v -1.44539 c -1.65e-4,-0.0734 0.05939,-0.13297 0.132808,-0.13281 z m 0.132808,0.26562 v 1.17977 h 0.725021 v -1.17977 z m 22.226034,0.0682 -0.393258,0.14366 0.0072,0.0114 0.04134,0.0656 0.03669,0.0765 0.03514,0.0816 0.01757,0.0548 0.389124,-0.13074 -0.02377,-0.0667 -0.04496,-0.10903 -0.05064,-0.10336 z m -1.073836,0.39171 -0.214457,0.078 c 0.212493,0.12362 0.355017,0.35311 0.355017,0.61754 0,0.39556 -0.318543,0.71416 -0.714169,0.71416 -0.395621,0 -0.714168,-0.3186 -0.714168,-0.71416 0,-0.0849 0.01546,-0.16589 0.04237,-0.24133 l -0.213941,0.078 c -0.0098,0.0531 -0.01602,0.10745 -0.01602,0.1633 0,0.49688 0.404805,0.90175 0.901753,0.90175 0.496953,0 0.901754,-0.40487 0.901754,-0.90175 0,-0.27954 -0.127627,-0.52985 -0.328145,-0.69557 z m -0.31781,0.11576 -0.170016,0.062 c 0.02306,0.0228 0.03608,0.0539 0.03617,0.0863 -2.28e-4,0.0672 -0.05478,0.1215 -0.121957,0.12144 -0.06718,6e-5 -0.121728,-0.0543 -0.121956,-0.12144 8.5e-4,-0.004 0.0019,-0.008 0.0031,-0.0114 l -0.126091,0.046 c 0.04061,0.0201 0.06668,0.0611 0.0677,0.10645 3.47e-4,0.0676 -0.05437,0.12254 -0.121956,0.12248 -0.06758,6e-5 -0.122304,-0.0549 -0.121957,-0.12248 0.0011,-0.0164 0.0055,-0.0324 0.01292,-0.047 l -0.159164,0.0579 c -0.0434,0.087 -0.06621,0.18284 -0.06666,0.28008 -2e-6,0.35019 0.283885,0.63407 0.634069,0.63407 0.350186,0 0.634072,-0.28388 0.63407,-0.63407 5.6e-5,-0.25131 -0.148322,-0.47894 -0.378271,-0.58032 z m 0.03927,0.16846 c 0.0021,-1e-4 0.0041,0 0.0062,0 0.06698,-6e-5 0.121443,0.0539 0.121956,0.12092 3.47e-4,0.0676 -0.05437,0.12254 -0.121956,0.12248 -0.06758,6e-5 -0.122303,-0.0549 -0.121956,-0.12248 4.97e-4,-0.0649 0.05167,-0.11774 0.115756,-0.12092 z m 1.575097,0.077 -0.406176,0.031 0.0026,0.031 v 0.0729 l -0.0057,0.0646 -0.0062,0.0217 -0.0026,0.008 -0.01344,0.0289 -0.02946,0.0491 -0.03514,0.0563 -0.04289,0.0605 -0.10542,0.13901 -0.125057,0.14986 -0.14056,0.16019 -0.154512,0.1664 -0.156063,0.16227 0.295073,0.28473 0.158129,-0.16588 0.160197,-0.17156 0.148312,-0.17054 0.134875,-0.16174 0.115239,-0.15193 0.05271,-0.0724 0.04496,-0.0703 0.03876,-0.0682 0.03927,-0.0791 0.01757,-0.062 0.0098,-0.0548 0.0098,-0.1018 v -0.10955 z m -2.308386,0.21291 c 0.0021,-1.1e-4 0.0041,-10e-6 0.0062,0 0.06737,-6e-5 0.12201,0.0546 0.121957,0.12195 -2.28e-4,0.0672 -0.05478,0.1215 -0.121957,0.12144 -0.06718,6e-5 -0.121728,-0.0543 -0.121956,-0.12144 -5.1e-5,-0.0653 0.05129,-0.11874 0.115756,-0.12195 z m 0.86403,0 c 0.0021,-1.1e-4 0.0041,-10e-6 0.0062,0 0.06737,-6e-5 0.12201,0.0546 0.121957,0.12195 -2.28e-4,0.0672 -0.05478,0.1215 -0.121957,0.12144 -0.06718,6e-5 -0.121728,-0.0543 -0.121956,-0.12144 -5.1e-5,-0.0653 0.05129,-0.11874 0.115756,-0.12195 z m -1.438672,0.005 -0.270267,0.0987 c 0.07699,0.14999 0.120406,0.32002 0.120406,0.50074 0,0.60639 -0.488647,1.09503 -1.095024,1.09503 -0.559011,0 -1.017954,-0.41551 -1.086239,-0.9555 -0.0058,-0.0457 -0.0088,-0.0922 -0.0088,-0.13953 0,-0.0298 0.0018,-0.0591 0.0041,-0.0884 l -0.288872,0.008 c -0.0015,0.0264 -0.0031,0.0528 -0.0031,0.0796 0,0.0471 0.0026,0.0936 0.0072,0.13952 0.06075,0.60215 0.510088,1.09167 1.09244,1.21337 h -0.37052 v 0.40979 h 1.636593 v -0.40979 h -0.698666 c 0.625697,-0.13182 1.097608,-0.68881 1.097608,-1.35289 0,-0.21447 -0.04924,-0.41753 -0.136943,-0.59893 z m -0.406177,0.14779 -0.235127,0.0863 c -0.03261,0.0601 -0.09545,0.0975 -0.163815,0.0977 -0.02338,-1.7e-4 -0.04652,-0.005 -0.06821,-0.0134 l -0.448552,0.16382 -0.434599,0.0124 c 0.02241,0.0305 0.03502,0.0671 0.03617,0.1049 1.54e-4,0.0532 -0.0224,0.10398 -0.06201,0.13953 -0.03425,0.0306 -0.07859,0.0476 -0.12454,0.0475 -0.04506,-6.2e-4 -0.08837,-0.0175 -0.121956,-0.0475 -0.04057,-0.0351 -0.06409,-0.0859 -0.0646,-0.13953 0.0012,-0.0342 0.01171,-0.0675 0.03049,-0.0961 l -0.167432,0.005 c -0.0039,0.0269 -0.0066,0.054 -0.0083,0.0811 8.7e-5,0.0502 0.0041,0.1003 0.01189,0.14987 0.07372,0.473 0.480924,0.82187 0.959631,0.82217 0.536882,1.1e-4 0.972139,-0.43516 0.972034,-0.97204 -0.0016,-0.15383 -0.03966,-0.30507 -0.111105,-0.44131 z m 1.113628,0.13746 c 0.0021,-1e-4 0.0041,0 0.0062,0 0.06738,-6e-5 0.122015,0.0546 0.121956,0.12196 -2.28e-4,0.0672 -0.05478,0.1215 -0.121956,0.12144 -0.06718,6e-5 -0.121729,-0.0543 -0.121957,-0.12144 -5.7e-5,-0.0653 0.0513,-0.11875 0.115756,-0.12196 z m 0.60048,0 c 0.0021,-1e-4 0.0041,0 0.0062,0 0.06738,-6e-5 0.122015,0.0546 0.121956,0.12196 -2.28e-4,0.0672 -0.05478,0.1215 -0.121956,0.12144 -0.06718,6e-5 -0.121728,-0.0543 -0.121956,-0.12144 -5.8e-5,-0.0653 0.05129,-0.11875 0.115756,-0.12196 z m -1.922364,0.11731 c 0.0032,-1.6e-4 0.0066,-1e-5 0.0098,0 0.10298,1.2e-4 0.186432,0.0836 0.186552,0.18655 1.67e-4,0.10318 -0.08337,0.18695 -0.186552,0.18707 -0.103385,1.7e-4 -0.187237,-0.0837 -0.187069,-0.18707 1.17e-4,-0.1 0.07854,-0.18171 0.17725,-0.18655 z m 1.62109,0.0248 c 0.0021,-1e-4 0.0041,0 0.0062,0 0.06738,-6e-5 0.122016,0.0546 0.121957,0.12196 -2.28e-4,0.0672 -0.05478,0.1215 -0.121957,0.12144 -0.06718,6e-5 -0.121728,-0.0543 -0.121956,-0.12144 -5.7e-5,-0.0653 0.05129,-0.11875 0.115756,-0.12196 z m -3.799768,0.0966 -1.756999,0.0501 v 0.0584 h 1.756999 z m -1.969906,0.0563 -1.756998,0.0501 v 0.002 h 1.756998 z m -1.88929,0.0538 -0.287838,0.008 c -4.57e-4,0.0326 -0.002,0.0648 -0.0052,0.0966 -0.05567,0.55358 -0.520689,0.98341 -1.089339,0.98341 -0.580244,0 -1.051794,-0.44764 -1.091407,-1.01751 l -0.287321,0.008 c 0.04458,0.72187 0.645915,1.29657 1.378728,1.29657 h 0.0026 v 0.35243 h 1.636593 v -0.40979 h -1.244368 c 0.53608,-0.16009 0.937039,-0.63785 0.983402,-1.21337 0.0028,-0.0343 0.0039,-0.069 0.0041,-0.10387 z m -0.410828,0.0119 -0.124023,0.004 c -0.01109,0.0938 -0.09051,0.1646 -0.185002,0.16484 -0.08934,-0.002 -0.164938,-0.0665 -0.18035,-0.15451 l -0.966866,0.0274 c -0.02563,0.0761 -0.09699,0.12723 -0.177251,0.12712 -0.07605,-3.1e-4 -0.144316,-0.0467 -0.172599,-0.1173 l -0.129708,0.004 c 0.0384,0.50486 0.457974,0.89565 0.964283,0.89813 0.529493,-8e-5 0.961489,-0.42403 0.971516,-0.95343 z m -2.706294,0.077 -0.436666,0.0124 h -0.001 c -0.04627,0.009 -0.09456,0.0145 -0.14366,0.0145 -0.03349,0 -0.06593,-0.003 -0.09819,-0.007 l -0.441834,0.0124 c 0.150888,0.11338 0.337409,0.18086 0.540019,0.18086 0.221229,0 0.424238,-0.0801 0.58136,-0.2129 z m -1.575098,0.045 -0.279053,0.008 -0.147794,0.13746 0.05684,0.0625 0.191203,0.19327 0.199471,0.19172 0.203088,0.18346 0.203088,0.17363 0.195337,0.15813 0.183452,0.14056 0.01602,0.0119 0.238229,-0.33176 -0.0093,-0.008 -0.17415,-0.13281 -0.187068,-0.15244 -0.193787,-0.16588 -0.195337,-0.1757 -0.191203,-0.18345 z m 4.824512,0.0775 v 0.33022 h 1.756998 v -0.33022 z m 1.969905,0 v 0.33022 h 1.756999 v -0.33022 z m 2.814816,0.002 c 0.0032,-1.6e-4 0.0066,-1e-5 0.0098,0 0.10298,1.2e-4 0.186432,0.0836 0.186552,0.18655 1.67e-4,0.10318 -0.08337,0.18695 -0.186552,0.18707 -0.103385,1.7e-4 -0.187237,-0.0837 -0.187069,-0.18707 1.17e-4,-0.1 0.07853,-0.18171 0.177251,-0.18655 z m 0.920357,0 c 0.0032,-1.6e-4 0.0066,-1e-5 0.0098,0 0.10298,1.2e-4 0.186432,0.0836 0.186552,0.18655 1.67e-4,0.10318 -0.08337,0.18695 -0.186552,0.18707 -0.103381,1.7e-4 -0.187236,-0.0837 -0.187068,-0.18707 1.16e-4,-0.1 0.07853,-0.18171 0.17725,-0.18655 z m -7.687903,0.0382 c 0.0032,-1.6e-4 0.0066,0 0.0098,0 0.103181,-1.7e-4 0.186948,0.0834 0.187068,0.18655 1.68e-4,0.10338 -0.08368,0.18724 -0.187068,0.18707 -0.103183,-1.2e-4 -0.186719,-0.0839 -0.186552,-0.18707 1.16e-4,-0.0998 0.07821,-0.18145 0.176733,-0.18655 z m 0.920357,0 c 0.0032,-1.6e-4 0.0066,0 0.0098,0 0.10298,1.2e-4 0.186432,0.0836 0.186552,0.18655 1.67e-4,0.10318 -0.08337,0.18695 -0.186552,0.18707 -0.103183,-1.2e-4 -0.186719,-0.0839 -0.186552,-0.18707 1.16e-4,-0.0998 0.07821,-0.18145 0.176733,-0.18655 z m 6.305559,0.17932 c 0.0032,-1.7e-4 0.0066,0 0.0098,0 0.103385,-1.7e-4 0.187237,0.0837 0.187069,0.18707 -1.2e-4,0.10318 -0.08389,0.18672 -0.187069,0.18655 -0.10298,-1.2e-4 -0.186432,-0.0836 -0.186552,-0.18655 -1.62e-4,-0.1 0.07803,-0.18195 0.176734,-0.18707 z m -6.767546,0.0382 c 0.0032,-1.7e-4 0.0066,0 0.0098,0 0.103381,-1.7e-4 0.187236,0.0837 0.187068,0.18707 -1.2e-4,0.10318 -0.08389,0.18672 -0.187068,0.18655 -0.10298,-1.2e-4 -0.186432,-0.0836 -0.186552,-0.18655 -1.62e-4,-0.1 0.07803,-0.18195 0.176733,-0.18707 z m 9.41958,0.16175 -0.05271,0.0512 -0.161747,0.15192 -0.15658,0.13695 -0.142627,0.12299 -0.126607,0.0997 -0.107487,0.078 -0.03927,0.0253 -0.03101,0.0176 -0.0093,0.004 h -0.398425 v 0.41031 h 0.468705 l 0.07235,-0.0253 0.05633,-0.0253 0.05478,-0.0305 0.05891,-0.0398 0.120923,-0.0879 0.14056,-0.1111 0.150378,-0.12713 0.162264,-0.14469 0.170015,-0.15606 0.05633,-0.0548 z m -28.198795,0.0605 -0.350367,0.003 c -0.200561,0.24111 -0.502447,0.39481 -0.841809,0.39481 -0.334587,0 -0.632581,-0.14924 -0.833024,-0.38448 l -0.350366,0.002 c 0.242275,0.40079 0.682729,0.66921 1.183907,0.66921 h 0.0021 v 0.35243 h 1.636593 v -0.40979 h -1.244369 c 0.338063,-0.10096 0.621818,-0.32838 0.797368,-0.62684 z m -0.519349,0.004 -0.49351,0.003 c -0.0189,0.084 -0.09274,0.14415 -0.1788,0.14572 -0.0851,-0.002 -0.158415,-0.0604 -0.178284,-0.14314 l -0.481624,0.003 c 0.178894,0.16781 0.414627,0.26177 0.659908,0.26303 0.250636,-1.9e-4 0.491508,-0.0972 0.67231,-0.27078 z m -3.356384,0.0202 -0.613399,0.004 0.0083,0.008 0.202572,0.18345 0.203605,0.17363 0.19482,0.15813 0.183968,0.14056 0.01602,0.0119 0.238228,-0.33176 -0.0098,-0.008 -0.17415,-0.13281 -0.187069,-0.15244 z m 24.179403,0.0403 v 0.3576 h 1.756998 v -0.3576 z m 1.969905,0 v 0.3576 h 1.756999 v -0.3576 z m -21.950598,5.2e-4 v 0.3576 h 1.756999 v -0.3576 z m 1.969906,0 v 0.3576 h 1.756999 v -0.3576 z m 2.510441,0.33848 c 0.151024,0.10697 0.324177,0.18458 0.511597,0.22376 h -0.37052 v 0.40979 h 1.636592 v -0.40979 h -0.698148 c 0.187,-0.0394 0.360071,-0.11689 0.51108,-0.22376 z m 2.901115,0 -0.126607,0.0997 -0.107487,0.078 -0.03927,0.0248 -0.03101,0.0181 -0.0098,0.004 H 22.44464 v 0.41031 h 0.468705 l 0.07235,-0.0258 0.05633,-0.0253 0.05478,-0.0305 0.05891,-0.0398 0.120922,-0.0879 0.14056,-0.11111 0.150379,-0.12712 0.162264,-0.1447 0.04599,-0.0424 z m 9.158614,0.185 -0.207223,0.35347 0.01602,0.0103 0.06408,0.0331 0.06098,0.0274 0.07803,0.0253 h 1.505851 v -0.41031 h -1.441256 -0.0021 l -0.02377,-0.0119 -0.04289,-0.0212 z m -19.980693,5.2e-4 -0.207222,0.35347 0.01602,0.0103 0.06408,0.0331 0.06098,0.0274 0.07803,0.0253 h 1.505851 v -0.41031 h -1.441255 -0.0026 l -0.02377,-0.0119 -0.04289,-0.0212 z m 23.953577,0.0388 v 0.40979 h 1.636593 v -0.40979 z m 2.044836,0 v 0.40979 h 1.636593 v -0.40979 z m -22.025528,5.1e-4 v 0.4098 h 1.636592 v -0.4098 z m 2.044836,0 v 0.4098 h 1.636593 v -0.4098 z"
         sodipodi:nodetypes="ccccccccccccccccccccccccccccccsssscccccsccscccccccccccccccccccccccccccccccccccccccccccccccccccccccccccccccccccccccccccccccccccccccccccscccccccccccccccccccccccccccccccccccsssccsssccccccccccccccsccsccccscccccccccccccccccccccccccccccccsccccssccccsccsscsccscccccccsccccccccccccccccccccsccccssccccssccccssccccscccccccccccccsccsccccccsccccccccccccccsccscccccccccccccccccccccccccccccccsccccssccccssccccssccccssccccssccccsccccccccccccccccccccccccccsccscccccccccccccccccccccccccccccccccccccccccccccccccccccccccccccccccccccccccccccccccccccccccccccccccccccccccccccccccccccccccc" /><path
         id="path1740-1"
         style="fill:#000000;stroke:none;stroke-width:0.206708px;stroke-linecap:butt;stroke-linejoin:miter;stroke-opacity:1"
         d="m 40.253573,238.38714 c -0.0588,0.004 -0.11044,0.0183 -0.149708,0.0494 -0.212744,0.1683 0.01883,0.74126 0.143881,0.87706 l 0.129561,0.14066 1.01239,-0.34226 -0.374185,-0.40612 c -0.0016,-0.003 -0.0038,-0.004 -0.0059,-0.006 l -6e-6,-4e-4 c -0.111135,-0.11289 -0.501371,-0.32499 -0.756041,-0.31182 z m -1.450835,0.46179 c -0.0588,0.004 -0.110451,0.018 -0.149713,0.049 -0.212747,0.1683 0.01883,0.74169 0.143885,0.87747 l 0.149945,0.16261 1.012382,-0.34267 -0.394116,-0.42766 c -0.0017,-0.003 -0.0039,-0.004 -0.0059,-0.006 -0.110859,-0.11281 -0.501606,-0.32531 -0.756492,-0.31221 z m -1.429549,0.48455 c -0.0588,0.004 -0.110445,0.0182 -0.149708,0.0494 -0.212744,0.16827 0.01882,0.74127 0.143879,0.87705 l 0.149035,0.16139 1.012396,-0.34186 -0.39322,-0.42724 c -0.0017,-0.003 -0.0039,-0.004 -0.0059,-0.006 -0.11086,-0.11282 -0.501612,-0.32572 -0.756498,-0.31264 z m -1.404675,0.48086 c -0.05882,0.004 -0.110441,0.0183 -0.149708,0.0494 -0.21275,0.16831 0.01892,0.7413 0.14388,0.87707 l 0.140426,0.15203 1.012391,-0.34226 -0.384606,-0.41749 c -0.0017,-0.003 -0.0036,-0.004 -0.0055,-0.006 l -4.5e-4,-4e-4 c -0.110859,-0.11282 -0.501518,-0.32539 -0.756493,-0.31223 z m -1.389771,0.49424 c -0.07127,-0.002 -0.133719,0.0136 -0.179531,0.0498 -0.212744,0.16831 0.01883,0.74168 0.143887,0.87748 l 0.12911,0.14025 1.012835,-0.34227 -0.37418,-0.4057 c -0.0016,-0.003 -0.0038,-0.004 -0.0059,-0.007 l -6e-6,-4e-4 C 35.1981,240.51221 34.83304,240.312 34.578741,240.30846 Z m -1.480658,0.46225 c -0.0588,0.004 -0.110446,0.0182 -0.149708,0.0494 -0.212746,0.16828 0.01883,0.74127 0.14388,0.87705 l 0.149944,0.1626 1.01239,-0.34225 -0.394124,-0.42807 c -0.0017,-0.003 -0.0039,-0.004 -0.0059,-0.006 l -4.46e-4,1e-5 c -0.110858,-0.11283 -0.501167,-0.32574 -0.756053,-0.31265 z m -1.429544,0.48497 c -0.05881,0.004 -0.11045,0.018 -0.149713,0.049 -0.212744,0.1683 0.01883,0.74169 0.143887,0.87748 l 0.149032,0.16138 1.012391,-0.34225 -0.393213,-0.42686 c -0.0017,-0.003 -0.0039,-0.004 -0.0059,-0.006 -0.110861,-0.11281 -0.501606,-0.32529 -0.756492,-0.31222 z"
         sodipodi:nodetypes="ccccccccccccccccccccccccccccccccccccccccccccccccccccccccccccccccccc" /><path
         style="fill:#000000;stroke:none;stroke-width:0.264583px;stroke-linecap:butt;stroke-linejoin:miter;stroke-opacity:1"
         d="m 22.553176,240.61289 -0.04749,-0.36807 0.925617,-0.53785 0.03883,0.97782 z"
         id="path9451"
         sodipodi:nodetypes="ccccc" /><path
         style="display:inline;fill:#000000;stroke:none;stroke-width:0.264583px;stroke-linecap:butt;stroke-linejoin:miter;stroke-opacity:1"
         d="m 20.741376,240.61289 -0.04749,-0.36807 0.925617,-0.53785 0.03883,0.97782 z"
         id="path9451-5"
         sodipodi:nodetypes="ccccc" /></g></g></svg>
