<?xml version="1.0" encoding="UTF-8" standalone="no"?>
<!-- Created with Inkscape (http://www.inkscape.org/) -->

<svg
   width="60mm"
   height="42mm"
   viewBox="0 0 60 42"
   version="1.1"
   id="svg8"
   inkscape:version="1.1.2 (0a00cf5339, 2022-02-04)"
   sodipodi:docname="Mobile HQ.svg"
   xmlns:inkscape="http://www.inkscape.org/namespaces/inkscape"
   xmlns:sodipodi="http://sodipodi.sourceforge.net/DTD/sodipodi-0.dtd"
   xmlns="http://www.w3.org/2000/svg"
   xmlns:svg="http://www.w3.org/2000/svg"
   xmlns:rdf="http://www.w3.org/1999/02/22-rdf-syntax-ns#"
   xmlns:cc="http://creativecommons.org/ns#"
   xmlns:dc="http://purl.org/dc/elements/1.1/">
  <defs
     id="defs2">
    <inkscape:path-effect
       effect="copy_rotate"
       starting_point="62.825012,51.902842"
       origin="61.825012,51.902842"
       id="path-effect2032-9"
       is_visible="true"
       lpeversion="1"
       method="normal"
       num_copies="19"
       starting_angle="0"
       rotation_angle="18.947368"
       gap="-0.01"
       copies_to_360="true"
       mirror_copies="false"
       split_items="false" />
    <inkscape:path-effect
       effect="copy_rotate"
       starting_point="62.825012,52.034264"
       origin="61.825012,52.034264"
       id="path-effect1183-6"
       is_visible="true"
       lpeversion="1"
       method="normal"
       num_copies="19"
       starting_angle="0"
       rotation_angle="18.947368"
       gap="-0.01"
       copies_to_360="true"
       mirror_copies="false"
       split_items="false" />
    <inkscape:path-effect
       effect="copy_rotate"
       starting_point="64.010074,52.034264"
       origin="61.825012,52.034264"
       id="path-effect2800-4"
       is_visible="true"
       lpeversion="1"
       method="normal"
       num_copies="6"
       starting_angle="0"
       rotation_angle="60"
       gap="-0.01"
       copies_to_360="true"
       mirror_copies="false"
       split_items="false" />
  </defs>
  <sodipodi:namedview
     id="base"
     pagecolor="#ffffff"
     bordercolor="#666666"
     borderopacity="1.0"
     inkscape:pageopacity="0.0"
     inkscape:pageshadow="2"
     inkscape:zoom="2"
     inkscape:cx="188.75"
     inkscape:cy="144"
     inkscape:document-units="mm"
     inkscape:current-layer="layer1"
     showgrid="false"
     inkscape:window-width="1920"
     inkscape:window-height="1043"
     inkscape:window-x="1920"
     inkscape:window-y="1080"
     inkscape:window-maximized="1"
     inkscape:snap-global="false"
     showguides="true"
     inkscape:pagecheckerboard="0"
     inkscape:guide-bbox="true" />
  <metadata
     id="metadata5">
    <rdf:RDF>
      <cc:Work
         rdf:about="">
        <dc:format>image/svg+xml</dc:format>
        <dc:type
           rdf:resource="http://purl.org/dc/dcmitype/StillImage" />
      </cc:Work>
    </rdf:RDF>
  </metadata>
  <g
     inkscape:label="Capa 1"
     inkscape:groupmode="layer"
     id="layer1"
     transform="translate(0,-255)">
    <g
       id="g10495">
      <path
         id="rect4372"
         style="fill:#000000;stroke:none;stroke-width:0.379566;stroke-linecap:round;stroke-miterlimit:4;stroke-dasharray:none;stroke-dashoffset:10.0937;stop-color:#000000"
         d="m 16.297006,268.09707 c -0.06926,0 -0.129535,0.036 -0.164087,0.0903 h -1.928136 c -0.14801,0 -0.270248,0.10562 -0.296117,0.24593 h -0.21555 c -0.106981,0 -0.193193,0.0862 -0.193193,0.19319 0,0.10698 0.08621,0.19277 0.193193,0.19277 h 0.21555 c 0.02587,0.14031 0.148107,0.24592 0.296117,0.24592 h 1.404236 v -0.36192 c 0,-0.22027 0.177505,-0.39736 0.397776,-0.39736 h 1.651844 c 0.220271,0 0.397354,0.17709 0.397354,0.39736 v 0.49479 h 0.578313 c 0.107839,0 0.194459,-0.0866 0.194459,-0.19446 v -0.41591 c 0,-0.10784 -0.08662,-0.19488 -0.194459,-0.19488 h -0.114734 v -0.10081 c 0,-0.10784 -0.08662,-0.19488 -0.194459,-0.19488 z m 1.725242,1.26968 c -0.0614,0.14001 -0.20042,0.23747 -0.363609,0.23747 h -1.081544 l 0.0173,0.27798 0.921253,0.006 0.898896,-0.26829 z" />
      <path
         id="rect3505"
         style="fill:#000000;stroke:none;stroke-width:0.45962;stroke-linecap:round;stroke-miterlimit:4;stroke-dasharray:none;stroke-dashoffset:10.0937;stop-color:#000000"
         d="m 48.059153,273.89497 c -0.04788,0.002 -0.09682,0.014 -0.144262,0.0371 l -0.400308,0.19445 c 0.04745,0.24509 0.0929,0.50746 0.135405,0.77826 l 0.536977,-0.2611 c 0.18978,-0.0923 0.28167,-0.32512 0.206267,-0.52222 -0.05655,-0.14782 -0.190436,-0.23246 -0.334079,-0.22651 z m 8.98e-4,1.68771 c -0.05352,-5.9e-4 -0.108602,0.0112 -0.161979,0.0371 l -0.134983,0.0658 c 0.0384,0.28289 0.07229,0.54633 0.102081,0.79386 l 0.304976,-0.14806 c 0.189783,-0.0923 0.28167,-0.32512 0.20627,-0.52221 -0.05419,-0.14167 -0.179574,-0.22505 -0.316365,-0.22652 z" />
      <path
         id="path8067"
         style="fill:#000000;stroke:none;stroke-width:0.215971px;stroke-linecap:butt;stroke-linejoin:miter;stroke-opacity:1"
         d="m 31.71334,268.95967 v 0.39989 h -0.347581 v 2.3702 h 1.477213 c 0.08024,0 0.150238,0.0413 0.190662,0.10377 0.0404,-0.0625 0.110765,-0.10377 0.191083,-0.10377 h 3.553406 v -2.3702 h -0.299071 v -0.39989 z m 5.70173,0.16325 v 0.23664 h -0.25731 v 2.3702 c 0.0024,-7e-5 0.0047,0 0.0072,0 h 3.55889 c 0.08029,0 0.150679,0.0412 0.191085,0.10377 0.04042,-0.0625 0.110422,-0.10377 0.190662,-0.10377 h 3.558467 c 0.125905,0 0.227359,0.10144 0.227359,0.22736 v 0.33914 h 0.858826 c 0.08177,0 0.149759,0.0518 0.176742,0.12402 0.152245,0.009 0.286264,0.0192 0.399463,0.0295 0.104351,0.01 0.192059,0.019 0.263215,0.0299 -0.121693,-0.20028 -0.299109,-0.36275 -0.511245,-0.46569 v -0.64117 c 0,-0.13146 -0.01152,-0.25997 -0.03332,-0.38427 l -0.383013,0.002 c 0,0 -0.122205,-0.88643 -0.454298,-1.14734 l 0.248873,0.0186 c -0.324385,-0.31297 -0.751223,-0.50239 -1.2199,-0.50239 h -0.334503 v -0.23664 z m -17.226255,0.0194 c -0.09154,0.004 -0.166128,0.0717 -0.181382,0.15987 h -0.45894 c -0.0026,0 -0.0051,-2.6e-4 -0.0076,0 -0.03712,0.004 -0.06631,0.0343 -0.06791,0.0721 h -0.165775 c -0.0029,0 -0.0056,-1.4e-4 -0.0084,0 -0.08637,0.004 -0.154386,0.0754 -0.154386,0.16283 0,0.0152 0.0021,0.03 0.0059,0.0439 h -0.132873 l -1.185312,0.39525 1.434607,1.01743 c 0.311486,-0.4241 0.778261,-0.82142 1.451058,-1.12753 2.81e-4,-1.4e-4 6.11e-4,-2.4e-4 8.44e-4,-4.2e-4 0.334891,-0.18096 0.703252,-0.31572 1.095465,-0.39482 -0.02535,-0.0571 -0.08262,-0.0966 -0.149324,-0.0966 h -0.09955 c -0.0017,-0.0403 -0.03517,-0.0721 -0.07593,-0.0721 h -0.520525 c -0.01575,-0.0909 -0.09467,-0.15987 -0.190241,-0.15987 h -0.580845 c -0.003,0 -0.0059,-1.3e-4 -0.0089,0 z m 2.159293,0.21724 v 0.0329 l 0.0025,-4.2e-4 -0.0025,0.0481 v 0.437 l 8.638015,0.99676 v -1.51433 h -6.796352 z m -0.137935,0.10798 -0.190662,0.0329 c -1.516207,0.25502 -2.705947,1.31992 -2.997026,2.68488 l -0.03796,0.17379 h 0.634416 c -7.56e-4,0.004 -0.0013,0.007 -0.0021,0.0114 h 0.342517 c 8.17e-4,-0.004 0.0016,-0.007 0.0025,-0.0114 h 2.248297 z m 21.130614,0.32101 c 0.0331,-10e-5 0.0664,-3e-5 0.09955,0 0.530435,5e-4 1.058202,0.0176 1.27094,0.0548 0.544067,0.33115 0.468641,1.14734 0.468641,1.14734 h -2.560443 l -0.464844,-1.15662 c 0.208505,-0.0282 0.689729,-0.0441 1.186156,-0.0456 z m -21.453306,0.0911 v 0.25562 c -0.185596,0.0451 -0.364513,0.10515 -0.534867,0.17886 -0.0054,-0.009 -0.01057,-0.0174 -0.01645,-0.0266 -0.03671,-0.0571 -0.08259,-0.11923 -0.140044,-0.17674 0.217092,-0.0977 0.448667,-0.1753 0.691362,-0.23116 z m -5.329686,0.15987 0.07424,2.16056 h 0.86937 c 0.236974,0 0.427724,0.19075 0.427724,0.42772 v 2.34237 c 0.03639,-0.0269 0.07484,-0.054 0.115157,-0.0818 l 0.01856,-1.69697 0.03712,0.009 c 0.05915,-0.53334 0.443018,-0.63515 0.627667,-0.60868 0.0011,-0.43467 0.116967,-0.93781 0.418023,-1.419 l -1.595743,-1.13301 z m -0.17632,0.0388 -0.203317,0.0321 c -1.61869,0.24909 -2.888746,1.28962 -3.199499,2.62287 l -0.04092,0.16999 h 0.677442 c -7.99e-4,0.004 -0.0013,0.007 -0.0021,0.0105 h 0.365717 c 8.81e-4,-0.004 0.0021,-0.007 0.003,-0.0105 h 1.214418 v -0.27545 c 0,-0.003 -7.9e-5,-0.007 0,-0.0101 h -1.122036 c 0.220098,-0.5436 0.661372,-1.0026 1.23593,-1.30342 0.02214,0.0897 0.04126,0.25876 0.03248,0.46189 -0.0074,0.17001 -0.02665,0.36818 -0.0502,0.58042 0.07832,-0.0958 0.197618,-0.15649 0.33155,-0.15649 h 0.01687 c 0.0148,-0.14672 0.02655,-0.28606 0.03206,-0.41338 0.01089,-0.25153 0.01443,-0.45113 -0.06496,-0.60911 0.13744,-0.0549 0.281187,-0.10079 0.429412,-0.13793 v 1.16042 h 0.344204 z m 5.966633,0.0156 v 1.27895 1.02038 0.0612 h -3.377085 c -0.03001,0 -0.05399,0.024 -0.05399,0.054 v 0.24339 h -0.07002 c -0.336158,0 -0.606998,0.27083 -0.606998,0.607 v 1.4017 c 0.156166,-0.0992 0.322378,-0.201 0.521369,-0.31636 0.479509,-0.27799 1.05804,-0.58829 1.618098,-0.87992 1.120118,-0.58325 2.165199,-1.0904 2.165199,-1.0904 l 0.02067,-0.01 0.02236,-0.005 c 0.216495,-0.0451 0.683926,-0.0691 1.41436,-0.0953 0.730434,-0.0262 1.69919,-0.048 2.827876,-0.0654 0.685582,-0.0105 1.442613,-0.019 2.227206,-0.0262 v -0.3151 c 0,-0.12592 0.101444,-0.22736 0.227361,-0.22736 h 1.701619 v -0.63905 z m -1.435029,0.15987 c 0.06111,0.0474 0.114011,0.11039 0.155229,0.17463 0.0041,0.007 0.008,0.0127 0.01181,0.019 -0.659203,0.36167 -1.159969,0.9372 -1.383989,1.61979 h -0.255201 c 0.223409,-0.76944 0.752703,-1.40805 1.47215,-1.8134 z m 0.974402,0.19741 v 1.61599 h -0.414648 c 0.03331,-0.3084 0.06353,-0.60153 0.0734,-0.85081 0.0102,-0.25751 0.01363,-0.46171 -0.06074,-0.62345 0.128738,-0.0562 0.263153,-0.10369 0.401994,-0.14173 z m -5.850211,0.03 v 0.24971 c -0.19814,0.0441 -0.389275,0.10264 -0.571143,0.17464 -0.0057,-0.009 -0.01145,-0.0172 -0.01772,-0.0262 -0.0392,-0.0558 -0.088,-0.11636 -0.149324,-0.17252 0.231766,-0.0954 0.479085,-0.17111 0.738183,-0.22567 z m 5.169395,0.25182 c 0.02073,0.0918 0.03818,0.2649 0.02995,0.47286 -0.0097,0.24381 -0.04044,0.54357 -0.07466,0.86136 h -1.113181 c 0.206164,-0.55654 0.619711,-1.02625 1.157894,-1.33422 z m -6.209601,0.11347 c 0.06525,0.0463 0.121349,0.10767 0.165353,0.17042 0.0043,0.006 0.0086,0.0123 0.01266,0.0186 -0.703761,0.35326 -1.23805,0.9155 -1.477211,1.58224 h -0.272496 c 0.238509,-0.75156 0.803624,-1.37528 1.571699,-1.77122 z m 14.484851,1.12837 c -0.111839,0.002 -0.200784,0.0937 -0.200786,0.20627 v 0.19488 c 0.02989,0.0337 0.04935,0.0769 0.04935,0.1257 v 0.16156 c 0,0.048 -0.02029,0.0882 -0.04935,0.12148 v 0.58211 c 0.02907,0.0334 0.04935,0.0739 0.04935,0.12191 v 0.16113 c 0,0.048 -0.02029,0.0889 -0.04935,0.12233 v 0.57789 c 0.02907,0.0334 0.04935,0.0739 0.04935,0.12191 v 0.16156 c 0,0.0488 -0.01946,0.0921 -0.04935,0.1257 v 2.36598 c 0,0.11434 0.09194,0.20627 0.20627,0.20627 h 3.15816 c 0.114331,0 0.20627,-0.0919 0.20627,-0.20627 v -4.94414 c 0,-0.11434 -0.09194,-0.20627 -0.20627,-0.20627 h -3.15816 c -0.0017,0 -0.0038,-5e-5 -0.0055,0 z m 3.940215,0 c -0.111839,0.002 -0.200785,0.0937 -0.200787,0.20627 v 4.94414 c 0,0.11434 0.09194,0.20627 0.20627,0.20627 h 3.158159 c 0.114331,0 0.20627,-0.0919 0.20627,-0.20627 v -4.94414 c 0,-0.11434 -0.09194,-0.20627 -0.20627,-0.20627 h -3.158159 c -0.0017,0 -0.0038,-5e-5 -0.0055,0 z m 3.940634,0 c -0.111836,0.002 -0.200784,0.0937 -0.200786,0.20627 v 4.94414 c 0,0.11434 0.09194,0.20627 0.20627,0.20627 h 3.158161 c 0.114333,0 0.20627,-0.0919 0.20627,-0.20627 v -4.94414 c 0,-0.11434 -0.09194,-0.20627 -0.20627,-0.20627 h -3.158161 c -0.0017,0 -0.0039,-5e-5 -0.0055,0 z m 3.940214,0 c -0.111841,0.002 -0.200785,0.0937 -0.200787,0.20627 v 4.94414 c 0,0.11434 0.09194,0.20627 0.20627,0.20627 h 3.158162 c 0.114331,0 0.20627,-0.0919 0.20627,-0.20627 v -4.94414 c 0,-0.11434 -0.09194,-0.20627 -0.20627,-0.20627 h -3.158162 c -0.0017,0 -0.0038,-5e-5 -0.0055,0 z m 3.860068,0.47244 c -0.03075,0.002 -0.05951,0.0102 -0.08521,0.0236 h -0.134558 c -0.07687,0 -0.138779,0.062 -0.138779,0.13878 0,0.0769 0.06191,0.13878 0.138779,0.13878 h 0.02404 v 0.6787 h -0.02404 c -0.07687,0 -0.138779,0.0619 -0.138779,0.13878 0,0.0769 0.06191,0.13836 0.138779,0.13836 h 0.02404 v 0.6787 h -0.02404 c -0.07687,0 -0.138779,0.0619 -0.138779,0.13878 0,0.0769 0.06191,0.13878 0.138779,0.13878 h 0.134561 c 0.02865,0.015 0.06103,0.0236 0.09575,0.0236 h 0.306239 c 0.03472,0 0.0671,-0.009 0.09575,-0.0236 h 0.134561 c 0.07687,0 0.138779,-0.062 0.138779,-0.13878 0,-0.0769 -0.06191,-0.13878 -0.138779,-0.13878 h -0.02404 v -0.6787 h 0.02404 c 0.07687,0 0.138779,-0.0615 0.138779,-0.13836 0,-0.0769 -0.06191,-0.13878 -0.138779,-0.13878 h -0.02404 v -0.6787 h 0.02404 c 0.07687,0 0.138779,-0.0619 0.138779,-0.13878 0,-0.0769 -0.06191,-0.13878 -0.138779,-0.13878 h -0.134561 c -0.02865,-0.015 -0.06103,-0.0236 -0.09575,-0.0236 h -0.306239 c -0.0036,0 -0.007,-1.8e-4 -0.01055,0 z m -16.627272,0.007 c -0.03075,0.002 -0.05951,0.0102 -0.08521,0.0236 h -0.13456 c -0.07687,0 -0.138779,0.062 -0.138779,0.13878 0,0.0769 0.06191,0.13878 0.138779,0.13878 h 0.02404 v 0.6787 h -0.02404 c -0.07687,0 -0.138779,0.0619 -0.138779,0.13878 0,0.0769 0.06191,0.13836 0.138779,0.13836 h 0.02404 v 0.67871 h -0.02404 c -0.07687,0 -0.138779,0.0619 -0.138779,0.13877 0,0.0769 0.06191,0.13878 0.138779,0.13878 h 0.13456 c 0.02865,0.015 0.06103,0.0236 0.09575,0.0236 h 0.306241 c 0.03472,0 0.0671,-0.009 0.09575,-0.0236 h 0.13456 c 0.07687,0 0.138778,-0.062 0.138779,-0.13878 0,-0.0769 -0.06191,-0.13877 -0.138779,-0.13877 h -0.02404 v -0.67871 h 0.02404 c 0.07687,0 0.138778,-0.0615 0.138779,-0.13836 0,-0.0769 -0.06191,-0.13878 -0.138779,-0.13878 h -0.02404 v -0.6787 h 0.02404 c 0.07687,0 0.138778,-0.0619 0.138779,-0.13878 0,-0.0769 -0.06191,-0.13878 -0.138779,-0.13878 h -0.13456 c -0.02865,-0.015 -0.06103,-0.0236 -0.09575,-0.0236 h -0.306241 c -0.0036,0 -0.007,-1.7e-4 -0.01055,0 z m -12.755813,0.043 c -0.198419,0.005 -0.35686,0.16648 -0.35686,0.36614 v 2.80088 c 0,0.20284 0.163306,0.36614 0.36614,0.36614 h 1.546389 c 0.07356,0 0.141839,-0.0216 0.199099,-0.0586 -0.712791,1.14882 -2.061184,3.40824 -1.976645,3.95329 0,0 0.335053,0.52406 0.513354,0.53908 l 7.16713,0.11094 c -0.241885,-0.43694 0.02573,-3.1299 0.02573,-3.1299 0.328767,-0.0702 2.725783,-0.10605 5.792844,-0.12317 v -2.48156 h -0.683347 c -0.02421,0 -0.0471,-0.006 -0.06707,-0.0165 h -0.03839 c -0.105698,0 -0.190662,-0.085 -0.190662,-0.19066 v -0.16156 c 0,-0.0925 0.06518,-0.16915 0.152277,-0.18687 v -0.44797 c -0.0871,-0.0177 -0.152277,-0.0948 -0.152277,-0.18729 v -0.16113 c 0,-0.0925 0.06518,-0.16916 0.152277,-0.18687 v -0.45177 c -0.0871,-0.0177 -0.152277,-0.0944 -0.152277,-0.18686 v -0.16029 c -2.848661,0.0332 -4.993442,0.0904 -5.377352,0.17041 0,0 -4.139682,2.00703 -4.736186,2.61486 0,0 -0.145671,0.23125 -0.264903,0.42013 0.0017,-0.0144 0.0025,-0.029 0.0025,-0.0439 v -2.80088 c 0,-0.20283 -0.163305,-0.36614 -0.366139,-0.36614 h -1.546382 c -0.0032,0 -0.0061,-8e-5 -0.0093,0 z m 30.160075,0.15101 c -1.77e-4,0.0833 -0.05302,0.15276 -0.127388,0.17843 v 0.46443 c 0.07451,0.0257 0.127388,0.0961 0.127388,0.17969 v 0.16114 c 0,0.0835 -0.05289,0.15398 -0.127388,0.17969 v 0.46021 c 0.07448,0.0258 0.127388,0.0962 0.127388,0.17969 v 0.16114 c 0,0.10541 -0.0844,0.19024 -0.189817,0.19024 h -0.01434 c -0.01993,0.0109 -0.04292,0.0164 -0.06707,0.0164 h -0.682502 c -0.02415,0 -0.04715,-0.006 -0.06707,-0.0164 h -0.02784 v 2.56002 c 1.419183,0.0156 2.483288,0.032 2.54779,0.0477 0,0 -0.401999,-4.10459 -0.83478,-4.68346 -0.06827,-0.0293 -0.303327,-0.055 -0.664367,-0.0789 z m -15.841421,0.13372 h 1.265879 c 0.06932,0.0166 0.124481,0.0681 0.146793,0.13498 h -1.559465 c 0.02233,-0.0669 0.07747,-0.11833 0.146793,-0.13498 z m 3.940212,0 h 1.26588 c 0.06932,0.0166 0.124465,0.0681 0.146794,0.13498 h -1.559465 c 0.02233,-0.0669 0.07748,-0.11833 0.146791,-0.13498 z m 3.940637,0 h 1.26588 c 0.06932,0.0166 0.124458,0.0681 0.146792,0.13498 h -1.559465 c 0.02233,-0.0669 0.07747,-0.11833 0.146793,-0.13498 z m 3.940214,0 h 1.26588 c 0.06932,0.0166 0.124458,0.0681 0.146793,0.13498 h -1.559467 c 0.02233,-0.0669 0.07747,-0.11833 0.146794,-0.13498 z m -24.608514,0.13456 a 0.18978278,0.18978278 0 0 1 0.106299,0.0316 0.18978278,0.18978278 0 0 1 0.05568,0.2611 l -1.503364,2.31495 a 0.18978278,0.18978278 0 0 1 -0.261528,0.0557 0.18978278,0.18978278 0 0 1 -0.05568,-0.26153 l 1.501677,-2.31494 a 0.18978278,0.18978278 0 0 1 0.119375,-0.0827 0.18978278,0.18978278 0 0 1 0.03754,-0.004 z m 12.62969,0.0667 h 1.581401 v 0.13498 h -1.581401 z m 3.940215,0 h 1.581399 v 0.13498 h -1.581399 z m 3.940635,0 h 1.581401 v 0.13498 h -1.581401 z m 3.940213,0 h 1.581401 v 0.13498 h -1.581401 z m -29.173863,0.0886 0.02447,0.14806 c -0.145636,4.5e-4 -0.262793,0.11789 -0.262793,0.26364 0,0.14603 0.117605,0.26363 0.263637,0.26363 h 0.08521 l 0.172524,1.05244 h -0.09238 c -0.146032,0 -0.263637,0.11761 -0.263637,0.26364 0,0.14603 0.117605,0.26364 0.263637,0.26364 h 0.178851 l 0.07761,0.47328 h -0.117266 c -0.146032,0 -0.263637,0.1176 -0.263637,0.26363 0,0.14604 0.117605,0.26364 0.263637,0.26364 h 0.203738 l 0.434053,2.64818 h -0.08774 c -0.14603,0 -0.263637,0.1176 -0.263637,0.26364 0,0.14602 0.117607,0.26364 0.263637,0.26364 h 0.174211 l 0.09491,0.57831 c 0.214862,-0.22909 0.517594,-0.37457 0.855449,-0.37457 0.240307,0 0.464082,0.0726 0.650868,0.19699 -0.0047,-0.13328 0.02955,-0.26828 0.08225,-0.42942 0.06227,-0.19037 0.154962,-0.40984 0.267855,-0.65044 0.225785,-0.48122 0.533358,-1.04491 0.844904,-1.58478 0.184549,-0.3198 0.369917,-0.63065 0.539928,-0.9107 h -1.354462 c -0.236975,0 -0.427724,-0.19076 -0.427724,-0.42773 v -2.80425 z m 17.3528,0.11263 h 1.581401 v 0.13498 h -1.581401 z m 3.940215,0 h 1.581399 v 0.13498 h -1.581399 z m 3.940635,0 h 1.581401 v 0.13498 h -1.581401 z m 3.940213,0 h 1.581401 v 0.13498 h -1.581401 z m -11.821063,0.2012 h 1.581401 v 0.13499 h -1.581401 z m 3.940215,0 h 1.581399 v 0.13499 h -1.581399 z m 3.940635,0 h 1.581401 v 0.13499 h -1.581401 z m 3.940213,0 h 1.581401 v 0.13499 h -1.581401 z m -11.821063,0.20121 h 1.581401 v 0.13498 h -1.581401 z m 3.940215,0 h 1.581399 v 0.13498 h -1.581399 z m 3.940635,0 h 1.581401 v 0.13498 h -1.581401 z m 3.940213,0 h 1.581401 v 0.13498 h -1.581401 z m -11.821063,0.20163 h 1.581401 v 0.13498 h -1.581401 z m 3.940215,0 h 1.581399 v 0.13498 h -1.581399 z m 3.940635,0 h 1.581401 v 0.13498 h -1.581401 z m 3.940213,0 h 1.581401 v 0.13498 h -1.581401 z m -11.821063,0.20121 h 0.852918 c -0.03605,0.0337 -0.0587,0.0816 -0.05905,0.13498 h -0.793865 z m 3.940215,0 h 0.852919 c -0.03606,0.0337 -0.0587,0.0816 -0.05906,0.13498 h -0.793863 z m 3.940635,0 h 0.852918 c -0.03605,0.0337 -0.05871,0.0816 -0.05906,0.13498 h -0.793863 z m 3.940213,0 h 0.852919 c -0.03605,0.0337 -0.05871,0.0816 -0.05906,0.13498 h -0.793864 z m -9.372401,0.0443 a 0.10798556,0.10798556 0 0 1 0.108407,0.10672 l 0.008,0.69853 a 0.10798556,0.10798556 0 0 1 -0.107142,0.10841 0.10798556,0.10798556 0 0 1 -0.110095,-0.10672 l -0.0063,-0.69853 a 0.10798556,0.10798556 0 0 1 0.107143,-0.10841 z m 3.940214,0 a 0.10798556,0.10798556 0 0 1 0.108406,0.10672 l 0.008,0.69853 a 0.10798556,0.10798556 0 0 1 -0.107141,0.10841 0.10798556,0.10798556 0 0 1 -0.110096,-0.10672 l -0.0063,-0.69853 a 0.10798556,0.10798556 0 0 1 0.107144,-0.10841 z m 3.940213,0 h 4.21e-4 a 0.10798556,0.10798556 0 0 1 0.108407,0.10672 l 0.0076,0.69853 a 0.10798556,0.10798556 0 0 1 -0.107142,0.10841 0.10798556,0.10798556 0 0 1 -0.110095,-0.10672 l -0.0063,-0.69853 a 0.10798556,0.10798556 0 0 1 0.107143,-0.10841 z m 3.940635,0 a 0.10798556,0.10798556 0 0 1 0.108407,0.10672 l 0.008,0.69853 a 0.10798556,0.10798556 0 0 1 -0.107141,0.10841 0.10798556,0.10798556 0 0 1 -0.110096,-0.10672 l -0.0063,-0.69853 a 0.10798556,0.10798556 0 0 1 0.107141,-0.10841 z m -21.509408,0.0139 v 6.06956 h -0.141731 c -0.928289,0.002 -1.999595,-0.1833 -2.860356,-0.65551 -0.860761,-0.47222 -1.510674,-1.2536 -1.528673,-2.39298 -0.01927,-1.22008 0.635513,-1.99317 1.508004,-2.43263 0.87249,-0.43947 1.960374,-0.57255 2.879338,-0.58675 z m 8.778482,0.12191 c 0.0024,-5e-5 0.0048,0 0.0072,0 h 0.39398 c 0.150474,0 0.272495,0.12371 0.272495,0.27418 v 1.7071 c 0,0.15048 -0.122021,0.27461 -0.272495,0.27461 h -0.39398 c -0.150474,0 -0.274182,-0.12413 -0.274182,-0.27461 v -1.7071 c 0,-0.14812 0.119737,-0.2704 0.267012,-0.27418 z m 3.940214,0 c 0.0024,-5e-5 0.0048,0 0.0072,0 h 0.393979 c 0.150476,0 0.272496,0.12371 0.272496,0.27418 v 1.7071 c 0,0.15048 -0.12202,0.27461 -0.272496,0.27461 h -0.393979 c -0.150474,0 -0.274182,-0.12413 -0.274182,-0.27461 v -1.7071 c 0,-0.14812 0.119734,-0.2704 0.267012,-0.27418 z m 3.940634,0 c 0.0024,-5e-5 0.0048,0 0.0072,0 h 0.39398 c 0.150474,0 0.272491,0.12371 0.272495,0.27418 v 1.7071 c 0,0.15048 -0.122021,0.27461 -0.272495,0.27461 H 39.3677 c -0.150473,0 -0.274182,-0.12413 -0.274182,-0.27461 v -1.7071 c 0,-0.14812 0.119735,-0.2704 0.267012,-0.27418 z m 3.940214,0 c 0.0024,-5e-5 0.0048,0 0.0072,0 h 0.39398 c 0.150473,0 0.272495,0.12371 0.272495,0.27418 v 1.7071 c 0,0.15048 -0.122022,0.27461 -0.272495,0.27461 h -0.39398 c -0.150474,0 -0.274182,-0.12413 -0.274182,-0.27461 v -1.7071 c 0,-0.14812 0.119734,-0.2704 0.267012,-0.27418 z m -13.35986,0.0211 h 0.793865 v 0.13498 h -0.742824 c -0.03152,-0.0361 -0.05073,-0.0832 -0.05104,-0.13498 z m 3.940215,0 h 0.793863 v 0.13498 h -0.742825 c -0.03151,-0.0361 -0.05073,-0.0832 -0.05104,-0.13498 z m 3.940635,0 h 0.793863 v 0.13498 h -0.742823 c -0.03152,-0.0361 -0.05075,-0.0832 -0.05104,-0.13498 z m 3.940213,0 h 0.793864 v 0.13498 h -0.742823 c -0.03152,-0.0361 -0.05073,-0.0832 -0.05104,-0.13498 z m -10.282265,0.11431 c -0.07471,0.003 -0.132874,0.063 -0.132874,0.13878 v 1.7071 c 0,0.0782 0.06185,0.13878 0.140044,0.13878 h 0.39398 c 0.07819,0 0.138779,-0.0606 0.138779,-0.13878 v -1.7071 c 0,-0.0782 -0.06058,-0.13878 -0.138779,-0.13878 h -0.39398 c -0.0024,0 -0.0047,-1.1e-4 -0.0072,0 z m 3.940214,0 c -0.07471,0.003 -0.132875,0.063 -0.132875,0.13878 v 1.7071 c 0,0.0782 0.06185,0.13878 0.140045,0.13878 h 0.393979 c 0.07819,0 0.138779,-0.0606 0.138779,-0.13878 v -1.7071 c 0,-0.0782 -0.06058,-0.13878 -0.138779,-0.13878 h -0.393979 c -0.0024,0 -0.0047,-1.1e-4 -0.0072,0 z m 3.940213,0 c -0.07451,0.003 -0.132451,0.0632 -0.132451,0.13878 v 1.7071 c 0,0.0782 0.06185,0.13878 0.140042,0.13878 h 0.39398 c 0.07819,0 0.138777,-0.0606 0.138779,-0.13878 v -1.7071 c 0,-0.0782 -0.06058,-0.13878 -0.138779,-0.13878 h -0.39398 c -0.0023,0 -0.0049,-9e-5 -0.0072,0 z m 3.940635,0 c -0.07471,0.003 -0.132872,0.063 -0.132872,0.13878 v 1.7071 c 0,0.0782 0.06185,0.13878 0.140042,0.13878 h 0.39398 c 0.07819,0 0.138778,-0.0606 0.138778,-0.13878 v -1.7071 c 0,-0.0782 -0.06058,-0.13878 -0.138778,-0.13878 h -0.39398 c -0.0024,0 -0.0047,-1.1e-4 -0.0072,0 z m -20.881741,0.0553 c -0.862858,0.0255 -1.848523,0.14191 -2.614435,0.52769 -0.807929,0.40696 -1.371315,1.05722 -1.353618,2.17786 0.01637,1.03653 0.583348,1.7112 1.383989,2.15043 0.759416,0.41663 1.726653,0.57179 2.584064,0.58844 z m -1.813822,1.39074 c 0.733307,0 1.331685,0.59837 1.331683,1.33168 2e-6,0.7333 -0.598376,1.33168 -1.331683,1.33168 -0.733308,0 -1.331264,-0.59838 -1.331262,-1.33168 -2e-6,-0.73331 0.597954,-1.33168 1.331262,-1.33168 z m -0.0658,0.32775 c -0.292094,0.0188 -0.54962,0.161 -0.720889,0.37542 l 0.567768,0.34252 a 0.36012727,0.36012727 0 0 1 0.148059,-0.0671 z m 0.184335,0.005 -0.0051,0.65762 a 0.36012727,0.36012727 0 0 1 0.12528,0.0721 l 0.587595,-0.30582 c -0.160198,-0.23023 -0.414338,-0.38973 -0.707813,-0.42393 z m -1.006883,0.52517 c -0.0752,0.14112 -0.117689,0.30286 -0.117687,0.47454 0,0.12141 0.02168,0.23747 0.06074,0.34505 l 0.587594,-0.3054 a 0.36012727,0.36012727 0 0 1 -0.0025,-0.0401 0.36012727,0.36012727 0 0 1 0.02784,-0.13836 z m 1.80623,0.0595 -0.576627,0.29991 a 0.36012727,0.36012727 0 0 1 0.01856,0.11474 0.36012727,0.36012727 0 0 1 -0.0051,0.0599 l 0.56819,0.34294 c 0.0536,-0.12323 0.08352,-0.25903 0.08352,-0.40242 0,-0.14807 -0.03163,-0.28872 -0.08858,-0.41507 z m -1.20809,0.62809 -0.576205,0.29991 c 0.161942,0.27371 0.450148,0.46321 0.785427,0.48974 l 0.0051,-0.65171 a 0.36012727,0.36012727 0 0 1 -0.214284,-0.13794 z m 0.567347,0.016 a 0.36012727,0.36012727 0 0 1 -0.168728,0.11347 l -0.0051,0.65804 c 0.304267,-0.0308 0.568141,-0.19598 0.730591,-0.43574 z m -6.305776,2.6718 c -0.339451,0.006 -0.628632,0.20028 -0.776569,0.4813 l 0.04303,0.26279 h 1.114025 c -0.14297,0.11081 -0.234532,0.28434 -0.234532,0.48003 v 0.56271 c 0.435788,-0.0633 0.768977,-0.43364 0.768977,-0.88751 0,-0.4984 -0.400496,-0.89932 -0.898897,-0.89932 -0.0054,0 -0.01064,-9e-5 -0.01603,0 z m 1.155363,0.60616 c 0.02434,0.094 0.03881,0.19176 0.03881,0.29316 0,0.58308 -0.429627,1.06652 -0.987479,1.15874 0.09813,0.20232 0.305094,0.34125 0.545834,0.34125 h 2.1053 c 0.336159,0 1.367743,0.22813 2.111626,-0.60658 l 0.485514,-0.54499 c 0.188227,-0.21121 0.19871,-0.44038 -0.0042,-0.49648 l -4.084475,-0.0561 h -0.0063 c -0.09415,-0.008 -0.152237,-0.0461 -0.204582,-0.089 z" />
      <path
         style="color:#000000;fill:#000000;stroke-width:0.246598;stroke-linecap:round;-inkscape-stroke:none"
         d="m 15.515547,280.88413 a 0.92250732,0.92250732 0 0 1 -0.922508,0.92251 0.92250732,0.92250732 0 0 1 -0.922507,-0.92251 0.92250732,0.92250732 0 0 1 0.922507,-0.9225 0.92250732,0.92250732 0 0 1 0.922508,0.9225 z"
         id="path7718" />
      <path
         id="path4251"
         style="fill:#000000;stroke:none;stroke-width:0.310999;stroke-linecap:round;stroke-miterlimit:4;stroke-dasharray:none;stop-color:#000000"
         d="m 46.700393,280.54062 v 0.41043 l 1.030082,-0.01 c 0.248784,0.009 0.468433,0.40631 0.621341,0.92084 h 0.101237 c 0.212617,0 0.383854,-0.17124 0.383854,-0.38386 0,-0.21262 -0.171237,-0.38385 -0.383854,-0.38385 h -0.140045 v -0.55385 z m 1.869081,3.02065 c -0.0063,0.10052 -0.01743,0.19285 -0.03417,0.2746 -0.153837,0.51144 -0.636312,1.37492 -1.185311,2.23521 a 1.40014,1.40014 0 0 0 0.520102,0.10378 1.40014,1.40014 0 0 0 1.400438,-1.40044 1.40014,1.40014 0 0 0 -0.701062,-1.21315 z" />
      <path
         id="path3910"
         style="fill:#000000;stroke:none;stroke-width:0.215971px;stroke-linecap:butt;stroke-linejoin:miter;stroke-opacity:1"
         d="m 20.508791,280.83884 c -0.04185,0 -0.07593,0.0336 -0.07593,0.0755 v 0.55005 h -0.27587 l -1.171392,1.17139 h -4.326596 l -0.682504,-0.68207 h -1.669983 l 0.0696,0.76602 2.443177,4.23127 h 12.380396 c -0.944895,-1.24495 -1.93209,-2.84201 -1.945853,-3.7352 -0.02045,-0.84195 0.27894,-1.4206 0.601515,-1.7514 H 23.09834 v -0.55005 c 0,-0.0419 -0.03366,-0.0755 -0.0755,-0.0755 z" />
      <path
         style="color:#000000;fill:#000000;fill-rule:evenodd;stroke-width:0.403699;-inkscape-stroke:none"
         d="m 34.847367,285.06053 a 1.739966,1.739966 0 0 1 -1.739966,1.73997 1.739966,1.739966 0 0 1 -1.739966,-1.73997 1.739966,1.739966 0 0 1 1.739966,-1.73996 1.739966,1.739966 0 0 1 1.739966,1.73996 z"
         id="path11-8" />
      <path
         style="color:#000000;fill:#000000;fill-rule:evenodd;stroke-width:0.0547974;-inkscape-stroke:none"
         d="m 33.107401,282.58576 c -1.363717,0 -2.474769,1.11106 -2.474769,2.47477 0,1.36371 1.111052,2.47476 2.474769,2.47476 1.363716,0 2.474768,-1.11105 2.474768,-2.47476 0,-1.36371 -1.111052,-2.47477 -2.474768,-2.47477 z m 0,0.51448 c 1.085663,0 1.960185,0.87462 1.960185,1.96029 0,1.08566 -0.874522,1.96029 -1.960185,1.96029 -1.085664,0 -1.960294,-0.87463 -1.960294,-1.96029 0,-1.08567 0.87463,-1.96029 1.960294,-1.96029 z"
         id="path13-8" />
      <circle
         style="fill:#ffffff;stroke-width:0.0181343"
         id="path65-7-3-2-9"
         cx="31.921879"
         cy="285.06052"
         r="0.33438495" />
      <circle
         style="fill:#ffffff;stroke-width:0.0181343"
         id="path65-7-3-2-2-77"
         cx="34.292923"
         cy="285.06052"
         r="0.33438495" />
      <circle
         style="fill:#ffffff;stroke-width:0.0181343"
         id="path65-7-3-2-23-6"
         cx="283.875"
         cy="-33.107399"
         transform="rotate(90)"
         r="0.33438495" />
      <circle
         style="fill:#ffffff;stroke-width:0.0181343"
         id="path65-7-3-2-2-7-4"
         cx="286.24606"
         cy="-33.107399"
         transform="rotate(90)"
         r="0.33438495" />
      <circle
         style="fill:#ffffff;stroke-width:0.0181343"
         id="path65-7-3-5-1-6-3"
         cx="284.26492"
         cy="-32.286503"
         transform="rotate(90)"
         r="0.33438495" />
      <circle
         style="fill:#ffffff;stroke-width:0.0181343"
         id="path65-7-3-5-2-1-0"
         cx="284.26492"
         cy="-33.934174"
         transform="rotate(90)"
         r="0.33438495" />
      <circle
         style="fill:#ffffff;stroke-width:0.0181343"
         id="path65-7-3-5-1-6-7-3"
         cx="285.85617"
         cy="-32.286503"
         transform="rotate(90)"
         r="0.33438495" />
      <circle
         style="fill:#ffffff;stroke-width:0.0181343"
         id="path65-7-3-5-2-1-9-0"
         cx="285.85617"
         cy="-33.934174"
         transform="rotate(90)"
         r="0.33438495" />
      <path
         style="color:#000000;fill:#000000;fill-rule:evenodd;stroke-width:0.222225;-inkscape-stroke:none"
         d="m 29.573808,283.66167 a 0.95780186,0.95780186 0 0 1 -0.957802,0.95779 0.95780186,0.95780186 0 0 1 -0.957802,-0.95779 0.95780186,0.95780186 0 0 1 0.957802,-0.9578 0.95780186,0.95780186 0 0 1 0.957802,0.9578 z"
         id="path11-9-9" />
      <path
         style="color:#000000;fill:#000000;fill-rule:evenodd;stroke-width:0.0301645;-inkscape-stroke:none"
         d="m 28.616006,282.29938 c -0.750688,0 -1.362291,0.6116 -1.362291,1.36229 0,0.75068 0.611603,1.36229 1.362291,1.36229 0.750686,0 1.36229,-0.61161 1.36229,-1.36229 0,-0.75069 -0.611604,-1.36229 -1.36229,-1.36229 z m 0,0.2832 c 0.597627,0 1.079026,0.48146 1.079026,1.07909 0,0.59763 -0.481399,1.07908 -1.079026,1.07908 -0.597628,0 -1.079086,-0.48145 -1.079086,-1.07908 0,-0.59763 0.481458,-1.07909 1.079086,-1.07909 z"
         id="path13-2-2" />
      <circle
         style="fill:#ffffff;stroke-width:0.00998241"
         id="path65-7-3-2-28-5"
         cx="27.963409"
         cy="283.66168"
         r="0.18406942" />
      <circle
         style="fill:#ffffff;stroke-width:0.00998241"
         id="path65-7-3-2-2-9-4"
         cx="29.268602"
         cy="283.66168"
         r="0.18406942" />
      <circle
         style="fill:#ffffff;stroke-width:0.00998241"
         id="path65-7-3-2-23-7-0"
         cx="283.00903"
         cy="-28.616007"
         transform="rotate(90)"
         r="0.18406942" />
      <circle
         style="fill:#ffffff;stroke-width:0.00998241"
         id="path65-7-3-2-2-7-3-59"
         cx="284.31427"
         cy="-28.616007"
         transform="rotate(90)"
         r="0.18406942" />
      <circle
         style="fill:#ffffff;stroke-width:0.00998241"
         id="path65-7-3-5-1-6-6-46"
         cx="283.22366"
         cy="-28.164122"
         transform="rotate(90)"
         r="0.18406942" />
      <circle
         style="fill:#ffffff;stroke-width:0.00998241"
         id="path65-7-3-5-2-1-1-9"
         cx="283.22366"
         cy="-29.071119"
         transform="rotate(90)"
         r="0.18406942" />
      <circle
         style="fill:#ffffff;stroke-width:0.00998241"
         id="path65-7-3-5-1-6-7-2-2"
         cx="284.09964"
         cy="-28.164122"
         transform="rotate(90)"
         r="0.18406942" />
      <circle
         style="fill:#ffffff;stroke-width:0.00998241"
         id="path65-7-3-5-2-1-9-9-2"
         cx="284.09964"
         cy="-29.071119"
         transform="rotate(90)"
         r="0.18406942" />
      <path
         style="fill:none;stroke:#000000;stroke-width:0.681237;stroke-linecap:butt;stroke-linejoin:miter;stroke-miterlimit:4;stroke-dasharray:2.72495, 0.681237;stroke-dashoffset:2.17996;stroke-opacity:1"
         d="m 27.543171,281.73946 c -0.302053,-0.0523 -1.173381,0.49673 -1.140476,1.71538 0.02213,1.29229 2.793986,4.37603 3.276271,4.52738 h 15.012431 c 0.393243,-0.11236 2.611025,-2.97059 2.96255,-4.02187 0.159596,-0.70143 -0.219465,-2.36736 -0.736701,-2.38392 z"
         id="path2051-0"
         sodipodi:nodetypes="ccccccc" />
      <path
         style="color:#000000;fill:#000000;fill-rule:evenodd;stroke-width:0.403699;-inkscape-stroke:none"
         d="m 39.609049,285.13908 a 1.739966,1.739966 0 0 0 1.739966,1.73996 1.739966,1.739966 0 0 0 1.739966,-1.73996 1.739966,1.739966 0 0 0 -1.739966,-1.73997 1.739966,1.739966 0 0 0 -1.739966,1.73997 z"
         id="path11-8-0" />
      <path
         style="color:#000000;fill:#000000;fill-rule:evenodd;stroke-width:0.0547974;-inkscape-stroke:none"
         d="m 41.349015,282.6643 c 1.363716,0 2.474769,1.11106 2.474769,2.47478 0,1.3637 -1.111053,2.47476 -2.474769,2.47476 -1.363716,0 -2.474768,-1.11106 -2.474768,-2.47476 0,-1.36372 1.111052,-2.47478 2.474768,-2.47478 z m 0,0.51448 c -1.085663,0 -1.960185,0.87462 -1.960185,1.9603 0,1.08565 0.874522,1.96028 1.960185,1.96028 1.085664,0 1.960293,-0.87463 1.960293,-1.96028 0,-1.08568 -0.874629,-1.9603 -1.960293,-1.9603 z"
         id="path13-8-9" />
      <circle
         style="fill:#ffffff;stroke-width:0.0181343"
         id="path65-7-3-2-9-2"
         cx="-42.534534"
         cy="285.13907"
         transform="scale(-1,1)"
         r="0.33438495" />
      <circle
         style="fill:#ffffff;stroke-width:0.0181343"
         id="path65-7-3-2-2-77-5"
         cx="-40.16349"
         cy="285.13907"
         transform="scale(-1,1)"
         r="0.33438495" />
      <circle
         style="fill:#ffffff;stroke-width:0.0181343"
         id="path65-7-3-2-23-6-4"
         cx="283.95355"
         cy="41.34901"
         transform="matrix(0,1,1,0,0,0)"
         r="0.33438495" />
      <circle
         style="fill:#ffffff;stroke-width:0.0181343"
         id="path65-7-3-2-2-7-4-0"
         cx="286.32458"
         cy="41.34901"
         transform="matrix(0,1,1,0,0,0)"
         r="0.33438495" />
      <circle
         style="fill:#ffffff;stroke-width:0.0181343"
         id="path65-7-3-5-1-6-3-5"
         cx="284.34348"
         cy="42.169914"
         transform="matrix(0,1,1,0,0,0)"
         r="0.33438495" />
      <circle
         style="fill:#ffffff;stroke-width:0.0181343"
         id="path65-7-3-5-2-1-0-9"
         cx="284.34348"
         cy="40.52224"
         transform="matrix(0,1,1,0,0,0)"
         r="0.33438495" />
      <circle
         style="fill:#ffffff;stroke-width:0.0181343"
         id="path65-7-3-5-1-6-7-3-4"
         cx="285.93472"
         cy="42.169914"
         transform="matrix(0,1,1,0,0,0)"
         r="0.33438495" />
      <circle
         style="fill:#ffffff;stroke-width:0.0181343"
         id="path65-7-3-5-2-1-9-0-6"
         cx="285.93472"
         cy="40.52224"
         transform="matrix(0,1,1,0,0,0)"
         r="0.33438495" />
      <path
         style="color:#000000;fill:#000000;fill-rule:evenodd;stroke-width:0.222225;-inkscape-stroke:none"
         d="m 44.538523,283.60712 a 0.95780186,0.95780186 0 0 0 0.957802,0.95781 0.95780186,0.95780186 0 0 0 0.957802,-0.95781 0.95780186,0.95780186 0 0 0 -0.957802,-0.95778 0.95780186,0.95780186 0 0 0 -0.957802,0.95778 z"
         id="path11-9-9-9" />
      <path
         style="color:#000000;fill:#000000;fill-rule:evenodd;stroke-width:0.0301645;-inkscape-stroke:none"
         d="m 45.496325,282.24484 c 0.750688,0 1.36229,0.6116 1.36229,1.36228 0,0.7507 -0.611602,1.3623 -1.36229,1.3623 -0.750687,0 -1.36229,-0.6116 -1.36229,-1.3623 0,-0.75068 0.611603,-1.36228 1.36229,-1.36228 z m 0,0.2832 c -0.597626,0 -1.079027,0.48146 -1.079027,1.07908 0,0.59764 0.481401,1.07909 1.079027,1.07909 0.597627,0 1.079086,-0.48145 1.079086,-1.07909 0,-0.59762 -0.481459,-1.07908 -1.079086,-1.07908 z"
         id="path13-2-2-2" />
      <circle
         style="fill:#ffffff;stroke-width:0.00998241"
         id="path65-7-3-2-28-5-2"
         cx="-46.148918"
         cy="283.60715"
         transform="scale(-1,1)"
         r="0.18406942" />
      <circle
         style="fill:#ffffff;stroke-width:0.00998241"
         id="path65-7-3-2-2-9-4-4"
         cx="-44.843727"
         cy="283.60715"
         transform="scale(-1,1)"
         r="0.18406942" />
      <circle
         style="fill:#ffffff;stroke-width:0.00998241"
         id="path65-7-3-2-23-7-0-7"
         cx="282.95453"
         cy="45.496326"
         transform="matrix(0,1,1,0,0,0)"
         r="0.18406942" />
      <circle
         style="fill:#ffffff;stroke-width:0.00998241"
         id="path65-7-3-2-2-7-3-59-7"
         cx="284.25974"
         cy="45.496326"
         transform="matrix(0,1,1,0,0,0)"
         r="0.18406942" />
      <circle
         style="fill:#ffffff;stroke-width:0.00998241"
         id="path65-7-3-5-1-6-6-46-5"
         cx="283.16916"
         cy="45.948208"
         transform="matrix(0,1,1,0,0,0)"
         r="0.18406942" />
      <circle
         style="fill:#ffffff;stroke-width:0.00998241"
         id="path65-7-3-5-2-1-1-9-4"
         cx="283.16916"
         cy="45.04121"
         transform="matrix(0,1,1,0,0,0)"
         r="0.18406942" />
      <circle
         style="fill:#ffffff;stroke-width:0.00998241"
         id="path65-7-3-5-1-6-7-2-2-8"
         cx="284.04514"
         cy="45.948208"
         transform="matrix(0,1,1,0,0,0)"
         r="0.18406942" />
      <circle
         style="fill:#ffffff;stroke-width:0.00998241"
         id="path65-7-3-5-2-1-9-9-2-1"
         cx="284.04514"
         cy="45.04121"
         transform="matrix(0,1,1,0,0,0)"
         r="0.18406942" />
      <path
         style="color:#000000;fill:#ffffff;stroke-width:0.374094;-inkscape-stroke:none"
         d="M 44.511737,282.99287 H 34.883885"
         id="path4294-3-85" />
      <path
         style="color:#000000;fill:#ffffff;stroke-width:0.374094;-inkscape-stroke:none"
         d="M 45.017263,283.94648 H 35.38941"
         id="path4294-3-7-0" />
      <path
         style="color:#000000;fill:#ffffff;stroke-width:0.374094;-inkscape-stroke:none"
         d="M 44.594001,285.85371 H 34.966148"
         id="path4294-3-8-6" />
      <path
         style="color:#000000;fill:#ffffff;stroke-width:0.374094;-inkscape-stroke:none"
         d="M 44.796219,284.9001 H 35.168366"
         id="path4294-3-1-4" />
      <path
         id="path2051-8"
         style="fill:#000000;stroke:none;stroke-width:0.597777;stroke-linecap:butt;stroke-linejoin:miter;stroke-miterlimit:4;stroke-dasharray:none;stroke-dashoffset:14.1142;stroke-opacity:1"
         d="m 46.567071,282.09633 -7.806344,0.0575 v 5.28391 h 0.259389 v -1.32678 c 0,0 1.875065,-2.04992 2.187346,-3.11467 0.03665,0.99541 0.865185,3.47523 0.878447,4.44145 h 2.443465 c 0.363128,-0.0937 2.236252,-2.7273 2.56086,-3.60389 0.147374,-0.58488 -0.04553,-1.72378 -0.523163,-1.7376 z m -8.480788,0.0627 -1.745886,0.0133 v 0.31746 l 1.745886,-6.9e-4 z m -2.420416,0.0184 -7.613437,0.0109 c -0.278923,-0.0436 -1.083507,0.41418 -1.053121,1.43034 0.02044,1.07756 2.516717,3.70115 2.96207,3.82737 l 2.456108,-0.004 c 0.0023,-0.95262 0.777497,-3.43681 0.814373,-4.43858 0.312283,1.06476 2.179778,3.11467 2.179778,3.11467 v 1.3196 l 0.254229,-4.7e-4 z m 2.420416,0.69762 -1.745886,1.3e-4 v 0.46876 l 1.745886,-7e-4 z m -8.95364,0.0708 c 0.404792,0.002 0.848259,0.25736 0.848259,0.25736 0,0 0.312008,0.68993 0.361391,1.22887 -0.165012,0.30176 -1.534067,1.0964 -1.835761,1.1562 0,0 0.20033,-2.11596 0.456424,-2.62639 0.05485,-0.0115 0.111859,-0.0164 0.169687,-0.016 z m 16.280251,0 c 0.05782,-2.4e-4 0.114841,0.005 0.169688,0.016 0.256094,0.51043 0.45651,2.62639 0.45651,2.62639 -0.301696,-0.0598 -1.670835,-0.85444 -1.835847,-1.15619 0.04938,-0.53896 0.361477,-1.22887 0.361477,-1.22887 0,0 0.44338,-0.25506 0.848172,-0.25737 z m -7.326611,0.78334 -1.745886,2.3e-4 v 0.46875 l 1.745886,-7e-4 z m 0,0.85419 -1.745886,2.3e-4 v 0.46875 l 1.745886,-6.8e-4 z m 0,0.8542 -1.745886,2.3e-4 v 0.46863 l 1.745886,-6.9e-4 z m 0,0.8542 -1.745886,1.2e-4 v 0.46876 l 1.745886,-6.9e-4 z m 0,0.85407 -1.745886,2.3e-4 v 0.29184 h 1.745886 z" />
      <circle
         style="fill:#000000;stroke:none;stroke-width:0.62698;stroke-linecap:round;stroke-miterlimit:4;stroke-dasharray:none;stop-color:#000000"
         id="path2306-3"
         cx="18.065346"
         cy="284.92334"
         r="3.1332383" />
      <circle
         style="fill:#ffff00;stroke:#ffffff;stroke-width:0.59647;stroke-linecap:round;stroke-miterlimit:4;stroke-dasharray:none;stop-color:#000000"
         id="path2202-3"
         cx="18.065346"
         cy="284.92334"
         r="2.4104486" />
      <path
         style="fill:#ffffff;stroke:#ffffff;stroke-width:0.608846;stroke-linecap:round;stroke-linejoin:miter;stroke-miterlimit:4;stroke-dasharray:none;stroke-opacity:1"
         d="m 18.065346,281.84919 v 1.28953 m -1.005029,-1.12183 0.418714,1.21967 m -1.314834,-0.73471 0.792053,1.01763 m -1.482153,-0.26798 1.079562,0.70531 m -1.48886,0.22779 1.250083,0.31657 m -1.334225,0.69888 1.285137,-0.10649 m -1.035005,1.09424 1.180928,-0.518 m -0.623628,1.37101 0.948746,-0.87338 m -0.14467,1.49922 0.613754,-1.13412 m 0.349964,1.46496 0.212252,-1.27195 m 0.806674,1.27195 -0.212251,-1.27195 m 1.17597,0.94111 -0.613754,-1.13412 m 1.41783,0.50828 -0.948747,-0.87338 m 1.506047,0.0204 -1.180928,-0.518 m 1.431059,-0.46975 -1.285137,-0.10649 m 1.200995,-0.90896 -1.250082,0.31657 m 0.840784,-1.24967 -1.079561,0.70532 m 0.389461,-1.45497 -0.792053,1.01763 m -0.104066,-1.50259 -0.418713,1.21967"
         id="path1816-3" />
      <path
         style="fill:none;stroke:#000000;stroke-width:0.366278;stroke-linecap:round;stroke-linejoin:miter;stroke-miterlimit:4;stroke-dasharray:none;stroke-opacity:1"
         d="m 18.065346,281.84919 v 1.49043 m -1.01193,-1.32158 0.483944,1.40968 m -1.386216,-0.92138 0.915445,1.17616 m -1.610284,-0.42138 1.247744,0.8152 m -1.659852,0.12432 1.44483,0.36588 m -1.52955,0.65654 1.485346,-0.12308 m -1.233497,1.11761 1.364902,-0.5987 m -0.803776,1.45757 1.096551,-1.00945 m -0.286953,1.63958 0.709369,-1.3108 m 0.260967,1.64392 0.245317,-1.47011 m 0.780605,1.47011 -0.245318,-1.47011 m 1.215653,1.13699 -0.70937,-1.3108 m 1.518967,0.68067 -1.09655,-1.00945 m 1.657676,0.15058 -1.364902,-0.5987 m 1.616752,-0.39583 -1.485347,-0.12308 m 1.400626,-0.89934 -1.44483,0.36588 m 1.032722,-1.3054 -1.247744,0.8152 m 0.552906,-1.56998 -0.915446,1.17616 m 0.01318,-1.66446 -0.483944,1.40968"
         id="path983-8"
         sodipodi:nodetypes="cc" />
      <circle
         style="fill:#000000;stroke-width:0.155846;-inkscape-stroke:none;stop-color:#000000"
         id="path846-6"
         cx="18.065346"
         cy="284.92334"
         r="2.5376461" />
      <path
         id="path2674-0"
         d="m 18.363685,283.55043 c 0,0.16476 -0.133571,0.29834 -0.298339,0.29834 -0.164767,0 -0.298339,-0.13358 -0.298339,-0.29834 0,-0.16478 0.133572,-0.29834 0.298339,-0.29834 0.164768,0 0.298339,0.13356 0.298339,0.29834 z m -1.33815,0.42809 c 0.142693,0.0824 0.191583,0.26484 0.109199,0.40753 -0.08238,0.1427 -0.264845,0.19159 -0.407538,0.1092 -0.142694,-0.0824 -0.191584,-0.26484 -0.1092,-0.40754 0.08238,-0.14269 0.264845,-0.19158 0.407539,-0.10919 z m -0.298339,1.37292 c 0.142693,-0.0824 0.325154,-0.0335 0.407538,0.10919 0.08238,0.1427 0.03349,0.32516 -0.109199,0.40754 -0.142694,0.0824 -0.325155,0.0335 -0.407539,-0.1092 -0.08238,-0.14269 -0.03349,-0.32516 0.1092,-0.40753 z m 1.039811,0.94482 c 0,-0.16477 0.133572,-0.29834 0.298339,-0.29834 0.164768,0 0.298339,0.13357 0.298339,0.29834 0,0.16477 -0.133571,0.29834 -0.298339,0.29834 -0.164767,0 -0.298339,-0.13357 -0.298339,-0.29834 z m 1.338151,-0.42809 c -0.142693,-0.0824 -0.191584,-0.26484 -0.109199,-0.40754 0.08238,-0.14269 0.264844,-0.19158 0.407538,-0.10919 0.142693,0.0824 0.191584,0.26484 0.109199,0.40753 -0.08238,0.1427 -0.264844,0.19158 -0.407538,0.1092 z m 0.298339,-1.37292 c -0.142694,0.0824 -0.325155,0.0335 -0.407538,-0.1092 -0.08238,-0.14269 -0.03349,-0.32515 0.109199,-0.40753 0.142694,-0.0824 0.325154,-0.0335 0.407538,0.10919 0.08239,0.1427 0.03349,0.32516 -0.109199,0.40754 z"
         style="fill:#ffffff;stroke:none;stroke-width:0.475721;stroke-linecap:round;stroke-miterlimit:4;stroke-dasharray:none;stop-color:#000000" />
      <path
         style="color:#000000;fill:#ffffff;stroke-width:0.167102;stroke-linecap:round;-inkscape-stroke:none"
         d="m 18.06551,282.76064 c -1.193161,0 -2.162858,0.96937 -2.162858,2.16253 0,1.19317 0.969697,2.16287 2.162858,2.16287 1.19316,0 2.162531,-0.9697 2.162531,-2.16287 0,-1.19316 -0.969371,-2.16253 -2.162531,-2.16253 z m 0,0.21639 c 1.076166,0 1.946148,0.86998 1.946148,1.94614 0,1.07617 -0.869982,1.94648 -1.946148,1.94648 -1.076167,0 -1.946475,-0.87031 -1.946475,-1.94648 0,-1.07616 0.870308,-1.94614 1.946475,-1.94614 z"
         id="path852" />
      <path
         id="path1501"
         style="fill:#000000;stroke:none;stroke-width:0.215971px;stroke-linecap:butt;stroke-linejoin:miter;stroke-opacity:1"
         d="m 38.463608,277.73058 c -0.723308,1.8e-4 -1.46008,7.7e-4 -2.199365,0.002 -5.914293,0.007 -11.990568,0.0406 -12.637284,0.14427 -0.227054,0.18939 -0.02446,3.13031 -0.02446,3.13031 0,0 3.851365,0.0916 4.146905,-0.0346 l 0.672802,-0.77952 c 0.222179,0.10421 5.587332,0.17509 6.061964,0.16366 l 1.219478,0.61839 10.641657,0.0152 c 0.11894,-0.072 0.196569,-0.79807 0.196569,-0.79807 0,0 1.642614,0.003 1.777546,-0.21893 0,0 -0.01987,-2.02689 -0.388495,-2.22932 0,0 -4.404156,-0.0144 -9.467312,-0.0131 z m 3.198233,1.53626 H 42.6818 c 0.105804,0 0.191085,0.0849 0.191085,0.19066 v 0.77995 c 0,0.1058 -0.08528,0.19108 -0.191085,0.19108 h -1.019959 c -0.105804,0 -0.191083,-0.0853 -0.191083,-0.19108 v -0.77995 c 0,-0.1058 0.08528,-0.19066 0.191083,-0.19066 z m 2.012079,0 h 1.02038 c 0.105805,0 0.190662,0.0849 0.190662,0.19066 v 0.77995 c 0,0.1058 -0.08486,0.19108 -0.190662,0.19108 h -1.02038 c -0.105805,0 -0.191084,-0.0853 -0.191084,-0.19108 v -0.77995 c 0,-0.1058 0.08528,-0.19066 0.191084,-0.19066 z m -18.304426,0.18898 h 0.298227 v 1.00435 h -0.298227 z m 0.707814,0 h 0.298225 v 1.00435 h -0.298225 z m 0.709499,0 h 0.29654 v 1.00435 h -0.29654 z m 9.344141,0.0477 0.06834,0.99971 -0.296539,0.0206 -0.07002,-0.99928 z m 0.792176,0 0.07002,0.99971 -0.297805,0.0206 -0.06875,-0.99928 z m 0.793864,0 0.06875,0.99971 -0.296539,0.0206 -0.07044,-0.99928 z m 0.792598,0 0.07002,0.99971 -0.298226,0.0206 -0.06833,-0.99928 z m 0.793863,0 0.06834,0.99971 -0.29654,0.0206 -0.07002,-0.99928 z m 0.792178,0 0.07044,0.99971 -0.298227,0.0206 -0.06875,-0.99928 z" />
      <path
         style="fill:#000000;stroke:none;stroke-width:0.215971px;stroke-linecap:butt;stroke-linejoin:miter;stroke-opacity:1"
         d="m 28.681813,280.58208 -0.278607,0.39788 h 6.336055 l -0.505058,-0.2345 z"
         id="path4839" />
      <path
         id="rect1348"
         style="fill:#000000;stroke-width:0.681237;stroke-linecap:round;stroke-dasharray:2.72495, 0.681237;stroke-dashoffset:2.17995;stop-color:#000000"
         d="m 26.06634,267.18805 c -0.102314,0.005 -0.18307,0.0895 -0.18307,0.19319 v 0.0544 h -0.650022 c -0.454012,0 -0.821943,0.35458 -0.843217,0.80314 -0.247052,0.13311 -0.414227,0.39421 -0.414227,0.69558 v 0.26533 H 30.0867 v -0.26533 c 0,-0.32769 -0.197791,-0.60748 -0.480875,-0.72722 -0.03664,-0.43348 -0.397831,-0.7715 -0.841107,-0.7715 h -0.660991 v -0.0544 c 0,-0.10699 -0.08621,-0.19319 -0.193193,-0.19319 h -1.83407 c -0.0033,0 -0.0069,-1.7e-4 -0.01012,0 z" />
      <rect
         style="fill:#000000;stroke:none;stroke-width:0.379566;stroke-linecap:round;stroke-miterlimit:4;stroke-dasharray:none;stroke-dashoffset:10.0937;stop-color:#000000"
         id="rect3988"
         width="2.1038282"
         height="0.98425084"
         x="15.780669"
         y="268.46298"
         ry="0.30134717" />
    </g>
  </g>
</svg>
