<?xml version="1.0" encoding="UTF-8" standalone="no"?>
<!-- Created with Inkscape (http://www.inkscape.org/) -->

<svg
   width="60mm"
   height="42mm"
   viewBox="0 0 60 42"
   version="1.1"
   id="svg8"
   inkscape:version="1.1.2 (0a00cf5339, 2022-02-04)"
   sodipodi:docname="Po II Heavy Tank.svg"
   xmlns:inkscape="http://www.inkscape.org/namespaces/inkscape"
   xmlns:sodipodi="http://sodipodi.sourceforge.net/DTD/sodipodi-0.dtd"
   xmlns="http://www.w3.org/2000/svg"
   xmlns:svg="http://www.w3.org/2000/svg"
   xmlns:rdf="http://www.w3.org/1999/02/22-rdf-syntax-ns#"
   xmlns:cc="http://creativecommons.org/ns#"
   xmlns:dc="http://purl.org/dc/elements/1.1/">
  <defs
     id="defs2" />
  <sodipodi:namedview
     id="base"
     pagecolor="#ffffff"
     bordercolor="#666666"
     borderopacity="1.0"
     inkscape:pageopacity="0.0"
     inkscape:pageshadow="2"
     inkscape:zoom="1.4142136"
     inkscape:cx="223.09219"
     inkscape:cy="111.36932"
     inkscape:document-units="mm"
     inkscape:current-layer="layer1"
     showgrid="false"
     inkscape:window-width="1850"
     inkscape:window-height="1016"
     inkscape:window-x="70"
     inkscape:window-y="1107"
     inkscape:window-maximized="1"
     inkscape:snap-global="false"
     showguides="false"
     inkscape:pagecheckerboard="0" />
  <metadata
     id="metadata5">
    <rdf:RDF>
      <cc:Work
         rdf:about="">
        <dc:format>image/svg+xml</dc:format>
        <dc:type
           rdf:resource="http://purl.org/dc/dcmitype/StillImage" />
      </cc:Work>
    </rdf:RDF>
  </metadata>
  <g
     inkscape:label="Capa 1"
     inkscape:groupmode="layer"
     id="layer1"
     transform="translate(0,-255)">
    <g
       id="g842"
       transform="translate(3.7057909,-1.5885256)">
      <path
         id="rect9922"
         style="fill:#000000;stroke:none;stroke-width:0.855072;stroke-linecap:round;stroke-miterlimit:4;stroke-dasharray:none;stop-color:#000000"
         d="m 34.901268,269.56012 c -0.180853,0.006 -0.33757,0.10247 -0.428111,0.24528 h -1.586349 c -0.207696,0 -0.386488,0.1193 -0.472811,0.29286 h -1.037889 c -0.130556,0 -0.235545,0.10558 -0.235545,0.23611 0,0.13057 0.104991,0.23555 0.235545,0.23555 h 1.037317 c 0.05324,0.10735 0.141984,0.19373 0.251019,0.24415 0.06562,-0.0632 0.154908,-0.10258 0.253887,-0.10258 h 0.08654 a 0.20246395,0.20246395 0 0 1 -0.02178,-0.0814 0.20246395,0.20246395 0 0 1 0.202304,-0.20229 0.20246395,0.20246395 0 0 1 0.202305,0.20229 0.20246395,0.20246395 0 0 1 -0.02177,0.0814 h 0.194854 a 0.20246395,0.20246395 0 0 1 -0.02235,-0.0814 0.20246395,0.20246395 0 0 1 0.202877,-0.20229 0.20246395,0.20246395 0 0 1 0.202308,0.20229 0.20246395,0.20246395 0 0 1 -0.02178,0.0814 h 1.127867 c 0.07989,0 0.153228,0.0257 0.213193,0.0687 0.05992,-0.0428 0.133411,-0.0687 0.213194,-0.0687 h 2.131371 c 0.202114,0 0.365067,0.16187 0.365067,0.36277 v 0.40002 c -0.01157,0.12081 -0.05421,0.1853 0.111183,0.15359 0.292531,0 0.527829,-0.23587 0.527829,-0.5284 v -1.01096 c 0,-0.29252 -0.235298,-0.52839 -0.527829,-0.52839 h -3.164677 c -0.0059,0 -0.01193,-2e-4 -0.01777,0 z m -1.993827,0.40002 a 0.20246394,0.20246394 0 0 1 0.202877,0.20231 0.20246394,0.20246394 0 0 1 -0.202877,0.2023 0.20246394,0.20246394 0 0 1 -0.202307,-0.2023 0.20246394,0.20246394 0 0 1 0.202307,-0.20231 z m 0.55591,0 a 0.20246394,0.20246394 0 0 1 0.202305,0.20231 0.20246394,0.20246394 0 0 1 -0.202305,0.2023 0.20246394,0.20246394 0 0 1 -0.202307,-0.2023 0.20246394,0.20246394 0 0 1 0.202307,-0.20231 z m 0.555338,0 a 0.20246394,0.20246394 0 0 1 0.202877,0.20231 0.20246394,0.20246394 0 0 1 -0.202877,0.2023 0.20246394,0.20246394 0 0 1 -0.202307,-0.2023 0.20246394,0.20246394 0 0 1 0.202307,-0.20231 z" />
      <path
         id="rect9015"
         style="fill:#000000;stroke:none;stroke-width:0.478354;stroke-linecap:round;stroke-miterlimit:4;stroke-dasharray:none;stop-color:#000000"
         d="m 31.600764,270.91264 c -0.129432,0 -0.24236,0.0682 -0.30489,0.17079 h -5.701806 c -0.191718,0 -0.346155,0.15385 -0.346155,0.34557 v 0.0716 h -1.461987 c -0.191718,0 -0.346153,0.15444 -0.346153,0.34616 v 1.61729 c 0,0.19173 0.154435,0.34616 0.346153,0.34616 h 1.461987 v 0.0711 c 0,0.19172 0.154437,0.34615 0.346155,0.34615 h 5.701806 c 0.06258,0.10236 0.175621,0.17079 0.30489,0.17079 h 0.269932 c 0.707915,-0.87679 1.815001,-1.94626 3.110232,-2.41793 0.464271,-0.17872 1.579706,-0.26319 2.814511,-0.28769 v -0.38169 c 0,-0.19172 -0.154437,-0.34615 -0.346155,-0.34615 h -2.021907 c -0.07568,0 -0.145468,0.0244 -0.202308,0.0653 -0.05688,-0.041 -0.126515,-0.0653 -0.202304,-0.0653 h -2.021911 c -0.191714,0 -0.346151,0.15443 -0.346151,0.34615 v 0.082 h -0.24357 v -0.12378 c 0,-0.19768 -0.159376,-0.35648 -0.357044,-0.35648 z" />
      <path
         id="path5226"
         style="fill:#000000;stroke:none;stroke-width:0.293429px;stroke-linecap:butt;stroke-linejoin:miter;stroke-opacity:1"
         d="m 38.326132,271.95569 c -0.686591,0.007 -1.354128,0.0299 -1.91531,0.0762 -0.140799,0.12061 -0.345202,0.33248 -0.564508,0.59603 -0.288681,0.34691 -0.615664,0.78531 -0.920977,1.24306 -0.305315,0.45775 -0.589665,0.93421 -0.794895,1.35596 -0.146193,0.30042 -0.247769,0.57575 -0.294001,0.78458 1.466889,0.0155 3.402173,0.0332 5.419265,0.0436 0.02271,-0.19623 0.02145,-0.47415 -0.01087,-0.78917 -0.04507,-0.43885 -0.140561,-0.9518 -0.260189,-1.44881 -0.119625,-0.49699 -0.265218,-0.97724 -0.411487,-1.34965 -0.07314,-0.18621 -0.146336,-0.34558 -0.214341,-0.46364 -0.01141,-0.0199 -0.02148,-0.0307 -0.03267,-0.0481 z m -2.39156,0.12436 c -0.351649,0.0434 -0.635726,0.0994 -0.818391,0.16964 -2.264834,0.82475 -3.960585,3.47897 -3.93722,3.73033 0,0 0.937624,0.0126 2.354309,0.0281 0.04588,-0.2642 0.168141,-0.57021 0.332971,-0.90895 0.213737,-0.43922 0.503548,-0.92432 0.81438,-1.39034 0.310835,-0.46603 0.643568,-0.91264 0.940463,-1.26943 0.111136,-0.13354 0.215471,-0.25419 0.313488,-0.35933 z m 2.868382,0.14156 c 0.01473,0.035 0.02825,0.10003 0.04299,0.13754 0.153399,0.39057 0.302461,0.88091 0.424668,1.38863 0.122207,0.50773 0.21729,1.0333 0.2642,1.49007 0.03224,0.3139 0.04264,0.58909 0.01777,0.81897 2.624699,0.0125 5.352816,0.0116 7.370683,-0.0217 -0.01455,-0.0229 -0.02227,-0.0404 -0.03897,-0.0648 -0.115242,-0.1681 -0.277634,-0.37123 -0.47625,-0.59373 -0.397235,-0.445 -0.934612,-0.97126 -1.512421,-1.48377 -0.389697,-0.34565 -0.798429,-0.68486 -1.195491,-0.99147 -0.01693,3.6e-4 -0.03366,7.3e-4 -0.04986,0.001 l -0.473383,0.47337 h -3.327437 l 0.0023,-0.008 h -0.369079 l 0.135826,-0.5072 c -0.01576,-0.001 -0.03694,-0.002 -0.05158,-0.003 -0.06906,-0.006 -0.124684,-0.0111 -0.167346,-0.0183 -0.02134,-0.003 -0.03992,-0.007 -0.05559,-0.0114 -0.01567,-0.004 -0.02794,-0.004 -0.04814,-0.0246 h -0.0011 c -0.02485,-0.0245 -0.02867,-0.0472 -0.0361,-0.0745 -0.0074,-0.0273 -0.01382,-0.0598 -0.01948,-0.0986 -0.0071,-0.0767 -0.01801,-0.15331 -0.02694,-0.22982 -0.184942,-0.0583 -0.211025,-0.0648 -0.409195,-0.17823 z m 5.830181,0.52152 c -2.59e-4,9.4e-4 -2.79e-4,0.002 -5.72e-4,0.003 -0.0035,0.0128 -0.0077,0.025 -0.01375,0.0367 -0.0054,0.0111 -0.01537,0.0227 -0.03325,0.0338 -0.03244,0.0227 -0.05786,0.0248 -0.101442,0.0326 -0.0459,0.008 -0.105757,0.0129 -0.177662,0.0195 -0.04138,0.003 -0.113438,0.006 -0.162763,0.009 0.318036,0.25269 0.638278,0.52134 0.947342,0.79547 0.584701,0.51863 1.127058,1.05047 1.535343,1.50784 0.204145,0.22869 0.37416,0.4378 0.500319,0.62182 0.05548,0.081 0.10223,0.15459 0.140413,0.2258 1.576233,-0.0304 2.644889,-0.0834 2.756051,-0.17022 5.87e-4,-0.61106 -2.773707,-2.19747 -5.390037,-3.11596 z m -11.22251,0.78573 a 0.09877992,0.30482124 42.64302 0 1 0.03439,0.01 0.09877992,0.30482124 42.64302 0 1 -0.133534,0.29114 0.09877992,0.30482124 42.64302 0 1 -0.279101,0.1576 0.09877992,0.30482124 42.64302 0 1 0.13353,-0.29114 0.09877992,0.30482124 42.64302 0 1 0.215489,-0.16104 0.09877992,0.30482124 42.64302 0 1 0.02923,-0.007 z m -0.08482,0.48828 a 0.09877992,0.30482124 42.64302 0 1 0.03438,0.009 0.09877992,0.30482124 42.64302 0 1 -0.134107,0.29114 0.09877992,0.30482124 42.64302 0 1 -0.279101,0.1576 0.09877992,0.30482124 42.64302 0 1 0.133534,-0.29114 0.09877992,0.30482124 42.64302 0 1 0.215486,-0.16046 0.09877992,0.30482124 42.64302 0 1 0.0298,-0.007 z m -0.4688,0.0539 a 0.09877992,0.30482124 42.64302 0 1 0.06419,0.003 0.09877992,0.30482124 42.64302 0 1 -0.134106,0.29113 0.09877992,0.30482124 42.64302 0 1 -0.279101,0.15761 0.09877992,0.30482124 42.64302 0 1 0.134106,-0.29113 0.09877992,0.30482124 42.64302 0 1 0.214914,-0.16104 z" />
      <path
         id="path11"
         style="color:#000000;fill:#000000;fill-rule:evenodd;stroke-width:0.512714;-inkscape-stroke:none"
         d="m 25.947485,274.99484 -3.460399,0.12149 -0.586858,0.72383 h -1.072276 l -0.179955,0.45333 h 6.07375 z m 23.758002,1.26885 c 0,0 -2.743496,0.19715 -2.874688,0.19715 l 3.024266,0.73299 c 0,0 0.101541,-0.79181 -0.149578,-0.93014 z m -21.285063,0.3089 v 5.7e-4 c -0.774549,3.3e-4 -1.538779,0.002 -2.287827,0.005 v 5.54764 c 1.721935,0.003 3.540062,9.2e-4 5.359089,-0.006 v -5.54363 c -1.027649,-0.002 -2.056975,-0.003 -3.071262,-0.003 z m 3.586483,0.005 v 5.53962 c 1.748669,-0.008 3.485624,-0.0192 5.134434,-0.035 v -5.4783 c -1.641888,-0.0124 -3.379486,-0.0214 -5.134434,-0.0264 z m -6.390102,0.001 c -1.883043,0.007 -3.65075,0.0184 -5.172833,0.0378 v 5.47199 c 1.502771,0.0184 3.27354,0.0295 5.172833,0.0344 z m 12.039756,0.0292 v 5.4697 c 1.885592,-0.0193 3.630435,-0.0447 5.113228,-0.0745 v -5.33617 c -1.464295,-0.0236 -3.21427,-0.0437 -5.113228,-0.059 z m -17.727809,0.0161 c -1.514601,0.0217 -2.757871,0.0507 -3.583615,0.0883 v 5.27656 c 0.726246,0.0404 1.982731,0.0712 3.583615,0.0934 z m 23.356257,0.0516 v 5.31725 c 1.541218,-0.0337 2.747566,-0.0733 3.452374,-0.11806 v -5.09775 c -0.568956,-0.0379 -1.7972,-0.0723 -3.452374,-0.10144 z m -27.455665,0.0648 c -0.300727,0.0202 -0.499314,0.0422 -0.575396,0.0665 l -3.626598,1.29693 c -0.445077,0.39602 -0.229817,2.5881 0,2.6529 l 4.024332,1.15595 c 0.01941,0.013 0.08026,0.0249 0.177662,0.0367 z m 31.423259,0.10717 v 4.98313 c 0.08846,-0.0115 0.144886,-0.0234 0.166201,-0.0355 l 3.954985,-1.56973 c 0,0 0.211574,-2.1602 -0.187976,-2.44142 -0.293291,-0.23726 -3.185254,-0.79518 -3.93321,-0.93645 z m -33.021645,0.18454 -3.425439,0.27337 c -0.13464,0.1105 -0.166773,0.39429 -0.166773,0.39429 l -0.479114,0.26936 c -0.08854,0.0573 -0.08898,0.4777 -0.01146,0.48657 0,0 0.776803,0.35351 0.939889,0.26535 -0.01035,-0.3922 0.248154,-0.82355 0.248154,-0.82355 z m 35.448164,4.02204 -1.856281,0.80578 c 0.131192,0 1.619018,-0.0264 1.619018,-0.0264 0.251122,-0.13833 0.237263,-0.77942 0.237263,-0.77942 z m -34.465864,1.21899 -0.05273,0.0487 0.130095,0.14042 0.21434,0.22351 0.220645,0.22064 0.227522,0.21892 0.227522,0.21435 0.232107,0.21204 0.231534,0.20632 0.229814,0.19887 0.229241,0.19313 0.22523,0.18626 0.218926,0.17537 0.21434,0.16677 0.205745,0.15589 0.03267,0.0218 0.547887,-0.75191 -0.02579,-0.0172 -0.194856,-0.14729 -0.204024,-0.15817 -0.209756,-0.16907 -0.214341,-0.17766 -0.218925,-0.18396 -0.222938,-0.19257 -0.221217,-0.19715 -0.222938,-0.20345 -0.186258,-0.17537 c -0.545337,-0.0254 -0.940439,-0.054 -0.990896,-0.0877 z m 31.92587,0.0493 c -0.26555,0.0286 -0.72577,0.0549 -1.353098,0.0797 l -0.07737,0.0797 0.669385,0.64761 0.361628,-0.37252 0.183968,-0.19887 0.179954,-0.19543 z m -5.025543,0.17537 c -0.205371,0.003 -0.477397,0.006 -0.691163,0.01 -0.358896,0.93283 -1.261366,1.59208 -2.323361,1.59208 -1.039135,0 -1.925951,-0.63087 -2.299864,-1.53191 -0.223373,0.002 -0.465992,0.002 -0.692308,0.005 0.342673,1.06144 1.235847,1.87849 2.341126,2.11246 h -0.833863 v 0.93129 h 3.72116 v -0.93129 h -1.585778 c 1.130975,-0.23941 2.039812,-1.08939 2.364051,-2.18696 z m -0.997772,0.0138 c -0.176753,0.003 -0.380449,0.004 -0.562216,0.007 0.01076,0.0329 0.01753,0.0669 0.02006,0.10144 -6e-6,0.23454 -0.190134,0.42467 -0.424668,0.42467 -0.234535,-10e-6 -0.424662,-0.19013 -0.424671,-0.42467 0.0027,-0.0305 0.0087,-0.0607 0.01777,-0.09 -0.427362,0.006 -0.827179,0.0121 -1.275157,0.0172 0.0069,0.0238 0.01169,0.0482 0.01433,0.0728 0,0.23454 -0.19013,0.42467 -0.424668,0.42467 -0.234538,-10e-6 -0.424668,-0.19013 -0.424671,-0.42467 0.0026,-0.0207 0.0065,-0.0412 0.01204,-0.0613 -0.185893,0.002 -0.339972,0.005 -0.528401,0.007 0.366126,0.76372 1.136559,1.251 1.98351,1.25452 0.871425,-3.4e-4 1.66128,-0.51277 2.016752,-1.3084 z m -20.466096,0.0625 v 5.7e-4 c 0.388714,1.29463 1.591622,2.24198 3.010512,2.24198 h 0.0023 v 0.79948 h 3.72116 v -0.93129 h -2.822534 c 0.998333,-0.29957 1.787898,-1.08443 2.098132,-2.07807 -0.224641,-2.9e-4 -0.468471,10e-4 -0.690016,5.7e-4 -0.368089,0.91369 -1.260785,1.55597 -2.309034,1.55597 -1.05872,0 -1.958792,-0.65522 -2.319923,-1.58348 -0.216985,-0.002 -0.482812,-0.002 -0.690589,-0.006 z m 14.929344,0.002 c -1.317534,0.01 -2.637172,0.0211 -3.995678,0.0264 v 0.31807 h 3.995678 z m -13.92756,0.006 c 0.356252,0.79024 1.141862,1.29915 2.008728,1.30152 0.858691,-5.3e-4 1.639323,-0.49847 2.001849,-1.27688 -0.197639,-5e-4 -0.348629,-0.003 -0.543301,-0.003 0.008,0.0264 0.01333,0.0534 0.01605,0.0808 -3e-6,0.23453 -0.19013,0.42465 -0.424671,0.42466 -0.234537,-1e-5 -0.424668,-0.19013 -0.424668,-0.42466 0.0028,-0.0292 0.0085,-0.058 0.01719,-0.086 -0.44634,-0.002 -0.853914,-0.006 -1.278593,-0.008 0.0096,0.0305 0.01579,0.062 0.01834,0.094 -8e-6,0.23453 -0.190134,0.42465 -0.424669,0.42466 -0.234536,-1e-5 -0.424662,-0.19013 -0.42467,-0.42466 0.0026,-0.0337 0.0091,-0.067 0.01949,-0.0992 -0.179442,-10e-4 -0.38681,-0.002 -0.561069,-0.003 z m 9.447038,0.0212 c -1.359105,0.004 -2.6842,0.005 -3.995106,0.003 v 0.31406 h 3.995106 z m 8.000522,0.0877 c 0.234535,10e-6 0.424662,0.19013 0.424671,0.42467 -9e-6,0.23453 -0.190136,0.42466 -0.424671,0.42467 -0.234535,0 -0.424662,-0.19014 -0.424668,-0.42467 6e-6,-0.23454 0.190133,-0.42467 0.424668,-0.42467 z m -15.438832,0.0636 c 0.234535,2e-5 0.424662,0.19014 0.424668,0.42467 -6e-6,0.23454 -0.190133,0.42466 -0.424668,0.42467 -0.234535,-10e-6 -0.424662,-0.19013 -0.42467,-0.42467 8e-6,-0.23453 0.190135,-0.42465 0.42467,-0.42467 z m 21.398535,0.36851 -0.121497,0.11462 -0.374812,0.34673 c -0.223238,0.2023 -0.446871,0.40076 -0.675687,0.58915 l -0.149582,0.1215 -0.138689,0.10831 -0.127803,0.0928 -0.110036,0.0779 -0.09571,0.063 -0.06476,0.0367 c -0.02262,0.0115 -0.0095,0.008 -0.01719,0.012 -5.87e-4,2.9e-4 -0.0017,-2.4e-4 -0.0023,0 h -0.916393 v 0.9313 h 1.046488 l 0.04986,-0.012 c 0.131867,-0.0288 0.213276,-0.0779 0.259615,-0.10144 l 0.01089,-0.004 0.119205,-0.0694 0.130095,-0.0842 0.1364,-0.0957 0.144995,-0.10832 0.153593,-0.11863 0.160467,-0.13009 0.0023,-0.002 c 0.245227,-0.20192 0.48071,-0.40953 0.712369,-0.61952 l 0.0023,-0.002 0.383406,-0.35304 0.125511,-0.12149 z m -17.955331,0.28196 v 0.81381 h 3.995106 v -0.81381 z m 4.47995,0 v 0.81381 h 3.995678 v -0.81381 z m -12.302811,1.19321 -0.470517,0.8012 0.03725,0.0218 0.142703,0.0756 0.132387,0.0585 0.07565,0.0287 0.116914,0.0321 h 3.417988 V 284.6843 H 19.45365 l -0.05616,-0.0235 -0.09743,-0.0521 z m 9.032111,0.0865 v 0.93129 h 3.721733 v -0.93129 z m 4.650734,0 v 0.93129 h 3.721161 v -0.93129 z" />
      <path
         style="color:#000000;fill:#ffffff;stroke-width:0.484731;-inkscape-stroke:none"
         d="M 37.976837,279.4556 H 25.50163"
         id="path4294-3" />
      <path
         style="color:#000000;fill:#ffffff;stroke-width:0.484731;-inkscape-stroke:none"
         d="M 38.631868,280.69125 H 26.15666"
         id="path4294-3-7" />
      <path
         style="color:#000000;fill:#ffffff;stroke-width:0.484731;-inkscape-stroke:none"
         d="M 38.08343,283.16252 H 25.608223"
         id="path4294-3-8" />
      <path
         style="color:#000000;fill:#ffffff;stroke-width:0.484731;-inkscape-stroke:none"
         d="M 38.345451,281.92688 H 25.870246"
         id="path4294-3-1" />
      <path
         id="rect28327"
         style="stroke-width:0.0463982;stroke-linecap:round"
         d="m 42.610652,269.90111 c -0.05368,7e-5 -0.108362,4e-4 -0.162759,5.8e-4 -0.145036,4.4e-4 -0.291738,1.8e-4 -0.438999,0.003 -0.589037,0.004 -1.177855,0.0156 -1.62876,0.0298 -0.225446,0.008 -0.417328,0.0144 -0.556482,0.023 -0.06958,0.004 -0.125517,0.01 -0.16792,0.0138 -0.02121,0.002 -0.03857,0.004 -0.0533,0.008 -0.01474,0.003 -0.02323,0.003 -0.04299,0.0143 l -0.0069,0.004 -0.0058,0.004 c -0.02327,0.0229 -0.03096,0.0473 -0.04011,0.0762 -0.0092,0.0288 -0.01588,0.063 -0.02292,0.10314 -0.01409,0.0804 -0.02624,0.18431 -0.03553,0.30489 -0.01858,0.24117 -0.02861,0.54834 -0.03038,0.85507 -0.0018,0.30672 0.0045,0.61279 0.01891,0.85048 0.0071,0.11886 0.01616,0.22035 0.02752,0.29802 0.0057,0.0388 0.01199,0.0713 0.01949,0.0986 0.0074,0.0273 0.01125,0.05 0.0361,0.0745 h 0.0011 c 0.02023,0.0197 0.03248,0.0202 0.04814,0.0246 0.01566,0.004 0.03426,0.008 0.0556,0.0114 0.04266,0.008 0.09829,0.0125 0.167348,0.0183 0.01466,10e-4 0.03581,0.002 0.05158,0.003 l -0.135825,0.5072 h 3.327438 l 0.473383,-0.47339 c 0.02943,-7.5e-4 0.06219,-0.001 0.09055,-0.002 0.227661,-0.008 0.421848,-0.0184 0.565652,-0.0309 0.07191,-0.007 0.131762,-0.0119 0.177663,-0.0195 0.04359,-0.008 0.069,-0.01 0.101443,-0.0327 0.01787,-0.0111 0.02782,-0.0233 0.03324,-0.0338 0.0061,-0.0118 0.0102,-0.024 0.01375,-0.0367 0.0072,-0.0256 0.01251,-0.0558 0.01777,-0.0934 0.01054,-0.0753 0.01953,-0.17604 0.02636,-0.29629 0.01366,-0.24052 0.02054,-0.5555 0.02063,-0.87169 7.6e-5,-0.31621 -0.007,-0.63453 -0.02063,-0.87914 -0.0068,-0.1223 -0.01579,-0.2256 -0.02636,-0.30375 -0.0053,-0.039 -0.01076,-0.0718 -0.01777,-0.0986 -0.0065,-0.0252 -0.0091,-0.0464 -0.03725,-0.0705 -0.01814,-0.0173 -0.03104,-0.0206 -0.04527,-0.0246 -0.0156,-0.004 -0.03442,-0.008 -0.05559,-0.0114 -0.04232,-0.007 -0.09728,-0.0124 -0.166198,-0.0172 -0.02089,-10e-4 -0.04464,-0.002 -0.0682,-0.004 2.85e-4,-0.001 7.84e-4,-0.003 0.0011,-0.004 -0.02041,-1.4e-4 -0.08476,-10e-4 -0.129519,-0.002 -0.305609,-0.004 -1.066468,-0.019 -1.220139,-0.019 -0.05269,-9e-5 -0.105635,-9e-5 -0.159324,0 z m -1.920468,0.439 a 0.20239665,0.20239665 0 0 1 0.11405,0.0327 l 2.447722,1.58979 a 0.20239665,0.20239665 0 0 1 0.05846,0.27967 0.20239665,0.20239665 0 0 1 -0.279673,0.0602 l -2.447725,-1.58978 a 0.20239665,0.20239665 0 0 1 -0.06018,-0.2814 0.20239665,0.20239665 0 0 1 0.127803,-0.0865 0.20239665,0.20239665 0 0 1 0.03955,-0.004 z m -1.417286,0.0481 c -0.08838,0 -0.359192,0.0783 -0.388561,0.1639 -0.02564,0.0747 -0.02875,0.28869 0,0.3198 0.06085,0.0658 0.300189,0.16334 0.388561,0.16334 h 0.01087 c 0.005,-0.22687 0.01387,-0.44387 0.0275,-0.62584 5.95e-4,-0.008 0.0011,-0.0136 0.0018,-0.0212 z m 5.414683,0 c 0.0099,0.18587 0.0153,0.41249 0.01834,0.64704 h 0.06132 c 0.08838,0 0.159323,-0.0727 0.159323,-0.16334 v -0.3198 c 0,-0.0907 -0.07094,-0.1639 -0.159323,-0.1639 z m -5.42385,1.15251 c -0.09622,0.004 -0.350943,0.0811 -0.379394,0.16391 -0.02564,0.0747 -0.02875,0.28868 0,0.31979 0.06085,0.0658 0.300189,0.16333 0.388561,0.16333 h 0.02292 c -0.0096,-0.19148 -0.01479,-0.41411 -0.01605,-0.64703 h -0.0069 c -0.0028,0 -0.0061,-1.5e-4 -0.0092,0 z m 5.443336,0 c -0.0021,0.23229 -0.0067,0.45664 -0.01547,0.64703 h 0.07565 c 0.08838,0 0.159323,-0.0726 0.159323,-0.16333 v -0.31979 c 0,-0.0907 -0.07094,-0.16391 -0.159323,-0.16391 z" />
      <path
         id="rect9307"
         style="fill:#000000;stroke:none;stroke-width:0.404794;stroke-linecap:round;stroke-miterlimit:4;stroke-dasharray:none;stop-color:#000000"
         d="m 16.924733,271.19174 c -0.191718,0 -0.346155,0.15444 -0.346155,0.34616 v 0.41033 H 5.7469231 v -0.38913 c 0,-0.19172 -0.1544359,-0.34616 -0.3461538,-0.34616 H 1.5042392 c -0.1917179,0 -0.3455814,0.15444 -0.3455814,0.34616 v 2.19269 c 0,0.19172 0.1538635,0.34616 0.3455814,0.34616 h 3.8965301 c 0.1917179,0 0.3461538,-0.15444 0.3461538,-0.34616 v -0.38913 H 16.578578 v 0.41034 c 0,0.19171 0.154437,0.34616 0.346155,0.34616 h 3.063811 c 0.191717,0 0.346153,-0.15445 0.346153,-0.34616 v -0.41034 h 4.559611 c 0.191718,0 0.345582,-0.15387 0.345582,-0.34558 v -0.72326 c 0,-0.19172 -0.153864,-0.34559 -0.345582,-0.34559 h -4.559611 v -0.41033 c 0,-0.19172 -0.154436,-0.34616 -0.346153,-0.34616 z m -14.8645835,1.1508 h 2.7222411 a 0.31329893,0.31329893 0 0 1 0.3140607,0.31405 0.31329893,0.31329893 0 0 1 -0.3140607,0.31177 H 2.0601495 a 0.31329893,0.31329893 0 0 1 -0.3123414,-0.31177 0.31329893,0.31329893 0 0 1 0.3123414,-0.31405 z" />
    </g>
  </g>
</svg>
