<?xml version="1.0" encoding="UTF-8" standalone="no"?>
<!-- Created with Inkscape (http://www.inkscape.org/) -->

<svg
   width="60mm"
   height="42mm"
   viewBox="0 0 60 42"
   version="1.1"
   id="svg8"
   inkscape:version="1.2.2 (b0a8486541, 2022-12-01)"
   sodipodi:docname="Regulator II.svg"
   xml:space="preserve"
   xmlns:inkscape="http://www.inkscape.org/namespaces/inkscape"
   xmlns:sodipodi="http://sodipodi.sourceforge.net/DTD/sodipodi-0.dtd"
   xmlns="http://www.w3.org/2000/svg"
   xmlns:svg="http://www.w3.org/2000/svg"
   xmlns:rdf="http://www.w3.org/1999/02/22-rdf-syntax-ns#"
   xmlns:cc="http://creativecommons.org/ns#"
   xmlns:dc="http://purl.org/dc/elements/1.1/"><defs
     id="defs2"><inkscape:path-effect
       effect="copy_rotate"
       starting_point="62.825012,51.902842"
       origin="61.825012,51.902842"
       id="path-effect2032-9"
       is_visible="true"
       lpeversion="1"
       method="normal"
       num_copies="19"
       starting_angle="0"
       rotation_angle="18.947368"
       gap="-0.01"
       copies_to_360="true"
       mirror_copies="false"
       split_items="false" /><inkscape:path-effect
       effect="copy_rotate"
       starting_point="62.825012,52.034264"
       origin="61.825012,52.034264"
       id="path-effect1183-6"
       is_visible="true"
       lpeversion="1"
       method="normal"
       num_copies="19"
       starting_angle="0"
       rotation_angle="18.947368"
       gap="-0.01"
       copies_to_360="true"
       mirror_copies="false"
       split_items="false" /><inkscape:path-effect
       effect="copy_rotate"
       starting_point="64.010074,52.034264"
       origin="61.825012,52.034264"
       id="path-effect2800-4"
       is_visible="true"
       lpeversion="1"
       method="normal"
       num_copies="6"
       starting_angle="0"
       rotation_angle="60"
       gap="-0.01"
       copies_to_360="true"
       mirror_copies="false"
       split_items="false" /><inkscape:path-effect
       effect="copy_rotate"
       starting_point="62.825012,51.902842"
       origin="61.825012,51.902842"
       id="path-effect2032"
       is_visible="true"
       lpeversion="1"
       method="normal"
       num_copies="19"
       starting_angle="0"
       rotation_angle="18.947368"
       gap="-0.01"
       copies_to_360="true"
       mirror_copies="false"
       split_items="false"
       lpesatellites="" /><inkscape:path-effect
       effect="copy_rotate"
       starting_point="62.81794,52.034264"
       origin="61.825012,52.034264"
       id="path-effect1183"
       is_visible="true"
       lpeversion="1"
       method="normal"
       num_copies="19"
       starting_angle="0"
       rotation_angle="18.947368"
       gap="-0.01"
       copies_to_360="true"
       mirror_copies="false"
       split_items="false"
       lpesatellites="" /><inkscape:path-effect
       effect="copy_rotate"
       starting_point="64.010074,52.034264"
       origin="61.825012,52.034264"
       id="path-effect2800"
       is_visible="true"
       lpeversion="1"
       method="normal"
       num_copies="8"
       starting_angle="0"
       rotation_angle="45"
       gap="-0.01"
       copies_to_360="true"
       mirror_copies="false"
       split_items="false"
       lpesatellites="" /><inkscape:path-effect
       effect="copy_rotate"
       starting_point="62.825012,51.902842"
       origin="61.825012,51.902842"
       id="path-effect2032-8"
       is_visible="true"
       lpeversion="1"
       method="normal"
       num_copies="19"
       starting_angle="0"
       rotation_angle="18.947368"
       gap="-0.01"
       copies_to_360="true"
       mirror_copies="false"
       split_items="false"
       lpesatellites="" /><inkscape:path-effect
       effect="copy_rotate"
       starting_point="62.81794,52.034264"
       origin="61.825012,52.034264"
       id="path-effect1183-9"
       is_visible="true"
       lpeversion="1"
       method="normal"
       num_copies="19"
       starting_angle="0"
       rotation_angle="18.947368"
       gap="-0.01"
       copies_to_360="true"
       mirror_copies="false"
       split_items="false"
       lpesatellites="" /><inkscape:path-effect
       effect="copy_rotate"
       starting_point="64.010074,52.034264"
       origin="61.825012,52.034264"
       id="path-effect2800-6"
       is_visible="true"
       lpeversion="1"
       method="normal"
       num_copies="8"
       starting_angle="0"
       rotation_angle="45"
       gap="-0.01"
       copies_to_360="true"
       mirror_copies="false"
       split_items="false"
       lpesatellites="" /><inkscape:path-effect
       effect="copy_rotate"
       starting_point="62.825012,51.902842"
       origin="61.825012,51.902842"
       id="path-effect2032-4"
       is_visible="true"
       lpeversion="1"
       method="normal"
       num_copies="19"
       starting_angle="0"
       rotation_angle="18.947368"
       gap="-0.01"
       copies_to_360="true"
       mirror_copies="false"
       split_items="false"
       lpesatellites="" /><inkscape:path-effect
       effect="copy_rotate"
       starting_point="62.81794,52.034264"
       origin="61.825012,52.034264"
       id="path-effect1183-8"
       is_visible="true"
       lpeversion="1"
       method="normal"
       num_copies="19"
       starting_angle="0"
       rotation_angle="18.947368"
       gap="-0.01"
       copies_to_360="true"
       mirror_copies="false"
       split_items="false"
       lpesatellites="" /><inkscape:path-effect
       effect="copy_rotate"
       starting_point="64.010074,52.034264"
       origin="61.825012,52.034264"
       id="path-effect2800-8"
       is_visible="true"
       lpeversion="1"
       method="normal"
       num_copies="8"
       starting_angle="0"
       rotation_angle="45"
       gap="-0.01"
       copies_to_360="true"
       mirror_copies="false"
       split_items="false"
       lpesatellites="" /></defs><sodipodi:namedview
     id="base"
     pagecolor="#ffffff"
     bordercolor="#666666"
     borderopacity="1.0"
     inkscape:pageopacity="0.0"
     inkscape:pageshadow="2"
     inkscape:zoom="2.8284271"
     inkscape:cx="105.53569"
     inkscape:cy="121.62237"
     inkscape:document-units="mm"
     inkscape:current-layer="layer3"
     showgrid="false"
     inkscape:window-width="1920"
     inkscape:window-height="1043"
     inkscape:window-x="1920"
     inkscape:window-y="0"
     inkscape:window-maximized="1"
     inkscape:snap-global="false"
     showguides="true"
     inkscape:pagecheckerboard="0"
     inkscape:guide-bbox="true"
     inkscape:showpageshadow="2"
     inkscape:deskcolor="#d1d1d1" /><metadata
     id="metadata5"><rdf:RDF><cc:Work
         rdf:about=""><dc:format>image/svg+xml</dc:format><dc:type
           rdf:resource="http://purl.org/dc/dcmitype/StillImage" /></cc:Work></rdf:RDF></metadata><g
     inkscape:groupmode="layer"
     id="layer3"
     inkscape:label="Capa 2"
     style="display:inline"><g
       id="g2524"><path
         id="path4521"
         style="fill:#000000;stroke:none;stroke-width:0.23363px;stroke-linecap:butt;stroke-linejoin:miter;stroke-opacity:1"
         d="m 38.292744,22.974496 c -0.211099,0 -0.375999,0.1649 -0.375999,0.375998 v 2.309377 c 0,0.0055 6.83e-4,0.01096 9.13e-4,0.01643 0.347906,0.01798 0.671826,0.03693 0.966917,0.05658 -0.238336,-0.02586 -0.432123,-0.210006 -0.432123,-0.451746 v -1.822951 c 0,-0.250182 0.206583,-0.456765 0.456765,-0.456765 h 2.506044 c 0.264025,0 0.481862,0.217837 0.481862,0.481862 v 1.923795 c 0,0.264025 -0.218316,0.496862 -0.481862,0.48095 L 39.133264,25.75022 c 0.354403,0.02575 0.656807,0.05262 0.892539,0.08122 l 0.02601,0.0032 0.02236,0.01415 c 0,0 0.150781,0.09709 0.289756,0.187086 h 7.585214 c 0.211096,0 0.375997,-0.1649 0.375997,-0.375998 v -2.309377 c 0,-0.211098 -0.164901,-0.375998 -0.375997,-0.375998 z m 0.616473,0.349533 c -0.07721,1e-6 -0.134612,0.05695 -0.134612,0.134155 v 0.01232 l 2.782568,0.02601 v -0.01323 c 0,-0.08147 -0.06045,-0.140877 -0.141912,-0.141456 z m -0.134612,0.379192 v 0.158795 l 2.782568,0.04746 V 23.74201 Z m -15.357057,0.314397 c -0.03218,-8.3e-5 -0.0647,1.9e-4 -0.09719,4.55e-4 -0.404347,0.0033 -0.825354,0.03516 -1.067305,0.133243 -0.304866,0.222907 -1.603011,1.040383 -1.603011,1.040383 h 0.525667 l 0.260552,-0.1483 3.431895,-0.0037 c -0.05979,-0.217363 -0.125878,-0.90784 -0.485056,-0.973762 -0.04715,-0.0087 -0.482881,-0.04713 -0.965548,-0.04837 z m 2.093543,0.05339 c -0.260607,0 -0.47593,0.21395 -0.47593,0.474561 v 0.491444 0.04654 0.05019 0.02053 0.193018 0.09811 c 0.04027,-0.0011 0.07544,-0.0021 0.119097,-0.0032 0.08831,-0.0022 0.192955,-0.0037 0.294775,-0.0055 v -0.260553 c 0,-0.02303 0.0025,-0.04527 0.0068,-0.06708 0.0014,-0.0073 0.004,-0.01428 0.0059,-0.02145 0.0037,-0.01388 0.0074,-0.02791 0.01278,-0.04107 0.0037,-0.0092 0.0088,-0.01766 0.01323,-0.02647 0.0053,-0.01042 0.01059,-0.02077 0.01688,-0.03057 0.0063,-0.0099 0.0133,-0.01906 0.02053,-0.02829 0.0051,-0.0064 0.01004,-0.01269 0.01551,-0.01871 0.01083,-0.01203 0.02233,-0.02285 0.03468,-0.03331 0.0022,-0.0018 0.0042,-0.0037 0.0064,-0.0055 0.01401,-0.01131 0.02864,-0.02147 0.04426,-0.03057 0.0022,-0.0013 0.0046,-0.0024 0.0068,-0.0037 0.01664,-0.0092 0.03392,-0.01728 0.05202,-0.02373 h 4.57e-4 c 0.01941,-0.0069 0.03949,-0.01214 0.06023,-0.01551 0.0047,-0.001 0.0098,-9.42e-4 0.0146,-0.0018 0.01942,-0.0036 0.0389,-0.0068 0.05932,-0.0068 h 2.19895 c 0.192725,0 0.353639,0.159085 0.353639,0.351815 v 0.256901 c 0.3818,0.0027 0.779539,0.007 1.188683,0.01186 v -0.143737 c 0,-0.02752 0.0027,-0.0545 0.0073,-0.08077 4.53e-4,-0.0026 8.73e-4,-0.0052 0.0014,-0.0078 0.0023,-0.01182 0.0065,-0.02273 0.0096,-0.03422 0.0048,-0.01767 0.0097,-0.03522 0.01643,-0.05202 0.005,-0.01248 0.01132,-0.02412 0.01734,-0.03605 0.0068,-0.01349 0.01341,-0.02698 0.02145,-0.0397 0.0082,-0.01308 0.01749,-0.02523 0.02692,-0.03742 0.0081,-0.01045 0.01616,-0.02084 0.0251,-0.03057 0.01051,-0.01149 0.02173,-0.02198 0.03331,-0.0324 0.01002,-0.009 0.02028,-0.01743 0.03103,-0.02555 0.01231,-0.0093 0.02468,-0.01834 0.03787,-0.02647 0.0115,-0.0071 0.02349,-0.01309 0.03559,-0.01917 0.01376,-0.0069 0.0275,-0.01357 0.04198,-0.01917 0.01217,-0.0047 0.02479,-0.0082 0.03742,-0.01186 0.0181,-0.0053 0.03585,-0.01103 0.05476,-0.01415 0.0093,-0.0019 0.01882,-0.0033 0.02829,-0.0046 4.48e-4,-4.6e-5 9.2e-4,4.4e-5 0.0014,0 7.43e-4,-1.04e-4 0.0015,1.02e-4 0.0023,0 0.02079,-0.0028 0.0419,-0.005 0.06343,-0.005 h 1.953912 c 0.260612,0 0.476386,0.213496 0.476386,0.474106 v 0.195299 c 0.160006,0.0035 0.319858,0.0072 0.479581,0.01095 v -0.02053 c 0,-0.02807 0.0015,-0.05565 0.0041,-0.08305 9.9e-4,-0.01032 0.0028,-0.02036 0.0041,-0.03057 0.0023,-0.01756 0.0048,-0.03526 0.0082,-0.05248 0.0018,-0.0092 0.0043,-0.01824 0.0064,-0.02738 0.0042,-0.01817 0.0084,-0.03613 0.01369,-0.05385 0.0026,-0.0088 0.0058,-0.01733 0.0087,-0.02601 0.0055,-0.01648 0.01132,-0.0328 0.0178,-0.04883 0.0043,-0.01064 0.009,-0.02106 0.01369,-0.03149 0.0054,-0.01199 0.01095,-0.02389 0.01688,-0.03559 0.0063,-0.01246 0.01274,-0.02485 0.01962,-0.03696 0.0072,-0.0126 0.01504,-0.02476 0.02281,-0.03696 0.0062,-0.0097 0.01219,-0.01933 0.01871,-0.02875 0.0067,-0.0097 0.01389,-0.0189 0.02099,-0.02829 0.0095,-0.01258 0.01861,-0.02538 0.02875,-0.03742 0.01594,-0.01887 0.03273,-0.03731 0.05019,-0.05476 0.03309,-0.03314 0.0692,-0.06331 0.107232,-0.0908 0.0026,-0.0019 0.0051,-0.0041 0.0078,-0.0059 0.01944,-0.01373 0.03967,-0.02666 0.06023,-0.03879 h 4.56e-4 c 0.02102,-0.01239 0.0427,-0.02361 0.0648,-0.03422 7.98e-4,-3.83e-4 0.0015,-9.89e-4 0.0023,-0.0014 0.02208,-0.01053 0.04448,-0.02008 0.06753,-0.02875 2.68e-4,-1.01e-4 6.45e-4,10e-5 9.13e-4,0 0.02249,-0.0084 0.04513,-0.01626 0.06845,-0.02282 0.0035,-9.76e-4 0.007,-0.0018 0.0105,-0.0027 0.02206,-0.0059 0.04438,-0.0109 0.06708,-0.01506 0.02204,-0.0045 0.04447,-0.0077 0.06708,-0.01049 0.0018,-1.85e-4 0.0037,-2.84e-4 0.0055,-4.57e-4 0.03344,-0.004 0.06729,-0.0068 0.101757,-0.0068 h 3.148984 c 0.19383,0 0.372658,0.06538 0.517454,0.173853 v -0.239105 c 0,-0.260611 -0.215318,-0.474561 -0.47593,-0.474561 z m 13.263514,0.02373 v 0.158795 l 2.782568,0.06936 v -0.167466 z m 9.873144,0.11362 v 1.451517 c 0,0.16573 -0.05861,0.318293 -0.156058,0.438056 h 0.07985 a 0.19866853,0.19866853 0 0 1 0.198495,0.198495 v 1.424594 c 0.34364,-0.148344 0.750965,-0.300608 1.119324,-0.375998 l 0.03103,-0.0064 c 0.0091,-0.05153 0.02742,-0.102236 0.05567,-0.150125 l 0.316221,-0.536619 c 0.07775,-0.131807 0.214432,-0.212692 0.359571,-0.230435 -0.46084,-0.846915 -1.399426,-1.869271 -2.004106,-2.213096 z m -9.873144,0.277892 v 0.156971 l 2.782568,0.0908 V 24.56838 Z m 0,0.391512 v 0.15697 l 2.782568,0.112709 v -0.16564 z m -4.943644,0.05841 c -0.01902,0 -0.03765,8.99e-4 -0.05613,0.0027 -0.01204,0.0016 -0.02429,0.0031 -0.03605,0.0055 -0.249898,0.05029 -0.433949,0.268071 -0.433949,0.534337 v 1.57107 c 0,0.304297 0.240529,0.543006 0.544832,0.543006 h 3.148984 c 0.01887,0 0.03733,-9.44e-4 0.05567,-0.0027 0.01219,-0.0016 0.0246,-0.0031 0.03651,-0.0055 0.03014,-0.006 0.05912,-0.01491 0.08715,-0.02555 10e-4,-3.93e-4 0.0022,-5.14e-4 0.0032,-9.13e-4 5.12e-4,-1.98e-4 8.59e-4,-7.14e-4 0.0014,-9.12e-4 0.02553,-0.01 0.05006,-0.02165 0.07347,-0.03514 0.0055,-0.0032 0.01062,-0.0067 0.01597,-0.01004 0.02155,-0.01345 0.04228,-0.02801 0.0616,-0.04426 0.0035,-0.003 0.007,-0.0061 0.0105,-0.0091 0.02059,-0.01826 0.03994,-0.03765 0.05749,-0.05886 0.01802,-0.02178 0.03393,-0.04528 0.04837,-0.06982 0.0017,-0.0029 0.0034,-0.0057 0.005,-0.0087 0.01326,-0.02353 0.025,-0.04828 0.03468,-0.07392 0.0016,-0.0043 0.003,-0.0088 0.0046,-0.01323 0.0088,-0.02532 0.01639,-0.0515 0.02145,-0.07848 0.001,-0.0054 0.0014,-0.011 0.0023,-0.01643 0.0044,-0.02828 0.0073,-0.05701 0.0073,-0.0867 v -1.28177 c -0.02103,-0.0012 -0.04126,-0.0026 -0.06343,-0.0037 0.03358,-0.06499 0.0543,-0.137467 0.0543,-0.214922 v -0.16929 c -0.0056,-0.03168 -0.0139,-0.06228 -0.02464,-0.09172 -1.15e-4,-3.18e-4 -3.4e-4,-5.95e-4 -4.56e-4,-9.13e-4 -1.19e-4,-3.21e-4 -3.38e-4,-5.91e-4 -4.57e-4,-9.12e-4 -0.01049,-0.02841 -0.02306,-0.05581 -0.03787,-0.08168 -0.0013,-0.0022 -0.0028,-0.0042 -0.0041,-0.0064 -0.01507,-0.02547 -0.03175,-0.04959 -0.05065,-0.0721 -0.01987,-0.02367 -0.04208,-0.04579 -0.06571,-0.06571 -0.02247,-0.01894 -0.04666,-0.03554 -0.0721,-0.05065 -0.0023,-0.0014 -0.0045,-0.0028 -0.0068,-0.0041 -0.02396,-0.01375 -0.04913,-0.02556 -0.07529,-0.03559 -0.0047,-0.0018 -0.0094,-0.0038 -0.01415,-0.0055 -0.02608,-0.0092 -0.05295,-0.01671 -0.08077,-0.0219 -0.004,-7.53e-4 -0.0082,-0.0012 -0.01232,-0.0018 -0.02949,-0.0048 -0.0598,-0.0078 -0.09081,-0.0078 z m -8.025551,0.208989 c -0.01086,0.0043 -0.01688,0.01392 -0.01688,0.02829 v 1.048596 c 0,0.01975 0.01128,0.03103 0.03103,0.03103 h 2.194387 c 8.8e-4,-3.51e-4 0.0015,-9.46e-4 0.0023,-0.0014 0.0033,-0.0018 0.006,-0.0044 0.0082,-0.0073 0.0011,-0.0014 0.002,-0.0029 0.0027,-0.0046 0.002,-0.0043 0.0037,-0.0091 0.0037,-0.01506 V 25.17612 c 0,-0.0099 -0.0029,-0.01753 -0.0082,-0.02281 -0.0053,-0.0053 -0.01294,-0.0082 -0.02282,-0.0082 z m 4.229521,0 c -0.0076,0 -0.01467,0.0013 -0.0219,0.0023 -0.066,0.01697 -0.110882,0.07492 -0.110882,0.148301 v 0.803559 c 0,0.08763 0.06387,0.153775 0.151494,0.153775 h 1.953912 c 0.0061,0 0.01192,-0.0012 0.0178,-0.0018 0.01673,-0.0038 0.03217,-0.01022 0.04609,-0.01871 4.06e-4,-2.49e-4 9.67e-4,-2.04e-4 0.0014,-4.56e-4 l 4.56e-4,-4.57e-4 c 0.01344,-0.0085 0.02516,-0.0193 0.03513,-0.03148 4.05e-4,-4.98e-4 9.72e-4,-8.65e-4 0.0014,-0.0014 3.39e-4,-4.25e-4 5.78e-4,-9.39e-4 9.12e-4,-0.0014 0.0092,-0.01183 0.01608,-0.02519 0.02145,-0.0397 9.83e-4,-0.0027 0.0019,-0.0055 0.0027,-0.0082 0.0045,-0.01486 0.0078,-0.03065 0.0078,-0.04746 v -0.803559 c 0,-0.08764 -0.06615,-0.15332 -0.153776,-0.15332 z m 8.739674,0.124116 v 0.01186 c 0,0.0772 0.05752,0.128636 0.134612,0.132786 l 2.506044,0.133698 c 0.08136,0.0043 0.141912,-0.05908 0.141912,-0.140543 v -0.01232 z m -13.900977,0.005 -3.375313,0.0018 -0.166096,0.09446 -0.0023,0.0091 -0.410221,0.23363 h -0.01369 l -0.685375,0.390143 h 0.0146 l -2.168378,1.234771 c 1.427743,-0.193614 3.209065,-0.365145 5.235682,-0.487794 0.05872,-0.08106 0.117985,-0.161449 0.177048,-0.239562 0.08584,-0.113527 0.168033,-0.218045 0.246862,-0.317134 0.06769,-0.08554 0.126969,-0.159062 0.186631,-0.232261 0.206748,-0.253659 0.360027,-0.432124 0.360027,-0.432124 l 0.02601,-0.0292 0.03787,-0.0087 c 0.09587,-0.02013 0.269603,-0.03057 0.521561,-0.03879 v -0.0018 c 0.0053,-1.8e-4 0.0088,-2.79e-4 0.01414,-4.56e-4 0.01758,-0.07345 0.03744,-0.157084 0.04198,-0.176135 z m 9.428243,0.258727 c 0.0064,-7.1e-5 0.01335,1.32e-4 0.01688,4.56e-4 0.0071,7.06e-4 0.01292,8.26e-4 0.01734,0.0018 0.0087,0.0019 0.01479,0.0049 0.02053,0.0068 0.01151,0.0039 0.02126,0.0073 0.03285,0.01232 0.02319,0.01008 0.05038,0.02448 0.08442,0.04152 0.06811,0.03408 0.159848,0.08169 0.267396,0.13963 0.215097,0.115881 0.495272,0.270562 0.772531,0.425736 0.554532,0.310362 1.100616,0.622861 1.100616,0.622861 a 0.11681479,0.11681479 0 0 1 0.04289,0.158339 0.11681479,0.11681479 0 0 1 -0.158796,0.04335 c 0,0 -0.544927,-0.3113 -1.098334,-0.621037 -0.276708,-0.154861 -0.5564,-0.309194 -0.769336,-0.42391 -0.106461,-0.05736 -0.196489,-0.104383 -0.260552,-0.136436 -0.03203,-0.01603 -0.05779,-0.0277 -0.07392,-0.03468 -0.0055,-0.0024 -0.0079,-0.004 -0.01049,-0.005 0.0023,5.3e-4 0.0068,0.0013 0.01232,0.0018 0.0056,4.42e-4 0.02607,-0.0019 0.02555,-0.0018 a 0.11681479,0.11681479 0 0 1 -0.132786,-0.09674 0.11681479,0.11681479 0 0 1 0.09856,-0.134611 c 2.6e-4,-4.1e-5 0.006,-3.86e-4 0.01232,-4.56e-4 z m -14.249597,0.08031 -0.475017,0.397444 0.162902,-0.0018 0.694957,-0.395619 z m 8.31987,0.05384 v 0.554871 c 0,0.172613 -0.129373,0.317604 -0.294775,0.346338 -0.0011,1.92e-4 -0.0021,7.31e-4 -0.0032,9.13e-4 -0.02405,0.0053 -0.04893,0.0087 -0.07438,0.0087 h -2.19895 c -0.192732,0 -0.351813,-0.160454 -0.351813,-0.353182 v -0.55259 c -0.10549,0.0018 -0.214861,0.0032 -0.30664,0.0055 -0.123518,0.0031 -0.210554,0.0079 -0.304814,0.01232 -0.203383,0.0095 -0.363648,0.02018 -0.417978,0.0292 -0.01123,0.01294 -0.101367,0.118562 -0.201688,0.23865 h 0.01688 c -0.141152,0.169065 -0.326728,0.396073 -0.550308,0.691763 -0.199959,0.264455 -0.402117,0.549567 -0.563541,0.812229 -0.135604,0.220645 -0.212795,0.403272 -0.260551,0.553502 0.04713,0.0078 0.101285,0.01632 0.172484,0.02418 0.166535,0.01832 0.394994,0.03672 0.674424,0.05339 0.558867,0.03335 1.322552,0.06134 2.226328,0.08624 1.807551,0.04981 4.170312,0.08214 6.55852,0.09172 2.283727,0.0092 4.578961,-0.0026 6.445812,-0.03742 0.06381,-0.0012 0.132245,-0.0022 0.198493,-0.0032 0.02269,-3.42e-4 0.04662,-4.85e-4 0.06799,-9.13e-4 0.04673,-9.47e-4 0.08393,-0.0022 0.130048,-0.0032 v 0.0023 c 0.887604,-0.01892 1.669419,-0.0429 2.269221,-0.07392 0.545833,-0.02823 0.866672,-0.06458 1.072781,-0.09993 -0.01755,-0.02268 -0.01366,-0.02803 -0.03787,-0.05384 -0.08114,-0.08653 -0.196245,-0.191078 -0.331279,-0.303445 -0.27008,-0.224729 -0.622591,-0.482876 -0.972393,-0.727812 -0.157296,-0.110138 -0.310974,-0.215039 -0.456765,-0.313484 -0.0269,-0.01817 -0.05169,-0.0351 -0.07757,-0.05248 -0.09146,-0.06141 -0.173803,-0.115658 -0.255076,-0.16929 -0.140663,-0.09243 -0.277649,-0.182076 -0.36459,-0.237737 h -4.57e-4 c -0.07996,-0.05135 -0.202528,-0.130657 -0.208076,-0.134154 -0.440895,-0.05291 -1.128668,-0.101287 -1.954825,-0.145106 -0.05182,-0.0027 -0.09856,-0.0055 -0.151495,-0.0082 v 0.07712 0.224047 0.839608 c 0,0.424113 -0.308308,0.776985 -0.711841,0.850558 -0.02248,0.0046 -0.04539,0.0077 -0.06845,0.01049 -0.03475,0.0043 -0.07,0.0073 -0.105864,0.0073 h -3.148983 c -0.477282,0 -0.867442,-0.388334 -0.867442,-0.865617 v -1.312799 c -0.159703,-0.0038 -0.319581,-0.0074 -0.479581,-0.01095 v 0.370523 c 0,0.234503 -0.174846,0.431808 -0.399725,0.469084 -0.0097,0.002 -0.01974,0.0032 -0.02966,0.0046 -0.02154,0.003 -0.04341,0.005 -0.06571,0.005 h -1.953913 c -0.01629,0 -0.03249,-6.41e-4 -0.04837,-0.0023 -0.206433,-0.02133 -0.3749,-0.177892 -0.416153,-0.378279 -0.0063,-0.03083 -0.0096,-0.06279 -0.0096,-0.09537 v -0.422997 c -0.409552,-0.0051 -0.806477,-0.0089 -1.188683,-0.01187 z m 12.68446,0.829112 c 0.133933,0.09084 0.270498,0.183527 0.411133,0.281999 0.235263,0.16473 0.470897,0.334864 0.685832,0.499201 0.829938,0.103105 1.655539,0.219471 2.473647,0.34862 V 27.10865 a 0.16116598,0.16116598 0 0 1 0.16062,-0.16062 h 2.555783 a 0.16116598,0.16116598 0 0 1 0.160621,0.16062 v 1.036276 c 0.118219,0.02419 0.235361,0.04967 0.352726,0.07483 3.39e-4,-3.54e-4 10e-4,-0.001 0.0014,-0.0014 0.09702,0.0204 0.194048,0.04074 0.290667,0.0616 -4.58e-4,2.41e-4 -0.0017,0.0011 -0.0023,0.0014 0.07537,0.01627 0.151685,0.03132 0.226785,0.04791 V 28.167742 27.90217 26.496284 h -0.113165 z m 9.645445,0.256446 c -0.04379,-10e-4 -0.08542,0.02135 -0.10997,0.06297 l -0.316222,0.536163 c -0.03571,0.06054 -0.0156,0.129197 0.04609,0.162901 l 1.658681,0.906229 c 0.06168,0.0337 0.133125,0.01537 0.168834,-0.04517 L 52.465681,27.8392 c 0.03572,-0.06055 0.01651,-0.130111 -0.04517,-0.163815 L 50.76183,26.769157 c -0.01928,-0.01053 -0.03987,-0.01597 -0.05978,-0.01643 z m -27.63814,0.339493 c -0.267917,0.01675 -0.531525,0.03456 -0.790326,0.05293 -0.221763,0.01574 -0.438297,0.03197 -0.652977,0.04883 -0.11408,0.0089 -0.225666,0.01813 -0.337669,0.02738 -0.13787,0.01139 -0.275589,0.02332 -0.410221,0.03514 -0.06284,0.0055 -0.124965,0.01082 -0.187086,0.01643 -0.163031,0.01471 -0.323019,0.02941 -0.480949,0.04472 -0.0776,0.0075 -0.155015,0.01516 -0.231348,0.02282 -0.140988,0.01415 -0.279131,0.02876 -0.415697,0.04335 -0.06946,0.0074 -0.139791,0.01483 -0.208077,0.02236 -0.163816,0.01806 -0.323592,0.03656 -0.480493,0.05521 -0.03537,0.0042 -0.07222,0.0081 -0.107232,0.01232 -0.198011,0.02394 -0.391017,0.04823 -0.57723,0.07301 -0.185222,0.02473 -0.36503,0.04984 -0.537987,0.07529 -4.53e-4,6.6e-5 -9.17e-4,3.9e-4 -0.0014,4.57e-4 -0.257144,0.07345 -0.491358,0.181961 -0.652064,0.323978 -0.163044,0.14409 -0.255076,0.311643 -0.255076,0.553503 v 1.193702 c 0,0.487731 0.386562,0.874287 0.874286,0.874287 h 34.168369 c 0.04895,0 0.09606,-0.0049 0.141912,-0.01278 0.02265,-0.0044 0.04483,-0.0097 0.06662,-0.01597 3.25e-4,-9.3e-5 5.87e-4,-3.62e-4 9.13e-4,-4.56e-4 0.01223,-0.0035 0.0241,-0.0078 0.03605,-0.01186 0.01191,-0.0041 0.02397,-0.0077 0.03559,-0.01232 0.0109,-0.0043 0.02131,-0.0094 0.03194,-0.01415 0.01,-0.0045 0.01993,-0.0088 0.02966,-0.01369 0.01094,-0.0054 0.02177,-0.01141 0.0324,-0.01734 0.01123,-0.0063 0.02243,-0.01284 0.03331,-0.01962 0.0094,-0.0059 0.01866,-0.01199 0.02783,-0.01825 0.0079,-0.0054 0.01561,-0.01079 0.02327,-0.01643 0.0116,-0.0085 0.0231,-0.01733 0.03422,-0.02647 0.0077,-0.0064 0.0153,-0.01297 0.02282,-0.01962 0.0095,-0.0084 0.01915,-0.01668 0.02829,-0.02555 6.17e-4,-5.99e-4 0.0012,-0.0012 0.0018,-0.0018 0.01553,-0.01516 0.03081,-0.03063 0.04518,-0.047 v -4.56e-4 c 0.0073,-0.0084 0.01398,-0.01736 0.02099,-0.02601 0.0068,-0.0084 0.01404,-0.01643 0.02053,-0.0251 7.86e-4,-0.001 0.0015,-0.0021 0.0023,-0.0032 0.0058,-0.0078 0.01085,-0.01614 0.01643,-0.02418 0.0073,-0.01055 0.01457,-0.02105 0.02145,-0.03194 0.02073,-0.03286 0.03951,-0.06739 0.05613,-0.103126 0.0032,-0.0068 0.0061,-0.01364 0.0091,-0.02053 0.01577,-0.03617 0.0297,-0.07328 0.04107,-0.111796 0.0016,-0.0053 0.0026,-0.01067 0.0041,-0.01597 0.0113,-0.0408 0.02081,-0.08265 0.02692,-0.125484 -0.178239,-0.05796 -0.35812,-0.114743 -0.5389,-0.17066 -0.01126,-0.0035 -0.0225,-0.007 -0.03377,-0.01049 -4.6e-4,-1.41e-4 -9.09e-4,-3.14e-4 -0.0014,-4.57e-4 -1.327501,-0.409268 -2.721777,-0.763914 -4.159707,-1.069586 -0.0451,-0.0096 -0.09035,-0.01883 -0.135523,-0.02829 -0.206423,-0.04336 -0.413834,-0.08593 -0.621949,-0.127309 -0.0059,-0.0012 -0.01187,-0.0025 -0.0178,-0.0037 -0.201993,-0.04009 -0.405256,-0.07902 -0.608715,-0.117271 -0.419352,-0.07887 -0.84191,-0.154159 -1.266712,-0.225416 -0.0035,-5.87e-4 -0.007,-0.0012 -0.01049,-0.0018 -0.208809,-0.03498 -0.418402,-0.06903 -0.628337,-0.102213 -0.0027,-4.33e-4 -0.0055,-9.37e-4 -0.0082,-0.0014 -0.0548,-0.0087 -0.109854,-0.01656 -0.164728,-0.0251 -0.30254,-0.04705 -0.605851,-0.0921 -0.910335,-0.135524 -0.06896,-0.0098 -0.137655,-0.02046 -0.206707,-0.03012 -0.214613,-0.03 -0.429845,-0.05891 -0.645221,-0.08715 0.06528,0.05941 0.124014,0.116569 0.17431,0.170203 0.09195,0.09805 0.160794,0.17864 0.186631,0.281086 l 0.02738,0.114077 -0.112252,0.02738 c -0.214945,0.05462 -0.653665,0.09103 -1.293177,0.124116 -0.639518,0.03308 -1.468692,0.06001 -2.424823,0.0794 -1.912262,0.03879 -4.328101,0.0511 -6.717771,0.04152 -2.389675,-0.0096 -4.753109,-0.04183 -6.56354,-0.09172 -0.905214,-0.02494 -1.672096,-0.05399 -2.235455,-0.08761 -0.281669,-0.01681 -0.513014,-0.03479 -0.686287,-0.05384 -0.08664,-0.0095 -0.158756,-0.02045 -0.217203,-0.03103 -0.05845,-0.01058 -0.09962,-0.01874 -0.143281,-0.0397 l -0.08259,-0.03787 0.01871,-0.08944 c 0.04202,-0.211409 0.170455,-0.460453 0.338124,-0.733287 0.05063,-0.08239 0.105363,-0.166763 0.16199,-0.251426 z m 21.885917,0.178417 v 0.407483 c 0.751919,0.1223 1.496717,0.256276 2.231804,0.402464 V 27.27064 Z m 4.951402,0.315765 c -0.369889,0.08179 -0.790014,0.246215 -1.131188,0.396988 v 0.436231 c 1.121099,0.256443 2.2132,0.544098 3.265342,0.865617 0.05647,-0.177105 0.07757,-0.365347 0.03742,-0.48825 l -0.04244,-0.02373 c -0.07667,-2.06e-4 -0.15365,-0.01812 -0.224047,-0.05658 l -1.658682,-0.906228 c -0.08249,-0.04507 -0.145216,-0.112374 -0.184804,-0.189825 z m 2.209445,3.257129 c -0.03071,0.0088 -0.06233,0.01553 -0.094,0.0219 -0.0025,4.96e-4 -0.0048,0.0013 -0.0073,0.0018 -0.0068,0.0014 -0.01368,0.0028 -0.02053,0.0041 -0.0011,1.98e-4 -0.0021,2.56e-4 -0.0032,4.57e-4 -0.01129,0.0021 -0.02283,0.0032 -0.03422,0.005 -0.0094,0.0013 -0.01877,0.0029 -0.02829,0.0041 -0.02298,0.0031 -0.04599,0.0055 -0.06936,0.0073 -0.03027,0.0027 -0.06071,0.005 -0.09172,0.005 H 17.593685 c -0.03292,0 -0.06511,-0.002 -0.09719,-0.005 -0.02682,-0.0022 -0.0531,-0.0057 -0.0794,-0.0096 v 0.286561 c 0,0.681491 0.548705,1.230208 1.230208,1.230208 h 32.233165 c 0.681491,0 1.230207,-0.548717 1.230207,-1.230208 z" /><path
         id="rect11820"
         style="display:inline;fill:#000000;stroke:none;stroke-width:0.182049;stroke-linecap:round;stroke-miterlimit:4;stroke-dasharray:none;stop-color:#000000"
         d="m 37.040634,19.031993 c -0.306778,0.09648 -0.928959,0.505656 -1.222451,0.705452 h -1.161304 c 1.02e-4,-0.11702 -0.03385,-0.298554 -0.09081,-0.302988 0,0 -0.105971,-0.06616 -0.181155,-0.06343 -0.01392,5.06e-4 -0.02696,0.0035 -0.03787,0.0096 l -0.498289,0.240931 -2.017794,-0.01643 -0.228611,-0.230892 c -0.637605,0.03865 -0.976015,0.304332 -1.04449,0.363221 h -0.496007 c -0.0126,-0.106876 -0.05065,-0.237737 -0.05065,-0.237737 0,0 -2.39445,-0.207522 -3.068673,-0.198038 -0.04495,6.33e-4 -0.08199,0.0023 -0.110427,0.005 -0.04555,0.0043 -0.137884,0.28328 -0.19165,0.430755 h -0.804927 c -0.08248,-0.08927 -0.199501,-0.146018 -0.33128,-0.146018 h -3.343371 c -0.142296,0 -0.268992,0.0649 -0.351814,0.167008 h -1.190052 c -0.02601,-0.156193 -0.133864,-0.272872 -0.263746,-0.272872 -0.129884,0 -0.238193,0.116679 -0.264203,0.272872 h -1.184576 c -0.02601,-0.156193 -0.133863,-0.272872 -0.263747,-0.272872 -0.129879,0 -0.237731,0.116688 -0.263746,0.272872 h -1.185033 c -0.02601,-0.156184 -0.133869,-0.272872 -0.263745,-0.272872 -0.129879,0 -0.237732,0.116688 -0.263747,0.272872 h -1.185033 c -0.02601,-0.156184 -0.133867,-0.272872 -0.263746,-0.272872 -0.129884,0 -0.237736,0.116679 -0.263746,0.272872 h -1.184577 c -0.02601,-0.156193 -0.134318,-0.272872 -0.264202,-0.272872 l -4.56e-4,-4.56e-4 c -0.129884,0 -0.237738,0.116677 -0.263747,0.272872 h -1.221537 c -0.06627,-0.15133 -0.217472,-0.256445 -0.393794,-0.256445 H 8.3894889 c -0.2378902,0 -0.4293861,0.191496 -0.4293861,0.429386 v 0.05111 c 0.00926,-4.94e-4 0.018448,-0.0023 0.027835,-0.0023 H 37.557631 v -0.2423 h -0.07484 c 0.02751,-0.149603 0.09244,-0.699042 -0.442162,-0.705452 z M 7.987025,20.069181 c -0.2374293,0 -0.4284735,0.191501 -0.4284735,0.42893 0,0.237433 0.1910442,0.428474 0.4284735,0.428474 h 19.272183 c 0.07874,-0.144471 0.135524,-0.247319 0.135524,-0.247319 a 0.16116598,0.16116598 0 0 1 0.08487,-0.07255 c 0.05607,-0.02088 0.09129,-0.02093 0.151494,-0.02738 0.0602,-0.0064 0.135356,-0.01222 0.225873,-0.01734 0.181034,-0.0103 0.421734,-0.01921 0.707278,-0.02601 0.571087,-0.01359 1.319529,-0.02086 2.109057,-0.02236 1.015104,-0.0019 2.098534,0.006 2.955966,0.02053 0.428715,0.0073 0.800943,0.01716 1.08145,0.02783 0.140253,0.0053 0.257721,0.01107 0.34862,0.01734 0.0909,0.0062 0.144999,0.0087 0.201688,0.02236 a 0.16116598,0.16116598 0 0 1 0.09674,0.06525 c 0,0 0.278233,0.406482 0.555328,0.848734 0.138547,0.221125 0.276165,0.452397 0.381017,0.648414 0.04451,0.0832 0.0813,0.158261 0.111796,0.227698 h 2.169289 c 0.281645,0 0.508328,-0.226683 0.508328,-0.508328 v -0.968286 c 0,-0.281645 -0.226683,-0.508327 -0.508328,-0.508327 H 37.74061 v -0.337669 z m 22.688107,0.767055 c -0.787981,0.0015 -1.535172,0.0089 -2.102213,0.02236 -0.283518,0.0068 -0.52206,0.01607 -0.696782,0.02601 -0.08736,0.005 -0.15894,0.01004 -0.210358,0.01551 -0.01672,0.0018 -0.01136,9.86e-4 -0.02418,0.0032 -0.0014,0.0025 -0.01079,0.01972 -0.01278,0.02327 h 7.512204 c -0.0015,-0.0022 -0.0098,-0.01477 -0.01095,-0.01643 -0.02643,-0.0032 -0.04003,-0.0064 -0.09309,-0.01004 -0.08542,-0.0059 -0.19983,-0.01204 -0.338125,-0.01734 -0.27659,-0.01053 -0.649098,-0.01877 -1.076431,-0.02601 -0.854667,-0.01452 -1.934173,-0.02239 -2.947295,-0.02053 z M 7.9601028,21.01374 v 0.08852 c 0,0.237892 0.1914959,0.429387 0.4293861,0.429387 h 3.2361391 c 0.190403,0 0.350916,-0.122904 0.407483,-0.293863 h 1.207848 c 0.026,0.156195 0.133863,0.272872 0.263747,0.272872 0.129884,0 0.238192,-0.116677 0.264202,-0.272872 h 1.184576 c 0.02601,0.156195 0.133863,0.272872 0.263746,0.272872 0.12988,0 0.237732,-0.116685 0.263747,-0.272872 h 1.185033 c 0.02601,0.156187 0.133868,0.272872 0.263746,0.272872 0.129879,0 0.237732,-0.116685 0.263747,-0.272872 h 1.185032 c 0.02601,0.156187 0.133867,0.272872 0.263746,0.272872 0.129884,0 0.237736,-0.116677 0.263746,-0.272872 h 1.184577 c 0.02601,0.156195 0.134319,0.272872 0.264203,0.272872 0.129884,0 0.237736,-0.116677 0.263746,-0.272872 h 1.162673 c 0.08064,0.1234 0.220164,0.204426 0.379192,0.204426 h 3.343371 c 0.131779,0 0.248799,-0.05678 0.33128,-0.146019 h 1.227014 c 0.05205,-0.09807 0.105345,-0.199188 0.149213,-0.280173 H 7.9874813 c -0.00939,0 -0.018116,-0.0023 -0.027379,-0.0023 z m 19.6194332,0.0023 c -0.03697,0.06653 -0.08224,0.150136 -0.152407,0.280173 h 7.938853 v 0.587269 c 0,0.281645 0.226683,0.508328 0.508327,0.508328 h 0.173398 c -0.01159,-0.02386 -0.0235,-0.04803 -0.03833,-0.07575 -0.0986,-0.184336 -0.234143,-0.410217 -0.370521,-0.62788 -0.201085,-0.320939 -0.354641,-0.548988 -0.438057,-0.672143 z" /><path
         id="path4350"
         style="color:#000000;fill:#000000;stroke-width:0.3223;stroke-linecap:round;stroke-linejoin:round;-inkscape-stroke:none"
         d="m 30.67422,20.675615 c -1.577512,0.0029 -2.991541,0.02833 -3.138489,0.08305 0,0 -0.913529,1.634005 -0.913529,1.891855 h 9.69427 c 0.01461,-0.273387 -1.092402,-1.891855 -1.092402,-1.891855 -0.223063,-0.05375 -2.521621,-0.08685 -4.54985,-0.08305 z m -4.036504,2.123659 v 1.109742 h 9.840289 v -1.109742 z" /></g></g></svg>
