<?xml version="1.0" encoding="UTF-8" standalone="no"?>
<!-- Created with Inkscape (http://www.inkscape.org/) -->

<svg
   width="60mm"
   height="42mm"
   viewBox="0 0 60 42"
   version="1.1"
   id="svg8"
   inkscape:version="1.1.2 (0a00cf5339, 2022-02-04)"
   sodipodi:docname="Scimitar MK II.svg"
   xmlns:inkscape="http://www.inkscape.org/namespaces/inkscape"
   xmlns:sodipodi="http://sodipodi.sourceforge.net/DTD/sodipodi-0.dtd"
   xmlns="http://www.w3.org/2000/svg"
   xmlns:svg="http://www.w3.org/2000/svg"
   xmlns:rdf="http://www.w3.org/1999/02/22-rdf-syntax-ns#"
   xmlns:cc="http://creativecommons.org/ns#"
   xmlns:dc="http://purl.org/dc/elements/1.1/">
  <defs
     id="defs2" />
  <sodipodi:namedview
     id="base"
     pagecolor="#ffffff"
     bordercolor="#666666"
     borderopacity="1.0"
     inkscape:pageopacity="0.0"
     inkscape:pageshadow="2"
     inkscape:zoom="1.4142137"
     inkscape:cx="67.528691"
     inkscape:cy="92.630979"
     inkscape:document-units="mm"
     inkscape:current-layer="layer1"
     showgrid="false"
     inkscape:window-width="1920"
     inkscape:window-height="1043"
     inkscape:window-x="1920"
     inkscape:window-y="1080"
     inkscape:window-maximized="1"
     inkscape:snap-global="false"
     showguides="true"
     inkscape:pagecheckerboard="0" />
  <metadata
     id="metadata5">
    <rdf:RDF>
      <cc:Work
         rdf:about="">
        <dc:format>image/svg+xml</dc:format>
        <dc:type
           rdf:resource="http://purl.org/dc/dcmitype/StillImage" />
      </cc:Work>
    </rdf:RDF>
  </metadata>
  <g
     inkscape:label="Capa 1"
     inkscape:groupmode="layer"
     id="layer1"
     transform="translate(0,-255)"
     style="display:inline">
    <g
       id="g4074"
       transform="translate(6.5012233,5.8323364)">
      <path
         id="path1261"
         style="fill:#000000;stroke:none;stroke-width:0.999999px;stroke-linecap:butt;stroke-linejoin:miter;stroke-opacity:1"
         d="m 81.044922,52.201172 -6.966797,2.353516 0.25,0.875 -7.736328,2.214843 -1.335938,2.902344 -2.015625,-0.326172 -0.04883,3.603516 h 19.675782 c 0.881389,-4.891565 5.150487,-8.59375 10.298828,-8.59375 h 14.998046 c 0.14302,-0.765532 0.28446,-1.356031 0.41406,-1.515625 0.45334,-0.199181 2.62125,-0.300026 4.79688,-0.300782 2.17564,-5.63e-4 4.35772,0.09933 4.83984,0.300782 0.0823,0.116031 0.14802,0.539745 0.19727,1.136718 1.08759,-0.01134 2.45864,0.110688 3.3125,0.0332 0,0 0.0744,0.143228 0.17187,0.345703 h 0.4004 l -0.0254,-0.105469 -0.21875,-2.923828 z m 12.121094,4.269531 c -5.123018,0 -9.226563,4.105517 -9.226563,9.228516 v 6.451172 c 0,5.123036 4.103545,9.228515 9.226563,9.228515 h 24.865234 v -0.923828 h -5.3457 c -1.18121,0 -2.21334,-0.67339 -2.8125,-1.691406 -0.1906,0.01134 -0.45004,-0.506296 -0.61328,-1.546875 L 95.095703,78.507812 V 61.105469 l 4.068359,0.371093 1.771488,-4.09375 c 0,0 4.635,-0.535491 6.99414,-0.777343 0.007,-0.04709 0.0142,-0.08814 0.0215,-0.134766 z m 29.210934,0 c 0.0458,0.195727 0.06,0.365567 0.0176,0.472656 0,0 -0.40784,1.528466 -0.71289,1.794922 -0.33131,0.288756 -1.11986,0.09216 -1.33008,0.335938 -0.22718,0.168945 -0.58991,1.394043 -0.82617,1.876953 -0.12635,0.25852 -1.23741,0.22421 -1.71484,0.11914 -0.0253,0.258897 -0.0142,1.308501 -0.0488,1.46875 l 1.2539,0.01758 c 0.61061,-0.703446 1.46678,-1.140625 2.41993,-1.140625 h 2.3164 l -1.16406,-4.945313 z M 59.947266,64.431641 50.580078,78.5 73.582031,72.941406 60.570312,64.820312 h -0.08398 v -0.05273 z m 2.513672,0.388671 13.601562,8.496094 -26.417969,6.439453 -0.01367,-0.04883 -10.861328,2.578125 -2.318359,3.914063 h 89.898436 l -4.95703,-1.041016 c -1.44668,-0.303551 -2.70362,-1.169947 -3.16797,-2.541015 H 93.166016 c -5.788358,0 -10.466797,-4.678413 -10.466797,-10.466797 v -6.451172 c 0,-0.295919 0.01313,-0.589256 0.03711,-0.878907 z"
         transform="matrix(0.26458333,0,0,0.26458333,0,255)" />
      <path
         id="rect1592"
         style="fill:#000000;stroke-width:2.68561;stroke-linecap:round;stroke-linejoin:round"
         d="m 126.59582,58.083984 c -0.5911,0 -1.06641,0.475307 -1.06641,1.066407 V 59.375 c 0,0.5911 0.47531,1.066406 1.06641,1.066406 h 11.5526 c -0.0914,-0.749875 -0.18559,-1.548322 -0.2793,-2.357422 z"
         transform="matrix(0.26458333,0,0,0.26458333,0,255)"
         sodipodi:nodetypes="ssssccs" />
      <path
         id="rect1592-7"
         style="fill:#000000;stroke-width:2.68561;stroke-linecap:round;stroke-linejoin:round"
         d="m 125.14844,54.943359 c -0.5911,0 -1.06641,0.475307 -1.06641,1.066407 v 0.224609 c 0,0.5911 0.47531,1.066406 1.06641,1.066406 h 12.54563 c -0.0954,-0.8333 -0.18315,-1.616339 -0.26563,-2.357422 z"
         transform="matrix(0.26458333,0,0,0.26458333,0,255)"
         sodipodi:nodetypes="ssssccs" />
      <path
         style="fill:#000000;stroke:none;stroke-width:0.264583px;stroke-linecap:butt;stroke-linejoin:miter;stroke-opacity:1"
         d="m 31.08669,269.63878 c 0.03664,0.40961 0.05303,0.79649 0.01001,1.24016 0.0219,0.0558 0.370352,0.15294 0.420787,0.0498 0.05043,-0.10308 0.127832,-0.36462 0.17633,-0.40066 0.04488,-0.0521 0.212915,-0.01 0.283637,-0.0717 0.06512,-0.0569 0.152279,-0.38292 0.152279,-0.38292 0.03893,-0.0983 -0.142944,-0.43937 -0.142944,-0.43937 -0.238342,0.0219 -0.667763,-0.031 -0.900096,0.005 z"
         id="path4303"
         sodipodi:nodetypes="ccscsccc" />
      <path
         id="rect2227"
         style="fill:#000000;stroke-width:2.68561;stroke-linecap:round;stroke-linejoin:round"
         d="m 152.52148,55.601562 0.23047,1.822266 c 0.78963,1.194497 1.25,2.62517 1.25,4.164063 v 26.375 c 0,2.096315 -0.8374,4.108729 -2.21484,5.558593 -0.5012,0.527565 -1.08412,0.981073 -1.72461,1.330078 l 1.23047,0.185547 c 3.60897,0.543886 6.58789,-2.938167 6.58789,-6.58789 V 62.072266 c 0,-3.229653 -2.30078,-5.892684 -5.35938,-6.470704 z m -20.77734,5.183594 c -0.0717,0.40081 -0.10679,0.815048 -0.0996,1.238282 h -9.49219 c -0.91101,0 -1.72888,0.37726 -2.3125,0.982421 h -6.00976 c -1.77994,0 -3.21289,1.432954 -3.21289,3.212891 v 3.597656 c 0.83378,-2.492942 3.16044,-4.179847 5.78906,-4.197265 3.39597,-6.76e-4 6.14911,2.752468 6.14844,6.148437 -4e-4,3.395206 -2.75323,6.14716 -6.14844,6.146484 -2.62862,-0.01742 -4.95528,-1.704323 -5.78906,-4.197265 v 2.195312 c 0,1.779937 1.43295,3.212891 3.21289,3.212891 h 5.10937 v 0.833984 c 0,1.779969 1.4639,2.88256 3.21289,3.212891 l 9.91016,1.873047 0.0273,1.503906 c 0.0424,2.331034 1.24788,4.148882 3.05274,5.300781 l 11.42383,1.716797 c 1.4542,0.219175 2.75915,-0.350336 3.77343,-1.417968 1.01429,-1.067641 1.65152,-2.632249 1.66797,-4.185547 l 0.24053,-22.71695 c -0.58718,0.09398 -13.02812,-0.02968 -13.52589,-0.225595 -0.44939,-0.390345 -0.70487,-4.23519 -0.70487,-4.23519 z m 9.24024,4.720703 c 3.3952,4.07e-4 6.14715,2.753235 6.14648,6.148438 -4e-4,3.39444 -2.75204,6.146078 -6.14648,6.146484 -3.24661,-0.01786 -5.91957,-2.557385 -6.10352,-5.798828 -0.0986,3.320272 -2.81694,5.961688 -6.13867,5.964844 -3.39521,6.76e-4 -6.14804,-2.751279 -6.14844,-6.146485 4e-4,-3.395206 2.75323,-6.14716 6.14844,-6.146484 3.22324,0.0013 5.89809,2.492068 6.1289,5.707031 0.14514,-3.275171 2.83494,-5.860121 6.11329,-5.875 z"
         transform="matrix(0.26458333,0,0,0.26458333,0,255)"
         sodipodi:nodetypes="ccsssccsscccscsscccccsscsccsccssccccccccccccc" />
      <circle
         style="display:inline;fill:#000000;stroke-width:0.648287;stroke-linecap:round;stroke-linejoin:round"
         id="path997-2"
         cx="30.799242"
         cy="273.98837"
         r="1.3498615" />
      <path
         id="rect1163"
         style="display:inline;stroke-width:0.710568;stroke-linecap:round;stroke-linejoin:round"
         d="m 25.352184,271.46466 3.796833,0.34593 c -0.261923,0.89033 -0.287345,2.58286 -0.125142,3.35171 l -3.671691,0.29189 z"
         sodipodi:nodetypes="ccccc" />
      <rect
         style="fill:#000000;stroke-width:0.49989;stroke-linecap:round;stroke-linejoin:round"
         id="rect1592-5"
         width="3.2283478"
         height="0.62397271"
         x="32.812843"
         y="13.693117"
         ry="0.28230178"
         transform="translate(0,255)" />
      <circle
         style="display:inline;fill:#000000;stroke-width:0.650025;stroke-linecap:round;stroke-linejoin:round"
         id="path997-2-9"
         cx="34.062943"
         cy="274.00244"
         r="1.3534784" />
      <circle
         style="display:inline;fill:#000000;stroke-width:0.660614;stroke-linecap:round;stroke-linejoin:round"
         id="path997-2-9-1"
         cx="37.301888"
         cy="273.95844"
         r="1.3755285" />
      <path
         id="path3136"
         style="fill:#000000;stroke-width:0.528;stroke-linecap:round;stroke-linejoin:round"
         d="m 28.818489,269.41647 c 0.19873,-0.0873 1.901117,-0.0883 2.112468,0 0.08425,0.11861 0.10263,1.96568 0.01078,2.08243 -1.576042,-0.11668 -1.067192,0.21257 -2.453412,0.0541 0,0 0.196768,-1.97226 0.330164,-2.1365 z"
         sodipodi:nodetypes="cccccc" />
      <path
         style="fill:#000000;stroke:none;stroke-width:0.264583px;stroke-linecap:butt;stroke-linejoin:miter;stroke-opacity:1"
         d="m 28.315962,271.37829 c 0,0 0.32698,-1.27403 0.207039,-1.27403 -0.119943,0 -1.738693,0.18708 -1.738693,0.18708 l -0.412667,0.95307 z"
         id="path5290" />
      <path
         id="rect1446"
         style="stroke-width:2.68561;stroke-linecap:round;stroke-linejoin:round"
         d="m 143.71484,51.277344 c -2.76009,0.0073 -5.3593,0.140151 -5.94336,0.423828 0,0 0.0815,0.759399 0.20508,1.884766 h 13.64453 c -0.24679,-1.030399 -0.47574,-1.741055 -0.60937,-1.884766 -0.83558,-0.279048 -4.16877,-0.432107 -7.29688,-0.423828 z m -5.6289,3.304687 c 0.0449,0.404617 0.0922,0.843093 0.14258,1.291016 h 13.86328 c -0.081,-0.451856 -0.16338,-0.886731 -0.24805,-1.291016 z m 0.25781,2.28711 c 0.0486,0.426859 0.0983,0.860393 0.14844,1.292968 h 13.95508 c -0.0563,-0.436569 -0.11879,-0.869864 -0.18555,-1.292968 z m 0.26563,2.289062 c 0.0525,0.444801 0.10329,0.874154 0.15429,1.292969 h 13.91016 c -0.0281,-0.425622 -0.066,-0.858078 -0.11133,-1.292969 z m 0.27734,2.289063 c 0.19366,1.533194 0.35791,2.667115 0.42969,2.777343 0.40858,0.119471 12.49573,0.07914 13.24023,0 0.15055,-0.770545 0.19356,-1.732394 0.16406,-2.777343 z"
         transform="matrix(0.26458333,0,0,0.26458333,0,255)" />
      <path
         id="path4899"
         style="fill:#000000;stroke:none;stroke-width:1.03667px;stroke-linecap:butt;stroke-linejoin:miter;stroke-opacity:1"
         d="m 97.244141,87.125 c -29.884104,-0.0017 -68.808594,0.369141 -68.808594,0.369141 -0.847138,0.134362 -1.097901,1.842406 -0.101563,2.794921 0,0 7.621606,2.630745 12.329705,2.97884 -0.158052,0.914305 1.013672,1.769531 1.013672,1.769531 l 14.741734,1.114642 c 0,0 2.05889,6.537635 5.334358,7.628585 3.388902,1.31973 62.736687,1.41587 69.227017,-0.72988 4.36077,-4.063519 1.92636,-13.928092 -0.0703,-15.361327 C 129.84906,87.259806 115.1746,87.126047 97.244141,87.125 Z m -31.748047,0.783203 h 61.736326 c 2.17889,0 3.93164,1.754707 3.93164,3.933594 0,1.73782 -1.11501,3.205402 -2.67187,3.728515 1.55288,0.525385 2.67187,1.974256 2.67187,3.708985 0,2.178883 -1.75275,3.933593 -3.93164,3.933593 H 65.496094 c -2.178887,0 -3.933594,-1.75471 -3.933594,-3.933593 0,-1.735385 1.12003,-3.184113 2.673828,-3.708985 -1.557367,-0.523113 -2.673828,-1.990695 -2.673828,-3.728515 0,-2.178887 1.754707,-3.933594 3.933594,-3.933594 z"
         transform="matrix(0.26458333,0,0,0.26458333,0,255)"
         sodipodi:nodetypes="sccccccccsssscsssscss" />
      <rect
         style="fill:#000000;stroke:none;stroke-width:0.549299;stroke-linecap:round;stroke-linejoin:round"
         id="rect882"
         width="17.768341"
         height="1.5627494"
         x="16.611984"
         y="278.51837"
         ry="0.78137469" />
      <rect
         style="display:inline;fill:#000000;stroke:none;stroke-width:0.549299;stroke-linecap:round;stroke-linejoin:round"
         id="rect882-6"
         width="17.768341"
         height="1.5627494"
         x="16.611984"
         y="280.48639"
         ry="0.78137469" />
      <path
         id="path1261-2"
         style="display:inline;fill:#000000;stroke:none;stroke-width:0.999999px;stroke-linecap:butt;stroke-linejoin:miter;stroke-opacity:1"
         d="m 64.912109,56.757812 c -3.508208,-0.0072 -17.755416,1.415363 -22.724609,3.515626 0,0 -20.198672,18.726432 -21.34375,21.107421 -1.531453,1.437241 -1.263103,4.113858 -0.380859,4.298829 l 14.867187,-0.09375 2.833984,-4.785157 5.955079,-1.417969 H 28.689453 L 42.667969,65.095703 h 15.263672 l 0.283203,-0.423828 h -0.8125 c -1.006258,0 -1.816406,-0.81206 -1.816406,-1.818359 v -3.681641 c -10e-7,-1.006299 0.810148,-1.816406 1.816406,-1.816406 l 7.978515,0.002 0.251953,-0.548828 c -0.110937,-0.03214 -0.357785,-0.05003 -0.720703,-0.05078 z"
         transform="matrix(0.26458333,0,0,0.26458333,0,255)" />
      <path
         id="rect6929-2"
         style="display:inline;fill:#000000;stroke:none;stroke-width:0.398915;stroke-linecap:round;stroke-linejoin:round;stroke-miterlimit:4;stroke-dasharray:none"
         d="m 15.321501,268.75678 c -0.20487,0 -0.370003,0.16462 -0.370003,0.36949 v 0.74982 c 0,0.20487 0.165133,0.36949 0.370003,0.36949 h 2.032951 l 2.0252,-0.57981 -0.06615,-0.23151 1.752348,-0.59169 c -0.06412,-0.0535 -0.146774,-0.0858 -0.237195,-0.0858 z" />
      <path
         id="rect6929"
         style="fill:#000000;stroke:none;stroke-width:0.287311;stroke-linecap:round;stroke-linejoin:round;stroke-miterlimit:4;stroke-dasharray:none"
         d="m 15.454559,270.39854 c -0.20487,0 -0.370003,0.16462 -0.370003,0.36949 v 0.74982 c 0,0.20488 0.165133,0.37001 0.370003,0.37001 h 2.500622 c 0.0085,0 0.01699,-4.8e-4 0.02532,-10e-4 h -1.419035 l 0.01292,-1.13389 0.600285,0.0971 0.218787,-0.45147 z"
         sodipodi:nodetypes="csssscccccc" />
      <path
         id="rect11075-2-6"
         style="display:inline;fill:#000000;stroke:none;stroke-width:0.359733;stroke-linecap:round;stop-color:#000000"
         d="m 17.639945,265.78529 c -0.193675,0 -0.36665,0.0855 -0.483691,0.22066 -0.227544,0.0394 -0.404659,0.22159 -0.436666,0.45165 h -2.716629 c -0.191356,0 -0.364776,0.0749 -0.492478,0.19689 h -2.978629 c -0.285516,0 -0.515214,0.22969 -0.515214,0.51521 0,0.28552 0.229698,0.51521 0.515214,0.51521 h 2.978629 c 0.127701,0.12198 0.301122,0.19689 0.492478,0.19689 h 2.716629 c 0.03046,0.21895 0.192373,0.39452 0.404109,0.44493 0.0781,0.10657 0.189211,0.18662 0.31781,0.22841 1.160125,-0.0753 4.095275,-10e-4 4.596149,-0.0534 0.143286,-0.12069 0.240996,-0.26195 0.2542,-0.85298 v -1.22421 c 0,-0.35415 -0.285085,-0.63924 -0.639235,-0.63924 z"
         sodipodi:nodetypes="sccscssscscccccsss" />
      <path
         id="path1542"
         style="fill:#000000;stroke:none;stroke-width:0.999999px;stroke-linecap:butt;stroke-linejoin:miter;stroke-opacity:1"
         d="m 116,26.763672 c -0.10815,1.73e-4 -0.19788,0.0092 -0.26953,0.02539 l -8.60742,14.566407 -16.429691,-6.228516 c -1.347987,-0.224428 -3.161246,2.797188 -2.46875,3.121094 0,0 31.675661,12.369253 34.003911,12.628906 4.30786,0.476296 13.13897,-1.192609 14.22656,-1.554687 1.13358,-1.917733 -2.88724,-16.320884 -3.91016,-17.007813 C 131.89528,31.436589 118.66052,26.759425 116,26.763672 Z m 6.99023,11.541016 c 2.35385,0 4.27344,1.919623 4.27344,4.273437 0,2.353852 -1.91959,4.267578 -4.27344,4.267578 -2.35385,0 -4.26757,-1.913726 -4.26757,-4.267578 0,-2.353814 1.91372,-4.273437 4.26757,-4.273437 z m 0,0.863281 c -1.88813,0 -3.41015,1.522055 -3.41015,3.410156 0,1.888139 1.52202,3.410156 3.41015,3.410156 1.88814,0 3.41016,-1.522017 3.41016,-3.410156 0,-1.888101 -1.52202,-3.410156 -3.41016,-3.410156 z"
         transform="matrix(0.26458333,0,0,0.26458333,0,255)" />
      <path
         style="color:#000000;fill:#000000;stroke-width:0.221491;stroke-linecap:round;stroke-linejoin:round;-inkscape-stroke:none"
         d="m 33.522138,266.25588 a 0.98709872,0.98709872 0 0 1 -0.987099,0.98709 0.98709872,0.98709872 0 0 1 -0.987099,-0.98709 0.98709872,0.98709872 0 0 1 0.987099,-0.98711 0.98709872,0.98709872 0 0 1 0.987099,0.98711 z"
         id="path2587" />
      <path
         id="rect2663"
         style="fill:#000000;stroke:none;stroke-width:0.70357;stroke-linecap:round;stroke-linejoin:round;stroke-miterlimit:4;stroke-dasharray:none"
         d="m 90.791016,40.046875 -1.169922,3.144531 8.503906,3.166016 c -1.561968,0.407785 -2.98352,0.675127 -4.978516,1.517578 -1.359692,0.975798 -1.3028,2.699198 -0.08984,3.390625 6.438388,0.131467 12.876056,0.263022 19.314446,0.394531 l 3.47461,0.07031 c 1.36204,0.02782 2.72391,0.05616 4.08594,0.08398 -1.07656,-0.702501 -2.12952,-1.460837 -3.2207,-2.128906 l -0.0977,-0.02148 0.002,-0.0039 z"
         transform="matrix(0.26458333,0,0,0.26458333,0,255)"
         sodipodi:nodetypes="cccccccccccc" />
      <path
         id="rect973"
         style="stroke-width:0.228;stroke-linecap:round;stroke-linejoin:round"
         d="m 22.105167,257.62651 c -0.06351,0.0461 -0.186528,0.2665 -0.340452,0.58809 -0.330805,-0.10863 -0.691156,0.0566 -0.821807,0.38468 l -0.190629,0.47866 c -0.124386,0.31232 0.0037,0.66079 0.287964,0.82166 -0.03521,0.0879 -0.06963,0.17515 -0.104288,0.26329 -0.317196,-0.0789 -0.649839,0.0855 -0.774287,0.39805 l -0.190627,0.47865 c -0.131037,0.32902 0.01837,0.6978 0.33521,0.84549 -0.110466,0.34234 -0.173842,0.58754 -0.160127,0.66045 l 8.068407,3.21334 c 0.144938,-0.13923 2.789607,-4.63347 2.726975,-4.72755 -0.487559,-0.37168 -8.236794,-3.31034 -8.836328,-3.4048 z m 1.211123,0.96183 5.300204,2.11086 c 0.399991,0.15931 0.596778,0.6175 0.437475,1.01749 l -1.008017,2.53105 c -0.159303,0.39998 -0.617207,0.59744 -1.017199,0.43814 l -5.300202,-2.11087 c -0.399992,-0.1593 -0.595339,-0.61692 -0.436036,-1.01691 l 1.008016,-2.53105 c 0.159303,-0.39998 0.615768,-0.59801 1.015759,-0.43871 z m -0.121413,0.30486 c -0.236449,-0.0942 -0.49532,0.0188 -0.589488,0.25527 l -1.008017,2.53103 c -0.09417,0.23645 0.01613,0.49649 0.252592,0.59066 l 5.300203,2.11086 c 0.236447,0.0942 0.496761,-0.0182 0.590929,-0.2547 l 1.008016,-2.53103 c 0.09417,-0.23645 -0.01758,-0.49706 -0.254031,-0.59123 z m 0.159403,0.71149 c 0.02797,0.0122 0.05328,0.0299 0.07445,0.0519 l 3.658135,3.7842 c 0.0902,0.0923 0.08788,0.24053 -0.0052,0.33002 -0.0928,0.0891 -0.24038,0.086 -0.329253,-0.007 l -3.658135,-3.7842 c -0.0902,-0.0923 -0.08788,-0.24052 0.0052,-0.33001 0.04468,-0.0428 0.104566,-0.066 0.166395,-0.0645 0.03047,5.9e-4 0.06051,0.007 0.08841,0.0196 z"
         sodipodi:nodetypes="scssccsscccccsssssssssscssssssscccccccccsc" />
      <rect
         style="fill:#000000;stroke:none;stroke-width:0.328001;stroke-linecap:round;stroke-linejoin:round;stroke-miterlimit:4;stroke-dasharray:none"
         id="rect3829"
         width="2.302093"
         height="0.63726211"
         x="131.18677"
         y="227.87193"
         ry="0.12509784"
         transform="rotate(23.158709)" />
      <rect
         style="fill:#000000;stroke:none;stroke-width:0.328001;stroke-linecap:round;stroke-linejoin:round;stroke-miterlimit:4;stroke-dasharray:none"
         id="rect3933"
         width="3.6294386"
         height="0.56000561"
         x="133.85014"
         y="224.48978"
         ry="0.12509792"
         transform="rotate(24.284982)" />
    </g>
  </g>
</svg>
