<?xml version="1.0" encoding="UTF-8" standalone="no"?>
<!-- Created with Inkscape (http://www.inkscape.org/) -->

<svg
   xmlns:dc="http://purl.org/dc/elements/1.1/"
   xmlns:cc="http://creativecommons.org/ns#"
   xmlns:rdf="http://www.w3.org/1999/02/22-rdf-syntax-ns#"
   xmlns:svg="http://www.w3.org/2000/svg"
   xmlns="http://www.w3.org/2000/svg"
   xmlns:sodipodi="http://sodipodi.sourceforge.net/DTD/sodipodi-0.dtd"
   xmlns:inkscape="http://www.inkscape.org/namespaces/inkscape"
   width="60mm"
   height="42mm"
   viewBox="0 0 60 42"
   version="1.1"
   id="svg8"
   inkscape:version="0.92.5 (2060ec1f9f, 2020-04-08)"
   sodipodi:docname="Skanda.svg">
  <defs
     id="defs2" />
  <sodipodi:namedview
     id="base"
     pagecolor="#ffffff"
     bordercolor="#666666"
     borderopacity="1.0"
     inkscape:pageopacity="0.0"
     inkscape:pageshadow="2"
     inkscape:zoom="7.9999999"
     inkscape:cx="91.7163"
     inkscape:cy="62.242357"
     inkscape:document-units="mm"
     inkscape:current-layer="layer1"
     showgrid="false"
     inkscape:window-width="1848"
     inkscape:window-height="1016"
     inkscape:window-x="72"
     inkscape:window-y="1107"
     inkscape:window-maximized="1"
     inkscape:snap-global="false"
     showguides="false" />
  <metadata
     id="metadata5">
    <rdf:RDF>
      <cc:Work
         rdf:about="">
        <dc:format>image/svg+xml</dc:format>
        <dc:type
           rdf:resource="http://purl.org/dc/dcmitype/StillImage" />
        <dc:title />
      </cc:Work>
    </rdf:RDF>
  </metadata>
  <g
     inkscape:label="Capa 1"
     inkscape:groupmode="layer"
     id="layer1"
     transform="translate(0,-255)">
    <path
       style="opacity:1;vector-effect:none;fill:#000000;fill-opacity:1;fill-rule:nonzero;stroke:none;stroke-width:0.15799999;stroke-linecap:round;stroke-linejoin:miter;stroke-miterlimit:4;stroke-dasharray:none;stroke-dashoffset:0;stroke-opacity:1"
       d="m 45.469106,275.62078 c -0.527349,0.63277 -1.248829,0.92512 -2.087775,0.92619 -0.529222,-10e-4 -0.824074,0.005 -1.494483,-0.10439 v 0.4284 l 4.590934,-0.19585 c -0.03564,-0.24236 -0.20925,-0.57835 -0.397067,-0.93498 -0.581523,0.45967 -0.542425,0.18279 -0.611609,-0.11937 z m -19.867568,-0.22723 -1.108976,-0.0114 1.248502,1.88309 0.06873,0.0848 11.9941,-0.31367 0.202572,5.1e-4 1.13533,-0.0625 v -0.1819 h -9.481074 c 0,0 -0.01759,0.18196 -0.04393,0.21704 -0.102314,0.0439 -2.975387,0.0613 -3.092317,0.0145 -0.03216,-0.009 -0.04393,-0.20825 -0.04393,-0.20825 -0.09062,-0.006 -0.801268,0.0235 -0.86558,-0.0233 -0.01431,-0.21816 -0.002,-1.18099 -0.01343,-1.39894 z m 21.504629,2.24276 -10e-4,0.0114 h 10e-4 z"
       id="rect1398-5-7"
       inkscape:connector-curvature="0"
       sodipodi:nodetypes="ccccccccccccccccccccccccc" />
    <path
       style="opacity:1;vector-effect:none;fill:#000000;fill-opacity:1;fill-rule:nonzero;stroke:none;stroke-width:0.62362206;stroke-linecap:round;stroke-linejoin:miter;stroke-miterlimit:4;stroke-dasharray:none;stroke-dashoffset:0;stroke-opacity:1"
       d="M 41.25 114.74023 A 8.2499997 8.2499997 0 0 0 33 122.99023 A 8.2499997 8.2499997 0 0 0 41.25 131.24023 A 8.2499997 8.2499997 0 0 0 49.5 122.99023 A 8.2499997 8.2499997 0 0 0 41.25 114.74023 z M 41.25 119.86914 A 3.1210969 3.1210969 0 0 1 44.371094 122.99023 A 3.1210969 3.1210969 0 0 1 41.25 126.11133 A 3.1210969 3.1210969 0 0 1 38.128906 122.99023 A 3.1210969 3.1210969 0 0 1 41.25 119.86914 z M 41.25 120.80078 A 2.1902782 2.1902782 0 0 0 39.060547 122.99023 A 2.1902782 2.1902782 0 0 0 41.25 125.17969 A 2.1902782 2.1902782 0 0 0 43.439453 122.99023 A 2.1902782 2.1902782 0 0 0 41.25 120.80078 z "
       transform="matrix(0.26458333,0,0,0.26458333,0,255)"
       id="path840" />
    <path
       style="opacity:1;vector-effect:none;fill:#000000;fill-opacity:1;fill-rule:nonzero;stroke:none;stroke-width:0.62362206;stroke-linecap:round;stroke-linejoin:miter;stroke-miterlimit:4;stroke-dasharray:none;stroke-dashoffset:0;stroke-opacity:1"
       d="M 66.5 114.74023 A 8.2499997 8.2499997 0 0 0 58.25 122.99023 A 8.2499997 8.2499997 0 0 0 66.5 131.24023 A 8.2499997 8.2499997 0 0 0 74.75 122.99023 A 8.2499997 8.2499997 0 0 0 66.5 114.74023 z M 66.5 119.86914 A 3.1210969 3.1210969 0 0 1 69.621094 122.99023 A 3.1210969 3.1210969 0 0 1 66.5 126.11133 A 3.1210969 3.1210969 0 0 1 63.378906 122.99023 A 3.1210969 3.1210969 0 0 1 66.5 119.86914 z M 66.5 120.80078 A 2.1902782 2.1902782 0 0 0 64.310547 122.99023 A 2.1902782 2.1902782 0 0 0 66.5 125.17969 A 2.1902782 2.1902782 0 0 0 68.689453 122.99023 A 2.1902782 2.1902782 0 0 0 66.5 120.80078 z "
       transform="matrix(0.26458333,0,0,0.26458333,0,255)"
       id="path840-3" />
    <path
       style="opacity:1;vector-effect:none;fill:#000000;fill-opacity:1;fill-rule:nonzero;stroke:none;stroke-width:0.62362206;stroke-linecap:round;stroke-linejoin:miter;stroke-miterlimit:4;stroke-dasharray:none;stroke-dashoffset:0;stroke-opacity:1"
       d="M 90.5 115.24023 A 8.2499997 8.2499997 0 0 0 82.25 123.49023 A 8.2499997 8.2499997 0 0 0 90.5 131.74023 A 8.2499997 8.2499997 0 0 0 98.75 123.49023 A 8.2499997 8.2499997 0 0 0 90.5 115.24023 z M 90.5 120.36914 A 3.1210969 3.1210969 0 0 1 93.621094 123.49023 A 3.1210969 3.1210969 0 0 1 90.5 126.61133 A 3.1210969 3.1210969 0 0 1 87.378906 123.49023 A 3.1210969 3.1210969 0 0 1 90.5 120.36914 z M 90.5 121.30078 A 2.1902782 2.1902782 0 0 0 88.310547 123.49023 A 2.1902782 2.1902782 0 0 0 90.5 125.67969 A 2.1902782 2.1902782 0 0 0 92.689453 123.49023 A 2.1902782 2.1902782 0 0 0 90.5 121.30078 z "
       transform="matrix(0.26458333,0,0,0.26458333,0,255)"
       id="path840-6" />
    <path
       style="opacity:1;vector-effect:none;fill:#000000;fill-opacity:1;fill-rule:nonzero;stroke:none;stroke-width:0.96377963;stroke-linecap:round;stroke-linejoin:miter;stroke-miterlimit:4;stroke-dasharray:none;stroke-dashoffset:0;stroke-opacity:1"
       d="M 114.16992 108.82617 A 12.75 12.75 0 0 0 108.75 119.24023 A 12.75 12.75 0 0 0 121.5 131.99023 A 12.75 12.75 0 0 0 134.25 119.24023 A 12.75 12.75 0 0 0 129.25 109.13672 C 123.43184 109.08866 117.98281 108.98604 114.16992 108.82617 z M 121.5 116.11914 A 3.1210969 3.1210969 0 0 1 124.62109 119.24023 A 3.1210969 3.1210969 0 0 1 121.5 122.36133 A 3.1210969 3.1210969 0 0 1 118.37891 119.24023 A 3.1210969 3.1210969 0 0 1 121.5 116.11914 z M 121.5 117.05078 A 2.1902782 2.1902782 0 0 0 119.31055 119.24023 A 2.1902782 2.1902782 0 0 0 121.5 121.42969 A 2.1902782 2.1902782 0 0 0 123.68945 119.24023 A 2.1902782 2.1902782 0 0 0 121.5 117.05078 z "
       transform="matrix(0.26458333,0,0,0.26458333,0,255)"
       id="path840-7" />
    <path
       style="opacity:1;vector-effect:none;fill:#000000;fill-opacity:1;fill-rule:nonzero;stroke:none;stroke-width:0.96377963;stroke-linecap:round;stroke-linejoin:miter;stroke-miterlimit:4;stroke-dasharray:none;stroke-dashoffset:0;stroke-opacity:1"
       d="M 158.55664 108.62891 C 154.90693 108.88816 149.60731 109.03979 143.76758 109.11328 A 12.75 12.75 0 0 0 138.75 119.24023 A 12.75 12.75 0 0 0 151.5 131.99023 A 12.75 12.75 0 0 0 164.25 119.24023 A 12.75 12.75 0 0 0 158.55664 108.62891 z M 151.5 116.11914 A 3.1210969 3.1210969 0 0 1 154.62109 119.24023 A 3.1210969 3.1210969 0 0 1 151.5 122.36133 A 3.1210969 3.1210969 0 0 1 148.37891 119.24023 A 3.1210969 3.1210969 0 0 1 151.5 116.11914 z M 151.5 117.05078 A 2.1902782 2.1902782 0 0 0 149.31055 119.24023 A 2.1902782 2.1902782 0 0 0 151.5 121.42969 A 2.1902782 2.1902782 0 0 0 153.68945 119.24023 A 2.1902782 2.1902782 0 0 0 151.5 117.05078 z "
       transform="matrix(0.26458333,0,0,0.26458333,0,255)"
       id="path840-7-3" />
    <path
       style="opacity:1;vector-effect:none;fill:#000000;fill-opacity:1;fill-rule:nonzero;stroke:none;stroke-width:0.49133861;stroke-linecap:round;stroke-linejoin:miter;stroke-miterlimit:4;stroke-dasharray:none;stroke-dashoffset:0;stroke-opacity:1"
       d="M 172.07227 96.912109 C 171.37635 97.799454 170.64528 98.706395 169.92773 99.601562 A 3.1210969 3.1210969 0 0 1 171.87109 102.49023 A 3.1210969 3.1210969 0 0 1 168.75 105.61133 A 3.1210969 3.1210969 0 0 1 166.20898 104.29492 C 165.51678 105.18708 164.81977 106.10145 164.12109 107.04883 A 6.4999997 6.4999997 0 0 0 168.75 108.99023 A 6.4999997 6.4999997 0 0 0 175.25 102.49023 A 6.4999997 6.4999997 0 0 0 172.07227 96.912109 z M 169.31641 100.37695 C 168.49189 101.39902 167.65952 102.44648 166.81641 103.51562 A 2.1902782 2.1902782 0 0 0 168.75 104.67969 A 2.1902782 2.1902782 0 0 0 170.93945 102.49023 A 2.1902782 2.1902782 0 0 0 169.31641 100.37695 z "
       transform="matrix(0.26458333,0,0,0.26458333,0,255)"
       id="path840-6-5" />
    <path
       style="color:#000000;font-style:normal;font-variant:normal;font-weight:normal;font-stretch:normal;font-size:medium;line-height:normal;font-family:sans-serif;font-variant-ligatures:normal;font-variant-position:normal;font-variant-caps:normal;font-variant-numeric:normal;font-variant-alternates:normal;font-feature-settings:normal;text-indent:0;text-align:start;text-decoration:none;text-decoration-line:none;text-decoration-style:solid;text-decoration-color:#000000;letter-spacing:normal;word-spacing:normal;text-transform:none;writing-mode:lr-tb;direction:ltr;text-orientation:mixed;dominant-baseline:auto;baseline-shift:baseline;text-anchor:start;white-space:normal;shape-padding:0;clip-rule:nonzero;display:inline;overflow:visible;visibility:visible;opacity:1;isolation:auto;mix-blend-mode:normal;color-interpolation:sRGB;color-interpolation-filters:linearRGB;solid-color:#000000;solid-opacity:1;vector-effect:none;fill:#000000;fill-opacity:1;fill-rule:nonzero;stroke:none;stroke-width:1.75748038;stroke-linecap:butt;stroke-linejoin:miter;stroke-miterlimit:4;stroke-dasharray:10.54488231, 1.75748039;stroke-dashoffset:0;stroke-opacity:1;color-rendering:auto;image-rendering:auto;shape-rendering:auto;text-rendering:auto;enable-background:accumulate"
       d="M 173.86719 94.556641 C 173.5167 95.028068 173.1672 95.505066 172.80859 95.970703 C 173.97521 96.711159 174.95382 97.795234 175.55664 99.042969 L 175.55664 99.050781 L 175.56445 99.050781 C 175.87256 99.678372 176.09825 100.33443 176.2207 101 L 177.94727 100.68164 C 177.79189 99.83703 177.50982 99.03291 177.14258 98.283203 L 177.13672 98.275391 C 176.41252 96.780729 175.26708 95.474186 173.86719 94.556641 z M 105.61719 101.66992 C 102.62728 102.09667 99.638318 102.529 96.650391 102.9707 L 96.902344 104.70508 C 99.992097 104.24834 103.08218 103.80019 106.17383 103.35938 C 105.97495 102.77833 105.80176 102.25113 105.61719 101.66992 z M 176.33789 102.52734 C 176.29492 103.11268 176.25245 103.43207 176.05859 103.63477 L 175.95508 103.73828 L 175.89648 103.86328 C 174.62925 106.5447 173.53846 109.27403 172.35938 111.93164 L 173.96094 112.64844 C 175.14393 109.98199 176.22238 107.29581 177.44141 104.70703 C 178.01386 104.01192 178.04827 103.19184 178.08789 102.65234 L 176.33789 102.52734 z M 94.908203 103.2207 C 91.427315 103.73132 87.953493 104.2593 84.478516 104.79297 L 84.744141 106.53516 C 88.217594 106.00171 91.69337 105.4726 95.167969 104.96289 L 94.908203 103.2207 z M 82.736328 105.06641 L 77.701172 105.84961 L 72.320312 106.71289 L 72.601562 108.44727 L 77.982422 107.58398 L 83.009766 106.80078 L 82.736328 105.06641 z M 70.585938 107 C 67.115254 107.56614 63.645092 108.13673 60.177734 108.75 L 60.480469 110.48438 C 63.935607 109.87326 67.397756 109.29998 70.865234 108.73438 L 70.585938 107 z M 58.443359 109.05273 C 54.973976 109.65568 51.512221 110.29753 48.056641 110.96484 L 48.388672 112.69141 C 51.835423 112.02579 55.287457 111.38787 58.744141 110.78711 L 58.443359 109.05273 z M 46.328125 111.30469 C 42.872711 111.98515 39.422507 112.71001 35.986328 113.51172 L 36.185547 114.36719 L 35.890625 113.54102 L 35.484375 113.68164 C 33.00726 114.59065 31.194491 116.7563 30.509766 119.23242 L 32.207031 119.69727 C 32.747684 117.74219 34.208984 116.0242 36.089844 115.33398 L 36.384766 115.22461 C 36.39463 115.2223 36.404198 115.22058 36.414062 115.2168 C 39.814278 114.42389 43.236093 113.70707 46.667969 113.03125 L 46.328125 111.30469 z M 171.64453 113.52539 C 170.19678 116.69596 168.60648 119.7944 166.63867 122.61328 L 168.08594 123.61719 C 170.14549 120.66693 171.7766 117.47405 173.24609 114.25586 L 171.64453 113.52539 z M 30.140625 121.08398 C 30.004498 122.27234 30.059372 123.46938 30.257812 124.62891 L 30.257812 124.63672 C 30.701325 127.15589 31.842183 129.65703 33.845703 131.42773 L 35.011719 130.11328 C 33.37986 128.67105 32.380324 126.53862 31.992188 124.33398 C 31.818813 123.32096 31.775671 122.2887 31.890625 121.28516 L 30.140625 121.08398 z M 165.62695 123.99414 C 163.54787 126.6956 161.00064 129.06365 158.01758 130.62305 L 158.83594 132.17969 C 162.10029 130.47323 164.82421 127.9279 167.02344 125.07031 L 165.62695 123.99414 z M 36.289062 130.98438 L 35.462891 132.53516 C 36.4913 133.07759 37.643622 133.36117 38.798828 133.36914 L 46.291016 133.45703 L 46.314453 131.69922 L 38.822266 131.61133 C 37.943873 131.60755 37.060344 131.39113 36.289062 130.98438 z M 156.49609 131.33789 C 155.43152 131.79219 154.30645 132.13631 153.16602 132.39453 C 150.9653 132.51774 148.72703 132.49118 146.46484 132.51953 L 146.48633 134.27734 C 148.74178 134.25089 151.03028 134.28343 153.34375 134.15039 L 153.41797 134.14258 L 153.48438 134.12891 C 154.74172 133.84847 155.98655 133.46596 157.18359 132.95508 L 156.49609 131.33789 z M 48.070312 131.71484 L 48.048828 133.47266 L 58.175781 133.58984 L 58.597656 133.59766 L 58.611328 131.83984 L 58.199219 131.83203 L 48.070312 131.71484 z M 60.369141 131.85547 L 60.353516 133.61133 L 70.896484 133.73047 L 70.917969 131.97266 L 60.369141 131.85547 z M 72.673828 131.98828 L 72.652344 133.75195 L 75.863281 133.7832 L 83.201172 133.85742 L 83.216797 132.09961 L 75.878906 132.02539 L 72.673828 131.98828 z M 84.972656 132.11328 L 84.958984 133.87891 L 95.5 133.98047 L 95.513672 132.22461 L 84.972656 132.11328 z M 97.271484 132.23828 L 97.255859 133.99609 L 105.98828 134.07812 L 107.80469 134.0918 L 107.82031 132.32812 L 106.00391 132.3125 L 97.271484 132.23828 z M 109.57617 132.3418 L 109.5625 134.09961 L 115.85156 134.15039 L 120.10352 134.18164 L 120.11719 132.42383 L 115.86523 132.39453 L 109.57617 132.3418 z M 121.875 132.4375 L 121.86719 134.19531 L 125.15234 134.21875 L 132.4082 134.25586 L 132.41602 132.49805 L 125.16797 132.46094 L 121.875 132.4375 z M 134.17383 132.50586 L 134.17383 134.26172 L 140.94336 134.28516 L 144.72266 134.27734 L 144.71484 132.51953 L 140.94141 132.52734 L 134.17383 132.50586 z "
       transform="matrix(0.26458333,0,0,0.26458333,0,255)"
       id="path911" />
    <path
       style="opacity:1;vector-effect:none;fill:#000000;fill-opacity:1;fill-rule:nonzero;stroke:none;stroke-width:0.69082332;stroke-linecap:round;stroke-linejoin:miter;stroke-miterlimit:4;stroke-dasharray:none;stroke-dashoffset:0;stroke-opacity:1"
       d="M 177.85352 83.060547 L 143.23242 83.806641 L 140.51367 94.511719 L 139.10156 94.583984 L 130.24609 102.82227 L 118.19141 102.73438 L 114.06836 95.880859 L 107.26172 96.234375 C 107.26172 96.234375 109.9668 106.08205 111.3418 106.70703 C 113.2168 107.58203 159.38086 107.92568 161.63086 106.30078 C 167.77485 98.024183 173.86112 92.746796 177.85352 83.060547 z M 138.7207 94.605469 L 114.3418 95.867188 L 118.33203 102.49023 L 130.15039 102.57812 L 138.7207 94.605469 z "
       transform="matrix(0.26458333,0,0,0.26458333,0,255)"
       id="rect897" />
    <path
       style="opacity:1;vector-effect:none;fill:#000000;fill-opacity:1;fill-rule:nonzero;stroke:none;stroke-width:0.62362206;stroke-linecap:round;stroke-linejoin:miter;stroke-miterlimit:4;stroke-dasharray:none;stroke-dashoffset:0;stroke-opacity:1"
       d="M 86.722656 74.654297 C 84.801786 74.68621 82.31388 74.827633 79.941406 75.232422 C 79.592318 75.943994 77.599557 80.759411 77.394531 81.304688 C 76.628312 81.456828 64.021659 81.442934 58.707031 81.431641 L 53.947266 82.830078 L 91.386719 82.349609 L 90.097656 74.697266 C 90.097656 74.697266 88.716918 74.621165 86.722656 74.654297 z "
       transform="matrix(0.26458333,0,0,0.26458333,0,255)"
       id="rect921" />
    <path
       style="opacity:1;vector-effect:none;fill:#000000;fill-opacity:1;fill-rule:nonzero;stroke:none;stroke-width:0.64716321;stroke-linecap:round;stroke-linejoin:miter;stroke-miterlimit:4;stroke-dasharray:none;stroke-dashoffset:0;stroke-opacity:1"
       d="M 90.931641 76.878906 L 91.982422 82.660156 L 54.447266 83.078125 L 53.775391 83.089844 C 49.881616 83.793743 44.463153 85.343009 39.775391 87.378906 C 46.862225 87.00512 49.600657 86.860082 59.476562 86.339844 C 68.811024 85.848127 78.167038 85.357163 85.238281 84.988281 C 88.773905 84.804067 91.742067 84.646779 93.845703 84.539062 C 94.897523 84.485394 95.732586 84.442346 96.318359 84.412109 C 96.508911 84.402274 96.629262 84.398096 96.765625 84.392578 L 92.091797 76.890625 C 91.753454 76.879286 91.30832 76.886465 90.931641 76.878906 z M 179.25 83.042969 L 178.51367 83.066406 C 177.89495 86.955502 174.04883 93.628906 174.04883 93.628906 L 179.25 95.488281 C 181.37132 92.659872 180.66421 84.457192 179.25 83.042969 z M 142.46875 83.804688 L 97.300781 84.986328 L 97.300781 84.994141 C 97.31144 84.994141 97.197071 84.994394 97.035156 85.001953 C 96.873241 85.009512 96.640154 85.025898 96.347656 85.041016 C 95.762646 85.06974 94.926612 85.112346 93.875 85.166016 C 91.781325 85.273205 88.828706 85.424119 85.314453 85.607422 L 87.955078 91.115234 L 116.19141 90.871094 L 118.56836 87.992188 L 136.75 87.615234 L 136.75 87.867188 L 118.68555 88.236328 L 116.30859 91.115234 L 87.800781 91.365234 L 85.050781 85.621094 C 78.002072 85.988719 68.766694 86.471555 59.513672 86.958984 C 48.843136 87.521085 45.382404 87.706317 38.222656 88.085938 C 33.752036 90.218822 30.255856 92.796125 30 95.490234 L 107.40625 95.490234 L 107.39648 95.453125 L 139.85742 93.90625 L 142.46875 83.804688 z "
       transform="matrix(0.26458333,0,0,0.26458333,0,255)"
       id="rect892-2-1" />
    <path
       style="opacity:1;vector-effect:none;fill:#000000;fill-opacity:1;fill-rule:nonzero;stroke:none;stroke-width:0.14056456;stroke-linecap:round;stroke-linejoin:miter;stroke-miterlimit:4;stroke-dasharray:none;stroke-dashoffset:0;stroke-opacity:1"
       d="m 20.852133,274.95062 c -0.02074,0.004 -0.04186,0.005 -0.06252,0.009 l -4.772145,1.40169 c 1.179175,0.003 4.080679,0.006 4.254869,-0.0286 0.04667,-0.12412 0.507837,-1.23912 0.579789,-1.38234 z"
       id="rect921-7-0"
       inkscape:connector-curvature="0"
       sodipodi:nodetypes="cccccc" />
    <path
       style="opacity:1;vector-effect:none;fill:#000000;fill-opacity:1;fill-rule:nonzero;stroke:none;stroke-width:0.59716535;stroke-linecap:round;stroke-linejoin:miter;stroke-miterlimit:4;stroke-dasharray:none;stroke-dashoffset:0;stroke-opacity:1"
       d="M 33.056641 96.337891 C 33.056641 96.337891 51.838828 105.17661 65.892578 106.41406 L 82.984375 103.85938 C 76.111577 103.69335 67.639187 101.99078 60.583984 100.23047 C 53.024654 98.344372 47.421501 96.499831 46.931641 96.337891 L 33.056641 96.337891 z M 47.738281 96.337891 C 49.083196 96.774806 53.810697 98.289549 60.642578 99.994141 C 68.257649 101.89414 77.525252 103.7172 84.603516 103.61719 L 106.67188 100.32031 L 105.35938 96.337891 L 47.738281 96.337891 z "
       transform="matrix(0.26458333,0,0,0.26458333,0,255)"
       id="rect985" />
    <path
       inkscape:connector-curvature="0"
       style="opacity:1;vector-effect:none;fill:#000000;fill-opacity:1;fill-rule:nonzero;stroke:none;stroke-width:0.22312854;stroke-linecap:round;stroke-linejoin:miter;stroke-miterlimit:4;stroke-dasharray:none;stroke-dashoffset:0;stroke-opacity:1"
       d="m 45.082468,271.58526 c -0.504962,10e-4 -1.06281,0.041 -1.579232,0.15658 a 2.2117512,2.2117512 0 0 1 1.994713,1.36219 h 0.956013 v -1.44591 c -0.290033,-0.0286 -0.79185,-0.0741 -1.371494,-0.0729 z"
       id="rect1292-3" />
    <path
       inkscape:connector-curvature="0"
       style="fill:#000000;stroke-width:0.0550156"
       d="m 27.259267,272.47203 c -0.161806,0.004 -0.426408,0.009 -0.603065,0.0677 -0.03047,0.21517 -0.0097,4.20697 0.02273,4.25917 0.0217,0.0349 0.211878,0.062 0.422714,0.06 0.210834,-0.002 2.157542,-9.3e-4 2.224154,0.002 0.0666,0.003 0.128458,-0.016 0.137459,-0.0434 0.03327,-0.10093 0.02929,-4.28463 -0.0041,-4.30723 -0.06583,-0.039 -1.914051,-0.0352 -2.199867,-0.0382 z m 0.190685,0.52193 a 0.3624843,0.3624843 0 0 1 0.362255,0.36277 0.3624843,0.3624843 0 0 1 -0.362255,0.36225 0.3624843,0.3624843 0 0 1 -0.362251,-0.36225 0.3624843,0.3624843 0 0 1 0.362251,-0.36277 z m 1.227834,0 a 0.3624843,0.3624843 0 0 1 0.362251,0.36277 0.3624843,0.3624843 0 0 1 -0.362251,0.36225 0.3624843,0.3624843 0 0 1 -0.362768,-0.36225 0.3624843,0.3624843 0 0 1 0.362768,-0.36277 z m -1.227834,1.27486 a 0.3624843,0.3624843 0 0 1 0.362255,0.36225 0.3624843,0.3624843 0 0 1 -0.362255,0.36277 0.3624843,0.3624843 0 0 1 -0.362251,-0.36277 0.3624843,0.3624843 0 0 1 0.362251,-0.36225 z m 1.227834,0 a 0.3624843,0.3624843 0 0 1 0.362251,0.36225 0.3624843,0.3624843 0 0 1 -0.362251,0.36277 0.3624843,0.3624843 0 0 1 -0.362768,-0.36277 0.3624843,0.3624843 0 0 1 0.362768,-0.36225 z m -1.275374,1.27434 a 0.3624843,0.3624843 0 0 1 0.362768,0.36276 0.3624843,0.3624843 0 0 1 -0.362768,0.36226 0.3624843,0.3624843 0 0 1 -0.362252,-0.36226 0.3624843,0.3624843 0 0 1 0.362252,-0.36276 z m 1.227831,0 a 0.3624843,0.3624843 0 0 1 0.36277,0.36276 0.3624843,0.3624843 0 0 1 -0.36277,0.36226 0.3624843,0.3624843 0 0 1 -0.362252,-0.36226 0.3624843,0.3624843 0 0 1 0.362252,-0.36276 z"
       id="path948-3-6" />
    <path
       style="fill:#000000;stroke-width:0.0550156"
       d="m 30.6655,275.35306 c 1.835406,0.002 8.636182,0.025 8.660698,0.0392 0.03684,0.6714 0.02339,0.34929 0.02237,1.07103 l -0.371511,4.5e-4 c -0.204174,2.5e-4 -4.818784,-0.006 -6.414831,-0.0134 -2.484302,-0.0116 -2.915751,-0.0229 -2.915751,-0.0229 -0.02054,-0.10683 -0.02673,-1.04796 -0.0064,-1.06921 0.0045,-0.005 0.413513,-0.006 1.025314,-0.005 z"
       id="path948-6-7-9"
       inkscape:connector-curvature="0"
       sodipodi:nodetypes="cccccsccc" />
    <path
       style="fill:#000000;stroke-width:0.0550156"
       d="m 30.6655,274.11499 c 1.835406,0.002 8.636182,0.025 8.660698,0.0392 0.03684,0.67139 0.02339,0.34928 0.02237,1.07103 l -0.371511,4.5e-4 c -0.204174,2.4e-4 -4.818784,-0.006 -6.414831,-0.0134 -2.484302,-0.0116 -2.91575,-0.0229 -2.91575,-0.0229 -0.02054,-0.10684 -0.02673,-1.04796 -0.0064,-1.06922 0.0045,-0.005 0.413512,-0.006 1.025313,-0.005 z"
       id="path948-6-7-3-1"
       inkscape:connector-curvature="0"
       sodipodi:nodetypes="cccccsccc" />
    <path
       style="fill:#000000;stroke-width:0.0550156"
       d="m 29.755243,272.88079 c -0.03545,7.1e-4 -0.114287,-3e-5 -0.115242,0.001 -0.02032,0.0213 -0.01381,0.96286 0.0067,1.0697 0,0 0.431281,0.0111 2.915584,0.0227 1.596046,0.007 6.210421,0.0137 6.414595,0.0134 l 0.371554,-5.3e-4 c 7.94e-4,-0.50738 0.0016,-0.58083 -0.0072,-0.76429 l -9.588556,-0.0243 c 0,-0.1498 0.0013,-0.22651 0.0026,-0.31781 z"
       id="path948-6-7-5-2"
       inkscape:connector-curvature="0"
       sodipodi:nodetypes="ccccccccc" />
    <path
       style="fill:#000000;stroke-width:0.0550156"
       d="m 26.497269,272.89334 c -0.0049,0.2455 -0.0077,0.58612 -0.0072,1.07745 -0.05705,-9.8e-4 -0.632003,-0.005 -0.632003,-0.005 -0.02053,-0.10683 -0.02705,-1.04792 -0.0067,-1.06918 0.0028,-0.003 0.372441,-0.002 0.645954,-0.003 z m -0.0067,1.23817 c 7.94e-4,0.37581 0.0021,0.70085 0.0052,1.07745 -0.05823,-9.8e-4 -0.637686,-0.005 -0.637686,-0.005 -0.02053,-0.10684 -0.02705,-1.04793 -0.0067,-1.06918 0.0028,-0.003 0.37084,-0.002 0.639236,-0.003 z m 0.0067,1.23816 c 0.0044,0.48769 0.0099,0.82757 0.01706,1.07746 -0.0622,-0.001 -0.656288,-0.005 -0.656288,-0.005 -0.02053,-0.10684 -0.02705,-1.04793 -0.0067,-1.06919 0.0028,-0.003 0.37244,-0.002 0.645953,-0.003 z"
       id="path948-6-7-2-7"
       inkscape:connector-curvature="0"
       sodipodi:nodetypes="ccccccccccccccc" />
    <path
       inkscape:connector-curvature="0"
       style="fill:#000000;stroke-width:0.0550156"
       d="m 40.031099,273.22101 h -0.52865 c -0.03049,0.21517 -0.0097,3.55823 0.02273,3.61043 0.0217,0.0349 0.211876,0.062 0.422712,0.06 0.210836,-0.002 0.437753,-9.3e-4 0.504362,0.002 0.06661,0.003 0.12846,-0.016 0.137459,-0.0434 0.03327,-0.10093 0.02931,-3.60643 -0.0041,-3.62903 z"
       id="path948"
       sodipodi:nodetypes="cccscccc" />
    <path
       style="fill:#000000;stroke-width:0.18943819"
       d="M 154.06641 68.683594 C 154.07132 70.098687 154.08046 70.408636 154.08008 72.300781 C 154.0794 76.607175 154.11031 80.183417 154.14648 80.248047 C 154.14949 80.255606 154.28552 80.256113 154.33008 80.263672 L 154.35742 82.394531 L 155.79688 82.392578 L 157.23633 82.392578 L 157.35547 80.328125 C 161.54795 81.317303 167.72008 80.83553 169.69141 79.144531 C 170.30284 78.687284 171.59538 77.911928 172.05859 77.216797 C 172.14711 79.38806 172.48939 79.236019 173.81055 78.265625 C 174.25478 77.939294 174.57212 77.729326 174.80664 77.392578 L 176.27539 77.392578 C 176.49142 77.392578 176.66406 77.217986 176.66406 77.001953 L 176.66406 75.666016 C 176.66406 75.449983 176.49142 75.275391 176.27539 75.275391 L 175.30078 75.275391 C 175.32211 75.009306 175.35294 74.824333 175.36719 74.488281 L 176.76172 74.488281 C 176.97775 74.488281 177.15234 74.315642 177.15234 74.099609 L 177.15234 72.761719 C 177.15234 72.545686 176.97775 72.373047 176.76172 72.373047 L 175.40234 72.373047 C 175.40591 72.08824 175.40806 71.72949 175.41211 71.455078 L 176.58789 71.455078 C 176.80392 71.455078 176.97656 71.280486 176.97656 71.064453 L 176.97656 69.728516 C 176.97656 69.512483 176.80392 69.337891 176.58789 69.337891 L 175.42969 69.337891 L 175.42969 68.683594 L 171.9375 68.683594 C 172.30736 69.636413 172.49679 70.64974 172.49609 71.671875 C 172.49609 76.2239 168.80594 79.914062 164.25391 79.914062 C 159.70188 79.914062 156.01173 76.2239 156.01172 71.671875 C 156.01472 70.649021 156.20815 69.635657 156.58203 68.683594 L 154.06641 68.683594 z "
       transform="matrix(0.26458333,0,0,0.26458333,0,255)"
       id="path948-9" />
    <path
       inkscape:connector-curvature="0"
       style="opacity:1;vector-effect:none;fill:#000000;fill-opacity:1;fill-rule:nonzero;stroke:none;stroke-width:0.15799999;stroke-linecap:round;stroke-linejoin:miter;stroke-miterlimit:4;stroke-dasharray:none;stroke-dashoffset:0;stroke-opacity:1"
       d="m 43.458794,271.90565 a 2.0579753,2.0579753 0 0 0 -2.057754,2.05776 2.0579753,2.0579753 0 0 0 2.057754,2.05827 2.0579753,2.0579753 0 0 0 2.058273,-2.05827 2.0579753,2.0579753 0 0 0 -2.058273,-2.05776 z m -1.281575,1.41697 h 2.563151 v 1.28158 h -2.563151 z"
       id="path1097-3" />
    <path
       style="opacity:1;vector-effect:none;fill:#000000;fill-opacity:1;fill-rule:nonzero;stroke:none;stroke-width:0.59716535;stroke-linecap:round;stroke-linejoin:miter;stroke-miterlimit:4;stroke-dasharray:none;stroke-dashoffset:0;stroke-opacity:1"
       d="M 166.11914 51.871094 C 156.84414 51.889991 150.05823 52.614305 140.11523 54.097656 C 136.77484 54.631877 132.05158 56.026406 127.47461 57.548828 L 131.72266 63.181641 L 144.05664 63.550781 L 149.00391 59.34375 L 149.24609 59.630859 L 144.19141 63.935547 L 131.53125 63.550781 L 127.09766 57.677734 C 119.77795 60.128241 112.94336 62.855469 112.94336 62.855469 C 112.85567 66.291475 112.76172 64.905796 112.76172 68.304688 L 146.11133 68.388672 L 153.46875 59.453125 L 177.42969 56.894531 C 177.33569 54.766733 176.85728 52.346825 176.43359 52.082031 C 172.57942 51.935008 169.21081 51.864291 166.11914 51.871094 z M 177.44531 57.138672 L 153.5957 59.681641 L 146.42578 68.390625 L 156.62891 68.417969 C 158.72533 61.105188 172.28424 62.319916 176.03516 62.691406 C 176.03516 62.691406 175.90223 60.392448 176.96289 60.039062 C 177.36391 59.638055 177.4854 58.466899 177.44531 57.140625 L 177.44531 57.138672 z "
       transform="matrix(0.26458333,0,0,0.26458333,0,255)"
       id="rect1258-4" />
    <path
       style="fill:none;stroke:#ffffff;stroke-width:0.05906406;stroke-linecap:butt;stroke-linejoin:miter;stroke-miterlimit:4;stroke-dasharray:none;stroke-opacity:1"
       d="m 40.920553,277.03836 0.462833,1.50939 4.138268,-0.0332 0.816764,-1.59233 v 0 0"
       id="path1833"
       inkscape:connector-curvature="0"
       sodipodi:nodetypes="cccccc" />
    <path
       style="fill:none;stroke:#ffffff;stroke-width:0.05906406;stroke-linecap:butt;stroke-linejoin:miter;stroke-miterlimit:4;stroke-dasharray:none;stroke-opacity:1"
       d="m 39.737789,278.66215 0.462833,1.50939 4.138268,-0.0332 0.816764,-1.59233 v 0 0"
       id="path1833-6"
       inkscape:connector-curvature="0"
       sodipodi:nodetypes="cccccc" />
    <path
       style="fill:none;stroke:#ffffff;stroke-width:0.05906406;stroke-linecap:butt;stroke-linejoin:miter;stroke-miterlimit:4;stroke-dasharray:none;stroke-opacity:1"
       d="m 38.521712,280.25241 0.462833,1.50939 4.138268,-0.0332 0.816764,-1.59233 v 0 0"
       id="path1833-1"
       inkscape:connector-curvature="0"
       sodipodi:nodetypes="cccccc" />
  </g>
</svg>
