<?xml version="1.0" encoding="UTF-8" standalone="no"?>
<!-- Created with Inkscape (http://www.inkscape.org/) -->

<svg
   width="60mm"
   height="42mm"
   viewBox="0 0 60 42"
   version="1.1"
   id="svg8"
   inkscape:version="1.2.2 (b0a8486541, 2022-12-01)"
   sodipodi:docname="SM1 Tank Destroyer.svg"
   xml:space="preserve"
   xmlns:inkscape="http://www.inkscape.org/namespaces/inkscape"
   xmlns:sodipodi="http://sodipodi.sourceforge.net/DTD/sodipodi-0.dtd"
   xmlns="http://www.w3.org/2000/svg"
   xmlns:svg="http://www.w3.org/2000/svg"
   xmlns:rdf="http://www.w3.org/1999/02/22-rdf-syntax-ns#"
   xmlns:cc="http://creativecommons.org/ns#"
   xmlns:dc="http://purl.org/dc/elements/1.1/"><defs
     id="defs2" /><sodipodi:namedview
     id="base"
     pagecolor="#ffffff"
     bordercolor="#666666"
     borderopacity="1.0"
     inkscape:pageopacity="0.0"
     inkscape:pageshadow="2"
     inkscape:zoom="2.8284273"
     inkscape:cx="69.119684"
     inkscape:cy="128.33987"
     inkscape:document-units="mm"
     inkscape:current-layer="svg8"
     showgrid="false"
     inkscape:window-width="1854"
     inkscape:window-height="1011"
     inkscape:window-x="66"
     inkscape:window-y="1112"
     inkscape:window-maximized="1"
     inkscape:snap-global="false"
     showguides="true"
     inkscape:pagecheckerboard="0"
     inkscape:showpageshadow="2"
     inkscape:deskcolor="#d1d1d1" /><metadata
     id="metadata5"><rdf:RDF><cc:Work
         rdf:about=""><dc:format>image/svg+xml</dc:format><dc:type
           rdf:resource="http://purl.org/dc/dcmitype/StillImage" /></cc:Work></rdf:RDF></metadata><g
     inkscape:label="Capa 1"
     inkscape:groupmode="layer"
     id="layer1"
     transform="translate(0,-255)"
     style="display:inline"><g
       id="g2812"
       transform="translate(0.09412565,-0.94490681)"><path
         id="rect2533"
         style="fill:#000000;stroke-width:0.391583;stroke-linecap:round;stroke-linejoin:round"
         d="m 4.1277317,275.85946 c -0.4975639,0 -0.891099,0.39547 -0.891099,0.89302 v 2.11966 c 0,0.49755 0.3935351,0.89157 0.891099,0.89157 h 4.2939562 c 0.4975631,0 0.891099,-0.39402 0.891099,-0.89157 v -2.11966 c 0,-0.49755 -0.3935359,-0.89302 -0.891099,-0.89302 z m 5.5584636,0.65958 c 0.013955,0.0759 0.02157,0.15363 0.02157,0.23344 v 2.11966 c 0,0.18766 -0.040677,0.36596 -0.113125,0.52679 h 6.8392687 c -0.192836,-1.11318 0.03443,-2.07978 0.497559,-2.87989 z m -5.2712552,0.32675 h 1.0150212 v 1.99455 H 4.4149401 Z m 2.6141869,0 h 1.0145882 v 1.99455 H 7.029127 Z m 10.115648,0.39466 c -0.298285,0.6184 -0.436133,1.32669 -0.288564,2.15848 h 0.162976 c -0.04727,-0.35379 -0.03589,-0.7867 0.125588,-1.26306 z"
         sodipodi:nodetypes="ssssssssscssccccccccccccccccccc" /><path
         id="path2381"
         style="fill:#000000;stroke-width:0.391583;stroke-linecap:round;stroke-linejoin:round"
         d="m 37.192683,271.51661 c -0.647714,-0.003 -1.66164,0.15388 -1.906828,0.27802 -0.01054,0.0296 -0.01319,0.0785 -0.0096,0.14045 -0.464694,0.0601 -0.900303,0.1952 -1.268822,0.39354 0.04313,0.0857 0.06758,0.18234 0.06758,0.28425 v 0.24639 c 0,0.35039 -0.288413,0.63103 -0.634172,0.63752 l -0.475028,0.0106 c -0.0076,0.0301 -0.01417,0.0603 -0.01966,0.0906 l -0.01582,0.3806 c 0.0041,0.0189 0.0085,0.0377 0.01342,0.0566 l 0.0096,-0.009 0.05272,0.2066 c 0.01467,0.0589 0.03176,0.11404 0.05129,0.16681 0.186809,0.40842 0.570529,0.76417 1.091464,1.0119 0.191294,-0.15243 0.43686,-0.25052 0.705115,-0.2785 0.466014,-0.0486 0.673424,-0.11001 0.966356,-0.16154 -0.07299,-0.0369 -0.09286,-0.13204 -0.04074,-0.19509 l 0.132299,-0.15388 c 0.02891,-0.0342 0.07368,-0.0508 0.117918,-0.0436 0.0021,3.3e-4 0.0033,-2.8e-4 0.0053,0 -0.152843,-0.0302 -0.295276,-0.13193 -0.295276,-0.29335 v -0.16681 c 0,-0.18326 0.151458,-0.33506 0.335061,-0.33506 h 0.739147 c -0.05772,-0.0381 -0.07452,-0.11534 -0.03786,-0.17401 l 1.017166,-1.19164 c -0.04076,-0.0259 -0.08264,-0.051 -0.125588,-0.0752 -0.01749,-0.36085 -0.07233,-0.74158 -0.223374,-0.8144 -0.07428,-0.007 -0.159124,-0.0111 -0.251655,-0.0115 z m -3.522694,1.02484 c -0.226137,0.16685 -0.406999,0.35874 -0.534467,0.56706 l 0.296234,-0.006 c 0.142467,-0.003 0.2483,-0.10462 0.2483,-0.24255 v -0.24638 c 0,-0.0251 -0.0036,-0.049 -0.01006,-0.0714 z m 3.479552,1.02388 c -18.50712,-11.97496 -9.25356,-5.98748 0,0 z m -1.074687,0.47167 c -0.04978,0 -0.08149,0.0314 -0.08149,0.0815 v 0.16632 c 0,0.0502 0.03028,0.0801 0.08149,0.0801 3.370426,0.0122 3.518461,-0.32787 0,-0.32787 z"
         sodipodi:nodetypes="ccccsscccccccccccccccssscccccccccssccccsscc" /><path
         id="path2351"
         style="fill:#000000;stroke-width:0.391583"
         d="m 13.920322,281.53383 c -0.164212,0.18674 0.164997,1.41313 0.249737,1.40399 0.08474,-0.009 2.063277,0.55044 2.624884,0.39019 l 0.04266,-0.18168 c -0.02377,0.0107 -0.046,0.0207 -0.07046,0.0316 l -0.05416,0.0254 -0.05273,-0.0292 c 0,0 -0.354437,-0.18436 -0.604931,-0.53064 -0.125247,-0.17314 -0.226649,-0.38983 -0.237275,-0.6452 -0.0056,-0.13487 0.01453,-0.27883 0.06711,-0.42949 z m 2.226069,0.0398 c -0.06635,0.15173 -0.08908,0.28881 -0.08389,0.41367 0.0082,0.19662 0.08681,0.36786 0.191737,0.5129 0.196641,0.27184 0.452336,0.40944 0.487492,0.42901 0.05611,-0.0251 0.109866,-0.0491 0.163456,-0.0729 l 0.235358,-1.00374 -0.989364,-0.27898 z" /><path
         style="color:#000000;fill:#000000;stroke-width:0.391583"
         d="m 22.089058,273.79637 c -0.03504,1.7e-4 -0.069,8.3e-4 -0.1021,0.002 -1.776358,0.0302 -6.757431,2.22664 -4.915665,6.69306 -0.522036,0.36078 -0.782288,0.73052 -0.782288,0.73052 -0.820377,1.13776 0.510501,1.84163 0.510501,1.84163 1.141917,-0.51211 1.565737,-0.69583 4.213906,-0.48461 l 1.351268,-2.25148 c -0.239334,0.10097 -0.50182,0.15723 -0.777495,0.15723 -0.849449,0 -1.575824,-0.53105 -1.868479,-1.27793 l -2.1163,0.97643 c -0.103872,-0.18964 -0.503886,-1.02923 -0.101621,-2.07981 l 2.118697,-0.0245 c 0.03188,-0.15775 0.08391,-0.30755 0.150514,-0.44962 l -2.209293,0.0336 c 0.336735,-2.04952 2.63587,-3.34862 3.956978,-3.37601 0.01111,-2.3e-4 0.02259,-1.4e-4 0.03355,0 0.04527,5.9e-4 0.08923,0.005 0.131819,0.0115 0.03464,0.0684 0.02429,1.25492 -0.03067,2.17334 0.105113,0.004 0.208226,0.015 0.308698,0.0341 0.04865,-0.91628 0.13988,-2.18994 0.184067,-2.24812 0.634749,0.0123 2.006367,0.4007 2.485394,0.88295 l -1.236226,2.36987 -0.0393,0.0182 c 0.12481,0.23166 0.205501,0.49036 0.230564,0.76503 l 2.031456,-3.38464 -0.708948,-0.23392 c -0.252581,-0.21276 -1.866228,-0.87386 -2.783546,-0.87864 -0.0119,-6e-5 -0.02379,-5e-5 -0.03547,0 z m 10.797257,0.46518 c 0,0 -1.60419,1.54259 -2.88426,1.61565 -1.042342,-0.0932 -2.425993,-0.83191 -2.95563,-1.48453 l -0.810569,0.18551 c -0.417074,0.27926 -1.539163,2.04785 -2.64166,3.89322 5e-6,0.002 0,0.004 0,0.006 0,0.75481 -0.419031,1.41309 -1.036341,1.75583 -0.518073,0.89424 -0.975436,1.69843 -1.260193,2.2045 h 3.345816 v -2.63926 c 10e-7,-0.5387 0.439635,-0.98026 0.978339,-0.98026 h 2.675694 c 0.33867,0 0.638583,0.17467 0.814884,0.43813 0.175717,-0.26345 0.475244,-0.43813 0.813924,-0.43813 h 2.675694 c 0.493471,0 0.903333,0.37069 0.968753,0.84701 l -0.05752,-3.28543 v -0.14859 c 0,-0.30709 0.10626,-0.57642 0.280416,-0.79236 -0.450563,-0.36144 -0.77583,-0.64889 -0.907347,-1.17686 z m 4.659643,0.72982 c -1.883091,0.004 -1.686956,0.15977 -2.679049,0.26316 -0.563903,0.0588 -0.994637,0.43303 -0.994637,0.97643 v 0.14668 l 0.08868,4.97845 c 0.08253,0.18916 0.213735,0.43728 0.376763,0.63753 0.169121,0.20773 0.361434,0.34592 0.520088,0.35519 l 4.732076,0.0887 h 4.38599 c 0.227916,0 0.448203,0.0331 0.656221,0.0944 l 0.968753,0.0182 h 0.0038 c 0.530738,0.0311 0.965396,-0.43251 0.965396,-0.97642 v -0.42758 c -0.114494,0.0778 -0.17442,0.22817 -0.322597,0.22817 h -11.33164 c -0.392712,0 -0.714222,-0.32294 -0.714222,-0.71566 v -3.66698 c 0,-0.39272 0.321514,-0.71566 0.714222,-0.71566 h 11.332153 c 0.148287,0 0.207645,0.15025 0.322118,0.22817 v -0.37293 c 0,-0.54407 -0.43094,-0.9587 -0.981695,-0.97642 -3.378152,-0.10879 -5.829711,-0.16067 -7.680036,-0.16346 -0.122954,-1.9e-4 -0.243401,-2.5e-4 -0.361904,0 z m 7.570747,1.50562 c -0.230693,2.5e-4 -0.453713,0.0828 -0.628899,0.23296 h -3.699091 c -0.175187,0 -0.316367,0.1407 -0.316367,0.31589 0,0.17519 0.14118,0.31636 0.316367,0.31636 h 3.365468 c -0.0037,0.0342 -0.0057,0.0687 -0.0058,0.10306 -3.2e-5,0.53478 0.433496,0.96831 0.968274,0.96828 0.534777,3e-5 0.968305,-0.4335 0.968273,-0.96828 2.7e-5,-0.53477 -0.433501,-0.9683 -0.968274,-0.96827 z m -9.819345,0.2205 c -0.367329,0.008 -0.66769,0.27724 -0.725247,0.62985 0.0669,-0.048 0.148582,-0.0767 0.236796,-0.0767 h 3.871175 c 0.224494,0 0.409839,0.18342 0.409839,0.40792 0,0.17994 -0.119093,0.33402 -0.281854,0.38827 0.162761,0.0538 0.281854,0.20689 0.281854,0.38683 0,0.17889 -0.117667,0.3327 -0.278978,0.38778 0.161311,0.0551 0.278978,0.20891 0.278978,0.3878 0,0.17978 -0.118824,0.33291 -0.281375,0.38683 0.162523,0.0544 0.281375,0.2085 0.281375,0.38826 0,0.2245 -0.185345,0.40793 -0.409839,0.40793 h -3.871175 c -0.08821,0 -0.169901,-0.0287 -0.236796,-0.0767 0.05847,0.35821 0.367714,0.62986 0.742982,0.62986 h 4.146318 c 0.417263,0 0.753528,-0.33578 0.753528,-0.75305 v -0.49516 c -0.420382,-0.0696 -0.742982,-0.43618 -0.742982,-0.87576 0,-0.43958 0.3226,-0.8062 0.742982,-0.87576 v -0.49516 c 0,-0.41727 -0.336265,-0.75305 -0.753528,-0.75305 h -4.146318 c -0.0058,0 -0.0119,-1.3e-4 -0.01774,0 z m -13.710175,0.008 c -0.969116,0 -1.751999,0.78239 -1.751999,1.75152 0,0.96911 0.782883,1.752 1.751999,1.752 0.969117,0 1.75152,-0.78289 1.75152,-1.752 0,-0.96913 -0.782403,-1.75152 -1.75152,-1.75152 z m 24.469991,0.12751 c 0.124039,0.18522 0.190273,0.4031 0.190299,0.62602 -1.39e-4,0.62146 -0.504037,1.12514 -1.125498,1.12502 -0.518326,-3e-5 -0.969584,-0.35411 -1.092902,-0.85755 0.02042,0.6446 0.548641,1.15671 1.193565,1.15713 0.65999,3e-5 1.195025,-0.53501 1.195002,-1.195 8.5e-5,-0.32213 -0.129894,-0.63066 -0.360466,-0.85562 z m -11.248267,0.63513 c -0.107505,0 -0.1903,0.0827 -0.1903,0.19029 0,0.10754 0.0828,0.19174 0.1903,0.19174 h 3.871175 c 0.107499,0 0.192217,-0.0842 0.192217,-0.19174 0,-0.10749 -0.08472,-0.19029 -0.192217,-0.19029 z m 6.01288,0.26507 c -0.139979,0 -0.25819,0.0901 -0.300068,0.2157 0.411889,0.0766 0.725725,0.43888 0.725725,0.87241 0,0.007 -3.12e-4,0.0141 -4.79e-4,0.0211 h 2.302764 c 0.175188,0 0.316367,-0.14069 0.316367,-0.31589 v -0.47694 c 0,-0.17519 -0.141179,-0.31636 -0.316367,-0.31636 z m -6.259742,0.24974 v 0.12703 c 0.03559,-0.0272 0.07553,-0.0489 0.118877,-0.0633 -0.04335,-0.0145 -0.08329,-0.0365 -0.118877,-0.0637 z m 5.780399,0.16825 c -0.363067,0.009 -0.652865,0.30479 -0.652865,0.67012 0,0.37114 0.29898,0.67012 0.670122,0.67012 0.371137,0 0.668684,-0.29898 0.668684,-0.67012 0,-0.37114 -0.297547,-0.67012 -0.668684,-0.67012 -0.0058,0 -0.01149,-1.5e-4 -0.01725,0 z m -19.479548,0.069 h 1.448096 v 0.47407 h -1.448096 z m 13.946011,0.023 c -0.107505,0 -0.1903,0.0827 -0.1903,0.19029 0,0.10748 0.0828,0.19031 0.1903,0.19031 h 3.871175 c 0.107499,0 0.192217,-0.0828 0.192217,-0.19031 0,-0.10749 -0.08472,-0.19029 -0.192217,-0.19029 z m -0.246862,0.51577 v 0.12462 c 0.03475,-0.0267 0.07385,-0.0479 0.116001,-0.0623 -0.04215,-0.0145 -0.08126,-0.0357 -0.116001,-0.0623 z m 10.526377,0.17256 c -0.200958,0 -0.371257,0.12507 -0.439079,0.3015 h -3.50352 c -0.129926,0.24682 -0.372865,0.42552 -0.659096,0.46689 0.05323,0.0986 0.157489,0.16538 0.278019,0.16538 h 3.85296 v 0.10593 h -3.85296 c -0.175188,0 -0.315887,0.14118 -0.315887,0.31637 0,0.17519 0.1407,0.31636 0.315887,0.31636 h 3.884597 c 0.06783,0.17651 0.23812,0.30151 0.439079,0.30151 0.260832,0 0.471194,-0.21035 0.471194,-0.47119 v -1.03204 c 0,-0.26083 -0.210362,-0.47071 -0.471194,-0.47071 z m 1.068934,0.0263 c -0.255161,0.006 -0.458252,0.21401 -0.458252,0.47071 v 1.03155 c 0,0.26083 0.209877,0.47071 0.470716,0.47071 0.260841,0 0.470715,-0.20988 0.470715,-0.47071 v -1.03155 c 0,-0.26077 -0.209874,-0.47071 -0.470715,-0.47071 -0.0041,0 -0.0083,-1.1e-4 -0.01247,0 z m -11.358515,0.0609 c -0.102595,0.005 -0.180234,0.0862 -0.180234,0.1903 0,0.10749 0.0828,0.19029 0.1903,0.19029 h 3.871175 c 0.107499,0 0.192217,-0.0827 0.192217,-0.19029 0,-0.10749 -0.08472,-0.1903 -0.192217,-0.1903 h -3.871175 c -0.0033,0 -0.0068,-1.6e-4 -0.01006,0 z m -9.192365,0.17927 c -0.316867,0.007 -0.562749,0.26094 -0.562749,0.58001 v 2.87126 c 0,0.32413 0.253952,0.57809 0.578088,0.57809 h 2.675694 c 0.324136,0 0.579525,-0.25396 0.579525,-0.57809 V 279.798 c 0,-0.32414 -0.255389,-0.58001 -0.579525,-0.58001 h -2.675694 c -0.0051,0 -0.0103,-1.2e-4 -0.01534,0 z m 4.304502,0 c -0.31692,0.007 -0.564666,0.26094 -0.564666,0.58001 v 2.87126 c 0,0.32413 0.255877,0.57809 0.580005,0.57809 h 2.675694 c 0.324136,0 0.580005,-0.25396 0.580005,-0.57809 V 279.798 c 0,-0.32414 -0.255869,-0.58001 -0.580005,-0.58001 h -2.675694 c -0.0051,0 -0.01031,-1.2e-4 -0.01534,0 z m 4.651067,0.33458 v 0.12703 c 0.03557,-0.0274 0.07557,-0.0492 0.118877,-0.0637 -0.04335,-0.0144 -0.08329,-0.0361 -0.118877,-0.0633 z m 0.246862,0.25981 c -0.107505,0 -0.1903,0.0842 -0.1903,0.19173 0,0.10749 0.0828,0.1903 0.1903,0.1903 h 3.871175 c 0.107499,0 0.192217,-0.0828 0.192217,-0.1903 0,-0.10754 -0.08472,-0.19173 -0.192217,-0.19173 z m -6.71416,0.0743 c 0.03272,-0.002 0.06464,0.0103 0.08868,0.0326 0.04902,0.0457 0.05225,0.12238 0.0072,0.17208 l -2.32098,2.5616 c -0.04589,0.0504 -0.123993,0.0537 -0.174001,0.007 -0.04902,-0.0457 -0.05225,-0.12238 -0.0072,-0.17208 l 2.32098,-2.56161 c 0.02202,-0.0241 0.05272,-0.0384 0.08532,-0.0398 z m 2.068845,0 c 0.03243,0.002 0.06295,0.0159 0.08485,0.0398 l 2.32098,2.56161 c 0.04485,0.0503 0.04079,0.12728 -0.0091,0.17256 -0.04976,0.045 -0.126386,0.0417 -0.172084,-0.007 l -2.322418,-2.5616 c -0.04453,-0.0502 -0.04048,-0.12686 0.0091,-0.17209 0.02403,-0.0223 0.05596,-0.034 0.08868,-0.0326 z m 3.416758,0.32307 v 2.22751 h 0.378682 l 0.0033,-0.34513 c -0.151557,-0.21243 -0.268777,-0.43968 -0.345607,-0.62026 l -0.01486,-0.0307 z m -14.315105,2.61003 c -0.59082,0.008 -1.113859,0.27624 -1.462476,0.69552 h 7.330116 c -0.250073,-0.14564 -0.430692,-0.39881 -0.476946,-0.69552 h -5.362413 c -0.0094,0 -0.0189,-1.3e-4 -0.02828,0 z m 14.302163,0 c -0.04626,0.29671 -0.226534,0.54988 -0.476468,0.69552 h 12.375683 c -0.249595,-0.30033 -0.589261,-0.52229 -0.978819,-0.62746 l -3.646843,-0.0681 z m -4.455015,0.39114 c -0.08384,0.12501 -0.196295,0.22877 -0.326913,0.30438 h 0.653345 c -0.130449,-0.0756 -0.24287,-0.17936 -0.326432,-0.30438 z m -15.075344,0.7045 c -0.316866,0.007 -0.562749,0.25902 -0.562749,0.57809 0,0.32415 0.253954,0.58 0.578088,0.58 h 34.113896 c 0.324137,0 0.578088,-0.25585 0.578088,-0.58 0,-0.32413 -0.253951,-0.57809 -0.578088,-0.57809 H 14.05239 c -0.0051,0 -0.01031,-1.2e-4 -0.01534,0 z m 3.3276,1.55835 c 0.08616,0.99441 0.910605,1.76446 1.928877,1.76446 h 24.68234 c 1.018277,0 1.842283,-0.77005 1.928398,-1.76446 z"
         id="path2557" /><path
         id="path2421"
         style="color:#000000;fill:#000000;stroke-width:0.391583;stroke-linecap:round;stroke-linejoin:round"
         d="m 39.963969,270.73599 c -0.145755,0 -0.263033,0.11728 -0.263033,0.26303 v 0.2403 c 0.20862,-9.2e-4 0.43864,3.2e-4 0.686263,0.004 0.704323,0.0104 1.536637,0.0389 2.333191,0.0724 0.698307,0.0292 1.346788,0.0619 1.880505,0.0899 0.110287,-0.13973 0.212127,-0.26256 0.300757,-0.36174 0.09452,-0.10576 0.166244,-0.17884 0.250114,-0.23564 0.03104,-0.0256 0.06446,-0.0497 0.100252,-0.0723 z m 6.039425,0.12454 c -0.302058,0.0845 -0.530974,0.18456 -0.607199,0.24856 l -0.0088,0.009 -0.01085,0.006 c -0.01087,0.007 -0.09264,0.0782 -0.183451,0.17983 -0.03365,0.0377 -0.07037,0.0813 -0.109037,0.12765 0.397212,0.0219 0.681612,0.0382 0.681612,0.0382 l 0.202572,0.0109 -0.0739,0.12402 c 0.08814,-0.0424 0.148312,-0.13239 0.148312,-0.23719 v -0.36846 c 0,-0.051 -0.01443,-0.0983 -0.03927,-0.13849 z m -6.117973,0.50126 v 5.2e-4 c -0.470913,-3.5e-4 -0.846281,0.0115 -1.0573,0.0408 l -1.95492,2.28979 h 5.3759 c 0.233683,0 0.425814,0.19161 0.425814,0.42529 v 0.1664 c 0,0.23369 -0.192131,0.42633 -0.425814,0.42633 h -6.1743 c -0.02241,0 -0.04412,-0.003 -0.06563,-0.006 l -0.131775,0.15451 c 0,0 7.636617,0.13333 7.72976,0.13333 0.01091,0 0.04966,-0.0483 0.108004,-0.13074 -0.19219,-0.0226 -0.361518,-0.0456 -0.500228,-0.0698 -0.09429,-0.0165 -0.172822,-0.0316 -0.240812,-0.0506 -0.06799,-0.019 -0.119679,-0.0285 -0.190169,-0.0868 l -0.03979,-0.0326 -0.01809,-0.047 c -0.03431,-0.0882 -0.0183,-0.14669 -0.0057,-0.20309 0.01261,-0.0564 0.03218,-0.11205 0.05788,-0.17415 0.05141,-0.12438 0.126796,-0.27097 0.221176,-0.43821 0.188749,-0.33447 0.452041,-0.74716 0.731738,-1.15755 0.261853,-0.38421 0.536793,-0.76602 0.778764,-1.07952 -1.299836,-0.0672 -3.322563,-0.15975 -4.624524,-0.16072 z m 5.103047,0.18655 c -0.03833,0.0477 -0.07788,0.0972 -0.119372,0.15038 -0.246297,0.3154 -0.540074,0.71887 -0.815454,1.12293 -0.275381,0.40406 -0.533965,0.81073 -0.713652,1.12913 -0.08984,0.1592 -0.160251,0.29621 -0.201021,0.39481 -0.005,0.0121 -0.0052,0.016 -0.0093,0.0269 0.04393,0.0106 0.08891,0.0232 0.153996,0.0346 0.170539,0.0299 0.403599,0.0587 0.676961,0.0879 0.611528,-0.94335 1.797307,-2.90369 1.797307,-2.90369 0,0 -0.306241,-0.0179 -0.769463,-0.0429 z m -6.117972,1.10071 h 2.746602 c 0.209171,0 0.381889,0.17324 0.381889,0.38241 v 0.14676 c 0,0.20917 -0.172718,0.38034 -0.381889,0.38034 h -2.746602 c -0.20917,0 -0.380339,-0.17117 -0.380339,-0.38034 v -0.14676 c 0,-0.20917 0.171169,-0.38241 0.380339,-0.38241 z m 0,0.20619 c -0.0992,0 -0.1757,0.077 -0.1757,0.17622 v 0.14676 c 0,0.0992 0.0765,0.1757 0.1757,0.1757 h 2.746602 c 0.0992,0 0.1757,-0.0765 0.1757,-0.1757 v -0.14676 c 0,-0.0992 -0.0765,-0.17622 -0.1757,-0.17622 z m -2.795695,1.05472 c -0.116689,0 -0.20774,0.092 -0.20774,0.20877 v 0.16588 c 0,0.11674 0.09105,0.20671 0.20774,0.20671 h 6.1743 c 0.116696,0 0.206705,-0.09 0.206705,-0.20671 v -0.16588 c 0,-0.1167 -0.09001,-0.20877 -0.206705,-0.20877 z" /><path
         id="path7952"
         style="fill:#000000;stroke-width:0.391583;stroke-linecap:round"
         d="m 48.010979,275.5987 c -0.491236,0 -0.886785,0.39555 -0.886785,0.88679 v 7.03963 h 1.039216 c 0.291917,0 0.554817,0.12916 0.734354,0.33314 v -7.37277 c 0,-0.49124 -0.395551,-0.88679 -0.886785,-0.88679 z m 1.089067,6.38294 v 2.12204 c 0,0.0338 -0.0023,0.067 -0.0058,0.0997 0.03064,0.0946 0.04745,0.19551 0.04745,0.30006 0,0.36354 -0.200368,0.68263 -0.49612,0.8518 0.343711,0.14538 0.702978,0.24682 0.99991,0.24159 0.611948,-0.0393 3.744102,-1.22793 4.45885,-1.50178 h 0.04602 c 0.556077,0 1.004224,-0.44767 1.004224,-1.00374 v -0.10594 c 0,-0.55609 -0.448147,-1.00374 -1.004224,-1.00374 z m -1.975372,1.94373 c 0.0046,0.48718 0.397978,0.87816 0.886305,0.87816 0.300715,0 0.565035,-0.14862 0.725246,-0.37629 -0.03631,-0.28674 -0.274628,-0.50187 -0.572815,-0.50187 z m 1.397285,1.0349 c -0.103724,0.0411 -0.216561,0.0643 -0.335062,0.0643 H 48.00331 c 0.03199,0.0198 0.06663,0.039 0.100182,0.0584 h 0.05992 c 0.136771,0 0.260608,-0.0457 0.358549,-0.12271 z" /><path
         id="rect1067"
         style="fill:#000000;stroke-width:0.391583;stroke-linecap:round"
         d="m 49.195306,279.49563 v 1.61052 h 6.574549 c 0.446084,0 0.805261,-0.35917 0.805261,-0.80525 0,-0.44609 -0.359177,-0.80527 -0.805261,-0.80527 z"
         sodipodi:nodetypes="ccsssc" /><path
         style="color:#000000;fill:#000000;stroke-width:0.391583;-inkscape-stroke:none"
         d="m 50.135828,270.10016 v 9.3e-4 c -0.01259,0 -0.03412,7.1e-4 -0.05705,9.3e-4 v 4.80349 h 2.352136 c 0.06815,-2.7e-4 0.123458,0.055 0.12319,0.12319 2.68e-4,0.0682 -0.05504,0.12347 -0.12319,0.1232 h -2.352136 v 1.71557 h 2.352136 c 0.06815,-2.7e-4 0.123458,0.055 0.12319,0.12319 2.68e-4,0.0682 -0.05504,0.12346 -0.12319,0.12319 h -2.352136 v 1.22232 c 1.931137,0.18318 4.647711,0.034 4.647711,0.034 0.12153,-1.91482 -0.409771,-5.72182 -0.644718,-6.03206 -0.332738,-0.41847 -3.235342,-2.16277 -3.945952,-2.23805 z m -0.215227,0.0101 c -1.443113,0.0791 -3.954623,0.36257 -4.476799,0.80101 -0.404595,0.25854 -2.482845,3.2319 -2.362384,3.54227 0.317775,0.2632 5.805418,0.4911 5.966636,0.57842 0.328704,0.10441 0.245865,0.18972 0.272891,0.55672 0,0 0.06892,2.24853 0.165372,2.67712 0.137748,0.0209 0.283439,0.039 0.434284,0.0551 z"
         id="path2742" /><path
         style="color:#000000;fill:#000000;stroke-width:0.391583;stroke-linecap:round;stroke-linejoin:round"
         d="m 38.8713,272.75236 h 2.746469 c 0.154185,0 0.278312,0.12413 0.278312,0.27832 v 0.14762 c 0,0.15419 -0.124127,0.27831 -0.278312,0.27831 H 38.8713 c -0.154185,0 -0.278312,-0.12412 -0.278312,-0.27831 v -0.14762 c 0,-0.15419 0.124127,-0.27832 0.278312,-0.27832 z"
         id="path1680" /><path
         id="rect2941"
         style="fill:#000000;stroke-width:0.391583;stroke-linecap:round;stroke-linejoin:round"
         d="m 32.358152,268.96731 c -0.07348,0.006 -0.130878,0.0667 -0.130878,0.14164 v 0.18765 c -0.08415,0.0482 -0.140438,0.13888 -0.140438,0.24323 v 0.34661 l 0.385458,0.0394 c 0.06374,0.0214 0.121774,0.0453 0.174504,0.0711 v -0.45717 c -4e-6,-0.10234 -0.05417,-0.19135 -0.135659,-0.24026 v -0.19062 c 0,-0.0787 -0.0636,-0.14164 -0.142231,-0.14164 -0.0037,0 -0.0071,-2.7e-4 -0.01075,0 z" /><path
         id="rect2493"
         style="stroke-width:0.391583;stroke-linecap:round;stroke-linejoin:round"
         d="m 22.41124,268.69876 c -0.1927,-0.008 -0.362746,0.13051 -0.390834,0.32569 l -0.04901,0.33885 c -0.02995,0.20819 0.113946,0.40012 0.322113,0.43028 l 3.028684,0.43924 -0.09323,-0.0239 -0.598207,-0.46972 0.01135,-0.60778 0.0031,-0.11056 -2.195018,-0.31852 c -0.013,-0.002 -0.02601,-0.003 -0.03885,-0.004 z" /><path
         style="color:#000000;fill:#000000;stroke-width:0.391583;stroke-linecap:round;stroke-linejoin:round"
         d="m 26.587334,272.17266 c -0.244168,0 -0.440437,0.19627 -0.440437,0.44044 v 0.24621 c 0,0.24417 0.196278,0.44313 0.440437,0.44103 l 0.632533,-0.006 c -0.0012,0.0133 -0.0019,0.0401 -0.0019,0.0401 l -0.02158,0.64459 c -0.0082,0.24403 0.468162,0.42096 0.670238,0.55802 1.902483,1.29035 2.364369,1.13322 4.232867,0 0.208777,-0.12663 0.62164,-0.26808 0.631605,-0.51204 l 0.02741,-0.67103 c 5.57e-4,-0.0136 -6.11e-4,-0.0267 -0.0019,-0.0401 l 0.67971,-0.0141 c 0.244113,-0.005 0.441034,-0.19686 0.441034,-0.44103 v -0.24622 c 0,-0.24416 -0.196865,-0.44043 -0.441034,-0.44043 z"
         id="path2415" /><path
         id="path1959"
         style="color:#000000;fill:#000000;stroke-width:0.391583"
         d="m 24.869806,268.85772 -0.0042,0.17152 -0.01135,0.60776 0.598207,0.46972 0.761354,0.19423 c 0.0082,0.0272 0.0044,0.0302 0.02031,0.0634 0.04196,0.0872 0.132754,0.20769 0.289242,0.2235 -0.0012,-10e-5 0.123244,0.0173 0.298207,0.043 0.174963,0.0258 0.417694,0.0613 0.70219,0.10399 0.198168,0.0297 0.436695,0.0659 0.669323,0.10099 l 0.02509,-0.45298 -0.46733,-0.26654 0.113545,-0.91076 -0.146412,0.043 z m 3.312547,0.2749 -0.103984,0.81872 0.455975,0.25997 -0.03645,0.66992 c 0.345101,0.0521 0.710075,0.10744 1.074502,0.16255 1.475513,0.22312 2.929482,0.44521 2.92948,0.44521 l 0.242033,0.0359 c 0,0 0.654651,-1.11932 -0.467929,-1.49701 l -0.534861,-0.0544 -0.214541,-0.40697 -0.514541,-0.067 c -0.04271,-0.1424 -0.16751,-0.2515 -0.325101,-0.26773 l -0.741036,-0.0765 c -0.142612,-0.0147 -0.274548,0.0506 -0.350795,0.16015 z" /><path
         style="fill:#000000;stroke-width:0.391583"
         d="m 27.498766,270.96033 v 1.02035 h 4.904025 v -0.28725 z"
         id="path2273" /></g></g></svg>
