<?xml version="1.0" encoding="UTF-8" standalone="no"?>
<!-- Created with Inkscape (http://www.inkscape.org/) -->

<svg
   width="60mm"
   height="42mm"
   viewBox="0 0 60 42"
   version="1.1"
   id="svg8"
   inkscape:version="1.1.2 (0a00cf5339, 2022-02-04)"
   sodipodi:docname="Sniper Artillery.svg"
   xmlns:inkscape="http://www.inkscape.org/namespaces/inkscape"
   xmlns:sodipodi="http://sodipodi.sourceforge.net/DTD/sodipodi-0.dtd"
   xmlns="http://www.w3.org/2000/svg"
   xmlns:svg="http://www.w3.org/2000/svg"
   xmlns:rdf="http://www.w3.org/1999/02/22-rdf-syntax-ns#"
   xmlns:cc="http://creativecommons.org/ns#"
   xmlns:dc="http://purl.org/dc/elements/1.1/">
  <defs
     id="defs2" />
  <sodipodi:namedview
     id="base"
     pagecolor="#ffffff"
     bordercolor="#666666"
     borderopacity="1.0"
     inkscape:pageopacity="0.0"
     inkscape:pageshadow="2"
     inkscape:zoom="1.4142136"
     inkscape:cx="-92.27743"
     inkscape:cy="-50.911686"
     inkscape:document-units="mm"
     inkscape:current-layer="layer1"
     showgrid="false"
     inkscape:window-width="1920"
     inkscape:window-height="1043"
     inkscape:window-x="0"
     inkscape:window-y="0"
     inkscape:window-maximized="1"
     inkscape:snap-global="false"
     showguides="false"
     inkscape:pagecheckerboard="0" />
  <metadata
     id="metadata5">
    <rdf:RDF>
      <cc:Work
         rdf:about="">
        <dc:format>image/svg+xml</dc:format>
        <dc:type
           rdf:resource="http://purl.org/dc/dcmitype/StillImage" />
      </cc:Work>
    </rdf:RDF>
  </metadata>
  <g
     inkscape:label="Capa 1"
     inkscape:groupmode="layer"
     id="layer1"
     transform="translate(0,-255)">
    <g
       id="g885"
       transform="matrix(0.31587156,0,0,0.31587156,21.475417,199.30466)">
      <path
         id="rect8649"
         style="fill:#000000;stroke:none;stroke-width:0.499999;stroke-linecap:round;stroke-miterlimit:4;stroke-dasharray:none;stop-color:#000000"
         d="m -35.937331,197.3002 c -0.847381,0.0373 -1.604478,0.61703 -1.831411,1.4826 l -0.989605,3.77496 c -0.279302,1.06531 0.353208,2.14794 1.418518,2.42724 l 7.939567,2.08153 c 0.981998,0.25746 1.978506,-0.26026 2.347145,-1.17719 l 16.669265,4.37028 -0.0987,0.37724 c -0.155051,0.59139 0.195635,1.19266 0.7870319,1.34772 l 0.7296732,0.1912 -0.037724,0.14314 c -0.1276826,0.487 0.1620467,0.98181 0.6490547,1.1095 l 12.7341072,3.33881 c 0.4870133,0.12768 0.9818106,-0.16154 1.1094932,-0.64854 l 0.037724,-0.14314 1.3632233,0.3576 c 0.5913966,0.15505 1.1921516,-0.19667 1.3472054,-0.78807 l 0.099219,-0.37724 1.9802391,0.51935 -0.143142,0.54674 c -0.123441,0.47082 0.02088,0.94325 0.334862,1.26814 l 0.635622,-0.29249 1.54564,-0.85421 a 0.34999998,0.34999998 0 0 1 0.253214,-0.14005 l 1.159621,-0.64078 -0.83716,-0.21963 a 0.34999998,0.34999998 0 0 1 -0.249079,-0.42684 0.34999998,0.34999998 0 0 1 0.426331,-0.24909 l 1.546159,0.40515 0.222208,-0.12248 2.035019,-0.19016 -3.581694,-0.93897 a 0.34999998,0.34999998 0 0 1 -0.249081,-0.42684 0.34999998,0.34999998 0 0 1 0.426331,-0.2496 l 5.437909,1.42575 2.545065,-0.23771 -7.760767,-2.0345 a 0.34999998,0.34999998 0 0 1 -0.249078,-0.42685 0.34999998,0.34999998 0 0 1 0.426328,-0.24959 l 8.519377,2.23397 1.249537,-0.98754 c -0.145852,-0.12056 -0.316934,-0.21482 -0.51263,-0.26613 L 13.21419,209.91752 c -0.717981,-0.18824 -1.447316,0.23855 -1.635559,0.95653 l -0.143142,0.54674 -1.9802421,-0.51935 0.098703,-0.37724 c 0.1550537,-0.5914 -0.1966675,-1.19215 -0.7880668,-1.3472 l -1.3632232,-0.3576 0.037724,-0.14315 c 0.1276852,-0.48701 -0.1615255,-0.98181 -0.6485388,-1.10949 L -5.942778,204.22794 c -0.4870106,-0.12768 -0.9818079,0.16153 -1.1094931,0.64854 l -0.037724,0.14315 -0.7291546,-0.19121 c -0.5913967,-0.15505 -1.1921543,0.19668 -1.3472054,0.78807 l -0.0987,0.37672 -16.6697849,-4.37028 c 0.128387,-0.97966 -0.485267,-1.91971 -1.467092,-2.17712 l -7.939567,-2.08153 c -0.199747,-0.0524 -0.40028,-0.0727 -0.595831,-0.0641 z m 2.383319,2.03347 c 0.0545,0.003 0.109387,0.0114 0.16433,0.0258 0.439555,0.11525 0.700736,0.56246 0.585494,1.00201 l -0.854212,3.25717 c -0.115242,0.43955 -0.561417,0.70022 -1.000972,0.58497 -0.439552,-0.11524 -0.700736,-0.56142 -0.585494,-1.00097 l 0.853694,-3.25716 c 0.100838,-0.38461 0.455631,-0.633 0.83716,-0.61185 z m 3.532082,0.92604 c 0.0545,0.003 0.109387,0.0114 0.164333,0.0258 0.439552,0.11525 0.701251,0.56246 0.586009,1.00201 l -0.85421,3.25717 c -0.115244,0.43955 -0.561937,0.70022 -1.00149,0.58498 -0.439555,-0.11525 -0.700735,-0.56142 -0.585494,-1.00098 l 0.853694,-3.25716 c 0.100838,-0.38461 0.455631,-0.63299 0.837158,-0.61185 z" />
      <path
         id="path3402"
         style="fill:#000000;stroke:none;stroke-width:0.264583px;stroke-linecap:butt;stroke-linejoin:miter;stroke-opacity:1"
         d="m 25.143694,213.57724 -2.044319,1.61489 -6.989754,0.65267 -4.066934,2.24793 -4.8017751,2.2102 -1.6324579,1.28674 h 16.497702 v 1.32809 H 3.9227698 l -0.3643207,0.28732 -3.71605171,2.88871 3.49177761,0.0455 c 0.02894,-0.0782 0.058454,-0.18219 0.086299,-0.21808 0.4333901,-0.15596 2.9636031,-0.24723 5.1495562,-0.25373 2.1859508,-0.007 4.8420468,0.0718 5.1800448,0.25373 0.05575,0.0483 0.112469,0.17675 0.168984,0.35657 l 11.90625,0.15555 c 0.06166,-0.24071 0.123354,-0.43665 0.181901,-0.51212 0.43339,-0.15596 2.964121,-0.24723 5.150072,-0.25373 2.18595,-0.007 4.842026,0.0718 5.180047,0.25373 0.08042,0.0698 0.162038,0.33318 0.242361,0.65216 l 2.020548,0.0264 0.216525,-4.43642 8.185547,0.16588 -0.181386,4.37751 1.524456,0.0196 c 0.08341,-0.38202 0.168708,-0.70218 0.248562,-0.80511 0.01085,-0.004 0.05477,-0.007 0.06822,-0.0103 7.94e-4,-0.21351 0.0021,-0.43116 0.0041,-0.65422 0.0093,-1.16423 0.02532,-2.29495 0.02532,-2.29495 l 0.0041,-0.40825 3.896402,0.12816 v -1.4733 l -4.007506,-0.0646 0.317294,-6.92723 -1.47278,-0.0398 -0.561723,7.0683 -7.691004,-0.0801 -4.211111,-7.3024 0.03514,-0.0202 z m 10.74715,0.28888 3.750157,6.50399 6.488493,0.0682 0.49816,-6.28333 z m 13.810525,0.37155 -0.28112,6.11849 3.171899,0.0512 v -3.13676 c 0.323117,-1.3253 3.564642,-1.79232 6.205308,-1.57355 l -0.972035,-1.24075 z m 12.205973,2.33061 c 0.195154,0.16867 0.323312,0.35502 0.329178,0.56637 v 3.42925 l 1.19166,0.0191 0.219109,-3.98632 z m 2.540931,0.0413 -0.262001,4.78575 -1.949752,-0.0315 v 1.63556 l 2.189533,0.0718 -0.04806,3.86436 1.328602,0.0176 v -9.70484 c 0.05796,-0.23099 0.226616,-0.43001 0.448551,-0.61081 z m -6.866766,0.17208 c -1.647079,0.009 -3.315914,0.25078 -3.683494,0.70176 -0.23412,0.60102 -0.244311,5.35687 0,5.86528 0.59078,0.46302 6.573623,0.48724 7.238833,0 0.45553,-0.74146 0.21808,-5.21763 0,-5.86528 -0.283059,-0.48359 -1.908239,-0.7099 -3.555339,-0.70176 z m 13.185243,0 c -1.647081,0.009 -3.315917,0.25078 -3.683497,0.70176 -0.234119,0.60103 -0.244308,5.35687 0,5.86528 0.59078,0.46302 6.573626,0.48724 7.238836,0 0.45553,-0.74146 0.21808,-5.21763 0,-5.86528 -0.283059,-0.48359 -1.908239,-0.7099 -3.555339,-0.70176 z m 4.7625,0.009 c 0.0627,0.10149 0.10372,0.20771 0.106971,0.32143 v 1.41645 l 0.762744,2.6169 7.396448,0.42788 c 0.0113,-0.29535 0.03155,-0.86009 0.07234,-1.75183 0.02511,-0.54977 0.0532,-1.10865 0.0801,-1.55288 0.01349,-0.22211 0.02585,-0.41522 0.03876,-0.56637 0.01291,-0.15115 0.01024,-0.22052 0.04703,-0.35554 l 0.771528,0.21084 c 0.01569,-0.0577 -0.0093,0.0733 -0.02119,0.21291 -0.01191,0.13966 -0.024,0.32884 -0.03721,0.54725 -0.0265,0.43683 -0.05513,0.99335 -0.0801,1.541 -0.0501,1.09525 -0.08992,2.15232 -0.08992,2.15232 l -0.0155,0.40824 -8.771559,-0.50798 -0.153477,-0.52555 v 1.46193 l 9.389608,0.4501 -0.121957,3.90622 3.33313,0.0434 0.420646,-10.24227 z m -35.950776,6.18722 -0.178284,3.63234 6.620785,0.0863 0.147278,-3.58221 z m 9.907921,0.40205 c -0.0039,0.30227 -0.01164,0.92863 -0.01963,1.88309 -0.0016,0.18473 -0.0024,0.3629 -0.0036,0.54156 0.77474,-0.0629 1.935951,-0.10614 3.129008,-0.12557 v -2.19676 z m 11.770857,0.10335 c 2.65e-4,1.9e-4 7.94e-4,2.6e-4 0.0011,5.3e-4 v -5.3e-4 z m 0.0011,5.3e-4 c -0.03617,0.12963 -0.07803,0.2261 -0.12609,0.28163 -0.665231,0.48724 -6.649606,0.46302 -7.240386,0 -0.02281,-0.0467 -0.04071,-0.12758 -0.05891,-0.23926 -0.248004,0.29183 -0.328737,1.42069 -0.192754,2.07894 0.01497,-4e-5 0.03053,-5.3e-4 0.04547,-5.3e-4 2.18595,-0.007 4.842026,0.0712 5.180047,0.25322 0.06976,0.0605 0.141636,0.24529 0.211873,0.50126 0.957984,-0.0353 1.777568,-0.12124 2.161624,-0.27905 0.401815,-0.45923 0.512718,-2.31051 0.01913,-2.59623 z m 13.184208,-5.3e-4 c 2.65e-4,1.9e-4 7.94e-4,2.6e-4 0.0011,5.3e-4 v -5.3e-4 z m 0.0011,5.3e-4 c -0.03617,0.12963 -0.07803,0.2261 -0.12609,0.28163 -0.665229,0.48724 -6.649604,0.46302 -7.240384,0 -0.02281,-0.0467 -0.04071,-0.12758 -0.05891,-0.23926 -0.34227,0.40275 -0.365829,2.40015 0.05891,2.55385 0.211,0.15033 2.062041,0.28928 3.881932,0.29766 0.05401,-0.19697 0.107863,-0.34367 0.159163,-0.4098 0.325136,-0.117 1.830742,-0.19744 3.485576,-0.23306 0.242445,-0.70413 0.248655,-2.01436 -0.160197,-2.25102 z m 1.192694,0.16433 v 2.02468 c 0.233299,-0.002 0.466492,-0.005 0.695047,-0.005 2.18595,-0.007 4.841507,0.0717 5.179528,0.25373 0.126249,0.1095 0.254339,0.63129 0.372586,1.24334 l 2.221056,0.0289 0.09715,-3.13417 z m -13.399701,0.15296 v 3.10679 l 1.341522,0.0176 0.03927,-3.07888 z m -77.895502,2.74143 c -2.766703,0 -4.994011,1.51149 -4.994011,3.38895 v 0.73742 c 0,0.0138 7.94e-4,0.028 0.0011,0.0419 h -0.0011 v 3.34708 h 4.994011 4.99401 v -3.3471 h -5.29e-4 c 2.43e-4,-0.0138 5.29e-4,-0.0279 5.29e-4,-0.0418 v -0.73743 c 5e-6,-1.87745 -2.227307,-3.38894 -4.99401,-3.38894 z m 84.686819,0.0909 c -0.06466,0.45728 -0.118224,1.28024 -0.12609,2.03399 h 1.64021 c 0.08852,-0.62038 0.211669,-1.40462 0.339513,-1.97507 -0.643813,-0.005 -1.286205,-0.0259 -1.853633,-0.0589 z m -60.465041,0.29508 c -1.8743401,0.005 -3.7687091,0.0827 -4.1403164,0.21497 -0.1697381,0.21646 -0.3709485,1.43691 -0.4940273,2.2903 H 0.67753879 c -0.70443459,1.23223 -1.00562303,4.54546 -1.00562303,4.54546 H 4.9108721 l 0.3126422,-3.27112 h 6.5908127 l 0.31936,3.27112 h 5.232239 c 0,0 -0.262501,-3.90187 -0.979784,-4.54546 h -3.275769 c -0.125722,-0.87146 -0.336505,-2.12499 -0.529167,-2.2903 -0.289832,-0.15437 -2.144027,-0.22049 -4.018359,-0.21497 z m 22.586733,0 c -1.87434,0.006 -3.768704,0.0827 -4.140314,0.21497 -0.169741,0.21646 -0.370948,1.4369 -0.494027,2.2903 h -3.250965 c -0.70444,1.23223 -1.005623,4.54546 -1.005623,4.54546 h 5.238956 l 0.312643,-3.27112 h 6.590813 l 0.31936,3.27112 h 5.232238 c 0,0 -0.262495,-3.90187 -0.979786,-4.54546 h -3.275769 c -0.12572,-0.87146 -0.336505,-2.12499 -0.529167,-2.2903 -0.28983,-0.15438 -2.144027,-0.22049 -4.018359,-0.21497 z m 22.587251,0 c -1.87434,0.006 -3.768704,0.0827 -4.140314,0.21497 -0.16974,0.21646 -0.370948,1.4369 -0.494027,2.2903 h -3.250964 c -0.70444,1.23223 -1.005623,4.54546 -1.005623,4.54546 h 5.238956 l 0.312642,-3.27112 h 6.590813 l 0.31936,3.27112 h 5.232239 c 0,0 -0.262496,-3.90187 -0.979787,-4.54546 h -3.275769 c -0.125719,-0.87146 -0.336505,-2.12499 -0.529167,-2.2903 -0.289837,-0.15437 -2.144027,-0.22049 -4.018359,-0.21497 z m 22.586735,0 c -1.874329,0.006 -3.768714,0.0827 -4.140316,0.21497 -0.169738,0.21645 -0.370946,1.43691 -0.494025,2.2903 h -3.250964 c -0.704432,1.23224 -1.005623,4.54546 -1.005623,4.54546 h 5.238956 l 0.312642,-3.27112 h 6.590811 l 0.319363,3.27112 h 5.232238 c 0,0 -0.262506,-3.90186 -0.979786,-4.54546 h -3.27577 c -0.125719,-0.87145 -0.336505,-2.125 -0.529166,-2.2903 -0.28983,-0.15438 -2.144019,-0.22049 -4.01836,-0.21497 z m -80.3594337,0.32918 c 0,0 -2.1157089,2.36907 -2.5414472,2.80499 0.9457795,-0.21978 2.8907316,-0.40764 5.59397417,-0.56069 0.108585,-0.33547 0.2245016,-0.64666 0.35708431,-0.88108 H 2.8443334 c 0.056269,-0.3945 0.1332018,-0.84939 0.209804,-1.27951 z m 18.2102577,0.21445 c 0.0694,0.3911 0.142078,0.79372 0.192754,1.14877 h 3.326929 c 0.09994,0.0907 0.191272,0.24246 0.276468,0.4284 1.240616,-0.006 2.514015,-0.009 3.804936,-0.009 0.06044,-0.14648 0.118967,-0.30194 0.185518,-0.41961 h 3.470071 c 0.04463,-0.31276 0.108,-0.66657 0.166399,-1.01441 z m 22.631693,0.26665 c 0.05064,0.30369 0.1094,0.60948 0.148312,0.88212 h 3.326929 c 0.130617,0.11846 0.243724,0.35115 0.349332,0.62477 1.202981,0.0259 2.407801,0.0543 3.611666,0.0853 0.09391,-0.26926 0.194707,-0.51431 0.305408,-0.71004 h 3.470072 c 0.03294,-0.23088 0.08199,-0.49187 0.122988,-0.74879 z m 25.250137,0.29714 c -0.12582,0.24228 -0.321773,0.43374 -0.556038,0.58498 h 1.367875 c 0.243959,0.22126 0.430845,0.79306 0.590145,1.45831 1.052563,0.0575 2.086443,0.11822 3.107822,0.18087 0.132557,-0.53986 0.283417,-1.04519 0.463021,-1.43144 -0.473662,-0.10184 -0.861012,-0.36815 -1.089858,-0.74724 z m 20.01325,0.23565 c 0.01746,0.11591 0.04351,0.24135 0.05891,0.34933 h 3.326413 c 0.500851,0.45424 0.79401,2.22453 0.962732,3.62097 0.516236,0.0896 1.008845,0.18108 1.473295,0.27492 l 0.589111,-4.16977 z m -60.549276,1.50533 c -1.105416,0.001 -2.204225,0.005 -3.292822,0.0129 0.424588,1.56862 0.594572,3.98813 0.604097,4.1274 h 1.964737 c 0.008,-0.0876 0.228312,-2.42986 0.723988,-4.14032 z m 19.342488,0.25684 c 0.382845,1.56953 0.546955,3.75068 0.556038,3.88348 h 1.964738 c 0.0075,-0.0817 0.196307,-2.12502 0.624252,-3.79564 -1.044569,-0.0309 -2.09215,-0.0606 -3.145028,-0.0878 z m -42.0863173,0.36535 c -0.8991203,0.041 -6.8962243,0.72009 -7.4527753,0.72037 -0.2335213,1.2e-4 -0.458761,7.9e-4 -0.6857471,0.002 v 2.79621 h 7.5716314 c 0.00706,-0.0773 0.18551,-1.89983 0.566891,-3.51813 z m 64.8482363,0.52916 c 0.250658,1.41765 0.373393,2.87988 0.380855,2.98897 h 1.964737 c 0.0061,-0.0665 0.147609,-1.41334 0.426847,-2.836 -0.90688,-0.0519 -1.829779,-0.10279 -2.772439,-0.15297 z m -97.502058,0.45992 c -2.401218,-0.005 -4.150172,1.30759 -3.328479,3.38739 l 7.647077,-2.03863 c -1.418849,-0.92879 -2.971572,-1.34599 -4.318598,-1.34876 z m 11.922271,0.38809 c -3.088132,0.42831 -5.969368,1.10536 -9.916708,2.14096 h 9.916708 z m 108.435755,0.99477 c 0.0662,0.62705 0.108201,1.08863 0.112138,1.14619 h 3.016353 c -0.353412,-0.21148 -0.749136,-0.41442 -1.192691,-0.60617 -0.04727,-0.16322 -0.725506,-0.34609 -1.9358,-0.54002 z m -121.618414,2.01125 c -0.690692,0.18515 -1.307417,0.34953 -2.066541,0.55294 -1.375735,0.19153 -2.968638,2.96794 -0.610814,4.73873 l 9.76943,0.64802 10.859283,-0.9555 1.839682,0.0801 v -1.63452 c 0,-0.86507 0.713634,-1.57924 1.578716,-1.57924 h 2.412772 c 0.865079,0 1.5787133,0.71417 1.5787133,1.57924 v 1.87792 l 1.6396944,0.0713 c 1.1673496,0.32846 2.4908986,0.60009 3.7915003,0.75499 v -2.98483 c 0,-0.74412 0.6165532,-1.36116 1.3606383,-1.36116 h 2.84944071 c 0.7441221,0 1.36063829,0.61704 1.36063829,1.36116 v 2.45929 c 0.238678,-0.14336 0.4386792,-0.31236 0.5922142,-0.50953 0,0 2.3068068,0.29757 5.6663193,0.70589 v -3.73103 c 0,-0.67373 0.5566859,-1.23042 1.2304156,-1.23042 H 10.00462 c 0.673692,0 1.230415,0.55669 1.230415,1.23042 v 4.17959 c 0.247687,0.0291 0.504627,0.0589 0.757058,0.0884 v -3.71346 c 0,-0.67373 0.556178,-1.23042 1.2299,-1.23042 h 1.290878 c 0.673719,0 1.230932,0.55669 1.230932,1.23042 v 4.14289 c 0.251452,0.0281 0.504541,0.0558 0.75706,0.0837 v -4.08657 c 0,-0.67372 0.556178,-1.23042 1.2299,-1.23042 h 1.290875 c 0.673733,0 1.2299,0.5567 1.2299,1.23042 v 4.49016 c 0.253741,0.0264 0.505391,0.0523 0.75706,0.078 v -4.61264 c 0,-0.67372 0.556694,-1.2299 1.230416,-1.2299 h 1.290359 c 0.67373,0 1.230935,0.55618 1.230935,1.2299 v 4.97747 c 0.257508,0.0235 0.511296,0.046 0.762227,0.0682 -2.01e-4,-0.009 -0.0052,-0.0164 -0.0052,-0.0253 v -5.18366 c 0,-0.67372 0.55617,-1.2299 1.2299,-1.2299 h 1.290878 c 0.67373,0 1.230931,0.55618 1.230931,1.2299 v 5.18366 c 0,0.10974 -0.03638,0.20895 -0.06408,0.31058 0.335772,0.0212 0.655788,0.0395 0.960149,0.0548 -0.0828,-0.16489 -0.139525,-0.34378 -0.139525,-0.53899 v -5.18314 c 0,-0.67372 0.556686,-1.23094 1.230415,-1.23094 h 1.290876 c 0.67373,0 1.230416,0.55722 1.230416,1.23094 v 5.18314 c 0,0.0543 -0.02453,0.10098 -0.03152,0.15348 1.303211,-0.77988 2.325442,-2.14405 2.325442,-2.14405 l 33.562808,-0.79892 3.177066,1.42007 v -2.83032 c 0,-0.67372 0.556697,-1.2299 1.230416,-1.2299 h 1.291394 c 0.67373,0 1.2299,0.55618 1.2299,1.2299 v 3.8933 l 0.84646,-5.3e-4 v -3.73569 c 0,-0.67373 0.556207,-1.23041 1.229897,-1.23041 h 1.290878 c 0.67372,0 1.230935,0.55668 1.230935,1.23041 v 3.73517 h 0.592727 v -3.79511 c 0,-0.67373 0.55617,-1.23042 1.2299,-1.23042 h 1.290876 c 0.673729,0 1.229899,0.55669 1.229899,1.23042 v 3.7946 l 5.2002,-0.001 c 0,0 3.407699,-4.16671 0.06873,-7.26157 z m 43.8521024,1.75442 c -0.1849993,0 -0.3198759,0.13438 -0.3198759,0.31936 v 3.84111 c 0.6182466,0.0746 1.2602871,0.15154 1.9301145,0.23099 v -4.0721 c 0,-0.18498 -0.134914,-0.31936 -0.319876,-0.31936 z m 22.5412586,0.31367 c -0.184999,0 -0.31936,0.13437 -0.31936,0.31936 v 5.18367 c 0,0.18499 0.134361,0.31936 0.31936,0.31936 h 1.291394 c 0.185002,0 0.319879,-0.13437 0.319879,-0.31936 v -5.18367 c 0,-0.18499 -0.134877,-0.31936 -0.319879,-0.31936 z m -4.508251,0.1726 c -0.184999,0 -0.319876,0.13489 -0.319876,0.31988 v 5.18366 c 0,0.0429 0.02877,0.07 0.04237,0.10646 0.61436,0.0513 1.202455,0.0978 1.759582,0.13797 0.0748,-0.057 0.128675,-0.13661 0.128675,-0.24443 v -5.18366 c 0,-0.18499 -0.134887,-0.31988 -0.319876,-0.31988 z m -13.525272,0.0682 c -0.184992,0 -0.31936,0.13436 -0.31936,0.31937 v 3.8194 c 0.633362,0.0732 1.278924,0.14693 1.930114,0.22066 l 0.09405,-4.15375 c 0.0042,-0.18496 -0.228936,-0.20568 -0.413927,-0.20568 z m 9.017021,0.0956 c -0.184994,0 -0.319876,0.13488 -0.319879,0.31987 v 4.70411 c 0.655833,0.0657 1.300036,0.12854 1.930117,0.1881 v -4.89221 c 0,-0.18499 -0.134887,-0.31987 -0.319879,-0.31987 z m -4.508251,0.0444 c -0.184992,0 -0.319879,0.13437 -0.319879,0.31936 v 4.18682 c 0.644528,0.0705 1.288645,0.14031 1.930114,0.20826 v -4.39508 c 0,-0.18499 -0.134366,-0.31936 -0.31936,-0.31936 z m -20.7155337,0.46095 c -0.1421421,0 -0.2387442,0.097 -0.2387442,0.23926 v 3.0887 c 1.2350803,0.0799 2.39898238,0.0335 3.32744497,-0.19327 v -2.89543 c 0,-0.14217 -0.09708621,-0.23926 -0.23926006,-0.23926 z m -10.7833183,0.062 c -0.263131,0 -0.457338,0.19474 -0.457338,0.45786 v 1.68361 l 3.326929,0.14521 v -1.82882 c 0,-0.26312 -0.193688,-0.45786 -0.456819,-0.45786 z m 87.809624,0.0796 c -0.184988,0 -0.31936,0.13436 -0.31936,0.31936 v 3.23752 l 1.467094,0.65578 h 0.46302 v -3.8933 c 0,-0.185 -0.134887,-0.31937 -0.319875,-0.31936 z m 8.942091,0.0966 c -0.184991,0 -0.319878,0.13488 -0.319878,0.31988 v 3.79511 l 1.930114,-5.3e-4 v -3.7946 c 0,-0.185 -0.134369,-0.31987 -0.31936,-0.31987 z m -4.344439,0.0599 c -0.18496,0 -0.319876,0.13438 -0.319876,0.31936 v 3.73621 l 1.930632,-5.3e-4 v -3.73569 c 0,-0.18499 -0.134887,-0.31936 -0.319878,-0.31936 z" />
      <path
         id="path2375"
         style="fill:#000000;stroke:none;stroke-width:0.243813px;stroke-linecap:butt;stroke-linejoin:miter;stroke-opacity:1"
         d="m -19.270131,215.88201 c -0.870861,0.003 -1.633914,0.049 -1.871202,0.16743 v 0.66405 c -1.439342,0.0708 -2.575412,0.2043 -2.852024,0.39532 v 0.82579 c -1.587256,0.0864 -2.736818,0.23601 -2.971395,0.46509 -0.07243,0.095 -0.150712,0.49092 -0.230476,1.05626 -0.204742,0.031 -0.381455,0.0673 -0.543636,0.10594 h -1.625741 c -0.02569,0.0229 -0.04894,0.057 -0.0708,0.10025 h -5.630664 c -0.128143,0 -0.241609,0.0366 -0.321942,0.0951 h -4.975926 c -0.244226,0 -0.439248,0.13317 -0.439248,0.29817 v 0.51573 c 0,0.16491 0.195212,0.29663 0.439248,0.29663 h 4.85707 v 0.26406 h -5.012616 c -0.244229,0 -0.440799,0.13168 -0.440799,0.29662 v 0.51574 c 0,0.1649 0.196792,0.29817 0.440799,0.29817 h 5.012616 v 0.006 c 0,0.1649 0.196762,0.29765 0.440798,0.29765 h 5.483387 c 0.04831,0.43273 0.123385,0.7459 0.218074,0.77825 h 1.780255 c -0.242618,2.96204 -0.4346,6.14898 -0.4346,6.14898 l 6.063713,-0.0703 v -0.0724 c 0,-2.11317 2.807891,-3.81423 6.296255,-3.81423 3.44741,0 6.2257017,1.66223 6.2905722,3.74085 l 0.1834515,-0.002 c 0,0 -0.8098314,-10.39347 -1.3296347,-10.85516 -0.307168,-0.13961 -1.319966,-0.26138 -2.696477,-0.35553 v -0.93534 c -0.380349,-0.19647 -1.484717,-0.32696 -2.851504,-0.39585 v -0.66352 c -0.431181,-0.0851 -1.934758,-0.17195 -3.207557,-0.16743 z m 11.2127528,13.81776 -1.3048298,0.03 v 0.43098 c 0,0.0157 -2.116e-4,0.0315 -5.291e-4,0.047 h 5.291e-4 v 0.6289 c 0.1547972,2.7e-4 0.3054536,5.3e-4 0.4630209,0.001 z m -13.8978588,0.3204 -6.104538,0.14107 -0.734838,2.14819 c 2.021631,-0.51758 4.005895,-0.8872 6.839376,-1.12706 v -0.97462 h 5.29e-4 c -2.64e-4,-0.0157 -5.29e-4,-0.0314 -5.29e-4,-0.047 z" />
      <path
         style="color:#000000;fill:#ffffff;stroke-width:1.87557;-inkscape-stroke:none"
         d="m 28.310159,231.09359 v 48.27062"
         id="path4294" />
      <path
         id="path4521"
         style="color:#000000;fill:#000000;fill-rule:evenodd;stroke-width:1.98385;-inkscape-stroke:none"
         d="m 61.514979,241.14049 -6.43433,0.15307 c -5.00635,1.50545 -8.67296,6.14668 -8.67296,11.63435 0,0.41382 0.021,0.82289 0.0617,1.22624 0.53332,5.29268 4.48012,9.59863 9.59653,10.67514 h -3.2443 v 3.59847 h 14.3962 v -3.59847 h -6.14531 c 5.50634,-1.15854 9.65819,-6.05762 9.65819,-11.90138 0,-5.68481 -3.93259,-10.46513 -9.21567,-11.78742 z m -79.202793,0.0214 -5.579633,0.49095 -3.513435,0.39757 c -1.64386,1.45512 -2.703543,3.55657 -2.703543,5.91737 0,4.37236 3.562232,7.93459 7.934591,7.93459 4.37235,0 7.93458,-3.56223 7.93458,-7.93459 0,-2.89609 -1.577552,-5.41432 -3.904324,-6.79851 z m -20.8425,0.12289 c -0.44369,0.77789 -0.772372,1.62056 -0.964492,2.5019 l 5.51e-4,-5.6e-4 c -0.190574,0.87262 -0.251942,1.76373 -0.193007,2.64384 l 7.77e-4,0.0206 0.0023,0.0204 c 0.06725,0.74783 0.273752,1.40126 0.497074,1.96711 l 7.77e-4,0.003 0.0016,0.003 c 0.329359,0.82552 0.743736,1.56533 1.168642,2.24377 l 7.77e-4,0.002 7.77e-4,0.002 c 0.475078,0.75503 0.988525,1.46525 1.516255,2.14274 l 2.839636,-2.21162 c -0.473904,-0.60839 -0.916311,-1.22221 -1.309611,-1.84717 -2.01e-4,-2.7e-4 -2.87e-4,-7.8e-4 -5.51e-4,-7.8e-4 -0.355,-0.56713 -0.65633,-1.12013 -0.872655,-1.66195 -0.144226,-0.36643 -0.229005,-0.6856 -0.254515,-0.9457 -0.03429,-0.54346 0.0031,-1.09077 0.11675,-1.61255 v -5.6e-4 c 0.141101,-0.64725 0.411905,-1.27679 0.786374,-1.83131 l 4.2e-4,-7.8e-4 7.77e-4,-7.7e-4 c 0.241244,-0.35816 0.540093,-0.68244 0.865695,-0.98565 l -3.991766,-0.26543 c -0.07946,-0.0597 -0.143372,-0.12311 -0.214023,-0.18494 z m 83.479223,0.25005 -6.98651,0.16644 c -0.0388,0.0658 -0.61701,1.03855 -1.45878,1.95279 h 8.44529 z m -42.479017,0.0363 c -1.143723,1.04426 -3.365174,1.19027 -5.685538,0.85915 -0.956142,-0.0342 -1.959307,-0.14799 -2.951929,-0.322 -4.213943,1.91303 -7.161574,6.14844 -7.161574,11.06645 0,6.70156 5.459922,12.16147 12.161477,12.16147 h 0.0047 v 3.09152 H 13.23322 v -3.59846 H 2.305762 c 4.715712,-1.40975 8.242434,-5.61156 8.648602,-10.67515 0.02589,-0.32313 0.03966,-0.64973 0.03966,-0.97938 0,-5.43499 -3.591761,-10.05203 -8.523913,-11.6036 z m -24.019726,0.11147 c 3.480857,0 6.284735,2.80429 6.284735,6.28516 0,3.48086 -2.803878,6.28502 -6.284735,6.28502 -3.480866,0 -6.285164,-2.80416 -6.285164,-6.28502 0,-3.48087 2.804298,-6.28516 6.285164,-6.28516 z m 0,0.70636 a 5.5786879,5.5786879 0 0 0 -5.578663,5.5788 5.5786879,5.5786879 0 0 0 5.578663,5.57866 5.5786879,5.5786879 0 0 0 5.578654,-5.57866 5.5786879,5.5786879 0 0 0 -5.578654,-5.5788 z m 33.704342,0.19733 v 1.06774 h 7.966314 c -1.753513,-0.24179 -3.482602,-0.49048 -5.174689,-0.7385 -1.045392,-0.11748 -1.791484,-0.2129 -2.791625,-0.32924 z m 61.014871,0.177 c -1.63588,1.45315 -2.67168,3.56631 -2.67168,5.91959 0,4.37235 3.56222,7.93459 7.93458,7.93459 4.37235,0 7.93458,-3.56224 7.93458,-7.93459 0,-1.79964 -0.61043,-3.45652 -1.62548,-4.78978 l -2.27564,2.8e-4 c 1.36677,1.1513 2.25129,2.85514 2.25129,4.7895 0,3.48086 -2.80389,6.28516 -6.28475,6.28516 -3.48085,0 -6.28502,-2.8043 -6.28502,-6.28516 0,-2.20297 1.12921,-4.12286 2.83797,-5.24078 h -0.29711 z m -94.719213,0.33134 a 1.072107,1.072107 0 0 1 1.072059,1.07206 1.072107,1.072107 0 0 1 -1.072059,1.07206 1.072107,1.072107 0 0 1 -1.072068,-1.07206 1.072107,1.072107 0 0 1 1.072068,-1.07206 z m 80.119003,0.19996 c 5.33516,0 9.63272,4.29812 9.63272,9.63328 0,5.33515 -4.29756,9.63326 -9.63272,9.63326 -4.91958,0 -8.95742,-3.65464 -9.5566,-8.40702 -0.0506,-0.40144 -0.0767,-0.81068 -0.0767,-1.22624 0,-5.33516 4.29811,-9.63328 9.63327,-9.63328 z m 18.66887,0.14709 -0.33342,1.4e-4 a 5.5786879,5.5786879 0 0 0 -4.051,5.24106 5.5786879,5.5786879 0 0 0 5.57866,5.57867 5.5786879,5.5786879 0 0 0 5.57866,-5.57867 5.5786879,5.5786879 0 0 0 -2.89794,-4.78922 l -2.47713,4.2e-4 a 1.072107,1.072107 0 0 1 0.86848,0.98773 1.072107,1.072107 0 0 1 -1.07207,1.07221 1.072107,1.072107 0 0 1 -1.07207,-1.07221 1.072107,1.072107 0 0 1 0.86834,-0.98759 h -0.20316 z m -78.405711,0.0999 c 5.335156,0 9.632718,4.29798 9.632718,9.63314 0,0.33069 -0.01656,0.65743 -0.04883,0.97938 -0.487992,4.87212 -4.579414,8.65389 -9.583875,8.65389 -5.335155,0 -9.633269,-4.29812 -9.633269,-9.63327 0,-5.33516 4.298114,-9.63314 9.633269,-9.63314 z m -23.014173,0.80307 a 1.072107,1.072107 0 0 1 1.072199,1.07208 1.072107,1.072107 0 0 1 -1.072199,1.07206 1.072107,1.072107 0 0 1 -1.072068,-1.07206 1.072107,1.072107 0 0 1 1.072068,-1.07208 z m 5.282806,0 a 1.072107,1.072107 0 0 1 1.072068,1.07208 1.072107,1.072107 0 0 1 -1.072068,1.07206 1.072107,1.072107 0 0 1 -1.07206,-1.07206 1.072107,1.072107 0 0 1 1.07206,-1.07208 z m 77.468208,0.0327 a 8.5505186,8.5505186 0 0 0 -8.55049,8.55051 8.5505186,8.5505186 0 0 0 0.0891,1.22624 8.5505186,8.5505186 0 0 0 8.46143,7.32425 8.5505186,8.5505186 0 0 0 8.55049,-8.55049 8.5505186,8.5505186 0 0 0 -8.55049,-8.55051 z m -59.736841,0.24687 a 8.5505186,8.5505186 0 0 0 -8.550496,8.55049 8.5505186,8.5505186 0 0 0 8.550496,8.55064 8.5505186,8.5505186 0 0 0 8.550496,-8.55064 8.5505186,8.5505186 0 0 0 -8.550496,-8.55049 z m 76.967941,0.43557 a 1.072107,1.072107 0 0 1 1.0722,1.07206 1.072107,1.072107 0 0 1 -1.0722,1.0722 1.072107,1.072107 0 0 1 -1.07207,-1.0722 1.072107,1.072107 0 0 1 1.07207,-1.07206 z m 5.2828,0 a 1.072107,1.072107 0 0 1 1.07222,1.07206 1.072107,1.072107 0 0 1 -1.07222,1.0722 1.072107,1.072107 0 0 1 -1.07205,-1.0722 1.072107,1.072107 0 0 1 1.07205,-1.07206 z m -22.5139,0.39896 a 1.6432303,1.6432303 0 0 1 1.64316,1.64316 1.6432303,1.6432303 0 0 1 -1.64316,1.6433 1.6432303,1.6432303 0 0 1 -1.6433,-1.6433 1.6432303,1.6432303 0 0 1 1.6433,-1.64316 z m -46.414661,0.0708 v 2.90546 h 15.459361 v -2.90546 z m 17.334911,0 v 2.90546 h 15.45949 v -2.90546 z m -30.657091,0.17603 a 1.6432303,1.6432303 0 0 1 1.643168,1.64331 1.6432303,1.6432303 0 0 1 -1.643168,1.64317 1.6432303,1.6432303 0 0 1 -1.643299,-1.64317 1.6432303,1.6432303 0 0 1 1.643299,-1.64331 z m 96.071941,0.0505 -1.3e-4,1.5e-4 -3.59011,0.25451 c 0.0166,0.23418 0.0242,0.46398 0.0215,0.68897 -0.006,0.42238 -0.0571,0.76845 -0.1347,1.06246 -0.22164,0.45322 -0.50857,0.92238 -0.86138,1.43221 -0.71251,1.01585 -1.5183,2.0012 -2.36734,2.98783 -1.21696,1.4079 -2.49765,2.77402 -3.8168,4.11612 l 2.56662,2.52236 c 1.35816,-1.38179 2.69206,-2.8028 3.97306,-4.28478 l 0.002,-0.002 7.7e-4,-0.002 c 0.88838,-1.03223 1.77409,-2.10968 2.59181,-3.27602 l 0.003,-0.004 0.003,-0.005 c 0.42472,-0.61343 0.87624,-1.29757 1.24699,-2.1021 l 0.0515,-0.1116 0.0358,-0.11717 c 0.2347,-0.77049 0.29412,-1.50598 0.30404,-2.16375 v -0.003 l 5.7e-4,-0.002 c 0.004,-0.33566 -0.007,-0.66642 -0.0304,-0.99136 z m -120.255176,1.13942 a 1.072107,1.072107 0 0 1 1.072208,1.0722 1.072107,1.072107 0 0 1 -1.072208,1.07207 1.072107,1.072107 0 0 1 -1.07206,-1.07207 1.072107,1.072107 0 0 1 1.07206,-1.0722 z m 7.602136,0 a 1.072107,1.072107 0 0 1 1.072069,1.0722 1.072107,1.072107 0 0 1 -1.072069,1.07207 1.072107,1.072107 0 0 1 -1.072199,-1.07207 1.072107,1.072107 0 0 1 1.072199,-1.0722 z m 72.28379,0.47911 a 1.6432303,1.6432303 0 0 1 1.6433,1.64331 1.6432303,1.6432303 0 0 1 -1.6433,1.64317 1.6432303,1.6432303 0 0 1 -1.64317,-1.64317 1.6432303,1.6432303 0 0 1 1.64317,-1.64331 z m 8.09697,0 a 1.6432303,1.6432303 0 0 1 1.64331,1.64331 1.6432303,1.6432303 0 0 1 -1.64331,1.64317 1.6432303,1.6432303 0 0 1 -1.64315,-1.64317 1.6432303,1.6432303 0 0 1 1.64315,-1.64331 z m 11.99922,0.23616 a 1.072107,1.072107 0 0 1 1.07221,1.07206 1.072107,1.072107 0 0 1 -1.07221,1.07207 1.072107,1.072107 0 0 1 -1.07206,-1.07207 1.072107,1.072107 0 0 1 1.07206,-1.07206 z m 7.60214,0 a 1.072107,1.072107 0 0 1 1.07207,1.07206 1.072107,1.072107 0 0 1 -1.07207,1.07207 1.072107,1.072107 0 0 1 -1.07206,-1.07207 1.072107,1.072107 0 0 1 1.07206,-1.07206 z m -87.43518,0.0109 a 1.6432303,1.6432303 0 0 1 1.643306,1.64317 1.6432303,1.6432303 0 0 1 -1.643306,1.6433 1.6432303,1.6432303 0 0 1 -1.64316,-1.6433 1.6432303,1.6432303 0 0 1 1.64316,-1.64317 z m 8.096986,0 a 1.6432303,1.6432303 0 0 1 1.643299,1.64317 1.6432303,1.6432303 0 0 1 -1.643299,1.6433 1.6432303,1.6432303 0 0 1 -1.643167,-1.6433 1.6432303,1.6432303 0 0 1 1.643167,-1.64317 z m -27.077,1.82491 a 1.072107,1.072107 0 0 1 1.072199,1.07206 1.072107,1.072107 0 0 1 -1.072199,1.07221 1.072107,1.072107 0 0 1 -1.072068,-1.07221 1.072107,1.072107 0 0 1 1.072068,-1.07206 z m 5.282806,0 a 1.072107,1.072107 0 0 1 1.072068,1.07206 1.072107,1.072107 0 0 1 -1.072068,1.07221 1.072107,1.072107 0 0 1 -1.07206,-1.07221 1.072107,1.072107 0 0 1 1.07206,-1.07206 z m 94.699308,0.71526 a 1.072107,1.072107 0 0 1 1.0722,1.07206 1.072107,1.072107 0 0 1 -1.0722,1.07207 1.072107,1.072107 0 0 1 -1.07207,-1.07207 1.072107,1.072107 0 0 1 1.07207,-1.07206 z m 5.2828,0 a 1.072107,1.072107 0 0 1 1.07222,1.07206 1.072107,1.072107 0 0 1 -1.07222,1.07207 1.072107,1.072107 0 0 1 -1.07205,-1.07207 1.072107,1.072107 0 0 1 1.07205,-1.07206 z m -68.928561,0.14876 v 2.90559 h 15.459361 v -2.90559 z m 17.334911,0 v 2.90559 h 15.45949 v -2.90559 z m -51.039253,0.38602 a 1.072107,1.072107 0 0 1 1.072059,1.07206 1.072107,1.072107 0 0 1 -1.072059,1.07221 1.072107,1.072107 0 0 1 -1.072068,-1.07221 1.072107,1.072107 0 0 1 1.072068,-1.07206 z m 74.293063,0.58794 a 1.6432303,1.6432303 0 0 1 1.64331,1.6433 1.6432303,1.6432303 0 0 1 -0.57431,1.22625 1.6432303,1.6432303 0 0 1 -1.069,0.41691 1.6432303,1.6432303 0 0 1 -1.06887,-0.41691 1.6432303,1.6432303 0 0 1 -0.5743,-1.22625 1.6432303,1.6432303 0 0 1 1.64317,-1.6433 z m 11.65174,0 a 1.6432303,1.6432303 0 0 1 1.64331,1.6433 1.6432303,1.6432303 0 0 1 -1.64331,1.64316 1.6432303,1.6432303 0 0 1 -1.64315,-1.64316 1.6432303,1.6432303 0 0 1 1.64315,-1.6433 z m 14.03731,0.12733 a 1.072107,1.072107 0 0 1 1.07207,1.07207 1.072107,1.072107 0 0 1 -1.07207,1.07206 1.072107,1.072107 0 0 1 -1.07207,-1.07206 1.072107,1.072107 0 0 1 1.07207,-1.07207 z m -85.42589,0.11967 a 1.6432303,1.6432303 0 0 1 1.6433,1.64317 1.6432303,1.6432303 0 0 1 -1.6433,1.64329 1.6432303,1.6432303 0 0 1 -1.643167,-1.64329 1.6432303,1.6432303 0 0 1 1.643167,-1.64317 z m 11.651739,0 a 1.6432303,1.6432303 0 0 1 1.643306,1.64317 1.6432303,1.6432303 0 0 1 -1.643306,1.64329 1.6432303,1.6432303 0 0 1 -1.64316,-1.64329 1.6432303,1.6432303 0 0 1 1.64316,-1.64317 z m -36.075993,1.70898 -2.642313,2.44305 c 1.408579,1.52354 2.886433,2.96554 4.399999,4.3506 l 7.77e-4,7.8e-4 5.6e-4,4.2e-4 c 1.628084,1.4867 3.310088,2.91898 5.049588,4.28393 l 7.77e-4,4.2e-4 5.6e-4,5.5e-4 c 0.501069,0.39254 1.008709,0.78077 1.52571,1.16239 l 2.137448,-2.8953 c -0.484057,-0.35729 -0.964251,-0.72446 -1.442633,-1.0992 l -7.78e-4,-7.8e-4 c -1.663133,-1.30509 -3.276692,-2.67852 -4.842381,-4.1082 l -0.0016,-7.7e-4 c -1.456054,-1.33247 -2.861422,-2.70489 -4.185976,-4.13755 z m 43.572373,1.8512 v 2.90546 h 15.459361 v -2.90546 z m 17.334911,0 v 2.90546 h 15.45949 v -2.90546 z m 25.0456,0.10285 a 1.6432303,1.6432303 0 0 1 1.6433,1.64316 1.6432303,1.6432303 0 0 1 -1.6433,1.64317 1.6432303,1.6432303 0 0 1 -1.64317,-1.64317 1.6432303,1.6432303 0 0 1 1.64317,-1.64316 z m 8.09697,0 a 1.6432303,1.6432303 0 0 1 1.64331,1.64316 1.6432303,1.6432303 0 0 1 -1.64331,1.64317 1.6432303,1.6432303 0 0 1 -1.64315,-1.64317 1.6432303,1.6432303 0 0 1 1.64315,-1.64316 z m -67.83382,0.24686 a 1.6432303,1.6432303 0 0 1 1.643306,1.64331 1.6432303,1.6432303 0 0 1 -1.643306,1.64316 1.6432303,1.6432303 0 0 1 -1.64316,-1.64316 1.6432303,1.6432303 0 0 1 1.64316,-1.64331 z m 8.096986,0 a 1.6432303,1.6432303 0 0 1 1.643299,1.64331 1.6432303,1.6432303 0 0 1 -1.643299,1.64316 1.6432303,1.6432303 0 0 1 -1.643167,-1.64316 1.6432303,1.6432303 0 0 1 1.643167,-1.64331 z m 55.674014,1.66906 a 1.6432303,1.6432303 0 0 1 1.64316,1.64316 1.6432303,1.6432303 0 0 1 -1.64316,1.6433 1.6432303,1.6432303 0 0 1 -1.6433,-1.6433 1.6432303,1.6432303 0 0 1 1.6433,-1.64316 z m -59.736841,0.24685 a 1.6432303,1.6432303 0 0 1 1.643168,1.64331 1.6432303,1.6432303 0 0 1 -1.643168,1.64317 1.6432303,1.6432303 0 0 1 -1.643299,-1.64317 1.6432303,1.6432303 0 0 1 1.643299,-1.64331 z m 82.798481,1.4272 -0.1073,0.10256 c -1.54233,1.46395 -3.10303,2.88161 -4.72201,4.19752 -0.002,7.8e-4 -0.003,0.003 -0.004,0.003 -0.75658,0.6065 -1.47352,1.16361 -2.19118,1.60142 -0.18278,0.1026 -0.23283,0.12592 -0.25869,0.13999 h -3.53124 v 3.59846 h 4.06505 l 0.20414,-0.0479 c 0.66377,-0.1566 1.08445,-0.43722 1.34273,-0.58586 l 0.0189,-0.011 0.0189,-0.0111 c 0.97051,-0.59044 1.81034,-1.25732 2.5918,-1.88391 l 0.005,-0.004 0.005,-0.004 c 1.72545,-1.40222 3.35625,-2.88587 4.93868,-4.38803 l 0.003,-0.003 0.10993,-0.1052 z m -69.476301,1.08821 v 3.14925 h 15.459361 v -3.14925 z m 17.334911,0 v 3.14925 h 15.45949 v -3.14925 z m -47.637569,4.59718 -1.756154,3.14146 c 0.389879,0.21796 0.895731,0.51814 1.579427,0.72278 l 0.02464,0.007 0.08154,0.022 0.265649,0.0647 h 13.19068 v -3.59847 h -12.646844 c -0.179261,-0.0671 -0.400787,-0.17027 -0.738922,-0.3593 z m 34.98014,0.3593 v 3.59846 h 14.395779 v -3.59846 z m 17.994799,0 v 3.59846 h 14.39619 v -3.59846 z" />
      <path
         id="rect6109"
         style="stroke-width:0.835094;stroke-linecap:round;stop-color:#000000"
         d="m 66.345314,212.85894 v 0.57671 c -1.74602,0.13533 -3.383312,0.33142 -4.771284,0.59893 -0.351502,0.39124 -0.316309,2.08958 0,2.23862 h 4.943882 c 1.971361,-1.09822 6.997708,-1.02087 8.629965,0 h 7.8481 c 0.283649,-0.095 0.295759,-1.76269 0,-2.23862 -1.146402,-0.27995 -2.837492,-0.49483 -4.804873,-0.63614 v -0.5395 z" />
      <path
         id="rect6816"
         style="fill:#000000;stroke:none;stroke-width:0.799999;stroke-linecap:round;stroke-miterlimit:4;stroke-dasharray:none;stop-color:#000000"
         d="m 77.761156,206.32704 c -0.12406,0 -0.245464,0.0104 -0.363802,0.03 l 0.115755,5.3e-4 1.389063,6.01359 h 1.773018 c 1.216213,0 2.195213,-0.979 2.195213,-2.19522 v -1.65364 c 0,-1.21621 -0.979,-2.19522 -2.195213,-2.19522 z" />
      <path
         id="rect6947-7"
         style="fill:#000000;stroke-width:0.799999;stroke-linecap:round;stop-color:#000000"
         d="m 70.275959,206.22013 6.58359,0.0306 1.41098,6.10722 h -7.99457 z"
         sodipodi:nodetypes="ccccc" />
      <path
         id="rect7285"
         style="stroke-width:0.799999;stroke-linecap:round;stop-color:#000000"
         d="m 60.786482,207.40501 c -0.841941,1.2769 -0.826722,2.69912 0,3.76825 h 12.108304 v -3.76825 H 69.51153 l -1.309481,1.38131 a 0.25,0.25 0 0 1 -0.353468,0.01 0.25,0.25 0 0 1 -0.01035,-0.35399 l 0.983404,-1.03714 h -0.941028 l -1.309481,1.38131 a 0.24999999,0.24999999 0 0 1 -0.353468,0.01 0.24999999,0.24999999 0 0 1 -0.01035,-0.35399 l 0.983401,-1.03714 h -0.941028 l -1.309481,1.38131 a 0.24999999,0.24999999 0 0 1 -0.353465,0.01 0.24999999,0.24999999 0 0 1 -0.01034,-0.35398 l 0.983403,-1.03715 H 64.61722 l -1.309997,1.38131 a 0.24999999,0.24999999 0 0 1 -0.351401,0.01 0.24999999,0.24999999 0 0 1 -0.0098,-0.35398 L 63.929414,207.405 H 62.98632 l -1.309997,1.38131 a 0.24999999,0.24999999 0 0 1 -0.353467,0.01 0.24999999,0.24999999 0 0 1 -0.0078,-0.35399 l 0.983403,-1.03714 z" />
      <path
         id="rect7668"
         style="stroke-width:0.799999;stroke-linecap:round;stop-color:#000000"
         d="m 62.978059,210.01486 10.784,0.1002 v 1.8459 l -6.17223,0.25087 z"
         sodipodi:nodetypes="ccccc" />
    </g>
  </g>
</svg>
