<?xml version="1.0" encoding="UTF-8" standalone="no"?>
<!-- Created with Inkscape (http://www.inkscape.org/) -->

<svg
   width="60mm"
   height="42mm"
   viewBox="0 0 60 42"
   version="1.1"
   id="svg8"
   inkscape:version="1.1.2 (0a00cf5339, 2022-02-04)"
   sodipodi:docname="Sortek.svg"
   xmlns:inkscape="http://www.inkscape.org/namespaces/inkscape"
   xmlns:sodipodi="http://sodipodi.sourceforge.net/DTD/sodipodi-0.dtd"
   xmlns="http://www.w3.org/2000/svg"
   xmlns:svg="http://www.w3.org/2000/svg"
   xmlns:rdf="http://www.w3.org/1999/02/22-rdf-syntax-ns#"
   xmlns:cc="http://creativecommons.org/ns#"
   xmlns:dc="http://purl.org/dc/elements/1.1/">
  <defs
     id="defs2" />
  <sodipodi:namedview
     id="base"
     pagecolor="#ffffff"
     bordercolor="#666666"
     borderopacity="1.0"
     inkscape:pageopacity="1"
     inkscape:pageshadow="2"
     inkscape:zoom="2"
     inkscape:cx="191.75"
     inkscape:cy="142.5"
     inkscape:document-units="mm"
     inkscape:current-layer="layer1"
     showgrid="false"
     inkscape:window-width="1920"
     inkscape:window-height="1043"
     inkscape:window-x="1920"
     inkscape:window-y="1080"
     inkscape:window-maximized="1"
     inkscape:snap-global="false"
     showguides="true"
     inkscape:pagecheckerboard="0" />
  <metadata
     id="metadata5">
    <rdf:RDF>
      <cc:Work
         rdf:about="">
        <dc:format>image/svg+xml</dc:format>
        <dc:type
           rdf:resource="http://purl.org/dc/dcmitype/StillImage" />
      </cc:Work>
    </rdf:RDF>
  </metadata>
  <g
     inkscape:label="Capa 1"
     inkscape:groupmode="layer"
     id="layer1"
     transform="translate(0,-255)">
    <g
       id="g20761"
       transform="matrix(0.74762562,0,0,0.74762562,7.8528995,75.699371)">
      <g
         id="g20720">
        <path
           id="path11514"
           style="display:inline;fill:#000000;stroke:none;stroke-width:0.999999px;stroke-linecap:butt;stroke-linejoin:miter;stroke-opacity:1"
           d="m 173.76562,11.482422 c -0.18627,0.0022 -0.32818,0.01308 -0.4121,0.03516 0,0 -1.15899,1.373979 -1.74219,2.242188 -8.9336,-0.744666 -19.9108,-1.540331 -22.78711,-1.552735 -0.0827,-3.5e-4 -0.15766,-8.93e-4 -0.22656,0 -0.20673,0.0027 -0.35136,0.01194 -0.42578,0.02734 0,0.421984 -1.82227,2.949219 -1.82227,2.949219 l -2.08594,0.0918 c -0.39389,-0.125859 -1.3472,2.081721 -0.66211,2.578125 l 3.16406,1.654296 -0.2539,4.322266 3.14258,0.273438 c 0.75837,0.06575 1.30854,0.726968 1.23242,1.484375 l -0.76563,7.621093 c -0.0415,0.412634 -0.26148,0.764907 -0.57421,0.990235 L 152.41797,35 l 0.53711,-6.587891 5.55469,-3.189453 c -0.11345,-0.214161 -0.17151,-0.461374 -0.14844,-0.720703 l 0.45898,-5.175781 c 0.0647,-0.727824 0.7223,-1.280295 1.45117,-1.228516 l 24.88672,1.769532 c 0.28014,-1.199884 0.31545,-3.424561 -0.0664,-3.871094 l -1.22071,-1.015625 c -0.14698,-0.0701 -1.38458,-0.213199 -3.00195,-0.38086 -0.62515,-1.027437 -1.80398,-2.42235 -2.18555,-2.470703 -0.1852,-0.23649 -3.61401,-0.661871 -4.91797,-0.646484 z m -44.20117,7.626953 c -0.5277,-5.32e-4 -1.03124,0.101192 -1.3457,0.341797 l -0.70313,2.732422 4.50782,0.390625 c -0.0136,-1.231952 -0.0943,-2.588393 -0.37891,-2.785157 -0.25361,-0.394462 -1.20058,-0.678801 -2.08008,-0.679687 z m 30.61524,0.0332 c -0.16505,-0.01209 -0.28995,0.09303 -0.30469,0.257813 l -0.46094,5.177734 c -0.004,0.04298 4.2e-4,0.08116 0.0117,0.117187 l 0.6582,-0.376953 c 0,0 5.03752,0.680837 10.41211,1.328125 l 12.7168,0.904297 c -0.3464,-1.072257 0.64258,-5.710937 0.64258,-5.710937 0,0 0.0697,0.0016 0.17187,-0.0039 z"
           transform="matrix(0.26458333,0,0,0.26458333,0,255)" />
        <path
           id="rect11256"
           style="display:inline;fill:#000000;stroke:none;stroke-width:2.13543;stroke-miterlimit:4;stroke-dasharray:none;stop-color:#000000"
           d="m 132.55078,8.546875 c -0.5388,0.016816 -1.14145,0.2585198 -1.61523,0.7714844 0,0 -1.03259,1.4153586 -1.60743,2.1640626 l -0.54882,-0.05664 c -0.0404,-0.0041 -0.0813,-0.0058 -0.1211,-0.0059 -0.59637,-6.29e-4 -1.10414,0.448167 -1.16601,1.054687 l -0.60352,5.916016 c -0.046,0.451266 0.16843,0.865552 0.52149,1.097656 l 0.1289,-0.5 0.13867,-0.109375 c 0.62015,-0.47433 1.9603,-0.438994 2.73829,-0.34375 0.38899,0.04762 0.76498,0.140776 1.09179,0.273438 0.28781,0.116712 0.52925,0.279658 0.72461,0.523437 0.19298,0.166564 0.27203,0.344666 0.32422,0.523438 0.059,0.202015 0.094,0.426837 0.125,0.679687 0.0619,0.505323 0.0929,1.110408 0.10352,1.705078 0.003,0.163626 -5.9e-4,0.258055 0,0.400391 l 12.98046,1.125 0.24219,-4.134766 -2.9082,-1.519531 -0.0293,-0.02344 c -0.35856,-0.259805 -0.45018,-0.675664 -0.45117,-1.033203 -9.8e-4,-0.357582 0.0775,-0.717176 0.19141,-1.054688 0.11393,-0.337398 0.26528,-0.652139 0.43554,-0.902344 0.0852,-0.125102 0.16786,-0.231496 0.29493,-0.332031 0.10893,-0.08586 0.29354,-0.191367 0.51953,-0.164063 l 1.78515,-0.08008 c 0.10827,-0.151219 0.37985,-0.536524 0.75977,-1.107422 0.0353,-0.05311 0.0686,-0.104766 0.10351,-0.158203 l -11.33593,-1.15625 c -0.45217,-0.93849 -1.55664,-2.896484 -1.55664,-2.896484 -0.1911,-0.4360287 -0.69207,-0.6741506 -1.26563,-0.65625 z m -1.05859,5.839844 c 0.0441,-6.89e-4 0.0879,8e-5 0.13281,0.0039 l 8.33789,0.710937 c 0.71864,0.06122 1.24872,0.689565 1.1875,1.408204 l -0.0195,0.216796 c -0.0612,0.718639 -0.68956,1.248718 -1.4082,1.1875 l -8.33789,-0.710937 c -0.71864,-0.06122 -1.24677,-0.687611 -1.18555,-1.40625 l 0.0176,-0.21875 c 0.0574,-0.673724 0.61405,-1.18107 1.27539,-1.191406 z m 6.57617,4.152343 4.67187,0.449219 c 0.59752,0.05735 1.03197,0.58413 0.97461,1.181641 -0.0574,0.597511 -0.58413,1.031963 -1.18164,0.974609 l -4.67187,-0.447265 c -0.59751,-0.05735 -1.03197,-0.58413 -0.97461,-1.181641 0.0574,-0.597511 0.58413,-1.033916 1.18164,-0.976563 z"
           transform="matrix(0.26458333,0,0,0.26458333,0,255)" />
        <rect
           style="display:inline;fill:#000000;stroke:none;stroke-width:0.534681;stroke-miterlimit:4;stroke-dasharray:none;stop-color:#000000"
           id="rect11071-6"
           width="6.7986202"
           height="2.6090014"
           x="58.906559"
           y="257.18613"
           ry="0.34445509"
           transform="matrix(0.99626216,0.08638105,-0.09999564,0.99498788,0,-6.458333e-7)" />
        <path
           id="path15501"
           style="display:inline;fill:#000000;stroke:none;stroke-width:0.999999px;stroke-linecap:butt;stroke-linejoin:miter;stroke-opacity:1"
           d="m 160.51758,25.626953 -6.35938,3.513672 -0.74804,6.904297 6.08789,5.40039 4.32226,0.302735 a 6.4792911,6.4792911 0 0 1 -0.25976,-1.783203 6.4792911,6.4792911 0 0 1 6.48047,-6.478516 6.4792911,6.4792911 0 0 1 6.47851,6.478516 6.4792911,6.4792911 0 0 1 -0.55859,2.632812 l 3.80468,0.265625 4.1211,-11.283203 c 0.76598,-1.278756 0.82185,-3.636858 0.0293,-3.65039 z"
           transform="matrix(0.26458333,0,0,0.26458333,0,255)" />
        <path
           id="path19128"
           style="display:inline;fill:#000000;stroke:none;stroke-width:0.999999px;stroke-linecap:butt;stroke-linejoin:miter;stroke-opacity:1"
           d="m 124.97656,18.027344 -0.66601,4.152344 c 0.39498,-0.495987 1.44108,-0.549447 2.17383,-0.330079 l 0.41601,-1.804687 c -0.3101,-0.06245 -0.98532,-0.480462 -0.99609,-1.779297 -0.49649,-0.134781 -0.92774,-0.238281 -0.92774,-0.238281 z m -1.14844,5.580078 -1.12304,6.978516 5.89062,0.916015 c 0,0 1.72707,-7.650445 1.51758,-7.605469 -0.2095,0.04498 -6.28515,-0.289061 -6.28516,-0.289062 z"
           transform="matrix(0.26458333,0,0,0.26458333,0,255)" />
        <path
           id="rect20686"
           style="display:inline;fill:#000000;stroke:none;stroke-width:0.487556;stroke-linecap:round;stroke-miterlimit:4;stroke-dasharray:none;stop-color:#000000"
           d="m 24.354789,7.465997 5.16e-4,5.168e-4 c -0.146378,0.009 -0.27006,0.1201012 -0.290938,0.2713013 l -0.0021,0.015503 c -0.02386,0.1727899 0.09593,0.331157 0.268717,0.3550171 l 2.697511,0.3725871 c -0.0066,0.068238 0.0091,0.1333529 0.04134,0.1886188 0.128302,-0.027137 0.265023,-0.05318 0.411864,-0.078031 0.510508,-0.08639 1.124106,-0.1570572 1.783352,-0.2144572 0.805246,-0.070039 1.677824,-0.1185143 2.509409,-0.1457275 L 30.97554,8.085598 c -0.0334,-0.006 -0.06445,-0.015939 -0.09405,-0.028939 L 27.469327,7.5853696 c -0.168439,-0.0232 -0.323162,0.090595 -0.352949,0.2563151 l -2.697511,-0.372587 c -0.0216,-0.003 -0.04317,-0.0041 -0.06408,-0.0031 z"
           sodipodi:nodetypes="cccccccccccccccsc"
           transform="translate(0,255)" />
        <path
           id="rect17100"
           style="stroke-width:1.00157;stop-color:#000000"
           d="m 174.49414,44.396484 -10.55664,0.265625 c -0.12581,1.169373 -0.0267,2.619001 0.0957,4.087891 0.0954,-0.28989 0.36689,-0.498047 0.68946,-0.498047 h 1.77929 c 0.40242,0 0.72657,0.324141 0.72657,0.726563 v 1.007812 h 2.19531 v -0.05469 c 0,-0.378692 0.3049,-0.683594 0.68359,-0.683594 h 1.86524 c 0.19487,0 0.36984,0.08095 0.49414,0.210937 l 1.82422,-1.615234 c 0.1726,-1.276243 0.29182,-2.494035 0.20312,-3.447266 z m -0.50781,5.5625 -0.85547,0.757813 0.20312,2.619141 c 0.10624,-0.0069 0.21435,-0.01283 0.31641,-0.02148 0,-0.955048 0.15628,-2.132425 0.33594,-3.355469 z"
           transform="matrix(0.26458333,0,0,0.26458333,0,255)" />
        <path
           id="path16179"
           style="fill:#000000;stroke:none;stroke-width:0.999999px;stroke-linecap:butt;stroke-linejoin:miter;stroke-opacity:1"
           d="m 137.12109,34.496094 c 0.032,0.150937 0.0657,0.302044 0.0996,0.453125 l 2.25782,0.04883 c 0.90043,0.846372 2.14441,9.514983 2.45117,11.732422 3.94494,-0.0033 10.92421,-6e-4 11.33008,0 1.49493,0.0022 2.69726,1.204264 2.69726,2.699219 v 0.933593 l 0.0879,0.02344 2.13867,-1.833985 5.41797,2.353516 c 0,0 -0.3664,-7.973463 -0.7207,-8.042969 -0.35429,-0.06954 -4.39649,-0.5 -4.39648,-0.5 l -6.84766,-6.414062 c -0.38623,-0.05972 -14.51563,-1.453125 -14.51563,-1.453125 z"
           transform="matrix(0.26458333,0,0,0.26458333,0,255)" />
        <path
           id="path10672"
           style="fill:#000000;stroke:none;stroke-width:0.999999px;stroke-linecap:butt;stroke-linejoin:miter;stroke-opacity:1"
           d="m 128.95117,31.53125 c -9.06861,0.0012 -22.63066,0.868301 -26.1582,2.587891 v 11.320312 h 29.32617 c 0.33512,-3.66896 1.32863,-9.992828 1.78906,-10.560547 l 2.4336,0.05273 v -3.060547 c -1.4166,-0.226649 -4.11049,-0.340284 -7.39063,-0.339844 z"
           transform="matrix(0.26458333,0,0,0.26458333,0,255)" />
        <path
           id="rect9660"
           style="fill:#000000;stroke:none;stroke-width:4.2895;stroke-miterlimit:4;stroke-dasharray:none;stop-color:#000000"
           d="m 100.25195,34.660156 c -0.918581,0 -1.6582,0.737648 -1.6582,1.65625 v 12.466797 c 1.206099,0.137015 2.25814,0.260842 3.31641,0.388672 v -0.08203 c 4.00095,0.480177 6.87695,0.871093 6.87695,0.871094 l 0.61914,0.08789 -0.0449,1.089844 h 14.72656 v 18.826172 h 4.29297 c 1.46588,0 2.64453,-1.180595 2.64453,-2.646485 V 49.207031 c 0,-1.46589 -1.17865,-2.644531 -2.64453,-2.644531 h -26.4707 V 36.316406 c 0,-0.918602 -0.7396,-1.65625 -1.65821,-1.65625 z m -1.888669,0.949219 -11.898437,1.322266 -21.806641,13.826171 2.398438,6.21875 1.685547,-1.560546 -1.462891,-3.78711 19.916015,-12.630859 8.947266,-0.996094 -0.359375,10.458985 c 0.134647,0.0143 0.276212,0.02665 0.410156,0.04102 0.662926,0.07107 1.087044,0.131549 1.726563,0.203125 z M 62.046875,49.800781 c -0.426678,0.0111 -0.908529,0.235893 -1.017578,0.890625 l -0.675781,12.488282 5.789062,-5.357422 -3.435547,-7.8125 c -0.101798,-0.124844 -0.368218,-0.216581 -0.660156,-0.208985 z m -2.208984,1.119141 -11.900391,1.322266 -21.804688,13.833984 3.453126,8.953125 9.394531,-0.40625 c -0.167721,-0.220358 -0.340708,-0.441497 -0.46875,-0.662109 -0.299593,-0.516207 -0.491346,-1.004059 -0.634766,-1.427735 l -6.851562,0.296875 -2.273438,-5.890625 19.910156,-12.623047 8.953125,-0.996094 -0.419922,12.283204 -0.121093,0.611328 2.310547,-2.138672 z M 24.830078,67.6875 9.4902344,77.458984 l 2.6523436,5.644532 9.845703,5.261718 27.957031,-0.896484 c 0.0032,-0.212649 0.01014,-0.423405 0.0293,-0.630859 h -1.644531 c -0.847922,0 -1.529297,-0.772397 -1.529297,-1.730469 v -4.457031 c 0,-0.958111 0.681375,-1.730469 1.529297,-1.730469 h 5.890625 l 0.53125,-1.601563 c -0.323414,-0.0077 -0.742735,-0.01163 -1.056641,-0.01953 -2.941819,-0.07446 -5.456464,-0.157591 -7.33789,-0.24414 -0.940713,-0.04346 -1.72143,-0.08746 -2.324219,-0.132813 -0.557828,-0.04195 -0.903457,-0.08091 -1.195312,-0.140625 -0.279344,-0.0219 -0.545854,-0.06356 -0.798829,-0.121094 l -13.792968,0.222656 z m 81.580082,9.316406 c -0.69223,0.07813 -1.55408,0.136245 -2.6211,0.197266 -1.99589,0.114142 -4.601508,0.198852 -7.617185,0.257812 -6.031351,0.118678 -13.696462,0.137026 -21.326172,0.08789 -7.093315,-0.04533 -13.803757,-0.146284 -19.490234,-0.279297 l -0.462891,1.652344 H 192.45508 v -1.916016 z"
           transform="matrix(0.26458333,0,0,0.26458333,0,255)" />
        <path
           style="color:#000000;fill:#000000;stroke-width:0.365001;-inkscape-stroke:none"
           d="m 47.364234,266.79535 -1.745829,1.54699 0.131257,1.68827 c 0.524367,0.3117 1.021778,0.61676 1.427819,0.8754 0.268491,0.17102 0.497353,0.32094 0.668176,0.44131 0.08541,0.0602 0.157308,0.11385 0.212907,0.15865 0.0556,0.0448 0.09319,0.0729 0.127125,0.12092 l 0.0016,0.004 0.0021,0.002 c 0.13825,0.21454 0.177456,0.52507 0.187587,0.8847 0.01013,0.35963 -0.01831,0.76764 -0.06046,1.15239 -0.05813,0.53049 -0.142108,1.01312 -0.189135,1.26555 l 0.0739,0.1018 5.416724,0.15865 0.0041,-3.09903 -0.331248,-0.41342 h -3.562056 v -2.46134 h 1.591117 l -0.130223,-0.16227 c -0.0574,-5e-4 -0.27337,-0.002 -0.27337,-0.002 l -2.444295,-0.32453 -1.070734,-1.8712 z"
           id="path17743" />
        <path
           id="path5105"
           style="color:#000000;fill:#000000;stroke-width:3.77953;-inkscape-stroke:none"
           d="m 109.36328,51.076172 -0.92383,22.019531 v 3.152344 h 15.75391 V 51.076172 Z m 0.91602,1.875 h 4.89258 v 11.279297 h -4.89258 z m 7.17578,0 h 4.89453 v 11.279297 h -4.89453 z m -7.17578,12.27539 h 4.89258 v 9.142579 h -4.89258 z m 7.17578,0 h 4.89453 v 9.142579 h -4.89453 z"
           transform="matrix(0.26458333,0,0,0.26458333,0,255)" />
        <path
           id="path7261"
           style="color:#000000;fill:#000000;stroke-width:0.999999px;-inkscape-stroke:none"
           d="m 158.61523,49.955078 c -0.81166,0.01038 -1.88671,1.958984 -1.88671,1.958984 v 24.03125 h 24.54882 c 0,0 2.09137,-10.234912 0.43164,-12.810546 -0.4082,-0.577645 -4.45634,-3.168705 -9.05273,-5.898438 v 7.228516 c 0,0.378595 -0.3049,0.683594 -0.68359,0.683594 h -1.86524 c -0.37869,0 -0.68359,-0.304886 -0.68359,-0.683594 v -0.03711 h -2.19531 c -0.003,0.399837 -0.32608,0.720704 -0.72657,0.720704 h -1.77929 c -0.40244,0 -0.72657,-0.324119 -0.72657,-0.726563 v -12.09375 c -2.57958,-1.37187 -4.57604,-2.311278 -5.18164,-2.332031 -0.0642,-0.02935 -0.13043,-0.04189 -0.19922,-0.04102 z"
           transform="matrix(0.26458333,0,0,0.26458333,0,255)" />
        <rect
           style="display:inline;fill:#000000;stroke:none;stroke-width:0.541402;stroke-miterlimit:4;stroke-dasharray:none;stop-color:#000000"
           id="rect4301"
           width="0.49516118"
           height="4.1573648"
           x="43.570938"
           y="12.913494"
           ry="0.17871875"
           transform="translate(0,255)" />
        <rect
           style="display:inline;fill:#000000;stroke:none;stroke-width:0.51371;stroke-miterlimit:4;stroke-dasharray:none;stop-color:#000000"
           id="rect4301-5"
           width="0.49516118"
           height="3.7429562"
           x="45.006886"
           y="268.32791"
           ry="0.16090395" />
        <rect
           style="display:inline;fill:#000000;stroke:none;stroke-width:0.365001;stroke-miterlimit:4;stroke-dasharray:none;stop-color:#000000"
           id="rect4454"
           width="0.64211601"
           height="3.4349284"
           x="44.210903"
           y="13.474555"
           ry="0.17871864"
           transform="translate(0,255)" />
        <path
           id="rect3814"
           style="fill:#000000;stroke:none;stroke-width:1.41233;stroke-miterlimit:4;stroke-dasharray:none;stop-color:#000000"
           d="m 136.4375,47.65625 c -1.15742,0 -2.13869,0.722642 -2.52344,1.742188 1.67517,-0.614952 3.48237,-0.951172 5.36719,-0.951172 8.61633,0 15.62695,7.018425 15.62695,15.634765 0,5.204517 -2.55772,9.825952 -6.48242,12.669922 h 4.19727 c 1.49493,0 2.69726,-1.204285 2.69726,-2.699219 V 50.355469 c 0,-1.494934 -1.20233,-2.699219 -2.69726,-2.699219 z m 2.84375,3.699219 c -1.98842,0 -3.86845,0.45249 -5.54297,1.259765 v 21.4375 c 0,0.698215 0.26318,1.332402 0.69531,1.810547 1.11684,0.45844 2.31327,0.764238 3.56446,0.888672 h 2.5664 c 6.44135,-0.640629 11.44336,-6.055376 11.44336,-12.669922 0,-7.047723 -5.67886,-12.726562 -12.72656,-12.726562 z"
           transform="matrix(0.26458333,0,0,0.26458333,0,255)" />
        <path
           style="color:#000000;fill:#000000;stroke-width:0.712524;-inkscape-stroke:none"
           d="m 40.331872,271.95508 a 3.4812864,3.4812864 0 0 1 -3.481287,3.48129 3.4812864,3.4812864 0 0 1 -3.481286,-3.48129 3.4812864,3.4812864 0 0 1 3.481286,-3.48129 3.4812864,3.4812864 0 0 1 3.481287,3.48129 z"
           id="path6434" />
        <path
           id="path6579"
           style="color:#000000;fill:#ffffff;stroke-width:3.77953;-inkscape-stroke:none"
           d="m 139.28125,48.447266 c -8.61632,0 -15.63477,7.018425 -15.63477,15.634765 0,8.616303 7.01845,15.634766 15.63477,15.634766 8.61633,0 15.62695,-7.018463 15.62695,-15.634766 0,-8.61634 -7.01062,-15.634765 -15.62695,-15.634765 z m 0,2.908203 c 6.55821,0 11.92984,4.917385 12.64453,11.279297 h -25.29687 c 0.71553,-6.36196 6.0941,-11.279297 12.65234,-11.279297 z m -12.65234,14.173828 h 25.29687 c -0.71469,6.362772 -6.08632,11.287109 -12.64453,11.287109 -6.55824,0 -11.93681,-4.924289 -12.65234,-11.287109 z"
           transform="matrix(0.26458333,0,0,0.26458333,0,255)" />
        <path
           style="color:#000000;fill:#dde9af;stroke-width:0.765;-inkscape-stroke:none"
           d="M 32.943546,271.95521 H 40.85696"
           id="path6576" />
        <path
           style="color:#000000;fill:#000000;stroke-width:0.351527;-inkscape-stroke:none"
           d="m 11.657652,275.07388 c 0.796305,0.18206 15.476276,0.36882 16.566648,0.0117 l 0.273465,-6.4495 c 0,0 -5.913543,-0.8076 -7.935125,-0.66223 l -5.760041,5.27833 -4.331088,0.61924 c 0,0 0.178629,1.1256 1.186141,1.20245 z"
           id="path6379" />
        <circle
           style="fill:#000000;stroke:#ffffff;stroke-width:0.932041;stroke-miterlimit:4;stroke-dasharray:none;stop-color:#000000"
           id="path3043"
           cx="44.989944"
           cy="10.574079"
           r="1.7143124"
           transform="translate(0,255)" />
        <rect
           style="fill:#000000;stroke-width:0.710568;stop-color:#000000"
           id="rect1153"
           width="39.968456"
           height="1.3856227"
           x="12.849054"
           y="276.19781"
           ry="0.30267274" />
        <rect
           style="fill:#000000;stroke-width:0.710568;stop-color:#000000"
           id="rect1177"
           width="38.149559"
           height="2.7169852"
           x="13.574389"
           y="276.56302"
           ry="1.3584926" />
        <path
           id="path7952"
           style="display:inline;fill:#000000;stroke:none;stroke-width:0.0767196;stroke-linecap:round;stop-color:#000000"
           d="m 53.620812,17.383275 v 2.2875 c 0,0.55003 -0.334704,0.99284 -0.750493,0.99284 h -0.151132 c 0.394719,0.31928 0.943632,0.62657 1.350138,0.61719 0.503076,-0.0424 3.204441,-0.778843 3.792029,-1.074073 h 0.03793 c 0.457145,0 0.698856,-1.027657 0.698856,-1.627147 v -0.11416 c 0,-0.5995 -0.368052,-1.08215 -0.825197,-1.08215 z"
           sodipodi:nodetypes="csscccssssc"
           transform="translate(0,255)" />
        <path
           id="rect1067"
           style="display:inline;fill:#000000;stroke-width:0.0787053;stroke-linecap:round;stop-color:#000000"
           d="m 50.100437,14.609409 v 1.73625 h 8.233512 c 0.558645,0 1.008454,-0.38721 1.008454,-0.86812 0,-0.48091 -0.449809,-0.86813 -1.008454,-0.86813 z"
           sodipodi:nodetypes="ccsssc"
           transform="translate(0,255)" />
        <path
           style="display:inline;fill:#000000;stroke:none;stroke-width:0.264583px;stroke-linecap:butt;stroke-linejoin:miter;stroke-opacity:1"
           d="m 51.240188,13.890038 c 0,0 6.152858,0.06132 6.40604,-0.147017 0.07587,-1.025462 -1.462087,-3.7825619 -2.8116,-4.3343502 0,0 -5.242701,-1.2307499 -6.000345,-0.998442 l -1.1087,3.2838092 1.070473,1.871272 z"
           id="path5429"
           sodipodi:nodetypes="ccccccc"
           transform="translate(0,255)" />
        <path
           id="path1688"
           style="fill:#000000;stroke:none;stroke-width:0.999999px;stroke-linecap:butt;stroke-linejoin:miter;stroke-opacity:1"
           d="m 186.25391,77.304688 -39.19336,0.435546 c -2.2493,1.256821 -4.83804,1.976563 -7.5918,1.976563 -2.63018,0 -5.1089,-0.656759 -7.28711,-1.810547 l -48.849609,0.542969 c -13.520009,0.262499 -31.068359,2.451172 -31.068359,2.451172 l 141.544918,0.11914 c 0,0 -3.00022,-3.542232 -7.55468,-3.714843 z"
           transform="matrix(0.26458333,0,0,0.26458333,0,255)" />
        <rect
           style="fill:#000000;stroke:none;stroke-width:0.564999;stroke-miterlimit:4;stroke-dasharray:none;stop-color:#000000"
           id="rect10205"
           width="6.8031006"
           height="0.75486064"
           x="-4.2640047"
           y="278.65598"
           ry="0.37743032"
           transform="rotate(-2.1385571)" />
        <path
           style="fill:#000000;stroke:none;stroke-width:0.264583px;stroke-linecap:butt;stroke-linejoin:miter;stroke-opacity:1"
           d="m 35.556117,264.49541 c -0.1275,0.16211 -0.44019,2.37638 -0.422127,2.90128 l 2.231064,0.0185 c 0,0 -0.344545,-2.67162 -0.57243,-2.89251 z"
           id="path10426"
           sodipodi:nodetypes="ccccc" />
        <g
           id="g19093"
           transform="rotate(8.6390353,31.981283,261.22408)">
          <path
             id="rect18122"
             style="color:#000000;fill:#000000;stroke:none;stroke-width:1;-inkscape-stroke:none"
             d="m 29.074194,258.81062 c -0.157609,0 -0.290938,0.13126 -0.290938,0.28887 v 3.66024 c 0,0.1576 0.133329,0.28888 0.290938,0.28888 h 0.04703 c 0.157609,0 0.290938,-0.13128 0.290938,-0.28888 v -0.16588 h 2.533179 v 0.16588 c 0,0.1576 0.131263,0.28888 0.288872,0.28888 h 0.04909 c 0.15761,0 0.288872,-0.13128 0.288872,-0.28888 v -3.66024 c 0,-0.15761 -0.131262,-0.28887 -0.288872,-0.28887 h -0.04909 c -0.157609,0 -0.288872,0.13126 -0.288872,0.28887 v 0.16588 h -2.533179 v -0.16588 c 0,-0.15761 -0.133329,-0.28887 -0.290938,-0.28887 z m 0.337963,1.08366 h 2.533179 v 0.27181 h -2.533179 z m 0,0.89865 h 2.533179 v 0.27337 h -2.533179 z m 0,0.9002 h 2.533179 v 0.27182 h -2.533179 z" />
          <rect
             style="fill:#000000;stroke:none;stroke-width:0.365001;stroke-miterlimit:4;stroke-dasharray:none;stop-color:#000000"
             id="rect18761"
             width="1.1268342"
             height="3.3122311"
             x="27.536325"
             y="259.2735"
             ry="0.24684693" />
          <g
             id="g19084"
             transform="translate(0,0.10215893)">
            <rect
               style="fill:#000000;stroke:none;stroke-width:0.380165;stroke-miterlimit:4;stroke-dasharray:none;stop-color:#000000"
               id="rect18903"
               width="8.865963"
               height="0.71911925"
               x="18.55158"
               y="259.15268"
               ry="0.24684697" />
            <rect
               style="fill:#000000;stroke:none;stroke-width:0.380165;stroke-miterlimit:4;stroke-dasharray:none;stop-color:#000000"
               id="rect18903-1"
               width="8.865963"
               height="0.71911925"
               x="18.55158"
               y="260.02948"
               ry="0.24684697" />
            <rect
               style="fill:#000000;stroke:none;stroke-width:0.380165;stroke-miterlimit:4;stroke-dasharray:none;stop-color:#000000"
               id="rect18903-2"
               width="8.865963"
               height="0.71911925"
               x="18.55158"
               y="260.90631"
               ry="0.24684697" />
            <rect
               style="fill:#000000;stroke:none;stroke-width:0.380165;stroke-miterlimit:4;stroke-dasharray:none;stop-color:#000000"
               id="rect18903-9"
               width="8.865963"
               height="0.71911925"
               x="18.55158"
               y="261.78311"
               ry="0.24684697" />
          </g>
        </g>
      </g>
    </g>
  </g>
</svg>
