<?xml version="1.0" encoding="UTF-8" standalone="no"?>
<!-- Created with Inkscape (http://www.inkscape.org/) -->

<svg
   xmlns:dc="http://purl.org/dc/elements/1.1/"
   xmlns:cc="http://creativecommons.org/ns#"
   xmlns:rdf="http://www.w3.org/1999/02/22-rdf-syntax-ns#"
   xmlns:svg="http://www.w3.org/2000/svg"
   xmlns="http://www.w3.org/2000/svg"
   xmlns:sodipodi="http://sodipodi.sourceforge.net/DTD/sodipodi-0.dtd"
   xmlns:inkscape="http://www.inkscape.org/namespaces/inkscape"
   width="60mm"
   height="42mm"
   viewBox="0 0 60 42"
   version="1.1"
   id="svg8"
   inkscape:version="0.92.5 (2060ec1f9f, 2020-04-08)"
   sodipodi:docname="Tokugawa.svg">
  <defs
     id="defs2" />
  <sodipodi:namedview
     id="base"
     pagecolor="#ffffff"
     bordercolor="#666666"
     borderopacity="1.0"
     inkscape:pageopacity="0.0"
     inkscape:pageshadow="2"
     inkscape:zoom="2.8284271"
     inkscape:cx="125.88749"
     inkscape:cy="48.11221"
     inkscape:document-units="mm"
     inkscape:current-layer="layer1"
     showgrid="false"
     inkscape:window-width="1848"
     inkscape:window-height="1016"
     inkscape:window-x="72"
     inkscape:window-y="1107"
     inkscape:window-maximized="1"
     inkscape:snap-global="false"
     showguides="false" />
  <metadata
     id="metadata5">
    <rdf:RDF>
      <cc:Work
         rdf:about="">
        <dc:format>image/svg+xml</dc:format>
        <dc:type
           rdf:resource="http://purl.org/dc/dcmitype/StillImage" />
        <dc:title />
      </cc:Work>
    </rdf:RDF>
  </metadata>
  <g
     inkscape:label="Capa 1"
     inkscape:groupmode="layer"
     id="layer1"
     transform="translate(0,-255)">
    <path
       style="opacity:1;vector-effect:none;fill:#000000;fill-opacity:1;fill-rule:nonzero;stroke:none;stroke-width:0.27254888;stroke-linecap:round;stroke-linejoin:miter;stroke-miterlimit:4;stroke-dasharray:none;stroke-dashoffset:0;stroke-opacity:1"
       d="m 31.281277,277.34595 0.0037,-0.004 c 4.742313,-0.004 9.769248,0.0884 14.503607,0.20471 v 0.73073 h 5.665653 c 0.380024,-0.0965 0.377101,-1.00957 0,-1.10019 3e-6,0.002 -18.87415,-0.20268 -21.649841,-0.22738 0.473381,0.10411 1.071764,0.27897 1.476913,0.39663 z"
       id="rect1212-8-9"
       inkscape:connector-curvature="0"
       sodipodi:nodetypes="ccccccccc" />
    <rect
       style="opacity:1;vector-effect:none;fill:#000000;fill-opacity:1;fill-rule:nonzero;stroke:none;stroke-width:0.43063894;stroke-linecap:round;stroke-linejoin:miter;stroke-miterlimit:4;stroke-dasharray:0.43063897, 1.29191693;stroke-dashoffset:0;stroke-opacity:1"
       id="rect918"
       width="11.866932"
       height="8.9627609"
       x="29.979542"
       y="280.75989" />
    <circle
       style="opacity:1;vector-effect:none;fill:#000000;fill-opacity:1;fill-rule:nonzero;stroke:#000000;stroke-width:0.40291923;stroke-linecap:round;stroke-linejoin:miter;stroke-miterlimit:4;stroke-dasharray:0.40291925, 1.20875774;stroke-dashoffset:0;stroke-opacity:1"
       id="path884"
       cx="50.608154"
       cy="285.07031"
       r="6.0339065" />
    <path
       style="opacity:1;vector-effect:none;fill:#000000;fill-opacity:1;fill-rule:nonzero;stroke:#ffffff;stroke-width:0.30899999;stroke-linecap:round;stroke-linejoin:miter;stroke-miterlimit:4;stroke-dasharray:none;stroke-dashoffset:0;stroke-opacity:1"
       d="m 53.599938,287.69978 c -2.525096,2.67076 -6.436654,0.31247 -9.305009,0.30115 -2.489565,-0.01 -7.559792,2.32055 -8.040534,-1.50255 -0.661743,-5.26252 13.92242,-7.56149 17.042045,-4.64634 2.316666,2.16481 1.187667,4.91256 0.303498,5.84774 z"
       id="rect980"
       inkscape:connector-curvature="0"
       sodipodi:nodetypes="sssss" />
    <circle
       style="opacity:1;vector-effect:none;fill:#000000;fill-opacity:1;fill-rule:nonzero;stroke:#000000;stroke-width:0.27112934;stroke-linecap:round;stroke-linejoin:miter;stroke-miterlimit:4;stroke-dasharray:0.27112935, 0.81338804;stroke-dashoffset:0;stroke-opacity:1"
       id="path884-3"
       cx="23.616346"
       cy="287.1088"
       r="4.0602908" />
    <circle
       style="opacity:1;vector-effect:none;fill:#000000;fill-opacity:1;fill-rule:nonzero;stroke:#ffffff;stroke-width:0.30899999;stroke-linecap:round;stroke-linejoin:miter;stroke-miterlimit:4;stroke-dasharray:none;stroke-dashoffset:0;stroke-opacity:1"
       id="path916"
       cx="50.614258"
       cy="285.08215"
       r="3.1088541" />
    <circle
       style="opacity:1;vector-effect:none;fill:#000000;fill-opacity:1;fill-rule:nonzero;stroke:#ffffff;stroke-width:0.19894876;stroke-linecap:round;stroke-linejoin:miter;stroke-miterlimit:4;stroke-dasharray:none;stroke-dashoffset:0;stroke-opacity:1"
       id="path916-5"
       cx="38.7981"
       cy="286.12808"
       r="2.0016267" />
    <path
       style="opacity:1;vector-effect:none;fill:#000000;fill-opacity:1;fill-rule:nonzero;stroke:#ffffff;stroke-width:0.30830067;stroke-linecap:round;stroke-linejoin:miter;stroke-miterlimit:4;stroke-dasharray:none;stroke-dashoffset:0;stroke-opacity:1"
       d="m 23.519719,284.45084 8.547535,-1.64564 c 1.646719,-0.31704 3.358484,0.84842 3.615586,3.08159 0.253011,2.19765 -1.340442,3.4642 -2.677617,3.49396 l -8.793089,0.1957 c -1.676546,0.0373 -2.854739,-0.78372 -2.984162,-2.19293 -0.124475,-1.35534 0.645027,-2.61564 2.291747,-2.93268 z"
       id="rect1021"
       inkscape:connector-curvature="0"
       sodipodi:nodetypes="sssssss" />
    <circle
       style="opacity:1;vector-effect:none;fill:#000000;fill-opacity:1;fill-rule:nonzero;stroke:#ffffff;stroke-width:0.19894876;stroke-linecap:round;stroke-linejoin:miter;stroke-miterlimit:4;stroke-dasharray:none;stroke-dashoffset:0;stroke-opacity:1"
       id="path916-5-5"
       cx="32.413113"
       cy="286.19565"
       r="2.0016267" />
    <circle
       style="opacity:1;vector-effect:none;fill:#000000;fill-opacity:1;fill-rule:nonzero;stroke:#ffffff;stroke-width:0.19894876;stroke-linecap:round;stroke-linejoin:miter;stroke-miterlimit:4;stroke-dasharray:none;stroke-dashoffset:0;stroke-opacity:1"
       id="path916-5-5-2"
       cx="23.620474"
       cy="287.11679"
       r="2.0016267" />
    <path
       style="opacity:1;vector-effect:none;fill:#000000;fill-opacity:1;fill-rule:nonzero;stroke:none;stroke-width:0.30899999;stroke-linecap:round;stroke-linejoin:miter;stroke-miterlimit:4;stroke-dasharray:none;stroke-dashoffset:0;stroke-opacity:1"
       d="m 14.686349,278.29084 c -4.162723,0.42095 -8.4655636,1.54352 -9.120374,2.01125 -0.5612659,0.74835 -0.4346589,6.71298 0.1266069,7.04039 l 8.5497251,0.79413 0.124681,-3.71281 4.036059,0.11578 0.0155,-4.26693 c 0.522212,-10e-4 25.729189,-0.0677 27.071217,-0.26406 v -2.18281 c -10.669834,-0.33697 -22.200157,-0.4759 -30.803415,0.46506 z"
       id="rect1025"
       inkscape:connector-curvature="0"
       sodipodi:nodetypes="cccccccccc" />
    <path
       style="opacity:1;vector-effect:none;fill:#000000;fill-opacity:1;fill-rule:nonzero;stroke:#ffffff;stroke-width:0.07725;stroke-linecap:round;stroke-linejoin:miter;stroke-miterlimit:4;stroke-dasharray:none;stroke-dashoffset:0;stroke-opacity:1"
       d="m 35.551721,286.7936 c 0.167984,-0.98971 -0.256564,-2.32971 -0.969459,-3.0599 -0.500246,-0.51238 -1.079463,-0.77613 -1.785144,-0.81287 -0.473858,-0.0247 -1.028637,0.0675 -5.063158,0.84102 -4.121364,0.79018 -4.573953,0.88963 -5.006226,1.10008 -0.702975,0.34224 -1.193652,0.96164 -1.311264,1.65527 -0.07128,0.4204 -0.101842,0.49137 -0.211586,0.49137 -0.0864,0 -0.09772,-0.061 -0.06685,-0.36006 0.053,-0.51351 0.375054,-1.1445 0.775161,-1.51876 0.54577,-0.5105 1.001683,-0.6799 2.757165,-1.02444 0.854284,-0.16766 1.530926,-0.32716 1.503649,-0.35444 -0.02728,-0.0273 -0.101752,-0.0496 -0.165501,-0.0496 -0.157382,0 -0.522566,-0.21375 -0.523084,-0.30617 -5.29e-4,-0.099 -0.368353,-0.24826 -0.49346,-0.20025 -0.117435,0.0451 -0.496435,-0.0774 -0.619626,-0.2002 -0.1026,-0.10228 -0.448821,-0.11659 -0.507905,-0.021 -0.05313,0.086 -0.476036,0.086 -0.529167,0 -0.06937,-0.11223 -0.401636,-0.0731 -0.562239,0.0661 -0.154552,0.13404 -0.284581,0.16351 -0.610062,0.13827 -0.129316,-0.01 -0.246267,0.0522 -0.414673,0.22059 -0.129007,0.12901 -0.315847,0.25164 -0.415198,0.27252 -0.260449,0.0547 -0.369507,0.12342 -0.451096,0.28416 -0.109295,0.21532 -0.3078,0.41603 -0.474498,0.47978 -0.151725,0.058 -0.239885,0.21119 -0.309727,0.53811 -0.02122,0.0993 -0.127457,0.27149 -0.236088,0.38262 -0.218201,0.22321 -0.21072,0.20139 -0.222317,0.6487 -0.0055,0.21301 -0.0487,0.35934 -0.13001,0.44066 -0.0839,0.0839 -0.113729,0.19037 -0.09596,0.34254 l 0.02577,0.2208 H 18.42719 c -0.923347,0 -2.485785,0.218 -2.282178,0.0922 0.167778,-0.0226 0.12284,-0.62088 -0.112918,-0.60609 -0.0297,-0.15761 -0.210422,-0.46281 -0.135067,-0.47581 0.187134,-0.0323 -0.0505,-0.6453 -0.235879,-0.54608 -0.06462,0.0346 -0.307327,-0.37135 -0.219143,-0.4277 0.175396,-0.11207 -0.360428,-0.34542 0.343131,-0.30266 l 2.952993,0.0779 v -2.14711 -2.14711 l 3.12539,-10e-4 c 4.756342,-0.002 19.398811,-0.11931 21.100521,-0.16969 l 1.504817,-0.0446 v 0.3637 0.36369 l -0.318585,0.0423 c -0.497329,0.066 -1.889651,0.41674 -2.69105,0.67796 -3.528899,1.15023 -5.366367,2.9032 -5.059122,4.82648 0.03919,0.24532 0.08651,0.47073 0.105159,0.5009 0.01865,0.0302 -0.02598,0.0549 -0.09918,0.0549 -0.286901,0 -0.37165,-1.11931 -0.140954,-1.86165 0.455015,-1.46417 2.331598,-2.85251 5.045271,-3.7326 l 0.578776,-0.1877 v -0.31745 -0.31745 l -5.969659,0.0169 -5.969661,0.0169 -0.01826,1.08886 c -0.01003,0.59888 -0.0053,1.12268 0.01058,1.16401 0.02024,0.0528 0.370472,0.008 1.175795,-0.15118 1.48922,-0.29386 1.995926,-0.28021 2.741416,0.0738 1.203283,0.57143 1.944347,1.87454 1.944347,3.41898 0,0.65803 -0.03239,0.78858 -0.195636,0.78858 -0.102523,0 -0.108789,-0.0386 -0.0564,-0.34726 z"
       id="path1042"
       inkscape:connector-curvature="0"
       sodipodi:nodetypes="cscscssscscsccsccccccccccccccsccssscccccscccssccscscccccccccsscc" />
    <path
       style="opacity:1;vector-effect:none;fill:#000000;fill-opacity:1;fill-rule:nonzero;stroke:none;stroke-width:0.27112934;stroke-linecap:round;stroke-linejoin:miter;stroke-miterlimit:4;stroke-dasharray:0.27112935, 0.81338805;stroke-dashoffset:0;stroke-opacity:1"
       d="m 14.587544,284.59514 -0.140043,3.84059 -6.4538688,-0.65939 a 4.0602908,4.0602908 0 0 0 0.01602,0.12867 0.13557823,0.13557823 0 0 0 -0.1100708,0.15813 c 0.01509,0.0928 0.034564,0.18431 0.056844,0.27544 a 0.13571722,0.13571722 0 0 0 0.1581299,0.10232 4.0602908,4.0602908 0 0 0 0.1813842,0.50849 0.13557823,0.13557823 0 0 0 -0.062012,0.17829 l 0.021187,0.0506 0.091984,0.1819 0.013436,0.0217 a 0.13602504,0.13602504 0 0 0 0.1813843,0.0527 4.0602908,4.0602908 0 0 0 0.3028239,0.44855 0.13557823,0.13557823 0 0 0 -0.00723,0.18811 l 0.093534,0.10903 0.091984,0.0977 a 0.13607914,0.13607914 0 0 0 0.1912028,0.006 4.0602908,4.0602908 0 0 0 0.4118612,0.34779 0.13557823,0.13557823 0 0 0 0.037207,0.18758 l 0.027388,0.0196 0.1700155,0.10955 0.042891,0.0233 a 0.13557823,0.13557823 0 0 0 0.1906858,-0.0388 4.0602908,4.0602908 0 0 0 0.484208,0.21859 0.13557823,0.13557823 0 0 0 0.08475,0.17157 l 0.127124,0.0434 0.138493,0.0408 a 0.13601538,0.13601538 0 0 0 0.168465,-0.0961 4.0602908,4.0602908 0 0 0 0.5271,0.093 0.13577705,0.13577705 0 0 0 0.132808,0.14159 c 0.09449,0.007 0.186595,0.0103 0.279053,0.0103 a 0.13586368,0.13586368 0 0 0 0.136943,-0.13694 4.0602908,4.0602908 0 0 0 0.01602,-5.2e-4 0.13557823,0.13557823 0 0 0 0.156063,0.12506 c 0.09291,-0.007 0.185646,-0.0151 0.279053,-0.0289 a 0.13617794,0.13617794 0 0 0 0.115238,-0.154 4.0602908,4.0602908 0 0 0 0.524516,-0.13384 0.13588268,0.13588268 0 0 0 0.172599,0.0884 l 0.04289,-0.0134 0.191719,-0.0765 0.03101,-0.0134 a 0.13557823,0.13557823 0 0 0 0.06821,-0.18448 4.0602908,4.0602908 0 0 0 0.462504,-0.25425 0.13557823,0.13557823 0 0 0 0.199988,0.0305 l 0.115238,-0.0822 0.107487,-0.0837 a 0.13557823,0.13557823 0 0 0 0.02067,-0.20154 4.0602908,4.0602908 0 0 0 0.382405,-0.37517 0.13568804,0.13568804 0 0 0 0.196371,-0.009 l 0.01964,-0.0232 0.125057,-0.15865 0.02894,-0.0429 a 0.13557823,0.13557823 0 0 0 -0.03514,-0.19275 4.0602908,4.0602908 0 0 0 0.263033,-0.45734 0.13557823,0.13557823 0 0 0 0.19637,-0.0724 l 0.05064,-0.11162 0.05633,-0.14417 a 0.13557823,0.13557823 0 0 0 -0.0894,-0.18294 4.0602908,4.0602908 0 0 0 0.141077,-0.52038 0.1356612,0.1356612 0 0 0 0.167431,-0.10955 c 0.0156,-0.0927 0.02683,-0.18564 0.03514,-0.27906 a 0.13557823,0.13557823 0 0 0 -0.136942,-0.14934 4.0602908,4.0602908 0 0 0 0.01188,-0.2434 4.0602908,4.0602908 0 0 0 -0.01085,-0.29042 0.13557823,0.13557823 0 0 0 0.131774,-0.15451 c -0.0096,-0.0928 -0.02233,-0.1849 -0.03876,-0.2775 a 0.13557823,0.13557823 0 0 0 -0.146761,-0.11318 0.13557823,0.13557823 0 0 0 -0.02584,0.005 4.0602908,4.0602908 0 0 0 -0.143661,-0.5147 0.13557823,0.13557823 0 0 0 0.0894,-0.18604 l -0.04082,-0.10748 -0.06666,-0.14832 a 0.13557823,0.13557823 0 0 0 -0.144177,-0.0801 0.13557823,0.13557823 0 0 0 -0.05013,0.0171 4.0602908,4.0602908 0 0 0 -0.274402,-0.45165 0.13557823,0.13557823 0 0 0 0.03721,-0.20412 l -0.0057,-0.01 -0.125057,-0.15813 -0.04703,-0.0527 a 0.13557823,0.13557823 0 0 0 -0.04444,-0.0357 l -0.116789,-0.002 a 0.13557823,0.13557823 0 0 0 -0.04134,0.03 4.0602908,4.0602908 0 0 0 -0.03049,-0.0305 z"
       id="path884-3-6-9-0"
       inkscape:connector-curvature="0" />
    <path
       style="color:#000000;font-style:normal;font-variant:normal;font-weight:normal;font-stretch:normal;font-size:medium;line-height:normal;font-family:sans-serif;font-variant-ligatures:normal;font-variant-position:normal;font-variant-caps:normal;font-variant-numeric:normal;font-variant-alternates:normal;font-feature-settings:normal;text-indent:0;text-align:start;text-decoration:none;text-decoration-line:none;text-decoration-style:solid;text-decoration-color:#000000;letter-spacing:normal;word-spacing:normal;text-transform:none;writing-mode:lr-tb;direction:ltr;text-orientation:mixed;dominant-baseline:auto;baseline-shift:baseline;text-anchor:start;white-space:normal;shape-padding:0;clip-rule:nonzero;display:inline;overflow:visible;visibility:visible;opacity:1;isolation:auto;mix-blend-mode:normal;color-interpolation:sRGB;color-interpolation-filters:linearRGB;solid-color:#000000;solid-opacity:1;vector-effect:none;fill:#ffffff;fill-opacity:1;fill-rule:nonzero;stroke:none;stroke-width:0.26458332px;stroke-linecap:butt;stroke-linejoin:miter;stroke-miterlimit:4;stroke-dasharray:none;stroke-dashoffset:0;stroke-opacity:1;color-rendering:auto;image-rendering:auto;shape-rendering:auto;text-rendering:auto;enable-background:accumulate"
       d="m 30.399463,286.3566 -4.841797,0.52539 0.0293,0.26367 4.841797,-0.52539 z"
       id="path1108"
       inkscape:connector-curvature="0" />
    <path
       style="color:#000000;font-style:normal;font-variant:normal;font-weight:normal;font-stretch:normal;font-size:medium;line-height:normal;font-family:sans-serif;font-variant-ligatures:normal;font-variant-position:normal;font-variant-caps:normal;font-variant-numeric:normal;font-variant-alternates:normal;font-feature-settings:normal;text-indent:0;text-align:start;text-decoration:none;text-decoration-line:none;text-decoration-style:solid;text-decoration-color:#000000;letter-spacing:normal;word-spacing:normal;text-transform:none;writing-mode:lr-tb;direction:ltr;text-orientation:mixed;dominant-baseline:auto;baseline-shift:baseline;text-anchor:start;white-space:normal;shape-padding:0;clip-rule:nonzero;display:inline;overflow:visible;visibility:visible;opacity:1;isolation:auto;mix-blend-mode:normal;color-interpolation:sRGB;color-interpolation-filters:linearRGB;solid-color:#000000;solid-opacity:1;vector-effect:none;fill:#ffffff;fill-opacity:1;fill-rule:nonzero;stroke:none;stroke-width:0.26458332px;stroke-linecap:butt;stroke-linejoin:miter;stroke-miterlimit:4;stroke-dasharray:none;stroke-dashoffset:0;stroke-opacity:1;color-rendering:auto;image-rendering:auto;shape-rendering:auto;text-rendering:auto;enable-background:accumulate"
       d="m 30.417041,285.60823 -4.947266,0.55469 0.0293,0.26367 4.947266,-0.55664 z"
       id="path1108-9"
       inkscape:connector-curvature="0" />
    <path
       style="color:#000000;font-style:normal;font-variant:normal;font-weight:normal;font-stretch:normal;font-size:medium;line-height:normal;font-family:sans-serif;font-variant-ligatures:normal;font-variant-position:normal;font-variant-caps:normal;font-variant-numeric:normal;font-variant-alternates:normal;font-feature-settings:normal;text-indent:0;text-align:start;text-decoration:none;text-decoration-line:none;text-decoration-style:solid;text-decoration-color:#000000;letter-spacing:normal;word-spacing:normal;text-transform:none;writing-mode:lr-tb;direction:ltr;text-orientation:mixed;dominant-baseline:auto;baseline-shift:baseline;text-anchor:start;white-space:normal;shape-padding:0;clip-rule:nonzero;display:inline;overflow:visible;visibility:visible;opacity:1;isolation:auto;mix-blend-mode:normal;color-interpolation:sRGB;color-interpolation-filters:linearRGB;solid-color:#000000;solid-opacity:1;vector-effect:none;fill:#ffffff;fill-opacity:1;fill-rule:nonzero;stroke:none;stroke-width:0.26458332px;stroke-linecap:butt;stroke-linejoin:miter;stroke-miterlimit:4;stroke-dasharray:none;stroke-dashoffset:0;stroke-opacity:1;color-rendering:auto;image-rendering:auto;shape-rendering:auto;text-rendering:auto;enable-background:accumulate"
       d="m 30.667041,287.0402 -5.220703,0.61523 0.03125,0.26172 5.220703,-0.61328 z"
       id="path1108-3"
       inkscape:connector-curvature="0" />
    <path
       style="opacity:1;vector-effect:none;fill:#000000;fill-opacity:1;fill-rule:nonzero;stroke:none;stroke-width:0.31493947;stroke-linecap:round;stroke-linejoin:miter;stroke-miterlimit:4;stroke-dasharray:none;stroke-dashoffset:0;stroke-opacity:1"
       d="m 41.931806,268.11651 c -1.067882,0.004 -2.335773,0.0904 -2.397786,0.27647 l 0.198956,1.01699 c 0,0 0.175406,0.0163 0.342096,0.0315 l -0.02273,0.77514 c -0.193315,0.0273 -0.341582,0.19064 -0.341582,0.39171 v 0.0848 c -4.158949,0.22746 -8.033885,2.1043 -10.70219,5.18366 h 23.063192 c -2.232737,-2.58139 -5.327967,-4.33561 -8.756062,-4.96249 v -0.30592 c 0,-0.22025 -0.177144,-0.39739 -0.397391,-0.39739 h -0.01654 l -0.120406,-0.5979 c 0.225456,0.003 0.426968,-5e-5 0.552936,-0.016 v -1.40301 c -0.192934,-0.0526 -0.761769,-0.0799 -1.402498,-0.0775 z m -3.56309,3.10679 c 1.020132,0.003 4.868772,0.13047 5.359881,0.63148 l 0.339513,1.31724 c -0.293962,0.3014 -5.425828,0.67604 -5.956225,0.57981 -1.6e-5,0 -0.0026,0.001 -0.0026,0.001 l -0.0011,-0.002 c -0.01617,-0.003 -0.0421,-0.005 -0.04857,-0.009 l -0.01654,-0.12195 -0.0078,-0.015 c 0,0 0.0051,-0.002 0.0052,-0.002 l -0.320394,-2.33629 c 0.06431,-0.0278 0.308501,-0.0444 0.648538,-0.0434 z m 0.077,0.0827 c -0.183288,-5.5e-4 -0.3229,0.005 -0.431499,0.0145 0,0 0.440825,0.11162 0.49457,0.16123 0.09201,0.0486 0.344739,1.44797 0.342638,1.86345 -0.03113,0.0524 -0.409794,0.24205 -0.594278,0.33332 0.757521,0.0595 5.37922,-0.27979 5.645134,-0.55242 l -0.316777,-1.23197 c -0.459227,-0.4685 -4.185828,-0.58516 -5.139738,-0.58808 z m -0.592728,0.13746 0.290939,2.12545 c 0.138729,-0.0412 0.45948,-0.14354 0.561205,-0.29249 0.03889,-0.11667 -0.245195,-1.56407 -0.301792,-1.65933 -0.06201,-0.0496 -0.550352,-0.17363 -0.550352,-0.17363 z m 0.301273,0.17725 c 0.08723,-2.5e-4 0.158046,0.11709 0.158128,0.262 9e-5,0.14512 -0.07078,0.26277 -0.158128,0.26252 -0.08715,-2.3e-4 -0.157702,-0.11774 -0.157612,-0.26252 7.9e-5,-0.14458 0.07058,-0.26178 0.157612,-0.262 z m 0.09353,0.58549 c 0.08723,-2.5e-4 0.158049,0.11709 0.158131,0.262 9e-5,0.14512 -0.07078,0.26277 -0.158131,0.26252 -0.08715,-2.2e-4 -0.157702,-0.11773 -0.157612,-0.26252 8.2e-5,-0.14458 0.07058,-0.26177 0.157612,-0.262 z m 0.111107,0.6165 c 0.08735,-2.5e-4 0.158218,0.1174 0.158128,0.26252 -8.2e-5,0.14492 -0.0709,0.26225 -0.158128,0.262 -0.08703,-2.2e-4 -0.157533,-0.11742 -0.157615,-0.262 -9e-5,-0.14478 0.07046,-0.26229 0.157615,-0.26252 z"
       id="path1139"
       inkscape:connector-curvature="0"
       sodipodi:nodetypes="sccccsccccssccccssccccccccccscccccccccccccccccccccacccaccccc" />
    <path
       style="opacity:1;vector-effect:none;fill:#000000;fill-opacity:1;fill-rule:nonzero;stroke:none;stroke-width:0.38926616;stroke-linecap:round;stroke-linejoin:miter;stroke-miterlimit:4;stroke-dasharray:none;stroke-dashoffset:0;stroke-opacity:1"
       d="m 22.084995,276.06855 c -5.17049,0.003 -10.125112,1.17923 -13.7650507,3.2675 1.7863667,-0.48594 4.4787957,-1.03588 7.1230807,-1.30328 4.556763,-0.49839 9.937454,-0.6922 15.573725,-0.71572 -2.758365,-0.81708 -5.821609,-1.24527 -8.931755,-1.2485 z"
       id="path1165-7"
       inkscape:connector-curvature="0"
       sodipodi:nodetypes="ccccc" />
    <path
       style="opacity:1;vector-effect:none;fill:#000000;fill-opacity:1;fill-rule:nonzero;stroke:none;stroke-width:0.30899999;stroke-linecap:round;stroke-linejoin:miter;stroke-miterlimit:4;stroke-dasharray:none;stroke-dashoffset:0;stroke-opacity:1"
       d="m 8.3668074,276.93954 0.701765,1.07225 0.9472296,-0.0176 -0.0031,-0.002 h 0.807188 c 1.091004,-0.4178 2.25193,-0.76906 3.462837,-1.05213 H 9.9842794 l -0.00362,-0.001 z m 7.5364916,1.04538 c -0.02604,0.003 -0.05204,0.005 -0.07803,0.008 h 0.07803 z"
       id="rect1163-5"
       inkscape:connector-curvature="0"
       sodipodi:nodetypes="ccccccccccccc" />
    <path
       style="opacity:1;vector-effect:none;fill:#000000;fill-opacity:1;fill-rule:nonzero;stroke:none;stroke-width:0.30899999;stroke-linecap:round;stroke-linejoin:miter;stroke-miterlimit:4;stroke-dasharray:none;stroke-dashoffset:0;stroke-opacity:1"
       d="m 52.048315,275.97636 -0.682368,0.93559 c 3e-6,0.002 -21.87393,-0.24831 -21.87393,-0.24831 -0.0032,0 -0.506936,-0.68762 -0.506936,-0.68762 0,-0.003 23.063192,3.4e-4 23.063192,3.4e-4 z"
       id="rect1209"
       inkscape:connector-curvature="0"
       sodipodi:nodetypes="cccccc" />
    <path
       style="opacity:1;vector-effect:none;fill:#000000;fill-opacity:1;fill-rule:nonzero;stroke:none;stroke-width:0.10322645;stroke-linecap:round;stroke-linejoin:miter;stroke-miterlimit:4;stroke-dasharray:none;stroke-dashoffset:0;stroke-opacity:1"
       d="m 168.18491,97.289175 -0.0442,-1.467021 c 1.71255,-0.0172 3.42491,-0.05524 5.13757,-0.05524 l -0.22017,-7.39676 12.70101,-0.0221 v 3.006563 l -1.93891,0.641196 -0.23987,-0.295108 c -0.31622,-0.31623 -0.75059,-0.277583 -1.72153,0.140728 -0.92852,0.400037 -1.23248,0.634181 -1.23398,1.094633 -9.9e-4,0.303223 0.0689,0.307596 -0.45087,0.590095 -0.30326,0.164825 -0.86903,0.541465 -1.26681,0.798784 -0.58398,0.377764 -0.5468,0.382622 -0.6259,0.287307 -0.14434,-0.173919 -0.52728,-0.283176 -0.79033,-0.183161 -0.28752,0.109313 -1.7065,1.171378 -1.89266,1.437157 -0.0759,0.108336 -0.0833,0.302089 -0.0833,0.392369 l -0.0424,0.08501 c -1.96901,0.226901 -6.9033,0.818807 -7.13822,0.918752 z"
       id="path1266"
       inkscape:connector-curvature="0"
       transform="matrix(0.26458333,0,0,0.26458333,0,255)"
       sodipodi:nodetypes="ccccccccccccccccccc" />
    <g
       id="g1301"
       transform="translate(6.422501,14.364042)">
      <path
         id="rect1158-3"
         transform="matrix(0.26458333,0,0,0.26458333,0,255)"
         d="m 66.755859,10.892578 v 8.66211 h 22.34375 a 56.874996,54.749998 0 0 1 12.855471,-8.66211 z"
         style="opacity:1;vector-effect:none;fill:#000000;fill-opacity:1;fill-rule:nonzero;stroke:none;stroke-width:1.16787398;stroke-linecap:round;stroke-linejoin:miter;stroke-miterlimit:4;stroke-dasharray:none;stroke-dashoffset:0;stroke-opacity:1"
         inkscape:connector-curvature="0" />
      <path
         sodipodi:nodetypes="ccccc"
         inkscape:connector-curvature="0"
         id="rect1160-3"
         d="m 13.838754,257.75352 3.683308,0.0351 v 2.66601 l -0.876978,0.0819 z"
         style="opacity:1;vector-effect:none;fill:#000000;fill-opacity:1;fill-rule:nonzero;stroke:none;stroke-width:0.30899999;stroke-linecap:round;stroke-linejoin:miter;stroke-miterlimit:4;stroke-dasharray:none;stroke-dashoffset:0;stroke-opacity:1" />
    </g>
    <ellipse
       style="opacity:1;vector-effect:none;fill:#ffffff;fill-opacity:1;fill-rule:nonzero;stroke:none;stroke-width:0.16500001;stroke-linecap:round;stroke-linejoin:miter;stroke-miterlimit:4;stroke-dasharray:none;stroke-dashoffset:0;stroke-opacity:1"
       id="path1353"
       cx="29.618858"
       cy="270.74011"
       rx="0.48161793"
       ry="0.29765624" />
  </g>
</svg>
