<?xml version="1.0" encoding="UTF-8" standalone="no"?>
<!-- Created with Inkscape (http://www.inkscape.org/) -->

<svg
   width="60mm"
   height="42mm"
   viewBox="0 0 60 42"
   version="1.1"
   id="svg8"
   inkscape:version="1.1.2 (0a00cf5339, 2022-02-04)"
   sodipodi:docname="VV1 Ranger.svg"
   xmlns:inkscape="http://www.inkscape.org/namespaces/inkscape"
   xmlns:sodipodi="http://sodipodi.sourceforge.net/DTD/sodipodi-0.dtd"
   xmlns="http://www.w3.org/2000/svg"
   xmlns:svg="http://www.w3.org/2000/svg"
   xmlns:rdf="http://www.w3.org/1999/02/22-rdf-syntax-ns#"
   xmlns:cc="http://creativecommons.org/ns#"
   xmlns:dc="http://purl.org/dc/elements/1.1/">
  <defs
     id="defs2" />
  <sodipodi:namedview
     id="base"
     pagecolor="#ffffff"
     bordercolor="#666666"
     borderopacity="1.0"
     inkscape:pageopacity="0.0"
     inkscape:pageshadow="2"
     inkscape:zoom="2.0000001"
     inkscape:cx="146.75"
     inkscape:cy="56.999999"
     inkscape:document-units="mm"
     inkscape:current-layer="layer1"
     showgrid="false"
     inkscape:window-width="1920"
     inkscape:window-height="1043"
     inkscape:window-x="1920"
     inkscape:window-y="1080"
     inkscape:window-maximized="1"
     inkscape:snap-global="false"
     showguides="false"
     inkscape:pagecheckerboard="0" />
  <metadata
     id="metadata5">
    <rdf:RDF>
      <cc:Work
         rdf:about="">
        <dc:format>image/svg+xml</dc:format>
        <dc:type
           rdf:resource="http://purl.org/dc/dcmitype/StillImage" />
      </cc:Work>
    </rdf:RDF>
  </metadata>
  <g
     inkscape:label="Capa 1"
     inkscape:groupmode="layer"
     id="layer1"
     transform="translate(0,-255)">
    <g
       id="g8087"
       transform="matrix(1.246725,0,0,1.246725,-37.984509,-104.52031)">
      <path
         id="path4292"
         style="fill:#000000;stroke:none;stroke-width:0.999999px;stroke-linecap:butt;stroke-linejoin:miter;stroke-opacity:1"
         d="m 186.8173,189.49056 c -1.92815,0.22331 -5.29577,0.72577 -7.79816,1.24129 -1.78068,0.36684 -3.47402,0.68149 -4.79528,0.96345 -0.38054,0.0812 -1.86548,0.50204 -2.17029,0.57608 5.71214,0.67903 9.19269,3.01481 10.75522,9.28753 0.35313,-1.82265 0.81375,-4.66842 1.48253,-6.43847 0.60718,-1.60702 0.93826,-2.76575 1.56017,-3.89741 0.0705,-0.12835 0.89669,-1.61318 0.96581,-1.73247 z m -23.98383,6.27394 c -0.76554,0.34548 -2.40076,1.27192 -3.12721,1.6161 -3.46681,1.64259 -5.92759,1.90653 -5.87967,3.52161 -0.0131,1.13829 3.85776,0.78772 3.85776,0.78772 l 2.36077,0.0247 c 0.25278,-1.85093 1.46163,-4.34352 2.78854,-5.95017 z"
         transform="matrix(0.26458333,0,0,0.26458333,0,255)"
         sodipodi:nodetypes="cssccsscccccccc" />
      <path
         id="path4733"
         style="color:#000000;fill:#000000;stroke-width:3.77953;stroke-linecap:round;-inkscape-stroke:none"
         d="m 186.61328,186.5957 c -2.1521,0.21331 -5.21482,0.66239 -8.11719,1.1543 -1.8316,0.3103 -3.59251,0.63903 -4.99023,0.9375 -0.69886,0.14929 -1.30292,0.28832 -1.79492,0.41992 -0.48547,0.12964 -0.82537,0.2235 -1.15039,0.39063 -0.005,0.002 -0.0115,0.004 -0.0156,0.008 -3.16807,0.75696 -7.823,2.78436 -11.83984,4.6875 -4.08688,1.93633 -7.41992,3.70703 -7.41992,3.70703 l -0.11719,0.0586 -0.0898,0.0879 c -0.96683,0.95682 -0.91654,2.31239 -0.84765,3.41015 0.0689,1.0978 0.28711,2.03125 0.28711,2.03125 l 0.15625,0.64063 8.5039,0.40625 c 0.48251,0.0189 0.89002,-0.35168 0.91407,-0.83399 0.0249,-0.48533 -0.34865,-0.89787 -0.83399,-0.92187 l -7.12304,-0.33985 c -0.0608,-0.31634 -0.11768,-0.50873 -0.1543,-1.09179 -0.0562,-0.89598 0.14885,-1.77969 0.32422,-1.99414 0.17136,-0.0903 3.2134,-1.70601 7.15234,-3.57227 4.04791,-1.91788 8.88034,-4.00428 11.68555,-4.64453 l 0.11133,-0.0215 0.10351,-0.0527 c 0.0219,-0.0113 0.35863,-0.13838 0.80469,-0.25781 0.44608,-0.11906 1.03271,-0.26104 1.71289,-0.40625 1.36037,-0.29027 3.09504,-0.61456 4.9082,-0.92188 3.62635,-0.61459 7.025,-1.00757 8.82422,-1.09375 0.0877,-0.0189 0.44036,-0.35561 0.8418,-0.92383 0.2839,-0.37815 1.11559,-0.61232 1.6875,-0.79687 h -3.19336 c -0.11664,0 -0.22926,-0.0239 -0.33008,-0.0664 z"
         transform="matrix(0.26458333,0,0,0.26458333,0,255)" />
      <path
         id="rect2941"
         style="fill:#000000;stroke:none;stroke-width:1.465;stroke-linecap:round;stroke-linejoin:round"
         d="m 61.224432,299.32875 c -0.06354,0.005 -0.113173,0.0577 -0.113173,0.12248 v 0.16226 c -0.07277,0.0417 -0.121439,0.1201 -0.121439,0.21033 v 0.29972 l 0.333312,0.0341 c 0.05512,0.0185 0.105301,0.0391 0.150897,0.0615 v -0.39532 c -3e-6,-0.0885 -0.04684,-0.16547 -0.117306,-0.20775 v -0.16484 c 0,-0.068 -0.055,-0.12248 -0.122991,-0.12248 -0.0032,0 -0.0062,-2.3e-4 -0.0093,0 z" />
      <path
         id="rect2493"
         style="stroke-width:5.53701;stroke-linecap:round;stroke-linejoin:round"
         d="m 198.89062,166.66406 c -0.62979,-0.0271 -1.18554,0.42654 -1.27734,1.06446 l -0.16016,1.10742 c -0.0979,0.68041 0.3724,1.30769 1.05274,1.40625 l 9.89844,1.43554 -0.30469,-0.0781 -1.95508,-1.53516 0.0371,-1.98633 0.01,-0.36132 -7.17383,-1.04102 c -0.0425,-0.006 -0.085,-0.01 -0.12696,-0.0117 z"
         transform="matrix(0.26458333,0,0,0.26458333,0,255)" />
      <path
         id="path6966"
         style="fill:#000000;stroke:none;stroke-width:0.692126;stroke-linecap:round;stroke-linejoin:round;stroke-miterlimit:4;stroke-dasharray:none;stroke-dashoffset:0;stroke-opacity:1"
         d="m 220.27786,189.33359 c -7.10032,-0.002 -12.81249,0.1329 -18.24319,0.33298 -0.26135,0.01 -0.52838,0.48364 -0.78272,0.49354 2.34937,1.78213 3.9123,4.40919 4.35743,7.32422 l 1.5,-0.46876 c -0.15065,-2.07293 0.44421,-3.87528 1.01471,-4.33897 0.93323,-0.78231 38.81371,-0.33702 47.80751,0.11518 0.29772,-0.0549 0.99507,-0.86153 1.25395,-0.91491 0.13538,-0.0276 0.17869,-0.0478 0.30273,-0.0742 -0.36994,-0.0938 -0.71731,-0.50081 -2.17736,-0.72985 -2.03013,-0.31857 -4.844,-0.69742 -8.05805,-0.91285 -6.42811,-0.43102 -14.68262,-0.68019 -22.84086,-0.7229 -1.08096,-0.0282 -3.23849,-0.11567 -4.13415,-0.10348 z"
         transform="matrix(0.26458333,0,0,0.26458333,0,255)"
         sodipodi:nodetypes="ccccccccccccc" />
      <path
         id="path5961"
         style="color:#000000;fill:#000000;stroke-width:0.755906;stroke-linejoin:round;stroke-dasharray:2.26772, 0.755906;-inkscape-stroke:none"
         d="m 220.48242,193.64844 -0.51758,0.0137 a 0.37799055,0.37799055 0 0 0 -0.0137,0 l -0.50976,0.043 a 0.37799055,0.37799055 0 0 0 -0.0156,0 l -0.22851,0.0293 c 0.68819,-0.008 1.41436,-0.0123 2.14648,-0.0176 l 0.002,-0.0234 -0.31836,-0.0312 a 0.37799055,0.37799055 0 0 0 -0.0215,0 l -0.50977,-0.0137 a 0.37799055,0.37799055 0 0 0 -0.0137,0 z m -7.86914,8.61523 -1.26172,1.04102 -1.13672,-0.14844 -0.0234,0.26758 a 0.37799055,0.37799055 0 0 0 0,0.0137 l -0.008,0.51562 a 0.37799055,0.37799055 0 0 0 0,0.0156 l 0.008,0.50977 a 0.37799055,0.37799055 0 0 0 0,0.0234 l 0.0371,0.44922 0.38281,-0.0312 a 9.9297642,9.9297642 0 0 0 0.10156,0.74414 l -0.37305,0.0664 0.0508,0.29492 a 0.37799055,0.37799055 0 0 0 0,0.0156 l 0.11133,0.48632 a 0.37799055,0.37799055 0 0 0 0.008,0.0156 l 0.13281,0.47265 a 0.37799055,0.37799055 0 0 0 0.008,0.0137 l 0.1543,0.46679 a 0.37799055,0.37799055 0 0 0 0.008,0.0156 l 0.17578,0.45117 a 0.37799055,0.37799055 0 0 0 0.008,0.0156 l 0.008,0.0156 0.34765,-0.15625 a 9.9297642,9.9297642 0 0 0 0.32227,0.68164 l -0.33789,0.17383 0.0879,0.16992 a 0.37799055,0.37799055 0 0 0 0.008,0.0215 l 0.23633,0.41406 a 0.37799055,0.37799055 0 0 0 0.008,0.0156 l 0.25781,0.40625 a 0.37799055,0.37799055 0 0 0 0.0156,0.0156 l 0.27344,0.38281 a 0.37799055,0.37799055 0 0 0 0.0137,0.0137 l 0.29492,0.37696 a 0.37799055,0.37799055 0 0 0 0.008,0.0156 l 0.11133,0.125 0.28711,-0.25391 a 9.9297642,9.9297642 0 0 0 0.50781,0.55274 l -0.27929,0.26758 0.0293,0.0234 a 0.37799055,0.37799055 0 0 0 0.008,0.0137 l 0.34766,0.33398 a 0.37799055,0.37799055 0 0 0 0.0137,0.006 l 0.36328,0.3125 a 0.37799055,0.37799055 0 0 0 0.0137,0.0137 l 0.36914,0.29492 a 0.37799055,0.37799055 0 0 0 0.0156,0.008 l 0.39063,0.27929 a 0.37799055,0.37799055 0 0 0 0.0137,0.008 l 0.27344,0.17773 0.20703,-0.32422 a 9.9297642,9.9297642 0 0 0 0.65625,0.37695 l -0.17578,0.34375 0.3164,0.16211 a 0.37799055,0.37799055 0 0 0 0.0234,0.008 l 0.43555,0.19921 a 0.37799055,0.37799055 0 0 0 0.0215,0.008 l 0.45117,0.17773 a 0.37799055,0.37799055 0 0 0 0.0137,0.006 l 0.45899,0.1543 a 0.37799055,0.37799055 0 0 0 0.0215,0.008 l 0.43555,0.125 0.10547,-0.375 a 9.9297642,9.9297642 0 0 0 0.73633,0.16406 l -0.0664,0.37305 0.26563,0.0527 a 0.37799055,0.37799055 0 0 0 0.0215,0 l 0.49414,0.0684 a 0.37799055,0.37799055 0 0 0 0.0156,0 l 0.50976,0.0371 a 0.37799055,0.37799055 0 0 0 0.0137,0 l 0.51758,0.0156 a 0.37799055,0.37799055 0 0 0 0.0137,0 l 0.48047,-0.008 -0.008,-0.38868 a 9.9297642,9.9297642 0 0 0 0.74805,-0.0645 l 0.0488,0.37891 0.28126,-0.0391 a 0.37799055,0.37799055 0 0 0 0.0215,0 l 0.48828,-0.0879 a 0.37799055,0.37799055 0 0 0 0.0137,0 l 0.48828,-0.11132 a 0.37799055,0.37799055 0 0 0 0.0137,-0.008 l 0.47265,-0.13281 a 0.37799055,0.37799055 0 0 0 0.0156,-0.008 l 0.46484,-0.1543 a 0.37799055,0.37799055 0 0 0 0.0137,-0.008 l 0.0234,-0.008 -0.14258,-0.35743 a 9.9297642,9.9297642 0 0 0 0.69531,-0.28515 l 0.15625,0.34961 0.17579,-0.082 a 0.37799055,0.37799055 0 0 0 0.0156,-0.006 l 0.42773,-0.22071 a 0.37799055,0.37799055 0 0 0 0.0215,-0.008 l 0.41406,-0.23633 a 0.37799055,0.37799055 0 0 0 0.0156,-0.0156 l 0.40625,-0.25781 a 0.37799055,0.37799055 0 0 0 0.0137,-0.008 l 0.38476,-0.27929 a 0.37799055,0.37799055 0 0 0 0.0137,-0.008 l 0.125,-0.0957 -0.23243,-0.30078 a 9.9297642,9.9297642 0 0 0 0.58008,-0.48438 l 0.25,0.29102 0.0312,-0.0293 a 0.37799055,0.37799055 0 0 0 0.0137,-0.008 l 0.33985,-0.33203 a 0.37799055,0.37799055 0 0 0 0.0156,-0.0156 l 0.33203,-0.33984 a 0.37799055,0.37799055 0 0 0 0.006,-0.0156 l 0.31836,-0.36329 a 0.37799055,0.37799055 0 0 0 0.008,-0.0137 l 0.29492,-0.37695 a 0.37799055,0.37799055 0 0 0 0.0156,-0.0156 l 0.1836,-0.25781 -0.31055,-0.2207 a 9.9297642,9.9297642 0 0 0 0.40625,-0.63281 l 0.33203,0.18945 0.17774,-0.30859 a 0.37799055,0.37799055 0 0 0 0.008,-0.0234 l 0.2207,-0.42774 a 0.37799055,0.37799055 0 0 0 0.008,-0.0137 l 0.19922,-0.44336 a 0.37799055,0.37799055 0 0 0 0.008,-0.0156 l 0.17774,-0.45117 a 0.37799055,0.37799055 0 0 0 0.008,-0.0156 l 0.14649,-0.43555 -0.36329,-0.12304 a 9.9297642,9.9297642 0 0 0 0.20118,-0.72852 l 0.36914,0.0859 0.0586,-0.25 a 0.37799055,0.37799055 0 0 0 0,-0.002 0.37799055,0.37799055 0 0 0 0,-0.002 0.37799055,0.37799055 0 0 0 0,-0.002 0.37799055,0.37799055 0 0 0 0,-0.002 0.37799055,0.37799055 0 0 0 0,-0.002 0.37799055,0.37799055 0 0 0 0,-0.002 0.37799055,0.37799055 0 0 0 0,-0.002 0.37799055,0.37799055 0 0 0 0,-0.002 l 0.0879,-0.48828 a 0.37799055,0.37799055 0 0 0 0,-0.002 0.37799055,0.37799055 0 0 0 0,-0.002 0.37799055,0.37799055 0 0 0 0,-0.002 0.37799055,0.37799055 0 0 0 0,-0.002 0.37799055,0.37799055 0 0 0 0,-0.002 0.37799055,0.37799055 0 0 0 0,-0.002 0.37799055,0.37799055 0 0 0 0,-0.002 0.37799055,0.37799055 0 0 0 0,-0.002 0.37799055,0.37799055 0 0 0 0,-0.002 0.37799055,0.37799055 0 0 0 0,-0.002 0.37799055,0.37799055 0 0 0 0,-0.002 l 0.0664,-0.49414 a 0.37799055,0.37799055 0 0 0 0,-0.002 0.37799055,0.37799055 0 0 0 0,-0.002 0.37799055,0.37799055 0 0 0 0,-0.002 0.37799055,0.37799055 0 0 0 0,-0.002 0.37799055,0.37799055 0 0 0 0,-0.002 0.37799055,0.37799055 0 0 0 0,-0.002 0.37799055,0.37799055 0 0 0 0,-0.002 0.37799055,0.37799055 0 0 0 0,-0.002 0.37799055,0.37799055 0 0 0 0,-0.002 0.37799055,0.37799055 0 0 0 0,-0.002 0.37799055,0.37799055 0 0 0 0,-0.002 0.37799055,0.37799055 0 0 0 0,-0.002 l 0.0371,-0.50195 a 0.37799055,0.37799055 0 0 0 0,-0.002 0.37799055,0.37799055 0 0 0 0,-0.002 0.37799055,0.37799055 0 0 0 0,-0.002 0.37799055,0.37799055 0 0 0 0,-0.002 0.37799055,0.37799055 0 0 0 0,-0.002 0.37799055,0.37799055 0 0 0 0,-0.002 0.37799055,0.37799055 0 0 0 0,-0.002 0.37799055,0.37799055 0 0 0 0,-0.002 0.37799055,0.37799055 0 0 0 0,-0.002 0.37799055,0.37799055 0 0 0 0,-0.002 0.37799055,0.37799055 0 0 0 0,-0.002 l -0.44141,-0.0156 -1.47656,1.35937 -0.0156,0.008 c -0.31035,0.24866 -0.6654,0.42015 -1.04687,0.5293 -1.00927,3.07214 -3.90361,5.29492 -7.31055,5.29492 -4.24372,0 -7.6914,-3.44767 -7.6914,-7.6914 0,-0.54766 0.0569,-1.08221 0.16601,-1.59766 z m 0.99024,0.28321 c -0.093,0.45663 -0.14258,0.92963 -0.14258,1.41406 0,3.88607 3.14128,7.02734 7.02734,7.02734 2.99295,0 5.5435,-1.86429 6.5586,-4.49609 -0.84347,0.0692 -1.76589,-0.096 -2.64454,-0.39063 l -0.14062,-0.043 -2.11914,-2.71679 -3.20313,-0.0156 -0.38476,1.97071 -0.0293,0.0527 c -0.10729,0.23244 -0.25851,0.35908 -0.43555,0.47851 -0.17703,0.11944 -0.38809,0.21776 -0.61914,0.28126 -0.46211,0.12737 -1.08844,0.10037 -1.52148,-0.36133 l -0.0508,-0.0449 -1.50586,-2.92968 z"
         transform="matrix(0.26458333,0,0,0.26458333,0,255)" />
      <path
         id="path5961-3"
         style="color:#000000;fill:#000000;stroke-width:0.755906;stroke-linejoin:round;stroke-dasharray:2.26772, 0.755906;-inkscape-stroke:none"
         d="m 245.08008,193.64844 -0.51758,0.0137 a 0.37799055,0.37799055 0 0 0 -0.0137,0 l -0.50977,0.043 a 0.37799055,0.37799055 0 0 0 -0.0156,0 l -0.41992,0.0547 0.006,0.043 c 0.79069,0.0108 1.56992,0.0212 2.32226,0.0332 l 0.0117,-0.14258 -0.31836,-0.0312 a 0.37799055,0.37799055 0 0 0 -0.0215,0 l -0.50977,-0.0137 a 0.37799055,0.37799055 0 0 0 -0.0137,0 z m 1.64648,0.13476 -0.0117,0.0664 c 0.13647,0.002 0.26943,0.005 0.4043,0.008 z m -8.5664,8.98047 c -0.0665,0.38881 -0.10157,0.78926 -0.10157,1.19727 0,3.88607 3.14129,7.02734 7.02735,7.02734 3.61549,0 6.58602,-2.72032 6.98242,-6.22851 -0.0505,-0.003 -0.1051,-0.005 -0.1543,-0.008 -0.74719,-0.045 -2.11645,-0.0289 -2.53125,-0.1914 l -0.17578,-0.0723 -0.82031,-1.66797 c -0.1581,0.0185 -0.33587,0.0336 -0.55274,0.0449 -0.45677,0.0227 -1.04956,0.0334 -1.72851,0.0371 -1.35789,0.006 -2.25515,-0.0769 -3.94922,-0.0996 -1.6672,-0.0234 -2.76739,-0.0421 -3.99609,-0.0391 z m -0.67383,0.008 c -0.34925,0.005 -0.66587,0.009 -0.89649,0.0215 -0.0301,0 -0.0388,0.006 -0.0664,0.008 l 0.11718,0.64258 -1.85546,0.29102 -0.004,0.21874 a 0.37799055,0.37799055 0 0 0 0,0.0156 l 0.008,0.50977 a 0.37799055,0.37799055 0 0 0 0,0.0234 l 0.0371,0.44922 0.38281,-0.0312 a 9.9297642,9.9297642 0 0 0 0.10157,0.74414 l -0.37305,0.0664 0.0508,0.29492 a 0.37799055,0.37799055 0 0 0 0,0.0156 l 0.11133,0.48632 a 0.37799055,0.37799055 0 0 0 0.008,0.0156 l 0.13281,0.47265 a 0.37799055,0.37799055 0 0 0 0.008,0.0137 l 0.15429,0.46679 a 0.37799055,0.37799055 0 0 0 0.008,0.0156 l 0.17578,0.45117 a 0.37799055,0.37799055 0 0 0 0.008,0.0156 l 0.008,0.0156 0.34766,-0.15625 a 9.9297642,9.9297642 0 0 0 0.32226,0.68164 l -0.33789,0.17383 0.0879,0.16992 a 0.37799055,0.37799055 0 0 0 0.008,0.0215 l 0.23632,0.41406 a 0.37799055,0.37799055 0 0 0 0.01,0.0156 l 0.25586,0.40625 a 0.37799055,0.37799055 0 0 0 0.0156,0.0156 l 0.27343,0.38281 a 0.37799055,0.37799055 0 0 0 0.0137,0.0137 l 0.29493,0.37696 a 0.37799055,0.37799055 0 0 0 0.008,0.0156 l 0.11133,0.125 0.28711,-0.25391 a 9.9297642,9.9297642 0 0 0 0.50781,0.55274 l -0.2793,0.26758 0.0312,0.0234 a 0.37799055,0.37799055 0 0 0 0.008,0.0137 l 0.34766,0.33398 a 0.37799055,0.37799055 0 0 0 0.0137,0.006 l 0.36328,0.3125 a 0.37799055,0.37799055 0 0 0 0.0137,0.0137 l 0.36914,0.29492 a 0.37799055,0.37799055 0 0 0 0.0137,0.008 l 0.39062,0.27929 a 0.37799055,0.37799055 0 0 0 0.0137,0.008 l 0.27344,0.17773 0.20703,-0.32422 a 9.9297642,9.9297642 0 0 0 0.65625,0.37695 l -0.17578,0.34375 0.31641,0.16211 a 0.37799055,0.37799055 0 0 0 0.0234,0.008 l 0.43554,0.19921 a 0.37799055,0.37799055 0 0 0 0.0215,0.008 l 0.45117,0.17773 a 0.37799055,0.37799055 0 0 0 0.0137,0.006 l 0.45899,0.1543 a 0.37799055,0.37799055 0 0 0 0.0215,0.008 l 0.43555,0.125 0.10547,-0.375 a 9.9297642,9.9297642 0 0 0 0.73632,0.16406 l -0.0664,0.37305 0.26562,0.0527 a 0.37799055,0.37799055 0 0 0 0.0234,0 l 0.49414,0.0684 a 0.37799055,0.37799055 0 0 0 0.0137,0 l 0.50977,0.0371 a 0.37799055,0.37799055 0 0 0 0.0137,0 l 0.51758,0.0156 a 0.37799055,0.37799055 0 0 0 0.0137,0 l 0.48047,-0.008 -0.008,-0.38868 a 9.9297642,9.9297642 0 0 0 0.74804,-0.0645 l 0.0488,0.37891 0.28125,-0.0391 a 0.37799055,0.37799055 0 0 0 0.0215,0 l 0.48828,-0.0879 a 0.37799055,0.37799055 0 0 0 0.0137,0 l 0.48828,-0.11132 a 0.37799055,0.37799055 0 0 0 0.0137,-0.008 l 0.47266,-0.13281 a 0.37799055,0.37799055 0 0 0 0.0156,-0.008 l 0.46485,-0.1543 a 0.37799055,0.37799055 0 0 0 0.0137,-0.008 l 0.0234,-0.008 -0.14258,-0.35743 a 9.9297642,9.9297642 0 0 0 0.69531,-0.28515 l 0.15625,0.34961 0.17578,-0.082 a 0.37799055,0.37799055 0 0 0 0.0156,-0.006 l 0.42773,-0.22071 a 0.37799055,0.37799055 0 0 0 0.0215,-0.008 l 0.41406,-0.23633 a 0.37799055,0.37799055 0 0 0 0.0156,-0.0156 l 0.40625,-0.25781 a 0.37799055,0.37799055 0 0 0 0.0137,-0.008 l 0.38476,-0.27929 a 0.37799055,0.37799055 0 0 0 0.0137,-0.008 l 0.125,-0.0957 -0.23242,-0.30078 a 9.9297642,9.9297642 0 0 0 0.58008,-0.48438 l 0.25,0.29102 0.0312,-0.0293 a 0.37799055,0.37799055 0 0 0 0.0137,-0.008 l 0.33984,-0.33203 a 0.37799055,0.37799055 0 0 0 0.0156,-0.0156 l 0.33203,-0.33984 a 0.37799055,0.37799055 0 0 0 0.006,-0.0156 l 0.31836,-0.36329 a 0.37799055,0.37799055 0 0 0 0.008,-0.0137 l 0.29492,-0.37695 a 0.37799055,0.37799055 0 0 0 0.0156,-0.0156 l 0.18359,-0.25781 -0.31054,-0.2207 a 9.9297642,9.9297642 0 0 0 0.40625,-0.63281 l 0.33203,0.18945 0.17773,-0.30859 a 0.37799055,0.37799055 0 0 0 0.008,-0.0234 l 0.22071,-0.42774 a 0.37799055,0.37799055 0 0 0 0.008,-0.0137 l 0.19922,-0.44336 a 0.37799055,0.37799055 0 0 0 0.008,-0.0156 l 0.17773,-0.45117 a 0.37799055,0.37799055 0 0 0 0.008,-0.0156 l 0.14648,-0.43555 -0.36328,-0.12304 a 9.9297642,9.9297642 0 0 0 0.20117,-0.72852 l 0.36914,0.0859 0.0586,-0.25 a 0.37799055,0.37799055 0 0 0 0,-0.002 0.37799055,0.37799055 0 0 0 0,-0.002 0.37799055,0.37799055 0 0 0 0,-0.002 0.37799055,0.37799055 0 0 0 0,-0.002 0.37799055,0.37799055 0 0 0 0,-0.002 0.37799055,0.37799055 0 0 0 0,-0.002 0.37799055,0.37799055 0 0 0 0,-0.002 0.37799055,0.37799055 0 0 0 0,-0.002 l 0.0879,-0.48828 a 0.37799055,0.37799055 0 0 0 0,-0.002 0.37799055,0.37799055 0 0 0 0,-0.002 0.37799055,0.37799055 0 0 0 0,-0.002 0.37799055,0.37799055 0 0 0 0,-0.002 0.37799055,0.37799055 0 0 0 0,-0.002 0.37799055,0.37799055 0 0 0 0,-0.002 0.37799055,0.37799055 0 0 0 0,-0.002 0.37799055,0.37799055 0 0 0 0,-0.002 0.37799055,0.37799055 0 0 0 0,-0.002 0.37799055,0.37799055 0 0 0 0,-0.002 0.37799055,0.37799055 0 0 0 0,-0.002 l 0.0664,-0.49414 a 0.37799055,0.37799055 0 0 0 0,-0.002 0.37799055,0.37799055 0 0 0 0,-0.002 0.37799055,0.37799055 0 0 0 0,-0.002 0.37799055,0.37799055 0 0 0 0,-0.002 0.37799055,0.37799055 0 0 0 0,-0.002 0.37799055,0.37799055 0 0 0 0,-0.002 0.37799055,0.37799055 0 0 0 0,-0.002 0.37799055,0.37799055 0 0 0 0,-0.002 0.37799055,0.37799055 0 0 0 0,-0.002 0.37799055,0.37799055 0 0 0 0,-0.002 0.37799055,0.37799055 0 0 0 0,-0.002 0.37799055,0.37799055 0 0 0 0,-0.002 l 0.0176,-0.23242 c -0.29816,0.0117 -0.59917,0.0222 -0.9043,0.0273 -0.58751,0.009 -1.17121,0.005 -1.71679,-0.01 -0.4125,3.8568 -3.68526,6.86718 -7.65039,6.86718 -4.24372,0 -7.69141,-3.44767 -7.69141,-7.6914 0,-0.40406 0.0316,-0.80212 0.0918,-1.18946 z"
         transform="matrix(0.26458333,0,0,0.26458333,0,255)" />
      <path
         id="path5961-5-6"
         style="color:#000000;fill:#000000;stroke-width:0.2;stroke-linejoin:round;stroke-dasharray:0.600001, 0.2;-inkscape-stroke:none"
         d="m 45.346484,306.23598 -0.136943,0.004 a 0.10001,0.10001 0 0 0 -0.0036,0 l -0.134874,0.0114 a 0.10001,0.10001 0 0 0 -0.0041,0 l -0.111104,0.014 0.0124,0.0992 a 2.6272501,2.6272501 0 0 0 -0.196887,0.0367 l -0.02274,-0.0971 -0.0801,0.0176 a 0.10001,0.10001 0 0 0 -0.0036,0.002 l -0.125056,0.0351 a 0.10001,0.10001 0 0 0 -0.0062,0.002 l -0.120923,0.0408 a 0.10001,0.10001 0 0 0 -0.0041,0.002 l -0.118857,0.047 a 0.10001,0.10001 0 0 0 -0.0062,0.002 l -0.115239,0.0527 a 0.10001,0.10001 0 0 0 -0.0057,0.002 h -0.0021 l 0.04651,0.0904 a 2.6272501,2.6272501 0 0 0 -0.17725,0.0941 l -0.05064,-0.0868 -0.04289,0.0253 a 0.10001,0.10001 0 0 0 -0.0041,0.002 l -0.107487,0.0682 a 0.10001,0.10001 0 0 0 -0.0036,0.004 l -0.103354,0.0724 a 0.10001,0.10001 0 0 0 -0.0041,0.004 l -0.09767,0.078 a 0.10001,0.10001 0 0 0 -0.0036,0.002 l -0.09612,0.0822 a 0.10001,0.10001 0 0 0 -0.0036,0.004 l -0.03152,0.0294 0.06925,0.0723 a 2.6272501,2.6272501 0 0 0 -0.141076,0.14366 l -0.07235,-0.0698 -0.0062,0.006 a 0.10001,0.10001 0 0 0 -0.0036,0.004 l -0.08216,0.0956 a 0.10001,0.10001 0 0 0 -0.0021,0.004 l -0.07803,0.0977 a 0.10001,0.10001 0 0 0 -0.0041,0.004 l -0.07235,0.10335 a 0.10001,0.10001 0 0 0 -0.0036,0.004 l -0.06821,0.10749 a 0.10001,0.10001 0 0 0 -0.0021,0.004 l -0.04289,0.0744 0.08733,0.0501 a 2.6272501,2.6272501 0 0 0 -0.09147,0.17725 l -0.09147,-0.0424 -0.03927,0.0879 a 0.10001,0.10001 0 0 0 -0.0021,0.004 l -0.04702,0.12093 a 0.10001,0.10001 0 0 0 -0.0016,0.004 l -0.04134,0.12092 a 0.10001,0.10001 0 0 0 -0.0021,0.006 l -0.03514,0.12506 a 0.10001,0.10001 0 0 0 -0.0021,0.004 l -0.02532,0.11524 0.09818,0.0227 a 2.6272501,2.6272501 0 0 0 -0.03307,0.19689 l -0.09974,-0.0129 -0.0098,0.0765 a 0.10001,0.10001 0 0 0 0,0.004 l -0.01188,0.13488 a 0.10001,0.10001 0 0 0 0,0.004 l -0.0021,0.13643 a 0.10001,0.10001 0 0 0 0,0.004 l 0.0021,0.13488 a 0.10001,0.10001 0 0 0 0,0.006 l 0.0098,0.11885 0.101285,-0.008 a 2.6272501,2.6272501 0 0 0 0.02687,0.19689 l -0.0987,0.0176 0.01344,0.078 a 0.10001,0.10001 0 0 0 0,0.004 l 0.02946,0.12868 a 0.10001,0.10001 0 0 0 0.0021,0.004 l 0.03514,0.12506 a 0.10001,0.10001 0 0 0 0.0021,0.004 l 0.04082,0.1235 a 0.10001,0.10001 0 0 0 0.0021,0.004 l 0.04651,0.11937 a 0.10001,0.10001 0 0 0 0.0021,0.004 l 0.0021,0.004 0.09199,-0.0413 a 2.6272501,2.6272501 0 0 0 0.08526,0.18035 l -0.0894,0.046 0.02325,0.0449 a 0.10001,0.10001 0 0 0 0.0021,0.006 l 0.06253,0.10955 a 0.10001,0.10001 0 0 0 0.0021,0.004 l 0.06821,0.10748 a 0.10001,0.10001 0 0 0 0.0041,0.004 l 0.07235,0.10128 a 0.10001,0.10001 0 0 0 0.0036,0.004 l 0.07803,0.0997 a 0.10001,0.10001 0 0 0 0.0021,0.004 l 0.02945,0.0331 0.07596,-0.0672 a 2.6272501,2.6272501 0 0 0 0.134361,0.14625 l -0.0739,0.0708 0.0078,0.006 a 0.10001,0.10001 0 0 0 0.0021,0.004 l 0.09198,0.0879 a 0.10001,0.10001 0 0 0 0.0036,0.002 l 0.09612,0.0822 a 0.10001,0.10001 0 0 0 0.0036,0.004 l 0.09767,0.078 a 0.10001,0.10001 0 0 0 0.0041,0.002 l 0.103354,0.0739 a 0.10001,0.10001 0 0 0 0.0036,0.002 l 0.07235,0.047 0.05478,-0.0858 a 2.6272501,2.6272501 0 0 0 0.173632,0.0997 l -0.04651,0.091 0.08372,0.0429 a 0.10001,0.10001 0 0 0 0.0062,0.002 l 0.115239,0.0527 a 0.10001,0.10001 0 0 0 0.0057,0.002 l 0.119375,0.047 a 0.10001,0.10001 0 0 0 0.0036,0.002 l 0.121438,0.0408 a 0.10001,0.10001 0 0 0 0.0057,0.002 l 0.115237,0.0331 0.02791,-0.0992 a 2.6272501,2.6272501 0 0 0 0.19482,0.0434 l -0.01757,0.0987 0.07028,0.014 a 0.10001,0.10001 0 0 0 0.0057,0 l 0.130741,0.0176 a 0.10001,0.10001 0 0 0 0.0041,0 l 0.134874,0.01 a 0.10001,0.10001 0 0 0 0.0036,0 l 0.136943,0.004 a 0.10001,0.10001 0 0 0 0.0036,0 l 0.127124,-0.002 -0.0021,-0.10284 a 2.6272501,2.6272501 0 0 0 0.197922,-0.0171 l 0.01292,0.10025 0.07441,-0.0103 a 0.10001,0.10001 0 0 0 0.0057,0 l 0.12919,-0.0233 a 0.10001,0.10001 0 0 0 0.0036,0 l 0.129191,-0.0294 a 0.10001,0.10001 0 0 0 0.0036,-0.002 l 0.125058,-0.0351 a 0.10001,0.10001 0 0 0 0.0041,-0.002 l 0.122989,-0.0408 a 0.10001,0.10001 0 0 0 0.0036,-0.002 l 0.0062,-0.002 -0.03772,-0.0946 a 2.6272501,2.6272501 0 0 0 0.183968,-0.0754 l 0.04134,0.0925 0.04651,-0.0217 a 0.10001,0.10001 0 0 0 0.0041,-0.002 l 0.113173,-0.0584 a 0.10001,0.10001 0 0 0 0.0057,-0.002 l 0.109553,-0.0625 a 0.10001,0.10001 0 0 0 0.0041,-0.004 l 0.107487,-0.0682 a 0.10001,0.10001 0 0 0 0.0036,-0.002 l 0.101803,-0.0739 a 0.10001,0.10001 0 0 0 0.0036,-0.002 l 0.03307,-0.0253 -0.06149,-0.0796 a 2.6272501,2.6272501 0 0 0 0.153479,-0.12816 l 0.06615,0.077 0.0083,-0.008 a 0.10001,0.10001 0 0 0 0.0036,-0.002 l 0.08992,-0.0879 a 0.10001,0.10001 0 0 0 0.0041,-0.004 l 0.08785,-0.0899 a 0.10001,0.10001 0 0 0 0.0016,-0.004 l 0.08423,-0.0961 a 0.10001,0.10001 0 0 0 0.0021,-0.004 l 0.07803,-0.0997 a 0.10001,0.10001 0 0 0 0.0041,-0.004 l 0.04857,-0.0682 -0.08217,-0.0584 a 2.6272501,2.6272501 0 0 0 0.107487,-0.16743 l 0.08785,0.0501 0.04703,-0.0816 a 0.10001,0.10001 0 0 0 0.0021,-0.006 l 0.05839,-0.11317 a 0.10001,0.10001 0 0 0 0.0021,-0.004 l 0.05271,-0.11731 a 0.10001,0.10001 0 0 0 0.0021,-0.004 l 0.04702,-0.11938 a 0.10001,0.10001 0 0 0 0.0021,-0.004 l 0.03876,-0.11524 -0.09612,-0.0326 a 2.6272501,2.6272501 0 0 0 0.05323,-0.19276 l 0.09767,0.0227 0.0155,-0.0661 a 0.10001,0.10001 0 0 0 0,-5.1e-4 0.10001,0.10001 0 0 0 0,-5.2e-4 0.10001,0.10001 0 0 0 0,-5.2e-4 0.10001,0.10001 0 0 0 0,-5.1e-4 0.10001,0.10001 0 0 0 0,-5.2e-4 0.10001,0.10001 0 0 0 0,-5.2e-4 0.10001,0.10001 0 0 0 0,-5.1e-4 0.10001,0.10001 0 0 0 0,-5.2e-4 l 0.02325,-0.12919 a 0.10001,0.10001 0 0 0 0,-5.2e-4 0.10001,0.10001 0 0 0 0,-5.1e-4 0.10001,0.10001 0 0 0 0,-5.2e-4 0.10001,0.10001 0 0 0 0,-5.2e-4 0.10001,0.10001 0 0 0 0,-5.2e-4 0.10001,0.10001 0 0 0 0,-5.1e-4 0.10001,0.10001 0 0 0 0,-5.2e-4 0.10001,0.10001 0 0 0 0,-5.2e-4 0.10001,0.10001 0 0 0 0,-5.1e-4 0.10001,0.10001 0 0 0 0,-5.2e-4 0.10001,0.10001 0 0 0 0,-5.2e-4 l 0.01757,-0.13074 a 0.10001,0.10001 0 0 0 0,-5.2e-4 0.10001,0.10001 0 0 0 0,-5.1e-4 0.10001,0.10001 0 0 0 0,-5.2e-4 0.10001,0.10001 0 0 0 0,-5.1e-4 0.10001,0.10001 0 0 0 0,-5.2e-4 0.10001,0.10001 0 0 0 0,-5.2e-4 0.10001,0.10001 0 0 0 0,-5.1e-4 0.10001,0.10001 0 0 0 0,-5.2e-4 0.10001,0.10001 0 0 0 0,-5.2e-4 0.10001,0.10001 0 0 0 0,-5.1e-4 0.10001,0.10001 0 0 0 0,-5.2e-4 0.10001,0.10001 0 0 0 0,-5.2e-4 l 0.0098,-0.13281 a 0.10001,0.10001 0 0 0 0,-5.2e-4 0.10001,0.10001 0 0 0 0,-5.1e-4 0.10001,0.10001 0 0 0 0,-5.2e-4 0.10001,0.10001 0 0 0 0,-5.1e-4 0.10001,0.10001 0 0 0 0,-5.2e-4 0.10001,0.10001 0 0 0 0,-5.2e-4 0.10001,0.10001 0 0 0 0,-5.1e-4 0.10001,0.10001 0 0 0 0,-5.2e-4 0.10001,0.10001 0 0 0 0,-5.2e-4 0.10001,0.10001 0 0 0 0,-5.1e-4 0.10001,0.10001 0 0 0 0,-5.2e-4 0.10001,0.10001 0 0 0 0,-5.2e-4 l 0.0041,-0.13436 -0.09974,-0.002 0.09974,-0.002 -0.0041,-0.13694 a 0.10001,0.10001 0 0 0 0,-5.2e-4 0.10001,0.10001 0 0 0 0,-5.2e-4 0.10001,0.10001 0 0 0 0,-5.1e-4 0.10001,0.10001 0 0 0 0,-5.2e-4 0.10001,0.10001 0 0 0 0,-5.2e-4 0.10001,0.10001 0 0 0 0,-5.1e-4 0.10001,0.10001 0 0 0 0,-5.2e-4 l -0.0098,-0.13488 a 0.10001,0.10001 0 0 0 0,-5.1e-4 0.10001,0.10001 0 0 0 0,-5.2e-4 0.10001,0.10001 0 0 0 0,-5.2e-4 0.10001,0.10001 0 0 0 0,-5.1e-4 0.10001,0.10001 0 0 0 0,-5.2e-4 0.10001,0.10001 0 0 0 0,-5.2e-4 0.10001,0.10001 0 0 0 0,-5.2e-4 0.10001,0.10001 0 0 0 0,-5.1e-4 l -0.01757,-0.13074 a 0.10001,0.10001 0 0 0 0,-5.2e-4 0.10001,0.10001 0 0 0 0,-5.2e-4 0.10001,0.10001 0 0 0 0,-5.1e-4 0.10001,0.10001 0 0 0 0,-5.2e-4 0.10001,0.10001 0 0 0 0,-5.1e-4 0.10001,0.10001 0 0 0 0,-5.2e-4 0.10001,0.10001 0 0 0 0,-5.2e-4 0.10001,0.10001 0 0 0 0,-5.2e-4 0.10001,0.10001 0 0 0 0,-5.1e-4 0.10001,0.10001 0 0 0 0,-5.2e-4 0.10001,0.10001 0 0 0 0,-5.2e-4 0.10001,0.10001 0 0 0 0,-5.1e-4 l -0.01963,-0.10439 -0.09922,0.0181 a 2.6272501,2.6272501 0 0 0 -0.04548,-0.19327 l 0.09819,-0.0279 -0.02377,-0.0822 a 0.10001,0.10001 0 0 0 -0.0021,-0.006 l -0.04082,-0.12093 a 0.10001,0.10001 0 0 0 -0.0021,-0.004 l -0.04651,-0.12093 a 0.10001,0.10001 0 0 0 -0.0021,-0.004 l -0.05271,-0.11524 a 0.10001,0.10001 0 0 0 -0.0021,-0.006 l -0.05891,-0.11317 a 0.10001,0.10001 0 0 0 -0.0016,-0.004 l -0.0021,-0.002 -0.08733,0.0506 a 2.6272501,2.6272501 0 0 0 -0.102319,-0.17208 l 0.08423,-0.0543 -0.02739,-0.0429 a 0.10001,0.10001 0 0 0 -0.0021,-0.004 l -0.07235,-0.10335 a 0.10001,0.10001 0 0 0 -0.0036,-0.004 l -0.07803,-0.0977 a 0.10001,0.10001 0 0 0 -0.0021,-0.004 l -0.08423,-0.0956 a 0.10001,0.10001 0 0 0 -0.0021,-0.004 l -0.08785,-0.0915 a 0.10001,0.10001 0 0 0 -0.0036,-0.002 l -0.03101,-0.031 -0.06976,0.0729 a 2.6272501,2.6272501 0 0 0 -0.148828,-0.13333 l 0.06615,-0.076 -0.0062,-0.006 a 0.10001,0.10001 0 0 0 -0.0036,-0.002 l -0.09974,-0.078 a 0.10001,0.10001 0 0 0 -0.0036,-0.004 l -0.101803,-0.0723 a 0.10001,0.10001 0 0 0 -0.0041,-0.004 l -0.106971,-0.0687 a 0.10001,0.10001 0 0 0 -0.0041,-0.002 l -0.109553,-0.0625 a 0.10001,0.10001 0 0 0 -0.0057,-0.004 l -0.07597,-0.0388 -0.04703,0.0904 a 2.6272501,2.6272501 0 0 0 -0.181382,-0.0822 l 0.03669,-0.094 -0.08992,-0.0351 a 0.10001,0.10001 0 0 0 -0.0036,-0.002 l -0.122989,-0.0408 a 0.10001,0.10001 0 0 0 -0.0041,-0.002 l -0.125058,-0.0351 a 0.10001,0.10001 0 0 0 -0.0036,-0.002 l -0.129191,-0.0295 a 0.10001,0.10001 0 0 0 -0.0036,0 l -0.11317,-0.0212 -0.01809,0.0997 a 2.6272501,2.6272501 0 0 0 -0.196887,-0.0243 l 0.0078,-0.0992 -0.08423,-0.008 a 0.10001,0.10001 0 0 0 -0.0057,0 l -0.134874,-0.004 a 0.10001,0.10001 0 0 0 -0.0036,0 z m 0.0015,0.69349 c 1.12282,0 2.035535,0.91221 2.035535,2.03502 0,1.12282 -0.912715,2.03502 -2.035535,2.03502 -1.122818,0 -2.035016,-0.9122 -2.035016,-2.03502 0,-1.12281 0.912198,-2.03502 2.035016,-2.03502 z m 0,0.1757 c -1.028187,0 -1.859317,0.83114 -1.859317,1.85932 0,1.02819 0.83113,1.85932 1.859317,1.85932 1.028189,0 1.859835,-0.83113 1.859835,-1.85932 0,-1.02818 -0.831646,-1.85932 -1.859835,-1.85932 z" />
      <path
         id="path5961-6"
         style="color:#000000;fill:#000000;stroke-width:0.755906;stroke-linejoin:round;stroke-dasharray:2.26772, 0.755906;-inkscape-stroke:none"
         d="m 197.41602,190.39062 c -1.2051,0.0666 -2.28291,0.1374 -3.1836,0.21094 -0.94886,0.0775 -1.71697,0.1615 -2.22851,0.23633 -0.25524,0.037 -0.0435,-0.0418 -0.14063,-0.008 -0.12133,0.17752 -0.26,0.37494 -0.45117,0.72265 -0.16491,0.30009 -0.34556,0.66205 -0.5293,1.04688 0.83911,-0.31464 1.74716,-0.48633 2.69531,-0.48633 3.93226,0 7.18077,2.95881 7.63672,6.76953 l 2.52735,-0.79101 -0.0508,-0.26758 -0.375,0.0684 a 9.9297642,9.9297642 0 0 0 -0.17188,-0.73047 l 0.37109,-0.10547 -0.0898,-0.31055 a 0.37799055,0.37799055 0 0 0 -0.01,-0.0195 l -0.1543,-0.45703 a 0.37799055,0.37799055 0 0 0 -0.008,-0.0156 l -0.17579,-0.45703 a 0.37799055,0.37799055 0 0 0 -0.008,-0.0137 l -0.19922,-0.43554 a 0.37799055,0.37799055 0 0 0 -0.008,-0.0234 l -0.22266,-0.42774 a 0.37799055,0.37799055 0 0 0 -0.006,-0.0156 l -0.008,-0.008 -0.33007,0.1914 a 9.9297642,9.9297642 0 0 0 -0.38672,-0.65039 l 0.31836,-0.20508 -0.10352,-0.1621 a 0.37799055,0.37799055 0 0 0 -0.008,-0.0156 l -0.27344,-0.39063 a 0.37799055,0.37799055 0 0 0 -0.0137,-0.0137 l -0.29492,-0.36914 a 0.37799055,0.37799055 0 0 0 -0.008,-0.0156 l -0.31836,-0.36133 a 0.37799055,0.37799055 0 0 0 -0.008,-0.0156 l -0.33203,-0.3457 a 0.37799055,0.37799055 0 0 0 -0.0137,-0.008 l -0.11719,-0.11719 -0.26367,0.27539 a 9.9297642,9.9297642 0 0 0 -0.5625,-0.5039 l 0.25,-0.28711 -0.0234,-0.0215 a 0.37799055,0.37799055 0 0 0 -0.0137,-0.008 l -0.37695,-0.29492 a 0.37799055,0.37799055 0 0 0 -0.0137,-0.0156 l -0.38477,-0.27344 a 0.37799055,0.37799055 0 0 0 -0.0156,-0.0156 l -0.40429,-0.25977 a 0.37799055,0.37799055 0 0 0 -0.0156,-0.008 L 198.5,190.74609 a 0.37799055,0.37799055 0 0 0 -0.0215,-0.0137 l -0.28711,-0.14648 -0.17774,0.34179 a 9.9297642,9.9297642 0 0 0 -0.68555,-0.3125 z m -3.8379,2.38672 c -1.11475,0 -2.1679,0.25834 -3.10351,0.71875 -0.24066,0.54896 -0.4827,1.13363 -0.71484,1.74805 -0.77989,2.06415 -0.95764,3.82022 -1.17383,5.47656 0.88626,0.0529 1.0252,0.10403 2.1914,0.11914 1.37034,0.0189 2.81874,-0.0141 4.00782,-0.13281 1.18907,-0.11868 2.16498,-0.42679 2.22265,-0.45703 l 0.23633,-0.12695 3.32617,-1.03907 c -0.35955,-3.5471 -3.349,-6.30664 -6.99219,-6.30664 z m 9.34766,11.36914 -3.57031,1.11719 c -0.22313,0.10897 -0.44525,0.20146 -0.66797,0.28516 -1.35973,1.21021 -3.14884,1.94726 -5.10938,1.94726 -1.48004,0 -2.8632,-0.42026 -4.0371,-1.14648 -1.96389,-0.0613 -3.51445,-0.18758 -4.11133,-0.24023 l 0.1914,0.24609 a 0.37799055,0.37799055 0 0 0 0.008,0.0137 l 0.11132,0.125 0.28711,-0.25391 a 9.9297642,9.9297642 0 0 0 0.50782,0.55274 l -0.2793,0.26758 0.0293,0.0234 a 0.37799055,0.37799055 0 0 0 0.008,0.0156 l 0.34765,0.33203 a 0.37799055,0.37799055 0 0 0 0.0137,0.008 l 0.36328,0.31055 a 0.37799055,0.37799055 0 0 0 0.0137,0.0137 l 0.36914,0.29492 a 0.37799055,0.37799055 0 0 0 0.0156,0.008 l 0.39062,0.27929 a 0.37799055,0.37799055 0 0 0 0.0137,0.008 l 0.27344,0.17773 0.20703,-0.32422 a 9.9297642,9.9297642 0 0 0 0.65625,0.37695 l -0.17578,0.34375 0.31641,0.16211 a 0.37799055,0.37799055 0 0 0 0.0234,0.008 l 0.43555,0.19922 a 0.37799055,0.37799055 0 0 0 0.0215,0.008 l 0.45118,0.17773 a 0.37799055,0.37799055 0 0 0 0.0137,0.008 l 0.45898,0.1543 a 0.37799055,0.37799055 0 0 0 0.0215,0.006 l 0.43554,0.12695 0.10547,-0.375 a 9.9297642,9.9297642 0 0 0 0.73633,0.16407 l -0.0664,0.37304 0.26562,0.0508 a 0.37799055,0.37799055 0 0 0 0.0215,0 l 0.49414,0.0664 a 0.37799055,0.37799055 0 0 0 0.0156,0 l 0.50977,0.0391 a 0.37799055,0.37799055 0 0 0 0.0137,0 l 0.51758,0.0156 a 0.37799055,0.37799055 0 0 0 0.0137,0 l 0.48047,-0.008 -0.008,-0.38868 a 9.9297642,9.9297642 0 0 0 0.74805,-0.0645 l 0.0488,0.37891 0.28125,-0.041 a 0.37799055,0.37799055 0 0 0 0.0215,0 l 0.48828,-0.0859 a 0.37799055,0.37799055 0 0 0 0.0137,0 l 0.48828,-0.11132 a 0.37799055,0.37799055 0 0 0 0.0137,-0.008 l 0.47266,-0.13281 a 0.37799055,0.37799055 0 0 0 0.0156,-0.008 l 0.46484,-0.1543 a 0.37799055,0.37799055 0 0 0 0.0137,-0.008 l 0.0234,-0.008 -0.14257,-0.35743 a 9.9297642,9.9297642 0 0 0 0.69531,-0.28515 l 0.15625,0.34961 0.17578,-0.082 a 0.37799055,0.37799055 0 0 0 0.0156,-0.008 l 0.42774,-0.2207 a 0.37799055,0.37799055 0 0 0 0.0215,-0.008 l 0.41407,-0.23633 a 0.37799055,0.37799055 0 0 0 0.0156,-0.0137 l 0.40625,-0.25781 a 0.37799055,0.37799055 0 0 0 0.0137,-0.008 l 0.38477,-0.27929 a 0.37799055,0.37799055 0 0 0 0.0137,-0.008 l 0.125,-0.0957 -0.23242,-0.30078 a 9.9297642,9.9297642 0 0 0 0.58008,-0.48438 l 0.25,0.29102 0.0312,-0.0293 a 0.37799055,0.37799055 0 0 0 0.0137,-0.008 l 0.33984,-0.33203 a 0.37799055,0.37799055 0 0 0 0.0156,-0.0156 l 0.33203,-0.33984 a 0.37799055,0.37799055 0 0 0 0.006,-0.0156 l 0.31836,-0.36329 a 0.37799055,0.37799055 0 0 0 0.008,-0.0156 l 0.29492,-0.37695 a 0.37799055,0.37799055 0 0 0 0.0156,-0.0137 l 0.18359,-0.25781 -0.31055,-0.2207 a 9.9297642,9.9297642 0 0 0 0.40625,-0.63281 l 0.33203,0.18945 0.17774,-0.30859 a 0.37799055,0.37799055 0 0 0 0.008,-0.0234 l 0.2207,-0.42774 a 0.37799055,0.37799055 0 0 0 0.008,-0.0156 z m -6.07031,1.87696 c -0.49671,0.0814 -1.00177,0.13737 -1.52344,0.18945 -1.39248,0.13867 -2.85731,0.17349 -4.25,0.16406 0.77523,0.29385 1.61686,0.45508 2.49609,0.45508 1.18435,0 2.29895,-0.29289 3.27735,-0.80859 z"
         transform="matrix(0.26458333,0,0,0.26458333,0,255)" />
      <path
         id="path1559"
         style="fill:#000000;stroke:none;stroke-width:0.264583px;stroke-linecap:butt;stroke-linejoin:miter;stroke-opacity:1"
         d="m 54.965907,303.61296 c -0.166285,0 -0.300241,0.13395 -0.300241,0.30024 v 0.30851 c -0.453993,0.0113 -0.892609,0.0239 -1.295527,0.0388 -0.830998,0.0306 -1.538936,0.0684 -2.068092,0.11162 -0.264575,0.0216 -0.483383,0.045 -0.656291,0.0703 -0.153903,0.0225 -0.251327,0.0385 -0.379304,0.0977 -0.179916,0.0606 -0.240786,0.1528 -0.316259,0.25167 -0.08014,0.10498 -0.158022,0.23114 -0.240297,0.38086 -0.164547,0.29942 -0.341125,0.68843 -0.501777,1.11362 -0.321302,0.85039 -0.594897,1.81782 -0.494027,2.56057 l 0.03514,0.25941 0.261482,0.0253 c 0,0 0.673685,0.0658 1.449522,0.0765 0.387922,0.005 0.801357,-0.003 1.179256,-0.0413 0.361879,-0.0362 0.686189,-0.09 0.956014,-0.22635 l 2.673223,-0.83405 c 0.01695,0.14927 0.03101,0.25218 0.03101,0.25218 l 0.518314,0.0677 0.343649,-0.28267 0.593246,0.1695 0.416512,0.80925 c 0.146381,0.15607 0.422955,0.022 0.465603,-0.0703 l 0.119891,-0.61289 1.021125,0.004 0.575159,0.73743 c 0.393189,0.13183 0.809101,0.1447 1.051616,-0.0496 l 0.427363,-0.39429 0.615468,0.0227 0.37982,-0.17571 0.420648,-0.0847 -0.03307,-0.1757 c 0.05363,-0.0939 3.490431,0.0495 3.73362,-0.0496 l 0.238228,0.48524 c 0.267245,0.10477 1.886611,0.0946 2.125969,-0.047 0.12899,-0.14015 0.127813,-1.23382 0.01964,-1.90221 0.166005,-0.0365 0.310287,-0.074 0.432014,-0.11368 0.0985,-0.0321 0.178575,-0.0894 0.262001,-0.14211 0.12087,-0.0483 0.209632,-0.14139 0.241845,-0.21498 0.03579,-0.0818 0.04399,-0.14898 0.04909,-0.21497 0.0102,-0.13198 -0.0023,-0.26258 -0.02532,-0.39636 -0.02302,-0.13378 -0.05784,-0.26692 -0.101801,-0.38861 -0.04397,-0.12169 -0.07169,-0.2278 -0.208775,-0.34985 l -0.0098,-0.008 -0.0098,-0.008 c -0.298395,-0.22846 -0.697069,-0.29393 -1.287262,-0.38654 -0.20148,-0.0316 -0.428648,-0.0605 -0.666625,-0.0879 3.81e-4,-0.007 0,-0.0141 0,-0.0212 v -0.0775 c 0,-0.21113 -0.169717,-0.38085 -0.380855,-0.38085 H 63.92044 c -0.164364,0 -0.303895,0.1028 -0.3576,0.24804 -0.398894,-0.0154 -0.798399,-0.0306 -1.216464,-0.0419 v -0.31213 c 0,-0.16629 -0.133437,-0.30024 -0.299723,-0.30024 z m 3.404444,1.22732 c 0.05874,-6e-5 0.117354,-1e-5 0.176215,0 0.269092,10e-6 0.539277,6.5e-4 0.809771,0.002 v 5.2e-4 c 2.163958,0.0114 4.345871,0.0685 6.060612,0.18345 0.857372,0.0575 1.597326,0.12911 2.154391,0.21652 0.532246,0.0835 0.904952,0.21938 0.964798,0.25219 -0.0013,0.003 0.01274,0.0243 0.02946,0.0703 0.02727,0.0755 0.05363,0.17863 0.07028,0.27543 0.01347,0.0782 0.01571,0.14078 0.0155,0.18759 -0.01001,0.003 -0.03716,0.017 -0.09354,0.0351 -0.108394,0.0354 -0.269888,0.0757 -0.469222,0.11679 -0.127527,0.0263 -0.275603,0.0533 -0.432531,0.0801 -2.409049,-0.11258 -12.109523,-0.17375 -12.34395,0.0227 -0.135659,0.11026 -0.135768,0.64626 -0.10387,1.14618 l -2.865456,0.89401 -0.02946,0.0155 c -0.113429,0.0616 -0.39956,0.13207 -0.737939,0.16588 -0.33838,0.0338 -0.73379,0.0423 -1.105876,0.0372 -0.55581,-0.008 -0.82332,-0.0367 -1.042831,-0.0548 0.0013,-0.51199 0.138514,-1.26386 0.404111,-1.9668 0.150987,-0.39962 0.317304,-0.76593 0.460952,-1.02733 0.07182,-0.1307 0.139562,-0.23577 0.187587,-0.29869 0.02239,-0.0293 0.0471,-0.0444 0.05581,-0.0496 0.0298,-0.007 0.108551,-0.0302 0.206187,-0.0444 0.149453,-0.0218 0.358818,-0.0436 0.61495,-0.0646 0.512265,-0.0419 1.212287,-0.0792 2.037085,-0.10955 1.398292,-0.0515 3.155977,-0.0839 4.976958,-0.0858 z m -7.850685,0.3054 c -0.0023,0.002 -0.0019,0.003 5.16e-4,0.003 -10e-4,3.8e-4 -0.0091,0.003 -0.01188,0.004 z m 6.149497,1.70274 a 0.13229149,0.13229149 0 0 1 0.132807,0.13074 l 0.0036,0.76016 a 0.13229149,0.13229149 0 0 1 -0.130741,0.13281 0.13229149,0.13229149 0 0 1 -0.132808,-0.13126 l -0.0041,-0.75964 a 0.13229149,0.13229149 0 0 1 0.131258,-0.13281 z m 10.71459,0 a 0.13229149,0.13229149 0 0 1 0.13281,0.13074 l 0.0041,0.76016 a 0.13229149,0.13229149 0 0 1 -0.130741,0.13436 0.13229149,0.13229149 0 0 1 -0.132808,-0.13281 l -0.0062,-0.75964 a 0.13229149,0.13229149 0 0 1 0.132808,-0.13281 z m -11.082009,0.0196 a 0.13229149,0.13229149 0 0 1 0.132807,0.13074 l 0.0041,0.75964 a 0.13229149,0.13229149 0 0 1 -0.130744,0.13281 0.13229149,0.13229149 0 0 1 -0.132808,-0.13074 l -0.0062,-0.75964 a 0.13229149,0.13229149 0 0 1 0.132811,-0.13281 z m 10.636559,0.0119 h 5.16e-4 a 0.13229149,0.13229149 0 0 1 0.13281,0.13074 l 0.0036,0.75965 a 0.13229149,0.13229149 0 0 1 -0.130741,0.13281 0.13229149,0.13229149 0 0 1 -0.13281,-0.13074 l -0.0062,-0.75965 a 0.13229149,0.13229149 0 0 1 0.132808,-0.13281 z m -11.005529,0.0114 a 0.13229149,0.13229149 0 0 1 0.134874,0.13074 l 0.0036,0.76017 a 0.13229149,0.13229149 0 0 1 -0.130741,0.1328 0.13229149,0.13229149 0 0 1 -0.134874,-0.13125 l -0.0036,-0.75965 a 0.13229149,0.13229149 0 0 1 0.130744,-0.13281 z m 10.599351,0.0217 a 0.13229149,0.13229149 0 0 1 0.132811,0.13074 l 0.0041,0.75964 a 0.13229149,0.13229149 0 0 1 -0.130741,0.13281 0.13229149,0.13229149 0 0 1 -0.132807,-0.13074 l -0.0041,-0.75965 a 0.13229149,0.13229149 0 0 1 0.130741,-0.1328 z m -4.681368,0.0351 a 0.13229149,0.13229149 0 0 1 0.136427,0.12712 l 0.04496,1.17151 a 0.13229149,0.13229149 0 0 1 -0.128675,0.13694 0.13229149,0.13229149 0 0 1 -0.136943,-0.12712 l -0.04289,-1.17203 a 0.13229149,0.13229149 0 0 1 0.127124,-0.13642 z m -0.451133,0.0331 a 0.13229149,0.13229149 0 0 1 0.136425,0.12712 l 0.04289,1.24799 a 0.13229149,0.13229149 0 0 1 -0.126608,0.13642 0.13229149,0.13229149 0 0 1 -0.136941,-0.1266 l -0.04496,-1.24799 a 0.13229149,0.13229149 0 0 1 0.129194,-0.13694 z m -0.453205,0.0217 a 0.13229149,0.13229149 0 0 1 0.136427,0.12867 l 0.04496,1.30276 a 0.13229149,0.13229149 0 0 1 -0.126605,0.13694 0.13229149,0.13229149 0 0 1 -0.136943,-0.12919 l -0.04496,-1.30276 a 0.13229149,0.13229149 0 0 1 0.127121,-0.13642 z m -0.451133,0.0331 a 0.13229149,0.13229149 0 0 1 0.136425,0.12712 l 0.04496,1.34927 a 0.13229149,0.13229149 0 0 1 -0.128675,0.13694 0.13229149,0.13229149 0 0 1 -0.136941,-0.12919 l -0.04289,-1.3472 a 0.13229149,0.13229149 0 0 1 0.127124,-0.13694 z m -0.451136,0.0217 a 0.13229149,0.13229149 0 0 1 0.136425,0.12661 l 0.04289,1.46089 a 0.13229149,0.13229149 0 0 1 -0.126606,0.13694 0.13229149,0.13229149 0 0 1 -0.136943,-0.12919 l -0.04496,-1.46089 a 0.13229149,0.13229149 0 0 1 0.12919,-0.13436 z m -0.451135,0.0408 a 0.13229149,0.13229149 0 0 1 0.136427,0.12868 l 0.04289,1.46089 a 0.13229149,0.13229149 0 0 1 -0.128672,0.13694 0.13229149,0.13229149 0 0 1 -0.134877,-0.12867 l -0.04496,-1.46141 a 0.13229149,0.13229149 0 0 1 0.129191,-0.13643 z" />
      <path
         id="rect948"
         style="fill:#000000;stroke:none;stroke-width:5.53701;stroke-linecap:round;stroke-linejoin:round"
         d="m 212.53906,178.01758 c -0.798,0 -1.43945,0.64145 -1.43945,1.43945 v 0.80469 c 0,0.798 0.64145,1.4414 1.43945,1.4414 h 2.8418 c -0.004,0.0434 -0.006,0.0864 -0.006,0.13086 v 1.84961 c 0,0.798 0.64145,1.43946 1.43945,1.43946 h 13.83399 c 0.798,0 1.4414,-0.64146 1.4414,-1.43946 v -1.84961 c 0,-0.0445 -0.002,-0.0874 -0.006,-0.13086 h 2.83985 c 0.798,0 1.4414,-0.6434 1.4414,-1.4414 v -0.80469 c 0,-0.798 -0.6434,-1.43945 -1.4414,-1.43945 z"
         transform="matrix(0.26458333,0,0,0.26458333,0,255)" />
      <path
         id="path1959"
         style="color:#000000;fill:#000000;stroke-width:0.999999px;-inkscape-stroke:none"
         d="m 206.92578,167.18359 -0.0137,0.56055 -0.0371,1.98633 1.95508,1.53515 2.48828,0.63477 c 0.0268,0.0888 0.0144,0.0989 0.0664,0.20703 0.13715,0.28498 0.43387,0.67877 0.94531,0.73047 -0.004,-3.4e-4 0.40279,0.0563 0.97461,0.14063 0.57182,0.0843 1.36512,0.20037 2.29492,0.33984 0.64766,0.097 1.42722,0.21551 2.1875,0.33008 l 0.082,-1.48047 -1.52734,-0.87109 0.37109,-2.97657 -0.47851,0.14063 z m 10.82617,0.89844 -0.33984,2.67578 1.49023,0.84961 -0.11914,2.18946 c 1.12787,0.17022 2.32069,0.35116 3.51172,0.53124 4.82232,0.72923 9.57423,1.45508 9.57422,1.45508 l 0.79102,0.11719 c 0,0 2.13955,-3.65818 -1.5293,-4.89258 L 229.38281,170.83008 228.68164,169.5 227,169.28125 c -0.13958,-0.46541 -0.54746,-0.82194 -1.0625,-0.875 l -2.42188,-0.25 c -0.46609,-0.048 -0.89729,0.16555 -1.14648,0.52344 z"
         transform="matrix(0.26458333,0,0,0.26458333,0,255)" />
      <path
         style="fill:#000000;stroke:none;stroke-width:0.264583px;stroke-linecap:butt;stroke-linejoin:miter;stroke-opacity:1"
         d="m 57.022425,301.05216 v 0.88231 h 4.240607 v -0.24839 z"
         id="path2273" />
      <rect
         style="fill:#000000;stroke:none;stroke-width:1.465;stroke-linecap:round;stroke-linejoin:round"
         id="rect3209"
         width="2.2689021"
         height="0.87732452"
         x="49.297913"
         y="303.4155"
         ry="0.22281836" />
      <path
         id="rect5775"
         style="fill:#000000;stroke:none;stroke-width:3.77953;stroke-linecap:round;stroke-linejoin:round;stroke-miterlimit:4;stroke-dasharray:none;stroke-opacity:1"
         d="m 195.73242,184.63086 v 0.86328 c 0,0.20412 -0.0754,0.38774 -0.19531,0.5332 1.69686,-0.10852 3.70933,-0.20608 5.96289,-0.28906 1.10871,-0.041 2.28962,-0.0761 3.51172,-0.10937 0.0104,-0.0527 0.0156,-0.1063 0.0156,-0.16211 0,-0.46252 -0.37147,-0.83594 -0.83398,-0.83594 z"
         transform="matrix(0.26458333,0,0,0.26458333,0,255)" />
      <path
         id="rect6722"
         style="fill:#000000;stroke:none;stroke-width:5.61579;stroke-linecap:round;stroke-linejoin:round;stroke-miterlimit:4;stroke-dasharray:none;stroke-opacity:1"
         d="m 177.67578,184.56641 c -0.0555,0.002 -0.11168,0.008 -0.16797,0.0215 l -12.01367,2.81445 c -0.45032,0.1055 -0.72659,0.55359 -0.62109,1.00391 l 0.0254,0.11523 c 0.009,0.0366 0.0203,0.0712 0.0332,0.10547 l -1.46484,0.34571 c -0.6582,0.15523 -1.04806,0.8072 -0.875,1.46093 l 0.13086,0.49805 c 0.0515,0.19446 0.14751,0.36603 0.27343,0.50781 2.45628,-1.03866 4.8305,-1.9245 6.69141,-2.36914 0.004,-0.004 0.0107,-0.004 0.0156,-0.006 0.32503,-0.16728 0.66493,-0.26098 1.1504,-0.39062 0.492,-0.13153 1.09606,-0.27063 1.79492,-0.41992 1.39772,-0.29847 3.15863,-0.6272 4.99023,-0.9375 1.36916,-0.23206 2.77151,-0.45373 4.09961,-0.64649 -0.006,-0.0711 -0.0162,-0.14303 -0.0352,-0.21484 l -0.13281,-0.49805 c -0.15142,-0.57202 -0.68251,-0.95183 -1.2539,-0.93359 -0.0816,0.003 -0.16382,0.0138 -0.2461,0.0332 l -1.51758,0.35742 c -0.004,-0.0293 -0.009,-0.0584 -0.0156,-0.0879 l -0.0254,-0.11523 c -0.0923,-0.39403 -0.44717,-0.65592 -0.83594,-0.64453 z"
         transform="matrix(0.26458333,0,0,0.26458333,0,255)" />
      <path
         style="fill:#000000;stroke:none;stroke-width:0.264583px;stroke-linecap:butt;stroke-linejoin:miter;stroke-opacity:1"
         d="m 40.929213,306.5363 c -0.159078,-0.0623 -0.166943,-0.72827 0.09763,-0.83284 0,0 1.559538,-0.0382 1.559538,0.073 -0.524277,0.30789 -1.100359,0.51808 -1.657168,0.75987 z"
         id="path6988"
         sodipodi:nodetypes="cccc" />
    </g>
  </g>
</svg>
