<?xml version="1.0" encoding="UTF-8" standalone="no"?>
<!-- Created with Inkscape (http://www.inkscape.org/) -->

<svg
   width="60mm"
   height="42mm"
   viewBox="0 0 60 42"
   version="1.1"
   id="svg8"
   inkscape:version="1.1.2 (0a00cf5339, 2022-02-04)"
   sodipodi:docname="Hoverbike.svg"
   xmlns:inkscape="http://www.inkscape.org/namespaces/inkscape"
   xmlns:sodipodi="http://sodipodi.sourceforge.net/DTD/sodipodi-0.dtd"
   xmlns="http://www.w3.org/2000/svg"
   xmlns:svg="http://www.w3.org/2000/svg"
   xmlns:rdf="http://www.w3.org/1999/02/22-rdf-syntax-ns#"
   xmlns:cc="http://creativecommons.org/ns#"
   xmlns:dc="http://purl.org/dc/elements/1.1/">
  <defs
     id="defs2">
    <inkscape:path-effect
       effect="copy_rotate"
       starting_point="62.825012,51.902842"
       origin="61.825012,51.902842"
       id="path-effect2032-9"
       is_visible="true"
       lpeversion="1"
       method="normal"
       num_copies="19"
       starting_angle="0"
       rotation_angle="18.947368"
       gap="-0.01"
       copies_to_360="true"
       mirror_copies="false"
       split_items="false" />
    <inkscape:path-effect
       effect="copy_rotate"
       starting_point="62.825012,52.034264"
       origin="61.825012,52.034264"
       id="path-effect1183-6"
       is_visible="true"
       lpeversion="1"
       method="normal"
       num_copies="19"
       starting_angle="0"
       rotation_angle="18.947368"
       gap="-0.01"
       copies_to_360="true"
       mirror_copies="false"
       split_items="false" />
    <inkscape:path-effect
       effect="copy_rotate"
       starting_point="64.010074,52.034264"
       origin="61.825012,52.034264"
       id="path-effect2800-4"
       is_visible="true"
       lpeversion="1"
       method="normal"
       num_copies="6"
       starting_angle="0"
       rotation_angle="60"
       gap="-0.01"
       copies_to_360="true"
       mirror_copies="false"
       split_items="false" />
    <inkscape:path-effect
       effect="copy_rotate"
       starting_point="62.825012,51.902842"
       origin="61.825012,51.902842"
       id="path-effect2032"
       is_visible="true"
       lpeversion="1"
       method="normal"
       num_copies="19"
       starting_angle="0"
       rotation_angle="18.947368"
       gap="-0.01"
       copies_to_360="true"
       mirror_copies="false"
       split_items="false" />
    <inkscape:path-effect
       effect="copy_rotate"
       starting_point="62.81794,52.034264"
       origin="61.825012,52.034264"
       id="path-effect1183"
       is_visible="true"
       lpeversion="1"
       method="normal"
       num_copies="19"
       starting_angle="0"
       rotation_angle="18.947368"
       gap="-0.01"
       copies_to_360="true"
       mirror_copies="false"
       split_items="false" />
    <inkscape:path-effect
       effect="copy_rotate"
       starting_point="64.010074,52.034264"
       origin="61.825012,52.034264"
       id="path-effect2800"
       is_visible="true"
       lpeversion="1"
       method="normal"
       num_copies="8"
       starting_angle="0"
       rotation_angle="45"
       gap="-0.01"
       copies_to_360="true"
       mirror_copies="false"
       split_items="false" />
    <inkscape:path-effect
       effect="copy_rotate"
       starting_point="62.825012,51.902842"
       origin="61.825012,51.902842"
       id="path-effect2032-8"
       is_visible="true"
       lpeversion="1"
       method="normal"
       num_copies="19"
       starting_angle="0"
       rotation_angle="18.947368"
       gap="-0.01"
       copies_to_360="true"
       mirror_copies="false"
       split_items="false" />
    <inkscape:path-effect
       effect="copy_rotate"
       starting_point="62.81794,52.034264"
       origin="61.825012,52.034264"
       id="path-effect1183-9"
       is_visible="true"
       lpeversion="1"
       method="normal"
       num_copies="19"
       starting_angle="0"
       rotation_angle="18.947368"
       gap="-0.01"
       copies_to_360="true"
       mirror_copies="false"
       split_items="false" />
    <inkscape:path-effect
       effect="copy_rotate"
       starting_point="64.010074,52.034264"
       origin="61.825012,52.034264"
       id="path-effect2800-6"
       is_visible="true"
       lpeversion="1"
       method="normal"
       num_copies="8"
       starting_angle="0"
       rotation_angle="45"
       gap="-0.01"
       copies_to_360="true"
       mirror_copies="false"
       split_items="false" />
    <inkscape:path-effect
       effect="copy_rotate"
       starting_point="62.825012,51.902842"
       origin="61.825012,51.902842"
       id="path-effect2032-4"
       is_visible="true"
       lpeversion="1"
       method="normal"
       num_copies="19"
       starting_angle="0"
       rotation_angle="18.947368"
       gap="-0.01"
       copies_to_360="true"
       mirror_copies="false"
       split_items="false" />
    <inkscape:path-effect
       effect="copy_rotate"
       starting_point="62.81794,52.034264"
       origin="61.825012,52.034264"
       id="path-effect1183-8"
       is_visible="true"
       lpeversion="1"
       method="normal"
       num_copies="19"
       starting_angle="0"
       rotation_angle="18.947368"
       gap="-0.01"
       copies_to_360="true"
       mirror_copies="false"
       split_items="false" />
    <inkscape:path-effect
       effect="copy_rotate"
       starting_point="64.010074,52.034264"
       origin="61.825012,52.034264"
       id="path-effect2800-8"
       is_visible="true"
       lpeversion="1"
       method="normal"
       num_copies="8"
       starting_angle="0"
       rotation_angle="45"
       gap="-0.01"
       copies_to_360="true"
       mirror_copies="false"
       split_items="false" />
  </defs>
  <sodipodi:namedview
     id="base"
     pagecolor="#ffffff"
     bordercolor="#666666"
     borderopacity="1.0"
     inkscape:pageopacity="0.0"
     inkscape:pageshadow="2"
     inkscape:zoom="5.6568542"
     inkscape:cx="129.84248"
     inkscape:cy="107.92217"
     inkscape:document-units="mm"
     inkscape:current-layer="layer3"
     showgrid="false"
     inkscape:window-width="1850"
     inkscape:window-height="1016"
     inkscape:window-x="70"
     inkscape:window-y="1107"
     inkscape:window-maximized="1"
     inkscape:snap-global="false"
     showguides="true"
     inkscape:pagecheckerboard="0"
     inkscape:guide-bbox="true" />
  <metadata
     id="metadata5">
    <rdf:RDF>
      <cc:Work
         rdf:about="">
        <dc:format>image/svg+xml</dc:format>
        <dc:type
           rdf:resource="http://purl.org/dc/dcmitype/StillImage" />
      </cc:Work>
    </rdf:RDF>
  </metadata>
  <g
     inkscape:groupmode="layer"
     id="layer3"
     inkscape:label="Capa 2"
     style="display:inline">
    <path
       id="rect6574"
       style="fill:#000000;fill-opacity:0.992186;stroke:none;stroke-width:18.4541;stroke-linecap:round;stroke-dasharray:110.725, 110.725;stroke-dashoffset:142.097;stop-color:#000000"
       d="M 118.52344 56.574219 C 117.94804 56.574219 117.48633 57.037882 117.48633 57.613281 L 117.48633 71.345703 C 117.48633 71.380853 117.485 71.416778 117.48828 71.451172 L 117.48828 71.453125 L 111.78125 76.667969 C 112.74305 76.704252 113.69693 76.742094 114.65039 76.78125 L 119.67188 72.193359 C 119.70929 72.158966 119.74231 72.120734 119.77148 72.082031 L 119.77344 72.080078 C 119.77594 72.076779 119.78056 72.073714 119.7832 72.070312 C 119.96481 71.883453 120.07812 71.628049 120.07812 71.345703 L 120.07812 57.613281 C 120.07812 57.037882 119.61446 56.574219 119.03906 56.574219 L 118.52344 56.574219 z M 55.173828 57.578125 C 54.417397 57.598534 53.713202 58.064772 53.419922 58.816406 L 53.332031 59.039062 C 52.94099 60.04125 53.43336 61.161693 54.435547 61.552734 L 62.541016 64.714844 C 62.806187 64.674781 63.082776 64.689899 63.355469 64.78125 L 75.837891 68.966797 C 76.189236 68.488483 76.821403 68.276372 77.412109 68.484375 L 87.056641 71.878906 C 87.780813 72.133911 88.157345 72.922316 87.902344 73.646484 L 87.214844 75.597656 C 88.325806 75.597611 89.479167 75.602321 90.677734 75.613281 L 92.707031 70.412109 C 92.986074 69.696872 92.635145 68.896264 91.919922 68.617188 L 76.974609 62.785156 C 76.259375 62.506076 75.458768 62.859007 75.179688 63.574219 L 75.007812 64.013672 L 66.712891 60.777344 C 66.101492 60.53878 65.42931 60.761091 65.072266 61.277344 L 55.933594 57.712891 C 55.683049 57.615114 55.425972 57.57136 55.173828 57.578125 z M 106.76367 59.525391 C 104.77005 59.525689 103.56055 59.53125 103.56055 59.53125 C 101.61002 60.516879 98.742312 64.032151 95.169922 65.726562 C 94.753478 70.160867 95.68619 72.556247 96.148438 76.294922 C 98.849462 76.341599 102.62643 76.421463 105.40039 76.505859 C 105.49129 75.494344 105.72074 73.092545 106.06445 70.482422 C 106.29058 68.76516 106.10913 68.146639 106.42578 66.605469 C 106.91761 65.486857 108.37465 65.887534 109.35938 65.873047 C 111.17225 65.848858 114.82457 65.891562 116.20703 66.048828 L 116.31641 59.560547 C 112.37516 59.5322 109.17012 59.525013 106.76367 59.525391 z M 124.00195 59.525391 C 123.14214 59.52752 122.23591 59.549617 121.26172 59.597656 L 121.41016 66.291016 C 124.06281 66.691377 126.79095 66.47551 130.67578 66.572266 C 130.71017 66.512738 130.74688 66.454009 130.7832 66.396484 A 4.2912518 4.2912518 0 0 1 134.89648 63.216797 A 4.2912518 4.2912518 0 0 1 139.1875 67.507812 A 4.2912518 4.2912518 0 0 1 139.17578 67.568359 C 139.43581 68.837075 139.63566 70.301025 139.79102 71.748047 C 140.14973 75.089017 140.25386 78.125645 140.26562 78.476562 C 141.19532 78.595277 141.84207 78.709521 142.15039 78.816406 C 142.41311 79.03902 142.61969 79.292997 142.7832 79.5625 L 143.10938 74.699219 C 143.19778 73.119286 141.28711 64.681641 141.28711 64.681641 L 142.5293 64.515625 C 142.5293 64.515625 143.88881 61.809446 142.16797 60.503906 C 133.7435 60.484633 130.02554 59.510799 124.00391 59.525391 L 124.00195 59.525391 z M 169.25977 60.035156 C 168.22186 60.037322 167.30901 60.780415 167.12305 61.839844 L 167.00195 62.53125 C 166.79315 63.720784 167.58195 64.845889 168.77148 65.054688 L 170.89648 65.427734 C 172.08602 65.636533 173.21112 64.845784 173.41992 63.65625 L 173.54102 62.964844 C 173.74981 61.77531 172.96102 60.650204 171.77148 60.441406 L 169.64844 60.068359 C 169.51833 60.045522 169.38723 60.03489 169.25977 60.035156 z M 150.47266 62.78125 A 1.2713165 1.2713165 0 0 0 149.20117 64.052734 A 1.2713165 1.2713165 0 0 0 150.47266 65.324219 A 1.2713165 1.2713165 0 0 0 151.74414 64.052734 A 1.2713165 1.2713165 0 0 0 150.47266 62.78125 z M 147.01758 62.996094 C 146.46862 63.007054 145.9656 63.363882 145.79102 63.917969 L 145.7168 64.150391 C 145.4977 64.845714 145.88083 65.581701 146.57617 65.800781 L 149.55469 66.740234 C 150.24591 66.958011 150.97734 66.580135 151.20117 65.892578 A 1.9798774 1.9798774 0 0 1 150.47266 66.033203 A 1.9798774 1.9798774 0 0 1 148.49219 64.052734 A 1.9798774 1.9798774 0 0 1 148.5957 63.421875 L 147.44141 63.056641 C 147.3002 63.012156 147.15752 62.993297 147.01758 62.996094 z M 134.89648 65.003906 A 2.5044548 2.5044548 0 0 0 132.39258 67.507812 A 2.5044548 2.5044548 0 0 0 134.89648 70.013672 A 2.5044548 2.5044548 0 0 0 137.40039 67.507812 A 2.5044548 2.5044548 0 0 0 134.89648 65.003906 z M 142.69141 65.585938 C 142.72882 65.751065 144.59534 74.010042 144.50781 75.574219 L 144.27344 79.076172 L 145.0625 79.457031 L 145.50781 77.220703 C 145.50781 77.220703 147.96551 76.659366 148.2207 76.660156 C 149.09458 76.662859 151.49856 72.216564 150.08398 67.896484 C 150.08398 67.896484 145.55792 66.152062 142.69141 65.585938 z M 168.19141 65.591797 C 167.44369 65.603891 166.7404 66.098429 166.50781 66.832031 L 162.77148 78.617188 C 162.49584 79.486638 162.99062 80.351521 163.87891 80.558594 L 164.33203 80.666016 C 164.91079 80.800945 165.50986 80.620131 165.93359 80.238281 C 166.09173 80.442943 166.31183 80.60308 166.57812 80.6875 C 167.27307 80.907771 168.01019 80.526984 168.23047 79.832031 L 170.4043 72.96875 C 170.62457 72.273808 170.24378 71.536681 169.54883 71.316406 C 169.37837 71.262359 169.20436 71.245592 169.03711 71.259766 L 170.16992 67.685547 C 170.44556 66.816093 169.95078 65.94926 169.0625 65.742188 L 168.60938 65.636719 C 168.47059 65.604215 168.32988 65.589529 168.19141 65.591797 z M 64.789062 66.525391 C 64.233812 66.508761 63.698349 66.719243 63.302734 67.095703 C 63.251711 67.066979 63.197998 67.042978 63.140625 67.023438 L 62.867188 66.929688 C 62.354975 66.755149 61.801507 67.028939 61.626953 67.541016 C 61.452415 68.053225 61.724127 68.604758 62.236328 68.779297 L 62.509766 68.873047 C 62.567252 68.8927 62.625654 68.905559 62.683594 68.914062 C 62.797093 69.650647 63.305464 70.298677 64.0625 70.556641 L 65.400391 71.011719 C 65.685518 70.683467 66.139961 70.558664 66.552734 70.695312 C 66.966782 70.837196 67.253902 71.215396 67.279297 71.652344 L 68.275391 71.992188 C 68.560065 71.663217 69.014568 71.537648 69.427734 71.673828 C 69.842409 71.815976 70.129673 72.195136 70.154297 72.632812 L 71.150391 72.972656 C 71.435065 72.643686 71.889568 72.518117 72.302734 72.654297 C 72.716782 72.79618 73.003906 73.174381 73.029297 73.611328 L 74.025391 73.951172 C 74.310518 73.62292 74.764961 73.498151 75.177734 73.634766 C 75.190207 73.640435 75.200796 73.645919 75.212891 73.652344 L 74.994141 74.300781 C 74.888087 74.611988 75.052113 74.9467 75.363281 75.052734 L 76.791016 75.539062 L 77.164062 74.445312 C 77.405612 73.736477 78.170079 73.360028 78.878906 73.601562 L 84.408203 75.484375 C 84.501104 75.516123 84.589191 75.557053 84.669922 75.605469 C 85.005393 75.602366 85.363932 75.603241 85.710938 75.601562 L 86.339844 73.753906 C 86.445897 73.4427 86.279881 73.107995 85.96875 73.001953 L 77.09375 69.978516 C 76.782544 69.872462 76.447839 70.036526 76.341797 70.347656 L 76.144531 70.923828 C 76.130925 70.92153 76.117311 70.919039 76.103516 70.916016 C 75.723375 70.78086 75.450539 70.444732 75.396484 70.044922 L 74.320312 69.677734 C 74.033711 69.960481 73.613388 70.059927 73.230469 69.935547 C 72.850891 69.800731 72.578176 69.465483 72.523438 69.066406 L 71.445312 68.699219 C 71.157879 68.982041 70.736658 69.080732 70.353516 68.955078 C 69.973938 68.820262 69.701223 68.485014 69.646484 68.085938 L 68.570312 67.71875 C 68.283295 68.002252 67.862017 68.10174 67.478516 67.976562 C 67.098371 67.841407 66.825543 67.505282 66.771484 67.105469 L 65.398438 66.638672 C 65.381808 66.633003 65.364815 66.626385 65.347656 66.621094 C 65.162384 66.563154 64.974161 66.530909 64.789062 66.525391 z M 107.87891 66.847656 A 0.49999937 0.49999937 0 0 0 107.37695 67.349609 A 0.49999937 0.49999937 0 0 0 107.87891 67.851562 L 116.1543 67.851562 A 0.49999937 0.49999937 0 0 0 116.65625 67.349609 A 0.49999937 0.49999937 0 0 0 116.1543 66.847656 L 107.87891 66.847656 z M 121.80273 67.023438 A 0.49999937 0.49999937 0 0 0 121.30078 67.525391 A 0.49999937 0.49999937 0 0 0 121.80273 68.027344 L 130.875 68.027344 A 0.49999937 0.49999937 0 0 0 131.36914 67.525391 A 0.49999937 0.49999937 0 0 0 130.875 67.023438 L 121.80273 67.023438 z M 65.380859 67.734375 C 65.41188 67.734993 65.443287 67.73689 65.474609 67.740234 C 65.554471 67.748927 65.633054 67.766701 65.708984 67.792969 C 66.272606 67.984402 66.574295 68.596542 66.382812 69.160156 C 66.190548 69.724024 65.577309 70.024965 65.013672 69.832031 C 64.45005 69.64056 64.148365 69.028458 64.339844 68.464844 C 64.491993 68.017512 64.915546 67.725099 65.380859 67.734375 z M 107.80664 68.324219 A 0.49999937 0.49999937 0 0 0 107.30469 68.826172 A 0.49999937 0.49999937 0 0 0 107.80664 69.320312 L 116.47266 69.320312 A 0.49999937 0.49999937 0 0 0 116.97461 68.826172 A 0.49999937 0.49999937 0 0 0 116.47266 68.324219 L 107.80664 68.324219 z M 121.80273 68.515625 A 0.49999937 0.49999937 0 0 0 121.30078 69.017578 A 0.49999937 0.49999937 0 0 0 121.80273 69.511719 L 131.20703 69.511719 A 0.49999937 0.49999937 0 0 0 131.70898 69.017578 A 0.49999937 0.49999937 0 0 0 131.20703 68.515625 L 121.80273 68.515625 z M 68.255859 68.714844 C 68.286834 68.715411 68.31833 68.717419 68.349609 68.720703 C 68.429395 68.729018 68.507978 68.74601 68.583984 68.771484 C 69.147856 68.963749 69.448797 69.576992 69.255859 70.140625 C 69.063595 70.703468 68.451723 71.004156 67.888672 70.8125 C 67.325832 70.620235 67.025137 70.00836 67.216797 69.445312 C 67.368805 68.998711 67.791239 68.706338 68.255859 68.714844 z M 71.128906 69.695312 C 71.159805 69.695849 71.191454 69.697933 71.222656 69.701172 C 71.303085 69.709109 71.382373 69.726101 71.458984 69.751953 C 72.021828 69.944218 72.322519 70.556089 72.130859 71.119141 C 71.938595 71.68198 71.326719 71.982672 70.763672 71.791016 C 70.200828 71.598751 69.900137 70.986876 70.091797 70.423828 C 70.244301 69.978679 70.665428 69.687267 71.128906 69.695312 z M 107.54688 69.792969 A 0.49999937 0.49999937 0 0 0 107.05273 70.294922 A 0.49999937 0.49999937 0 0 0 107.54688 70.796875 L 116.33203 70.796875 A 0.49999937 0.49999937 0 0 0 116.83398 70.294922 A 0.49999937 0.49999937 0 0 0 116.33203 69.792969 L 107.54688 69.792969 z M 123.7793 70.060547 A 1.771264 1.771264 0 0 0 122.00781 71.832031 A 1.771264 1.771264 0 0 0 123.7793 73.603516 A 1.771264 1.771264 0 0 0 125.55078 71.832031 A 1.771264 1.771264 0 0 0 123.7793 70.060547 z M 126.63672 70.072266 A 0.49999937 0.49999937 0 0 0 126.13477 70.568359 A 0.49999937 0.49999937 0 0 0 126.63672 71.070312 L 132.30664 71.070312 A 0.49999937 0.49999937 0 0 0 132.80859 70.568359 A 0.49999937 0.49999937 0 0 0 132.30664 70.072266 L 126.63672 70.072266 z M 74.005859 70.673828 C 74.036834 70.674395 74.06833 70.676404 74.099609 70.679688 C 74.180113 70.68838 74.259402 70.706154 74.335938 70.732422 C 74.898781 70.924686 75.199472 71.536562 75.007812 72.099609 C 74.815548 72.662449 74.203676 72.96314 73.640625 72.771484 C 73.077007 72.580014 72.775315 71.967908 72.966797 71.404297 C 73.118805 70.957695 73.541239 70.665326 74.005859 70.673828 z M 107.47266 71.261719 A 0.49999937 0.49999937 0 0 0 106.9707 71.763672 A 0.49999937 0.49999937 0 0 0 107.47266 72.265625 L 115.74805 72.265625 A 0.49999937 0.49999937 0 0 0 116.25 71.763672 A 0.49999937 0.49999937 0 0 0 115.74805 71.261719 L 107.47266 71.261719 z M 127.24805 71.78125 C 126.51903 71.78125 125.93164 72.368635 125.93164 73.097656 L 125.93164 74.476562 C 125.93164 75.205584 126.51903 75.792969 127.24805 75.792969 L 136.53516 75.792969 C 137.26418 75.792969 137.85156 75.205584 137.85156 74.476562 L 137.85156 73.097656 C 137.85156 72.368635 137.26418 71.78125 136.53516 71.78125 L 127.24805 71.78125 z M 107.17773 72.738281 A 0.49999937 0.49999937 0 0 0 106.67578 73.240234 A 0.49999937 0.49999937 0 0 0 107.17773 73.734375 L 114.2207 73.734375 A 0.49999937 0.49999937 0 0 0 114.72266 73.240234 A 0.49999937 0.49999937 0 0 0 114.2207 72.738281 L 107.17773 72.738281 z M 121.09961 73.210938 A 2.5400561 2.5400561 0 0 0 118.56055 75.75 A 2.5400561 2.5400561 0 0 0 121.09961 78.291016 A 2.5400561 2.5400561 0 0 0 123.64062 75.75 A 2.5400561 2.5400561 0 0 0 121.09961 73.210938 z M 156.41992 74.003906 C 154.08052 74.014751 151.80316 74.176137 150.91602 74.556641 C 150.91602 74.556641 149.86859 77.171308 148.78711 77.660156 L 146.72266 78.107422 L 146.51562 79.572266 L 161.20312 79.572266 L 162.93555 74.564453 C 162.53903 74.226275 159.42772 73.989963 156.41992 74.003906 z M 124.95312 74.011719 A 0.49999937 0.49999937 0 0 0 124.45117 74.513672 L 124.45117 77.488281 A 0.49999937 0.49999937 0 0 0 124.95312 77.982422 A 0.49999937 0.49999937 0 0 0 125.45508 77.488281 L 125.45508 74.513672 A 0.49999937 0.49999937 0 0 0 124.95312 74.011719 z M 107.13477 74.207031 A 0.49999937 0.49999937 0 0 0 106.63281 74.708984 A 0.49999937 0.49999937 0 0 0 107.13477 75.210938 L 112.3457 75.210938 A 0.49999937 0.49999937 0 0 0 112.84766 74.708984 A 0.49999937 0.49999937 0 0 0 112.3457 74.207031 L 107.13477 74.207031 z M 78.707031 74.240234 C 78.2781 74.228518 77.876536 74.495279 77.730469 74.923828 L 77.410156 75.857422 C 78.854091 75.743658 80.731462 75.670015 82.927734 75.630859 L 79.005859 74.294922 C 78.906949 74.261284 78.805979 74.242956 78.707031 74.240234 z M 117.50586 75.132812 A 0.49999937 0.49999937 0 0 0 117.00391 75.634766 L 117.00391 76.800781 A 0.49999937 0.49999937 0 0 0 117.50586 77.294922 A 0.49999937 0.49999937 0 0 0 118 76.800781 L 118 75.634766 A 0.49999937 0.49999937 0 0 0 117.50586 75.132812 z M 106.72852 75.675781 A 0.49999937 0.49999937 0 0 0 106.22656 76.177734 A 0.49999937 0.49999937 0 0 0 106.72852 76.679688 L 110.60352 76.679688 A 0.49999937 0.49999937 0 0 0 111.10547 76.177734 A 0.49999937 0.49999937 0 0 0 110.60352 75.675781 L 106.72852 75.675781 z M 128.64062 76.4375 C 127.98706 76.4375 127.46094 76.963625 127.46094 77.617188 C 127.46094 78.27075 127.98706 78.796875 128.64062 78.796875 L 137.89453 78.796875 C 138.54809 78.796875 139.07422 78.27075 139.07422 77.617188 C 139.07422 76.963625 138.54809 76.4375 137.89453 76.4375 L 128.64062 76.4375 z M 87.8125 77.783203 C 81.699167 77.788872 77.098562 77.975581 75.591797 78.429688 C 74.195836 79.153724 73.70656 82.593203 72.445312 83.470703 C 71.652912 83.502073 69.058594 85.425781 69.058594 85.425781 C 68.02569 86.449372 68.027344 90.283203 68.027344 90.283203 L 68.849609 90.298828 C 73.71919 88.895883 80.194583 88.100224 87.339844 87.746094 L 87.240234 78.572266 C 89.682319 78.75614 101.64758 82.869099 103.14062 84.1875 C 103.52533 81.83519 105.61588 80.048828 108.1543 80.048828 L 120.44922 80.048828 C 123.26275 80.048828 125.5293 82.243407 125.5293 84.970703 L 125.5293 89.095703 C 131.58644 89.744928 136.91699 90.529032 140.77734 91.349609 C 140.60798 90.473273 139.97834 86.967609 140.56445 85.591797 L 141.97266 84.642578 C 141.97266 84.642578 142.61677 81.844079 140.91016 80.376953 C 138.09977 79.388678 106.15249 77.766316 87.8125 77.783203 z M 88.392578 80.255859 L 88.470703 87.697266 C 93.09644 87.499823 97.970009 87.476258 102.86523 87.597656 L 102.82617 85.619141 C 102.3509 84.598676 90.688966 80.434246 88.392578 80.255859 z M 145.40625 80.974609 C 144.19853 80.974609 143.22656 81.946575 143.22656 83.154297 C 143.22656 83.638968 143.38288 84.086052 143.64844 84.447266 A 3.1417821 3.1417821 0 0 1 145.53516 83.810547 A 3.1417821 3.1417821 0 0 1 148.22656 85.333984 L 163.03125 85.333984 C 164.23897 85.333984 165.21094 84.362018 165.21094 83.154297 C 165.21094 81.946575 164.23897 80.974609 163.03125 80.974609 L 145.40625 80.974609 z M 108.64648 81.599609 C 106.11517 81.599609 104.07812 83.636653 104.07812 86.167969 L 104.07812 87.632812 C 111.0842 87.838948 118.02285 88.329265 124.2793 88.96875 L 124.2793 86.167969 C 124.2793 83.636653 122.2403 81.599609 119.70898 81.599609 L 108.64648 81.599609 z M 145.5332 84.558594 A 2.3947636 2.3947636 0 0 0 143.13867 86.953125 A 2.3947636 2.3947636 0 0 0 145.5332 89.347656 A 2.3947636 2.3947636 0 0 0 147.92773 86.953125 A 2.3947636 2.3947636 0 0 0 145.5332 84.558594 z M 141.5332 85.652344 L 141.08008 85.958984 C 140.71055 86.826356 140.82308 88.540305 141 89.908203 A 2.0596968 2.1747597 0 0 0 143.01758 87.740234 A 2.0596968 2.1747597 0 0 0 141.5332 85.652344 z M 95.478516 88.560547 C 82.777422 88.596198 70.931555 89.719768 64.382812 92.681641 L 61.126953 97.285156 L 147.40234 97.419922 L 145.54492 93.980469 C 140.19073 91.465132 116.64701 88.501129 95.478516 88.560547 z M 64.023438 98.011719 L 64.023438 99.585938 C 80.289704 104.03318 135.96388 101.852 143.94336 99.585938 L 143.94336 98.011719 L 64.023438 98.011719 z "
       transform="scale(0.26458333)" />
  </g>
</svg>
