<?xml version="1.0" encoding="UTF-8" standalone="no"?>
<!-- Created with Inkscape (http://www.inkscape.org/) -->

<svg
   width="60mm"
   height="42mm"
   viewBox="0 0 60 42"
   version="1.1"
   id="svg8"
   inkscape:version="1.2.2 (b0a8486541, 2022-12-01)"
   sodipodi:docname="Towed AC.svg"
   xml:space="preserve"
   xmlns:inkscape="http://www.inkscape.org/namespaces/inkscape"
   xmlns:sodipodi="http://sodipodi.sourceforge.net/DTD/sodipodi-0.dtd"
   xmlns="http://www.w3.org/2000/svg"
   xmlns:svg="http://www.w3.org/2000/svg"
   xmlns:rdf="http://www.w3.org/1999/02/22-rdf-syntax-ns#"
   xmlns:cc="http://creativecommons.org/ns#"
   xmlns:dc="http://purl.org/dc/elements/1.1/"><defs
     id="defs2"><inkscape:path-effect
       effect="copy_rotate"
       starting_point="62.825012,51.902842"
       origin="61.825012,51.902842"
       id="path-effect2032-9"
       is_visible="true"
       lpeversion="1"
       method="normal"
       num_copies="19"
       starting_angle="0"
       rotation_angle="18.947368"
       gap="-0.01"
       copies_to_360="true"
       mirror_copies="false"
       split_items="false" /><inkscape:path-effect
       effect="copy_rotate"
       starting_point="62.825012,52.034264"
       origin="61.825012,52.034264"
       id="path-effect1183-6"
       is_visible="true"
       lpeversion="1"
       method="normal"
       num_copies="19"
       starting_angle="0"
       rotation_angle="18.947368"
       gap="-0.01"
       copies_to_360="true"
       mirror_copies="false"
       split_items="false" /><inkscape:path-effect
       effect="copy_rotate"
       starting_point="64.010074,52.034264"
       origin="61.825012,52.034264"
       id="path-effect2800-4"
       is_visible="true"
       lpeversion="1"
       method="normal"
       num_copies="6"
       starting_angle="0"
       rotation_angle="60"
       gap="-0.01"
       copies_to_360="true"
       mirror_copies="false"
       split_items="false" /><inkscape:path-effect
       effect="copy_rotate"
       starting_point="62.825012,51.902842"
       origin="61.825012,51.902842"
       id="path-effect2032"
       is_visible="true"
       lpeversion="1"
       method="normal"
       num_copies="19"
       starting_angle="0"
       rotation_angle="18.947368"
       gap="-0.01"
       copies_to_360="true"
       mirror_copies="false"
       split_items="false" /><inkscape:path-effect
       effect="copy_rotate"
       starting_point="62.81794,52.034264"
       origin="61.825012,52.034264"
       id="path-effect1183"
       is_visible="true"
       lpeversion="1"
       method="normal"
       num_copies="19"
       starting_angle="0"
       rotation_angle="18.947368"
       gap="-0.01"
       copies_to_360="true"
       mirror_copies="false"
       split_items="false" /><inkscape:path-effect
       effect="copy_rotate"
       starting_point="64.010074,52.034264"
       origin="61.825012,52.034264"
       id="path-effect2800"
       is_visible="true"
       lpeversion="1"
       method="normal"
       num_copies="8"
       starting_angle="0"
       rotation_angle="45"
       gap="-0.01"
       copies_to_360="true"
       mirror_copies="false"
       split_items="false" /><inkscape:path-effect
       effect="copy_rotate"
       starting_point="62.825012,51.902842"
       origin="61.825012,51.902842"
       id="path-effect2032-8"
       is_visible="true"
       lpeversion="1"
       method="normal"
       num_copies="19"
       starting_angle="0"
       rotation_angle="18.947368"
       gap="-0.01"
       copies_to_360="true"
       mirror_copies="false"
       split_items="false" /><inkscape:path-effect
       effect="copy_rotate"
       starting_point="62.81794,52.034264"
       origin="61.825012,52.034264"
       id="path-effect1183-9"
       is_visible="true"
       lpeversion="1"
       method="normal"
       num_copies="19"
       starting_angle="0"
       rotation_angle="18.947368"
       gap="-0.01"
       copies_to_360="true"
       mirror_copies="false"
       split_items="false" /><inkscape:path-effect
       effect="copy_rotate"
       starting_point="64.010074,52.034264"
       origin="61.825012,52.034264"
       id="path-effect2800-6"
       is_visible="true"
       lpeversion="1"
       method="normal"
       num_copies="8"
       starting_angle="0"
       rotation_angle="45"
       gap="-0.01"
       copies_to_360="true"
       mirror_copies="false"
       split_items="false" /><inkscape:path-effect
       effect="copy_rotate"
       starting_point="62.825012,51.902842"
       origin="61.825012,51.902842"
       id="path-effect2032-4"
       is_visible="true"
       lpeversion="1"
       method="normal"
       num_copies="19"
       starting_angle="0"
       rotation_angle="18.947368"
       gap="-0.01"
       copies_to_360="true"
       mirror_copies="false"
       split_items="false" /><inkscape:path-effect
       effect="copy_rotate"
       starting_point="62.81794,52.034264"
       origin="61.825012,52.034264"
       id="path-effect1183-8"
       is_visible="true"
       lpeversion="1"
       method="normal"
       num_copies="19"
       starting_angle="0"
       rotation_angle="18.947368"
       gap="-0.01"
       copies_to_360="true"
       mirror_copies="false"
       split_items="false" /><inkscape:path-effect
       effect="copy_rotate"
       starting_point="64.010074,52.034264"
       origin="61.825012,52.034264"
       id="path-effect2800-8"
       is_visible="true"
       lpeversion="1"
       method="normal"
       num_copies="8"
       starting_angle="0"
       rotation_angle="45"
       gap="-0.01"
       copies_to_360="true"
       mirror_copies="false"
       split_items="false" /><inkscape:path-effect
       effect="copy_rotate"
       starting_point="171.81761,98.936495"
       origin="170.10836,98.936495"
       id="path-effect1421"
       is_visible="true"
       lpeversion="1"
       method="normal"
       num_copies="8"
       starting_angle="0"
       rotation_angle="45"
       gap="-0.01"
       copies_to_360="true"
       mirror_copies="false"
       split_items="false"
       lpesatellites=""
       link_styles="false" /></defs><sodipodi:namedview
     id="base"
     pagecolor="#ffffff"
     bordercolor="#666666"
     borderopacity="1.0"
     inkscape:pageopacity="0.0"
     inkscape:pageshadow="2"
     inkscape:zoom="2.0000001"
     inkscape:cx="160.74999"
     inkscape:cy="87.499996"
     inkscape:document-units="mm"
     inkscape:current-layer="layer3"
     showgrid="false"
     inkscape:window-width="1539"
     inkscape:window-height="773"
     inkscape:window-x="2132"
     inkscape:window-y="1293"
     inkscape:window-maximized="0"
     inkscape:snap-global="false"
     showguides="true"
     inkscape:pagecheckerboard="0"
     inkscape:guide-bbox="true"
     inkscape:showpageshadow="2"
     inkscape:deskcolor="#d1d1d1" /><metadata
     id="metadata5"><rdf:RDF><cc:Work
         rdf:about=""><dc:format>image/svg+xml</dc:format><dc:type
           rdf:resource="http://purl.org/dc/dcmitype/StillImage" /></cc:Work></rdf:RDF></metadata><g
     inkscape:groupmode="layer"
     id="layer3"
     inkscape:label="Capa 2"
     style="display:inline"><path
       id="rect25774"
       style="fill:#000000;stroke-width:0.447471;stroke-linecap:round;stroke-linejoin:round;stop-color:#000000"
       d="m 34.275958,23.050377 c -0.01524,-3.29e-4 -0.03056,-2.57e-4 -0.04592,2.64e-4 -0.469146,0.01591 -0.996803,0.428773 -1.837657,1.276121 -0.456076,0.459598 -0.913629,0.86709 -1.235748,1.110405 l -4.088548,-1.653469 c -0.305603,-0.123605 -0.651144,0.02293 -0.77475,0.32853 l -1.043379,2.579686 c -0.123605,0.305602 0.02293,0.651145 0.32853,0.77475 l 3.112458,1.258969 -0.353335,0.935452 c -0.800567,2.120248 -0.80497,1.977513 0.06333,1.977513 h 0.767625 l 0.09368,-0.975563 c 0.0145,-0.150857 0.03917,-0.300428 0.07283,-0.447803 a 4.110211,4.110211 0 0 1 2.969435,-3.307729 l 0.03246,-0.08022 c 0.318598,-0.357783 0.681233,-0.843853 1.16107,-1.539737 0.72827,-1.056177 1.554771,-1.861375 1.45767,-1.940569 -0.234536,-0.191284 -0.451111,-0.291664 -0.679754,-0.296601 z m -0.134579,2.725612 c -0.157106,-0.0022 -0.312508,0.07303 -0.404527,0.211894 l -0.515093,0.777125 a 4.110211,4.110211 0 0 1 0.16598,-0.0087 4.110211,4.110211 0 0 1 3.727297,2.379136 L 37.624588,28.3665 c 0.140219,-0.211597 0.07878,-0.4887 -0.137745,-0.621173 l -3.106125,-1.900195 c -0.07443,-0.04554 -0.157045,-0.068 -0.239339,-0.06914 z m 3.310632,5.939134 c -0.102233,0.526777 -0.306628,1.028441 -0.601646,1.476669 -0.0096,0.107125 -0.0038,0.184167 0.02296,0.210048 0.05324,0.05147 2.21539,0.909212 3.535193,0.917773 h 1.975138 c 0.06105,3.96e-4 0.08347,-0.288796 0.111092,-0.655212 0.111265,-1.476156 -1.237992,-0.786493 -2.20867,-1.056838 -2.430936,-0.677042 -2.463269,-0.875899 -2.834065,-0.89244 z" /><circle
       style="fill:#000000;stroke:#000000;stroke-width:0.309827;stroke-linecap:butt;stroke-miterlimit:4;stroke-dasharray:1.23931, 0.309827;stroke-dashoffset:0.0309827;stop-color:#000000"
       id="path1677"
       cx="33.29908"
       cy="30.949076"
       r="3.6016521" /><circle
       style="fill:none;stroke:#ffffff;stroke-width:0.339186;stroke-linecap:round;stop-color:#000000"
       id="path1118"
       cx="33.29908"
       cy="30.949076"
       r="2.7838233" /><path
       id="path1295"
       d="m 33.605068,29.137072 c 0,0.168432 -0.136541,0.304972 -0.304972,0.304972 -0.168432,0 -0.304973,-0.13654 -0.304973,-0.304972 0,-0.168432 0.136541,-0.304972 0.304973,-0.304972 0.168431,0 0.304972,0.13654 0.304972,0.304972 z m -1.370902,0.314356 c 0.119098,0.119099 0.119098,0.312197 0,0.431296 -0.119101,0.119099 -0.312197,0.119099 -0.431296,0 -0.119101,-0.119099 -0.119101,-0.312197 0,-0.431296 0.119099,-0.119099 0.312195,-0.119099 0.431296,0 z m -0.747092,1.191659 c 0.168431,0 0.304973,0.13654 0.304973,0.304972 0,0.168432 -0.136542,0.304972 -0.304973,0.304972 -0.168431,0 -0.304972,-0.13654 -0.304972,-0.304972 0,-0.168432 0.136541,-0.304972 0.304972,-0.304972 z m 0.314357,1.370903 c 0.1191,-0.119101 0.312197,-0.119101 0.431297,0 0.119098,0.119098 0.119098,0.312196 0,0.431295 -0.1191,0.119099 -0.312197,0.119099 -0.431297,0 -0.119099,-0.119099 -0.119099,-0.312197 0,-0.431295 z m 1.191658,0.747089 c 0,-0.168431 0.136541,-0.304973 0.304972,-0.304973 0.168431,0 0.304973,0.136542 0.304973,0.304973 0,0.168431 -0.136542,0.304972 -0.304973,0.304972 -0.168431,0 -0.304972,-0.136541 -0.304972,-0.304972 z m 1.370902,-0.314356 c -0.119098,-0.119098 -0.119098,-0.312197 0,-0.431295 0.1191,-0.119101 0.312197,-0.119101 0.431296,0 0.1191,0.119098 0.1191,0.312197 0,0.431295 -0.119099,0.119099 -0.312196,0.119099 -0.431296,0 z m 0.747091,-1.191659 c -0.168431,0 -0.304972,-0.136539 -0.304972,-0.304971 0,-0.168432 0.136541,-0.304972 0.304972,-0.304972 0.168432,0 0.304973,0.13654 0.304973,0.304972 0,0.168432 -0.136541,0.304971 -0.304973,0.304971 z m -0.314356,-1.370901 c -0.1191,0.119099 -0.312196,0.119099 -0.431297,0 -0.119098,-0.119099 -0.119098,-0.312197 0,-0.431297 0.119101,-0.119098 0.312197,-0.119098 0.431297,0 0.119099,0.1191 0.119099,0.312198 0,0.431297 z"
       style="fill:#ffffff;stroke:none;stroke-width:0.297078;stroke-linecap:round;stop-color:#000000" /><path
       style="display:inline;fill:#000000;stroke-width:0.077645"
       d="m 25.940586,23.742286 c 0.0045,0.0053 -1.118637,2.663206 -1.16412,2.755623 -0.0086,0.0181 -0.03607,0.02449 -0.06026,0.01433 -2.975504,-1.263384 -3.291167,-1.408366 -6.271984,-2.659249 -0.211328,-0.0886 -0.380193,-0.173556 -0.37881,-0.190596 0.0026,-0.02378 0.956555,-2.284836 1.126565,-2.674024 0.01954,-0.04463 0.04761,-0.07965 0.06237,-0.07841 3.119715,1.306863 3.575847,1.503665 6.686246,2.832332 z M 17.90589,20.817142 c 0.475311,0.200535 0.951597,0.403166 0.957931,0.411749 0.0071,0.009 -0.288454,0.704488 -0.614447,1.464697 -0.07517,0.17537 -0.145021,0.317413 -0.155167,0.316453 -0.02481,-0.003 -1.887539,-0.790078 -1.897212,-0.801807 -0.0065,-0.0087 0.737167,-1.768093 0.7546,-1.784941 0.004,-0.0034 0.478733,0.193803 0.954133,0.394111 z"
       id="path978-2"
       inkscape:connector-curvature="0"
       sodipodi:nodetypes="ccccccccccccccccc" /></g></svg>
