<?xml version="1.0" encoding="UTF-8" standalone="no"?>
<!-- Created with Inkscape (http://www.inkscape.org/) -->

<svg
   width="60mm"
   height="42mm"
   viewBox="0 0 60 42"
   version="1.1"
   id="svg8"
   inkscape:version="1.2.2 (b0a8486541, 2022-12-01)"
   sodipodi:docname="Towed Gauss.svg"
   xml:space="preserve"
   xmlns:inkscape="http://www.inkscape.org/namespaces/inkscape"
   xmlns:sodipodi="http://sodipodi.sourceforge.net/DTD/sodipodi-0.dtd"
   xmlns="http://www.w3.org/2000/svg"
   xmlns:svg="http://www.w3.org/2000/svg"
   xmlns:rdf="http://www.w3.org/1999/02/22-rdf-syntax-ns#"
   xmlns:cc="http://creativecommons.org/ns#"
   xmlns:dc="http://purl.org/dc/elements/1.1/"><defs
     id="defs2"><inkscape:path-effect
       effect="copy_rotate"
       starting_point="62.825012,51.902842"
       origin="61.825012,51.902842"
       id="path-effect2032-9"
       is_visible="true"
       lpeversion="1"
       method="normal"
       num_copies="19"
       starting_angle="0"
       rotation_angle="18.947368"
       gap="-0.01"
       copies_to_360="true"
       mirror_copies="false"
       split_items="false" /><inkscape:path-effect
       effect="copy_rotate"
       starting_point="62.825012,52.034264"
       origin="61.825012,52.034264"
       id="path-effect1183-6"
       is_visible="true"
       lpeversion="1"
       method="normal"
       num_copies="19"
       starting_angle="0"
       rotation_angle="18.947368"
       gap="-0.01"
       copies_to_360="true"
       mirror_copies="false"
       split_items="false" /><inkscape:path-effect
       effect="copy_rotate"
       starting_point="64.010074,52.034264"
       origin="61.825012,52.034264"
       id="path-effect2800-4"
       is_visible="true"
       lpeversion="1"
       method="normal"
       num_copies="6"
       starting_angle="0"
       rotation_angle="60"
       gap="-0.01"
       copies_to_360="true"
       mirror_copies="false"
       split_items="false" /><inkscape:path-effect
       effect="copy_rotate"
       starting_point="62.825012,51.902842"
       origin="61.825012,51.902842"
       id="path-effect2032"
       is_visible="true"
       lpeversion="1"
       method="normal"
       num_copies="19"
       starting_angle="0"
       rotation_angle="18.947368"
       gap="-0.01"
       copies_to_360="true"
       mirror_copies="false"
       split_items="false" /><inkscape:path-effect
       effect="copy_rotate"
       starting_point="62.81794,52.034264"
       origin="61.825012,52.034264"
       id="path-effect1183"
       is_visible="true"
       lpeversion="1"
       method="normal"
       num_copies="19"
       starting_angle="0"
       rotation_angle="18.947368"
       gap="-0.01"
       copies_to_360="true"
       mirror_copies="false"
       split_items="false" /><inkscape:path-effect
       effect="copy_rotate"
       starting_point="64.010074,52.034264"
       origin="61.825012,52.034264"
       id="path-effect2800"
       is_visible="true"
       lpeversion="1"
       method="normal"
       num_copies="8"
       starting_angle="0"
       rotation_angle="45"
       gap="-0.01"
       copies_to_360="true"
       mirror_copies="false"
       split_items="false" /><inkscape:path-effect
       effect="copy_rotate"
       starting_point="62.825012,51.902842"
       origin="61.825012,51.902842"
       id="path-effect2032-8"
       is_visible="true"
       lpeversion="1"
       method="normal"
       num_copies="19"
       starting_angle="0"
       rotation_angle="18.947368"
       gap="-0.01"
       copies_to_360="true"
       mirror_copies="false"
       split_items="false" /><inkscape:path-effect
       effect="copy_rotate"
       starting_point="62.81794,52.034264"
       origin="61.825012,52.034264"
       id="path-effect1183-9"
       is_visible="true"
       lpeversion="1"
       method="normal"
       num_copies="19"
       starting_angle="0"
       rotation_angle="18.947368"
       gap="-0.01"
       copies_to_360="true"
       mirror_copies="false"
       split_items="false" /><inkscape:path-effect
       effect="copy_rotate"
       starting_point="64.010074,52.034264"
       origin="61.825012,52.034264"
       id="path-effect2800-6"
       is_visible="true"
       lpeversion="1"
       method="normal"
       num_copies="8"
       starting_angle="0"
       rotation_angle="45"
       gap="-0.01"
       copies_to_360="true"
       mirror_copies="false"
       split_items="false" /><inkscape:path-effect
       effect="copy_rotate"
       starting_point="62.825012,51.902842"
       origin="61.825012,51.902842"
       id="path-effect2032-4"
       is_visible="true"
       lpeversion="1"
       method="normal"
       num_copies="19"
       starting_angle="0"
       rotation_angle="18.947368"
       gap="-0.01"
       copies_to_360="true"
       mirror_copies="false"
       split_items="false" /><inkscape:path-effect
       effect="copy_rotate"
       starting_point="62.81794,52.034264"
       origin="61.825012,52.034264"
       id="path-effect1183-8"
       is_visible="true"
       lpeversion="1"
       method="normal"
       num_copies="19"
       starting_angle="0"
       rotation_angle="18.947368"
       gap="-0.01"
       copies_to_360="true"
       mirror_copies="false"
       split_items="false" /><inkscape:path-effect
       effect="copy_rotate"
       starting_point="64.010074,52.034264"
       origin="61.825012,52.034264"
       id="path-effect2800-8"
       is_visible="true"
       lpeversion="1"
       method="normal"
       num_copies="8"
       starting_angle="0"
       rotation_angle="45"
       gap="-0.01"
       copies_to_360="true"
       mirror_copies="false"
       split_items="false" /><inkscape:path-effect
       effect="copy_rotate"
       starting_point="171.81761,98.936495"
       origin="170.10836,98.936495"
       id="path-effect1421"
       is_visible="true"
       lpeversion="1"
       method="normal"
       num_copies="8"
       starting_angle="0"
       rotation_angle="45"
       gap="-0.01"
       copies_to_360="true"
       mirror_copies="false"
       split_items="false"
       lpesatellites=""
       link_styles="false" /></defs><sodipodi:namedview
     id="base"
     pagecolor="#ffffff"
     bordercolor="#666666"
     borderopacity="1.0"
     inkscape:pageopacity="0.0"
     inkscape:pageshadow="2"
     inkscape:zoom="1.4142136"
     inkscape:cx="88.034792"
     inkscape:cy="112.42998"
     inkscape:document-units="mm"
     inkscape:current-layer="layer3"
     showgrid="false"
     inkscape:window-width="1539"
     inkscape:window-height="773"
     inkscape:window-x="381"
     inkscape:window-y="1281"
     inkscape:window-maximized="0"
     inkscape:snap-global="false"
     showguides="true"
     inkscape:pagecheckerboard="0"
     inkscape:guide-bbox="true"
     inkscape:showpageshadow="2"
     inkscape:deskcolor="#d1d1d1" /><metadata
     id="metadata5"><rdf:RDF><cc:Work
         rdf:about=""><dc:format>image/svg+xml</dc:format><dc:type
           rdf:resource="http://purl.org/dc/dcmitype/StillImage" /></cc:Work></rdf:RDF></metadata><g
     inkscape:groupmode="layer"
     id="layer3"
     inkscape:label="Capa 2"
     style="display:inline"><path
       id="rect25774"
       style="fill:#000000;stroke-width:0.478387;stroke-linecap:round;stroke-linejoin:round;stop-color:#000000"
       d="m 36.008307,22.589593 c -0.01629,-3.52e-4 -0.03266,-2.75e-4 -0.04909,2.81e-4 -0.50156,0.01701 -1.065674,0.458401 -1.964626,1.364295 -0.487589,0.491353 -0.976755,0.927 -1.32113,1.187126 l -4.371042,-1.767713 c -0.326719,-0.132145 -0.696136,0.02451 -0.828282,0.351229 l -1.115469,2.757926 c -0.132147,0.326719 0.02451,0.696136 0.351229,0.828281 l 3.327509,1.345956 -0.377747,1.000086 c -0.855882,2.266744 -0.860589,2.114146 0.06771,2.114147 l 0.820664,-1e-6 0.10015,-1.042966 c 0.01549,-0.161281 0.04188,-0.321187 0.07786,-0.478744 a 4.3942014,4.3942014 0 0 1 3.174605,-3.536273 l 0.0347,-0.08577 c 0.340612,-0.382504 0.728302,-0.902159 1.241292,-1.646124 0.77859,-1.129152 1.662198,-1.989984 1.558387,-2.07465 -0.250742,-0.204502 -0.48228,-0.311816 -0.726721,-0.317094 z m -0.143877,2.913935 c -0.167961,-0.0024 -0.3341,0.07808 -0.432478,0.226534 l -0.550681,0.83082 a 4.3942014,4.3942014 0 0 1 0.177448,-0.0093 4.3942014,4.3942014 0 0 1 3.984829,2.543521 l 0.544759,-0.822077 c 0.149907,-0.226217 0.08423,-0.522466 -0.147262,-0.664092 l -3.32074,-2.031522 c -0.07957,-0.04869 -0.167896,-0.0727 -0.255875,-0.07391 z m 3.539376,6.349491 c -0.109295,0.563174 -0.327814,1.0995 -0.643215,1.578698 -0.01029,0.114527 -0.0041,0.196892 0.02454,0.224561 0.05693,0.05503 2.368461,0.972034 3.779453,0.981187 h 2.111608 c 0.06526,4.23e-4 0.08925,-0.308752 0.118769,-0.700485 0.118952,-1.578149 -1.32353,-0.840833 -2.361276,-1.129858 C 39.834786,32.0833 39.80022,31.870703 39.403803,31.853019 Z" /><g
       id="g984"
       transform="matrix(-0.50023011,-0.21862824,-0.21862824,0.50023011,32.758289,6.179919)"
       style="display:inline"><path
         sodipodi:nodetypes="cccccscssscsccscccscccccccccccccccccccccccccsccc"
         inkscape:connector-curvature="0"
         id="path948-2"
         d="m -4.8160185,32.320672 -0.037926,1.207622 c -1.3364287,-0.261722 -3.5431115,-0.08147 -4.1715092,0.365907 -0.194907,0.120977 -0.367799,0.273361 -0.515458,0.457276 -0.02821,-0.574479 -0.136984,-0.534303 -0.5581273,-0.277555 -0.470463,0.286849 -0.51632,0.185913 -0.51632,2.288964 v 1.88039 h 0.9826463 c 1.0142624,0 1.3537257,0.09523 1.3537257,0.380129 0,0.08891 0.1092367,0.120676 0.4171941,0.120676 h 0.4171942 v -0.546489 c 0,-0.102191 0.00245,-0.180773 0.00646,-0.252989 0.1979357,0.02333 0.8399483,0.02786 1.5321537,0.01551 0.028988,0.128896 0.046977,0.266291 0.046977,0.405558 v 0.378406 h 0.5008047 0.5003747 v 0.316773 c 0,0.174183 0.04545,0.361891 0.10042,0.417195 0.112625,0.112674 0.6369991,0.133088 0.7977533,0.03103 0.0541,-0.0343 0.078022,-0.504051 0.084905,-1.668344 0.022044,-0.0037 0.056188,-0.0065 0.075423,-0.01034 -0.00587,-0.05849 -0.01057,-1.038368 -0.010349,-2.17777 2.141e-4,-1.139403 -0.00907,-2.085631 -0.020676,-2.102778 -8.841e-4,-0.0015 -0.044852,-0.0025 -0.059045,-0.0039 l -0.00863,-1.225292 h -0.4589999 z m 17.7640145,1.925694 c -0.547952,7.28e-4 -1.100986,0.0099 -1.13263,0.02672 -0.03781,0.02016 -0.0844,2.164236 -0.05129,2.429523 0.0046,0.03701 0.05421,0.0658 0.110333,0.06422 0.05612,-0.0018 0.567688,-0.0033 1.136939,-0.0039 0.56925,-5.53e-4 2.18829,-0.0078 2.200857,-0.01638 0.02634,-0.01784 0.0073,-2.437085 -0.0194,-2.4765 -0.01139,-0.0168 -2.244818,-0.0237 -2.244818,-0.0237 z m -2.784135,0.344307 c -1.8354065,0.0024 -13.7861076,0.025 -13.8106234,0.03921 -0.013946,0.0081 -0.024514,0.440101 -0.023704,0.960237 l 0.00133,0.946013 1.8834157,4.41e-4 c 0.2041743,2.43e-4 1.67685666,-0.0058 3.2729038,-0.01336 2.4843017,-0.01161 9.9397819,-0.02696 9.9550869,-0.106453 0.02054,-0.106837 0.02255,-1.799655 0.0022,-1.820914 -0.0045,-0.0047 -0.668725,-0.006 -1.280526,-0.0052 z"
         style="fill:#000000;stroke-width:0.0550156" /><g
         transform="translate(-0.01181176,0.07087054)"
         id="g973"><path
           style="opacity:1;vector-effect:none;fill:#000000;fill-opacity:1;stroke:#000000;stroke-width:0.302121;stroke-linecap:butt;stroke-linejoin:miter;stroke-miterlimit:4;stroke-dasharray:none;stroke-dashoffset:0;stroke-opacity:1"
           d="m -1.0495802,32.945638 c 0.12708021,-0.639867 0.93108681,-0.542523 0.99920056,0 v 4.996003 c -0.0757009,0.580373 -0.83518195,0.643458 -0.99920056,0 0,0 -0.088318,-5.109554 0,-4.996003 z"
           id="rect909-93"
           inkscape:connector-curvature="0"
           sodipodi:nodetypes="ccccc" /><path
           style="opacity:1;vector-effect:none;fill:#000000;fill-opacity:1;stroke:#000000;stroke-width:0.302121;stroke-linecap:butt;stroke-linejoin:miter;stroke-miterlimit:4;stroke-dasharray:none;stroke-dashoffset:0;stroke-opacity:1"
           d="m 1.1095812,32.945638 c 0.12708,-0.639867 0.931087,-0.542523 0.9992,0 v 4.996003 c -0.0757,0.580373 -0.835182,0.643457 -0.9992,0 0,0 -0.08832,-5.109554 0,-4.996003 z"
           id="rect909-5"
           inkscape:connector-curvature="0"
           sodipodi:nodetypes="ccccc" /><path
           style="opacity:1;vector-effect:none;fill:#000000;fill-opacity:1;stroke:#000000;stroke-width:0.302121;stroke-linecap:butt;stroke-linejoin:miter;stroke-miterlimit:4;stroke-dasharray:none;stroke-dashoffset:0;stroke-opacity:1"
           d="m 3.268741,32.945638 c 0.12708,-0.639867 0.931087,-0.542523 0.9992,0 v 4.996003 c -0.0757,0.580373 -0.835182,0.643457 -0.9992,0 0,0 -0.08832,-5.109554 0,-4.996003 z"
           id="rect909-6"
           inkscape:connector-curvature="0"
           sodipodi:nodetypes="ccccc" /><path
           style="opacity:1;vector-effect:none;fill:#000000;fill-opacity:1;stroke:#000000;stroke-width:0.302121;stroke-linecap:butt;stroke-linejoin:miter;stroke-miterlimit:4;stroke-dasharray:none;stroke-dashoffset:0;stroke-opacity:1"
           d="m 5.4279002,33.02916 c 0.12708,-0.639867 0.931087,-0.542523 0.9992,0 v 4.745438 c -0.0757,0.580373 -0.835182,0.643457 -0.9992,0 0,0 -0.08832,-4.858989 0,-4.745438 z"
           id="rect909-2"
           inkscape:connector-curvature="0"
           sodipodi:nodetypes="ccccc" /><path
           style="opacity:1;vector-effect:none;fill:#000000;fill-opacity:1;stroke:#000000;stroke-width:0.302121;stroke-linecap:butt;stroke-linejoin:miter;stroke-miterlimit:4;stroke-dasharray:none;stroke-dashoffset:0;stroke-opacity:1"
           d="m 7.5870588,33.079273 c 0.12708,-0.639867 0.9310875,-0.542523 0.9992005,0 v 4.661916 c -0.0757,0.580373 -0.8351825,0.643457 -0.9992005,0 0,0 -0.08832,-4.775467 0,-4.661916 z"
           id="rect909-9"
           inkscape:connector-curvature="0"
           sodipodi:nodetypes="ccccc" /><path
           style="opacity:1;vector-effect:none;fill:#000000;fill-opacity:1;stroke:#000000;stroke-width:0.302121;stroke-linecap:butt;stroke-linejoin:miter;stroke-miterlimit:4;stroke-dasharray:none;stroke-dashoffset:0;stroke-opacity:1"
           d="m 9.7462246,33.474805 c 0.12708,-0.639867 0.9310874,-0.542523 0.9992004,0 v 3.937669 c -0.0757,0.580373 -0.8351824,0.643457 -0.9992004,0 0,0 -0.08832,-4.05122 0,-3.937669 z"
           id="rect909-1"
           inkscape:connector-curvature="0"
           sodipodi:nodetypes="ccccc" /><path
           style="opacity:1;vector-effect:none;fill:#000000;fill-opacity:1;stroke:#000000;stroke-width:0.302121;stroke-linecap:butt;stroke-linejoin:miter;stroke-miterlimit:4;stroke-dasharray:none;stroke-dashoffset:0;stroke-opacity:1"
           d="m -3.2087395,32.945638 c 0.12708,-0.639867 0.9310869,-0.542523 0.9991999,0 v 4.996003 c -0.0757,0.580373 -0.8351819,0.643457 -0.9991999,0 0,0 -0.08832,-5.109554 0,-4.996003 z"
           id="rect909-27"
           inkscape:connector-curvature="0"
           sodipodi:nodetypes="ccccc" /></g></g><circle
       style="fill:#000000;stroke:#000000;stroke-width:0.331235;stroke-linecap:butt;stroke-miterlimit:4;stroke-dasharray:1.32494, 0.331235;stroke-dashoffset:0.0331235;stop-color:#000000"
       id="path1677"
       cx="34.963932"
       cy="31.034044"
       r="3.8505039" /><circle
       style="fill:none;stroke:#ffffff;stroke-width:0.362621;stroke-linecap:round;stop-color:#000000"
       id="path1118"
       cx="34.963932"
       cy="31.034044"
       r="2.9761684" /><path
       id="path1295"
       d="m 35.291063,29.096842 c 0,0.180068 -0.145975,0.326044 -0.326044,0.326044 -0.180068,0 -0.326044,-0.145976 -0.326044,-0.326044 0,-0.18007 0.145976,-0.326045 0.326044,-0.326045 0.180069,0 0.326044,0.145975 0.326044,0.326045 z m -1.465622,0.336076 c 0.127327,0.127328 0.127327,0.333768 0,0.461096 -0.12733,0.127328 -0.333768,0.127328 -0.461095,0 -0.127331,-0.127328 -0.127331,-0.333768 0,-0.461096 0.127327,-0.127328 0.333765,-0.127328 0.461095,0 z m -0.798711,1.273994 c 0.180068,0 0.326044,0.145976 0.326044,0.326043 0,0.180071 -0.145976,0.326044 -0.326044,0.326044 -0.180069,0 -0.326045,-0.145973 -0.326045,-0.326044 0,-0.180067 0.145976,-0.326043 0.326045,-0.326043 z m 0.336075,1.465624 c 0.127329,-0.12733 0.333768,-0.12733 0.461098,0 0.127327,0.127327 0.127327,0.333768 0,0.461095 -0.12733,0.127327 -0.333769,0.127327 -0.461098,0 -0.127327,-0.127327 -0.127327,-0.333768 0,-0.461095 z m 1.273995,0.798709 c 0,-0.18007 0.145975,-0.326044 0.326045,-0.326044 0.180068,0 0.326045,0.145974 0.326045,0.326044 0,0.180068 -0.145977,0.326044 -0.326045,0.326044 -0.18007,0 -0.326045,-0.145976 -0.326045,-0.326044 z m 1.465623,-0.336076 c -0.127328,-0.127329 -0.127328,-0.333768 0,-0.461096 0.12733,-0.12733 0.333768,-0.12733 0.461096,0 0.127329,0.127328 0.127329,0.333767 0,0.461096 -0.127328,0.127327 -0.333766,0.127327 -0.461096,0 z m 0.798711,-1.273995 c -0.180069,0 -0.326044,-0.145974 -0.326044,-0.326044 0,-0.180068 0.145975,-0.326044 0.326044,-0.326044 0.180069,0 0.326044,0.145976 0.326044,0.326044 0,0.18007 -0.145975,0.326044 -0.326044,0.326044 z m -0.336077,-1.465623 c -0.127328,0.127329 -0.333767,0.127329 -0.461097,0 -0.127326,-0.127327 -0.127326,-0.333768 0,-0.461096 0.12733,-0.127327 0.333769,-0.127327 0.461097,0 0.127328,0.127328 0.127328,0.333769 0,0.461096 z"
       style="fill:#ffffff;stroke:none;stroke-width:0.317603;stroke-linecap:round;stop-color:#000000" /></g></svg>
