<?xml version="1.0" encoding="UTF-8" standalone="no"?>
<!-- Created with Inkscape (http://www.inkscape.org/) -->

<svg
   width="60mm"
   height="42mm"
   viewBox="0 0 60 42"
   version="1.1"
   id="svg8"
   inkscape:version="1.4.3 (0d15f75042, 2025-12-25)"
   sodipodi:docname="Turret - AC10.svg"
   xml:space="preserve"
   xmlns:inkscape="http://www.inkscape.org/namespaces/inkscape"
   xmlns:sodipodi="http://sodipodi.sourceforge.net/DTD/sodipodi-0.dtd"
   xmlns="http://www.w3.org/2000/svg"
   xmlns:svg="http://www.w3.org/2000/svg"
   xmlns:rdf="http://www.w3.org/1999/02/22-rdf-syntax-ns#"
   xmlns:cc="http://creativecommons.org/ns#"
   xmlns:dc="http://purl.org/dc/elements/1.1/"><defs
     id="defs2"><inkscape:path-effect
       effect="copy_rotate"
       starting_point="62.825012,51.902842"
       origin="61.825012,51.902842"
       id="path-effect2032-9"
       is_visible="true"
       lpeversion="1"
       method="normal"
       num_copies="19"
       starting_angle="0"
       rotation_angle="18.947368"
       gap="-0.01"
       copies_to_360="true"
       mirror_copies="false"
       split_items="false" /><inkscape:path-effect
       effect="copy_rotate"
       starting_point="62.825012,52.034264"
       origin="61.825012,52.034264"
       id="path-effect1183-6"
       is_visible="true"
       lpeversion="1"
       method="normal"
       num_copies="19"
       starting_angle="0"
       rotation_angle="18.947368"
       gap="-0.01"
       copies_to_360="true"
       mirror_copies="false"
       split_items="false" /><inkscape:path-effect
       effect="copy_rotate"
       starting_point="64.010074,52.034264"
       origin="61.825012,52.034264"
       id="path-effect2800-4"
       is_visible="true"
       lpeversion="1"
       method="normal"
       num_copies="6"
       starting_angle="0"
       rotation_angle="60"
       gap="-0.01"
       copies_to_360="true"
       mirror_copies="false"
       split_items="false" /><inkscape:path-effect
       effect="copy_rotate"
       starting_point="62.825012,51.902842"
       origin="61.825012,51.902842"
       id="path-effect2032"
       is_visible="true"
       lpeversion="1"
       method="normal"
       num_copies="19"
       starting_angle="0"
       rotation_angle="18.947368"
       gap="-0.01"
       copies_to_360="true"
       mirror_copies="false"
       split_items="false" /><inkscape:path-effect
       effect="copy_rotate"
       starting_point="62.81794,52.034264"
       origin="61.825012,52.034264"
       id="path-effect1183"
       is_visible="true"
       lpeversion="1"
       method="normal"
       num_copies="19"
       starting_angle="0"
       rotation_angle="18.947368"
       gap="-0.01"
       copies_to_360="true"
       mirror_copies="false"
       split_items="false" /><inkscape:path-effect
       effect="copy_rotate"
       starting_point="64.010074,52.034264"
       origin="61.825012,52.034264"
       id="path-effect2800"
       is_visible="true"
       lpeversion="1"
       method="normal"
       num_copies="8"
       starting_angle="0"
       rotation_angle="45"
       gap="-0.01"
       copies_to_360="true"
       mirror_copies="false"
       split_items="false" /><inkscape:path-effect
       effect="copy_rotate"
       starting_point="62.825012,51.902842"
       origin="61.825012,51.902842"
       id="path-effect2032-8"
       is_visible="true"
       lpeversion="1"
       method="normal"
       num_copies="19"
       starting_angle="0"
       rotation_angle="18.947368"
       gap="-0.01"
       copies_to_360="true"
       mirror_copies="false"
       split_items="false" /><inkscape:path-effect
       effect="copy_rotate"
       starting_point="62.81794,52.034264"
       origin="61.825012,52.034264"
       id="path-effect1183-9"
       is_visible="true"
       lpeversion="1"
       method="normal"
       num_copies="19"
       starting_angle="0"
       rotation_angle="18.947368"
       gap="-0.01"
       copies_to_360="true"
       mirror_copies="false"
       split_items="false" /><inkscape:path-effect
       effect="copy_rotate"
       starting_point="64.010074,52.034264"
       origin="61.825012,52.034264"
       id="path-effect2800-6"
       is_visible="true"
       lpeversion="1"
       method="normal"
       num_copies="8"
       starting_angle="0"
       rotation_angle="45"
       gap="-0.01"
       copies_to_360="true"
       mirror_copies="false"
       split_items="false" /><inkscape:path-effect
       effect="copy_rotate"
       starting_point="62.825012,51.902842"
       origin="61.825012,51.902842"
       id="path-effect2032-4"
       is_visible="true"
       lpeversion="1"
       method="normal"
       num_copies="19"
       starting_angle="0"
       rotation_angle="18.947368"
       gap="-0.01"
       copies_to_360="true"
       mirror_copies="false"
       split_items="false" /><inkscape:path-effect
       effect="copy_rotate"
       starting_point="62.81794,52.034264"
       origin="61.825012,52.034264"
       id="path-effect1183-8"
       is_visible="true"
       lpeversion="1"
       method="normal"
       num_copies="19"
       starting_angle="0"
       rotation_angle="18.947368"
       gap="-0.01"
       copies_to_360="true"
       mirror_copies="false"
       split_items="false" /><inkscape:path-effect
       effect="copy_rotate"
       starting_point="64.010074,52.034264"
       origin="61.825012,52.034264"
       id="path-effect2800-8"
       is_visible="true"
       lpeversion="1"
       method="normal"
       num_copies="8"
       starting_angle="0"
       rotation_angle="45"
       gap="-0.01"
       copies_to_360="true"
       mirror_copies="false"
       split_items="false" /></defs><sodipodi:namedview
     id="base"
     pagecolor="#ffffff"
     bordercolor="#666666"
     borderopacity="1.0"
     inkscape:pageopacity="0.0"
     inkscape:pageshadow="2"
     inkscape:zoom="11.313708"
     inkscape:cx="103.98889"
     inkscape:cy="88.786096"
     inkscape:document-units="mm"
     inkscape:current-layer="layer3"
     showgrid="false"
     inkscape:window-width="1920"
     inkscape:window-height="1043"
     inkscape:window-x="0"
     inkscape:window-y="0"
     inkscape:window-maximized="1"
     inkscape:snap-global="false"
     showguides="true"
     inkscape:pagecheckerboard="0"
     inkscape:guide-bbox="true"
     inkscape:showpageshadow="2"
     inkscape:deskcolor="#d1d1d1" /><metadata
     id="metadata5"><rdf:RDF><cc:Work
         rdf:about=""><dc:format>image/svg+xml</dc:format><dc:type
           rdf:resource="http://purl.org/dc/dcmitype/StillImage" /></cc:Work></rdf:RDF></metadata><g
     inkscape:groupmode="layer"
     id="layer3"
     inkscape:label="Capa 2"
     style="display:inline"><path
       id="rect11"
       style="display:inline;fill:#000000;fill-opacity:1;stroke:none;stroke-width:0.314554"
       d="m 28.959495,20.090907 v 1.403015 h 2.081526 v -1.403015 z m -1.074353,1.262455 v 0.557072 H 26.39531 v 0.847494 l -0.858345,0.303341 v 2.338875 l 0.858345,0.265617 v 1.021126 h 0.529684 v 0.349333 h 6.150529 v -0.349333 h 0.529683 v -1.021126 l 0.857829,-0.265617 v -2.338875 l -0.857829,-0.303341 v -0.847494 h -1.489832 v -0.557072 h -0.888317 v 0.557072 H 28.77346 v -0.557072 z m 0.45992,1.575098 h 3.310909 v 3.178101 h -3.310909 z m 0.400492,0.400492 v 2.377116 h 2.509925 v -2.377116 z" /><g
       id="g2"
       transform="translate(-0.396594,-6.0192709)"><path
         id="rect2"
         style="display:inline;stroke-width:0.4"
         d="m 27.533203,33.602083 v 0.772046 h 0.666626 v 0.719853 h -0.666626 v 0.494543 l -3.15588,-0.0124 c -0.350791,0.02339 -0.912089,1.246952 -0.912089,1.246952 v 2.678906 h 3.035474 l 0.26355,-0.595312 1.585949,-0.307992 0.07803,-0.465604 h 3.777547 l 0.08527,0.460953 1.610238,0.312643 0.263549,0.595312 h 3.025655 v -2.678906 c 0,0 -0.561429,-1.200443 -0.888834,-1.200443 l -3.179134,-0.0124 v -0.516247 h -0.666626 v -0.719853 h 0.666626 v -0.772046 z m 1.207678,4.898409 -0.167948,1.001489 h 3.51193 l -0.185518,-1.001489 z m -0.656291,0.556555 -1.039213,0.203089 -0.0739,0.163814 h 1.11311 z m 4.496367,0 v 0.366903 h 1.11311 l -0.07441,-0.163814 z" /><path
         id="rect4"
         style="display:inline;stroke-width:0.4"
         d="m 37.527425,38.028686 v 1.473295 h 1.665531 l 0.174667,-0.661975 h 1.011824 l 0.212907,0.661975 h 0.489376 l -0.04651,-0.888834 z m 1.993677,1.011825 -0.163815,0.6196 h 1.075904 l -0.198955,-0.6196 z" /><path
         id="rect4-6"
         style="display:inline;stroke-width:0.4"
         d="m 23.265763,38.028686 v 1.473295 h -1.665531 l -0.174667,-0.661975 h -1.011824 l -0.212907,0.661975 h -0.489376 l 0.04651,-0.888834 z m -1.993677,1.011825 0.163815,0.6196 h -1.075904 l 0.198955,-0.6196 z" /></g><rect
       style="fill:#000000;stroke-width:0.256135"
       id="rect3"
       width="4.8286457"
       height="5.3247395"
       x="20.108332"
       y="21.530468"
       ry="0.5291667" /><path
       id="path4"
       style="baseline-shift:baseline;display:inline;overflow:visible;vector-effect:none;fill:#ffffff;stroke-linecap:round;enable-background:accumulate;stop-color:#000000"
       d="m 21.056853,22.456307 a 0.1495,0.1495 0 0 0 -0.107487,0.03876 0.1495,0.1495 0 0 0 -0.0078,0.212907 l 1.377176,1.48518 -1.377176,1.485698 a 0.1495,0.1495 0 0 0 0.0078,0.21084 0.1495,0.1495 0 0 0 0.21084,-0.0078 l 1.362191,-1.469161 1.36219,1.469161 a 0.1495,0.1495 0 0 0 0.211357,0.0078 0.1495,0.1495 0 0 0 0.0078,-0.21084 l -1.377693,-1.485698 1.377693,-1.48518 a 0.1495,0.1495 0 0 0 -0.0078,-0.212907 0.1495,0.1495 0 0 0 -0.211357,0.0098 l -1.36219,1.469161 -1.362191,-1.469161 a 0.1495,0.1495 0 0 0 -0.103353,-0.04858 z" /><path
       id="rect7"
       style="fill:#000000;stroke:none;stroke-width:0.299;stroke-linecap:round"
       d="M 35.867578 21.315495 L 35.867578 21.679297 L 35.379753 21.679297 L 35.090365 22.307682 L 35.090365 26.077995 L 35.379753 26.70638 L 38.269499 26.70638 L 38.463802 26.483138 L 38.463802 25.813411 L 38.827604 25.813411 L 38.827604 22.572266 L 38.463802 22.572266 L 38.463802 21.902539 L 38.269499 21.679297 L 37.686589 21.679297 L 37.686589 21.315495 L 35.867578 21.315495 z M 36.757963 23.398572 C 37.436371 23.398572 37.991996 23.952648 37.991996 24.631055 C 37.991996 25.309462 37.436371 25.863538 36.757963 25.863538 C 36.079556 25.863538 35.52548 25.309462 35.52548 24.631055 C 35.52548 23.952648 36.079556 23.398572 36.757963 23.398572 z M 36.757963 23.843506 C 36.320052 23.843506 35.970931 24.193144 35.970931 24.631055 C 35.970931 25.068967 36.320052 25.420154 36.757963 25.420154 C 37.195875 25.420154 37.547062 25.068967 37.547062 24.631055 C 37.547062 24.193144 37.195875 23.843506 36.757963 23.843506 z " /></g></svg>
