<?xml version="1.0" encoding="UTF-8" standalone="no"?>
<!-- Created with Inkscape (http://www.inkscape.org/) -->

<svg
   width="60mm"
   height="42mm"
   viewBox="0 0 60 42"
   version="1.1"
   id="svg8"
   inkscape:version="1.2.2 (b0a8486541, 2022-12-01)"
   sodipodi:docname="Anti Armor.svg"
   xml:space="preserve"
   xmlns:inkscape="http://www.inkscape.org/namespaces/inkscape"
   xmlns:sodipodi="http://sodipodi.sourceforge.net/DTD/sodipodi-0.dtd"
   xmlns="http://www.w3.org/2000/svg"
   xmlns:svg="http://www.w3.org/2000/svg"
   xmlns:rdf="http://www.w3.org/1999/02/22-rdf-syntax-ns#"
   xmlns:cc="http://creativecommons.org/ns#"
   xmlns:dc="http://purl.org/dc/elements/1.1/"><defs
     id="defs2"><inkscape:path-effect
       effect="copy_rotate"
       starting_point="62.825012,51.902842"
       origin="61.825012,51.902842"
       id="path-effect2032-9"
       is_visible="true"
       lpeversion="1"
       method="normal"
       num_copies="19"
       starting_angle="0"
       rotation_angle="18.947368"
       gap="-0.01"
       copies_to_360="true"
       mirror_copies="false"
       split_items="false" /><inkscape:path-effect
       effect="copy_rotate"
       starting_point="62.825012,52.034264"
       origin="61.825012,52.034264"
       id="path-effect1183-6"
       is_visible="true"
       lpeversion="1"
       method="normal"
       num_copies="19"
       starting_angle="0"
       rotation_angle="18.947368"
       gap="-0.01"
       copies_to_360="true"
       mirror_copies="false"
       split_items="false" /><inkscape:path-effect
       effect="copy_rotate"
       starting_point="64.010074,52.034264"
       origin="61.825012,52.034264"
       id="path-effect2800-4"
       is_visible="true"
       lpeversion="1"
       method="normal"
       num_copies="6"
       starting_angle="0"
       rotation_angle="60"
       gap="-0.01"
       copies_to_360="true"
       mirror_copies="false"
       split_items="false" /><inkscape:path-effect
       effect="copy_rotate"
       starting_point="62.825012,51.902842"
       origin="61.825012,51.902842"
       id="path-effect2032"
       is_visible="true"
       lpeversion="1"
       method="normal"
       num_copies="19"
       starting_angle="0"
       rotation_angle="18.947368"
       gap="-0.01"
       copies_to_360="true"
       mirror_copies="false"
       split_items="false" /><inkscape:path-effect
       effect="copy_rotate"
       starting_point="62.81794,52.034264"
       origin="61.825012,52.034264"
       id="path-effect1183"
       is_visible="true"
       lpeversion="1"
       method="normal"
       num_copies="19"
       starting_angle="0"
       rotation_angle="18.947368"
       gap="-0.01"
       copies_to_360="true"
       mirror_copies="false"
       split_items="false" /><inkscape:path-effect
       effect="copy_rotate"
       starting_point="64.010074,52.034264"
       origin="61.825012,52.034264"
       id="path-effect2800"
       is_visible="true"
       lpeversion="1"
       method="normal"
       num_copies="8"
       starting_angle="0"
       rotation_angle="45"
       gap="-0.01"
       copies_to_360="true"
       mirror_copies="false"
       split_items="false" /><inkscape:path-effect
       effect="copy_rotate"
       starting_point="62.825012,51.902842"
       origin="61.825012,51.902842"
       id="path-effect2032-8"
       is_visible="true"
       lpeversion="1"
       method="normal"
       num_copies="19"
       starting_angle="0"
       rotation_angle="18.947368"
       gap="-0.01"
       copies_to_360="true"
       mirror_copies="false"
       split_items="false" /><inkscape:path-effect
       effect="copy_rotate"
       starting_point="62.81794,52.034264"
       origin="61.825012,52.034264"
       id="path-effect1183-9"
       is_visible="true"
       lpeversion="1"
       method="normal"
       num_copies="19"
       starting_angle="0"
       rotation_angle="18.947368"
       gap="-0.01"
       copies_to_360="true"
       mirror_copies="false"
       split_items="false" /><inkscape:path-effect
       effect="copy_rotate"
       starting_point="64.010074,52.034264"
       origin="61.825012,52.034264"
       id="path-effect2800-6"
       is_visible="true"
       lpeversion="1"
       method="normal"
       num_copies="8"
       starting_angle="0"
       rotation_angle="45"
       gap="-0.01"
       copies_to_360="true"
       mirror_copies="false"
       split_items="false" /><inkscape:path-effect
       effect="copy_rotate"
       starting_point="62.825012,51.902842"
       origin="61.825012,51.902842"
       id="path-effect2032-4"
       is_visible="true"
       lpeversion="1"
       method="normal"
       num_copies="19"
       starting_angle="0"
       rotation_angle="18.947368"
       gap="-0.01"
       copies_to_360="true"
       mirror_copies="false"
       split_items="false" /><inkscape:path-effect
       effect="copy_rotate"
       starting_point="62.81794,52.034264"
       origin="61.825012,52.034264"
       id="path-effect1183-8"
       is_visible="true"
       lpeversion="1"
       method="normal"
       num_copies="19"
       starting_angle="0"
       rotation_angle="18.947368"
       gap="-0.01"
       copies_to_360="true"
       mirror_copies="false"
       split_items="false" /><inkscape:path-effect
       effect="copy_rotate"
       starting_point="64.010074,52.034264"
       origin="61.825012,52.034264"
       id="path-effect2800-8"
       is_visible="true"
       lpeversion="1"
       method="normal"
       num_copies="8"
       starting_angle="0"
       rotation_angle="45"
       gap="-0.01"
       copies_to_360="true"
       mirror_copies="false"
       split_items="false" /></defs><sodipodi:namedview
     id="base"
     pagecolor="#ffffff"
     bordercolor="#666666"
     borderopacity="1.0"
     inkscape:pageopacity="0.0"
     inkscape:pageshadow="2"
     inkscape:zoom="2.8284271"
     inkscape:cx="57.452426"
     inkscape:cy="68.942912"
     inkscape:document-units="mm"
     inkscape:current-layer="layer3"
     showgrid="false"
     inkscape:window-width="1549"
     inkscape:window-height="773"
     inkscape:window-x="2022"
     inkscape:window-y="94"
     inkscape:window-maximized="0"
     inkscape:snap-global="false"
     showguides="true"
     inkscape:pagecheckerboard="0"
     inkscape:guide-bbox="true"
     inkscape:showpageshadow="2"
     inkscape:deskcolor="#d1d1d1" /><metadata
     id="metadata5"><rdf:RDF><cc:Work
         rdf:about=""><dc:format>image/svg+xml</dc:format><dc:type
           rdf:resource="http://purl.org/dc/dcmitype/StillImage" /></cc:Work></rdf:RDF></metadata><g
     inkscape:groupmode="layer"
     id="layer3"
     inkscape:label="Capa 2"
     style="display:inline"><path
       style="display:inline;fill:#000000;stroke-width:0.0492956"
       d="m 27.973865,35.933262 c -0.08134,-0.02889 -0.314264,-0.146629 -0.517603,-0.261659 -0.20335,-0.115029 -0.454464,-0.23607 -0.558028,-0.268979 -0.211376,-0.06716 -0.273786,-0.166788 -0.189261,-0.302134 0.04966,-0.07947 0.0017,-0.14837 -0.368909,-0.53265 -0.287955,-0.298405 -0.50118,-0.47375 -0.658263,-0.541328 -0.233402,-0.100407 -0.404046,-0.279214 -0.565417,-0.592451 -0.08005,-0.155405 -0.09095,-0.161217 -0.138654,-0.07395 -0.156987,0.287216 -0.441876,0.147104 -0.732017,-0.360015 -0.14334,-0.250525 -0.146582,-0.269523 -0.09136,-0.535567 0.05262,-0.253548 0.04817,-0.29289 -0.05472,-0.487023 -0.105002,-0.197939 -0.107488,-0.223127 -0.03965,-0.401358 0.07433,-0.195286 0.306397,-0.39088 0.530509,-0.447129 0.103251,-0.02591 0.159444,0.01099 0.35875,0.235572 0.129985,0.146466 0.237063,0.288484 0.23794,0.315596 5.68e-4,0.02712 0.0766,0.133562 0.168277,0.236556 0.134979,0.151655 0.189876,0.181436 0.288707,0.15663 0.0986,-0.02475 0.182588,0.02031 0.437166,0.234458 0.19574,0.16466 0.429101,0.306085 0.615961,0.373298 0.370075,0.133115 0.463241,0.136111 0.463241,0.01488 0,-0.100629 -0.09114,-0.153159 -0.265732,-0.153159 -0.192053,0 -0.272239,-0.106061 -0.306675,-0.405679 -0.04028,-0.350043 0.02292,-0.390891 0.376855,-0.243794 0.134667,0.05597 0.244851,0.08792 0.244851,0.07102 0,-0.0169 -0.0808,-0.104751 -0.179562,-0.19521 l -0.179558,-0.164472 0.03282,-0.393608 0.03282,-0.393605 h -0.12118 c -0.06665,0 -0.178089,-0.02163 -0.247632,-0.04808 -0.114798,-0.04365 -0.126447,-0.07331 -0.126447,-0.322059 0,-0.192509 0.03566,-0.344356 0.119917,-0.510629 L 26.660939,29.7001 26.442431,29.421697 c -0.120179,-0.153121 -0.218504,-0.296827 -0.218504,-0.319344 0,-0.02252 -0.06791,-0.09115 -0.150895,-0.152504 -0.141629,-0.104709 -0.158283,-0.106722 -0.27113,-0.03279 -0.161827,0.106034 -0.153739,0.01142 0.01007,-0.117398 l 0.130275,-0.10247 -0.22926,-0.344767 c -0.126089,-0.189621 -0.256801,-0.345598 -0.290481,-0.346611 -0.07414,-0.0023 -1.090078,-1.482696 -1.111778,-1.620114 -0.01007,-0.06365 0.03243,-0.126174 0.123239,-0.181284 0.07622,-0.04627 0.198686,-0.125311 0.272148,-0.175649 0.07346,-0.05034 0.146691,-0.09153 0.162726,-0.09153 0.01604,0 0.105561,0.08318 0.198942,0.184859 0.151441,0.164884 0.169814,0.173188 0.170019,0.07685 1.53e-4,-0.0594 -0.0219,-0.121716 -0.04903,-0.138472 -0.02713,-0.01674 -0.04931,-0.188427 -0.04931,-0.381487 0,-0.532414 0.206666,-1.315446 0.508581,-1.926891 L 25.903542,23.234635 25.287347,22.9966 C 24.69288,22.766965 24.655913,22.75916 24.239366,22.775404 l -0.431775,0.01684 -0.07925,-0.189674 c -0.05957,-0.142581 -0.07072,-0.263151 -0.04488,-0.485594 0.01894,-0.162756 0.03811,-0.36247 0.04272,-0.443808 l 0.0084,-0.147886 0.369717,-0.0029 c 0.566191,-0.0046 2.07248,-0.0717 2.277121,-0.10148 l 0.18206,-0.0265 -0.108121,-0.205648 c -0.166064,-0.315885 -0.152845,-0.896283 0.02935,-1.286706 0.29018,-0.621978 0.719878,-0.955846 1.288992,-1.001528 0.38785,-0.03113 0.733751,0.06644 1.170713,0.330219 0.181246,0.109413 0.362515,0.186273 0.402844,0.1708 0.04032,-0.01546 0.119405,-0.0034 0.175751,0.02669 0.123058,0.06587 0.132147,0.232759 0.031,0.568971 -0.0504,0.167376 -0.05688,0.264877 -0.0219,0.330193 0.0273,0.05097 0.04494,0.130633 0.03925,0.177013 -0.006,0.04638 0.0066,0.123153 0.02713,0.170599 0.07825,0.180026 0.125537,0.07325 0.125537,-0.283449 0,-0.336854 0.0087,-0.369718 0.0986,-0.369718 0.09108,0 0.09859,0.03286 0.09859,0.431803 0,0.370844 0.01325,0.440059 0.09367,0.490297 0.05148,0.03217 0.151201,0.176152 0.221524,0.319956 l 0.127857,0.26146 0.998545,-0.0411 c 0.992498,-0.04086 0.99917,-0.04187 1.101573,-0.168509 0.06664,-0.08239 0.131384,-0.116529 0.183283,-0.09661 0.04414,0.01694 0.09372,0.009 0.110178,-0.01764 0.0165,-0.02665 0.100362,-0.04817 0.186441,-0.04782 0.08607,3.72e-4 0.200864,5.58e-4 0.255095,3.72e-4 0.05421,-1.47e-4 0.169905,0.0089 0.257074,0.0203 0.205661,0.02673 0.229841,-0.04933 0.185382,-0.583031 -0.02076,-0.249818 -0.0149,-0.445574 0.01507,-0.499156 0.03657,-0.06544 0.05871,0.04917 0.08565,0.44472 0.02878,0.422411 0.05546,0.552004 0.128598,0.62515 0.111276,0.111276 0.190859,0.118918 0.190859,0.01834 0,-0.0981 0.04824,-0.09348 0.128563,0.01233 0.04528,0.05966 0.066,0.258781 0.06705,0.645556 0.0011,0.494567 -0.01064,0.576493 -0.104308,0.707972 -0.09031,0.126829 -0.112403,0.137006 -0.150332,0.06923 -0.07814,-0.139613 -0.114729,-0.08581 -0.09661,0.142047 0.0097,0.121824 -0.0051,0.286309 -0.03254,0.365524 -0.04892,0.140394 -0.04329,0.147548 0.22464,0.283781 0.242821,0.123467 0.28551,0.168486 0.36627,0.386235 0.06407,0.172704 0.0826,0.312871 0.06196,0.468307 -0.04892,0.368152 -0.219971,0.94889 -0.341714,1.160143 -0.143141,0.248368 -0.557817,0.640604 -0.773517,0.731647 -0.735469,0.310426 -0.907182,0.340908 -1.166111,0.207011 l -0.148977,-0.07704 -0.01542,0.554253 c -0.01882,0.675852 -0.0084,0.734544 0.126617,0.724017 0.184762,-0.0144 0.210666,-3.9e-5 0.300345,0.166484 0.07405,0.137499 0.07824,0.182254 0.02616,0.279547 -0.05284,0.0987 -0.04931,0.125096 0.02361,0.178439 0.113842,0.08324 0.516789,0.166997 0.804295,0.167183 0.402765,1.86e-4 2.146141,0.373053 2.429256,0.519459 0.184642,0.09548 0.377714,0.338231 0.435517,0.54757 0.06574,0.238128 1.48e-4,0.556494 -0.224385,1.088967 -0.100162,0.23753 -0.25294,0.631523 -0.339502,0.875535 -0.08656,0.244013 -0.203236,0.554577 -0.259275,0.690139 -0.05608,0.135563 -0.145389,0.436181 -0.198556,0.66804 -0.125872,0.548969 -0.277467,0.894531 -0.434107,0.989574 l -0.125974,0.07644 0.209033,0.242127 c 0.114962,0.133169 0.255544,0.2731 0.312397,0.310958 0.05688,0.03786 0.12601,0.09613 0.153671,0.129499 0.02764,0.03337 0.213958,0.106984 0.413993,0.163591 0.465169,0.131639 0.595563,0.249107 0.595563,0.536508 0,0.20256 -0.01132,0.220531 -0.184852,0.293882 -0.231752,0.09795 -0.739429,0.137388 -1.172055,0.09105 -0.300714,-0.03221 -0.348193,-0.05321 -0.510213,-0.225702 -0.09974,-0.106184 -0.28972,-0.233207 -0.430102,-0.287572 l -0.251458,-0.09737 -0.105287,0.105289 c -0.09858,0.09859 -0.123381,0.101552 -0.38938,0.04661 -0.199704,-0.04125 -0.318393,-0.09796 -0.399568,-0.190891 -0.126134,-0.144423 -0.128194,-0.105604 0.04403,-0.830902 0.112141,-0.472308 0.12065,-0.581432 0.06846,-0.877613 -0.02196,-0.124806 -0.0066,-0.25689 0.0463,-0.395134 0.04363,-0.114212 0.124144,-0.413131 0.17896,-0.664263 0.08566,-0.39251 0.165929,-0.646749 0.315452,-0.999168 0.02878,-0.06785 -0.01013,-0.07213 -0.326441,-0.03594 -0.526476,0.06024 -1.268304,0.05685 -1.505044,-0.0069 -0.19384,-0.05219 -0.219015,-0.04654 -0.410471,0.09215 -0.112187,0.08126 -0.324116,0.192705 -0.47096,0.247645 -0.146845,0.05494 -0.379626,0.156973 -0.517301,0.226739 -0.200621,0.101664 -0.245232,0.146298 -0.224698,0.224827 0.02912,0.111509 -0.100958,0.529759 -0.193658,0.622488 -0.0339,0.03387 -0.07639,0.180295 -0.09454,0.32538 -0.02667,0.213675 -0.01365,0.301672 0.06877,0.463196 0.05591,0.109672 0.132806,0.230481 0.170787,0.268465 0.12234,0.122339 0.13846,0.258148 0.03805,0.320833 -0.11551,0.07213 -0.316118,0.02645 -0.281381,-0.06409 0.02503,-0.06523 -0.05415,-0.149616 -0.09865,-0.105123 -0.01268,0.01271 -0.05545,0.275569 -0.0951,0.58416 -0.157554,1.227539 -0.174102,1.272254 -0.509729,1.377586 -0.0984,0.03088 -0.288627,0.109355 -0.42273,0.174392 -0.260266,0.126214 -0.454732,0.142481 -0.692786,0.05795 z M 25.794363,25.498405 c 0.02133,-0.172844 0.01973,-0.371517 -0.0034,-0.441496 -0.03794,-0.113792 -0.05119,-0.09247 -0.12507,0.201826 -0.109713,0.436766 -0.108723,0.592173 0.0034,0.570543 0.06619,-0.01274 0.0953,-0.08978 0.125065,-0.330873 z m 6.739346,-1.382774 c 0,-0.02584 -0.02713,-0.106528 -0.0603,-0.179314 -0.05631,-0.12365 -0.04766,-0.14324 0.131811,-0.298409 l 0.192122,-0.166072 -0.106919,-0.21408 c -0.05879,-0.117743 -0.119587,-0.289521 -0.135065,-0.381727 -0.01547,-0.0922 -0.03908,-0.221032 -0.05244,-0.286284 l -0.02429,-0.118641 -1.063611,0.03079 c -0.58499,0.01694 -1.06992,0.0371 -1.077621,0.0448 -0.0077,0.0077 -0.02895,0.07344 -0.04716,0.146094 -0.03283,0.130761 -0.02901,0.132974 0.378032,0.219916 0.361594,0.07723 0.439249,0.113956 0.643827,0.304478 0.127955,0.119157 0.272143,0.302411 0.32043,0.40723 0.04824,0.10482 0.122079,0.191153 0.164006,0.191853 0.04192,7.4e-4 0.197206,0.07834 0.34507,0.172544 0.272267,0.173456 0.392076,0.212209 0.392076,0.126819 z m -6.182491,-1.257307 0.193079,-0.170483 -0.517614,0.0028 c -0.76747,0.0042 -0.835574,0.03931 -0.389056,0.200325 0.200426,0.07228 0.399539,0.13284 0.442462,0.134592 0.04294,0.0016 0.164944,-0.07353 0.271129,-0.167297 z m 0.405485,-1.205779 c 0.0084,-0.0022 0.0046,-0.02066 -0.0076,-0.04099 -0.01735,-0.02805 -1.3098,0.01564 -2.438346,0.08244 -0.03549,0.0021 -0.05427,0.02046 -0.04169,0.04079 0.0165,0.02666 2.369594,-0.05115 2.487651,-0.08225 z"
       id="path26077"
       sodipodi:nodetypes="cssssssssssssscsssssssssscccsssscssssccsscsssscssscsscsscccscssssccssccssssscsssscccscsssscsssssssssscscssscssssssscssssssssscssssssssssssssssssssssscccscssssssscssscsssssscssccsscscssscss" /></g></svg>
