<?xml version="1.0" encoding="UTF-8" standalone="no"?>
<!-- Created with Inkscape (http://www.inkscape.org/) -->

<svg
   width="60mm"
   height="42mm"
   viewBox="0 0 60 42"
   version="1.1"
   id="svg8"
   inkscape:version="1.2.2 (b0a8486541, 2022-12-01)"
   sodipodi:docname="Laser battery.svg"
   xml:space="preserve"
   xmlns:inkscape="http://www.inkscape.org/namespaces/inkscape"
   xmlns:sodipodi="http://sodipodi.sourceforge.net/DTD/sodipodi-0.dtd"
   xmlns="http://www.w3.org/2000/svg"
   xmlns:svg="http://www.w3.org/2000/svg"
   xmlns:rdf="http://www.w3.org/1999/02/22-rdf-syntax-ns#"
   xmlns:cc="http://creativecommons.org/ns#"
   xmlns:dc="http://purl.org/dc/elements/1.1/"><defs
     id="defs2"><inkscape:path-effect
       effect="copy_rotate"
       starting_point="62.825012,51.902842"
       origin="61.825012,51.902842"
       id="path-effect2032-9"
       is_visible="true"
       lpeversion="1"
       method="normal"
       num_copies="19"
       starting_angle="0"
       rotation_angle="18.947368"
       gap="-0.01"
       copies_to_360="true"
       mirror_copies="false"
       split_items="false" /><inkscape:path-effect
       effect="copy_rotate"
       starting_point="62.825012,52.034264"
       origin="61.825012,52.034264"
       id="path-effect1183-6"
       is_visible="true"
       lpeversion="1"
       method="normal"
       num_copies="19"
       starting_angle="0"
       rotation_angle="18.947368"
       gap="-0.01"
       copies_to_360="true"
       mirror_copies="false"
       split_items="false" /><inkscape:path-effect
       effect="copy_rotate"
       starting_point="64.010074,52.034264"
       origin="61.825012,52.034264"
       id="path-effect2800-4"
       is_visible="true"
       lpeversion="1"
       method="normal"
       num_copies="6"
       starting_angle="0"
       rotation_angle="60"
       gap="-0.01"
       copies_to_360="true"
       mirror_copies="false"
       split_items="false" /><inkscape:path-effect
       effect="copy_rotate"
       starting_point="62.825012,51.902842"
       origin="61.825012,51.902842"
       id="path-effect2032"
       is_visible="true"
       lpeversion="1"
       method="normal"
       num_copies="19"
       starting_angle="0"
       rotation_angle="18.947368"
       gap="-0.01"
       copies_to_360="true"
       mirror_copies="false"
       split_items="false" /><inkscape:path-effect
       effect="copy_rotate"
       starting_point="62.81794,52.034264"
       origin="61.825012,52.034264"
       id="path-effect1183"
       is_visible="true"
       lpeversion="1"
       method="normal"
       num_copies="19"
       starting_angle="0"
       rotation_angle="18.947368"
       gap="-0.01"
       copies_to_360="true"
       mirror_copies="false"
       split_items="false" /><inkscape:path-effect
       effect="copy_rotate"
       starting_point="64.010074,52.034264"
       origin="61.825012,52.034264"
       id="path-effect2800"
       is_visible="true"
       lpeversion="1"
       method="normal"
       num_copies="8"
       starting_angle="0"
       rotation_angle="45"
       gap="-0.01"
       copies_to_360="true"
       mirror_copies="false"
       split_items="false" /><inkscape:path-effect
       effect="copy_rotate"
       starting_point="62.825012,51.902842"
       origin="61.825012,51.902842"
       id="path-effect2032-8"
       is_visible="true"
       lpeversion="1"
       method="normal"
       num_copies="19"
       starting_angle="0"
       rotation_angle="18.947368"
       gap="-0.01"
       copies_to_360="true"
       mirror_copies="false"
       split_items="false" /><inkscape:path-effect
       effect="copy_rotate"
       starting_point="62.81794,52.034264"
       origin="61.825012,52.034264"
       id="path-effect1183-9"
       is_visible="true"
       lpeversion="1"
       method="normal"
       num_copies="19"
       starting_angle="0"
       rotation_angle="18.947368"
       gap="-0.01"
       copies_to_360="true"
       mirror_copies="false"
       split_items="false" /><inkscape:path-effect
       effect="copy_rotate"
       starting_point="64.010074,52.034264"
       origin="61.825012,52.034264"
       id="path-effect2800-6"
       is_visible="true"
       lpeversion="1"
       method="normal"
       num_copies="8"
       starting_angle="0"
       rotation_angle="45"
       gap="-0.01"
       copies_to_360="true"
       mirror_copies="false"
       split_items="false" /><inkscape:path-effect
       effect="copy_rotate"
       starting_point="62.825012,51.902842"
       origin="61.825012,51.902842"
       id="path-effect2032-4"
       is_visible="true"
       lpeversion="1"
       method="normal"
       num_copies="19"
       starting_angle="0"
       rotation_angle="18.947368"
       gap="-0.01"
       copies_to_360="true"
       mirror_copies="false"
       split_items="false" /><inkscape:path-effect
       effect="copy_rotate"
       starting_point="62.81794,52.034264"
       origin="61.825012,52.034264"
       id="path-effect1183-8"
       is_visible="true"
       lpeversion="1"
       method="normal"
       num_copies="19"
       starting_angle="0"
       rotation_angle="18.947368"
       gap="-0.01"
       copies_to_360="true"
       mirror_copies="false"
       split_items="false" /><inkscape:path-effect
       effect="copy_rotate"
       starting_point="64.010074,52.034264"
       origin="61.825012,52.034264"
       id="path-effect2800-8"
       is_visible="true"
       lpeversion="1"
       method="normal"
       num_copies="8"
       starting_angle="0"
       rotation_angle="45"
       gap="-0.01"
       copies_to_360="true"
       mirror_copies="false"
       split_items="false" /></defs><sodipodi:namedview
     id="base"
     pagecolor="#ffffff"
     bordercolor="#666666"
     borderopacity="1.0"
     inkscape:pageopacity="0.0"
     inkscape:pageshadow="2"
     inkscape:zoom="2"
     inkscape:cx="168.5"
     inkscape:cy="104.5"
     inkscape:document-units="mm"
     inkscape:current-layer="layer3"
     showgrid="false"
     inkscape:window-width="1920"
     inkscape:window-height="1043"
     inkscape:window-x="0"
     inkscape:window-y="0"
     inkscape:window-maximized="1"
     inkscape:snap-global="false"
     showguides="true"
     inkscape:pagecheckerboard="0"
     inkscape:guide-bbox="true"
     inkscape:showpageshadow="2"
     inkscape:deskcolor="#d1d1d1" /><metadata
     id="metadata5"><rdf:RDF><cc:Work
         rdf:about=""><dc:format>image/svg+xml</dc:format><dc:type
           rdf:resource="http://purl.org/dc/dcmitype/StillImage" /></cc:Work></rdf:RDF></metadata><g
     inkscape:groupmode="layer"
     id="layer3"
     inkscape:label="Capa 2"
     style="display:inline"><path
       id="path57388"
       style="fill:#000000;stroke:none;stroke-width:2.19713;stroke-linecap:round;stroke-linejoin:round;stroke-dasharray:none;stroke-dashoffset:1.02983;stop-color:#000000"
       d="M 45.693335 24.255884 C 43.709985 24.258584 41.848733 25.21415 40.69054 26.824202 L 40.69054 28.111462 L 41.927673 28.801343 C 42.559233 27.346904 44.009797 26.327075 45.693852 26.327075 C 47.955875 26.327075 49.797477 28.166607 49.797477 30.428634 C 49.797477 30.862747 49.728787 31.280937 49.603174 31.674036 L 51.260437 31.674036 C 51.421592 31.674036 51.577689 31.69412 51.726558 31.73243 C 51.819358 31.304205 51.866306 30.867315 51.866602 30.42915 C 51.86662 27.019746 49.10274 24.255867 45.693335 24.255884 z M 45.937764 24.881685 L 45.972904 24.881685 C 45.976904 24.881633 45.9808 24.881633 45.98479 24.881685 L 46.113464 24.891504 C 46.117464 24.891452 46.12136 24.891452 46.12535 24.891504 L 46.254024 24.902873 C 46.258024 24.90352 46.26192 24.90414 46.26591 24.90494 L 46.393034 24.918892 C 46.396834 24.919377 46.400633 24.919843 46.404403 24.920443 L 46.531527 24.938013 C 46.535527 24.93866 46.539422 24.93928 46.543412 24.94008 L 46.67002 24.961784 C 46.67332 24.962448 46.676538 24.963668 46.679838 24.964368 L 46.804895 24.987105 C 46.808895 24.987752 46.812801 24.988889 46.816781 24.989689 L 46.916516 25.011393 C 47.161943 25.064443 47.317741 25.306588 47.264299 25.551929 C 47.210299 25.796763 46.968108 25.951517 46.723246 25.897644 L 46.629195 25.878524 L 46.516024 25.85682 L 46.400785 25.837183 L 46.285547 25.82168 L 46.168241 25.808244 L 46.050936 25.798425 L 45.93208 25.790157 L 45.902625 25.78809 C 45.652475 25.77807 45.457616 25.567492 45.466992 25.317318 C 45.477012 25.067168 45.68759 24.872309 45.937764 24.881685 z M 44.106868 25.120431 C 44.311698 25.110731 44.497631 25.239466 44.560588 25.434623 C 44.638027 25.672918 44.507837 25.92891 44.269649 26.006681 L 44.203503 26.028385 L 44.096016 26.065076 L 43.990597 26.10435 L 43.88466 26.147241 L 43.781307 26.194267 L 43.680021 26.240776 L 43.580286 26.291935 L 43.505872 26.329142 C 43.284108 26.446078 43.009536 26.361183 42.892472 26.13949 C 42.775536 25.917726 42.860432 25.643154 43.082125 25.52609 L 43.160156 25.485266 C 43.163356 25.483166 43.166675 25.481065 43.169975 25.479065 L 43.281596 25.424805 C 43.284896 25.423405 43.288114 25.421971 43.291414 25.420671 L 43.402519 25.367961 C 43.405819 25.366561 43.409037 25.365126 43.412337 25.363826 L 43.527576 25.313184 C 43.530876 25.311984 43.534094 25.310766 43.537394 25.309566 L 43.652633 25.262541 C 43.655933 25.261141 43.659151 25.260223 43.662451 25.258923 L 43.779757 25.213448 C 43.783057 25.212248 43.786275 25.211547 43.789575 25.210347 L 43.906364 25.169523 C 43.910264 25.168123 43.91427 25.166689 43.91825 25.165389 L 43.990597 25.142135 C 44.028266 25.130035 44.067357 25.122917 44.106868 25.120947 L 44.106868 25.120431 z M 48.479728 25.706441 C 48.489646 25.706316 48.499781 25.706436 48.509701 25.706958 L 48.509184 25.706441 C 48.588924 25.710841 48.666106 25.736112 48.732943 25.779822 L 48.793404 25.821163 L 48.801156 25.826847 L 48.902441 25.897127 C 48.905241 25.899127 48.90801 25.901228 48.91071 25.903328 L 49.009928 25.975675 C 49.013228 25.977575 49.016547 25.97946 49.019747 25.98136 L 49.115348 26.055774 C 49.118648 26.058374 49.121967 26.060925 49.125167 26.063525 L 49.221285 26.13949 L 49.229036 26.147241 L 49.322571 26.225273 L 49.330839 26.233541 L 49.422823 26.313639 L 49.430575 26.321391 L 49.504989 26.39012 C 49.688987 26.560984 49.699408 26.84874 49.528243 27.032458 C 49.357475 27.21695 49.069315 27.227606 48.885388 27.05623 L 48.815108 26.989567 L 48.731392 26.915153 L 48.64716 26.843323 L 48.55931 26.774593 L 48.47146 26.70638 L 48.381543 26.640234 L 48.290076 26.577706 L 48.233232 26.540499 C 48.024139 26.402293 47.966549 26.120819 48.104557 25.911597 C 48.170537 25.811086 48.273672 25.74084 48.391361 25.71626 C 48.420514 25.710035 48.449976 25.706818 48.479728 25.706441 z M 41.8946 26.594242 C 41.999005 26.598176 42.09937 26.638086 42.178304 26.707931 C 42.365852 26.874226 42.383197 27.161028 42.217061 27.348718 L 42.181921 27.387476 L 42.109574 27.473258 L 42.039294 27.559558 L 41.972632 27.649475 L 41.906486 27.738875 L 41.84189 27.830859 L 41.781429 27.92491 L 41.723035 28.018445 C 41.590219 28.230922 41.310403 28.295673 41.09775 28.163139 C 40.883458 28.030765 40.817839 27.749275 40.951506 27.535787 L 41.014034 27.438118 C 41.015934 27.434818 41.017818 27.4315 41.019718 27.4283 L 41.086381 27.327014 C 41.088981 27.323714 41.091532 27.320396 41.094132 27.317196 L 41.162345 27.21746 C 41.164945 27.21416 41.167497 27.210842 41.170097 27.207642 L 41.242444 27.108423 C 41.244344 27.105623 41.246745 27.102855 41.248645 27.100155 L 41.323059 27.002486 L 41.328743 26.994735 L 41.407292 26.899133 L 41.412976 26.891382 L 41.493075 26.797847 L 41.498759 26.790096 L 41.538033 26.746688 C 41.61774 26.656836 41.729778 26.602193 41.849642 26.594759 L 41.850159 26.594759 C 41.865014 26.593862 41.879857 26.593687 41.8946 26.594242 z M 45.693852 26.996802 C 44.254893 26.996802 43.027199 27.877057 42.516268 29.129488 L 42.910042 29.349113 C 43.355024 28.19887 44.460024 27.439361 45.693335 27.436051 C 47.346417 27.435953 48.686532 28.776068 48.686434 30.42915 C 48.686236 30.858812 48.593524 31.283396 48.414616 31.674036 L 48.892106 31.674036 C 49.041974 31.288051 49.125167 30.868469 49.125167 30.428634 C 49.125167 28.529402 47.593084 26.996802 45.693852 26.996802 z M 50.265666 27.722856 C 50.275617 27.722835 50.285669 27.723253 50.295638 27.723889 C 50.335418 27.726489 50.374688 27.734304 50.412427 27.747144 L 50.412427 27.746627 C 50.526494 27.785247 50.620551 27.867592 50.67391 27.975553 L 50.693547 28.014311 C 50.695647 28.017511 50.697748 28.020829 50.699748 28.024129 L 50.752458 28.137301 C 50.753658 28.140601 50.754875 28.143819 50.756075 28.147119 L 50.805168 28.260291 C 50.807068 28.263491 50.808952 28.266809 50.810852 28.270109 L 50.857878 28.385347 C 50.859078 28.388647 50.860295 28.391866 50.861495 28.395166 L 50.904386 28.512472 C 50.905786 28.515772 50.907221 28.51899 50.908521 28.52229 L 50.951412 28.641146 C 50.952148 28.644446 50.952779 28.647664 50.953479 28.650964 L 50.992753 28.770337 C 50.994053 28.774237 50.99527 28.778232 50.99637 28.782222 L 51.029443 28.893327 C 51.100613 29.133773 50.963423 29.386397 50.723002 29.457633 C 50.482556 29.528803 50.229932 29.391613 50.158695 29.151192 L 50.127173 29.045772 L 50.092033 28.936218 L 50.054826 28.830798 L 50.014001 28.723311 L 49.97111 28.619958 L 49.926152 28.516606 L 49.879126 28.412736 L 49.861556 28.377596 C 49.750791 28.153784 49.841517 27.882533 50.064644 27.770398 C 50.127259 27.739283 50.19601 27.723002 50.265666 27.722856 z M 45.761031 28.051001 A 2.2585578 2.2585578 0 0 0 43.587004 29.721183 L 46.957857 31.600655 L 47.610531 31.600655 A 2.2585578 2.2585578 0 0 0 48.019808 30.309261 A 2.2585578 2.2585578 0 0 0 45.761031 28.051001 z M 50.795349 29.971297 C 51.046863 29.974097 51.248213 30.180751 51.244417 30.432251 L 51.242867 30.563509 L 51.242867 30.564026 L 51.242867 30.564543 L 51.242867 30.565059 L 51.242867 30.565576 L 51.242867 30.566093 L 51.242867 30.56661 L 51.242867 30.567126 L 51.242867 30.567643 L 51.242867 30.56816 L 51.242867 30.568677 L 51.242867 30.569194 L 51.242867 30.56971 L 51.242867 30.570227 L 51.242867 30.570744 L 51.242867 30.571261 L 51.242867 30.571777 L 51.242867 30.572294 L 51.242867 30.572811 L 51.242867 30.573328 L 51.242867 30.573844 L 51.242867 30.574361 L 51.242867 30.574878 L 51.236666 30.705619 L 51.236666 30.706136 L 51.236666 30.706653 L 51.236666 30.70717 L 51.236666 30.707686 L 51.236666 30.708203 L 51.236666 30.70872 L 51.236666 30.709237 L 51.236666 30.709753 L 51.236666 30.71027 L 51.236666 30.710787 L 51.236666 30.711304 L 51.236666 30.71182 L 51.236666 30.712337 L 51.236666 30.712854 L 51.236666 30.713371 L 51.236666 30.713888 L 51.236666 30.714404 L 51.236666 30.714921 L 51.236666 30.715438 L 51.236666 30.715955 L 51.236666 30.716471 L 51.236666 30.716988 L 51.236666 30.717505 L 51.228914 30.846696 C 51.228262 30.850496 51.227547 30.854295 51.226847 30.858065 L 51.217029 30.987256 C 51.216377 30.991056 51.215662 30.994855 51.214962 30.998625 L 51.201526 31.112313 C 51.173216 31.361214 50.948696 31.540178 50.699748 31.512288 C 50.449735 31.484268 50.270147 31.258332 50.299255 31.008443 L 50.312691 30.900956 L 50.32251 30.784167 L 50.330261 30.664795 L 50.334395 30.545939 L 50.336462 30.420882 C 50.338962 30.169983 50.544452 29.968655 50.795349 29.971297 z " /><path
       id="rect57011-4"
       style="display:inline;fill:#000000;stroke:none;stroke-width:1.1;stroke-linecap:round;stroke-linejoin:round;stroke-dasharray:0.908256, 1.81651;stroke-dashoffset:0.272476;stop-color:#000000"
       d="m 18.340631,6.3696076 c -0.404719,0.0029 -0.763348,0.2884654 -0.844393,0.701766 l -0.01034,0.05271 -1.220081,-0.2392618 c -0.367996,-0.07216 -0.722104,0.1663309 -0.794266,0.5343343 l -0.10232,0.5214152 c -0.02159,0.1101281 -0.0152,0.218867 0.01395,0.3193603 0.29592,-0.1750468 0.633578,-0.2586862 1.004073,-0.1860351 l 3.859196,0.7555094 c 1.160129,0.2081394 1.591875,0.6786505 1.520837,1.2304162 l 0.0026,5.16e-4 -0.0155,0.0057 0.888835,0.174149 c 0.01388,-0.03951 0.0258,-0.08013 0.03411,-0.122473 l 0.01034,-0.05219 4.491198,0.881083 c 0.286256,-0.61565 0.931486,-1.0156864 1.620573,-0.880566 l 7.326168,1.435571 c -0.05254,0.342388 0.440591,-0.810799 1.62109,-0.617534 l 6.744291,1.3224 c 0.576371,0.113023 0.908524,0.596443 1.040763,1.140499 l 0.191203,0.03721 c 0.814974,0.159809 1.365048,0.975372 1.205094,1.791105 l -0.193786,0.987537 0.234094,0.04599 c 0.368004,0.07216 0.722104,-0.166334 0.794267,-0.534334 l 0.624251,-3.183269 c 0.07216,-0.368001 -0.165815,-0.722104 -0.533817,-0.794266 l -0.798401,-0.15658 0.05684,-0.290421 c 0.0664,-0.338595 -0.152332,-0.664309 -0.490926,-0.730705 L 39.876268,9.1963085 c -0.338596,-0.0664 -0.664309,0.1528486 -0.730705,0.4914428 l -0.05684,0.2904216 -8.159192,-1.5999024 c -0.368003,-0.07216 -0.722621,0.1658158 -0.794784,0.5338176 l -0.130741,0.666626 -6.953581,-1.3632243 0.01034,-0.053227 c 0.09262,-0.4723392 -0.212887,-0.9269532 -0.685229,-1.019576 l -3.859713,-0.756543 c -0.05904,-0.011578 -0.117366,-0.016951 -0.175183,-0.016536 z m -2.2934,2.5212932 c -0.40472,0.00289 -0.762831,0.2884649 -0.843876,0.7017659 l -0.01033,0.05271 -1.220081,-0.2392619 c -0.368003,-0.07216 -0.722622,0.1663307 -0.794783,0.5343343 l -0.10232,0.5219319 c -0.07216,0.368002 0.166331,0.722104 0.534335,0.794267 l 1.22008,0.239261 -0.01034,0.05219 c -0.09262,0.472343 0.212885,0.927468 0.685229,1.020092 l 3.859713,0.75706 c 0.472344,0.09262 0.926953,-0.213403 1.019576,-0.685746 l 0.01034,-0.05219 6.953064,1.363224 -0.130741,0.666626 c -0.07216,0.368002 0.166332,0.722105 0.534334,0.794267 l 8.159192,1.599902 -0.05684,0.290938 c -0.0664,0.338594 0.152847,0.664309 0.491443,0.730705 l 6.743774,1.3224 c 0.338596,0.0664 0.664309,-0.152332 0.730705,-0.490926 l 0.05736,-0.290938 0.797884,0.156579 c 0.368004,0.07216 0.722621,-0.165816 0.794784,-0.533817 l 0.624251,-3.183785 c 0.07216,-0.368003 -0.166331,-0.722105 -0.534334,-0.794267 l -0.797885,-0.156063 0.05684,-0.290938 c 0.0664,-0.338595 -0.152848,-0.664309 -0.491443,-0.730705 l -6.743775,-1.3224 c -0.338595,-0.0664 -0.664825,0.152332 -0.731221,0.490926 l -0.05684,0.290938 -8.159192,-1.600419 c -0.368003,-0.07216 -0.722104,0.165815 -0.794267,0.533818 l -0.131258,0.666626 -6.953064,-1.363224 0.01034,-0.05271 c 0.09262,-0.47234 -0.212886,-0.9269531 -0.685229,-1.0195761 L 16.222931,8.9074372 c -0.05904,-0.011578 -0.117883,-0.01695 -0.1757,-0.016536 z" /><path
       d="m 19.427261,37.014074 c 0.0605,-0.09789 -0.03425,-0.451054 -0.166148,-0.6193 -0.06459,-0.08238 -0.117428,-0.226051 -0.117428,-0.319266 0,-0.09322 -0.01926,-0.188743 -0.0428,-0.212284 -0.02354,-0.02354 -0.04968,-0.152654 -0.05809,-0.286915 -0.01257,-0.200717 0.01712,-0.27299 0.167031,-0.406561 0.281549,-0.250862 0.285769,-0.395206 0.03435,-1.175142 -0.247573,-0.768009 -0.294474,-1.280204 -0.12835,-1.401677 0.2299,-0.168106 0.239157,-1.218407 0.01207,-1.368719 -0.05944,-0.03934 -0.05181,-0.06758 0.0315,-0.11668 0.150828,-0.08889 0.139429,-0.14616 -0.07851,-0.394377 -0.243197,-0.276986 -0.245432,-0.503587 -0.0069,-0.704258 l 0.181473,-0.152699 -0.08328,-0.3614 c -0.185598,-0.805447 -0.359471,-2.156356 -0.325607,-2.529808 0.04205,-0.463693 0.117244,-0.563673 0.423961,-0.563673 0.192701,0 0.273484,-0.04152 0.431955,-0.222008 0.107209,-0.122104 0.194926,-0.256772 0.194926,-0.29926 0,-0.04249 0.05653,-0.182718 0.125613,-0.31162 0.241254,-0.450128 0.112262,-0.862886 -0.269664,-0.862886 -0.100955,0 -0.191641,-0.04873 -0.232391,-0.124871 -0.03675,-0.06868 -0.143736,-0.143347 -0.237734,-0.165929 -0.192081,-0.04614 -0.656669,-0.267615 -0.70476,-0.335962 -0.01727,-0.02454 -0.158586,-0.08459 -0.314033,-0.133435 -0.274579,-0.08627 -0.282104,-0.0955 -0.264209,-0.323772 0.01043,-0.133043 -0.01,-0.234967 -0.04711,-0.234967 -0.03604,0 -0.06552,-0.120894 -0.06552,-0.268654 0,-0.30798 -0.117514,-0.507937 -0.377533,-0.642398 -0.459553,-0.237645 -1.067062,0.0071 -1.066977,0.429885 l 4.1e-5,0.198538 -0.392582,0.01022 c -0.660625,0.01719 -0.984939,0.08422 -1.056753,0.218402 -0.08123,0.151771 -0.01814,0.368044 0.107381,0.368044 0.06832,0 0.08262,0.03883 0.05204,0.141315 -0.07613,0.255082 -0.22372,0.432642 -0.415069,0.499345 -0.103539,0.0361 -0.212437,0.129234 -0.241995,0.206977 -0.03045,0.08009 -0.130585,0.160254 -0.231038,0.184965 -0.287207,0.07065 -0.452221,0.209041 -0.687127,0.576256 -0.166898,0.260903 -0.204454,0.366306 -0.152727,0.428632 0.04616,0.05562 0.04896,0.134303 0.0085,0.240566 -0.09382,0.246758 -0.01479,0.406942 0.268172,0.5435 0.422909,0.204105 0.863744,0.273169 1.309879,0.205211 0.284422,-0.04333 0.407793,-0.04025 0.441028,0.011 0.07419,0.114404 0.05577,0.509117 -0.07219,1.547104 -0.186732,1.514698 -0.195384,1.632968 -0.119475,1.632968 0.104603,0 0.01605,0.500038 -0.169159,0.955219 -0.08843,0.217315 -0.171357,0.479908 -0.184291,0.583539 -0.01294,0.103631 -0.0424,0.343865 -0.06548,0.533854 -0.0447,0.367937 0.03495,0.690908 0.170349,0.69082 0.05942,-4e-5 0.08214,0.174051 0.08812,0.675169 0.0044,0.371372 0.02864,0.795871 0.05382,0.94333 0.02999,0.17571 0.02046,0.298591 -0.02764,0.356556 -0.05774,0.06957 -0.03432,0.156891 0.109785,0.409197 0.116821,0.204546 0.17246,0.376872 0.153577,0.475656 -0.03958,0.207036 -0.759534,0.769942 -1.066265,0.833671 -0.176935,0.03676 -0.249881,0.09089 -0.294865,0.218799 -0.09876,0.280821 0.08154,0.37154 0.6553,0.329723 0.794063,-0.05787 1.579512,-0.148044 1.617114,-0.185646 0.01964,-0.01964 -0.01279,-0.269124 -0.07207,-0.554404 -0.05929,-0.285281 -0.113211,-0.685842 -0.119841,-0.890135 -0.01144,-0.35275 -0.0026,-0.376732 0.176366,-0.476526 0.143039,-0.07977 0.189361,-0.151166 0.192326,-0.296418 0.0021,-0.105234 0.05041,-0.237836 0.107243,-0.294671 0.0993,-0.0993 0.09642,-0.170987 -0.0179,-0.445136 -0.105113,-0.252071 -0.114642,-0.501877 -0.02304,-0.60397 0.0501,-0.05584 0.119597,-0.278544 0.154441,-0.494909 0.03485,-0.216365 0.113502,-0.491138 0.174793,-0.610607 l 0.111438,-0.217215 0.268714,0.586511 c 0.147793,0.322582 0.308222,0.792927 0.356509,1.045211 0.04829,0.252285 0.118785,0.516606 0.156663,0.587381 0.03788,0.07078 0.05365,0.186887 0.03504,0.258028 -0.0186,0.07114 -0.0017,0.188368 0.0376,0.260506 0.03928,0.07214 0.07585,0.185343 0.08126,0.251566 0.0054,0.06622 0.105488,0.205871 0.222397,0.31033 l 0.212562,0.189924 0.01866,0.723303 c 0.01026,0.397817 0.04116,0.738638 0.06867,0.757381 0.02751,0.01874 0.06826,0.08354 0.09057,0.143988 0.0329,0.08918 0.117229,0.109911 0.447059,0.109911 0.223578,0 0.4244,-0.02895 0.44627,-0.06434 z M 15.065414,25.098081 c 0.07819,-0.129538 0.193728,-0.339508 0.256744,-0.466599 0.06302,-0.127091 0.178476,-0.250933 0.256576,-0.275204 0.0781,-0.02427 0.298672,-0.153456 0.490163,-0.287078 0.19149,-0.133622 0.364988,-0.242949 0.38555,-0.242949 0.02056,0 0.0554,0.09605 0.07743,0.21345 0.02203,0.117399 0.09708,0.28596 0.166787,0.37458 0.117577,0.149474 0.119809,0.174541 0.03085,0.346575 -0.105272,0.203575 -0.34631,0.309169 -0.792958,0.34738 -0.153245,0.01311 -0.349284,0.05164 -0.435642,0.08562 -0.499711,0.196631 -0.59884,0.17483 -0.435496,-0.09578 z"
       style="fill:#000000;stroke-width:0.0628067"
       id="path47069" /><path
       id="rect56371"
       style="fill:#000000;stroke-width:1.1;stroke-linecap:round;stroke-linejoin:round;stop-color:#000000"
       d="M 36.428267 18.870166 C 36.318806 19.090195 36.255668 19.337546 36.255668 19.600871 L 36.255668 28.75225 L 35.199402 29.292786 L 35.199402 24.265186 C 35.199402 23.890174 34.897451 23.588224 34.522441 23.588224 C 34.147429 23.588224 33.845479 23.890174 33.845479 24.265186 L 33.845479 29.985767 L 27.189038 33.392794 C 27.117268 33.429524 27.043311 33.457904 27.043311 33.538521 L 27.043311 37.014795 C 27.043311 37.095415 27.108421 37.160522 27.189038 37.160522 L 37.023063 37.160522 C 37.103683 37.160522 37.168274 37.095412 37.168274 37.014795 L 37.168274 36.722306 L 46.259192 36.722306 L 50.440332 36.722306 C 51.466933 36.722306 52.293449 35.895791 52.293449 34.869189 L 52.293449 34.214966 C 52.293449 33.188364 51.466933 32.361849 50.440332 32.361849 L 46.259192 32.361849 L 39.870435 28.799276 L 39.870435 19.600871 C 39.870435 19.581836 39.868488 19.563417 39.867851 19.544543 L 36.428267 18.870166 z " /></g></svg>
