<?xml version="1.0" encoding="UTF-8" standalone="no"?>
<!-- Created with Inkscape (http://www.inkscape.org/) -->

<svg
   width="60mm"
   height="42mm"
   viewBox="0 0 60 42"
   version="1.1"
   id="svg8"
   inkscape:version="1.2.2 (b0a8486541, 2022-12-01)"
   sodipodi:docname="LRM battery.svg"
   xml:space="preserve"
   xmlns:inkscape="http://www.inkscape.org/namespaces/inkscape"
   xmlns:sodipodi="http://sodipodi.sourceforge.net/DTD/sodipodi-0.dtd"
   xmlns="http://www.w3.org/2000/svg"
   xmlns:svg="http://www.w3.org/2000/svg"
   xmlns:rdf="http://www.w3.org/1999/02/22-rdf-syntax-ns#"
   xmlns:cc="http://creativecommons.org/ns#"
   xmlns:dc="http://purl.org/dc/elements/1.1/"><defs
     id="defs2"><inkscape:path-effect
       effect="copy_rotate"
       starting_point="62.825012,51.902842"
       origin="61.825012,51.902842"
       id="path-effect2032-9"
       is_visible="true"
       lpeversion="1"
       method="normal"
       num_copies="19"
       starting_angle="0"
       rotation_angle="18.947368"
       gap="-0.01"
       copies_to_360="true"
       mirror_copies="false"
       split_items="false" /><inkscape:path-effect
       effect="copy_rotate"
       starting_point="62.825012,52.034264"
       origin="61.825012,52.034264"
       id="path-effect1183-6"
       is_visible="true"
       lpeversion="1"
       method="normal"
       num_copies="19"
       starting_angle="0"
       rotation_angle="18.947368"
       gap="-0.01"
       copies_to_360="true"
       mirror_copies="false"
       split_items="false" /><inkscape:path-effect
       effect="copy_rotate"
       starting_point="64.010074,52.034264"
       origin="61.825012,52.034264"
       id="path-effect2800-4"
       is_visible="true"
       lpeversion="1"
       method="normal"
       num_copies="6"
       starting_angle="0"
       rotation_angle="60"
       gap="-0.01"
       copies_to_360="true"
       mirror_copies="false"
       split_items="false" /><inkscape:path-effect
       effect="copy_rotate"
       starting_point="62.825012,51.902842"
       origin="61.825012,51.902842"
       id="path-effect2032"
       is_visible="true"
       lpeversion="1"
       method="normal"
       num_copies="19"
       starting_angle="0"
       rotation_angle="18.947368"
       gap="-0.01"
       copies_to_360="true"
       mirror_copies="false"
       split_items="false" /><inkscape:path-effect
       effect="copy_rotate"
       starting_point="62.81794,52.034264"
       origin="61.825012,52.034264"
       id="path-effect1183"
       is_visible="true"
       lpeversion="1"
       method="normal"
       num_copies="19"
       starting_angle="0"
       rotation_angle="18.947368"
       gap="-0.01"
       copies_to_360="true"
       mirror_copies="false"
       split_items="false" /><inkscape:path-effect
       effect="copy_rotate"
       starting_point="64.010074,52.034264"
       origin="61.825012,52.034264"
       id="path-effect2800"
       is_visible="true"
       lpeversion="1"
       method="normal"
       num_copies="8"
       starting_angle="0"
       rotation_angle="45"
       gap="-0.01"
       copies_to_360="true"
       mirror_copies="false"
       split_items="false" /><inkscape:path-effect
       effect="copy_rotate"
       starting_point="62.825012,51.902842"
       origin="61.825012,51.902842"
       id="path-effect2032-8"
       is_visible="true"
       lpeversion="1"
       method="normal"
       num_copies="19"
       starting_angle="0"
       rotation_angle="18.947368"
       gap="-0.01"
       copies_to_360="true"
       mirror_copies="false"
       split_items="false" /><inkscape:path-effect
       effect="copy_rotate"
       starting_point="62.81794,52.034264"
       origin="61.825012,52.034264"
       id="path-effect1183-9"
       is_visible="true"
       lpeversion="1"
       method="normal"
       num_copies="19"
       starting_angle="0"
       rotation_angle="18.947368"
       gap="-0.01"
       copies_to_360="true"
       mirror_copies="false"
       split_items="false" /><inkscape:path-effect
       effect="copy_rotate"
       starting_point="64.010074,52.034264"
       origin="61.825012,52.034264"
       id="path-effect2800-6"
       is_visible="true"
       lpeversion="1"
       method="normal"
       num_copies="8"
       starting_angle="0"
       rotation_angle="45"
       gap="-0.01"
       copies_to_360="true"
       mirror_copies="false"
       split_items="false" /><inkscape:path-effect
       effect="copy_rotate"
       starting_point="62.825012,51.902842"
       origin="61.825012,51.902842"
       id="path-effect2032-4"
       is_visible="true"
       lpeversion="1"
       method="normal"
       num_copies="19"
       starting_angle="0"
       rotation_angle="18.947368"
       gap="-0.01"
       copies_to_360="true"
       mirror_copies="false"
       split_items="false" /><inkscape:path-effect
       effect="copy_rotate"
       starting_point="62.81794,52.034264"
       origin="61.825012,52.034264"
       id="path-effect1183-8"
       is_visible="true"
       lpeversion="1"
       method="normal"
       num_copies="19"
       starting_angle="0"
       rotation_angle="18.947368"
       gap="-0.01"
       copies_to_360="true"
       mirror_copies="false"
       split_items="false" /><inkscape:path-effect
       effect="copy_rotate"
       starting_point="64.010074,52.034264"
       origin="61.825012,52.034264"
       id="path-effect2800-8"
       is_visible="true"
       lpeversion="1"
       method="normal"
       num_copies="8"
       starting_angle="0"
       rotation_angle="45"
       gap="-0.01"
       copies_to_360="true"
       mirror_copies="false"
       split_items="false" /></defs><sodipodi:namedview
     id="base"
     pagecolor="#ffffff"
     bordercolor="#666666"
     borderopacity="1.0"
     inkscape:pageopacity="0.0"
     inkscape:pageshadow="2"
     inkscape:zoom="2"
     inkscape:cx="128"
     inkscape:cy="24.5"
     inkscape:document-units="mm"
     inkscape:current-layer="layer3"
     showgrid="false"
     inkscape:window-width="1920"
     inkscape:window-height="1043"
     inkscape:window-x="0"
     inkscape:window-y="0"
     inkscape:window-maximized="1"
     inkscape:snap-global="false"
     showguides="true"
     inkscape:pagecheckerboard="0"
     inkscape:guide-bbox="true"
     inkscape:showpageshadow="2"
     inkscape:deskcolor="#d1d1d1" /><metadata
     id="metadata5"><rdf:RDF><cc:Work
         rdf:about=""><dc:format>image/svg+xml</dc:format><dc:type
           rdf:resource="http://purl.org/dc/dcmitype/StillImage" /></cc:Work></rdf:RDF></metadata><g
     inkscape:groupmode="layer"
     id="layer3"
     inkscape:label="Capa 2"
     style="display:inline"><path
       d="m 23.604703,37.340241 c 0.0605,-0.09789 -0.03425,-0.451054 -0.166148,-0.6193 -0.06459,-0.08238 -0.117428,-0.226051 -0.117428,-0.319266 0,-0.09322 -0.01926,-0.188743 -0.0428,-0.212284 -0.02354,-0.02354 -0.04968,-0.152654 -0.05809,-0.286915 -0.01257,-0.200717 0.01712,-0.27299 0.167031,-0.406561 0.281549,-0.250862 0.285769,-0.395206 0.03435,-1.175142 -0.247573,-0.768009 -0.294474,-1.280204 -0.12835,-1.401677 0.2299,-0.168106 0.239157,-1.218407 0.01207,-1.368719 -0.05944,-0.03934 -0.05181,-0.06758 0.0315,-0.11668 0.150828,-0.08889 0.139429,-0.14616 -0.07851,-0.394377 -0.243197,-0.276986 -0.245432,-0.503587 -0.0069,-0.704258 l 0.181473,-0.152699 -0.08328,-0.3614 c -0.185598,-0.805447 -0.359471,-2.156356 -0.325607,-2.529808 0.04205,-0.463693 0.117244,-0.563673 0.423961,-0.563673 0.192701,0 0.273484,-0.04152 0.431955,-0.222008 0.107209,-0.122104 0.194926,-0.256772 0.194926,-0.29926 0,-0.04249 0.05653,-0.182718 0.125613,-0.31162 0.241254,-0.450128 0.112262,-0.862886 -0.269664,-0.862886 -0.100955,0 -0.191641,-0.04873 -0.232391,-0.124871 -0.03675,-0.06868 -0.143736,-0.143347 -0.237734,-0.165929 -0.192081,-0.04614 -0.656669,-0.267615 -0.70476,-0.335962 -0.01727,-0.02454 -0.158586,-0.08459 -0.314033,-0.133435 -0.274579,-0.08627 -0.282104,-0.0955 -0.264209,-0.323772 0.01043,-0.133043 -0.01,-0.234967 -0.04711,-0.234967 -0.03604,0 -0.06552,-0.120894 -0.06552,-0.268654 0,-0.30798 -0.117514,-0.507937 -0.377533,-0.642398 -0.459553,-0.237645 -1.067062,0.0071 -1.066977,0.429885 l 4.1e-5,0.198538 -0.392582,0.01022 c -0.660625,0.01719 -0.984939,0.08422 -1.056753,0.218402 -0.08123,0.151771 -0.01814,0.368044 0.107381,0.368044 0.06832,0 0.08262,0.03883 0.05204,0.141315 -0.07613,0.255082 -0.22372,0.432642 -0.415069,0.499345 -0.103539,0.0361 -0.212437,0.129234 -0.241995,0.206977 -0.03045,0.08009 -0.130585,0.160254 -0.231038,0.184965 -0.287207,0.07065 -0.452221,0.209041 -0.687127,0.576256 -0.166898,0.260903 -0.204454,0.366306 -0.152727,0.428632 0.04616,0.05562 0.04896,0.134303 0.0085,0.240566 -0.09382,0.246758 -0.01479,0.406942 0.268172,0.5435 0.422909,0.204105 0.863744,0.273169 1.309879,0.205211 0.284422,-0.04333 0.407793,-0.04025 0.441028,0.011 0.07419,0.114404 0.05577,0.509117 -0.07219,1.547104 -0.186732,1.514698 -0.195384,1.632968 -0.119475,1.632968 0.104603,0 0.01605,0.500038 -0.169159,0.955219 -0.08843,0.217315 -0.171357,0.479908 -0.184291,0.583539 -0.01294,0.103631 -0.0424,0.343865 -0.06548,0.533854 -0.0447,0.367937 0.03495,0.690908 0.170349,0.69082 0.05942,-4e-5 0.08214,0.174051 0.08812,0.675169 0.0044,0.371372 0.02864,0.795871 0.05382,0.94333 0.02999,0.17571 0.02046,0.298591 -0.02764,0.356556 -0.05774,0.06957 -0.03432,0.156891 0.109785,0.409197 0.116821,0.204546 0.17246,0.376872 0.153577,0.475656 -0.03958,0.207036 -0.759534,0.769942 -1.066265,0.833671 -0.176935,0.03676 -0.249881,0.09089 -0.294865,0.218799 -0.09876,0.280821 0.08154,0.37154 0.6553,0.329723 0.794063,-0.05787 1.579512,-0.148044 1.617114,-0.185646 0.01964,-0.01964 -0.01279,-0.269124 -0.07207,-0.554404 -0.05929,-0.285281 -0.113211,-0.685842 -0.119841,-0.890135 -0.01144,-0.35275 -0.0026,-0.376732 0.176366,-0.476526 0.143039,-0.07977 0.189361,-0.151166 0.192326,-0.296418 0.0021,-0.105234 0.05041,-0.237836 0.107243,-0.294671 0.0993,-0.0993 0.09642,-0.170987 -0.0179,-0.445136 -0.105113,-0.252071 -0.114642,-0.501877 -0.02304,-0.60397 0.0501,-0.05584 0.119597,-0.278544 0.154441,-0.494909 0.03485,-0.216365 0.113502,-0.491138 0.174793,-0.610607 l 0.111438,-0.217215 0.268714,0.586511 c 0.147793,0.322582 0.308222,0.792927 0.356509,1.045211 0.04829,0.252285 0.118785,0.516606 0.156663,0.587381 0.03788,0.07078 0.05365,0.186887 0.03504,0.258028 -0.0186,0.07114 -0.0017,0.188368 0.0376,0.260506 0.03928,0.07214 0.07585,0.185343 0.08126,0.251566 0.0054,0.06622 0.105488,0.205871 0.222397,0.31033 l 0.212562,0.189924 0.01866,0.723303 c 0.01026,0.397817 0.04116,0.738638 0.06867,0.757381 0.02751,0.01874 0.06826,0.08354 0.09057,0.143988 0.0329,0.08918 0.117229,0.109911 0.447059,0.109911 0.223578,0 0.4244,-0.02895 0.44627,-0.06434 z M 19.242856,25.424248 c 0.07819,-0.129538 0.193728,-0.339508 0.256744,-0.466599 0.06302,-0.127091 0.178476,-0.250933 0.256576,-0.275204 0.0781,-0.02427 0.298672,-0.153456 0.490163,-0.287078 0.19149,-0.133622 0.364988,-0.242949 0.38555,-0.242949 0.02056,0 0.0554,0.09605 0.07743,0.21345 0.02203,0.117399 0.09708,0.28596 0.166787,0.37458 0.117577,0.149474 0.119809,0.174541 0.03085,0.346575 -0.105272,0.203575 -0.34631,0.309169 -0.792958,0.34738 -0.153245,0.01311 -0.349284,0.05164 -0.435642,0.08562 -0.499711,0.196631 -0.59884,0.17483 -0.435496,-0.09578 z"
       style="fill:#000000;stroke-width:0.0628067"
       id="path47069" /><path
       style="fill:#000000;stroke-width:0.0393251"
       d="m 50.06379,20.757909 -0.203656,0.03803 -0.940291,-0.784943 c -0.517161,-0.431719 -1.407336,-1.174718 -1.978168,-1.651108 -0.570832,-0.47639 -1.353768,-1.13023 -1.739859,-1.452977 l -0.70198,-0.586814 -3.496782,-1.561132 -3.496781,-1.561132 0.513654,-1.155562 0.513654,-1.155562 3.536976,1.57645 c 3.482269,1.552067 3.543128,1.577214 3.934799,1.625863 0.218801,0.0272 1.266602,0.16608 2.328443,0.308669 1.061842,0.142595 2.180026,0.292136 2.484853,0.332326 0.304827,0.04019 0.773706,0.102004 1.041954,0.137378 0.268249,0.03536 0.494905,0.06738 0.503684,0.07113 0.0087,0.0037 0.07576,0.09478 0.148856,0.202291 l 0.132895,0.195462 -0.34355,0.773472 c -0.188966,0.425404 -0.359238,0.779452 -0.378382,0.786773 -0.01915,0.0073 -0.08468,-0.0071 -0.145643,-0.03211 -0.126482,-0.05183 -0.124878,-0.05827 -0.07232,0.290384 0.02519,0.167056 0.04367,0.198433 0.187804,0.318819 0.185407,0.154861 0.20918,0.246399 0.138953,0.535059 -0.05306,0.218113 -0.201583,0.487632 -0.361116,0.655284 -0.109116,0.114667 -0.11156,0.115274 -0.334172,0.08235 l -0.224258,-0.03317 -0.174739,0.138441 c -0.09611,0.07614 -0.177706,0.154017 -0.181337,0.173051 -0.0036,0.01906 0.04962,0.05765 0.118328,0.0858 l 0.124927,0.05119 -0.346103,0.77628 c -0.190371,0.426948 -0.355279,0.777571 -0.36654,0.779129 -0.0113,0.0016 -0.112124,0.01994 -0.224137,0.04086 z M 37.135289,13.003144 c -0.07595,-0.03589 -0.142701,-0.07731 -0.148327,-0.09202 -0.0155,-0.04051 0.972745,-2.252419 1.013239,-2.26792 0.01939,-0.0075 0.102326,0.01825 0.184323,0.05699 l 0.149085,0.07047 -0.509122,1.140859 c -0.279999,0.627481 -0.518577,1.144464 -0.530117,1.148877 -0.01155,0.0044 -0.08313,-0.02135 -0.159079,-0.05725 z M 36.007946,12.408958 C 34.145121,11.307707 32.626786,10.223145 32.046994,9.5796106 31.868655,9.3816637 31.822147,9.3082453 31.82689,9.2321394 c 0.01295,-0.207599 0.1789,-0.2319054 0.962506,-0.1409681 1.326833,0.1539764 2.825821,0.5706623 4.678515,1.3005137 l 0.287914,0.113422 -0.520573,1.160826 -0.520572,1.160825 z"
       id="path47299" /><path
       style="display:inline;fill:#000000;stroke-width:0.0393251"
       d="m 46.99204,28.117533 -0.203656,0.03803 -0.940291,-0.784943 C 45.330932,26.938898 44.440757,26.1959 43.869925,25.719509 43.299093,25.243118 42.516157,24.589278 42.130066,24.266532 l -0.70198,-0.586814 -3.496782,-1.561132 -3.496781,-1.561131 0.513654,-1.155562 0.513654,-1.155562 3.536975,1.57645 c 3.482269,1.55207 3.543129,1.577213 3.934799,1.625863 0.218801,0.0272 1.266603,0.16608 2.328444,0.308669 1.061842,0.142594 2.180026,0.292135 2.484853,0.332325 0.304827,0.04019 0.773706,0.102004 1.041954,0.137378 0.268249,0.03536 0.494905,0.06738 0.503684,0.07113 0.0087,0.0037 0.07576,0.09478 0.148856,0.202291 l 0.132895,0.195462 -0.343551,0.773473 c -0.188965,0.425403 -0.359237,0.779452 -0.378381,0.786773 -0.01914,0.0073 -0.08468,-0.0071 -0.145643,-0.03211 -0.12647,-0.05186 -0.124882,-0.05826 -0.07232,0.290384 0.02519,0.167057 0.04367,0.198433 0.187803,0.31882 0.185407,0.154862 0.20918,0.246399 0.138953,0.535059 -0.05306,0.218112 -0.201582,0.487631 -0.361116,0.655284 -0.109116,0.114667 -0.11156,0.115273 -0.334172,0.08235 l -0.224259,-0.03316 -0.17474,0.138442 c -0.09611,0.07614 -0.177706,0.154016 -0.181337,0.173051 -0.0036,0.01906 0.04962,0.05764 0.118326,0.08581 l 0.124931,0.05118 -0.346103,0.77628 c -0.190371,0.426949 -0.355279,0.777571 -0.36654,0.779129 -0.0113,0.0016 -0.112125,0.01994 -0.224137,0.04086 z M 34.063539,20.362767 c -0.07596,-0.03587 -0.142702,-0.07731 -0.148325,-0.09203 -0.01549,-0.04051 0.972745,-2.252419 1.013239,-2.26792 0.01939,-0.0075 0.102324,0.01825 0.184324,0.05699 l 0.149077,0.07049 -0.509123,1.140859 c -0.279999,0.62748 -0.518577,1.144464 -0.530117,1.148877 -0.01157,0.0044 -0.08312,-0.02135 -0.15908,-0.05724 z m -1.127341,-0.594189 c -1.862825,-1.101252 -3.38116,-2.185814 -3.960952,-2.829348 -0.178339,-0.197947 -0.224847,-0.271366 -0.220104,-0.347471 0.01295,-0.2076 0.178904,-0.231904 0.962506,-0.140969 1.326834,0.153976 2.825821,0.570662 4.678515,1.300515 l 0.287915,0.113419 -0.520572,1.160825 -0.520573,1.160825 z"
       id="path47299-9" /><rect
       style="fill:#000000;stroke-width:0.727494;stroke-linecap:round;stroke-linejoin:round;stroke-dasharray:0.497947, 0.165983;stop-color:#000000"
       id="rect47340"
       width="11.668688"
       height="4.0242276"
       x="37.128792"
       y="-2.4135718"
       ry="1.0340666"
       transform="rotate(23.84762)" /><path
       id="rect47342"
       style="fill:#000000;stroke-width:0.799999;stroke-linecap:round;stroke-linejoin:round;stroke-dasharray:0.547574, 0.182525;stop-color:#000000"
       d="M 41.065335 5.5366466 C 40.807919 5.645163 40.627936 5.8994551 40.627936 6.1972536 L 40.627956 8.1758813 C 40.627956 8.4770404 40.811902 8.7333796 41.073981 8.839781 A 2.9874468 2.9874468 0 0 1 41.847644 8.3429761 A 2.9874468 2.9874468 0 0 1 44.967657 8.7802687 C 45.166583 8.6531717 45.298273 8.4304583 45.298273 8.1759049 L 45.298252 6.1972773 C 45.298252 5.8002126 44.97855 5.4807325 44.581485 5.4807325 L 41.344689 5.4809593 C 41.245423 5.4809593 41.15114 5.5004745 41.065335 5.5366466 z "
       transform="rotate(23.84762)" /><g
       id="g47843"
       transform="translate(3.3999803,-0.90021578)"><path
         id="rect47374"
         style="fill:#000000;stroke-width:0.799999;stroke-linecap:round;stroke-linejoin:round;stroke-dasharray:0.547574, 0.182525;stop-color:#000000"
         d="m 28.580684,27.459306 c -0.397064,0 -0.716752,0.319687 -0.716752,0.716752 v 6.220292 c 0,0.397065 0.319688,0.716752 0.716752,0.716752 h 0.782382 v -3.034957 c 0,-0.69225 0.575372,-1.267623 1.267622,-1.267623 h 1.876888 c 0.692251,0 1.267623,0.575373 1.267623,1.267623 v 3.034957 h 0.566374 c 0.397065,0 0.716752,-0.319687 0.716752,-0.716752 v -6.220292 c 0,-0.397065 -0.319687,-0.716752 -0.716752,-0.716752 z m 2.050004,4.450891 c -0.101874,0 -0.165881,0.06607 -0.165881,0.167948 v 3.034957 h 2.210718 v -3.034957 c 0,-0.101879 -0.06607,-0.167948 -0.167949,-0.167948 z" /><rect
         style="fill:#000000;stroke-width:0.799999;stroke-linecap:round;stroke-linejoin:round;stroke-dasharray:0.547574, 0.182525;stop-color:#000000"
         id="rect47376"
         width="3.3112376"
         height="6.7553267"
         x="23.983484"
         y="30.297888"
         ry="0.71672398" /><rect
         style="display:inline;fill:#000000;stroke-width:0.799999;stroke-linecap:round;stroke-linejoin:round;stroke-dasharray:0.547574, 0.182525;stop-color:#000000"
         id="rect47376-6"
         width="3.3112376"
         height="6.7553267"
         x="35.62772"
         y="30.297888"
         ry="0.71672398" /><path
         style="color:#000000;fill:#000000;stroke-width:1.1;stroke-linecap:round;stroke-linejoin:round;-inkscape-stroke:none"
         d="m 30.630775,31.360895 h 1.87779 c 0.397065,0 0.716724,0.319659 0.716724,0.716724 v 5.321879 c 0,0.397065 -0.319659,0.716724 -0.716724,0.716724 h -1.87779 c -0.397065,0 -0.716724,-0.319659 -0.716724,-0.716724 v -5.321879 c 0,-0.397065 0.319659,-0.716724 0.716724,-0.716724 z"
         id="path47805" /></g><circle
       style="fill:#000000;stroke:none;stroke-width:0.917338;stroke-linecap:round;stroke-linejoin:round;stroke-dasharray:none;stroke-dashoffset:0;stop-color:#000000"
       id="path47845"
       cx="34.861202"
       cy="27.499834"
       r="2.3459651" /></g></svg>
