<?xml version="1.0" encoding="UTF-8" standalone="no"?>
<!-- Created with Inkscape (http://www.inkscape.org/) -->

<svg
   width="60mm"
   height="42mm"
   viewBox="0 0 60 42"
   version="1.1"
   id="svg8"
   inkscape:version="1.2.2 (b0a8486541, 2022-12-01)"
   sodipodi:docname="Regular.svg"
   xml:space="preserve"
   xmlns:inkscape="http://www.inkscape.org/namespaces/inkscape"
   xmlns:sodipodi="http://sodipodi.sourceforge.net/DTD/sodipodi-0.dtd"
   xmlns="http://www.w3.org/2000/svg"
   xmlns:svg="http://www.w3.org/2000/svg"
   xmlns:rdf="http://www.w3.org/1999/02/22-rdf-syntax-ns#"
   xmlns:cc="http://creativecommons.org/ns#"
   xmlns:dc="http://purl.org/dc/elements/1.1/"><defs
     id="defs2"><inkscape:path-effect
       effect="copy_rotate"
       starting_point="62.825012,51.902842"
       origin="61.825012,51.902842"
       id="path-effect2032-9"
       is_visible="true"
       lpeversion="1"
       method="normal"
       num_copies="19"
       starting_angle="0"
       rotation_angle="18.947368"
       gap="-0.01"
       copies_to_360="true"
       mirror_copies="false"
       split_items="false" /><inkscape:path-effect
       effect="copy_rotate"
       starting_point="62.825012,52.034264"
       origin="61.825012,52.034264"
       id="path-effect1183-6"
       is_visible="true"
       lpeversion="1"
       method="normal"
       num_copies="19"
       starting_angle="0"
       rotation_angle="18.947368"
       gap="-0.01"
       copies_to_360="true"
       mirror_copies="false"
       split_items="false" /><inkscape:path-effect
       effect="copy_rotate"
       starting_point="64.010074,52.034264"
       origin="61.825012,52.034264"
       id="path-effect2800-4"
       is_visible="true"
       lpeversion="1"
       method="normal"
       num_copies="6"
       starting_angle="0"
       rotation_angle="60"
       gap="-0.01"
       copies_to_360="true"
       mirror_copies="false"
       split_items="false" /><inkscape:path-effect
       effect="copy_rotate"
       starting_point="62.825012,51.902842"
       origin="61.825012,51.902842"
       id="path-effect2032"
       is_visible="true"
       lpeversion="1"
       method="normal"
       num_copies="19"
       starting_angle="0"
       rotation_angle="18.947368"
       gap="-0.01"
       copies_to_360="true"
       mirror_copies="false"
       split_items="false" /><inkscape:path-effect
       effect="copy_rotate"
       starting_point="62.81794,52.034264"
       origin="61.825012,52.034264"
       id="path-effect1183"
       is_visible="true"
       lpeversion="1"
       method="normal"
       num_copies="19"
       starting_angle="0"
       rotation_angle="18.947368"
       gap="-0.01"
       copies_to_360="true"
       mirror_copies="false"
       split_items="false" /><inkscape:path-effect
       effect="copy_rotate"
       starting_point="64.010074,52.034264"
       origin="61.825012,52.034264"
       id="path-effect2800"
       is_visible="true"
       lpeversion="1"
       method="normal"
       num_copies="8"
       starting_angle="0"
       rotation_angle="45"
       gap="-0.01"
       copies_to_360="true"
       mirror_copies="false"
       split_items="false" /><inkscape:path-effect
       effect="copy_rotate"
       starting_point="62.825012,51.902842"
       origin="61.825012,51.902842"
       id="path-effect2032-8"
       is_visible="true"
       lpeversion="1"
       method="normal"
       num_copies="19"
       starting_angle="0"
       rotation_angle="18.947368"
       gap="-0.01"
       copies_to_360="true"
       mirror_copies="false"
       split_items="false" /><inkscape:path-effect
       effect="copy_rotate"
       starting_point="62.81794,52.034264"
       origin="61.825012,52.034264"
       id="path-effect1183-9"
       is_visible="true"
       lpeversion="1"
       method="normal"
       num_copies="19"
       starting_angle="0"
       rotation_angle="18.947368"
       gap="-0.01"
       copies_to_360="true"
       mirror_copies="false"
       split_items="false" /><inkscape:path-effect
       effect="copy_rotate"
       starting_point="64.010074,52.034264"
       origin="61.825012,52.034264"
       id="path-effect2800-6"
       is_visible="true"
       lpeversion="1"
       method="normal"
       num_copies="8"
       starting_angle="0"
       rotation_angle="45"
       gap="-0.01"
       copies_to_360="true"
       mirror_copies="false"
       split_items="false" /><inkscape:path-effect
       effect="copy_rotate"
       starting_point="62.825012,51.902842"
       origin="61.825012,51.902842"
       id="path-effect2032-4"
       is_visible="true"
       lpeversion="1"
       method="normal"
       num_copies="19"
       starting_angle="0"
       rotation_angle="18.947368"
       gap="-0.01"
       copies_to_360="true"
       mirror_copies="false"
       split_items="false" /><inkscape:path-effect
       effect="copy_rotate"
       starting_point="62.81794,52.034264"
       origin="61.825012,52.034264"
       id="path-effect1183-8"
       is_visible="true"
       lpeversion="1"
       method="normal"
       num_copies="19"
       starting_angle="0"
       rotation_angle="18.947368"
       gap="-0.01"
       copies_to_360="true"
       mirror_copies="false"
       split_items="false" /><inkscape:path-effect
       effect="copy_rotate"
       starting_point="64.010074,52.034264"
       origin="61.825012,52.034264"
       id="path-effect2800-8"
       is_visible="true"
       lpeversion="1"
       method="normal"
       num_copies="8"
       starting_angle="0"
       rotation_angle="45"
       gap="-0.01"
       copies_to_360="true"
       mirror_copies="false"
       split_items="false" /></defs><sodipodi:namedview
     id="base"
     pagecolor="#ffffff"
     bordercolor="#666666"
     borderopacity="1.0"
     inkscape:pageopacity="0.0"
     inkscape:pageshadow="2"
     inkscape:zoom="2.8284271"
     inkscape:cx="57.452426"
     inkscape:cy="68.942912"
     inkscape:document-units="mm"
     inkscape:current-layer="layer3"
     showgrid="false"
     inkscape:window-width="1549"
     inkscape:window-height="773"
     inkscape:window-x="2022"
     inkscape:window-y="94"
     inkscape:window-maximized="0"
     inkscape:snap-global="false"
     showguides="true"
     inkscape:pagecheckerboard="0"
     inkscape:guide-bbox="true"
     inkscape:showpageshadow="2"
     inkscape:deskcolor="#d1d1d1" /><metadata
     id="metadata5"><rdf:RDF><cc:Work
         rdf:about=""><dc:format>image/svg+xml</dc:format><dc:type
           rdf:resource="http://purl.org/dc/dcmitype/StillImage" /></cc:Work></rdf:RDF></metadata><g
     inkscape:groupmode="layer"
     id="layer3"
     inkscape:label="Capa 2"
     style="display:inline"><path
       style="display:inline;fill:#000000;stroke-width:0.055044"
       d="m 28.981707,36.108866 c -0.560073,-0.01826 -1.059397,-0.05278 -1.109603,-0.07668 -0.139293,-0.06631 -0.232781,-0.333204 -0.16263,-0.464286 0.06113,-0.114213 0.343512,-0.246702 0.666747,-0.312828 0.434868,-0.08896 0.862888,-0.594476 0.963722,-1.138192 0.05814,-0.313626 -0.06371,-0.976777 -0.199762,-1.08694 -0.102155,-0.08272 -0.113278,-0.148747 -0.108237,-0.64255 0.005,-0.49123 -0.021,-0.647741 -0.242129,-1.456697 -0.299419,-1.09539 -0.312423,-1.360723 -0.08846,-1.80439 0.088,-0.174326 0.176956,-0.439897 0.197687,-0.590158 0.07572,-0.548987 0.121566,-0.684169 0.593473,-1.750178 0.07241,-0.16357 0.176912,-0.296602 0.271353,-0.345436 0.09735,-0.05035 0.154037,-0.124271 0.154798,-0.201863 0.0019,-0.215919 0.206841,-0.584555 0.384669,-0.692693 0.109496,-0.06659 0.226949,-0.221254 0.322892,-0.425185 l 0.15079,-0.320524 -0.15051,-0.369857 c -0.08278,-0.20342 -0.193008,-0.4347 -0.244939,-0.513962 l -0.09442,-0.144104 -0.12075,0.113446 c -0.103221,0.09697 -0.694195,0.374139 -1.192204,0.559145 -0.09781,0.03633 -0.155826,0.107371 -0.177922,0.217858 -0.0377,0.18854 -0.349138,0.600258 -0.454042,0.600258 -0.03882,0 -0.09349,0.04088 -0.121453,0.09084 -0.03664,0.06546 -0.139917,0.09433 -0.369658,0.103327 -0.299251,0.01171 -0.328395,0.0253 -0.474817,0.221709 -0.0858,0.115073 -0.156,0.27425 -0.156,0.353737 0,0.189898 -0.254373,0.696288 -0.374007,0.744556 -0.05159,0.02081 -0.250516,0.05801 -0.441984,0.08268 -0.386975,0.04979 -0.581384,0.175928 -0.528431,0.342789 0.02393,0.07534 0.0019,0.112967 -0.07922,0.134122 -0.06188,0.0162 -0.151857,0.08954 -0.200006,0.163023 -0.04817,0.07349 -0.11192,0.11855 -0.141711,0.100142 -0.02979,-0.01844 -0.0995,0.02249 -0.15491,0.09095 l -0.100753,0.124413 -0.15319,-0.1205 c -0.10547,-0.08296 -0.173584,-0.103582 -0.218649,-0.06618 -0.07466,0.06194 -0.376145,-0.214792 -0.348235,-0.319683 0.009,-0.03396 -0.05166,-0.118033 -0.13482,-0.18687 l -0.151246,-0.125172 1.409695,-1.943914 1.409695,-1.943914 -0.12328,-0.131225 -0.123273,-0.131224 0.351014,-0.476244 c 0.193057,-0.261931 0.344309,-0.500028 0.336115,-0.529103 -0.01757,-0.06232 0.924148,-1.367092 0.986685,-1.367092 0.09943,0 0.424088,0.341455 0.395499,0.415963 -0.01676,0.04368 -0.005,0.07944 0.02598,0.07944 0.03103,0 0.329946,-0.397474 0.66421,-0.883277 0.501798,-0.7293 0.591336,-0.889095 0.513625,-0.916599 -0.05178,-0.01832 -0.135006,-0.06832 -0.184981,-0.111098 -0.06132,-0.05247 -0.10266,-0.0587 -0.1271,-0.01919 -0.11367,0.183922 -0.333123,-0.186814 -0.285242,-0.481877 0.02337,-0.144154 -0.0119,-0.292209 -0.138945,-0.583203 -0.09367,-0.2145 -0.214057,-0.452154 -0.26754,-0.52812 -0.158399,-0.224973 -0.231486,-0.577458 -0.167671,-0.808595 0.03857,-0.13973 0.0377,-0.223615 -0.0031,-0.272425 -0.07623,-0.09185 0.138066,-0.404665 0.277217,-0.404665 0.05378,0 0.140571,-0.04723 0.192833,-0.104997 0.294907,-0.32587 1.302704,-0.492981 1.909031,-0.316542 0.504185,0.146709 0.896886,0.519725 0.961168,0.912981 0.0177,0.108138 0.05839,0.250672 0.09053,0.316748 0.06992,0.143837 0.02405,0.292696 -0.09017,0.292696 -0.144615,0 -0.1851,0.173827 -0.124164,0.533197 0.04798,0.283043 0.07868,0.345798 0.181779,0.371671 0.06822,0.01714 0.138751,0.07749 0.156735,0.134153 0.02524,0.07956 0.108922,0.111646 0.367358,0.140883 0.255408,0.02891 0.368443,0.07165 0.477316,0.18052 0.127971,0.127971 0.180152,0.141443 0.506764,0.13085 0.283,-0.0092 0.390726,0.01041 0.483566,0.08788 0.139624,0.116518 0.781751,1.344235 0.781751,1.494664 0,0.05633 -0.05708,0.186621 -0.126869,0.289486 -0.126626,0.186671 -0.12667,0.187381 -0.02156,0.366842 0.07952,0.135767 0.09023,0.197992 0.04374,0.254043 -0.04692,0.05652 -0.01994,0.163259 0.112935,0.447206 0.096,0.205146 0.18659,0.49953 0.20132,0.65419 0.01471,0.15466 0.06231,0.335629 0.105683,0.402141 0.0468,0.07174 0.07183,0.217266 0.0615,0.357781 l -0.01738,0.236857 0.205625,0.01707 0.205626,0.01707 v 0.854637 0.854645 l -0.165135,0.06233 c -0.140122,0.0529 -0.165309,0.09177 -0.166325,0.256679 -0.0031,0.470336 -0.216387,1.170202 -0.552652,1.81158 -0.397767,0.758683 -0.49194,0.869899 -0.785857,0.928018 l -0.222718,0.04406 -0.116088,0.439236 c -0.06385,0.24158 -0.196124,0.589092 -0.293942,0.772242 -0.175498,0.328593 -0.176688,0.335816 -0.08935,0.544831 0.04867,0.1165 0.234925,0.44424 0.413887,0.728305 0.349936,0.55545 0.545324,1.143003 0.548913,1.650627 0.0012,0.146329 0.05241,0.464211 0.114176,0.706402 0.06175,0.242197 0.196634,0.807243 0.299718,1.255658 0.103084,0.448421 0.202653,0.839951 0.221272,0.870073 0.07327,0.118568 -0.03365,0.313694 -0.204579,0.373278 -0.244664,0.08529 -0.612222,0.0752 -0.738449,-0.02025 -0.06765,-0.05116 -0.238097,-0.08157 -0.464635,-0.08288 -0.468804,-0.0025 -0.739739,-0.08243 -0.878198,-0.258461 -0.21516,-0.273528 -0.106399,-0.418791 0.377341,-0.504004 0.181249,-0.0319 0.391031,-0.09833 0.466186,-0.147581 0.115808,-0.07588 0.132309,-0.120451 0.108206,-0.292278 -0.05533,-0.394583 -0.183944,-0.712902 -0.3003,-0.743329 -0.06144,-0.01608 -0.124875,-0.07971 -0.141014,-0.141444 -0.01614,-0.06175 -0.140253,-0.354615 -0.275796,-0.65085 -0.135549,-0.296235 -0.276837,-0.678754 -0.313981,-0.850039 -0.05795,-0.267135 -0.111116,-0.353257 -0.37397,-0.605487 -0.530163,-0.508727 -0.683534,-1.219061 -0.50917,-2.358206 0.03477,-0.227055 0.05166,-0.506204 0.03758,-0.620324 l -0.02561,-0.207501 -0.172743,0.258174 c -0.387212,0.578698 -0.464193,0.67456 -0.847036,1.054786 -0.260399,0.258617 -0.39887,0.439237 -0.398496,0.519801 4.17e-4,0.106536 0.06327,0.477004 0.27741,1.63718 0.02511,0.136234 0.04717,0.39429 0.04898,0.573458 0.0019,0.179161 0.03066,0.482961 0.06412,0.675102 0.05309,0.304846 0.04867,0.367894 -0.03452,0.494881 -0.147395,0.224949 -0.08777,1.365491 0.105296,2.014147 0.07897,0.265359 0.1436,0.57005 0.1436,0.677097 0,0.167889 -0.02455,0.204678 -0.178894,0.267745 -0.260187,0.106331 -0.658191,0.125878 -1.802695,0.08854 z M 26.706215,26.67351 c 0.140926,-0.0458 0.262143,-0.21855 0.3138,-0.447194 0.03652,-0.161571 0.03278,-0.159926 -0.174239,0.07644 l -0.211545,0.241562 -0.154642,-0.101321 -0.154635,-0.10132 -0.130015,0.162499 c -0.07151,0.08937 -0.130147,0.177248 -0.130296,0.195275 -4.12e-4,0.04325 0.489666,0.02343 0.641572,-0.02592 z m 8.617483,-3.897537 c -0.03583,-0.03583 -0.07851,-0.05178 -0.09487,-0.03539 -0.01633,0.01633 -0.01346,0.0721 0.0064,0.123884 0.02561,0.06671 0.05322,0.07702 0.09487,0.03539 0.04163,-0.04162 0.03976,-0.07772 -0.0064,-0.123884 z m -6.09894,-0.175622 c -0.05938,-0.19717 -0.112449,-0.211583 -0.213153,-0.05789 -0.107838,0.16458 -0.04624,0.251949 0.142871,0.202504 0.07825,-0.0205 0.09642,-0.05783 0.07028,-0.144622 z"
       id="path15360"
       sodipodi:nodetypes="ssssssssssssssscsscssssssssssssssscsssscccccssssssssssssssssssssssssssssssssssscccccsssscsssssssssssssssssssssscsscscsssssssssscccscssssssssss" /></g></svg>
