<?xml version="1.0" encoding="UTF-8" standalone="no"?>
<!-- Created with Inkscape (http://www.inkscape.org/) -->

<svg
   width="60mm"
   height="42mm"
   viewBox="0 0 60 42"
   version="1.1"
   id="svg8"
   inkscape:version="1.2.2 (b0a8486541, 2022-12-01)"
   sodipodi:docname="SRM battery.svg"
   xml:space="preserve"
   xmlns:inkscape="http://www.inkscape.org/namespaces/inkscape"
   xmlns:sodipodi="http://sodipodi.sourceforge.net/DTD/sodipodi-0.dtd"
   xmlns="http://www.w3.org/2000/svg"
   xmlns:svg="http://www.w3.org/2000/svg"
   xmlns:rdf="http://www.w3.org/1999/02/22-rdf-syntax-ns#"
   xmlns:cc="http://creativecommons.org/ns#"
   xmlns:dc="http://purl.org/dc/elements/1.1/"><defs
     id="defs2"><inkscape:path-effect
       effect="copy_rotate"
       starting_point="62.825012,51.902842"
       origin="61.825012,51.902842"
       id="path-effect2032-9"
       is_visible="true"
       lpeversion="1"
       method="normal"
       num_copies="19"
       starting_angle="0"
       rotation_angle="18.947368"
       gap="-0.01"
       copies_to_360="true"
       mirror_copies="false"
       split_items="false" /><inkscape:path-effect
       effect="copy_rotate"
       starting_point="62.825012,52.034264"
       origin="61.825012,52.034264"
       id="path-effect1183-6"
       is_visible="true"
       lpeversion="1"
       method="normal"
       num_copies="19"
       starting_angle="0"
       rotation_angle="18.947368"
       gap="-0.01"
       copies_to_360="true"
       mirror_copies="false"
       split_items="false" /><inkscape:path-effect
       effect="copy_rotate"
       starting_point="64.010074,52.034264"
       origin="61.825012,52.034264"
       id="path-effect2800-4"
       is_visible="true"
       lpeversion="1"
       method="normal"
       num_copies="6"
       starting_angle="0"
       rotation_angle="60"
       gap="-0.01"
       copies_to_360="true"
       mirror_copies="false"
       split_items="false" /><inkscape:path-effect
       effect="copy_rotate"
       starting_point="62.825012,51.902842"
       origin="61.825012,51.902842"
       id="path-effect2032"
       is_visible="true"
       lpeversion="1"
       method="normal"
       num_copies="19"
       starting_angle="0"
       rotation_angle="18.947368"
       gap="-0.01"
       copies_to_360="true"
       mirror_copies="false"
       split_items="false" /><inkscape:path-effect
       effect="copy_rotate"
       starting_point="62.81794,52.034264"
       origin="61.825012,52.034264"
       id="path-effect1183"
       is_visible="true"
       lpeversion="1"
       method="normal"
       num_copies="19"
       starting_angle="0"
       rotation_angle="18.947368"
       gap="-0.01"
       copies_to_360="true"
       mirror_copies="false"
       split_items="false" /><inkscape:path-effect
       effect="copy_rotate"
       starting_point="64.010074,52.034264"
       origin="61.825012,52.034264"
       id="path-effect2800"
       is_visible="true"
       lpeversion="1"
       method="normal"
       num_copies="8"
       starting_angle="0"
       rotation_angle="45"
       gap="-0.01"
       copies_to_360="true"
       mirror_copies="false"
       split_items="false" /><inkscape:path-effect
       effect="copy_rotate"
       starting_point="62.825012,51.902842"
       origin="61.825012,51.902842"
       id="path-effect2032-8"
       is_visible="true"
       lpeversion="1"
       method="normal"
       num_copies="19"
       starting_angle="0"
       rotation_angle="18.947368"
       gap="-0.01"
       copies_to_360="true"
       mirror_copies="false"
       split_items="false" /><inkscape:path-effect
       effect="copy_rotate"
       starting_point="62.81794,52.034264"
       origin="61.825012,52.034264"
       id="path-effect1183-9"
       is_visible="true"
       lpeversion="1"
       method="normal"
       num_copies="19"
       starting_angle="0"
       rotation_angle="18.947368"
       gap="-0.01"
       copies_to_360="true"
       mirror_copies="false"
       split_items="false" /><inkscape:path-effect
       effect="copy_rotate"
       starting_point="64.010074,52.034264"
       origin="61.825012,52.034264"
       id="path-effect2800-6"
       is_visible="true"
       lpeversion="1"
       method="normal"
       num_copies="8"
       starting_angle="0"
       rotation_angle="45"
       gap="-0.01"
       copies_to_360="true"
       mirror_copies="false"
       split_items="false" /><inkscape:path-effect
       effect="copy_rotate"
       starting_point="62.825012,51.902842"
       origin="61.825012,51.902842"
       id="path-effect2032-4"
       is_visible="true"
       lpeversion="1"
       method="normal"
       num_copies="19"
       starting_angle="0"
       rotation_angle="18.947368"
       gap="-0.01"
       copies_to_360="true"
       mirror_copies="false"
       split_items="false" /><inkscape:path-effect
       effect="copy_rotate"
       starting_point="62.81794,52.034264"
       origin="61.825012,52.034264"
       id="path-effect1183-8"
       is_visible="true"
       lpeversion="1"
       method="normal"
       num_copies="19"
       starting_angle="0"
       rotation_angle="18.947368"
       gap="-0.01"
       copies_to_360="true"
       mirror_copies="false"
       split_items="false" /><inkscape:path-effect
       effect="copy_rotate"
       starting_point="64.010074,52.034264"
       origin="61.825012,52.034264"
       id="path-effect2800-8"
       is_visible="true"
       lpeversion="1"
       method="normal"
       num_copies="8"
       starting_angle="0"
       rotation_angle="45"
       gap="-0.01"
       copies_to_360="true"
       mirror_copies="false"
       split_items="false" /></defs><sodipodi:namedview
     id="base"
     pagecolor="#ffffff"
     bordercolor="#666666"
     borderopacity="1.0"
     inkscape:pageopacity="0.0"
     inkscape:pageshadow="2"
     inkscape:zoom="2.8284271"
     inkscape:cx="39.244427"
     inkscape:cy="25.809398"
     inkscape:document-units="mm"
     inkscape:current-layer="layer3"
     showgrid="false"
     inkscape:window-width="1920"
     inkscape:window-height="1043"
     inkscape:window-x="0"
     inkscape:window-y="0"
     inkscape:window-maximized="1"
     inkscape:snap-global="false"
     showguides="true"
     inkscape:pagecheckerboard="0"
     inkscape:guide-bbox="true"
     inkscape:showpageshadow="2"
     inkscape:deskcolor="#d1d1d1" /><metadata
     id="metadata5"><rdf:RDF><cc:Work
         rdf:about=""><dc:format>image/svg+xml</dc:format><dc:type
           rdf:resource="http://purl.org/dc/dcmitype/StillImage" /></cc:Work></rdf:RDF></metadata><g
     inkscape:groupmode="layer"
     id="layer3"
     inkscape:label="Capa 2"
     style="display:inline"><path
       d="m 19.1937,37.038112 c 0.0605,-0.09789 -0.03425,-0.451054 -0.166148,-0.6193 -0.06459,-0.08238 -0.117428,-0.226051 -0.117428,-0.319266 0,-0.09322 -0.01926,-0.188743 -0.0428,-0.212284 -0.02354,-0.02354 -0.04968,-0.152654 -0.05809,-0.286915 -0.01257,-0.200717 0.01712,-0.27299 0.167031,-0.406561 0.281549,-0.250862 0.285769,-0.395206 0.03435,-1.175142 -0.247573,-0.768009 -0.294474,-1.280204 -0.12835,-1.401677 0.2299,-0.168106 0.239157,-1.218407 0.01207,-1.368719 -0.05944,-0.03934 -0.05181,-0.06758 0.0315,-0.11668 0.150828,-0.08889 0.139429,-0.14616 -0.07851,-0.394377 -0.243197,-0.276986 -0.245432,-0.503587 -0.0069,-0.704258 l 0.181473,-0.152699 -0.08328,-0.3614 c -0.185598,-0.805447 -0.359471,-2.156356 -0.325607,-2.529808 0.04205,-0.463693 0.117244,-0.563673 0.423961,-0.563673 0.192701,0 0.273484,-0.04152 0.431955,-0.222008 0.107209,-0.122104 0.194926,-0.256772 0.194926,-0.29926 0,-0.04249 0.05653,-0.182718 0.125613,-0.31162 0.241254,-0.450128 0.112262,-0.862886 -0.269664,-0.862886 -0.100955,0 -0.191641,-0.04873 -0.232391,-0.124871 -0.03675,-0.06868 -0.143736,-0.143347 -0.237734,-0.165929 -0.192081,-0.04614 -0.656669,-0.267615 -0.70476,-0.335962 -0.01727,-0.02454 -0.158586,-0.08459 -0.314033,-0.133435 -0.274579,-0.08627 -0.282104,-0.0955 -0.264209,-0.323772 0.01043,-0.133043 -0.01,-0.234967 -0.04711,-0.234967 -0.03604,0 -0.06552,-0.120894 -0.06552,-0.268654 0,-0.30798 -0.117514,-0.507937 -0.377533,-0.642398 -0.459553,-0.237645 -1.067062,0.0071 -1.066977,0.429885 l 4.1e-5,0.198538 -0.392582,0.01022 c -0.660625,0.01719 -0.984939,0.08422 -1.056753,0.218402 -0.08123,0.151771 -0.01814,0.368044 0.107381,0.368044 0.06832,0 0.08262,0.03883 0.05204,0.141315 -0.07613,0.255082 -0.22372,0.432642 -0.415069,0.499345 -0.103539,0.0361 -0.212437,0.129234 -0.241995,0.206977 -0.03045,0.08009 -0.130585,0.160254 -0.231038,0.184965 -0.287207,0.07065 -0.452221,0.209041 -0.687127,0.576256 -0.166898,0.260903 -0.204454,0.366306 -0.152727,0.428632 0.04616,0.05562 0.04896,0.134303 0.0085,0.240566 -0.09382,0.246758 -0.01479,0.406942 0.268172,0.5435 0.422909,0.204105 0.863744,0.273169 1.309879,0.205211 0.284422,-0.04333 0.407793,-0.04025 0.441028,0.011 0.07419,0.114404 0.05577,0.509117 -0.07219,1.547104 -0.186732,1.514698 -0.195384,1.632968 -0.119475,1.632968 0.104603,0 0.01605,0.500038 -0.169159,0.955219 -0.08843,0.217315 -0.171357,0.479908 -0.184291,0.583539 -0.01294,0.103631 -0.0424,0.343865 -0.06548,0.533854 -0.0447,0.367937 0.03495,0.690908 0.170349,0.69082 0.05942,-4e-5 0.08214,0.174051 0.08812,0.675169 0.0044,0.371372 0.02864,0.795871 0.05382,0.94333 0.02999,0.17571 0.02046,0.298591 -0.02764,0.356556 -0.05774,0.06957 -0.03432,0.156891 0.109785,0.409197 0.116821,0.204546 0.17246,0.376872 0.153577,0.475656 -0.03958,0.207036 -0.759534,0.769942 -1.066265,0.833671 -0.176935,0.03676 -0.249881,0.09089 -0.294865,0.218799 -0.09876,0.280821 0.08154,0.37154 0.6553,0.329723 0.794063,-0.05787 1.579512,-0.148044 1.617114,-0.185646 0.01964,-0.01964 -0.01279,-0.269124 -0.07207,-0.554404 -0.05929,-0.285281 -0.113211,-0.685842 -0.119841,-0.890135 -0.01144,-0.35275 -0.0026,-0.376732 0.176366,-0.476526 0.143039,-0.07977 0.189361,-0.151166 0.192326,-0.296418 0.0021,-0.105234 0.05041,-0.237836 0.107243,-0.294671 0.0993,-0.0993 0.09642,-0.170987 -0.0179,-0.445136 -0.105113,-0.252071 -0.114642,-0.501877 -0.02304,-0.60397 0.0501,-0.05584 0.119597,-0.278544 0.154441,-0.494909 0.03485,-0.216365 0.113502,-0.491138 0.174793,-0.610607 l 0.111438,-0.217215 0.268714,0.586511 c 0.147793,0.322582 0.308222,0.792927 0.356509,1.045211 0.04829,0.252285 0.118785,0.516606 0.156663,0.587381 0.03788,0.07078 0.05365,0.186887 0.03504,0.258028 -0.0186,0.07114 -0.0017,0.188368 0.0376,0.260506 0.03928,0.07214 0.07585,0.185343 0.08126,0.251566 0.0054,0.06622 0.105488,0.205871 0.222397,0.31033 l 0.212562,0.189924 0.01866,0.723303 c 0.01026,0.397817 0.04116,0.738638 0.06867,0.757381 0.02751,0.01874 0.06826,0.08354 0.09057,0.143988 0.0329,0.08918 0.117229,0.109911 0.447059,0.109911 0.223578,0 0.4244,-0.02895 0.44627,-0.06434 z M 14.831853,25.122119 c 0.07819,-0.129538 0.193728,-0.339508 0.256744,-0.466599 0.06302,-0.127091 0.178476,-0.250933 0.256576,-0.275204 0.0781,-0.02427 0.298672,-0.153456 0.490163,-0.287078 0.19149,-0.133622 0.364988,-0.242949 0.38555,-0.242949 0.02056,0 0.0554,0.09605 0.07743,0.21345 0.02203,0.117399 0.09708,0.28596 0.166787,0.37458 0.117577,0.149474 0.119809,0.174541 0.03085,0.346575 -0.105272,0.203575 -0.34631,0.309169 -0.792958,0.34738 -0.153245,0.01311 -0.349284,0.05164 -0.435642,0.08562 -0.499711,0.196631 -0.59884,0.17483 -0.435496,-0.09578 z"
       style="fill:#000000;stroke-width:0.0628067"
       id="path47069" /><rect
       style="fill:#000000;stroke-width:0.512017;stroke-linecap:round;stroke-linejoin:round;stroke-dasharray:0.35046, 0.116821;stop-color:#000000"
       id="rect47340"
       width="9.3111515"
       height="2.4981074"
       x="41.436504"
       y="3.0639045"
       ry="0.64191431"
       transform="matrix(0.90533225,0.42470404,-0.42792606,0.90381375,0,0)" /><path
       id="rect47342"
       style="fill:#000000;stroke-width:0.799999;stroke-linecap:round;stroke-linejoin:round;stroke-dasharray:0.547574, 0.182525;stop-color:#000000"
       d="m 37.582322,24.342538 c -0.279312,-0.0048 -0.546741,0.154991 -0.667142,0.427364 l -0.605008,1.234374 c -0.12176,0.275448 -0.05716,0.584272 0.139527,0.787549 0.293703,-0.09379 0.600155,-0.141557 0.908472,-0.141593 1.135511,6.8e-5 2.172814,0.643877 2.676838,1.661397 0.233329,-0.03582 0.44382,-0.186275 0.546737,-0.419096 l 0.604999,-1.234378 c 0.160535,-0.363164 -0.0027,-0.784626 -0.36587,-0.945162 l -2.960542,-1.308447 c -0.09079,-0.04013 -0.184915,-0.0604 -0.278019,-0.06201 z"
       sodipodi:nodetypes="scccccccccs" /><path
       id="rect47374"
       style="fill:#000000;stroke-width:0.799999;stroke-linecap:round;stroke-linejoin:round;stroke-dasharray:0.547574, 0.182525;stop-color:#000000"
       d="m 34.437093,28.659401 c -0.397064,0 -0.716752,0.319687 -0.716752,0.716752 v 6.220292 c 0,0.397065 0.319688,0.716752 0.716752,0.716752 h 0.782382 V 33.27824 c 0,-0.69225 0.575372,-1.267623 1.267622,-1.267623 h 1.876888 c 0.692251,0 1.267623,0.575373 1.267623,1.267623 v 3.034957 h 0.566374 c 0.397065,0 0.716752,-0.319687 0.716752,-0.716752 v -6.220292 c 0,-0.397065 -0.319687,-0.716752 -0.716752,-0.716752 z m 2.050004,4.450891 c -0.101874,0 -0.165881,0.06607 -0.165881,0.167948 v 3.034957 h 2.210718 V 33.27824 c 0,-0.101879 -0.06607,-0.167948 -0.167949,-0.167948 z" /><g
       id="g50211"
       transform="translate(2.3978823,2.1003113)"><rect
         style="fill:#000000;stroke-width:0.799999;stroke-linecap:round;stroke-linejoin:round;stroke-dasharray:0.547574, 0.182525;stop-color:#000000"
         id="rect47376"
         width="3.3112373"
         height="4.8408141"
         x="24.999495"
         y="30.043673"
         ry="0.71672398" /><rect
         style="display:inline;fill:#000000;stroke-width:0.799999;stroke-linecap:round;stroke-linejoin:round;stroke-dasharray:0.547574, 0.182525;stop-color:#000000"
         id="rect47376-6"
         width="3.3112373"
         height="4.8398476"
         x="41.528767"
         y="30.043673"
         ry="0.71672398" /></g><path
       style="color:#000000;fill:#000000;stroke-width:1.1;stroke-linecap:round;stroke-linejoin:round;-inkscape-stroke:none"
       d="m 36.487184,32.56099 h 1.87779 c 0.397065,0 0.716724,0.319659 0.716724,0.716724 v 4.075234 c 0,0.397065 -0.319659,0.716724 -0.716724,0.716724 h -1.87779 c -0.397065,0 -0.716724,-0.319659 -0.716724,-0.716724 v -4.075234 c 0,-0.397065 0.319659,-0.716724 0.716724,-0.716724 z"
       id="path47805"
       sodipodi:nodetypes="sssssssss" /><circle
       style="fill:#000000;stroke:none;stroke-width:0.917338;stroke-linecap:round;stroke-linejoin:round;stroke-dasharray:none;stroke-dashoffset:0;stop-color:#000000"
       id="path47845"
       cx="37.317631"
       cy="29.600145"
       r="2.3459651" /><path
       style="fill:#000000;stroke-width:0.216054"
       d="m 52.438451,22.279588 -0.42296,0.80122 -2.107453,-1.055423 -2.107456,-1.055424 1.323158,-0.440108 c 1.278661,-0.425307 1.362371,-0.420931 2.489175,0.13023 0.64131,0.313684 1.184571,0.626123 1.207249,0.694311 0.02267,0.06818 -0.149093,0.484518 -0.381718,0.92519 z m 0.62262,3.874993 -0.682919,1.33823 -0.577422,-0.358349 c -0.317585,-0.197088 -0.612625,-0.453916 -0.655646,-0.57073 -0.09718,-0.263877 0.898604,-2.22635 1.170268,-2.306355 0.200027,-0.05887 1.355005,0.337608 1.402904,0.481617 0.01414,0.04254 -0.281579,0.679557 -0.657189,1.41558 z m -2.02134,-1.080598 -0.7276,1.430461 -7.209587,-3.612996 -7.209586,-3.612996 0.685994,-1.44361 0.685991,-1.443609 7.251191,3.626141 7.251187,3.626151 z m -1.472113,2.938302 -0.420558,0.796694 -1.220756,-0.597093 c -1.198923,-0.586437 -1.228686,-0.620994 -1.665128,-1.933114 l -0.44438,-1.336006 2.045601,1.015885 c 1.125087,0.558724 2.063638,1.070136 2.08569,1.136422 0.02205,0.0663 -0.149163,0.479044 -0.380464,0.917227 z M 36.010012,17.565456 35.2621,19.026415 34.028337,18.224599 c -1.329977,-0.864348 -2.794056,-2.211611 -2.966385,-2.729705 -0.204151,-0.613765 0.473794,-0.814214 1.952951,-0.577431 0.804137,0.128724 1.975281,0.448471 2.602543,0.710541 l 1.140476,0.476496 z"
       id="path50166"
       sodipodi:nodetypes="scccssssscsscsscccccccccscsscsssccsssscc" /><path
       id="rect50179"
       style="stroke-width:1.1;stroke-linecap:round;stroke-linejoin:round;stop-color:#000000"
       d="m 31.253638,33.717836 2.052336,-1.226345 v 3.044952 h -2.052336 z"
       sodipodi:nodetypes="ccccc" /><path
       id="rect50179-7"
       style="display:inline;stroke-width:1.1;stroke-linecap:round;stroke-linejoin:round;stop-color:#000000"
       d="m 43.41403,33.717836 -2.052336,-1.226345 v 3.044952 h 2.052336 z"
       sodipodi:nodetypes="ccccc" /></g></svg>
