<?xml version="1.0" encoding="UTF-8" standalone="no"?>
<!-- Created with Inkscape (http://www.inkscape.org/) -->

<svg
   width="60mm"
   height="42mm"
   viewBox="0 0 60 42"
   version="1.1"
   id="svg8"
   inkscape:version="1.2.2 (b0a8486541, 2022-12-01)"
   sodipodi:docname="Towed AC.svg"
   xml:space="preserve"
   xmlns:inkscape="http://www.inkscape.org/namespaces/inkscape"
   xmlns:sodipodi="http://sodipodi.sourceforge.net/DTD/sodipodi-0.dtd"
   xmlns="http://www.w3.org/2000/svg"
   xmlns:svg="http://www.w3.org/2000/svg"
   xmlns:rdf="http://www.w3.org/1999/02/22-rdf-syntax-ns#"
   xmlns:cc="http://creativecommons.org/ns#"
   xmlns:dc="http://purl.org/dc/elements/1.1/"><defs
     id="defs2"><inkscape:path-effect
       effect="copy_rotate"
       starting_point="62.825012,51.902842"
       origin="61.825012,51.902842"
       id="path-effect2032-9"
       is_visible="true"
       lpeversion="1"
       method="normal"
       num_copies="19"
       starting_angle="0"
       rotation_angle="18.947368"
       gap="-0.01"
       copies_to_360="true"
       mirror_copies="false"
       split_items="false" /><inkscape:path-effect
       effect="copy_rotate"
       starting_point="62.825012,52.034264"
       origin="61.825012,52.034264"
       id="path-effect1183-6"
       is_visible="true"
       lpeversion="1"
       method="normal"
       num_copies="19"
       starting_angle="0"
       rotation_angle="18.947368"
       gap="-0.01"
       copies_to_360="true"
       mirror_copies="false"
       split_items="false" /><inkscape:path-effect
       effect="copy_rotate"
       starting_point="64.010074,52.034264"
       origin="61.825012,52.034264"
       id="path-effect2800-4"
       is_visible="true"
       lpeversion="1"
       method="normal"
       num_copies="6"
       starting_angle="0"
       rotation_angle="60"
       gap="-0.01"
       copies_to_360="true"
       mirror_copies="false"
       split_items="false" /><inkscape:path-effect
       effect="copy_rotate"
       starting_point="62.825012,51.902842"
       origin="61.825012,51.902842"
       id="path-effect2032"
       is_visible="true"
       lpeversion="1"
       method="normal"
       num_copies="19"
       starting_angle="0"
       rotation_angle="18.947368"
       gap="-0.01"
       copies_to_360="true"
       mirror_copies="false"
       split_items="false" /><inkscape:path-effect
       effect="copy_rotate"
       starting_point="62.81794,52.034264"
       origin="61.825012,52.034264"
       id="path-effect1183"
       is_visible="true"
       lpeversion="1"
       method="normal"
       num_copies="19"
       starting_angle="0"
       rotation_angle="18.947368"
       gap="-0.01"
       copies_to_360="true"
       mirror_copies="false"
       split_items="false" /><inkscape:path-effect
       effect="copy_rotate"
       starting_point="64.010074,52.034264"
       origin="61.825012,52.034264"
       id="path-effect2800"
       is_visible="true"
       lpeversion="1"
       method="normal"
       num_copies="8"
       starting_angle="0"
       rotation_angle="45"
       gap="-0.01"
       copies_to_360="true"
       mirror_copies="false"
       split_items="false" /><inkscape:path-effect
       effect="copy_rotate"
       starting_point="62.825012,51.902842"
       origin="61.825012,51.902842"
       id="path-effect2032-8"
       is_visible="true"
       lpeversion="1"
       method="normal"
       num_copies="19"
       starting_angle="0"
       rotation_angle="18.947368"
       gap="-0.01"
       copies_to_360="true"
       mirror_copies="false"
       split_items="false" /><inkscape:path-effect
       effect="copy_rotate"
       starting_point="62.81794,52.034264"
       origin="61.825012,52.034264"
       id="path-effect1183-9"
       is_visible="true"
       lpeversion="1"
       method="normal"
       num_copies="19"
       starting_angle="0"
       rotation_angle="18.947368"
       gap="-0.01"
       copies_to_360="true"
       mirror_copies="false"
       split_items="false" /><inkscape:path-effect
       effect="copy_rotate"
       starting_point="64.010074,52.034264"
       origin="61.825012,52.034264"
       id="path-effect2800-6"
       is_visible="true"
       lpeversion="1"
       method="normal"
       num_copies="8"
       starting_angle="0"
       rotation_angle="45"
       gap="-0.01"
       copies_to_360="true"
       mirror_copies="false"
       split_items="false" /><inkscape:path-effect
       effect="copy_rotate"
       starting_point="62.825012,51.902842"
       origin="61.825012,51.902842"
       id="path-effect2032-4"
       is_visible="true"
       lpeversion="1"
       method="normal"
       num_copies="19"
       starting_angle="0"
       rotation_angle="18.947368"
       gap="-0.01"
       copies_to_360="true"
       mirror_copies="false"
       split_items="false" /><inkscape:path-effect
       effect="copy_rotate"
       starting_point="62.81794,52.034264"
       origin="61.825012,52.034264"
       id="path-effect1183-8"
       is_visible="true"
       lpeversion="1"
       method="normal"
       num_copies="19"
       starting_angle="0"
       rotation_angle="18.947368"
       gap="-0.01"
       copies_to_360="true"
       mirror_copies="false"
       split_items="false" /><inkscape:path-effect
       effect="copy_rotate"
       starting_point="64.010074,52.034264"
       origin="61.825012,52.034264"
       id="path-effect2800-8"
       is_visible="true"
       lpeversion="1"
       method="normal"
       num_copies="8"
       starting_angle="0"
       rotation_angle="45"
       gap="-0.01"
       copies_to_360="true"
       mirror_copies="false"
       split_items="false" /><inkscape:path-effect
       effect="copy_rotate"
       starting_point="171.81761,98.936495"
       origin="170.10836,98.936495"
       id="path-effect1421"
       is_visible="true"
       lpeversion="1"
       method="normal"
       num_copies="8"
       starting_angle="0"
       rotation_angle="45"
       gap="-0.01"
       copies_to_360="true"
       mirror_copies="false"
       split_items="false"
       lpesatellites=""
       link_styles="false" /></defs><sodipodi:namedview
     id="base"
     pagecolor="#ffffff"
     bordercolor="#666666"
     borderopacity="1.0"
     inkscape:pageopacity="0.0"
     inkscape:pageshadow="2"
     inkscape:zoom="2.0000001"
     inkscape:cx="159.75"
     inkscape:cy="87.499998"
     inkscape:document-units="mm"
     inkscape:current-layer="layer3"
     showgrid="false"
     inkscape:window-width="1539"
     inkscape:window-height="773"
     inkscape:window-x="2132"
     inkscape:window-y="1293"
     inkscape:window-maximized="0"
     inkscape:snap-global="false"
     showguides="true"
     inkscape:pagecheckerboard="0"
     inkscape:guide-bbox="true"
     inkscape:showpageshadow="2"
     inkscape:deskcolor="#d1d1d1" /><metadata
     id="metadata5"><rdf:RDF><cc:Work
         rdf:about=""><dc:format>image/svg+xml</dc:format><dc:type
           rdf:resource="http://purl.org/dc/dcmitype/StillImage" /></cc:Work></rdf:RDF></metadata><g
     inkscape:groupmode="layer"
     id="layer3"
     inkscape:label="Capa 2"
     style="display:inline"><path
       id="rect25774"
       style="fill:#000000;stroke-width:0.876297;stroke-linecap:round;stroke-linejoin:round;stop-color:#000000"
       d="m 39.365164,12.042676 c -0.02985,-6.45e-4 -0.05984,-5.04e-4 -0.08992,5.16e-4 -0.918744,0.03116 -1.952072,0.839682 -3.598746,2.499073 -0.893151,0.900047 -1.789191,1.698052 -2.420008,2.174544 l -8.006747,-3.238045 c -0.598473,-0.242061 -1.275159,0.0449 -1.51722,0.643371 l -2.043286,5.051888 c -0.242061,0.598473 0.0449,1.27516 0.643372,1.517221 l 6.095235,2.465482 -0.691947,1.831929 c -1.567779,4.152156 -1.576401,3.872632 0.124023,3.872633 l 1.503267,-10e-7 0.183452,-1.910477 c 0.02839,-0.295429 0.0767,-0.58834 0.142627,-0.876949 a 8.0491695,8.0491695 0 0 1 5.815149,-6.477641 l 0.06356,-0.157096 c 0.623922,-0.700659 1.334082,-1.652548 2.273763,-3.01532 1.426197,-2.068349 3.044764,-3.645195 2.854606,-3.800285 -0.4593,-0.374599 -0.883425,-0.571176 -1.331185,-0.580843 z m -0.26355,5.337659 c -0.307666,-0.0043 -0.611995,0.143026 -0.792199,0.414961 l -1.008725,1.521871 a 8.0491695,8.0491695 0 0 1 0.325045,-0.01705 8.0491695,8.0491695 0 0 1 7.299296,4.659147 l 0.997872,-1.505851 c 0.274597,-0.414377 0.15429,-0.957038 -0.269751,-1.216463 l -6.082832,-3.72122 c -0.145764,-0.08918 -0.307548,-0.133165 -0.468706,-0.135392 z m 6.483326,11.630814 c -0.200206,1.031605 -0.60048,2.014031 -1.178224,2.891813 -0.01886,0.209787 -0.0075,0.36066 0.04496,0.411344 0.104271,0.1008 4.338477,1.780542 6.923092,1.797307 l 3.867981,0 c 0.119545,7.76e-4 0.163472,-0.56556 0.217557,-1.283125 0.217893,-2.890807 -2.424404,-1.540215 -4.325317,-2.069642 -4.760586,-1.325875 -4.823905,-1.715305 -5.550048,-1.747697 z" /><circle
       style="fill:#000000;stroke:#000000;stroke-width:0.606746;stroke-linecap:butt;stroke-miterlimit:4;stroke-dasharray:2.42698, 0.606746;stroke-dashoffset:0.0606746;stop-color:#000000"
       id="path1677"
       cx="37.45211"
       cy="27.510973"
       r="7.0532408" /><circle
       style="fill:none;stroke:#ffffff;stroke-width:0.664239;stroke-linecap:round;stop-color:#000000"
       id="path1118"
       cx="37.45211"
       cy="27.510973"
       r="5.4516582" /><path
       id="path1295"
       d="m 38.051337,23.962463 c 0,0.329845 -0.267393,0.597238 -0.597238,0.597238 -0.329845,0 -0.597239,-0.267393 -0.597239,-0.597238 0,-0.329846 0.267394,-0.597238 0.597239,-0.597238 0.329845,0 0.597238,0.267392 0.597238,0.597238 z m -2.684685,0.615615 c 0.233235,0.233236 0.233235,0.611386 0,0.844622 -0.233238,0.233236 -0.611386,0.233236 -0.844621,0 -0.233239,-0.233236 -0.233239,-0.611386 0,-0.844622 0.233235,-0.233236 0.611383,-0.233236 0.844621,0 z m -1.463055,2.333665 c 0.329844,0 0.597238,0.267393 0.597238,0.597238 0,0.329846 -0.267394,0.597237 -0.597238,0.597237 -0.329845,0 -0.597239,-0.267391 -0.597239,-0.597237 0,-0.329845 0.267394,-0.597238 0.597239,-0.597238 z m 0.615614,2.684687 c 0.233238,-0.233239 0.611386,-0.233239 0.844625,0 0.233234,0.233235 0.233234,0.611386 0,0.844621 -0.233239,0.233235 -0.611387,0.233235 -0.844625,0 -0.233235,-0.233235 -0.233235,-0.611386 0,-0.844621 z m 2.333666,1.463052 c 0,-0.329845 0.267394,-0.597239 0.597239,-0.597239 0.329844,0 0.597238,0.267394 0.597238,0.597239 0,0.329844 -0.267394,0.597238 -0.597238,0.597238 -0.329845,0 -0.597239,-0.267394 -0.597239,-0.597238 z m 2.684685,-0.615615 c -0.233234,-0.233235 -0.233234,-0.611386 0,-0.844621 0.233239,-0.233238 0.611387,-0.233238 0.844622,0 0.233238,0.233235 0.233238,0.611386 0,0.844621 -0.233235,0.233235 -0.611383,0.233235 -0.844622,0 z m 1.463056,-2.333666 c -0.329845,0 -0.597239,-0.267391 -0.597239,-0.597237 0,-0.329845 0.267394,-0.597238 0.597239,-0.597238 0.329845,0 0.597238,0.267393 0.597238,0.597238 0,0.329846 -0.267393,0.597237 -0.597238,0.597237 z m -0.615615,-2.684684 c -0.233238,0.233236 -0.611386,0.233236 -0.844624,0 -0.233235,-0.233236 -0.233235,-0.611387 0,-0.844623 0.233238,-0.233235 0.611386,-0.233235 0.844624,0 0.233235,0.233236 0.233235,0.611387 0,0.844623 z"
       style="fill:#ffffff;stroke:none;stroke-width:0.581777;stroke-linecap:round;stop-color:#000000" /><path
       style="display:inline;fill:#000000;stroke-width:0.152055"
       d="m 23.041715,13.397664 c 0.0088,0.01034 -2.190667,5.215449 -2.279736,5.396434 -0.01682,0.03544 -0.07064,0.04796 -0.118019,0.02805 -5.827033,-2.47413 -6.445207,-2.758052 -12.2826464,-5.2077 C 7.9474628,13.440938 7.6167687,13.274567 7.6194792,13.241197 7.6245343,13.194626 9.4927342,8.7667218 9.82567,8.0045615 9.8639247,7.9171596 9.9189183,7.8485716 9.9478111,7.8510032 16.057258,10.410277 16.950517,10.795681 23.04172,13.397656 Z M 7.30709,7.6692533 C 8.2379072,8.0619684 9.1706349,8.4587879 9.1830379,8.4755959 9.1970265,8.493139 8.6181486,9.8552193 7.9797465,11.343964 7.8325393,11.687397 7.6957451,11.965565 7.6758771,11.963685 7.627296,11.957798 3.9794431,10.416446 3.960499,10.393478 3.9479061,10.376531 5.4041203,6.9309586 5.4382602,6.8979647 c 0.00776,-0.0066 0.9375194,0.3795331 1.8685125,0.7718011 z"
       id="path978-2"
       inkscape:connector-curvature="0"
       sodipodi:nodetypes="ccccccccccccccccc" /></g></svg>
