<?xml version="1.0" encoding="UTF-8" standalone="no"?>
<!-- Created with Inkscape (http://www.inkscape.org/) -->

<svg
   width="60mm"
   height="42mm"
   viewBox="0 0 60 42"
   version="1.1"
   id="svg8"
   inkscape:version="1.2.2 (b0a8486541, 2022-12-01)"
   sodipodi:docname="Towed Gauss.svg"
   xml:space="preserve"
   xmlns:inkscape="http://www.inkscape.org/namespaces/inkscape"
   xmlns:sodipodi="http://sodipodi.sourceforge.net/DTD/sodipodi-0.dtd"
   xmlns="http://www.w3.org/2000/svg"
   xmlns:svg="http://www.w3.org/2000/svg"
   xmlns:rdf="http://www.w3.org/1999/02/22-rdf-syntax-ns#"
   xmlns:cc="http://creativecommons.org/ns#"
   xmlns:dc="http://purl.org/dc/elements/1.1/"><defs
     id="defs2"><inkscape:path-effect
       effect="copy_rotate"
       starting_point="62.825012,51.902842"
       origin="61.825012,51.902842"
       id="path-effect2032-9"
       is_visible="true"
       lpeversion="1"
       method="normal"
       num_copies="19"
       starting_angle="0"
       rotation_angle="18.947368"
       gap="-0.01"
       copies_to_360="true"
       mirror_copies="false"
       split_items="false" /><inkscape:path-effect
       effect="copy_rotate"
       starting_point="62.825012,52.034264"
       origin="61.825012,52.034264"
       id="path-effect1183-6"
       is_visible="true"
       lpeversion="1"
       method="normal"
       num_copies="19"
       starting_angle="0"
       rotation_angle="18.947368"
       gap="-0.01"
       copies_to_360="true"
       mirror_copies="false"
       split_items="false" /><inkscape:path-effect
       effect="copy_rotate"
       starting_point="64.010074,52.034264"
       origin="61.825012,52.034264"
       id="path-effect2800-4"
       is_visible="true"
       lpeversion="1"
       method="normal"
       num_copies="6"
       starting_angle="0"
       rotation_angle="60"
       gap="-0.01"
       copies_to_360="true"
       mirror_copies="false"
       split_items="false" /><inkscape:path-effect
       effect="copy_rotate"
       starting_point="62.825012,51.902842"
       origin="61.825012,51.902842"
       id="path-effect2032"
       is_visible="true"
       lpeversion="1"
       method="normal"
       num_copies="19"
       starting_angle="0"
       rotation_angle="18.947368"
       gap="-0.01"
       copies_to_360="true"
       mirror_copies="false"
       split_items="false" /><inkscape:path-effect
       effect="copy_rotate"
       starting_point="62.81794,52.034264"
       origin="61.825012,52.034264"
       id="path-effect1183"
       is_visible="true"
       lpeversion="1"
       method="normal"
       num_copies="19"
       starting_angle="0"
       rotation_angle="18.947368"
       gap="-0.01"
       copies_to_360="true"
       mirror_copies="false"
       split_items="false" /><inkscape:path-effect
       effect="copy_rotate"
       starting_point="64.010074,52.034264"
       origin="61.825012,52.034264"
       id="path-effect2800"
       is_visible="true"
       lpeversion="1"
       method="normal"
       num_copies="8"
       starting_angle="0"
       rotation_angle="45"
       gap="-0.01"
       copies_to_360="true"
       mirror_copies="false"
       split_items="false" /><inkscape:path-effect
       effect="copy_rotate"
       starting_point="62.825012,51.902842"
       origin="61.825012,51.902842"
       id="path-effect2032-8"
       is_visible="true"
       lpeversion="1"
       method="normal"
       num_copies="19"
       starting_angle="0"
       rotation_angle="18.947368"
       gap="-0.01"
       copies_to_360="true"
       mirror_copies="false"
       split_items="false" /><inkscape:path-effect
       effect="copy_rotate"
       starting_point="62.81794,52.034264"
       origin="61.825012,52.034264"
       id="path-effect1183-9"
       is_visible="true"
       lpeversion="1"
       method="normal"
       num_copies="19"
       starting_angle="0"
       rotation_angle="18.947368"
       gap="-0.01"
       copies_to_360="true"
       mirror_copies="false"
       split_items="false" /><inkscape:path-effect
       effect="copy_rotate"
       starting_point="64.010074,52.034264"
       origin="61.825012,52.034264"
       id="path-effect2800-6"
       is_visible="true"
       lpeversion="1"
       method="normal"
       num_copies="8"
       starting_angle="0"
       rotation_angle="45"
       gap="-0.01"
       copies_to_360="true"
       mirror_copies="false"
       split_items="false" /><inkscape:path-effect
       effect="copy_rotate"
       starting_point="62.825012,51.902842"
       origin="61.825012,51.902842"
       id="path-effect2032-4"
       is_visible="true"
       lpeversion="1"
       method="normal"
       num_copies="19"
       starting_angle="0"
       rotation_angle="18.947368"
       gap="-0.01"
       copies_to_360="true"
       mirror_copies="false"
       split_items="false" /><inkscape:path-effect
       effect="copy_rotate"
       starting_point="62.81794,52.034264"
       origin="61.825012,52.034264"
       id="path-effect1183-8"
       is_visible="true"
       lpeversion="1"
       method="normal"
       num_copies="19"
       starting_angle="0"
       rotation_angle="18.947368"
       gap="-0.01"
       copies_to_360="true"
       mirror_copies="false"
       split_items="false" /><inkscape:path-effect
       effect="copy_rotate"
       starting_point="64.010074,52.034264"
       origin="61.825012,52.034264"
       id="path-effect2800-8"
       is_visible="true"
       lpeversion="1"
       method="normal"
       num_copies="8"
       starting_angle="0"
       rotation_angle="45"
       gap="-0.01"
       copies_to_360="true"
       mirror_copies="false"
       split_items="false" /><inkscape:path-effect
       effect="copy_rotate"
       starting_point="171.81761,98.936495"
       origin="170.10836,98.936495"
       id="path-effect1421"
       is_visible="true"
       lpeversion="1"
       method="normal"
       num_copies="8"
       starting_angle="0"
       rotation_angle="45"
       gap="-0.01"
       copies_to_360="true"
       mirror_copies="false"
       split_items="false"
       lpesatellites=""
       link_styles="false" /></defs><sodipodi:namedview
     id="base"
     pagecolor="#ffffff"
     bordercolor="#666666"
     borderopacity="1.0"
     inkscape:pageopacity="0.0"
     inkscape:pageshadow="2"
     inkscape:zoom="1.4142136"
     inkscape:cx="14.495689"
     inkscape:cy="62.225395"
     inkscape:document-units="mm"
     inkscape:current-layer="layer3"
     showgrid="false"
     inkscape:window-width="1539"
     inkscape:window-height="773"
     inkscape:window-x="2369"
     inkscape:window-y="1222"
     inkscape:window-maximized="0"
     inkscape:snap-global="false"
     showguides="true"
     inkscape:pagecheckerboard="0"
     inkscape:guide-bbox="true"
     inkscape:showpageshadow="2"
     inkscape:deskcolor="#d1d1d1" /><metadata
     id="metadata5"><rdf:RDF><cc:Work
         rdf:about=""><dc:format>image/svg+xml</dc:format><dc:type
           rdf:resource="http://purl.org/dc/dcmitype/StillImage" /></cc:Work></rdf:RDF></metadata><g
     inkscape:groupmode="layer"
     id="layer3"
     inkscape:label="Capa 2"
     style="display:inline"><path
       id="rect25774"
       style="fill:#000000;stroke-width:0.876297;stroke-linecap:round;stroke-linejoin:round;stop-color:#000000"
       d="m 39.365164,12.042676 c -0.02985,-6.45e-4 -0.05984,-5.04e-4 -0.08992,5.16e-4 -0.918744,0.03116 -1.952072,0.839682 -3.598746,2.499073 -0.893151,0.900047 -1.789191,1.698052 -2.420008,2.174544 l -8.006747,-3.238045 c -0.598473,-0.242061 -1.275159,0.0449 -1.51722,0.643371 l -2.043286,5.051888 c -0.242061,0.598473 0.0449,1.27516 0.643372,1.517221 l 6.095235,2.465482 -0.691947,1.831929 c -1.567779,4.152156 -1.576401,3.872632 0.124023,3.872633 l 1.503267,-10e-7 0.183452,-1.910477 c 0.02839,-0.295429 0.0767,-0.58834 0.142627,-0.876949 a 8.0491695,8.0491695 0 0 1 5.815149,-6.477641 l 0.06356,-0.157096 c 0.623922,-0.700659 1.334082,-1.652548 2.273763,-3.01532 1.426197,-2.068349 3.044764,-3.645195 2.854606,-3.800285 -0.4593,-0.374599 -0.883425,-0.571176 -1.331185,-0.580843 z m -0.26355,5.337659 c -0.307666,-0.0043 -0.611995,0.143026 -0.792199,0.414961 l -1.008725,1.521871 a 8.0491695,8.0491695 0 0 1 0.325045,-0.01705 8.0491695,8.0491695 0 0 1 7.299296,4.659147 l 0.997872,-1.505851 c 0.274597,-0.414377 0.15429,-0.957038 -0.269751,-1.216463 l -6.082832,-3.72122 c -0.145764,-0.08918 -0.307548,-0.133165 -0.468706,-0.135392 z m 6.483326,11.630814 c -0.200206,1.031605 -0.60048,2.014031 -1.178224,2.891813 -0.01886,0.209787 -0.0075,0.36066 0.04496,0.411344 0.104271,0.1008 4.338477,1.780542 6.923092,1.797307 l 3.867981,0 c 0.119545,7.76e-4 0.163472,-0.56556 0.217557,-1.283125 0.217893,-2.890807 -2.424404,-1.540215 -4.325317,-2.069642 -4.760586,-1.325875 -4.823905,-1.715305 -5.550048,-1.747697 z" /><g
       id="g984"
       transform="matrix(-0.91630689,-0.40047681,-0.40047681,0.91630689,33.411875,-18.016085)"
       style="display:inline"><path
         sodipodi:nodetypes="cccccscssscsccscccscccccccccccccccccccccccccsccc"
         inkscape:connector-curvature="0"
         id="path948-2"
         d="m -4.8160185,32.320672 -0.037926,1.207622 c -1.3364287,-0.261722 -3.5431115,-0.08147 -4.1715092,0.365907 -0.194907,0.120977 -0.367799,0.273361 -0.515458,0.457276 -0.02821,-0.574479 -0.136984,-0.534303 -0.5581273,-0.277555 -0.470463,0.286849 -0.51632,0.185913 -0.51632,2.288964 v 1.88039 h 0.9826463 c 1.0142624,0 1.3537257,0.09523 1.3537257,0.380129 0,0.08891 0.1092367,0.120676 0.4171941,0.120676 h 0.4171942 v -0.546489 c 0,-0.102191 0.00245,-0.180773 0.00646,-0.252989 0.1979357,0.02333 0.8399483,0.02786 1.5321537,0.01551 0.028988,0.128896 0.046977,0.266291 0.046977,0.405558 v 0.378406 h 0.5008047 0.5003747 v 0.316773 c 0,0.174183 0.04545,0.361891 0.10042,0.417195 0.112625,0.112674 0.6369991,0.133088 0.7977533,0.03103 0.0541,-0.0343 0.078022,-0.504051 0.084905,-1.668344 0.022044,-0.0037 0.056188,-0.0065 0.075423,-0.01034 -0.00587,-0.05849 -0.01057,-1.038368 -0.010349,-2.17777 2.141e-4,-1.139403 -0.00907,-2.085631 -0.020676,-2.102778 -8.841e-4,-0.0015 -0.044852,-0.0025 -0.059045,-0.0039 l -0.00863,-1.225292 h -0.4589999 z m 17.7640145,1.925694 c -0.547952,7.28e-4 -1.100986,0.0099 -1.13263,0.02672 -0.03781,0.02016 -0.0844,2.164236 -0.05129,2.429523 0.0046,0.03701 0.05421,0.0658 0.110333,0.06422 0.05612,-0.0018 0.567688,-0.0033 1.136939,-0.0039 0.56925,-5.53e-4 2.18829,-0.0078 2.200857,-0.01638 0.02634,-0.01784 0.0073,-2.437085 -0.0194,-2.4765 -0.01139,-0.0168 -2.244818,-0.0237 -2.244818,-0.0237 z m -2.784135,0.344307 c -1.8354065,0.0024 -13.7861076,0.025 -13.8106234,0.03921 -0.013946,0.0081 -0.024514,0.440101 -0.023704,0.960237 l 0.00133,0.946013 1.8834157,4.41e-4 c 0.2041743,2.43e-4 1.67685666,-0.0058 3.2729038,-0.01336 2.4843017,-0.01161 9.9397819,-0.02696 9.9550869,-0.106453 0.02054,-0.106837 0.02255,-1.799655 0.0022,-1.820914 -0.0045,-0.0047 -0.668725,-0.006 -1.280526,-0.0052 z"
         style="fill:#000000;stroke-width:0.0550156" /><g
         transform="translate(-0.01181176,0.07087054)"
         id="g973"><path
           style="opacity:1;vector-effect:none;fill:#000000;fill-opacity:1;stroke:#000000;stroke-width:0.302121;stroke-linecap:butt;stroke-linejoin:miter;stroke-miterlimit:4;stroke-dasharray:none;stroke-dashoffset:0;stroke-opacity:1"
           d="m -1.0495802,32.945638 c 0.12708021,-0.639867 0.93108681,-0.542523 0.99920056,0 v 4.996003 c -0.0757009,0.580373 -0.83518195,0.643458 -0.99920056,0 0,0 -0.088318,-5.109554 0,-4.996003 z"
           id="rect909-93"
           inkscape:connector-curvature="0"
           sodipodi:nodetypes="ccccc" /><path
           style="opacity:1;vector-effect:none;fill:#000000;fill-opacity:1;stroke:#000000;stroke-width:0.302121;stroke-linecap:butt;stroke-linejoin:miter;stroke-miterlimit:4;stroke-dasharray:none;stroke-dashoffset:0;stroke-opacity:1"
           d="m 1.1095812,32.945638 c 0.12708,-0.639867 0.931087,-0.542523 0.9992,0 v 4.996003 c -0.0757,0.580373 -0.835182,0.643457 -0.9992,0 0,0 -0.08832,-5.109554 0,-4.996003 z"
           id="rect909-5"
           inkscape:connector-curvature="0"
           sodipodi:nodetypes="ccccc" /><path
           style="opacity:1;vector-effect:none;fill:#000000;fill-opacity:1;stroke:#000000;stroke-width:0.302121;stroke-linecap:butt;stroke-linejoin:miter;stroke-miterlimit:4;stroke-dasharray:none;stroke-dashoffset:0;stroke-opacity:1"
           d="m 3.268741,32.945638 c 0.12708,-0.639867 0.931087,-0.542523 0.9992,0 v 4.996003 c -0.0757,0.580373 -0.835182,0.643457 -0.9992,0 0,0 -0.08832,-5.109554 0,-4.996003 z"
           id="rect909-6"
           inkscape:connector-curvature="0"
           sodipodi:nodetypes="ccccc" /><path
           style="opacity:1;vector-effect:none;fill:#000000;fill-opacity:1;stroke:#000000;stroke-width:0.302121;stroke-linecap:butt;stroke-linejoin:miter;stroke-miterlimit:4;stroke-dasharray:none;stroke-dashoffset:0;stroke-opacity:1"
           d="m 5.4279002,33.02916 c 0.12708,-0.639867 0.931087,-0.542523 0.9992,0 v 4.745438 c -0.0757,0.580373 -0.835182,0.643457 -0.9992,0 0,0 -0.08832,-4.858989 0,-4.745438 z"
           id="rect909-2"
           inkscape:connector-curvature="0"
           sodipodi:nodetypes="ccccc" /><path
           style="opacity:1;vector-effect:none;fill:#000000;fill-opacity:1;stroke:#000000;stroke-width:0.302121;stroke-linecap:butt;stroke-linejoin:miter;stroke-miterlimit:4;stroke-dasharray:none;stroke-dashoffset:0;stroke-opacity:1"
           d="m 7.5870588,33.079273 c 0.12708,-0.639867 0.9310875,-0.542523 0.9992005,0 v 4.661916 c -0.0757,0.580373 -0.8351825,0.643457 -0.9992005,0 0,0 -0.08832,-4.775467 0,-4.661916 z"
           id="rect909-9"
           inkscape:connector-curvature="0"
           sodipodi:nodetypes="ccccc" /><path
           style="opacity:1;vector-effect:none;fill:#000000;fill-opacity:1;stroke:#000000;stroke-width:0.302121;stroke-linecap:butt;stroke-linejoin:miter;stroke-miterlimit:4;stroke-dasharray:none;stroke-dashoffset:0;stroke-opacity:1"
           d="m 9.7462246,33.474805 c 0.12708,-0.639867 0.9310874,-0.542523 0.9992004,0 v 3.937669 c -0.0757,0.580373 -0.8351824,0.643457 -0.9992004,0 0,0 -0.08832,-4.05122 0,-3.937669 z"
           id="rect909-1"
           inkscape:connector-curvature="0"
           sodipodi:nodetypes="ccccc" /><path
           style="opacity:1;vector-effect:none;fill:#000000;fill-opacity:1;stroke:#000000;stroke-width:0.302121;stroke-linecap:butt;stroke-linejoin:miter;stroke-miterlimit:4;stroke-dasharray:none;stroke-dashoffset:0;stroke-opacity:1"
           d="m -3.2087395,32.945638 c 0.12708,-0.639867 0.9310869,-0.542523 0.9991999,0 v 4.996003 c -0.0757,0.580373 -0.8351819,0.643457 -0.9991999,0 0,0 -0.08832,-5.109554 0,-4.996003 z"
           id="rect909-27"
           inkscape:connector-curvature="0"
           sodipodi:nodetypes="ccccc" /></g></g><circle
       style="fill:#000000;stroke:#000000;stroke-width:0.606746;stroke-linecap:butt;stroke-miterlimit:4;stroke-dasharray:2.42698, 0.606746;stroke-dashoffset:0.0606746;stop-color:#000000"
       id="path1677"
       cx="37.45211"
       cy="27.510973"
       r="7.0532408" /><circle
       style="fill:none;stroke:#ffffff;stroke-width:0.664239;stroke-linecap:round;stop-color:#000000"
       id="path1118"
       cx="37.45211"
       cy="27.510973"
       r="5.4516582" /><path
       id="path1295"
       d="m 38.051337,23.962463 c 0,0.329845 -0.267393,0.597238 -0.597238,0.597238 -0.329845,0 -0.597239,-0.267393 -0.597239,-0.597238 0,-0.329846 0.267394,-0.597238 0.597239,-0.597238 0.329845,0 0.597238,0.267392 0.597238,0.597238 z m -2.684685,0.615615 c 0.233235,0.233236 0.233235,0.611386 0,0.844622 -0.233238,0.233236 -0.611386,0.233236 -0.844621,0 -0.233239,-0.233236 -0.233239,-0.611386 0,-0.844622 0.233235,-0.233236 0.611383,-0.233236 0.844621,0 z m -1.463055,2.333665 c 0.329844,0 0.597238,0.267393 0.597238,0.597238 0,0.329846 -0.267394,0.597237 -0.597238,0.597237 -0.329845,0 -0.597239,-0.267391 -0.597239,-0.597237 0,-0.329845 0.267394,-0.597238 0.597239,-0.597238 z m 0.615614,2.684687 c 0.233238,-0.233239 0.611386,-0.233239 0.844625,0 0.233234,0.233235 0.233234,0.611386 0,0.844621 -0.233239,0.233235 -0.611387,0.233235 -0.844625,0 -0.233235,-0.233235 -0.233235,-0.611386 0,-0.844621 z m 2.333666,1.463052 c 0,-0.329845 0.267394,-0.597239 0.597239,-0.597239 0.329844,0 0.597238,0.267394 0.597238,0.597239 0,0.329844 -0.267394,0.597238 -0.597238,0.597238 -0.329845,0 -0.597239,-0.267394 -0.597239,-0.597238 z m 2.684685,-0.615615 c -0.233234,-0.233235 -0.233234,-0.611386 0,-0.844621 0.233239,-0.233238 0.611387,-0.233238 0.844622,0 0.233238,0.233235 0.233238,0.611386 0,0.844621 -0.233235,0.233235 -0.611383,0.233235 -0.844622,0 z m 1.463056,-2.333666 c -0.329845,0 -0.597239,-0.267391 -0.597239,-0.597237 0,-0.329845 0.267394,-0.597238 0.597239,-0.597238 0.329845,0 0.597238,0.267393 0.597238,0.597238 0,0.329846 -0.267393,0.597237 -0.597238,0.597237 z m -0.615615,-2.684684 c -0.233238,0.233236 -0.611386,0.233236 -0.844624,0 -0.233235,-0.233236 -0.233235,-0.611387 0,-0.844623 0.233238,-0.233235 0.611386,-0.233235 0.844624,0 0.233235,0.233236 0.233235,0.611387 0,0.844623 z"
       style="fill:#ffffff;stroke:none;stroke-width:0.581777;stroke-linecap:round;stop-color:#000000" /></g></svg>
