<?xml version="1.0" encoding="UTF-8" standalone="no"?>
<!-- Created with Inkscape (http://www.inkscape.org/) -->

<svg
   xmlns:dc="http://purl.org/dc/elements/1.1/"
   xmlns:cc="http://creativecommons.org/ns#"
   xmlns:rdf="http://www.w3.org/1999/02/22-rdf-syntax-ns#"
   xmlns:svg="http://www.w3.org/2000/svg"
   xmlns="http://www.w3.org/2000/svg"
   xmlns:sodipodi="http://sodipodi.sourceforge.net/DTD/sodipodi-0.dtd"
   xmlns:inkscape="http://www.inkscape.org/namespaces/inkscape"
   sodipodi:docname="Avalanche.svg"
   inkscape:version="0.92.5 (2060ec1f9f, 2020-04-08)"
   id="svg8"
   version="1.1"
   viewBox="0 0 34.98301 52.516205"
   height="52.516205mm"
   width="34.983009mm">
  <defs
     id="defs2" />
  <sodipodi:namedview
     id="base"
     pagecolor="#ffffff"
     bordercolor="#666666"
     borderopacity="1.0"
     inkscape:pageopacity="0.0"
     inkscape:pageshadow="2"
     inkscape:zoom="1.9999999"
     inkscape:cx="27.890837"
     inkscape:cy="29.982411"
     inkscape:document-units="mm"
     inkscape:current-layer="layer1"
     showgrid="false"
     inkscape:window-width="1920"
     inkscape:window-height="1043"
     inkscape:window-x="1920"
     inkscape:window-y="1080"
     inkscape:window-maximized="1"
     inkscape:snap-global="false"
     fit-margin-top="0"
     fit-margin-left="0"
     fit-margin-right="0"
     fit-margin-bottom="0"
     showguides="false"
     inkscape:guide-bbox="true" />
  <metadata
     id="metadata5">
    <rdf:RDF>
      <cc:Work
         rdf:about="">
        <dc:format>image/svg+xml</dc:format>
        <dc:type
           rdf:resource="http://purl.org/dc/dcmitype/StillImage" />
        <dc:title></dc:title>
      </cc:Work>
    </rdf:RDF>
  </metadata>
  <g
     inkscape:label="Capa 1"
     inkscape:groupmode="layer"
     id="layer1"
     transform="translate(-135.48963,-99.590537)">
    <rect
       style="opacity:1;vector-effect:none;fill:#1a1a1a;fill-opacity:1;stroke:none;stroke-width:0.1;stroke-linecap:butt;stroke-linejoin:miter;stroke-miterlimit:4;stroke-dasharray:none;stroke-dashoffset:0;stroke-opacity:1"
       id="rect860"
       width="7.0941477"
       height="0"
       x="148.86763"
       y="129.31949" />
    <g
       id="g840"
       transform="translate(-1.5915506,2.1166668)">
      <path
         inkscape:connector-curvature="0"
         id="rect852"
         d="m 154.58428,116.27514 c -0.64526,-0.007 -1.31063,0.0372 -1.48367,0.15172 -0.0266,0.0148 -0.0349,0.0889 -0.0366,0.17792 h -0.16634 -6.1e-4 c -0.0341,0.0634 0.0293,1.19303 0.0293,1.19303 0.16573,-0.0781 3.17226,-0.0279 3.26529,0.0341 0,0 -5e-5,-1.18812 -0.0488,-1.22715 h -0.17365 c -0.001,-0.0851 -0.006,-0.15653 -0.0219,-0.17792 -0.0926,-0.0877 -0.71777,-0.14501 -1.36303,-0.15172 z m -1.08945,1.57812 c -0.30423,0.002 -0.51486,0.0103 -0.53802,0.0274 -0.006,0.0157 -0.0111,0.13444 -0.0164,0.22971 -0.122,0.0803 -0.19549,0.2165 -0.19559,0.36254 3.5e-4,0.13547 0.0639,0.26301 0.17183,0.34487 -0.0434,1.87597 -0.0571,5.98489 0.0402,6.04984 0.1103,0.17922 3.24002,0.16542 3.33658,0.0688 0.0987,-0.10967 0.0233,-4.35945 -0.0396,-6.17474 0.1124,-0.0816 0.17898,-0.21206 0.17913,-0.35097 -2.4e-4,-0.15355 -0.0815,-0.29557 -0.21386,-0.3735 -0.003,-0.0293 -0.006,-0.10977 -0.009,-0.11516 -0.0494,-0.0283 -1.80299,-0.0757 -2.7157,-0.0688 z m 0.14563,1.87119 0.2815,0.38203 h 0.30831 0.35827 0.35889 0.30831 l 0.2815,-0.38203 v 1.55434 l -0.58981,0.90239 v 1.37217 h -0.71716 v -1.34901 h -0.005 l -0.58433,-0.92555 z m -0.1109,2.76565 c 0.0508,0.003 0.0975,0.0239 0.11821,0.0567 v 1.36546 l -0.25956,-0.33817 v -1.02729 c 0.0362,-0.0431 0.0906,-0.0593 0.14135,-0.0567 z m 2.11857,0 c 0.0508,-0.003 0.10517,0.0136 0.14136,0.0567 v 1.02729 l -0.25956,0.33817 v -1.36546 c 0.0207,-0.0327 0.0674,-0.0541 0.1182,-0.0567 z"
         style="opacity:1;vector-effect:none;fill:#000000;fill-opacity:1;fill-rule:nonzero;stroke:none;stroke-width:0.31194228;stroke-linecap:round;stroke-linejoin:miter;stroke-miterlimit:4;stroke-dasharray:none;stroke-dashoffset:0;stroke-opacity:1" />
      <path
         sodipodi:nodetypes="cccccccccccccccccccccsssssssssssssssscscssssss"
         inkscape:connector-curvature="0"
         id="rect921-5"
         d="m 152.12023,117.3585 c -0.11696,0.0194 -0.0877,0.18949 -0.0877,0.18949 h -0.57458 v 1.47697 h 0.98343 v -1.66646 z m 0.38082,0 v 1.72434 h -1.10102 v -1.53485 h -0.15599 c -0.16544,0.15166 -0.17923,7.18985 0,7.30014 0.10341,0.0896 1.40642,0.0896 1.59944,0 -0.0759,-0.11649 -0.0592,-3.92218 -0.0311,-5.97062 -0.13945,-0.0884 -0.20454,-0.23462 -0.20473,-0.39971 3.4e-4,-0.17281 0.0736,-0.32493 0.22362,-0.41068 0.005,-0.13651 0.008,-0.47268 0.0122,-0.4783 l -0.0317,-0.0408 v -0.18949 z m -0.52218,2.01803 c 0.22345,0 0.40458,0.18114 0.40458,0.40458 0,0.22345 -0.18113,0.40458 -0.40458,0.40458 -0.22344,0 -0.40458,-0.18113 -0.40458,-0.40458 0,-0.22344 0.18114,-0.40458 0.40458,-0.40458 z m 0,1.08335 c 0.22345,0 0.40458,0.18114 0.40458,0.40458 0,0.22345 -0.18113,0.40459 -0.40458,0.40459 -0.22344,0 -0.40458,-0.18114 -0.40458,-0.40459 0,-0.22344 0.18114,-0.40458 0.40458,-0.40458 z m 0,1.08335 c 0.22345,0 0.40458,0.18114 0.40458,0.40459 0,0.22344 -0.18113,0.40458 -0.40458,0.40458 -0.22344,0 -0.40458,-0.18114 -0.40458,-0.40458 0,-0.22345 0.18114,-0.40459 0.40458,-0.40459 z m 0,1.08336 c 0.22345,0 0.40458,0.18113 0.40458,0.40458 0,0.22344 -0.18113,0.40458 -0.40458,0.40458 -0.22344,0 -0.40458,-0.18114 -0.40458,-0.40458 0,-0.22345 0.18114,-0.40458 0.40458,-0.40458 z m 0,1.08335 c 0.22345,0 0.40458,0.18114 0.40458,0.40458 0,0.22344 -0.18113,0.40458 -0.40458,0.40458 -0.22344,0 -0.40458,-0.18114 -0.40458,-0.40458 0,-0.22344 0.18114,-0.40458 0.40458,-0.40458 z"
         style="opacity:1;vector-effect:none;fill:#000000;fill-opacity:1;fill-rule:nonzero;stroke:none;stroke-width:0.22284724;stroke-linecap:round;stroke-linejoin:miter;stroke-miterlimit:4;stroke-dasharray:none;stroke-dashoffset:0;stroke-opacity:1" />
      <path
         sodipodi:nodetypes="ccccccccccccccsssssssssssssssssssssssss"
         inkscape:connector-curvature="0"
         id="rect1052"
         d="m 149.61536,118.57041 c -0.14623,0.13649 -0.0487,6.39292 0,6.41238 0.1103,0.0689 1.39569,0.11029 1.4922,0 -0.15842,-0.3668 -0.12181,-6.29052 -0.0585,-6.41238 h -0.21996 v 0.80003 h -0.78053 v -0.80003 z m 0.49293,0 v 0.74275 h 0.6611 v -0.74275 z m 0.21448,1.03705 c 0.22344,0 0.40458,0.18114 0.40458,0.40458 0,0.22344 -0.18114,0.40458 -0.40458,0.40458 -0.22345,0 -0.40458,-0.18114 -0.40458,-0.40458 0,-0.22344 0.18113,-0.40458 0.40458,-0.40458 z m 0,1.08335 c 0.22344,0 0.40458,0.18114 0.40458,0.40458 0,0.22345 -0.18114,0.40458 -0.40458,0.40458 -0.22345,0 -0.40458,-0.18113 -0.40458,-0.40458 0,-0.22344 0.18113,-0.40458 0.40458,-0.40458 z m 0,1.08335 c 0.22344,0 0.40458,0.18114 0.40458,0.40458 0,0.22345 -0.18114,0.40459 -0.40458,0.40459 -0.22345,0 -0.40458,-0.18114 -0.40458,-0.40459 0,-0.22344 0.18113,-0.40458 0.40458,-0.40458 z m 0,1.08336 c 0.22344,0 0.40458,0.18113 0.40458,0.40458 0,0.22344 -0.18114,0.40458 -0.40458,0.40458 -0.22345,0 -0.40458,-0.18114 -0.40458,-0.40458 0,-0.22345 0.18114,-0.40458 0.40458,-0.40458 z m 0,1.08335 c 0.22344,0 0.40458,0.18114 0.40458,0.40458 0,0.22344 -0.18114,0.40458 -0.40458,0.40458 -0.22345,0 -0.40458,-0.18114 -0.40458,-0.40458 0,-0.22344 0.18114,-0.40458 0.40458,-0.40458 z"
         style="opacity:1;vector-effect:none;fill:#000000;fill-opacity:1;fill-rule:nonzero;stroke:none;stroke-width:0.06317758;stroke-linecap:round;stroke-linejoin:miter;stroke-miterlimit:4;stroke-dasharray:none;stroke-dashoffset:0;stroke-opacity:1" />
      <path
         sodipodi:nodetypes="ccccccccccc"
         inkscape:connector-curvature="0"
         id="rect1173"
         d="m 152.02762,127.34508 v 2.71569 c 0.0292,0.0877 0.4516,0.33049 0.49547,0.34024 0.0488,0.039 1.12346,0.0536 1.12346,0.0536 v 0.19595 c 0.15166,0.12409 1.17489,0.0689 1.25762,0 v -0.19595 c 0,0 1.06511,-0.005 1.17722,-0.0536 0.0829,-0.0439 0.42161,-0.27687 0.4411,-0.34024 v -2.71569 c -0.22457,0.0496 -4.17365,0.0423 -4.49487,0 z"
         style="opacity:1;vector-effect:none;fill:#000000;fill-opacity:1;fill-rule:nonzero;stroke:none;stroke-width:0.17686288;stroke-linecap:round;stroke-linejoin:miter;stroke-miterlimit:4;stroke-dasharray:none;stroke-dashoffset:0;stroke-opacity:1" />
      <path
         inkscape:connector-curvature="0"
         id="rect1187-6"
         d="m 150.13449,126.42868 c -0.61618,0.0106 -1.23979,0.17222 -1.63173,0.55813 l 0.007,0.42712 h -0.25591 c -0.17233,0.1172 -0.19991,1.72346 0,1.90958 h 0.28882 l 0.004,0.21387 h -0.0786 v 1.81939 h 0.10968 l 0.008,0.44846 c 0.17923,0.15858 2.90188,0.17936 3.21898,0.0622 l 0.007,-0.23459 h 0.0756 v -1.68901 h -0.0207 l 0.0829,-2.59322 c -0.24775,-0.0177 -0.49351,-0.0902 -0.72386,-0.17548 -0.0935,-0.0935 -0.0938,-0.41036 -0.0969,-0.66536 -0.32217,-0.096 -0.60445,-0.0874 -0.99318,-0.081 z m 0.0506,0.67511 c 0.22179,-8e-5 0.40162,0.17975 0.40154,0.40154 8e-5,0.22179 -0.17974,0.40162 -0.40154,0.40153 -0.22156,-2.5e-4 -0.401,-0.17997 -0.40092,-0.40153 -8e-5,-0.22156 0.17936,-0.40129 0.40092,-0.40154 z m 0,1.1583 c 0.22179,-8e-5 0.40162,0.17975 0.40154,0.40154 8e-5,0.22179 -0.17974,0.40161 -0.40154,0.40153 -0.22156,-2.5e-4 -0.401,-0.17997 -0.40092,-0.40153 -8e-5,-0.22157 0.17936,-0.40129 0.40092,-0.40154 z m 0,1.1583 c 0.2218,-9e-5 0.40162,0.17973 0.40154,0.40153 -2.5e-4,0.22155 -0.17998,0.40101 -0.40154,0.40093 -0.22132,-2.5e-4 -0.40067,-0.1796 -0.40092,-0.40093 -8e-5,-0.22156 0.17936,-0.40129 0.40092,-0.40153 z m -1.6299,2.52559 c -0.0705,0.0881 -0.16361,0.58709 -0.0975,0.77077 0.4196,-0.18931 1.09788,-0.25468 1.72739,-0.2358 0.68933,0.0206 1.31196,0.14163 1.47149,0.30648 h 0.23641 c 0.0482,-0.0552 0.0438,-0.71939 -0.039,-0.83658 -0.31197,0.14624 -2.94784,0.11681 -3.2988,-0.005 z m 3.44382,0.37472 v 0.71655 c 0.0478,0.0614 0.13329,0.28102 0.18584,0.56788 l 0.27602,-0.0232 c 0.15167,-0.0828 0.19292,-1.1167 0.0274,-1.25457 z m -1.78223,0.29491 c -0.73117,-0.0219 -1.53059,0.0682 -1.9108,0.33634 -0.14623,0.17548 -0.17548,2.291 0,2.45673 0.38996,0.33147 3.07092,0.42895 3.41214,0 0.0877,-0.12674 0.0877,-2.32999 0,-2.45673 -0.10724,-0.18036 -0.77017,-0.31441 -1.50134,-0.33634 z m 1.63843,0.54838 c 0.0708,0.36187 0.0666,2.26483 -0.0152,2.38301 -1.0737,0.47524 -2.46723,0.41363 -3.5145,-0.025 0.007,1.89926 0.0594,4.05496 0.17548,4.26456 0.10102,0.071 0.2989,0.12546 0.55387,0.16817 v 0.24982 c 0.13097,0.0758 2.91059,0.0689 3.10016,0 v -0.16269 c 0.23895,-0.0171 0.42327,-0.0377 0.45942,-0.0622 0.0222,-0.0217 0.034,-0.12382 0.0408,-0.26687 h 0.12673 c 0.11272,-0.0758 0.15497,-1.02687 0,-1.13027 h -0.14989 c -0.004,-0.0733 -0.0126,-0.17097 -0.0164,-0.24799 h 0.0682 c 0.0634,-0.0276 0.0422,-0.39315 0,-0.47587 h -0.10053 c -0.004,-0.0623 -0.0121,-0.1327 -0.0158,-0.1962 h 0.0597 c 0.0634,-0.0206 0.0775,-0.37937 0,-0.47587 h -0.0969 c -0.0251,-0.32652 -0.0563,-0.65749 -0.0865,-0.98648 h 0.0792 c 0.10953,-0.10717 0.0996,-2.05703 0,-2.18376 h -0.32903 c -0.0738,-0.47478 -0.14754,-0.79492 -0.21326,-0.84755 z m -1.78162,0.18523 c 0.32401,0.003 0.63868,0.0133 0.88228,0.0274 0.1218,0.007 0.2269,0.0137 0.30648,0.0232 0.0397,0.004 0.0729,0.01 0.10115,0.0158 0.0283,0.006 0.0461,0.005 0.0804,0.0256 a 0.09728431,0.09728431 0 1 1 -0.10115,0.16573 c 0.0179,0.0106 0.004,0.004 -0.0164,0 -0.0202,-0.004 -0.0505,-0.009 -0.0871,-0.014 -0.0734,-0.008 -0.17532,-0.0155 -0.29491,-0.0225 -0.23916,-0.0138 -0.55113,-0.0245 -0.87253,-0.028 -0.32138,-0.003 -0.65206,3.9e-4 -0.92615,0.0122 -0.2741,0.0118 -0.50039,0.0359 -0.57762,0.0597 a 0.09761661,0.09761661 0 0 1 -0.0579,-0.18645 c 0.12954,-0.0399 0.34705,-0.0551 0.62637,-0.067 0.27933,-0.0122 0.6131,-0.0151 0.93712,-0.0116 z m -1.558,1.36546 a 0.09728431,0.09728431 0 0 1 0.001,0 0.09728431,0.09728431 0 0 1 0.002,0 0.09728431,0.09728431 0 0 1 0.0116,0 0.09728431,0.09728431 0 0 1 0.0378,0.009 c 0.0773,0.0238 0.30352,0.0479 0.57762,0.0597 0.27409,0.012 0.60477,0.0157 0.92615,0.0122 0.3214,-0.003 0.63337,-0.0141 0.87253,-0.028 0.11959,-0.007 0.22145,-0.0143 0.29491,-0.0225 0.0367,-0.004 0.0676,-0.0105 0.0877,-0.014 0.0197,-0.004 0.0338,-0.0131 0.0158,-0.002 a 0.09728431,0.09728431 0 0 1 0.0439,-0.014 0.09728431,0.09728431 0 0 1 0.0573,0.17974 c -0.0343,0.0205 -0.0521,0.0215 -0.0804,0.0274 -0.0283,0.006 -0.0614,0.0117 -0.10115,0.0165 -0.0796,0.009 -0.18468,0.0161 -0.30648,0.0232 -0.2436,0.0141 -0.55766,0.0239 -0.88167,0.0274 -0.32402,0.003 -0.6584,3.3e-4 -0.93773,-0.0116 -0.27932,-0.0119 -0.49683,-0.0295 -0.62637,-0.0695 a 0.09728431,0.09728431 0 0 1 0.005,-0.19315 z m 4.14269,5.38203 c -0.17036,5.5e-4 -0.25765,0.008 -0.42712,0.0171 v 0.13283 c -0.23712,0.10671 -3.08497,0.0758 -3.21594,0 v -0.0323 c -0.081,-0.0106 -0.12902,-0.0154 -0.21021,-0.0299 -0.0804,0.0244 -0.37534,0.35035 -0.35096,0.36985 l 1.10528,0.13892 c -0.0106,0.0198 -0.0223,0.0889 -0.0341,0.14624 l 2.73702,-0.0171 1.08457,-0.17183 c 0.10907,-0.0495 -0.055,-0.52057 -0.131,-0.53436 -0.18655,-0.0145 -0.37231,-0.0202 -0.55752,-0.0195 z m -4.33463,0.5173 c -0.0682,0.0439 -0.46275,0.68728 -0.45332,0.74092 l -0.18036,1.32586 c 0.0244,0.0829 1.44774,0.34116 1.55009,0.27785 -0.0439,-0.15111 0.13646,-2.04728 0.23397,-2.23251 z m 5.0719,0.0774 -1.12479,0.20595 c 0.10423,0.18154 0.25447,1.9488 0.25408,2.17036 0.10459,0.0596 1.55864,-0.2508 1.57994,-0.33451 l -0.22849,-1.31855 c 0.007,-0.054 -0.41094,-0.68189 -0.48074,-0.72325 z m -3.79478,0.18585 c -0.10724,0.0585 -0.25348,2.7492 -0.25348,2.7492 0.16574,0.12674 2.88563,0.0585 2.96369,0 0.0585,-0.0877 -0.17554,-2.73977 -0.25348,-2.7492 0,0 -2.51522,0.0292 -2.45673,0 z"
         style="opacity:1;vector-effect:none;fill:#000000;fill-opacity:1;fill-rule:nonzero;stroke:none;stroke-width:0.17686288;stroke-linecap:round;stroke-linejoin:miter;stroke-miterlimit:4;stroke-dasharray:none;stroke-dashoffset:0;stroke-opacity:1" />
      <path
         sodipodi:nodetypes="ccccccc"
         inkscape:connector-curvature="0"
         id="rect1181"
         d="m 151.28467,125.6884 c 0.11378,0.0344 5.68373,0.062 5.96637,0 0.12674,0.14623 0.0779,1.28685 0,1.41359 -0.0758,0.0482 -0.49203,0.13787 -0.49203,0.13787 -0.19991,0.0482 -4.85133,0.0552 -4.98232,0 0,0 -0.43687,-0.0758 -0.49202,-0.13787 -0.10718,-0.10718 -0.0585,-1.39409 0,-1.41359 z"
         style="opacity:1;vector-effect:none;fill:#000000;fill-opacity:1;fill-rule:nonzero;stroke:none;stroke-width:0.17686288;stroke-linecap:round;stroke-linejoin:miter;stroke-miterlimit:4;stroke-dasharray:none;stroke-dashoffset:0;stroke-opacity:1" />
      <path
         inkscape:connector-curvature="0"
         id="rect1105"
         d="m 146.48351,118.51984 c -0.0402,0.0106 -0.0769,0.14022 -0.0999,0.23093 a 1.30786,1.6753054 20.313007 0 0 -0.0573,0 1.30786,1.6753054 20.313007 0 0 -1.34719,1.06203 c -0.10694,-0.0357 -0.20785,-0.0671 -0.23519,-0.0652 -0.0779,0.009 -0.17493,0.26925 -0.11394,0.35462 0.0174,0.0232 0.11579,0.057 0.22301,0.0896 a 1.30786,1.6753054 20.313007 0 0 0.17731,1.31062 1.320175,1.6775572 21.164132 0 0 -1.01633,1.06873 c -0.0904,-0.0295 -0.17171,-0.0541 -0.19559,-0.0524 -0.0779,0.009 -0.17495,0.26925 -0.11394,0.35462 0.0161,0.0215 0.10246,0.0516 0.19924,0.0816 a 1.320175,1.6775572 21.164132 0 0 0.38326,1.44224 l -0.0183,-0.007 c 0,0 -0.12959,0.26229 -0.12369,0.32171 0.0164,0.0433 0.62568,0.28048 0.7464,0.28638 0.0545,-0.0144 0.11461,-0.28399 0.12004,-0.30831 a 1.320175,1.6775572 21.164132 0 0 1.49402,-1.25335 1.320175,1.6775572 21.164132 0 0 -0.13039,-1.50195 1.30786,1.6753054 20.313007 0 0 1.034,-1.16865 1.30786,1.6753054 20.313007 0 0 -0.27845,-1.69084 c 0.0323,-0.0677 0.10415,-0.22012 0.0993,-0.26809 -0.0164,-0.0433 -0.62567,-0.28109 -0.7464,-0.28699 z m -0.56849,0.55143 1.16257,0.21204 0.35035,1.20399 -0.99013,1.2436 -1.16073,-0.2553 -0.3272,-1.40507 0.93041,-0.96453 z m 3.54192,0.0969 c -0.15855,0.0345 -1.1628,1.5097 -1.16987,1.64757 -0.0896,0.12409 -0.0791,2.84386 0.0932,2.96795 0.0345,0.17923 0.95792,1.06768 1.13027,1.17109 -0.10235,-0.23398 -0.18036,-5.54289 -0.0536,-5.78661 z m -3.47977,0.0944 -0.8317,0.86095 0.27906,1.20217 0.94382,0.2096 0.86339,-1.08457 -0.29429,-1.01328 z m 0.17244,0.31318 a 0.76041832,0.77991616 0 0 1 0.76042,0.77992 0.76041832,0.77991616 0 0 1 -0.76042,0.77992 0.76041832,0.77991616 0 0 1 -0.76042,-0.77992 0.76041832,0.77991616 0 0 1 0.76042,-0.77992 z m 0,0.54595 a 0.23397483,0.23397483 0 0 0 -0.23398,0.23397 0.23397483,0.23397483 0 0 0 0.23398,0.23398 0.23397483,0.23397483 0 0 0 0.23397,-0.23398 0.23397483,0.23397483 0 0 0 -0.23397,-0.23397 z m 1.8456,0.65744 -0.42226,0.0329 c -0.004,0.0106 -0.006,0.0207 -0.01,0.0311 -0.18121,0.5483 -0.50861,0.99238 -0.97063,1.17109 0.2595,0.40084 0.2452,0.9631 0.067,1.49951 -0.0234,0.0692 -0.0501,0.13714 -0.0804,0.20351 l 0.86522,0.0451 c 0.18523,-0.17548 0.68243,-2.47623 0.55082,-2.98318 z m 0.22361,0.38996 -0.18279,0.002 c -0.007,0.13025 -0.0209,0.28012 -0.042,0.44479 l 0.20777,-10e-4 c 0.005,-0.16723 0.009,-0.32559 0.0171,-0.4454 z m -0.0177,0.4844 -0.21265,6.1e-4 c -0.033,0.25081 -0.0763,0.52125 -0.12856,0.79088 l 0.33695,0.004 c -5e-4,-0.28325 -0.003,-0.54318 0.004,-0.79515 z m -3.21471,0.13953 1.17048,0.21692 0.21387,1.27589 -0.98587,1.19973 -1.03582,-0.29064 -0.32476,-1.39958 0.93041,-0.96759 z m 0.0622,0.19376 -0.8311,0.86096 0.28089,1.2046 0.82439,0.23276 0.85913,-1.05045 -0.17974,-1.07543 z m 0.18035,0.25469 a 0.76041832,0.77991616 0 0 1 0.76042,0.77992 0.76041832,0.77991616 0 0 1 -0.76042,0.77992 0.76041832,0.77991616 0 0 1 -0.76042,-0.77992 0.76041832,0.77991616 0 0 1 0.76042,-0.77992 z m 2.62734,0.22545 c -0.0634,0.32406 -0.13444,0.63525 -0.20046,0.87679 l 0.57397,0.003 c -0.0162,-0.24535 -0.0307,-0.55503 -0.0329,-0.8768 z m -2.62734,0.32049 a 0.23397484,0.23397484 0 0 0 -0.23397,0.23398 0.23397484,0.23397484 0 0 0 0.23397,0.23397 0.23397484,0.23397484 0 0 0 0.23398,-0.23397 0.23397484,0.23397484 0 0 0 -0.23398,-0.23398 z m 2.41713,0.58738 c -0.0356,0.12741 -0.0684,0.2266 -0.0981,0.301 l 0.733,0.0104 c -0.0127,-0.0757 -0.0396,-0.18796 -0.0481,-0.3071 z"
         style="opacity:1;vector-effect:none;fill:#000000;fill-opacity:1;fill-rule:nonzero;stroke:none;stroke-width:0.05895429;stroke-linecap:round;stroke-linejoin:miter;stroke-miterlimit:4;stroke-dasharray:none;stroke-dashoffset:0;stroke-opacity:1" />
      <path
         sodipodi:nodetypes="cccccccccccccccccccccsssssssssssssssscscssssss"
         inkscape:connector-curvature="0"
         id="rect921-5-1"
         d="m 157.01642,117.29922 c 0.11697,0.0194 0.0877,0.18949 0.0877,0.18949 h 0.57456 v 1.47697 h -0.98341 v -1.66646 z m -0.38082,0 v 1.72434 h 1.10103 v -1.53485 h 0.15598 c 0.16545,0.15165 0.17923,7.18984 0,7.30013 -0.1034,0.0896 -1.40642,0.0896 -1.59944,0 0.0759,-0.11649 0.0593,-3.92217 0.0311,-5.97062 0.13945,-0.0884 0.20453,-0.23461 0.20472,-0.39971 -3.4e-4,-0.17281 -0.0736,-0.32493 -0.22361,-0.41068 -0.005,-0.13651 -0.008,-0.47268 -0.0121,-0.4783 l 0.0317,-0.0408 v -0.18949 z m 0.52218,2.01802 c -0.22345,0 -0.40458,0.18115 -0.40458,0.40458 0,0.22345 0.18113,0.40458 0.40458,0.40458 0.22345,0 0.40458,-0.18113 0.40458,-0.40458 0,-0.22343 -0.18113,-0.40458 -0.40458,-0.40458 z m 0,1.08336 c -0.22345,0 -0.40458,0.18113 -0.40458,0.40458 0,0.22345 0.18113,0.40458 0.40458,0.40458 0.22345,0 0.40458,-0.18113 0.40458,-0.40458 0,-0.22345 -0.18113,-0.40458 -0.40458,-0.40458 z m 0,1.08334 c -0.22345,0 -0.40458,0.18115 -0.40458,0.4046 0,0.22343 0.18113,0.40458 0.40458,0.40458 0.22345,0 0.40458,-0.18115 0.40458,-0.40458 0,-0.22345 -0.18113,-0.4046 -0.40458,-0.4046 z m 0,1.08336 c -0.22345,0 -0.40458,0.18114 -0.40458,0.40458 0,0.22345 0.18114,0.40458 0.40458,0.40458 0.22345,0 0.40458,-0.18113 0.40458,-0.40458 0,-0.22344 -0.18113,-0.40458 -0.40458,-0.40458 z m 0,1.08336 c -0.22345,0 -0.40458,0.18113 -0.40458,0.40458 0,0.22344 0.18114,0.40458 0.40458,0.40458 0.22345,0 0.40458,-0.18114 0.40458,-0.40458 0,-0.22345 -0.18113,-0.40458 -0.40458,-0.40458 z"
         style="opacity:1;vector-effect:none;fill:#000000;fill-opacity:1;fill-rule:nonzero;stroke:none;stroke-width:0.22284725;stroke-linecap:round;stroke-linejoin:miter;stroke-miterlimit:4;stroke-dasharray:none;stroke-dashoffset:0;stroke-opacity:1" />
      <path
         sodipodi:nodetypes="ccccccccccccccsssssssssssssssssssssssss"
         inkscape:connector-curvature="0"
         id="rect1052-06"
         d="m 159.52129,118.51113 c 0.14623,0.13649 0.0487,6.39292 0,6.41237 -0.11024,0.069 -1.39568,0.11025 -1.4922,0 0.19497,-0.3607 0.12181,-6.29051 0.0585,-6.41237 h 0.21997 v 0.80002 h 0.78052 v -0.80002 z m -0.49292,0 v 0.74275 h -0.66111 v -0.74275 z m -0.21448,1.03704 c -0.22345,0 -0.40459,0.18114 -0.40459,0.40459 0,0.22344 0.18114,0.40458 0.40459,0.40458 0.22344,0 0.40458,-0.18114 0.40458,-0.40458 0,-0.22345 -0.18114,-0.40459 -0.40458,-0.40459 z m 0,1.08335 c -0.22345,0 -0.40459,0.18115 -0.40459,0.40458 0,0.22345 0.18114,0.40458 0.40459,0.40458 0.22344,0 0.40458,-0.18113 0.40458,-0.40458 0,-0.22343 -0.18114,-0.40458 -0.40458,-0.40458 z m 0,1.08336 c -0.22345,0 -0.40459,0.18113 -0.40459,0.40458 0,0.22345 0.18114,0.40458 0.40459,0.40458 0.22344,0 0.40458,-0.18113 0.40458,-0.40458 0,-0.22345 -0.18114,-0.40458 -0.40458,-0.40458 z m 0,1.08334 c -0.22345,0 -0.40458,0.18115 -0.40459,0.4046 0,0.22343 0.18114,0.40458 0.40459,0.40458 0.22344,0 0.40458,-0.18115 0.40458,-0.40458 0,-0.22345 -0.18114,-0.4046 -0.40458,-0.4046 z m 0,1.08336 c -0.22345,0 -0.40458,0.18114 -0.40459,0.40458 0,0.22345 0.18114,0.40459 0.40459,0.40459 0.22344,0 0.40458,-0.18114 0.40458,-0.40459 0,-0.22344 -0.18114,-0.40458 -0.40458,-0.40458 z"
         style="opacity:1;vector-effect:none;fill:#000000;fill-opacity:1;fill-rule:nonzero;stroke:none;stroke-width:0.06317758;stroke-linecap:round;stroke-linejoin:miter;stroke-miterlimit:4;stroke-dasharray:none;stroke-dashoffset:0;stroke-opacity:1" />
      <path
         sodipodi:nodetypes="cccccccccccc"
         inkscape:connector-curvature="0"
         id="rect1184-3"
         d="m 151.10905,124.86437 c 0.009,0.0507 0.0245,0.11555 0.0351,0.13521 -0.0502,0.0356 -0.19993,0.0751 -0.39945,0.0742 l 0.49313,0.53901 c 0.0487,0.0292 5.8851,0.062 6.1126,0 l 0.64057,-0.7817 c -0.38087,0.12409 -1.56748,0.0595 -1.6502,0.0251 -0.005,0.037 -0.0118,0.0968 -0.0286,0.11566 -0.0962,0.0962 -3.27672,0.13462 -3.38471,-0.0999 h -0.0604 c -0.37119,0.11839 -1.34686,0.10375 -1.63478,0.004 z"
         style="opacity:1;vector-effect:none;fill:#000000;fill-opacity:1;fill-rule:nonzero;stroke:none;stroke-width:0.17686288;stroke-linecap:round;stroke-linejoin:miter;stroke-miterlimit:4;stroke-dasharray:none;stroke-dashoffset:0;stroke-opacity:1" />
      <path
         inkscape:connector-curvature="0"
         id="rect1105-6"
         d="m 162.6619,118.25723 c -0.12073,0.006 -0.73002,0.24432 -0.74641,0.28759 -0.005,0.048 0.067,0.19981 0.0993,0.26749 a 1.6753054,1.30786 69.686993 0 0 -0.27845,1.69083 1.6753054,1.30786 69.686993 0 0 1.03399,1.16866 1.6775572,1.320175 68.835868 0 0 -0.13039,1.50195 1.6775572,1.320175 68.835868 0 0 1.49403,1.25396 c 0.005,0.0243 0.0656,0.29331 0.12003,0.3077 0.12073,-0.006 0.73002,-0.24311 0.74641,-0.28638 0.006,-0.0594 -0.12369,-0.32171 -0.12369,-0.32171 l -0.0183,0.007 a 1.6775572,1.320175 68.835868 0 0 0.38325,-1.44224 c 0.0968,-0.0301 0.18309,-0.0602 0.19925,-0.0816 0.061,-0.0854 -0.036,-0.34518 -0.11394,-0.35461 -0.0239,-0.002 -0.10516,0.0229 -0.19559,0.0524 a 1.6775572,1.320175 68.835868 0 0 -1.01633,-1.06873 1.6753054,1.30786 69.686993 0 0 0.17731,-1.31063 c 0.10721,-0.0325 0.20556,-0.0663 0.22301,-0.0896 0.061,-0.0854 -0.036,-0.34519 -0.11395,-0.35462 -0.0273,-0.002 -0.12825,0.0295 -0.23519,0.0652 a 1.6753054,1.30786 69.686993 0 0 -1.34718,-1.06202 1.6753054,1.30786 69.686993 0 0 -0.0573,0 c -0.0229,-0.0907 -0.0597,-0.22032 -0.0999,-0.23093 z m 0.56848,0.55142 0.0347,0.0347 0.93042,0.96454 -0.3272,1.40507 -1.16074,0.2553 -0.99012,-1.2436 0.35035,-1.204 z m -3.54191,0.0969 c 0.12674,0.24373 0.0487,5.55264 -0.0536,5.78662 0.17234,-0.10341 1.0958,-0.99186 1.13027,-1.1711 0.17233,-0.12408 0.18281,-2.84386 0.0932,-2.96794 -0.007,-0.13787 -1.01132,-1.61311 -1.16987,-1.64758 z m 3.47976,0.0944 -0.96027,0.17487 -0.2943,1.01328 0.8634,1.08457 0.94382,-0.2096 0.27906,-1.20217 z m -0.17243,0.31318 a 0.76041832,0.77991616 0 0 1 0.76042,0.77992 0.76041832,0.77991616 0 0 1 -0.76042,0.77991 0.76041832,0.77991616 0 0 1 -0.76042,-0.77991 0.76041832,0.77991616 0 0 1 0.76042,-0.77992 z m 0,0.54594 a 0.23397483,0.23397483 0 0 0 -0.23398,0.23398 0.23397483,0.23397483 0 0 0 0.23398,0.23397 0.23397483,0.23397483 0 0 0 0.23397,-0.23397 0.23397483,0.23397483 0 0 0 -0.23397,-0.23398 z m -1.8456,0.65745 c -0.13161,0.50695 0.36558,2.8077 0.55081,2.98318 l 0.86522,-0.0451 c -0.0303,-0.0664 -0.0571,-0.1343 -0.0804,-0.20351 -0.17819,-0.53641 -0.19309,-1.09867 0.0664,-1.49951 -0.46202,-0.17872 -0.78882,-0.6228 -0.97002,-1.17109 -0.004,-0.0104 -0.006,-0.0205 -0.01,-0.0311 z m -0.22362,0.38996 c 0.008,0.1198 0.0123,0.27817 0.0171,0.4454 l 0.20778,0.001 c -0.0211,-0.16467 -0.035,-0.31454 -0.042,-0.4448 z m 0.0177,0.4844 c 0.007,0.25197 0.005,0.51189 0.004,0.79515 l 0.33634,-0.003 c -0.0523,-0.26963 -0.0949,-0.54007 -0.12796,-0.79088 z m 3.21472,0.13953 0.0317,0.0347 0.93042,0.96758 -0.32476,1.39959 -1.03583,0.29064 -0.98586,-1.19973 0.21387,-1.2759 z m -0.0622,0.19376 -0.95357,0.17243 -0.17975,1.07544 0.85913,1.05044 0.8244,-0.23275 0.28089,-1.20461 z m -0.18036,0.25469 a 0.76041832,0.77991616 0 0 1 0.76042,0.77992 0.76041832,0.77991616 0 0 1 -0.76042,0.77991 0.76041832,0.77991616 0 0 1 -0.76041,-0.77991 0.76041832,0.77991616 0 0 1 0.76041,-0.77992 z m -2.62734,0.22545 -0.3406,0.003 c -0.002,0.32176 -0.0168,0.63144 -0.0329,0.8768 l 0.57397,-0.003 c -0.066,-0.24155 -0.13702,-0.55273 -0.20046,-0.87679 z m 2.62734,0.32049 a 0.23397484,0.23397484 0 0 0 -0.23397,0.23398 0.23397484,0.23397484 0 0 0 0.23397,0.23397 0.23397484,0.23397484 0 0 0 0.23398,-0.23397 0.23397484,0.23397484 0 0 0 -0.23398,-0.23398 z m -2.41713,0.58738 -0.58676,0.004 c -0.008,0.11914 -0.0354,0.23201 -0.0481,0.3077 l 0.733,-0.011 c -0.0297,-0.0744 -0.0625,-0.17359 -0.0981,-0.301 z"
         style="opacity:1;vector-effect:none;fill:#000000;fill-opacity:1;fill-rule:nonzero;stroke:none;stroke-width:0.05895429;stroke-linecap:round;stroke-linejoin:miter;stroke-miterlimit:4;stroke-dasharray:none;stroke-dashoffset:0;stroke-opacity:1" />
      <path
         id="rect1187-6-5"
         d="m 158.52616,126.44661 c 0.61618,0.0106 1.2398,0.17223 1.63173,0.55812 l -0.007,0.42714 h 0.25592 c 0.17234,0.1172 0.19992,1.72344 0,1.90956 h -0.28882 l -0.004,0.21388 h 0.0786 v 1.8194 h -0.10965 l -0.008,0.44845 c -0.17923,0.15859 -2.90188,0.17936 -3.21898,0.0621 l -0.007,-0.23459 h -0.0756 v -1.68901 h 0.0207 l -0.0829,-2.59322 c 0.24775,-0.0177 0.49351,-0.0902 0.72387,-0.17548 0.0935,-0.0935 0.0938,-0.41036 0.0969,-0.66536 0.32216,-0.096 0.60445,-0.0874 0.99318,-0.081 z m -0.0506,0.67511 c -0.22179,-8e-5 -0.40163,0.17975 -0.40154,0.40154 -9e-5,0.2218 0.17974,0.40162 0.40154,0.40154 0.22156,-2.5e-4 0.401,-0.17998 0.40092,-0.40154 8e-5,-0.22156 -0.17936,-0.40129 -0.40092,-0.40154 z m 0,1.1583 c -0.22179,-8e-5 -0.40163,0.17975 -0.40154,0.40154 -9e-5,0.22179 0.17974,0.40162 0.40154,0.40153 0.22156,-2.4e-4 0.401,-0.17997 0.40092,-0.40153 8e-5,-0.22157 -0.17936,-0.40129 -0.40092,-0.40154 z m 0,1.1583 c -0.2218,-9e-5 -0.40163,0.17974 -0.40154,0.40153 2.5e-4,0.22156 0.17998,0.40101 0.40154,0.40093 0.22132,-2.5e-4 0.40067,-0.1796 0.40092,-0.40093 8e-5,-0.22156 -0.17936,-0.40129 -0.40092,-0.40153 z m 1.62989,2.52559 c 0.0705,0.0881 0.16362,0.58709 0.0975,0.77077 -0.4196,-0.18931 -1.09788,-0.25467 -1.72739,-0.2358 -0.68933,0.0206 -1.31196,0.14163 -1.47149,0.30648 h -0.23641 c -0.0482,-0.0552 -0.0437,-0.71939 0.039,-0.83658 0.31197,0.14624 2.94785,0.11684 3.2988,-0.005 z m -3.44381,0.37472 v 0.71654 c -0.0478,0.0614 -0.13329,0.28103 -0.18584,0.56789 l -0.27601,-0.0231 c -0.15168,-0.0828 -0.19293,-1.1167 -0.0275,-1.25457 z m 1.78223,0.2949 c 0.73118,-0.0219 1.53059,0.0683 1.91079,0.33635 0.14623,0.17548 0.17549,2.291 0,2.45673 -0.38995,0.33147 -3.07091,0.42895 -3.41213,0 -0.0877,-0.12674 -0.0877,-2.32999 0,-2.45673 0.10718,-0.18035 0.77017,-0.3144 1.50134,-0.33635 z m -1.63843,0.54838 c -0.0708,0.36188 -0.0666,2.26484 0.0152,2.38302 1.0737,0.47524 2.46724,0.41362 3.5145,-0.025 -0.007,1.89926 -0.0594,4.05496 -0.17548,4.26457 -0.10105,0.071 -0.2989,0.12545 -0.55387,0.16816 v 0.24982 c -0.13098,0.0758 -2.91059,0.069 -3.10017,0 v -0.16269 c -0.23894,-0.0171 -0.42327,-0.0377 -0.45942,-0.0621 -0.0222,-0.0217 -0.034,-0.12382 -0.0408,-0.26688 h -0.12674 c -0.11272,-0.0758 -0.15497,-1.02686 0,-1.13027 h 0.14989 c 0.004,-0.0733 0.0125,-0.17097 0.0164,-0.24798 h -0.0683 c -0.0634,-0.0276 -0.0422,-0.39316 0,-0.47587 h 0.10058 c 0.004,-0.0623 0.012,-0.1327 0.0158,-0.1962 h -0.0597 c -0.0634,-0.0206 -0.0775,-0.37937 0,-0.47588 h 0.0969 c 0.0251,-0.32651 0.0564,-0.65748 0.0865,-0.98647 h -0.0792 c -0.10954,-0.10718 -0.0996,-2.05703 0,-2.18376 h 0.32904 c 0.0738,-0.47479 0.14753,-0.79492 0.21326,-0.84755 z m 1.78162,0.18524 c -0.32401,0.004 -0.63869,0.0132 -0.88229,0.0273 -0.12179,0.007 -0.22689,0.0138 -0.30647,0.0231 -0.0397,0.005 -0.0729,0.009 -0.10117,0.0158 -0.0283,0.006 -0.0461,0.005 -0.0804,0.0256 a 0.09728432,0.09728432 0 1 0 0.10116,0.16573 c -0.0179,0.0106 -0.004,0.004 0.0164,0 0.0202,-0.005 0.0505,-0.009 0.0871,-0.014 0.0735,-0.008 0.17531,-0.0154 0.2949,-0.0225 0.23916,-0.0138 0.55114,-0.0245 0.87253,-0.0281 0.32139,-0.004 0.65206,3.2e-4 0.92615,0.0123 0.2741,0.0118 0.50039,0.0358 0.57762,0.0597 a 0.09761661,0.09761661 0 0 0 0.0579,-0.18645 c -0.12954,-0.0399 -0.34704,-0.0551 -0.62637,-0.067 -0.27933,-0.0123 -0.61309,-0.0151 -0.93711,-0.0118 z m 1.558,1.36546 a 0.09728432,0.09728432 0 0 0 -0.001,0 0.09728432,0.09728432 0 0 0 -0.002,0 0.09728432,0.09728432 0 0 0 -0.0118,0 0.09728432,0.09728432 0 0 0 -0.0377,0.009 c -0.0772,0.0238 -0.30352,0.0479 -0.57762,0.0597 -0.27409,0.012 -0.60477,0.0157 -0.92615,0.0121 -0.3214,-0.004 -0.63337,-0.014 -0.87254,-0.0281 -0.11958,-0.007 -0.22144,-0.0143 -0.2949,-0.0225 -0.0367,-0.005 -0.0676,-0.0106 -0.0877,-0.014 -0.0197,-0.004 -0.0337,-0.0131 -0.0158,-0.002 a 0.09728432,0.09728432 0 0 0 -0.0439,-0.014 0.09728432,0.09728432 0 0 0 -0.0573,0.17974 c 0.0343,0.0205 0.0521,0.0216 0.0804,0.0275 0.0283,0.006 0.0614,0.0118 0.10116,0.0164 0.0796,0.009 0.18468,0.016 0.30648,0.0231 0.2436,0.0142 0.55766,0.0238 0.88168,0.0275 0.32402,0.004 0.6584,3.2e-4 0.93772,-0.0118 0.27933,-0.0119 0.49685,-0.0295 0.62638,-0.0694 a 0.09728432,0.09728432 0 0 0 -0.006,-0.19315 z m -4.1427,5.38204 c 0.17037,6.2e-4 0.25767,0.008 0.42714,0.0171 v 0.13283 c 0.23711,0.1067 3.08496,0.0758 3.21593,0 v -0.0323 c 0.081,-0.0106 0.12902,-0.0153 0.21021,-0.0298 0.0804,0.0244 0.37534,0.35034 0.35097,0.36984 l -1.10529,0.13892 c 0.0106,0.0198 0.0223,0.0889 0.0341,0.14624 l -2.73703,-0.0171 -1.08457,-0.17182 c -0.10906,-0.0495 0.0551,-0.52058 0.131,-0.53436 0.18655,-0.0145 0.37231,-0.0203 0.55752,-0.0195 z m 4.33464,0.5173 c 0.0683,0.0439 0.46276,0.68726 0.45332,0.74091 l 0.18036,1.32586 c -0.0244,0.0829 -1.44774,0.34117 -1.55009,0.27785 0.0439,-0.15111 -0.13646,-2.04728 -0.23398,-2.23252 z m -5.0719,0.0773 1.12479,0.20594 c -0.10423,0.18153 -0.25447,1.94881 -0.25408,2.17037 -0.10458,0.0595 -1.55863,-0.2508 -1.57994,-0.33451 l 0.22849,-1.31854 c -0.007,-0.054 0.41094,-0.68191 0.48074,-0.72326 z m 3.79479,0.18584 c 0.10718,0.0585 0.25346,2.7492 0.25346,2.7492 -0.16573,0.12674 -2.88562,0.0585 -2.96367,0 -0.0585,-0.0877 0.17553,-2.73977 0.25346,-2.7492 0,0 2.51523,0.0292 2.45675,0 z"
         style="opacity:1;vector-effect:none;fill:#000000;fill-opacity:1;fill-rule:nonzero;stroke:none;stroke-width:0.17686288;stroke-linecap:round;stroke-linejoin:miter;stroke-miterlimit:4;stroke-dasharray:none;stroke-dashoffset:0;stroke-opacity:1"
         inkscape:connector-curvature="0" />
    </g>
  </g>
</svg>
