<?xml version="1.0" encoding="UTF-8" standalone="no"?>
<!-- Created with Inkscape (http://www.inkscape.org/) -->

<svg
   sodipodi:docname="Centurion.svg"
   inkscape:version="1.1.2 (0a00cf5339, 2022-02-04)"
   id="svg8"
   version="1.1"
   viewBox="0 0 34.98301 52.516205"
   height="52.516205mm"
   width="34.983009mm"
   xmlns:inkscape="http://www.inkscape.org/namespaces/inkscape"
   xmlns:sodipodi="http://sodipodi.sourceforge.net/DTD/sodipodi-0.dtd"
   xmlns="http://www.w3.org/2000/svg"
   xmlns:svg="http://www.w3.org/2000/svg"
   xmlns:rdf="http://www.w3.org/1999/02/22-rdf-syntax-ns#"
   xmlns:cc="http://creativecommons.org/ns#"
   xmlns:dc="http://purl.org/dc/elements/1.1/">
  <defs
     id="defs2" />
  <sodipodi:namedview
     id="base"
     pagecolor="#ffffff"
     bordercolor="#666666"
     borderopacity="1.0"
     inkscape:pageopacity="0.0"
     inkscape:pageshadow="2"
     inkscape:zoom="2"
     inkscape:cx="209.25"
     inkscape:cy="177.75"
     inkscape:document-units="mm"
     inkscape:current-layer="layer1"
     showgrid="false"
     inkscape:window-width="1846"
     inkscape:window-height="1016"
     inkscape:window-x="74"
     inkscape:window-y="1107"
     inkscape:window-maximized="1"
     inkscape:snap-global="false"
     fit-margin-top="0"
     fit-margin-left="0"
     fit-margin-right="0"
     fit-margin-bottom="0"
     showguides="false"
     inkscape:guide-bbox="true"
     inkscape:pagecheckerboard="0" />
  <metadata
     id="metadata5">
    <rdf:RDF>
      <cc:Work
         rdf:about="">
        <dc:format>image/svg+xml</dc:format>
        <dc:type
           rdf:resource="http://purl.org/dc/dcmitype/StillImage" />
        <dc:title />
      </cc:Work>
    </rdf:RDF>
  </metadata>
  <g
     inkscape:label="Capa 1"
     inkscape:groupmode="layer"
     id="layer1"
     transform="translate(-135.48963,-99.590537)">
    <rect
       style="opacity:1;vector-effect:none;fill:#1a1a1a;fill-opacity:1;stroke:none;stroke-width:0.1;stroke-linecap:butt;stroke-linejoin:miter;stroke-miterlimit:4;stroke-dasharray:none;stroke-dashoffset:0;stroke-opacity:1"
       id="rect860"
       width="7.0941477"
       height="0"
       x="148.86763"
       y="129.31949" />
    <path
       style="opacity:1;vector-effect:none;fill:#000000;fill-opacity:1;stroke:none;stroke-width:0.55851471;stroke-linecap:round;stroke-linejoin:miter;stroke-miterlimit:4;stroke-dasharray:none;stroke-dashoffset:0;stroke-opacity:1"
       d="m 88.714844,85.486328 c -0.941287,1.33583 -1.554534,2.629401 -2.16211,3.65625 h 4.875 c 0.421901,-0.203671 0.760305,-1.961207 0.767578,-3.376953 -1.746765,0.30617 -2.592529,0.288416 -3.480468,-0.279297 z"
       transform="matrix(0.26458333,0,0,0.26458333,135.48963,99.590537)"
       id="rect1603-4"
       inkscape:connector-curvature="0"
       sodipodi:nodetypes="ccccc" />
    <path
       style="opacity:1;vector-effect:none;fill:#000000;fill-opacity:1;stroke:none;stroke-width:0.16414262;stroke-linecap:round;stroke-linejoin:miter;stroke-miterlimit:4;stroke-dasharray:none;stroke-dashoffset:0;stroke-opacity:1"
       d="m 76.722656,77.507812 v 0.002 c 0.14778,2.102173 0.275391,4.074218 0.275391,4.074218 -0.0031,8.7e-4 -0.0078,0.0027 -0.0078,0.0039 l 0.002,0.01563 -0.511719,1.386718 h -4.50586 c 0,0 0.16304,1.01564 -0.65039,1.291016 h -5.660157 c -0.938793,-0.16252 -0.751953,-1.291016 -0.751953,-1.291016 h -4.09375 l -0.58789,-1.546875 c -0.01512,-0.01512 -0.04064,-0.02989 -0.05273,-0.04687 0,0 0.0915,-1.825982 0.210938,-3.824218 -4.707062,0.140976 -8.464264,0.369903 -9.064453,0.669922 0.735269,0.402705 1.332074,0.91757 1.826172,1.476562 -4.533922,0.139087 -7.918144,0.339327 -8.777344,0.603516 3.591307,2.505524 6.263672,10.27539 6.263672,10.27539 h 7.207031 l 0.708984,14.562505 h 18.423828 l 0.708985,-14.562505 h 7.205078 c 0,0 1.035115,-3.183626 3.220703,-5.826171 -0.01174,-0.03941 -0.123323,-0.04903 -0.225436,-0.166329 C 87.736968,84.503525 87.701461,84.070286 87.693421,84.01958 87.149936,83.9853 85.7735,83.861377 85.7735,83.861377 c -0.688638,-0.202496 -0.54745,-1.826376 0.164,-2.371143 -7.95e-4,-3.43e-4 -0.0031,3.47e-4 -0.0039,0 -0.698901,-0.147768 -0.759766,-0.731309 -0.759766,-0.910156 -0.381175,0.198874 -1.072715,0.119234 -1.144531,-0.0078 l 0.03125,-0.707032 c -0.885317,-0.03935 -0.442071,-0.114513 -1.4375,-0.146484 0.264623,-0.276284 0.495103,-0.839111 1.697265,-1.189453 0.04207,-0.311672 0.01953,-0.308594 0.01953,-0.308594 C 83.620239,77.820929 81.3197,77.617242 76.72266,77.507824 Z M 64.382812,90.375 c 1.540385,0 2.791016,1.258482 2.791016,2.798828 0,1.540384 -1.250631,2.791016 -2.791016,2.791016 -1.540343,0 -2.798828,-1.250632 -2.798828,-2.791016 0,-1.540346 1.258485,-2.798828 2.798828,-2.798828 z m 5.158204,-0.197266 h 5.986328 V 102.2832 H 69.541016 V 90.337891 Z m 0.326172,0.326172 v 11.455074 h 5.333984 V 90.503906 Z m -5.484376,0.44336 c -1.231631,0 -2.224609,0.99489 -2.224609,2.226562 0,1.23171 0.992978,2.222656 2.224609,2.222656 1.231711,0 2.22461,-0.990946 2.22461,-2.222656 0,-1.231672 -0.992899,-2.226562 -2.22461,-2.226562 z m 6.857422,0.480468 c 0.387296,-1.2e-4 0.701292,0.313876 0.701172,0.701172 1.2e-4,0.387296 -0.313876,0.701292 -0.701172,0.701172 -0.386533,-9.58e-4 -0.699339,-0.314638 -0.699218,-0.701172 -1.21e-4,-0.386534 0.312685,-0.700214 0.699218,-0.701172 z m 2.554688,0 c 0.387296,-1.2e-4 0.701292,0.313876 0.701172,0.701172 1.2e-4,0.387296 -0.313876,0.701292 -0.701172,0.701172 -0.387296,1.2e-4 -0.701292,-0.313876 -0.701172,-0.701172 -1.2e-4,-0.387296 0.313876,-0.701292 0.701172,-0.701172 z m -2.603516,2.101563 c 0.01627,-5.67e-4 0.03256,-5.67e-4 0.04883,0 0.386535,-1.21e-4 0.700215,0.312686 0.701172,0.699219 1.2e-4,0.387296 -0.313876,0.701289 -0.701172,0.701172 -0.386533,-9.58e-4 -0.699339,-0.314638 -0.699218,-0.701172 -4.7e-5,-0.367542 0.283806,-0.672706 0.65039,-0.699219 z m 2.552735,0 c 0.01692,-6.13e-4 0.03386,-6.13e-4 0.05078,0 0.386535,-1.21e-4 0.700215,0.312686 0.701172,0.699219 1.2e-4,0.387296 -0.313876,0.701289 -0.701172,0.701172 -0.387296,1.17e-4 -0.701292,-0.313876 -0.701172,-0.701172 -4.7e-5,-0.367542 0.283804,-0.672706 0.650392,-0.699219 z m -2.503907,2.101562 c 0.387296,-1.2e-4 0.701292,0.313876 0.701172,0.701172 1.2e-4,0.387296 -0.313876,0.701292 -0.701172,0.701172 -0.386533,-9.58e-4 -0.699339,-0.314638 -0.699218,-0.701172 -1.21e-4,-0.386534 0.312685,-0.700214 0.699218,-0.701172 z m 2.554688,0 c 0.387296,-1.2e-4 0.701292,0.313876 0.701172,0.701172 1.2e-4,0.387296 -0.313876,0.701292 -0.701172,0.701172 -0.387296,1.2e-4 -0.701292,-0.313876 -0.701172,-0.701172 -1.2e-4,-0.387296 0.313876,-0.701292 0.701172,-0.701172 z m -2.554688,2.101563 c 0.387296,-1.2e-4 0.701292,0.313876 0.701172,0.701172 1.2e-4,0.387296 -0.313876,0.701292 -0.701172,0.701172 -0.386533,-9.58e-4 -0.699339,-0.314638 -0.699218,-0.701172 -1.21e-4,-0.386534 0.312685,-0.700214 0.699218,-0.701172 z m 2.554688,0 c 0.387296,-1.2e-4 0.701292,0.313876 0.701172,0.701172 1.2e-4,0.387296 -0.313876,0.701292 -0.701172,0.701172 -0.387296,1.2e-4 -0.701292,-0.313876 -0.701172,-0.701172 -1.2e-4,-0.387296 0.313876,-0.701292 0.701172,-0.701172 z m -2.554688,2.103516 c 0.387296,-1.2e-4 0.701291,0.313872 0.701172,0.701172 1.2e-4,0.3873 -0.313876,0.70129 -0.701172,0.70117 -0.386533,-9.6e-4 -0.699339,-0.31464 -0.699218,-0.70117 -1.2e-4,-0.38653 0.312685,-0.700217 0.699218,-0.701172 z m 2.554688,0 c 0.387296,-1.2e-4 0.701291,0.313872 0.701172,0.701172 1.2e-4,0.3873 -0.313876,0.70129 -0.701172,0.70117 -0.387296,1.2e-4 -0.701292,-0.31387 -0.701172,-0.70117 -1.19e-4,-0.3873 0.313876,-0.701292 0.701172,-0.701172 z"
       transform="matrix(0.26458333,0,0,0.26458333,135.48963,99.590537)"
       id="rect1001"
       inkscape:connector-curvature="0"
       sodipodi:nodetypes="scccccccccccccccccccccccccccccccccccscssscccccccscccscssscccccccccccccccccccccccccccccccccccccccccccccccccccccc" />
    <path
       style="opacity:1;vector-effect:none;fill:#000000;fill-opacity:1;stroke:none;stroke-width:0.0434294;stroke-linecap:round;stroke-linejoin:miter;stroke-miterlimit:4;stroke-dasharray:none;stroke-dashoffset:0;stroke-opacity:1"
       d="m 149.21414,123.749 c -0.37566,0.53034 -0.41986,3.27162 0,3.62518 h 1.54878 l -0.17677,-3.62518 z m 6.98966,0 -0.17677,3.62518 h 1.56565 c 0.30937,-0.44196 0.44196,-3.22743 0,-3.62518 z"
       id="rect1006"
       inkscape:connector-curvature="0"
       sodipodi:nodetypes="cccccccccc" />
    <path
       style="opacity:1;vector-effect:none;fill:#000000;fill-opacity:1;stroke:none;stroke-width:0.03917746;stroke-linecap:round;stroke-linejoin:miter;stroke-miterlimit:4;stroke-dasharray:none;stroke-dashoffset:0;stroke-opacity:1"
       d="m 151.62854,127.55674 c -0.0703,0.17281 -0.0997,0.85263 -0.0915,1.44892 -0.86793,0.0146 -1.37455,0.0338 -1.43981,0.0538 l -0.70127,1.96638 c 0.0539,0.44195 0.70127,1.36571 0.70127,1.36571 0.0445,0.0487 0.59252,0.0811 1.34211,0.101 l 0.17014,-0.52161 h 1.53586 v 0.45703 0.0857 c 0.3174,7.7e-4 0.63572,-0.002 0.95297,-0.004 v -0.082 -0.45703 h 1.53585 l 0.16724,0.51291 c 0.72403,-0.0207 1.2546,-0.0513 1.34501,-0.0923 0,0 0.68328,-1.14473 0.70127,-1.36571 l -0.70127,-1.96638 c -0.10419,-0.0384 -0.90413,-0.0589 -1.73373,-0.0687 0.0115,-0.58177 -0.0213,-1.24041 -0.11551,-1.43402 h -0.57625 v 1.44934 l -0.33118,1.10613 h -1.78713 l -0.39742,-1.0933 v -1.46217 z m 0.70789,0 v 1.42863 l 0.39742,0.99396 h 1.52467 l 0.33119,-0.97409 v -1.4485 z m -1.44642,2.92101 0.21236,0.27571 -0.89377,0.79401 -0.21237,-0.27571 z m 5.55886,0 0.89377,0.79401 -0.21237,0.27571 -0.89378,-0.79401 z m -4.70773,1.62611 -0.12793,0.39203 c 0.42667,0.01 0.89628,0.0155 1.40091,0.0174 v -0.0845 -0.32496 z m 2.48841,0 v 0.32495 0.0807 c 0.49925,-0.004 0.97415,-0.0108 1.3984,-0.0216 l -0.12542,-0.38416 z"
       id="rect1027"
       inkscape:connector-curvature="0"
       sodipodi:nodetypes="cccccccccccccccccccccccccccccccccccccccccccccccccccccccc" />
    <path
       style="opacity:1;vector-effect:none;fill:#000000;fill-opacity:1;stroke:none;stroke-width:0.76613694;stroke-linecap:round;stroke-linejoin:miter;stroke-miterlimit:4;stroke-dasharray:none;stroke-dashoffset:0;stroke-opacity:1"
       d="M 68.654297 65.03125 C 68.238653 65.035974 67.813355 65.069376 67.669922 65.117188 L 66.619141 67.712891 C 64.238218 67.729431 62.153817 67.754363 62.052734 67.783203 C 61.727846 68.108129 60.623047 72.011719 60.623047 72.011719 C 60.661234 72.0448 60.989806 72.07354 61.482422 72.097656 C 61.179804 73.992082 60.84375 81.033203 60.84375 81.033203 C 60.854406 81.050122 60.87617 81.061015 60.890625 81.076172 L 61.435547 82.507812 L 65.96875 82.507812 L 65.8125 83.582031 C 66.109344 83.926724 66.73415 84.015326 67.144531 83.773438 L 67.328125 82.507812 L 67.892578 82.507812 L 67.896484 83.642578 C 68.240384 83.940216 68.871794 83.939964 69.242188 83.640625 L 69.238281 82.507812 L 69.806641 82.507812 L 69.990234 83.773438 C 70.400615 84.015326 71.025459 83.926724 71.322266 83.582031 L 71.166016 82.507812 L 75.923828 82.507812 L 76.396484 81.222656 L 76.394531 81.208984 C 76.395661 81.207854 76.397337 81.206218 76.398438 81.205078 C 76.398438 81.205078 75.895476 73.298697 75.683594 72.091797 C 76.143987 72.068987 76.441266 72.041885 76.511719 72.011719 C 76.511719 72.011719 75.787714 67.974447 75.654297 67.783203 C 75.567271 67.719835 73.143787 67.702106 70.458984 67.701172 L 69.580078 65.117188 C 69.474969 65.050479 69.069941 65.026526 68.654297 65.03125 z M 74.103516 72.140625 L 74.152344 72.755859 C 74.091528 72.576115 74.026609 72.436791 73.957031 72.367188 C 73.821674 72.285931 73.606842 72.214593 73.353516 72.148438 C 73.574609 72.144325 73.900211 72.145337 74.103516 72.140625 z M 63.123047 72.150391 C 63.319556 72.154562 63.627763 72.152664 63.839844 72.15625 C 63.616191 72.220214 63.42095 72.287994 63.292969 72.367188 C 63.201806 72.538123 63.118133 72.847084 63.039062 73.201172 L 63.123047 72.150391 z M 68.644531 72.388672 C 70.667939 72.396231 72.683869 72.58802 73.273438 72.941406 C 73.80431 73.472165 74.041016 78.181641 74.041016 78.181641 C 74.100354 78.83017 72.626953 80.945312 72.626953 80.945312 C 72.154815 81.357659 65.269661 81.534881 64.621094 80.945312 C 64.621094 80.945312 63.207031 78.948091 63.207031 78.181641 C 63.207031 78.181641 63.499358 73.825816 63.970703 72.941406 C 64.589865 72.558162 66.621161 72.38134 68.644531 72.388672 z M 62.576172 79.007812 C 62.979313 80.04603 64.033203 81.544922 64.033203 81.544922 C 64.776939 82.220928 72.671965 82.018043 73.212891 81.544922 C 73.212891 81.544922 74.238076 80.068708 74.65625 79.066406 L 74.677734 79.345703 C 74.187535 80.378132 73.304688 81.669922 73.304688 81.669922 C 72.733828 82.169311 64.402155 82.383459 63.617188 81.669922 C 63.617188 81.669922 62.998273 80.784306 62.505859 79.880859 L 62.576172 79.007812 z "
       transform="matrix(0.26458333,0,0,0.26458333,135.48963,99.590537)"
       id="rect843" />
    <path
       style="fill:none;stroke:#000000;stroke-width:0.07950015;stroke-linecap:butt;stroke-linejoin:miter;stroke-miterlimit:4;stroke-dasharray:none;stroke-opacity:1"
       d="m 153.58853,121.19244 -0.79002,-0.82936 0.091,-1.39554 0.40286,-0.32494"
       id="path910"
       inkscape:connector-curvature="0"
       sodipodi:nodetypes="cccc" />
    <path
       style="fill:none;stroke:#000000;stroke-width:0.07950015;stroke-linecap:butt;stroke-linejoin:miter;stroke-miterlimit:4;stroke-dasharray:none;stroke-opacity:1"
       d="m 153.65783,121.19244 0.79002,-0.82936 -0.091,-1.39554 -0.40287,-0.32494"
       id="path910-3"
       inkscape:connector-curvature="0"
       sodipodi:nodetypes="cccc" />
    <path
       style="fill:none;stroke:#000000;stroke-width:0.07950015;stroke-linecap:butt;stroke-linejoin:miter;stroke-miterlimit:4;stroke-dasharray:none;stroke-opacity:1"
       d="m 152.30936,119.02805 0.57206,-0.0929 1.46234,2e-5 0.68289,0.093"
       id="path944"
       inkscape:connector-curvature="0"
       sodipodi:nodetypes="cccc" />
    <path
       style="opacity:1;vector-effect:none;fill:#000000;fill-opacity:1;stroke:none;stroke-width:0.26234874;stroke-linecap:butt;stroke-linejoin:miter;stroke-miterlimit:4;stroke-dasharray:none;stroke-dashoffset:0;stroke-opacity:1"
       d="M 54.416016 107.86133 C 52.027657 107.86133 52.210172 108.01943 51.162109 108.33789 C 50.544005 108.88059 50.409643 116.12302 51.162109 116.71289 C 51.634135 116.98955 50.555968 117.11791 52.396484 117.14062 L 54.671875 110.76367 C 54.918678 110.6877 56.832916 110.61573 60.113281 110.56055 C 60.110258 110.24949 60.116129 109.93046 60.117188 109.61328 L 59.990234 108.33789 C 59.143696 108.01928 56.80445 107.86133 54.416016 107.86133 z M 51.177734 117.86328 L 51.353516 123.51367 L 53.667969 129.16797 L 59.912109 129.16797 L 59.912109 124.73828 C 58.778553 124.67063 54.721529 124.432 54.625 124.32617 C 54.625 124.32617 52.268207 120.49849 52.064453 118.82812 L 52.378906 117.86328 L 51.177734 117.86328 z M 53.273438 129.47461 L 52.4375 137.21875 L 52.693359 139.36523 C 52.160937 139.39169 51.744921 139.42232 51.673828 139.45898 C 51.62356 139.50925 51.588201 139.76069 51.5625 140.07031 L 51.146484 140.07031 C 51.029319 140.21091 51.029319 141.47464 51.146484 141.58398 L 51.552734 141.58398 C 51.575412 141.86405 51.614553 142.08043 51.675781 142.12109 C 51.842458 142.349 60.824991 142.51734 61.642578 142.12109 C 61.70872 142.06138 61.748934 141.85256 61.775391 141.58398 L 62.195312 141.58398 C 62.281108 141.52124 62.265234 140.15626 62.195312 140.07031 L 61.765625 140.07031 C 61.735389 139.76946 61.697696 139.52335 61.640625 139.45898 C 61.578641 139.41363 61.214843 139.38073 60.744141 139.35352 L 61 137.21875 L 60.162109 129.47461 L 53.273438 129.47461 z M 50.568359 142.68555 L 48.65625 162.36914 L 48.984375 164.96289 L 48.984375 170.88086 L 49.736328 170.88086 L 49.892578 172.12109 L 63.001953 172.12109 L 63.158203 170.88477 L 63.90625 170.88477 L 63.90625 164.96875 L 64.234375 162.37109 L 62.324219 142.68945 L 50.568359 142.68555 z M 49.945312 173.02148 L 49.945312 175.11914 L 51.046875 175.11914 L 51.046875 175.36914 L 51.664062 175.36914 L 51.664062 175.90039 L 53.841797 175.9082 L 54.101562 177.78125 C 54.939824 177.78427 57.925373 177.78919 58.763672 177.79297 L 59.207031 175.93164 L 61.720703 175.94336 L 61.720703 175.375 L 62.210938 175.375 L 62.210938 175.12305 L 62.962891 175.12305 L 62.962891 173.02148 L 49.945312 173.02148 z M 49.132812 176.6543 L 48.884766 178.36133 L 48.205078 178.36133 L 48.205078 181.56836 L 48.425781 181.56836 L 48.417969 181.60547 L 53.369141 181.60547 L 53.363281 181.56836 L 59.203125 181.56836 L 59.195312 181.60547 L 64.146484 181.60547 L 64.140625 181.56836 L 64.681641 181.56836 L 64.681641 178.36133 L 63.681641 178.36133 L 63.435547 176.6543 L 59.90625 176.6543 L 59.660156 178.36133 L 52.898438 178.36133 L 52.654297 176.6543 L 49.132812 176.6543 z "
       transform="matrix(0.26458333,0,0,0.26458333,135.48963,99.590537)"
       id="rect929-2" />
    <path
       style="opacity:1;vector-effect:none;fill:#000000;fill-opacity:1;stroke:none;stroke-width:0.26234874;stroke-linecap:butt;stroke-linejoin:miter;stroke-miterlimit:4;stroke-dasharray:none;stroke-dashoffset:0;stroke-opacity:1"
       d="M 82.447266 107.84961 C 80.059521 107.8497 77.721266 108.00765 76.875 108.32617 L 76.748047 109.60156 C 76.749067 109.91874 76.755015 110.23777 76.751953 110.54883 C 80.032318 110.60401 81.946556 110.67598 82.193359 110.75195 L 84.46875 117.12891 C 86.309229 117.10619 85.229109 116.97783 85.701172 116.70117 C 86.4536 116.1113 86.319238 108.86891 85.701172 108.32617 C 84.653445 108.00782 84.834895 107.84972 82.449219 107.84961 L 82.447266 107.84961 z M 84.484375 117.85156 L 84.800781 118.81641 C 84.597027 120.48681 82.238281 124.31445 82.238281 124.31445 C 82.141714 124.42032 78.086719 124.66086 76.953125 124.72852 L 76.953125 129.15625 L 83.197266 129.15625 L 85.509766 123.50195 L 85.6875 117.85156 L 84.484375 117.85156 z M 76.703125 129.46289 L 75.865234 137.20703 L 76.121094 139.3418 C 75.650354 139.36901 75.286594 139.40191 75.224609 139.44727 C 75.167539 139.51159 75.127892 139.75774 75.097656 140.05859 L 74.669922 140.05859 C 74.599623 140.1445 74.583749 141.50953 74.669922 141.57227 L 75.087891 141.57227 C 75.113969 141.8408 75.156515 142.04966 75.222656 142.10938 C 76.040206 142.50562 85.022776 142.33728 85.189453 142.10938 C 85.250681 142.06871 85.289823 141.85233 85.3125 141.57227 L 85.71875 141.57227 C 85.835915 141.46289 85.835915 140.19919 85.71875 140.05859 L 85.302734 140.05859 C 85.277034 139.74897 85.241674 139.49753 85.191406 139.44727 C 85.120351 139.4106 84.704259 139.37997 84.171875 139.35352 L 84.427734 137.20703 L 83.591797 129.46289 L 76.703125 129.46289 z M 74.326172 142.96094 L 72.414062 162.64258 L 72.744141 165.23633 L 72.744141 171.15625 L 73.492188 171.15625 L 73.615234 172.12109 L 86.792969 172.12109 L 86.916016 171.16016 L 87.662109 171.16016 L 87.662109 165.24414 L 87.990234 162.64648 L 86.080078 142.96484 L 74.326172 142.96094 z M 73.701172 173.02148 L 73.701172 175.39258 L 74.804688 175.39258 L 74.804688 175.64258 L 75.419922 175.64258 L 75.419922 176.17578 L 77.597656 176.18164 L 77.859375 178.05664 C 78.697636 178.0597 81.681232 178.06263 82.519531 178.06641 L 82.962891 176.20703 L 85.478516 176.2168 L 85.478516 175.64844 L 85.96875 175.64844 L 85.96875 175.39648 L 86.71875 175.39648 L 86.71875 173.02148 L 73.701172 173.02148 z M 72.890625 176.92969 L 72.642578 178.63672 L 71.960938 178.63672 L 71.960938 181.8418 L 72.183594 181.8418 L 72.175781 181.88086 L 77.128906 181.88086 L 77.121094 181.8418 L 82.958984 181.8418 L 82.951172 181.88086 L 87.904297 181.88086 L 87.896484 181.8418 L 88.439453 181.8418 L 88.439453 178.63672 L 87.4375 178.63672 L 87.193359 176.92969 L 83.664062 176.92969 L 83.417969 178.63672 L 76.658203 178.63672 L 76.410156 176.92969 L 72.890625 176.92969 z "
       transform="matrix(0.26458333,0,0,0.26458333,135.48963,99.590537)"
       id="rect929-2-1" />
    <path
       style="opacity:1;vector-effect:none;fill:#000000;fill-opacity:1;stroke:none;stroke-width:0.38800323;stroke-linecap:round;stroke-linejoin:miter;stroke-miterlimit:4;stroke-dasharray:none;stroke-dashoffset:0;stroke-opacity:1"
       d="M 94.529297 100.73242 C 92.059797 100.82938 88.73734 102.09708 88.546875 103.94727 C 88.266812 106.69003 90.526693 116.36174 93.751953 117.09766 C 92.681553 114.0952 96.157348 112.46736 98.033203 112.02734 C 98.802791 111.8584 99.582285 111.77394 100.32617 111.77734 L 100.32812 111.77734 C 102.12075 111.78868 103.71105 111.61165 105.61328 113.22656 C 103.79684 108.18887 100.3408 104.03008 96.994141 101.38086 C 96.59833 100.88611 95.651797 100.68835 94.529297 100.73242 z M 100.69727 112.4082 C 99.953426 112.40496 99.173829 112.4894 98.404297 112.6582 C 95.223484 113.35568 93.737066 115.07385 94.107422 116.76367 C 94.32739 117.76702 94.668235 118.71975 96.345703 118.95117 C 95.735196 116.94307 96.840252 115.30819 98.265625 115.17969 C 99.177058 115.09767 100.20928 115.66347 101.01367 117.11719 C 100.93733 116.01648 101.69078 115.43325 102.625 115.55469 C 103.11211 115.5887 104.01742 116.69518 104.52539 117.26562 C 105.77241 116.65402 105.76919 114.93397 105.63086 114.30078 C 105.16494 112.79225 102.93483 112.41983 100.69922 112.4082 L 100.69727 112.4082 z M 98.507812 115.92773 C 96.982087 115.98425 95.81715 117.81252 97.101562 119.8418 C 97.982911 118.0291 100.37055 118.48941 101.73828 119.75 C 101.09862 116.91082 99.694489 115.88378 98.507812 115.92773 z M 102.48438 116.11133 C 101.8507 116.06824 101.33396 116.496 101.16211 117.25977 C 101.56406 117.9315 101.91504 118.80998 102.15039 119.99414 C 102.85879 118.39321 104.5161 119.16134 105.2793 120.08203 C 104.71698 117.36013 103.47146 116.17826 102.48438 116.11133 z M 99.490234 119.18555 C 98.192879 119.14968 96.940524 120.22215 97.650391 121.63867 C 98.93165 120.66083 101.05468 121.06547 101.69531 121.63867 C 101.53451 119.91217 100.49929 119.21344 99.490234 119.18555 z M 103.7793 119.43164 C 102.76013 119.35 101.77826 120.56795 102.47461 122.33398 C 103.41775 121.35615 104.9816 121.76078 105.45312 122.33398 C 105.38742 120.34485 104.57198 119.49514 103.7793 119.43164 z M 105.50586 120.125 C 105.52476 120.2724 105.55526 120.40952 105.57227 120.56641 L 105.57422 120.57031 L 105.48633 120.61328 C 105.66472 121.13682 105.77804 121.76093 105.77539 122.5332 C 106.1849 122.68741 106.57025 122.96591 106.85742 123.33203 C 106.7909 121.44574 106.18863 120.46871 105.50586 120.125 z M 99.923828 121.25391 C 98.904474 121.13261 97.968992 122.13817 98.769531 123.89648 C 99.476001 125.64391 101.76347 124.62814 101.67578 123.75586 C 101.56043 122.12376 100.71666 121.34824 99.923828 121.25391 z M 103.69531 121.98242 C 103.19653 122.03994 102.74282 122.50357 102.76172 124.25 C 102.76361 125.16155 103.32166 125.55388 103.90234 125.61133 C 104.48307 125.66874 105.0886 125.39077 105.17969 124.96289 C 105.63652 123.31804 105.1905 122.3107 104.55078 122.12891 C 104.31091 122.06053 103.99458 121.94791 103.69531 121.98242 z M 105.67578 123.04297 C 105.92258 123.55294 105.90678 124.40636 105.375 125.5 C 105.36744 125.51512 105.3573 125.52634 105.35352 125.54297 C 105.72315 125.61818 106.13805 125.49427 106.38867 125.18359 C 106.89161 123.90385 106.30918 123.11263 105.67773 123.04297 L 105.67578 123.04297 z "
       transform="matrix(0.26458333,0,0,0.26458333,135.48963,99.590537)"
       id="rect1311-3-0-1-4" />
    <path
       style="opacity:1;vector-effect:none;fill:#000000;fill-opacity:1;stroke:none;stroke-width:0.14777368;stroke-linecap:round;stroke-linejoin:miter;stroke-miterlimit:4;stroke-dasharray:none;stroke-dashoffset:0;stroke-opacity:1"
       d="m 147.39235,121.40424 c 0.45504,0.52486 0.89337,1.21959 1.16305,1.67538 h -1.28986 c -0.21475,-0.10367 -0.27398,-1.29773 0,-1.67538 z"
       id="rect1603-4-4"
       inkscape:connector-curvature="0" />
    <path
       style="opacity:1;vector-effect:none;fill:#000000;fill-opacity:1;stroke:none;stroke-width:0.14777368;stroke-linecap:round;stroke-linejoin:miter;stroke-miterlimit:4;stroke-dasharray:none;stroke-dashoffset:0;stroke-opacity:1"
       d="m 158.32757,123.34563 1.24397,-0.0148 c 0,0 1.03225,2.04173 0.93303,2.76933 -0.0702,-0.0205 -1.2383,0.12159 -1.37277,0.48407 0,0 -0.97404,-2.67319 -0.90789,-3.05353 z"
       id="rect1662"
       inkscape:connector-curvature="0"
       sodipodi:nodetypes="cccccc" />
    <path
       style="opacity:1;vector-effect:none;fill:#000000;fill-opacity:1;stroke:none;stroke-width:0.55851465;stroke-linecap:round;stroke-linejoin:miter;stroke-miterlimit:4;stroke-dasharray:none;stroke-dashoffset:0;stroke-opacity:1"
       d="M 40.806641 100.68555 C 39.666602 100.6537 38.567648 100.95904 37.763672 101.73828 C 34.417014 104.3875 30.662904 108.89079 31.869141 111.77344 C 33.164423 109.75498 34.62803 109.60511 37.660156 110.6582 C 39.924018 111.4445 41.907746 113.64372 40.291016 115.69922 C 44.132036 114.96327 46.491 107.04745 46.210938 104.30469 C 46.020473 102.4545 43.314725 100.75561 40.806641 100.68555 z M 33.871094 110.56836 C 33.304958 110.81289 32.670169 111.76858 32.111328 112.82617 C 32.111328 112.82617 30.866852 112.1105 30.625 112.08594 C 30.625 112.08594 28.485921 114.92461 28.599609 115.33594 L 28.886719 115.74609 C 28.886719 115.74609 27.535959 117.41939 27.449219 118.05469 L 27.839844 118.29883 C 27.839844 118.29883 26.09494 120.60217 26.193359 120.94531 C 26.276509 121.22046 27.388672 122.10938 27.388672 122.10938 C 26.601018 122.42912 25.300781 125.2207 25.300781 125.2207 C 25.02601 127.20945 28.960443 129.53572 30.609375 128.50391 C 30.609375 128.50391 32.667119 126.17269 32.90625 125.13086 L 34.351562 126.03125 C 34.961125 125.71566 36 123.38477 36 123.38477 L 36.392578 123.62891 C 36.815092 123.40516 37.935547 121.1543 37.935547 121.1543 L 38.328125 121.39844 C 38.6097 121.24952 40.351562 118.15039 40.351562 118.15039 C 40.244602 117.67307 39.046875 117.01172 39.046875 117.01172 C 39.726396 116.02893 40.21749 115.12071 40.287109 114.56641 C 40.006668 111.9091 36.183144 110.38483 33.871094 110.56836 z M 26.710938 124.65625 C 26.82811 124.64677 26.953446 124.64967 27.085938 124.66211 C 27.615827 124.71238 28.252624 124.93398 28.869141 125.31836 C 30.102211 126.08689 30.790515 127.20966 30.40625 127.82617 C 30.021985 128.44269 28.711549 128.31942 27.478516 127.55078 C 26.245407 126.78225 25.557142 125.66144 25.941406 125.04492 C 26.085406 124.81361 26.35942 124.68469 26.710938 124.65625 z "
       transform="matrix(0.26458333,0,0,0.26458333,135.48963,99.590537)"
       id="rect1687" />
    <path
       style="opacity:1;vector-effect:none;fill:#000000;fill-opacity:1;stroke:none;stroke-width:0.14777368;stroke-linecap:round;stroke-linejoin:miter;stroke-miterlimit:4;stroke-dasharray:none;stroke-dashoffset:0;stroke-opacity:1"
       d="m 148.45722,123.28415 -1.24396,-0.0148 c 0,0 -1.01572,2.61637 -0.93304,2.76933 0.19017,-0.0909 1.19622,0.15754 1.33264,0.51721 l 0.94803,-3.08668 z"
       id="rect1662-6"
       inkscape:connector-curvature="0"
       sodipodi:nodetypes="cccccc" />
    <path
       sodipodi:nodetypes="cccccccccccccc"
       style="opacity:1;vector-effect:none;fill:#000000;fill-opacity:1;stroke:none;stroke-width:0.11268437;stroke-linecap:round;stroke-linejoin:miter;stroke-miterlimit:4;stroke-dasharray:none;stroke-dashoffset:0;stroke-opacity:1"
       d="m 159.25562,118.78006 c -0.13738,-0.004 -0.25523,0.037 -0.32246,0.12506 l -5.2e-4,-5.2e-4 -0.0114,0.0176 -0.55345,1.05679 c 0.0122,0.10098 0.42077,0.42909 0.82372,0.58652 0.0824,-0.009 0.0482,0.0105 0.28215,-0.23719 l 0.54674,-0.69453 0.0114,-0.0171 -0.001,-5.1e-4 c 0.10579,-0.19484 -0.0409,-0.49696 -0.33383,-0.68678 l -5.1e-4,-5.2e-4 c -0.14652,-0.0948 -0.30343,-0.14455 -0.4408,-0.14883 z"
       id="path1895-6"
       inkscape:connector-curvature="0" />
    <path
       sodipodi:nodetypes="ccccccc"
       style="opacity:1;vector-effect:none;fill:#000000;fill-opacity:1;stroke:none;stroke-width:0.16500001;stroke-linecap:round;stroke-linejoin:miter;stroke-miterlimit:4;stroke-dasharray:none;stroke-dashoffset:0;stroke-opacity:1"
       d="m 158.51974,120.24664 c -0.0526,0.0242 -0.41082,0.62425 -0.41082,0.62425 -0.0438,0.10231 0.1325,0.24323 0.40862,0.24097 0.10609,-0.16154 0.0634,-0.0743 0.29542,-0.42989 0.0486,-0.0719 0.10629,-0.16536 0.10881,-0.17365 -0.0735,-0.0174 -0.39124,-0.2223 -0.40205,-0.262 z"
       id="rect1932-4"
       inkscape:connector-curvature="0" />
    <path
       sodipodi:nodetypes="ccccccccccccccccc"
       style="opacity:1;vector-effect:none;fill:#000000;fill-opacity:1;stroke:none;stroke-width:0.0946251;stroke-linecap:round;stroke-linejoin:miter;stroke-miterlimit:4;stroke-dasharray:none;stroke-dashoffset:0;stroke-opacity:1"
       d="m 158.14944,118.78309 c -0.24457,0.006 -0.44328,0.11974 -0.47181,0.28009 h -0.001 l -0.002,0.0171 -0.007,1.00149 c 0.0496,0.0731 0.43525,0.12562 0.70074,0.11885 -0.12169,-0.0914 -0.22139,-0.17894 -0.22738,-0.22841 l 0.52917,-1.01079 c -0.0925,-0.09 -0.24102,-0.15693 -0.41393,-0.17415 -0.0365,-0.004 -0.072,-0.005 -0.10697,-0.004 z m -0.26459,1.44022 c -0.0299,0.0383 -0.0657,0.64751 -0.0657,0.64751 0.0278,0.0249 0.0753,0.0122 0.0753,0.0122 0.009,-0.0152 0.30209,-0.54211 0.38,-0.61932 -0.0727,0.0126 -0.36686,-0.0155 -0.38964,-0.0403 z"
       id="path1895-49"
       inkscape:connector-curvature="0" />
    <path
       style="opacity:1;vector-effect:none;fill:#000000;fill-opacity:1;stroke:none;stroke-width:0.19601154;stroke-linecap:round;stroke-linejoin:miter;stroke-miterlimit:4;stroke-dasharray:none;stroke-dashoffset:0;stroke-opacity:1"
       d="m 158.85827,121.00767 c -0.11428,0.0729 -0.15143,0.70901 -0.082,0.92047 0.21142,0.16014 0.46744,0.27083 0.73889,0.2389 0.3309,0 0.59917,-0.29464 0.59917,-0.65809 0,-0.36345 -0.26827,-0.65809 -0.59917,-0.65809 -0.31547,-0.0187 -0.40454,0.0499 -0.65692,0.15681 z"
       id="path1987"
       inkscape:connector-curvature="0"
       sodipodi:nodetypes="cccsccc" />
    <path
       style="opacity:1;vector-effect:none;fill:#000000;fill-opacity:1;stroke:none;stroke-width:0.16032304;stroke-linecap:round;stroke-linejoin:miter;stroke-miterlimit:4;stroke-dasharray:none;stroke-dashoffset:0;stroke-opacity:1"
       d="m 158.30997,121.19725 c 0,0 0.33393,-0.0119 0.37879,0.0221 -0.028,0.0286 -0.0486,0.40116 -0.0284,0.47298 -0.0292,0.006 -0.39369,-0.0353 -0.39369,-0.0353 -0.13447,-0.0395 -0.10286,-0.3677 0.0433,-0.45978 z"
       id="rect1932-2"
       inkscape:connector-curvature="0"
       sodipodi:nodetypes="ccccc" />
    <path
       id="rect9914"
       style="stroke-width:0.416695;stroke-linejoin:round"
       d="m 150.27942,119.27063 1.26045,0.0182 -0.0999,1.28577 h -1.16051 z"
       sodipodi:nodetypes="ccccc" />
    <path
       id="rect9914-9"
       style="stroke-width:0.416695;stroke-linejoin:round"
       d="m 156.97103,119.27063 -1.26045,0.0182 0.0999,1.28577 h 1.16051 z"
       sodipodi:nodetypes="ccccc" />
  </g>
</svg>
