<?xml version="1.0" encoding="UTF-8" standalone="no"?>
<!-- Created with Inkscape (http://www.inkscape.org/) -->

<svg
   sodipodi:docname="Centurion Gladiator.svg"
   inkscape:version="1.1.2 (0a00cf5339, 2022-02-04)"
   id="svg8"
   version="1.1"
   viewBox="0 0 34.98301 52.516205"
   height="52.516205mm"
   width="34.983009mm"
   xmlns:inkscape="http://www.inkscape.org/namespaces/inkscape"
   xmlns:sodipodi="http://sodipodi.sourceforge.net/DTD/sodipodi-0.dtd"
   xmlns="http://www.w3.org/2000/svg"
   xmlns:svg="http://www.w3.org/2000/svg"
   xmlns:rdf="http://www.w3.org/1999/02/22-rdf-syntax-ns#"
   xmlns:cc="http://creativecommons.org/ns#"
   xmlns:dc="http://purl.org/dc/elements/1.1/">
  <defs
     id="defs2" />
  <sodipodi:namedview
     id="base"
     pagecolor="#ffffff"
     bordercolor="#666666"
     borderopacity="1.0"
     inkscape:pageopacity="0.0"
     inkscape:pageshadow="2"
     inkscape:zoom="2.8284271"
     inkscape:cx="-16.086679"
     inkscape:cy="137.70905"
     inkscape:document-units="mm"
     inkscape:current-layer="layer1"
     showgrid="false"
     inkscape:window-width="1846"
     inkscape:window-height="1016"
     inkscape:window-x="74"
     inkscape:window-y="1107"
     inkscape:window-maximized="1"
     inkscape:snap-global="false"
     fit-margin-top="0"
     fit-margin-left="0"
     fit-margin-right="0"
     fit-margin-bottom="0"
     showguides="false"
     inkscape:guide-bbox="true"
     inkscape:pagecheckerboard="0" />
  <metadata
     id="metadata5">
    <rdf:RDF>
      <cc:Work
         rdf:about="">
        <dc:format>image/svg+xml</dc:format>
        <dc:type
           rdf:resource="http://purl.org/dc/dcmitype/StillImage" />
        <dc:title />
      </cc:Work>
    </rdf:RDF>
  </metadata>
  <g
     inkscape:label="Capa 1"
     inkscape:groupmode="layer"
     id="layer1"
     transform="translate(-135.48963,-99.590537)">
    <path
       id="path878"
       style="fill:#000000;stroke:none;stroke-width:1.16031;stroke-linejoin:round"
       d="M 23.550781 60.996094 C 21.809666 61.519558 20.185439 62.331435 18.416016 62.777344 L 18.712891 65.287109 L 18.017578 65.476562 C 17.420189 65.639997 16.328822 65.992295 15.048828 66.466797 L 18.267578 87.0625 C 19.657755 86.534642 21.09858 85.95752 22.486328 85.386719 L 22.654297 87.455078 L 22.673828 87.451172 L 22.673828 87.453125 L 23.904297 87.484375 L 25.695312 102.32812 C 25.314696 102.52848 24.930778 102.71613 24.535156 102.86133 L 24.851562 106.76172 L 24.871094 106.75781 L 24.871094 106.75977 L 25.925781 106.78711 L 26.121094 108.96875 C 30.291311 111.36958 30.489456 109.30881 30.373047 108.19922 C 30.401601 107.31421 30.330441 106.36724 30.275391 105.79883 L 31.359375 105.17969 L 31.667969 105.10547 L 31.189453 103.05664 L 30.888672 101.72266 L 30.876953 101.7207 L 30.861328 101.65625 L 30.699219 101.67969 L 29.876953 101.49219 L 28.419922 86.296875 L 29.162109 85.873047 L 29.470703 85.798828 L 28.992188 83.75 L 28.757812 82.707031 C 29.854691 82.22241 30.669922 81.857422 30.669922 81.857422 C 32.649412 80.611879 29.574681 62.679671 28.751953 62.554688 L 28.03125 62.75 L 27.667969 61.640625 L 27.652344 61.638672 L 27.628906 61.574219 L 27.392578 61.597656 L 23.550781 60.996094 z M 68.654297 65.03125 C 68.238653 65.035974 67.813355 65.069376 67.669922 65.117188 L 66.619141 67.712891 C 64.238218 67.729431 62.153817 67.754363 62.052734 67.783203 C 61.727846 68.108129 60.623047 72.011719 60.623047 72.011719 C 60.661234 72.0448 60.989806 72.07354 61.482422 72.097656 C 61.179804 73.992082 60.84375 81.033203 60.84375 81.033203 C 60.854406 81.050122 60.87617 81.061015 60.890625 81.076172 L 61.435547 82.507812 L 65.96875 82.507812 L 65.8125 83.582031 C 66.109344 83.926724 66.73415 84.015325 67.144531 83.773438 L 67.328125 82.507812 L 67.892578 82.507812 L 67.896484 83.642578 C 68.240384 83.940216 68.871794 83.939964 69.242188 83.640625 L 69.238281 82.507812 L 69.806641 82.507812 L 69.990234 83.773438 C 70.400615 84.015325 71.025459 83.926724 71.322266 83.582031 L 71.166016 82.507812 L 75.923828 82.507812 L 76.396484 81.222656 L 76.394531 81.208984 C 76.395661 81.207854 76.397337 81.206218 76.398438 81.205078 C 76.398438 81.205078 75.895476 73.298697 75.683594 72.091797 C 76.143987 72.068987 76.441266 72.041885 76.511719 72.011719 C 76.511719 72.011719 75.787714 67.974447 75.654297 67.783203 C 75.567271 67.719835 73.143787 67.702106 70.458984 67.701172 L 69.580078 65.117188 C 69.474969 65.050479 69.069941 65.026526 68.654297 65.03125 z M 24.855469 65.160156 A 1.5740824 0.97283642 82.764253 0 1 25.195312 65.224609 A 1.5740824 0.97283642 82.764253 0 1 25.271484 65.257812 A 1.5740824 0.97283642 82.764253 0 1 25.576172 65.515625 A 1.5740824 0.97283642 82.764253 0 1 25.626953 65.587891 A 1.5740824 0.97283642 82.764253 0 1 25.833984 65.945312 A 1.5740824 0.97283642 82.764253 0 1 25.878906 66.044922 A 1.5740824 0.97283642 82.764253 0 1 26.019531 66.599609 A 1.5740824 0.97283642 82.764253 0 1 25.251953 68.283203 A 1.5740824 0.97283642 82.764253 0 1 24.087891 66.845703 A 1.5740824 0.97283642 82.764253 0 1 24.085938 66.308594 A 1.5740824 0.97283642 82.764253 0 1 24.099609 66.185547 A 1.5740824 0.97283642 82.764253 0 1 24.21875 65.748047 A 1.5740824 0.97283642 82.764253 0 1 24.261719 65.662109 A 1.5740824 0.97283642 82.764253 0 1 24.488281 65.34375 A 1.5740824 0.97283642 82.764253 0 1 24.533203 65.310547 A 1.5740824 0.97283642 82.764253 0 1 24.855469 65.160156 z M 13.736328 66.972656 C 11.231744 67.976133 8.4341967 69.322787 7.203125 70.634766 L 10.318359 89.236328 C 11.217094 89.462482 13.856583 88.682246 16.947266 87.554688 L 13.736328 66.972656 z M 25.775391 69.75 A 1.5740824 0.97283641 82.764253 0 1 26.873047 71.191406 A 1.5740824 0.97283641 82.764253 0 1 26.105469 72.876953 A 1.5740824 0.97283641 82.764253 0 1 24.943359 71.4375 A 1.5740824 0.97283641 82.764253 0 1 25.708984 69.753906 A 1.5740824 0.97283641 82.764253 0 1 25.775391 69.75 z M 74.103516 72.140625 L 74.152344 72.755859 C 74.091528 72.576115 74.026609 72.43679 73.957031 72.367188 C 73.821674 72.285931 73.606842 72.214592 73.353516 72.148438 C 73.574609 72.144325 73.900211 72.145337 74.103516 72.140625 z M 63.123047 72.150391 C 63.319556 72.154562 63.627763 72.152664 63.839844 72.15625 C 63.616191 72.220214 63.42095 72.287994 63.292969 72.367188 C 63.201806 72.538122 63.118133 72.847084 63.039062 73.201172 L 63.123047 72.150391 z M 68.644531 72.388672 C 69.125635 72.390469 69.605221 72.403458 70.066406 72.425781 L 70.916016 73.113281 L 66.15625 73.113281 L 67.007812 72.425781 C 67.535546 72.399523 68.088529 72.386657 68.644531 72.388672 z M 66.490234 72.457031 L 65.664062 73.125 L 63.800781 73.427734 C 63.854435 73.220674 63.911093 73.053255 63.970703 72.941406 C 64.363217 72.698451 65.324484 72.539744 66.490234 72.457031 z M 70.583984 72.457031 C 71.835477 72.541794 72.877804 72.704264 73.273438 72.941406 C 73.35046 73.018412 73.421515 73.190231 73.486328 73.416016 L 71.423828 73.134766 L 70.583984 72.457031 z M 89.728516 72.527344 C 89.250817 72.53313 88.843685 72.687976 88.605469 73 L 88.603516 72.998047 L 88.560547 73.064453 L 86.46875 77.058594 C 86.514564 77.437797 88.039353 78.664308 89.552734 79.263672 L 88.177734 79.673828 C 88.355032 79.408761 88.553445 79.088383 88.5625 79.058594 C 88.285726 78.993072 87.092146 78.224364 87.042969 78.070312 C 86.844166 78.161777 85.490234 80.429688 85.490234 80.429688 C 85.482475 80.447813 85.476807 80.465679 85.472656 80.484375 L 84.810547 80.681641 C 84.460722 80.728101 84.081491 80.66459 84.029297 80.572266 L 84.060547 79.865234 C 83.17523 79.825884 83.618476 79.750721 82.623047 79.71875 C 82.88767 79.442466 83.118154 78.879639 84.320312 78.529297 C 84.362382 78.217625 84.339844 78.220703 84.339844 78.220703 C 83.917397 77.986009 82.863912 77.825212 81.207031 77.705078 L 81.207031 73.871094 L 76.443359 73.939453 L 76.722656 77.509766 L 76.728516 77.597656 C 76.872208 79.648152 76.998047 81.583984 76.998047 81.583984 C 76.994947 81.584854 76.990234 81.586691 76.990234 81.587891 L 76.992188 81.603516 L 76.480469 82.990234 L 71.974609 82.990234 C 71.974609 82.990234 72.137649 84.005874 71.324219 84.28125 L 65.664062 84.28125 C 64.725273 84.11873 64.912109 82.990234 64.912109 82.990234 L 60.818359 82.990234 L 60.230469 81.443359 C 60.215349 81.428239 60.189824 81.413464 60.177734 81.396484 C 60.177734 81.396484 60.264611 79.716343 60.365234 77.982422 L 60.679688 73.939453 L 55.916016 73.871094 L 55.916016 77.757812 C 53.493079 77.887669 51.711469 78.048611 51.324219 78.242188 C 52.059488 78.644889 52.656293 79.159758 53.150391 79.71875 C 48.616469 79.857837 45.232247 80.058077 44.373047 80.322266 C 47.964354 82.82779 50.636719 90.597656 50.636719 90.597656 L 57.84375 90.597656 L 58.552734 105.16016 L 70.541016 105.16016 L 70.703125 105.69922 L 63.673828 105.69922 L 63.673828 111.09766 L 65.175781 114.85547 L 70.9375 114.85547 L 72.189453 111.17383 L 72.189453 110.66992 L 72.513672 111.75195 L 71.433594 115.35547 L 64.679688 115.35547 L 63.177734 111.22461 L 63.177734 105.69727 L 60.998047 105.69922 C 60.732346 106.35236 60.621352 108.92209 60.652344 111.17578 C 57.371978 111.23096 55.455636 111.30332 55.208984 111.37891 L 52.558594 118.81055 C 52.76231 120.48091 55.208984 123.97266 55.208984 123.97266 C 55.377173 124.15672 57.450107 124.2783 60.283203 124.35352 L 60.925781 122.38281 L 66.730469 122.38281 L 66.730469 124.10938 L 66.730469 124.43359 C 67.930091 124.4365 69.132976 124.42553 70.332031 124.41797 L 70.332031 124.10938 L 70.332031 122.38086 L 75.693359 122.38086 L 76.953125 126.59375 L 76.953125 129.15625 L 77.720703 129.15625 L 77.8125 129.46289 L 76.703125 129.46289 L 75.865234 137.20703 L 76.121094 139.3418 C 75.650354 139.36901 75.286594 139.40191 75.224609 139.44727 C 75.167539 139.51159 75.127892 139.75774 75.097656 140.05859 L 74.669922 140.05859 C 74.599623 140.1445 74.583749 141.50953 74.669922 141.57227 L 75.087891 141.57227 C 75.113969 141.8408 75.156515 142.04966 75.222656 142.10938 C 76.040206 142.50558 85.022776 142.33724 85.189453 142.10938 C 85.240641 142.07537 85.273276 141.90361 85.296875 141.68945 L 85.685547 141.57227 L 85.71875 141.57227 C 85.719822 141.57127 85.719651 141.56369 85.720703 141.5625 L 119.84961 131.35156 C 121.06863 130.98691 121.75723 129.71317 121.39258 128.49414 L 105.91797 76.765625 C 105.62169 75.775167 104.72599 75.134507 103.74609 75.125 C 103.71779 75.124726 103.68856 75.124216 103.66016 75.125 C 103.46136 75.1305 103.26054 75.162826 103.06055 75.222656 L 89.910156 79.15625 C 90.028014 79.050206 90.21808 78.834539 90.648438 78.378906 L 92.714844 75.753906 L 92.757812 75.689453 L 92.753906 75.6875 C 93.153742 74.951097 92.599325 73.809227 91.492188 73.091797 L 91.490234 73.089844 C 90.936458 72.731545 90.343412 72.54352 89.824219 72.527344 C 89.791767 72.526399 89.760362 72.526958 89.728516 72.527344 z M 85.642578 72.539062 C 84.718219 72.56174 83.967205 72.991609 83.859375 73.597656 L 83.855469 73.597656 L 83.849609 73.662109 L 83.822266 77.447266 C 84.00973 77.723549 85.467276 77.922072 86.470703 77.896484 C 86.010772 77.551036 85.633967 77.220176 85.611328 77.033203 L 87.611328 73.212891 C 87.261722 72.872733 86.700393 72.619771 86.046875 72.554688 C 85.908922 72.539569 85.774748 72.535283 85.642578 72.539062 z M 63.792969 73.464844 L 65.599609 73.464844 L 65.265625 78.5625 L 67.890625 81.322266 C 66.319999 81.309166 64.898668 81.197637 64.621094 80.945312 C 64.621094 80.945312 63.207031 78.948091 63.207031 78.181641 C 63.207031 78.181641 63.427621 74.913125 63.792969 73.464844 z M 65.898438 73.464844 L 71.173828 73.464844 L 71.496094 78.451172 L 68.767578 81.318359 C 68.613622 81.320488 68.462265 81.321877 68.308594 81.322266 L 65.576172 78.453125 L 65.898438 73.464844 z M 71.470703 73.464844 L 73.498047 73.464844 C 73.870717 74.827599 74.041016 78.181641 74.041016 78.181641 C 74.100354 78.83017 72.626953 80.945312 72.626953 80.945312 C 72.413059 81.132119 70.873261 81.263829 69.203125 81.304688 L 71.806641 78.5625 L 71.470703 73.464844 z M 102.38672 77.902344 C 102.43012 77.902019 102.47352 77.90355 102.51758 77.90625 C 103.57568 77.9704 104.77803 78.886273 104.53125 79.876953 C 104.39444 80.426166 107.33855 90.808744 110.55469 101.63281 C 110.42343 101.64331 110.2914 101.66393 110.16016 101.70312 L 101.0918 104.41602 C 101.30627 104.99897 101.50999 105.59208 101.69336 106.20508 C 101.87696 106.81892 102.03275 107.42909 102.17383 108.03516 L 111.24414 105.32227 C 111.3737 105.28347 111.49536 105.22997 111.60938 105.16797 C 114.88149 116.07049 118.13911 126.44071 118.52539 126.6543 C 119.69905 127.30388 118.26105 130.10023 116.99219 129.72266 C 116.10154 129.45771 86.543977 138.59646 85.476562 139.15039 C 85.100449 139.3455 84.639948 139.31361 84.193359 139.16797 C 83.741209 139.02068 83.308482 138.74566 82.992188 138.43359 C 82.968694 138.41003 82.949834 138.38527 82.927734 138.36133 C 82.814946 138.24083 82.728209 138.11495 82.658203 137.99023 C 82.62845 137.93644 82.592661 137.88329 82.572266 137.83008 C 82.555763 137.7874 82.539173 137.74502 82.529297 137.70312 C 82.524554 137.68281 82.518744 137.66262 82.515625 137.64258 C 82.504109 137.56908 82.499526 137.49643 82.511719 137.42773 C 82.534859 137.29743 82.326045 136.43428 81.972656 135.12109 C 81.90983 134.88825 81.793175 134.48954 81.720703 134.22656 C 81.370886 132.95459 80.949902 131.46065 80.408203 129.59375 C 80.392935 129.54111 80.386482 129.5159 80.371094 129.46289 L 80.369141 129.46289 C 79.242145 125.58147 77.810896 120.76484 76.298828 115.74805 C 76.384728 115.73475 76.470942 115.72482 76.556641 115.69922 L 85.953125 112.88867 C 85.738071 112.30432 85.658004 111.51343 85.480469 110.91992 C 85.303233 110.32742 85.010045 109.87276 84.869141 109.26758 L 75.472656 112.07812 C 75.383016 112.10492 75.301116 112.14532 75.21875 112.18359 C 74.527746 109.90396 73.976698 108.13421 73.318359 105.98242 C 73.288865 105.88604 73.261936 105.79367 73.232422 105.69727 L 73.230469 105.69727 C 73.173709 105.51183 73.122675 105.34384 73.066406 105.16016 L 73.068359 105.16016 C 72.77282 104.19568 72.468119 103.18819 72.189453 102.2832 L 72.185547 102.2832 C 72.153522 102.17916 72.117703 102.06212 72.085938 101.95898 L 72.089844 101.95898 C 71.99486 101.6507 71.879627 101.27043 71.787109 100.9707 C 71.785963 100.97215 71.78436 100.97318 71.783203 100.97461 C 71.677799 100.63299 71.547214 100.19869 71.445312 99.869141 C 71.447228 99.869735 71.449261 99.870488 71.451172 99.871094 C 71.38428 99.654857 71.289894 99.343524 71.224609 99.132812 C 71.222486 99.132759 71.220868 99.130931 71.21875 99.130859 C 71.105128 98.763981 70.94036 98.215965 70.832031 97.867188 C 70.832031 97.867188 70.833984 97.865234 70.833984 97.865234 C 70.449822 96.62933 70.171176 95.751116 69.867188 94.787109 L 69.867188 94.792969 C 69.760851 94.45538 69.635878 94.054782 69.541016 93.755859 L 69.541016 93.748047 C 69.516834 93.671921 69.519707 93.685542 69.496094 93.611328 C 68.974839 91.970792 68.583922 90.769453 68.517578 90.650391 C 67.844822 89.444873 68.743367 87.519442 70.050781 87.582031 C 70.133103 87.585961 70.328832 87.554704 70.613281 87.494141 C 70.882745 87.436817 71.252198 87.347664 71.677734 87.240234 C 71.680169 87.239618 71.685061 87.238899 71.6875 87.238281 C 72.567396 87.015956 73.786319 86.683592 75.181641 86.292969 C 75.189216 86.290844 75.201397 86.287285 75.208984 86.285156 C 83.983504 83.827648 100.88518 78.668292 101.56836 78.154297 C 101.79725 77.982121 102.08275 77.904615 102.38672 77.902344 z M 84.642578 77.982422 C 84.52957 78.127178 84.394531 80.429688 84.394531 80.429688 C 84.499602 80.523798 84.679688 80.474609 84.679688 80.474609 C 84.713703 80.417161 85.820771 78.426583 86.115234 78.134766 C 85.840463 78.182388 84.728676 78.076154 84.642578 77.982422 z M 62.576172 79.007812 C 62.979313 80.04603 64.033203 81.544922 64.033203 81.544922 C 64.776939 82.220928 72.671965 82.018043 73.212891 81.544922 C 73.212891 81.544922 74.238076 80.068708 74.65625 79.066406 L 74.677734 79.345703 C 74.187535 80.378132 73.304688 81.669922 73.304688 81.669922 C 72.733828 82.169311 64.402154 82.383459 63.617188 81.669922 C 63.617188 81.669922 62.998273 80.784306 62.505859 79.880859 L 62.576172 79.007812 z M 102.30078 81.033203 L 94.773438 93.460938 L 97.984375 96.664062 L 102.30078 81.033203 z M 44.507812 82.445312 C 43.472298 83.872651 43.696159 88.38552 44.507812 88.777344 L 49.382812 88.777344 C 48.36355 87.054673 46.706164 84.429035 44.986328 82.445312 L 44.507812 82.445312 z M 86.287109 84.308594 L 88.039062 93.535156 L 89.802734 93.007812 L 86.287109 84.308594 z M 44.15625 89.248047 C 44.15625 89.248047 42.224 94.223705 41.212891 97.322266 A 8.2090272 5.8707684 36.824846 0 1 43.080078 98.455078 A 8.2090272 5.8707684 36.824846 0 1 45.767578 101.33984 L 49.248047 90.003906 L 48.857422 89.302734 L 44.15625 89.248047 z M 64.382812 90.375 C 65.160988 90.375 65.862744 90.698404 66.369141 91.214844 L 67.119141 93.71875 C 66.865322 94.998551 65.736673 95.964844 64.382812 95.964844 C 62.842473 95.964844 61.583984 94.714212 61.583984 93.173828 C 61.583984 91.633482 62.842473 90.375 64.382812 90.375 z M 71.019531 90.390625 L 83.208984 101.08398 L 84.134766 96.644531 L 71.019531 90.390625 z M 64.382812 90.947266 C 63.151185 90.947266 62.158203 91.942156 62.158203 93.173828 C 62.158203 94.405538 63.151185 95.396484 64.382812 95.396484 C 65.614523 95.396484 66.607422 94.405538 66.607422 93.173828 C 66.607422 91.942156 65.614523 90.947266 64.382812 90.947266 z M 51.873047 91.306641 C 50.45323 93.311075 50.286174 103.67348 51.873047 105.00977 L 57.726562 105.00977 L 57.058594 91.306641 L 51.873047 91.306641 z M 90.175781 94.232422 C 89.819902 94.243452 89.475343 94.298877 89.142578 94.398438 C 85.102642 95.606546 83.723533 102.92613 86.0625 110.74609 C 88.401331 118.56562 93.571383 123.92604 97.611328 122.71875 C 101.65126 121.51064 103.03038 114.19104 100.69141 106.37109 C 98.575154 99.295551 94.085144 94.112457 90.175781 94.232422 z M 37.90625 97.578125 A 8.2090272 5.8707684 36.824846 0 0 33.494141 99.460938 A 8.2090272 5.8707684 36.824846 0 0 32.898438 100.56836 A 8.2090272 5.8707684 36.824846 0 0 32.896484 100.57227 L 31.724609 102.51562 C 32.032505 103.62839 32.53125 105.25977 32.53125 105.25977 C 32.53125 105.25977 35.697024 105.63331 36.617188 106.6582 C 37.910352 108.12466 37.259766 112.02148 37.259766 112.02148 C 37.259766 112.02148 38.108128 112.99607 38.609375 114.52734 A 6.6698013 4.7699757 36.824846 0 0 39.720703 114.10156 A 6.6698013 4.7699757 36.824846 0 0 40.130859 113.83594 L 45.712891 110.2168 L 45.705078 110.20898 A 8.2090272 5.8707684 36.824846 0 0 46.636719 109.30078 A 8.2090272 5.8707684 36.824846 0 0 43.583984 99.681641 A 8.2090272 5.8707684 36.824846 0 0 37.90625 97.578125 z M 69.541016 101.81641 L 69.681641 102.2832 L 69.541016 102.2832 L 69.541016 101.81641 z M 93.402344 103.54102 C 95.46654 103.62872 97.289814 105.10595 97.916016 107.20117 C 98.714414 109.87132 97.328932 112.64307 94.822266 113.39258 C 92.315527 114.1419 89.636154 112.58623 88.837891 109.91602 C 88.039493 107.24588 89.424976 104.47412 91.931641 103.72461 C 92.407485 103.58223 92.902925 103.51994 93.402344 103.54102 z M 33.027344 106.56445 C 32.970896 106.56421 32.939453 106.56641 32.939453 106.56641 C 31.760203 107.09282 30.683594 108.55469 30.683594 108.55469 L 33.361328 109.22461 L 34.037109 108.75977 C 33.309437 110.03774 33.475227 110.79717 33.544922 112.17969 C 33.753174 112.9306 35.384766 112.58594 35.384766 112.58594 C 36.518926 111.01324 35.878906 107.51953 35.878906 107.51953 C 35.054218 106.62986 33.42248 106.56617 33.027344 106.56445 z M 54.416016 107.86133 C 52.027657 107.86133 52.210172 108.01943 51.162109 108.33789 C 50.544005 108.88059 50.409643 116.12302 51.162109 116.71289 C 51.634135 116.98955 50.555968 117.11795 52.396484 117.14062 L 54.671875 110.76367 C 54.918678 110.6877 56.832916 110.61573 60.113281 110.56055 C 60.110258 110.24949 60.116129 109.93046 60.117188 109.61328 L 59.990234 108.33789 C 59.143696 108.01928 56.80445 107.86133 54.416016 107.86133 z M 30.498047 109.01562 C 30.498047 109.01562 30.535751 111.63637 30.681641 111.80078 C 30.734063 112.34394 31.539062 113.34375 31.539062 113.34375 C 32.575598 113.87364 33.076172 112.78906 33.076172 112.78906 C 33.402345 112.40756 33.164062 109.69531 33.164062 109.69531 L 30.498047 109.01562 z M 25.404297 109.40234 L 23.507812 110.45898 L 23.339844 113.19531 L 27.630859 114.57227 L 27.609375 111.75195 L 28.433594 110.35547 L 25.404297 109.40234 z M 30.130859 110.41992 L 28.785156 110.57031 L 28.064453 111.83789 L 28.097656 114.50977 L 31.005859 113.60352 C 30.771669 113.28865 30.327488 112.64814 30.289062 112.25 C 30.202368 112.1523 30.15553 111.18741 30.130859 110.41992 z M 36.347656 113.06641 C 36.282443 113.06567 36.214731 113.07408 36.144531 113.0918 C 36.144531 113.0918 34.081559 113.70645 33.783203 113.20898 C 33.768085 113.39267 33.861397 114.73124 32.425781 114.4082 C 32.425781 114.4082 33.79008 116.19168 32.974609 118.16992 L 34.177734 120.36133 C 34.177734 120.36133 37.667348 118.15939 37.71875 116.1875 C 37.747096 115.06789 37.325851 113.07738 36.347656 113.06641 z M 24.755859 113.85352 L 22.859375 114.91016 L 22.693359 117.64648 L 27.513672 119.23047 L 27.492188 116.41016 L 28.316406 115.01367 L 24.755859 113.85352 z M 30.748047 114.82812 L 28.628906 115.0918 L 27.90625 116.36133 L 27.939453 119.03125 L 31.560547 117.9668 C 32.779558 117.1796 32.249124 114.80208 30.748047 114.82812 z M 103.83398 116.2207 L 102.9082 120.66016 L 116.02344 126.91406 L 103.83398 116.2207 z M 58.207031 116.73828 L 59.007812 117.78125 L 55.630859 120.78125 L 54.828125 119.74023 L 58.207031 116.73828 z M 51.177734 117.86328 L 51.353516 123.51367 L 53.667969 129.16797 L 59.912109 129.16797 L 59.912109 124.73828 C 58.778553 124.67063 54.721529 124.432 54.625 124.32617 C 54.625 124.32617 52.268207 120.49849 52.064453 118.82812 L 52.378906 117.86328 L 51.177734 117.86328 z M 25.421875 119.02734 L 23.912109 119.76367 L 23.779297 121.67188 L 27.615234 122.77734 L 27.597656 120.81055 L 28.253906 119.83594 L 25.421875 119.02734 z M 30.162109 119.33203 L 28.689453 119.71094 L 27.966797 120.63867 L 28 122.58984 L 30.972656 121.625 C 32.191667 121.0496 31.663187 119.31298 30.162109 119.33203 z M 32.912109 120.18359 L 32.335938 122.33203 L 29.027344 123.61133 L 25.753906 122.89453 L 26.039062 125.38281 C 26.039062 125.38281 26.64413 125.46791 26.853516 126.04297 C 27.904375 128.93053 29.758915 130.36844 30.324219 130.32422 C 31.899488 130.09182 32.773438 123.86328 32.773438 123.86328 L 33.46875 122.79102 L 32.912109 120.18359 z M 89.058594 120.64062 L 84.742188 136.27148 L 92.269531 123.84375 L 89.058594 120.64062 z M 61.423828 122.88477 L 60.939453 124.36719 C 62.552064 124.40498 64.327112 124.42446 66.234375 124.43164 L 66.234375 124.11328 L 66.234375 122.88477 L 61.423828 122.88477 z M 70.828125 122.88477 L 70.828125 124.11328 L 70.828125 124.41797 C 72.715054 124.40285 74.509817 124.37676 76.113281 124.33594 L 75.638672 122.88477 L 70.828125 122.88477 z M 99.003906 123.76953 L 97.240234 124.29688 L 100.84375 132.9707 L 99.003906 123.76953 z M 53.273438 129.47461 L 52.4375 137.21875 L 52.693359 139.36523 C 52.160937 139.39169 51.744921 139.42232 51.673828 139.45898 C 51.62356 139.50925 51.588201 139.76069 51.5625 140.07031 L 51.146484 140.07031 C 51.029319 140.21091 51.029319 141.47464 51.146484 141.58398 L 51.552734 141.58398 C 51.575412 141.86405 51.614553 142.08043 51.675781 142.12109 C 51.842458 142.349 60.824991 142.51734 61.642578 142.12109 C 61.70872 142.06138 61.748934 141.85256 61.775391 141.58398 L 62.195312 141.58398 C 62.281108 141.52124 62.265234 140.15626 62.195312 140.07031 L 61.765625 140.07031 C 61.735389 139.76946 61.697696 139.52335 61.640625 139.45898 C 61.578641 139.41363 61.214843 139.38073 60.744141 139.35352 L 61 137.21875 L 60.162109 129.47461 L 53.273438 129.47461 z M 50.568359 142.68555 L 48.65625 162.36914 L 48.984375 164.96289 L 48.984375 170.88086 L 49.736328 170.88086 L 49.892578 172.12109 L 63.001953 172.12109 L 63.158203 170.88477 L 63.90625 170.88477 L 63.90625 164.96875 L 64.234375 162.37109 L 62.324219 142.68945 L 50.568359 142.68555 z M 74.326172 142.96094 L 72.414062 162.64258 L 72.744141 165.23633 L 72.744141 171.15625 L 73.492188 171.15625 L 73.615234 172.12109 L 86.792969 172.12109 L 86.916016 171.16016 L 87.662109 171.16016 L 87.662109 165.24414 L 87.990234 162.64648 L 86.080078 142.96484 L 74.326172 142.96094 z M 49.945312 173.02148 L 49.945312 175.11914 L 51.046875 175.11914 L 51.046875 175.36914 L 51.664062 175.36914 L 51.664062 175.90039 L 53.841797 175.9082 L 54.101562 177.78125 C 54.939824 177.78427 57.925373 177.78919 58.763672 177.79297 L 59.207031 175.93164 L 61.720703 175.94336 L 61.720703 175.375 L 62.210938 175.375 L 62.210938 175.12305 L 62.962891 175.12305 L 62.962891 173.02148 L 49.945312 173.02148 z M 73.701172 173.02148 L 73.701172 175.39258 L 74.804688 175.39258 L 74.804688 175.64258 L 75.419922 175.64258 L 75.419922 176.17578 L 77.597656 176.18164 L 77.859375 178.05664 C 78.697636 178.0597 81.681232 178.06263 82.519531 178.06641 L 82.962891 176.20703 L 85.478516 176.2168 L 85.478516 175.64844 L 85.96875 175.64844 L 85.96875 175.39648 L 86.71875 175.39648 L 86.71875 173.02148 L 73.701172 173.02148 z M 49.132812 176.6543 L 48.884766 178.36133 L 48.205078 178.36133 L 48.205078 181.56836 L 48.425781 181.56836 L 48.417969 181.60547 L 53.369141 181.60547 L 53.363281 181.56836 L 59.203125 181.56836 L 59.195312 181.60547 L 64.146484 181.60547 L 64.140625 181.56836 L 64.681641 181.56836 L 64.681641 178.36133 L 63.681641 178.36133 L 63.435547 176.6543 L 59.90625 176.6543 L 59.660156 178.36133 L 52.898438 178.36133 L 52.654297 176.6543 L 49.132812 176.6543 z M 72.890625 176.92969 L 72.642578 178.63672 L 71.960938 178.63672 L 71.960938 181.8418 L 72.183594 181.8418 L 72.175781 181.88086 L 77.128906 181.88086 L 77.121094 181.8418 L 82.958984 181.8418 L 82.951172 181.88086 L 87.904297 181.88086 L 87.896484 181.8418 L 88.439453 181.8418 L 88.439453 178.63672 L 87.4375 178.63672 L 87.193359 176.92969 L 83.664062 176.92969 L 83.417969 178.63672 L 76.658203 178.63672 L 76.410156 176.92969 L 72.890625 176.92969 z "
       transform="matrix(0.26458333,0,0,0.26458333,135.48963,99.590537)" />
    <rect
       style="opacity:1;vector-effect:none;fill:#1a1a1a;fill-opacity:1;stroke:none;stroke-width:0.1;stroke-linecap:butt;stroke-linejoin:miter;stroke-miterlimit:4;stroke-dasharray:none;stroke-dashoffset:0;stroke-opacity:1"
       id="rect860"
       width="7.0941477"
       height="0"
       x="148.86763"
       y="129.31949" />
  </g>
</svg>
