<?xml version="1.0" encoding="UTF-8" standalone="no"?>
<!-- Created with Inkscape (http://www.inkscape.org/) -->

<svg
   sodipodi:docname="Crimson Hawk 4.svg"
   inkscape:version="1.1.2 (0a00cf5339, 2022-02-04)"
   id="svg8"
   version="1.1"
   viewBox="0 0 34.98301 52.516205"
   height="52.516205mm"
   width="34.983009mm"
   xmlns:inkscape="http://www.inkscape.org/namespaces/inkscape"
   xmlns:sodipodi="http://sodipodi.sourceforge.net/DTD/sodipodi-0.dtd"
   xmlns="http://www.w3.org/2000/svg"
   xmlns:svg="http://www.w3.org/2000/svg"
   xmlns:rdf="http://www.w3.org/1999/02/22-rdf-syntax-ns#"
   xmlns:cc="http://creativecommons.org/ns#"
   xmlns:dc="http://purl.org/dc/elements/1.1/">
  <defs
     id="defs2" />
  <sodipodi:namedview
     id="base"
     pagecolor="#ffffff"
     bordercolor="#666666"
     borderopacity="1.0"
     inkscape:pageopacity="0.0"
     inkscape:pageshadow="2"
     inkscape:zoom="2.8284271"
     inkscape:cx="156.80093"
     inkscape:cy="113.13709"
     inkscape:document-units="mm"
     inkscape:current-layer="layer1"
     showgrid="false"
     inkscape:window-width="1920"
     inkscape:window-height="1043"
     inkscape:window-x="1920"
     inkscape:window-y="1080"
     inkscape:window-maximized="1"
     inkscape:snap-global="false"
     fit-margin-top="0"
     fit-margin-left="0"
     fit-margin-right="0"
     fit-margin-bottom="0"
     showguides="true"
     inkscape:guide-bbox="true"
     inkscape:pagecheckerboard="0" />
  <metadata
     id="metadata5">
    <rdf:RDF>
      <cc:Work
         rdf:about="">
        <dc:format>image/svg+xml</dc:format>
        <dc:type
           rdf:resource="http://purl.org/dc/dcmitype/StillImage" />
      </cc:Work>
    </rdf:RDF>
  </metadata>
  <g
     inkscape:label="Capa 1"
     inkscape:groupmode="layer"
     id="layer1"
     transform="translate(-135.48963,-99.590537)">
    <rect
       style="opacity:1;vector-effect:none;fill:#1a1a1a;fill-opacity:1;stroke:none;stroke-width:0.1;stroke-linecap:butt;stroke-linejoin:miter;stroke-miterlimit:4;stroke-dasharray:none;stroke-dashoffset:0;stroke-opacity:1"
       id="rect860"
       width="7.0941477"
       height="0"
       x="148.86763"
       y="129.31949" />
    <g
       id="g6229">
      <path
         id="rect3136"
         style="fill:#000000;stroke:none;stroke-width:0.39685;stroke-linecap:round;stroke-miterlimit:4;stroke-dasharray:none;stop-color:#000000"
         d="M 103.7832 125.76172 C 102.35508 126.05656 100.52468 126.25919 98.964844 126.25 L 99.576172 133.59961 C 99.6014 133.90263 99.866904 134.12484 100.16992 134.09961 L 103.90234 133.78906 C 104.20536 133.76383 104.42757 133.50028 104.40234 133.19727 L 103.7832 125.76172 z "
         transform="matrix(0.26458333,0,0,0.26458333,135.48963,99.590537)" />
      <path
         id="path14978"
         style="fill:#000000;stroke:none;stroke-width:0.196716px;stroke-linecap:butt;stroke-linejoin:miter;stroke-opacity:1"
         d="m 151.43183,116.64413 -1.21257,0.52867 -0.0688,0.90175 -0.0719,1.28749 c 0.50769,-0.17739 0.98514,-0.31911 1.08694,-0.32274 l 0.0695,-0.003 0.04,-0.32773 z m -1.68476,1.36356 c -0.0652,8.7e-4 -0.13227,0.0269 -0.17866,0.088 l -0.24129,0.62396 -0.30391,1.06196 c 0.22271,-0.10829 0.53589,-0.2327 0.85487,-0.34848 l 0.0722,-1.2994 c -0.0166,-0.0748 -0.10794,-0.12729 -0.20324,-0.12603 z m -6.66339,0.74807 -0.73385,2.73789 h 0.16598 c 0.006,-0.13835 0.0258,-0.26257 0.0638,-0.36308 0,0 0.21784,-1.09293 0.94209,-1.22756 0,0 1.2666,-0.15752 2.1416,-0.15176 0.36945,0.003 0.66886,0.034 0.7738,0.11872 0,0 0.70699,0.36799 1.07003,0.61167 0.0579,-0.0891 0.15823,-0.14793 0.27279,-0.14793 h 0.68159 c 0.0666,0 0.12837,0.0201 0.17981,0.0542 0.005,-0.1133 0.0237,-0.35108 0.10105,-0.438 0.0291,-0.0266 0.0735,-0.0568 0.12986,-0.0891 l 0.31736,-1.10499 h -0.3527 v 0.43416 c 0,0.20672 -0.17249,0.37883 -0.37922,0.37883 h -2.04593 c -0.20672,0 -0.37922,-0.17211 -0.37922,-0.37883 v -0.43416 z"
         sodipodi:nodetypes="ccccccccscccccsccccccccsscccccsssscc" />
      <path
         id="path8822"
         style="fill:#000000;stroke:none;stroke-width:0.196716px;stroke-linecap:butt;stroke-linejoin:miter;stroke-opacity:1"
         d="m 157.78247,130.65749 c -0.91027,0.20444 -2.42823,1.24276 -2.6184,1.86074 0.22801,0.93336 1.57025,1.56357 1.78927,1.52878 0.56517,-0.11676 2.18858,-1.30981 2.30566,-1.69399 0.0103,-0.55916 -1.47653,-1.69553 -1.47653,-1.69553 z m -0.098,0.26856 0.0292,0.0215 c 0,0 0.29778,0.22799 0.59553,0.51254 0.14888,0.14227 0.29693,0.29907 0.41072,0.45183 0.11379,0.15275 0.19931,0.29969 0.19633,0.44569 v 0.0104 l -0.003,0.01 c -0.0346,0.11355 -0.13895,0.22375 -0.28317,0.36001 -0.14422,0.13626 -0.3302,0.28831 -0.52713,0.433 -0.19693,0.1447 -0.40539,0.28192 -0.594,0.39036 -0.1886,0.10845 -0.35421,0.18817 -0.48487,0.21516 h -0.002 -0.002 c -0.0459,0.007 -0.0854,-7.7e-4 -0.1364,-0.0146 -0.051,-0.0138 -0.11095,-0.0354 -0.17712,-0.0638 -0.13237,-0.0568 -0.29052,-0.14265 -0.4503,-0.25281 -0.31956,-0.2203 -0.6471,-0.53868 -0.74498,-0.9394 l -0.005,-0.0219 0.006,-0.0204 c 0.0445,-0.14463 0.15505,-0.29225 0.30507,-0.44569 0.15,-0.15343 0.34034,-0.31004 0.54865,-0.45606 0.41661,-0.29202 0.90127,-0.54175 1.28096,-0.62703 z m -0.0334,0.17559 c -0.3405,0.0833 -0.79999,0.31249 -1.19336,0.58823 -0.20196,0.14156 -0.3863,0.29317 -0.52714,0.43723 -0.13234,0.13536 -0.21484,0.2613 -0.25127,0.36 0.0903,0.33085 0.37148,0.62721 0.6666,0.83067 0.15087,0.104 0.3019,0.18433 0.42379,0.23668 0.061,0.0262 0.11442,0.0453 0.15561,0.0565 0.0403,0.0109 0.0703,0.0111 0.0695,0.0115 0,1e-5 0.002,0 0.002,0 0.094,-0.0202 0.25544,-0.0923 0.43569,-0.19595 0.18198,-0.10463 0.38506,-0.24024 0.57786,-0.3819 0.19279,-0.14166 0.37508,-0.28969 0.51254,-0.41956 0.1322,-0.1249 0.21519,-0.2366 0.23244,-0.28009 -0.002,-0.0768 -0.0577,-0.20292 -0.15983,-0.34003 -0.10515,-0.14116 -0.24833,-0.29243 -0.39343,-0.43109 -0.2735,-0.26137 -0.5198,-0.44848 -0.55058,-0.47219 z m -0.20325,0.33734 a 0.09835812,0.09835812 0 0 1 0.0234,0.003 0.09835812,0.09835812 0 0 1 0.0726,0.11757 l -0.41687,1.74548 a 0.09835812,0.09835812 0 0 1 -0.11911,0.0726 0.09835812,0.09835812 0 0 1 -0.0726,-0.1191 l 0.41687,-1.74394 a 0.09835812,0.09835812 0 0 1 0.0957,-0.0753 z m -2.34023,0.64393 c -0.15445,0.0751 -0.29159,0.14076 -0.40342,0.19365 v 0.0281 l 0.18519,0.31505 c -0.0129,-0.0382 -0.0242,-0.0768 -0.0338,-0.11603 0.0392,-0.12745 0.12749,-0.2705 0.25204,-0.42072 z m 3.01683,0.025 c 0.13812,0 0.25128,0.11315 0.25128,0.25127 0,0.13812 -0.11316,0.25281 -0.25128,0.25281 -0.13812,0 -0.25089,-0.11469 -0.25089,-0.25281 0,-0.13812 0.11277,-0.25127 0.25089,-0.25127 z m 0,0.13793 c -0.0637,0 -0.11296,0.0496 -0.11296,0.11334 0,0.0637 0.0492,0.11488 0.11296,0.11488 0.0637,0 0.11334,-0.0512 0.11334,-0.11488 0,-0.0637 -0.0496,-0.11334 -0.11334,-0.11334 z m -3.42025,0.44645 v 0.34464 l 0.51254,1.02009 0.18211,-0.18212 z m 4.31009,0.27011 c -0.64058,0.55404 -1.64282,1.21587 -2.08435,1.30708 -0.1369,0.0218 -0.65528,-0.18211 -1.14227,-0.54519 l -0.22207,0.18903 c 0.0158,0.41242 1.19966,2.55232 1.26636,2.67258 l 0.34964,-1.98023 1.98445,-0.33196 c -0.0221,-0.43679 -0.0656,-0.93583 -0.15176,-1.31131 z m -3.7649,0.26971 0.29354,0.49909 0.10912,-0.10911 c -0.14387,-0.11693 -0.28172,-0.24743 -0.40266,-0.38998 z m -0.54519,0.24282 v 1.09424 l 0.36615,-0.36577 z m 5.01972,1.00011 -2.27184,0.38037 -0.3285,1.8615 1.05351,1.65903 1.97293,-0.39727 0.51138,-1.98139 z m -0.29007,0.78994 a 0.3062833,0.30532389 0 0 1 0.30621,0.30506 0.3062833,0.30532389 0 0 1 -0.30621,0.30545 0.3062833,0.30532389 0 0 1 -0.30622,-0.30545 0.3062833,0.30532389 0 0 1 0.30622,-0.30506 z m -1.24331,0.23821 a 0.3062833,0.30532389 0 0 1 0.30621,0.30545 0.3062833,0.30532389 0 0 1 -0.30621,0.30506 0.3062833,0.30532389 0 0 1 -0.30622,-0.30506 0.3062833,0.30532389 0 0 1 0.30622,-0.30545 z m 1.40314,1.53108 a 0.3062833,0.30532389 0 0 1 0.30622,0.30507 0.3062833,0.30532389 0 0 1 -0.30622,0.30545 0.3062833,0.30532389 0 0 1 -0.30622,-0.30545 0.3062833,0.30532389 0 0 1 0.30622,-0.30507 z m -1.02777,0.23975 a 0.3062833,0.30532389 0 0 1 0.3066,0.30507 0.3062833,0.30532389 0 0 1 -0.3066,0.30544 0.3062833,0.30532389 0 0 1 -0.30622,-0.30544 0.3062833,0.30532389 0 0 1 0.30622,-0.30507 z m -1.33514,0.69888 c -0.0214,0.0291 -0.0714,0.27573 -0.13293,0.62857 l -0.25243,0.0154 c -0.2659,0.28186 -0.34694,2.42937 -0.34694,2.42937 l 0.22207,0.0761 c -0.0399,0.32394 -0.0604,0.54798 -0.0476,0.57708 0.23905,0.12924 4.13375,0.069 4.31163,0 0,0 -0.006,-0.22168 -0.0177,-0.55595 0.10864,0.002 0.23153,-0.005 0.27779,-0.0438 0.0495,-0.13503 0.0757,-2.34029 -0.13486,-2.5454 l -0.30084,0.0127 c -0.0352,-0.30637 -0.0756,-0.52941 -0.12256,-0.59399 h -0.35963 l -0.0522,0.20325 -1.18568,0.2386 h 1.10769 l 0.0219,0.0234 c 0.0262,0.0286 0.0294,0.0498 0.0377,0.0795 0.008,0.0297 0.0145,0.0651 0.0219,0.10758 0.0144,0.0851 0.0289,0.19689 0.0419,0.32657 0.0258,0.25937 0.0488,0.59157 0.0684,0.91942 0.039,0.65572 0.0622,1.29518 0.0622,1.29518 l 0.003,0.0423 -0.0392,0.0219 c -0.0272,0.0152 -0.0519,0.0206 -0.0857,0.0273 -0.0338,0.007 -0.0741,0.0125 -0.12179,0.0177 -0.0954,0.0106 -0.2181,0.0194 -0.36039,0.0261 -0.28456,0.0137 -0.64669,0.0194 -1.00894,0.0188 -0.36225,-5.9e-4 -0.72478,-0.008 -1.0124,-0.0219 -0.14381,-0.007 -0.2683,-0.0145 -0.36577,-0.0246 -0.0975,-0.0101 -0.15997,-0.0169 -0.21208,-0.0407 l -0.048,-0.0219 0.006,-0.0507 c 0,0 0.0723,-0.63371 0.15829,-1.28673 0.043,-0.3265 0.0887,-0.65743 0.13217,-0.91749 0.0217,-0.13003 0.0428,-0.24217 0.0622,-0.32812 0.01,-0.043 0.0198,-0.0792 0.0292,-0.10912 0.01,-0.0299 0.0149,-0.0511 0.035,-0.0768 l 0.0215,-0.0277 h 0.23745 l -0.28048,-0.44185 z m 0.49295,0.58285 c -0.001,0.003 -1.4e-4,0.002 -0.002,0.006 -0.008,0.0237 -0.0169,0.0566 -0.0261,0.0972 -0.0184,0.0812 -0.0397,0.1923 -0.0611,0.32082 -0.0429,0.25705 -0.0893,0.58647 -0.13217,0.91212 -0.0815,0.61895 -0.14277,1.16273 -0.14946,1.22102 0.0276,0.006 0.0541,0.0137 0.12064,0.0204 0.0931,0.01 0.21515,0.0179 0.35732,0.0246 0.28434,0.0137 0.64576,0.0198 1.00625,0.0204 0.36049,5.2e-4 0.72105,-0.006 1.00202,-0.0188 0.14049,-0.007 0.26084,-0.0145 0.35117,-0.0246 0.0452,-0.005 0.0827,-0.0109 0.11027,-0.0161 0.004,-7.4e-4 0.003,-4e-4 0.006,-0.001 -0.002,-0.0499 -0.0238,-0.61101 -0.0611,-1.23754 -0.0194,-0.32687 -0.041,-0.65747 -0.0665,-0.91328 -0.0128,-0.12791 -0.0273,-0.2373 -0.0407,-0.31658 -0.007,-0.0397 -0.0129,-0.0723 -0.0188,-0.0941 h -1.73164 l -0.37038,0.0745 -0.0473,-0.0745 z m 1.85613,0.50217 v 3.8e-4 a 0.09835812,0.09835812 0 0 1 0.068,0.0319 0.09835812,0.09835812 0 0 1 -0.004,0.13947 l -1.43043,1.33744 a 0.09835812,0.09835812 0 0 1 -0.13946,-0.006 0.09835812,0.09835812 0 0 1 0.005,-0.13793 l 1.43003,-1.33744 a 0.09835812,0.09835812 0 0 1 0.0715,-0.0277 z m -2.41439,2.91847 c -0.20629,0.17207 -0.34618,1.95833 -0.34618,1.95833 h 0.44953 l 0.24206,-1.95794 z m 0.54443,3.9e-4 -0.24244,1.95794 h 2.99301 l -0.55557,-1.95602 z m 2.39902,0.002 0.5571,1.95564 h 0.50793 c 0,0 -0.3127,-1.78951 -0.63664,-1.95526 z m -2.6138,2.17579 c -0.09,0 -0.16252,0.0725 -0.16252,0.16252 v 0.40534 c 0,0.09 0.0725,0.16253 0.16252,0.16253 h 2.92424 c 0.09,0 0.16252,-0.0725 0.16252,-0.16253 v -0.40534 c 0,-0.09 -0.0725,-0.16252 -0.16252,-0.16252 z m 2.34139,0.82682 c -0.38507,-7.7e-4 -0.63788,0.11275 -0.71732,0.26895 0.30129,0.45429 0.52585,0.75148 0.97359,1.08655 0.45753,-0.67262 0.70656,-1.17069 0.70656,-1.17069 -0.37413,-0.13012 -0.69936,-0.18428 -0.96283,-0.18481 z m -1.75508,0.007 c -0.36813,0.005 -0.61,0.11648 -0.68736,0.26857 0.30129,0.45429 0.52624,0.75147 0.97398,1.08655 0.45754,-0.67263 0.70657,-1.1707 0.70657,-1.1707 -0.38853,-0.13512 -0.72455,-0.1881 -0.99319,-0.18442 z" />
      <path
         id="path8822-9"
         style="fill:#000000;stroke:none;stroke-width:0.196716px;stroke-linecap:butt;stroke-linejoin:miter;stroke-opacity:1"
         d="m 149.58755,130.65748 c 0.91027,0.20444 2.42824,1.24276 2.61841,1.86074 -0.22802,0.93336 -1.57026,1.56357 -1.78928,1.52878 -0.56517,-0.11676 -2.18858,-1.3098 -2.30566,-1.69399 -0.0103,-0.55915 1.47653,-1.69553 1.47653,-1.69553 z m 0.098,0.26857 -0.0292,0.0215 c 0,0 -0.29778,0.22799 -0.59553,0.51253 -0.14888,0.14228 -0.29693,0.29907 -0.41072,0.45183 -0.11379,0.15275 -0.1993,0.2997 -0.19633,0.44569 v 0.0103 l 0.003,0.01 c 0.0346,0.11355 0.13895,0.22374 0.28316,0.36 0.14423,0.13627 0.33021,0.28832 0.52714,0.43301 0.19693,0.1447 0.40538,0.28192 0.59399,0.39036 0.1886,0.10844 0.35421,0.18817 0.48488,0.21516 h 10e-4 0.001 c 0.0459,0.007 0.0854,-7.5e-4 0.13639,-0.0146 0.051,-0.0138 0.11096,-0.0354 0.17713,-0.0638 0.13236,-0.0568 0.29052,-0.14265 0.45029,-0.25281 0.31957,-0.22029 0.6471,-0.53868 0.74499,-0.9394 l 0.004,-0.0219 -0.006,-0.0204 c -0.0445,-0.14462 -0.15506,-0.29225 -0.30507,-0.44569 -0.15001,-0.15343 -0.34034,-0.31004 -0.54866,-0.45606 -0.41661,-0.29202 -0.90126,-0.54175 -1.28096,-0.62703 z m 0.0335,0.17558 c 0.34051,0.0833 0.79999,0.31249 1.19336,0.58823 0.20197,0.14156 0.3863,0.29317 0.52714,0.43723 0.13234,0.13536 0.21484,0.2613 0.25127,0.36001 -0.0903,0.33085 -0.37148,0.62721 -0.6666,0.83066 -0.15086,0.104 -0.3019,0.18434 -0.42379,0.23668 -0.061,0.0262 -0.11441,0.0453 -0.1556,0.0565 -0.0403,0.0109 -0.0703,0.0111 -0.0695,0.0115 0,10e-6 -0.001,0 -0.001,0 -0.094,-0.0202 -0.25544,-0.0923 -0.43569,-0.19595 -0.18198,-0.10463 -0.38506,-0.24024 -0.57785,-0.3819 -0.1928,-0.14166 -0.37509,-0.28969 -0.51255,-0.41956 -0.1322,-0.1249 -0.21519,-0.2366 -0.23244,-0.28009 0.002,-0.0768 0.0577,-0.20292 0.15983,-0.34003 0.10515,-0.14116 0.24833,-0.29243 0.39343,-0.43109 0.2735,-0.26138 0.51979,-0.44848 0.55057,-0.47219 z m 0.20325,0.33734 a 0.09835812,0.09835812 0 0 0 -0.0234,0.003 0.09835812,0.09835812 0 0 0 -0.0726,0.11757 l 0.41687,1.74547 a 0.09835812,0.09835812 0 0 0 0.1191,0.0726 0.09835812,0.09835812 0 0 0 0.0726,-0.11911 l -0.41687,-1.74393 a 0.09835812,0.09835812 0 0 0 -0.0957,-0.0753 z m 2.34023,0.64394 c 0.15446,0.0751 0.29159,0.14076 0.40342,0.19364 v 0.028 l -0.18519,0.31505 c 0.0129,-0.0382 0.0242,-0.0769 0.0338,-0.11603 -0.0393,-0.12744 -0.1275,-0.27049 -0.25204,-0.42072 z m -3.01683,0.025 c -0.13812,0 -0.25128,0.11316 -0.25128,0.25128 0,0.13812 0.11316,0.25281 0.25128,0.25281 0.13812,0 0.25089,-0.11469 0.25089,-0.25281 0,-0.13812 -0.11277,-0.25128 -0.25089,-0.25128 z m 0,0.13793 c 0.0636,0 0.11296,0.0496 0.11296,0.11335 0,0.0637 -0.0492,0.11487 -0.11296,0.11487 -0.0636,0 -0.11334,-0.0512 -0.11334,-0.11487 0,-0.0637 0.0497,-0.11335 0.11334,-0.11335 z m 3.42025,0.44646 v 0.34464 l -0.51253,1.02008 -0.18212,-0.18212 z m -4.31008,0.2701 c 0.64057,0.55405 1.64282,1.21587 2.08435,1.30709 0.1369,0.0218 0.65528,-0.18211 1.14226,-0.5452 l 0.22207,0.18903 c -0.0158,0.41243 -1.19965,2.55232 -1.26636,2.67258 l -0.34963,-1.98023 -1.98446,-0.33196 c 0.0221,-0.43679 0.0656,-0.93583 0.15177,-1.31131 z m 3.76489,0.26972 -0.29354,0.49908 -0.10912,-0.10911 c 0.14387,-0.11692 0.28173,-0.24742 0.40266,-0.38997 z m 0.54519,0.24282 v 1.09423 l -0.36615,-0.36576 z m -5.01972,1.0001 2.27184,0.38037 0.3285,1.86151 -1.05351,1.65903 -1.97293,-0.39728 -0.51138,-1.98138 z m 0.29007,0.78994 a 0.3062833,0.3053239 0 0 0 -0.30621,0.30507 0.3062833,0.3053239 0 0 0 0.30621,0.30544 0.3062833,0.3053239 0 0 0 0.30622,-0.30544 0.3062833,0.3053239 0 0 0 -0.30622,-0.30507 z m 1.24331,0.23821 a 0.3062833,0.3053239 0 0 0 -0.30621,0.30545 0.3062833,0.3053239 0 0 0 0.30621,0.30507 0.3062833,0.3053239 0 0 0 0.30622,-0.30507 0.3062833,0.3053239 0 0 0 -0.30622,-0.30545 z m -1.40314,1.53109 a 0.3062833,0.3053239 0 0 0 -0.30621,0.30506 0.3062833,0.3053239 0 0 0 0.30621,0.30545 0.3062833,0.3053239 0 0 0 0.30622,-0.30545 0.3062833,0.3053239 0 0 0 -0.30622,-0.30506 z m 1.02777,0.23974 a 0.3062833,0.3053239 0 0 0 -0.3066,0.30507 0.3062833,0.3053239 0 0 0 0.3066,0.30544 0.3062833,0.3053239 0 0 0 0.30622,-0.30544 0.3062833,0.3053239 0 0 0 -0.30622,-0.30507 z m 1.33514,0.69888 c 0.0214,0.0291 0.0714,0.27573 0.13293,0.62858 l 0.25243,0.0154 c 0.2659,0.28186 0.34694,2.42937 0.34694,2.42937 l -0.22207,0.0761 c 0.0399,0.32395 0.0604,0.54799 0.0477,0.57709 -0.23906,0.12923 -4.13376,0.069 -4.31163,0 0,0 0.006,-0.22168 0.0177,-0.55596 -0.10864,0.002 -0.23153,-0.005 -0.27779,-0.0438 -0.0495,-0.13502 -0.0757,-2.34028 0.13486,-2.5454 l 0.30084,0.0126 c 0.0352,-0.30638 0.0756,-0.52942 0.12256,-0.59399 h 0.35962 l 0.0523,0.20325 1.18568,0.23859 h -1.10769 l -0.0219,0.0234 c -0.0262,0.0286 -0.0294,0.0498 -0.0376,0.0795 -0.008,0.0297 -0.0144,0.0651 -0.0219,0.10759 -0.0143,0.085 -0.0289,0.1969 -0.0419,0.32657 -0.0258,0.25937 -0.0489,0.59157 -0.0684,0.91942 -0.039,0.65572 -0.0622,1.29518 -0.0622,1.29518 l -0.003,0.0422 0.0392,0.0219 c 0.0272,0.0152 0.0518,0.0206 0.0857,0.0273 0.0338,0.007 0.0741,0.0125 0.12179,0.0177 0.0954,0.0106 0.2181,0.0195 0.36039,0.0261 0.28456,0.0137 0.64669,0.0194 1.00894,0.0188 0.36225,-5.9e-4 0.72478,-0.008 1.0124,-0.0219 0.14381,-0.007 0.2683,-0.0145 0.36577,-0.0246 0.0975,-0.0101 0.15996,-0.0169 0.21208,-0.0408 l 0.048,-0.0219 -0.006,-0.0507 c 0,0 -0.0723,-0.63371 -0.1583,-1.28672 -0.043,-0.3265 -0.0887,-0.65743 -0.13216,-0.9175 -0.0217,-0.13003 -0.0428,-0.24217 -0.0622,-0.32811 -0.01,-0.043 -0.0198,-0.0792 -0.0292,-0.10913 -0.01,-0.0299 -0.0149,-0.0512 -0.0349,-0.0768 l -0.0215,-0.0277 h -0.23744 l 0.28047,-0.44184 z m -0.49295,0.58285 c 7.5e-4,0.003 1.4e-4,0.001 0.001,0.006 0.008,0.0237 0.0169,0.0567 0.0261,0.0972 0.0184,0.0812 0.0397,0.19229 0.0611,0.32081 0.0429,0.25705 0.0893,0.58647 0.13217,0.91212 0.0815,0.61896 0.14277,1.16274 0.14946,1.22103 -0.0276,0.006 -0.0541,0.0137 -0.12064,0.0204 -0.0931,0.01 -0.21515,0.0179 -0.35732,0.0246 -0.28435,0.0137 -0.64576,0.0198 -1.00625,0.0204 -0.36049,5.9e-4 -0.72105,-0.006 -1.00202,-0.0188 -0.14049,-0.007 -0.26084,-0.0146 -0.35117,-0.0246 -0.0451,-0.005 -0.0827,-0.0109 -0.11028,-0.0161 -0.004,-7.4e-4 -0.003,-3.9e-4 -0.006,-0.001 0.002,-0.0499 0.0238,-0.61101 0.0611,-1.23754 0.0194,-0.32687 0.041,-0.65746 0.0665,-0.91327 0.0128,-0.12791 0.0273,-0.23731 0.0407,-0.31659 0.007,-0.0396 0.0129,-0.0723 0.0188,-0.0941 h 1.73165 l 0.37038,0.0745 0.0473,-0.0745 z m -1.85613,0.50217 v 3.9e-4 a 0.09835813,0.09835813 0 0 0 -0.068,0.0319 0.09835813,0.09835813 0 0 0 0.004,0.13947 l 1.43042,1.33744 a 0.09835813,0.09835813 0 0 0 0.13947,-0.006 0.09835813,0.09835813 0 0 0 -0.004,-0.13793 l -1.43003,-1.33745 a 0.09835813,0.09835813 0 0 0 -0.0714,-0.0277 z m 2.41439,2.91847 c 0.20629,0.17207 0.34618,1.95833 0.34618,1.95833 h -0.44953 l -0.24205,-1.95794 z m -0.54443,3.9e-4 0.24244,1.95795 h -2.99301 l 0.55557,-1.95602 z m -2.39901,0.002 -0.55711,1.95564 h -0.50793 c 0,0 0.31271,-1.7895 0.63664,-1.95525 z m 2.61379,2.1758 c 0.09,0 0.16252,0.0725 0.16252,0.16252 v 0.40534 c 0,0.09 -0.0725,0.16253 -0.16252,0.16253 h -2.92424 c -0.09,0 -0.16252,-0.0725 -0.16252,-0.16253 v -0.40534 c 0,-0.09 0.0725,-0.16252 0.16252,-0.16252 z m -2.34139,0.82682 c 0.38507,-7.5e-4 0.63788,0.11275 0.71732,0.26895 -0.30129,0.45429 -0.52585,0.75148 -0.97359,1.08655 -0.45753,-0.67262 -0.70656,-1.17069 -0.70656,-1.17069 0.37413,-0.13012 0.69936,-0.18428 0.96283,-0.18481 z m 1.75508,0.007 c 0.36813,0.005 0.61001,0.11648 0.68736,0.26857 -0.30129,0.45429 -0.52624,0.75147 -0.97398,1.08655 -0.45754,-0.67263 -0.70656,-1.1707 -0.70656,-1.1707 0.38852,-0.13512 0.72455,-0.1881 0.99318,-0.18442 z" />
      <path
         id="rect11755"
         style="fill:#000000;stroke:none;stroke-width:0.148699;stroke-linecap:round;stroke-miterlimit:4;stroke-dasharray:none;stop-color:#000000"
         d="m 151.48985,129.03458 v 0.24666 c 0.0996,0.0483 0.19823,0.0965 0.29546,0.14446 v -0.39112 z m 0.49141,0 v 0.48833 c 0.10499,0.0523 0.20388,0.10209 0.30084,0.151 v -0.63933 z m 0.49717,0 v 0.73845 c 0.10937,0.0556 0.21143,0.10777 0.30007,0.1533 v -0.89175 z m 0.49755,0 v 0.58823 c 0.0823,-0.0151 0.18546,-0.0267 0.30046,-0.0346 v -0.55363 z m 0.4964,0 v 0.54404 c 0.098,-0.003 0.19969,-0.004 0.30084,-0.002 v -0.54204 z m 0.49717,0 v 0.5475 c 0.1065,0.005 0.20838,0.0127 0.30007,0.0231 v -0.5706 z m 0.49756,0 v 0.6009 c 0.082,0.0171 0.14416,0.0377 0.17712,0.0622 v 0.28931 c 0.0366,-0.0188 0.0816,-0.042 0.12333,-0.0634 v -0.88901 z m 0.4964,0 v 0.78917 c 0.0936,-0.0477 0.19414,-0.0983 0.30122,-0.15215 v -0.63702 z m 0.49717,0 v 0.53866 c 0.0958,-0.0478 0.19433,-0.097 0.29546,-0.14677 v -0.39189 z" />
      <path
         id="path9810"
         style="fill:#000000;stroke:none;stroke-width:0.196716px;stroke-linecap:butt;stroke-linejoin:miter;stroke-opacity:1"
         d="m 158.68883,125.23895 c -0.72825,0.71857 -3.11212,1.57027 -3.11212,1.57027 -0.34542,0.0615 -1.59525,-1.022 -1.59525,-1.022 0,0 -1.35054,1.07248 -1.5234,1.022 0,0 -2.27,-0.65258 -3.3899,-1.25022 l 2.00943,1.54069 v 1.68054 h 1.14995 v -1.20873 -0.0972 h 2.90272 v 1.30594 h 1.23716 v -1.68054 l 2.42668,-1.86074 z m -6.26534,2.43129 v 1.08194 h 2.51082 v -1.08194 z" />
      <path
         id="path5774"
         style="fill:#000000;stroke:none;stroke-width:0.196716px;stroke-linecap:butt;stroke-linejoin:miter;stroke-opacity:1"
         d="m 151.07836,119.22642 c 0,0 -0.48817,0.14383 -1.00856,0.32043 0.10464,0.15933 0.25174,0.3779 0.41956,0.6059 0.15806,0.21472 0.33112,0.43351 0.49218,0.60398 0.16105,0.17048 0.31745,0.28916 0.39919,0.31198 l 0.0177,0.005 0.0131,0.0104 c 0.0119,0.009 0.11445,0.0468 0.2555,0.0711 0.14105,0.0242 0.32717,0.0442 0.54289,0.0607 0.43146,0.033 0.98005,0.0495 1.5307,0.048 0.55067,-10e-4 1.10424,-0.0186 1.54492,-0.055 0.22033,-0.0182 0.41248,-0.0418 0.56057,-0.0684 0.14808,-0.0265 0.2561,-0.0636 0.28316,-0.0815 l 0.0192,-0.0131 0.0246,-0.003 c 0.0125,-0.001 0.0669,-0.0234 0.13217,-0.0711 0.0653,-0.0477 0.1443,-0.11658 0.22937,-0.20017 0.17013,-0.16718 0.36615,-0.38972 0.5502,-0.61167 0.19483,-0.23495 0.37262,-0.4638 0.50062,-0.63202 -0.4618,-0.16949 -0.86371,-0.30123 -0.86371,-0.30123 h -0.14444 c -0.003,0.26029 -0.007,0.44377 -0.007,0.44377 -0.0887,0.13316 -0.73518,0.40713 -0.95253,0.44163 l -1.64745,1.12173 -1.53685,-1.047 c -0.0829,-0.0122 -0.93445,-0.29301 -1.03587,-0.44528 0,0 -0.004,-0.22096 -0.008,-0.51485 z m 6.69912,0.37268 c -0.12959,0.17122 -0.32273,0.42131 -0.54174,0.68543 -0.18644,0.22484 -0.38465,0.45192 -0.56326,0.62742 -0.0893,0.0878 -0.17352,0.16266 -0.25127,0.21939 -0.0723,0.0528 -0.13753,0.0879 -0.21208,0.10028 -0.082,0.0472 -0.18246,0.0753 -0.32812,0.10143 -0.15793,0.0283 -0.35509,0.0526 -0.57939,0.0711 -0.44861,0.0371 -1.00625,0.0554 -1.56106,0.0569 -0.55481,0.001 -1.10575,-0.016 -1.54491,-0.0496 -0.21959,-0.0168 -0.41113,-0.0378 -0.5621,-0.0638 -0.14116,-0.0243 -0.23681,-0.0472 -0.31506,-0.0972 -0.1602,-0.0486 -0.31387,-0.18231 -0.48065,-0.35885 -0.17026,-0.18022 -0.34588,-0.40423 -0.50677,-0.62281 -0.18769,-0.25497 -0.34691,-0.49262 -0.45337,-0.65546 -0.52011,0.18257 -1.01715,0.38431 -1.03891,0.49601 -0.21787,0.31916 -0.1465,4.74515 -0.1465,4.74515 0.28098,0.62906 3.82456,1.64814 3.82456,1.64814 0.16602,0.0484 1.46346,-0.98166 1.46346,-0.98166 0,0 1.20009,1.04073 1.53186,0.98166 0,0 2.87934,-1.02893 3.16667,-1.75239 0,0 0.25791,-4.4954 -0.0442,-4.73219 -0.16923,-0.13708 -0.39526,-0.24446 -0.85716,-0.41894 z m -7.86751,2.13776 0.26127,0.048 1.14149,0.0538 0.80761,0.75344 v 1.90531 h -2.21037 z m 3.98658,0.10758 v 2.82434 l -0.9002,-0.2409 v -1.99983 l 0.74806,-0.48487 z m 0.17059,0 0.15254,0.0987 0.74767,0.48487 v 1.99983 l -0.90021,0.2409 z m 3.30807,0.1264 c 0.23127,0 0.41994,0.18829 0.41994,0.41956 0,0.23128 -0.18867,0.4211 -0.41994,0.4211 -0.23128,0 -0.4211,-0.18982 -0.4211,-0.4211 0,-0.23127 0.18982,-0.41956 0.4211,-0.41956 z m -7.26929,0.003 3.9e-4,2.3264 h 1.81809 v -1.62176 l -0.69273,-0.64624 -1.07771,-0.0511 h -0.006 z m 7.26929,0.14523 c -0.15092,0 -0.27164,0.12073 -0.27164,0.27164 0,0.15091 0.12072,0.27164 0.27164,0.27164 0.15091,0 0.27164,-0.12073 0.27164,-0.27164 0,-0.15091 -0.12073,-0.27164 -0.27164,-0.27164 z m -3.67614,0.0888 -0.50524,0.32812 v 1.74087 l 0.50524,0.13678 z m 0.56556,0 v 2.20577 l 0.50524,-0.13678 v -1.74087 z m 1.8861,0.24667 c 0.004,-9e-5 0.007,0 0.0108,0 0.23128,0 0.4211,0.18982 0.4211,0.4211 0,0.23127 -0.18982,0.41955 -0.4211,0.41955 -0.23127,0 -0.41994,-0.18828 -0.41994,-0.41955 0,-0.22767 0.18287,-0.4153 0.40919,-0.4211 z m 0.004,0.14946 c -0.1476,0.004 -0.26473,0.12308 -0.26473,0.27164 0,0.1509 0.12074,0.27163 0.27164,0.27163 0.15092,0 0.27279,-0.12073 0.27279,-0.27163 0,-0.15092 -0.12187,-0.27164 -0.27279,-0.27164 -0.002,0 -0.005,-6e-5 -0.007,0 z"
         sodipodi:nodetypes="ccsscccssccccccccsccccccccccccccccccsccccccccccccccccccccccccccccccccsssssccccccccsssssccccccccccssssssssssssss" />
      <path
         id="rect4896"
         style="fill:#000000;stroke:none;stroke-width:2.50936;stroke-linecap:round;stroke-miterlimit:4;stroke-dasharray:none;stop-color:#000000"
         d="m 153.95342,115.44193 c -0.50456,0.003 -1.01011,0.16486 -1.33668,0.50946 -0.26454,0.27916 -0.39785,0.67979 -0.31044,1.18261 -0.051,-0.0137 -0.10609,-0.0207 -0.16291,-0.0219 h -3.8e-4 c -0.22582,-0.004 -0.46528,0.073 -0.46528,0.073 -0.13088,0.16577 -0.0765,2.53349 -0.0765,2.53349 0.0958,0.14386 0.83724,0.33502 0.91558,0.34656 l 1.46346,1.06311 1.53186,-1.11229 c 0.20532,-0.0327 0.76646,-0.23882 0.85026,-0.36462 0,0 0.0545,-2.36771 -0.0765,-2.53349 0,0 -0.23946,-0.0769 -0.46528,-0.073 -0.0679,0.001 -0.13427,0.01 -0.19288,0.03 0.0957,-0.41645 0.008,-0.76765 -0.20132,-1.03161 -0.30396,-0.3837 -0.83523,-0.58086 -1.37241,-0.59976 -0.0336,-10e-4 -0.067,-0.002 -0.10066,-0.002 z m 0,0.33695 c 0.0138,-1.5e-4 0.0274,-1.7e-4 0.0411,0 0.44039,0.005 0.87408,0.17356 1.12997,0.48488 0.24177,0.29415 0.33934,0.63284 0.13178,1.22025 -0.52328,-0.23139 -0.88993,-0.28024 -1.2629,-0.29853 -0.38541,-0.0189 -0.77881,0.0807 -1.3313,0.31506 -0.20835,-0.62445 -0.0643,-0.96437 0.1898,-1.26137 0.25558,-0.29877 0.67518,-0.45569 1.10154,-0.46029 z m 1.64711,0.43224 v 0.0196 c 0.11471,0.21445 0.16293,0.46995 0.12372,0.75921 0.0521,-0.0145 0.10947,-0.0209 0.1679,-0.0223 h 3.8e-4 c 0.11212,-0.002 0.22758,0.016 0.31544,0.0346 v -0.79109 z m -3.85018,0.0303 v 0.7911 c 0.0879,-0.0186 0.20332,-0.0364 0.31543,-0.0346 h 3.9e-4 c 0.0449,9e-4 0.0889,0.005 0.13063,0.0134 -0.0217,-0.29664 0.0341,-0.55464 0.14754,-0.76996 z m 2.19077,1.11729 c 0.49432,-8.4e-4 0.99726,0.11775 1.40045,0.35847 l 0.0619,0.0104 0.0158,2.23612 -1.24447,0.87715 -0.20632,0.1437 -1.44925,-1.02085 0.0161,-2.23612 0.0622,-0.0108 c 0.36833,-0.23734 0.85144,-0.35736 1.34359,-0.35809 z m 0.0273,3.62581 0.7154,-3.32766 c -0.46286,-0.12306 -0.98566,-0.1244 -1.43119,-0.008 l 0.66354,3.09098 z m -0.87831,-3.15246 -0.36,0.0611 -0.0135,1.97024 0.95553,0.67122 z m 1.757,0 -0.58092,2.7037 0.95553,-0.67237 -0.0146,-1.97024 z m 0.70158,0.37768 h 0.59975 v 0.19595 h -0.59975 z m -3.73301,0.0672 h 0.59976 v 0.19595 h -0.59976 z m 3.73301,0.29546 h 0.59975 v 0.19633 h -0.59975 z m -3.73301,0.0672 h 0.59976 v 0.19634 h -0.59976 z m 3.73301,0.29585 h 0.59975 v 0.19633 h -0.59975 z m -3.73301,0.0672 h 0.59976 v 0.19634 h -0.59976 z m 3.73301,0.29585 h 0.59975 v 0.19595 h -0.59975 z m -3.73301,0.0672 h 0.59976 v 0.19595 h -0.59976 z" />
      <path
         id="rect8852"
         style="fill:#000000;stroke:none;stroke-width:0.148699;stroke-linecap:round;stroke-miterlimit:4;stroke-dasharray:none;stop-color:#000000"
         d="m 147.9199,120.46553 c -0.14077,-4.8e-4 -0.25427,0.11251 -0.25465,0.25328 l -1.5e-4,0.14906 0.8856,0.002 1.5e-4,-0.14905 c 4.8e-4,-0.14078 -0.11251,-0.25428 -0.25327,-0.25466 z m -0.25558,0.5983 -0.001,0.54327 0.8856,0.002 10e-4,-0.54326 z m -0.002,0.73922 -0.001,0.58093 0.8856,0.002 0.001,-0.58093 z m -0.002,0.77842 -0.001,0.58092 0.8856,0.002 0.001,-0.58093 z m -0.002,0.7784 -0.001,0.55326 0.88561,0.002 10e-4,-0.55326 z m -0.002,0.74921 -5.8e-4,0.22976 c -4.7e-4,0.14077 0.11251,0.25426 0.25327,0.25464 l 0.37768,7.5e-4 c 0.14078,4.7e-4 0.25427,-0.11252 0.25465,-0.25327 l 5.9e-4,-0.22977 z" />
      <path
         id="rect8852-6"
         style="fill:#000000;stroke:none;stroke-width:0.148699;stroke-linecap:round;stroke-miterlimit:4;stroke-dasharray:none;stop-color:#000000"
         d="m 159.49902,120.46644 c 0.14077,4.3e-4 0.25354,0.11415 0.25301,0.25492 l -7.5e-4,0.14906 -0.8856,-0.003 7.5e-4,-0.14905 c 4.4e-4,-0.14079 0.11415,-0.25355 0.25491,-0.25302 z m 0.25171,0.59994 -0.002,0.54326 -0.8856,-0.003 0.002,-0.54327 z m -0.003,0.73921 -0.002,0.58093 -0.8856,-0.003 0.002,-0.58093 z m -0.003,0.77841 -0.002,0.58092 -0.8856,-0.003 0.002,-0.58092 z m -0.003,0.7784 -0.002,0.55327 -0.8856,-0.003 0.002,-0.55325 z m -0.003,0.74921 -7.5e-4,0.22976 c -4.3e-4,0.14078 -0.11415,0.25354 -0.25491,0.25301 l -0.37767,-0.001 c -0.14078,-4.4e-4 -0.25355,-0.11416 -0.25302,-0.25492 l 7.5e-4,-0.22976 z" />
      <path
         id="rect11032"
         style="fill:#000000;stroke-width:0.148699;stroke-linecap:round;stop-color:#000000"
         d="m 149.78011,128.85284 c -0.45794,-3e-5 -0.39497,0.96899 -0.39497,0.96899 0.26344,0.57478 2.71404,1.77462 3.59737,2.19231 v 3.22623 c 0.14042,0.17623 1.31578,0.17 1.45425,0 v -3.22661 c 0.88334,-0.4177 3.33355,-1.61715 3.59699,-2.19193 0,0 0.063,-0.96899 -0.39497,-0.96899 -0.007,0 -0.0147,3e-4 -0.0223,7.7e-4 -0.36957,-2.1e-4 -3.16168,1.46155 -3.16168,1.46155 l -0.0181,0.005 v -0.40227 c -0.0872,-0.0686 -0.43414,-0.10174 -0.76766,-0.10105 -0.33352,6.9e-4 -0.6535,0.0352 -0.68659,0.10105 v 0.40265 l -0.0184,-0.005 c 0,0 -2.7921,-1.46176 -3.16168,-1.46155 -0.008,-5e-4 -0.015,-7.7e-4 -0.0223,-7.7e-4 z" />
      <path
         id="rect1419"
         style="fill:#000000;stroke:none;stroke-width:0.345725;stroke-linecap:round;stop-color:#000000"
         d="m 163.32704,126.37661 c -0.006,7e-5 -0.011,4.1e-4 -0.0165,7.7e-4 l -0.008,3.9e-4 c -0.002,0.55622 -0.0278,1.03857 -0.12257,1.23832 -0.17064,0.14053 -2.26329,0.14883 -2.55116,0 -0.10289,-0.082 -0.25889,-0.50262 -0.40996,-1.02393 -0.12121,0.0524 -0.20174,0.17638 -0.19287,0.31621 l 0.005,0.0734 c -0.0832,0.0178 -0.14271,0.0942 -0.13716,0.18174 l 0.16905,2.66412 3.9766,-0.28969 -0.16675,-2.62725 c -0.006,-0.0964 -0.0888,-0.1694 -0.18519,-0.16329 l -0.0303,0.002 -0.004,-0.0711 c -0.0109,-0.17265 -0.15482,-0.30422 -0.32581,-0.30199 z m 0.72078,3.29808 -3.97621,0.29085 0.12487,1.96947 c 0.006,0.0875 0.0743,0.15499 0.15906,0.16213 l 0.005,0.0738 c 0.0113,0.17821 0.16373,0.31253 0.34195,0.30122 l 1.0635,-2.13194 0.65638,-0.0601 1.26275,2.00303 c 0.17822,-0.0113 0.31254,-0.16412 0.30123,-0.34233 l -0.004,-0.0711 0.0303,-0.002 c 0.0964,-0.006 0.16901,-0.0888 0.1629,-0.18519 z"
         sodipodi:nodetypes="ccccccccccccccccccccccccccccccc" />
      <path
         id="path867"
         style="fill:#000000;stroke:none;stroke-width:0.196716px;stroke-linecap:butt;stroke-linejoin:miter;stroke-opacity:1"
         d="m 162.97202,124.38639 c -0.89455,0.42653 -1.90108,0.77342 -1.90108,0.77342 -0.25365,0 -0.67767,-0.29391 -0.94016,-0.4964 0.0288,0.32293 0.12728,0.84089 0.24513,1.33437 l 2.59765,-0.19019 c -0.007,-0.53341 -0.0219,-1.07895 -0.002,-1.4212 z m 0.003,1.55875 -2.56615,0.1875 c 0.14379,0.57899 0.30839,1.09544 0.40957,1.18106 0.23226,0.12757 1.92055,0.12045 2.05823,0 0.0926,-0.20725 0.10365,-0.76817 0.0983,-1.36856 z" />
      <path
         id="path12413"
         style="fill:#000000;stroke:none;stroke-width:0.201686px;stroke-linecap:butt;stroke-linejoin:miter;stroke-opacity:1"
         d="m 161.7241,120.1178 c -0.33074,0.002 -0.59879,0.0305 -0.69273,0.10643 0,0 -1.07834,0.56067 -1.14341,0.70349 l 0.0219,3.36493 c 0,0 0.78526,0.68389 1.17184,0.68389 0,0 2.61992,-0.90227 3.16245,-1.58641 0,0 0.45888,-1.45941 0.24052,-2.03747 0,0 -0.19498,-0.97833 -0.84335,-1.09885 0,0 -1.13388,-0.14117 -1.91722,-0.13601 z m 0.13448,0.47373 c 0.16944,2e-4 0.35532,0.008 0.53674,0.02 0.4838,0.031 0.93518,0.0888 0.93518,0.0888 h 0.003 0.002 c 0.29069,0.054 0.47075,0.2936 0.57785,0.50792 0.10488,0.20986 0.14221,0.39878 0.1437,0.40688 0.0987,0.26446 0.0417,0.6627 -0.0277,1.00933 -0.0695,0.34762 -0.15983,0.63741 -0.15983,0.63741 l -0.004,0.0142 -0.009,0.0104 c -0.12039,0.15181 -0.33455,0.29748 -0.59092,0.44145 -0.25637,0.14399 -0.55558,0.28381 -0.84065,0.4065 -0.57015,0.24538 -1.08617,0.42263 -1.08617,0.42263 l -0.0119,0.005 h -0.0131 c -0.19826,0 -0.42272,-0.14626 -0.61858,-0.28317 -0.19587,-0.13691 -0.35271,-0.27317 -0.35271,-0.27317 l -0.0277,-0.0231 -0.0173,-2.67488 0.007,-0.0334 c 0.0195,-0.0426 0.0439,-0.059 0.0753,-0.0845 0.0314,-0.0255 0.0703,-0.0532 0.11488,-0.0826 0.0891,-0.0587 0.20111,-0.12504 0.31083,-0.18749 0.21942,-0.1249 0.43108,-0.23514 0.43108,-0.23514 0.0496,-0.035 0.10881,-0.0508 0.18135,-0.0638 0.0788,-0.0142 0.17328,-0.0224 0.2774,-0.0261 0.0521,-0.002 0.10681,-0.003 0.16329,-0.003 z m 0,0.1583 c -0.0546,-1e-4 -0.10713,8.4e-4 -0.15676,0.003 h -3.9e-4 c -0.0993,0.004 -0.18661,0.011 -0.25358,0.023 -0.0671,0.0121 -0.11368,0.0326 -0.12372,0.0407 l -0.007,0.004 -0.006,0.005 c 0,0 -0.21073,0.10943 -0.42685,0.23245 -0.10807,0.0615 -0.21816,0.12611 -0.302,0.18135 -0.0419,0.0277 -0.0768,0.0526 -0.10143,0.0726 -0.0195,0.0158 -0.0235,0.0222 -0.025,0.0219 l 0.0177,2.5746 c 0.022,0.019 0.1395,0.12034 0.31198,0.2409 0.18535,0.12955 0.41441,0.2483 0.52137,0.25128 0.0175,-0.006 0.50192,-0.17236 1.05581,-0.41073 0.28189,-0.12132 0.57742,-0.25993 0.82606,-0.39958 0.2448,-0.13748 0.44013,-0.27941 0.53444,-0.39497 0.005,-0.0164 0.087,-0.27302 0.15253,-0.60091 0.0677,-0.33812 0.1048,-0.73773 0.0334,-0.92671 l -0.003,-0.006 -0.002,-0.006 c 0,0 -0.0358,-0.18319 -0.13217,-0.37614 -0.0961,-0.19232 -0.24777,-0.38091 -0.46452,-0.42225 -0.004,-5.1e-4 -0.44643,-0.0567 -0.9221,-0.0872 -0.17922,-0.0114 -0.36242,-0.0197 -0.52676,-0.02 z m -0.74883,0.86985 c 0.0301,-4.3e-4 0.0597,0.007 0.0861,0.0215 l 2.13891,1.18337 c 0.084,0.0459 0.11461,0.15134 0.0684,0.23514 -0.0465,0.0834 -0.15174,0.11332 -0.23514,0.0669 l -2.1389,-1.18337 c -0.0836,-0.0465 -0.11358,-0.15204 -0.0669,-0.23552 0.0301,-0.0534 0.0862,-0.0869 0.14754,-0.088 z"
         sodipodi:nodetypes="scccccccsscccccccccccsccssccccsccccsssccscccscsccsccscccccsccscccccccc" />
      <path
         style="fill:#000000;stroke:none;stroke-width:0.169181px;stroke-linecap:butt;stroke-linejoin:miter;stroke-opacity:1"
         d="m 163.86157,132.49415 0.65747,0.11401 c 0,0 0.87068,2.11918 0.8221,3.16393 -0.13151,0.98916 -0.58638,1.54763 -0.58638,1.54763 0.10754,-0.77981 0.0445,-1.6825 0.0445,-1.6825 -0.19939,-0.97606 -0.93775,-3.14307 -0.93775,-3.14307 z"
         id="path4586"
         sodipodi:nodetypes="cccccc" />
      <path
         id="rect1419-2"
         style="fill:#000000;stroke:none;stroke-width:0.345725;stroke-linecap:round;stop-color:#000000"
         d="m 143.99317,126.37661 c 0.006,7e-5 0.011,4.1e-4 0.0165,7.7e-4 l 0.008,3.9e-4 c 0.002,0.55622 0.0278,1.03857 0.12257,1.23832 0.17064,0.14053 2.26329,0.14883 2.55116,0 0.10289,-0.082 0.25889,-0.50262 0.40996,-1.02393 0.12121,0.0524 0.20174,0.17638 0.19287,0.31621 l -0.005,0.0734 c 0.0832,0.0178 0.14271,0.0942 0.13716,0.18174 l -0.16905,2.66412 -3.9766,-0.28969 0.16675,-2.62725 c 0.006,-0.0964 0.0888,-0.1694 0.18519,-0.16329 l 0.0303,0.002 0.004,-0.0711 c 0.0109,-0.17265 0.15482,-0.30422 0.32581,-0.30199 z m -0.72078,3.29808 3.97621,0.29085 -0.12487,1.96947 c -0.006,0.0875 -0.0743,0.15499 -0.15906,0.16213 l -0.005,0.0738 c -0.0113,0.17821 -0.16373,0.31253 -0.34195,0.30122 l -0.55797,0.0371 0.17506,-2.41595 -1.78583,-0.138 -0.1632,2.3769 -0.65069,-0.049 c -0.17822,-0.0113 -0.31254,-0.16412 -0.30123,-0.34233 l 0.004,-0.0711 -0.0303,-0.002 c -0.0964,-0.006 -0.16901,-0.0888 -0.1629,-0.18519 z"
         sodipodi:nodetypes="ccccccccccccccccccccccccccccccccc" />
      <path
         id="path867-7"
         style="fill:#000000;stroke:none;stroke-width:0.196716px;stroke-linecap:butt;stroke-linejoin:miter;stroke-opacity:1"
         d="m 144.34819,124.38639 c 0.89455,0.42653 1.90108,0.77342 1.90108,0.77342 0.25365,0 0.67767,-0.29391 0.94016,-0.4964 -0.0288,0.32293 -0.12728,0.84089 -0.24513,1.33437 l -2.59765,-0.19019 c 0.007,-0.53341 0.0219,-1.07895 0.002,-1.4212 z m -0.003,1.55875 2.56615,0.1875 c -0.14379,0.57899 -0.30839,1.09544 -0.40957,1.18106 -0.23226,0.12757 -1.92055,0.12045 -2.05823,0 -0.0926,-0.20725 -0.10365,-0.76817 -0.0983,-1.36856 z" />
      <path
         id="path12413-0"
         style="fill:#000000;stroke:none;stroke-width:0.201686px;stroke-linecap:butt;stroke-linejoin:miter;stroke-opacity:1"
         d="m 145.59611,120.1178 c 0.33074,0.002 0.59879,0.0305 0.69273,0.10643 0,0 1.07834,0.56067 1.14341,0.70349 l -0.0219,3.36493 c 0,0 -0.78526,0.68389 -1.17184,0.68389 0,0 -2.61992,-0.90227 -3.16245,-1.58641 0,0 -0.45888,-1.45941 -0.24052,-2.03747 0,0 0.19498,-0.97833 0.84335,-1.09885 0,0 1.13388,-0.14117 1.91722,-0.13601 z m -0.13448,0.47373 c -0.16944,2e-4 -0.35532,0.008 -0.53674,0.02 -0.4838,0.031 -0.93518,0.0888 -0.93518,0.0888 h -0.003 -0.002 c -0.29069,0.054 -0.47075,0.2936 -0.57785,0.50792 -0.10488,0.20986 -0.14221,0.39878 -0.1437,0.40688 -0.0987,0.26446 -0.0417,0.6627 0.0277,1.00933 0.0695,0.34762 0.15983,0.63741 0.15983,0.63741 l 0.004,0.0142 0.009,0.0104 c 0.12039,0.15181 0.33455,0.29748 0.59092,0.44145 0.25637,0.14399 0.55558,0.28381 0.84065,0.4065 0.57015,0.24538 1.08617,0.42263 1.08617,0.42263 l 0.0119,0.005 h 0.0131 c 0.19826,0 0.42272,-0.14626 0.61858,-0.28317 0.19587,-0.13691 0.35271,-0.27317 0.35271,-0.27317 l 0.0277,-0.0231 0.0173,-2.67488 -0.007,-0.0334 c -0.0195,-0.0426 -0.0439,-0.059 -0.0753,-0.0845 -0.0314,-0.0255 -0.0703,-0.0532 -0.11488,-0.0826 -0.0891,-0.0587 -0.20111,-0.12504 -0.31083,-0.18749 -0.21942,-0.1249 -0.43108,-0.23514 -0.43108,-0.23514 -0.0496,-0.035 -0.10881,-0.0508 -0.18135,-0.0638 -0.0788,-0.0142 -0.17328,-0.0224 -0.2774,-0.0261 -0.0521,-0.002 -0.10681,-0.003 -0.16329,-0.003 z m 0,0.1583 c 0.0546,-1e-4 0.10713,8.4e-4 0.15676,0.003 h 3.9e-4 c 0.0993,0.004 0.18661,0.011 0.25358,0.023 0.0671,0.0121 0.11368,0.0326 0.12372,0.0407 l 0.007,0.004 0.006,0.005 c 0,0 0.21073,0.10943 0.42685,0.23245 0.10807,0.0615 0.21816,0.12611 0.302,0.18135 0.0419,0.0277 0.0768,0.0526 0.10143,0.0726 0.0195,0.0158 0.0235,0.0222 0.025,0.0219 l -0.0177,2.5746 c -0.022,0.019 -0.1395,0.12034 -0.31198,0.2409 -0.18535,0.12955 -0.41441,0.2483 -0.52137,0.25128 -0.0175,-0.006 -0.50192,-0.17236 -1.05581,-0.41073 -0.28189,-0.12132 -0.57742,-0.25993 -0.82606,-0.39958 -0.2448,-0.13748 -0.44013,-0.27941 -0.53444,-0.39497 -0.005,-0.0164 -0.087,-0.27302 -0.15253,-0.60091 -0.0677,-0.33812 -0.1048,-0.73773 -0.0334,-0.92671 l 0.003,-0.006 0.002,-0.006 c 0,0 0.0358,-0.18319 0.13217,-0.37614 0.0961,-0.19232 0.24777,-0.38091 0.46452,-0.42225 0.004,-5.1e-4 0.44643,-0.0567 0.9221,-0.0872 0.17922,-0.0114 0.36242,-0.0197 0.52676,-0.02 z m 0.74883,0.86985 c -0.0301,-4.3e-4 -0.0597,0.007 -0.0861,0.0215 l -2.13891,1.18337 c -0.084,0.0459 -0.11461,0.15134 -0.0684,0.23514 0.0465,0.0834 0.15174,0.11332 0.23514,0.0669 l 2.1389,-1.18337 c 0.0836,-0.0465 0.11358,-0.15204 0.0669,-0.23552 -0.0301,-0.0534 -0.0862,-0.0869 -0.14754,-0.088 z"
         sodipodi:nodetypes="scccccccsscccccccccccsccssccccsccccsssccscccscsccsccscccccsccscccccccc" />
      <path
         id="path13833"
         style="fill:#000000;stroke:none;stroke-width:0.196716px;stroke-linecap:butt;stroke-linejoin:miter;stroke-opacity:1"
         d="m 149.03896,125.97394 c -0.39637,0.15673 -0.70733,1.37433 -0.70733,1.37433 l 0.11488,0.10259 0.8322,-1.2437 z m 0.38306,0.37269 -0.82682,1.23639 0.24436,0.21785 0.92672,-1.11959 z m 0.48565,0.47258 -0.92134,1.11191 0.25165,0.22438 c 0.12135,-0.12094 0.28696,-0.28681 0.4845,-0.48949 0.1608,-0.165 0.32345,-0.3358 0.44722,-0.47219 0.0208,-0.023 0.0388,-0.0432 0.0573,-0.0642 z m 0.46028,0.44761 c -0.0174,0.0195 -0.034,0.0382 -0.053,0.0592 -0.12669,0.1396 -0.28977,0.31052 -0.45145,0.47642 -0.19189,0.1969 -0.35622,0.36156 -0.47873,0.48372 l 0.14869,0.13256 c 0,0 1.01279,-0.55606 1.03738,-0.95439 z" />
      <path
         id="path13833-6"
         style="fill:#000000;stroke:none;stroke-width:0.196716px;stroke-linecap:butt;stroke-linejoin:miter;stroke-opacity:1"
         d="m 158.25585,125.94397 c 0.38274,0.18759 0.5964,1.42598 0.5964,1.42598 l -0.12264,0.0932 -0.73121,-1.30563 z m -0.41133,0.34121 0.72641,1.29793 -0.26083,0.19784 -0.83524,-1.1894 z m -0.52151,0.43268 0.83048,1.18132 -0.26862,0.20377 c -0.1114,-0.13018 -0.26337,-0.30862 -0.44424,-0.52629 -0.14725,-0.17721 -0.29589,-0.36033 -0.40848,-0.5061 -0.019,-0.0245 -0.0352,-0.0462 -0.052,-0.0685 z m -0.49427,0.40979 c 0.0158,0.0208 0.0309,0.0408 0.0482,0.0632 0.11525,0.14919 0.2643,0.33247 0.41235,0.51065 0.17571,0.21146 0.3265,0.38861 0.43896,0.52008 l -0.15871,0.12037 c 0,0 -0.96562,-0.63443 -0.95863,-1.03346 z" />
      <path
         style="color:#000000;fill:#000000;stroke-width:0.743495;stroke-linecap:round;-inkscape-stroke:none"
         d="m 146.59025,115.47525 c -0.17058,0 -0.31221,0.14308 -0.31221,0.31366 v 3.14534 c 0,0.17057 0.14163,0.31366 0.31221,0.31366 h 1.68884 c 0.17057,0 0.31221,-0.14309 0.31221,-0.31366 v -3.14534 c 0,-0.17058 -0.14164,-0.31366 -0.31221,-0.31366 z m 0.0465,0.35868 h 1.5959 v 3.0553 h -1.5959 z"
         id="path3501" />
      <rect
         style="fill:#000000;stroke:none;stroke-width:0.122677;stroke-linecap:round;stroke-miterlimit:4;stroke-dasharray:none;stop-color:#000000"
         id="rect2999"
         width="0.57285523"
         height="3.8907192"
         x="169.35349"
         y="74.551224"
         ry="0.28642762"
         transform="rotate(15.777651)" />
      <path
         id="path14978-7"
         style="fill:#000000;stroke:none;stroke-width:0.196716px;stroke-linecap:butt;stroke-linejoin:miter;stroke-opacity:1"
         d="m 156.39078,116.63636 1.21258,0.52868 0.0688,0.90174 0.0718,1.2875 c -0.50769,-0.17739 -0.98514,-0.31912 -1.08694,-0.32274 l -0.0695,-0.003 -0.04,-0.32773 z m 1.62675,1.38034 0.20442,0.65955 0.21365,0.91359 c 0.0564,0.24113 -0.24523,-0.0769 -0.56421,-0.19265 l -0.0722,-1.29941 c 0.0611,-0.0479 0.14255,-0.0642 0.21833,-0.0811 z m 6.20334,0.70769 0.73384,2.7379 h -0.16598 c -0.006,-0.13836 -0.0258,-0.26257 -0.0638,-0.36309 0,0 -0.16872,-1.04844 -0.89297,-1.18306 0,0 -0.76859,-0.12005 -1.64358,-0.11428 -0.36945,0.003 -0.69792,-0.0243 -0.80286,0.0604 0,0 -1.03632,0.34714 -1.39937,0.59082 -0.0578,-0.0891 -0.15822,-0.14792 -0.27279,-0.14792 h -0.68159 c -0.0666,0 -0.12837,0.0201 -0.17981,0.0542 -0.004,-0.11329 -0.0237,-0.35108 -0.10105,-0.438 -0.0291,-0.0265 -0.0735,-0.0567 -0.12986,-0.0891 l -0.31736,-1.105 h 0.3527 l 3.1337,0.0208 z"
         sodipodi:nodetypes="ccccccccccsccccccccccsscccccccc" />
      <rect
         style="fill:#000000;stroke:none;stroke-width:0.122677;stroke-linecap:round;stroke-miterlimit:4;stroke-dasharray:none;stop-color:#000000"
         id="rect2999-5"
         width="0.57285523"
         height="3.8907192"
         x="-126.49838"
         y="158.23987"
         ry="0.28642762"
         transform="matrix(-0.96232413,0.2719049,0.2719049,0.96232413,0,0)" />
      <rect
         style="fill:#000000;stroke:none;stroke-width:0.131949;stroke-linecap:round;stroke-miterlimit:4;stroke-dasharray:none;stop-color:#000000"
         id="rect3607"
         width="1.3594265"
         height="2.8050666"
         x="146.75496"
         y="115.95905"
         ry="0" />
      <rect
         style="fill:#000000;stroke:none;stroke-width:0.122677;stroke-linecap:round;stroke-miterlimit:4;stroke-dasharray:none;stop-color:#000000"
         id="rect5263"
         width="1.1140112"
         height="3.4627156"
         x="153.40521"
         y="139.79565"
         ry="0.28642711"
         transform="rotate(-4.6061871)" />
      <rect
         style="fill:#000000;stroke:none;stroke-width:0.122677;stroke-linecap:round;stroke-miterlimit:4;stroke-dasharray:none;stop-color:#000000"
         id="rect5367"
         width="0.59152424"
         height="2.5322175"
         x="158.27184"
         y="137.08092"
         ry="0.28642711"
         transform="rotate(-2.7187553)" />
      <path
         style="fill:#000000;stroke:none;stroke-width:0.264583px;stroke-linecap:butt;stroke-linejoin:miter;stroke-opacity:1"
         d="m 161.92459,130.74486 -0.96491,1.99252 c 0.58702,0.25214 2.51889,-0.0303 2.60735,-0.2815 l -1.22303,-1.73942 z"
         id="path2273"
         sodipodi:nodetypes="ccccc" />
      <rect
         style="fill:#000000;stroke:#ffffff;stroke-width:0.105;stroke-linecap:round;stroke-miterlimit:4;stroke-dasharray:none;stop-color:#000000"
         id="rect2683"
         width="0.38288715"
         height="1.1996572"
         x="150.26817"
         y="144.42781"
         ry="0.14521828"
         transform="rotate(-4.8801568)" />
      <rect
         style="fill:#000000;stroke:none;stroke-width:0.105;stroke-linecap:round;stroke-miterlimit:4;stroke-dasharray:none;stop-color:#000000"
         id="rect4448"
         width="0.7632609"
         height="6.845706"
         x="149.93498"
         y="118.57572"
         ry="0.1452184"
         transform="rotate(3.5217326)" />
      <rect
         style="fill:#000000;stroke:none;stroke-width:0.124191;stroke-linecap:round;stroke-miterlimit:4;stroke-dasharray:none;stop-color:#000000"
         id="rect4628"
         width="0.97102189"
         height="3.3143313"
         x="153.09946"
         y="116.59905"
         ry="0.1451266"
         transform="matrix(0.99597053,0.08968113,-0.06762891,0.99771054,0,0)" />
      <rect
         style="fill:#000000;stroke:none;stroke-width:0.111408;stroke-linecap:round;stroke-miterlimit:4;stroke-dasharray:none;stop-color:#000000"
         id="rect4869"
         width="0.32094049"
         height="3.2425859"
         x="153.55301"
         y="122.48748"
         ry="0.096846081"
         transform="matrix(0.99865342,0.05187818,-0.06217688,0.99806515,0,0)" />
      <g
         id="g5982"
         transform="rotate(3.5662631,156.64503,143.42282)">
        <path
           id="rect5394"
           style="fill:#000000;stroke:none;stroke-width:0.39685;stroke-linecap:round;stroke-miterlimit:4;stroke-dasharray:none;stop-color:#000000"
           d="m 32.578125,145.41797 v 0.96484 c 0,0.7305 0.587863,1.31836 1.318359,1.31836 0.730497,0 1.31836,-0.58786 1.31836,-1.31836 v -0.96484 c -0.289248,0.13232 -0.611213,0.20703 -0.951172,0.20703 h -0.734375 c -0.339959,0 -0.661925,-0.0747 -0.951172,-0.20703 z"
           transform="matrix(0.26458333,0,0,0.26458333,135.48963,99.590537)" />
        <path
           id="rect5169"
           style="fill:#000000;stroke:none;stroke-width:0.39685;stroke-linecap:round;stroke-miterlimit:4;stroke-dasharray:none;stop-color:#000000"
           d="m 33.529297,131.54883 c -1.012924,0 -1.867438,0.6539 -2.166016,1.56445 a 0.9603493,0.9603493 0 0 1 0.101563,-0.008 0.9603493,0.9603493 0 0 1 0.958984,0.96094 0.9603493,0.9603493 0 0 1 -0.958984,0.96093 A 0.9603493,0.9603493 0 0 1 31.25,135 v 1.10742 a 0.9603493,0.9603493 0 0 1 0.214844,-0.0273 0.9603493,0.9603493 0 0 1 0.958984,0.96094 A 0.9603493,0.9603493 0 0 1 31.464844,138 0.9603493,0.9603493 0 0 1 31.25,137.9707 v 1.11133 a 0.9603493,0.9603493 0 0 1 0.214844,-0.0293 0.9603493,0.9603493 0 0 1 0.958984,0.95899 0.9603493,0.9603493 0 0 1 -0.958984,0.96094 0.9603493,0.9603493 0 0 1 -0.214844,-0.0273 v 1.10742 a 0.9603493,0.9603493 0 0 1 0.214844,-0.0273 0.9603493,0.9603493 0 0 1 0.958984,0.96094 0.9603493,0.9603493 0 0 1 -0.544922,0.86523 c 0.414604,0.43469 0.999472,0.70508 1.650391,0.70508 h 0.734375 c 0.643075,0 1.221103,-0.26393 1.634766,-0.68945 a 0.9603493,0.9603493 0 0 1 -0.53125,-0.85547 0.9603493,0.9603493 0 0 1 0.960937,-0.96094 0.9603493,0.9603493 0 0 1 0.214844,0.0254 v -1.10156 A 0.9603493,0.9603493 0 0 1 36.328125,141 a 0.9603493,0.9603493 0 0 1 -0.960937,-0.96094 0.9603493,0.9603493 0 0 1 0.960937,-0.95898 0.9603493,0.9603493 0 0 1 0.214844,0.0273 v -1.10937 a 0.9603493,0.9603493 0 0 1 -0.214844,0.0273 0.9603493,0.9603493 0 0 1 -0.960937,-0.95898 0.9603493,0.9603493 0 0 1 0.960937,-0.96094 0.9603493,0.9603493 0 0 1 0.214844,0.0254 v -1.10156 a 0.9603493,0.9603493 0 0 1 -0.214844,0.0254 0.9603493,0.9603493 0 0 1 -0.960937,-0.96094 0.9603493,0.9603493 0 0 1 0.960937,-0.96094 0.9603493,0.9603493 0 0 1 0.109375,0.006 c -0.290862,-0.92384 -1.151459,-1.58984 -2.173828,-1.58984 z m 0.367187,0.49219 A 0.9603493,0.9603493 0 0 1 34.855469,133 0.9603493,0.9603493 0 0 1 33.896484,133.96094 0.9603493,0.9603493 0 0 1 32.935547,133 a 0.9603493,0.9603493 0 0 1 0.960937,-0.95898 z m 0,2.97265 a 0.9603493,0.9603493 0 0 1 0.958985,0.96094 0.9603493,0.9603493 0 0 1 -0.958985,0.96094 0.9603493,0.9603493 0 0 1 -0.960937,-0.96094 0.9603493,0.9603493 0 0 1 0.960937,-0.96094 z m 0,2.97266 a 0.9603493,0.9603493 0 0 1 0.958985,0.96094 0.9603493,0.9603493 0 0 1 -0.958985,0.95898 0.9603493,0.9603493 0 0 1 -0.960937,-0.95898 0.9603493,0.9603493 0 0 1 0.960937,-0.96094 z m 0,2.97461 a 0.9603493,0.9603493 0 0 1 0.958985,0.95898 0.9603493,0.9603493 0 0 1 -0.958985,0.96094 0.9603493,0.9603493 0 0 1 -0.960937,-0.96094 0.9603493,0.9603493 0 0 1 0.960937,-0.95898 z"
           transform="matrix(0.26458333,0,0,0.26458333,135.48963,99.590537)" />
      </g>
      <rect
         style="fill:#000000;stroke:none;stroke-width:0.105;stroke-linecap:round;stroke-miterlimit:4;stroke-dasharray:none;stop-color:#000000"
         id="rect6047"
         width="0.8768183"
         height="1.7485437"
         x="153.78574"
         y="120.58153"
         ry="0.34887695"
         transform="rotate(4.6673412)" />
    </g>
  </g>
</svg>
