<?xml version="1.0" encoding="UTF-8" standalone="no"?>
<!-- Created with Inkscape (http://www.inkscape.org/) -->

<svg
   sodipodi:docname="Firestarter.svg"
   inkscape:version="1.2.2 (b0a8486541, 2022-12-01)"
   id="svg8"
   version="1.1"
   viewBox="0 0 34.98301 52.516205"
   height="52.516205mm"
   width="34.983009mm"
   xml:space="preserve"
   xmlns:inkscape="http://www.inkscape.org/namespaces/inkscape"
   xmlns:sodipodi="http://sodipodi.sourceforge.net/DTD/sodipodi-0.dtd"
   xmlns="http://www.w3.org/2000/svg"
   xmlns:svg="http://www.w3.org/2000/svg"
   xmlns:rdf="http://www.w3.org/1999/02/22-rdf-syntax-ns#"
   xmlns:cc="http://creativecommons.org/ns#"
   xmlns:dc="http://purl.org/dc/elements/1.1/"><defs
     id="defs2" /><sodipodi:namedview
     id="base"
     pagecolor="#ffffff"
     bordercolor="#666666"
     borderopacity="1.0"
     inkscape:pageopacity="0.0"
     inkscape:pageshadow="2"
     inkscape:zoom="2.8284273"
     inkscape:cx="63.286053"
     inkscape:cy="102.17692"
     inkscape:document-units="mm"
     inkscape:current-layer="layer3"
     showgrid="false"
     inkscape:window-width="1920"
     inkscape:window-height="1043"
     inkscape:window-x="1920"
     inkscape:window-y="0"
     inkscape:window-maximized="1"
     inkscape:snap-global="false"
     fit-margin-top="0"
     fit-margin-left="0"
     fit-margin-right="0"
     fit-margin-bottom="0"
     showguides="true"
     inkscape:guide-bbox="true"
     inkscape:showpageshadow="2"
     inkscape:pagecheckerboard="0"
     inkscape:deskcolor="#d1d1d1" /><metadata
     id="metadata5"><rdf:RDF><cc:Work
         rdf:about=""><dc:format>image/svg+xml</dc:format><dc:type
           rdf:resource="http://purl.org/dc/dcmitype/StillImage" /><dc:title /></cc:Work></rdf:RDF></metadata><g
     inkscape:groupmode="layer"
     id="layer3"
     inkscape:label="Capa 1"><path
       id="rect3086"
       style="fill:#000000;stroke:none;stroke-width:0.210002;stroke-linecap:round;stroke-dasharray:none;stop-color:#000000"
       d="m 11.729753,18.837062 -0.0728,0.0014 -0.07099,0.0094 -0.06845,0.01377 -0.06447,0.02064 -0.02173,0.0094 0.347692,0.862348 -0.02463,0.02753 -0.689952,-0.632365 -0.04672,0.05179 -0.0699,0.08909 -0.06411,0.09308 -0.01774,0.02861 0.81418,0.501256 0.0043,-0.0069 0.03404,-0.04781 0.02897,-0.03694 0.02028,-0.02463 0.01774,0.0025 0.0014,-0.01521 0.848948,-0.344795 -0.01666,-0.04238 -0.04092,-0.08077 -0.04926,-0.08077 -0.05904,-0.07678 -0.067,-0.07243 -0.03296,-0.02753 -0.576227,0.676189 0.113724,-0.885529 -0.06592,-0.0083 -0.07243,-0.001 z m -0.999615,0.818526 -0.01884,0.03549 -0.05215,0.112276 -0.04092,0.09598 0.877198,0.379202 0.03695,-0.08367 0.03984,-0.08475 0.01087,-0.02172 z m 1.99597,0.122054 -0.946012,0.144871 0.0029,0.01666 0.0055,0.04491 0.0029,0.05071 0.0025,0.05361 v 0.0025 l 0.956877,-0.0055 v -0.0163 l -0.004,-0.0862 -0.0055,-0.08511 -0.0098,-0.08475 z m -2.203861,0.365438 -0.0094,0.02463 -0.04672,0.131471 -0.02861,0.0862 0.906173,0.303868 0.02716,-0.07932 0.03984,-0.113724 0.0069,-0.01666 z m 1.266179,0.144873 -0.0094,0.122054 -0.01231,0.09851 0.949997,0.113724 0.0134,-0.116621 0.01123,-0.13944 z m -1.427712,0.339723 -0.02608,0.0862 -0.04238,0.144873 -0.0029,0.0098 0.922833,0.253164 0.0014,-0.004 0.03803,-0.134368 0.02463,-0.07931 z m 1.375558,0.08873 -0.02716,0.149218 -0.01522,0.07388 0.936234,0.193042 0.01811,-0.08475 0.02861,-0.160083 z m -1.509564,0.390431 -0.0536,0.206441 -0.008,0.03296 0.929353,0.223103 0.0069,-0.02608 0.0507,-0.197025 z m 1.417933,0.05723 -0.0055,0.02355 -0.03984,0.16117 -0.008,0.03151 0.92392,0.243746 0.01086,-0.03839 0.04382,-0.17783 0.0069,-0.03151 z m -1.535641,0.414696 -0.01123,0.04962 -0.04382,0.191593 0.935146,0.207893 0.04093,-0.184713 0.0098,-0.04093 z m 1.42083,0.02608 -0.01666,0.06048 -0.04491,0.151752 -0.0014,0.0055 0.914502,0.280688 0.004,-0.01087 0.04781,-0.162981 0.01774,-0.067 z m -0.131471,0.439324 -0.06012,0.187609 -0.01123,0.03296 0.905086,0.309302 0.0134,-0.04092 0.06302,-0.194491 z m -1.396202,0.01521 -0.045272,0.21767 -0.00396,0.02173 0.9387689,0.185073 0.0029,-0.01774 0.04527,-0.210789 z m 1.248433,0.424474 -0.05215,0.14777 -0.02608,0.07099 0.895308,0.335379 0.02861,-0.07786 0.05505,-0.153203 z m -1.34441,0.05071 -0.013764,0.07099 -0.031507,0.168413 0.940581,0.173846 0.03151,-0.162982 0.01231,-0.067 z m 1.265454,0.237951 c -0.100035,0.02807 -0.181206,0.109107 -0.204631,0.218032 l -0.124589,-0.03405 c -0.25956,1.440434 -0.419814,2.860268 -0.459244,3.226657 l 1.976775,0.539648 c 0.154851,0.04228 0.313739,-0.04833 0.356023,-0.203183 l 0.05361,-0.197026 C 12.581323,25.198756 12.40956,24.07878 12.228114,22.960836 l -0.105394,-0.02209 c -0.04136,0.112929 -0.06736,0.178917 -0.06736,0.178917 z m -1.3541881,0.24085 -0.041293,0.235416 0.9416661,0.165878 0.04274,-0.235417 z m -0.080767,0.475178 -0.016659,0.09308 -0.023183,0.146321 0.9445631,0.152115 0.02318,-0.143786 0.01522,-0.08909 z m -0.07823,0.479164 -0.035495,0.229984 v 0.0094 l 0.9456501,0.1398 0.0014,-0.0069 0.03441,-0.227448 z m -0.069901,0.311832 -0.2987986,1.10175 c -0.033032,0.12179 0.016277,0.245441 0.1140869,0.313286 0.039986,-0.341701 0.1020205,-0.841175 0.1847117,-1.415036 z m -0.00108,0.16443 -0.00688,0.04527 -0.027526,0.194127 0.9470991,0.13292 0.02753,-0.191592 0.0055,-0.04238 z m -0.067366,0.476266 -0.0134,0.09996 -0.018109,0.142337 0.9489101,0.12314 0.01774,-0.137988 0.01231,-0.09453 z m -0.063019,0.479163 -0.00942,0.06991 -0.020644,0.170948 0.9499961,0.116622 0.02065,-0.167327 0.0083,-0.06701 z m -0.058673,0.482062 -0.027526,0.237951 0.9514451,0.108292 0.02608,-0.238314 z m 0.019196,0.299158 a 1.8469623,1.8469623 0 0 0 -1.8471154,1.846755 1.8469623,1.8469623 0 0 0 1.8471151,1.847113 1.8469623,1.8469623 0 0 0 0.06302,-0.0014 l -0.1329199,0.08149 0.038028,0.06266 0.04165,0.0612 0.00362,0.0062 0.3447949,-0.245558 a 1.8469623,1.8469623 0 0 0 0.6164254,-0.243016 l 0.03042,0.11481 0.04889,-0.004 -0.01522,-0.152478 A 1.8469623,1.8469623 0 0 0 11.264345,28.027364 1.8469623,1.8469623 0 0 0 9.4175914,26.18061 Z m -0.056139,0.280328 c 0.3848294,0 0.6982821,0.314902 0.6982821,0.69973 0,0.384829 -0.3134527,0.697921 -0.6982817,0.697921 -0.3848296,0 -0.6993689,-0.313091 -0.6993689,-0.697921 2e-7,-0.384828 0.3145389,-0.69973 0.6993685,-0.69973 z m 1.1883101,0.0058 c 0.520081,0.168986 0.833421,1.09007 0.829754,1.363968 l 0.235416,10e-7 0.36725,-0.971729 z M 9.3614632,26.64713 c -0.2844552,0 -0.5132086,0.229115 -0.5132088,0.513571 8e-7,0.284456 0.2287535,0.513209 0.5132087,0.513209 0.2844556,0 0.5135709,-0.228753 0.5135709,-0.513209 0,-0.284456 -0.2291162,-0.513571 -0.5135708,-0.513571 z m -1.0180866,0.87901 c 0.00496,-1.26e-4 0.00986,0 0.01485,0 0.3193545,0 0.5791247,0.259408 0.5791248,0.578763 -2e-7,0.319353 -0.2597705,0.580574 -0.5791248,0.580574 -0.3193545,0 -0.5805736,-0.261221 -0.5805736,-0.580574 -1e-7,-0.314365 0.2532022,-0.570823 0.5657236,-0.578763 z m 1.9130314,0.004 c 0.0029,-7.6e-5 0.0058,0 0.0087,0 h 0.439323 c 0.187273,0 0.340811,0.153538 0.340811,0.340811 v 0.469384 c 0,0.187273 -0.153538,0.341173 -0.340811,0.341173 h -0.439326 c -0.187273,0 -0.3408111,-0.1539 -0.3408111,-0.341173 V 27.87091 c -1e-6,-0.184347 0.1488381,-0.336115 0.3321181,-0.34081 z m -1.9094118,0.14921 c -0.2309073,0.0058 -0.4146953,0.193191 -0.4146955,0.425561 1e-7,0.236056 0.1898653,0.425923 0.4259226,0.425923 0.2360583,0 0.4255616,-0.189867 0.4255612,-0.425923 -10e-8,-0.236058 -0.1895032,-0.425561 -0.4255607,-0.425561 -0.00369,-1e-6 -0.00756,-9.3e-5 -0.011228,0 z m 1.9181018,0.0163 c -0.09847,0 -0.175295,0.07682 -0.175294,0.175296 l -1e-6,0.469385 c 1e-6,0.09847 0.07682,0.175293 0.175295,0.175293 h 0.439324 c 0.09848,0 0.175295,-0.07682 0.175295,-0.175293 v -0.469386 c 0,-0.09847 -0.07682,-0.175295 -0.175295,-0.175295 z m -0.9036374,0.784478 c 0.3193545,-1e-6 0.5791246,0.259769 0.5791246,0.579125 1e-6,0.319353 -0.2597701,0.58021 -0.5791247,0.580211 -0.3193542,-1e-6 -0.5802114,-0.260859 -0.5802112,-0.580211 -2e-7,-0.319356 0.2608572,-0.579126 0.5802113,-0.579125 z m 0,0.153201 c -0.2360575,0 -0.4255609,0.189865 -0.425561,0.425924 2e-7,0.236056 0.1895032,0.42556 0.4255614,0.42556 0.2360575,0 0.4259231,-0.189503 0.4259231,-0.42556 0,-0.236059 -0.189866,-0.425924 -0.4259235,-0.425924 z m 1.3799044,0.724359 -0.247731,0.348054 0.42049,-0.02318 -0.0014,-0.01593 -0.0087,-0.04672 -0.01087,-0.04274 -0.01485,-0.04419 -0.02173,-0.04419 -0.02716,-0.0431 -0.03296,-0.0402 -0.04057,-0.03767 z m -0.267289,0.376304 -0.03296,0.04636 0.0061,0.01847 -0.01738,-0.0025 -0.0025,0.004 -0.0073,-0.0047 -0.05251,-0.0098 v -0.0055 l -0.0076,0.02825 -0.01087,0.03078 -0.0025,0.0062 0.491478,0.230346 0.01231,-0.0268 0.0268,-0.07388 0.02065,-0.07424 0.004,-0.02101 -0.42049,-0.07497 z m -0.5320417,0.126039 -0.4154197,0.35059 0.026077,0.0297 0.042737,0.04636 0.044186,0.04382 0.0083,0.0062 0.3592814,-0.405641 -0.022089,-0.02173 -0.025719,-0.02825 z m 0.3592827,0.06374 -0.004,0.0051 -0.02209,0.02572 -0.01557,0.01702 0.34914,0.415419 0.0087,-0.0073 0.05868,-0.05758 0.05396,-0.06374 0.01738,-0.02572 z m -0.226725,0.0612 -0.2806896,0.464677 0.032959,0.01955 0.050344,0.02572 0.050344,0.021 0.051428,0.01847 0.011228,0.0022 0.1347316,-0.525522 -0.0025,-0.0014 -0.01449,-0.0062 -0.0163,-0.0083 z m 0.128574,0.02608 -0.0058,0.001 -0.0076,0.0025 -0.0076,0.0025 -0.0069,0.001 h -0.0055 l 0.04201,0.540372 0.0268,-0.001 0.04889,-0.0087 0.04926,-0.01123 0.04527,-0.01449 0.04419,-0.01847 0.01485,-0.0062 z" /><path
       id="rect3086-2"
       style="fill:#000000;stroke:none;stroke-width:0.210002;stroke-linecap:round;stroke-dasharray:none;stop-color:#000000"
       d="m 23.275734,18.893314 0.0728,0.0014 0.07099,0.0094 0.06845,0.01376 0.06447,0.02064 0.02173,0.0094 -0.347691,0.862349 0.02463,0.02752 0.689952,-0.632364 0.04671,0.05179 0.06991,0.08909 0.0641,0.09308 0.01774,0.02861 -0.81418,0.501257 -0.0043,-0.0069 -0.03403,-0.0478 -0.02897,-0.03695 -0.02028,-0.02463 -0.01774,0.0025 -0.0014,-0.01521 -0.848949,-0.344796 0.01666,-0.04238 0.04093,-0.08077 0.04925,-0.08077 0.05904,-0.07678 0.067,-0.07243 0.03296,-0.02752 0.576227,0.676189 -0.113724,-0.885529 0.06591,-0.0083 0.07243,-10e-4 z m 0.999614,0.818526 0.01883,0.03549 0.05216,0.112276 0.04093,0.09598 -0.877198,0.379202 -0.03695,-0.08367 -0.03984,-0.08475 -0.01088,-0.02173 z m -1.99597,0.122054 0.946012,0.144872 -0.0028,0.01666 -0.0055,0.04491 -0.0028,0.0507 -0.0025,0.05361 v 0.0025 l -0.956878,-0.0055 -1.6e-5,-0.01629 0.0041,-0.0862 0.0055,-0.08511 0.0098,-0.08475 z m 2.203862,0.36544 0.0094,0.02463 0.04672,0.13147 0.02862,0.0862 -0.906173,0.303869 -0.02718,-0.07932 -0.03984,-0.113725 -0.0069,-0.01666 z m -1.26618,0.144871 0.0094,0.122054 0.01231,0.09851 -0.949996,0.113725 -0.0134,-0.116623 -0.01123,-0.139438 z m 1.427712,0.339724 0.02608,0.0862 0.04238,0.144872 0.0028,0.0098 -0.922832,0.253163 -0.0014,-0.0041 -0.038,-0.134376 -0.02463,-0.07932 z m -1.375558,0.08873 0.02717,0.149217 0.01523,0.07388 -0.936236,0.193041 -0.01812,-0.08474 -0.02861,-0.160083 z m 1.509564,0.390429 0.05361,0.206442 0.008,0.03296 -0.929353,0.223102 -0.0069,-0.02608 -0.05068,-0.197033 z m -1.417933,0.05723 0.0054,0.02355 0.03987,0.161163 0.008,0.03151 -0.923918,0.243747 -0.01087,-0.0384 -0.04383,-0.177827 -0.0069,-0.03152 z m 1.535641,0.414696 0.01123,0.04962 0.04382,0.191593 -0.935147,0.207891 -0.04092,-0.184711 -0.0098,-0.04093 z m -1.420829,0.02608 0.01666,0.06049 0.04492,0.151749 0.0014,0.0054 -0.914502,0.280689 -0.0041,-0.01086 -0.04777,-0.16299 -0.01774,-0.067 z m 0.131468,0.439325 0.06012,0.187609 0.01125,0.03295 -0.905087,0.309302 -0.01343,-0.04092 -0.06302,-0.19449 z m 1.396203,0.01521 0.04526,0.217671 0.0041,0.02173 -0.938769,0.185074 -0.0028,-0.01775 -0.04527,-0.210788 z m -1.248433,0.424474 0.05215,0.147769 0.02608,0.07099 -0.895309,0.335378 -0.02861,-0.07787 -0.05505,-0.153202 z m 1.344409,0.05071 0.01379,0.07098 0.0315,0.168414 -0.94058,0.173846 -0.03151,-0.16298 -0.01234,-0.067 z m -1.265454,0.237953 c 0.100035,0.02807 0.181206,0.109108 0.204631,0.218032 l 0.12459,-0.03403 c 0.25956,1.440434 0.419812,2.860268 0.459244,3.226656 l -1.976776,0.539647 c -0.154851,0.04228 -0.313739,-0.04833 -0.356022,-0.203182 l -0.05361,-0.197025 c 0.188253,-1.123837 0.360016,-2.243815 0.541461,-3.361757 l 0.105393,-0.02209 c 0.04136,0.11293 0.06737,0.178916 0.06737,0.178916 z m 1.354188,0.240849 0.04128,0.235417 -0.941666,0.165878 -0.04273,-0.235417 z m 0.08077,0.475181 0.01666,0.09308 0.02318,0.14632 -0.944564,0.152116 -0.02318,-0.143787 -0.01521,-0.08909 z m 0.07823,0.479164 0.03551,0.229982 2.5e-5,0.0094 -0.94565,0.1398 -0.0014,-0.0069 -0.0344,-0.227449 z m 0.0699,0.311836 0.298807,1.101748 c 0.03303,0.121789 -0.01628,0.245439 -0.114087,0.313285 -0.03998,-0.341701 -0.102021,-0.841175 -0.184713,-1.415036 z m 0.001,0.164428 0.0069,0.04526 0.02752,0.194129 -0.947099,0.132919 -0.02753,-0.191593 -0.0055,-0.04237 z m 0.06737,0.476266 0.0134,0.09996 0.01811,0.142337 -0.94891,0.123141 -0.01774,-0.137991 -0.01231,-0.09453 z m 0.06301,0.479164 0.0094,0.0699 0.02065,0.17095 -0.949996,0.116621 -0.02065,-0.167326 -0.0083,-0.06701 z m 0.05868,0.48206 0.02752,0.237954 -0.951445,0.108291 -0.02608,-0.238315 z m -0.01919,0.29916 a 1.8469623,1.8469623 0 0 1 1.847116,1.846753 1.8469623,1.8469623 0 0 1 -1.847116,1.847116 1.8469623,1.8469623 0 0 1 -0.06301,-0.0014 l 0.13292,0.08149 -0.03803,0.06266 -0.04165,0.0612 -0.0037,0.0062 -0.344796,-0.245557 a 1.8469623,1.8469623 0 0 1 -0.61643,-0.243024 l -0.03042,0.114813 -0.04889,-0.0041 0.01521,-0.152476 a 1.8469623,1.8469623 0 0 1 -0.808023,-1.52694 1.8469623,1.8469623 0 0 1 1.846752,-1.846753 z m 0.05614,0.280328 c -0.384829,0 -0.698282,0.314901 -0.698282,0.69973 0,0.384828 0.313453,0.69792 0.698282,0.69792 0.384829,0 0.699369,-0.313091 0.699369,-0.69792 -10e-7,-0.384829 -0.31454,-0.69973 -0.699369,-0.69973 z m -1.188312,0.0058 c -0.52008,0.168986 -0.83342,1.090069 -0.829751,1.363966 h -0.235418 l -0.36725,-0.971727 z m 1.188312,0.180365 c 0.284454,0 0.513208,0.229114 0.513208,0.51357 0,0.284455 -0.228754,0.513207 -0.513208,0.513207 -0.284456,0 -0.513571,-0.228752 -0.513571,-0.513207 0,-0.284456 0.229115,-0.51357 0.513571,-0.51357 z m 1.01809,0.879008 c -0.0049,-1.01e-4 -0.0099,3e-6 -0.01485,-1.3e-5 -0.319355,0 -0.579125,0.259408 -0.579125,0.578763 0,0.319354 0.25977,0.580572 0.579125,0.580573 0.319354,0 0.580574,-0.26122 0.580574,-0.580573 0,-0.314365 -0.253203,-0.570822 -0.565725,-0.578763 z m -1.913031,0.0041 c -0.0029,-7.2e-5 -0.0058,-2.9e-5 -0.0087,-2.3e-5 h -0.439316 c -0.187272,4e-6 -0.340812,0.153536 -0.340812,0.340811 v 0.469384 c -3e-6,0.187274 0.153541,0.341172 0.340811,0.341172 l 0.439324,1e-6 c 0.187272,4e-6 0.340811,-0.153899 0.34081,-0.341173 v -0.469384 c 4e-6,-0.184347 -0.14884,-0.336115 -0.332118,-0.340811 z m 1.909409,0.149218 c 0.230909,0.0058 0.414695,0.193191 0.414695,0.425562 10e-7,0.236055 -0.189865,0.425922 -0.425922,0.425922 -0.236058,0 -0.425561,-0.189868 -0.425561,-0.425922 0,-0.236059 0.189503,-0.425562 0.42556,-0.425562 0.0037,9e-6 0.0075,-1.03e-4 0.01122,-1.3e-5 z m -1.918102,0.0163 c 0.09847,0 0.175295,0.07682 0.175294,0.175294 l 1e-6,0.469385 c 1e-6,0.09848 -0.07682,0.175294 -0.175295,0.175294 h -0.439323 c -0.09848,1e-6 -0.175295,-0.07682 -0.175296,-0.175294 v -0.469424 c 0,-0.09847 0.07682,-0.175294 0.175296,-0.175294 z m 0.903637,0.78448 c -0.319353,0 -0.579123,0.259769 -0.579124,0.579126 0,0.319353 0.259771,0.58021 0.579125,0.580211 0.319354,-1e-6 0.580211,-0.260859 0.580211,-0.580211 0,-0.319357 -0.260857,-0.579126 -0.580212,-0.579126 z m 0,0.153202 c 0.236058,-1e-6 0.425562,0.189865 0.425562,0.425924 1e-6,0.236055 -0.189503,0.42556 -0.425562,0.42556 -0.236057,1e-6 -0.425923,-0.189504 -0.425923,-0.42556 0,-0.236059 0.189866,-0.425924 0.425923,-0.425924 z m -1.379902,0.724359 0.24773,0.348054 -0.420491,-0.02318 0.0014,-0.01593 0.0087,-0.04671 0.01086,-0.04274 0.01485,-0.04419 0.02174,-0.04418 0.02717,-0.04309 0.03295,-0.0402 0.04057,-0.03766 z m 0.267288,0.376304 0.03296,0.04636 -0.0062,0.01847 0.01737,-0.0026 0.0025,0.004 0.0073,-0.0047 0.05253,-0.0098 -3.2e-5,-0.0055 0.0076,0.02826 0.01088,0.03078 0.0025,0.0062 -0.491477,0.230347 -0.01233,-0.0268 -0.02678,-0.07388 -0.02065,-0.07424 -0.0041,-0.02099 0.420492,-0.07497 z m 0.532041,0.126039 0.41542,0.35059 -0.02608,0.0297 -0.04274,0.04637 -0.04419,0.04382 -0.0083,0.0061 -0.359281,-0.40564 0.02209,-0.02173 0.02572,-0.02825 z m -0.359282,0.06374 0.0041,0.0051 0.02209,0.02572 0.01558,0.01702 -0.349142,0.41542 -0.0087,-0.0073 -0.05868,-0.05758 -0.05397,-0.06374 -0.01738,-0.02572 z m 0.226724,0.0612 0.28069,0.464677 -0.03296,0.01955 -0.05034,0.02572 -0.05034,0.021 -0.05144,0.01847 -0.01122,0.0022 -0.134728,-0.525523 0.0025,-0.0014 0.01449,-0.0062 0.0163,-0.0083 z m -0.128573,0.02608 0.0058,0.0011 0.0076,0.0025 0.0076,0.0025 0.0069,0.0011 0.0055,-3.2e-5 -0.04201,0.540371 -0.0268,-0.001 -0.04889,-0.0087 -0.04925,-0.01123 -0.04527,-0.01449 -0.04419,-0.01847 -0.01485,-0.0062 z" /><path
       id="path1875"
       style="fill:#000000;stroke:none;stroke-width:0.185436px;stroke-linecap:butt;stroke-linejoin:miter;stroke-opacity:1"
       d="m 12.712708,22.871378 c -0.125931,0.0019 -0.254115,0.02981 -0.311475,0.123503 0,0 0.517928,3.865414 0.621138,3.999185 0,0 0.922954,0.288087 1.580552,0.269824 0.170107,-0.139612 0.177182,-1.004637 -0.0055,-1.074586 l -0.663512,-0.07642 c -0.166762,1.06e-4 -0.901104,-3.203115 -0.901104,-3.203115 0,0 -0.15826,-0.04085 -0.320166,-0.0384 z m 9.52713,0 c -0.150796,0.0025 -0.289743,0.0384 -0.289743,0.0384 0,0 -0.734342,3.20322 -0.901104,3.203115 l -0.663512,0.07642 c -0.182581,0.06995 -0.175508,0.934973 -0.0055,1.074586 0.657599,0.01826 1.580551,-0.269824 1.580551,-0.269824 0.10321,-0.133771 0.621139,-3.999184 0.621139,-3.999184 -0.05736,-0.09369 -0.185546,-0.121611 -0.311475,-0.123504 -0.01012,-1.54e-4 -0.02037,-1.64e-4 -0.03042,0 z m -7.426127,2.458835 0.139076,1.103923 h 0.606289 l -0.18616,-1.103923 z m 0.7479,0 0.186522,1.103923 h 1.104286 c 0.01393,-0.0077 0.02812,-0.01492 0.04238,-0.02209 l -0.1264,-1.08183 z m 2.617832,0 -0.130383,1.103923 h 1.097403 l 0.186523,-1.103923 z m 1.34079,0 -0.186161,1.103923 h 0.70625 l 0.139076,-1.103923 z m -2.558798,0.06121 0.111913,0.947824 c 0.118052,-0.03763 0.243784,-0.05831 0.374131,-0.05831 0.133295,0 0.261373,0.02157 0.381737,0.06085 h 0.05505 l 0.113363,-0.950359 z m -2.243339,0.06157 c -0.119058,0.145573 -0.1978,0.365913 -0.24592,0.625122 l 0.198475,0.0268 c 0.182542,0.08265 0.175475,1.105203 0.0055,1.270162 -0.0788,0.0026 -0.161191,-3.06e-4 -0.245557,-0.0069 0.05137,0.678668 0.191339,1.2856 0.307853,1.393303 l 0.126763,-2.284627 z m 5.546776,0 -0.147043,1.023882 0.126763,2.284627 c 0.116509,-0.107703 0.256478,-0.714636 0.307851,-1.393304 -0.08437,0.0065 -0.166761,0.0095 -0.245557,0.0069 -0.170079,-0.164959 -0.177145,-1.187511 0.0055,-1.270163 l 0.198475,-0.0268 c -0.04813,-0.259209 -0.126863,-0.47955 -0.245921,-0.625121 z m -7.474296,0.959412 -1.850012,6.768771 c 0.01621,0.180813 0.676528,0.267508 0.735948,0.126038 l 0.526609,-1.76019 c -0.05947,-0.975927 -0.04498,-2.467282 0.569347,-2.70367 0.066,-0.0254 0.147137,-0.04727 0.240486,-0.06629 h -0.0014 l 0.0098,-0.0018 c 0.0012,-2.24e-4 0.0024,-5.24e-4 0.0036,-7.24e-4 0.0026,-5.28e-4 0.0057,-8.88e-4 0.0083,-0.0014 l 0.45707,-1.528078 c -0.320053,-0.07068 -0.558118,-0.144873 -0.558118,-0.144873 -0.02594,-0.03362 -0.07808,-0.303331 -0.141612,-0.687778 z m 9.401816,0 c -0.06353,0.384447 -0.115674,0.654159 -0.141612,0.687779 0,0 -0.238066,0.07419 -0.558119,0.144872 l 0.457071,1.528035 c 0.0027,5.61e-4 0.0057,8.88e-4 0.0083,0.0014 0.0012,2.23e-4 0.0024,5.22e-4 0.0036,7.23e-4 l 0.0098,0.0018 h -0.0014 c 0.09335,0.01901 0.174488,0.04088 0.240488,0.06629 0.614322,0.236388 0.628813,1.727742 0.569346,2.703669 l 0.526616,1.760221 c 0.05942,0.141469 0.719737,0.05476 0.735948,-0.126038 z m -7.239605,0.09598 -0.139076,2.40632 h 0.543994 l 0.20789,-2.40632 z m 0.799693,0 -0.208253,2.40632 h 3.805056 l -0.207528,-2.40632 h -0.981869 c 0.315536,0.223911 0.522263,0.591772 0.522263,1.007221 0,0.680763 -0.553906,1.234669 -1.23467,1.234669 -0.680762,0 -1.235032,-0.553906 -1.235032,-1.234669 0,-0.415449 0.206727,-0.78331 0.522263,-1.007221 z m 1.694275,0 -0.324512,0.009 c -0.420922,0.136727 -0.724721,0.531318 -0.724721,0.998167 0,0.580389 0.469569,1.048509 1.049957,1.048509 0.580389,0 1.04851,-0.46812 1.04851,-1.048509 0,-0.468603 -0.305304,-0.864688 -0.728343,-0.999977 l -0.268012,-0.0073 z m 1.880798,0 0.207891,2.40632 h 0.643954 l -0.139076,-2.40632 z m -4.621771,2.260724 -1.435317,0.257872 c -0.03035,0.005 -0.06015,0.01033 -0.08838,0.01593 -0.0012,2.47e-4 -0.0024,5.25e-4 -0.0036,7.25e-4 l -0.0098,0.0018 h 0.0014 c -0.09335,0.01901 -0.174485,0.04088 -0.240487,0.06629 -0.925184,0.356008 -0.490391,3.559862 -0.490391,3.559862 0.07279,0.408044 0.543631,0.04093 0.543631,0.04093 0,0 -0.148518,-2.593385 0.7077,-2.866288 l 0.997079,-0.264029 c 0,0 0.152667,0.21866 0.262581,0.147046 0.189375,5.48e-4 0.378624,10e-4 0.567897,0.0014 -0.03843,-0.04991 -0.06157,-0.11228 -0.06157,-0.179641 v -0.306404 c 0,-0.0302 0.0048,-0.05943 0.0134,-0.08692 l -0.132196,-0.0116 0.01087,-0.127125 c -0.19923,-5.23e-4 -0.397677,-6.99e-4 -0.593974,-3.62e-4 z m 5.571406,0 -0.01666,0.21441 c -0.241632,0.0085 -0.480285,0.01511 -0.717478,0.02065 l 0.01231,0.141974 -0.04491,0.004 c 0.01024,0.02977 0.01593,0.06141 0.01593,0.09453 v 0.306404 c 0,0.06695 -0.02281,0.12914 -0.06085,0.178916 0.189042,-2.08e-4 0.378027,-5.45e-4 0.567174,-7.24e-4 0.109913,0.07162 0.26258,-0.147045 0.26258,-0.147045 l 0.99708,0.264028 c 0.856218,0.272904 0.707698,2.866289 0.707698,2.866289 0,0 0.470842,0.367116 0.543632,-0.04093 0,0 0.434793,-3.203854 -0.490391,-3.559861 -0.066,-0.0254 -0.147138,-0.04727 -0.240487,-0.06629 h 0.0014 l -0.0098,-0.0018 c -0.0012,-2.25e-4 -0.0024,-5.02e-4 -0.0036,-7.24e-4 -0.02823,-0.0057 -0.05803,-0.0109 -0.08837,-0.01593 z m -4.742016,0.250628 -0.0025,0.02789 c 0.0089,-0.0099 0.01847,-0.01925 0.02861,-0.02789 -0.0087,-3e-5 -0.01736,2.9e-5 -0.02608,0 z m 2.760893,0.0032 c -0.54694,0.0041 -1.082577,0.003 -1.608438,0.001 0.06094,0.05429 0.0996,0.133179 0.0996,0.220567 v 0.306404 c 0,0.06773 -0.0235,0.130328 -0.06229,0.180364 0.510789,1.17e-4 1.021578,1.15e-4 1.53238,-3.62e-4 -0.03833,-0.04998 -0.06157,-0.112516 -0.06157,-0.180002 V 29.24454 c 0,-0.08799 0.03894,-0.167307 0.100323,-0.221654 z m -2.543585,0.06266 c -0.08869,0 -0.158997,0.07031 -0.158997,0.158996 v 0.306405 c 0,0.08869 0.07031,0.158996 0.158997,0.158996 h 0.739209 c 0.08869,0 0.158633,-0.07031 0.158633,-0.158996 v -0.306405 c 0,-0.08869 -0.06995,-0.158996 -0.158633,-0.158996 z m 2.737714,0 c -0.08869,0 -0.157547,0.07017 -0.157547,0.158996 v 0.306405 c 0,0.08882 0.06885,0.158996 0.157547,0.158996 h 0.740294 c 0.0887,0 0.157549,-0.07017 0.157549,-0.158996 v -0.306405 c 0,-0.08883 -0.06886,-0.158996 -0.157549,-0.158996 z" /><path
       id="path436"
       style="fill:#000000;stroke:none;stroke-width:0.189125px;stroke-linecap:butt;stroke-linejoin:miter;stroke-opacity:1"
       d="m 17.48913,22.133618 c -0.467079,0.0021 -0.931883,0.0209 -1.440387,0.05071 -0.172984,0.131195 -0.467574,0.907984 -0.467574,0.907984 -0.0592,0.273536 0.02472,0.976975 0.112638,1.085814 l 0.412522,-0.170949 0.454536,0.281777 0.119881,0.738482 c 0,0 0.507895,0.137794 0.807105,0.140917 0.290575,-0.0049 0.824513,-0.140917 0.824513,-0.140917 l 0.119519,-0.738482 0.454536,-0.281777 0.412884,0.170949 c 0.08792,-0.108839 0.171841,-0.812278 0.112637,-1.085814 0,0 -0.294952,-0.776789 -0.467935,-0.907984 -0.518365,-0.03781 -0.987797,-0.05271 -1.454875,-0.05071 z m -1.059012,0.269462 h 2.132874 c 0.0797,0 0.145234,0.06517 0.145234,0.144872 v 0.193041 c 0,0.07969 -0.06554,0.146683 -0.145234,0.146683 h -2.132874 c -0.07969,0 -0.144872,-0.06699 -0.144872,-0.146683 v -0.193041 c 0,-0.07969 0.06517,-0.144872 0.144872,-0.144872 z m -0.0033,0.114811 c -0.01589,0.0014 -0.0268,0.01352 -0.0268,0.03006 v 0.193041 c 0,0.01764 0.01243,0.03005 0.03006,0.03005 h 2.132874 c 0.01763,0 0.03006,-0.01243 0.03006,-0.03005 v -0.193041 c 0,-0.01764 -0.01243,-0.03006 -0.03006,-0.03006 H 16.43014 c -0.0011,0 -0.0022,-9.6e-5 -0.0033,0 z m 0.294814,0.75297 h 1.549765 c 0.07549,0 0.138353,0.06141 0.138353,0.136904 v 0.194492 c 0,0.0755 -0.06285,0.136902 -0.138353,0.136902 h -1.549765 c -0.07549,0 -0.13799,-0.06141 -0.13799,-0.136902 v -0.194492 c 0,-0.0755 0.0625,-0.136904 0.13799,-0.136904 z m 0,0.09996 c -0.02183,0 -0.03803,0.01511 -0.03803,0.03694 v 0.194491 c 0,0.02183 0.0162,0.03695 0.03803,0.03695 h 1.549765 c 0.02183,0 0.0384,-0.01511 0.0384,-0.03695 v -0.194491 c 0,-0.02183 -0.01656,-0.03694 -0.0384,-0.03694 z"
       sodipodi:nodetypes="scccccccccccccsscsssssssssssssssssssssssssssssssssss" /><path
       id="path599"
       style="fill:#000000;stroke:none;stroke-width:0.185436px;stroke-linecap:butt;stroke-linejoin:miter;stroke-opacity:1"
       d="m 16.900589,20.053984 c -1.043575,0.317608 -1.279943,1.153179 -1.279943,1.153179 v 0.597959 l -0.06085,1.308192 0.116259,0.0055 0.03368,-0.740656 0.349504,-0.07932 -0.02608,-0.111914 -0.317632,0.07099 0.01955,-0.430993 c 0.244297,-0.104339 0.888248,-0.327292 1.787718,-0.337913 0.899468,0.01063 1.543422,0.233574 1.787717,0.337913 l 0.01955,0.430993 -0.384636,-0.06881 -0.02608,0.111914 0.416507,0.07714 0.03367,0.740656 0.116259,-0.0055 -0.06085,-1.308192 v -0.597959 c 0,0 -0.234698,-0.829391 -1.268714,-1.149557 l -0.02463,0.271997 h -1.205695 z m -1.647917,1.202436 c -0.06379,0.0032 -0.114086,0.05563 -0.114086,0.120244 v 1.645381 c 0,0.0667 0.05355,0.120605 0.120244,0.120605 h 0.164067 c 0.0667,0 0.120606,-0.0539 0.120606,-0.120605 v -1.645381 c 0,-0.0667 -0.0539,-0.120244 -0.120606,-0.120244 H 15.25883 c -0.0021,0 -0.0041,-1.04e-4 -0.0062,0 z m 4.3639,0 c -0.06381,0.0032 -0.114448,0.05563 -0.114448,0.120244 v 1.645381 c 0,0.0667 0.05391,0.120605 0.120605,0.120605 h 0.164067 c 0.06669,0 0.120244,-0.05391 0.120244,-0.120605 v -1.645381 c 0,-0.06462 -0.0503,-0.117019 -0.114087,-0.120244 -0.0021,-1.04e-4 -0.0041,0 -0.0062,0 h -0.164089 c -0.0021,0 -0.0041,-1.03e-4 -0.0062,0 z" /><rect
       style="fill:#000000;stroke:none;stroke-width:0.098234;stroke-linecap:round;stroke-dasharray:none;stop-color:#000000"
       id="rect1267"
       width="1.3213238"
       height="0.68185925"
       x="16.897459"
       y="19.004717"
       ry="0.087841034" /><path
       style="fill:#000000;stroke:none;stroke-width:0.185436px;stroke-linecap:butt;stroke-linejoin:miter;stroke-opacity:1"
       d="m 16.93423,19.740634 0.04643,0.509603 h 1.084314 l 0.04643,-0.509603 z"
       id="path1271"
       sodipodi:nodetypes="ccccc" /><path
       style="fill:#000000;stroke:none;stroke-width:0.185436px;stroke-linecap:butt;stroke-linejoin:miter;stroke-opacity:1"
       d="m 16.106094,24.098233 0.390814,0.269237 0.100237,0.57439 c 0,0 -0.73347,-0.512996 -0.797767,-0.726761 z"
       id="path1495"
       sodipodi:nodetypes="ccccc" /><path
       style="fill:#000000;stroke:none;stroke-width:0.185436px;stroke-linecap:butt;stroke-linejoin:miter;stroke-opacity:1"
       d="m 18.878228,24.098233 -0.390814,0.269237 -0.100238,0.57439 c 0,0 0.73347,-0.512996 0.797768,-0.726761 z"
       id="path1495-6"
       sodipodi:nodetypes="ccccc" /><path
       id="path2419"
       style="fill:#000000;stroke:none;stroke-width:0.185436px;stroke-linecap:butt;stroke-linejoin:miter;stroke-opacity:1"
       d="m 13.597875,23.820651 c -0.01422,-2.42e-4 -0.02732,2.81e-4 -0.03876,0.0014 l -0.135817,0.447291 0.535664,1.754397 0.181452,0.03332 0.174208,-0.738846 0.08982,-1.208954 c -0.08965,-0.129102 -0.59327,-0.285049 -0.806574,-0.288657 z m 1.551576,0.02391 -0.204269,0.244472 0.541097,0.0025 c 0,0 0.0033,-0.132397 0.0014,-0.243746 -0.01706,0.003 -0.338275,-0.0032 -0.338275,-0.0032 z m -0.653735,0.291555 -0.07135,1.129637 -0.0022,3.63e-4 -0.185798,0.788465 0.154651,0.01341 c 0,0 0.177127,-0.639345 0.399845,-0.868144 l 1.884783,0.01847 c -0.316208,-0.154675 -1.077313,-0.736731 -1.167271,-1.057571 z" /><path
       id="path2419-6"
       style="fill:#000000;stroke:none;stroke-width:0.185436px;stroke-linecap:butt;stroke-linejoin:miter;stroke-opacity:1"
       d="m 21.371514,23.820649 c 0.01423,-2.41e-4 0.02733,2.82e-4 0.03876,0.0014 l 0.135817,0.447291 -0.535664,1.754398 -0.181451,0.03332 -0.174208,-0.738846 -0.08983,-1.208955 c 0.08966,-0.129123 0.593272,-0.28507 0.806577,-0.288679 z m -1.551577,0.02391 0.204269,0.244472 -0.541095,0.0025 c 0,0 -0.0034,-0.132398 -0.0014,-0.243746 0.01706,0.003 0.338276,-0.0033 0.338276,-0.0033 z m 0.653735,0.291555 0.07135,1.129638 0.0022,3.62e-4 0.185798,0.788465 -0.154651,0.0134 c 0,0 -0.177126,-0.639345 -0.399845,-0.868144 l -1.884782,0.01847 c 0.316241,-0.154669 1.077348,-0.736724 1.167305,-1.057565 z" /><path
       id="path2499"
       style="fill:#000000;stroke:none;stroke-width:0.185436px;stroke-linecap:butt;stroke-linejoin:miter;stroke-opacity:1"
       d="m 15.713726,29.889691 c -0.09239,0.508056 0.343709,3.441429 0.343709,3.441429 0.0533,0.04462 0.320458,0.07371 0.674016,0.08801 v -3.529438 z m 1.202436,0 v 3.535233 c 0.360298,0.0091 0.779652,0.0053 1.14992,-0.01014 v -3.525092 z m 1.33608,0 v 3.515674 c 0.301367,-0.01669 0.553062,-0.04152 0.68452,-0.07424 0,0 0.373239,-3.03331 0.343707,-3.441429 z" /><path
       id="path2605"
       style="fill:#000000;stroke:none;stroke-width:0.185436px;stroke-linecap:butt;stroke-linejoin:miter;stroke-opacity:1"
       d="m 13.588821,29.939309 c -0.101065,5.01e-4 -0.19226,0.06892 -0.218034,0.171673 l -0.34081,1.358173 c -0.03055,0.12178 0.04301,0.24471 0.164791,0.275257 l 0.208254,0.05215 c 0.121781,0.03055 0.244348,-0.04301 0.274895,-0.164791 l 0.34081,-1.358173 c 0.03056,-0.121781 -0.04301,-0.244348 -0.164792,-0.274894 l -0.208253,-0.05252 c -0.01902,-0.0047 -0.03814,-0.007 -0.05687,-0.0069 z m 1.948162,0.346967 -0.444395,0.07389 -0.07569,1.950336 c 0,0 0.556264,-0.0065 0.697197,-0.08547 0,0 -0.133948,-1.00739 -0.177107,-1.938748 z m -0.527695,0.07424 c -0.389866,0.005 -0.729679,0.12114 -0.93877,0.213323 l -0.300247,1.197366 c -0.01534,0.06117 -0.05391,0.110074 -0.103945,0.139801 -0.0046,0.238181 0.0015,0.41822 0.0058,0.43715 0.01174,0.05152 -0.551237,0.06954 -0.551237,0.06954 -0.0686,0.30204 -0.14168,1.196944 -0.205718,2.182494 0.04497,-0.08464 0.09534,-0.162979 0.151391,-0.233244 0.199349,-0.249904 0.470045,-0.404081 0.760215,-0.38065 0.29017,0.02343 0.532195,0.218984 0.688865,0.497635 0.06975,0.124038 0.123823,0.265468 0.159722,0.418679 z m -2.406683,3.087579 c -0.115119,0.002 -0.211837,0.09023 -0.221654,0.207528 l -0.0431,0.513209 c -0.0044,-8.41e-4 -0.0085,-0.0014 -0.01304,-0.0018 -0.08934,-0.0077 -0.167641,0.05843 -0.175295,0.14777 l -0.03296,0.381374 c -0.0076,0.08934 0.05808,0.167273 0.147407,0.174934 0.0051,4.39e-4 0.01024,7.55e-4 0.01522,7.24e-4 l -0.046,0.549064 c -0.01046,0.125116 0.08172,0.23439 0.206804,0.244834 l 0.06012,0.0051 c 0.103104,0.0086 0.195567,-0.05269 0.230709,-0.14451 8.41e-4,-0.02931 0.002,-0.05873 0.004,-0.08837 0.0061,-0.08738 0.01734,-0.172451 0.03332,-0.254975 l 0.124229,-1.484624 c 0.0098,-0.117419 -0.07061,-0.221009 -0.183987,-0.241936 -0.0037,-6.32e-4 -0.0075,-9.43e-4 -0.01123,-0.0014 -0.0039,-5.33e-4 -0.0076,-7.59e-4 -0.01159,-10e-4 l -0.05976,-0.0051 c -0.0078,-6.54e-4 -0.01551,-8.53e-4 -0.02318,-7.23e-4 z m 2.43783,0.117346 c -0.115223,0.0038 -0.210236,0.0943 -0.218031,0.211875 l -0.09851,1.486384 c 0.0035,0.08398 0.002,0.169842 -0.0051,0.257148 -0.0025,0.02962 -0.0055,0.05892 -0.0091,0.08801 0.02105,0.09603 0.103206,0.17026 0.206443,0.177104 l 0.06012,0.004 c 0.125277,0.0083 0.232904,-0.08588 0.241211,-0.211151 l 0.03622,-0.549788 c 0.0049,7.71e-4 0.01014,0.0011 0.01521,0.0014 0.08948,0.0058 0.165943,-0.06154 0.171674,-0.15103 l 0.02463,-0.382099 c 0.0058,-0.08948 -0.06191,-0.166304 -0.151392,-0.172034 -0.0045,-2.94e-4 -0.0089,-4.45e-4 -0.0134,-3.63e-4 l 0.03404,-0.513933 c 0.0083,-0.125277 -0.08588,-0.232542 -0.211151,-0.240849 l -0.05976,-0.004 c -0.004,-2.6e-4 -0.0081,-6.63e-4 -0.01195,-7.25e-4 -0.0038,-5.9e-5 -0.0075,-1.23e-4 -0.01123,0 z m -1.269076,0.604481 c -0.201737,-0.0011 -0.397545,0.111081 -0.558844,0.313284 -0.172051,0.215686 -0.296989,0.5307 -0.325961,0.889513 -0.02897,0.358816 0.0437,0.689945 0.178916,0.93044 0.13522,0.240494 0.325556,0.386399 0.541459,0.40383 0.215902,0.01743 0.428442,-0.09579 0.600493,-0.311475 0.172054,-0.215684 0.296989,-0.530697 0.325962,-0.889512 0.02897,-0.358815 -0.04371,-0.690307 -0.178917,-0.930802 -0.135217,-0.240492 -0.327004,-0.386037 -0.542906,-0.403467 -0.01349,-0.001 -0.02676,-0.0017 -0.0402,-0.0018 z m 0.81599,1.926433 c -0.0616,0.156457 -0.141148,0.296882 -0.235416,0.415057 -0.199349,0.249904 -0.469683,0.404441 -0.759854,0.381013 -0.290169,-0.02343 -0.532556,-0.219347 -0.689227,-0.497998 -0.03076,-0.05473 -0.05818,-0.112878 -0.08258,-0.173845 -0.05209,0.975954 -0.0862,1.753673 -0.0862,1.753673 l 1.707676,0.104669 z m -1.855445,0.01521 c -0.165519,0.01002 -0.383186,0.254251 -0.383186,0.254251 l -0.06773,0.335741 -0.762388,1.207505 c -0.193858,0.190509 -0.240125,1.175996 -0.240125,1.175996 0,0 -0.05717,1.488516 0.245195,2.08543 0,0 0.383439,-1.573019 0.553773,-1.648279 l 0.472282,-1.47081 0.198112,-1.939834 c -0.0052,-1.79e-4 -0.0106,-3.22e-4 -0.01593,0 z m 1.935849,0.126401 -0.129298,1.89601 0.165516,1.608439 c 0.151883,0.107746 0.214048,1.725423 0.214048,1.725423 0.415432,-0.524545 0.65627,-1.99416 0.65627,-1.99416 0,0 0.151566,-0.975254 -3.63e-4,-1.200625 l -0.566811,-1.363606 7.25e-4,-0.342621 c 0,0 -0.175212,-0.301137 -0.340087,-0.32886 z m -1.978949,1.899631 -0.455984,1.394029 2.288973,0.228173 -0.0967,-1.508477 z m -0.55993,1.537814 c -0.397512,0.54262 -0.5353,2.289699 -0.5353,2.289699 l 3.128869,0.07859 c 0,0 0.06329,-1.714861 -0.12278,-2.100277 z m -0.239762,2.411755 c -0.488309,0.01258 -0.518279,0.364715 -0.518279,0.364715 l 0.374493,1.10356 0.588542,0.01159 z m 2.358513,0 -0.444757,1.479864 0.588541,-0.01159 0.374495,-1.103561 c 0,0 -0.02998,-0.352135 -0.518279,-0.364715 z m -2.093036,0.0073 0.344433,1.511013 h 1.142313 L 14.0774,42.145896 Z m -0.871403,0.395863 -0.291193,2.036897 0.195215,1.124928 0.439686,-2.016253 c -0.03089,-0.04554 -0.343708,-1.145569 -0.343708,-1.145569 z m 3.58956,0 c 0,0 -0.312814,1.100024 -0.343708,1.145572 l 0.439323,2.016253 0.195216,-1.124928 z m -3.171243,1.223442 -0.417955,2.167282 h 0.884442 l 0.161532,-2.167282 z m 0.79933,0 -0.161532,2.167282 h 1.437128 l -0.139802,-2.167298 z m 1.307106,0 0.139439,2.167282 h 0.925006 L 14.454429,43.71373 Z" /><path
       id="path2605-7"
       style="fill:#000000;stroke:none;stroke-width:0.185436px;stroke-linecap:butt;stroke-linejoin:miter;stroke-opacity:1"
       d="m 21.346834,30.010926 c 0.101064,5.01e-4 0.192259,0.06893 0.218033,0.171673 l 0.340811,1.358173 c 0.03054,0.121781 -0.04302,0.244711 -0.164792,0.275257 l -0.208253,0.05215 c -0.121781,0.03055 -0.244349,-0.04301 -0.274894,-0.16479 l -0.340812,-1.358174 c -0.03054,-0.121781 0.04302,-0.244348 0.164793,-0.274894 l 0.208252,-0.05252 c 0.01902,-0.0047 0.03814,-0.0069 0.05686,-0.0069 z m -1.948161,0.346968 0.444394,0.07388 0.07569,1.950336 c 0,0 -0.556264,-0.0065 -0.697196,-0.08547 0,0 0.133947,-1.00739 0.177107,-1.938747 z m 0.527694,0.07424 c 0.389866,0.005 0.729679,0.12114 0.93877,0.213324 l 0.300247,1.197365 c 0.01534,0.06118 0.05391,0.110073 0.103945,0.139801 0.0046,0.238182 -0.0014,0.41822 -0.0058,0.43715 -0.01174,0.05152 0.551236,0.06954 0.551236,0.06954 0.06861,0.30204 0.141681,1.196944 0.205719,2.182494 -0.04497,-0.08464 -0.09534,-0.16298 -0.151391,-0.233243 -0.199349,-0.249904 -0.470045,-0.404082 -0.760216,-0.380651 -0.290168,0.02343 -0.532194,0.218985 -0.688865,0.497635 -0.06975,0.124039 -0.123821,0.265468 -0.159721,0.418678 z m 2.406683,3.087579 c 0.11512,0.002 0.211837,0.09023 0.221653,0.207529 l 0.04309,0.513209 c 0.0044,-8.41e-4 0.0085,-0.0014 0.01304,-0.0018 0.08934,-0.0077 0.167641,0.05843 0.175294,0.147769 l 0.03296,0.381375 c 0.0077,0.08934 -0.05807,0.167273 -0.147407,0.174933 -0.005,4.39e-4 -0.01023,7.71e-4 -0.01521,7.01e-4 l 0.046,0.549064 c 0.01046,0.125116 -0.08172,0.234391 -0.206803,0.244834 l -0.06012,0.005 c -0.103104,0.0086 -0.195567,-0.05269 -0.230708,-0.144509 -8.41e-4,-0.02931 -0.002,-0.05872 -0.0041,-0.08837 -0.0061,-0.08738 -0.01733,-0.172451 -0.03332,-0.254975 L 22.043192,33.7699 c -0.0098,-0.117419 0.07061,-0.221008 0.183987,-0.241936 0.0037,-6.31e-4 0.0075,-8.97e-4 0.01123,-0.0014 0.0039,-5.33e-4 0.0077,-7.72e-4 0.0116,-0.0011 l 0.05976,-0.005 c 0.0078,-6.56e-4 0.01551,-8.42e-4 0.02318,-7.02e-4 z m -2.43783,0.117346 c 0.115223,0.0038 0.210236,0.0943 0.218031,0.211874 l 0.09851,1.486385 c -0.0035,0.08398 -0.002,0.169842 0.005,0.257147 0.0025,0.02962 0.0055,0.05891 0.0091,0.08801 -0.02105,0.09604 -0.103207,0.170262 -0.206444,0.177106 l -0.06012,0.0041 c -0.125276,0.0083 -0.232904,-0.08588 -0.241211,-0.211151 l -0.03623,-0.549788 c -0.0049,7.71e-4 -0.01013,0.0011 -0.01521,0.0014 -0.08948,0.0058 -0.165943,-0.06154 -0.171673,-0.15103 l -0.02463,-0.382099 c -0.0058,-0.08948 0.06191,-0.166304 0.15139,-0.172034 0.0045,-2.94e-4 0.0089,-4.45e-4 0.01341,-3.62e-4 l -0.03404,-0.513934 c -0.0083,-0.125277 0.08588,-0.232542 0.211151,-0.240849 l 0.05976,-0.0041 c 0.004,-2.6e-4 0.0081,-6.62e-4 0.01195,-7.01e-4 0.0038,-6e-5 0.0075,-1.22e-4 0.01123,0 z m 1.269076,0.604478 c 0.201737,-10e-4 0.397544,0.111081 0.558843,0.313285 0.172051,0.215685 0.29699,0.530699 0.325962,0.889512 0.02897,0.358815 -0.0437,0.689945 -0.178917,0.930439 -0.135219,0.240494 -0.325554,0.3864 -0.541458,0.40383 -0.215902,0.01743 -0.428442,-0.09579 -0.600493,-0.311474 -0.172054,-0.215684 -0.296989,-0.530697 -0.325962,-0.889512 -0.02897,-0.358816 0.0437,-0.690306 0.178916,-0.930802 0.135217,-0.240493 0.327005,-0.386037 0.542907,-0.403467 0.01349,-0.0011 0.02675,-0.0018 0.0402,-0.0018 z m -0.81599,1.926432 c 0.0616,0.156457 0.141148,0.296882 0.235416,0.415058 0.199349,0.249904 0.469683,0.404441 0.759853,0.381012 0.29017,-0.02343 0.532557,-0.219346 0.689228,-0.497997 0.03076,-0.05473 0.05818,-0.112879 0.08258,-0.173845 0.05209,0.975953 0.0862,1.753672 0.0862,1.753672 l -1.707676,0.10467 z m 1.855446,0.01521 c 0.165518,0.01002 0.383185,0.254251 0.383185,0.254251 l 0.06773,0.335741 0.762389,1.207505 c 0.193858,0.190508 0.240125,1.175998 0.240125,1.175998 0,0 0.05717,1.488513 -0.245195,2.085429 0,0 -0.38344,-1.573021 -0.553773,-1.64828 L 22.38593,38.123012 22.187818,36.183179 c 0.0053,-1.79e-4 0.0106,-3.23e-4 0.01593,0 z m -1.93585,0.126401 0.129298,1.89601 -0.165516,1.608438 c -0.151883,0.107748 -0.214048,1.725423 -0.214048,1.725423 -0.415432,-0.524545 -0.656268,-1.99416 -0.656268,-1.99416 0,0 -0.151567,-0.975254 3.62e-4,-1.200625 l 0.566811,-1.363605 -7.02e-4,-0.342622 c 0,0 0.175211,-0.301137 0.340087,-0.328859 z m 1.978949,1.899632 0.455983,1.394028 -2.288973,0.228173 0.0967,-1.508478 z m 0.559929,1.537812 c 0.397513,0.542622 0.535302,2.289699 0.535302,2.289699 l -3.128868,0.07859 c 0,0 -0.06329,-1.714862 0.122777,-2.100278 z m 0.239763,2.411754 c 0.488309,0.01258 0.51828,0.364715 0.51828,0.364715 l -0.374495,1.10356 -0.588541,0.0116 z m -2.358512,0 0.444756,1.479865 -0.588541,-0.0116 -0.374495,-1.103561 c 0,0 0.02998,-0.352136 0.51828,-0.364716 z m 2.093034,0.0073 -0.344432,1.511012 h -1.142314 l -0.436064,-1.459583 z m 0.871404,0.395862 0.291193,2.036897 -0.195215,1.124929 -0.439686,-2.016253 c 0.03089,-0.04555 0.343708,-1.145573 0.343708,-1.145573 z m -3.58956,0 c 0,0 0.312814,1.100024 0.343708,1.145573 l -0.439323,2.016253 -0.195214,-1.124929 z m 3.171243,1.223441 0.417954,2.167282 h -0.884441 l -0.161532,-2.1673 z m -0.79933,0 0.161532,2.167282 h -1.437128 l 0.139802,-2.167282 z m -1.307106,0 -0.139439,2.167282 h -0.925006 l 0.417955,-2.167275 z" /></g></svg>
