<?xml version="1.0" encoding="UTF-8" standalone="no"?>
<!-- Created with Inkscape (http://www.inkscape.org/) -->

<svg
   sodipodi:docname="Firestarter.svg"
   inkscape:version="1.2.2 (b0a8486541, 2022-12-01)"
   id="svg8"
   version="1.1"
   viewBox="0 0 34.98301 52.516205"
   height="52.516205mm"
   width="34.983009mm"
   xml:space="preserve"
   xmlns:inkscape="http://www.inkscape.org/namespaces/inkscape"
   xmlns:sodipodi="http://sodipodi.sourceforge.net/DTD/sodipodi-0.dtd"
   xmlns="http://www.w3.org/2000/svg"
   xmlns:svg="http://www.w3.org/2000/svg"
   xmlns:rdf="http://www.w3.org/1999/02/22-rdf-syntax-ns#"
   xmlns:cc="http://creativecommons.org/ns#"
   xmlns:dc="http://purl.org/dc/elements/1.1/"><defs
     id="defs2" /><sodipodi:namedview
     id="base"
     pagecolor="#ffffff"
     bordercolor="#666666"
     borderopacity="1.0"
     inkscape:pageopacity="0.0"
     inkscape:pageshadow="2"
     inkscape:zoom="2.8284273"
     inkscape:cx="63.286053"
     inkscape:cy="102.17692"
     inkscape:document-units="mm"
     inkscape:current-layer="layer3"
     showgrid="false"
     inkscape:window-width="1920"
     inkscape:window-height="1043"
     inkscape:window-x="1920"
     inkscape:window-y="0"
     inkscape:window-maximized="1"
     inkscape:snap-global="false"
     fit-margin-top="0"
     fit-margin-left="0"
     fit-margin-right="0"
     fit-margin-bottom="0"
     showguides="true"
     inkscape:guide-bbox="true"
     inkscape:showpageshadow="2"
     inkscape:pagecheckerboard="0"
     inkscape:deskcolor="#d1d1d1" /><metadata
     id="metadata5"><rdf:RDF><cc:Work
         rdf:about=""><dc:format>image/svg+xml</dc:format><dc:type
           rdf:resource="http://purl.org/dc/dcmitype/StillImage" /><dc:title /></cc:Work></rdf:RDF></metadata><g
     inkscape:groupmode="layer"
     id="layer3"
     inkscape:label="Capa 1"><path
       id="rect3086"
       style="fill:#000000;stroke:none;stroke-width:0.222752;stroke-linecap:round;stroke-dasharray:none;stop-color:#000000"
       d="m 11.971055,17.19083 -0.07722,0.0015 -0.0753,0.01 -0.07261,0.0146 -0.06838,0.02189 -0.02305,0.01 0.368801,0.914703 -0.02612,0.0292 -0.73184,-0.670757 -0.04956,0.05494 -0.07414,0.0945 -0.068,0.09873 -0.01882,0.03035 0.86361,0.531688 0.0046,-0.0073 0.03611,-0.05071 0.03073,-0.03918 0.02151,-0.02613 0.01882,0.0027 0.0015,-0.01613 0.900489,-0.365728 -0.01767,-0.04495 -0.04341,-0.08567 -0.05225,-0.08567 -0.06262,-0.08144 -0.07107,-0.07683 -0.03496,-0.0292 -0.611211,0.717242 0.120628,-0.939291 -0.06992,-0.0088 -0.07683,-0.0011 z m -1.060303,0.86822 -0.01998,0.03765 -0.05532,0.119093 -0.04341,0.101803 0.930454,0.402224 0.03919,-0.08875 0.04226,-0.0899 0.01153,-0.02304 z m 2.117149,0.129465 -1.003446,0.153666 0.0031,0.01767 0.0058,0.04764 0.0031,0.05379 0.0027,0.05686 v 0.0027 l 1.014971,-0.0058 v -0.01729 l -0.0042,-0.09143 -0.0058,-0.09028 -0.01037,-0.0899 z m -2.337662,0.387624 -0.01,0.02613 -0.04956,0.139452 -0.03035,0.09143 0.961189,0.322317 0.02881,-0.08413 0.04226,-0.120629 0.0073,-0.01767 z m 1.343051,0.153668 -0.01,0.129464 -0.01306,0.104494 1.007673,0.120629 0.01421,-0.123702 0.01191,-0.147905 z m -1.51439,0.360349 -0.02766,0.09143 -0.04495,0.153668 -0.0031,0.01038 0.97886,0.268534 0.0015,-0.0042 0.04034,-0.142526 0.02612,-0.08413 z m 1.45907,0.09412 -0.02881,0.158277 -0.01614,0.07837 0.993075,0.204762 0.01921,-0.0899 0.03035,-0.169802 z m -1.601212,0.414134 -0.05686,0.218975 -0.0085,0.03496 0.985775,0.236648 0.0073,-0.02766 0.05378,-0.208987 z m 1.504018,0.0607 -0.0058,0.02498 -0.04226,0.170955 -0.0085,0.03342 0.980012,0.258544 0.01152,-0.04072 0.04648,-0.188627 0.0073,-0.03342 z m -1.628872,0.439873 -0.01191,0.05263 -0.04648,0.203225 0.991921,0.220514 0.04341,-0.195927 0.01037,-0.04341 z m 1.50709,0.02766 -0.01767,0.06415 -0.04764,0.160966 -0.0015,0.0058 0.970024,0.297729 0.0042,-0.01153 0.05071,-0.172876 0.01882,-0.07107 z m -0.139452,0.465996 -0.06377,0.198999 -0.01191,0.03496 0.960035,0.32808 0.01421,-0.04341 0.06684,-0.206298 z m -1.480968,0.01613 -0.04802,0.230885 -0.0042,0.02305 0.995763,0.19631 0.0031,-0.01882 0.04802,-0.223586 z m 1.324227,0.450245 -0.05532,0.156741 -0.02766,0.0753 0.949663,0.35574 0.03035,-0.08259 0.05839,-0.162504 z m -1.426031,0.05379 -0.0146,0.0753 -0.03342,0.178638 0.9976843,0.1844 0.03342,-0.172876 0.01306,-0.07107 z m 1.342282,0.252398 c -0.106108,0.02977 -0.192207,0.115731 -0.217055,0.231269 l -0.132153,-0.03611 c -0.275318,1.527885 -0.445301,3.03392 -0.487125,3.422553 l 2.096788,0.572411 c 0.164253,0.04485 0.332787,-0.05127 0.377638,-0.215519 l 0.05686,-0.208987 c -0.19968,-1.192065 -0.381871,-2.380037 -0.574332,-3.565853 l -0.111793,-0.02343 c -0.04387,0.119785 -0.07145,0.189779 -0.07145,0.189779 z m -1.4364033,0.255472 -0.0438,0.249709 0.9988363,0.175949 0.04533,-0.24971 z m -0.08567,0.504027 -0.01767,0.09873 -0.02459,0.155204 1.0019093,0.161351 0.02459,-0.152516 0.01614,-0.0945 z m -0.08298,0.508255 -0.03765,0.243947 v 0.01 l 1.0030623,0.148288 0.0015,-0.0073 0.0365,-0.241257 z m -0.074145,0.330764 -0.3169392,1.168639 c -0.035037,0.129184 0.017265,0.260342 0.1210133,0.332306 0.042414,-0.362446 0.1082143,-0.892244 0.1959259,-1.500945 z m -0.00115,0.174413 -0.0073,0.04802 -0.029197,0.205913 1.0045993,0.14099 0.0292,-0.203224 0.0058,-0.04495 z m -0.071456,0.505181 -0.014214,0.106029 -0.019209,0.150979 1.0065203,0.130616 0.01882,-0.146366 0.01306,-0.100269 z m -0.066845,0.508253 -0.00999,0.07415 -0.021897,0.181327 1.0076723,0.123702 0.0219,-0.177485 0.0088,-0.07108 z m -0.062235,0.511329 -0.029197,0.252398 1.0092093,0.114866 0.02766,-0.252782 z m 0.020361,0.317321 a 1.9590945,1.9590945 0 0 0 -1.9592569,1.958874 1.9590945,1.9590945 0 0 0 1.9592566,1.959255 1.9590945,1.9590945 0 0 0 0.066846,-0.0015 l -0.1409896,0.08644 0.040337,0.06646 0.044179,0.06492 0.00384,0.0066 0.365728,-0.260466 a 1.9590945,1.9590945 0 0 0 0.6538532,-0.257776 l 0.03227,0.121781 0.05186,-0.0042 -0.01614,-0.161735 a 1.9590945,1.9590945 0 0 0 0.857079,-1.619779 1.9590945,1.9590945 0 0 0 -1.9588727,-1.958873 z m -0.059547,0.297347 c 0.4081931,0 0.7406763,0.33402 0.7406763,0.742212 0,0.408192 -0.3324832,0.740292 -0.7406758,0.740292 -0.4081933,0 -0.7418288,-0.332099 -0.7418288,-0.740292 2e-7,-0.408192 0.3336351,-0.742212 0.7418283,-0.742212 z m 1.2604553,0.0062 c 0.551656,0.179245 0.884019,1.15625 0.880129,1.446776 l 0.249709,10e-7 0.389546,-1.030724 z m -1.2604545,0.191297 c -0.301725,0 -0.5443664,0.243025 -0.5443666,0.544751 8e-7,0.301725 0.2426415,0.544366 0.5443665,0.544366 0.3017254,0 0.5447506,-0.242641 0.5447506,-0.544366 0,-0.301726 -0.2430262,-0.544751 -0.5447505,-0.544751 z m -1.0798964,0.932376 c 0.00526,-1.34e-4 0.010457,0 0.015751,0 0.3387431,0 0.6142844,0.275157 0.6142845,0.613901 -2e-7,0.338741 -0.2755416,0.615821 -0.6142845,0.615821 -0.338743,0 -0.6158212,-0.27708 -0.6158212,-0.615821 -1e-7,-0.333451 0.2685746,-0.605479 0.6000702,-0.613901 z m 2.0291749,0.0042 c 0.0031,-8e-5 0.0061,0 0.0092,0 h 0.465996 c 0.198642,0 0.361502,0.16286 0.361502,0.361503 v 0.497881 c 0,0.198642 -0.16286,0.361886 -0.361502,0.361886 h -0.465999 c -0.198642,0 -0.361502,-0.163244 -0.361502,-0.361886 v -0.497882 c -10e-7,-0.195539 0.157874,-0.356521 0.352282,-0.361502 z m -2.0253355,0.158269 c -0.2449261,0.0062 -0.4398722,0.20492 -0.4398724,0.451398 10e-8,0.250387 0.2013923,0.451781 0.4517811,0.451781 0.2503898,0 0.4513981,-0.201394 0.4513977,-0.451781 -10e-8,-0.25039 -0.2010082,-0.451398 -0.4513972,-0.451398 -0.00391,-1e-6 -0.00802,-9.8e-5 -0.011909,0 z m 2.0345535,0.01729 c -0.104454,0 -0.185938,0.08148 -0.185937,0.185938 l -10e-7,0.497882 c 10e-7,0.104453 0.08148,0.185936 0.185938,0.185936 h 0.465996 c 0.104453,0 0.185937,-0.08148 0.185937,-0.185936 v -0.497883 c 0,-0.104452 -0.08148,-0.185937 -0.185937,-0.185937 z m -0.9584993,0.832105 c 0.3387431,-1e-6 0.6142843,0.27554 0.6142843,0.614284 10e-7,0.338742 -0.2755412,0.615436 -0.6142844,0.615437 -0.3387427,-10e-7 -0.615437,-0.276696 -0.6154368,-0.615437 -2e-7,-0.338744 0.2766943,-0.614285 0.6154369,-0.614284 z m 0,0.162502 c -0.2503889,0 -0.4513974,0.201392 -0.4513975,0.451782 2e-7,0.250388 0.2010082,0.451397 0.451398,0.451397 0.2503889,0 0.4517816,-0.201008 0.4517816,-0.451397 0,-0.25039 -0.2013931,-0.451782 -0.4517821,-0.451782 z m 1.4636803,0.768336 -0.262771,0.369185 0.446019,-0.02459 -0.0015,-0.0169 -0.0092,-0.04956 -0.01153,-0.04533 -0.01575,-0.04687 -0.02305,-0.04687 -0.02881,-0.04572 -0.03496,-0.04264 -0.04303,-0.03996 z m -0.283516,0.39915 -0.03496,0.04917 0.0065,0.01959 -0.01844,-0.0027 -0.0027,0.0042 -0.0077,-0.005 -0.0557,-0.01038 v -0.0058 l -0.0081,0.02996 -0.01153,0.03265 -0.0027,0.0066 0.521316,0.24433 0.01306,-0.02843 0.02843,-0.07837 0.0219,-0.07875 0.0042,-0.02228 -0.446019,-0.07952 z m -0.564343,0.133691 -0.4406405,0.371875 0.02766,0.0315 0.045332,0.04917 0.046869,0.04648 0.0088,0.0066 0.3810935,-0.430268 -0.02343,-0.02305 -0.02728,-0.02997 z m 0.381095,0.06761 -0.0042,0.0054 -0.02343,0.02728 -0.01652,0.01805 0.370337,0.44064 0.0092,-0.0077 0.06224,-0.06108 0.05724,-0.06761 0.01844,-0.02728 z m -0.240489,0.06492 -0.2977312,0.492888 0.03496,0.02074 0.0534,0.02728 0.0534,0.02228 0.05455,0.01959 0.01191,0.0023 0.142911,-0.557428 -0.0027,-0.0015 -0.01537,-0.0066 -0.01729,-0.0088 z m 0.136379,0.02766 -0.0061,0.0011 -0.0081,0.0027 -0.0081,0.0027 -0.0073,0.0011 h -0.0058 l 0.04456,0.573179 0.02843,-0.0011 0.05186,-0.0092 0.05225,-0.01191 0.04802,-0.01537 0.04687,-0.01959 0.01575,-0.0066 z" /><path
       id="rect3086-2"
       style="fill:#000000;stroke:none;stroke-width:0.222752;stroke-linecap:round;stroke-dasharray:none;stop-color:#000000"
       d="m 24.218012,17.250498 0.07722,0.0015 0.0753,0.01 0.07261,0.0146 0.06838,0.02189 0.02305,0.01 -0.3688,0.914703 0.02613,0.02919 0.73184,-0.670756 0.04955,0.05494 0.07415,0.0945 0.06799,0.09873 0.01882,0.03035 -0.86361,0.531689 -0.0046,-0.0073 -0.0361,-0.0507 -0.03073,-0.03919 -0.02151,-0.02613 -0.01882,0.0027 -0.0015,-0.01613 -0.90049,-0.365729 0.01767,-0.04495 0.04342,-0.08567 0.05224,-0.08567 0.06262,-0.08144 0.07107,-0.07683 0.03496,-0.02919 0.61121,0.717242 -0.120628,-0.939291 0.06991,-0.0088 0.07683,-0.0011 z m 1.060303,0.86822 0.01997,0.03764 0.05533,0.119092 0.04341,0.101805 -0.930454,0.402224 -0.03919,-0.08875 -0.04226,-0.0899 -0.01154,-0.02305 z m -2.117149,0.129464 1.003446,0.153667 -0.003,0.01767 -0.0058,0.04764 -0.003,0.05378 -0.0027,0.05686 v 0.0027 l -1.014972,-0.0058 -1.7e-5,-0.01728 0.0043,-0.09143 0.0058,-0.09028 0.01037,-0.0899 z m 2.337662,0.387626 0.01,0.02613 0.04956,0.139452 0.03036,0.09143 -0.961189,0.322317 -0.02883,-0.08413 -0.04226,-0.12063 -0.0073,-0.01767 z m -1.343052,0.153667 0.01,0.129464 0.01306,0.104494 -1.007672,0.120629 -0.01421,-0.123703 -0.01191,-0.147904 z m 1.514391,0.360349 0.02766,0.09143 0.04495,0.153667 0.003,0.01037 -0.978859,0.268533 -0.0015,-0.0043 -0.04031,-0.142535 -0.02613,-0.08413 z m -1.459071,0.09412 0.02882,0.158276 0.01615,0.07836 -0.993076,0.204761 -0.01922,-0.08989 -0.03035,-0.169802 z m 1.601213,0.414133 0.05686,0.218975 0.0085,0.03496 -0.985776,0.236647 -0.0073,-0.02766 -0.05376,-0.208995 z m -1.504018,0.0607 0.0057,0.02498 0.04229,0.170947 0.0085,0.03342 -0.980011,0.258545 -0.01153,-0.04073 -0.04649,-0.188623 -0.0073,-0.03343 z m 1.628872,0.439873 0.01191,0.05263 0.04648,0.203225 -0.991921,0.220512 -0.04341,-0.195925 -0.01039,-0.04341 z m -1.50709,0.02766 0.01767,0.06416 0.04765,0.160962 0.0015,0.0057 -0.970024,0.297731 -0.0043,-0.01152 -0.05067,-0.172885 -0.01882,-0.07107 z m 0.13945,0.465997 0.06377,0.198999 0.01193,0.03495 -0.960036,0.32808 -0.01425,-0.0434 -0.06684,-0.206298 z m 1.480968,0.01613 0.04801,0.230886 0.0043,0.02305 -0.995763,0.19631 -0.003,-0.01883 -0.04802,-0.223585 z m -1.324227,0.450245 0.05532,0.15674 0.02766,0.0753 -0.949664,0.355739 -0.03035,-0.0826 -0.05839,-0.162503 z m 1.42603,0.05379 0.01463,0.07529 0.03341,0.178639 -0.997684,0.1844 -0.03342,-0.172875 -0.01309,-0.07107 z m -1.342282,0.252399 c 0.106109,0.02977 0.192208,0.115732 0.217055,0.231269 l 0.132154,-0.0361 c 0.275318,1.527885 0.4453,3.03392 0.487125,3.422552 l -2.096789,0.57241 c -0.164252,0.04485 -0.332787,-0.05126 -0.377637,-0.215518 l -0.05686,-0.208987 c 0.199682,-1.192067 0.381873,-2.38004 0.574334,-3.565855 l 0.111792,-0.02343 c 0.04387,0.119786 0.07146,0.189779 0.07146,0.189779 z m 1.436404,0.255471 0.04379,0.24971 -0.998836,0.175949 -0.04532,-0.24971 z m 0.08567,0.50403 0.01767,0.09873 0.02459,0.155204 -1.00191,0.161351 -0.02459,-0.152516 -0.01613,-0.0945 z m 0.08298,0.508255 0.03766,0.243945 2.7e-5,0.01 -1.003062,0.148288 -0.0015,-0.0073 -0.03649,-0.241258 z m 0.07414,0.330768 0.316948,1.168637 c 0.03504,0.129183 -0.01727,0.26034 -0.121013,0.332305 -0.04241,-0.362446 -0.108215,-0.892244 -0.195927,-1.500945 z m 0.0011,0.174411 0.0073,0.04801 0.02919,0.205915 -1.004599,0.140989 -0.0292,-0.203225 -0.0058,-0.04494 z m 0.07146,0.505181 0.01421,0.106031 0.01921,0.150979 -1.00652,0.130617 -0.01882,-0.146369 -0.01306,-0.100269 z m 0.06684,0.508255 0.01,0.07414 0.0219,0.181329 -1.007672,0.123701 -0.0219,-0.177484 -0.0088,-0.07108 z m 0.06224,0.511327 0.02919,0.2524 -1.009209,0.114866 -0.02766,-0.252784 z m -0.02036,0.317322 a 1.9590945,1.9590945 0 0 1 1.959257,1.958873 1.9590945,1.9590945 0 0 1 -1.959257,1.959257 1.9590945,1.9590945 0 0 1 -0.06684,-0.0015 l 0.14099,0.08644 -0.04034,0.06646 -0.04418,0.06492 -0.0039,0.0066 -0.365729,-0.260465 a 1.9590945,1.9590945 0 0 1 -0.653854,-0.257778 l -0.03227,0.121783 -0.05186,-0.0043 0.01613,-0.161733 a 1.9590945,1.9590945 0 0 1 -0.857079,-1.619643 1.9590945,1.9590945 0 0 1 1.958872,-1.958872 z m 0.05955,0.297347 c -0.408192,0 -0.740676,0.33402 -0.740676,0.742212 0,0.408192 0.332484,0.740292 0.740676,0.740292 0.408193,0 0.741829,-0.332099 0.741829,-0.740292 -1e-6,-0.408192 -0.333636,-0.742212 -0.741829,-0.742212 z m -1.260456,0.0062 c -0.551655,0.179246 -0.884018,1.156249 -0.880127,1.446775 h -0.24971 l -0.389547,-1.030722 z m 1.260456,0.191315 c 0.301724,0 0.544366,0.243024 0.544366,0.54475 0,0.301725 -0.242642,0.544365 -0.544366,0.544365 -0.301725,0 -0.54475,-0.24264 -0.54475,-0.544365 0,-0.301726 0.243025,-0.54475 0.54475,-0.54475 z m 1.0799,0.932375 c -0.0052,-1.08e-4 -0.01046,3e-6 -0.01575,-1.4e-5 -0.338744,0 -0.614285,0.275157 -0.614285,0.6139 0,0.338743 0.275541,0.61582 0.614285,0.615821 0.338742,0 0.615821,-0.277079 0.615821,-0.615821 0,-0.33345 -0.268575,-0.605477 -0.600071,-0.6139 z m -2.029174,0.0043 c -0.0031,-7.7e-5 -0.0061,-3.1e-5 -0.0092,-2.5e-5 h -0.465987 c -0.198642,5e-6 -0.361503,0.162858 -0.361503,0.361502 v 0.497882 c -4e-6,0.198643 0.162862,0.361885 0.361502,0.361885 l 0.465996,10e-7 c 0.198641,4e-6 0.361502,-0.163243 0.361501,-0.361886 v -0.497882 c 4e-6,-0.195539 -0.157876,-0.356521 -0.352281,-0.361502 z m 2.025333,0.158277 c 0.244927,0.0062 0.439871,0.20492 0.439871,0.451398 1e-6,0.250387 -0.201392,0.451781 -0.45178,0.451781 -0.25039,0 -0.451398,-0.201395 -0.451398,-0.451781 0,-0.25039 0.201008,-0.451398 0.451397,-0.451398 0.0039,9e-6 0.008,-1.09e-4 0.0119,-1.4e-5 z m -2.034554,0.01729 c 0.104454,-1e-6 0.185938,0.08148 0.185937,0.185936 l 1e-6,0.497882 c 1e-6,0.104454 -0.08148,0.185937 -0.185938,0.185937 h -0.465995 c -0.104454,1e-6 -0.185937,-0.08148 -0.185938,-0.185937 V 26.83289 c 0,-0.104452 0.08148,-0.185937 0.185938,-0.185937 z m 0.958499,0.832107 c -0.338742,0 -0.614283,0.27554 -0.614284,0.614285 0,0.338742 0.275542,0.615436 0.614285,0.615437 0.338742,-1e-6 0.615436,-0.276696 0.615436,-0.615437 0,-0.338745 -0.276694,-0.614285 -0.615437,-0.614285 z m 0,0.162503 c 0.250389,-10e-7 0.451398,0.201392 0.451398,0.451782 1e-6,0.250387 -0.201008,0.451397 -0.451398,0.451397 -0.250389,1e-6 -0.451782,-0.201009 -0.451782,-0.451397 0,-0.25039 0.201393,-0.451782 0.451782,-0.451782 z m -1.463679,0.768336 0.262771,0.369185 -0.44602,-0.02459 0.0015,-0.0169 0.0092,-0.04955 0.01152,-0.04533 0.01575,-0.04687 0.02306,-0.04686 0.02882,-0.04571 0.03495,-0.04264 0.04303,-0.03995 z m 0.283516,0.39915 0.03496,0.04917 -0.0066,0.01959 0.01843,-0.0028 0.0027,0.0042 0.0077,-0.005 0.05572,-0.01036 -3.4e-5,-0.0058 0.0081,0.02997 0.01154,0.03265 0.0027,0.0066 -0.521315,0.244332 -0.01308,-0.02843 -0.02841,-0.07837 -0.0219,-0.07875 -0.0043,-0.02227 0.44602,-0.07952 z m 0.564342,0.133691 0.440641,0.371875 -0.02766,0.0315 -0.04533,0.04918 -0.04687,0.04648 -0.0088,0.0065 -0.381094,-0.430267 0.02343,-0.02305 0.02728,-0.02997 z m -0.381095,0.06761 0.0043,0.0054 0.02343,0.02728 0.01652,0.01805 -0.370339,0.440641 -0.0092,-0.0077 -0.06224,-0.06108 -0.05725,-0.06761 -0.01843,-0.02728 z m 0.240489,0.06492 0.297731,0.492888 -0.03496,0.02074 -0.0534,0.02728 -0.0534,0.02228 -0.05456,0.01959 -0.0119,0.0023 -0.142908,-0.557429 0.0027,-0.0015 0.01537,-0.0066 0.01729,-0.0088 z m -0.136379,0.02766 0.0062,0.0012 0.0081,0.0027 0.0081,0.0027 0.0073,0.0012 0.0058,-3.4e-5 -0.04456,0.573178 -0.02843,-0.0011 -0.05186,-0.0092 -0.05224,-0.01191 -0.04802,-0.01537 -0.04687,-0.01959 -0.01575,-0.0066 z" /><path
       id="path1875"
       style="fill:#000000;stroke:none;stroke-width:0.196694px;stroke-linecap:butt;stroke-linejoin:miter;stroke-opacity:1"
       d="m 13.013687,21.470076 c -0.133576,0.002 -0.269543,0.03162 -0.330385,0.131002 0,0 0.549372,4.100089 0.658848,4.241982 0,0 0.978988,0.305577 1.67651,0.286205 0.180435,-0.148088 0.187939,-1.06563 -0.0058,-1.139826 l -0.703795,-0.08106 c -0.176886,1.12e-4 -0.955811,-3.397582 -0.955811,-3.397582 0,0 -0.167869,-0.04333 -0.339604,-0.04073 z m 10.105538,0 c -0.159951,0.0027 -0.307334,0.04073 -0.307334,0.04073 0,0 -0.778925,3.397693 -0.955811,3.397581 l -0.703795,0.08106 c -0.193666,0.0742 -0.186163,0.991737 -0.0058,1.139826 0.697523,0.01937 1.676509,-0.286206 1.676509,-0.286206 0.109476,-0.141892 0.658849,-4.241981 0.658849,-4.241981 -0.06084,-0.09938 -0.19681,-0.128994 -0.330385,-0.131002 -0.01074,-1.63e-4 -0.02161,-1.74e-4 -0.03227,0 z m -7.87698,2.608116 0.14752,1.170944 h 0.643098 l -0.197462,-1.170944 z m 0.793307,0 0.197846,1.170944 h 1.171329 c 0.01478,-0.0082 0.02983,-0.01583 0.04495,-0.02343 l -0.134074,-1.14751 z m 2.776765,0 -0.138299,1.170944 h 1.164028 l 0.197847,-1.170944 z m 1.422191,0 -0.197463,1.170944 h 0.749128 l 0.14752,-1.170944 z m -2.714147,0.06492 0.118708,1.005368 c 0.125219,-0.03991 0.258584,-0.06185 0.396845,-0.06185 0.141388,0 0.277241,0.02288 0.404913,0.06454 h 0.05839 l 0.120245,-1.008057 z m -2.379535,0.06531 c -0.126287,0.15441 -0.209809,0.388128 -0.260851,0.663074 l 0.210525,0.02843 c 0.193625,0.08767 0.186129,1.172302 0.0058,1.347276 -0.08358,0.0028 -0.170977,-3.25e-4 -0.260465,-0.0073 0.05449,0.719871 0.202955,1.363651 0.326543,1.477893 l 0.134459,-2.423331 z m 5.88353,0 -0.155971,1.086043 0.134459,2.423331 c 0.123583,-0.114242 0.27205,-0.758023 0.326542,-1.477894 -0.08949,0.0069 -0.176886,0.01006 -0.260466,0.0073 -0.180404,-0.174974 -0.187899,-1.259607 0.0058,-1.347277 l 0.210525,-0.02843 C 21.234195,24.596549 21.15068,24.36283 21.024394,24.208421 Z m -7.928073,1.017659 -1.96233,7.179715 c 0.01719,0.19179 0.717601,0.283748 0.780629,0.13369 l 0.55858,-1.867055 c -0.06308,-1.035177 -0.04771,-2.617074 0.603913,-2.867814 0.07001,-0.02694 0.15607,-0.05014 0.255087,-0.07031 h -0.0015 l 0.01037,-0.0019 c 0.0013,-2.38e-4 0.0025,-5.56e-4 0.0038,-7.68e-4 0.0028,-5.6e-4 0.006,-9.42e-4 0.0088,-0.0015 l 0.48482,-1.62085 c -0.339484,-0.07497 -0.592002,-0.153668 -0.592002,-0.153668 -0.02751,-0.03566 -0.08282,-0.321747 -0.15021,-0.729535 z m 9.972616,0 c -0.06739,0.407788 -0.122697,0.693874 -0.15021,0.729535 0,0 -0.252519,0.07869 -0.592003,0.153668 l 0.48482,1.620804 c 0.0029,5.95e-4 0.006,9.42e-4 0.0088,0.0015 0.0013,2.37e-4 0.0025,5.54e-4 0.0038,7.67e-4 l 0.01038,0.0019 h -0.0015 c 0.09902,0.02016 0.185081,0.04336 0.255088,0.07031 0.651619,0.25074 0.66699,1.832636 0.603912,2.867813 l 0.558588,1.867087 c 0.06303,0.150058 0.763434,0.05809 0.780629,-0.13369 z m -7.679134,0.101805 -0.14752,2.552412 h 0.577021 l 0.220512,-2.552412 z m 0.848244,0 -0.220897,2.552412 h 4.036068 l -0.220128,-2.552412 h -1.041479 c 0.334692,0.237505 0.55397,0.627699 0.55397,1.068371 0,0.722093 -0.587535,1.309628 -1.309629,1.309628 -0.722092,0 -1.310013,-0.587535 -1.310013,-1.309628 0,-0.440672 0.219278,-0.830866 0.553971,-1.068371 z m 1.797137,0 -0.344214,0.0096 c -0.446476,0.145027 -0.76872,0.563575 -0.76872,1.058767 0,0.615625 0.498078,1.112166 1.113702,1.112166 0.615625,0 1.112167,-0.496541 1.112167,-1.112166 0,-0.497053 -0.32384,-0.917185 -0.772562,-1.060687 l -0.284284,-0.0077 z m 1.994984,0 0.220513,2.552412 h 0.68305 l -0.14752,-2.552412 z m -4.902366,2.397976 -1.522458,0.273528 c -0.03219,0.0053 -0.0638,0.01096 -0.09374,0.0169 -0.0013,2.62e-4 -0.0025,5.56e-4 -0.0038,7.69e-4 l -0.01037,0.0019 h 0.0015 c -0.09902,0.02016 -0.185078,0.04336 -0.255088,0.07031 -0.981353,0.377621 -0.520163,3.775987 -0.520163,3.775987 0.07721,0.432817 0.576636,0.04341 0.576636,0.04341 0,0 -0.157535,-2.750834 0.750665,-3.040306 l 1.057614,-0.280058 c 0,0 0.161935,0.231935 0.278522,0.155973 0.200873,5.81e-4 0.401611,0.0011 0.602375,0.0015 -0.04076,-0.05294 -0.06531,-0.119097 -0.06531,-0.190547 v -0.325007 c 0,-0.03203 0.0051,-0.06304 0.01421,-0.0922 l -0.140222,-0.0123 0.01153,-0.134843 c -0.211326,-5.55e-4 -0.421821,-7.41e-4 -0.630035,-3.84e-4 z m 5.909655,0 -0.01767,0.227428 c -0.256302,0.009 -0.509444,0.01603 -0.761037,0.0219 l 0.01306,0.150594 -0.04764,0.0042 c 0.01086,0.03158 0.0169,0.06514 0.0169,0.100268 v 0.325006 c 0,0.07101 -0.02419,0.136981 -0.06454,0.189779 0.200519,-2.21e-4 0.400977,-5.78e-4 0.601608,-7.68e-4 0.116586,0.07597 0.278522,-0.155973 0.278522,-0.155973 l 1.057614,0.280058 c 0.9082,0.289472 0.750664,3.040306 0.750664,3.040306 0,0 0.499427,0.389404 0.576636,-0.04341 0,0 0.46119,-3.398366 -0.520163,-3.775987 -0.07001,-0.02694 -0.156071,-0.05014 -0.255088,-0.07031 h 0.0015 l -0.01038,-0.0019 c -0.0013,-2.38e-4 -0.0025,-5.32e-4 -0.0038,-7.68e-4 -0.02994,-0.006 -0.06155,-0.01156 -0.09374,-0.0169 z m -5.029911,0.265844 -0.0027,0.02958 c 0.0094,-0.01049 0.01959,-0.02042 0.03035,-0.02958 -0.0092,-3.1e-5 -0.01841,3.1e-5 -0.02766,0 z m 2.928511,0.0034 c -0.580146,0.0043 -1.148302,0.0032 -1.706089,0.0011 0.06464,0.05759 0.105646,0.141265 0.105646,0.233958 v 0.325006 c 0,0.07184 -0.02493,0.138241 -0.06607,0.191315 0.5418,1.24e-4 1.0836,1.22e-4 1.625414,-3.84e-4 -0.04066,-0.05302 -0.06531,-0.119347 -0.06531,-0.190931 v -0.325006 c 0,-0.09333 0.0413,-0.177465 0.106413,-0.235111 z m -2.69801,0.06646 c -0.09407,0 -0.16865,0.07458 -0.16865,0.168649 v 0.325007 c 0,0.09407 0.07458,0.168649 0.16865,0.168649 h 0.784087 c 0.09407,0 0.168264,-0.07458 0.168264,-0.168649 v -0.325007 c 0,-0.09407 -0.0742,-0.168649 -0.168264,-0.168649 z m 2.903925,0 c -0.09407,0 -0.167112,0.07443 -0.167112,0.168649 v 0.325007 c 0,0.09421 0.07303,0.168649 0.167112,0.168649 h 0.785239 c 0.09408,0 0.167114,-0.07443 0.167114,-0.168649 v -0.325007 c 0,-0.09422 -0.07304,-0.168649 -0.167114,-0.168649 z" /><path
       id="path436"
       style="fill:#000000;stroke:none;stroke-width:0.200607px;stroke-linecap:butt;stroke-linejoin:miter;stroke-opacity:1"
       d="m 18.080094,20.687526 c -0.495436,0.0022 -0.988459,0.02217 -1.527836,0.05379 -0.183486,0.13916 -0.495961,0.963109 -0.495961,0.963109 -0.06279,0.290143 0.02622,1.036289 0.119477,1.151736 l 0.437567,-0.181328 0.482131,0.298884 0.127159,0.783317 c 0,0 0.538731,0.146159 0.856106,0.149472 0.308216,-0.0052 0.874571,-0.149472 0.874571,-0.149472 l 0.126775,-0.783317 0.482131,-0.298884 0.437951,0.181328 c 0.09326,-0.115447 0.182274,-0.861593 0.119476,-1.151736 0,0 -0.312859,-0.823949 -0.496344,-0.963109 -0.549836,-0.04011 -1.047768,-0.05591 -1.543203,-0.05379 z m -1.123307,0.285821 h 2.262365 c 0.08454,0 0.154051,0.06913 0.154051,0.153668 v 0.204761 c 0,0.08453 -0.06952,0.155588 -0.154051,0.155588 h -2.262365 c -0.08453,0 -0.153667,-0.07106 -0.153667,-0.155588 v -0.204761 c 0,-0.08453 0.06913,-0.153668 0.153667,-0.153668 z m -0.0035,0.121782 c -0.01686,0.0015 -0.02843,0.01434 -0.02843,0.03188 v 0.204761 c 0,0.01871 0.01318,0.03188 0.03188,0.03188 h 2.262365 c 0.0187,0 0.03188,-0.01318 0.03188,-0.03188 v -0.20476 c 0,-0.01871 -0.01318,-0.03188 -0.03188,-0.03188 h -2.262299 c -0.0012,0 -0.0023,-1.02e-4 -0.0035,0 z M 17.266,21.893813 h 1.643854 c 0.08007,0 0.146752,0.06514 0.146752,0.145216 v 0.206299 c 0,0.08008 -0.06667,0.145214 -0.146752,0.145214 H 17.266 c -0.08007,0 -0.146368,-0.06514 -0.146368,-0.145214 v -0.206299 c 0,-0.08008 0.06629,-0.145216 0.146368,-0.145216 z m 0,0.106031 c -0.02316,0 -0.04034,0.01603 -0.04034,0.03918 v 0.206299 c 0,0.02316 0.01718,0.03919 0.04034,0.03919 h 1.643854 c 0.02316,0 0.04073,-0.01603 0.04073,-0.03919 v -0.206299 c 0,-0.02316 -0.01757,-0.03918 -0.04073,-0.03918 z"
       sodipodi:nodetypes="scccccccccccccsscsssssssssssssssssssssssssssssssssss" /><path
       id="path599"
       style="fill:#000000;stroke:none;stroke-width:0.196694px;stroke-linecap:butt;stroke-linejoin:miter;stroke-opacity:1"
       d="m 17.455821,18.481634 c -1.106932,0.33689 -1.35765,1.22319 -1.35765,1.22319 v 0.634262 l -0.06454,1.387615 0.123317,0.0058 0.03572,-0.785623 0.370723,-0.08413 -0.02766,-0.118708 -0.336915,0.0753 0.02074,-0.457159 c 0.259128,-0.110673 0.942175,-0.347162 1.896253,-0.358428 0.954076,0.01127 1.637126,0.247755 1.896252,0.358428 l 0.02074,0.457159 -0.407987,-0.07299 -0.02766,0.118708 0.441794,0.08182 0.03572,0.785623 0.123317,-0.0058 -0.06454,-1.387615 v -0.634262 c 0,0 -0.248947,-0.879745 -1.34574,-1.219348 l -0.02613,0.28851 H 17.48268 Z m -1.747964,1.275438 c -0.06766,0.0034 -0.121013,0.05901 -0.121013,0.127544 v 1.745275 c 0,0.07075 0.0568,0.127927 0.127544,0.127927 h 0.174028 c 0.07075,0 0.127928,-0.05717 0.127928,-0.127927 v -1.745275 c 0,-0.07075 -0.05717,-0.127544 -0.127928,-0.127544 h -0.174028 c -0.0022,0 -0.0043,-1.11e-4 -0.0066,0 z m 4.628839,0 c -0.06768,0.0034 -0.121396,0.05901 -0.121396,0.127544 v 1.745275 c 0,0.07075 0.05718,0.127927 0.127927,0.127927 h 0.174028 c 0.07074,0 0.127544,-0.05718 0.127544,-0.127927 v -1.745275 c 0,-0.06854 -0.05335,-0.124124 -0.121013,-0.127544 -0.0022,-1.11e-4 -0.0043,0 -0.0066,0 h -0.174028 c -0.0022,0 -0.0044,-1.1e-4 -0.0066,0 z" /><rect
       style="fill:#000000;stroke:none;stroke-width:0.104198;stroke-linecap:round;stroke-dasharray:none;stop-color:#000000"
       id="rect1267"
       width="1.4015436"
       height="0.72325611"
       x="17.452501"
       y="17.368664"
       ry="0.093174011" /><path
       style="fill:#000000;stroke:none;stroke-width:0.196694px;stroke-linecap:butt;stroke-linejoin:miter;stroke-opacity:1"
       d="m 17.491505,18.14926 0.04925,0.540542 h 1.150144 l 0.04925,-0.540542 z"
       id="path1271"
       sodipodi:nodetypes="ccccc" /><path
       style="fill:#000000;stroke:none;stroke-width:0.196694px;stroke-linecap:butt;stroke-linejoin:miter;stroke-opacity:1"
       d="m 16.613091,22.771416 0.414541,0.285583 0.106323,0.609262 c 0,0 -0.778,-0.544141 -0.846201,-0.770884 z"
       id="path1495"
       sodipodi:nodetypes="ccccc" /><path
       style="fill:#000000;stroke:none;stroke-width:0.196694px;stroke-linecap:butt;stroke-linejoin:miter;stroke-opacity:1"
       d="m 19.553526,22.771416 -0.414541,0.285583 -0.106323,0.609262 c 0,0 0.778,-0.544141 0.846201,-0.770884 z"
       id="path1495-6"
       sodipodi:nodetypes="ccccc" /><path
       id="path2419"
       style="fill:#000000;stroke:none;stroke-width:0.196694px;stroke-linecap:butt;stroke-linejoin:miter;stroke-opacity:1"
       d="m 13.952594,22.476981 c -0.01508,-2.56e-4 -0.02898,2.99e-4 -0.04111,0.0015 l -0.144063,0.474447 0.568185,1.86091 0.192469,0.03534 0.184784,-0.783702 0.09527,-1.282352 c -0.09509,-0.13694 -0.629288,-0.302355 -0.855542,-0.306182 z m 1.645775,0.02536 -0.216671,0.259314 0.573948,0.0027 c 0,0 0.0035,-0.140435 0.0015,-0.258544 -0.0181,0.0032 -0.358812,-0.0034 -0.358812,-0.0034 z m -0.693424,0.309256 -0.07568,1.198219 -0.0023,3.85e-4 -0.197078,0.836334 0.16404,0.01422 c 0,0 0.187881,-0.678161 0.424121,-0.920851 l 1.999211,0.01959 c -0.335442,-0.164057 -1.142755,-0.781451 -1.238174,-1.12177 z" /><path
       id="path2419-6"
       style="fill:#000000;stroke:none;stroke-width:0.196694px;stroke-linecap:butt;stroke-linejoin:miter;stroke-opacity:1"
       d="m 22.198184,22.476979 c 0.01509,-2.55e-4 0.02899,2.99e-4 0.04111,0.0015 l 0.144063,0.474447 -0.568185,1.86091 -0.192468,0.03534 -0.184784,-0.783702 -0.09528,-1.282353 c 0.0951,-0.136962 0.629291,-0.302377 0.855546,-0.306205 z m -1.645776,0.02536 0.216671,0.259314 -0.573946,0.0027 c 0,0 -0.0036,-0.140436 -0.0015,-0.258545 0.0181,0.0032 0.358813,-0.0035 0.358813,-0.0035 z m 0.693424,0.309256 0.07568,1.19822 0.0023,3.84e-4 0.197078,0.836334 -0.16404,0.01421 c 0,0 -0.18788,-0.67816 -0.424121,-0.92085 l -1.99921,0.01959 c 0.335441,-0.164059 1.142756,-0.781452 1.238174,-1.121771 z" /><path
       id="path2499"
       style="fill:#000000;stroke:none;stroke-width:0.196694px;stroke-linecap:butt;stroke-linejoin:miter;stroke-opacity:1"
       d="m 16.196902,28.914483 c -0.098,0.538901 0.364576,3.650364 0.364576,3.650364 0.05654,0.04733 0.339914,0.07818 0.714937,0.09335 v -3.743716 z m 1.275438,0 v 3.749863 c 0.382172,0.0096 0.826986,0.0056 1.219734,-0.01076 V 28.91448 Z m 1.417196,0 V 32.6436 c 0.319663,-0.0177 0.586639,-0.04404 0.726078,-0.07875 0,0 0.395899,-3.217467 0.364574,-3.650364 z" /><path
       id="path2605"
       style="fill:#000000;stroke:none;stroke-width:0.196694px;stroke-linecap:butt;stroke-linejoin:miter;stroke-opacity:1"
       d="m 13.94299,28.967114 c -0.1072,5.31e-4 -0.203932,0.0731 -0.231271,0.182095 l -0.361501,1.44063 c -0.0324,0.129174 0.04562,0.259567 0.174796,0.291968 l 0.220897,0.05532 c 0.129175,0.0324 0.259183,-0.04562 0.291584,-0.174796 l 0.361502,-1.44063 c 0.03241,-0.129175 -0.04562,-0.259183 -0.174797,-0.291583 l -0.220896,-0.05571 c -0.02018,-0.005 -0.04046,-0.0074 -0.06032,-0.0073 z m 2.066439,0.368032 -0.471375,0.07837 -0.08029,2.068745 c 0,0 0.590036,-0.0069 0.739525,-0.09066 0,0 -0.14208,-1.06855 -0.187859,-2.056452 z m -0.559733,0.07875 c -0.413535,0.0053 -0.773979,0.128495 -0.995764,0.226274 l -0.318475,1.27006 c -0.01627,0.06488 -0.05718,0.116757 -0.110256,0.148289 -0.0049,0.252641 0.0016,0.443611 0.0062,0.46369 0.01245,0.05465 -0.584704,0.07376 -0.584704,0.07376 -0.07277,0.320377 -0.150281,1.269612 -0.218207,2.314997 0.0477,-0.08978 0.101128,-0.172874 0.160582,-0.247405 0.211452,-0.265076 0.498582,-0.428613 0.806369,-0.40376 0.307786,0.02485 0.564505,0.232279 0.730687,0.527847 0.07398,0.131569 0.13134,0.281585 0.169419,0.444098 z M 12.8969,32.688927 c -0.122109,0.0021 -0.224698,0.09571 -0.235111,0.220128 l -0.04572,0.544366 c -0.0047,-8.92e-4 -0.009,-0.0015 -0.01383,-0.0019 -0.09476,-0.0082 -0.177819,0.06198 -0.185937,0.156741 l -0.03496,0.404528 c -0.0081,0.09476 0.0616,0.177428 0.156356,0.185554 0.0054,4.66e-4 0.01086,8.01e-4 0.01614,7.68e-4 l -0.04879,0.582399 c -0.0111,0.132712 0.08668,0.24862 0.21936,0.259698 l 0.06377,0.0054 c 0.109363,0.0091 0.20744,-0.05589 0.244715,-0.153283 8.92e-4,-0.03109 0.0021,-0.06229 0.0042,-0.09374 0.0065,-0.09268 0.01839,-0.18292 0.03534,-0.270454 l 0.131772,-1.574759 c 0.01042,-0.124547 -0.0749,-0.234426 -0.195158,-0.256624 -0.0039,-6.7e-4 -0.008,-0.001 -0.01191,-0.0015 -0.0041,-5.65e-4 -0.0081,-8.05e-4 -0.01229,-0.0011 l -0.06339,-0.0054 c -0.0083,-6.93e-4 -0.01645,-9.05e-4 -0.02459,-7.67e-4 z m 2.585834,0.12447 c -0.122218,0.004 -0.222999,0.100031 -0.231268,0.224739 l -0.104494,1.576625 c 0.0037,0.08908 0.0021,0.180153 -0.0054,0.272759 -0.0026,0.03142 -0.0058,0.0625 -0.0096,0.09335 0.02233,0.101863 0.109472,0.180596 0.218976,0.187856 l 0.06377,0.0042 c 0.132883,0.0088 0.247044,-0.09109 0.255856,-0.22397 l 0.03842,-0.583167 c 0.0052,8.18e-4 0.01075,0.0012 0.01613,0.0015 0.09491,0.0061 0.176018,-0.06528 0.182097,-0.160199 l 0.02613,-0.405297 c 0.0061,-0.09491 -0.06567,-0.176401 -0.160583,-0.182479 -0.0048,-3.11e-4 -0.0094,-4.72e-4 -0.01421,-3.84e-4 l 0.03611,-0.545135 c 0.0088,-0.132883 -0.09109,-0.24666 -0.22397,-0.255472 l -0.06339,-0.0042 c -0.0042,-2.76e-4 -0.0086,-7.03e-4 -0.01268,-7.69e-4 -0.004,-6.3e-5 -0.008,-1.3e-4 -0.01191,0 z m -1.346123,0.641181 c -0.213985,-0.0012 -0.421681,0.117824 -0.592773,0.332304 -0.182496,0.22878 -0.315019,0.562919 -0.34575,0.943516 -0.03073,0.380601 0.04635,0.731833 0.189778,0.986929 0.143429,0.255095 0.345321,0.409858 0.574332,0.428347 0.22901,0.01849 0.454453,-0.101607 0.63695,-0.330385 0.182499,-0.228779 0.315019,-0.562917 0.345751,-0.943516 0.03073,-0.380599 -0.04636,-0.732216 -0.189779,-0.987312 -0.143426,-0.255093 -0.346857,-0.409474 -0.575867,-0.427963 -0.01431,-0.0011 -0.02838,-0.0018 -0.04264,-0.0019 z m 0.86553,2.043389 c -0.06534,0.165956 -0.149718,0.314907 -0.249709,0.440256 -0.211452,0.265076 -0.498198,0.428996 -0.805986,0.404145 -0.307786,-0.02485 -0.564888,-0.232664 -0.731071,-0.528232 -0.03263,-0.05805 -0.06171,-0.119731 -0.08759,-0.184399 -0.05525,1.035205 -0.09143,1.860141 -0.09143,1.860141 l 1.811352,0.111024 z m -1.968093,0.01613 c -0.175567,0.01063 -0.406449,0.269687 -0.406449,0.269687 l -0.07184,0.356124 -0.808674,1.280815 c -0.205628,0.202075 -0.254704,1.247393 -0.254704,1.247393 0,0 -0.06064,1.578886 0.260082,2.212039 0,0 0.406718,-1.668519 0.587393,-1.748348 l 0.500955,-1.560106 0.21014,-2.057604 c -0.0055,-1.9e-4 -0.01124,-3.42e-4 -0.0169,0 z m 2.053378,0.134075 -0.137148,2.01112 0.175565,1.70609 c 0.161104,0.114287 0.227043,1.830176 0.227043,1.830176 0.440654,-0.556391 0.696113,-2.115229 0.696113,-2.115229 0,0 0.160768,-1.034463 -3.85e-4,-1.273517 l -0.601223,-1.446392 7.69e-4,-0.363423 c 0,0 -0.185849,-0.319419 -0.360734,-0.348825 z m -2.099094,2.014961 -0.483668,1.478662 2.427941,0.242026 -0.102572,-1.600059 z m -0.593924,1.631177 c -0.421646,0.575563 -0.5678,2.42871 -0.5678,2.42871 l 3.318828,0.08336 c 0,0 0.06713,-1.818974 -0.130234,-2.227789 z m -0.254319,2.558177 c -0.517955,0.01334 -0.549744,0.386857 -0.549744,0.386857 l 0.397229,1.170559 0.624273,0.01229 z m 2.501702,0 -0.471758,1.569709 0.624272,-0.01229 0.397231,-1.17056 c 0,0 -0.0318,-0.373514 -0.549745,-0.386857 z m -2.220107,0.0077 0.365344,1.60275 h 1.211665 l 0.462539,-1.548197 z m -0.924308,0.419897 -0.308871,2.16056 0.207066,1.193225 0.46638,-2.138663 c -0.03277,-0.04831 -0.364575,-1.215119 -0.364575,-1.215119 z m 3.807489,0 c 0,0 -0.331806,1.166808 -0.364576,1.215122 l 0.465996,2.138663 0.207067,-1.193225 z m -3.363775,1.297719 -0.44333,2.298861 h 0.938138 l 0.171339,-2.298861 z m 0.847859,0 -0.171339,2.298861 h 1.524378 l -0.148289,-2.298878 z m 1.386462,0 0.147905,2.298861 h 0.981165 l -0.44333,-2.298861 z" /><path
       id="path2605-7"
       style="fill:#000000;stroke:none;stroke-width:0.196694px;stroke-linecap:butt;stroke-linejoin:miter;stroke-opacity:1"
       d="m 22.172006,29.043079 c 0.107199,5.31e-4 0.203931,0.07311 0.23127,0.182095 l 0.361502,1.44063 c 0.03239,0.129175 -0.04563,0.259568 -0.174797,0.291968 l -0.220896,0.05532 c -0.129175,0.0324 -0.259184,-0.04562 -0.291584,-0.174795 l -0.361503,-1.440631 c -0.03239,-0.129175 0.04563,-0.259183 0.174798,-0.291583 l 0.220895,-0.05571 c 0.02018,-0.005 0.04046,-0.0073 0.06031,-0.0073 z m -2.066438,0.368033 0.471374,0.07837 0.08029,2.068745 c 0,0 -0.590036,-0.0069 -0.739524,-0.09066 0,0 0.142079,-1.06855 0.187859,-2.056451 z m 0.559732,0.07875 c 0.413535,0.0053 0.773979,0.128495 0.995764,0.226275 l 0.318475,1.270059 c 0.01627,0.06489 0.05718,0.116756 0.110256,0.148289 0.0049,0.252642 -0.0015,0.443611 -0.0062,0.46369 -0.01245,0.05465 0.584703,0.07376 0.584703,0.07376 0.07277,0.320377 0.150282,1.269612 0.218208,2.314997 -0.0477,-0.08978 -0.101128,-0.172875 -0.160582,-0.247404 -0.211452,-0.265076 -0.498582,-0.428614 -0.80637,-0.403761 -0.307785,0.02485 -0.564504,0.23228 -0.730687,0.527847 -0.07398,0.13157 -0.131339,0.281585 -0.169418,0.444097 z m 2.552796,3.275031 c 0.122109,0.0021 0.224698,0.09571 0.23511,0.220129 l 0.04571,0.544366 c 0.0047,-8.92e-4 0.009,-0.0015 0.01383,-0.0019 0.09476,-0.0082 0.177819,0.06198 0.185937,0.15674 l 0.03496,0.404529 c 0.0082,0.09476 -0.0616,0.177428 -0.156357,0.185553 -0.0053,4.66e-4 -0.01085,8.18e-4 -0.01613,7.44e-4 l 0.04879,0.582399 c 0.0111,0.132712 -0.08668,0.248621 -0.219359,0.259698 l -0.06377,0.0053 c -0.109363,0.0091 -0.20744,-0.05589 -0.244715,-0.153282 -8.92e-4,-0.03109 -0.0021,-0.06229 -0.0043,-0.09374 -0.0065,-0.09268 -0.01838,-0.18292 -0.03534,-0.270454 l -0.131769,-1.574704 c -0.01043,-0.124548 0.0749,-0.234426 0.195157,-0.256625 0.0039,-6.69e-4 0.008,-9.51e-4 0.01191,-0.0015 0.0041,-5.65e-4 0.0082,-8.18e-4 0.0123,-0.0012 l 0.06339,-0.0053 c 0.0083,-6.95e-4 0.01645,-8.93e-4 0.02459,-7.44e-4 z m -2.585834,0.12447 c 0.122218,0.004 0.222999,0.100031 0.231268,0.224738 l 0.104494,1.576626 c -0.0037,0.08908 -0.0021,0.180153 0.0053,0.272759 0.0026,0.03142 0.0058,0.06249 0.0096,0.09335 -0.02233,0.101865 -0.109472,0.180598 -0.218977,0.187858 l -0.06377,0.0043 c -0.132882,0.0088 -0.247044,-0.09109 -0.255856,-0.22397 l -0.03843,-0.583167 c -0.0052,8.18e-4 -0.01075,0.0012 -0.01613,0.0015 -0.09491,0.0061 -0.176018,-0.06528 -0.182096,-0.160199 l -0.02613,-0.405297 c -0.0061,-0.09491 0.06567,-0.176401 0.160582,-0.182479 0.0048,-3.11e-4 0.0094,-4.72e-4 0.01422,-3.84e-4 l -0.03611,-0.545135 c -0.0088,-0.132883 0.09109,-0.24666 0.22397,-0.255472 l 0.06339,-0.0043 c 0.0042,-2.76e-4 0.0086,-7.02e-4 0.01268,-7.43e-4 0.004,-6.4e-5 0.008,-1.3e-4 0.01191,0 z m 1.346123,0.641177 c 0.213985,-0.0011 0.42168,0.117825 0.592772,0.332305 0.182496,0.22878 0.31502,0.562919 0.345751,0.943516 0.03073,0.3806 -0.04635,0.731833 -0.189779,0.986928 -0.143428,0.255095 -0.345319,0.409859 -0.574331,0.428347 -0.22901,0.01849 -0.454453,-0.101606 -0.63695,-0.330384 -0.182499,-0.228779 -0.315019,-0.562917 -0.345752,-0.943516 -0.03073,-0.3806 0.04635,-0.732216 0.189779,-0.987312 0.143426,-0.255094 0.346858,-0.409474 0.575868,-0.427963 0.01431,-0.0012 0.02837,-0.0019 0.04264,-0.0019 z m -0.86553,2.043389 c 0.06534,0.165956 0.149717,0.314907 0.249709,0.440257 0.211452,0.265076 0.498198,0.428996 0.805985,0.404144 0.307786,-0.02485 0.564889,-0.232663 0.731072,-0.528231 0.03263,-0.05805 0.06171,-0.119732 0.08759,-0.1844 0.05525,1.035205 0.09143,1.860141 0.09143,1.860141 l -1.811352,0.111024 z m 1.968093,0.01613 c 0.175567,0.01063 0.406449,0.269686 0.406449,0.269686 l 0.07184,0.356125 0.808675,1.280815 c 0.205628,0.202074 0.254704,1.247394 0.254704,1.247394 0,0 0.06064,1.578884 -0.260082,2.212039 0,0 -0.406719,-1.668521 -0.587393,-1.748349 l -0.500956,-1.560107 -0.21014,-2.057603 c 0.0056,-1.9e-4 0.01124,-3.43e-4 0.0169,0 z m -2.053378,0.134075 0.137148,2.011119 -0.175565,1.70609 c -0.161104,0.114289 -0.227043,1.830176 -0.227043,1.830176 -0.440654,-0.556391 -0.696112,-2.115229 -0.696112,-2.115229 0,0 -0.160768,-1.034463 3.84e-4,-1.273517 l 0.601223,-1.446392 -7.44e-4,-0.363423 c 0,0 0.185848,-0.319419 0.360734,-0.348824 z m 2.099094,2.014961 0.483667,1.478662 -2.427941,0.242026 0.102573,-1.60006 z m 0.593923,1.631176 c 0.421647,0.575565 0.567801,2.42871 0.567801,2.42871 l -3.318827,0.08336 c 0,0 -0.06713,-1.818974 0.130232,-2.227789 z m 0.25432,2.558175 c 0.517955,0.01334 0.549745,0.386858 0.549745,0.386858 l -0.397231,1.170559 -0.624272,0.0123 z m -2.501702,0 0.471758,1.56971 -0.624272,-0.0123 -0.397231,-1.17056 c 0,0 0.0318,-0.373514 0.549745,-0.386858 z m 2.220106,0.0077 -0.365343,1.602748 h -1.211666 l -0.462538,-1.548197 z m 0.924309,0.419895 0.308871,2.160561 -0.207067,1.193225 -0.46638,-2.138663 c 0.03277,-0.04832 0.364576,-1.215123 0.364576,-1.215123 z m -3.807489,0 c 0,0 0.331806,1.166809 0.364575,1.215123 l -0.465995,2.138663 -0.207066,-1.193225 z m 3.363775,1.297719 0.443329,2.298861 h -0.938137 l -0.171339,-2.29888 z m -0.847859,0 0.171339,2.298861 h -1.524378 l 0.148289,-2.298861 z m -1.386462,0 -0.147905,2.298861 h -0.981165 l 0.44333,-2.298854 z" /></g></svg>
