<?xml version="1.0" encoding="UTF-8" standalone="no"?>
<!-- Created with Inkscape (http://www.inkscape.org/) -->

<svg
   sodipodi:docname="Firestarter.svg"
   inkscape:version="1.2.2 (b0a8486541, 2022-12-01)"
   id="svg8"
   version="1.1"
   viewBox="0 0 34.98301 52.516205"
   height="52.516205mm"
   width="34.983009mm"
   xml:space="preserve"
   xmlns:inkscape="http://www.inkscape.org/namespaces/inkscape"
   xmlns:sodipodi="http://sodipodi.sourceforge.net/DTD/sodipodi-0.dtd"
   xmlns="http://www.w3.org/2000/svg"
   xmlns:svg="http://www.w3.org/2000/svg"
   xmlns:rdf="http://www.w3.org/1999/02/22-rdf-syntax-ns#"
   xmlns:cc="http://creativecommons.org/ns#"
   xmlns:dc="http://purl.org/dc/elements/1.1/"><defs
     id="defs2" /><sodipodi:namedview
     id="base"
     pagecolor="#ffffff"
     bordercolor="#666666"
     borderopacity="1.0"
     inkscape:pageopacity="0.0"
     inkscape:pageshadow="2"
     inkscape:zoom="2.8284273"
     inkscape:cx="62.9325"
     inkscape:cy="102.17692"
     inkscape:document-units="mm"
     inkscape:current-layer="layer3"
     showgrid="false"
     inkscape:window-width="1854"
     inkscape:window-height="1011"
     inkscape:window-x="66"
     inkscape:window-y="1112"
     inkscape:window-maximized="1"
     inkscape:snap-global="false"
     fit-margin-top="0"
     fit-margin-left="0"
     fit-margin-right="0"
     fit-margin-bottom="0"
     showguides="true"
     inkscape:guide-bbox="true"
     inkscape:showpageshadow="2"
     inkscape:pagecheckerboard="0"
     inkscape:deskcolor="#d1d1d1" /><metadata
     id="metadata5"><rdf:RDF><cc:Work
         rdf:about=""><dc:format>image/svg+xml</dc:format><dc:type
           rdf:resource="http://purl.org/dc/dcmitype/StillImage" /><dc:title /></cc:Work></rdf:RDF></metadata><g
     inkscape:groupmode="layer"
     id="layer3"
     inkscape:label="Capa 1"><path
       id="rect3086"
       style="fill:#000000;stroke:none;stroke-width:0.299636;stroke-linecap:round;stroke-dasharray:none;stop-color:#000000"
       d="M 11.198662 4.4716776 L 11.099006 4.5010324 L 11.004836 4.5406739 L 10.91579 4.5853447 L 10.834813 4.6379899 L 10.808442 4.6591186 L 11.611124 5.7154014 L 11.58757 5.7625448 L 10.400231 5.1514546 L 10.355388 5.2403019 L 10.292661 5.3892081 L 10.239408 5.5414199 L 10.225735 5.5874725 L 11.534788 5.9714105 L 11.538184 5.9603052 L 11.567076 5.8817058 L 11.593072 5.8199676 L 11.611733 5.7784458 L 11.637113 5.7752653 L 11.63339 5.7537833 L 12.672316 4.9601256 L 12.633458 4.9080612 L 12.546771 4.8122745 L 12.448617 4.7196187 L 12.338502 4.6361219 L 12.219052 4.561602 L 12.163342 4.5361022 L 11.624349 5.6833991 L 11.448061 4.4217906 L 11.3542 4.4350992 L 11.254089 4.4608283 L 11.198662 4.4716776 z M 10.130403 5.9740183 L 10.11782 6.0299511 L 10.088233 6.204092 L 10.067973 6.3515801 L 11.417894 6.5438335 L 11.437298 6.4147923 L 11.460282 6.2831666 L 11.46707 6.2491721 L 10.130403 5.9740183 z M 12.923585 5.3918427 L 11.675917 5.9468018 L 11.686167 5.9686445 L 11.710524 6.0284183 L 11.733569 6.0971212 L 11.757205 6.1699484 L 11.758158 6.173438 L 13.073189 5.8063229 L 13.067063 5.7838898 L 13.029182 5.6667409 L 12.989716 5.551632 L 12.944403 5.4386551 L 12.923585 5.3918427 z M 10.027478 6.7231524 L 10.023773 6.7605905 L 10.008877 6.9591109 L 10.001892 7.0885108 L 11.363381 7.1661836 L 11.370958 7.0467999 L 11.383052 6.8752931 L 11.386262 6.8497751 L 10.027478 6.7231524 z M 11.824731 6.4466713 L 11.857643 6.6182096 L 11.877719 6.7584334 L 13.228063 6.5579157 L 13.202676 6.3923577 L 13.165723 6.1962101 L 11.824731 6.4466713 z M 9.9872737 7.4508746 L 9.983778 7.5793217 L 9.9799012 7.7946536 L 9.9795884 7.8092024 L 11.344951 7.8108216 L 11.345448 7.8047935 L 11.34729 7.605552 L 11.351378 7.4871211 L 9.9872737 7.4508746 z M 11.913979 7.0560146 L 11.932673 7.2716115 L 11.939504 7.3790254 L 13.300716 7.2928548 L 13.293789 7.1693965 L 13.273005 6.9382997 L 11.913979 7.0560146 z M 9.9829146 8.1607737 L 9.9867248 8.4650727 L 9.9881447 8.5134321 L 11.351183 8.4712245 L 11.350853 8.4327452 L 11.346594 8.1424965 L 9.9829146 8.1607737 z M 11.956103 7.7066166 L 11.957473 7.7410619 L 11.963212 7.977874 L 11.964087 8.0242394 L 13.327406 8.0124889 L 13.327933 7.9555627 L 13.321416 7.6943216 L 13.319045 7.6483646 L 11.956103 7.7066166 z M 9.9982662 8.854577 L 10.001461 8.9270932 L 10.01315 9.2072778 L 11.378447 9.1419546 L 11.365356 8.8723307 L 11.363434 8.8123234 L 9.9982662 8.854577 z M 11.963736 8.3564588 L 11.963537 8.4459722 L 11.958757 8.6717287 L 11.958805 8.6797509 L 13.323047 8.722388 L 13.324447 8.7059352 L 13.328995 8.4636358 L 13.32824 8.3647408 L 11.963736 8.3564588 z M 11.947893 9.0105685 L 11.935652 9.2913951 L 11.932585 9.3409796 L 13.29462 9.4265385 L 13.297683 9.3651699 L 13.311326 9.0737826 L 11.947893 9.0105685 z M 10.03184 9.5562609 L 10.051336 9.872883 L 10.05402 9.9042912 L 11.415726 9.8062004 L 11.413044 9.7806843 L 11.396135 9.4735339 L 10.03184 9.5562609 z M 11.909753 9.6713024 L 11.893505 9.8942977 L 11.884292 10.001807 L 13.242668 10.126934 L 13.252784 10.009 L 13.270978 9.7774382 L 11.909753 9.6713024 z M 10.078328 10.246383 L 10.086064 10.349265 L 10.105991 10.592916 L 11.46597 10.478691 L 11.448085 10.242517 L 11.439852 10.145664 L 10.078328 10.246383 z M 11.909567 10.098293 C 11.782425 10.174524 11.701157 10.316576 11.709853 10.475307 L 11.525569 10.475273 C 11.709683 12.555479 12.022743 14.570008 12.106175 15.089136 L 15.029886 15.088961 C 15.258919 15.088961 15.44356 14.904519 15.44356 14.675485 L 15.443289 14.384148 C 14.761791 12.908032 14.104434 11.431021 13.434515 9.9604484 L 13.281144 9.9696509 C 13.266663 10.140634 13.255666 10.241236 13.255666 10.241236 L 11.909567 10.098293 z M 10.136147 10.938769 L 10.167796 11.278321 L 11.526276 11.15272 L 11.49662 10.812623 L 10.136147 10.938769 z M 10.203572 11.623174 L 10.215624 11.757554 L 10.238713 11.967665 L 11.596008 11.822032 L 11.573872 11.61541 L 11.561323 11.487058 L 10.203572 11.623174 z M 10.275984 12.31211 L 10.313567 12.642006 L 10.317107 12.654968 L 11.671269 12.491976 L 11.670677 12.48196 L 11.632551 12.155962 L 10.275984 12.31211 z M 10.296973 12.767602 L 10.299785 14.396382 C 10.300094 14.576431 10.414437 14.728095 10.574564 14.784718 C 10.501176 14.299364 10.398837 13.588559 10.296973 12.767602 z M 10.357277 12.994336 L 10.364821 13.059236 L 10.399896 13.336785 L 11.753466 13.163777 L 11.719344 12.889718 L 11.710895 12.82935 L 10.357277 12.994336 z M 10.443555 13.6752 L 10.46268 13.817826 L 10.491251 14.020548 L 11.843639 13.8334 L 11.816203 13.636797 L 11.797624 13.502056 L 10.443555 13.6752 z M 10.536905 14.358419 L 10.550215 14.458171 L 10.58605 14.701229 L 11.937483 14.504699 L 11.903009 14.266627 L 11.889293 14.171271 L 10.536905 14.358419 z M 10.637326 15.043993 L 10.688872 15.381862 L 12.039168 15.173322 L 11.985492 14.835499 L 10.637326 15.043993 z M 10.776185 15.44855 A 2.6352802 2.6352802 0 0 0 8.9278571 18.6847 A 2.6352802 2.6352802 0 0 0 12.164505 20.532891 A 2.6352802 2.6352802 0 0 0 12.250702 20.507212 L 12.098375 20.669334 L 12.174268 20.741284 L 12.254602 20.809879 L 12.261901 20.816992 L 12.644195 20.349411 A 2.6352802 2.6352802 0 0 0 13.401326 19.783227 L 13.486352 19.929821 L 13.552154 19.905961 L 13.473909 19.701804 A 2.6352802 2.6352802 0 0 0 14.012198 17.296379 A 2.6352802 2.6352802 0 0 0 10.776185 15.44855 z M 10.804274 15.855499 C 11.333964 15.710863 11.883763 16.026493 12.028399 16.556182 C 12.173034 17.08587 11.859263 17.634627 11.329574 17.779263 C 10.799884 17.923899 10.24927 17.61117 10.104634 17.081481 C 9.9599985 16.551792 10.274584 16.000135 10.804274 15.855499 z M 12.442076 15.416855 C 13.221442 15.453982 13.998916 16.604021 14.09681 16.982399 L 14.420844 16.893919 L 14.561118 15.418378 L 12.442076 15.416855 z M 10.874242 16.111735 C 10.48271 16.218646 10.253959 16.619981 10.36087 17.011514 C 10.467782 17.403046 10.868619 17.631932 11.260151 17.525021 C 11.651683 17.41811 11.881068 17.017137 11.774157 16.625605 C 11.667246 16.234072 11.265773 16.004824 10.874242 16.111735 z M 9.8032907 17.70427 C 9.8100716 17.702232 9.8168612 17.700564 9.8237298 17.698689 C 10.263298 17.578661 10.71835 17.838084 10.838378 18.277653 C 10.958405 18.71722 10.699028 19.174403 10.25946 19.294431 C 9.819892 19.414459 9.3621645 19.153086 9.2421372 18.713519 C 9.1239849 18.280819 9.3761112 17.832659 9.8032907 17.70427 z M 12.437937 16.990751 C 12.441915 16.989554 12.445869 16.988585 12.449901 16.987484 L 13.054598 16.822367 C 13.312365 16.751982 13.581406 16.905609 13.651792 17.163376 L 13.828207 17.80945 C 13.898593 18.067217 13.7451 18.336756 13.487334 18.407141 L 12.882637 18.572259 C 12.624871 18.642644 12.355693 18.488518 12.285308 18.230751 L 12.108892 17.584677 C 12.039606 17.330938 12.18743 17.066099 12.437937 16.990751 z M 9.865856 17.91378 C 9.5502086 18.008548 9.3676679 18.335555 9.4550026 18.655395 C 9.5437231 18.980309 9.8764192 19.170287 10.201335 19.081566 C 10.526252 18.992845 10.715729 18.660283 10.627008 18.335369 C 10.538287 18.010453 10.206226 17.820839 9.8813099 17.90956 C 9.8762328 17.910946 9.8708667 17.912276 9.865856 17.91378 z M 12.51211 17.215305 C 12.376566 17.252316 12.299701 17.386925 12.336713 17.522469 L 12.513128 18.168543 C 12.55014 18.304087 12.684749 18.380951 12.820293 18.34394 L 13.42499 18.178822 C 13.560533 18.141811 13.637398 18.007203 13.600387 17.871658 L 13.423971 17.225584 C 13.38696 17.090041 13.25235 17.013176 13.116807 17.050187 L 12.51211 17.215305 z M 11.563161 18.634713 C 12.002729 18.514685 12.457917 18.774606 12.577945 19.214175 C 12.697973 19.653742 12.438459 20.110427 11.998891 20.230455 C 11.559323 20.350482 11.10223 20.089472 10.982203 19.649905 C 10.862175 19.210336 11.123593 18.75474 11.563161 18.634713 z M 11.620741 18.845584 C 11.295825 18.934305 11.106347 19.266864 11.195068 19.591781 C 11.283789 19.916696 11.61585 20.10631 11.940767 20.017589 C 12.265683 19.928868 12.455795 19.596671 12.367074 19.271755 C 12.278353 18.946839 11.945657 18.756863 11.620741 18.845584 z M 13.792324 19.323982 L 13.582155 19.896162 L 14.152218 19.706218 L 14.144234 19.684828 L 14.11471 19.623786 L 14.083692 19.569046 L 14.046646 19.513808 L 14.000128 19.461157 L 13.946541 19.412043 L 13.886067 19.369095 L 13.816076 19.332495 L 13.792324 19.323982 z M 13.565853 19.942396 L 13.537912 20.018593 L 13.553329 20.041704 L 13.528448 20.044748 L 13.526456 20.051184 L 13.514716 20.047426 L 13.438756 20.053704 L 13.436714 20.046226 L 13.436863 20.087969 L 13.433478 20.134426 L 13.432302 20.143854 L 14.19536 20.27619 L 14.202236 20.234671 L 14.211357 20.122901 L 14.211867 20.012947 L 14.209456 19.982536 L 13.602504 20.037383 L 13.565853 19.942396 z M 12.880908 20.315844 L 12.44088 20.954539 L 12.487935 20.985616 L 12.564183 21.033363 L 12.641473 21.077076 L 12.655253 21.08242 L 12.99732 20.389051 L 12.958743 20.367443 L 12.912731 20.338224 L 12.880908 20.315844 z M 13.399391 20.268548 L 13.395813 20.277025 L 13.375068 20.320723 L 13.36003 20.350006 L 13.99673 20.790579 L 14.005972 20.777341 L 14.065088 20.676026 L 14.115409 20.568005 L 14.129673 20.526077 L 13.399391 20.268548 z M 13.110326 20.43801 L 12.898624 21.183099 L 12.951339 21.197631 L 13.030298 21.214105 L 13.107486 21.224097 L 13.185217 21.230192 L 13.201488 21.228963 L 13.18942 20.454982 L 13.185386 20.453941 L 13.163132 20.450911 L 13.137568 20.445571 L 13.110326 20.43801 z M 13.297099 20.42558 L 13.289531 20.429253 L 13.280016 20.435601 L 13.2705 20.441949 L 13.261436 20.446031 L 13.253959 20.448073 L 13.514882 21.176065 L 13.551364 21.164497 L 13.615396 21.134156 L 13.678974 21.100189 L 13.735843 21.063233 L 13.78972 21.021202 L 13.807845 21.007146 L 13.297099 20.42558 z "
       transform="rotate(15.272758)" /><path
       id="rect3086-2"
       style="fill:#000000;stroke:none;stroke-width:0.299636;stroke-linecap:round;stroke-dasharray:none;stop-color:#000000"
       d="m 26.099272,7.3439017 0.103873,0.00207 0.101286,0.013436 0.09767,0.019636 0.09199,0.029454 0.031,0.013437 -0.496093,1.2304153 0.03514,0.03927 0.984436,-0.90227 0.06666,0.0739 0.09974,0.127124 0.09146,0.132809 0.02532,0.04082 -1.161687,0.715202 -0.0062,-0.0098 -0.04857,-0.06821 -0.04134,-0.05271 -0.02894,-0.03514 -0.02532,0.0036 -0.0021,-0.0217 -1.211294,-0.49196 0.02377,-0.06046 0.0584,-0.115239 0.07028,-0.115238 0.08423,-0.109554 0.0956,-0.103353 0.04703,-0.03927 0.822171,0.964799 -0.162263,-1.2634887 0.09405,-0.011885 0.103352,-0.00155 z m 1.426269,1.1678873 0.02687,0.05064 0.07442,0.160196 0.05839,0.136943 -1.251603,0.541052 -0.05271,-0.119374 -0.05684,-0.120924 -0.01552,-0.031 z m -2.847888,0.17415 1.349788,0.206705 -0.0041,0.02377 -0.0078,0.06408 -0.0041,0.07234 -0.0036,0.07648 v 0.0036 l -1.365291,-0.0078 -2.4e-5,-0.02325 0.0057,-0.122989 0.0078,-0.121441 0.01395,-0.120922 z m 3.144511,0.521415 0.01343,0.03514 0.06667,0.187584 0.04084,0.122986 -1.292945,0.4335656 -0.03878,-0.1131646 -0.05684,-0.162265 -0.0098,-0.02377 z m -1.806608,0.206706 0.01344,0.174149 0.01757,0.140561 -1.355473,0.162264 -0.01912,-0.166399 -0.01602,-0.198954 z m 2.037085,0.484725 0.03721,0.122988 0.06046,0.206705 0.0041,0.01395 -1.316715,0.361219 -0.0021,-0.0057 -0.05422,-0.191731 -0.03515,-0.113168 z m -1.962671,0.126607 0.03876,0.212906 0.02173,0.105411 -1.335837,0.275435 -0.02586,-0.120915 -0.04083,-0.228409 z m 2.153874,0.557072 0.07648,0.294555 0.01137,0.04703 -1.326018,0.318326 -0.0098,-0.03721 -0.07231,-0.28113 z m -2.023133,0.08165 0.0077,0.0336 0.05688,0.22995 0.01137,0.04496 -1.318265,0.347782 -0.0155,-0.05478 -0.06254,-0.253727 -0.0098,-0.04497 z m 2.191081,0.591696 0.01602,0.0708 0.06253,0.273368 -1.334285,0.296623 -0.05839,-0.263549 -0.01397,-0.05839 z m -2.027266,0.03721 0.02377,0.0863 0.0641,0.216519 0.0021,0.0077 -1.30483,0.400493 -0.0057,-0.0155 -0.06817,-0.232556 -0.02532,-0.0956 z m 0.187582,0.626836 0.08578,0.267684 0.01605,0.04702 -1.291394,0.441317 -0.01916,-0.05838 -0.08991,-0.277503 z m 1.992127,0.0217 0.06459,0.310576 0.0057,0.03101 -1.339453,0.264066 -0.0041,-0.02533 -0.0646,-0.300757 z m -1.781287,0.605648 0.07442,0.210839 0.0372,0.101289 -1.277442,0.478523 -0.04083,-0.111103 -0.07854,-0.218592 z m 1.918229,0.07235 0.01967,0.101277 0.04495,0.240296 -1.342037,0.248047 -0.04496,-0.232543 -0.0176,-0.09559 z m -1.805574,0.339515 c 0.142732,0.04005 0.258548,0.155676 0.291972,0.311091 l 0.177766,-0.04857 c 0.370345,2.055237 0.598997,4.081083 0.655258,4.603854 l -2.8205,0.769978 c -0.220944,0.06033 -0.447649,-0.06896 -0.50798,-0.289905 l -0.07648,-0.281119 c 0.268602,-1.603511 0.513677,-3.201515 0.772567,-4.796618 l 0.150377,-0.03153 c 0.05901,0.161131 0.09612,0.255282 0.09612,0.255282 z m 1.932181,0.343648 0.05891,0.335897 -1.343587,0.236678 -0.06097,-0.335898 z m 0.115234,0.677996 0.02377,0.132808 0.03307,0.208773 -1.347721,0.217041 -0.03307,-0.205156 -0.0217,-0.127125 z m 0.111623,0.683679 0.05065,0.328144 3.7e-5,0.01342 -1.349271,0.19947 -0.0021,-0.0098 -0.04909,-0.324529 z m 0.09973,0.444934 0.426343,1.571994 c 0.04713,0.173771 -0.02323,0.350198 -0.162781,0.447001 -0.05705,-0.487544 -0.145565,-1.200203 -0.263551,-2.018998 z m 0.0016,0.23461 0.0099,0.06458 0.03927,0.276987 -1.351339,0.189652 -0.03928,-0.273368 -0.0078,-0.06045 z m 0.09612,0.679545 0.01911,0.142628 0.02584,0.203089 -1.353923,0.1757 -0.02532,-0.196888 -0.01757,-0.134877 z m 0.08992,0.68368 0.01344,0.09973 0.02945,0.243915 -1.355473,0.166397 -0.02946,-0.238743 -0.01188,-0.09561 z m 0.08372,0.687814 0.03927,0.339515 -1.35754,0.154512 -0.0372,-0.340032 z m -0.02739,0.426846 a 2.6352802,2.6352802 0 0 1 2.635498,2.634982 2.6352802,2.6352802 0 0 1 -2.635498,2.635498 2.6352802,2.6352802 0 0 1 -0.08992,-0.0021 l 0.189653,0.116271 -0.05426,0.0894 -0.05943,0.08733 -0.0052,0.0088 -0.49196,-0.350366 a 2.6352802,2.6352802 0 0 1 -0.879533,-0.346749 l -0.04341,0.163815 -0.06976,-0.0057 0.0217,-0.217556 A 2.6352802,2.6352802 0 0 1 26.76332,20.45678 2.6352802,2.6352802 0 0 1 29.398301,17.821799 Z m 0.0801,0.399976 c -0.549082,0 -0.996322,0.449308 -0.996322,0.998389 0,0.54908 0.44724,0.995805 0.996321,0.995805 0.549082,0 0.997873,-0.446724 0.997873,-0.995805 -1e-6,-0.549081 -0.44879,-0.998389 -0.997872,-0.998389 z m -1.695505,0.0083 c -0.74206,0.241114 -1.18914,1.555332 -1.183906,1.946134 h -0.335897 l -0.523999,-1.386479 z m 1.695504,0.257348 c 0.405866,0 0.732256,0.326905 0.732256,0.732772 -10e-7,0.405866 -0.32639,0.732255 -0.732256,0.732255 -0.405866,0 -0.732772,-0.326389 -0.732772,-0.732255 0,-0.405867 0.326907,-0.732772 0.732772,-0.732772 z m 1.452631,1.254186 c -0.0071,-1.44e-4 -0.01407,5e-6 -0.02119,-1.9e-5 -0.455661,0 -0.826306,0.370128 -0.826306,0.82579 0,0.45566 0.370645,0.828372 0.826306,0.828373 0.455661,0 0.828373,-0.372714 0.828373,-0.828373 0,-0.448542 -0.361274,-0.81446 -0.807186,-0.82579 z m -2.729549,0.0057 c -0.0042,-1.04e-4 -0.0082,-4.1e-5 -0.01241,-3.3e-5 h -0.626888 c -0.267203,6e-6 -0.486276,0.219069 -0.486276,0.486275 V 20.9033 c -4e-6,0.267205 0.219075,0.486791 0.486275,0.486791 l 0.626835,10e-7 c 0.267204,5e-6 0.486276,-0.219587 0.486275,-0.486792 v -0.669727 c 5e-6,-0.26303 -0.212367,-0.479575 -0.473872,-0.486275 z m 2.724381,0.212907 c 0.329464,0.0083 0.591695,0.275649 0.591695,0.607198 1e-6,0.33681 -0.270903,0.607715 -0.607714,0.607715 -0.336812,1e-6 -0.607199,-0.270906 -0.607198,-0.607715 -1e-6,-0.336811 0.270386,-0.607198 0.607197,-0.607198 0.0053,1.2e-5 0.01078,-1.46e-4 0.01601,-1.9e-5 z m -2.736784,0.02326 c 0.140506,-2e-6 0.250115,0.109607 0.250114,0.250113 l 10e-7,0.669727 c 1e-6,0.140506 -0.109609,0.250114 -0.250115,0.250114 h -0.626835 c -0.140505,10e-7 -0.250113,-0.109607 -0.250114,-0.250114 v -0.669727 c 0,-0.140505 0.109609,-0.250114 0.250114,-0.250114 z m 1.289327,1.119311 c -0.45566,0 -0.826305,0.370644 -0.826306,0.826306 0,0.45566 0.370646,0.827856 0.826307,0.827857 0.45566,-1e-6 0.827856,-0.372198 0.827856,-0.827857 0,-0.455662 -0.372196,-0.826306 -0.827857,-0.826306 z m 0,0.218591 c 0.336811,-1e-6 0.607199,0.270903 0.607199,0.607715 1e-6,0.33681 -0.270387,0.607198 -0.607199,0.607198 -0.336811,1e-6 -0.607715,-0.270387 -0.607715,-0.607198 0,-0.336811 0.270904,-0.607715 0.607715,-0.607715 z m -1.968871,1.033529 0.353467,0.49661 -0.599964,-0.03307 0.0021,-0.02274 0.0124,-0.06666 0.0155,-0.06098 0.02119,-0.06305 0.03101,-0.06304 0.03876,-0.06149 0.04702,-0.05736 0.05788,-0.05374 z m 0.381371,0.536917 0.04703,0.06615 -0.0088,0.02636 0.02479,-0.0037 0.0036,0.0056 0.01032,-0.0068 0.07494,-0.01393 -4.6e-5,-0.0078 0.01085,0.04031 0.01552,0.04392 0.0036,0.0088 -0.701249,0.328663 -0.01759,-0.03824 -0.03822,-0.105425 -0.02945,-0.105937 -0.0057,-0.02997 0.599964,-0.106967 z m 0.759127,0.179835 0.592729,0.500228 -0.03721,0.04238 -0.06098,0.06615 -0.06305,0.06252 -0.0119,0.0087 -0.51263,-0.578776 0.03153,-0.03101 0.03669,-0.04031 z m -0.512631,0.09095 0.0057,0.0073 0.03152,0.03669 0.02222,0.02428 -0.498161,0.59273 -0.01236,-0.01035 -0.08372,-0.08216 -0.077,-0.09095 -0.0248,-0.03669 z m 0.323494,0.08733 0.400493,0.66301 -0.04703,0.0279 -0.07183,0.03669 -0.07183,0.02998 -0.07338,0.02636 -0.01601,0.0031 -0.192234,-0.749826 0.0036,-0.002 0.02067,-0.0088 0.02326,-0.01185 z m -0.183451,0.03721 0.0083,0.0016 0.01082,0.0036 0.01082,0.0036 0.0099,0.0016 0.0078,-4.6e-5 -0.05994,0.771012 -0.03824,-0.0016 -0.06976,-0.0124 -0.07028,-0.01602 -0.0646,-0.02067 -0.06305,-0.02635 -0.02118,-0.0088 z" /><path
       id="path1875"
       style="fill:#000000;stroke:none;stroke-width:0.264583px;stroke-linecap:butt;stroke-linejoin:miter;stroke-opacity:1"
       d="M 11.027751 13.019877 C 10.848071 13.022577 10.665175 13.062407 10.583333 13.196094 C 10.583333 13.196094 11.322322 18.711337 11.469584 18.902205 C 11.469584 18.902205 12.78647 19.313253 13.724744 19.287195 C 13.967457 19.087993 13.977551 17.85376 13.716992 17.753955 L 12.77028 17.644918 C 12.532342 17.645069 11.48457 13.074654 11.48457 13.074654 C 11.48457 13.074654 11.258761 13.016367 11.027751 13.019877 z M 24.621236 13.019877 C 24.406078 13.023396 24.207825 13.074654 24.207825 13.074654 C 24.207825 13.074654 23.160053 17.645069 22.922115 17.644918 L 21.975403 17.753955 C 21.714892 17.853755 21.724986 19.087993 21.967651 19.287195 C 22.905925 19.313255 24.222811 18.902205 24.222811 18.902205 C 24.370073 18.711337 25.109062 13.196094 25.109062 13.196094 C 25.027222 13.062407 24.844324 13.022577 24.664644 13.019877 C 24.650206 13.019658 24.63558 13.019643 24.621236 13.019877 z M 14.0255 16.52819 L 14.223938 18.103288 L 15.089001 18.103288 L 14.823385 16.52819 L 14.0255 16.52819 z M 15.092619 16.52819 L 15.358752 18.103288 L 16.934367 18.103288 C 16.954254 18.092303 16.974484 18.081994 16.994828 18.071765 L 16.814478 16.52819 L 15.092619 16.52819 z M 18.827791 16.52819 L 18.641756 18.103288 L 20.207552 18.103288 L 20.473686 16.52819 L 18.827791 16.52819 z M 20.740853 16.52819 L 20.475236 18.103288 L 21.482926 18.103288 L 21.681364 16.52819 L 20.740853 16.52819 z M 17.089913 16.615523 L 17.249593 17.967896 C 17.418031 17.914219 17.597428 17.884696 17.783411 17.884696 C 17.973598 17.884696 18.156342 17.915483 18.32808 17.971513 L 18.406628 17.971513 L 18.568376 16.615523 L 17.089913 16.615523 z M 13.889075 16.703373 C 13.719202 16.911077 13.606851 17.225464 13.538192 17.595308 L 13.821379 17.633549 C 14.081835 17.751477 14.071752 19.210474 13.82913 19.445841 C 13.716703 19.449541 13.599139 19.445403 13.478764 19.436023 C 13.552064 20.404359 13.751769 21.270342 13.918014 21.424015 L 14.098881 18.164266 L 13.889075 16.703373 z M 21.80332 16.703373 L 21.593514 18.164266 L 21.774382 21.424015 C 21.940621 21.270342 22.140331 20.404359 22.213631 19.436023 C 22.093256 19.445423 21.975692 19.449561 21.863265 19.445841 C 21.620594 19.210474 21.610511 17.751477 21.871016 17.633549 L 22.154203 17.595308 C 22.085543 17.225464 21.973193 16.911077 21.80332 16.703373 z M 11.138855 18.072282 L 8.4992228 27.73009 C 8.5223478 27.988077 9.4645056 28.111775 9.5492879 27.909924 L 10.300663 25.39845 C 10.215813 24.00598 10.236488 21.878088 11.113017 21.540804 C 11.207187 21.504564 11.322955 21.473356 11.456148 21.446236 L 11.454081 21.446236 L 11.468034 21.443652 C 11.469834 21.443332 11.471401 21.442905 11.473201 21.442619 C 11.477001 21.441866 11.481297 21.441352 11.485087 21.440552 L 12.137244 19.260323 C 11.680586 19.159481 11.34091 19.053617 11.34091 19.053617 C 11.3039 19.005647 11.229508 18.620818 11.138855 18.072282 z M 24.55354 18.072282 C 24.46289 18.620818 24.388495 19.005647 24.351485 19.053617 C 24.351485 19.053617 24.011808 19.159463 23.555151 19.260323 L 24.207308 21.440552 C 24.211108 21.441352 24.215404 21.441819 24.219194 21.442619 C 24.220994 21.442938 24.222561 21.443365 24.224361 21.443652 L 24.238314 21.446236 L 24.236247 21.446236 C 24.36944 21.473356 24.485208 21.504564 24.579378 21.540804 C 25.455906 21.878088 25.476582 24.00598 25.391732 25.39845 L 26.143107 27.909924 C 26.227887 28.111775 27.170042 27.988074 27.193172 27.73009 L 24.55354 18.072282 z M 14.223938 18.209224 L 14.0255 21.642607 L 14.801681 21.642607 L 15.098303 18.209224 L 14.223938 18.209224 z M 15.364954 18.209224 L 15.067814 21.642607 L 20.49694 21.642607 L 20.200834 18.209224 L 18.799886 18.209224 C 19.250098 18.528706 19.54506 19.053575 19.54506 19.646346 C 19.54506 20.617671 18.754736 21.407996 17.783411 21.407996 C 16.812086 21.407996 16.021244 20.617671 16.021244 19.646346 C 16.021244 19.053575 16.316206 18.528706 16.766418 18.209224 L 15.364954 18.209224 z M 17.782377 18.209224 L 17.319356 18.222144 C 16.718779 18.417227 16.285311 18.980237 16.285311 19.646346 C 16.285311 20.474455 16.955302 21.142379 17.783411 21.142379 C 18.611519 21.142379 19.279443 20.474455 19.279443 19.646346 C 19.279443 18.977734 18.84383 18.412592 18.24023 18.21956 L 17.857825 18.209224 L 17.782377 18.209224 z M 20.465934 18.209224 L 20.762557 21.642607 L 21.681364 21.642607 L 21.482926 18.209224 L 20.465934 18.209224 z M 13.871505 21.434867 L 11.823568 21.802804 C 11.780268 21.810004 11.737748 21.817541 11.697477 21.825541 C 11.695677 21.825893 11.69411 21.826289 11.69231 21.826575 L 11.678357 21.829159 L 11.680424 21.829159 C 11.547231 21.856279 11.431467 21.887486 11.337292 21.923726 C 10.017223 22.431684 10.637594 27.003003 10.637594 27.003003 C 10.741451 27.585209 11.413257 27.061397 11.413257 27.061397 C 11.413257 27.061397 11.201348 23.361108 12.423014 22.971724 L 13.845667 22.595003 C 13.845667 22.595003 14.063494 22.906991 14.220321 22.80481 C 14.490526 22.805591 14.760549 22.806367 15.030607 22.806877 C 14.975789 22.735672 14.942757 22.646673 14.942757 22.550562 L 14.942757 22.113379 C 14.942757 22.07029 14.949669 22.028584 14.961877 21.989355 L 14.773258 21.972819 L 14.788761 21.791435 C 14.504495 21.790688 14.221347 21.790438 13.941268 21.790918 L 13.871505 21.434867 z M 21.82089 21.434867 L 21.797119 21.740792 C 21.452354 21.752953 21.111839 21.762347 20.773409 21.770247 L 20.790979 21.972819 L 20.7269 21.978503 C 20.741515 22.020974 20.749638 22.066135 20.749638 22.113379 L 20.749638 22.550562 C 20.749638 22.64608 20.717109 22.734821 20.662821 22.805843 C 20.932549 22.805546 21.202196 22.805066 21.472074 22.80481 C 21.628901 22.906991 21.846729 22.595003 21.846729 22.595003 L 23.269381 22.971724 C 24.491047 23.361108 24.279138 27.061397 24.279138 27.061397 C 24.279138 27.061397 24.950944 27.585205 25.054801 27.003003 C 25.054801 27.003003 25.675172 22.431684 24.355103 21.923726 C 24.260933 21.887486 24.145164 21.856279 24.011971 21.829159 L 24.014038 21.829159 L 24.000085 21.826575 C 23.998285 21.826255 23.996718 21.825859 23.994918 21.825541 C 23.954648 21.817541 23.912128 21.810004 23.868827 21.802804 L 21.82089 21.434867 z M 15.054895 21.792468 L 15.051278 21.832259 C 15.063986 21.818142 15.077633 21.804788 15.092102 21.792468 C 15.079665 21.792426 15.067328 21.792509 15.054895 21.792468 z M 18.994189 21.797119 C 18.213803 21.802854 17.449547 21.801472 16.699239 21.798669 C 16.78619 21.876132 16.841349 21.988692 16.841349 22.113379 L 16.841349 22.550562 C 16.841349 22.647189 16.807817 22.736516 16.752466 22.80791 C 17.48127 22.808076 18.210073 22.808074 18.938896 22.807393 C 18.884206 22.736082 18.851046 22.646853 18.851046 22.550562 L 18.851046 22.113379 C 18.851046 21.987828 18.906597 21.874661 18.994189 21.797119 z M 15.364954 21.886519 C 15.238409 21.886519 15.138094 21.986834 15.138094 22.113379 L 15.138094 22.550562 C 15.138094 22.677103 15.238409 22.777421 15.364954 22.777421 L 16.41967 22.777421 C 16.54621 22.777421 16.646012 22.677103 16.646012 22.550562 L 16.646012 22.113379 C 16.646012 21.986834 16.54621 21.886519 16.41967 21.886519 L 15.364954 21.886519 z M 19.271175 21.886519 C 19.144625 21.886519 19.046383 21.986646 19.046383 22.113379 L 19.046383 22.550562 C 19.046383 22.67729 19.14463 22.777421 19.271175 22.777421 L 20.327441 22.777421 C 20.453991 22.777421 20.552234 22.677292 20.552234 22.550562 L 20.552234 22.113379 C 20.552234 21.986647 20.453988 21.886519 20.327441 21.886519 L 19.271175 21.886519 z " /><path
       id="path436"
       style="fill:#000000;stroke:none;stroke-width:0.269846px;stroke-linecap:butt;stroke-linejoin:miter;stroke-opacity:1"
       d="m 17.842839,11.967228 c -0.666437,0.0029 -1.329628,0.02982 -2.055172,0.07235 -0.246816,0.187191 -0.667143,1.295528 -0.667143,1.295528 -0.08447,0.390287 0.03527,1.393966 0.160714,1.54926 l 0.588594,-0.243913 0.64854,0.402043 0.171049,1.053682 c 0,0 0.724675,0.196605 1.151593,0.201063 0.414597,-0.0071 1.17643,-0.201063 1.17643,-0.201063 l 0.170532,-1.053682 0.648539,-0.402043 0.589112,0.243913 c 0.125437,-0.155294 0.245186,-1.158973 0.160713,-1.54926 0,0 -0.420843,-1.108337 -0.667659,-1.295528 -0.739613,-0.05395 -1.409407,-0.0752 -2.075842,-0.07235 z m -1.511019,0.384473 h 3.043225 c 0.113711,-1e-6 0.207222,0.09299 0.207222,0.206706 v 0.275435 c 0,0.113715 -0.09351,0.20929 -0.207222,0.20929 H 16.33182 c -0.113711,0 -0.206706,-0.09558 -0.206706,-0.20929 v -0.275435 c 0,-0.113711 0.09299,-0.206706 0.206706,-0.206706 z m -0.0047,0.163814 c -0.02268,0.002 -0.03824,0.0193 -0.03824,0.04289 v 0.275435 c 0,0.02516 0.01773,0.04289 0.04289,0.04289 h 3.043225 c 0.02516,0 0.04289,-0.01773 0.04289,-0.04289 v -0.275435 c 0,-0.02516 -0.01773,-0.04289 -0.04289,-0.04289 H 16.33182 c -0.0016,0 -0.0031,-1.36e-4 -0.0047,0 z m 0.420646,1.074353 h 2.211234 c 0.107716,0 0.197404,0.08762 0.197404,0.195337 v 0.277503 c 0,0.107722 -0.08968,0.195336 -0.197404,0.195336 h -2.211234 c -0.107716,0 -0.196887,-0.08762 -0.196887,-0.195336 v -0.277503 c 0,-0.107722 0.08917,-0.195337 0.196887,-0.195337 z m 0,0.142627 c -0.03115,0 -0.05426,0.02156 -0.05426,0.05271 v 0.277503 c 0,0.03115 0.02311,0.05271 0.05426,0.05271 h 2.211234 c 0.03115,0 0.05478,-0.02156 0.05478,-0.05271 v -0.277503 c 0,-0.03115 -0.02363,-0.05271 -0.05478,-0.05271 z"
       sodipodi:nodetypes="scccccccccccccsscsssssssssssssssssssssssssssssssssss" /><path
       id="path599"
       style="fill:#000000;stroke:none;stroke-width:0.264583px;stroke-linecap:butt;stroke-linejoin:miter;stroke-opacity:1"
       d="M 17.003097 8.9999674 C 15.514105 9.4531351 15.176851 10.645345 15.176851 10.645345 L 15.176851 11.498523 L 15.090035 13.365076 L 15.255916 13.372827 L 15.303975 12.316044 L 15.802653 12.202873 L 15.765446 12.043193 L 15.312244 12.144478 L 15.340149 11.529529 C 15.688715 11.380656 16.607518 11.062542 17.890898 11.047388 C 19.174276 11.062542 20.093082 11.380656 20.441646 11.529529 L 20.469552 12.144478 L 19.920748 12.046293 L 19.883541 12.205973 L 20.47782 12.316044 L 20.525879 13.372827 L 20.69176 13.365076 L 20.604944 11.498523 L 20.604944 10.645345 C 20.604944 10.645345 20.270072 9.461953 18.794718 9.0051351 L 18.759578 9.3932251 L 17.03927 9.3932251 L 17.003097 8.9999674 z M 14.651819 10.715625 C 14.560799 10.720225 14.489038 10.794995 14.489038 10.887191 L 14.489038 13.234851 C 14.489038 13.330021 14.565438 13.406934 14.660604 13.406934 L 14.894698 13.406934 C 14.989868 13.406934 15.066781 13.330024 15.066781 13.234851 L 15.066781 10.887191 C 15.066781 10.792021 14.989871 10.715625 14.894698 10.715625 L 14.660604 10.715625 C 14.657604 10.715625 14.654819 10.715477 14.651819 10.715625 z M 20.878312 10.715625 C 20.787275 10.720196 20.715015 10.794995 20.715015 10.887191 L 20.715015 13.234851 C 20.715015 13.330024 20.791927 13.406934 20.887097 13.406934 L 21.121191 13.406934 C 21.216357 13.406934 21.292757 13.330021 21.292757 13.234851 L 21.292757 10.887191 C 21.292757 10.794995 21.220996 10.720225 21.129976 10.715625 C 21.126976 10.715477 21.124191 10.715625 21.121191 10.715625 L 20.887097 10.715625 C 20.884123 10.715625 20.881249 10.715478 20.878312 10.715625 z " /><rect
       style="fill:#000000;stroke:none;stroke-width:0.140161;stroke-linecap:round;stroke-dasharray:none;stop-color:#000000"
       id="rect1267"
       width="1.8852893"
       height="0.97288948"
       x="16.998632"
       y="7.5028539"
       ry="0.12533322" /><path
       style="fill:#000000;stroke:none;stroke-width:0.264583px;stroke-linecap:butt;stroke-linejoin:miter;stroke-opacity:1"
       d="m 17.051096,8.5528728 0.06624,0.7271118 h 1.547119 l 0.06624,-0.7271118 z"
       id="path1271"
       sodipodi:nodetypes="ccccc" /><path
       style="fill:#000000;stroke:none;stroke-width:0.264583px;stroke-linecap:butt;stroke-linejoin:miter;stroke-opacity:1"
       d="m 15.869496,14.770377 0.557621,0.384153 0.143021,0.81955 c 0,0 -1.046528,-0.731954 -1.138269,-1.036957 z"
       id="path1495"
       sodipodi:nodetypes="ccccc" /><path
       style="fill:#000000;stroke:none;stroke-width:0.264583px;stroke-linecap:butt;stroke-linejoin:miter;stroke-opacity:1"
       d="m 19.82483,14.770377 -0.557621,0.384153 -0.143021,0.81955 c 0,0 1.046528,-0.731954 1.138269,-1.036957 z"
       id="path1495-6"
       sodipodi:nodetypes="ccccc" /><path
       id="path2419"
       style="fill:#000000;stroke:none;stroke-width:0.264583px;stroke-linecap:butt;stroke-linejoin:miter;stroke-opacity:1"
       d="M 12.290723 14.374316 C 12.270433 14.373973 12.251737 14.374718 12.235429 14.376383 L 12.041642 15.014587 L 12.805937 17.517794 L 13.064836 17.565336 L 13.313399 16.511137 L 13.441557 14.786178 C 13.31364 14.601974 12.59507 14.379465 12.290723 14.374316 z M 14.504541 14.408423 L 14.213086 14.757239 L 14.985132 14.760856 C 14.985132 14.760856 14.989899 14.571949 14.987199 14.413074 C 14.962849 14.417374 14.504541 14.408423 14.504541 14.408423 z M 13.571781 14.824418 L 13.469979 16.436206 L 13.466878 16.436723 L 13.201778 17.561719 L 13.422437 17.580839 C 13.422437 17.580839 13.675165 16.66861 13.992944 16.342155 L 16.682186 16.36851 C 16.230967 16.147827 15.145006 15.317339 15.016654 14.859558 L 13.571781 14.824418 z " /><path
       id="path2419-6"
       style="fill:#000000;stroke:none;stroke-width:0.264583px;stroke-linecap:butt;stroke-linejoin:miter;stroke-opacity:1"
       d="m 23.382296,14.374314 c 0.02029,-3.43e-4 0.03899,4.02e-4 0.05529,0.0021 l 0.193787,0.638204 -0.764295,2.503207 -0.258899,0.04754 -0.248563,-1.054199 -0.128158,-1.724959 c 0.127921,-0.184235 0.846491,-0.406744 1.150838,-0.411893 z m -2.213818,0.03411 0.291455,0.348816 -0.772046,0.0036 c 0,0 -0.0048,-0.188907 -0.0021,-0.347782 0.02435,0.0043 0.482658,-0.0047 0.482658,-0.0047 z m 0.93276,0.415995 0.101802,1.611788 0.0031,5.17e-4 0.2651,1.124996 -0.220659,0.01912 c 0,0 -0.252728,-0.912229 -0.570507,-1.238684 l -2.689243,0.02635 c 0.45122,-0.220683 1.537181,-1.051171 1.665533,-1.508952 z" /><path
       id="path2499"
       style="fill:#000000;stroke:none;stroke-width:0.264583px;stroke-linecap:butt;stroke-linejoin:miter;stroke-opacity:1"
       d="M 15.30966 23.033736 C 15.177835 23.75864 15.800069 27.944031 15.800069 27.944031 C 15.876126 28.007691 16.257305 28.049199 16.761768 28.069604 L 16.761768 23.033736 L 15.30966 23.033736 z M 17.025317 23.033736 L 17.025317 28.077873 C 17.539396 28.09073 18.13774 28.085413 18.666044 28.063403 L 18.666044 23.033736 L 17.025317 23.033736 z M 18.931661 23.033736 L 18.931661 28.049967 C 19.361657 28.026154 19.72078 27.990734 19.908346 27.944031 C 19.908346 27.944031 20.440891 23.616049 20.398755 23.033736 L 18.931661 23.033736 z " /><path
       id="path2605"
       style="fill:#000000;stroke:none;stroke-width:0.264583px;stroke-linecap:butt;stroke-linejoin:miter;stroke-opacity:1"
       d="M 12.277804 23.104533 C 12.133605 23.105247 12.003485 23.202869 11.966711 23.349479 L 11.480436 25.287345 C 11.436853 25.461105 11.541804 25.636503 11.715564 25.680086 L 12.012703 25.7545 C 12.186463 25.798084 12.361344 25.693133 12.404928 25.519373 L 12.891203 23.581506 C 12.934786 23.407746 12.829835 23.232866 12.656075 23.189282 L 12.358936 23.114351 C 12.331786 23.107541 12.304507 23.104401 12.277804 23.104533 z M 15.057479 23.599593 L 14.423409 23.705013 L 14.315405 26.487789 C 14.315405 26.487789 15.109093 26.478466 15.310177 26.365833 C 15.310177 26.365833 15.119059 24.928471 15.057479 23.599593 z M 14.304553 23.70553 C 13.748286 23.712687 13.263434 23.878376 12.9651 24.009904 L 12.536702 25.718327 C 12.514809 25.805612 12.459785 25.875383 12.388391 25.917798 C 12.381772 26.25764 12.390505 26.514523 12.396659 26.541532 C 12.413409 26.615042 11.610144 26.640751 11.610144 26.640751 C 11.51226 27.071706 11.407993 28.348572 11.316622 29.754773 C 11.380781 29.634017 11.452655 29.522231 11.532629 29.421977 C 11.817064 29.06541 12.203297 28.845427 12.617318 28.878857 C 13.031337 28.912287 13.376663 29.191309 13.600203 29.588892 C 13.699713 29.765874 13.776875 29.967667 13.828097 30.186271 L 14.304553 23.70553 z M 10.870654 28.110946 C 10.706399 28.11372 10.568401 28.239692 10.554395 28.407052 L 10.4929 29.139307 C 10.48657 29.138107 10.480796 29.137278 10.474296 29.136723 C 10.346835 29.12577 10.235102 29.220098 10.224182 29.347563 L 10.177157 29.891715 C 10.166205 30.019179 10.260014 30.130383 10.38748 30.141313 C 10.39471 30.141939 10.402084 30.142391 10.409184 30.142346 L 10.343555 30.925761 C 10.328622 31.104279 10.460156 31.260194 10.638627 31.275094 L 10.72441 31.282328 C 10.87152 31.294634 11.003449 31.207152 11.053589 31.076139 C 11.054789 31.034322 11.056373 30.992349 11.059273 30.950049 C 11.067963 30.825382 11.084006 30.703994 11.106816 30.586247 L 11.284066 28.46803 C 11.298081 28.300495 11.183309 28.152691 11.021549 28.122831 C 11.016339 28.121931 11.01083 28.121486 11.00553 28.120764 C 11.00006 28.120004 10.994593 28.119682 10.988993 28.119214 L 10.903727 28.111979 C 10.89257 28.111046 10.881605 28.110761 10.870654 28.110946 z M 14.348995 28.278377 C 14.184592 28.283798 14.049027 28.412934 14.037903 28.580684 L 13.897343 30.701485 C 13.90232 30.821316 13.900166 30.943818 13.890108 31.068388 C 13.886696 31.110648 13.882271 31.152452 13.877189 31.193962 C 13.907226 31.330985 14.024445 31.436892 14.171745 31.446659 L 14.257528 31.452344 C 14.436275 31.464197 14.58984 31.329819 14.601693 31.15107 L 14.653369 30.366622 C 14.660399 30.367722 14.667828 30.368225 14.675073 30.368689 C 14.802743 30.376864 14.911843 30.280867 14.92002 30.153198 L 14.95516 29.608012 C 14.963334 29.480343 14.866821 29.370725 14.739152 29.362549 C 14.732623 29.362131 14.726454 29.361914 14.720032 29.362032 L 14.768608 28.628743 C 14.780461 28.449996 14.646084 28.296948 14.467334 28.285095 L 14.382068 28.279411 C 14.376482 28.27904 14.370547 28.278466 14.365015 28.278377 C 14.359655 28.278292 14.354298 28.278202 14.348995 28.278377 z M 12.538253 29.140857 C 12.250412 29.139229 11.97103 29.299349 11.740885 29.587858 C 11.4954 29.895601 11.317136 30.345069 11.275798 30.857031 C 11.23446 31.368996 11.338148 31.841456 11.531079 32.184599 C 11.724012 32.52774 11.995587 32.735921 12.303642 32.760791 C 12.611695 32.785665 12.91495 32.624115 13.160437 32.316374 C 13.405925 32.008631 13.584185 31.559164 13.625525 31.047201 C 13.666863 30.535237 13.563174 30.062259 13.370243 29.719116 C 13.177313 29.375976 12.903667 29.168311 12.595614 29.143441 C 12.57636 29.141886 12.557442 29.140965 12.538253 29.140857 z M 13.702523 31.889526 C 13.61463 32.112763 13.50113 32.313125 13.366626 32.481738 C 13.082191 32.838306 12.696475 33.058804 12.282454 33.025374 C 11.868435 32.991945 11.522593 32.712407 11.299052 32.314823 C 11.255153 32.236746 11.216044 32.153766 11.18123 32.066777 C 11.106913 33.459285 11.05824 34.568949 11.05824 34.568949 L 13.494784 34.718294 L 13.702523 31.889526 z M 11.055139 31.91123 C 10.818975 31.925537 10.508403 32.273999 10.508403 32.273999 L 10.411768 32.75304 L 9.3239787 34.475932 C 9.0473784 34.747752 8.9813639 36.153866 8.9813639 36.153866 C 8.9813639 36.153866 8.8997907 38.277706 9.3312134 39.129395 C 9.3312134 39.129395 9.878311 36.884982 10.121346 36.7776 L 10.795207 34.67902 L 11.077877 31.91123 C 11.070427 31.910974 11.062757 31.910769 11.055139 31.91123 z M 13.817244 32.091581 L 13.63276 34.796842 L 13.868921 37.091793 C 14.085631 37.245528 14.174329 39.553658 14.174329 39.553658 C 14.767076 38.805228 15.110706 36.708354 15.110706 36.708354 C 15.110706 36.708354 15.326964 35.316844 15.110189 34.99528 L 14.301453 33.049662 L 14.302486 32.560803 C 14.302486 32.560803 14.052492 32.131136 13.817244 32.091581 z M 10.993644 34.80201 L 10.343038 36.791036 L 13.608988 37.116597 L 13.471012 34.964274 L 10.993644 34.80201 z M 10.194727 36.996191 C 9.6275477 37.770412 9.4309489 40.263175 9.4309489 40.263175 L 13.895276 40.375313 C 13.895276 40.375313 13.985573 37.928516 13.720093 37.378597 L 10.194727 36.996191 z M 9.8526286 40.437325 C 9.1559008 40.455274 9.1131388 40.957707 9.1131388 40.957707 L 9.6474731 42.532288 L 10.487215 42.548824 L 9.8526286 40.437325 z M 13.217798 40.437325 L 12.583211 42.548824 L 13.422953 42.532288 L 13.957288 40.957707 C 13.957288 40.957707 13.91452 40.455274 13.217798 40.437325 z M 10.231417 40.44766 L 10.72286 42.603601 L 12.352734 42.603601 L 12.974919 40.521041 L 10.231417 40.44766 z M 8.9880819 41.012484 L 8.5726034 43.918766 L 8.8511393 45.523836 L 9.4784912 42.647009 C 9.4344114 42.582019 8.9880819 41.012484 8.9880819 41.012484 z M 14.109733 41.012484 C 14.109733 41.012484 13.663404 42.582019 13.619324 42.647009 L 14.246159 45.523836 L 14.524695 43.918766 L 14.109733 41.012484 z M 9.5849447 42.758114 L 8.9885986 45.850431 L 10.250537 45.850431 L 10.481014 42.758114 L 9.5849447 42.758114 z M 10.725444 42.758114 L 10.494967 45.850431 L 12.545487 45.850431 L 12.346016 42.758114 L 10.725444 42.758114 z M 12.590446 42.758114 L 12.7894 45.850431 L 14.109216 45.850431 L 13.51287 42.758114 L 12.590446 42.758114 z " /><path
       id="path2605-7"
       style="fill:#000000;stroke:none;stroke-width:0.264583px;stroke-linecap:butt;stroke-linejoin:miter;stroke-opacity:1"
       d="m 23.347083,23.206718 c 0.144199,7.14e-4 0.274319,0.09834 0.311093,0.244946 l 0.486275,1.937866 c 0.04358,0.17376 -0.06137,0.349158 -0.235128,0.392741 l -0.297139,0.07441 c -0.17376,0.04358 -0.348641,-0.06137 -0.392225,-0.235127 l -0.486275,-1.937867 c -0.04358,-0.17376 0.06137,-0.34864 0.235128,-0.392224 l 0.297139,-0.07493 c 0.02715,-0.0068 0.05443,-0.0099 0.08113,-0.0098 z m -2.779674,0.49506 0.63407,0.10542 0.108003,2.782776 c 0,0 -0.793687,-0.0093 -0.994771,-0.121956 0,0 0.191118,-1.437362 0.252698,-2.76624 z m 0.752925,0.105937 c 0.556267,0.0072 1.041119,0.172846 1.339453,0.304374 l 0.428398,1.708423 c 0.02189,0.08729 0.07692,0.157056 0.148311,0.199471 0.0066,0.339842 -0.0021,0.596725 -0.0083,0.623734 -0.01675,0.07351 0.786515,0.09922 0.786515,0.09922 0.09788,0.430955 0.202151,1.707821 0.293522,3.114022 -0.06416,-0.120756 -0.136033,-0.232542 -0.216007,-0.332796 -0.284435,-0.356567 -0.670668,-0.57655 -1.084689,-0.54312 -0.414019,0.03343 -0.759345,0.312452 -0.982885,0.710035 -0.09951,0.176982 -0.176672,0.378775 -0.227894,0.597379 z m 3.433899,4.405416 c 0.164255,0.0028 0.302253,0.128746 0.316259,0.296106 l 0.06149,0.732255 c 0.0063,-0.0012 0.0121,-0.002 0.0186,-0.0026 0.127461,-0.01095 0.239194,0.08338 0.250114,0.21084 l 0.04703,0.544152 c 0.01095,0.127464 -0.08286,0.238668 -0.210323,0.249598 -0.0072,6.26e-4 -0.0146,0.0011 -0.0217,0.001 l 0.06563,0.783415 c 0.01493,0.178518 -0.116601,0.334433 -0.295072,0.349333 l -0.08578,0.0072 c -0.14711,0.01231 -0.279039,-0.07518 -0.329179,-0.206189 -0.0012,-0.04182 -0.0028,-0.08379 -0.0057,-0.12609 -0.0087,-0.124667 -0.02473,-0.246055 -0.04754,-0.363802 l -0.17725,-2.118217 c -0.01402,-0.167535 0.100757,-0.315339 0.262517,-0.345199 0.0052,-9e-4 0.01072,-0.0013 0.01602,-0.0021 0.0055,-7.6e-4 0.01094,-0.0011 0.01654,-0.0016 l 0.08527,-0.0072 c 0.01116,-9.33e-4 0.02212,-0.0012 0.03307,-0.001 z m -3.478341,0.167431 c 0.164403,0.0054 0.299968,0.134557 0.311092,0.302307 l 0.14056,2.120801 c -0.005,0.119831 -0.0028,0.242333 0.0072,0.366903 0.0034,0.04226 0.0078,0.08406 0.01292,0.125574 -0.03004,0.137023 -0.147256,0.24293 -0.294556,0.252697 l -0.08578,0.0057 c -0.178746,0.01185 -0.332311,-0.122525 -0.344164,-0.301274 l -0.05168,-0.784448 c -0.007,0.0011 -0.01446,0.0016 -0.0217,0.0021 -0.12767,0.0082 -0.23677,-0.08782 -0.244947,-0.215491 l -0.03514,-0.545186 c -0.0082,-0.127669 0.08834,-0.237287 0.216008,-0.245463 0.0065,-4.18e-4 0.0127,-6.35e-4 0.01912,-5.17e-4 l -0.04858,-0.733289 c -0.01185,-0.178747 0.122524,-0.331795 0.301274,-0.343648 l 0.08527,-0.0057 c 0.0056,-3.71e-4 0.01152,-9.45e-4 0.01705,-10e-4 0.0054,-8.5e-5 0.01072,-1.75e-4 0.01602,0 z m 1.810742,0.86248 c 0.287841,-0.0016 0.567223,0.158492 0.797368,0.447001 0.245485,0.307743 0.423749,0.757211 0.465087,1.269173 0.04134,0.511965 -0.06235,0.984425 -0.255281,1.327568 -0.192933,0.343141 -0.464508,0.551322 -0.772563,0.576192 -0.308053,0.02487 -0.611308,-0.136676 -0.856795,-0.444417 -0.245488,-0.307743 -0.423748,-0.75721 -0.465088,-1.269173 -0.04134,-0.511964 0.06235,-0.984942 0.255282,-1.328085 0.19293,-0.34314 0.466576,-0.550805 0.774629,-0.575675 0.01925,-0.0016 0.03817,-0.0025 0.05736,-0.0026 z m -1.16427,2.748669 c 0.08789,0.223237 0.201393,0.423599 0.335897,0.592212 0.284435,0.356568 0.670151,0.577066 1.084172,0.543636 0.414019,-0.03343 0.759861,-0.312967 0.983402,-0.710551 0.0439,-0.07808 0.08301,-0.161057 0.117822,-0.248046 0.07432,1.392508 0.12299,2.502172 0.12299,2.502172 l -2.436544,0.149345 z m 2.647384,0.0217 c 0.236164,0.01431 0.546736,0.362769 0.546736,0.362769 l 0.09663,0.479041 1.08779,1.722892 c 0.2766,0.27182 0.342615,1.677934 0.342615,1.677934 0,0 0.08157,2.12384 -0.34985,2.975529 0,0 -0.547098,-2.244413 -0.790133,-2.351795 l -0.673861,-2.09858 -0.28267,-2.76779 c 0.0075,-2.56e-4 0.01512,-4.61e-4 0.02274,0 z m -2.762105,0.180351 0.184484,2.705261 -0.236161,2.294951 c -0.21671,0.153735 -0.305408,2.461865 -0.305408,2.461865 -0.592746,-0.74843 -0.936376,-2.845304 -0.936376,-2.845304 0,0 -0.216258,-1.39151 5.17e-4,-1.713074 l 0.808735,-1.945618 -10e-4,-0.488859 c 0,0 0.249994,-0.429667 0.485242,-0.469222 z m 2.8236,2.710429 0.650606,1.989026 -3.26595,0.325561 0.137976,-2.152323 z m 0.798917,2.194181 c 0.56718,0.774221 0.763779,3.266984 0.763779,3.266984 l -4.464328,0.112138 c 0,0 -0.0903,-2.446797 0.175183,-2.996716 z m 0.342099,3.441134 c 0.696728,0.01795 0.73949,0.520382 0.73949,0.520382 l -0.534335,1.574581 -0.839742,0.01654 z m -3.36517,0 0.634587,2.111499 -0.839742,-0.01654 -0.534335,-1.574581 c 0,0 0.04277,-0.502433 0.73949,-0.520382 z m 2.986381,0.01033 -0.491443,2.155941 h -1.629874 l -0.622185,-2.08256 z m 1.243336,0.564824 0.415478,2.906282 -0.278536,1.60507 -0.627352,-2.876827 c 0.04408,-0.06499 0.49041,-1.634525 0.49041,-1.634525 z m -5.121652,0 c 0,0 0.446329,1.569535 0.490409,1.634525 l -0.626835,2.876827 -0.278535,-1.60507 z m 4.524789,1.74563 0.596346,3.092317 H 25.37435 L 25.143873,42.86029 Z m -1.1405,0 0.230477,3.092317 H 23.0794 l 0.199471,-3.092317 z m -1.865002,0 -0.198954,3.092317 h -1.319816 l 0.596346,-3.092308 z" /></g></svg>
