<?xml version="1.0" encoding="UTF-8" standalone="no"?>
<!-- Created with Inkscape (http://www.inkscape.org/) -->

<svg
   sodipodi:docname="ForestryMech Mod.svg"
   inkscape:version="1.2.2 (b0a8486541, 2022-12-01)"
   id="svg8"
   version="1.1"
   viewBox="0 0 34.98301 52.516205"
   height="52.516205mm"
   width="34.983009mm"
   xml:space="preserve"
   xmlns:inkscape="http://www.inkscape.org/namespaces/inkscape"
   xmlns:sodipodi="http://sodipodi.sourceforge.net/DTD/sodipodi-0.dtd"
   xmlns="http://www.w3.org/2000/svg"
   xmlns:svg="http://www.w3.org/2000/svg"
   xmlns:rdf="http://www.w3.org/1999/02/22-rdf-syntax-ns#"
   xmlns:cc="http://creativecommons.org/ns#"
   xmlns:dc="http://purl.org/dc/elements/1.1/"><defs
     id="defs2" /><sodipodi:namedview
     id="base"
     pagecolor="#ffffff"
     bordercolor="#666666"
     borderopacity="1.0"
     inkscape:pageopacity="0.0"
     inkscape:pageshadow="2"
     inkscape:zoom="2"
     inkscape:cx="-9.5"
     inkscape:cy="150.5"
     inkscape:document-units="mm"
     inkscape:current-layer="layer1"
     showgrid="false"
     inkscape:window-width="1854"
     inkscape:window-height="1011"
     inkscape:window-x="66"
     inkscape:window-y="1112"
     inkscape:window-maximized="1"
     inkscape:snap-global="false"
     fit-margin-top="0"
     fit-margin-left="0"
     fit-margin-right="0"
     fit-margin-bottom="0"
     showguides="false"
     inkscape:guide-bbox="true"
     inkscape:pagecheckerboard="0"
     inkscape:showpageshadow="2"
     inkscape:deskcolor="#d1d1d1" /><metadata
     id="metadata5"><rdf:RDF><cc:Work
         rdf:about=""><dc:format>image/svg+xml</dc:format><dc:type
           rdf:resource="http://purl.org/dc/dcmitype/StillImage" /></cc:Work></rdf:RDF></metadata><g
     inkscape:label="Capa 1"
     inkscape:groupmode="layer"
     id="layer1"
     transform="translate(-135.48963,-99.590537)"><rect
       style="opacity:1;vector-effect:none;fill:#1a1a1a;fill-opacity:1;stroke:none;stroke-width:0.1;stroke-linecap:butt;stroke-linejoin:miter;stroke-miterlimit:4;stroke-dasharray:none;stroke-dashoffset:0;stroke-opacity:1"
       id="rect860"
       width="7.0941477"
       height="0"
       x="148.86763"
       y="129.31949" /><g
       id="g3057"
       transform="matrix(0.95378819,0,0,0.95378819,12.857407,6.0995225)"><g
         id="g3019"><path
           id="rect4063"
           style="fill:#000000;stroke:none;stroke-width:0.089;stroke-linecap:round;stroke-dasharray:none;stop-color:#000000"
           d="m 145.94222,120.97993 c -0.16713,0.008 -0.2992,0.14593 -0.2992,0.31523 v 0.34468 h 0.0656 c 0.15126,0 0.2769,0.10534 0.308,0.24701 h 0.009 c 0.0311,-0.14168 0.1562,-0.24701 0.30747,-0.24701 h 0.42582 c 0.15128,0 0.2774,0.10533 0.3085,0.24701 h 0.009 c 0.0311,-0.14168 0.15672,-0.24701 0.30799,-0.24701 h 0.22479 v -0.34468 c 0,-0.17476 -0.14047,-0.31523 -0.31522,-0.31523 h -1.33584 c -0.005,0 -0.0106,-2.7e-4 -0.016,0 z" /><path
           id="path3909"
           style="fill:#000000;stroke:none;stroke-width:0.089;stroke-linecap:round;stroke-dasharray:none;stop-color:#000000"
           d="m 146.03007,123.39218 c -0.0224,0.15247 -0.15323,0.26872 -0.31212,0.26872 h -0.26924 a 1.0996263,1.0996263 0 0 0 -0.14004,0.53589 1.0996263,1.0996263 0 0 0 0.14211,0.54002 l -0.3266,0.81545 c -0.065,0.16222 0.013,0.34532 0.17519,0.41031 l 0.8294,0.33228 c 0.16223,0.065 0.34481,-0.0135 0.4098,-0.1757 l 0.37982,-0.94826 a 1.0996263,1.0996263 0 0 0 0.58911,-0.9741 1.0996263,1.0996263 0 0 0 -0.14004,-0.53744 c -0.14677,-0.012 -0.26408,-0.12321 -0.28526,-0.26717 h -0.002 c -0.0224,0.15247 -0.15271,0.26872 -0.31161,0.26872 h -0.42581 c -0.15889,0 -0.2897,-0.11624 -0.31212,-0.26872 z" /><path
           id="path2869-8"
           style="fill:#000000;stroke:none;stroke-width:0.264583px;stroke-linecap:butt;stroke-linejoin:miter;stroke-opacity:1"
           d="m 149.45568,126.31581 c 0.0281,6.8e-4 0.0572,0.007 0.0858,0.0181 l 1.37563,0.55553 0.0961,1.06091 -1.74666,-0.70538 c -0.13069,-0.0528 -0.20348,-0.20355 -0.16278,-0.33848 l 0.12816,-0.42426 c 0.0306,-0.1012 0.11597,-0.1634 0.21187,-0.1664 0.004,-1.2e-4 0.008,-1e-4 0.0119,0 z m -0.26097,1.27796 c 0.0294,1.7e-4 0.0593,0.005 0.0889,0.0139 l 0.0227,0.007 c 0.15786,0.0499 0.24504,0.21724 0.19534,0.37517 l -0.2806,0.89194 c -0.0497,0.15794 -0.2168,0.24475 -0.37466,0.19482 l -0.0227,-0.007 c -0.15786,-0.0499 -0.24503,-0.21723 -0.19533,-0.37517 l 0.2806,-0.89142 c 0.0404,-0.12832 0.15831,-0.21003 0.28577,-0.20928 z m 0.5364,0.22272 c 0.30387,0.014 1.12025,0.37888 1.44022,0.66353 v 1.12809 c 0,0 -0.11298,1.16944 -0.17518,1.1529 -0.0622,-0.0165 -2.6572,-0.59686 -2.6572,-0.59686 0,0 0.13709,-0.727 0.26562,-0.83302 l 0.72812,-0.28784 c 0,0 0.23514,-1.07299 0.33279,-1.22215 0.0178,-0.004 0.0399,-0.006 0.0656,-0.005 z m -1.37046,2.56057 c 0.0169,-1.4e-4 0.0339,0.001 0.0512,0.005 l 2.57194,0.50126 c 0.13835,0.0269 0.22849,0.15982 0.20154,0.29817 l -0.0785,0.40205 c -0.0269,0.13835 -0.16034,0.22797 -0.29869,0.20102 l -0.65681,-0.12816 -0.32659,0.91571 c -0.0474,0.13273 -0.16034,0.22847 -0.29869,0.20153 l -0.47181,-0.092 c -0.13834,-0.0269 -0.20685,-0.15785 -0.20102,-0.29869 l 0.0403,-0.97152 -0.65681,-0.12764 c -0.13835,-0.0269 -0.22796,-0.15982 -0.20102,-0.29817 l 0.078,-0.40256 c 0.0235,-0.12106 0.12852,-0.20469 0.24701,-0.20567 z m -0.27853,0.94516 c 0,0 0.66278,0.16588 0.69608,0.16588 l -0.009,0.11989 c 0,0 -0.0162,0.93514 0.007,1.04128 -0.0728,-0.0127 -0.28997,-0.0105 -0.36587,0.0801 l -0.0274,0.11575 -0.49196,-0.0636 c -0.0624,-0.18433 0.19121,-1.45934 0.19121,-1.45934 z m 2.1239,0.4625 c 0,0 0.62654,0.14225 0.65164,0.14625 0.0322,0.25511 -0.3297,1.62729 -0.3297,1.62729 l -0.0977,-0.27182 -0.70073,-0.25735 c 0.19634,-0.1106 0.47646,-1.24437 0.47646,-1.24437 z m -1.43454,1.00356 c 0.32899,9.2e-4 0.85619,0.0973 0.83923,0.25425 l -0.13591,0.71778 c -0.1778,-0.11555 -0.38762,-0.18611 -0.59532,-0.2222 -0.003,0 -0.005,0.002 -0.008,0.002 -0.19307,-0.0328 -0.39223,-0.0405 -0.57671,-0.006 l 0.22531,-0.70021 c 0.0235,-0.0309 0.12189,-0.0453 0.25063,-0.045 z m -0.88263,0.0946 0.45527,0.0651 -0.20051,0.62373 c -0.103,0.0343 -0.19889,0.0842 -0.2837,0.15348 -0.0996,0.0811 -0.11546,0.22915 -0.0336,0.32815 0.0358,0.0433 0.0848,0.0707 0.13642,0.0806 l -0.30592,0.95188 v 0.0176 c 0,0 -0.007,0.21443 -0.0165,0.49713 -0.0206,0.004 -0.0414,0.009 -0.062,0.0155 -0.1223,0.0364 -0.19423,0.16647 -0.15813,0.28888 h 0.002 c 0.0285,0.0933 0.11114,0.15596 0.20309,0.16381 -5.6e-4,0.0178 -0.001,0.0343 -0.002,0.0522 -0.008,0.25767 -0.0156,0.5196 -0.0196,0.72244 -0.002,0.0871 -0.003,0.16082 -0.003,0.22221 -0.24085,-0.0477 -0.40492,-0.0907 -0.41393,-0.11111 0,0 -0.65232,-1.88499 -0.62373,-2.03398 0.0497,-0.29006 1.3255,-2.0376 1.3255,-2.0376 z m 1.84123,0.28939 0.58498,0.21187 c 0.17073,0.30923 0.49661,2.07946 0.49661,2.07946 -0.0718,0.39482 -1.12242,1.74976 -1.12242,1.74976 -0.0958,0.038 -0.26201,0.0514 -0.46405,0.0486 l -0.003,-0.91984 0.004,-0.0641 c 0,0 0.0266,0.0129 0.06,0.0362 0.0828,0.0606 0.18409,0.0864 0.26768,0.0191 0.0996,-0.0795 0.11567,-0.22623 0.0367,-0.32607 -0.065,-0.0823 -0.1325,-0.10586 -0.1912,-0.13126 -0.0377,-0.0164 -0.0784,-0.0314 -0.12144,-0.046 l 0.0145,-0.39687 0.19327,-1.01596 c 0.0706,0.0425 0.16179,0.0461 0.23771,0.002 0.1096,-0.064 0.14723,-0.20605 0.0842,-0.31626 -0.057,-0.0984 -0.12973,-0.18242 -0.21342,-0.25373 l 0.12816,-0.67335 h 0.008 z m -1.1498,0.43615 -5.2e-4,5.1e-4 c 0.0936,0.001 0.18902,0.0104 0.2837,0.0269 0.21122,0.0367 0.41863,0.10525 0.5886,0.22531 v 5.2e-4 c 0.10061,0.0544 0.22869,0.22196 0.26923,0.29197 0.0363,0.0636 0.0141,0.14232 -0.0491,0.17932 -0.1279,0.0547 -0.19584,-0.094 -0.27388,-0.1664 -0.13636,-0.1334 -0.352,-0.22884 -0.58136,-0.26872 -0.1465,-0.0256 -0.29248,-0.0247 -0.42013,-0.004 -0.0918,0.0146 -0.33247,0.10511 -0.40205,0.14056 l -10e-4,0.004 c -0.0334,-0.003 -0.0655,-0.0187 -0.0889,-0.047 -0.0473,-0.0572 -0.0399,-0.14079 0.0176,-0.18759 0.0538,-0.044 0.11383,-0.0797 0.17828,-0.108 l 0.002,-0.005 c 0.0887,-0.0214 0.34123,-0.0808 0.4377,-0.0822 0.0133,-1.9e-4 0.0264,-1.5e-4 0.0398,0 z m 0.0196,0.36896 c 0.0658,3.8e-4 0.13368,0.006 0.20103,0.0176 0.24371,0.0424 0.4675,0.16254 0.57309,0.29611 l -0.21394,1.1281 -0.0134,0.37103 c -0.15462,-0.0429 -0.33766,-0.0824 -0.52503,-0.11523 -0.18667,-0.0329 -0.37199,-0.0575 -0.54105,-0.0724 v -0.002 l -0.0429,-0.004 h -5.2e-4 c -0.0973,-0.007 -0.18313,-0.0125 -0.26458,-0.01 0.009,-0.27274 0.0165,-0.47801 0.0165,-0.47801 l 0.31936,-0.99322 c 0.0155,-0.008 0.0306,-0.0166 0.0444,-0.0279 0.0469,-0.0385 0.14305,-0.0771 0.25942,-0.0956 0.0582,-0.009 0.1218,-0.0148 0.18758,-0.0145 z m -0.74104,1.67019 c 0.0624,3.8e-4 0.12956,0.005 0.20464,0.0109 0.17163,0.0128 0.36922,0.0393 0.56379,0.0729 0.1946,0.0335 0.38426,0.0754 0.53899,0.11938 0.0774,0.0221 0.14574,0.0433 0.20515,0.0687 0.0594,0.0253 0.11025,0.0419 0.16692,0.11213 0.0606,0.0752 0.0479,0.18416 -0.0284,0.24392 -0.16339,0.071 -0.17194,0.003 -0.27906,-0.0377 -0.0374,-0.016 -0.0952,-0.0345 -0.16329,-0.0537 -0.1361,-0.0387 -0.31651,-0.0783 -0.50126,-0.11007 -0.18479,-0.0318 -0.3755,-0.0557 -0.53124,-0.0672 -0.15573,-0.0116 -0.29129,-0.002 -0.29817,0 -0.0939,0.0286 -0.19355,-0.0231 -0.22221,-0.11524 -0.0277,-0.092 0.0262,-0.18867 0.11989,-0.21601 0.0719,-0.0213 0.1441,-0.0284 0.22427,-0.0279 z m -1.40043,0.0956 0.0847,0.20825 c 0.22453,0.60041 0.5364,1.36013 0.5364,1.36013 0.008,0.0178 0.30872,0.067 0.54622,0.1111 -3.9e-4,0.078 3.7e-4,0.13503 0.003,0.14831 0.0385,0.18042 1.13953,0.30242 1.35289,0.13953 l 0.004,-0.10749 c 0.20985,0.002 0.51131,9.2e-4 0.59583,-0.0325 0,0 0.94074,-0.9837 1.28571,-1.53324 l 0.22893,1.01182 c 1.0964,1.98256 0.28474,5.56647 0.16639,6.15983 0,0 0.18845,0.83293 0.0972,0.96428 -2.20303,-3.02708 -4.9738,-3.07354 -6.79339,-1.45624 -0.21973,-1.5511 1.65428,-6.85775 1.89188,-6.97373 z m 1.43041,0.31367 c 0.0347,3.8e-4 0.0726,0.002 0.11162,0.005 0.15822,0.012 0.35412,0.0372 0.5426,0.0703 0.18866,0.033 0.37265,0.0754 0.51005,0.11524 0.0279,0.008 0.0524,0.0154 0.076,0.0227 l -0.0398,1.08417 c -0.21336,0.16289 -1.31441,0.0409 -1.35289,-0.13953 -0.0105,-0.0494 0.004,-0.62038 0.0207,-1.156 0.0114,-2.9e-4 0.0244,-8e-4 0.0382,-0.001 0.0272,-5e-4 0.0588,-8.9e-4 0.0935,-5.2e-4 z m -0.34262,1.75545 c -0.0911,0.0229 -0.18694,0.11409 -0.19844,0.21239 -0.0154,0.12729 0.0763,0.24307 0.20361,0.25787 0,0 0.37795,0.0418 0.77101,0.0858 0.19645,0.022 0.39847,0.0452 0.55707,0.0625 0.15843,0.0172 0.26158,0.0306 0.31058,0.0336 v -0.002 c 0.12803,0.009 0.2406,-0.0869 0.2496,-0.21497 0.008,-0.12711 -0.0895,-0.23905 -0.21653,-0.24805 0.002,0 -0.0395,-0.002 -0.092,-0.008 -0.0525,-0.006 -0.12222,-0.0122 -0.20102,-0.0212 -0.15742,-0.0172 -0.3585,-0.0405 -0.55501,-0.0625 -0.39275,-0.0439 -0.77101,-0.0858 -0.77101,-0.0858 l -0.0568,-0.009 z m 0.0326,0.10594 c 0.004,4e-5 0.009,5.3e-4 0.0134,0.001 v -5.1e-4 l 0.0568,0.008 v -0.002 c 0.0497,0.006 0.35079,0.0394 0.71468,0.0801 0.19624,0.022 0.39648,0.0453 0.55449,0.0625 0.0789,0.009 0.15039,0.0173 0.20309,0.0233 0.0526,0.006 0.0805,0.009 0.094,0.0103 0.0724,0.006 0.12799,0.0657 0.12299,0.1385 -0.005,0.0739 -0.0667,0.12799 -0.14056,0.12299 -0.043,-0.003 -0.14867,-0.0117 -0.30696,-0.0289 -0.15812,-0.0173 -0.3599,-0.0405 -0.55655,-0.0625 -0.39314,-0.044 -0.77153,-0.0863 -0.77153,-0.0863 -0.0735,-0.009 -0.12631,-0.0748 -0.11731,-0.14831 0.008,-0.0684 0.0661,-0.11891 0.13333,-0.11834 z m -0.25425,1.61179 c -0.11632,-0.004 -0.21882,0.0798 -0.23616,0.1974 -0.0185,0.12654 0.0688,0.24515 0.19534,0.26355 l 1.78697,0.25632 c 0.12737,0.0185 0.24635,-0.0719 0.26355,-0.19947 0.017,-0.12567 -0.0699,-0.24154 -0.19534,-0.25994 l -1.78904,-0.2558 h -0.002 c -0.008,-0.001 -0.016,-0.002 -0.0238,-0.002 z m -0.0165,0.0992 c 0.009,-6.6e-4 0.0174,-6.1e-4 0.0264,5.1e-4 h 0.002 l 1.78697,0.2558 c 0.0724,0.0106 0.12317,0.0779 0.11317,0.15038 -0.01,0.0737 -0.0769,0.12387 -0.15038,0.11317 l -1.78697,-0.2558 c -0.0731,-0.0106 -0.12387,-0.0774 -0.11317,-0.15038 0.009,-0.0628 0.0611,-0.10907 0.12195,-0.11368 z m 0.0506,2.4076 c 0.81278,0.0117 0.61486,0.45359 0.66972,0.48938 0.0627,0.0409 -1.76061,2.53903 -1.76061,2.56573 0,0.0267 -1.51826,-0.40721 -1.51826,-0.40721 l 2.19522,-2.62413 c 0.16105,-0.0183 0.29782,-0.0254 0.41393,-0.0238 z m -1.32085,0.108 c 0.24511,0.006 0.47482,0.0965 0.50178,0.10956 0.0345,0.0167 -1.49707,1.83658 -1.49707,1.83658 0,0 -0.67579,-0.0392 -0.67179,-0.22738 0,0 1.33201,-1.59967 1.46192,-1.70015 0.0669,-0.0152 0.13652,-0.0202 0.20516,-0.0186 z m 2.00349,0.55863 0.007,0.004 c 0,0 1.03795,0.0124 1.06505,0.0124 0.0271,0 0.49247,0.39585 0.49247,0.39585 l -0.95498,1.48621 c 0,0 -0.0179,0.37001 -0.0119,0.39481 0.006,0.0248 -1.70067,0.2806 -1.70067,0.2806 l -0.52762,-0.18603 c 0,0 1.59189,-2.24324 1.63039,-2.38797 z m 1.71411,0.57567 0.59635,0.43512 c 0,0 0.69798,0.69815 0.72398,0.69815 0.026,0 0.19121,0.72398 0.19121,0.72398 0.11229,0.10739 -0.0584,0.68575 -0.0584,0.68575 0,0 -1.89742,0.0132 -1.94872,0.006 -0.0513,-0.007 -0.37155,-1.13068 -0.37155,-1.13068 z m -5.48287,0.79375 c 0,0 0.42148,0.17919 0.7276,0.15141 l -0.55345,0.57878 c 0,0 -0.20845,-0.085 -0.27285,-0.0357 -0.26939,0.13344 -0.71148,0.62402 -0.84439,1.07436 l -0.4284,-0.0677 c 0,0 0.31392,-0.83815 0.62787,-1.03766 0,0 0.19327,-0.0394 0.26768,-0.0248 0,0 0.27014,-0.49021 0.47594,-0.63872 z m -0.0357,0.7953 2.65152,0.63252 1.58853,-0.21497 c 0.57553,-0.0331 0.51884,1.08159 0.51884,1.08159 0,0 -1.83993,0.24753 -1.96112,0.24753 -0.12119,0 -3.64009,-0.45786 -3.64009,-0.45786 0,0 0.28472,-1.0861 0.84232,-1.28881 z" /><path
           id="path2869-8-3"
           style="fill:#000000;stroke:none;stroke-width:0.264583px;stroke-linecap:butt;stroke-linejoin:miter;stroke-opacity:1"
           d="m 155.88318,126.31581 c -0.0281,6.8e-4 -0.0572,0.007 -0.0858,0.0181 l -1.37563,0.55553 -0.0961,1.06091 1.74666,-0.70538 c 0.13069,-0.0528 0.20348,-0.20355 0.16278,-0.33848 l -0.12816,-0.42426 c -0.0306,-0.1012 -0.11597,-0.1634 -0.21187,-0.1664 -0.004,-1.2e-4 -0.008,-1e-4 -0.0119,0 z m 0.26097,1.27796 c -0.0294,1.7e-4 -0.0593,0.005 -0.0889,0.0139 l -0.0227,0.007 c -0.15786,0.0499 -0.24504,0.21724 -0.19534,0.37517 l 0.2806,0.89194 c 0.0497,0.15794 0.2168,0.24475 0.37466,0.19482 l 0.0227,-0.007 c 0.15786,-0.0499 0.24503,-0.21723 0.19533,-0.37517 l -0.2806,-0.89142 c -0.0404,-0.12832 -0.15831,-0.21003 -0.28577,-0.20928 z m -0.5364,0.22272 c -0.30387,0.014 -1.12025,0.37888 -1.44022,0.66353 v 1.12809 c 0,0 0.11298,1.16944 0.17518,1.1529 0.0622,-0.0165 2.6572,-0.59686 2.6572,-0.59686 0,0 -0.13709,-0.727 -0.26562,-0.83302 l -0.72812,-0.28784 c 0,0 -0.23514,-1.07299 -0.33279,-1.22215 -0.0178,-0.004 -0.0399,-0.006 -0.0656,-0.005 z m 1.37046,2.56057 c -0.0169,-1.4e-4 -0.0339,0.001 -0.0512,0.005 l -2.57194,0.50126 c -0.13835,0.0269 -0.22849,0.15982 -0.20154,0.29817 l 0.0785,0.40205 c 0.0269,0.13835 0.16034,0.22797 0.29869,0.20102 l 0.65681,-0.12816 0.32659,0.91571 c 0.0474,0.13273 0.16034,0.22847 0.29869,0.20153 l 0.47181,-0.092 c 0.13834,-0.0269 0.20685,-0.15785 0.20102,-0.29869 l -0.0403,-0.97152 0.65681,-0.12764 c 0.13835,-0.0269 0.22796,-0.15982 0.20102,-0.29817 l -0.078,-0.40256 c -0.0235,-0.12106 -0.12852,-0.20469 -0.24701,-0.20567 z m 0.27853,0.94516 c 0,0 -0.66278,0.16588 -0.69608,0.16588 l 0.009,0.11989 c 0,0 0.0162,0.93514 -0.007,1.04128 0.0728,-0.0127 0.28997,-0.0105 0.36587,0.0801 l 0.0274,0.11575 0.49196,-0.0636 c 0.0624,-0.18433 -0.19121,-1.45934 -0.19121,-1.45934 z m -2.1239,0.4625 c 0,0 -0.62654,0.14225 -0.65164,0.14625 -0.0322,0.25511 0.3297,1.62729 0.3297,1.62729 l 0.0977,-0.27182 0.70073,-0.25735 c -0.19634,-0.1106 -0.47646,-1.24437 -0.47646,-1.24437 z m 1.43454,1.00356 c -0.32899,9.2e-4 -0.85619,0.0973 -0.83923,0.25425 l 0.13591,0.71778 c 0.1778,-0.11555 0.38762,-0.18611 0.59532,-0.2222 0.003,0 0.005,0.002 0.008,0.002 0.19307,-0.0328 0.39223,-0.0405 0.57671,-0.006 l -0.22531,-0.70021 c -0.0235,-0.0309 -0.12189,-0.0453 -0.25063,-0.045 z m 0.88263,0.0946 -0.45527,0.0651 0.20051,0.62373 c 0.103,0.0343 0.19889,0.0842 0.2837,0.15348 0.0996,0.0811 0.11546,0.22915 0.0336,0.32815 -0.0358,0.0433 -0.0848,0.0707 -0.13642,0.0806 l 0.30592,0.95188 v 0.0176 c 0,0 0.007,0.21443 0.0165,0.49713 0.0206,0.004 0.0414,0.009 0.062,0.0155 0.1223,0.0364 0.19423,0.16647 0.15813,0.28888 h -0.002 c -0.0285,0.0933 -0.11114,0.15596 -0.20309,0.16381 5.6e-4,0.0178 10e-4,0.0343 0.002,0.0522 0.008,0.25767 0.0156,0.5196 0.0196,0.72244 0.002,0.0871 0.003,0.16082 0.003,0.22221 0.24085,-0.0477 0.40492,-0.0907 0.41393,-0.11111 0,0 0.65232,-1.88499 0.62373,-2.03398 -0.0497,-0.29006 -1.3255,-2.0376 -1.3255,-2.0376 z m -1.84123,0.28939 -0.58498,0.21187 c -0.17073,0.30923 -0.49661,2.07946 -0.49661,2.07946 0.0718,0.39482 1.12242,1.74976 1.12242,1.74976 0.0958,0.038 0.26201,0.0514 0.46405,0.0486 l 0.003,-0.91984 -0.004,-0.0641 c 0,0 -0.0266,0.0129 -0.06,0.0362 -0.0828,0.0606 -0.18409,0.0864 -0.26768,0.0191 -0.0996,-0.0795 -0.11567,-0.22623 -0.0367,-0.32607 0.065,-0.0823 0.1325,-0.10586 0.1912,-0.13126 0.0377,-0.0164 0.0784,-0.0314 0.12144,-0.046 l -0.0145,-0.39687 -0.19327,-1.01596 c -0.0706,0.0425 -0.16179,0.0461 -0.23771,0.002 -0.1096,-0.064 -0.14723,-0.20605 -0.0842,-0.31626 0.057,-0.0984 0.12973,-0.18242 0.21342,-0.25373 l -0.12816,-0.67335 h -0.008 z m 1.1498,0.43615 5.2e-4,5.1e-4 c -0.0936,0.001 -0.18902,0.0104 -0.2837,0.0269 -0.21122,0.0367 -0.41863,0.10525 -0.5886,0.22531 v 5.2e-4 c -0.10061,0.0544 -0.22869,0.22196 -0.26923,0.29197 -0.0363,0.0636 -0.0141,0.14232 0.0491,0.17932 0.1279,0.0547 0.19584,-0.094 0.27388,-0.1664 0.13636,-0.1334 0.352,-0.22884 0.58136,-0.26872 0.1465,-0.0256 0.29248,-0.0247 0.42013,-0.004 0.0918,0.0146 0.33247,0.10511 0.40205,0.14056 l 0.001,0.004 c 0.0334,-0.003 0.0655,-0.0187 0.0889,-0.047 0.0473,-0.0572 0.0399,-0.14079 -0.0176,-0.18759 -0.0538,-0.044 -0.11383,-0.0797 -0.17828,-0.108 l -0.002,-0.005 c -0.0887,-0.0214 -0.34123,-0.0808 -0.4377,-0.0822 -0.0133,-1.9e-4 -0.0264,-1.5e-4 -0.0398,0 z m -0.0196,0.36896 c -0.0658,3.8e-4 -0.13368,0.006 -0.20103,0.0176 -0.24371,0.0424 -0.4675,0.16254 -0.57309,0.29611 l 0.21394,1.1281 0.0134,0.37103 c 0.15462,-0.0429 0.33766,-0.0824 0.52503,-0.11523 0.18667,-0.0329 0.37199,-0.0575 0.54105,-0.0724 v -0.002 l 0.0429,-0.004 h 5.2e-4 c 0.0973,-0.007 0.18313,-0.0125 0.26458,-0.01 -0.009,-0.27274 -0.0165,-0.47801 -0.0165,-0.47801 l -0.31936,-0.99322 c -0.0155,-0.008 -0.0306,-0.0166 -0.0444,-0.0279 -0.0469,-0.0385 -0.14305,-0.0771 -0.25942,-0.0956 -0.0582,-0.009 -0.1218,-0.0148 -0.18758,-0.0145 z m 0.74104,1.67019 c -0.0624,3.8e-4 -0.12956,0.005 -0.20464,0.0109 -0.17163,0.0128 -0.36922,0.0393 -0.56379,0.0729 -0.1946,0.0335 -0.38426,0.0754 -0.53899,0.11938 -0.0774,0.0221 -0.14574,0.0433 -0.20515,0.0687 -0.0594,0.0253 -0.11025,0.0419 -0.16692,0.11213 -0.0606,0.0752 -0.0479,0.18416 0.0284,0.24392 0.16339,0.071 0.17194,0.003 0.27906,-0.0377 0.0374,-0.016 0.0952,-0.0345 0.16329,-0.0537 0.1361,-0.0387 0.31651,-0.0783 0.50126,-0.11007 0.18479,-0.0318 0.3755,-0.0557 0.53124,-0.0672 0.15573,-0.0116 0.29129,-0.002 0.29817,0 0.0939,0.0286 0.19355,-0.0231 0.22221,-0.11524 0.0277,-0.092 -0.0262,-0.18867 -0.11989,-0.21601 -0.0719,-0.0213 -0.1441,-0.0284 -0.22427,-0.0279 z m 1.40043,0.0956 -0.0847,0.20825 c -0.22453,0.60041 -0.5364,1.36013 -0.5364,1.36013 -0.008,0.0178 -0.30872,0.067 -0.54622,0.1111 3.9e-4,0.078 -3.7e-4,0.13503 -0.003,0.14831 -0.0385,0.18042 -1.13953,0.30242 -1.35289,0.13953 l -0.004,-0.10749 c -0.20985,0.002 -0.51131,9.2e-4 -0.59583,-0.0325 0,0 -0.94074,-0.9837 -1.28571,-1.53324 l -0.22893,1.01182 c -1.0964,1.98256 -0.28474,5.56647 -0.16639,6.15983 0,0 -0.18845,0.83293 -0.0972,0.96428 2.20303,-3.02708 4.9738,-3.07354 6.79339,-1.45624 0.21973,-1.5511 -1.65428,-6.85775 -1.89188,-6.97373 z m -1.43041,0.31367 c -0.0347,3.8e-4 -0.0726,0.002 -0.11162,0.005 -0.15822,0.012 -0.35412,0.0372 -0.5426,0.0703 -0.18866,0.033 -0.37265,0.0754 -0.51005,0.11524 -0.0279,0.008 -0.0524,0.0154 -0.076,0.0227 l 0.0398,1.08417 c 0.21336,0.16289 1.31441,0.0409 1.35289,-0.13953 0.0105,-0.0494 -0.004,-0.62038 -0.0207,-1.156 -0.0114,-2.9e-4 -0.0244,-8e-4 -0.0382,-0.001 -0.0272,-5e-4 -0.0588,-8.9e-4 -0.0935,-5.2e-4 z m 0.34262,1.75545 c 0.0911,0.0229 0.18694,0.11409 0.19844,0.21239 0.0154,0.12729 -0.0763,0.24307 -0.20361,0.25787 0,0 -0.37795,0.0418 -0.77101,0.0858 -0.19645,0.022 -0.39847,0.0452 -0.55707,0.0625 -0.15843,0.0172 -0.26158,0.0306 -0.31058,0.0336 v -0.002 c -0.12803,0.009 -0.2406,-0.0869 -0.2496,-0.21497 -0.008,-0.12711 0.0895,-0.23905 0.21653,-0.24805 -0.002,0 0.0395,-0.002 0.092,-0.008 0.0525,-0.006 0.12222,-0.0122 0.20102,-0.0212 0.15742,-0.0172 0.3585,-0.0405 0.55501,-0.0625 0.39275,-0.0439 0.77101,-0.0858 0.77101,-0.0858 l 0.0568,-0.009 z m -0.0326,0.10594 c -0.004,4e-5 -0.009,5.3e-4 -0.0134,0.001 v -5.1e-4 l -0.0568,0.008 v -0.002 c -0.0497,0.006 -0.35079,0.0394 -0.71468,0.0801 -0.19624,0.022 -0.39648,0.0453 -0.55449,0.0625 -0.0789,0.009 -0.15039,0.0173 -0.20309,0.0233 -0.0526,0.006 -0.0805,0.009 -0.094,0.0103 -0.0724,0.006 -0.12799,0.0657 -0.12299,0.1385 0.005,0.0739 0.0667,0.12799 0.14056,0.12299 0.043,-0.003 0.14867,-0.0117 0.30696,-0.0289 0.15812,-0.0173 0.3599,-0.0405 0.55655,-0.0625 0.39314,-0.044 0.77153,-0.0863 0.77153,-0.0863 0.0735,-0.009 0.12631,-0.0748 0.11731,-0.14831 -0.008,-0.0684 -0.0661,-0.11891 -0.13333,-0.11834 z m 0.25425,1.61179 c 0.11632,-0.004 0.21882,0.0798 0.23616,0.1974 0.0185,0.12654 -0.0688,0.24515 -0.19534,0.26355 l -1.78697,0.25632 c -0.12737,0.0185 -0.24635,-0.0719 -0.26355,-0.19947 -0.017,-0.12567 0.0699,-0.24154 0.19534,-0.25994 l 1.78904,-0.2558 h 0.002 c 0.008,-0.001 0.016,-0.002 0.0238,-0.002 z m 0.0165,0.0992 c -0.009,-6.6e-4 -0.0174,-6.1e-4 -0.0264,5.1e-4 h -0.002 l -1.78697,0.2558 c -0.0724,0.0106 -0.12317,0.0779 -0.11317,0.15038 0.01,0.0737 0.0769,0.12387 0.15038,0.11317 l 1.78697,-0.2558 c 0.0731,-0.0106 0.12387,-0.0774 0.11317,-0.15038 -0.009,-0.0628 -0.0611,-0.10907 -0.12195,-0.11368 z m -0.0506,2.4076 c -0.81278,0.0117 -0.61486,0.45359 -0.66972,0.48938 -0.0627,0.0409 1.76061,2.53903 1.76061,2.56573 0,0.0267 1.51826,-0.40721 1.51826,-0.40721 l -2.19522,-2.62413 c -0.16105,-0.0183 -0.29782,-0.0254 -0.41393,-0.0238 z m 1.32085,0.108 c -0.24511,0.006 -0.47482,0.0965 -0.50178,0.10956 -0.0345,0.0167 1.49707,1.83658 1.49707,1.83658 0,0 0.67579,-0.0392 0.67179,-0.22738 0,0 -1.33201,-1.59967 -1.46192,-1.70015 -0.0669,-0.0152 -0.13652,-0.0202 -0.20516,-0.0186 z m -2.00349,0.55863 -0.007,0.004 c 0,0 -1.03795,0.0124 -1.06505,0.0124 -0.0271,0 -0.49247,0.39585 -0.49247,0.39585 l 0.95498,1.48621 c 0,0 0.0179,0.37001 0.0119,0.39481 -0.006,0.0248 1.70067,0.2806 1.70067,0.2806 l 0.52762,-0.18603 c 0,0 -1.59189,-2.24324 -1.63039,-2.38797 z m -1.71411,0.57567 -0.59635,0.43512 c 0,0 -0.69798,0.69815 -0.72398,0.69815 -0.026,0 -0.19121,0.72398 -0.19121,0.72398 -0.11229,0.10739 0.0584,0.68575 0.0584,0.68575 0,0 1.89742,0.0132 1.94872,0.006 0.0513,-0.007 0.37155,-1.13068 0.37155,-1.13068 z m 5.48287,0.79375 c 0,0 -0.42148,0.17919 -0.7276,0.15141 l 0.55345,0.57878 c 0,0 0.20845,-0.085 0.27285,-0.0357 0.26939,0.13344 0.71148,0.62402 0.84439,1.07436 l 0.4284,-0.0677 c 0,0 -0.31392,-0.83815 -0.62787,-1.03766 0,0 -0.19327,-0.0394 -0.26768,-0.0248 0,0 -0.27014,-0.49021 -0.47594,-0.63872 z m 0.0357,0.7953 -2.65152,0.63252 -1.58853,-0.21497 c -0.57553,-0.0331 -0.51884,1.08159 -0.51884,1.08159 0,0 1.83993,0.24753 1.96112,0.24753 0.12119,0 3.64009,-0.45786 3.64009,-0.45786 0,0 -0.28472,-1.0861 -0.84232,-1.28881 z" /><path
           id="rect1526"
           style="fill:#000000;stroke:none;stroke-width:0.165;stroke-linecap:butt;stroke-dasharray:none;stop-color:#000000"
           d="m 149.25055,119.99911 c -0.15681,0.008 -0.28112,0.13675 -0.28112,0.29559 v 4.61367 c 0,0.16396 0.13214,0.29559 0.2961,0.29559 h 0.45372 c 0.13888,-0.44957 0.45481,-0.80839 0.86868,-1.0697 -0.0493,-0.23405 -0.0863,-0.41445 -0.0863,-0.41445 0,0 -0.10012,-2.18362 -0.003,-2.47426 l 0.23771,-0.22118 -0.0951,-1.01441 c -0.0248,-0.007 -0.051,-0.0109 -0.078,-0.0109 h -1.2976 c -0.005,0 -0.01,-2.5e-4 -0.015,0 z" /><path
           id="rect1526-2"
           style="fill:#000000;stroke:none;stroke-width:0.165;stroke-linecap:butt;stroke-dasharray:none;stop-color:#000000"
           d="m 156.08255,119.99913 c 0.15681,0.008 0.28112,0.13676 0.28112,0.2956 v 4.61367 c 0,0.16396 -0.13214,0.29559 -0.2961,0.29559 h -0.45372 c -0.13888,-0.44957 -0.45481,-0.80839 -0.86868,-1.0697 0.0493,-0.23405 0.0863,-0.41445 0.0863,-0.41445 0,0 0.10012,-2.18362 0.003,-2.47426 l -0.23771,-0.22119 0.0951,-1.0144 c 0.0248,-0.007 0.051,-0.0109 0.078,-0.0109 h 1.2976 c 0.005,0 0.01,-2.4e-4 0.015,0 z" /><path
           id="path1683"
           style="fill:#000000;stroke:none;stroke-width:0.264583px;stroke-linecap:butt;stroke-linejoin:miter;stroke-opacity:1"
           d="m 150.56726,124.43657 c -0.43566,0.34132 -0.72173,0.81132 -0.7369,1.39939 0.16791,0.62344 0.93999,0.73949 0.93999,0.73949 0.12263,0.13724 3.59306,0 3.59306,0 0,0 0.90886,-0.0865 1.06299,-0.73949 -0.0443,-0.57757 -0.29175,-1.02729 -0.65991,-1.35702 l -0.14624,0.53795 0.12454,0.64699 -4.13877,0.0114 0.11369,-0.65836 z" /><path
           id="path502"
           style="color:#000000;fill:#000000;-inkscape-stroke:none"
           d="m 152.60331,115.64227 v 5.2e-4 c -0.61869,10e-4 -1.22297,0.16605 -1.48001,0.58187 l -0.0217,0.031 v 0.5519 l -0.51573,0.29973 -0.0176,0.0315 c -0.0765,0.13738 -0.0901,0.31665 -0.0997,0.53692 -0.01,0.22028 -0.005,0.47473 0.008,0.71675 0.0252,0.48404 0.076,0.92191 0.076,0.92191 l 0.008,0.0661 0.0584,0.0336 c 0.50342,0.28793 1.38585,0.34636 2.22053,0.31833 0.41735,-0.014 0.82006,-0.0547 1.15084,-0.10955 0.33079,-0.0549 0.58031,-0.11332 0.73639,-0.21291 l 0.0543,-0.0351 0.006,-0.0625 c 0,0 0.0466,-0.46324 0.0703,-0.95911 0.0118,-0.24794 0.0187,-0.50278 0.01,-0.71831 -0.005,-0.10777 -0.0126,-0.20557 -0.0269,-0.28938 -0.0143,-0.0838 -0.0302,-0.15397 -0.0785,-0.22066 l -0.0134,-0.0196 -0.46974,-0.29352 v -0.56948 l -0.0351,-0.0393 c -0.37077,-0.39287 -1.02205,-0.56181 -1.64073,-0.56069 z m 0,0.26613 c 0.55342,-0.001 1.1187,0.17481 1.41232,0.46458 v 2.15852 c -0.23107,0.047 -0.77333,0.10746 -1.34772,0.12299 -0.30844,0.008 -0.61597,0.006 -0.86506,-0.0139 -0.21773,-0.0175 -0.36104,-0.0572 -0.43564,-0.0879 v -2.19728 c 0.1762,-0.26466 0.67781,-0.44599 1.2361,-0.44701 z"
           sodipodi:nodetypes="cccccccccccccccccccscccccccccccccc" /><path
           id="path1405"
           style="color:#000000;fill:#000000;stroke-width:0.264583px;-inkscape-stroke:none"
           d="m 150.74813,119.83013 0.0134,0.14469 0.30489,3.2582 h 3.20394 l 0.31574,-3.40289 c -1.27818,0.11647 -2.97485,0.13456 -3.83801,0 z m 1.91978,0.48627 1.07435,0.55656 v 0.23461 l -1.07435,-0.49248 -1.07435,0.49248 v -0.23461 z m 0,0.48628 1.07435,0.55655 v 0.23462 l -1.07435,-0.49248 -1.07435,0.49248 v -0.23462 z m 0,0.48627 1.07435,0.55656 v 0.23461 l -1.07435,-0.49248 -1.07435,0.49248 v -0.23461 z m -0.83768,1.01596 h 0.50953 c 0.10988,0 0.20103,0.0912 0.20103,0.20102 v 0.20878 c 0,0.10988 -0.0912,0.20154 -0.20103,0.20154 h -0.50953 c -0.10987,0 -0.20153,-0.0917 -0.20153,-0.20154 v -0.20878 c 0,-0.10987 0.0917,-0.20102 0.20153,-0.20102 z m 1.16376,0 h 0.51004 c 0.10987,0 0.20103,0.0912 0.20103,0.20102 v 0.20878 c 0,0.10988 -0.0912,0.20154 -0.20103,0.20154 h -0.51004 c -0.10982,0 -0.19896,-0.0917 -0.19896,-0.20154 v -0.20878 c 0,-0.10987 0.0891,-0.20102 0.19896,-0.20102 z m -1.16789,0.16588 c -0.0193,0.002 -0.0331,0.0152 -0.0331,0.0351 v 0.20878 c 0,0.0213 0.0159,0.0351 0.0372,0.0351 h 0.50953 c 0.0213,0 0.0351,-0.0138 0.0351,-0.0351 v -0.20878 c 0,-0.0213 -0.0138,-0.0351 -0.0351,-0.0351 h -0.50953 c -0.001,0 -0.003,-10e-5 -0.004,0 z m 1.16789,0 c -0.0213,0 -0.0351,0.0138 -0.0351,0.0351 v 0.20878 c 0,0.0213 0.0138,0.0351 0.0351,0.0351 h 0.51004 c 0.0213,0 0.0372,-0.0138 0.0372,-0.0351 v -0.20878 c 0,-0.0213 -0.0159,-0.0351 -0.0372,-0.0351 z m -1.9358,0.92605 -0.22014,2.05827 h 3.66024 l -0.22014,-2.05827 z" /><path
           style="fill:#000000;stroke:none;stroke-width:0.264583px;stroke-linecap:butt;stroke-linejoin:miter;stroke-opacity:1"
           d="m 150.77151,121.09846 0.22817,2.21138 -0.17712,1.48708 c -0.0468,-0.0897 -0.20579,-1.1812 -0.20579,-1.1812 0,0 -0.093,-2.05417 -0.002,-2.32757 z"
           id="path1479"
           sodipodi:nodetypes="cccccc" /><path
           style="fill:#000000;stroke:none;stroke-width:0.264583px;stroke-linecap:butt;stroke-linejoin:miter;stroke-opacity:1"
           d="m 154.57393,121.07846 -0.22817,2.21138 0.17712,1.48708 c 0.0468,-0.0897 0.20579,-1.1812 0.20579,-1.1812 0,0 0.093,-2.05417 0.002,-2.32757 z"
           id="path1479-5"
           sodipodi:nodetypes="cccccc" /><path
           id="rect1991"
           style="fill:#000000;stroke:none;stroke-width:0.165;stroke-linecap:butt;stroke-dasharray:none;stop-color:#000000"
           d="m 154.4523,116.11614 c 0.003,0.004 0.006,0.007 0.009,0.0109 l 0.0351,0.0429 v 0.20877 h 0.8723 c 0.14433,0 0.26355,0.11973 0.26355,0.26407 v 1.52652 c 0.19164,-0.14614 0.42607,-0.2415 0.69815,-0.27079 v -1.47794 c 0,-0.0898 -0.0714,-0.16227 -0.16124,-0.16227 h -0.72657 c -0.01,-0.0804 -0.0771,-0.14211 -0.16019,-0.14211 z m -0.32815,0.094 c -0.01,0.0208 -0.0155,0.0437 -0.0155,0.0682 v 0.10025 h 0.12506 v -0.0661 c -0.0331,-0.0357 -0.0699,-0.0699 -0.10956,-0.10232 z m -0.0155,0.37776 v 2.10375 c 0.0478,-0.008 0.0904,-0.0161 0.12506,-0.0238 v -2.07998 z m 0.38809,0 v 0.0951 l 0.46974,0.3204 0.0134,0.0212 c 0.0483,0.0728 0.0643,0.14942 0.0786,0.24082 0.0143,0.0915 0.0219,0.30665 0.0269,0.42426 0.009,0.23521 0.002,0.51284 -0.01,0.78342 -0.0177,0.40376 -0.0482,0.78761 -0.0625,0.95653 h 0.0243 c 0.0177,-0.41627 0.15267,-0.78954 0.38861,-1.06454 v -1.72237 c 0,-0.0328 -0.024,-0.0548 -0.0568,-0.0548 z" /><path
           id="rect1823"
           style="fill:#000000;stroke:none;stroke-width:0.170262;stroke-linecap:butt;stroke-dasharray:none;stop-color:#000000"
           d="m 156.76482,114.26148 c -0.19841,0 -0.35812,0.15971 -0.35812,0.35811 v 3.30626 c 0.10842,-0.0187 0.22305,-0.0262 0.34416,-0.0217 v -1.69706 c 0,0 0.0966,-0.003 0.22738,-0.007 -0.0243,-0.0439 -0.0413,-0.0968 -0.0336,-0.15245 0,0 0.18829,-0.30616 0.37052,-0.37672 l 0.31678,-0.0119 c 0,0 0.0204,-0.0121 0.0522,-0.0289 v -1.01079 c 0,-0.1984 -0.15971,-0.35811 -0.35812,-0.35811 z" /><path
           style="fill:#000000;stroke:none;stroke-width:0.264583px;stroke-linecap:butt;stroke-linejoin:miter;stroke-opacity:1"
           d="m 157.01529,116.51495 v 4.91813 h 3.90484 c 0,0 2.52948,-4.40422 2.44962,-4.91813 -0.34544,-0.19753 -6.35446,0 -6.35446,0 z"
           id="path1790"
           sodipodi:nodetypes="ccccc" /><path
           style="fill:#000000;stroke:none;stroke-width:0.264583px;stroke-linecap:butt;stroke-linejoin:miter;stroke-opacity:1"
           d="m 156.87559,118.08842 -0.0136,3.32656 -0.25603,-0.008 v -1.39505 c -0.0237,-0.487 -1.38295,-0.33384 -1.38295,-0.33384 0.0179,-0.92242 0.60707,-1.64903 1.58834,-1.58834"
           id="path1792"
           sodipodi:nodetypes="cccccc" /><path
           style="fill:#000000;stroke:none;stroke-width:0.264583px;stroke-linecap:butt;stroke-linejoin:miter;stroke-opacity:1"
           d="m 159.07536,115.70146 c 0,0 -0.13204,0.64048 0.006,0.6207 0.31263,-0.0448 2.70054,0.009 2.70054,0.009 0,0 -0.51199,-0.72761 -0.6916,-0.76079 -0.37792,-0.0232 -2.01494,0.13102 -2.01494,0.13102 z"
           id="path1794"
           sodipodi:nodetypes="csccc" /><path
           style="fill:#000000;stroke:none;stroke-width:0.264583px;stroke-linecap:butt;stroke-linejoin:miter;stroke-opacity:1"
           d="m 158.93806,115.88647 -0.0288,0.4494 c 0,0 -1.48181,0.007 -1.68923,0.0359 0,0 -0.15525,-0.1263 -0.13478,-0.27467 0,0 0.14585,-0.25231 0.32808,-0.32287 l 0.31639,-0.0119 c 0,0 0.20539,-0.12348 0.40678,-0.16023 0,0 0.24938,-0.046 0.41296,0.001 0,0 0.13862,0.10707 0.18632,0.26699 z"
           id="path1796"
           sodipodi:nodetypes="cccccccccc" /><path
           id="rect1961"
           style="stroke-width:0.165;stop-color:#000000"
           d="m 156.76462,111.94092 0.56161,-0.49933 c 0.0671,-0.0597 0.16212,0.0723 0.16212,0.16211 v 2.44017 c 0,0.0898 -0.0723,0.16211 -0.16212,0.16211 h -0.56161 c -0.0898,0 -0.16211,-0.0723 -0.16211,-0.16211 v -1.94084 c 0,-0.0898 0.095,-0.10244 0.16211,-0.16211 z"
           sodipodi:nodetypes="sssssssss" /><path
           id="rect1991-0"
           style="fill:#000000;stroke:none;stroke-width:0.165;stroke-linecap:butt;stroke-dasharray:none;stop-color:#000000"
           d="m 150.91961,116.11614 c -0.003,0.004 -0.006,0.007 -0.009,0.0109 l -0.0351,0.0429 v 0.20877 h -0.8723 c -0.14433,0 -0.26355,0.11973 -0.26355,0.26407 v 1.52652 c -0.19164,-0.14614 -0.42607,-0.2415 -0.69815,-0.27079 v -1.47794 c 0,-0.0898 0.0714,-0.16227 0.16124,-0.16227 h 0.72657 c 0.01,-0.0804 0.0771,-0.14211 0.16019,-0.14211 z m 0.32815,0.094 c 0.01,0.0208 0.0155,0.0437 0.0155,0.0682 v 0.10025 h -0.12506 v -0.0661 c 0.0331,-0.0357 0.0699,-0.0699 0.10956,-0.10232 z m 0.0155,0.37776 v 2.10375 c -0.0478,-0.008 -0.0904,-0.0161 -0.12506,-0.0238 v -2.07998 z m -0.38809,0 v 0.0951 l -0.46974,0.3204 -0.0134,0.0212 c -0.0483,0.0728 -0.0643,0.14942 -0.0786,0.24082 -0.0143,0.0915 -0.0219,0.30665 -0.0269,0.42426 -0.009,0.23521 -0.002,0.51284 0.01,0.78342 0.0177,0.40376 0.0482,0.78761 0.0625,0.95653 h -0.0243 c -0.0177,-0.41627 -0.15267,-0.78954 -0.38861,-1.06454 v -1.72237 c 0,-0.0328 0.024,-0.0548 0.0568,-0.0548 z" /><path
           id="rect1823-6"
           style="fill:#000000;stroke:none;stroke-width:0.170262;stroke-linecap:butt;stroke-dasharray:none;stop-color:#000000"
           d="m 148.60709,114.26148 c 0.19841,0 0.35812,0.15971 0.35812,0.35811 v 3.30626 c -0.10842,-0.0187 -0.22305,-0.0262 -0.34416,-0.0217 v -1.69706 c 0,0 -0.0966,-0.003 -0.22738,-0.007 0.0243,-0.0439 0.0413,-0.0968 0.0336,-0.15245 0,0 -0.18829,-0.30616 -0.37052,-0.37672 l -0.31678,-0.0119 c 0,0 -0.0204,-0.0121 -0.0522,-0.0289 v -1.01079 c 0,-0.1984 0.15971,-0.35811 0.35812,-0.35811 z" /><path
           style="fill:#000000;stroke:none;stroke-width:0.264583px;stroke-linecap:butt;stroke-linejoin:miter;stroke-opacity:1"
           d="m 148.35662,116.51495 v 4.91813 h -3.90484 c 0,0 -2.52948,-4.40422 -2.44962,-4.91813 0.34544,-0.19753 6.35446,0 6.35446,0 z"
           id="path1790-2"
           sodipodi:nodetypes="ccccc" /><path
           style="fill:#000000;stroke:none;stroke-width:0.264583px;stroke-linecap:butt;stroke-linejoin:miter;stroke-opacity:1"
           d="m 148.49632,118.08842 0.0136,3.32656 0.25603,-0.008 v -1.39505 c 0.0237,-0.487 1.38295,-0.33384 1.38295,-0.33384 -0.0179,-0.92242 -0.60707,-1.64903 -1.58834,-1.58834"
           id="path1792-6"
           sodipodi:nodetypes="cccccc" /><path
           style="fill:#000000;stroke:none;stroke-width:0.264583px;stroke-linecap:butt;stroke-linejoin:miter;stroke-opacity:1"
           d="m 146.29655,115.70146 c 0,0 0.13204,0.64048 -0.006,0.6207 -0.31263,-0.0448 -2.70054,0.009 -2.70054,0.009 0,0 0.51199,-0.72761 0.6916,-0.76079 0.37792,-0.0232 2.01494,0.13102 2.01494,0.13102 z"
           id="path1794-1"
           sodipodi:nodetypes="csccc" /><path
           style="fill:#000000;stroke:none;stroke-width:0.264583px;stroke-linecap:butt;stroke-linejoin:miter;stroke-opacity:1"
           d="m 146.43385,115.88647 0.0288,0.4494 c 0,0 1.48181,0.007 1.68923,0.0359 0,0 0.15525,-0.1263 0.13478,-0.27467 0,0 -0.14585,-0.25231 -0.32808,-0.32287 l -0.31639,-0.0119 c 0,0 -0.20539,-0.12348 -0.40678,-0.16023 0,0 -0.24938,-0.046 -0.41296,0.001 0,0 -0.13862,0.10707 -0.18632,0.26699 z"
           id="path1796-8"
           sodipodi:nodetypes="cccccccccc" /><path
           id="rect1961-7"
           style="stroke-width:0.165;stop-color:#000000"
           d="m 148.60729,111.94092 -0.56161,-0.49933 c -0.0671,-0.0597 -0.16212,0.0723 -0.16212,0.16211 v 2.44017 c 0,0.0898 0.0723,0.16211 0.16212,0.16211 h 0.56161 c 0.0898,0 0.16211,-0.0723 0.16211,-0.16211 v -1.94084 c 0,-0.0898 -0.095,-0.10244 -0.16211,-0.16211 z"
           sodipodi:nodetypes="sssssssss" /><path
           id="rect2481"
           style="stroke-width:0.165;stop-color:#000000"
           d="m 151.59977,126.95361 h 2.05723 c 0.0656,0 0.44624,0.053 0.44033,0.11834 l -0.322,3.55779 c -0.006,0.0653 -0.0528,0.11833 -0.11833,0.11833 h -2.05723 c -0.0656,0 -0.11242,-0.0531 -0.11833,-0.11833 l -0.322,-3.55779 c -0.006,-0.0654 0.3748,-0.11834 0.44033,-0.11834 z"
           sodipodi:nodetypes="sssssssss" /><path
           id="rect3863"
           style="fill:#000000;stroke:none;stroke-width:0.089;stroke-linecap:round;stroke-dasharray:none;stop-color:#000000"
           d="m 145.44438,121.78685 c -0.12574,0.006 -0.22939,0.0925 -0.26304,0.20877 h -0.20877 c -0.16064,0 -0.2899,0.12926 -0.2899,0.2899 v 0.68833 c 0,0.16064 0.12926,0.28991 0.2899,0.28991 h 0.1974 c 0.007,0.15387 0.1336,0.27543 0.28939,0.27543 h 0.0434 c 0.15579,0 0.2824,-0.12156 0.28991,-0.27543 h 0.45268 c 0.007,0.15387 0.1336,0.27543 0.28939,0.27543 h 0.0439 c 0.1558,0 0.28191,-0.12156 0.28939,-0.27543 h 0.45269 c 0.007,0.15387 0.13358,0.27543 0.28939,0.27543 h 0.0439 c 0.15579,0 0.28191,-0.12156 0.28939,-0.27543 h 0.1974 c 0.16064,0 0.28991,-0.12927 0.28991,-0.28991 v -0.68833 c 0,-0.16064 -0.12927,-0.2899 -0.28991,-0.2899 h -0.20825 c -0.0349,-0.12091 -0.14607,-0.20877 -0.27854,-0.20877 h -0.0439 c -0.005,0 -0.01,-2.5e-4 -0.015,0 -0.12573,0.006 -0.22938,0.0925 -0.26303,0.20877 h -0.47491 c -0.0349,-0.12091 -0.14607,-0.20877 -0.27854,-0.20877 h -0.0439 c -0.005,0 -0.01,-2.5e-4 -0.015,0 -0.12573,0.006 -0.22938,0.0925 -0.26303,0.20877 h -0.47491 c -0.035,-0.12091 -0.14658,-0.20877 -0.27905,-0.20877 h -0.0434 c -0.005,0 -0.01,-2.5e-4 -0.015,0 z" /><path
           style="color:#000000;fill:#ffffff;stroke-linecap:round;-inkscape-stroke:none"
           d="m 147.32031,123.87891 c -0.35538,0 -0.64648,0.28914 -0.64648,0.64453 0,0.35538 0.2911,0.64648 0.64648,0.64648 0.35539,0 0.64453,-0.2911 0.64453,-0.64648 0,-0.35539 -0.28914,-0.64453 -0.64453,-0.64453 z m 0,0.18945 c 0.25325,0 0.45508,0.20183 0.45508,0.45508 0,0.25324 -0.20183,0.45703 -0.45508,0.45703 -0.25324,0 -0.45703,-0.20379 -0.45703,-0.45703 0,-0.25325 0.20379,-0.45508 0.45703,-0.45508 z"
           id="path4068" /><path
           id="path441"
           style="fill:#000000;stroke-width:7.94271;stroke-linecap:round;stop-color:#000000"
           d="m 158.407,122.12355 c -0.12254,0.0162 -0.20775,0.12795 -0.19155,0.2505 l 0.0174,0.13165 -0.28791,0.0381 c -0.12254,0.0161 -0.20833,0.12752 -0.19213,0.25006 l 0.0827,0.62603 c 0.0161,0.12254 0.12802,0.20827 0.25055,0.19208 l 0.28792,-0.0381 0.0953,0.72081 -0.20032,0.0264 c -0.17102,0.0226 -0.29075,0.17822 -0.26815,0.34923 l 0.11539,0.8735 c 0.001,0.0125 0.004,0.0248 0.007,0.0366 a 3.1091957,3.1091957 0 0 0 -0.97777,2.69484 3.1091957,3.1091957 0 0 0 3.48994,2.6752 3.1091957,3.1091957 0 0 0 2.6747,-3.48987 3.1091957,3.1091957 0 0 0 -1.64437,-2.34937 c -2.1e-4,-0.0119 -10e-4,-0.024 -0.002,-0.0361 l -0.1154,-0.8735 c -0.0226,-0.17101 -0.17864,-0.29018 -0.34968,-0.26758 l -0.20031,0.0264 -0.0953,-0.72081 0.28791,-0.0381 c 0.12254,-0.0161 0.20828,-0.12803 0.19208,-0.25057 l -0.0827,-0.62604 c -0.0162,-0.12254 -0.12797,-0.20776 -0.2505,-0.19156 l -0.28792,0.0381 -0.0174,-0.13167 c -0.0162,-0.12253 -0.12751,-0.20833 -0.25005,-0.19213 z m 1.52615,3.52166 c 1.2257,-0.16199 2.35675,0.70318 2.51873,1.92887 0.16197,1.2257 -0.70551,2.35498 -1.93121,2.51695 -1.22569,0.16198 -2.35469,-0.70345 -2.51667,-1.92915 -0.16198,-1.22569 0.70346,-2.35469 1.92915,-2.51667 z m 0.0479,0.3622 c -1.03014,0.13613 -1.75095,1.07647 -1.61482,2.10661 0.13614,1.03013 1.07647,1.75095 2.10661,1.61481 1.03014,-0.13613 1.753,-1.07675 1.61687,-2.10687 -0.13614,-1.03014 -1.07852,-1.75069 -2.10866,-1.61455 z" /><path
           style="fill:#000000;stroke:none;stroke-width:0.264583px;stroke-linecap:butt;stroke-linejoin:miter;stroke-opacity:1"
           d="m 158.14589,121.58307 h 2.22364 l -2.14013,0.3393 z"
           id="path1360" /><path
           style="fill:none;stroke:#000000;stroke-width:0.465;stroke-linecap:butt;stroke-linejoin:miter;stroke-dasharray:0.2325, 0.2325;stroke-dashoffset:0;stroke-opacity:1"
           d="m 161.21187,122.6766 c 1.04453,0.55846 1.83703,2.11713 1.13241,3.38169"
           id="path1362"
           sodipodi:nodetypes="cc" /><path
           id="path2791"
           style="display:inline;fill:#000000;stroke-width:0.0142485"
           d="m 131.63203,125.76975 c -0.005,-0.001 -0.0657,0.21664 -0.13442,0.48407 l -0.12546,0.48583 -0.10781,0.0842 -0.10711,0.0844 -0.43348,-0.0103 c -0.23837,-0.006 -0.43801,-0.0118 -0.44432,-0.0121 -0.003,-0.002 -0.005,9.1e-4 -0.008,10e-4 -0.002,0.001 -0.001,0.001 -0.003,0.003 l -0.001,-10e-4 c -10e-4,0.002 -0.002,0.002 -0.002,0.004 -0.002,0.006 0.0766,0.21198 0.17388,0.45707 l 0.17725,0.44591 -0.0195,0.0749 -0.0184,0.0749 -0.38214,0.34668 c -0.21004,0.19041 -0.37944,0.3499 -0.37701,0.35509 0.003,0.005 0.1878,0.0745 0.41156,0.15456 l 0.40688,0.14594 0.0563,0.11159 0.0557,0.1119 -0.12222,0.49113 -0.12265,0.49139 0.4725,-0.18626 0.47219,-0.18678 0.0623,0.0236 c 0.0342,0.0132 0.11032,0.0327 0.1687,0.0439 l 0.10638,0.0203 0.12023,0.49718 c 0.0732,0.30259 0.12636,0.49308 0.136,0.48632 0.008,-0.006 0.16683,-0.1894 0.35164,-0.4074 l 0.33569,-0.39584 0.13963,0.0212 0.13932,0.0207 0.035,0.14825 c 0.0963,0.40928 0.20548,0.84599 0.21246,0.84669 0.004,9.9e-4 0.16462,-0.18383 0.35604,-0.4101 l 0.34805,-0.41127 0.13657,0.0291 0.13656,0.0291 0.11903,0.49126 c 0.0653,0.27041 0.12144,0.49258 0.12508,0.49421 0.004,0.002 0.16394,-0.18129 0.356,-0.40523 l 0.34933,-0.4072 0.13799,0.0215 0.13817,0.0208 0.0237,0.10003 c 0.12125,0.50762 0.21062,0.87196 0.21651,0.88299 0.003,0.007 0.13653,-0.13743 0.29427,-0.32198 0.15815,-0.1842 0.31747,-0.36923 0.35364,-0.41106 l 0.0649,-0.0761 0.13359,0.0242 0.13429,0.0244 0.0849,0.34851 c 0.0468,0.19164 0.10102,0.41536 0.12023,0.49718 0.0199,0.0851 0.0417,0.14456 0.0501,0.13837 0.008,-0.006 0.16801,-0.18907 0.35563,-0.40683 l 0.34101,-0.39605 0.14033,0.0214 0.13957,0.0211 0.0322,0.13967 c -0.19325,0.0473 -0.2691,0.0669 -0.27144,0.0723 -1.4e-4,0.004 0.16134,0.14399 0.36142,0.31313 0.0601,0.25711 0.11214,0.46633 0.11563,0.46788 0.006,-5e-5 0.0584,-0.0586 0.18927,-0.21041 l 0.11005,0.0926 -0.0448,0.1347 -0.0446,0.13401 -0.50779,0.1237 c -0.27923,0.0682 -0.51542,0.12751 -0.52446,0.13209 -0.009,0.005 0.0337,0.0512 0.10088,0.1073 0.0641,0.0543 0.23875,0.20433 0.38819,0.3331 l 0.2718,0.23409 -0.0393,0.13069 -0.0393,0.13076 -0.0976,0.0228 c -0.0537,0.0132 -0.29094,0.071 -0.52689,0.12813 -0.23608,0.0566 -0.42532,0.10987 -0.42029,0.11617 0.007,0.0103 0.29077,0.25505 0.6878,0.5938 l 0.0786,0.067 -0.0438,0.13225 -0.044,0.13296 -0.52106,0.12577 c -0.28678,0.0693 -0.52386,0.12825 -0.52348,0.13271 -1.3e-4,0.004 0.17217,0.15497 0.38334,0.33607 l 0.38389,0.32906 -0.0362,0.13485 -0.0359,0.13528 -0.52498,0.12332 c -0.28855,0.0676 -0.52597,0.12586 -0.52696,0.12999 -0.003,0.007 0.33678,0.30233 0.65757,0.57413 l 0.11607,0.0986 -0.0446,0.13392 -0.0446,0.13392 -0.50587,0.1189 c -0.27819,0.0655 -0.5133,0.12329 -0.52273,0.128 -0.0104,0.006 0.13512,0.13946 0.37135,0.34221 l 0.38862,0.33283 -0.0302,0.104 c -0.0165,0.0571 -0.0334,0.13422 -0.0373,0.17068 l -0.007,0.0662 -0.38127,0.33525 -0.3807,0.33619 0.49345,0.11413 0.49256,0.11467 0.0743,0.10051 0.0743,0.10052 -0.055,0.42876 c -0.0304,0.2357 -0.0527,0.43183 -0.0494,0.43684 0.004,0.005 0.22286,-0.0734 0.48792,-0.17394 l 0.48182,-0.18294 0.0755,0.0174 0.0759,0.0172 0.31633,0.36013 c 0.17406,0.19809 0.32128,0.36211 0.32764,0.36291 0.001,3.3e-4 0.002,-1.9e-4 0.004,-3.8e-4 l -6e-4,-0.002 c 0.002,-5.2e-4 0.002,-2.5e-4 0.004,-0.001 0.001,-0.002 0.004,-0.002 0.004,-0.006 0.002,-0.006 0.0876,-0.18678 0.19091,-0.4017 l 0.18835,-0.39104 0.12383,-0.0571 0.124,-0.0578 0.49003,0.10955 c 0.26944,0.0604 0.49067,0.10538 0.49199,0.0999 0.002,-0.005 -0.0605,-0.21004 -0.13865,-0.45501 -0.12148,-0.38107 -0.13943,-0.45037 -0.12239,-0.48191 0.0111,-0.0202 0.0421,-0.0951 0.069,-0.16644 l 0.0489,-0.12996 0.52282,-0.12685 c 0.2875,-0.0702 0.52008,-0.13029 0.51645,-0.13627 -0.004,-0.005 -0.17574,-0.15333 -0.38373,-0.32978 l -0.37761,-0.3208 0.0412,-0.13851 0.0415,-0.13808 0.44925,-0.10846 c 0.6204,-0.14974 0.59743,-0.14328 0.58018,-0.16379 -0.008,-0.009 -0.18321,-0.15846 -0.38852,-0.33169 l -0.37252,-0.31543 0.0416,-0.13697 0.042,-0.13723 0.51788,-0.12503 c 0.28479,-0.0687 0.52032,-0.12731 0.52439,-0.13023 0.003,-0.003 -0.11032,-0.10415 -0.25252,-0.2253 -0.14219,-0.12115 -0.31593,-0.2713 -0.38606,-0.3326 l -0.12786,-0.11076 0.0394,-0.13259 0.0403,-0.132 0.0724,-0.0183 c 0.0398,-0.0108 0.27687,-0.0678 0.52645,-0.12786 0.24948,-0.0605 0.45191,-0.11203 0.45035,-0.11458 -0.003,-0.003 -0.1749,-0.15157 -0.38454,-0.33111 l -0.38069,-0.32679 0.0358,-0.13648 0.0365,-0.13624 0.33623,-0.0823 c 0.18474,-0.0455 0.40786,-0.10001 0.4963,-0.11969 0.0881,-0.0209 0.17412,-0.0415 0.19157,-0.0464 0.0263,-0.008 -0.0203,-0.0539 -0.31501,-0.30762 a 4.3073211,4.3073211 0 0 1 -1.15401,-0.1647 l -0.19661,0.65363 c -1.41911,4.71364 -1.49406,4.95739 -1.54126,5.02546 -0.0272,0.0394 -0.0921,0.11481 -0.14401,0.16757 -0.0775,0.0796 -0.12475,0.11227 -0.27154,0.18691 -0.089,0.0451 -0.16349,0.0772 -0.23779,0.0995 -0.0744,0.0221 -0.14894,0.0341 -0.23663,0.0401 l -4.4e-4,2.7e-4 c -0.0252,0.001 -0.0507,0.003 -0.0783,0.004 -0.18234,0.005 -0.41742,-0.0446 -0.57735,-0.12152 -0.35779,-0.17206 -0.58548,-0.51381 -0.58261,-0.87332 8e-4,-0.10134 0.0332,-0.20932 1.48343,-5.03975 l 0.40636,-1.3541 a 4.3073211,4.3073211 0 0 1 -0.52051,-0.6817 4.3073211,4.3073211 0 0 1 -0.38592,-0.81924 l -1.40636,-0.25621 c -4.96172,-0.90413 -5.07262,-0.92437 -5.16327,-0.96969 -0.32151,-0.16089 -0.52239,-0.51905 -0.51302,-0.91594 0.004,-0.17744 0.067,-0.40928 0.15421,-0.56949 0.0132,-0.0242 0.0266,-0.046 0.0389,-0.068 l 8.5e-4,-5.2e-4 c 0.0452,-0.0754 0.0893,-0.13607 0.14282,-0.19228 0.0536,-0.056 0.11597,-0.10795 0.19675,-0.16656 0.13321,-0.0968 0.18409,-0.12445 0.29035,-0.15716 0.0706,-0.0222 0.16724,-0.0458 0.21473,-0.0521 0.0821,-0.0111 0.33283,0.0332 5.17639,0.91196 l 0.71232,0.12917 a 4.3073211,4.3073211 0 0 1 0.35545,-1.03449 l -0.005,-0.0222 c -0.10554,-0.43516 -0.12327,-0.49417 -0.14324,-0.47339 -0.0122,0.0134 -0.0705,0.0804 -0.12913,0.14931 -0.0577,0.0698 -0.20731,0.2435 -0.33179,0.38738 l -0.22656,0.26234 -0.13796,-0.0294 -0.13784,-0.0302 -0.11776,-0.48719 c -0.0646,-0.26833 -0.1189,-0.48979 -0.12038,-0.49346 -0.002,-0.003 -0.13921,0.15478 -0.30651,0.34948 -0.16697,0.195 -0.32572,0.37977 -0.35347,0.41035 l -0.0485,0.0563 -0.13619,-0.0245 -0.13574,-0.0248 -0.0413,-0.16436 c -0.0227,-0.0903 -0.0772,-0.31287 -0.12048,-0.49462 -0.0433,-0.18173 -0.0825,-0.32918 -0.0862,-0.32778 -0.004,0.002 -0.16373,0.18539 -0.35438,0.40787 l -0.34651,0.40488 -0.14133,-0.025 -0.14115,-0.0257 -0.11117,-0.47547 c -0.061,-0.2616 -0.11445,-0.48529 -0.11926,-0.49656 -0.0104,-0.0247 0.006,-0.0422 -0.40964,0.44232 l -0.30082,0.35084 -0.14115,-0.0257 -0.14282,-0.0264 -0.11407,-0.48218 c -0.0626,-0.26544 -0.1169,-0.4865 -0.11931,-0.49169 -0.004,-0.006 -0.16293,0.17388 -0.35614,0.39805 l -0.35065,0.40802 -0.13753,-0.0158 c -0.0758,-0.008 -0.15654,-0.015 -0.1796,-0.0143 -0.0358,8.4e-4 -0.0896,-0.046 -0.37377,-0.32738 -0.18269,-0.18096 -0.33726,-0.33027 -0.34253,-0.33077 z m 0.22591,1.80677 c -0.0412,0.0264 -0.0798,0.0583 -0.11606,0.0935 -0.005,0.005 -0.0107,0.0112 -0.0168,0.0161 l 7.1e-4,1.7e-4 c -0.0377,0.0397 -0.0727,0.0839 -0.10322,0.13227 l -4.3e-4,2.6e-4 c -0.0125,0.0195 -0.0237,0.0397 -0.0342,0.0609 -0.22767,0.44254 0.0301,0.96962 0.47422,0.96939 0.2544,-1.3e-4 0.52201,-0.17666 0.64154,-0.4238 0.0798,-0.16519 0.10182,-0.38061 0.0556,-0.5376 -0.0487,-0.16549 -0.17948,-0.32049 -0.32129,-0.38012 -0.18814,-0.0794 -0.40295,-0.0473 -0.58025,0.0687 z m 0.15423,0.25762 c 0.0285,-0.0185 0.0572,-0.0327 0.0823,-0.0399 0.1535,-0.0435 0.32153,0.0454 0.36939,0.19555 0.0638,0.20018 -0.0304,0.4093 -0.22529,0.50092 -0.2948,0.13877 -0.5466,-0.19134 -0.38147,-0.50022 0.0121,-0.022 0.0293,-0.0457 0.0502,-0.0683 l 2.7e-4,4.5e-4 c 0.007,-0.008 0.0146,-0.0148 0.0218,-0.0228 0.0258,-0.024 0.0542,-0.0473 0.0827,-0.0658 z m 1.63665,-0.13265 c -0.0128,0.009 -0.0249,0.0188 -0.0351,0.0308 -0.0244,0.0284 -0.0427,0.0625 -0.048,0.10271 l -0.15811,1.15784 c -6.7e-4,0.003 -0.002,0.006 -9.4e-4,0.01 -0.009,0.10312 0.0642,0.19776 0.16757,0.2143 l 0.4736,0.0748 0.21117,-1.54421 -0.47386,-0.0752 c -0.0501,-0.008 -0.0979,0.004 -0.13641,0.0296 z m 0.82807,0.0807 -0.21091,1.54465 0.37694,0.0594 0.21091,-1.54465 z m 0.59519,0.0942 -0.21117,1.54422 0.37703,0.0606 0.21091,-1.54465 z m 0.59475,0.0945 -0.2109,1.54467 1.83156,0.29153 c 0.10681,0.017 0.20479,-0.0559 0.21982,-0.16251 l 0.15838,-1.15741 c 0.0146,-0.1071 -0.0597,-0.20706 -0.16676,-0.22389 z m 3.62689,4.87602 c -0.0367,0.023 -0.0656,0.0586 -0.0802,0.10362 l -0.5732,1.76345 1.47171,0.51433 0.57264,-1.76435 c 0.0336,-0.10304 -0.0223,-0.21483 -0.1243,-0.25049 l -1.10291,-0.38506 c -0.0572,-0.0197 -0.11667,-0.0111 -0.16382,0.0185 z m -0.72156,2.0773 -0.1177,0.36294 1.47099,0.51415 0.11814,-0.36321 z m -0.18618,0.57272 -0.11814,0.3632 1.4717,0.51431 0.1177,-0.36292 z m -0.18591,0.57315 -0.14868,0.45582 c -0.0322,0.0996 0.0183,0.20815 0.11428,0.24694 0.003,0.003 0.007,0.003 0.009,0.004 l 1.10291,0.38506 c 0.0383,0.0135 0.0768,0.0134 0.11315,0.005 l 1.7e-4,-7.1e-4 c 0.0599,-0.0161 0.11046,-0.0606 0.13121,-0.12514 l 0.14842,-0.45627 z m -0.27747,1.71994 c -0.0988,0.0652 -0.18048,0.15085 -0.2311,0.24998 -0.2021,0.39545 0.14991,0.86423 0.64758,0.86261 0.0236,3e-4 0.0471,-1e-4 0.0701,-0.002 l 1.7e-4,-7.1e-4 c 0.057,-0.005 0.11177,-0.016 0.1643,-0.0315 l 2.7e-4,4.4e-4 c 0.007,-0.003 0.0149,-0.006 0.022,-0.008 0.25585,-0.086 0.44236,-0.2955 0.46055,-0.5462 0.0113,-0.15342 -0.0673,-0.34035 -0.19252,-0.45897 -0.11885,-0.11252 -0.3207,-0.19086 -0.50411,-0.19487 -0.15437,-0.003 -0.30999,0.0456 -0.43727,0.12901 z m 0.20071,0.23279 c 0.1662,-0.10647 0.37586,-0.0879 0.51582,0.0507 0.11199,0.11089 0.11448,0.3005 0.006,0.41748 -0.0356,0.0384 -0.10181,0.0755 -0.16867,0.0986 -0.0103,0.003 -0.0201,0.006 -0.0302,0.009 l 2.7e-4,4.4e-4 c -0.0295,0.009 -0.0586,0.0129 -0.0837,0.0137 -0.3502,0.007 -0.52977,-0.36766 -0.27213,-0.56717 0.0109,-0.008 0.0216,-0.0156 0.0324,-0.0233 z" /><path
           id="path2476"
           style="fill:#000000;stroke:none;stroke-width:0.465;stroke-linecap:round;stroke-dasharray:0.2325, 0.2325;stroke-dashoffset:0;stop-color:#000000"
           d="m 138.65669,126.30981 c -0.26076,0.15968 -0.25779,0.63589 0.007,1.06782 l 0.14438,0.23578 c -0.52646,1.05214 -0.47355,2.30133 0.14,3.30518 0.61518,1.00308 1.70391,1.61826 2.88057,1.62762 l 0.2032,0.33185 c 0.2645,0.43194 0.68757,0.6515 0.94833,0.49183 l 2.13609,-1.30802 c 0.20025,-0.12263 0.24449,-0.43215 0.13464,-0.76474 0.45431,-0.71456 0.6717,-1.5542 0.62125,-2.39945 l -0.47244,0.28929 c -0.009,0.56006 -0.14982,1.11226 -0.41187,1.60833 l -0.0818,-0.13354 c 0.2162,-0.43307 0.33776,-0.90719 0.35659,-1.39086 l -2.41859,1.481 c -0.22531,0.13796 -0.50514,0.10652 -0.7521,-0.02 -0.24697,-0.1265 -0.47914,-0.34903 -0.65719,-0.6398 l -0.56104,-0.91622 c -0.17806,-0.29078 -0.27072,-0.59873 -0.27113,-0.87622 -4.2e-4,-0.27747 0.0988,-0.54101 0.32409,-0.67897 l 2.47985,-1.51852 c -0.4712,-0.2407 -0.99195,-0.36847 -1.52104,-0.37322 l -0.0818,-0.13353 c 0.60489,-0.009 1.20435,0.13798 1.73722,0.42445 l 0.46318,-0.28363 c -0.76505,-0.48309 -1.67056,-0.69431 -2.5704,-0.59959 -0.22248,-0.17986 -0.46733,-0.241 -0.64067,-0.13486 z m 0.79729,1.35145 2.68459,4.38413 a 2.8998795,2.8998795 0 0 1 -0.19029,0.007 l -2.5869,-4.22459 a 2.8998795,2.8998795 0 0 1 0.0926,-0.16636 z m -0.21131,0.42875 2.41795,3.9487 a 2.8998795,2.8998795 0 0 1 -0.20905,-0.0277 l -2.27925,-3.7222 a 2.8998795,2.8998795 0 0 1 0.0703,-0.19879 z m -0.15252,0.52179 2.03637,3.32555 a 2.8998795,2.8998795 0 0 1 -0.24644,-0.0848 l -1.82642,-2.98268 a 2.8998795,2.8998795 0 0 1 0.0365,-0.25806 z m 2.11738,-0.77848 c -0.009,0.006 -0.0176,0.0117 -0.0258,0.0182 l -0.0829,0.0508 c -0.10146,0.0621 -0.16694,0.19532 -0.16666,0.39775 3.4e-4,0.20243 0.0729,0.45944 0.2227,0.70409 l 0.56104,0.91623 c 0.14981,0.24464 0.34571,0.42612 0.5259,0.51842 0.18022,0.0923 0.32831,0.0941 0.42977,0.0319 l 0.10974,-0.0672 2.47455,-1.51527 0.12957,-0.0793 0.0824,-0.0505 0.50814,-0.31115 c 0.0224,-0.0137 0.0431,-0.0311 0.0617,-0.0517 -0.0808,-0.52622 -0.26522,-1.03118 -0.54253,-1.48565 -0.25285,-0.41211 -0.57792,-0.77526 -0.9595,-1.07215 -0.0499,0.004 -0.0947,0.018 -0.13239,0.0411 l -0.27544,0.16866 c -0.009,0.005 -0.0189,0.009 -0.0279,0.0147 z m -2.16327,1.47738 1.43889,2.34982 a 2.8998795,2.8998795 0 0 1 -0.32671,-0.21985 l -1.06487,-1.73903 a 2.8998795,2.8998795 0 0 1 -0.0473,-0.39094 z m 2.68048,-1.31356 0.86951,-0.53244 c 0.0984,-0.0602 0.21693,-0.0322 0.31326,0.0257 0.0963,0.0579 0.18563,0.14976 0.25803,0.26799 0.0724,0.11821 0.11467,0.24127 0.12248,0.3534 0.008,0.11213 -0.0222,0.22872 -0.12059,0.28895 l -0.86951,0.53244 c -0.0984,0.0602 -0.21588,0.0339 -0.31218,-0.0239 -0.0962,-0.058 -0.18493,-0.15263 -0.25732,-0.27085 -0.0724,-0.11822 -0.11539,-0.23842 -0.12319,-0.35055 -0.008,-0.11204 0.0211,-0.23047 0.11951,-0.29071 z m 1.65484,-1.01333 c 0.003,-0.002 0.006,-0.004 0.009,-0.006 l 0.86951,-0.53244 c 0.0984,-0.0602 0.21693,-0.0322 0.31326,0.0257 0.0963,0.0579 0.18563,0.14977 0.25802,0.26799 0.0724,0.11822 0.11468,0.24128 0.12249,0.35341 0.008,0.11213 -0.0222,0.22871 -0.12059,0.28895 l -0.86951,0.53244 c -0.0984,0.0602 -0.21589,0.0339 -0.31219,-0.0239 -0.0963,-0.0579 -0.18492,-0.15262 -0.25731,-0.27084 -0.0724,-0.11823 -0.11539,-0.23842 -0.12319,-0.35055 -0.008,-0.10857 0.0191,-0.22323 0.11025,-0.28504 z m -1.55284,1.17991 c -0.0126,0.008 -0.0315,0.0388 -0.0265,0.11014 0.005,0.0714 0.0366,0.16755 0.0947,0.26254 0.0582,0.095 0.13055,0.16858 0.19186,0.2055 0.0613,0.0368 0.0967,0.0328 0.1093,0.0251 l 0.86951,-0.53244 c 0.0126,-0.008 0.0323,-0.0374 0.0273,-0.10877 -0.005,-0.0714 -0.0354,-0.17068 -0.0936,-0.26566 -0.0582,-0.095 -0.13168,-0.16545 -0.19299,-0.20237 -0.0614,-0.0369 -0.0975,-0.0342 -0.11014,-0.0265 z m 1.66145,-1.01737 c -0.0125,0.01 -0.0285,0.0416 -0.0238,0.10852 0.005,0.0714 0.0348,0.16864 0.093,0.26363 0.0582,0.095 0.13234,0.16748 0.19364,0.2044 0.0613,0.0368 0.0967,0.0328 0.10931,0.0251 l 0.86951,-0.53244 c 0.0126,-0.008 0.0323,-0.0374 0.0273,-0.10878 -0.005,-0.0714 -0.0359,-0.17042 -0.094,-0.2654 -0.0582,-0.095 -0.13126,-0.16571 -0.19256,-0.20263 -0.0614,-0.0369 -0.0975,-0.0342 -0.11014,-0.0265 l -0.86951,0.53244 c -7.9e-4,4.8e-4 -0.002,9.3e-4 -0.003,0.002 z" /><path
           d="M 134.85025,132.15718"
           style="display:inline;fill:none;stroke:#000000;stroke-width:0.14949;stroke-linecap:round;stroke-linejoin:miter;stroke-miterlimit:4;stroke-dasharray:0.14949, 0.14949;stroke-dashoffset:0;stroke-opacity:1"
           id="path2785" /><path
           style="fill:#000000;stroke:none;stroke-width:0.264583px;stroke-linecap:butt;stroke-linejoin:miter;stroke-opacity:1"
           d="m 144.98003,126.01302 1.22962,0.54703 c 0.0354,0.13935 -0.24527,0.7283 -0.24527,0.7283 -0.0305,-0.18565 -0.61155,-0.95182 -0.98435,-1.27533 z"
           id="path2965"
           sodipodi:nodetypes="cccc" /></g></g></g></svg>
