<?xml version="1.0" encoding="UTF-8" standalone="no"?>
<!-- Created with Inkscape (http://www.inkscape.org/) -->

<svg
   sodipodi:docname="Hatchetman.svg"
   inkscape:version="1.1.2 (0a00cf5339, 2022-02-04)"
   id="svg8"
   version="1.1"
   viewBox="0 0 34.98301 52.516205"
   height="52.516205mm"
   width="34.983009mm"
   xmlns:inkscape="http://www.inkscape.org/namespaces/inkscape"
   xmlns:sodipodi="http://sodipodi.sourceforge.net/DTD/sodipodi-0.dtd"
   xmlns="http://www.w3.org/2000/svg"
   xmlns:svg="http://www.w3.org/2000/svg"
   xmlns:rdf="http://www.w3.org/1999/02/22-rdf-syntax-ns#"
   xmlns:cc="http://creativecommons.org/ns#"
   xmlns:dc="http://purl.org/dc/elements/1.1/">
  <defs
     id="defs2" />
  <sodipodi:namedview
     id="base"
     pagecolor="#ffffff"
     bordercolor="#666666"
     borderopacity="1.0"
     inkscape:pageopacity="0.0"
     inkscape:pageshadow="2"
     inkscape:zoom="5.6568543"
     inkscape:cx="78.223687"
     inkscape:cy="97.669123"
     inkscape:document-units="mm"
     inkscape:current-layer="layer1"
     showgrid="false"
     inkscape:window-width="1850"
     inkscape:window-height="1016"
     inkscape:window-x="70"
     inkscape:window-y="1107"
     inkscape:window-maximized="1"
     inkscape:snap-global="false"
     fit-margin-top="0"
     fit-margin-left="0"
     fit-margin-right="0"
     fit-margin-bottom="0"
     showguides="true"
     inkscape:guide-bbox="true"
     inkscape:pagecheckerboard="0" />
  <metadata
     id="metadata5">
    <rdf:RDF>
      <cc:Work
         rdf:about="">
        <dc:format>image/svg+xml</dc:format>
        <dc:type
           rdf:resource="http://purl.org/dc/dcmitype/StillImage" />
      </cc:Work>
    </rdf:RDF>
  </metadata>
  <g
     inkscape:label="Capa 1"
     inkscape:groupmode="layer"
     id="layer1"
     transform="translate(-135.48963,-99.590537)">
    <path
       id="rect21856"
       style="fill:#000000;stroke:none;stroke-width:0.623622;stroke-linecap:round;stroke-miterlimit:4;stroke-dasharray:none;stop-color:#000000"
       d="M 33.142578 57.677734 C 31.689803 58.114534 30.333781 58.792006 28.857422 59.164062 L 29.072266 60.980469 L 31.595703 61.621094 L 32.152344 63.414062 L 38.337891 61.779297 C 37.995843 60.130969 37.669206 58.999087 37.482422 58.970703 L 36.882812 59.132812 L 36.578125 58.207031 L 36.5625 58.207031 L 36.544922 58.152344 L 36.347656 58.171875 L 33.142578 57.677734 z M 28.398438 61.451172 C 27.880604 61.599329 27.030006 61.877728 26.046875 62.242188 L 28.732422 79.427734 C 29.892321 78.987268 31.09601 78.505593 32.253906 78.029297 L 32.394531 79.753906 L 32.414062 79.751953 L 32.414062 79.753906 L 33.441406 79.777344 L 34.935547 92.162109 C 34.618067 92.329164 34.296939 92.486023 33.966797 92.607422 L 34.232422 95.863281 L 34.25 95.859375 L 34.25 95.861328 L 35.130859 95.878906 L 35.292969 97.701172 C 36.364805 98.318255 37.122102 98.582443 37.654297 98.625 L 35.746094 79.714844 L 36.367188 79.65625 L 38.273438 98.546875 C 38.868789 98.301206 38.894635 97.562707 38.841797 97.058594 C 38.864474 96.32015 38.807766 95.52898 38.759766 95.054688 L 39.664062 94.539062 L 39.921875 94.476562 L 39.523438 92.767578 L 39.271484 91.654297 L 39.261719 91.652344 L 39.246094 91.601562 L 39.109375 91.619141 L 38.423828 91.462891 L 37.208984 78.785156 L 37.828125 78.431641 L 38.083984 78.369141 L 37.685547 76.660156 L 37.490234 75.789062 C 38.405447 75.384729 39.085938 75.080078 39.085938 75.080078 C 39.503424 74.817401 39.650273 73.664558 39.626953 72.087891 L 33.453125 73.666016 C 32.792237 73.834961 32.105687 73.435473 31.925781 72.777344 L 31.648438 71.765625 C 31.468532 71.107647 31.862738 70.430664 32.523438 70.261719 L 39.382812 68.507812 C 39.282655 67.572455 39.157484 66.610584 39.019531 65.673828 L 31.9375 67.546875 C 31.198035 67.742277 30.437589 67.297832 30.242188 66.558594 L 29.945312 65.439453 C 29.749911 64.700026 30.1921 63.937589 30.931641 63.742188 L 31.554688 63.578125 L 31.111328 62.140625 L 28.398438 61.451172 z M 38.521484 62.324219 C 38.498114 62.32597 38.473972 62.330874 38.451172 62.337891 L 31.076172 64.287109 C 30.630679 64.405031 30.374644 64.843796 30.492188 65.289062 L 30.789062 66.410156 C 30.906984 66.855649 31.345749 67.109731 31.791016 66.992188 L 38.933594 65.103516 C 40.203556 64.674727 39.245953 62.26992 38.521484 62.324219 z M 24.953125 62.664062 C 22.863311 63.501341 20.529191 64.626001 19.501953 65.720703 L 22.101562 81.240234 C 22.851421 81.428833 25.05205 80.778728 27.630859 79.837891 L 24.953125 62.664062 z M 39.505859 68.970703 C 39.480485 68.971561 39.45563 68.974531 39.429688 68.980469 L 32.646484 70.714844 C 32.229187 70.821426 31.991705 71.22935 32.105469 71.644531 L 32.380859 72.65625 C 32.494623 73.071733 32.911092 73.313614 33.328125 73.207031 L 39.613281 71.599609 C 40.784386 71.286924 40.292454 68.94411 39.505859 68.970703 z M 53.208984 76.056641 C 50.810988 76.162467 49.102369 76.298519 48.568359 76.462891 C 50.662974 77.924245 52.363353 81.495874 53.208984 83.535156 L 53.208984 76.056641 z M 48.681641 78.234375 C 47.817641 79.425342 48.004387 83.190649 48.681641 83.517578 L 52.748047 83.517578 C 51.897578 82.080186 50.515127 79.889619 49.080078 78.234375 L 48.681641 78.234375 z M 47.580078 78.322266 C 47.001123 78.336837 46.539062 78.808036 46.539062 79.390625 L 46.539062 81.376953 C 46.539062 81.968789 47.015586 82.445312 47.607422 82.445312 L 47.802734 82.445312 C 47.532876 81.358547 47.538327 79.400149 47.982422 78.322266 L 47.607422 78.322266 C 47.598174 78.322266 47.589268 78.322034 47.580078 78.322266 z M 48.386719 83.910156 C 48.386719 83.910156 46.775345 88.063014 45.931641 90.648438 C 46.474532 90.908847 46.999123 91.224994 47.490234 91.591797 C 48.394524 92.269239 49.164623 93.097335 49.732422 94 L 52.636719 84.541016 L 52.310547 83.957031 L 51.935547 83.953125 C 51.905311 84.014731 51.877141 84.077939 51.871094 84.095703 L 50.546875 88.027344 C 50.362812 88.573297 49.764476 88.86961 49.21875 88.685547 L 48.707031 88.513672 C 48.161078 88.329609 47.864765 87.731273 48.048828 87.185547 L 49.158203 83.919922 L 48.386719 83.910156 z M 49.654297 83.925781 L 48.496094 87.335938 C 48.393291 87.640945 48.552414 87.963603 48.857422 88.066406 L 49.367188 88.238281 C 49.672573 88.341084 49.994853 88.181961 50.097656 87.876953 L 51.460938 83.947266 L 49.654297 83.925781 z M 44.716797 91.480469 L 44.716797 91.482422 C 42.282932 91.689918 41.20846 92.728594 40.634766 94.611328 C 40.634766 94.611328 43.277186 94.923876 44.044922 95.779297 C 45.123939 97.002881 44.580078 100.25391 44.580078 100.25391 C 44.580078 100.25391 45.288789 101.068 45.707031 102.3457 C 46.042653 102.26633 46.354325 102.14708 46.634766 101.99023 C 48.921418 100.51977 48.116675 101.3761 49.273438 98.851562 C 49.54443 96.987084 50.394402 94.625352 47.246094 92.486328 C 46.207215 91.814706 45.438384 91.458585 44.716797 91.480469 z M 40.996094 95.701172 C 40.984755 95.701588 40.976562 95.703125 40.976562 95.703125 C 39.9926 96.142382 39.095703 97.361328 39.095703 97.361328 L 41.328125 97.919922 L 41.892578 97.533203 C 41.285435 98.599559 41.424255 99.233131 41.482422 100.38672 C 41.65628 101.01329 43.017578 100.72461 43.017578 100.72461 C 43.963934 99.412357 43.429688 96.498047 43.429688 96.498047 C 42.741587 95.755672 41.380545 95.701172 41.050781 95.701172 L 41.048828 95.701172 C 41.026151 95.701172 40.987779 95.708731 40.996094 95.701172 z M 38.939453 97.746094 C 38.939453 97.746094 38.969718 99.933153 39.091797 100.07031 C 39.135639 100.52352 39.806641 101.35742 39.806641 101.35742 C 40.67151 101.79959 41.089844 100.89453 41.089844 100.89453 C 41.36197 100.57592 41.166016 98.3125 41.166016 98.3125 L 38.939453 97.746094 z M 34.6875 98.068359 L 33.105469 98.951172 L 32.966797 101.23242 L 36.546875 102.38281 L 36.527344 100.0293 L 37.214844 98.863281 L 34.6875 98.068359 z M 38.630859 98.917969 L 37.509766 99.042969 L 36.908203 100.10156 L 36.935547 102.33008 L 39.363281 101.57422 C 39.16788 101.31154 38.797713 100.77753 38.765625 100.44531 C 38.693814 100.36367 38.6536 99.558372 38.632812 98.917969 L 38.630859 98.917969 z M 43.820312 101.12305 L 43.820312 101.125 C 43.766265 101.12443 43.710926 101.13319 43.652344 101.14453 C 43.652344 101.14453 41.93056 101.65684 41.681641 101.24219 C 41.666523 101.39564 41.746296 102.51366 40.548828 102.24414 C 40.548828 102.24414 41.686326 103.73218 41.005859 105.38281 L 42.009766 107.21094 C 42.009766 107.21094 44.921946 105.37386 44.964844 103.72852 C 44.983741 102.79433 44.636804 101.13219 43.820312 101.12305 z M 34.146484 101.7832 L 32.564453 102.66406 L 32.427734 104.94727 L 36.449219 106.26953 L 36.429688 103.91602 L 37.117188 102.75 L 34.146484 101.7832 z M 39.146484 102.5957 L 37.378906 102.81641 L 36.775391 103.875 L 36.802734 106.10352 L 39.824219 105.21484 C 40.841327 104.558 40.398982 102.57393 39.146484 102.5957 z M 34.703125 106.09961 L 33.443359 106.71484 L 33.333984 108.30664 L 36.535156 109.22852 L 36.515625 107.58789 L 37.0625 106.77344 L 34.703125 106.09961 z M 38.65625 106.35352 L 37.429688 106.66992 L 36.826172 107.44336 L 36.853516 109.07227 L 39.333984 108.26562 C 40.350564 107.78581 39.909302 106.35352 38.658203 106.35352 L 38.65625 106.35352 z M 40.953125 107.06445 L 40.472656 108.85742 L 37.710938 109.92383 L 34.980469 109.32617 L 35.21875 111.40234 C 35.21875 111.40234 33.202263 114.74874 33.376953 115.22852 C 34.253766 117.63789 39.88769 114.56622 40.359375 114.5293 C 41.673781 114.33541 40.837891 110.13477 40.837891 110.13477 L 41.417969 109.24023 L 40.953125 107.06445 z "
       transform="matrix(0.26458333,0,0,0.26458333,135.48963,99.590537)" />
    <path
       id="path6324"
       style="fill:#000000;stroke:none;stroke-width:0.999999px;stroke-linecap:butt;stroke-linejoin:miter;stroke-opacity:1"
       d="M 55.492188 74.949219 L 54.189453 75.298828 L 54.189453 78.716797 L 55.890625 79.699219 L 55.761719 81.220703 C 56.253058 80.930861 56.823907 80.761719 57.433594 80.761719 C 59.254872 80.761719 60.740234 82.249037 60.740234 84.070312 C 60.740234 84.429476 60.680957 84.773871 60.574219 85.097656 L 66.226562 85.552734 L 76.986328 84.6875 L 76.5625 79.699219 L 78.263672 78.716797 L 78.263672 75.298828 L 76.960938 74.949219 L 76.960938 78.818359 L 71.076172 78.818359 L 71.076172 79.257812 L 68.384766 81.949219 L 66.226562 81.949219 L 64.068359 81.949219 L 61.376953 79.257812 L 61.376953 78.818359 L 55.492188 78.818359 L 55.492188 74.949219 z M 78.685547 79.40625 L 77.113281 80.064453 C 77.113281 80.064453 77.507052 83.973181 77.484375 84.082031 C 77.462038 84.191071 78.685547 83.720703 78.685547 83.720703 L 78.685547 79.40625 z M 53.693359 79.660156 L 53.693359 83.974609 C 53.693359 83.974609 53.894704 84.050955 54.130859 84.134766 C 54.130434 84.113012 54.126953 84.092167 54.126953 84.070312 C 54.126953 83.144278 54.511882 82.304496 55.128906 81.703125 C 55.201279 80.964507 55.265625 80.316406 55.265625 80.316406 L 53.693359 79.660156 z M 57.460938 81.351562 A 2.7147149 2.7147149 0 0 0 56.072266 81.736328 A 2.7147149 2.7147149 0 0 0 55.894531 81.851562 C 55.866088 81.871348 55.838183 81.89128 55.810547 81.912109 A 2.7147149 2.7147149 0 0 0 55.755859 81.955078 C 55.735822 81.970998 55.714884 81.985486 55.695312 82.001953 L 55.695312 82.007812 A 2.7147149 2.7147149 0 0 0 55.013672 82.894531 C 55.015104 82.879325 55.01418 82.880533 55.015625 82.865234 C 54.83473 83.228076 54.732422 83.636672 54.732422 84.070312 C 54.732422 84.158419 54.737886 84.244203 54.746094 84.330078 C 54.75259 84.33162 54.755555 84.330648 54.761719 84.332031 A 2.7147149 2.7147149 0 0 0 56.216797 86.474609 A 2.7147149 2.7147149 0 0 0 57.460938 86.78125 A 2.7147149 2.7147149 0 0 0 60.175781 84.066406 A 2.7147149 2.7147149 0 0 0 57.460938 81.351562 z M 57.488281 82.335938 A 1.7182509 1.7182509 0 0 1 59.207031 84.054688 A 1.7182509 1.7182509 0 0 1 57.488281 85.773438 A 1.7182509 1.7182509 0 0 1 55.769531 84.054688 A 1.7182509 1.7182509 0 0 1 57.488281 82.335938 z M 77.201172 85.269531 L 73.105469 85.667969 L 74.912109 93.15625 L 75.269531 93.15625 L 75.433594 91.199219 L 77.201172 85.269531 z M 61.375 85.806641 L 66.154297 88.5625 L 70.777344 85.894531 L 66.529297 86.308594 L 61.375 85.806641 z M 60.113281 86.230469 L 58.554688 93.15625 L 73.753906 93.15625 L 72.197266 86.230469 C 70.196308 87.38708 68.177588 88.51841 66.203125 89.71875 C 64.151144 88.597251 62.143492 87.392484 60.113281 86.230469 z M 58.878906 87.033203 C 58.441464 87.246482 57.95188 87.369141 57.433594 87.369141 C 57.086855 87.369141 56.751979 87.314175 56.4375 87.214844 L 57.625 91.199219 L 57.693359 92.03125 L 58.878906 87.033203 z M 57.871094 93.871094 L 58.138672 97.074219 L 66.529297 97.234375 L 74.919922 97.074219 L 75.1875 93.871094 L 57.871094 93.871094 z M 59.089844 97.681641 C 58.678372 97.692012 58.349609 98.027367 58.349609 98.441406 L 58.349609 100.28125 C 58.349609 100.70186 58.688763 101.04102 59.109375 101.04102 L 73.949219 101.04102 C 74.36983 101.04102 74.708984 100.70186 74.708984 100.28125 L 74.708984 98.441406 C 74.708984 98.020795 74.36983 97.681641 73.949219 97.681641 L 59.109375 97.681641 C 59.102803 97.681641 59.096375 97.681476 59.089844 97.681641 z M 59.089844 101.24023 C 58.678372 101.25061 58.349609 101.58596 58.349609 102 L 58.349609 103.83984 C 58.349609 104.26046 58.688763 104.59766 59.109375 104.59766 L 60.15625 104.59766 L 60.15625 104.02344 C 60.15625 103.5849 60.600541 103.46335 60.994141 103.23242 C 63.164345 101.96046 64.733811 101.31628 66.285156 101.3125 C 67.836426 101.30834 69.369397 101.94372 71.458984 103.23242 C 71.847331 103.47193 72.292969 103.58501 72.292969 104.02344 L 72.292969 104.59766 L 73.949219 104.59766 C 74.36983 104.59766 74.708984 104.26046 74.708984 103.83984 L 74.708984 102 C 74.708984 101.57939 74.36983 101.24023 73.949219 101.24023 L 59.109375 101.24023 C 59.102803 101.24023 59.096375 101.24007 59.089844 101.24023 z "
       transform="matrix(0.26458333,0,0,0.26458333,135.48963,99.590537)" />
    <rect
       style="opacity:1;vector-effect:none;fill:#1a1a1a;fill-opacity:1;stroke:none;stroke-width:0.1;stroke-linecap:butt;stroke-linejoin:miter;stroke-miterlimit:4;stroke-dasharray:none;stroke-dashoffset:0;stroke-opacity:1"
       id="rect860"
       width="7.0941477"
       height="0"
       x="148.86763"
       y="129.31949" />
    <path
       id="path962"
       style="fill:#000000;stroke:none;stroke-width:0.0649999;stroke-linecap:butt;stroke-linejoin:miter;stroke-miterlimit:4;stroke-dasharray:none;stroke-opacity:1"
       d="m 153.71797,115.96776 v 5.2e-4 a 0.18249999,0.18249999 0 0 0 -0.18086,0.14159 l -0.0982,0.43615 c -0.28436,-0.0188 -0.60789,-0.0245 -0.88883,-0.0129 l -0.0951,-0.42271 a 0.18249999,0.18249999 0 0 0 -0.18087,-0.14159 v -5.2e-4 a 0.18249999,0.18249999 0 0 0 -0.0377,0.005 0.18249999,0.18249999 0 0 0 -0.13694,0.21704 l 0.0837,0.37207 c -0.14197,0.0189 -0.24943,0.046 -0.29972,0.0822 l -0.0848,0.2155 c -0.90152,0.25469 -1.86485,0.78152 -3.05666,1.56372 a 0.23249999,0.23249999 0 0 0 -0.0682,0.32246 0.23249999,0.23249999 0 0 0 0.32246,0.0667 c 1.11089,-0.7291 1.99196,-1.2122 2.78381,-1.46245 l -0.0103,0.0889 0.0171,0.002 c -0.0159,0.006 -0.0337,0.0119 -0.0465,0.0186 v 0.77566 c 0.46818,0.36465 2.04556,0.38457 2.51302,0 v -0.77566 c -0.009,-0.004 -0.0233,-0.007 -0.0341,-0.0108 l -0.0134,-0.11214 c 0.79497,0.24547 1.67649,0.73144 2.79001,1.47588 a 0.23249999,0.23249999 0 0 0 0.32246,-0.0646 0.23249999,0.23249999 0 0 0 -0.0646,-0.32246 c -1.19344,-0.79785 -2.15831,-1.32796 -3.0639,-1.57768 l -0.0801,-0.20361 c -0.0628,-0.0244 -0.16945,-0.0459 -0.30334,-0.0636 l 0.0884,-0.39119 a 0.18249999,0.18249999 0 0 0 -0.13901,-0.21704 0.18249999,0.18249999 0 0 0 -0.0377,-0.005 z m -1.13119,0.99943 c 0.37749,-0.004 0.76666,0.003 1.11828,0.0202 0.14222,0.007 0.23812,0.0135 0.29455,0.0186 l 0.0481,0.39946 c -0.27627,-0.0511 -0.72075,-0.0798 -1.15187,-0.0791 -0.36678,6.4e-4 -0.72208,0.0232 -0.95498,0.0713 l 0.0491,-0.41186 c 0.18591,-0.0119 0.2884,-0.0152 0.59687,-0.0186 z" />
    <path
       id="path1385"
       style="fill:#000000;stroke:none;stroke-width:0.245669;stroke-linecap:butt;stroke-linejoin:miter;stroke-miterlimit:4;stroke-dasharray:none;stroke-opacity:1"
       d="M 55.919922 70.921875 L 55.919922 78.085938 L 61.46875 78.085938 L 61.46875 70.921875 L 55.919922 70.921875 z M 70.853516 70.921875 L 70.853516 78.085938 L 76.400391 78.085938 L 76.400391 70.921875 L 70.853516 70.921875 z M 61.935547 71.525391 L 61.951172 78.558594 L 64.3125 80.919922 L 67.908203 80.919922 L 70.386719 78.705078 L 70.341797 71.611328 C 67.691246 72.577602 64.722472 72.667457 61.935547 71.525391 z M 62.337891 73.175781 L 62.857422 73.175781 L 62.857422 76.869141 L 62.337891 76.869141 L 62.337891 73.175781 z M 63.101562 73.175781 L 63.921875 73.175781 L 63.921875 76.869141 L 63.101562 76.869141 L 63.101562 73.175781 z M 64.166016 73.175781 L 64.984375 73.175781 L 64.984375 76.869141 L 64.166016 76.869141 L 64.166016 73.175781 z M 65.228516 73.175781 L 66.046875 73.175781 L 66.046875 76.869141 L 65.228516 76.869141 L 65.228516 73.175781 z M 66.291016 73.175781 L 67.109375 73.175781 L 67.109375 76.869141 L 66.291016 76.869141 L 66.291016 73.175781 z M 67.353516 73.175781 L 68.173828 73.175781 L 68.173828 76.869141 L 67.353516 76.869141 L 67.353516 73.175781 z M 68.417969 73.175781 L 69.236328 73.175781 L 69.236328 76.869141 L 68.417969 76.869141 L 68.417969 73.175781 z M 69.480469 73.175781 L 69.998047 73.175781 L 69.998047 76.869141 L 69.480469 76.869141 L 69.480469 73.175781 z M 56.167969 73.205078 L 57.292969 73.205078 L 57.292969 76.898438 L 56.167969 76.898438 L 56.167969 73.205078 z M 57.535156 73.205078 L 58.568359 73.205078 L 58.568359 76.898438 L 57.535156 76.898438 L 57.535156 73.205078 z M 58.820312 73.205078 L 59.853516 73.205078 L 59.853516 76.898438 L 58.820312 76.898438 L 58.820312 73.205078 z M 60.097656 73.205078 L 61.220703 73.205078 L 61.220703 76.898438 L 60.097656 76.898438 L 60.097656 73.205078 z M 71.101562 73.205078 L 72.226562 73.205078 L 72.226562 76.898438 L 71.101562 76.898438 L 71.101562 73.205078 z M 72.46875 73.205078 L 73.501953 73.205078 L 73.501953 76.898438 L 72.46875 76.898438 L 72.46875 73.205078 z M 73.753906 73.205078 L 74.787109 73.205078 L 74.787109 76.898438 L 73.753906 76.898438 L 73.753906 73.205078 z M 75.03125 73.205078 L 76.154297 73.205078 L 76.154297 76.898438 L 75.03125 76.898438 L 75.03125 73.205078 z "
       transform="matrix(0.26458333,0,0,0.26458333,135.48963,99.590537)" />
    <path
       id="rect8181"
       style="stroke-width:1.67079;stroke-linecap:round;stop-color:#000000"
       d="M 66.277344 102.08398 C 64.935902 102.08781 63.577757 102.67685 61.701172 103.83984 C 61.360475 104.05099 60.976562 104.16161 60.976562 104.5625 L 60.976562 117.38477 C 60.976562 117.78558 61.300315 118.10938 61.701172 118.10938 L 63.257812 118.10938 L 63.257812 111.30859 C 63.257812 110.69767 63.762162 110.19336 64.373047 110.19336 L 68.078125 110.19336 C 68.689048 110.19336 69.193359 110.69767 69.193359 111.30859 L 69.193359 118.10938 L 70.75 118.10938 C 71.150819 118.10938 71.472656 117.78562 71.472656 117.38477 L 71.472656 104.5625 C 71.472656 104.16164 71.085772 104.0588 70.75 103.83984 C 68.943105 102.66155 67.618785 102.08016 66.277344 102.08398 z M 64.373047 110.50781 C 63.929557 110.50781 63.572266 110.86503 63.572266 111.30859 L 63.572266 118.21484 C 63.572266 118.65833 63.929482 119.01562 64.373047 119.01562 L 68.078125 119.01562 C 68.521615 119.01562 68.878906 118.65841 68.878906 118.21484 L 68.878906 111.30859 C 68.878906 110.8651 68.52169 110.50781 68.078125 110.50781 L 64.373047 110.50781 z "
       transform="matrix(0.26458333,0,0,0.26458333,135.48963,99.590537)" />
    <path
       id="rect15785-4-6"
       style="stroke-width:0.585332;stroke-linecap:round;stop-color:#000000"
       d="M 78.107422 102.375 C 77.677282 102.39666 77.337891 102.74987 77.337891 103.18555 L 77.337891 109.13672 C 77.337891 109.30277 77.387757 109.45565 77.472656 109.58398 L 77.472656 109.85156 C 77.472656 109.99027 77.521751 110.11343 77.599609 110.21094 L 78.152344 110.21094 L 79.787109 117.10742 C 80.416212 116.89713 81.122392 116.6869 81.789062 116.5293 C 81.939223 116.49377 82.086091 116.46188 82.230469 116.43164 L 80.681641 109.9043 C 80.681641 109.9043 80.681641 109.90234 80.681641 109.90234 C 80.682972 109.88611 80.683594 109.86826 80.683594 109.85156 L 80.683594 109.58984 C 80.770963 109.46031 80.820312 109.30538 80.820312 109.13672 L 80.820312 103.18555 C 80.820312 102.73582 80.459529 102.375 80.009766 102.375 L 78.150391 102.375 C 78.136336 102.375 78.121297 102.3743 78.107422 102.375 z M 75.345703 103.33008 L 75.345703 104.25781 C 75.345703 104.70625 75.006712 105.06641 74.585938 105.06641 L 72.494141 105.06641 L 72.494141 110.21094 L 76.910156 110.21094 C 76.872361 110.0968 76.853516 109.97704 76.853516 109.85156 L 76.853516 103.33008 L 75.345703 103.33008 z M 81.304688 103.33008 L 81.304688 109.85156 C 81.304688 109.97742 81.285842 110.0968 81.248047 110.21094 L 82.792969 110.21094 C 84.758361 108.08223 84.814562 104.96518 82.792969 103.33008 L 81.304688 103.33008 z M 82.974609 110.79297 C 82.959869 110.80771 82.948712 110.82277 82.933594 110.83789 L 81.384766 110.83789 L 82.542969 116.21484 L 83.732422 116.03125 L 82.974609 110.79297 z M 77.851562 110.86914 L 75.972656 110.91211 L 77.972656 117.66016 L 79.353516 117.11133 L 77.851562 110.86914 z M 83.566406 116.67383 C 83.094903 116.66459 82.423597 116.775 81.703125 116.94531 C 80.018363 117.34352 78.069128 118.0674 77.800781 118.3418 C 77.800781 118.3418 78.53881 131.35825 78.869141 132.80078 C 79.092926 133.74479 84.103516 144.92773 84.103516 144.92773 C 84.228807 145.26007 89.786406 144.41585 90.466797 143.41016 C 90.466797 143.41016 89.802393 131.26372 89.664062 130.20508 C 89.486198 129.15822 84.166016 116.83398 84.166016 116.83398 C 84.060567 116.72915 83.849308 116.67937 83.566406 116.67383 z M 84.554688 126.58594 L 84.667969 126.78906 L 86.722656 130.50781 L 86.560547 135.04688 L 83.644531 135.73828 L 81.40625 131.70898 L 81.638672 127.27734 L 84.554688 126.58594 z M 84.005859 127.34375 L 82.425781 127.71875 L 83.738281 131.25977 L 84.160156 135 L 85.744141 134.62305 L 84.425781 131.05273 L 84.005859 127.34375 z M 84.697266 128.09961 L 85.017578 130.91211 L 86.007812 133.58789 L 86.107422 130.6543 L 84.697266 128.09961 z M 82.169922 128.76367 L 82.021484 131.56445 L 83.455078 134.15234 L 83.146484 131.40234 L 82.169922 128.76367 z M 90.919922 136.25977 C 90.875648 136.26079 90.832493 136.26249 90.787109 136.26562 L 90.933594 140.71875 C 94.283135 140.25362 93.709172 136.19512 90.919922 136.25977 z M 80.337891 138.35742 C 77.647132 139.46921 78.927405 143.49923 82.185547 142.41016 L 80.337891 138.35742 z M 92.994141 140.03906 C 92.589807 140.566 91.954659 140.98638 91.068359 141.17773 L 91.107422 144.21875 C 91.782483 144.1201 92.44527 143.84227 93.085938 143.4043 L 92.994141 140.03906 z M 79.886719 142.625 L 81.164062 145.74023 C 81.927036 145.88197 82.645361 145.8681 83.302734 145.68555 L 82.107422 142.88867 C 81.219422 143.07175 80.469484 142.94361 79.886719 142.625 z M 93.755859 143.43164 C 92.713012 144.35815 91.611104 144.73052 90.560547 144.37891 L 90.673828 146.42383 C 94.382376 145.53726 93.755859 143.43164 93.755859 143.43164 z M 89.992188 144.20508 C 88.758814 144.81052 86.120671 145.28429 84.884766 145.35156 C 84.883821 145.35152 84.882333 145.35344 84.880859 145.35352 C 84.884639 145.37733 84.885019 145.39542 84.892578 145.42188 L 85.175781 146.61719 C 85.263164 146.98577 85.631118 147.21231 86 147.125 L 89.769531 146.23242 C 90.138186 146.145 90.364651 145.77709 90.277344 145.4082 L 89.994141 144.21289 C 89.993271 144.209 89.992906 144.20791 89.992188 144.20508 z M 84.003906 145.71875 C 83.117683 146.38353 81.955504 146.3788 80.673828 145.82812 C 80.673828 145.82812 80.744014 148.02262 84.542969 147.69531 L 84.003906 145.71875 z M 88.810547 146.66602 C 88.780892 146.66696 88.750743 146.67061 88.720703 146.67773 L 87.136719 147.05469 C 86.896396 147.11166 86.749668 147.34952 86.806641 147.58984 C 86.863613 147.83017 87.101475 147.97885 87.341797 147.92188 L 88.925781 147.54688 C 89.166104 147.4899 89.314785 147.25009 89.257812 147.00977 C 89.207962 146.79948 89.018134 146.65939 88.810547 146.66602 z M 92.396484 146.91406 C 92.349607 146.91415 92.306434 146.92002 92.265625 146.92969 L 84.082031 148.86914 C 83.755858 148.94662 83.362558 149.40997 83.400391 149.84961 L 84.126953 158.28906 C 84.164748 158.72919 84.656054 158.98279 85.085938 158.88086 L 95.863281 156.32617 C 96.293127 156.22412 96.618921 155.77577 96.455078 155.36523 L 93.314453 147.5 C 93.171256 147.14151 92.724625 146.91344 92.396484 146.91406 z M 92.072266 157.56445 C 92.041738 157.56554 92.010511 157.57101 91.980469 157.57812 L 89.005859 158.2832 C 88.765859 158.34027 88.585992 158.58904 88.673828 158.82031 L 89.654297 161.39258 C 89.743872 161.62275 89.921899 161.78661 90.117188 161.74023 L 92.537109 161.16602 C 92.732511 161.11991 92.822198 160.892 92.796875 160.64648 L 92.517578 157.9082 C 92.497736 157.69291 92.285961 157.55688 92.072266 157.56445 z M 81.916016 159.94141 C 81.659839 159.94141 81.453125 160.14609 81.453125 160.40234 C 79.441396 160.52541 79.104739 160.93513 78.310547 161.66016 C 78.085703 161.66016 77.95721 161.84757 77.904297 162.06641 C 77.472826 163.84547 77.904297 164.61133 77.904297 164.61133 C 77.904297 164.83617 78.085665 165.01758 78.310547 165.01758 L 81.892578 165.01758 L 81.914062 165.01758 L 83.089844 165.01758 L 83.648438 165.01758 L 83.623047 162.83984 C 83.620779 162.65684 83.710081 162.49355 83.847656 162.39453 L 84.5 161.27734 L 84.5 160.40234 C 84.5 160.15422 84.307413 159.95274 84.0625 159.94141 C 84.054941 159.94095 84.048575 159.94141 84.041016 159.94141 L 81.916016 159.94141 z M 98.501953 159.94141 C 98.257974 159.95373 98.066406 160.15484 98.066406 160.40234 L 98.066406 161.27734 L 98.71875 162.39453 C 98.856325 162.49355 98.945627 162.65684 98.943359 162.83984 L 98.916016 165.01758 L 99.474609 165.01758 L 100.65039 165.01758 L 100.67383 165.01758 L 104.25586 165.01758 C 104.48074 165.01758 104.66211 164.83617 104.66211 164.61133 C 104.66211 164.61133 105.09358 163.84547 104.66211 162.06641 C 104.6092 161.84757 104.4807 161.66016 104.25586 161.66016 C 103.46167 160.93513 103.12501 160.52541 101.11328 160.40234 C 101.11328 160.14609 100.90657 159.94141 100.65039 159.94141 L 98.525391 159.94141 C 98.518461 159.94141 98.510835 159.94114 98.503906 159.94141 L 98.501953 159.94141 z M 95.992188 160.0957 L 93.304688 160.12695 L 93.123047 161.63281 C 93.103771 161.79046 93.050702 161.93349 92.966797 162.03516 L 97.820312 161.98047 L 96.810547 160.53125 C 96.671914 160.33226 96.186077 160.09359 95.992188 160.0957 z M 88.482422 160.1543 L 86.089844 160.20898 C 85.896067 160.21121 85.41662 160.4611 85.283203 160.66406 L 84.306641 162.14844 C 84.342924 162.13615 84.377464 162.13187 84.416016 162.13281 L 89.326172 162.07812 C 89.241133 161.9791 89.179054 161.83421 89.160156 161.67773 L 88.482422 160.1543 z M 97.882812 162.43359 L 84.419922 162.58789 C 84.172955 162.59072 83.977636 162.7921 83.980469 163.03906 L 84.003906 165.0918 C 84.006739 165.33876 84.208111 165.53408 84.455078 165.53125 L 97.916016 165.37695 C 98.162982 165.37412 98.360255 165.17275 98.357422 164.92578 L 98.333984 162.87305 C 98.331151 162.62608 98.129779 162.43076 97.882812 162.43359 z "
       transform="matrix(0.26458333,0,0,0.26458333,135.48963,99.590537)" />
    <path
       id="rect15785-4"
       style="stroke-width:0.585332;stroke-linecap:round;stop-color:#000000"
       d="M 53.199219 102.23633 C 52.749455 102.23633 52.386719 102.5991 52.386719 103.04883 L 52.386719 108.99805 C 52.386719 109.16671 52.438021 109.32359 52.525391 109.45312 L 52.525391 109.71484 C 52.525391 109.72952 52.526306 109.7435 52.527344 109.75781 L 50.976562 116.29297 C 51.12094 116.3232 51.269761 116.3551 51.419922 116.39062 C 52.086593 116.54823 52.792773 116.75846 53.421875 116.96875 L 55.056641 110.07422 L 55.609375 110.07422 C 55.687233 109.97671 55.736328 109.85355 55.736328 109.71484 L 55.736328 109.44727 C 55.821328 109.31888 55.871094 109.16421 55.871094 108.99805 L 55.871094 103.04883 C 55.871094 102.5991 55.508358 102.23633 55.058594 102.23633 L 53.199219 102.23633 z M 50.416016 103.19336 C 48.394422 104.82846 48.450623 107.94551 50.416016 110.07422 L 51.960938 110.07422 C 51.923142 109.96008 51.904297 109.8407 51.904297 109.71484 L 51.904297 103.19336 L 50.416016 103.19336 z M 56.355469 103.19336 L 56.355469 109.71484 C 56.355469 109.84032 56.336623 109.96008 56.298828 110.07422 L 60.160156 110.07422 L 60.160156 104.92969 L 58.623047 104.92969 C 58.202272 104.92969 57.863281 104.5695 57.863281 104.12109 L 57.863281 103.19336 L 56.355469 103.19336 z M 50.234375 110.65625 L 49.476562 115.89453 L 50.666016 116.07812 L 51.824219 110.70117 L 50.275391 110.70117 C 50.260273 110.68605 50.249115 110.67099 50.234375 110.65625 z M 55.357422 110.73047 L 53.855469 116.97461 L 55.236328 117.52344 L 57.234375 110.77344 L 55.357422 110.73047 z M 49.640625 116.53711 C 49.357723 116.54265 49.148418 116.59047 49.042969 116.69531 C 49.042969 116.69531 43.720833 129.01955 43.542969 130.06641 C 43.404638 131.12505 42.742188 143.27344 42.742188 143.27344 C 43.422578 144.27913 48.980177 145.1214 49.105469 144.78906 C 49.105469 144.78906 54.116058 133.60612 54.339844 132.66211 C 54.670174 131.21958 55.408203 118.20312 55.408203 118.20312 C 55.139857 117.92873 53.190622 117.20485 51.505859 116.80664 L 51.505859 116.80859 C 50.785387 116.63828 50.112128 116.52787 49.640625 116.53711 z M 48.654297 126.44922 L 51.570312 127.14062 L 51.802734 131.57031 L 49.564453 135.60156 L 46.648438 134.91016 L 46.486328 130.36914 L 48.541016 126.65039 L 48.654297 126.44922 z M 49.201172 127.20703 L 48.783203 130.91406 L 47.464844 134.48633 L 49.048828 134.86133 L 49.470703 131.12109 L 50.783203 127.58203 L 49.201172 127.20703 z M 48.511719 127.96094 L 47.101562 130.51562 L 47.201172 133.45117 L 48.189453 130.77344 L 48.511719 127.96094 z M 51.037109 128.62695 L 50.0625 131.26367 L 49.753906 134.01562 L 51.1875 131.42773 L 51.037109 128.62695 z M 42.220703 136.12109 C 39.488599 136.1214 38.952433 140.12059 42.275391 140.58203 L 42.421875 136.12891 C 42.353799 136.1242 42.286274 136.12109 42.220703 136.12109 z M 52.871094 138.21875 L 51.023438 142.27344 C 54.281579 143.36251 55.561853 139.33054 52.871094 138.21875 z M 40.214844 139.90234 L 40.123047 143.26758 C 40.763715 143.70555 41.426501 143.98339 42.101562 144.08203 L 42.138672 141.03906 C 41.252373 140.84771 40.619178 140.42929 40.214844 139.90234 z M 53.322266 142.48828 C 52.7395 142.8069 51.989562 142.935 51.101562 142.75195 L 49.90625 145.54883 C 50.563623 145.73138 51.281949 145.74525 52.044922 145.60352 L 53.322266 142.48828 z M 39.453125 143.29492 C 39.453125 143.29492 38.826608 145.40055 42.535156 146.28711 L 42.646484 144.24219 C 41.595927 144.5938 40.495972 144.22144 39.453125 143.29492 z M 43.216797 144.06836 C 43.216079 144.07119 43.215713 144.07228 43.214844 144.07617 L 42.931641 145.27148 C 42.844334 145.64037 43.070798 146.00633 43.439453 146.09375 L 47.208984 146.98828 C 47.577866 147.07559 47.943867 146.84905 48.03125 146.48047 L 48.316406 145.28516 C 48.323965 145.2587 48.322392 145.23865 48.326172 145.21484 C 48.324698 145.21477 48.323211 145.21481 48.322266 145.21484 C 47.08636 145.14757 44.45017 144.6738 43.216797 144.06836 z M 49.203125 145.58203 L 48.666016 147.55859 C 52.46497 147.8859 52.533203 145.68945 52.533203 145.68945 C 51.251528 146.24013 50.089349 146.24681 49.203125 145.58203 z M 44.353516 146.5293 C 44.163735 146.54214 43.997462 146.67583 43.951172 146.87109 C 43.894199 147.11142 44.040928 147.35123 44.28125 147.4082 L 45.865234 147.78516 C 46.105557 147.84213 46.345371 147.69345 46.402344 147.45312 C 46.459316 147.2128 46.312588 146.97299 46.072266 146.91602 L 44.488281 146.54102 C 44.443221 146.53033 44.397311 146.52633 44.353516 146.5293 z M 40.810547 146.77734 C 40.482406 146.77672 40.035775 147.00284 39.892578 147.36133 L 36.753906 155.22852 C 36.590064 155.63905 36.915857 156.08545 37.345703 156.1875 L 48.123047 158.74219 C 48.55293 158.84412 49.044236 158.59052 49.082031 158.15039 L 49.808594 149.71289 C 49.846427 149.27326 49.451173 148.80795 49.125 148.73047 L 40.943359 146.79102 C 40.90255 146.78134 40.857424 146.77743 40.810547 146.77734 z M 41.091797 157.42773 C 40.894495 157.43939 40.709831 157.57157 40.691406 157.77148 L 40.412109 160.50977 C 40.386787 160.75528 40.47452 160.98319 40.669922 161.0293 L 43.089844 161.60352 C 43.285132 161.64989 43.465113 161.48603 43.554688 161.25586 L 44.533203 158.68164 C 44.621039 158.45037 44.443125 158.20356 44.203125 158.14648 L 41.228516 157.43945 C 41.183452 157.42879 41.137328 157.42505 41.091797 157.42773 z M 32.535156 159.80469 C 32.290127 159.81694 32.095703 160.01738 32.095703 160.26562 C 30.083974 160.38869 29.747317 160.79841 28.953125 161.52344 C 28.728281 161.52344 28.599788 161.71085 28.546875 161.92969 C 28.115404 163.70875 28.546875 164.47461 28.546875 164.47461 C 28.546875 164.69945 28.728243 164.88086 28.953125 164.88086 L 32.535156 164.88086 L 32.556641 164.88086 L 33.732422 164.88086 L 34.291016 164.88086 L 34.265625 162.70312 C 34.263357 162.52012 34.35266 162.35684 34.490234 162.25781 L 35.142578 161.14062 L 35.142578 160.26562 C 35.142578 160.01746 34.949992 159.81603 34.705078 159.80469 C 34.697519 159.80427 34.691153 159.80469 34.683594 159.80469 L 32.558594 159.80469 C 32.550588 159.80469 32.54306 159.80429 32.535156 159.80469 z M 49.144531 159.80469 C 48.900561 159.81702 48.708984 160.01813 48.708984 160.26562 L 48.708984 161.14062 L 49.361328 162.25781 C 49.498903 162.35684 49.588205 162.52012 49.585938 162.70312 L 49.558594 164.88086 L 50.117188 164.88086 L 51.292969 164.88086 L 51.316406 164.88086 L 54.898438 164.88086 C 55.123319 164.88086 55.304688 164.69942 55.304688 164.47461 C 55.304688 164.47461 55.736158 163.70875 55.304688 161.92969 C 55.251774 161.71085 55.123282 161.52344 54.898438 161.52344 C 54.104245 160.79841 53.767589 160.38869 51.755859 160.26562 C 51.755859 160.00937 51.549145 159.80469 51.292969 159.80469 L 49.167969 159.80469 C 49.16104 159.80469 49.153414 159.80443 49.146484 159.80469 L 49.144531 159.80469 z M 37.216797 159.95703 C 37.022907 159.95491 36.537071 160.19554 36.398438 160.39453 L 35.388672 161.84375 L 40.242188 161.89844 C 40.158282 161.79677 40.10326 161.65374 40.083984 161.49609 L 39.902344 159.98828 L 37.216797 159.95703 z M 44.724609 160.01562 L 44.048828 161.54102 C 44.02993 161.69749 43.965899 161.84043 43.880859 161.93945 L 48.792969 161.99609 C 48.83152 161.99515 48.86606 161.99944 48.902344 162.01172 L 47.925781 160.52734 C 47.792364 160.32438 47.310964 160.0745 47.117188 160.07227 L 44.724609 160.01562 z M 35.326172 162.29492 C 35.079205 162.29209 34.877833 162.48936 34.875 162.73633 L 34.851562 164.78906 C 34.848729 165.03603 35.044049 165.2374 35.291016 165.24023 L 48.753906 165.39453 C 49.000873 165.39736 49.202245 165.20009 49.205078 164.95312 L 49.228516 162.90039 C 49.231349 162.65342 49.034076 162.45205 48.787109 162.44922 L 35.326172 162.29492 z "
       transform="matrix(0.26458333,0,0,0.26458333,135.48963,99.590537)" />
    <path
       id="path878-4"
       style="fill:#000000;stroke:none;stroke-width:0.256158;stroke-linejoin:round"
       d="m 156.49574,119.71378 c 0.63447,0.028 1.08654,0.064 1.22783,0.10749 -0.5542,0.38665 -1.00409,1.33164 -1.22783,1.8712 z m 1.19786,0.5762 c 0.2286,0.31511 0.17919,1.31134 0,1.39784 h -1.07591 c 0.22502,-0.38031 0.5908,-0.95989 0.97049,-1.39784 z m 0.078,1.50171 c 0,0 0.65038,1.48391 0.87361,2.16797 -0.48873,-0.0471 -0.92376,0.1416 -1.22966,0.50164 l -0.76843,-2.50269 0.0863,-0.15451 0.0992,-0.001 c 0.008,0.0163 0.0155,0.033 0.0171,0.0377 l 0.35037,1.04024 c 0.0487,0.14445 0.20701,0.22285 0.3514,0.17415 l 0.13539,-0.0455 c 0.14445,-0.0487 0.22285,-0.20701 0.17415,-0.3514 l -0.29352,-0.86403 z m -0.33538,0.004 0.30644,0.90227 c 0.0272,0.0807 -0.0149,0.16607 -0.0956,0.19327 l -0.13488,0.0455 c -0.0808,0.0272 -0.16607,-0.0149 -0.19327,-0.0956 l -0.3607,-1.03973 z"
       sodipodi:nodetypes="ccccccccccccccccccccccccccccc" />
    <path
       id="rect21856-4"
       style="fill:#000000;stroke:none;stroke-width:0.165;stroke-linecap:round;stroke-miterlimit:4;stroke-dasharray:none;stop-color:#000000"
       d="m 157.96146,120.32142 c 0.15659,0 0.28267,0.12608 0.28267,0.28267 v 0.52555 c 0,0.15659 -0.12608,0.28267 -0.28267,0.28267 h -0.0517 c 0.0714,-0.28754 0.07,-0.8057 -0.0475,-1.09089 z" />
    <path
       id="rect23665"
       style="stroke-width:0.182741;stroke-linecap:round;stop-color:#000000"
       d="m 159.01974,127.87097 c -0.26012,0.11069 -0.26892,0.47696 -0.19293,0.852 4.7e-4,0.002 3.4e-4,0.003 8.4e-4,0.005 0.005,0.0238 0.009,0.0479 0.0155,0.0716 0.002,0.008 0.003,0.0149 0.006,0.0223 0.006,0.024 0.0114,0.0478 0.0185,0.0715 0.008,0.0294 0.015,0.0593 0.023,0.0886 l 0.002,-7.2e-4 c 0.005,0.0168 0.008,0.0345 0.0141,0.051 l 1.99973,-0.75888 c -0.19917,-0.49667 -0.44045,-0.93629 -0.86064,-0.791 z m -0.16142,1.29769 c 0.0236,0.24616 0.35213,1.10408 0.60539,1.59812 l 0.46673,-0.17711 -0.60633,-1.59776 z m 0.62133,-0.23578 0.60633,1.59777 1.0059,-0.38174 -0.60633,-1.59776 z m 1.15954,-0.44004 0.60633,1.59777 0.38701,-0.14686 c -0.1235,-0.51699 -0.35568,-1.11734 -0.60682,-1.59758 z m -1.08071,2.41596 0.22379,0.54463 c 0.25052,0.60972 0.81884,0.8756 1.02298,0.83717 l 0.0875,-0.0332 -0.006,-0.01 0.15655,-0.0594 0.006,0.01 0.42903,-0.16282 -0.002,-0.0109 0.15605,-0.0592 0.002,0.0109 0.005,-0.001 c 0.32107,-0.0472 0.4472,-0.78006 0.25352,-1.24144 l -0.23543,-0.62037 -0.36815,0.13972 0.33856,1.68886 -0.15605,0.0593 -0.33808,-1.68905 -0.96919,0.36778 0.86761,1.48812 -0.15605,0.0592 -0.86906,-1.48755 z" />
    <path
       id="rect26063"
       style="stroke-width:0.165;stroke-linecap:round;stop-color:#000000"
       transform="rotate(-22.540571)"
       d="m 98.124004,175.39568 h 0.544674 c 0.175858,0 0.323268,0.14167 0.317433,0.31743 l -0.09365,2.82117 c -0.0058,0.17576 -0.141575,0.31743 -0.317433,0.31743 H 98.03035 c -0.175857,0 -0.323267,-0.14167 -0.317432,-0.31743 l 0.09365,-2.82117 c 0.0058,-0.17576 0.141575,-0.31743 0.317432,-0.31743 z"
       sodipodi:nodetypes="sssssssss" />
    <rect
       style="fill:#000000;stroke:none;stroke-width:0.165;stroke-linecap:round;stroke-miterlimit:4;stroke-dasharray:none;stop-color:#000000"
       id="rect26338"
       width="0.53171366"
       height="1.3616155"
       x="112.49743"
       y="166.53284"
       ry="0.26585683"
       transform="rotate(-18.076367)" />
    <rect
       style="fill:#000000;stroke:none;stroke-width:0.165;stroke-linecap:round;stroke-miterlimit:4;stroke-dasharray:none;stop-color:#000000"
       id="rect26338-8"
       width="0.53171366"
       height="1.3616155"
       x="110.40681"
       y="166.60732"
       ry="0.26585683"
       transform="rotate(-18.076367)" />
  </g>
</svg>
