<?xml version="1.0" encoding="UTF-8" standalone="no"?>
<!-- Created with Inkscape (http://www.inkscape.org/) -->

<svg
   xmlns:dc="http://purl.org/dc/elements/1.1/"
   xmlns:cc="http://creativecommons.org/ns#"
   xmlns:rdf="http://www.w3.org/1999/02/22-rdf-syntax-ns#"
   xmlns:svg="http://www.w3.org/2000/svg"
   xmlns="http://www.w3.org/2000/svg"
   xmlns:sodipodi="http://sodipodi.sourceforge.net/DTD/sodipodi-0.dtd"
   xmlns:inkscape="http://www.inkscape.org/namespaces/inkscape"
   sodipodi:docname="Marauder.svg"
   inkscape:version="0.92.5 (2060ec1f9f, 2020-04-08)"
   id="svg8"
   version="1.1"
   viewBox="0 0 34.98301 52.516205"
   height="52.516205mm"
   width="34.983009mm">
  <defs
     id="defs2" />
  <sodipodi:namedview
     id="base"
     pagecolor="#ffffff"
     bordercolor="#666666"
     borderopacity="1.0"
     inkscape:pageopacity="0.0"
     inkscape:pageshadow="2"
     inkscape:zoom="2.8284271"
     inkscape:cx="66.142896"
     inkscape:cy="101.5684"
     inkscape:document-units="mm"
     inkscape:current-layer="layer1"
     showgrid="false"
     inkscape:window-width="1848"
     inkscape:window-height="1016"
     inkscape:window-x="72"
     inkscape:window-y="1107"
     inkscape:window-maximized="1"
     inkscape:snap-global="false"
     fit-margin-top="0"
     fit-margin-left="0"
     fit-margin-right="0"
     fit-margin-bottom="0"
     showguides="false"
     inkscape:guide-bbox="true" />
  <metadata
     id="metadata5">
    <rdf:RDF>
      <cc:Work
         rdf:about="">
        <dc:format>image/svg+xml</dc:format>
        <dc:type
           rdf:resource="http://purl.org/dc/dcmitype/StillImage" />
        <dc:title />
      </cc:Work>
    </rdf:RDF>
  </metadata>
  <g
     inkscape:label="Capa 1"
     inkscape:groupmode="layer"
     id="layer1"
     transform="translate(-135.48963,-99.590537)">
    <path
       style="opacity:1;vector-effect:none;fill:#000000;fill-opacity:1;stroke:none;stroke-width:0.14393564;stroke-linecap:round;stroke-linejoin:miter;stroke-miterlimit:4;stroke-dasharray:none;stroke-dashoffset:0;stroke-opacity:1"
       d="m 145.65567,132.84698 0.19513,2.76329 h 2.21719 l 0.16612,-2.26258 c -0.47423,-0.0102 -1.93833,-0.0751 -2.57844,-0.50071 z m -0.29669,2.83769 c -0.10514,0.40739 -0.69644,7.67343 -0.34161,8.64591 h 0.35705 v 0.23164 h 1.22886 l 0.0594,0.86245 h 0.56482 l 0.059,-0.86245 h 1.22886 v -0.23164 h 0.36547 c 0.34169,-0.90678 -0.26277,-8.52763 -0.34161,-8.64591 h -0.48761 v 4.52563 l -0.10576,-0.0791 c -0.5891,-0.44625 -1.39407,-0.41164 -2.00519,0.002 l -0.10249,0.0702 v -4.51813 -4.8e-4 z m 0.61116,0.0656 v 4.24109 c 0.6072,-0.36434 1.35397,-0.38846 1.94951,0.002 v -4.24251 z m 0.48948,8.85554 c -1.61443,0.28789 -2.90186,0.90194 -2.98698,2.41092 0.41384,0.32381 2.68201,0.19731 3.14982,-0.10856 z m 0.97054,0 -0.16284,2.30236 c 0.46781,0.30587 2.73598,0.43237 3.14982,0.10856 -0.0851,-1.50898 -1.37256,-2.12303 -2.98698,-2.41092 z"
       id="rect6206"
       inkscape:connector-curvature="0"
       sodipodi:nodetypes="cccccccccccccccccccccccccccccccccccccc" />
    <path
       inkscape:connector-curvature="0"
       style="opacity:1;vector-effect:none;fill:#000000;fill-opacity:1;stroke:none;stroke-width:0.10268877;stroke-linecap:round;stroke-linejoin:miter;stroke-miterlimit:4;stroke-dasharray:none;stroke-dashoffset:0;stroke-opacity:1"
       d="m 142.58291,123.595 -1.98999,1.72683 0.61958,0.65749 h 0.71784 l 0.95965,-0.82222 c 0.008,-0.37083 0.13889,-0.70144 0.23721,-0.93198 z"
       id="rect5952-0-0-6"
       sodipodi:nodetypes="ccccccc" />
    <path
       style="opacity:1;vector-effect:none;fill:#000000;fill-opacity:1;stroke:none;stroke-width:0.17591582;stroke-linecap:round;stroke-linejoin:miter;stroke-miterlimit:4;stroke-dasharray:none;stroke-dashoffset:0;stroke-opacity:1"
       d="m 143.58577,121.23316 -0.91543,0.82752 0.57456,0.93515 1.18854,-0.45578 -0.0441,-0.072 c -0.44255,-0.25304 -0.75095,-0.69435 -0.80351,-1.23486 z"
       id="rect5169-6-0"
       inkscape:connector-curvature="0" />
    <path
       style="opacity:1;vector-effect:none;fill:#000000;fill-opacity:1;stroke:none;stroke-width:0.06792587;stroke-linecap:round;stroke-linejoin:miter;stroke-miterlimit:4;stroke-dasharray:none;stroke-dashoffset:0;stroke-opacity:1"
       d="m 143.16444,115.17131 -1.37451,1.22477 0.24868,0.73963 1.52264,1.15332 c -0.0418,-0.82828 0.51682,-1.50794 1.11896,-1.66545 l -0.77607,-1.20354 z"
       id="rect5187-3"
       inkscape:connector-curvature="0"
       sodipodi:nodetypes="ccccccc" />
    <path
       style="opacity:1;vector-effect:none;fill:#000000;fill-opacity:1;stroke:none;stroke-width:0.07398558;stroke-linecap:round;stroke-linejoin:miter;stroke-miterlimit:4;stroke-dasharray:none;stroke-dashoffset:0;stroke-opacity:1"
       d="m 162.42168,115.12639 -0.77607,0.34774 -0.62772,1.03076 1.24624,1.963 1.38706,-1.26701 0.19166,-0.82795 z"
       id="rect5187-8-5"
       inkscape:connector-curvature="0"
       sodipodi:nodetypes="ccccccc" />
    <path
       inkscape:connector-curvature="0"
       style="opacity:1;vector-effect:none;fill:#000000;fill-opacity:1;stroke:none;stroke-width:0.13690348;stroke-linecap:round;stroke-linejoin:miter;stroke-miterlimit:4;stroke-dasharray:none;stroke-dashoffset:0;stroke-opacity:1"
       d="m 152.94956,116.5194 c -0.49245,-0.0172 -1.00184,0.1791 -1.38406,0.63972 -0.21672,3.25596 -0.59432,4.95278 -2.48729,5.57999 v 4.05787 c 0.58803,0.37242 7.10317,0.22149 7.61279,-0.15093 v -4.05787 c -1.81409,-0.83928 -2.38145,-2.2772 -2.45985,-5.42906 -0.31361,-0.39203 -0.78913,-0.62258 -1.28159,-0.63972 z m -0.11491,2.18586 c 0.5583,-0.004 1.12046,0.15163 1.34805,0.47551 0.11445,0.14162 0.16725,1.54828 0.16636,2.94263 l 0.23067,2.60349 -0.36915,0.13034 c -0.0206,0.008 -0.0302,0.0138 -0.0429,0.0202 0.19156,-0.63642 0.18179,-5.37966 -0.0296,-5.64388 -0.22175,-0.31877 -0.76932,-0.47125 -1.31331,-0.46778 -0.54401,0.004 -1.08484,0.16287 -1.29275,0.46778 -0.23349,0.31134 -0.22427,4.89537 -0.0403,5.61773 -0.0103,-0.005 -0.0201,-0.0103 -0.0339,-0.0111 l -0.37389,-0.12349 0.24783,-2.6142 c -0.003,-1.37377 0.0494,-2.75419 0.17622,-2.92163 0.21337,-0.30981 0.76832,-0.47218 1.32662,-0.4755 z m 1.27688,3.40657 c 0.0111,0 0.0124,0.17405 0.008,0.40904 -7e-4,0.0375 -0.002,0.0742 -0.003,0.11148 -0.006,0.27352 -0.0202,0.60996 -0.039,0.9107 -0.0373,0.59553 -0.10516,1.12328 -0.15865,1.237 -0.0198,0.0421 -0.0529,0.0517 -0.23624,0.0682 -0.15677,0.0141 -1.31324,0.0209 -1.53071,0.009 -0.17811,-0.01 -0.32931,-0.0253 -0.38032,-0.039 -0.0203,-0.005 -0.0434,-0.0199 -0.0514,-0.0322 -0.0368,-0.056 -0.0794,-0.36108 -0.10634,-0.76279 -0.0452,-0.6738 -0.0721,-1.91149 -0.0416,-1.91101 0.006,1e-4 0.0403,0.005 0.075,0.009 0.26575,0.0379 0.57729,0.0623 0.8794,0.0742 0.21301,0.008 0.42214,0.0114 0.60371,0.005 0.11582,-0.005 0.23675,-0.0131 0.35502,-0.0218 0.1757,-0.013 0.3447,-0.0283 0.47551,-0.0467 0.0746,-0.0104 0.14196,-0.0193 0.14964,-0.0193 z m 0.006,2.83587 c 2.5e-4,8.3e-4 3.6e-4,0.002 8.3e-4,0.003 0.0169,-0.005 0.11328,0.0245 0.12177,0.0193 0.32341,0.13722 0.26963,1.68071 0.15692,1.77381 -0.13231,0.0686 -3.12131,0.0882 -3.20461,0 -0.11271,-0.0784 -0.16855,-1.60816 0.25254,-1.76567 0.029,-0.0109 0.0873,-0.0303 0.10676,-0.0265 0.22249,0.0868 2.36344,0.0738 2.56576,-0.004 z"
       id="rect882" />
    <path
       style="opacity:1;vector-effect:none;fill:#000000;fill-opacity:1;stroke:none;stroke-width:0.29323608;stroke-linecap:butt;stroke-linejoin:miter;stroke-miterlimit:4;stroke-dasharray:none;stroke-dashoffset:0;stroke-opacity:1"
       d="m 151.57584,127.05284 v 0.40336 c 0.10619,-0.14943 0.27806,-0.23827 0.46135,-0.23852 0.31313,1.4e-4 0.56684,0.25413 0.56662,0.56726 -1.9e-4,0.12965 -0.0448,0.25532 -0.12646,0.35605 h 0.80529 c -0.0816,-0.10075 -0.12604,-0.22643 -0.12615,-0.35605 -2.1e-4,-0.31313 0.2535,-0.56712 0.56663,-0.56726 0.18878,1.8e-4 0.36509,0.0943 0.47023,0.2511 v -0.4499 c -0.52567,0.0501 -2.12697,0.0368 -2.61751,0.034 z m 2.15156,0.28303 c -0.24341,4e-5 -0.44072,0.19736 -0.44077,0.44078 5e-5,0.24342 0.19736,0.44073 0.44077,0.44077 0.24354,1.3e-4 0.44105,-0.19723 0.44109,-0.44077 -4e-5,-0.24353 -0.19755,-0.44091 -0.44109,-0.44078 z m -1.67455,0.0123 c -0.24342,4e-5 -0.44075,0.19736 -0.44079,0.44077 4e-5,0.24343 0.19737,0.44074 0.44079,0.44078 0.24341,-4e-5 0.44074,-0.19735 0.44077,-0.44078 -4e-5,-0.24341 -0.19737,-0.44073 -0.44077,-0.44077 z"
       id="rect852"
       inkscape:connector-curvature="0"
       sodipodi:nodetypes="cccccccccccccccccccccc" />
    <path
       style="opacity:1;vector-effect:none;fill:#000000;fill-opacity:1;stroke:none;stroke-width:0.13690348;stroke-linecap:round;stroke-linejoin:miter;stroke-miterlimit:4;stroke-dasharray:none;stroke-dashoffset:0;stroke-opacity:1"
       d="m 147.96384,122.67394 c -1.63161,-0.0152 -3.67884,0.30528 -3.67884,0.30528 -1.9792,1.20305 -1.54265,4.26331 -0.0292,4.78721 h 2.12669 l 2.61421,-1.37764 v -3.64239 c -0.30197,-0.0473 -0.65638,-0.0689 -1.0329,-0.0724 z m -3.17632,2.2892 h 3.37055 c 0.15149,0 0.27313,0.1483 0.27313,0.33272 v 0.24183 c 0,0.33965 -2.15486,1.71208 -2.30635,1.71208 h -1.33733 c -0.15147,0 -0.27355,-0.14831 -0.27355,-0.33273 v -1.62118 c 0,-0.18442 0.12208,-0.33272 0.27355,-0.33272 z"
       id="rect815"
       inkscape:connector-curvature="0"
       sodipodi:nodetypes="cccccccsssssssss" />
    <path
       style="opacity:1;vector-effect:none;fill:#000000;fill-opacity:1;stroke:none;stroke-width:0.13690348;stroke-linecap:round;stroke-linejoin:miter;stroke-miterlimit:4;stroke-dasharray:none;stroke-dashoffset:0;stroke-opacity:1"
       d="m 149.10736,126.91277 c 0.90333,0.13321 1.59389,0.1818 2.37367,0.16808 v 0.67231 c -0.1132,0.0274 -2.08554,0.0274 -2.27076,-0.0137 -0.12691,-0.0823 -0.10291,-0.82666 -0.10291,-0.82666 z"
       id="rect822"
       inkscape:connector-curvature="0"
       sodipodi:nodetypes="ccccc" />
    <path
       style="opacity:1;vector-effect:none;fill:#000000;fill-opacity:1;stroke:none;stroke-width:0.13690348;stroke-linecap:round;stroke-linejoin:miter;stroke-miterlimit:4;stroke-dasharray:none;stroke-dashoffset:0;stroke-opacity:1"
       d="m 156.68709,126.78486 c -0.90331,0.1332 -1.6076,0.27441 -2.38738,0.2607 v 0.67231 c 0.11319,0.0274 2.08554,0.0274 2.27077,-0.0137 0.1283,-0.24835 0.1196,-0.64271 0.11661,-0.91932 z"
       id="rect822-6"
       inkscape:connector-curvature="0"
       sodipodi:nodetypes="ccccc" />
    <path
       style="opacity:1;vector-effect:none;fill:#000000;fill-opacity:1;stroke:none;stroke-width:0.13690348;stroke-linecap:round;stroke-linejoin:miter;stroke-miterlimit:4;stroke-dasharray:none;stroke-dashoffset:0;stroke-opacity:1"
       d="m 157.85641,122.64143 c 1.63161,-0.0152 3.67883,0.30528 3.67883,0.30528 1.9792,1.20305 1.54266,4.2633 0.0292,4.7872 h -2.1267 l -2.61419,-1.37763 v -3.64239 c 0.30197,-0.0473 0.65638,-0.0689 1.03291,-0.0724 z m 3.17632,2.28919 h -3.37055 c -0.15149,0 -0.27314,0.1483 -0.27314,0.33272 v 0.24183 c 0,0.33965 2.15487,1.71208 2.30636,1.71208 h 1.33733 c 0.15147,0 0.27355,-0.14831 0.27355,-0.33273 v -1.62118 c 0,-0.18442 -0.12208,-0.33272 -0.27355,-0.33272 z"
       id="rect815-7"
       inkscape:connector-curvature="0"
       sodipodi:nodetypes="cccccccsssssssss" />
    <path
       style="opacity:1;vector-effect:none;fill:#000000;fill-opacity:1;stroke:none;stroke-width:0.13391452;stroke-linecap:round;stroke-linejoin:miter;stroke-miterlimit:4;stroke-dasharray:none;stroke-dashoffset:0;stroke-opacity:1"
       d="m 160.84533,116.62573 -6.63176,0.0274 v 0.15135 c 0.10683,0.084 0.2052,0.18084 0.29028,0.292 0.002,0.0608 0.005,0.11718 0.005,0.17664 h 6.06794 l 0.1908,0.31257 h -6.24845 c 0.003,0.0644 0.006,0.12541 0.01,0.18824 h 6.35393 l 0.1895,0.31086 h -6.52628 c 0.005,0.0648 0.0104,0.12524 0.0154,0.18823 h 6.62576 l 0.19123,0.31257 h -6.78997 c 0.006,0.0638 0.0143,0.12448 0.0214,0.18651 h 6.88215 l 0.19081,0.31257 h -7.0331 c 0.009,0.0631 0.0188,0.12536 0.0287,0.18652 h 7.11842 l 0.0977,0.16037 v 0.005 l -0.09,0.14707 h -7.0691 c 0.0127,0.0631 0.0252,0.12735 0.039,0.18822 h 6.91561 l -0.1908,0.31257 h -6.64556 c 0.0182,0.0644 0.0385,0.12479 0.0583,0.18652 h 6.47355 l -0.1908,0.31257 h -6.17084 c 0.0253,0.0634 0.0511,0.12612 0.0785,0.18652 h 5.97833 l -0.19081,0.31257 h -5.62801 c 0.0365,0.0641 0.0735,0.12772 0.11318,0.18823 h 5.39949 l -0.1908,0.31258 h -4.97371 c 0.21517,0.25503 0.4659,0.47618 0.76235,0.66759 l 4.47206,-0.0274 1.78539,-2.79899 z"
       id="rect875"
       inkscape:connector-curvature="0"
       sodipodi:nodetypes="cccccccccccccccccccccccccccccccccccccccccccccc" />
    <path
       style="opacity:1;vector-effect:none;fill:#000000;fill-opacity:1;stroke:none;stroke-width:0.13690348;stroke-linecap:round;stroke-linejoin:miter;stroke-miterlimit:4;stroke-dasharray:none;stroke-dashoffset:0;stroke-opacity:1"
       d="m 145.43025,116.57899 c -0.8711,0 -1.58352,0.55249 -1.68678,1.39479 0.38953,-0.52511 0.99996,-0.83758 1.65205,-0.85154 v -0.004 h 2.25103 1.75729 l 0.49846,0.69441 -0.89783,3.52853 h -3.49833 c -0.0232,7.5e-4 -0.0457,0.004 -0.069,0.004 -0.67645,-8.4e-4 -1.31153,-0.32591 -1.70822,-0.87383 v 0.49093 c 0,0.94255 0.75882,1.63333 1.70135,1.63333 1.06972,-0.10454 2.13633,-0.17961 3.3281,-0.0308 1.94123,-0.64113 2.32851,-2.13193 2.55075,-5.46014 0.23757,-0.28539 0.36238,-0.38436 0.66287,-0.48279 -0.13415,-0.0338 -0.11274,-0.0433 -0.25768,-0.0433 z m 0.73748,0.67317 c 0.80626,0.2977 1.38234,1.0708 1.38234,1.98049 0,0.90436 -0.56934,1.67384 -1.36819,1.97533 h 2.71582 l 0.85711,-3.35531 -0.40928,-0.60051 h -1.69898 z"
       id="rect1138-8"
       inkscape:connector-curvature="0"
       sodipodi:nodetypes="sccccccccccsccccsscscccccc" />
    <path
       inkscape:connector-curvature="0"
       style="opacity:1;vector-effect:none;fill:#000000;fill-opacity:1;stroke:none;stroke-width:0.11465666;stroke-linecap:round;stroke-linejoin:miter;stroke-miterlimit:4;stroke-dasharray:none;stroke-dashoffset:0;stroke-opacity:1"
       d="m 145.44783,117.39494 a 1.8385596,1.8385596 0 0 0 -1.83856,1.83856 1.8385596,1.8385596 0 0 0 1.83856,1.83856 1.8385596,1.8385596 0 0 0 1.83856,-1.83856 1.8385596,1.8385596 0 0 0 -1.83856,-1.83856 z m 0.0111,0.17794 v 4.4e-4 c 0.0438,0.005 0.0841,0.0343 0.0986,0.0708 v 0.83224 a 0.76645216,0.76645216 0 0 0 -0.10976,-0.01 0.76645216,0.76645216 0 0 0 -0.10891,0.008 c -1.6e-4,-0.37795 -4.3e-4,-0.83203 0,-0.8318 0.0289,-0.058 0.0762,-0.0766 0.12006,-0.0708 z m 0.76834,0.20753 c 0.0711,0.003 0.12116,0.0752 0.11277,0.13334 l -0.4159,0.72033 a 0.76645216,0.76645216 0 0 0 -0.18866,-0.11062 c 0.18816,-0.32628 0.41479,-0.71943 0.41505,-0.71904 0.027,-0.0182 0.053,-0.0248 0.0767,-0.024 z m -1.53713,8.2e-4 c 0.0214,0.002 0.0412,0.009 0.0566,0.0214 l 0.4159,0.71949 a 0.76645216,0.76645216 0 0 0 -0.18995,0.10976 c -0.18905,-0.32716 -0.41594,-0.71987 -0.41547,-0.71991 -0.005,-0.0647 0.0282,-0.10449 0.069,-0.12133 0.0203,-0.009 0.0426,-0.012 0.0638,-0.01 z m 2.07953,0.56384 c 0.12933,-0.008 0.15737,0.12752 0.10891,0.18909 l -0.71905,0.41547 a 0.76645216,0.76645216 0 0 0 -0.1089,-0.18909 c 0.32727,-0.18917 0.71901,-0.41594 0.71904,-0.41547 z m -2.64163,4.3e-4 0.71775,0.41462 a 0.76645216,0.76645216 0 0 0 -0.10976,0.1891 c -0.32611,-0.18809 -0.71816,-0.41394 -0.71776,-0.4142 -0.0352,-0.054 -0.0273,-0.10434 -4.5e-4,-0.13935 0.0265,-0.0351 0.0716,-0.056 0.1102,-0.0502 z m 1.31974,0.29586 a 0.59181751,0.59181751 0 0 1 0.59213,0.59213 0.59181751,0.59181751 0 0 1 -0.59213,0.5917 0.59181751,0.59181751 0 0 1 -0.5917,-0.5917 0.59181751,0.59181751 0 0 1 0.5917,-0.59213 z m -1.55257,0.48322 h 4.4e-4 c 4.6e-4,0 0.43518,1e-5 0.79408,0 a 0.76645216,0.76645216 0 0 0 -0.008,0.10891 0.76645216,0.76645216 0 0 0 0.008,0.10976 h -0.79408 c -0.14538,-0.0291 -0.14552,-0.19418 -4.4e-4,-0.21867 z m 2.31064,0 c 0.37809,-1.7e-4 0.83159,-4.4e-4 0.83137,0 0.11599,0.0578 0.0728,0.18955 0,0.21867 h -0.83224 a 0.76645216,0.76645216 0 0 0 0.009,-0.10976 0.76645216,0.76645216 0 0 0 -0.008,-0.10891 z m -0.0472,0.39318 0.69032,0.39876 c 0.1115,0.098 0.0288,0.24128 -0.10934,0.18951 0,0 -0.37837,-0.21845 -0.69074,-0.39875 a 0.76645216,0.76645216 0 0 0 0.10976,-0.18952 z m -1.42223,8.3e-4 a 0.76645216,0.76645216 0 0 0 0.10977,0.18909 l -0.6886,0.39747 c -0.14062,0.0475 -0.22325,-0.0953 -0.10933,-0.18909 0,0 0.3772,-0.21785 0.68816,-0.39747 z m 1.18469,0.31729 0.39705,0.68774 c 0.0475,0.14063 -0.0958,0.22327 -0.18952,0.10934 0,0 -0.21749,-0.37675 -0.39704,-0.68774 a 0.76645216,0.76645216 0 0 0 0.18951,-0.10934 z m -0.94415,0.002 a 0.76645216,0.76645216 0 0 0 0.18995,0.10848 l -0.3979,0.68902 c -0.098,0.11149 -0.24128,0.0288 -0.18951,-0.10933 0,0 0.21814,-0.37764 0.39746,-0.68818 z m 0.36189,0.15393 a 0.76645216,0.76645216 0 0 0 0.10891,0.008 0.76645216,0.76645216 0 0 0 0.10976,-0.008 v 0.79449 c -0.0292,0.14554 -0.19445,0.14554 -0.21867,0 z"
       id="path1174-9-1-9" />
    <path
       style="opacity:1;vector-effect:none;fill:#000000;fill-opacity:1;stroke:none;stroke-width:0.1148066;stroke-linecap:round;stroke-linejoin:miter;stroke-miterlimit:4;stroke-dasharray:none;stroke-dashoffset:0;stroke-opacity:1"
       d="m 149.81453,113.55232 v 2.20901 h 1.60531 c -0.50081,-0.46649 -0.73405,-1.73565 -0.71348,-2.20901 z m 5.24813,0 c 0.0206,0.47336 -0.21267,1.74252 -0.71347,2.20901 h 1.6053 v -2.20901 z m -5.35361,2.32221 v 0.5291 h 6.35136 v -0.5291 z"
       id="rect5160"
       inkscape:connector-curvature="0" />
    <path
       style="opacity:1;vector-effect:none;fill:#000000;fill-opacity:1;stroke:none;stroke-width:0.17591582;stroke-linecap:round;stroke-linejoin:miter;stroke-miterlimit:4;stroke-dasharray:none;stroke-dashoffset:0;stroke-opacity:1"
       d="m 147.03693,115.27614 h 1.36227 l 0.23358,1.2515 h -1.82943 z"
       id="rect5169"
       inkscape:connector-curvature="0"
       sodipodi:nodetypes="ccccc" />
    <path
       style="opacity:1;vector-effect:none;fill:#000000;fill-opacity:1;stroke:none;stroke-width:0.17591582;stroke-linecap:round;stroke-linejoin:miter;stroke-miterlimit:4;stroke-dasharray:none;stroke-dashoffset:0;stroke-opacity:1"
       d="m 157.695,115.27614 h 1.38208 l 0.23358,1.2515 h -1.84924 z"
       id="rect5169-4"
       inkscape:connector-curvature="0"
       sodipodi:nodetypes="ccccc" />
    <path
       style="opacity:1;vector-effect:none;fill:#000000;fill-opacity:1;stroke:none;stroke-width:0.17591582;stroke-linecap:round;stroke-linejoin:miter;stroke-miterlimit:4;stroke-dasharray:none;stroke-dashoffset:0;stroke-opacity:1"
       d="m 162.30183,122.80286 0.57432,-0.93529 -0.94427,-0.85394 -0.81877,1.33339 z"
       id="rect5169-6"
       inkscape:connector-curvature="0"
       sodipodi:nodetypes="ccccc" />
    <path
       style="opacity:1;vector-effect:none;fill:#000000;fill-opacity:1;stroke:none;stroke-width:0.14147818;stroke-linecap:round;stroke-linejoin:miter;stroke-miterlimit:4;stroke-dasharray:none;stroke-dashoffset:0;stroke-opacity:1"
       d="m 139.61841,126.04149 c -0.2985,0 -0.55024,0.24025 -0.53896,0.53853 l 0.12606,3.76837 c 0.0113,0.29829 0.27221,0.53853 0.53896,0.53853 h 2.11897 c 0.26675,0 0.52769,-0.24025 0.53897,-0.53853 l 0.12605,-3.76837 c 0.0113,-0.29828 -0.24046,-0.53853 -0.53896,-0.53853 z m 1.18554,0.71004 c 0.72746,0 1.31718,0.58972 1.31718,1.31717 0,0.72746 -0.58972,1.31719 -1.31718,1.31719 -0.72746,0 -1.31717,-0.58973 -1.31717,-1.31719 0,-0.72744 0.58972,-1.31717 1.31717,-1.31717 z"
       id="rect5314"
       inkscape:connector-curvature="0"
       sodipodi:nodetypes="sccssccsssssss" />
    <path
       inkscape:connector-curvature="0"
       style="opacity:1;vector-effect:none;fill:#000000;fill-opacity:1;stroke:none;stroke-width:0.14147818;stroke-linecap:round;stroke-linejoin:miter;stroke-miterlimit:4;stroke-dasharray:none;stroke-dashoffset:0;stroke-opacity:1"
       d="m 163.97276,126.04149 c -0.29849,0 -0.55024,0.24025 -0.53896,0.53853 l 0.12607,3.86354 c 0.0113,0.29828 0.27221,0.53853 0.53896,0.53853 h 2.11897 c 0.26675,0 0.52768,-0.24026 0.53896,-0.53853 l 0.12606,-3.86354 c 0.0113,-0.29828 -0.24046,-0.53853 -0.53895,-0.53853 z m 1.18555,0.71004 c 0.72746,0 1.31719,0.58972 1.31719,1.31717 0,0.72746 -0.58973,1.31719 -1.31719,1.31719 -0.72745,0 -1.31717,-0.58973 -1.31717,-1.31719 0,-0.72744 0.58973,-1.31717 1.31717,-1.31717 z"
       id="rect5314-3"
       sodipodi:nodetypes="sccssccsssssss" />
    <g
       id="g5756"
       transform="matrix(0.82971794,0,0,0.82971794,25.401328,19.891902)">
      <circle
         r="2.2820313"
         cy="113.24606"
         cx="153.64667"
         id="path5401"
         style="opacity:1;vector-effect:none;fill:#000000;fill-opacity:1;stroke:none;stroke-width:0.16500002;stroke-linecap:round;stroke-linejoin:miter;stroke-miterlimit:4;stroke-dasharray:none;stroke-dashoffset:0;stroke-opacity:1" />
      <g
         transform="matrix(0.94959246,0,0,0.94959246,7.6939108,5.7359278)"
         id="g5741">
        <circle
           style="opacity:1;vector-effect:none;fill:#ffffff;fill-opacity:1;stroke:none;stroke-width:0.16500002;stroke-linecap:round;stroke-linejoin:miter;stroke-miterlimit:4;stroke-dasharray:none;stroke-dashoffset:0;stroke-opacity:1"
           id="path5403-2"
           cx="152.51233"
           cy="112.05752"
           r="0.46302083" />
        <circle
           style="opacity:1;vector-effect:none;fill:#ffffff;fill-opacity:1;stroke:none;stroke-width:0.16500002;stroke-linecap:round;stroke-linejoin:miter;stroke-miterlimit:4;stroke-dasharray:none;stroke-dashoffset:0;stroke-opacity:1"
           id="path5403-0"
           cx="154.78099"
           cy="112.05752"
           r="0.46302083" />
        <circle
           style="opacity:1;vector-effect:none;fill:#ffffff;fill-opacity:1;stroke:none;stroke-width:0.16500002;stroke-linecap:round;stroke-linejoin:miter;stroke-miterlimit:4;stroke-dasharray:none;stroke-dashoffset:0;stroke-opacity:1"
           id="path5403-6"
           cx="152.00957"
           cy="113.18819"
           r="0.46302083" />
        <circle
           style="opacity:1;vector-effect:none;fill:#ffffff;fill-opacity:1;stroke:none;stroke-width:0.16500002;stroke-linecap:round;stroke-linejoin:miter;stroke-miterlimit:4;stroke-dasharray:none;stroke-dashoffset:0;stroke-opacity:1"
           id="path5403-1"
           cx="155.39127"
           cy="113.24607"
           r="0.46302083" />
        <g
           id="g5618">
          <circle
             r="0.46302083"
             cy="111.59242"
             cx="153.64667"
             id="path5403"
             style="opacity:1;vector-effect:none;fill:#ffffff;fill-opacity:1;stroke:none;stroke-width:0.16500002;stroke-linecap:round;stroke-linejoin:miter;stroke-miterlimit:4;stroke-dasharray:none;stroke-dashoffset:0;stroke-opacity:1" />
          <circle
             r="0.46302083"
             cy="114.84184"
             cx="153.64667"
             id="path5403-7"
             style="opacity:1;vector-effect:none;fill:#ffffff;fill-opacity:1;stroke:none;stroke-width:0.16500002;stroke-linecap:round;stroke-linejoin:miter;stroke-miterlimit:4;stroke-dasharray:none;stroke-dashoffset:0;stroke-opacity:1" />
          <circle
             r="0.46302083"
             cy="113.21713"
             cx="153.64667"
             id="path5403-3"
             style="opacity:1;vector-effect:none;fill:#ffffff;fill-opacity:1;stroke:none;stroke-width:0.16500002;stroke-linecap:round;stroke-linejoin:miter;stroke-miterlimit:4;stroke-dasharray:none;stroke-dashoffset:0;stroke-opacity:1" />
        </g>
        <circle
           style="opacity:1;vector-effect:none;fill:#ffffff;fill-opacity:1;stroke:none;stroke-width:0.16500002;stroke-linecap:round;stroke-linejoin:miter;stroke-miterlimit:4;stroke-dasharray:none;stroke-dashoffset:0;stroke-opacity:1"
           id="path5403-0-4"
           cx="114.32618"
           cy="-152.51233"
           r="0.46302083"
           transform="rotate(90)" />
        <circle
           style="opacity:1;vector-effect:none;fill:#ffffff;fill-opacity:1;stroke:none;stroke-width:0.16500002;stroke-linecap:round;stroke-linejoin:miter;stroke-miterlimit:4;stroke-dasharray:none;stroke-dashoffset:0;stroke-opacity:1"
           id="path5403-2-2"
           cx="112.05753"
           cy="-154.78101"
           r="0.46302083"
           transform="rotate(90)" />
        <circle
           style="opacity:1;vector-effect:none;fill:#ffffff;fill-opacity:1;stroke:none;stroke-width:0.16500002;stroke-linecap:round;stroke-linejoin:miter;stroke-miterlimit:4;stroke-dasharray:none;stroke-dashoffset:0;stroke-opacity:1"
           id="path5403-0-0"
           cx="114.32619"
           cy="-154.78101"
           r="0.46302083"
           transform="rotate(90)" />
      </g>
    </g>
    <path
       style="opacity:1;vector-effect:none;fill:#000000;fill-opacity:1;stroke:none;stroke-width:0.14063767;stroke-linecap:round;stroke-linejoin:miter;stroke-miterlimit:4;stroke-dasharray:none;stroke-dashoffset:0;stroke-opacity:1"
       d="m 151.73616,128.43953 v 1.19328 h -0.60363 v 1.54614 l 0.52527,3.24014 h 2.439 l 0.52529,-3.24014 v -1.54614 h -0.60405 v -1.19328 z"
       id="rect5791"
       inkscape:connector-curvature="0" />
    <g
       id="g5950"
       transform="matrix(0.90555379,0,0,0.90555379,14.505336,13.004623)">
      <path
         sodipodi:nodetypes="ccccc"
         inkscape:connector-curvature="0"
         id="rect5920"
         d="m 157.3839,127.69404 c 0.20022,-0.0751 2.67801,0 3.70416,0.55063 v 3.80428 c -0.90101,0.55061 -3.50394,0.75083 -3.70416,0.55061 z"
         style="opacity:1;vector-effect:none;fill:#000000;fill-opacity:1;stroke:none;stroke-width:0.12486486;stroke-linecap:round;stroke-linejoin:miter;stroke-miterlimit:4;stroke-dasharray:none;stroke-dashoffset:0;stroke-opacity:1" />
      <path
         sodipodi:nodetypes="ccccc"
         inkscape:connector-curvature="0"
         id="rect5920-6"
         d="m 148.23962,127.69405 c -0.20022,-0.0751 -2.67801,0 -3.70416,0.55062 v 3.80428 c 0.90101,0.55061 3.50394,0.75083 3.70416,0.55061 z"
         style="opacity:1;vector-effect:none;fill:#000000;fill-opacity:1;stroke:none;stroke-width:0.12486486;stroke-linecap:round;stroke-linejoin:miter;stroke-miterlimit:4;stroke-dasharray:none;stroke-dashoffset:0;stroke-opacity:1" />
    </g>
    <path
       style="opacity:1;vector-effect:none;fill:#000000;fill-opacity:1;stroke:none;stroke-width:0.1494164;stroke-linecap:round;stroke-linejoin:miter;stroke-miterlimit:4;stroke-dasharray:none;stroke-dashoffset:0;stroke-opacity:1"
       d="m 143.47405,123.08864 c -0.32555,3e-5 -0.63334,0.14834 -0.83624,0.40292 l 0.51288,0.606 c 0.15317,-0.34959 0.37644,-0.67461 0.68415,-0.94481 -0.11567,-0.042 -0.23773,-0.0637 -0.36079,-0.0641 z"
       id="path5954-9-8-1"
       inkscape:connector-curvature="0"
       sodipodi:nodetypes="ccccc" />
    <path
       style="opacity:1;vector-effect:none;fill:#000000;fill-opacity:1;stroke:none;stroke-width:0.1494164;stroke-linecap:round;stroke-linejoin:miter;stroke-miterlimit:4;stroke-dasharray:none;stroke-dashoffset:0;stroke-opacity:1"
       d="m 140.50766,125.40411 c -0.32514,0.0735 -0.57161,0.26214 -0.71041,0.57517 h 1.25646 z"
       id="path5954-4-7"
       inkscape:connector-curvature="0"
       sodipodi:nodetypes="cccc" />
    <path
       inkscape:connector-curvature="0"
       style="opacity:1;vector-effect:none;fill:#000000;fill-opacity:1;stroke:none;stroke-width:0.10268877;stroke-linecap:round;stroke-linejoin:miter;stroke-miterlimit:4;stroke-dasharray:none;stroke-dashoffset:0;stroke-opacity:1"
       d="m 163.2806,123.53442 1.98999,1.72683 -0.61958,0.65749 h -0.71784 l -0.95964,-0.82222 c -0.008,-0.37083 -0.13889,-0.70144 -0.23721,-0.93198 z"
       id="rect5952-0-0-6-1"
       sodipodi:nodetypes="ccccccc" />
    <path
       style="opacity:1;vector-effect:none;fill:#000000;fill-opacity:1;stroke:none;stroke-width:0.1494164;stroke-linecap:round;stroke-linejoin:miter;stroke-miterlimit:4;stroke-dasharray:none;stroke-dashoffset:0;stroke-opacity:1"
       d="m 162.38947,123.02805 c 0.32554,3e-5 0.63334,0.14834 0.83624,0.40292 l -0.51288,0.60601 c -0.15317,-0.34959 -0.37645,-0.67462 -0.68415,-0.94482 0.11567,-0.042 0.23773,-0.0637 0.36079,-0.0641 z"
       id="path5954-9-8-1-5"
       inkscape:connector-curvature="0"
       sodipodi:nodetypes="ccccc" />
    <path
       style="opacity:1;vector-effect:none;fill:#000000;fill-opacity:1;stroke:none;stroke-width:0.1494164;stroke-linecap:round;stroke-linejoin:miter;stroke-miterlimit:4;stroke-dasharray:none;stroke-dashoffset:0;stroke-opacity:1"
       d="m 165.35585,125.34353 c 0.32515,0.0735 0.57161,0.26214 0.71042,0.57517 h -1.25647 z"
       id="path5954-4-7-9"
       inkscape:connector-curvature="0"
       sodipodi:nodetypes="cccc" />
    <path
       inkscape:connector-curvature="0"
       style="opacity:1;vector-effect:none;fill:#000000;fill-opacity:1;stroke:none;stroke-width:0.14393565;stroke-linecap:round;stroke-linejoin:miter;stroke-miterlimit:4;stroke-dasharray:none;stroke-dashoffset:0;stroke-opacity:1"
       d="m 160.20119,132.82878 -0.19514,2.76329 h -2.21719 l -0.16612,-2.26257 c 0.50418,-0.003 1.93833,-0.0751 2.57845,-0.50072 z m 0.29668,2.8377 c 0.10514,0.40738 0.69644,7.37695 0.34161,8.34943 h -0.35705 v 0.23164 h -1.22885 l -0.0594,0.86244 h -0.56483 l -0.0589,-0.86244 h -1.22885 v -0.23164 h -0.36548 c -0.34169,-0.90678 0.26277,-8.23115 0.34161,-8.34943 h 0.48761 v 4.52562 l 0.10576,-0.0791 c 0.5891,-0.44625 1.39408,-0.41164 2.0052,0.002 l 0.10249,0.0702 v -4.51813 -4.7e-4 z m -0.61115,0.0655 v 4.24111 c -0.6072,-0.36435 -1.35397,-0.38846 -1.94951,0.002 v -4.2425 z m -0.48948,8.55908 c 1.61442,0.28789 2.90185,0.90194 2.98697,2.41092 -0.41383,0.32381 -2.682,0.19731 -3.14982,-0.10857 z m -0.97055,0 0.16285,2.30235 c -0.46781,0.30588 -2.73598,0.43238 -3.14982,0.10857 0.0851,-1.50898 1.37255,-2.12303 2.98697,-2.41092 z"
       id="rect6206-7"
       sodipodi:nodetypes="cccccccccccccccccccccccccccccccccccccc" />
    <g
       id="g6315"
       transform="matrix(0.90555379,0,0,0.90555379,14.455789,13.903102)">
      <path
         inkscape:connector-curvature="0"
         id="rect6275-1"
         d="m 148.79321,126.93874 c -0.11542,0.002 -0.20542,0.009 -0.26097,0.0233 v 4.56045 c 0.23572,0.21887 1.72432,0.003 2.55075,-0.13643 l -0.34261,-2.1115 v -1.70739 h 0.66662 v -0.40049 c -0.47571,-0.0601 -1.93407,-0.23731 -2.61379,-0.22789 z"
         style="opacity:1;vector-effect:none;fill:#000000;fill-opacity:1;stroke:none;stroke-width:0.16500002;stroke-linecap:round;stroke-linejoin:miter;stroke-miterlimit:4;stroke-dasharray:none;stroke-dashoffset:0;stroke-opacity:1" />
      <path
         inkscape:connector-curvature="0"
         id="rect6275-1-5"
         d="m 156.93974,126.93874 c 0.11542,0.002 0.20542,0.009 0.26097,0.0233 v 4.56045 c -0.23572,0.21887 -1.72432,0.003 -2.55075,-0.13643 l 0.34261,-2.1115 v -1.70739 h -0.66662 v -0.40049 c 0.47571,-0.0601 1.93407,-0.23731 2.61379,-0.22789 z"
         style="opacity:1;vector-effect:none;fill:#000000;fill-opacity:1;stroke:none;stroke-width:0.16500002;stroke-linecap:round;stroke-linejoin:miter;stroke-miterlimit:4;stroke-dasharray:none;stroke-dashoffset:0;stroke-opacity:1" />
    </g>
  </g>
</svg>
