<?xml version="1.0" encoding="UTF-8" standalone="no"?>
<!-- Created with Inkscape (http://www.inkscape.org/) -->

<svg
   sodipodi:docname="MiningMech.svg"
   inkscape:version="1.1.2 (0a00cf5339, 2022-02-04)"
   id="svg8"
   version="1.1"
   viewBox="0 0 34.98301 52.516205"
   height="52.516205mm"
   width="34.983009mm"
   xmlns:inkscape="http://www.inkscape.org/namespaces/inkscape"
   xmlns:sodipodi="http://sodipodi.sourceforge.net/DTD/sodipodi-0.dtd"
   xmlns="http://www.w3.org/2000/svg"
   xmlns:svg="http://www.w3.org/2000/svg"
   xmlns:rdf="http://www.w3.org/1999/02/22-rdf-syntax-ns#"
   xmlns:cc="http://creativecommons.org/ns#"
   xmlns:dc="http://purl.org/dc/elements/1.1/">
  <defs
     id="defs2" />
  <sodipodi:namedview
     id="base"
     pagecolor="#ffffff"
     bordercolor="#666666"
     borderopacity="1.0"
     inkscape:pageopacity="0.0"
     inkscape:pageshadow="2"
     inkscape:zoom="8"
     inkscape:cx="58.0625"
     inkscape:cy="106.3125"
     inkscape:document-units="mm"
     inkscape:current-layer="layer1"
     showgrid="false"
     inkscape:window-width="1846"
     inkscape:window-height="1016"
     inkscape:window-x="74"
     inkscape:window-y="1107"
     inkscape:window-maximized="1"
     inkscape:snap-global="false"
     fit-margin-top="0"
     fit-margin-left="0"
     fit-margin-right="0"
     fit-margin-bottom="0"
     showguides="false"
     inkscape:guide-bbox="true"
     inkscape:pagecheckerboard="0" />
  <metadata
     id="metadata5">
    <rdf:RDF>
      <cc:Work
         rdf:about="">
        <dc:format>image/svg+xml</dc:format>
        <dc:type
           rdf:resource="http://purl.org/dc/dcmitype/StillImage" />
      </cc:Work>
    </rdf:RDF>
  </metadata>
  <g
     inkscape:label="Capa 1"
     inkscape:groupmode="layer"
     id="layer1"
     transform="translate(-135.48963,-99.590537)"
     style="display:inline">
    <path
       style="color:#000000;fill:#000000;stroke-width:0.252358;stroke-linecap:round;-inkscape-stroke:none"
       d="m 153.48411,117.63923 c -0.0697,0 -0.12574,0.0562 -0.12574,0.12573 v 0.36447 h -0.43371 c -0.0697,0 -0.12573,0.0562 -0.12573,0.12574 v 0.25615 h -0.3513 c -0.0697,0 -0.12574,0.0562 -0.12574,0.12574 v 1.60867 c 0,0.0696 0.0562,0.12573 0.12574,0.12573 h 0.2022 v -0.0212 c 0,0 0.002,-1.31994 0.002,-1.36145 0,-3.3e-4 0.008,-0.0396 0.008,-0.0399 1.6e-4,-4.2e-4 0.009,-0.0184 0.0131,-0.0242 0.008,-0.012 0.015,-0.0176 0.0208,-0.0226 0.0114,-0.01 0.019,-0.0142 0.0272,-0.0192 0.0159,-0.009 0.0323,-0.016 0.0513,-0.0243 0.0382,-0.0163 0.0882,-0.0347 0.14783,-0.0561 0.11919,-0.0426 0.27497,-0.094 0.43159,-0.14443 0.18295,-0.059 0.43623,-0.15475 0.65587,-0.20943 v -0.68391 c 0,-0.0696 -0.0562,-0.12573 -0.12574,-0.12573 z"
       id="path9239" />
    <path
       id="rect6729-1"
       style="display:inline;fill:#000000;stroke:none;stroke-width:0.252358;stroke-linecap:round;stop-color:#000000"
       d="m 158.67505,117.72317 c 0.0696,0 0.12573,0.0562 0.12573,0.12574 v 0.36447 h 0.43371 c 0.0696,0 0.12574,0.0562 0.12574,0.12574 v 0.25614 h 0.35129 c 0.0697,0 0.12573,0.0562 0.12573,0.12574 v 1.60868 c 0,0.0696 -0.0562,0.12573 -0.12573,0.12573 h -0.2022 v -0.0212 c 0,0 -0.002,-1.31993 -0.002,-1.36144 0,-3.2e-4 -0.008,-0.0396 -0.008,-0.0399 -1.6e-4,-4.1e-4 -0.009,-0.0185 -0.0131,-0.0243 -0.008,-0.012 -0.015,-0.0176 -0.0208,-0.0226 -0.0114,-0.01 -0.019,-0.0143 -0.0272,-0.0192 -0.0159,-0.009 -0.0323,-0.016 -0.0514,-0.0243 -0.0381,-0.0163 -0.0883,-0.0347 -0.14784,-0.0561 -0.11919,-0.0426 -0.27497,-0.094 -0.43157,-0.14443 -0.18297,-0.059 -0.43624,-0.15474 -0.65589,-0.20942 v -0.6839 c 0,-0.0697 0.0562,-0.12575 0.12575,-0.12575 z"
       sodipodi:nodetypes="sscsscssssccsscccccccsss" />
    <path
       id="rect4718"
       style="stroke-width:0.252358;stroke-linecap:round;stop-color:#000000"
       d="m 154.22698,118.77469 c -0.43717,0.0423 -0.88314,0.17104 -1.2837,0.28206 -0.0587,0.0967 0.0114,0.89162 0.0114,0.89162 0.18301,-0.0486 1.84319,-0.10201 1.98291,-0.0535 v -0.0323 h -0.21622 c -0.27467,0 -0.49445,-0.23172 -0.49445,-0.50933 z m 0.62827,1.1894 c -0.34317,5.7e-4 -1.72895,0.0116 -1.93916,0.15293 -0.0709,0.53349 0.65121,1.57076 0.79648,1.5921 0.11475,0.0947 1.17402,0.0632 1.22509,0 -0.0132,-0.5802 -0.006,-1.16382 -0.006,-1.74503 h -4.3e-4 c 0,0 -0.0275,-8e-5 -0.0765,0 z m -1.87672,1.0076 c -0.0447,0.13742 -0.0418,1.1713 0,1.24251 0.005,0.0962 0.46038,0.4822 0.52335,0.48085 0,0 0.0306,-0.66426 0,-0.76844 z m 0.83216,0.89673 c -0.0563,0.003 -0.10067,0.0488 -0.10067,0.10577 v 0.88908 c 0,0.0588 0.0474,0.1062 0.1062,0.1062 h 1.01524 c 0.0587,0 0.1062,-0.0474 0.1062,-0.1062 v -0.88908 c 0,-0.0588 -0.0474,-0.10577 -0.1062,-0.10577 h -1.01524 c -0.002,0 -0.004,-1e-4 -0.006,0 z" />
    <path
       id="rect4718-6"
       style="display:inline;stroke-width:0.252358;stroke-linecap:round;stop-color:#000000"
       d="m 157.87946,118.77469 c 0.43719,0.0423 0.88314,0.17104 1.28371,0.28206 0.0587,0.0967 -0.0114,0.89162 -0.0114,0.89162 -0.18301,-0.0486 -1.8432,-0.10201 -1.98291,-0.0535 v -0.0323 h 0.21622 c 0.27466,0 0.49445,-0.23172 0.49445,-0.50933 z m -0.62827,1.1894 c 0.34317,5.7e-4 1.72897,0.0116 1.93916,0.15293 0.0709,0.53349 -0.65121,1.57076 -0.79647,1.5921 -0.11475,0.0947 -1.17402,0.0632 -1.22509,0 0.0132,-0.5802 0.006,-1.16382 0.006,-1.74503 h 4.4e-4 c 0,0 0.0275,-7e-5 0.0765,0 z m 1.87672,1.0076 c 0.0448,0.13742 0.0418,1.1713 0,1.24251 -0.005,0.0962 -0.46037,0.4822 -0.52334,0.48085 0,0 -0.0306,-0.66426 0,-0.76844 z m -0.83216,0.89673 c 0.0563,0.003 0.10067,0.0488 0.10067,0.10577 v 0.88908 c 0,0.0588 -0.0474,0.1062 -0.10619,0.1062 h -1.01525 c -0.0588,0 -0.10619,-0.0474 -0.10619,-0.1062 v -0.88908 c 0,-0.0588 0.0474,-0.10577 0.10619,-0.10577 h 1.01525 c 0.002,0 0.004,-9e-5 0.006,0 z" />
    <rect
       style="opacity:1;vector-effect:none;fill:#1a1a1a;fill-opacity:1;stroke:none;stroke-width:0.1;stroke-linecap:butt;stroke-linejoin:miter;stroke-miterlimit:4;stroke-dasharray:none;stroke-dashoffset:0;stroke-opacity:1"
       id="rect860"
       width="7.0941477"
       height="0"
       x="148.86763"
       y="129.31949" />
    <g
       id="g1831"
       transform="translate(0.54280906,-0.93131917)">
      <g
         id="path1550" />
      <g
         id="path1550-3" />
    </g>
    <g
       id="rect2870" />
    <path
       id="rect1191"
       style="fill:#000000;stroke:none;stroke-width:0.252358;stroke-linecap:round;stop-color:#000000"
       d="m 154.34111,116.97656 c -0.13011,0 -0.23491,0.1048 -0.23491,0.23491 v 1.21149 c 0,0.0829 0.0426,0.15533 0.10705,0.1971 v -0.32283 c 0,-0.2819 0.2321,-0.514 0.51399,-0.514 h 0.10196 v -0.57176 c 0,-0.13011 -0.10481,-0.23491 -0.23491,-0.23491 z m 0.38613,1.06834 c -0.14153,0 -0.25232,0.1108 -0.25232,0.25233 v 0.36064 h 0.11937 c 0.1301,0 0.23491,-0.1048 0.23491,-0.23491 v -0.37806 z" />
    <path
       id="rect1191-3"
       style="display:inline;fill:#000000;stroke:none;stroke-width:0.252358;stroke-linecap:round;stop-color:#000000"
       d="m 157.58969,116.97656 c -0.13012,0 -0.23491,0.1048 -0.23491,0.23491 v 0.57176 h 0.004 c 0.2819,0 0.51229,0.2321 0.51229,0.514 v 0.35894 c 0.11667,-0.0139 0.20646,-0.11267 0.20646,-0.23321 v -1.21149 c 0,-0.13011 -0.10481,-0.23491 -0.23491,-0.23491 z m -0.23491,1.06834 v 0.37806 c 0,0.13011 0.10479,0.23491 0.23491,0.23491 h 0.02 v -0.36064 c 0,-0.14153 -0.10909,-0.25233 -0.25062,-0.25233 z" />
    <path
       style="color:#000000;fill:#000000;stroke-width:0.256081;stroke-linecap:round;-inkscape-stroke:none"
       d="m 154.73157,117.91436 h 2.64307 c 0.20298,0 0.36641,0.17044 0.36641,0.38213 v 1.05649 c 0,0.21171 -0.16343,0.38215 -0.36641,0.38215 h -2.64307 c -0.20299,0 -0.36641,-0.17044 -0.36641,-0.38215 v -1.05649 c 0,-0.21169 0.16342,-0.38213 0.36641,-0.38213 z"
       id="path4525" />
    <path
       id="rect1410"
       style="fill:#000000;stroke:none;stroke-width:0.331213;stroke-linecap:round;stop-color:#000000"
       d="m 155.292,115.27231 c -0.0841,0 -0.15165,0.0676 -0.15165,0.15164 v 0.25701 c -0.37091,0.2284 -0.61806,0.63811 -0.61806,1.10529 v 1.0488 c 0.0633,-0.0307 0.13384,-0.0484 0.20857,-0.0484 h 0.0416 v -1.00038 c 0,-0.32133 0.14252,-0.60712 0.36786,-0.7986 v 1.79898 h 0.34536 v -1.99311 c 0.10471,-0.0348 0.21652,-0.0539 0.33346,-0.0539 h 0.48978 c 0.1168,0 0.22895,0.0188 0.33346,0.0535 v 1.99353 h 0.34535 v -1.79856 c 0.22465,0.19148 0.36659,0.47706 0.36659,0.79818 v 1.00038 h 0.0208 c 0.0838,0 0.16218,0.0219 0.23108,0.0598 v -1.06027 c 0,-0.46721 -0.24753,-0.8769 -0.61849,-1.10529 v -0.25701 c 0,-0.0841 -0.0676,-0.15164 -0.15165,-0.15164 h -0.042 c -0.0841,0 -0.15165,0.0676 -0.15165,0.15164 v 0.10833 c -0.1064,-0.0282 -0.21822,-0.0433 -0.33346,-0.0433 h -0.48978 c -0.11539,0 -0.22694,0.015 -0.33346,0.0433 v -0.10833 c 0,-0.0841 -0.0676,-0.15164 -0.15165,-0.15164 z"
       sodipodi:nodetypes="sscscscsccccssccccscscscsssscsscsss" />
    <path
       id="rect2084"
       style="fill:#000000;stroke:none;stroke-width:0.252358;stroke-linecap:round;stop-color:#000000"
       d="m 153.87992,123.0625 c -0.54178,0.005 -0.88947,0.52717 -0.88015,0.87038 -0.009,0.39011 0.45035,0.84285 0.88016,0.81602 h 4.34488 c 0.51044,-0.1064 0.86974,-0.47058 0.88017,-0.81602 0.0204,-0.34656 -0.14255,-0.85341 -0.88017,-0.87038 z"
       sodipodi:nodetypes="ccccccc" />
    <path
       id="rect3050"
       style="fill:#000000;stroke:none;stroke-width:0.267765;stroke-linecap:round;stop-color:#000000"
       d="m 155.28393,119.17441 c -0.0861,0 -0.15546,0.0777 -0.15546,0.17459 v 2.5088 1.62099 c 0,0.0969 0.0694,0.17501 0.15546,0.17501 0.0861,0 0.15548,-0.0781 0.15548,-0.17501 v -1.45405 h 1.22806 v 1.57426 c 0,0.0969 0.0694,0.17459 0.15547,0.17459 0.0861,0 0.15505,-0.0777 0.15505,-0.17459 v -4.12978 c 0,-0.0969 -0.0689,-0.17502 -0.15505,-0.17502 -0.0861,0 -0.15547,0.0781 -0.15547,0.17502 v 2.22121 h -0.48893 v -2.29895 c 0,-0.0819 -0.0557,-0.14783 -0.12532,-0.14783 -0.0696,0 -0.12573,0.0659 -0.12573,0.14783 v 2.29895 h -0.48808 V 119.349 c 0,-0.0969 -0.0694,-0.17459 -0.15548,-0.17459 z" />
    <rect
       style="display:inline;fill:#000000;stroke:none;stroke-width:0.264554;stroke-linecap:round;stop-color:#000000"
       id="rect3391-1"
       width="1.4964608"
       height="0.35517973"
       x="155.33148"
       y="119.84386"
       ry="0" />
    <rect
       style="display:inline;fill:#000000;stroke:none;stroke-width:0.264554;stroke-linecap:round;stop-color:#000000"
       id="rect3391-1-7"
       width="1.4964608"
       height="0.35517973"
       x="155.29955"
       y="120.32104"
       ry="0" />
    <rect
       style="display:inline;fill:#000000;stroke:none;stroke-width:0.264554;stroke-linecap:round;stop-color:#000000"
       id="rect3391-1-0"
       width="1.4964608"
       height="0.35517973"
       x="155.328"
       y="120.79823"
       ry="0" />
    <rect
       style="display:inline;fill:#000000;stroke:none;stroke-width:0.264554;stroke-linecap:round;stop-color:#000000"
       id="rect3391-1-9"
       width="1.4964608"
       height="0.35517973"
       x="155.29996"
       y="121.27539"
       ry="0" />
    <path
       id="rect7972"
       style="stroke-width:0.294157;stroke-linecap:round;stop-color:#000000"
       d="m 154.86552,124.98593 -0.0512,3.40553 c -0.007,0.15759 0.33491,1.13589 0.33491,1.13589 0.0865,0.0908 1.61937,0.10203 1.71317,0 0,0 0.34908,-0.9949 0.33491,-1.13589 l -0.0512,-3.40553 z m 0.31477,0.13127 h 1.63756 l 0.034,0.0769 c 0.0136,0.0323 0.0125,0.0422 0.0157,0.0629 0.003,0.0206 0.007,0.0453 0.01,0.0739 0.007,0.0571 0.0112,0.13214 0.0178,0.21961 0.0124,0.17494 0.0248,0.4007 0.0306,0.6359 0.006,0.23522 0.006,0.47922 -0.004,0.68859 -0.01,0.20938 -0.0231,0.37671 -0.0705,0.49955 -0.12703,0.33498 -0.25677,0.59049 -0.39675,0.76887 -0.14033,0.17881 -0.30283,0.29005 -0.48342,0.28757 -0.18056,-0.003 -0.33773,-0.11868 -0.47193,-0.29861 -0.1342,-0.17995 -0.255,-0.43202 -0.37084,-0.76122 l -0.005,-0.0128 -9.4e-4,-0.0127 c -0.0335,-0.25354 -0.0429,-0.75446 -0.0404,-1.21235 9.5e-4,-0.22895 0.007,-0.4457 0.0128,-0.60999 0.004,-0.0821 0.007,-0.15097 0.0115,-0.2039 0.003,-0.0264 0.005,-0.0487 0.008,-0.0688 0.003,-0.02 -0.008,-0.0247 0.0289,-0.079 z m 0.17671,0.2519 c -0.004,0.0442 -0.007,0.0972 -0.01,0.16567 -0.007,0.15959 -0.0111,0.37374 -0.0128,0.60022 -0.003,0.44803 0.0108,0.9465 0.0386,1.16392 0.10888,0.30597 0.22197,0.53887 0.32921,0.68263 0.10925,0.14651 0.20045,0.19671 0.27272,0.19753 0.0722,9.4e-4 0.16675,-0.0453 0.28121,-0.19115 0.11444,-0.14585 0.23914,-0.3815 0.36106,-0.70345 v -9.5e-4 c 0.0197,-0.0513 0.044,-0.21935 0.0531,-0.41926 0.009,-0.19992 0.008,-0.44001 0.003,-0.67117 -0.006,-0.23117 -0.0167,-0.45403 -0.0289,-0.62444 -0.006,-0.0813 -0.0116,-0.14802 -0.0175,-0.19922 z m 0.11087,3.30102 h 1.07556 c 0.10361,0 0.19116,0.0858 0.19116,0.18945 v 0.25191 c 0,0.10361 -0.0875,0.18945 -0.19116,0.18945 h -1.07556 c -0.10361,0 -0.18946,-0.0858 -0.18946,-0.18945 v -0.25191 c 0,-0.10361 0.0858,-0.18945 0.18946,-0.18945 z m -0.005,0.17035 c -0.01,0.002 -0.0148,0.008 -0.0148,0.0191 v 0.2519 c 0,0.0127 0.008,0.0195 0.0195,0.0195 h 1.07556 c 0.0124,0 0.0209,-0.008 0.0209,-0.0195 v -0.2519 c 0,-0.0127 -0.008,-0.0191 -0.0209,-0.0191 h -1.07556 c -0.002,0 -0.003,-2.2e-4 -0.005,0 z"
       sodipodi:nodetypes="ccccccccccccccscscccccccssccccccccscccccccsssssssssssssssssss" />
    <path
       style="color:#000000;fill:#000000;stroke-width:0.170157;stroke-linecap:round;-inkscape-stroke:none"
       d="m 155.4676,128.75447 h 1.07645 c 0.058,0 0.1046,0.0466 0.1046,0.10459 v 0.25306 c 0,0.058 -0.0466,0.10461 -0.1046,0.10461 h -1.07645 c -0.058,0 -0.10462,-0.0467 -0.10462,-0.10461 v -0.25306 c 0,-0.058 0.0467,-0.10459 0.10462,-0.10459 z"
       id="path8335" />
    <g
       id="g5241"
       transform="matrix(0.82201497,0,0,0.82201497,27.843532,28.596257)">
      <path
         id="rect9590-7"
         style="display:inline;stroke-width:0.207;stroke-linecap:round;stop-color:#000000"
         d="m 160.54149,117.09017 c -0.17819,-0.0925 -1.68546,-0.0612 -1.93854,0 -0.14773,0.1193 -0.10678,1.55002 0,1.60362 l 2.34389,0.003 c 0.0378,-0.37051 -0.40535,-1.60668 -0.40535,-1.60668 z"
         sodipodi:nodetypes="ccccc" />
      <g
         id="g866"
         transform="translate(0.26411098,1.2548572)">
        <path
           id="rect10486"
           style="fill:#000000;stroke:none;stroke-width:0.90243;stroke-linecap:round;stroke-miterlimit:4;stroke-dasharray:none;stop-color:#000000"
           d="m 88.514854,72.564453 c -0.965968,0 -1.744141,0.778173 -1.744141,1.744141 v 11.148437 c 0,0.965968 0.778173,1.744141 1.744141,1.744141 h 9.301552 c 0.965968,0 1.742188,-0.778173 1.742188,-1.744141 V 74.308594 c 0,-0.965968 -0.77622,-1.744141 -1.742188,-1.744141 z m 1.104287,0.931641 h 7.277343 c 1.030602,0 1.875,0.838539 1.875,1.86914 v 9.027344 c 0,1.030602 -0.844398,1.875 -1.875,1.875 h -7.277343 c -1.030602,0 -1.869141,-0.844398 -1.869141,-1.875 v -9.027344 c 0,-1.030601 0.838539,-1.86914 1.869141,-1.86914 z"
           transform="matrix(0.26458333,0,0,0.26458333,135.48963,99.590537)"
           sodipodi:nodetypes="ssssssssssssssssss" />
        <path
           id="path10134"
           style="color:#000000;fill:#000000;stroke-width:0.214227;stroke-linecap:round;-inkscape-stroke:none"
           d="m 159.20988,119.15827 c -0.2152,0 -0.3886,0.17289 -0.3886,0.38809 v 1.06298 h 1.28054 v -1.41025 h 0.26562 v 1.41025 h 1.156 v -1.06298 c 0,-0.2152 -0.17342,-0.38809 -0.38861,-0.38809 z m -0.3886,1.71462 v 1.06247 c 0,0.21519 0.1734,0.38809 0.3886,0.38809 h 1.92495 c 0.21519,0 0.38861,-0.1729 0.38861,-0.38809 v -1.06247 h -1.156 v 1.41025 h -0.26562 v -1.41025 z" />
      </g>
      <path
         style="fill:#000000;stroke:none;stroke-width:0.264583px;stroke-linecap:butt;stroke-linejoin:miter;stroke-opacity:1"
         d="m 158.93118,118.83797 h 1.83755 l 0.81537,1.04163 -2.41037,0.015 z"
         id="path901"
         sodipodi:nodetypes="ccccc" />
      <path
         id="rect1288"
         style="fill:#000000;stroke:none;stroke-width:3.46501;stroke-linecap:round;stroke-linejoin:round"
         d="m 159.31195,124.03452 v 2.59623 h 2.18333 v -2.59623 h -0.73536 v 2.04174 a 0.10001,0.10001 0 0 1 -0.0997,0.10128 h -0.51367 a 0.10001,0.10001 0 0 1 -0.0997,-0.10128 v -2.04174 z m 0.93431,0.0884 v 1.85363 h 0.31419 v -1.85363 z" />
      <path
         id="rect1589"
         style="fill:#000000;stroke:none;stroke-width:0.225175;stroke-linecap:round;stroke-linejoin:round;stroke-miterlimit:4;stroke-dasharray:none"
         d="m 158.77038,124.85669 c -0.14243,0.007 -0.25528,0.12445 -0.25528,0.26872 v 0.33693 h -0.22531 c -0.12276,0 -0.22169,0.0989 -0.22169,0.22169 v 0.45941 h -0.14211 c -0.12276,0 -0.2217,0.0984 -0.2217,0.22117 v 0.36949 h -0.0785 c -0.0412,0 -0.0744,0.0332 -0.0744,0.0744 v 0.37621 c 0,0.0412 0.0333,0.0744 0.0744,0.0744 h 5.55573 c 0.0412,0 0.0744,-0.0332 0.0744,-0.0744 v -0.37621 c 0,-0.0412 -0.0332,-0.0744 -0.0744,-0.0744 h -0.0816 c 0.002,-0.012 0.003,-0.0241 0.003,-0.0367 v -0.42685 c 0,-0.12275 -0.0989,-0.22169 -0.22169,-0.22169 h -0.14211 v -0.36484 c 0,-0.12275 -0.0989,-0.22169 -0.2217,-0.22169 h -0.2253 v -0.33693 c 0,-0.14892 -0.1198,-0.26872 -0.26872,-0.26872 h -0.1018 c -0.14893,0 -0.26872,0.1198 -0.26872,0.26872 v 1.60869 h -2.49856 v -1.60869 c 0,-0.14892 -0.11979,-0.26872 -0.26872,-0.26872 h -0.1018 c -0.005,0 -0.009,-2.3e-4 -0.0134,0 z" />
      <path
         id="rect2291"
         style="fill:#000000;stroke:none;stroke-width:0.2;stroke-linecap:round;stroke-linejoin:round;stroke-miterlimit:4;stroke-dasharray:none"
         d="m 159.05512,127.47411 c -0.12276,0 -0.2217,0.0989 -0.2217,0.22169 v 4.55424 c 0,0.12276 0.0989,0.22169 0.2217,0.22169 h 2.69699 c 0.12276,0 0.22169,-0.0989 0.22169,-0.22169 v -4.55424 c 0,-0.12276 -0.0989,-0.22169 -0.22169,-0.22169 z m 2.41432,0.38757 a 0.1322915,0.1322915 0 0 1 0.0656,0.0155 0.1322915,0.1322915 0 0 1 0.0568,0.17777 l -2.00608,3.86901 a 0.1322915,0.1322915 0 0 1 -0.17931,0.0563 0.1322915,0.1322915 0 0 1 -0.0548,-0.17932 l 2.00556,-3.86746 a 0.1322915,0.1322915 0 0 1 0.078,-0.0661 l 5.2e-4,-5.1e-4 a 0.1322915,0.1322915 0 0 1 0.0336,-0.005 z" />
      <rect
         style="fill:#000000;stroke:none;stroke-width:0.2;stroke-linecap:round;stroke-linejoin:round;stroke-miterlimit:4;stroke-dasharray:none"
         id="rect2566"
         width="0.78835392"
         height="3.7617023"
         x="162.28931"
         y="127.47411"
         ry="0.1245234" />
      <rect
         style="display:inline;fill:#000000;stroke:none;stroke-width:0.2;stroke-linecap:round;stroke-linejoin:round;stroke-miterlimit:4;stroke-dasharray:none"
         id="rect2566-5"
         width="0.78835392"
         height="3.7617023"
         x="157.72955"
         y="127.47411"
         ry="0.1245234" />
      <path
         id="rect2782"
         style="fill:#000000;stroke:none;stroke-width:0.2;stroke-linecap:round;stroke-linejoin:round;stroke-miterlimit:4;stroke-dasharray:none"
         d="m 156.73381,132.68981 c -0.0712,0 -0.12867,0.0575 -0.12867,0.12867 v 0.91881 2.89078 c 0,0.0712 0.0575,0.12816 0.12867,0.12816 h 0.42323 c 0.0712,0 0.12868,-0.057 0.12868,-0.12816 v -2.76211 h 6.23579 v 2.76211 c 0,0.0712 0.0575,0.12816 0.12867,0.12816 h 0.42323 c 0.0712,0 0.12868,-0.057 0.12868,-0.12816 v -2.89078 -0.91881 c 0,-0.0712 -0.0575,-0.12867 -0.12868,-0.12867 h -0.42323 z m -0.38137,4.27829 c -0.0681,0.003 -0.12196,0.0597 -0.12196,0.12867 v 1.41129 c 0,0.0712 0.0575,0.12867 0.12868,0.12867 h 0.79788 0.12868 v -1.66863 h -0.12868 -0.79788 c -0.002,0 -0.005,-1.1e-4 -0.007,0 z m 7.16907,0 v 1.66863 h 0.12867 0.79789 c 0.0712,0 0.12867,-0.0575 0.12867,-0.12867 v -1.41129 c 0,-0.0712 -0.0575,-0.12867 -0.12867,-0.12867 h -0.79789 z" />
      <rect
         style="fill:#000000;stroke:none;stroke-width:0.2;stroke-linecap:round;stroke-linejoin:round;stroke-miterlimit:4;stroke-dasharray:none"
         id="rect2930"
         width="1.2171069"
         height="0.88823867"
         x="157.3008"
         y="131.51868"
         ry="0.12846923" />
      <rect
         style="display:inline;fill:#000000;stroke:none;stroke-width:0.2;stroke-linecap:round;stroke-linejoin:round;stroke-miterlimit:4;stroke-dasharray:none"
         id="rect2930-3"
         width="1.2171069"
         height="0.88823867"
         x="162.28931"
         y="131.51868"
         ry="0.12846923" />
      <g
         id="g4273"
         transform="translate(-0.00289051)">
        <path
           id="rect3286"
           style="fill:#000000;stroke:none;stroke-width:0.741611;stroke-linecap:round;stroke-linejoin:round;stroke-miterlimit:4;stroke-dasharray:none"
           d="m 83.617188,130.10938 c -0.268997,0 -0.484376,0.21733 -0.484376,0.48632 v 2.00196 h 10.806641 v -2.00196 c 0,-0.26899 -0.215379,-0.48632 -0.484375,-0.48632 z m -0.484376,3.49218 v 1.78711 h 10.806641 v -1.78711 z m 0,2.78321 v 1.78711 h 10.806641 v -1.78711 z m 0,2.79101 v 1.78711 h 10.806641 v -1.78711 z m 0,2.7832 v 1.78516 h 10.806641 v -1.78516 z m 0,2.78907 v 1.78711 h 10.806641 v -1.78711 z m 0,2.7832 v 1.78711 h 10.806641 v -1.78711 z m 0,2.79102 v 2.00195 c 0,0.269 0.215379,0.48437 0.484376,0.48437 h 9.83789 c 0.268996,0 0.484375,-0.21537 0.484375,-0.48437 v -2.00195 z"
           transform="matrix(0.26458333,0,0,0.26458333,135.48963,99.590537)" />
        <path
           id="rect3286-6"
           style="display:inline;fill:#000000;stroke:none;stroke-width:0.196218;stroke-linecap:round;stroke-linejoin:round;stroke-miterlimit:4;stroke-dasharray:none"
           d="m 160.59671,134.01531 c -0.0712,0 -0.12815,0.0575 -0.12815,0.12867 v 0.52969 h 2.85925 v -0.52969 c 0,-0.0712 -0.057,-0.12867 -0.12815,-0.12867 z m -0.12815,0.92397 v 0.47284 h 2.85925 v -0.47284 z m 0,0.73639 v 0.47284 h 2.85925 v -0.47284 z m 0,0.73846 v 0.47284 h 2.85925 v -0.47284 z m 0,0.73639 v 0.47232 h 2.85925 v -0.47232 z m 0,0.73794 v 0.47284 h 2.85925 v -0.47284 z m 0,0.73639 v 0.47284 h 2.85925 v -0.47284 z m 0,0.73845 v 0.52969 c 0,0.0712 0.057,0.12815 0.12815,0.12815 h 2.60295 c 0.0712,0 0.12815,-0.057 0.12815,-0.12815 v -0.52969 z" />
      </g>
      <rect
         style="fill:#000000;stroke:none;stroke-width:0.231422;stroke-linecap:round;stroke-linejoin:round;stroke-miterlimit:4;stroke-dasharray:none"
         id="rect4934"
         width="0.97448832"
         height="1.4049984"
         x="157.41519"
         y="117.35344"
         ry="0.17200746" />
    </g>
    <path
       id="rect9590-7-7"
       style="display:inline;stroke-width:0.170157;stroke-linecap:round;stop-color:#000000"
       d="m 152.83302,124.79796 c -0.0259,4e-5 -0.0517,2.7e-4 -0.077,4.9e-4 -0.27775,0.003 -0.51765,0.0169 -0.57716,0.0478 0,0 -0.36428,1.01613 -0.33322,1.32069 l 1.92663,-0.003 c 0.0878,-0.0441 0.12144,-1.22017 0,-1.31824 -0.1158,-0.028 -0.55075,-0.0488 -0.93916,-0.0483 z m 1.24896,0.26443 c -0.075,0.004 -0.13417,0.0656 -0.13417,0.14149 v 0.87233 c 0,0.0784 0.0632,0.14148 0.1415,0.14148 h 0.51812 c 0.0784,0 0.14148,-0.0632 0.14148,-0.14148 v -0.87233 c 0,-0.0784 -0.0632,-0.14149 -0.14148,-0.14149 h -0.51812 c -0.003,0 -0.005,-1.2e-4 -0.008,0 z m -2.09006,1.22067 -0.66986,0.85623 1.98127,0.0122 0.19906,-0.86842 z m -0.71133,0.99186 c -0.21009,0 -0.37908,0.16899 -0.37908,0.37908 v 2.42475 c 0,0.21009 0.16899,0.37956 0.37908,0.37956 h 2.02274 c 0.21008,0 0.37957,-0.16947 0.37957,-0.37956 V 127.654 c 0,-0.21009 -0.16949,-0.37908 -0.37957,-0.37908 z m 0.20003,0.20246 h 1.58268 c 0.22414,0 0.40639,0.18228 0.40639,0.40641 v 1.9637 c 0,0.22415 -0.18225,0.40787 -0.40639,0.40787 h -1.58268 c -0.22414,0 -0.40787,-0.18372 -0.40787,-0.40787 v -1.9637 c 0,-0.22413 0.18373,-0.40641 0.40787,-0.40641 z m -0.0229,0.10051 c -0.16918,0.008 -0.30297,0.14722 -0.30297,0.31858 v 0.87379 h 0.9499 v -1.15919 h 0.21857 v 1.15919 h 1.05284 v -0.87379 c 0,-0.1769 -0.14266,-0.31858 -0.31956,-0.31858 h -1.58219 c -0.006,0 -0.0111,-2.7e-4 -0.0166,0 z m -0.30297,1.40899 v 0.87379 c 0,0.17689 0.14267,0.31858 0.31956,0.31858 h 1.58219 c 0.1769,0 0.31956,-0.14169 0.31956,-0.31858 v -0.87379 h -1.05284 v 1.15968 h -0.21857 v -1.15968 z m 0.24004,1.56755 v 0.46446 l 0.39274,-0.0473 -0.32152,0.91087 0.27859,0.38933 0.25613,-0.0254 a 0.08220971,0.08220971 0 0 1 -0.002,-0.0137 v -1.67829 z m 1.19091,0 v 1.63439 l 0.0698,-0.007 -0.1898,0.50642 h 0.72401 v -2.13397 z m -0.42251,0.0727 v 1.52364 h 0.25858 v -1.52364 z m 1.37679,0.60301 c -0.12242,0 -0.22101,0.0986 -0.22101,0.22102 v 1.32263 h -0.88549 l -0.14588,0.38884 c 0.007,0.0141 0.0117,0.0283 0.018,0.0425 h 2.27009 c 0.0338,0 0.061,-0.0271 0.061,-0.061 v -0.30932 c 0,-0.0339 -0.0271,-0.061 -0.061,-0.061 h -0.0644 v -0.30395 c 0,-0.1009 -0.0816,-0.18198 -0.18247,-0.18198 h -0.1166 v -0.37762 c 0,-0.10094 -0.0816,-0.18197 -0.18247,-0.18197 h -0.18539 v -0.27711 c 0,-0.1186 -0.0927,-0.21534 -0.20979,-0.22102 -0.004,-1.9e-4 -0.008,0 -0.0112,0 z m -1.15871,2.15154 c 0.0748,0.18988 0.13144,0.38099 0.17418,0.5718 l 0.98307,0.322 -0.92746,0.89769 c -0.0243,0.1703 -0.0598,0.3371 -0.11172,0.49715 l 0.65766,1.26848 a 0.10874557,0.10874557 0 0 1 -0.0448,0.14734 0.10874557,0.10874557 0 0 1 -0.14782,-0.0463 l -0.14539,-0.28052 -1.03918,0.0434 c -0.11455,0.10626 -0.23894,0.20447 -0.37567,0.29175 l -0.10196,0.39567 h 2.09884 c 0.10097,0 0.18198,-0.0816 0.18198,-0.18246 v -3.74349 c 0,-0.10095 -0.0811,-0.18247 -0.18198,-0.18247 z m 1.56317,0 c -0.0567,0 -0.10198,0.0458 -0.10198,0.10247 v 2.88773 c 0,0.0567 0.0452,0.10198 0.10198,0.10198 h 0.44348 c 0.0567,0 0.10245,-0.0452 0.10245,-0.10198 v -2.88773 c 0,-0.0567 -0.0458,-0.10247 -0.10245,-0.10247 z m -0.002,3.32489 c -0.056,0.003 -0.10002,0.0487 -0.10002,0.10538 v 0.5191 c 0,0.0585 0.0469,0.10587 0.10538,0.10587 h 0.78939 c 0.0585,0 0.10538,-0.0474 0.10538,-0.10587 v -0.5191 c 0,-0.0585 -0.0468,-0.10538 -0.10538,-0.10538 h -0.78939 c -0.002,0 -0.004,-9e-5 -0.006,0 z m -4.19623,0.96258 -0.57619,0.37615 v 0.48496 2.37645 c 0,0.0585 0.0468,0.10538 0.10538,0.10538 h 0.34786 c 0.0584,0 0.10587,-0.0468 0.10587,-0.10538 v -2.27058 h 5.12613 v 2.27058 c 0,0.0585 0.0473,0.10538 0.10586,0.10538 h 0.34786 c 0.0584,0 0.10539,-0.0468 0.10539,-0.10538 v -2.37645 -0.75524 c 0,-0.0584 -0.0468,-0.10587 -0.10539,-0.10587 h -4.05328 l -0.2054,0.79915 -0.89282,-0.79915 z m 0.24979,1.08992 c -0.0585,0 -0.10539,0.0468 -0.10539,0.10538 v 0.43567 h 2.3506 v -0.43567 c 0,-0.0584 -0.0468,-0.10538 -0.10538,-0.10538 z m 2.45256,0 c -0.0585,0 -0.10538,0.0468 -0.10538,0.10538 v 0.43567 h 2.35059 v -0.43567 c 0,-0.0584 -0.0468,-0.10538 -0.10538,-0.10538 z m -2.55795,0.75914 v 0.38884 h 2.3506 v -0.38884 z m 2.45257,0 v 0.38884 h 2.35059 v -0.38884 z m -2.45257,0.60545 v 0.38884 h 2.3506 v -0.38884 z m 2.45257,0 v 0.38884 h 2.35059 v -0.38884 z m -2.45257,0.60693 v 0.38883 h 2.3506 v -0.38883 z m 2.45257,0 v 0.38883 h 2.35059 v -0.38883 z m -3.37563,0.45567 c -0.0584,0 -0.10586,0.0468 -0.10586,0.10539 v 1.16016 c 0,0.0584 0.0473,0.10587 0.10586,0.10587 h 0.65571 0.10587 v -1.37142 h -0.10587 z m 5.88771,0 v 1.37142 h 0.10586 0.65571 c 0.0584,0 0.10587,-0.0473 0.10587,-0.10587 v -1.16016 c 0,-0.0566 -0.0443,-0.10232 -0.10001,-0.10539 h -4.9e-4 c -0.002,-5e-5 -0.004,0 -0.006,0 h -0.6557 z m -4.96465,0.14978 v 0.38835 h 2.3506 v -0.38835 z m 2.45257,0 v 0.38835 h 2.35059 v -0.38835 z m -2.45257,0.60643 v 0.38884 h 2.3506 v -0.38884 z m 2.45257,0 v 0.38884 h 2.35059 v -0.38884 z m -2.45257,0.60545 v 0.38884 h 2.3506 v -0.38884 z m 2.45257,0 v 0.38884 h 2.35059 v -0.38884 z m -2.45257,0.60693 v 0.43567 c 0,0.0585 0.0468,0.10538 0.10539,0.10538 h 2.13983 c 0.0585,0 0.10538,-0.0468 0.10538,-0.10538 v -0.43567 z m 2.45257,0 v 0.43567 c 0,0.0585 0.0468,0.10538 0.10538,0.10538 h 2.13983 c 0.0585,0 0.10538,-0.0468 0.10538,-0.10538 v -0.43567 z" />
    <g
       id="g10918"
       transform="matrix(0.94410009,0,0,0.94410009,12.130474,8.4087794)">
      <ellipse
         style="fill:#000000;stroke:none;stroke-width:0.250229;stroke-linecap:round;stroke-linejoin:round;stroke-miterlimit:4;stroke-dasharray:none"
         id="path8441"
         cx="131.64375"
         cy="171.70891"
         rx="2.1951361"
         ry="2.149596"
         transform="matrix(0.95210399,-0.30577442,0.21396401,0.97684154,0,0)" />
      <path
         id="path6528-0-6-1"
         style="display:inline;fill:#ffffff;stroke-width:0.0145254"
         d="m 160.87775,126.32937 c -0.21992,-0.0423 -0.50532,0.14286 -0.62935,0.42338 -0.2747,0.61361 -0.38082,1.24008 -0.44426,1.83675 -0.0666,0.40638 0.10291,0.76698 0.46206,0.79706 0.23139,0.0947 0.67054,-0.0191 0.86593,-0.32338 0.0707,-0.0836 0.10358,-0.14998 0.10909,-0.20427 4e-5,-2.7e-4 1.6e-4,-5.2e-4 1.9e-4,-8.1e-4 l 0.14096,-0.0887 c 0.003,5.7e-4 0.004,0.001 0.007,0.001 0.16362,0.0232 0.27796,-0.0232 0.37796,-0.25491 l 0.1475,-0.058 c 0.0996,0.10977 0.29923,0.0173 0.42357,-0.21742 0.11366,-0.29866 0.23793,-0.77688 0.0465,-0.8444 l -4.9e-4,-9.5e-4 c -0.0997,-0.0477 -0.2395,-0.0677 -0.29954,-1.8e-4 l -0.0484,-0.0184 0.005,-0.007 c 0.001,-0.31202 -0.17061,-0.44142 -0.44549,-0.43457 -0.0591,-0.30368 -0.25222,-0.50688 -0.54121,-0.56393 l -1.8e-4,8e-4 c -0.0355,-0.009 -0.073,-0.0172 -0.11017,-0.0233 -0.021,-0.0107 -0.043,-0.0171 -0.0658,-0.0211 z"
         sodipodi:nodetypes="cccccsccccccccccccccccc" />
      <path
         id="path6528-0-6-1-4"
         style="display:inline;fill:#ffffff;stroke-width:0.0145254"
         d="m 163.65864,125.27901 c -0.0447,-0.24182 -0.30084,-0.44623 -0.57726,-0.44398 -0.60591,10e-4 -1.16141,0.17943 -1.67684,0.38685 -0.35953,0.11769 -0.5958,0.45342 -0.49063,0.83056 0.005,0.27722 0.25852,0.66975 0.58038,0.72886 0.0946,0.0335 0.1612,0.0368 0.20807,0.0173 2.3e-4,-10e-5 4.9e-4,-6e-5 7.3e-4,-1.7e-4 l 0.12427,0.10224 c 3.8e-4,0.003 2.3e-4,0.004 0.001,0.007 0.0399,0.17609 0.11984,0.27062 0.34719,0.26631 l 0.1013,0.12279 c -0.0545,0.15066 0.094,0.31067 0.33279,0.32955 0.28763,-0.021 0.72733,-0.11312 0.71379,-0.33753 l 5.9e-4,-9.4e-4 c 0.003,-0.12266 -0.0309,-0.27319 -0.10829,-0.30316 l -0.003,-0.0572 0.008,0.003 c 0.25817,-0.14031 0.30257,-0.37365 0.19752,-0.64867 0.2292,-0.19823 0.32706,-0.48604 0.26957,-0.80442 l -7.1e-4,1.9e-4 c -0.005,-0.0403 -0.0121,-0.0815 -0.0207,-0.12213 6.5e-4,-0.0261 -0.001,-0.0513 -0.007,-0.0762 z"
         sodipodi:nodetypes="cccccsccccccccccccccccc" />
      <path
         id="path6528-0-6-1-4-7"
         style="display:inline;fill:#ffffff;stroke-width:0.0145254"
         d="m 164.46107,127.59064 c 0.19335,0.11729 0.2942,0.45178 0.21312,0.74893 -0.17476,0.65225 -0.48542,1.19969 -0.80977,1.69554 -0.20309,0.35365 -0.557,0.51194 -0.84827,0.29071 -0.23466,-0.0853 -0.49675,-0.47024 -0.45503,-0.83385 -10e-4,-0.11151 0.0148,-0.1841 0.0446,-0.22913 1.4e-4,-2.5e-4 1.9e-4,-5.2e-4 3.4e-4,-7.4e-4 l -0.0516,-0.16306 c -0.003,-0.001 -0.004,-0.003 -0.005,-0.003 -0.13861,-0.0935 -0.19634,-0.20655 -0.1275,-0.45025 l -0.0758,-0.14425 c -0.14398,0.0156 -0.23791,-0.19007 -0.18559,-0.4528 0.10022,-0.30385 0.3046,-0.7511 0.492,-0.67225 l 9.8e-4,-3.8e-4 c 0.10547,0.0318 0.22399,0.11138 0.22737,0.20341 l 0.0484,0.0184 0.001,-0.009 c 0.19351,-0.23788 0.40506,-0.21893 0.60937,-0.027 0.23456,-0.19014 0.50786,-0.21317 0.76273,-0.0601 l -3.3e-4,7.4e-4 c 0.0332,0.0161 0.0662,0.0365 0.0981,0.0571 0.0224,0.007 0.0435,0.0159 0.063,0.0288 z"
         sodipodi:nodetypes="cccccsccccccccccccccccc" />
      <path
         id="rect9060-8"
         style="display:inline;stroke-width:0.727763;stroke-linecap:round;stop-color:#000000"
         d="m 84.048828,55.587891 c -2.706136,0.0108 -5.487976,0.125621 -6.058594,0.267578 -0.224239,0.05567 -0.416015,0.187039 -0.416015,0.417969 v 5.880859 c 0.331162,0.166715 0.5625,0.511503 0.5625,0.902344 v 0.519531 h 0.90039 c 0.5503,0 1.009766,0.459542 1.009766,1.009766 v 2.292968 h 11.554687 c 0.231081,0 0.46326,-0.191953 0.416016,-0.417968 l -2.136719,-10.1875 c -0.04739,-0.22613 -0.194535,-0.352961 -0.416015,-0.417969 -0.698439,-0.205689 -3.028248,-0.277109 -5.416016,-0.267578 z m 3.804688,2.240234 a 0.49999937,0.49999937 0 0 1 0.355468,0.146484 0.49999937,0.49999937 0 0 1 0,0.708985 l -5.292968,5.292968 a 0.49999937,0.49999937 0 0 1 -0.708985,0 0.49999937,0.49999937 0 0 1 0,-0.708984 L 87.5,57.974609 a 0.49999937,0.49999937 0 0 1 0.353516,-0.146484 z"
         transform="matrix(0.26458333,0,0,0.26458333,135.48963,99.590537)" />
      <path
         style="fill:#000000;stroke:none;stroke-width:0.264583px;stroke-linecap:butt;stroke-linejoin:miter;stroke-opacity:1"
         d="m 156.86535,117.44557 h 2.7351 l -0.48402,1.80637 h -2.24566 z"
         id="path5617"
         sodipodi:nodetypes="ccccc" />
      <rect
         style="fill:#000000;stroke:none;stroke-width:0.2;stroke-linecap:round;stroke-linejoin:round;stroke-miterlimit:4;stroke-dasharray:none"
         id="rect5841"
         width="2.5966318"
         height="0.94821405"
         x="123.5899"
         y="155.47205"
         ry="0.23279923"
         transform="rotate(-13.653075)" />
      <path
         style="fill:#000000;stroke:none;stroke-width:0.264583px;stroke-linecap:butt;stroke-linejoin:miter;stroke-opacity:1"
         d="m 157.14321,119.46349 v 2.12377 l 1.66063,-0.44497 0.0291,-1.68497 z"
         id="path6055"
         sodipodi:nodetypes="ccccc" />
      <path
         style="display:inline;fill:#000000;stroke-width:0.0112739"
         d="m 161.04958,126.73005 c 0.22837,0.0457 0.3743,0.22262 0.42298,0.45481 0.21689,-0.004 0.4113,0.11232 0.4119,0.35052 -0.14363,0.15893 -0.14874,0.36432 -0.18075,0.5381 0.0857,0.22942 -0.22703,0.59076 -0.45064,0.47018 -0.23892,-0.0482 -0.2044,-0.35938 -0.15526,-0.59847 0.0646,-0.24387 0.0783,-0.57717 0.33798,-0.75392 -0.24296,0.003 -0.35335,0.3608 -0.39259,0.56292 -0.0374,0.23832 -0.14111,0.52865 -0.0263,0.70681 0.11809,0.0576 0.18287,0.13522 0.0355,0.30421 -0.15226,0.23099 -0.42229,0.33428 -0.60554,0.2606 -0.28366,-0.0252 -0.41959,-0.30157 -0.36958,-0.61134 0.0465,-0.455 0.12589,-0.93242 0.33797,-1.39924 0.10614,-0.23537 0.36807,-0.38118 0.54627,-0.30316 0.0297,0.004 0.0591,0.009 0.0872,0.0179 z m 1.05601,0.78999 c 0.23398,0.0692 0.10345,0.42107 0.0157,0.64832 -0.16308,0.30115 -0.46249,0.0822 -0.35435,-0.16487 0.025,-0.16369 0.0952,-0.59758 0.33836,-0.48364 z"
         id="path6528-0-6"
         sodipodi:nodetypes="sssscsscsssssssscscc" />
      <path
         style="display:inline;fill:#000000;stroke-width:0.0112739"
         d="m 163.37619,125.66326 c 0.0376,0.25381 -0.0621,0.47895 -0.24036,0.62788 0.0748,0.22103 0.0423,0.46989 -0.15661,0.57208 -0.18065,-0.0797 -0.35423,0.003 -0.51027,0.0441 -0.16353,0.1858 -0.56968,0.0191 -0.54295,-0.26183 -0.0388,-0.26571 0.23294,-0.36296 0.44934,-0.4145 0.22556,-0.0372 0.50897,-0.16583 0.74302,0.0251 -0.0829,-0.2481 -0.41914,-0.20866 -0.6013,-0.1627 -0.21183,0.0634 -0.48922,0.0807 -0.60023,0.27447 -0.009,0.14567 -0.0525,0.24528 -0.24283,0.16608 -0.24379,-0.0576 -0.4198,-0.29066 -0.41894,-0.51007 -0.073,-0.30179 0.11325,-0.55905 0.38901,-0.63987 0.39618,-0.14642 0.82206,-0.26852 1.28313,-0.24949 0.23217,0.008 0.44107,0.21508 0.43491,0.43113 0.007,0.0322 0.0121,0.0648 0.0141,0.097 z m -0.31077,1.42028 c 0.0197,0.26956 -0.31807,0.28569 -0.53734,0.29265 -0.30608,-0.0388 -0.22224,-0.43938 0.0206,-0.43382 0.14534,-0.0437 0.53169,-0.15706 0.51698,0.14082 z"
         id="path6528-0-6-2"
         sodipodi:nodetypes="sssscsscsssssssscscc" />
      <path
         style="display:inline;fill:#000000;stroke-width:0.0112739"
         d="m 164.10686,127.8549 c -0.19379,-0.1349 -0.41577,-0.11568 -0.60502,0.0148 -0.15282,-0.16179 -0.3689,-0.22175 -0.52777,-0.0517 -0.003,0.21915 -0.13596,0.36984 -0.22852,0.51768 -0.2139,0.10116 -0.23054,0.58923 0.009,0.66721 0.20269,0.14143 0.38521,-0.10694 0.50905,-0.31407 0.11554,-0.22215 0.32786,-0.47033 0.25962,-0.78744 0.17201,0.18034 0.0134,0.51754 -0.0935,0.69094 -0.13193,0.19785 -0.25065,0.48175 -0.45128,0.52488 -0.12266,-0.0455 -0.22075,-0.0376 -0.22768,0.19157 -0.0447,0.277 0.0797,0.54918 0.25982,0.63104 0.2197,0.19021 0.50068,0.0923 0.67093,-0.1659 0.26937,-0.35956 0.53012,-0.75936 0.68875,-1.24907 0.0806,-0.24625 -0.009,-0.54292 -0.1891,-0.61798 -0.0245,-0.0181 -0.049,-0.036 -0.0743,-0.0512 z m -1.28074,-0.2104 c -0.21337,-0.12226 -0.35402,0.22523 -0.44243,0.45219 -0.0848,0.33485 0.27608,0.39844 0.36311,0.14225 0.0906,-0.13575 0.32923,-0.49744 0.0797,-0.59441 z"
         id="path6528-0-6-3"
         sodipodi:nodetypes="sssscsscsssssssscscc" />
      <path
         style="fill:#000000;stroke:none;stroke-width:0.264583px;stroke-linecap:butt;stroke-linejoin:miter;stroke-opacity:1"
         d="m 159.67063,127.2936 c 0.0587,-2.06288 2.42627,-2.46246 3.29268,-2.35215 -0.18296,-0.87531 -3.58558,-2.36549 -3.58558,-2.36549 l -1.56748,0.34199 c 0,0 1.14936,4.34642 1.86038,4.37565 z"
         id="path9792"
         sodipodi:nodetypes="ccccc" />
    </g>
    <path
       id="rect9060-8-3"
       style="display:inline;stroke-width:0.18179;stroke-linecap:round;stop-color:#000000"
       d="m 151.16287,116.29146 c 0.67597,0.003 1.37086,0.0313 1.51339,0.0668 0.056,0.0139 0.10392,0.0467 0.10392,0.10441 v 1.469 c -0.0827,0.0416 -0.1405,0.12777 -0.1405,0.2254 v 0.12977 h -0.22492 c -0.13746,0 -0.25223,0.11479 -0.25223,0.25224 v 0.57276 h -2.88628 c -0.0577,0 -0.11572,-0.048 -0.10392,-0.10441 l 0.53374,-2.54476 c 0.0118,-0.0565 0.0486,-0.0882 0.10391,-0.10441 0.17447,-0.0514 0.75644,-0.0692 1.35289,-0.0668 z m -0.95039,0.5596 a 0.12489642,0.12489642 0 0 0 -0.0888,0.0366 0.12489642,0.12489642 0 0 0 0,0.1771 l 1.32215,1.32215 a 0.12489642,0.12489642 0 0 0 0.1771,0 0.12489642,0.12489642 0 0 0 0,-0.17711 l -1.32214,-1.32214 a 0.12489642,0.12489642 0 0 0 -0.0883,-0.0366 z" />
    <path
       style="fill:#000000;stroke:none;stroke-width:0.249793px;stroke-linecap:butt;stroke-linejoin:miter;stroke-opacity:1"
       d="m 151.97687,119.26292 h -2.58221 l 0.45697,1.70539 h 2.12013 z"
       id="path5617-0"
       sodipodi:nodetypes="ccccc" />
    <rect
       style="fill:#000000;stroke:none;stroke-width:0.18882;stroke-linecap:round;stroke-linejoin:round;stroke-miterlimit:4;stroke-dasharray:none"
       id="rect5841-7"
       width="2.4514804"
       height="0.89520895"
       x="-176.8916"
       y="84.096802"
       ry="0.21978578"
       transform="matrix(-0.97174276,-0.23604237,-0.23604237,0.97174276,0,0)" />
    <path
       style="fill:#000000;stroke:none;stroke-width:0.249793px;stroke-linecap:butt;stroke-linejoin:miter;stroke-opacity:1"
       d="m 151.71454,121.16804 v 2.00505 l -1.5678,-0.4201 -0.0275,-1.59078 z"
       id="path6055-8"
       sodipodi:nodetypes="ccccc" />
    <path
       style="fill:#000000;stroke:none;stroke-width:0.249793px;stroke-linecap:butt;stroke-linejoin:miter;stroke-opacity:1"
       d="m 149.32841,128.56045 c -0.0554,-1.94757 -2.29064,-2.32481 -3.10862,-2.22067 0.17273,-0.82638 3.38514,-2.23326 3.38514,-2.23326 l 1.47986,0.32287 c 0,0 -1.08511,4.10346 -1.75638,4.13106 z"
       id="path9792-4"
       sodipodi:nodetypes="ccccc" />
    <path
       id="path11199-3-4"
       style="display:inline;fill:#000000;stroke-width:0.0647671"
       d="m 16.503906,70.5 c -0.0063,8.1e-4 -0.01351,0.0017 -0.01953,0.0039 -0.02646,0.01512 -0.443868,0.912617 -0.929687,1.996094 l -0.882813,1.970703 -0.308594,0.173828 -0.304687,0.175781 -2.365235,-0.140624 c -1.300346,-0.07748 -2.3678063,-0.119893 -2.3769528,-0.0957 -0.00756,0.02646 0.3627763,0.838755 0.8242188,1.810547 l 0.837891,1.767578 -0.183594,0.53125 -0.185547,0.53125 -1.9980469,1.150391 -2,1.150391 2.1347657,0.933593 2.1347652,0.931641 0.125,0.275391 c 0.06765,0.151559 0.248227,0.458459 0.400391,0.68164 l 0.277344,0.40625 -1.236328,1.949219 c -0.7515598,1.186545 -1.201578,1.957008 -1.1484379,1.966797 0.047622,0.0076 1.1577949,-0.05968 2.4667969,-0.150391 l 2.378906,-0.164062 0.38086,0.515625 0.382812,0.513672 -0.371094,0.580078 c -1.025574,1.59617 -2.098421,3.319107 -2.078125,3.34375 0.01134,0.01512 1.131053,-0.05004 2.488282,-0.144532 l 2.46875,-0.171874 0.345703,0.53125 0.345703,0.53125 -1.220703,1.927734 c -0.672114,1.060082 -1.21541,1.938259 -1.208985,1.955078 0.0076,0.0189 1.1229,-0.04311 2.47461,-0.128906 l 2.457031,-0.15625 0.376953,0.511718 0.376953,0.509766 -0.25,0.392578 c -1.265915,1.985576 -2.166624,3.417036 -2.183593,3.470706 -0.01134,0.034 0.889713,0.006 2.001953,-0.0644 1.112352,-0.0699 2.230882,-0.13918 2.484375,-0.1543 l 0.458984,-0.0293 0.353516,0.50782 0.353515,0.50781 -0.863281,1.36914 c -0.474746,0.7528 -1.029298,1.63022 -1.234375,1.94922 -0.213543,0.33222 -0.33826,0.58822 -0.291016,0.5957 0.04573,0.008 1.161275,-0.0519 2.478516,-0.13281 l 2.394531,-0.14844 0.382813,0.51758 0.382812,0.51758 -1.248047,1.92968 c -0.685719,1.06137 -1.232987,1.93826 -1.226562,1.95508 0.02268,0.0302 0.01614,0.03 2.818359,-0.14648 l 2.115235,-0.13477 0.382812,0.51367 0.38086,0.51563 -1.246094,1.92578 c -0.685569,1.05936 -1.227629,1.9414 -1.201172,1.96094 0.02268,0.0227 1.14965,-0.0346 2.5,-0.12305 l 2.455078,-0.1582 0.347656,0.5332 0.345703,0.5332 -1.222656,1.92969 c -0.673285,1.06091 -1.213494,1.93638 -1.207031,1.95313 0.01134,0.0113 1.127487,-0.05 2.484375,-0.14454 l 2.466797,-0.17187 0.517578,0.74023 0.205078,0.29493 -0.607422,0.32812 c -0.166677,0.3772 -0.479068,1.08109 -0.867187,1.95703 -0.437723,0.98697 -0.766068,1.80406 -0.751953,1.85547 0.05594,0.002 1.708297,-0.3473 4.009765,-0.8457 l 0.455078,-0.0996 0.347657,0.53125 0.349609,0.53125 -1,2.25195 c -0.549241,1.23799 -0.989703,2.26032 -0.978516,2.27344 0.01512,0.0113 1.024514,-0.19064 2.251953,-0.45313 l 2.230469,-0.47851 0.380859,0.50976 0.376954,0.50977 -1.017578,2.25391 c -0.559597,1.24017 -1.008403,2.26683 -0.998047,2.2832 0.01512,0.0302 2.00466,-0.37866 3.857421,-0.78711 l 0.671876,-0.14648 0.349609,0.5371 0.351562,0.53516 -0.980468,2.17578 c -0.539339,1.19619 -0.987288,2.21391 -0.996094,2.26172 -0.0076,0.0525 0.868669,-0.10308 2.242187,-0.39648 l 2.259766,-0.48047 0.283203,0.40039 c 0.156473,0.22035 0.381701,0.49634 0.5,0.61328 l 0.214844,0.21289 0.134765,2.32422 0.134766,2.32422 1.773438,-1.47461 1.773437,-1.47461 0.560547,0.01 0.5625,0.0117 1.367188,1.40039 c 0.751482,0.76989 1.386975,1.40065 1.412109,1.40235 0.02646,10e-4 0.355742,-1.01527 0.734375,-2.26172 l 0.6875,-2.26758 0.271484,-0.22656 0.271485,-0.22656 2.152343,-0.14649 c 1.184618,-0.0797 2.171627,-0.15959 2.19336,-0.17773 0.02268,-0.0189 0.03049,-0.0519 0.0078,-0.0742 -0.01512,-0.0265 -0.419331,-0.8412 -0.894531,-1.81836 l -0.865234,-1.77734 0.140625,-0.61133 0.136718,-0.61524 1.746094,-1.47656 c 0.960869,-0.81245 1.735557,-1.49326 1.720703,-1.51367 -0.01134,-0.0189 -0.915011,-0.36488 -2,-0.76563 -1.687748,-0.62332 -1.982698,-0.75375 -2.046875,-0.90429 -0.04082,-0.0971 -0.21993,-0.4198 -0.398437,-0.7168 l -0.326172,-0.53906 0.998047,-2.25977 c 0.549656,-1.24263 0.977931,-2.2617 0.951172,-2.26367 -0.02646,-10e-4 -1.032221,0.21137 -2.234375,0.47461 l -2.185547,0.48047 -0.376953,-0.53906 -0.375,-0.53711 0.861328,-1.94141 c 1.188812,-2.67882 1.149788,-2.57664 1.029297,-2.56836 -0.0548,0.004 -1.070914,0.22267 -2.253907,0.48633 l -2.15039,0.47851 -0.371094,-0.53515 -0.369141,-0.53711 0.992188,-2.23438 c 0.546028,-1.22921 0.992905,-2.25208 0.992187,-2.27343 -0.0012,-0.0189 -0.674298,0.106 -1.498047,0.28515 -0.824011,0.17802 -1.835813,0.39503 -2.248046,0.47852 l -0.75,0.15429 -0.357422,-0.51367 -0.357422,-0.51367 c -0.08655,-0.14551 -0.172837,-0.26224 -0.259766,-0.35937 l -0.484375,-0.69727 -0.517578,-0.74414 1.240235,-1.92578 c 0.563121,-0.78277 -3.345037,1.03462 -5.121094,1.38282 l 2.255859,3.24024 c -0.0028,0.002 -0.0079,0.004 -0.01172,0.008 10.080114,14.47963 11.083613,15.94169 11.185547,16.27539 0.06274,0.20976 0.151092,0.65806 0.195313,0.99414 0.06539,0.50483 0.04767,0.76806 -0.0918,1.51172 -0.19389,1.0309 -0.430404,1.59499 -1.021485,2.41601 -0.488238,0.67767 -1.315142,1.39469 -2.03125,1.76172 -1.601422,0.82095 -3.440473,0.69536 -4.707031,-0.32031 -0.342803,-0.27515 -0.917083,-1.08551 -12.558593,-17.77734 l -0.0078,0.004 -13.089844,-18.82617 C 13.879866,82.874599 13.588229,82.453648 13.443359,82.019531 c -0.513297,-1.540233 0.0088,-3.312062 1.333985,-4.529297 0.592667,-0.544403 1.552458,-1.07009 2.357422,-1.292968 0.1217,-0.03402 0.23616,-0.06074 0.347656,-0.08984 l 0.0039,0.002 c 0.392126,-0.09165 0.733411,-0.139901 1.089844,-0.144531 0.356433,-0.0046 0.727259,0.03322 1.179687,0.109375 0.746117,0.126992 1.000275,0.203535 1.451172,0.439453 0.300473,0.157228 0.689046,0.394833 0.863281,0.527344 0.301229,0.229417 0.967587,1.175607 13.746094,19.523437 l 4.431641,6.363276 c 0.330929,-1.60824 -1.32918,-2.20687 1.164062,-3.378901 l -0.367187,-0.533203 1.234375,-1.949219 c 1.080038,-1.707364 1.214352,-1.950239 1.082031,-1.949218 -0.08277,7.17e-4 -0.489834,0.02521 -0.904297,0.05469 -0.414425,0.03402 -1.465991,0.09899 -2.33789,0.150391 l -1.587891,0.0957 -0.349609,-0.53711 -0.347657,-0.537109 1.210938,-1.912109 c 0.667313,-1.051427 1.215399,-1.921211 1.222656,-1.9375 0.0036,-0.01512 -0.954595,0.03725 -2.130859,0.111328 -1.176265,0.07597 -2.292917,0.147493 -2.482422,0.154297 l -0.34375,0.01758 L 34.951172,90.263672 34.595703,89.748047 35,89.099609 c 0.221858,-0.357165 0.77268,-1.232997 1.226562,-1.943359 0.453808,-0.7104 0.807306,-1.299422 0.791016,-1.306641 -0.02268,-0.0076 -1.134225,0.05678 -2.476562,0.142579 l -2.441407,0.15625 -0.375,-0.533204 -0.373047,-0.533203 1.19336,-1.853515 c 0.657146,-1.018545 1.215049,-1.892374 1.236328,-1.94336 0.04913,-0.110362 0.156945,-0.113687 -2.767578,0.07227 l -2.117188,0.134766 -0.373046,-0.53711 -0.375,-0.541016 1.207031,-1.882812 c 0.664592,-1.035893 1.211556,-1.90565 1.220703,-1.929688 0.0076,-0.03024 -1.095002,0.02232 -2.451172,0.105469 l -2.464844,0.154297 -0.394531,-0.492187 c -0.216945,-0.270237 -0.456365,-0.550972 -0.533203,-0.623047 -0.118677,-0.11263 -0.137475,-0.433291 -0.136719,-2.232422 7.18e-4,-1.156611 -0.01223,-2.122143 -0.02734,-2.140625 -0.01512,-0.02268 -0.920355,0.468426 -2.015625,1.087891 l -1.992187,1.125 -0.623047,-0.08398 -0.621094,-0.08203 -1.367187,-1.427734 c -0.751408,-0.784971 -1.37702,-1.447586 -1.396485,-1.46875 -0.0076,-0.01134 -0.01807,-0.02013 -0.03125,-0.02344 -0.006,-0.0015 -0.0113,-8.1e-4 -0.01758,0 z m 2.105469,7.201172 c -0.251505,0.0019 -0.507077,0.02923 -0.763672,0.08398 l -0.002,-0.002 c -0.104315,0.02268 -0.207366,0.04915 -0.310547,0.08203 -2.180674,0.658243 -3.068315,3.143983 -1.632812,4.572266 0.822311,0.818192 2.261919,1.124434 3.455078,0.732422 0.797215,-0.262299 1.572258,-0.867586 1.935547,-1.509766 0.382904,-0.676875 0.465575,-1.584824 0.203125,-2.228515 -0.428847,-1.052386 -1.537675,-1.703124 -2.777344,-1.730469 -0.03576,-7.89e-4 -0.07149,-2.76e-4 -0.107422,0 z m -0.181641,1.326172 c 0.04723,-0.0014 0.09588,-0.0015 0.144532,0 0.324372,0.01 0.667732,0.08205 0.876953,0.199218 0.637757,0.357544 0.890347,1.176694 0.554687,1.802735 -0.447382,0.834557 -1.434538,1.190624 -2.363281,0.851562 -1.405493,-0.512882 -1.139892,-2.361335 0.402344,-2.800781 0.110572,-0.03146 0.243086,-0.04858 0.384765,-0.05273 z m 37.667969,51.988276 c -0.04336,-7e-5 -0.08578,0 -0.128906,0.002 -0.09856,0.004 -0.197011,0.0137 -0.292969,0.0293 -0.04573,0.008 -0.09099,0.018 -0.136719,0.0293 -0.04611,0.0113 -0.09181,0.0219 -0.138671,0.0332 -0.655068,0.18745 -1.353489,0.6556 -1.810547,1.23046 -0.781531,0.9831 -0.995827,2.43909 -0.513672,3.49414 0.841701,1.84177 3.479695,1.87185 4.853515,0.0547 1.04863,-1.38659 1.009028,-3.25256 -0.0918,-4.25976 -0.42057,-0.38507 -1.089828,-0.61214 -1.740235,-0.61329 z m -0.144531,1.44922 c 0.655065,-0.0205 1.260286,0.4792 1.367187,1.15625 0.06123,0.37875 -0.11005,1.04118 -0.351562,1.3711 -0.947112,1.29411 -2.772088,0.90038 -2.765625,-0.59571 0.0036,-0.92674 0.598245,-1.68971 1.445312,-1.88867 v -0.002 c 0.05669,-0.0151 0.115247,-0.0275 0.173828,-0.0312 0.04397,-0.006 0.08719,-0.008 0.13086,-0.01 z"
       transform="matrix(0.26458333,0,0,0.26458333,135.48963,99.590537)"
       sodipodi:nodetypes="sccccccccccccccccccccccccccsccccccccccccccccccccccccccccccccccccccccccccccccccccccccccccccccccccccccccccccccscccccccccccccccccccccccccccccccccccccccccccccccscccscsccccccccccccccccccccccccccccccccccccccccccccccssssccscscssssccccsssccccsccsccccccccccccc" />
    <path
       id="rect3052"
       style="fill:#000000;stroke:none;stroke-width:0.2;stroke-linecap:round;stroke-linejoin:round"
       d="m 140.71312,122.67396 c -0.0969,0.0781 -0.11553,0.21871 -0.0413,0.32049 l 0.33983,0.46596 1.51476,-1.10475 -0.33983,-0.46595 c -0.0766,-0.10507 -0.22315,-0.12764 -0.32821,-0.0511 l -1.13525,0.82796 c -0.003,0.002 -0.007,0.004 -0.01,0.007 z m 0.45505,1.00105 0.27041,0.37077 1.51476,-1.10474 -0.27041,-0.37077 z m 0.42691,0.58535 0.27041,0.37076 1.51476,-1.10474 -0.27041,-0.37075 z m 0.42693,0.58538 1.31393,1.80159 c 0.0766,0.10508 0.22274,0.12794 0.32781,0.0514 l 1.13524,-0.82795 c 0.10507,-0.0766 0.12834,-0.22304 0.0518,-0.32811 l -1.31394,-1.8016 z" />
    <path
       id="rect3052-2"
       style="display:inline;fill:#000000;stroke:none;stroke-width:0.2;stroke-linecap:round;stroke-linejoin:round"
       d="m 150.20393,133.60728 c 0.0969,-0.0781 0.11553,-0.21871 0.0413,-0.32049 l -0.33983,-0.46596 -1.51476,1.10475 0.33983,0.46595 c 0.0766,0.10507 0.22315,0.12764 0.32821,0.0511 l 1.13525,-0.82796 c 0.003,-0.002 0.007,-0.004 0.01,-0.007 z m -0.45505,-1.00105 -0.27041,-0.37077 -1.51476,1.10474 0.27041,0.37077 z m -0.42691,-0.58535 -0.27041,-0.37076 -1.51476,1.10474 0.27041,0.37075 z m -0.42693,-0.58538 -1.31393,-1.80159 c -0.0766,-0.10508 -0.22274,-0.12794 -0.32781,-0.0514 l -1.13524,0.82795 c -0.10507,0.0766 -0.12834,0.22304 -0.0518,0.32811 l 1.31394,1.8016 z" />
    <path
       d="M 145.98998,128.49574"
       style="display:inline;fill:none;stroke:#000000;stroke-width:0.14949;stroke-linecap:round;stroke-linejoin:miter;stroke-miterlimit:4;stroke-dasharray:0.14949, 0.14949;stroke-dashoffset:0;stroke-opacity:1"
       id="path3712" />
    <path
       id="rect5150"
       style="color:#000000;fill:#000000;stroke-width:1;stroke-linecap:round;stroke-linejoin:round;-inkscape-stroke:none"
       d="m 155.15614,116.09342 c -0.20555,0 -0.37205,0.14402 -0.48059,0.33435 -0.10854,0.19033 -0.17002,0.43895 -0.17002,0.71261 v 0.63252 c 0.0385,-0.0105 0.0782,-0.016 0.11938,-0.016 h 0.13849 v -0.6165 c 0,-0.23414 0.0544,-0.44499 0.13487,-0.58601 0.0804,-0.14102 0.17384,-0.20102 0.25787,-0.20102 h 1.80816 c 0.084,0 0.17744,0.06 0.25786,0.20102 0.0804,0.14102 0.13488,0.35187 0.13488,0.58601 v 0.6165 h 0.0357 c 0.08,0 0.15574,0.021 0.22427,0.0589 v -0.67542 c 0,-0.27366 -0.0615,-0.52228 -0.17001,-0.71261 -0.10854,-0.19033 -0.27711,-0.33435 -0.48266,-0.33435 z" />
    <rect
       style="fill:#000000;stroke:none;stroke-width:0.264999;stroke-linecap:round;stroke-linejoin:round;stroke-miterlimit:4;stroke-dasharray:none;stroke-dashoffset:0"
       id="rect6072"
       width="1.5033002"
       height="2.5266969"
       x="63.771423"
       y="181.79228"
       rx="0.5519076"
       ry="0.91424125"
       transform="rotate(-29.225779)" />
    <ellipse
       style="fill:#000000;stroke:none;stroke-width:0.264999;stroke-linecap:round;stroke-linejoin:round;stroke-miterlimit:4;stroke-dasharray:none;stroke-dashoffset:0"
       id="path6176"
       cx="147.46086"
       cy="127.83304"
       rx="0.74061763"
       ry="0.75217366" />
    <rect
       style="fill:#000000;stroke:none;stroke-width:0.264999;stroke-linecap:round;stroke-linejoin:round;stroke-miterlimit:4;stroke-dasharray:none;stroke-dashoffset:0"
       id="rect6280"
       width="0.73350406"
       height="2.0303812"
       x="140.79497"
       y="-134.97264"
       rx="0.5519076"
       ry="0.37414211"
       transform="rotate(84.640312)" />
    <path
       id="path7201"
       style="color:#000000;fill:#000000;stroke-width:3.77953;stroke-linecap:round;stroke-linejoin:round;-inkscape-stroke:none"
       d="M 45.076172 102.13281 C 44.019446 102.13281 43.041838 102.47922 42.25 103.06445 L 42.802734 103.89648 C 43.433537 103.41949 44.220788 103.13672 45.076172 103.13672 C 47.161942 103.13672 48.841797 104.81654 48.841797 106.90234 C 48.841797 108.29468 48.092482 109.50488 46.974609 110.15625 L 47.529297 110.98828 C 48.9153 110.15263 49.845703 108.63348 49.845703 106.90234 C 49.845703 104.27527 47.703246 102.13281 45.076172 102.13281 z "
       transform="matrix(0.26458333,0,0,0.26458333,135.48963,99.590537)" />
  </g>
</svg>
