<?xml version="1.0" encoding="UTF-8" standalone="no"?>
<!-- Created with Inkscape (http://www.inkscape.org/) -->

<svg
   sodipodi:docname="MiningMech.svg"
   inkscape:version="1.1.2 (0a00cf5339, 2022-02-04)"
   id="svg8"
   version="1.1"
   viewBox="0 0 34.98301 52.516205"
   height="52.516205mm"
   width="34.983009mm"
   xmlns:inkscape="http://www.inkscape.org/namespaces/inkscape"
   xmlns:sodipodi="http://sodipodi.sourceforge.net/DTD/sodipodi-0.dtd"
   xmlns="http://www.w3.org/2000/svg"
   xmlns:svg="http://www.w3.org/2000/svg"
   xmlns:rdf="http://www.w3.org/1999/02/22-rdf-syntax-ns#"
   xmlns:cc="http://creativecommons.org/ns#"
   xmlns:dc="http://purl.org/dc/elements/1.1/">
  <defs
     id="defs2" />
  <sodipodi:namedview
     id="base"
     pagecolor="#ffffff"
     bordercolor="#666666"
     borderopacity="1.0"
     inkscape:pageopacity="0.0"
     inkscape:pageshadow="2"
     inkscape:zoom="8"
     inkscape:cx="57.1875"
     inkscape:cy="112.6875"
     inkscape:document-units="mm"
     inkscape:current-layer="layer1"
     showgrid="false"
     inkscape:window-width="1846"
     inkscape:window-height="1016"
     inkscape:window-x="74"
     inkscape:window-y="1107"
     inkscape:window-maximized="1"
     inkscape:snap-global="false"
     fit-margin-top="0"
     fit-margin-left="0"
     fit-margin-right="0"
     fit-margin-bottom="0"
     showguides="false"
     inkscape:guide-bbox="true"
     inkscape:pagecheckerboard="0" />
  <metadata
     id="metadata5">
    <rdf:RDF>
      <cc:Work
         rdf:about="">
        <dc:format>image/svg+xml</dc:format>
        <dc:type
           rdf:resource="http://purl.org/dc/dcmitype/StillImage" />
      </cc:Work>
    </rdf:RDF>
  </metadata>
  <g
     inkscape:label="Capa 1"
     inkscape:groupmode="layer"
     id="layer1"
     transform="translate(-135.48963,-99.590537)"
     style="display:inline">
    <rect
       style="opacity:1;vector-effect:none;fill:#1a1a1a;fill-opacity:1;stroke:none;stroke-width:0.1;stroke-linecap:butt;stroke-linejoin:miter;stroke-miterlimit:4;stroke-dasharray:none;stroke-dashoffset:0;stroke-opacity:1"
       id="rect860"
       width="7.0941477"
       height="0"
       x="148.86763"
       y="129.31949" />
    <g
       id="g1831"
       transform="translate(0.54280906,-0.93131917)">
      <g
         id="path1550" />
      <g
         id="path1550-3" />
    </g>
    <g
       id="rect2870" />
    <path
       id="rect9306"
       style="stroke-width:0.158538;stroke-linecap:round;stop-color:#000000"
       d="m 149.33313,123.64045 c -0.0362,6.7e-4 -0.0726,0.003 -0.10924,0.007 l 0.25124,0.29835 a 0.32758207,0.32758207 0 0 1 0.22189,0.30995 0.32758207,0.32758207 0 0 1 -0.31132,0.32703 l 1.18315,1.35042 0.004,3.32896 -2.46053,0.0376 -0.79469,-1.30059 v 2.14443 h 4.10248 v -4.87327 c -0.41615,-0.12383 -0.95263,-0.20245 -1.51633,-0.23417 v -1.29445 c -0.21448,-0.0695 -0.39216,-0.10437 -0.57075,-0.10104 z" />
    <path
       id="path21684"
       style="fill:#000000;stroke:none;stroke-width:0.349553px;stroke-linecap:butt;stroke-linejoin:miter;stroke-opacity:1"
       d="m 143.18726,119.34135 0.23933,0.50527 0.0713,-0.50254 z m 0.86433,0.008 v 1.25077 l 2.10415,4.85345 2.184,3.52935 2.02597,-0.0153 -0.01,-3.0444 -5.75406,-6.56905 z"
       sodipodi:nodetypes="cccccccccccc" />
    <path
       id="rect22956"
       style="fill:#000000;stroke-width:0.158538;stroke-linecap:round;stop-color:#000000"
       d="m 144.88792,118.61289 c 1.8e-4,0.004 7e-4,0.007 7e-4,0.0109 v 0.0874 c 0,0.11916 -0.0959,0.21505 -0.21506,0.21505 h -0.0273 v 0.0812 l 4.5401,5.39282 c 0.0767,0.0912 0.20259,0.11953 0.29972,0.0505 l 0.008,-0.006 c 0.0971,-0.069 0.12796,-0.20855 0.0512,-0.29971 z" />
    <path
       id="rect10947"
       style="fill:#000000;stroke-width:0.112637;stroke-linecap:round;stop-color:#000000"
       d="m 150.21794,123.74013 v 1.04798 c 0.56369,0.0317 1.10017,0.11038 1.51632,0.23417 v 1.92801 h 0.91348 v -0.46698 l 0.31884,-1.80239 h 5.27402 l 0.31884,1.80239 v 0.46698 h 0.40826 v -1.12103 h 1.18453 v -0.45743 c 0.14549,-0.054 0.67693,-0.0888 1.28215,-0.10172 l 0.41783,-1.52998 z" />
    <path
       id="rect10356"
       style="fill:#000000;stroke-width:0.158538;stroke-linecap:round;stop-color:#000000"
       d="m 148.77466,119.55777 0.0758,0.61377 h 11.75307 v -10e-4 h 0.16044 v 10e-4 h 1.57367 l 0.0758,-0.61377 z m 0.0949,0.7708 0.38164,3.09819 h 1.17292 v -3.09819 z m 1.71431,0 v 3.09819 h 2.38544 v -3.09819 z m 2.54519,0 v 3.09819 h 2.38475 v -3.09819 z m 2.54451,0 v 3.09819 h 2.38543 v -3.09819 z m 2.54519,0 v 3.09819 h 3.71742 l 0.38232,-3.09819 h -1.55455 v 3.09546 h -0.16044 v -3.09546 z" />
    <path
       id="rect6951"
       style="fill:#000000;stroke:none;stroke-width:0.158538;stroke-linecap:round;stroke-miterlimit:4;stroke-dasharray:none;stop-color:#000000"
       d="m 158.54878,131.31415 v 2.46735 h 0.14747 c 0.1119,0 0.20208,-0.0901 0.20208,-0.20208 v -2.06318 c 0,-0.1119 -0.0901,-0.20209 -0.20208,-0.20209 z" />
    <path
       id="rect6951-9"
       style="display:inline;fill:#000000;stroke:none;stroke-width:0.158538;stroke-linecap:round;stroke-miterlimit:4;stroke-dasharray:none;stop-color:#000000"
       d="m 152.63901,131.31415 v 2.46735 h -0.14747 c -0.1119,0 -0.20208,-0.0901 -0.20208,-0.20208 v -2.06318 c 0,-0.1119 0.0901,-0.20209 0.20208,-0.20209 z" />
    <path
       id="rect1113"
       style="fill:#000000;stroke-width:3.23755;stroke-linecap:round;stop-color:#000000"
       d="m 162.15778,125.45642 c -0.78534,0.001 -1.57433,0.0399 -1.75733,0.10781 v 0.45742 h -1.18657 v 0.97697 h 0.68886 v 2.80668 c 0,0.11494 0.0437,0.22027 0.11533,0.30039 h -0.79946 c -0.18535,0 -0.33454,0.14919 -0.33454,0.33454 v 0.31472 c 0,0.18535 0.14919,0.33454 0.33454,0.33454 h 0.74621 c -0.003,0.0156 -0.004,0.0316 -0.004,0.0478 v 0.0314 c 0,0.18533 0.1492,0.33453 0.33453,0.33453 h 3.70173 c 0.18533,0 0.33453,-0.1492 0.33453,-0.33453 v -0.0314 c 0,-0.0162 -0.001,-0.0322 -0.004,-0.0478 h 0.74621 c 0.18535,0 0.33453,-0.14919 0.33453,-0.33454 v -0.31472 c 0,-0.18535 -0.14918,-0.33454 -0.33453,-0.33454 h -0.79946 c 0.0717,-0.0802 0.11613,-0.18541 0.11613,-0.30039 v -2.80668 h 0.68887 v -0.97697 h -1.18794 v -0.45736 c -0.16806,-0.0752 -0.94947,-0.10978 -1.7348,-0.1078 z m -1.96352,1.54227 h 0.35571 v 2.78618 c 0,0.0663 0.0141,0.12961 0.0416,0.18639 h -0.23144 c -0.0945,0 -0.1659,-0.0715 -0.1659,-0.1659 z m 0.61719,0 h 2.67149 v 2.78618 c 0,0.10398 -0.079,0.18298 -0.18298,0.18298 h -2.30555 c -0.10397,0 -0.18296,-0.0791 -0.18296,-0.18298 z m 2.93229,0 h 0.35638 v 2.80667 c 0,0.0945 -0.0715,0.1659 -0.1659,0.1659 h -0.23145 c 0.0267,-0.0568 0.041,-0.12009 0.041,-0.18639 z" />
    <path
       id="rect1398"
       style="fill:#000000;stroke-width:0.220632;stroke-linecap:round;stop-color:#000000"
       d="m 153.06489,130.83771 c -0.18534,0 -0.33454,0.1492 -0.33454,0.33453 v 4.153 c 0,0.18534 0.1492,0.33454 0.33454,0.33454 h 5.05829 c 0.18533,0 0.33453,-0.1492 0.33453,-0.33454 v -4.153 c 0,-0.18533 -0.1492,-0.33453 -0.33453,-0.33453 z m 4.77974,0.16317 c 0.11884,-0.002 0.2283,0.0703 0.28128,0.2014 0.0795,0.19688 0.002,0.45407 -0.17273,0.57485 l -1.72524,1.19341 c -0.17464,0.12078 -0.38266,0.061 -0.4622,-0.13587 -0.0795,-0.19687 -0.001,-0.45885 0.17341,-0.57963 l 1.72524,-1.19272 c 0.0546,-0.0377 0.11261,-0.0575 0.16863,-0.0608 0.004,-2.2e-4 0.008,-7e-4 0.0116,-7e-4 z m -4.50938,7e-4 c 0.0626,-3.5e-4 0.1284,0.0197 0.18979,0.0621 l 1.72319,1.19203 c 0.17464,0.12078 0.25364,0.37934 0.1741,0.57622 -0.0795,0.19688 -0.28825,0.26006 -0.46289,0.13927 l -1.72319,-1.19203 c -0.17464,-0.12078 -0.25295,-0.38207 -0.17341,-0.57895 0.0497,-0.12304 0.1495,-0.19253 0.26012,-0.19799 0.004,-2e-4 0.008,-6.9e-4 0.0123,-6.9e-4 z m 4.49299,0.17273 c -0.0341,0.001 -0.0697,0.0126 -0.10377,0.0362 l -1.72524,1.1934 c -0.10379,0.0718 -0.14898,0.22236 -0.10173,0.33932 0.0473,0.11697 0.16657,0.15097 0.27036,0.0792 l 1.72592,-1.1934 c 0.10379,-0.0718 0.14763,-0.21889 0.10036,-0.3359 -0.0295,-0.0731 -0.0873,-0.115 -0.15156,-0.11879 -0.005,-2.9e-4 -0.009,-1.5e-4 -0.0143,0 z m -4.48207,7e-4 c -0.0646,0.003 -0.1227,0.0429 -0.15225,0.11606 -0.0473,0.117 -0.002,0.26823 0.10173,0.33999 l 1.72319,1.19136 c 0.10384,0.0718 0.22513,0.0358 0.2724,-0.0812 0.0473,-0.11701 6.7e-4,-0.26549 -0.10309,-0.33726 l -1.72319,-1.19204 c -0.0389,-0.0269 -0.08,-0.0385 -0.11879,-0.0369 z m -0.0123,1.00701 c 0.0623,-7e-4 0.12772,0.0197 0.18911,0.0621 l 1.72592,1.1934 c 0.17464,0.12078 0.25364,0.38002 0.1741,0.5769 -0.0795,0.19688 -0.28893,0.25937 -0.46357,0.13859 l -1.72524,-1.1934 c -0.17464,-0.12078 -0.2509,-0.3807 -0.17136,-0.57758 0.0497,-0.12305 0.14875,-0.19347 0.25875,-0.19936 0.004,-2.2e-4 0.008,-6.9e-4 0.0123,-6.9e-4 z m 4.51006,0 c 0.11856,-0.003 0.22763,0.0689 0.2806,0.20004 0.0795,0.19687 0.003,0.45612 -0.17136,0.5769 l -1.72524,1.1934 c -0.17464,0.12075 -0.38198,0.0569 -0.46152,-0.13999 -0.0795,-0.19688 -0.003,-0.45407 0.17205,-0.57486 l 1.72592,-1.19339 c 0.0546,-0.0378 0.11206,-0.0579 0.16795,-0.0615 0.004,-2.4e-4 0.008,-7e-4 0.0116,-7e-4 z m -4.49914,0.17338 c -0.064,0.003 -0.12065,0.0443 -0.1502,0.11743 -0.0473,0.117 -0.004,0.26686 0.0997,0.33863 l 1.72524,1.19272 c 0.10379,0.0718 0.2224,0.0344 0.26968,-0.0826 0.0473,-0.11701 0.003,-0.26414 -0.10036,-0.3359 l -1.72524,-1.1934 c -0.0389,-0.0269 -0.0804,-0.0387 -0.1188,-0.0369 z m 4.48276,0 c -0.0341,0.001 -0.0697,0.0133 -0.10378,0.0369 l -1.72524,1.1934 c -0.10379,0.0718 -0.14763,0.21889 -0.10036,0.3359 0.0473,0.11698 0.16589,0.15439 0.26968,0.0826 l 1.72524,-1.1934 c 0.10379,-0.0718 0.14693,-0.22099 0.0997,-0.33795 -0.0295,-0.0731 -0.0869,-0.11435 -0.15088,-0.11743 -0.005,-2.3e-4 -0.009,-2e-4 -0.0143,0 z m -4.493,1.05276 c 0.0628,-7e-4 0.12909,0.019 0.19048,0.0614 l 1.72319,1.19204 c 0.17464,0.12078 0.25295,0.38207 0.17341,0.57895 -0.0795,0.19687 -0.28756,0.25732 -0.4622,0.13654 l -1.72319,-1.19203 c -0.17464,-0.12078 -0.25432,-0.38003 -0.17478,-0.5769 0.0497,-0.12305 0.1499,-0.1932 0.2608,-0.19936 0.004,-2.3e-4 0.008,-7e-4 0.0123,-7e-4 z m 4.52986,0 c 0.1109,0.006 0.21178,0.077 0.26149,0.20004 0.0795,0.19688 -1.4e-4,0.45611 -0.17478,0.5769 l -1.72319,1.19135 c -0.17464,0.12078 -0.38266,0.061 -0.4622,-0.13586 -0.0795,-0.19688 -0.001,-0.45817 0.17341,-0.57895 l 1.72319,-1.19204 c 0.0655,-0.0453 0.13555,-0.0651 0.20208,-0.0614 z m -0.0232,0.17273 c -0.0389,-0.002 -0.0799,0.01 -0.11879,0.0369 l -1.72319,1.19203 c -0.1038,0.0718 -0.14898,0.22236 -0.10173,0.33931 0.0473,0.11698 0.16657,0.15098 0.27036,0.0792 l 1.72387,-1.19204 c 0.10379,-0.0718 0.14969,-0.22024 0.10241,-0.33726 -0.0295,-0.0731 -0.0881,-0.11476 -0.15293,-0.11811 z m -4.49504,7e-4 c -0.0649,0.003 -0.12339,0.045 -0.15293,0.11811 -0.0473,0.11701 -0.001,0.26549 0.10241,0.33726 l 1.72319,1.19135 c 0.10384,0.0718 0.22377,0.0385 0.27104,-0.0785 0.0473,-0.117 0.002,-0.26823 -0.10173,-0.34 l -1.72319,-1.19203 c -0.0389,-0.0269 -0.0799,-0.0382 -0.11879,-0.0362 z" />
    <path
       id="rect1833"
       style="stroke-width:0.241061;stroke-linecap:round;stop-color:#000000"
       d="m 152.9472,126.58143 h 0.71738 v 4.11295 h -0.71738 z"
       sodipodi:nodetypes="ccccc" />
    <path
       id="rect1833-2"
       style="display:inline;stroke-width:0.130959;stroke-linecap:round;stop-color:#000000"
       d="m 153.21807,125.00879 h 0.71737 l -0.27086,1.42991 h -0.71737 z"
       sodipodi:nodetypes="ccccc" />
    <path
       id="rect1833-2-2"
       style="display:inline;stroke-width:0.130959;stroke-linecap:round;stop-color:#000000"
       d="m 157.30469,125.00879 h 0.71737 l 0.21854,1.42991 h -0.71737 z"
       sodipodi:nodetypes="ccccc" />
    <path
       id="rect1833-9"
       style="display:inline;stroke-width:0.241061;stroke-linecap:round;stop-color:#000000"
       d="m 157.52322,126.58143 h 0.71738 v 4.04365 h -0.71738 z"
       sodipodi:nodetypes="ccccc" />
    <rect
       style="fill:#000000;stroke:none;stroke-width:0.223274;stroke-linecap:round;stroke-miterlimit:4;stroke-dasharray:none;stop-color:#000000"
       id="rect2010"
       width="3.3588779"
       height="1.0622194"
       x="153.95569"
       y="127.01871" />
    <path
       id="rect2010-8"
       style="display:inline;stroke-width:0.223274;stroke-linecap:round;stop-color:#000000"
       d="m 154.21465,125.00879 h 2.82426 l 0.26731,1.81413 h -3.35888 z"
       sodipodi:nodetypes="ccccc" />
    <rect
       style="display:inline;fill:#000000;stroke:none;stroke-width:0.223274;stroke-linecap:round;stroke-miterlimit:4;stroke-dasharray:none;stop-color:#000000"
       id="rect2010-3"
       width="3.3588779"
       height="1.0622194"
       x="153.95569"
       y="128.27675" />
    <rect
       style="display:inline;fill:#000000;stroke:none;stroke-width:0.223274;stroke-linecap:round;stroke-miterlimit:4;stroke-dasharray:none;stop-color:#000000"
       id="rect2010-3-0"
       width="3.3588779"
       height="1.0622194"
       x="153.95569"
       y="129.53476" />
    <rect
       style="fill:#000000;stroke:none;stroke-width:0.158538;stroke-linecap:round;stroke-miterlimit:4;stroke-dasharray:none;stop-color:#000000"
       id="rect3109"
       width="5.7349935"
       height="0.71687418"
       x="146.46066"
       y="130.33922"
       ry="0.2020622" />
    <path
       id="rect2335"
       style="fill:#000000;stroke:none;stroke-width:0.223274;stroke-linecap:round;stroke-miterlimit:4;stroke-dasharray:none;stop-color:#000000"
       d="m 160.91073,133.78024 c -0.11016,0.006 -0.19662,0.0966 -0.19662,0.20823 v 1.83926 c 0,0.11522 0.0923,0.20754 0.20755,0.20754 h 1.93483 c 0.11522,0 0.20755,-0.0923 0.20755,-0.20754 v -1.83926 c 0,-0.11522 -0.0923,-0.20823 -0.20755,-0.20823 h -1.93483 c -0.004,0 -0.007,-1.8e-4 -0.0109,0 z m 0.31405,0.20619 h 1.32926 c 0.14382,0 0.2608,0.11967 0.2608,0.26352 v 0.0178 c 0,0.14384 -0.11695,0.2608 -0.2608,0.2608 h -1.32926 c -0.1439,0 -0.26284,-0.11694 -0.26284,-0.2608 v -0.0178 c 0,-0.14389 0.11898,-0.26352 0.26284,-0.26352 z m -0.0109,0.16043 c -0.0533,0.005 -0.0922,0.048 -0.0922,0.10309 v 0.0178 c 0,0.0588 0.0443,0.10309 0.10309,0.10309 h 1.32926 c 0.0588,0 0.1031,-0.0443 0.1031,-0.10309 v -0.0178 c 0,-0.0588 -0.0443,-0.10309 -0.1031,-0.10309 h -1.32926 c -0.004,0 -0.007,-3.3e-4 -0.0109,0 z m 0.0109,0.49293 h 1.32926 c 0.14382,0 0.2608,0.11899 0.2608,0.26285 v 0.0184 c 0,0.14383 -0.11695,0.26012 -0.2608,0.26012 h -1.32926 c -0.1439,0 -0.26284,-0.11626 -0.26284,-0.26012 v -0.0184 c 0,-0.1439 0.11898,-0.26285 0.26284,-0.26285 z m -0.005,0.15703 c -0.056,0.003 -0.0976,0.0489 -0.0976,0.10582 v 0.0184 c 0,0.0588 0.0443,0.10309 0.10309,0.10309 h 1.32926 c 0.0588,0 0.10309,-0.0443 0.10309,-0.10309 v -0.0184 c 0,-0.0588 -0.0443,-0.10583 -0.10309,-0.10582 h -1.32926 c -0.002,0 -0.004,-9e-5 -0.005,0 z m 0.005,0.49565 h 1.32926 c 0.14382,0 0.2608,0.11694 0.2608,0.2608 v 0.0178 c 0,0.1439 -0.11695,0.26353 -0.2608,0.26353 h -1.32926 c -0.1439,0 -0.26284,-0.11967 -0.26284,-0.26353 v -0.0178 c 0,-0.14383 0.11898,-0.2608 0.26284,-0.2608 z m 0,0.15703 c -0.0588,0 -0.10309,0.0443 -0.10309,0.10309 v 0.0184 c 0,0.0588 0.0443,0.10309 0.10309,0.10309 h 1.32926 c 0.0588,0 0.1031,-0.0443 0.1031,-0.10309 v -0.0184 c 0,-0.0588 -0.0443,-0.10309 -0.1031,-0.10309 z" />
    <path
       id="rect3356"
       style="stroke-width:0.158538;stroke-linecap:round;stop-color:#000000"
       d="m 163.21383,133.66012 h 0.11401 c 0.0661,0 0.1193,0.0532 0.1193,0.1193 v 2.0545 l -0.35261,0.19318 v -2.24768 c 0,-0.0661 0.0532,-0.1193 0.1193,-0.1193 z"
       sodipodi:nodetypes="sssccss" />
    <path
       id="rect3356-8"
       style="display:inline;stroke-width:0.158538;stroke-linecap:round;stop-color:#000000"
       d="m 160.45101,133.66012 h 0.11257 c 0.0665,0 0.11996,0.0535 0.11996,0.11996 v 2.24442 l -0.35249,-0.15783 v -2.08659 c 0,-0.0665 0.0535,-0.11996 0.11996,-0.11996 z"
       sodipodi:nodetypes="sssccss" />
    <path
       id="rect3687"
       style="stroke-width:0.19952;stroke-linecap:round;stop-color:#000000"
       d="m 159.87667,134.15005 0.36558,-0.12947 v 1.81281 l -0.36558,-0.16769 z"
       sodipodi:nodetypes="ccccc" />
    <path
       id="rect3687-9"
       style="display:inline;stroke-width:0.19952;stroke-linecap:round;stop-color:#000000"
       d="m 163.90142,134.15005 -0.36558,-0.12947 v 1.77459 l 0.36558,-0.17091 z"
       sodipodi:nodetypes="ccccc" />
    <rect
       style="fill:#000000;stroke:none;stroke-width:0.158538;stroke-linecap:round;stroke-miterlimit:4;stroke-dasharray:none;stop-color:#000000"
       id="rect4180"
       width="2.644922"
       height="3.0729768"
       x="160.56659"
       y="136.19174"
       ry="0.12002034" />
    <path
       id="rect4468"
       style="stroke-width:0.158538;stroke-linecap:round;stop-color:#000000"
       d="m 159.93036,135.86178 0.51543,0.25204 v 3.17282 h -0.51543 z"
       sodipodi:nodetypes="ccccc" />
    <path
       id="rect4468-2"
       style="display:inline;stroke-width:0.158538;stroke-linecap:round;stop-color:#000000"
       d="m 163.832,135.86178 -0.51543,0.25204 v 3.17282 h 0.51543 z"
       sodipodi:nodetypes="ccccc" />
    <rect
       style="fill:#000000;stroke:none;stroke-width:0.158538;stroke-linecap:round;stroke-miterlimit:4;stroke-dasharray:none;stop-color:#000000"
       id="rect5558"
       width="0.51161629"
       height="2.0186064"
       x="161.16801"
       y="131.66501"
       ry="0.11930236" />
    <rect
       style="display:inline;fill:#000000;stroke:none;stroke-width:0.158538;stroke-linecap:round;stroke-miterlimit:4;stroke-dasharray:none;stop-color:#000000"
       id="rect5558-0"
       width="0.51161629"
       height="2.0186064"
       x="162.16695"
       y="131.66501"
       ry="0.11930236" />
    <rect
       style="fill:#000000;stroke:none;stroke-width:0.161883;stroke-linecap:round;stroke-miterlimit:4;stroke-dasharray:none;stop-color:#000000"
       id="rect5689"
       width="0.32185954"
       height="1.7585284"
       x="161.767"
       y="131.79506"
       ry="0" />
    <path
       id="rect14722-61"
       style="display:inline;stroke-width:0.45383;stroke-linejoin:round"
       d="m 163.53229,139.37514 -0.13185,9.3e-4 c -0.10332,0 -0.18647,0.0831 -0.18647,0.18646 v 1.47687 h -2.72089 v -1.47594 c 0,-0.10332 -0.0831,-0.18647 -0.18647,-0.18647 h -0.13092 c -0.003,0 -0.007,-1.6e-4 -0.009,0 -0.0988,0.007 -0.17719,0.0864 -0.17719,0.18647 v 1.7153 c -2.7e-4,0.003 0,0.009 0,0.0119 0,0.003 -2.7e-4,0.009 0,0.0119 v 0.0518 c 0,0.10331 0.0831,0.18646 0.18646,0.18646 h 0.11785 0.0119 c 0.001,2e-5 0.001,0 0.003,0 0.001,-5e-5 0.003,1.1e-4 0.007,0 h 3.07434 0.008 c 10e-4,0 10e-4,2e-5 0.003,0 h 0.13186 c 0.10331,0 0.18646,-0.0831 0.18646,-0.18646 v -0.0649 -1.72919 c 0,-0.10331 -0.0831,-0.18646 -0.18646,-0.18646 z m -2.32837,0.0119 c -0.0991,0 -0.17719,0.0864 -0.17719,0.18647 v 1.17537 c 0,0.10331 0.0831,0.18647 0.18647,0.18647 h 1.22701 c 0.10332,0 0.18647,-0.0831 0.18647,-0.18647 v -1.17537 c 0,-0.10332 -0.0831,-0.18647 -0.18647,-0.18647 h -1.22701 c -0.003,0 -0.007,0 -0.009,0 z m -1.32762,0.31726 -0.66701,1.7088 h 0.66701 z m 3.95565,0 v 1.7088 h 0.66606 z"
       sodipodi:nodetypes="ccsccssscscscsscccccscsscsscssssssssssscccccccc" />
    <rect
       style="fill:#000000;stroke:none;stroke-width:0.151372;stroke-linecap:round;stroke-miterlimit:4;stroke-dasharray:none;stop-color:#000000"
       id="rect6244"
       width="1.828702"
       height="1.5705904"
       x="158.05991"
       y="141.66486"
       ry="0.11930236" />
    <rect
       style="display:inline;fill:#000000;stroke:none;stroke-width:0.151372;stroke-linecap:round;stroke-miterlimit:4;stroke-dasharray:none;stop-color:#000000"
       id="rect6244-2"
       width="1.828702"
       height="1.5705904"
       x="159.9948"
       y="141.66486"
       ry="0.11930236" />
    <rect
       style="display:inline;fill:#000000;stroke:none;stroke-width:0.151372;stroke-linecap:round;stroke-miterlimit:4;stroke-dasharray:none;stop-color:#000000"
       id="rect6244-3"
       width="1.828702"
       height="1.5705904"
       x="161.92969"
       y="141.66486"
       ry="0.11930236" />
    <rect
       style="display:inline;fill:#000000;stroke:none;stroke-width:0.151372;stroke-linecap:round;stroke-miterlimit:4;stroke-dasharray:none;stop-color:#000000"
       id="rect6244-7"
       width="1.828702"
       height="1.5705904"
       x="163.86458"
       y="141.66486"
       ry="0.11930236" />
    <path
       id="rect2335-3"
       style="fill:#000000;stroke:none;stroke-width:0.223274;stroke-linecap:round;stroke-miterlimit:4;stroke-dasharray:none;stop-color:#000000"
       d="m 148.32065,133.78024 c -0.1102,0.006 -0.19731,0.0966 -0.19731,0.20823 v 1.83926 c 0,0.11522 0.093,0.20754 0.20823,0.20754 h 1.93416 c 0.11521,0 0.20823,-0.0923 0.20823,-0.20754 v -1.83926 c 0,-0.11522 -0.093,-0.20823 -0.20823,-0.20823 h -1.93416 c -0.004,0 -0.007,-1.8e-4 -0.0109,0 z m 0.31474,0.20619 h 1.32926 c 0.14386,0 0.26011,0.11963 0.26011,0.26352 v 0.0178 c 0,0.14386 -0.11628,0.2608 -0.26011,0.2608 h -1.32926 c -0.14386,0 -0.26285,-0.11696 -0.26285,-0.2608 v -0.0178 c 0,-0.14385 0.11895,-0.26352 0.26285,-0.26352 z m -0.0109,0.16043 c -0.0536,0.005 -0.0949,0.048 -0.0949,0.10309 v 0.0178 c 0,0.0588 0.047,0.10309 0.10583,0.10309 h 1.32926 c 0.0588,0 0.10309,-0.0443 0.10309,-0.10309 v -0.0178 c 0,-0.0588 -0.0443,-0.10309 -0.10309,-0.10309 h -1.32926 c -0.004,0 -0.007,-3.3e-4 -0.0109,0 z m 0.0109,0.49293 h 1.32926 c 0.14386,0 0.26011,0.11895 0.26011,0.26285 v 0.0184 c 0,0.14386 -0.11628,0.26012 -0.26011,0.26012 h -1.32926 c -0.14386,0 -0.26285,-0.11629 -0.26285,-0.26012 v -0.0184 c 0,-0.14386 0.11895,-0.26285 0.26285,-0.26285 z m -0.005,0.15703 c -0.0562,0.003 -0.10036,0.0489 -0.10036,0.10582 v 0.0184 c 0,0.0588 0.047,0.10309 0.10582,0.10309 h 1.32926 c 0.0588,0 0.1031,-0.0443 0.1031,-0.10309 v -0.0184 c 0,-0.0588 -0.0443,-0.10583 -0.1031,-0.10582 h -1.32926 c -0.002,0 -0.004,-9e-5 -0.005,0 z m 0.005,0.49565 h 1.32926 c 0.14386,0 0.26011,0.11697 0.26011,0.2608 v 0.0178 c 0,0.14386 -0.11628,0.26353 -0.26011,0.26353 h -1.32926 c -0.14386,0 -0.26285,-0.11963 -0.26285,-0.26353 v -0.0178 c 0,-0.14386 0.11895,-0.2608 0.26285,-0.2608 z m 0,0.15703 c -0.0588,0 -0.10583,0.0443 -0.10583,0.10309 v 0.0184 c 0,0.0588 0.047,0.10309 0.10583,0.10309 h 1.32926 c 0.0588,0 0.10309,-0.0443 0.10309,-0.10309 v -0.0184 c 0,-0.0588 -0.0443,-0.10309 -0.10309,-0.10309 z" />
    <path
       id="rect3356-1"
       style="stroke-width:0.158538;stroke-linecap:round;stop-color:#000000"
       d="m 147.97397,133.66012 h -0.11401 c -0.0661,0 -0.1193,0.0532 -0.1193,0.1193 v 2.0545 l 0.35261,0.19318 v -2.24768 c 0,-0.0661 -0.0532,-0.1193 -0.1193,-0.1193 z"
       sodipodi:nodetypes="sssccss" />
    <path
       id="rect3356-8-9"
       style="display:inline;stroke-width:0.158538;stroke-linecap:round;stop-color:#000000"
       d="m 150.73678,133.66012 h -0.11256 c -0.0665,0 -0.11996,0.0535 -0.11996,0.11996 v 2.24442 l 0.35248,-0.15783 v -2.08659 c 0,-0.0665 -0.0535,-0.11996 -0.11996,-0.11996 z"
       sodipodi:nodetypes="sssccss" />
    <path
       id="rect3687-7"
       style="stroke-width:0.19952;stroke-linecap:round;stop-color:#000000"
       d="m 151.31113,134.15005 -0.36558,-0.12947 v 1.81281 l 0.36558,-0.16769 z"
       sodipodi:nodetypes="ccccc" />
    <path
       id="rect3687-9-8"
       style="display:inline;stroke-width:0.19952;stroke-linecap:round;stop-color:#000000"
       d="m 147.28638,134.15005 0.36557,-0.12947 v 1.77459 l -0.36557,-0.17091 z"
       sodipodi:nodetypes="ccccc" />
    <rect
       style="fill:#000000;stroke:none;stroke-width:0.158538;stroke-linecap:round;stroke-miterlimit:4;stroke-dasharray:none;stop-color:#000000"
       id="rect4180-4"
       width="2.644922"
       height="3.0729768"
       x="-150.6212"
       y="136.19174"
       ry="0.12002034"
       transform="scale(-1,1)" />
    <path
       id="rect4468-5"
       style="stroke-width:0.158538;stroke-linecap:round;stop-color:#000000"
       d="m 151.25743,135.86178 -0.51543,0.25204 v 3.17282 h 0.51543 z"
       sodipodi:nodetypes="ccccc" />
    <path
       id="rect4468-2-0"
       style="display:inline;stroke-width:0.158538;stroke-linecap:round;stop-color:#000000"
       d="m 147.35579,135.86178 0.51544,0.25204 v 3.17282 h -0.51544 z"
       sodipodi:nodetypes="ccccc" />
    <rect
       style="fill:#000000;stroke:none;stroke-width:0.158538;stroke-linecap:round;stroke-miterlimit:4;stroke-dasharray:none;stop-color:#000000"
       id="rect5558-3"
       width="0.51161629"
       height="2.0186064"
       x="-150.01978"
       y="131.66501"
       ry="0.11930236"
       transform="scale(-1,1)" />
    <rect
       style="display:inline;fill:#000000;stroke:none;stroke-width:0.158538;stroke-linecap:round;stroke-miterlimit:4;stroke-dasharray:none;stop-color:#000000"
       id="rect5558-0-6"
       width="0.51161629"
       height="2.0186064"
       x="-149.02086"
       y="131.66501"
       ry="0.11930236"
       transform="scale(-1,1)" />
    <rect
       style="fill:#000000;stroke:none;stroke-width:0.161883;stroke-linecap:round;stroke-miterlimit:4;stroke-dasharray:none;stop-color:#000000"
       id="rect5689-1"
       width="0.32185954"
       height="1.7585284"
       x="-149.42079"
       y="131.79506"
       ry="0"
       transform="scale(-1,1)" />
    <path
       id="rect14722-61-0"
       style="display:inline;stroke-width:0.45383;stroke-linejoin:round"
       d="m 147.65551,139.37514 0.13185,9.3e-4 c 0.10331,0 0.18647,0.0831 0.18647,0.18646 v 1.47687 h 2.72089 v -1.47594 c 0,-0.10332 0.0831,-0.18647 0.18646,-0.18647 h 0.13093 c 0.003,0 0.007,-1.6e-4 0.009,0 0.0988,0.007 0.17719,0.0864 0.17719,0.18647 v 1.7153 c 2.6e-4,0.003 0,0.009 0,0.0119 0,0.003 2.6e-4,0.009 0,0.0119 v 0.0518 c 0,0.10331 -0.0831,0.18646 -0.18647,0.18646 h -0.11784 -0.0119 c -0.001,2e-5 -0.001,0 -0.003,0 -0.001,-5e-5 -0.003,1.1e-4 -0.007,0 h -3.07434 -0.008 c -0.001,0 -0.001,2e-5 -0.003,0 h -0.13185 c -0.10331,0 -0.18647,-0.0831 -0.18647,-0.18646 v -0.0649 -1.72919 c 0,-0.10331 0.0831,-0.18646 0.18647,-0.18646 z m 2.32836,0.0119 c 0.0991,0 0.1772,0.0864 0.1772,0.18647 v 1.17537 c 0,0.10331 -0.0831,0.18647 -0.18647,0.18647 h -1.22702 c -0.10331,0 -0.18646,-0.0831 -0.18646,-0.18647 v -1.17537 c 0,-0.10332 0.0831,-0.18647 0.18646,-0.18647 h 1.22702 c 0.003,0 0.007,0 0.009,0 z m 1.32763,0.31726 0.667,1.7088 h -0.667 z m -3.95565,0 v 1.7088 h -0.66606 z"
       sodipodi:nodetypes="ccsccssscscscsscccccscsscsscssssssssssscccccccc" />
    <rect
       style="fill:#000000;stroke:none;stroke-width:0.151372;stroke-linecap:round;stroke-miterlimit:4;stroke-dasharray:none;stop-color:#000000"
       id="rect6244-6"
       width="1.828702"
       height="1.5705904"
       x="-153.12788"
       y="141.66486"
       ry="0.11930236"
       transform="scale(-1,1)" />
    <rect
       style="display:inline;fill:#000000;stroke:none;stroke-width:0.151372;stroke-linecap:round;stroke-miterlimit:4;stroke-dasharray:none;stop-color:#000000"
       id="rect6244-2-3"
       width="1.828702"
       height="1.5705904"
       x="-151.19299"
       y="141.66486"
       ry="0.11930236"
       transform="scale(-1,1)" />
    <rect
       style="display:inline;fill:#000000;stroke:none;stroke-width:0.151372;stroke-linecap:round;stroke-miterlimit:4;stroke-dasharray:none;stop-color:#000000"
       id="rect6244-3-2"
       width="1.828702"
       height="1.5705904"
       x="-149.2581"
       y="141.66486"
       ry="0.11930236"
       transform="scale(-1,1)" />
    <rect
       style="display:inline;fill:#000000;stroke:none;stroke-width:0.151372;stroke-linecap:round;stroke-miterlimit:4;stroke-dasharray:none;stop-color:#000000"
       id="rect6244-7-0"
       width="1.828702"
       height="1.5705904"
       x="-147.32321"
       y="141.66486"
       ry="0.11930236"
       transform="scale(-1,1)" />
    <rect
       style="fill:#000000;stroke:none;stroke-width:0.158538;stroke-linecap:round;stroke-miterlimit:4;stroke-dasharray:none;stop-color:#000000"
       id="rect8971"
       width="4.6654749"
       height="0.3861151"
       x="147.06218"
       y="131.15955"
       ry="0" />
    <rect
       style="fill:#000000;stroke:none;stroke-width:0.158538;stroke-linecap:round;stroke-miterlimit:4;stroke-dasharray:none;stop-color:#000000"
       id="rect12210"
       width="0.92271185"
       height="2.6797249"
       x="151.73677"
       y="127.29391" />
    <rect
       style="display:inline;fill:#000000;stroke:none;stroke-width:0.170797;stroke-linecap:round;stroke-miterlimit:4;stroke-dasharray:none;stop-color:#000000"
       id="rect12210-5"
       width="1.070924"
       height="2.6797249"
       x="158.54646"
       y="127.27332" />
    <rect
       style="fill:#000000;stroke:none;stroke-width:0.158538;stroke-linecap:round;stroke-miterlimit:4;stroke-dasharray:none;stop-color:#000000"
       id="rect15348"
       width="1.0049309"
       height="0.35212135"
       x="153.63774"
       y="135.76933" />
    <rect
       style="display:inline;fill:#000000;stroke:none;stroke-width:0.158538;stroke-linecap:round;stroke-miterlimit:4;stroke-dasharray:none;stop-color:#000000"
       id="rect15348-7"
       width="1.0049309"
       height="0.35212135"
       x="156.54512"
       y="135.76933" />
    <rect
       style="fill:#000000;stroke:none;stroke-width:0.139221;stroke-linecap:round;stroke-miterlimit:4;stroke-dasharray:none;stop-color:#000000"
       id="rect15656"
       width="6.7883248"
       height="0.51793385"
       x="158.48244"
       y="143.3853"
       ry="0" />
    <rect
       style="display:inline;fill:#000000;stroke:none;stroke-width:0.139221;stroke-linecap:round;stroke-miterlimit:4;stroke-dasharray:none;stop-color:#000000"
       id="rect15656-1"
       width="6.7883248"
       height="0.51793188"
       x="145.91704"
       y="143.3853"
       ry="0" />
    <rect
       style="fill:#000000;stroke:none;stroke-width:0.23861;stroke-linecap:round;stroke-miterlimit:4;stroke-dasharray:none;stop-color:#000000"
       id="rect20819"
       width="0.36523438"
       height="7.2861423"
       x="156.11761"
       y="101.1815"
       ry="0.18261719"
       transform="rotate(6.4733862)" />
    <path
       id="rect20923"
       style="fill:#000000;stroke:none;stroke-width:0.158538;stroke-linecap:round;stroke-miterlimit:4;stroke-dasharray:none;stop-color:#000000"
       d="m 143.14508,117.93557 c -0.0967,0.005 -0.17341,0.0843 -0.17341,0.1823 v 0.21437 h -0.0273 c -0.11917,0 -0.21506,0.0959 -0.21506,0.21507 v 0.0873 c 0,0.11917 0.0959,0.21506 0.21506,0.21506 h 0.0273 v 0.19048 c 0,0.1012 0.0818,0.18229 0.18298,0.18229 h 0.15975 c 0.1012,0 0.18297,-0.0811 0.18297,-0.18229 v -0.92236 c 0,-0.1012 -0.0818,-0.18229 -0.18297,-0.18229 h -0.15975 c -0.003,0 -0.007,-1.4e-4 -0.009,0 z" />
    <path
       id="rect20923-7"
       style="display:inline;fill:#000000;stroke:none;stroke-width:0.158538;stroke-linecap:round;stroke-miterlimit:4;stroke-dasharray:none;stop-color:#000000"
       d="m 144.40392,117.93551 c 0.0967,0.005 0.17342,0.0843 0.17342,0.18229 v 0.21437 h 0.0274 c 0.11916,0 0.21505,0.0959 0.21505,0.21506 v 0.0875 c 0,0.11916 -0.0959,0.21505 -0.21505,0.21505 h -0.0274 v 0.19047 c 0,0.1012 -0.0818,0.18229 -0.18298,0.18229 h -0.15975 c -0.1012,0 -0.18297,-0.0811 -0.18297,-0.18229 v -0.92234 c 0,-0.1012 0.0818,-0.1823 0.18297,-0.1823 h 0.15975 c 0.003,0 0.007,-1.5e-4 0.009,0 z" />
    <path
       id="rect1559"
       style="fill:#000000;stroke-width:1.86137;stroke-linecap:round;stroke-linejoin:round;stroke-dashoffset:3.79844"
       d="M 23.304688 107.70898 C 22.755767 107.71565 22.293721 108.13631 22.244141 108.69531 L 22.154297 109.70117 L 21.099609 109.60742 C 20.680179 109.57022 20.312592 109.87744 20.275391 110.29688 L 20.162109 111.58398 L 21.146484 111.66992 C 21.508009 111.70199 21.774252 112.01933 21.742188 112.38086 L 21.326172 117.05273 C 21.294107 117.41426 20.978711 117.67855 20.617188 117.64648 L 19.630859 117.55859 L 19.511719 118.9082 C 19.474518 119.32763 19.783695 119.69522 20.203125 119.73242 L 30.814453 120.67383 C 31.233883 120.71103 31.601471 120.40185 31.638672 119.98242 L 31.751953 118.70117 L 31.152344 118.64844 C 30.790819 118.61637 30.526529 118.30098 30.558594 117.93945 L 30.972656 113.26758 C 31.004721 112.90605 31.320116 112.63981 31.681641 112.67188 L 32.283203 112.72461 L 32.402344 111.37109 C 32.439545 110.95166 32.132321 110.58406 31.712891 110.54688 L 30.970703 110.48047 L 31.060547 109.47656 C 31.113432 108.88029 30.676349 108.35757 30.080078 108.30469 L 23.416016 107.71484 C 23.378749 107.71154 23.34128 107.70854 23.304688 107.70898 z "
       transform="matrix(0.26458333,0,0,0.26458333,135.48963,99.590537)" />
    <rect
       style="fill:#000000;stroke-width:0.773622;stroke-linecap:round;stroke-linejoin:round;stroke-dashoffset:3.79844"
       id="rect1665"
       width="3.6263621"
       height="2.7039185"
       x="151.38106"
       y="118.48013"
       ry="0"
       transform="rotate(5.0685264)" />
    <rect
       style="fill:#ffffff;stroke-width:0.680171;stroke-linecap:round;stroke-linejoin:round;stroke-dashoffset:3.79844"
       id="rect1868"
       width="0.5200125"
       height="0.5200125"
       x="151.86797"
       y="124.40534"
       ry="0"
       transform="rotate(5.0685264)" />
    <rect
       style="display:inline;fill:#ffffff;stroke-width:0.680171;stroke-linecap:round;stroke-linejoin:round;stroke-dashoffset:3.79844"
       id="rect1868-3"
       width="0.5200125"
       height="0.5200125"
       x="152.75189"
       y="124.23365"
       ry="0"
       transform="rotate(5.0685264)" />
    <rect
       style="display:inline;fill:#ffffff;stroke-width:0.680171;stroke-linecap:round;stroke-linejoin:round;stroke-dashoffset:3.79844"
       id="rect1868-6"
       width="0.5200125"
       height="0.5200125"
       x="154.02658"
       y="123.83255"
       ry="0"
       transform="rotate(5.0685264)" />
    <path
       id="rect2260"
       style="fill:#000000;stroke-width:1.44359;stroke-linecap:round;stroke-linejoin:round;stroke-dashoffset:3.79844"
       d="m 26.769531,86.40625 c -0.432639,-0.0053 -0.805658,0.316357 -0.855469,0.755859 l -1.099278,4.264214 -0.527344,4.652343 -0.527343,4.652344 0.04459,5.04047 c -0.05313,0.46881 0.281197,0.88828 0.75,0.94141 l 0.558593,0.0644 c 0.468803,0.0531 0.888275,-0.28119 0.941407,-0.75 l 2.109374,-18.609371 c 0.05313,-0.468803 -0.281197,-0.890228 -0.75,-0.94336 l -0.558593,-0.0625 c -0.0293,-0.0033 -0.0571,-0.0055 -0.08594,-0.0059 z m 5.573213,0.511188 c -0.43264,-0.0053 -0.803705,0.316357 -0.853516,0.755859 l -2.109375,18.609383 c -0.05313,0.4688 0.281197,0.89023 0.75,0.94336 l 0.558594,0.0625 c 0.468803,0.0531 0.888274,-0.2812 0.941406,-0.75 l 1.496875,-4.49514 0.527344,-4.65235 0.527344,-4.652344 -0.442188,-4.809549 c 0.05313,-0.468803 -0.281197,-0.890228 -0.75,-0.94336 l -0.558594,-0.0625 c -0.0293,-0.0033 -0.05905,-0.0055 -0.08789,-0.0059 z"
       transform="matrix(0.26458333,0,0,0.26458333,135.48963,99.590537)"
       sodipodi:nodetypes="scccccccccccsscccccccccccscc" />
    <path
       style="fill:#000000;stroke:none;stroke-width:0.264583px;stroke-linecap:butt;stroke-linejoin:miter;stroke-opacity:1"
       d="m 144.10413,131.76675 c 0,0.0721 -0.23461,2.58709 -0.23461,2.58709 l 1.77769,-1.46094 0.38482,-2.64014 -0.36622,-0.058 -0.33813,0.93385 z"
       id="path2853"
       sodipodi:nodetypes="ccccccc" />
    <path
       style="fill:#000000;stroke:none;stroke-width:0.264583px;stroke-linecap:butt;stroke-linejoin:miter;stroke-opacity:1"
       d="m 145.49535,130.37119 -0.4113,-1.4e-4 0.0718,-0.31494 -0.54941,-0.0111 -0.0972,0.28796 -0.39921,-0.006 0.10145,-0.34409 -0.35757,0.005 -0.0397,0.66636 c 0.0254,0.18362 0.10546,0.1458 0.28994,0.14585 l -0.068,0.58492 c -0.005,0.18958 -0.47569,0.1459 0.0709,0.17572 l 1.17306,-0.57946 z"
       id="path3598"
       sodipodi:nodetypes="cccccccccccccc" />
    <rect
       style="fill:#000000;stroke:none;stroke-width:0.335;stroke-linecap:round;stroke-linejoin:round;stroke-dashoffset:3.79844"
       id="rect4459"
       width="0.48941058"
       height="2.4075005"
       x="156.84665"
       y="107.52835"
       rx="0.25121209"
       ry="0.17333727"
       transform="rotate(6.9084494)" />
    <path
       id="rect4647"
       style="fill:#000000;stroke:none;stroke-width:1.26614;stroke-linecap:round;stroke-linejoin:round;stroke-dashoffset:3.79844"
       d="m 28.20863,74.647998 c -0.196093,-0.01104 -0.327795,-0.02357 -0.616833,0.592236 l -0.811656,2.111538 -0.268067,2.364746 -0.268066,2.364747 0.275523,2.617954 c -0.05313,0.468803 0.281197,0.890228 0.75,0.943359 l 0.408203,0.04492 c 0.468803,0.05313 0.888275,-0.281197 0.941407,-0.75 l 1.072265,-9.458984 c 0.05313,-0.468803 -0.09353,-0.772602 -0.562335,-0.825734 z m 4.767407,4.048572 c -0.318557,0.01107 -0.450226,-2.457469 -0.488315,-2.130764 l -0.810513,8.468654 c -0.04203,0.360502 0.21567,0.684533 0.576172,0.726563 l 0.724609,0.08594 c 0.360502,0.04203 0.684533,-0.21567 0.726563,-0.576171 l 0.622925,-1.574207 0.167968,-1.439454 0.167969,-1.439453 -0.286988,-1.304699 c 0.04203,-0.360502 -0.213716,-0.684532 -0.574218,-0.726562 l -0.726563,-0.08594 c -0.03379,-0.004 -0.104275,0.02875 -0.09961,-0.0039 z"
       transform="matrix(0.26458333,0,0,0.26458333,135.48963,99.590537)"
       sodipodi:nodetypes="cccccccccccccccccccccccssc" />
    <path
       id="rect7080"
       style="fill:#000000;stroke:none;stroke-width:0.335;stroke-linecap:round;stroke-linejoin:round;stroke-dashoffset:3.79844"
       d="m 142.51163,120.01052 c -0.069,-0.004 -0.13001,0.0461 -0.13783,0.11551 l -0.0228,0.20181 -0.0144,-0.001 c -0.0717,-0.008 -0.13589,0.0431 -0.14398,0.11482 l -0.0309,0.27422 c -0.008,0.0717 0.0431,0.13589 0.11482,0.14399 l 0.0144,0.001 -0.0228,0.20182 c -0.008,0.0717 0.0436,0.13596 0.11534,0.14406 0.0717,0.008 0.1359,-0.0431 0.14399,-0.11483 l 0.10556,-0.93665 c 0.008,-0.0717 -0.0431,-0.1359 -0.11483,-0.14399 -0.002,-2.3e-4 -0.004,-5.6e-4 -0.007,-6.3e-4 z" />
    <path
       id="rect7080-2"
       style="display:inline;fill:#000000;stroke:none;stroke-width:0.335;stroke-linecap:round;stroke-linejoin:round;stroke-dashoffset:3.79844"
       d="m 142.00471,123.65504 c -0.069,-0.004 -0.13001,0.0461 -0.13783,0.11551 l -0.0228,0.20181 -0.0144,-10e-4 c -0.0717,-0.008 -0.13589,0.0431 -0.14398,0.11482 l -0.0309,0.27422 c -0.008,0.0717 0.0431,0.13589 0.11482,0.14399 l 0.0144,0.001 -0.0228,0.20182 c -0.008,0.0717 0.0436,0.13596 0.11534,0.14406 0.0717,0.008 0.1359,-0.0431 0.14399,-0.11483 l 0.10556,-0.93665 c 0.008,-0.0717 -0.0431,-0.1359 -0.11483,-0.14399 -0.002,-2.3e-4 -0.004,-5.6e-4 -0.007,-6.3e-4 z" />
    <path
       id="rect7080-9"
       style="display:inline;fill:#000000;stroke:none;stroke-width:0.335;stroke-linecap:round;stroke-linejoin:round;stroke-dashoffset:3.79844"
       d="m 141.82165,125.24666 c -0.069,-0.004 -0.13001,0.0461 -0.13783,0.11551 l -0.0228,0.20181 -0.0144,-0.001 c -0.0717,-0.008 -0.13589,0.0431 -0.14398,0.11482 l -0.0309,0.27422 c -0.008,0.0717 0.0431,0.13589 0.11482,0.14399 l 0.0144,10e-4 -0.0228,0.20182 c -0.008,0.0717 0.0436,0.13596 0.11534,0.14406 0.0717,0.008 0.1359,-0.0431 0.14399,-0.11483 l 0.10556,-0.93665 c 0.008,-0.0717 -0.0431,-0.1359 -0.11483,-0.14399 -0.002,-2.3e-4 -0.004,-5.6e-4 -0.007,-6.3e-4 z" />
    <path
       id="rect7080-1"
       style="display:inline;fill:#000000;stroke:none;stroke-width:0.335;stroke-linecap:round;stroke-linejoin:round;stroke-dashoffset:3.79844"
       d="m 144.61169,124.03228 c 0.0678,0.0135 0.11424,0.0773 0.10436,0.14645 l -0.0287,0.20106 0.0142,0.003 c 0.0714,0.0103 0.12069,0.0759 0.11049,0.14733 l -0.039,0.27318 c -0.0103,0.0714 -0.0759,0.12069 -0.14733,0.1105 l -0.0142,-0.003 -0.0287,0.20107 c -0.0103,0.0714 -0.0764,0.12063 -0.14786,0.11043 -0.0714,-0.0103 -0.1207,-0.0759 -0.11049,-0.14734 l 0.13332,-0.93311 c 0.0103,-0.0714 0.0759,-0.12069 0.14734,-0.11049 0.002,2.8e-4 0.004,4.6e-4 0.007,10e-4 z" />
    <path
       id="rect7080-1-2"
       style="display:inline;fill:#000000;stroke:none;stroke-width:0.335;stroke-linecap:round;stroke-linejoin:round;stroke-dashoffset:3.79844"
       d="m 144.44525,125.53337 c 0.0678,0.0135 0.11424,0.0773 0.10436,0.14645 l -0.0287,0.20106 0.0142,0.003 c 0.0714,0.0103 0.12069,0.0759 0.11049,0.14733 l -0.039,0.27318 c -0.0103,0.0714 -0.0759,0.12069 -0.14733,0.1105 l -0.0142,-0.003 -0.0287,0.20107 c -0.0103,0.0714 -0.0764,0.12063 -0.14786,0.11043 -0.0714,-0.0103 -0.1207,-0.0759 -0.11049,-0.14734 l 0.13332,-0.93311 c 0.0103,-0.0714 0.0759,-0.12069 0.14734,-0.11049 0.002,2.8e-4 0.004,4.6e-4 0.007,0.001 z" />
    <path
       style="fill:#000000;stroke:none;stroke-width:0.264583px;stroke-linecap:butt;stroke-linejoin:miter;stroke-opacity:1"
       d="m 140.40577,134.3169 3.0474,0.26926 -0.1697,0.21914 -2.83636,-0.25996 z"
       id="path7544" />
  </g>
</svg>
