<?xml version="1.0" encoding="UTF-8" standalone="no"?>
<!-- Created with Inkscape (http://www.inkscape.org/) -->

<svg
   sodipodi:docname="MiningMech.svg"
   inkscape:version="1.1.2 (0a00cf5339, 2022-02-04)"
   id="svg8"
   version="1.1"
   viewBox="0 0 34.98301 52.516205"
   height="52.516205mm"
   width="34.983009mm"
   xmlns:inkscape="http://www.inkscape.org/namespaces/inkscape"
   xmlns:sodipodi="http://sodipodi.sourceforge.net/DTD/sodipodi-0.dtd"
   xmlns="http://www.w3.org/2000/svg"
   xmlns:svg="http://www.w3.org/2000/svg"
   xmlns:rdf="http://www.w3.org/1999/02/22-rdf-syntax-ns#"
   xmlns:cc="http://creativecommons.org/ns#"
   xmlns:dc="http://purl.org/dc/elements/1.1/">
  <defs
     id="defs2" />
  <sodipodi:namedview
     id="base"
     pagecolor="#ffffff"
     bordercolor="#666666"
     borderopacity="1.0"
     inkscape:pageopacity="0.0"
     inkscape:pageshadow="2"
     inkscape:zoom="2.8284271"
     inkscape:cx="-30.935922"
     inkscape:cy="60.634406"
     inkscape:document-units="mm"
     inkscape:current-layer="layer1"
     showgrid="false"
     inkscape:window-width="1846"
     inkscape:window-height="1016"
     inkscape:window-x="74"
     inkscape:window-y="27"
     inkscape:window-maximized="1"
     inkscape:snap-global="false"
     fit-margin-top="0"
     fit-margin-left="0"
     fit-margin-right="0"
     fit-margin-bottom="0"
     showguides="false"
     inkscape:guide-bbox="true"
     inkscape:pagecheckerboard="0" />
  <metadata
     id="metadata5">
    <rdf:RDF>
      <cc:Work
         rdf:about="">
        <dc:format>image/svg+xml</dc:format>
        <dc:type
           rdf:resource="http://purl.org/dc/dcmitype/StillImage" />
      </cc:Work>
    </rdf:RDF>
  </metadata>
  <g
     inkscape:label="Capa 1"
     inkscape:groupmode="layer"
     id="layer1"
     transform="translate(-135.48963,-99.590537)"
     style="display:inline">
    <path
       id="rect10486"
       style="fill:#000000;stroke:none;stroke-width:0.90243;stroke-linecap:round;stroke-miterlimit:4;stroke-dasharray:none;stop-color:#000000"
       d="m 88.514854,72.564453 c -0.965968,0 -1.744141,0.778173 -1.744141,1.744141 v 11.148437 c 0,0.965968 0.778173,1.744141 1.744141,1.744141 h 9.301552 c 0.965968,0 1.742188,-0.778173 1.742188,-1.744141 V 74.308594 c 0,-0.965968 -0.77622,-1.744141 -1.742188,-1.744141 z m 1.104287,0.931641 h 7.277343 c 1.030602,0 1.875,0.838539 1.875,1.86914 v 9.027344 c 0,1.030602 -0.844398,1.875 -1.875,1.875 h -7.277343 c -1.030602,0 -1.869141,-0.844398 -1.869141,-1.875 v -9.027344 c 0,-1.030601 0.838539,-1.86914 1.869141,-1.86914 z"
       transform="matrix(0.26458333,0,0,0.26458333,135.48963,99.590537)"
       sodipodi:nodetypes="ssssssssssssssssss" />
    <path
       id="rect9060"
       style="stroke-width:0.221152;stroke-linecap:round;stop-color:#000000"
       d="m 148.33801,106.79665 c -0.0673,0.0198 -0.11221,0.0579 -0.12661,0.1266 l -0.64957,3.09594 c -0.0144,0.0687 0.0564,0.12712 0.12661,0.12712 h 3.51141 v -0.69711 c 0,-0.16721 0.13922,-0.30644 0.30644,-0.30644 h 0.27389 v -0.15813 c 0,-0.11877 0.0704,-0.22322 0.17104,-0.27389 v -1.78749 c 0,-0.0702 -0.0585,-0.10965 -0.1266,-0.1266 -0.3264,-0.0812 -3.03383,-0.13335 -3.48661,0 z"
       sodipodi:nodetypes="sccscsscscsss" />
    <path
       id="rect9060-8"
       style="display:inline;stroke-width:0.221152;stroke-linecap:round;stop-color:#000000"
       d="m 163.68346,106.79665 c 0.0673,0.0198 0.11221,0.0579 0.12661,0.1266 l 0.64957,3.09594 c 0.0144,0.0687 -0.0564,0.12712 -0.12661,0.12712 h -3.51141 v -0.69711 c 0,-0.16721 -0.13922,-0.30644 -0.30644,-0.30644 h -0.27389 v -0.15813 c 0,-0.11877 -0.0704,-0.22322 -0.17104,-0.27389 v -1.78749 c 0,-0.0702 0.0585,-0.10965 0.1266,-0.1266 0.3264,-0.0812 3.03383,-0.13335 3.48661,0 z"
       sodipodi:nodetypes="sccscsscscsss" />
    <path
       style="color:#000000;fill:#000000;stroke-width:0.306999;stroke-linecap:round;-inkscape-stroke:none"
       d="m 152.84464,108.32282 c -0.0847,0 -0.15296,0.0683 -0.15296,0.15296 v 0.44339 h -0.52762 c -0.0847,0 -0.15296,0.0683 -0.15296,0.15296 v 0.31161 h -0.42736 c -0.0847,0 -0.15296,0.0683 -0.15296,0.15296 v 1.95699 c 0,0.0847 0.0683,0.15296 0.15296,0.15296 h 0.24598 v -0.0258 c 0,0 0.002,-1.60573 0.002,-1.65623 0,-4e-4 0.01,-0.0481 0.01,-0.0486 2e-4,-5e-4 0.011,-0.0224 0.016,-0.0294 0.0103,-0.0146 0.0183,-0.0214 0.0253,-0.0274 0.0139,-0.0118 0.0231,-0.0173 0.0331,-0.0233 0.0193,-0.011 0.0393,-0.0195 0.0625,-0.0295 0.0464,-0.0199 0.10734,-0.0423 0.17984,-0.0682 0.145,-0.0518 0.33451,-0.1144 0.52503,-0.1757 0.22258,-0.0718 0.53069,-0.18825 0.79789,-0.25477 v -0.83199 c 0,-0.0847 -0.0683,-0.15296 -0.15297,-0.15296 z"
       id="path9239" />
    <path
       id="rect6729-1"
       style="display:inline;fill:#000000;stroke:none;stroke-width:0.306999;stroke-linecap:round;stop-color:#000000"
       d="m 159.15953,108.42494 c 0.0847,0 0.15296,0.0683 0.15296,0.15297 v 0.44338 h 0.52762 c 0.0847,0 0.15296,0.0683 0.15296,0.15296 v 0.31161 h 0.42736 c 0.0847,0 0.15296,0.0683 0.15296,0.15296 v 1.95699 c 0,0.0847 -0.0683,0.15296 -0.15296,0.15296 h -0.24598 v -0.0258 c 0,0 -0.002,-1.60573 -0.002,-1.65623 0,-3.9e-4 -0.01,-0.0481 -0.01,-0.0486 -2e-4,-5e-4 -0.011,-0.0225 -0.016,-0.0295 -0.0103,-0.0146 -0.0183,-0.0214 -0.0253,-0.0274 -0.0139,-0.0118 -0.0231,-0.0173 -0.0331,-0.0233 -0.0193,-0.011 -0.0393,-0.0195 -0.0625,-0.0295 -0.0464,-0.0199 -0.10734,-0.0423 -0.17984,-0.0682 -0.145,-0.0518 -0.33451,-0.1144 -0.52503,-0.1757 -0.22258,-0.0718 -0.53069,-0.18824 -0.79789,-0.25476 v -0.83199 c 0,-0.0847 0.0683,-0.15297 0.15297,-0.15297 z"
       sodipodi:nodetypes="sscsscssssccsscccccccsss" />
    <path
       id="rect4718"
       style="stroke-width:0.306999;stroke-linecap:round;stop-color:#000000"
       d="m 153.74837,109.70413 c -0.53184,0.0515 -1.07436,0.20808 -1.56166,0.34313 -0.0714,0.11762 0.0139,1.08469 0.0139,1.08469 0.22264,-0.0592 2.24229,-0.12411 2.41226,-0.0651 v -0.0393 h -0.26303 c -0.33414,0 -0.60152,-0.28189 -0.60152,-0.6196 z m 0.7643,1.44694 c -0.41747,6.9e-4 -2.10332,0.0141 -2.35903,0.18604 -0.0863,0.64901 0.79221,1.91087 0.96893,1.93683 0.1396,0.1152 1.42822,0.0768 1.49035,0 -0.0161,-0.70582 -0.007,-1.41581 -0.007,-2.12287 h -5.3e-4 c 0,0 -0.0334,-1e-4 -0.093,0 z m -2.28307,1.22577 c -0.0545,0.16717 -0.0509,1.42491 0,1.51153 0.006,0.11706 0.56005,0.58662 0.63666,0.58498 0,0 0.0372,-0.8081 0,-0.93483 z m 1.01234,1.09089 c -0.0684,0.003 -0.12247,0.0594 -0.12247,0.12867 v 1.08159 c 0,0.0715 0.0577,0.12919 0.12919,0.12919 h 1.23507 c 0.0715,0 0.12919,-0.0577 0.12919,-0.12919 v -1.08159 c 0,-0.0715 -0.0577,-0.12867 -0.12919,-0.12867 h -1.23507 c -0.002,0 -0.005,-1.2e-4 -0.007,0 z" />
    <path
       id="rect4718-6"
       style="display:inline;stroke-width:0.306999;stroke-linecap:round;stop-color:#000000"
       d="m 158.19169,109.70413 c 0.53184,0.0515 1.07436,0.20808 1.56166,0.34313 0.0714,0.11762 -0.0139,1.08469 -0.0139,1.08469 -0.22264,-0.0592 -2.24229,-0.12411 -2.41226,-0.0651 v -0.0393 h 0.26303 c 0.33414,0 0.60152,-0.28189 0.60152,-0.6196 z m -0.7643,1.44694 c 0.41747,6.9e-4 2.10332,0.0141 2.35903,0.18604 0.0863,0.64901 -0.79221,1.91087 -0.96893,1.93683 -0.1396,0.1152 -1.42822,0.0768 -1.49035,0 0.0161,-0.70582 0.007,-1.41581 0.007,-2.12287 h 5.3e-4 c 0,0 0.0334,-9e-5 0.093,0 z m 2.28307,1.22577 c 0.0545,0.16717 0.0509,1.42491 0,1.51153 -0.006,0.11706 -0.56005,0.58662 -0.63666,0.58498 0,0 -0.0372,-0.8081 0,-0.93483 z m -1.01234,1.09089 c 0.0684,0.003 0.12247,0.0594 0.12247,0.12867 v 1.08159 c 0,0.0715 -0.0577,0.12919 -0.12919,0.12919 h -1.23507 c -0.0715,0 -0.12919,-0.0577 -0.12919,-0.12919 v -1.08159 c 0,-0.0715 0.0577,-0.12867 0.12919,-0.12867 h 1.23507 c 0.002,0 0.005,-1.1e-4 0.007,0 z" />
    <rect
       style="opacity:1;vector-effect:none;fill:#1a1a1a;fill-opacity:1;stroke:none;stroke-width:0.1;stroke-linecap:butt;stroke-linejoin:miter;stroke-miterlimit:4;stroke-dasharray:none;stroke-dashoffset:0;stroke-opacity:1"
       id="rect860"
       width="7.0941477"
       height="0"
       x="148.86763"
       y="129.31949" />
    <g
       id="g1831"
       transform="translate(0.54280906,-0.93131917)">
      <g
         id="path1550" />
      <g
         id="path1550-3" />
    </g>
    <g
       id="rect2870" />
    <path
       id="rect1191"
       style="fill:#000000;stroke:none;stroke-width:0.306999;stroke-linecap:round;stop-color:#000000"
       d="m 153.8872,107.51667 c -0.15828,0 -0.28577,0.12749 -0.28577,0.28577 v 1.47381 c 0,0.10084 0.0518,0.18896 0.13023,0.23978 v -0.39274 c 0,-0.34293 0.28236,-0.62529 0.62528,-0.62529 h 0.12403 v -0.69556 c 0,-0.15828 -0.12749,-0.28577 -0.28577,-0.28577 z m 0.46974,1.29966 c -0.17217,0 -0.30695,0.13479 -0.30695,0.30696 v 0.43873 h 0.14521 c 0.15828,0 0.28577,-0.12749 0.28577,-0.28577 v -0.45992 z" />
    <path
       id="rect1191-3"
       style="display:inline;fill:#000000;stroke:none;stroke-width:0.306999;stroke-linecap:round;stop-color:#000000"
       d="m 157.83917,107.51667 c -0.15828,0 -0.28577,0.12749 -0.28577,0.28577 v 0.69556 h 0.005 c 0.34293,0 0.62321,0.28236 0.62321,0.62529 v 0.43666 c 0.14193,-0.0169 0.25115,-0.13707 0.25115,-0.2837 v -1.47381 c 0,-0.15828 -0.12749,-0.28577 -0.28577,-0.28577 z m -0.28577,1.29966 v 0.45992 c 0,0.15828 0.12749,0.28577 0.28577,0.28577 h 0.0243 v -0.43873 c 0,-0.17217 -0.13272,-0.30696 -0.30489,-0.30696 z" />
    <path
       style="color:#000000;fill:#000000;stroke-width:0.311529;stroke-linecap:round;-inkscape-stroke:none"
       d="m 154.3622,108.65752 h 3.21536 c 0.24694,0 0.44574,0.20734 0.44574,0.46488 v 1.28524 c 0,0.25755 -0.1988,0.46489 -0.44574,0.46489 h -3.21536 c -0.24694,0 -0.44574,-0.20734 -0.44574,-0.46489 v -1.28524 c 0,-0.25754 0.1988,-0.46488 0.44574,-0.46488 z"
       id="path4525" />
    <path
       id="rect1410"
       style="fill:#000000;stroke:none;stroke-width:1.52288;stroke-linecap:round;stop-color:#000000"
       d="m 73.90625,22.121094 c -0.386644,0 -0.697266,0.310621 -0.697266,0.697265 V 24 c -1.705441,1.050205 -2.841796,2.933983 -2.841796,5.082031 v 4.822266 c 0.290975,-0.141124 0.615413,-0.222656 0.958984,-0.222656 h 0.191406 v -4.59961 c 0,-1.477447 0.655271,-2.791485 1.691406,-3.671875 v 8.271485 h 1.587891 v -9.164063 c 0.48142,-0.160052 0.995572,-0.248047 1.533203,-0.248047 h 2.251953 c 0.537032,0 1.052716,0.08638 1.533203,0.246094 v 9.166016 h 1.587891 v -8.269532 c 1.032895,0.880381 1.685547,2.193476 1.685547,3.669922 v 4.59961 h 0.0957 c 0.385294,0 0.745685,0.100581 1.0625,0.27539 v -4.875 c 0,-2.148187 -1.138135,-4.031866 -2.84375,-5.082031 v -1.181641 c 0,-0.386644 -0.310622,-0.697265 -0.697266,-0.697265 H 80.8125 c -0.386644,0 -0.697266,0.310621 -0.697266,0.697265 v 0.498047 c -0.489209,-0.12992 -1.003342,-0.199218 -1.533203,-0.199218 h -2.251953 c -0.530516,0 -1.043448,0.06899 -1.533203,0.199218 v -0.498047 c 0,-0.386644 -0.310622,-0.697265 -0.697266,-0.697265 z"
       transform="matrix(0.26458333,0,0,0.26458333,135.48963,99.590537)"
       sodipodi:nodetypes="sscscscsccccssccccscscscsssscsscsss" />
    <path
       id="rect2084"
       style="fill:#000000;stroke:none;stroke-width:0.306999;stroke-linecap:round;stop-color:#000000"
       d="m 153.32616,114.92035 c -0.65909,0.006 -1.08207,0.64132 -1.07073,1.05885 -0.0115,0.47458 0.54787,1.02534 1.07074,0.9927 h 5.28565 c 0.62096,-0.12944 1.05805,-0.57247 1.07074,-0.9927 0.0248,-0.4216 -0.17342,-1.0382 -1.07074,-1.05885 z"
       sodipodi:nodetypes="ccccccc" />
    <path
       id="rect3050"
       style="fill:#000000;stroke:none;stroke-width:1.23115;stroke-linecap:round;stop-color:#000000"
       d="m 73.869141,40.0625 c -0.395717,0 -0.714844,0.357166 -0.714844,0.802734 v 11.535157 7.453125 c 0,0.44553 0.318976,0.804687 0.714844,0.804687 0.395716,0 0.714843,-0.359043 0.714843,-0.804687 v -6.685547 h 5.646485 v 7.238281 c 0,0.445531 0.318976,0.802734 0.714843,0.802734 0.395717,0 0.712891,-0.357165 0.712891,-0.802734 V 41.417969 c 0,-0.445531 -0.317098,-0.804688 -0.712891,-0.804688 -0.395716,0 -0.714843,0.359044 -0.714843,0.804688 v 10.21289 H 77.982422 V 41.060547 c 0,-0.376576 -0.256175,-0.679688 -0.576172,-0.679688 -0.319997,0 -0.578125,0.303112 -0.578125,0.679688 V 51.630859 H 74.583984 V 40.865234 c 0,-0.44553 -0.318976,-0.802734 -0.714843,-0.802734 z"
       transform="matrix(0.26458333,0,0,0.26458333,135.48963,99.590537)" />
    <rect
       style="display:inline;fill:#000000;stroke:none;stroke-width:0.321836;stroke-linecap:round;stop-color:#000000"
       id="rect3391-1"
       width="1.8204788"
       height="0.43208426"
       x="155.092"
       y="111.00482"
       ry="0" />
    <rect
       style="display:inline;fill:#000000;stroke:none;stroke-width:0.321836;stroke-linecap:round;stop-color:#000000"
       id="rect3391-1-7"
       width="1.8204788"
       height="0.43208426"
       x="155.05313"
       y="111.58531"
       ry="0" />
    <rect
       style="display:inline;fill:#000000;stroke:none;stroke-width:0.321836;stroke-linecap:round;stop-color:#000000"
       id="rect3391-1-0"
       width="1.8204788"
       height="0.43208426"
       x="155.08775"
       y="112.1658"
       ry="0" />
    <rect
       style="display:inline;fill:#000000;stroke:none;stroke-width:0.321836;stroke-linecap:round;stop-color:#000000"
       id="rect3391-1-9"
       width="1.8204788"
       height="0.43208426"
       x="155.05365"
       y="112.74628"
       ry="0" />
    <path
       id="rect7972"
       style="stroke-width:1.3525;stroke-linecap:round;stop-color:#000000"
       d="m 71.945312,66.783203 -0.235193,15.658203 c -0.03157,0.724582 1.539881,5.222656 1.539881,5.222656 0.3976,0.417404 7.44569,0.469156 7.876953,0 0,0 1.605042,-4.574382 1.539881,-5.222656 L 82.431641,66.783203 Z m 1.447266,0.603516 h 7.529297 l 0.15625,0.353515 c 0.06236,0.148536 0.05715,0.194197 0.07227,0.289063 0.01398,0.09449 0.0298,0.208316 0.04492,0.339844 0.02948,0.262828 0.0518,0.607586 0.08203,1.009765 0.05707,0.804322 0.114168,1.842392 0.140625,2.923828 0.02721,1.081474 0.02822,2.20337 -0.01563,3.166016 -0.04384,0.962683 -0.106518,1.732062 -0.324219,2.296875 -0.58405,1.540195 -1.180603,2.714999 -1.824219,3.535156 -0.645203,0.822199 -1.392369,1.333604 -2.222656,1.322266 C 76.201001,82.611406 75.478374,82.077339 74.861328,81.25 74.24432,80.422661 73.688899,79.263663 73.15625,77.75 l -0.02344,-0.05859 -0.0059,-0.05859 c -0.154205,-1.165757 -0.196885,-3.468908 -0.185547,-5.574218 0.006,-1.052674 0.02836,-2.049311 0.05859,-2.804688 0.01776,-0.377688 0.03006,-0.694098 0.05273,-0.9375 0.01134,-0.121701 0.02199,-0.224186 0.03711,-0.316406 0.01512,-0.09222 -0.03764,-0.113832 0.132812,-0.363281 z m 0.8125,1.158203 c -0.01776,0.203301 -0.0298,0.446884 -0.04492,0.761719 -0.0325,0.733795 -0.05103,1.71843 -0.05859,2.759765 -0.01172,2.059994 0.04961,4.351916 0.177735,5.351563 0.500636,1.406853 1.020632,2.477632 1.513672,3.138672 0.502337,0.673625 0.921686,0.904423 1.253906,0.908203 0.332296,0.0046 0.766745,-0.208343 1.292969,-0.878906 C 78.866067,79.915374 79.43942,78.83189 80,77.351562 v -0.0059 c 0.09071,-0.235691 0.202188,-1.008553 0.244141,-1.927734 0.04157,-0.919181 0.04013,-2.023097 0.01367,-3.085938 -0.02721,-1.062878 -0.07688,-2.08756 -0.132812,-2.871093 -0.02684,-0.373569 -0.05362,-0.680552 -0.08008,-0.916016 z m 0.509766,15.177734 h 4.945312 c 0.476372,0 0.878907,0.394685 0.878906,0.871094 v 1.158203 c 0,0.476372 -0.402534,0.871094 -0.878906,0.871094 h -4.945312 c -0.47641,0 -0.871094,-0.394722 -0.871094,-0.871094 V 84.59375 c 0,-0.476409 0.394684,-0.871094 0.871094,-0.871094 z m -0.02148,0.783203 c -0.04478,0.0069 -0.06836,0.03861 -0.06836,0.08789 v 1.158203 c 0,0.05821 0.03353,0.08984 0.08984,0.08984 h 4.945312 c 0.05669,0 0.0957,-0.03353 0.0957,-0.08984 V 84.59375 c 0,-0.05821 -0.03939,-0.08789 -0.0957,-0.08789 h -4.945312 c -0.0073,0 -0.01509,-9.88e-4 -0.02148,-10e-7 z"
       transform="matrix(0.26458333,0,0,0.26458333,135.48963,99.590537)"
       sodipodi:nodetypes="ccccccccccccccscscccccccssccccccccscccccccsssssssssssssssssss" />
    <path
       style="color:#000000;fill:#000000;stroke-width:0.207;stroke-linecap:round;-inkscape-stroke:none"
       d="m 155.2576,121.84476 h 1.30953 c 0.0705,0 0.12725,0.0568 0.12725,0.12725 v 0.30785 c 0,0.0705 -0.0567,0.12725 -0.12725,0.12725 h -1.30953 c -0.0705,0 -0.12726,-0.0568 -0.12726,-0.12725 v -0.30785 c 0,-0.0705 0.0568,-0.12725 0.12726,-0.12725 z"
       id="path8335" />
    <g
       id="g9956"
       transform="translate(0.1868626)">
      <path
         id="rect9590"
         style="stroke-width:0.207;stroke-linecap:round;stop-color:#000000"
         d="m 151.09686,117.09017 c 0.17819,-0.0925 1.68546,-0.0612 1.93854,0 0.14773,0.1193 0.10678,1.55002 0,1.60362 l -2.34389,0.003 c -0.0378,-0.37051 0.40535,-1.60668 0.40535,-1.60668 z"
         sodipodi:nodetypes="ccccc" />
      <path
         id="rect9590-7"
         style="display:inline;stroke-width:0.207;stroke-linecap:round;stop-color:#000000"
         d="m 160.35463,117.09017 c -0.17819,-0.0925 -1.68546,-0.0612 -1.93854,0 -0.14773,0.1193 -0.10678,1.55002 0,1.60362 l 2.34389,0.003 c 0.0378,-0.37051 -0.40535,-1.60668 -0.40535,-1.60668 z"
         sodipodi:nodetypes="ccccc" />
    </g>
    <path
       id="path10134"
       style="color:#000000;fill:#000000;stroke-width:0.214227;stroke-linecap:round;-inkscape-stroke:none"
       d="m 159.20988,119.15827 c -0.2152,0 -0.3886,0.17289 -0.3886,0.38809 v 1.06298 h 1.28054 v -1.41025 h 0.26562 v 1.41025 h 1.156 v -1.06298 c 0,-0.2152 -0.17342,-0.38809 -0.38861,-0.38809 z m -0.3886,1.71462 v 1.06247 c 0,0.21519 0.1734,0.38809 0.3886,0.38809 h 1.92495 c 0.21519,0 0.38861,-0.1729 0.38861,-0.38809 v -1.06247 h -1.156 v 1.41025 h -0.26562 v -1.41025 z" />
  </g>
</svg>
