<?xml version="1.0" encoding="UTF-8" standalone="no"?>
<!-- Created with Inkscape (http://www.inkscape.org/) -->

<svg
   sodipodi:docname="Pack Hunter.svg"
   inkscape:version="1.2.2 (b0a8486541, 2022-12-01)"
   id="svg8"
   version="1.1"
   viewBox="0 0 34.98301 52.516205"
   height="52.516205mm"
   width="34.983009mm"
   xml:space="preserve"
   xmlns:inkscape="http://www.inkscape.org/namespaces/inkscape"
   xmlns:sodipodi="http://sodipodi.sourceforge.net/DTD/sodipodi-0.dtd"
   xmlns="http://www.w3.org/2000/svg"
   xmlns:svg="http://www.w3.org/2000/svg"
   xmlns:rdf="http://www.w3.org/1999/02/22-rdf-syntax-ns#"
   xmlns:cc="http://creativecommons.org/ns#"
   xmlns:dc="http://purl.org/dc/elements/1.1/"><defs
     id="defs2" /><sodipodi:namedview
     id="base"
     pagecolor="#ffffff"
     bordercolor="#666666"
     borderopacity="1.0"
     inkscape:pageopacity="0.0"
     inkscape:pageshadow="2"
     inkscape:zoom="5.6568545"
     inkscape:cx="6.8942908"
     inkscape:cy="153.97249"
     inkscape:document-units="mm"
     inkscape:current-layer="layer3"
     showgrid="false"
     inkscape:window-width="1920"
     inkscape:window-height="1043"
     inkscape:window-x="1920"
     inkscape:window-y="1080"
     inkscape:window-maximized="1"
     inkscape:snap-global="false"
     fit-margin-top="0"
     fit-margin-left="0"
     fit-margin-right="0"
     fit-margin-bottom="0"
     showguides="false"
     inkscape:guide-bbox="true"
     inkscape:showpageshadow="2"
     inkscape:pagecheckerboard="0"
     inkscape:deskcolor="#d1d1d1" /><metadata
     id="metadata5"><rdf:RDF><cc:Work
         rdf:about=""><dc:format>image/svg+xml</dc:format><dc:type
           rdf:resource="http://purl.org/dc/dcmitype/StillImage" /><dc:title /></cc:Work></rdf:RDF></metadata><g
     inkscape:groupmode="layer"
     id="layer3"
     inkscape:label="Capa1"><g
       id="g9164"
       transform="translate(-0.82174143)"><path
         id="rect5457"
         style="stroke-width:0.400287;stroke-linecap:round;stop-color:#000000"
         d="m 21.99135,26.939765 -1.503223,0.870341 0.0011,0.279649 h -0.49041 c -0.228609,0 -0.412894,0.184285 -0.412894,0.412895 v 0.40411 c 0,0.228607 0.184285,0.412378 0.412894,0.412378 h 0.49041 v 0.08888 c 0,0.47318 0.334016,1.07642 0.807186,1.07642 h 0.420646 c 0.473167,0 0.986247,-1.339961 0.835608,-1.788521 l -0.03101,-0.0925 c 0.166357,-0.09637 0.247125,-0.298203 0.183451,-0.487825 L 22.5764,27.732674 c -0.06368,-0.189623 -0.250009,-0.302657 -0.4408,-0.279053 z m -1.23241,3.737432 c -0.189828,0.005 -0.362745,0.0826 -0.497644,0.208256 0.01,-7.6e-4 0.01924,-10e-4 0.02894,-10e-4 0.23995,0 0.444618,0.234388 0.533818,0.570508 0.0392,-0.012 0.07929,-0.01912 0.120923,-0.01912 h 0.852661 c 0.0621,0 0.121497,0.01486 0.177767,0.04186 0.01665,-0.06762 0.03824,-0.131374 0.06356,-0.190169 -0.02563,-0.127077 -0.01262,-0.262717 0.04651,-0.38809 0.03311,-0.07019 0.07867,-0.130812 0.131775,-0.181901 -0.07597,-0.02606 -0.156894,-0.04031 -0.240813,-0.04031 H 20.77961 c -0.007,0 -0.01387,-1.9e-4 -0.02067,0 z m -0.539502,0.614433 c -0.322348,0 -0.581877,0.422482 -0.581877,0.947229 v 3.165698 c 0.0869,-0.0249 0.178478,-0.03876 0.273368,-0.03876 h 0.04548 v -2.18643 c 0,-0.553667 0.409114,-1.00614 0.910022,-1.00614 h 0.931209 c 0.177315,0 0.342944,0.05722 0.483175,0.155029 l 0.04134,-0.630969 c -0.09304,-0.05755 -0.166,-0.137334 -0.216525,-0.228927 -0.08907,0.104045 -0.159062,0.24831 -0.200504,0.416512 -0.0563,-0.027 -0.116224,-0.04186 -0.178284,-0.04186 h -0.852144 c -0.0415,0 -0.08179,0.007 -0.120923,0.01912 -0.0892,-0.33612 -0.294375,-0.570508 -0.534334,-0.570508 z m 2.225704,0 c -0.01307,0 -0.02591,6.98e-4 -0.03876,0.0021 0.02646,0.05108 0.06934,0.09443 0.126608,0.12144 0.06979,0.03292 0.145142,0.03477 0.211356,0.01085 -0.08726,-0.0851 -0.189606,-0.134359 -0.299206,-0.134359 z m 0.517281,0.513147 c -0.09514,0.01861 -0.198102,0.01691 -0.298173,0.01964 l -0.02946,0.454753 0.383956,-0.193787 c -0.0099,-0.09974 -0.02901,-0.194016 -0.05633,-0.280603 z m -2.110983,0.741557 c -0.312851,0.0085 -0.557588,0.284902 -0.557588,0.633036 v 2.18643 h 2.076359 v -2.18643 c 0,-0.123319 -0.03066,-0.237786 -0.08423,-0.334346 l -0.03979,0.02015 0.0052,-0.07493 c -0.104062,-0.148948 -0.267413,-0.243913 -0.453719,-0.243913 h -0.931209 c -0.005,0 -0.01002,-1.36e-4 -0.01499,0 z m 2.175061,0.04909 -0.09302,0.04548 0.09302,0.05219 z m -0.356567,0.29714 c 0.0246,0.09095 0.03772,0.187273 0.03772,0.286804 v 2.18798 c 0.243563,0.0271 0.340786,0.12278 0.318843,0.07286 v -2.34611 z m -2.777608,2.596224 c -0.388291,0.0096 -0.692464,0.321703 -0.692464,0.712618 v 3.275769 c 0,0.39711 -0.09118,1.8526 0.305924,1.8526 h 0.549837 c -0.497917,-0.0287 -0.488342,-1.580087 -0.488342,-2.085144 v -2.176095 c 0,-0.523707 0.425577,-0.948779 0.949296,-0.948779 h 1.562179 c 0.523709,0 0.947229,0.425072 0.947229,0.948779 v 2.176095 c 0,0.505057 0.166533,2.060578 -0.331246,2.089278 h 0.514697 c 0.39711,0 0.152446,-1.459624 0.152446,-1.856734 v -3.275769 c 0,-0.39712 -0.315509,-0.712618 -0.712618,-0.712618 h -2.738335 c -0.0062,0 -0.01244,-1.53e-4 -0.0186,0 z m 0.604614,0.820105 c -0.413356,0.01031 -0.740523,0.343619 -0.740523,0.759643 v 2.176095 c 0,0.42264 0.395915,1.086755 0.818555,1.086755 h 1.562178 c 0.42264,0 0.701249,-0.664115 0.701249,-1.086755 v -2.176095 c 0,-0.422627 -0.337004,-0.759643 -0.759643,-0.759643 h -1.562179 c -0.0066,0 -0.01308,-1.64e-4 -0.01964,0 z m 0.245463,0.502812 c 0.07201,6.69e-4 0.130305,0.05873 0.131258,0.130741 v 2.291333 c 1.72e-4,0.07281 -0.05845,0.132126 -0.131258,0.132808 -0.07342,1.71e-4 -0.132979,-0.05939 -0.132808,-0.132808 v -2.291333 c 9.64e-4,-0.07261 0.06019,-0.130916 0.132808,-0.130741 z m 1.179773,0 c 0.07262,-1.75e-4 0.131845,0.05813 0.132809,0.130741 v 2.291333 c 1.71e-4,0.07342 -0.05939,0.132979 -0.132809,0.132808 -0.07342,1.71e-4 -0.132979,-0.05939 -0.132808,-0.132808 v -2.291333 c 9.64e-4,-0.07261 0.06019,-0.130917 0.132808,-0.130741 z m 0.03824,3.629752 c -0.161424,-2.27e-4 -0.371289,0.01028 -0.64854,0.01033 -1.223451,0.0012 -1.099829,-0.200826 -1.18339,1.321367 -0.440589,0.334777 -0.724503,0.86443 -0.724503,1.46296 0,1.017177 -0.322962,1.836063 1.345654,1.836063 h 1.343587 c 1.668614,0 1.345654,-0.818886 1.345654,-1.836063 0,-0.59853 -0.283886,-1.128183 -0.724503,-1.46296 -0.217515,-1.197532 -0.177447,-1.330889 -0.753959,-1.331702 z"
         sodipodi:nodetypes="cccsssscsssccccccccscssccscssccsscscsssccccsscssccscccccccccssccscccsssscccccsccccsssscsssssscssssssssssssssssssccccccccccccccsccsssscss" /><path
         id="rect6781"
         style="fill:#000000;stroke:none;stroke-width:0.309587;stroke-linecap:round;stroke-linejoin:round;stroke-dasharray:none;stop-color:#000000"
         d="m 16.706474,13.525789 c -0.02922,7.5e-4 -0.05818,0.0046 -0.08578,0.01085 -6.78e-4,1.55e-4 -0.0014,3.59e-4 -0.0021,5.17e-4 -0.08201,0.0069 -0.154112,0.0481 -0.202055,0.109037 -0.0859,0.08073 -0.140043,0.194813 -0.140043,0.320911 0,0.09261 0.02906,0.178821 0.07855,0.250114 v 0.175183 c -0.04949,0.07129 -0.07855,0.158018 -0.07855,0.250631 0,0.12492 0.05296,0.238252 0.137459,0.318843 0.04851,0.06343 0.12298,0.105516 0.207739,0.111622 0.031,0.007 0.06313,0.01085 0.09612,0.01085 0.03119,0 0.06153,-0.0036 0.09095,-0.0098 h 0.03307 v 0.364836 c 0.130322,-0.152606 0.323883,-0.250114 0.538985,-0.250114 h 0.02584 v -0.114722 h 0.03256 c 0.02942,0.0063 0.05976,0.0098 0.09095,0.0098 0.03294,0 0.06517,-0.0039 0.09612,-0.01085 0.08386,-0.006 0.157648,-0.04724 0.206189,-0.109555 0.08574,-0.08071 0.139527,-0.194947 0.139527,-0.32091 0,-0.09267 -0.02952,-0.179314 -0.07906,-0.250631 v -0.174666 c 0.04969,-0.07138 0.07906,-0.157814 0.07906,-0.250631 0,-0.12688 -0.05476,-0.241651 -0.141594,-0.322461 -0.04794,-0.06029 -0.119467,-0.100734 -0.201021,-0.107487 -0.03193,-0.0074 -0.06515,-0.01137 -0.09922,-0.01137 -0.03262,0 -0.06442,0.0035 -0.09509,0.01034 h -0.622184 c -0.03068,-0.0068 -0.06245,-0.01034 -0.09508,-0.01034 -0.0038,0 -0.0076,-9.7e-5 -0.01137,0 z m 3.439583,0 c -0.02922,7.5e-4 -0.05818,0.0046 -0.08578,0.01085 -6.78e-4,1.55e-4 -0.0014,3.59e-4 -0.0021,5.17e-4 -0.08201,0.0069 -0.154112,0.0481 -0.202055,0.109037 -0.0859,0.08073 -0.140043,0.194813 -0.140043,0.320911 0,0.09261 0.02906,0.178821 0.07855,0.250114 v 0.175183 c -0.04949,0.07129 -0.07855,0.158018 -0.07855,0.250631 0,0.12492 0.05296,0.238252 0.13746,0.318843 0.0485,0.06343 0.122972,0.105516 0.207739,0.111622 0.031,0.007 0.06313,0.01085 0.09612,0.01085 0.03119,0 0.06153,-0.0036 0.09095,-0.0098 h 0.03307 v 0.114722 h 0.02739 c 0.215081,0 0.407646,0.09753 0.537435,0.250114 v -0.364836 h 0.03256 c 0.02942,0.0063 0.05976,0.0098 0.09095,0.0098 0.03294,0 0.06517,-0.0039 0.09612,-0.01085 0.08386,-0.006 0.157648,-0.04724 0.206189,-0.109555 0.08574,-0.08071 0.139526,-0.194947 0.139526,-0.32091 0,-0.09267 -0.02952,-0.179314 -0.07906,-0.250631 v -0.174666 c 0.04969,-0.07138 0.07906,-0.157814 0.07906,-0.250631 0,-0.12688 -0.05477,-0.241651 -0.141593,-0.322461 -0.04794,-0.06029 -0.119468,-0.100734 -0.201022,-0.107487 -0.03193,-0.0074 -0.06515,-0.01137 -0.09922,-0.01137 -0.03262,0 -0.06441,0.0035 -0.09508,0.01034 h -0.622184 c -0.03068,-0.0068 -0.06245,-0.01034 -0.09508,-0.01034 -0.0038,0 -0.0076,-9.7e-5 -0.01137,0 z m -3.437516,0.265617 c 0.003,-1.49e-4 0.0062,0 0.0093,0 0.09889,0 0.175699,0.07681 0.175699,0.1757 0,0.09889 -0.07681,0.1757 -0.175699,0.1757 -0.09889,0 -0.1757,-0.07681 -0.1757,-0.1757 0,-0.0958 0.07198,-0.171097 0.166398,-0.1757 z m 0.81287,0 c 0.003,-1.49e-4 0.0057,0 0.0088,0 0.09889,0 0.176217,0.07681 0.176217,0.1757 0,0.09889 -0.07733,0.1757 -0.176217,0.1757 -0.09889,0 -0.17725,-0.07681 -0.17725,-0.1757 0,-0.0958 0.07393,-0.171097 0.168465,-0.1757 z m 2.626713,0 c 0.003,-1.49e-4 0.0062,0 0.0093,0 0.09889,0 0.1757,0.07681 0.1757,0.1757 0,0.09889 -0.07681,0.1757 -0.1757,0.1757 -0.09889,0 -0.1757,-0.07681 -0.1757,-0.1757 0,-0.0958 0.07198,-0.171097 0.166398,-0.1757 z m 0.81287,0 c 0.003,-1.49e-4 0.0057,0 0.0088,0 0.09889,0 0.176217,0.07681 0.176217,0.1757 0,0.09889 -0.07733,0.1757 -0.176217,0.1757 -0.09888,0 -0.17725,-0.07681 -0.17725,-0.1757 0,-0.0958 0.07394,-0.171097 0.168465,-0.1757 z m -4.252453,0.675411 c 0.003,-1.49e-4 0.0062,0 0.0093,0 0.09889,0 0.175699,0.07733 0.175699,0.176217 0,0.09889 -0.07681,0.177767 -0.175699,0.177767 -0.09889,0 -0.1757,-0.07887 -0.1757,-0.177767 0,-0.0958 0.07199,-0.171588 0.166398,-0.176217 z m 0.812353,0 c 0.003,-1.49e-4 0.0062,0 0.0093,0 0.09889,0 0.176217,0.07733 0.176217,0.176217 0,0.09889 -0.07733,0.177767 -0.176217,0.177767 -0.09889,0 -0.17725,-0.07887 -0.17725,-0.177767 0,-0.0958 0.07345,-0.171588 0.167948,-0.176217 z m 2.62723,0 c 0.003,-1.49e-4 0.0062,0 0.0093,0 0.09889,0 0.1757,0.07733 0.1757,0.176217 0,0.09889 -0.07681,0.177767 -0.1757,0.177767 -0.09889,0 -0.1757,-0.07887 -0.1757,-0.177767 0,-0.0958 0.07199,-0.171588 0.166398,-0.176217 z m 0.812354,0 c 0.003,-1.49e-4 0.0062,0 0.0093,0 0.09889,0 0.176217,0.07733 0.176217,0.176217 0,0.09889 -0.07733,0.177767 -0.176217,0.177767 -0.09888,0 -0.17725,-0.07887 -0.17725,-0.177767 0,-0.0958 0.07345,-0.171588 0.167949,-0.176217 z m -5.634282,0.460954 c -0.306027,0 -0.574139,0.212506 -0.763777,0.538985 -0.09163,0.15774 -0.165962,0.342265 -0.218592,0.546737 a 0.14251425,0.14251425 0 0 1 -0.01964,0.04496 c -0.130571,0.193136 -0.207222,0.423836 -0.207222,0.673861 -10e-7,0.250248 0.07663,0.482903 0.207222,0.675928 a 0.14251425,0.14251425 0 0 1 0.01964,0.04289 c 0.05261,0.204235 0.127002,0.389063 0.218592,0.546737 0.189638,0.32648 0.45775,0.538986 0.763777,0.538985 0.306031,0 0.576414,-0.212863 0.765845,-0.538985 0.0918,-0.15805 0.166401,-0.343535 0.218591,-0.548804 a 0.14251425,0.14251425 0 0 1 0.01964,-0.04496 c 0.129698,-0.19263 0.204639,-0.422557 0.204639,-0.671794 0,-0.249023 -0.07515,-0.479234 -0.204639,-0.671794 a 0.14251425,0.14251425 0 0 1 -0.01964,-0.04496 c -0.05218,-0.205581 -0.126571,-0.390387 -0.218591,-0.548804 -0.189431,-0.326121 -0.459814,-0.538985 -0.765845,-0.538985 z m 2.054655,0.511597 c -0.255647,0 -0.458886,0.203245 -0.458886,0.458886 v 0.3483 c 0.397599,-0.469496 0.931832,-0.745582 1.496032,-0.807186 z m 1.526005,0 c 0.69887,0.07469 1.382721,0.467716 1.858802,1.163236 v -0.70435 c 0,-0.255641 -0.201173,-0.458886 -0.45682,-0.458886 z m -3.580143,0.358117 a 0.93508565,0.93508565 0 0 1 0.934827,0.934827 0.93508565,0.93508565 0 0 1 -0.934827,0.935343 0.93508565,0.93508565 0 0 1 -0.935343,-0.935343 0.93508565,0.93508565 0 0 1 0.935343,-0.934827 z m 3.309876,0.06563 c -0.568396,0.0076 -1.10635,0.278674 -1.464511,0.814421 h 0.04754 c 0.694159,-1.003599 2.119602,-1.022428 2.934704,0 h 0.07235 c -0.434585,-0.552967 -1.017116,-0.822081 -1.590083,-0.814421 z m -4.727877,0.442867 c -0.300358,0.06518 -0.523999,0.331148 -0.523999,0.65164 v 0.80822 c -0.02537,0.01621 -0.04921,0.03454 -0.07131,0.05478 0.08805,0.06054 0.185036,0.129152 0.280603,0.202571 0.102421,0.07869 0.204223,0.159961 0.296623,0.252181 0.0924,0.09222 0.190998,0.165598 0.255798,0.400493 9.04e-4,0.0031 0.01569,0.05181 0.03462,0.117305 h 0.469222 v 0.0057 c 0,0.160068 0.125185,0.285253 0.285253,0.285253 h 6.761862 c 0.160068,0 0.285254,-0.125185 0.285254,-0.285253 v -1.58595 c 0,-0.160077 -0.125186,-0.285254 -0.285254,-0.285254 h -0.681613 v 0.110587 c 0.186053,0.388276 0.316564,0.844403 0.36897,1.367876 l 0.01757,0.164331 -0.154512,0.06046 c -1.261188,0.498767 -3.50795,0.558902 -4.86482,0 l -0.131258,-0.05478 -0.0036,-0.14056 c -0.0016,-0.05077 -0.0023,-0.100786 -0.0021,-0.150378 -0.222371,0.311428 -0.539438,0.536918 -0.919841,0.536918 -0.436426,1e-6 -0.78758,-0.297049 -1.009757,-0.679545 -0.102866,-0.177094 -0.183746,-0.378584 -0.241846,-0.596863 -0.152988,-0.234371 -0.242362,-0.514111 -0.242362,-0.813387 0,-0.15012 0.02905,-0.292088 0.07648,-0.426331 z m 3.119189,0.621668 c -0.03874,0.07847 -0.07414,0.161387 -0.105936,0.248564 v 0.146244 c 0.04012,-0.14218 0.09045,-0.273995 0.150378,-0.394808 z m 3.300057,0 c 0.151173,0.249598 0.270918,0.545696 0.345716,0.889351 0.02787,-0.03711 0.0505,-0.07857 0.06615,-0.123506 -0.08783,-0.290412 -0.203611,-0.545156 -0.339514,-0.765845 z m -4.99246,0.670243 c -0.005,0.0011 -0.0044,0.01365 0.0031,0.03411 l 0.01033,0.02791 0.0026,-0.02325 c 0.0015,-0.01306 -8.85e-4,-0.02773 -0.0057,-0.03256 -0.0046,-0.0046 -0.0081,-0.0067 -0.01034,-0.0062 z m -0.180867,0.03307 c -0.0045,0 -0.0083,0.0042 -0.0083,0.0088 0,0.0045 0.0037,0.0083 0.0083,0.0083 0.0045,0 0.0083,-0.0037 0.0083,-0.0083 0,-0.0045 -0.0037,-0.0088 -0.0083,-0.0088 z m 0.11007,0.0036 c -8.75e-4,8.75e-4 -0.0014,0.0035 -0.0015,0.0083 -3.71e-4,0.0087 0.0014,0.0136 0.0041,0.01085 0.0027,-0.0027 0.0029,-0.0096 5.17e-4,-0.0155 -0.0013,-0.0033 -0.0022,-0.0045 -0.0031,-0.0036 z m 1.495516,0.245463 c -0.01384,0.119391 -0.02312,0.243566 -0.02584,0.37362 0.287092,0.100717 0.6206,0.173808 0.976168,0.221175 -0.329597,-0.05088 -0.635003,-0.128261 -0.891935,-0.234094 -0.0029,-0.0925 -0.0019,-0.182169 0.0021,-0.269234 -0.02235,-0.02882 -0.04269,-0.0594 -0.06046,-0.09147 z m 4.063835,0.143143 c -0.03013,0.03224 -0.06309,0.06167 -0.0987,0.08785 0.0057,0.04267 0.01059,0.08577 0.01499,0.129708 -0.328532,0.129925 -0.757587,0.221473 -1.222664,0.269751 0.501764,-0.04297 0.972658,-0.128982 1.349788,-0.252698 -0.01264,-0.08039 -0.02719,-0.158331 -0.04341,-0.234611 z m 1.405599,0.829924 c -0.02754,0.268915 -0.256424,0.481107 -0.532267,0.481107 h -6.761862 c -0.267809,0 -0.490641,-0.200131 -0.528649,-0.457853 v 5.165576 c 0,0.376852 0.303234,0.680579 0.680061,0.680579 h 6.462655 c 0.376851,0 0.680062,-0.303727 0.680062,-0.680579 z m -5.139738,0.482658 c 0.0051,-9.8e-5 0.01041,0 0.0155,0 h 3.779097 c 0.162986,0 0.314723,0.05001 0.4408,0.134875 h 0.143661 c 0.318977,0 0.579809,0.26135 0.579809,0.580326 v 1.6738 c 0,0.07077 -0.01269,0.138688 -0.03617,0.201538 0.002,0.01909 0.0031,0.03829 0.0031,0.05788 v 1.363224 c 0,0.06921 -0.01264,0.135723 -0.03514,0.197404 v 0.306958 c 0,0.33315 -0.272523,0.605131 -0.605647,0.605131 H 21.15013 c -0.05937,0.09227 -0.162611,0.154513 -0.279053,0.154513 h -4.179589 c -0.116512,0 -0.21924,-0.06215 -0.27802,-0.154513 h -0.718302 c -0.307556,0 -0.562533,-0.231976 -0.599963,-0.529683 -0.311579,-0.0087 -0.56379,-0.266237 -0.56379,-0.57981 v -1.363224 c 0,-0.08576 0.01936,-0.16701 0.05323,-0.240296 -2.11e-4,-0.0064 -5.16e-4,-0.01265 -5.16e-4,-0.01912 v -1.6738 c 0,-0.318976 0.258766,-0.580326 0.577742,-0.580326 h 1.503268 c 0.122137,-0.08221 0.267612,-0.131862 0.42478,-0.134875 z m 0.0021,0.271818 c -0.285384,0.0071 -0.507979,0.236137 -0.507979,0.523482 v 0.371037 a 0.13564056,0.13564056 0 0 1 -0.136943,0.136426 h -0.33383 c -0.134319,0 -0.238228,0.103909 -0.238228,0.238228 v 1.928048 c 0,0.134303 0.103909,0.238228 0.238228,0.238228 h 0.388607 a 0.13564056,0.13564056 0 0 1 0.12299,0.08216 c 0.07983,0.185703 0.262975,0.314193 0.480591,0.314193 h 0.640788 a 0.13564056,0.13564056 0 0 1 0.134875,0.136943 v 0.0155 c 0,0.05433 0.0409,0.09353 0.0956,0.09353 h 2.11925 c 0.0547,0 0.09353,-0.03883 0.09353,-0.09353 v -0.0155 a 0.13564056,0.13564056 0 0 1 0.136943,-0.136943 h 0.558105 c 0.291906,0 0.521932,-0.22951 0.521932,-0.521415 v -2.78691 c 0,-0.291906 -0.230026,-0.523482 -0.521932,-0.523482 h -0.810286 c 0.374341,0.178696 0.633036,0.561043 0.633036,1.003556 v 1.256254 c 0,0.613139 -0.49634,1.111043 -1.109493,1.111043 h -0.806669 c -0.613139,0 -1.11156,-0.497904 -1.11156,-1.111043 v -1.256254 c 0,-0.442513 0.259679,-0.82486 0.634587,-1.003556 h -1.208712 c -0.0046,0 -0.0089,-1.13e-4 -0.01344,0 z m -1.9389,0.113171 c -0.180615,0.0044 -0.318843,0.148298 -0.318843,0.330212 v 1.6738 c 0,0.18482 0.142808,0.329696 0.327628,0.329696 h 0.441834 v -1.177706 c 0,-0.280044 0.2295,-0.50953 0.509529,-0.50953 h 0.199471 v -0.236161 c 0,-0.149736 0.04138,-0.290456 0.113689,-0.410311 h -1.264523 c -0.0029,0 -0.0059,-7.1e-5 -0.0088,0 z m 6.42028,0.01654 c 0.06642,0.116202 0.104387,0.250749 0.104387,0.393774 v 1.850016 c 0.07406,-0.05987 0.120922,-0.151524 0.120922,-0.256315 v -1.6738 c 0,-0.148173 -0.09312,-0.270804 -0.225309,-0.313675 z m -2.793628,0.01292 c -0.473709,0.0059 -0.850077,0.385695 -0.850077,0.860929 v 1.256254 c 0,0.478978 0.382482,0.860929 0.861446,0.860929 h 0.806669 c 0.478978,0 0.859379,-0.381951 0.859379,-0.860929 v -1.256254 c 0,-0.478977 -0.380401,-0.860929 -0.859379,-0.860929 h -0.806669 c -0.0037,0 -0.0076,-4.7e-5 -0.01137,0 z m 0.338481,0.452685 c 0.0047,-1.21e-4 0.0097,0 0.01447,0 h 0.342098 c 0.305578,0 0.554488,0.249428 0.554488,0.555005 v 0.886768 c 0,0.305565 -0.24891,0.554488 -0.554488,0.554488 h -0.342098 c -0.305564,0 -0.554488,-0.248923 -0.554488,-0.554488 v -0.886768 c 0,-0.300802 0.241007,-0.547378 0.540019,-0.555005 z m 0.0052,0.199471 c -0.19379,0.0048 -0.344166,0.160395 -0.344166,0.355534 v 0.886768 c 0,0.198225 0.15523,0.353466 0.353467,0.353466 h 0.342098 c 0.198238,0 0.353467,-0.155241 0.353467,-0.353466 v -0.886768 c 0,-0.198237 -0.155229,-0.355534 -0.353467,-0.355534 h -0.342098 c -0.0031,0 -0.0062,-7.6e-5 -0.0093,0 z m 0.175699,0.550871 c 0.243824,0 0.442867,0.19956 0.442867,0.443384 0,0.243825 -0.199043,0.443384 -0.442867,0.443384 -0.243813,0 -0.443383,-0.199559 -0.443383,-0.443384 0,-0.243824 0.19957,-0.443384 0.443383,-0.443384 z m 0,0.150378 c -0.04049,0 -0.07923,0.0081 -0.114205,0.02274 l 0.136426,0.234611 0.220659,-0.128158 c -0.05245,-0.07809 -0.141076,-0.129191 -0.24288,-0.129191 z m -0.171049,0.05478 c -0.07399,0.05301 -0.121956,0.139617 -0.121956,0.238229 0,0.04394 0.0098,0.08518 0.02687,0.122473 l 0.22841,-0.131258 z m 0.443901,0.132292 -0.221175,0.128674 0.12299,0.211874 c 0.07157,-0.05325 0.117822,-0.137899 0.117822,-0.234611 0,-0.0374 -0.007,-0.07314 -0.01964,-0.105937 z m -0.28112,0.155029 -0.223759,0.129708 c 0.05343,0.0693 0.137111,0.114205 0.232027,0.114205 0.04234,0 0.08211,-0.0094 0.118339,-0.02532 z m -4.634859,0.558623 v 1.344104 c 0,0.251885 0.202845,0.454752 0.454753,0.454752 h 0.766361 v -0.547253 c -0.16219,-0.08564 -0.273368,-0.256155 -0.273368,-0.451135 v -0.500228 h -0.441834 c -0.217817,0 -0.407358,-0.121482 -0.505912,-0.30024 z m 7.234184,0.116788 c -0.05893,0.06257 -0.131288,0.111851 -0.21239,0.143661 v 0.65319 c 0,0.200307 -0.07464,0.383308 -0.197404,0.522965 v 0.359668 c 0.230568,-0.02251 0.409794,-0.215506 0.409794,-0.452168 z m -5.762956,1.193209 v 0.538985 c 0,0.05157 0.03783,0.08992 0.0894,0.08992 h 1.691887 c -0.08521,-0.03724 -0.126452,-0.143477 -0.177767,-0.232544 h -0.625285 c -0.270222,0 -0.460248,-0.189298 -0.603581,-0.396358 z m 5.103048,0.317293 c -0.104506,0.05078 -0.221853,0.07906 -0.345716,0.07906 h -0.542602 c -0.05119,0.08907 -0.09253,0.195306 -0.177767,0.232544 h 0.976684 c 0.05157,0 0.0894,-0.03835 0.0894,-0.08992 z m 0.500228,0.214458 c -0.0765,0.04557 -0.164332,0.074 -0.257866,0.0801 -0.02932,0.13146 -0.136472,0.2355 -0.269234,0.260966 v 0.01964 h 0.171566 c 0.198949,0 0.355534,-0.156043 0.355534,-0.355017 z m -6.382557,0.08165 c 0.03409,0.161249 0.174496,0.279053 0.347266,0.279053 h 0.666109 v -0.01344 h -0.144694 c -0.160328,0 -0.296822,-0.114745 -0.331246,-0.265617 z m 1.137399,0.265617 v 0.0863 c 0,0.114494 0.09223,0.206706 0.206705,0.206706 h 4.179073 c 0.114494,0 0.206706,-0.09221 0.206706,-0.206706 v -0.0863 z" /><path
         id="rect6781-7"
         style="fill:#000000;stroke:none;stroke-width:0.324844;stroke-linecap:round;stroke-linejoin:round;stroke-dasharray:none;stop-color:#000000"
         d="m 20.986833,16.339571 c -0.116588,0 -0.226205,0.03256 -0.321428,0.08992 h 0.977202 c 0.339774,1e-6 0.617016,0.277759 0.617016,0.617533 v 1.694987 c 0,0.11623 -0.03257,0.225301 -0.08888,0.318327 0.03149,-0.01092 0.06221,-0.02358 0.09147,-0.03927 l 0.43925,0.01602 c 0.06805,-0.24508 0.122611,-0.426587 0.12299,-0.427881 0.0121,-0.04384 0.03014,-0.08081 0.05323,-0.114722 -6.34e-4,-0.01565 -0.001,-0.03117 -0.001,-0.04703 0,-0.203723 -0.0957,-0.381971 -0.240296,-0.483692 v -0.889868 c 0,-0.407039 -0.297441,-0.734322 -0.667142,-0.734322 z" /><path
         id="rect6712"
         style="fill:#000000;stroke:none;stroke-width:0.285001;stroke-linecap:round;stroke-linejoin:round;stroke-dasharray:none;stop-color:#000000"
         d="m 12.470557,18.033008 c -0.621088,0.07845 -1.800407,0.500744 -1.800407,0.500744 -0.148591,0.09059 -0.459844,0.372789 -0.572575,0.476457 l 0.289388,0.418579 2.441195,-0.740523 z m 0.323494,0.04237 0.421163,0.77308 -2.937805,0.888835 -0.4108278,-0.593763 c -0.4676895,0.208779 -1.5968017,0.658358 -1.5968017,0.658358 -0.2231865,0.03338 -0.2625163,0.432532 -0.2625163,0.432532 0.2346053,0.405816 2.6117268,1.382861 2.6117268,1.382861 0.044,0.007 0.144261,-0.01202 0.28267,-0.04909 0.0036,0.0039 0.0067,0.0079 0.01033,0.01188 0.07452,0.08057 0.16685,0.169019 0.259933,0.253731 0.09308,0.08471 0.185594,0.164201 0.261483,0.222726 0.03794,0.02926 0.07294,0.05349 0.103869,0.07235 0.01547,0.0094 0.02848,0.01743 0.04858,0.02532 0.01005,0.0039 0.02092,0.0072 0.03927,0.0098 0.0092,0.0013 0.02083,0.0034 0.03514,0.0021 0.0072,-6.76e-4 0.02278,-0.004 0.02325,-0.0041 2.71e-4,-7.4e-5 0.0098,-0.0026 0.01757,-0.0057 0.0022,-7.03e-4 0.0073,-0.0017 0.01395,-0.0036 0.01337,-0.0038 0.03333,-0.0095 0.05839,-0.01602 0.05014,-0.01306 0.119871,-0.0317 0.203088,-0.05271 0.166432,-0.04203 0.385417,-0.09682 0.605648,-0.156062 0.220232,-0.05924 0.442079,-0.123134 0.617016,-0.181902 0.08747,-0.02938 0.163593,-0.0557 0.224793,-0.08371 0.0306,-0.01401 0.05628,-0.0284 0.08165,-0.04496 0.02537,-0.01656 0.05118,-0.03056 0.07648,-0.07803 l 0.01964,-0.03514 -0.01034,-0.12144 c -0.11989,0.171235 -0.351345,0.265188 -0.591178,0.345715 -0.241532,0.0811 -0.473054,0.134472 -0.642855,0.111622 l -0.05064,-0.0078 -0.06615,-0.08837 c -0.119155,0.03093 -0.233516,0.06021 -0.328663,0.08423 -0.08318,0.02101 -0.153227,0.03919 -0.205155,0.05271 -0.01891,0.0049 -0.03249,0.0081 -0.04651,0.01189 -0.01662,-0.0109 -0.03695,-0.02364 -0.0646,-0.04496 -0.06712,-0.05176 -0.157214,-0.128508 -0.24598,-0.20929 -0.05616,-0.05111 -0.11223,-0.104238 -0.162781,-0.154512 0.191033,-0.06041 0.415853,-0.137467 0.65319,-0.221692 l -0.332279,-0.197921 -0.0057,-0.0057 c -0.04822,-0.03839 -0.06301,-0.07606 -0.08216,-0.119373 -0.01916,-0.04331 -0.03671,-0.09265 -0.05271,-0.148311 -0.03202,-0.111329 -0.06027,-0.248494 -0.08423,-0.388607 -0.04791,-0.280224 -0.08165,-0.558118 -0.06253,-0.720886 l 0.01188,-0.08785 0.08578,-0.01964 c 0.01336,-0.0029 0.168464,-0.05544 0.353467,-0.12299 0.185003,-0.06755 0.419022,-0.153971 0.65474,-0.236161 0.235721,-0.08219 0.472735,-0.159217 0.671794,-0.212907 0.09953,-0.02685 0.190234,-0.04872 0.267684,-0.06046 0.07744,-0.01174 0.138357,-0.02094 0.212907,0.0036 l 0.01757,0.0062 0.01344,0.0098 c 0.06149,0.0434 0.0862,0.09498 0.115238,0.156062 0.02904,0.06108 0.05651,0.134144 0.08217,0.214974 0.05133,0.161653 0.09905,0.357325 0.14056,0.548804 0.04934,0.227634 0.08751,0.438759 0.112137,0.580843 0.03261,-0.01276 0.09922,-0.03876 0.09922,-0.03876 -0.02248,-0.359322 -0.393774,-1.614372 -0.393774,-1.614372 -0.05459,-0.197877 -0.655907,-0.595903 -0.871265,-0.733289 z m 0.550354,1.107426 c -0.01045,4.72e-4 -0.02415,0.002 -0.04186,0.0047 -0.06214,0.0094 -0.144128,0.0294 -0.238228,0.05478 -0.188193,0.05076 -0.423304,0.127533 -0.656291,0.208773 -0.232987,0.08124 -0.464525,0.166851 -0.650089,0.234611 -0.135878,0.04961 -0.207407,0.07173 -0.283187,0.0956 -0.0022,0.111361 0.01192,0.341783 0.05271,0.580326 0.02287,0.133719 0.05212,0.261841 0.0801,0.359151 0.01399,0.04866 0.02681,0.0903 0.03876,0.117306 0.0068,0.01523 0.01296,0.02329 0.01447,0.02584 l 0.42323,0.253214 0.347782,0.468706 c 0.08266,0.0014 0.287147,-0.02548 0.489893,-0.09353 0.218611,-0.0734 0.425998,-0.197021 0.465088,-0.252181 l 0.347782,-0.612882 c -0.0059,-0.03684 -0.05462,-0.339976 -0.131258,-0.693498 -0.04059,-0.187221 -0.08725,-0.379227 -0.134359,-0.527616 -0.02356,-0.0742 -0.04756,-0.136855 -0.06873,-0.181385 -0.01484,-0.03122 -0.01876,-0.03402 -0.02326,-0.04082 -0.0053,10e-5 -0.01192,-0.0011 -0.02325,-0.001 -0.0028,1.3e-5 -0.0058,-1.57e-4 -0.0093,0 z m -0.540019,0.28112 c 0.102005,-0.0025 0.20009,0.01035 0.290422,0.03772 0.180664,0.05475 0.335594,0.175251 0.393258,0.353467 0.05766,0.178216 0.0022,0.366049 -0.112138,0.516247 -0.114353,0.1502 -0.287982,0.27204 -0.499711,0.340548 -0.211731,0.06851 -0.424984,0.07231 -0.605648,0.01757 -0.180664,-0.05474 -0.336111,-0.175251 -0.393775,-0.353467 -0.05766,-0.178216 -0.0022,-0.366047 0.112138,-0.516247 0.114353,-0.150199 0.289531,-0.272557 0.501262,-0.341065 0.105865,-0.03425 0.212188,-0.05227 0.314192,-0.05478 z m 0.03514,0.253215 c -0.0094,-8.5e-5 -0.01881,2.45e-4 -0.02842,5.17e-4 -0.07688,0.0022 -0.159096,0.01595 -0.242362,0.04289 -0.166531,0.05388 -0.300972,0.149455 -0.378788,0.251664 -0.07782,0.102209 -0.09867,0.201217 -0.07131,0.285771 0.02736,0.08456 0.10237,0.1524 0.225309,0.189652 0.12294,0.03725 0.287705,0.03631 0.454236,-0.01757 0.166532,-0.05388 0.298905,-0.148938 0.376721,-0.251147 0.07782,-0.10221 0.09867,-0.201217 0.07131,-0.285771 -0.02736,-0.08456 -0.102369,-0.1524 -0.225309,-0.189652 -0.05379,-0.0163 -0.115361,-0.02576 -0.181385,-0.02635 z m -0.364835,2.281514 c -0.0819,0.0041 -0.146761,0.07155 -0.146761,0.154513 v 0.16123 c 0.0295,-0.0037 0.05944,-0.0057 0.08992,-0.0057 h 1.033528 c 0.031,0 0.06145,0.0019 0.09147,0.0057 v -0.16123 c 0,-0.08564 -0.06888,-0.154513 -0.154513,-0.154513 h -0.905888 c -0.0027,0 -0.0051,-1.33e-4 -0.0078,0 z m -0.05684,0.595313 c -0.246254,0 -0.43925,0.192997 -0.43925,0.439249 v 1.758033 c 0,0.246252 0.192996,0.439249 0.43925,0.439249 h 1.033528 c 0.246254,0 0.441317,-0.192997 0.441317,-0.439249 v -1.758033 c 0,-0.246252 -0.195063,-0.439249 -0.441317,-0.439249 z m -0.08992,2.915584 v 0.101286 c 0,0.08564 0.06888,0.154512 0.154512,0.154512 h 0.905888 c 0.08564,0 0.154513,-0.06887 0.154513,-0.154512 v -0.101286 c -0.03003,0.0038 -0.06045,0.0062 -0.09147,0.0062 h -1.033528 c -0.03049,0 -0.0604,-0.0025 -0.08992,-0.0062 z" /><path
         style="color:#000000;fill:#000000;stroke-width:0.285001;stroke-linecap:round;stroke-linejoin:round;-inkscape-stroke:none"
         d="m 24.155935,17.871684 c 0.621088,0.07845 1.800407,0.500744 1.800407,0.500744 0.148591,0.09059 0.459844,0.372789 0.572575,0.476457 l -0.289388,0.418579 -2.441195,-0.740523 z m -0.323494,0.04237 -0.421163,0.77308 2.937805,0.888835 0.410828,-0.593763 c 0.467689,0.208779 1.596802,0.658358 1.596802,0.658358 0.223186,0.03338 0.262516,0.432532 0.262516,0.432532 -0.234605,0.405816 -2.611727,1.382861 -2.611727,1.382861 -0.044,0.007 -0.144261,-0.01202 -0.28267,-0.04909 -0.0036,0.0039 -0.0067,0.0079 -0.01033,0.01188 -0.07452,0.08057 -0.16685,0.169019 -0.259933,0.253731 -0.09308,0.08471 -0.185594,0.164201 -0.261483,0.222726 -0.03794,0.02926 -0.07294,0.05349 -0.103869,0.07235 -0.01547,0.0094 -0.02848,0.01743 -0.04858,0.02532 -0.01005,0.0039 -0.02092,0.0072 -0.03927,0.0098 -0.0092,0.0013 -0.02083,0.0034 -0.03514,0.0021 -0.0072,-6.76e-4 -0.02278,-0.004 -0.02325,-0.0041 -2.71e-4,-7.4e-5 -0.0098,-0.0026 -0.01757,-0.0057 -0.0022,-7.03e-4 -0.0073,-0.0017 -0.01395,-0.0036 -0.01337,-0.0038 -0.03333,-0.0095 -0.05839,-0.01602 -0.05014,-0.01306 -0.119871,-0.0317 -0.203088,-0.05271 -0.166432,-0.04203 -0.385417,-0.09682 -0.605648,-0.156062 -0.220232,-0.05924 -0.442079,-0.123134 -0.617016,-0.181902 -0.08747,-0.02938 -0.163593,-0.0557 -0.224793,-0.08371 -0.0306,-0.01401 -0.05628,-0.0284 -0.08165,-0.04496 -0.02537,-0.01656 -0.05118,-0.03056 -0.07648,-0.07803 l -0.01964,-0.03514 0.01034,-0.12144 c 0.11989,0.171235 0.351345,0.265188 0.591178,0.345715 0.241532,0.0811 0.473054,0.134472 0.642855,0.111622 l 0.05064,-0.0078 0.06615,-0.08837 c 0.119155,0.03093 0.233516,0.06021 0.328663,0.08423 0.08318,0.02101 0.153227,0.03919 0.205155,0.05271 0.01891,0.0049 0.03249,0.0081 0.04651,0.01189 0.01662,-0.0109 0.03695,-0.02364 0.0646,-0.04496 0.06712,-0.05176 0.157214,-0.128508 0.24598,-0.20929 0.05616,-0.05111 0.11223,-0.104238 0.162781,-0.154512 -0.191033,-0.06041 -0.415853,-0.137467 -0.65319,-0.221692 l 0.332279,-0.197921 0.0057,-0.0057 c 0.04822,-0.03839 0.06301,-0.07606 0.08216,-0.119373 0.01916,-0.04331 0.03671,-0.09265 0.05271,-0.148311 0.03202,-0.111329 0.06027,-0.248494 0.08423,-0.388607 0.04791,-0.280224 0.08165,-0.558118 0.06253,-0.720886 l -0.01188,-0.08785 -0.08578,-0.01964 c -0.01336,-0.0029 -0.168464,-0.05544 -0.353467,-0.12299 -0.185003,-0.06755 -0.419022,-0.153971 -0.65474,-0.236161 -0.235721,-0.08219 -0.472735,-0.159217 -0.671794,-0.212907 -0.09953,-0.02685 -0.190234,-0.04872 -0.267684,-0.06046 -0.07744,-0.01174 -0.138357,-0.02094 -0.212907,0.0036 l -0.01757,0.0062 -0.01344,0.0098 c -0.06149,0.0434 -0.0862,0.09498 -0.115238,0.156062 -0.02904,0.06108 -0.05651,0.134144 -0.08217,0.214974 -0.05133,0.161653 -0.09905,0.357325 -0.14056,0.548804 -0.04934,0.227634 -0.08751,0.438759 -0.112137,0.580843 -0.03261,-0.01276 -0.09922,-0.03876 -0.09922,-0.03876 0.02248,-0.359322 0.393774,-1.614372 0.393774,-1.614372 0.05459,-0.197877 0.655907,-0.595903 0.871265,-0.733289 z m -0.550354,1.107426 c 0.01045,4.72e-4 0.02415,0.002 0.04186,0.0047 0.06214,0.0094 0.144128,0.0294 0.238228,0.05478 0.188193,0.05076 0.423304,0.127533 0.656291,0.208773 0.232987,0.08124 0.464525,0.166851 0.650089,0.234611 0.135878,0.04961 0.207407,0.07173 0.283187,0.0956 0.0022,0.111361 -0.01192,0.341783 -0.05271,0.580326 -0.02287,0.133719 -0.05212,0.261841 -0.0801,0.359151 -0.01399,0.04866 -0.02681,0.0903 -0.03876,0.117306 -0.0068,0.01523 -0.01296,0.02329 -0.01447,0.02584 l -0.42323,0.253214 -0.347782,0.468706 c -0.08266,0.0014 -0.287147,-0.02548 -0.489893,-0.09353 -0.218611,-0.0734 -0.425998,-0.197021 -0.465088,-0.252181 l -0.347782,-0.612882 c 0.0059,-0.03684 0.05462,-0.339976 0.131258,-0.693498 0.04059,-0.187221 0.08725,-0.379227 0.134359,-0.527616 0.02356,-0.0742 0.04756,-0.136855 0.06873,-0.181385 0.01484,-0.03122 0.01876,-0.03402 0.02326,-0.04082 0.0053,10e-5 0.01192,-0.0011 0.02325,-0.001 0.0028,1.3e-5 0.0058,-1.57e-4 0.0093,0 z m 0.540019,0.28112 c -0.102005,-0.0025 -0.20009,0.01035 -0.290422,0.03772 -0.180664,0.05475 -0.335594,0.175251 -0.393258,0.353467 -0.05766,0.178216 -0.0022,0.366049 0.112138,0.516247 0.114353,0.1502 0.287982,0.27204 0.499711,0.340548 0.211731,0.06851 0.424984,0.07231 0.605648,0.01757 0.180664,-0.05474 0.336111,-0.175251 0.393775,-0.353467 0.05766,-0.178216 0.0022,-0.366047 -0.112138,-0.516247 -0.114353,-0.150199 -0.289531,-0.272557 -0.501262,-0.341065 -0.105865,-0.03425 -0.212188,-0.05227 -0.314192,-0.05478 z m -0.03514,0.253215 c 0.0094,-8.5e-5 0.01881,2.45e-4 0.02842,5.17e-4 0.07688,0.0022 0.159096,0.01595 0.242362,0.04289 0.166531,0.05388 0.300972,0.149455 0.378788,0.251664 0.07782,0.102209 0.09867,0.201217 0.07131,0.285771 -0.02736,0.08456 -0.10237,0.1524 -0.225309,0.189652 -0.12294,0.03725 -0.287705,0.03631 -0.454236,-0.01757 -0.166532,-0.05388 -0.298905,-0.148938 -0.376721,-0.251147 -0.07782,-0.10221 -0.09867,-0.201217 -0.07131,-0.285771 0.02736,-0.08456 0.102369,-0.1524 0.225309,-0.189652 0.05379,-0.0163 0.115361,-0.02576 0.181385,-0.02635 z m 0.364835,2.281514 c 0.0819,0.0041 0.146761,0.07155 0.146761,0.154513 v 0.16123 c -0.0295,-0.0037 -0.05944,-0.0057 -0.08992,-0.0057 h -1.033528 c -0.031,0 -0.06145,0.0019 -0.09147,0.0057 v -0.16123 c 0,-0.08564 0.06888,-0.154513 0.154513,-0.154513 h 0.905888 c 0.0027,0 0.0051,-1.33e-4 0.0078,0 z m 0.05684,0.595313 c 0.246254,0 0.43925,0.192997 0.43925,0.439249 v 1.758033 c 0,0.246252 -0.192996,0.439249 -0.43925,0.439249 h -1.033528 c -0.246254,0 -0.441317,-0.192997 -0.441317,-0.439249 v -1.758033 c 0,-0.246252 0.195063,-0.439249 0.441317,-0.439249 z m 0.08992,2.915584 v 0.101286 c 0,0.08564 -0.06888,0.154512 -0.154512,0.154512 h -0.905888 c -0.08564,0 -0.154513,-0.06887 -0.154513,-0.154512 v -0.101286 c 0.03003,0.0038 0.06045,0.0062 0.09147,0.0062 h 1.033528 c 0.03049,0 0.0604,-0.0025 0.08992,-0.0062 z"
         id="path7031" /><path
         style="fill:none;stroke:#000000;stroke-width:0.365;stroke-linecap:butt;stroke-linejoin:miter;stroke-dasharray:none;stroke-opacity:1"
         d="m 20.740344,18.240722 c -0.982776,0.38866 -2.864613,0.435487 -3.921869,0 -0.094,-3.046594 3.606662,-3.148516 3.921869,0 z"
         id="path496"
         sodipodi:nodetypes="ccc" /><path
         id="path6199"
         style="color:#000000;fill:#000000;-inkscape-stroke:none"
         d="m 18.623153,15.73444 c -1.051757,0.01406 -2.035721,0.91433 -1.986442,2.511475 l 0.0041,0.119372 0.10697,0.04496 c 1.132027,0.466284 3.006467,0.416114 4.058667,0 l 0.129191,-0.05064 -0.01395,-0.136943 c -0.164669,-1.644885 -1.24681,-2.502283 -2.298567,-2.48822 z m 0.0057,0.365352 c 0.197063,-0.0026 0.395376,0.0342 0.586011,0.110588 0.06974,0.08408 0.155112,0.228703 0.218591,0.356051 0.005,0.01 0.0098,0.01926 0.01447,0.02894 -0.241118,-0.03619 -0.496961,-0.05482 -0.754476,-0.05633 -0.20164,-0.0012 -0.403958,0.0081 -0.599964,0.02894 0.0093,-0.02381 0.0189,-0.04843 0.02946,-0.0739 0.05283,-0.127486 0.125692,-0.268923 0.187068,-0.356051 0.103997,-0.02424 0.2108,-0.0368 0.318844,-0.03824 z m -0.706417,0.190687 c -0.01527,0.03449 -0.02956,0.06891 -0.04341,0.102319 -0.03402,0.08211 -0.06197,0.157943 -0.08268,0.217041 -0.110182,0.01935 -0.217069,0.04289 -0.319361,0.0708 0.128607,-0.165496 0.279738,-0.295436 0.445451,-0.390157 z m 1.778703,0.220141 c 0.05981,0.05224 0.117744,0.109808 0.173116,0.172083 -0.03532,-0.0095 -0.07151,-0.01833 -0.108004,-0.02687 -0.01712,-0.03981 -0.0389,-0.09009 -0.06511,-0.145211 z m -1.068152,0.294039 c 0.01957,-1.12e-4 0.03884,-1.14e-4 0.05839,0 0.303351,0.0018 0.606098,0.03133 0.875915,0.08372 0.03304,0.157355 0.04994,0.412906 0.04806,0.683679 -0.0017,0.24098 -0.01639,0.496197 -0.03721,0.716235 -0.522153,0.06133 -1.101591,0.06546 -1.629875,0.0036 -0.03499,-0.475289 -0.01497,-1.144352 0.05116,-1.443323 0.203394,-0.02779 0.418523,-0.0427 0.633553,-0.04392 z m -0.912606,0.09198 c -0.06427,0.365918 -0.07212,0.914916 -0.04031,1.35754 -0.230812,-0.0386 -0.447616,-0.09137 -0.639238,-0.158647 0.0086,-0.422344 0.0905,-0.77709 0.224276,-1.065051 0.133625,-0.05417 0.288032,-0.09876 0.455269,-0.133842 z m 2.128036,0.05839 c 0.107577,0.03049 0.206568,0.06497 0.293522,0.103353 0.161481,0.283417 0.283607,0.630247 0.348299,1.04128 -0.189463,0.06217 -0.407128,0.112628 -0.641821,0.150896 0.01852,-0.212494 0.03097,-0.448877 0.03256,-0.676445 0.0016,-0.226202 -0.0067,-0.440304 -0.03256,-0.619084 z" /><path
         id="path1557-1"
         style="color:#000000;fill:#000000;stroke-width:0.247876;stroke-linecap:round;-inkscape-stroke:none"
         d="m 22.092192,24.713737 -2.868042,0.56689 0.251664,2.477885 c 0.688376,-0.321964 2.204653,-1.109023 2.843237,-1.907377 0,0 -0.032,-0.627785 -0.226859,-1.137398 z m -7.595919,0.121956 c -0.194884,0.509615 -0.403076,1.230416 -0.403076,1.230416 0.637943,0.797542 2.281797,1.417472 3.002917,1.699638 l 0.192236,-2.480469 z m 3.198254,0.416512 c -0.04596,0 -0.09033,0.02709 -0.131775,0.077 l -0.0124,-0.0021 -0.249597,3.213758 c 0.0024,0.875877 0.191766,1.578715 0.42633,1.578715 h 1.12758 c 0.236041,0 0.426331,-0.711692 0.426331,-1.595252 0,-0.01944 -3.31e-4,-0.03861 -5.17e-4,-0.05788 l -0.315743,-3.134692 -0.0078,0.0016 c -0.04236,-0.0524 -0.08717,-0.08113 -0.134358,-0.08113 z m 0.364836,0.835526 h 0.464054 c 0.04515,0 0.07252,0.03048 0.0863,0.05013 0.01379,0.01956 0.02245,0.03716 0.02894,0.05736 0.0137,0.04023 0.02262,0.08931 0.03101,0.147795 0.01685,0.11693 0.02687,0.272556 0.02687,0.445451 0,0.172894 -0.01019,0.328521 -0.02687,0.445451 -0.0081,0.05849 -0.01731,0.105502 -0.03101,0.145727 -0.0063,0.02021 -0.01515,0.03935 -0.02894,0.05891 -0.01379,0.01956 -0.04124,0.04858 -0.0863,0.04858 h -0.464054 c -0.04515,0 -0.07509,-0.02902 -0.08888,-0.04858 -0.01379,-0.01956 -0.02048,-0.0388 -0.02687,-0.05891 -0.01379,-0.04022 -0.02375,-0.08725 -0.03204,-0.145727 -0.01694,-0.11693 -0.02532,-0.272557 -0.02532,-0.445451 0,-0.172895 0.0081,-0.328521 0.02532,-0.445451 0.0081,-0.05849 0.01834,-0.10757 0.03204,-0.147795 0.0063,-0.02002 0.01318,-0.03771 0.02687,-0.05736 0.01379,-0.01956 0.04373,-0.05013 0.08888,-0.05013 z m 0.04289,0.1757 c -0.0063,0.02279 -0.0147,0.05616 -0.02119,0.103353 -0.01487,0.104207 -0.02532,0.255687 -0.02532,0.42168 0,0.165985 0.01036,0.315406 0.02532,0.419613 0.0063,0.04715 0.0147,0.08057 0.02119,0.103352 h 0.376205 c 0.0063,-0.02279 0.0147,-0.05631 0.02119,-0.103352 0.01487,-0.104207 0.02532,-0.253628 0.02532,-0.419613 0,-0.165993 -0.01036,-0.317473 -0.02532,-0.42168 -0.0063,-0.04715 -0.0147,-0.08052 -0.02119,-0.103353 z"
         sodipodi:nodetypes="ccccccccccscccssscccsssscccsccssssccscccsccsccccsccc" /><path
         id="rect3210-8"
         style="stroke-width:0.886018;stroke-linecap:round"
         d="m 26.813313,28.652953 0.07764,0.110615 c -0.01828,-0.05111 -0.04298,-0.09011 -0.07559,-0.110398 z m -0.02432,-9.73e-4 -1.389174,-0.05289 a 0.79707099,0.79707099 0 0 1 0.301265,0.711186 0.79707099,0.79707099 0 0 1 -0.27974,0.525309 l 0.690038,-0.121625 0.138983,-0.100093 -0.206748,-0.475617 0.660503,-0.430846 z m -0.04911,0.330492 -0.381984,0.249945 0.176161,0.406372 0.38288,-0.06745 c 0,0 0.01605,-0.137017 0.02099,-0.305415 l -4.09e-4,-10e-4 z" /><path
         id="path2973-4"
         style="stroke-width:0.703221;stroke-linecap:round"
         d="m 25.556234,29.276059 a 0.64043117,0.64043117 0 0 1 -0.704455,0.569248 0.64043117,0.64043117 0 0 1 -0.569259,-0.704456 0.64043117,0.64043117 0 0 1 0.704465,-0.569248 0.64043117,0.64043117 0 0 1 0.569249,0.704456 z" /><path
         id="rect4625-47"
         style="stroke-width:1.44827;stroke-linecap:round"
         d="m 27.85406,30.963641 a 0.63790641,0.63790641 0 0 1 -0.474105,0.279477 0.63790641,0.63790641 0 0 1 -0.230676,-0.02187 l -0.318201,0.134119 c 0,0 0.142396,0.950403 0.208126,1.012027 l 0.709607,-0.0059 c 0.08148,-0.178654 0.102072,-1.205784 0.105221,-1.39782 z" /><path
         style="color:#000000;fill:#000000;stroke-width:0.25;stroke-linecap:round;-inkscape-stroke:none"
         d="m 26.772201,28.811561 -0.571817,0.373191 0.204815,0.471143 -0.536726,0.386288 0.834463,0.975181 0.08914,-0.06505 a 0.63790641,0.63790641 0 0 1 -0.07468,-0.149209 0.63790641,0.63790641 0 0 1 0.396074,-0.810602 0.63790641,0.63790641 0 0 1 0.357735,-0.01622 l -0.428277,-0.778559 z"
         id="path8504" /><circle
         style="fill:#000000;stroke:none;stroke-width:1.19623;stroke-linecap:round;stroke-miterlimit:4;stroke-dasharray:none;stroke-opacity:1"
         id="path3543-0"
         cx="19.9583"
         cy="35.859127"
         r="0.51383698"
         transform="rotate(-12.680241)" /><path
         id="rect4843-3"
         style="stroke-width:1.35486;stroke-linecap:round"
         d="m 27.028193,32.427653 0.66587,-0.04865 c 0,0 -0.258106,0.946696 -0.477025,1.066145 -0.170442,0.123936 -0.408615,0.08784 -0.390098,0.0398 z"
         sodipodi:nodetypes="ccccc" /><path
         style="color:#000000;fill:#000000;stroke-width:0.35;stroke-linecap:round;-inkscape-stroke:none"
         d="m 24.600726,28.521617 c -0.263541,-0.04447 -0.610402,-0.09209 -0.754594,-0.06337 l -2.26e-4,4.79e-4 c -0.347374,0.28639 -0.90003,1.35371 -1.21183,2.113822 a 0.58138088,0.58138088 0 0 1 0.271923,0.0534 0.58138088,0.58138088 0 0 1 0.277797,0.773806 0.58138088,0.58138088 0 0 1 -0.02616,0.0414 l 0.351001,0.04442 0.817748,-1.667196 a 0.79707099,0.79707099 0 0 1 -0.152108,-0.897365 0.79707099,0.79707099 0 0 1 0.426117,-0.399518 z"
         id="path8901" /><path
         style="color:#000000;fill:#000000;stroke-width:0.35;stroke-linecap:round;-inkscape-stroke:none"
         d="m 23.507471,31.623263 -0.449352,-0.0491 a 0.58138088,0.58138088 0 0 1 -0.562093,0.135406 l -0.05603,0.862603 0.876433,-0.439665 z"
         id="path8913" /><path
         style="color:#000000;fill:#000000;stroke-width:0.35;stroke-linecap:round;-inkscape-stroke:none"
         d="m 23.058207,31.358588 a 0.45006034,0.45006034 0 0 1 -0.599046,0.215065 0.45006034,0.45006034 0 0 1 -0.215064,-0.599046 0.45006034,0.45006034 0 0 1 0.599046,-0.215064 0.45006034,0.45006034 0 0 1 0.215064,0.599045 z"
         id="path8895" /><path
         style="color:#000000;fill:#000000;stroke-width:0.35;stroke-linecap:round;-inkscape-stroke:none"
         d="m 23.24612,32.294559 0.972519,0.752479 c 0.164587,0.04236 0.221448,0.514036 0.0065,0.522343 l -1.667507,-0.940954 z"
         id="path8907" /><path
         id="path8560"
         style="color:#000000;fill:#000000;stroke-width:0.224394;stroke-linecap:round;stroke-linejoin:round;-inkscape-stroke:none"
         d="m 24.275004,26.693978 -0.837675,0.01344 c -0.105178,0.0017 -0.169534,0.05646 -0.175183,0.136426 -0.118779,0.04152 -0.203605,0.154539 -0.203605,0.287837 0,0.168778 0.226862,0.255809 0.367778,0.3487 l 0.164053,0.108142 0.112396,0.228058 -0.07475,0.04115 c -0.08,0.04404 -0.0571,0.06921 -0.0571,0.160531 0,0.09132 0.07302,0.163147 0.164331,0.164848 l 0.231767,0.0043 c 0.05271,0.02408 0.109416,0.03754 0.163814,0.03669 l 0.837675,-0.01292 c 0.146969,-0.0023 0.214082,-0.10868 0.152962,-0.242363 l -0.04444,-0.09715 c 0.08121,-0.05461 0.134359,-0.14706 0.134359,-0.252698 v -0.0078 c 0,-0.168778 -0.219394,-0.49283 -0.388171,-0.49283 h -0.03979 c -0.016,0 -0.03171,0.0013 -0.04703,0.0036 l -0.09087,-0.19395 c -0.06112,-0.133683 -0.223547,-0.236394 -0.37052,-0.234094 z"
         sodipodi:nodetypes="cccssccssscccccsssscccc" /><rect
         style="fill:#000000;stroke:none;stroke-width:0.228603;stroke-linecap:round;stroke-linejoin:round;stroke-dasharray:none;stop-color:#000000"
         id="rect8528"
         width="1.9709996"
         height="0.8196919"
         x="22.778015"
         y="25.740301"
         ry="0.2323626" /><path
         id="rect5457-3"
         style="stroke-width:0.400287;stroke-linecap:round;stop-color:#000000"
         d="m 14.490552,27.111866 1.587512,0.784355 -0.02513,0.355903 h 0.49041 c 0.228609,0 0.412894,0.184285 0.412894,0.412895 v 0.40411 c 0,0.228607 -0.184285,0.412378 -0.412894,0.412378 h -0.49041 v 0.08888 c 0,0.47318 -0.334016,1.07642 -0.807186,1.07642 h -0.420646 c -0.473167,0 -0.986247,-1.339961 -0.835608,-1.788521 l 0.03101,-0.0925 c -0.166357,-0.09637 -0.247125,-0.298203 -0.183451,-0.487825 l 0.12867,-0.382918 c 0.06368,-0.189623 0.250009,-0.302657 0.4408,-0.279053 z m 1.292636,3.7277 c 0.189828,0.005 0.362745,0.0826 0.497644,0.208256 -0.01,-7.6e-4 -0.01924,-0.001 -0.02894,-0.001 -0.23995,0 -0.444618,0.234388 -0.533818,0.570508 -0.0392,-0.012 -0.07929,-0.01912 -0.120923,-0.01912 H 14.74449 c -0.0621,0 -0.121497,0.01486 -0.177767,0.04186 -0.01665,-0.06762 -0.03824,-0.131374 -0.06356,-0.190169 0.02563,-0.127077 0.01262,-0.262717 -0.04651,-0.38809 -0.03311,-0.07019 -0.07867,-0.130812 -0.131775,-0.181901 0.07597,-0.02606 0.156894,-0.04031 0.240813,-0.04031 h 1.196827 c 0.007,0 0.01387,-1.9e-4 0.02067,0 z m 0.539502,0.614433 c 0.322348,0 0.581877,0.422482 0.581877,0.947229 v 3.165698 c -0.0869,-0.0249 -0.178478,-0.03876 -0.273368,-0.03876 h -0.04548 v -2.18643 c 0,-0.553667 -0.409114,-1.00614 -0.910022,-1.00614 h -0.931209 c -0.177315,0 -0.342944,0.05722 -0.483175,0.155029 l -0.04134,-0.630969 c 0.09304,-0.05755 0.166,-0.137334 0.216525,-0.228927 0.08907,0.104045 0.159062,0.24831 0.200504,0.416512 0.0563,-0.027 0.116224,-0.04186 0.178284,-0.04186 h 0.852144 c 0.0415,0 0.08179,0.007 0.120923,0.01912 0.0892,-0.33612 0.294375,-0.570508 0.534334,-0.570508 z m -2.225704,0 c 0.01307,0 0.02591,6.98e-4 0.03876,0.0021 -0.02646,0.05108 -0.06934,0.09443 -0.126608,0.12144 -0.06979,0.03292 -0.145142,0.03477 -0.211356,0.01085 0.08726,-0.0851 0.189606,-0.134359 0.299206,-0.134359 z m -0.517281,0.513147 c 0.09514,0.01861 0.198102,0.01691 0.298173,0.01964 l 0.02946,0.454753 -0.383956,-0.193787 c 0.0099,-0.09974 0.02901,-0.194016 0.05633,-0.280603 z m 2.110983,0.741557 c 0.312851,0.0085 0.557588,0.284902 0.557588,0.633036 v 2.18643 h -2.076359 v -2.18643 c 0,-0.123319 0.03066,-0.237786 0.08423,-0.334346 l 0.03979,0.02015 -0.0052,-0.07493 C 14.394799,32.803665 14.55815,32.7087 14.744456,32.7087 h 0.931209 c 0.005,0 0.01002,-1.36e-4 0.01499,0 z m -2.175061,0.04909 0.09302,0.04548 -0.09302,0.05219 z m 0.356567,0.29714 c -0.0246,0.09095 -0.03772,0.187273 -0.03772,0.286804 v 2.18798 c -0.243563,0.0271 -0.340786,0.12278 -0.318843,0.07286 v -2.34611 z m 2.777608,2.596224 c 0.388291,0.0096 0.692464,0.321703 0.692464,0.712618 v 3.275769 c 0,0.39711 0.09118,1.8526 -0.305924,1.8526 h -0.549837 c 0.497917,-0.0287 0.488342,-1.580087 0.488342,-2.085144 v -2.176095 c 0,-0.523707 -0.425577,-0.948779 -0.949296,-0.948779 h -1.562179 c -0.523709,0 -0.947229,0.425072 -0.947229,0.948779 V 39.407 c 0,0.505057 -0.166533,2.060578 0.331246,2.089278 h -0.514697 c -0.39711,0 -0.152446,-1.459624 -0.152446,-1.856734 v -3.275769 c 0,-0.39712 0.315509,-0.712618 0.712618,-0.712618 h 2.738335 c 0.0062,0 0.01244,-1.53e-4 0.0186,0 z m -0.604614,0.820105 c 0.413356,0.01031 0.740523,0.343619 0.740523,0.759643 V 39.407 c 0,0.42264 -0.395915,1.086755 -0.818555,1.086755 h -1.562178 c -0.42264,0 -0.701249,-0.664115 -0.701249,-1.086755 v -2.176095 c 0,-0.422627 0.337004,-0.759643 0.759643,-0.759643 h 1.562179 c 0.0066,0 0.01308,-1.64e-4 0.01964,0 z m -0.245463,0.502812 c -0.07201,6.69e-4 -0.130305,0.05873 -0.131258,0.130741 v 2.291333 c -1.72e-4,0.07281 0.05845,0.132126 0.131258,0.132808 0.07342,1.71e-4 0.132979,-0.05939 0.132808,-0.132808 v -2.291333 c -9.64e-4,-0.07261 -0.06019,-0.130916 -0.132808,-0.130741 z m -1.179773,0 c -0.07262,-1.75e-4 -0.131845,0.05813 -0.132809,0.130741 v 2.291333 c -1.71e-4,0.07342 0.05939,0.132979 0.132809,0.132808 0.07342,1.71e-4 0.132979,-0.05939 0.132808,-0.132808 v -2.291333 c -9.64e-4,-0.07261 -0.06019,-0.130917 -0.132808,-0.130741 z m -0.03824,3.629752 c 0.161424,-2.27e-4 0.371289,0.01028 0.64854,0.01033 1.223451,0.0012 1.099829,-0.200826 1.18339,1.321367 0.440589,0.334777 0.724503,0.86443 0.724503,1.46296 0,1.017177 0.322962,1.836063 -1.345654,1.836063 h -1.343587 c -1.668614,0 -1.345654,-0.818886 -1.345654,-1.836063 0,-0.59853 0.283886,-1.128183 0.724503,-1.46296 0.217515,-1.197532 0.177447,-1.330889 0.753959,-1.331702 z"
         sodipodi:nodetypes="cccsssscsssccccccccscssccscssccsscscsssccccsscssccscccccccccssccscccsssscccccsccccsssscsssssscssssssssssssssssssccccccccccccccsccsssscss" /><path
         id="rect3210-8-2"
         style="stroke-width:0.886018;stroke-linecap:round"
         d="m 9.7288149,28.815322 -0.07764,0.110615 c 0.01828,-0.05111 0.04298,-0.09011 0.07559,-0.110398 z m 0.02432,-9.73e-4 1.3891741,-0.05289 a 0.79707099,0.79707099 0 0 0 -0.301265,0.711186 0.79707099,0.79707099 0 0 0 0.27974,0.525309 l -0.690038,-0.121625 -0.138983,-0.100093 0.206748,-0.475617 -0.6605031,-0.430846 z m 0.04911,0.330492 0.3819841,0.249945 -0.176161,0.406372 -0.3828801,-0.06745 c 0,0 -0.01605,-0.137017 -0.02099,-0.305415 l 4.09e-4,-0.001 z" /><path
         id="path2973-4-0"
         style="stroke-width:0.703221;stroke-linecap:round"
         d="m 10.985894,29.438428 a 0.64043117,0.64043117 0 0 0 0.704455,0.569248 0.64043117,0.64043117 0 0 0 0.569259,-0.704456 0.64043117,0.64043117 0 0 0 -0.704465,-0.569248 0.64043117,0.64043117 0 0 0 -0.569249,0.704456 z" /><path
         id="rect4625-47-6"
         style="stroke-width:1.44827;stroke-linecap:round"
         d="m 8.6880679,31.12601 a 0.63790641,0.63790641 0 0 0 0.474105,0.279477 0.63790641,0.63790641 0 0 0 0.230676,-0.02187 l 0.318201,0.134119 c 0,0 -0.142396,0.950403 -0.208126,1.012027 l -0.709607,-0.0059 c -0.08148,-0.178654 -0.102072,-1.205784 -0.105221,-1.39782 z" /><path
         style="color:#000000;fill:#000000;stroke-width:0.25;stroke-linecap:round;-inkscape-stroke:none"
         d="m 9.7699269,28.97393 0.5718171,0.373191 -0.204815,0.471143 0.536726,0.386288 -0.8344631,0.975181 -0.08914,-0.06505 a 0.63790641,0.63790641 0 0 0 0.07468,-0.149209 0.63790641,0.63790641 0 0 0 -0.396074,-0.810602 0.63790641,0.63790641 0 0 0 -0.357735,-0.01622 l 0.428277,-0.778559 z"
         id="path8504-1" /><circle
         style="fill:#000000;stroke:none;stroke-width:1.19623;stroke-linecap:round;stroke-miterlimit:4;stroke-dasharray:none;stroke-opacity:1"
         id="path3543-0-5"
         cx="-15.728218"
         cy="27.996181"
         r="0.51383698"
         transform="matrix(-0.9756103,-0.21950977,-0.21950977,0.9756103,0,0)" /><path
         id="rect4843-3-5"
         style="stroke-width:1.35486;stroke-linecap:round"
         d="m 9.5139349,32.590022 -0.66587,-0.04865 c 0,0 0.258106,0.946696 0.477025,1.066145 0.170442,0.123936 0.408615,0.08784 0.390098,0.0398 z"
         sodipodi:nodetypes="ccccc" /><path
         style="color:#000000;fill:#000000;stroke-width:0.35;stroke-linecap:round;-inkscape-stroke:none"
         d="m 11.941402,28.683986 c 0.263541,-0.04447 0.610402,-0.09209 0.754594,-0.06337 l 2.26e-4,4.79e-4 c 0.347374,0.28639 0.90003,1.35371 1.21183,2.113822 a 0.58138088,0.58138088 0 0 0 -0.271923,0.0534 0.58138088,0.58138088 0 0 0 -0.277797,0.773806 0.58138088,0.58138088 0 0 0 0.02616,0.0414 l -0.351001,0.04442 -0.817748,-1.667196 a 0.79707099,0.79707099 0 0 0 0.152108,-0.897365 0.79707099,0.79707099 0 0 0 -0.426117,-0.399518 z"
         id="path8901-4" /><path
         style="color:#000000;fill:#000000;stroke-width:0.35;stroke-linecap:round;-inkscape-stroke:none"
         d="m 13.034657,31.785632 0.449352,-0.0491 a 0.58138088,0.58138088 0 0 0 0.562093,0.135406 l 0.05603,0.862603 -0.876433,-0.439665 z"
         id="path8913-7" /><path
         style="color:#000000;fill:#000000;stroke-width:0.35;stroke-linecap:round;-inkscape-stroke:none"
         d="m 13.483921,31.520957 a 0.45006034,0.45006034 0 0 0 0.599046,0.215065 0.45006034,0.45006034 0 0 0 0.215064,-0.599046 0.45006034,0.45006034 0 0 0 -0.599046,-0.215064 0.45006034,0.45006034 0 0 0 -0.215064,0.599045 z"
         id="path8895-6" /><path
         style="color:#000000;fill:#000000;stroke-width:0.35;stroke-linecap:round;-inkscape-stroke:none"
         d="m 13.296008,32.456928 -0.972519,0.752479 c -0.164587,0.04236 -0.221448,0.514036 -0.0065,0.522343 l 1.667507,-0.940954 z"
         id="path8907-5" /><path
         id="path8560-6"
         style="color:#000000;fill:#000000;stroke-width:0.224394;stroke-linecap:round;stroke-linejoin:round;-inkscape-stroke:none"
         d="m 12.267124,26.856347 0.837675,0.01344 c 0.105178,0.0017 0.169534,0.05646 0.175183,0.136426 0.118779,0.04152 0.203605,0.154539 0.203605,0.287837 0,0.168778 -0.226862,0.255809 -0.367778,0.3487 l -0.164053,0.108142 -0.112396,0.228058 0.07475,0.04115 c 0.08,0.04404 0.0571,0.06921 0.0571,0.160531 0,0.09132 -0.07302,0.163147 -0.164331,0.164848 l -0.231767,0.0043 c -0.05271,0.02408 -0.109416,0.03754 -0.163814,0.03669 l -0.837675,-0.01292 c -0.146969,-0.0023 -0.214082,-0.10868 -0.152962,-0.242363 l 0.04444,-0.09715 c -0.08121,-0.05461 -0.134359,-0.14706 -0.134359,-0.252698 v -0.0078 c 0,-0.168778 0.219394,-0.49283 0.388171,-0.49283 h 0.03979 c 0.016,0 0.03171,0.0013 0.04703,0.0036 l 0.09087,-0.19395 c 0.06112,-0.133683 0.223547,-0.236394 0.37052,-0.234094 z"
         sodipodi:nodetypes="cccssccssscccccsssscccc" /><rect
         style="fill:#000000;stroke:none;stroke-width:0.228603;stroke-linecap:round;stroke-linejoin:round;stroke-dasharray:none;stop-color:#000000"
         id="rect8528-9"
         width="1.9709996"
         height="0.8196919"
         x="-13.764112"
         y="25.902672"
         ry="0.2323626"
         transform="scale(-1,1)" /></g></g></svg>
