<?xml version="1.0" encoding="UTF-8" standalone="no"?>
<!-- Created with Inkscape (http://www.inkscape.org/) -->

<svg
   sodipodi:docname="Poseidon.svg"
   inkscape:version="1.2.2 (b0a8486541, 2022-12-01)"
   id="svg8"
   version="1.1"
   viewBox="0 0 34.98301 52.516205"
   height="52.516205mm"
   width="34.983009mm"
   xml:space="preserve"
   xmlns:inkscape="http://www.inkscape.org/namespaces/inkscape"
   xmlns:sodipodi="http://sodipodi.sourceforge.net/DTD/sodipodi-0.dtd"
   xmlns="http://www.w3.org/2000/svg"
   xmlns:svg="http://www.w3.org/2000/svg"
   xmlns:rdf="http://www.w3.org/1999/02/22-rdf-syntax-ns#"
   xmlns:cc="http://creativecommons.org/ns#"
   xmlns:dc="http://purl.org/dc/elements/1.1/"><defs
     id="defs2" /><sodipodi:namedview
     id="base"
     pagecolor="#ffffff"
     bordercolor="#666666"
     borderopacity="1.0"
     inkscape:pageopacity="0.0"
     inkscape:pageshadow="2"
     inkscape:zoom="2.8284271"
     inkscape:cx="54.447222"
     inkscape:cy="98.287843"
     inkscape:document-units="mm"
     inkscape:current-layer="layer1"
     showgrid="false"
     inkscape:window-width="1549"
     inkscape:window-height="773"
     inkscape:window-x="2067"
     inkscape:window-y="1178"
     inkscape:window-maximized="0"
     inkscape:snap-global="false"
     fit-margin-top="0"
     fit-margin-left="0"
     fit-margin-right="0"
     fit-margin-bottom="0"
     showguides="false"
     inkscape:guide-bbox="true"
     inkscape:showpageshadow="2"
     inkscape:pagecheckerboard="0"
     inkscape:deskcolor="#d1d1d1" /><metadata
     id="metadata5"><rdf:RDF><cc:Work
         rdf:about=""><dc:format>image/svg+xml</dc:format><dc:type
           rdf:resource="http://purl.org/dc/dcmitype/StillImage" /><dc:title /></cc:Work></rdf:RDF></metadata><g
     inkscape:label="Capa 1"
     inkscape:groupmode="layer"
     id="layer1"
     transform="translate(-135.48963,-99.590537)"><path
       id="rect4742"
       style="fill:#000000;stroke:none;stroke-width:0.264999;stroke-linecap:round;stroke-dasharray:none;stop-color:#000000"
       d="M 140.38856 114.47542 C 140.30169 114.47713 140.21817 114.52214 140.17048 114.60254 L 139.64131 115.49551 C 139.63931 115.49851 139.63605 115.50228 139.63305 115.50688 C 139.59285 115.58338 139.5949 115.67144 139.6315 115.74407 L 139.55088 115.87947 C 139.43406 115.86577 139.31519 115.92024 139.25116 116.02829 L 139.22584 116.07118 L 138.73904 116.00194 L 136.8358 119.225 L 137.22699 119.86165 L 137.19392 119.91746 C 137.10712 120.06389 137.15553 120.25182 137.30192 120.33862 L 137.71998 120.58667 C 137.86644 120.67347 138.05437 120.62517 138.14115 120.47867 L 138.21918 120.34741 C 138.22828 120.16157 138.2497 119.99614 138.28791 119.87147 C 138.26376 119.83788 138.23238 119.80871 138.19437 119.7862 L 137.7758 119.53816 C 137.6706 119.47576 137.54484 119.48352 137.44972 119.54642 L 137.27092 119.19709 L 138.96435 116.3399 L 139.07752 116.3492 C 139.04842 116.4416 139.0651 116.54168 139.1199 116.61895 L 139.02068 116.78587 C 138.95088 116.78592 138.88323 116.82145 138.84498 116.88612 L 138.83878 116.89491 C 138.80548 116.95731 138.80875 117.02937 138.84085 117.08766 L 138.79899 117.15846 C 138.72919 117.15851 138.66154 117.19352 138.62329 117.25819 L 138.6176 117.26749 C 138.5843 117.32989 138.58695 117.40195 138.61915 117.46025 L 138.5773 117.53104 C 138.5076 117.53109 138.43984 117.56576 138.4016 117.63026 L 138.39591 117.63956 C 138.36261 117.70206 138.36588 117.77402 138.39798 117.83232 L 138.3556 117.90311 C 138.28591 117.90315 138.21867 117.93835 138.18042 118.00285 L 138.17422 118.01163 C 138.14092 118.07403 138.14419 118.14608 138.17629 118.20439 L 138.13443 118.27518 C 138.06463 118.27522 137.99645 118.31077 137.95821 118.37544 C 137.95621 118.37844 137.95453 118.38119 137.95253 118.38319 C 137.91923 118.44559 137.9225 118.51816 137.9546 118.57646 L 137.91222 118.64725 C 137.84242 118.6473 137.77478 118.68249 137.73652 118.74699 C 137.73452 118.74999 137.73284 118.75274 137.73084 118.75474 C 137.69754 118.81714 137.70029 118.8897 137.73239 118.94801 L 137.71998 118.96868 C 137.60443 119.16365 137.66871 119.41331 137.86365 119.52885 L 138.11066 119.67562 C 138.18571 119.7201 138.26885 119.73783 138.3494 119.73194 C 138.53735 119.37111 140.16326 116.27907 141.33372 115.03714 C 141.31533 115.00109 141.28846 114.96895 141.25362 114.94412 C 141.22802 114.84191 141.16313 114.74959 141.065 114.69142 L 140.81799 114.54518 C 140.71989 114.48698 140.60768 114.47404 140.50586 114.50074 C 140.46828 114.48264 140.42804 114.47464 140.38856 114.47542 z M 137.21407 120.3779 C 137.11408 120.37408 137.01561 120.42399 136.96086 120.51639 L 136.52626 121.24968 C 136.44666 121.38404 136.49014 121.69402 136.62444 121.77368 L 136.77999 121.86566 C 136.91435 121.94526 137.23521 121.85196 137.31484 121.71735 L 137.74944 120.98355 C 137.82904 120.84918 137.78514 120.67664 137.65074 120.59701 L 137.3474 120.41717 C 137.3054 120.3923 137.25953 120.37963 137.21407 120.3779 z " /><path
       id="path6803"
       style="fill:#000000;stroke:none;stroke-width:0.264583px;stroke-linecap:butt;stroke-linejoin:miter;stroke-opacity:1"
       d="M 160.99143 121.39489 L 160.10156 121.91941 C 160.10156 121.91941 160.14666 123.36092 159.98116 123.52603 L 158.79105 124.0986 C 158.33372 124.30804 158.07024 125.69762 158.02624 125.76982 C 158.02624 125.76982 158.50862 126.72826 158.95952 127.0085 C 158.96724 126.85887 158.97797 126.65204 158.98949 126.40079 C 158.99849 126.19893 159.00774 125.99154 159.01274 125.83028 C 159.01574 125.74968 159.01636 125.68106 159.01636 125.62926 C 159.01668 125.5807 159.01374 125.53492 159.01584 125.54451 L 159.01429 125.53366 L 159.01429 125.5197 C 159.02579 125.17407 159.3125 124.8773 159.67265 124.86135 L 159.67265 124.86186 C 159.68955 124.86112 159.70639 124.86086 159.72329 124.86135 L 159.72329 124.86083 C 160.06832 124.87253 160.43442 125.15971 160.66484 125.80857 C 160.69924 125.88557 160.71963 125.97545 160.73873 126.08401 C 160.75672 126.18639 160.77115 126.30006 160.78369 126.41009 C 161.34558 126.1074 161.86148 125.73258 161.99137 125.35486 C 161.99137 125.35486 161.72299 121.60274 160.99143 121.39489 z M 158.74557 122.00106 L 158.64015 123.84694 L 159.81683 123.28056 C 159.91213 123.18546 159.93746 122.66716 159.94188 122.24445 L 158.74557 122.00106 z M 163.77473 124.94971 L 162.80528 125.10216 L 162.68125 125.41997 L 163.98091 125.20448 L 163.77473 124.94971 z M 165.22218 124.95591 L 165.22218 124.95643 C 164.8976 124.95713 164.3504 124.99881 164.3504 124.99881 L 163.67809 125.79462 C 163.67809 125.79462 163.47381 130.30084 163.57577 130.75401 C 163.24331 130.83171 162.27404 130.7075 162.27404 130.7075 L 161.50458 135.0168 L 162.54896 136.01932 L 163.9835 136.00485 L 164.43722 136.46529 C 164.43722 136.46529 165.48771 136.54918 165.64076 136.32886 C 165.64076 136.32886 166.00208 135.93207 165.87796 135.58007 C 165.85176 135.50557 165.42352 134.40417 165.22838 134.18791 C 165.22838 134.18791 165.65401 133.25043 165.93842 132.51876 L 163.94319 131.6015 L 164.66614 130.18557 L 164.74211 130.17937 C 164.74211 130.17937 165.11005 130.16049 165.50175 130.14009 C 165.63703 130.13309 165.76185 130.12717 165.88726 130.12097 C 165.53329 128.70831 165.00101 126.86691 165.00101 126.86691 L 165.83041 126.73203 C 165.75671 126.45695 165.88201 125.14367 165.44439 124.97193 C 165.41419 124.96013 165.33038 124.95571 165.22218 124.95591 z M 158.02882 125.05307 L 157.6304 125.71659 C 157.6304 125.71659 157.64282 125.81851 157.96888 125.93415 C 157.93308 125.81038 157.89652 125.74624 157.93012 125.61531 C 157.96372 125.48438 158.08722 125.19569 158.08722 125.19569 L 158.02882 125.05307 z M 159.68919 125.12645 C 159.68746 125.12654 159.68572 125.12689 159.68402 125.12696 C 159.46639 125.13696 159.28448 125.32923 159.27784 125.52952 C 159.28084 125.56142 159.28198 125.58751 159.28198 125.63132 C 159.28161 125.68692 159.28084 125.75825 159.27784 125.8401 C 159.27284 126.0038 159.2643 126.2096 159.2551 126.41216 C 159.24231 126.69089 159.22998 126.9116 159.22203 127.05398 C 159.46448 126.99433 159.9956 126.80346 160.531 126.5398 C 160.5287 126.51779 160.52679 126.49733 160.52428 126.47468 C 160.51128 126.35748 160.49565 126.23531 160.47725 126.13104 C 160.45895 126.02677 160.43448 125.93572 160.42248 125.91038 L 160.41834 125.90418 L 160.41627 125.89849 C 160.20288 125.29454 159.92002 125.12752 159.70469 125.12645 C 159.70121 125.12643 159.6978 125.12635 159.69435 125.12645 C 159.69263 125.12649 159.69091 125.12635 159.68919 125.12645 z M 163.53185 125.41945 L 162.29626 125.62047 C 162.29626 125.62047 162.10597 126.48226 159.37396 127.24621 C 159.37396 127.24621 160.22225 128.76597 160.74494 128.88591 C 160.74494 128.88591 162.7012 129.13534 163.28122 128.98254 L 163.32101 125.74346 L 163.53185 125.41945 z M 159.74345 125.47164 A 0.27247697 0.27247697 0 0 1 160.0163 125.7445 A 0.27247697 0.27247697 0 0 1 159.74345 126.01683 A 0.27247697 0.27247697 0 0 1 159.47111 125.7445 A 0.27247697 0.27247697 0 0 1 159.74345 125.47164 z M 160.17339 126.15636 A 0.176135 0.176135 0 0 1 160.34909 126.33257 A 0.176135 0.176135 0 0 1 160.17339 126.50879 A 0.176135 0.176135 0 0 1 159.99718 126.33257 A 0.176135 0.176135 0 0 1 160.17339 126.15636 z M 159.63234 126.284 A 0.2158682 0.2158682 0 0 1 159.84835 126.50001 A 0.2158682 0.2158682 0 0 1 159.63234 126.71601 A 0.2158682 0.2158682 0 0 1 159.41685 126.50001 A 0.2158682 0.2158682 0 0 1 159.63234 126.284 z M 163.31067 129.17168 L 162.54948 129.20165 L 162.50142 130.53387 C 162.50142 130.53387 163.01796 130.59623 163.32566 130.57263 C 163.32566 130.57263 163.26197 129.24778 163.31067 129.17168 z M 165.95237 130.38297 C 165.8129 130.38997 165.66677 130.39678 165.5157 130.40468 C 165.16376 130.42298 164.89531 130.43837 164.83203 130.44137 L 164.30286 131.47696 L 166.02937 132.2702 C 166.12757 131.98353 166.19275 131.71638 166.18801 131.52037 C 166.16201 131.29045 166.07201 130.87434 165.95237 130.38297 z M 161.4126 130.54575 L 161.00332 131.27026 C 161.00332 131.27026 160.35903 131.26583 160.27313 131.31883 C 159.91938 131.53738 159.52534 134.42404 159.55534 134.76203 L 161.33095 135.10672 L 162.12573 130.58864 L 161.4126 130.54575 z M 163.18871 132.97145 C 163.20641 132.97124 163.22399 132.97478 163.24039 132.98178 L 164.66201 133.55229 C 164.72991 133.57919 164.76322 133.65593 164.73642 133.72385 C 164.70962 133.79205 164.63241 133.82543 164.56434 133.79827 L 163.14066 133.22776 C 163.07276 133.20096 163.03942 133.12412 163.06624 133.05619 C 163.08594 133.00569 163.13444 132.97226 163.18871 132.97196 L 163.18871 132.97145 z M 162.91586 133.74866 C 162.93336 133.74851 162.95072 133.75199 162.96702 133.75899 L 164.39071 134.32743 C 164.45871 134.35453 164.4918 134.4316 164.46461 134.49952 C 164.43761 134.56832 164.35933 134.60165 164.29097 134.57341 L 162.86935 134.00549 C 162.80005 133.97869 162.7664 133.89999 162.79494 133.83134 C 162.80784 133.79894 162.83312 133.77289 162.86522 133.75899 C 162.88132 133.75199 162.89856 133.74866 162.91586 133.74866 z M 159.79926 134.92378 C 159.79926 134.92378 159.42294 135.27035 159.01584 135.64363 C 159.49583 135.84219 159.82303 136.06583 159.82303 136.06583 L 159.87574 136.10304 L 160.00286 136.51903 L 160.3522 136.70248 L 160.37545 136.73401 C 160.49735 136.88952 160.47801 137.06745 160.45193 137.19289 C 160.42583 137.31835 160.37958 137.41562 160.37958 137.41562 L 160.34703 137.48693 L 160.41266 137.52156 L 160.43591 137.55256 C 160.48871 137.61996 160.51461 137.69163 160.52531 137.76133 L 161.94486 137.76133 C 161.99156 137.76133 162.0291 137.72328 162.0291 137.67658 L 162.0291 137.36653 C 162.13985 137.0387 162.29575 136.29217 162.29575 136.29217 L 161.1754 135.27001 C 161.1754 135.27001 159.90111 134.92378 159.79926 134.92378 z M 162.87659 136.2746 L 162.49677 136.90506 L 162.49677 137.18101 L 162.40013 137.18101 C 162.35343 137.18101 162.31538 137.21802 162.31538 137.26472 L 162.31538 137.67607 C 162.31538 137.72277 162.35343 137.7603 162.40013 137.7603 L 164.84701 137.7603 C 164.89371 137.7603 164.93176 137.72277 164.93176 137.67607 L 164.93176 137.26472 C 164.93176 137.21802 164.89371 137.18101 164.84701 137.18101 L 164.75038 137.18101 L 164.75038 137.12571 L 163.95094 136.2746 L 162.87659 136.2746 z M 166.13324 136.34953 L 165.78701 136.62445 L 164.92763 136.73711 L 165.46506 137.3257 L 165.2506 137.3257 C 165.2039 137.3257 165.16637 137.36323 165.16637 137.40993 L 165.16637 137.67607 C 165.16637 137.72277 165.2039 137.76082 165.2506 137.76082 L 167.1492 137.76082 C 167.1959 137.76082 167.23395 137.72277 167.23395 137.67607 L 167.23395 137.40993 C 167.23395 137.36323 167.1959 137.3257 167.1492 137.3257 L 167.12284 137.3257 C 167.13084 137.18857 167.12884 136.93718 167.01277 136.89524 L 166.13324 136.34953 z " /><path
       id="path5575"
       style="fill:#000000;stroke:none;stroke-width:0.264583px;stroke-linecap:butt;stroke-linejoin:miter;stroke-opacity:1"
       d="m 153.09889,119.57226 -0.27182,0.58963 h -1.13533 l -0.14676,0.045 c -0.30129,0.52511 0,3.44785 0,3.44785 -0.0308,0.60502 1.3348,2.312 1.3348,2.312 l -0.0176,-0.62011 v -3.82302 c 0,-0.47673 0.37785,-0.86237 0.85163,-0.87437 0.007,-1.9e-4 0.0163,0 0.0233,0 h 2.74505 c 0.4843,0 0.87436,0.39007 0.87436,0.87437 v 3.82302 c 0,0.0869 -0.0123,0.17049 -0.0356,0.24959 0.39791,-0.53653 1.07291,-1.51351 1.05109,-1.94148 0,0 0.30129,-2.92274 0,-3.44785 l -0.14676,-0.045 h -1.13584 l -0.27131,-0.58963 h -1.85983 z"
       sodipodi:nodetypes="cccccccsssssscccccccc" /><path
       id="rect5889"
       style="fill:#000000;stroke-width:0.116;stroke-linecap:round;stop-color:#000000"
       d="m 153.19501,125.73209 v 0.82838 c 0,0.0962 0.066,0.17325 0.15606,0.18965 l 0.0682,0.0114 v 1.14877 c 0.004,0.002 0.004,0.002 0.0103,0.004 0.0135,0.005 0.0326,0.01 0.0553,0.0134 0.0207,-0.005 0.0426,-0.008 0.0656,-0.008 0.0232,0 0.0459,0.003 0.0672,0.008 0.0219,-0.004 0.0406,-0.009 0.0538,-0.014 0.006,-0.002 0.007,-0.002 0.0103,-0.004 v -1.14877 l 0.0682,-0.0114 c 0.09,-0.0164 0.15813,-0.0934 0.15813,-0.18965 v -0.83561 c -0.35256,0.002 -0.40507,-0.009 -0.71313,0.007 z m 0.87747,-0.007 v 0.79582 c 0.0152,-0.0241 0.0306,-0.0477 0.0465,-0.0713 h -0.0372 l 0.40256,-0.69556 0.017,-0.0289 z m 1.56837,0 0.41962,0.7245 h -0.0372 c 0.1328,0.19713 0.24801,0.41003 0.24805,0.65009 -3e-5,0.21195 -0.0553,0.41129 -0.15193,0.58446 v 1.56433 h -0.83819 v 1.08342 h -0.46457 v -1.08342 h -0.83613 v -1.64856 c -0.0702,-0.15239 -0.10953,-0.32193 -0.10955,-0.50023 1.4e-4,-0.11421 0.0267,-0.22188 0.0682,-0.32504 -0.0291,0.0204 -0.0605,0.0385 -0.0915,0.0558 v 1.10122 c 0,0.0397 -0.0212,0.0738 -0.0429,0.094 -0.0156,0.0146 -0.0328,0.0246 -0.0506,0.0331 10e-4,0.007 0.002,0.0143 0.002,0.0217 v 0.34942 c 0,0.004 -9e-5,0.009 -5.2e-4,0.0134 0.006,0.001 0.0113,0.003 0.0165,0.004 0.0305,0.009 0.0582,0.0208 0.0837,0.0393 0.0255,0.0184 0.0548,0.0518 0.0548,0.0997 v 0.47025 c 0,0.0479 -0.0293,0.0812 -0.0548,0.0997 -0.0255,0.0185 -0.0532,0.0303 -0.0837,0.0393 -0.061,0.0184 -0.13611,0.0274 -0.21911,0.0274 h -0.0506 c -0.083,0 -0.15759,-0.009 -0.21859,-0.0274 -0.0305,-0.009 -0.0587,-0.0208 -0.0842,-0.0393 -0.0255,-0.0184 -0.0563,-0.0518 -0.0563,-0.0997 v -0.47025 c 0,-0.0479 0.0308,-0.0812 0.0563,-0.0997 0.0255,-0.0185 0.0537,-0.0303 0.0842,-0.0393 0.0195,-0.006 0.0404,-0.0105 0.0625,-0.0145 -2e-5,-0.001 0,-0.002 0,-0.003 v -0.34942 c 0,-0.007 3.4e-4,-0.0147 0.002,-0.0217 -0.0173,-0.009 -0.0331,-0.0186 -0.0486,-0.0331 -0.0218,-0.0203 -0.0429,-0.0543 -0.0429,-0.094 v -1.09915 c -0.11126,-0.0608 -0.22686,-0.13679 -0.22686,-0.27182 v -0.75861 c -0.006,0.008 -0.01,0.0172 -0.01,0.0263 l -0.19275,4.93243 0.006,0.11421 h 4.55269 l 0.006,-0.11421 -0.18448,-4.56863 v 0.36846 c 0,0.13398 -0.11497,0.20845 -0.2248,0.26975 v 1.10122 c 0,0.0397 -0.0212,0.0738 -0.0429,0.094 -0.0218,0.0204 -0.0463,0.0326 -0.0723,0.0429 -5.1e-4,1.9e-4 -0.001,3.2e-4 -0.002,5.1e-4 0.0155,0.0227 0.0248,0.05 0.0248,0.0796 v 0.34787 c 0,0.007 -1.5e-4,0.0129 -0.001,0.0191 0.0139,0.003 0.0276,0.006 0.0403,0.01 0.0305,0.009 0.0587,0.0208 0.0842,0.0393 0.0255,0.0185 0.0563,0.0518 0.0563,0.0997 v 0.47077 c 0,0.0479 -0.0308,0.0807 -0.0563,0.0992 -0.0255,0.0185 -0.0537,0.0303 -0.0842,0.0393 -0.061,0.0183 -0.13559,0.0274 -0.21859,0.0274 h -0.0512 c -0.083,0 -0.15759,-0.009 -0.21859,-0.0274 -0.0305,-0.009 -0.0582,-0.0208 -0.0837,-0.0393 -0.0255,-0.0184 -0.0548,-0.0513 -0.0548,-0.0992 v -0.47077 c 0,-0.0479 0.0293,-0.0812 0.0548,-0.0997 0.0255,-0.0185 0.0532,-0.0303 0.0837,-0.0393 0.0128,-0.004 0.0269,-0.007 0.0408,-0.01 -9.5e-4,-0.006 -0.002,-0.0126 -0.002,-0.0191 v -0.34787 c 0,-0.0293 0.01,-0.0564 0.0258,-0.0791 -8.7e-4,-3.4e-4 -0.002,-6.9e-4 -0.003,-0.001 -0.026,-0.0103 -0.0486,-0.0226 -0.0703,-0.0429 -0.0218,-0.0203 -0.0429,-0.0543 -0.0429,-0.094 v -1.09915 c -0.11125,-0.0608 -0.22686,-0.13679 -0.22686,-0.27182 v -0.83561 z m 0.68885,0 v 0.83561 c 0,0.0962 0.066,0.17325 0.15606,0.18965 l 0.0682,0.0114 v 1.14877 c 0.004,0.002 0.004,0.002 0.0103,0.004 0.0252,0.01 0.0705,0.0191 0.12093,0.0191 0.0504,0 0.0957,-0.009 0.12092,-0.0191 0.006,-0.002 0.007,-0.002 0.0103,-0.004 v -1.14877 l 0.0682,-0.0114 c 0.09,-0.0164 0.15606,-0.0935 0.15606,-0.18965 v -0.82579 c -0.31264,-0.008 -0.32927,0.006 -0.71107,-0.01 z m -1.72031,0.16175 -0.22272,0.38705 h 0.0491 l -0.13126,0.14625 c -0.16652,0.18733 -0.25755,0.42889 -0.25786,0.67954 7e-5,0.56704 0.45872,1.02572 1.02577,1.02578 0.56704,-6e-5 1.02314,-0.45874 1.0232,-1.02578 -4e-5,-0.25053 -0.0917,-0.49207 -0.25787,-0.67954 l -0.12867,-0.14625 h 0.047 l -0.22272,-0.38705 h -0.4222 -0.0801 z m -0.36328,2.08359 v 1.01449 h 1.60765 v -0.97522 c -0.20993,0.18134 -0.48277,0.29143 -0.78135,0.29146 -0.31966,-3e-5 -0.6107,-0.126 -0.8263,-0.33073 z m -0.78497,0.12144 v 0.32926 c 0,0.0134 0.027,-0.001 0.0408,-0.001 h 0.0506 c 0.0304,0 0.0879,0.0321 0.0879,0.004 v -0.33236 c -0.0283,0.004 -0.0586,0.006 -0.0899,0.006 -0.0313,0 -0.0611,-0.002 -0.0894,-0.006 z m 3.21893,0.01 c -0.0275,0.001 -0.0503,0.01 -0.0646,0.0196 -0.0155,0.0106 -0.0196,0.0214 -0.0196,0.0274 v 0.34787 c 0,0.001 1.2e-4,0.003 5.1e-4,0.004 0.0206,-0.001 0.0417,-0.002 0.0636,-0.002 h 0.0512 c 0.0221,0 0.0433,8.1e-4 0.0641,0.002 2.6e-4,-0.001 5.2e-4,-0.003 5.2e-4,-0.004 v -0.34787 c 0,-0.006 -0.002,-0.0167 -0.0176,-0.0274 -0.0153,-0.0105 -0.0423,-0.0196 -0.0724,-0.0196 -0.002,0 -0.004,-7e-5 -0.006,0 z m -3.19154,0.48274 c -0.0642,0.001 -0.12265,0.0107 -0.15865,0.0217 -0.0115,0.004 -0.0212,0.001 -0.0212,0.008 v 0.41599 c 0.006,0.003 0.009,0.004 0.0212,0.008 0.0385,0.0115 0.10259,0.0212 0.17209,0.0212 h 0.0506 c 0.0695,0 0.13358,-0.009 0.17208,-0.0212 0.0125,-0.004 0.0212,-0.003 0.0212,-0.0103 v -0.41186 c -0.006,-0.003 -0.009,-0.006 -0.0212,-0.0103 -0.0283,-0.008 -0.0705,-0.0162 -0.11834,-0.0196 -0.0179,0.004 -0.0367,0.006 -0.0558,0.006 -0.0215,0 -0.042,-0.003 -0.0615,-0.008 z m 3.17138,0.078 c -0.0695,4e-5 -0.13306,0.009 -0.17156,0.0212 -0.0125,0.004 -0.0217,0.003 -0.0217,0.0103 v 0.41186 c 0.006,0.003 0.009,0.006 0.0217,0.0103 0.0385,0.0115 0.10206,0.0212 0.17156,0.0212 h 0.0512 c 0.0695,0 0.13307,-0.009 0.17157,-0.0212 0.0115,-0.004 0.0217,-10e-4 0.0217,-0.008 v -0.41599 c -0.006,-0.003 -0.01,-0.004 -0.0217,-0.008 -0.0385,-0.0115 -0.10207,-0.0217 -0.17157,-0.0217 z m -3.81268,2.47823 0.17208,3.14813 c 0,0.0571 0.12293,0.10335 0.27543,0.10335 h 3.62872 c 0.1525,0 0.27244,-0.0462 0.27544,-0.10335 l 0.17208,-3.14813 z m 2.01649,0.63038 c 0.12272,1e-5 0.2222,0.0995 0.22221,0.22221 -1e-5,0.12272 -0.0995,0.2222 -0.22221,0.22221 -0.12272,-1e-5 -0.2222,-0.0995 -0.22221,-0.22221 1e-5,-0.12272 0.0995,-0.2222 0.22221,-0.22221 z m 0.55759,0 c 0.12272,1e-5 0.2222,0.0995 0.22221,0.22221 -1e-5,0.12272 -0.0995,0.2222 -0.22221,0.22221 -0.12272,-1e-5 -0.2222,-0.0995 -0.22221,-0.22221 1e-5,-0.12272 0.0995,-0.2222 0.22221,-0.22221 z m -0.63357,0.89841 c 0.004,-6e-5 0.007,0 0.0108,0 h 0.62811 c 0.11323,0 0.20451,0.0343 0.20451,0.0767 v 0.18609 h 0.22868 c 0.11324,0 0.20452,0.0339 0.20452,0.0764 v 0.20835 c 0,0.0425 -0.0913,0.0767 -0.20452,0.0767 h -0.22868 v 0.12893 c 0,0.0425 -0.0913,0.0767 -0.20451,0.0767 h -0.62811 c -0.11324,0 -0.2045,-0.0343 -0.2045,-0.0767 v -0.12893 h -0.22869 c -0.11324,0 -0.20451,-0.0342 -0.20451,-0.0767 v -0.20835 c 0,-0.0411 0.0855,-0.0741 0.19376,-0.0764 0.003,-6e-5 0.007,0 0.0108,0 h 0.22869 v -0.18609 c 0,-0.0411 0.0855,-0.0745 0.19376,-0.0767 z"
       sodipodi:nodetypes="cscccccscccccsccccccccccccccccccccccccsccsscccssscssscsssccssccscscccccccscssccssccsssscssscsssccsscccscsccccccccsccccsccccccccccccccccccccccccssccscccsccsscsscsccccccsscccccsccscccsssccccssccssccccccccccccssssscsssscsssscssssscssscscc" /><path
       style="color:#000000;fill:#000000;stroke-width:0.116;stroke-linecap:round;-inkscape-stroke:none"
       d="m 153.55106,127.97779 c 0.0818,0 0.14765,0.0461 0.14765,0.10324 v 0.96799 c 0,0.0572 -0.0659,0.10324 -0.14765,0.10324 -0.0818,0 -0.14765,-0.0461 -0.14765,-0.10324 v -0.96799 c 0,-0.0572 0.0658,-0.10324 0.14765,-0.10324 z"
       id="path6026" /><path
       id="path4592"
       style="fill:#000000;stroke:none;stroke-width:0.264583px;stroke-linecap:butt;stroke-linejoin:miter;stroke-opacity:1"
       d="M 142.04892 123.66452 C 141.88557 123.91619 141.60291 124.07557 141.29186 124.07586 C 141.1104 124.07579 140.93676 124.02112 140.7906 123.92342 C 140.82851 124.11677 141.00087 125.00352 140.97973 125.04686 L 140.65831 127.07671 C 140.87639 127.40137 141.64802 127.38808 142.00706 127.11909 L 142.34399 126.06334 L 142.38533 124.93938 L 142.04892 123.66452 z " /><path
       id="path4532"
       style="fill:#000000;stroke:none;stroke-width:0.264999;stroke-linecap:round;stroke-dasharray:none;stop-color:#000000"
       d="m 140.36761,122.2482 0.50515,0.26239 c 0.21565,0.1674 0.2087,0.75022 -0.0868,0.925 l -0.26149,0.0176 c 0.16413,0.26765 0.4555,0.43085 0.76947,0.43098 0.39701,-3.7e-4 0.74722,-0.25999 0.86299,-0.63975 l -0.36948,-0.0439 c -0.32543,-0.11547 -0.34588,-0.73487 -0.13023,-0.90228 l 0.43346,-0.2231 c -0.34844,-0.21835 -1.23525,-0.42327 -1.72306,0.17311 z"
       sodipodi:nodetypes="cccccccccc" /><path
       id="path4299"
       style="fill:#000000;stroke:none;stroke-width:0.264583px;stroke-linecap:butt;stroke-linejoin:miter;stroke-opacity:1"
       d="m 146.74011,112.65124 v 0.43511 c 0,0.0579 -0.0465,0.10439 -0.10439,0.10439 h -0.5333 c -0.0579,0 -0.10439,-0.0465 -0.10439,-0.10439 v -0.26716 c -0.005,6.4e-4 -0.009,0.001 -0.0139,0.001 h -1.42834 c -9.8e-4,0 -0.002,3e-5 -0.003,0 v 0.26613 c 0,0.0579 -0.0464,0.10439 -0.10438,0.10439 h -0.5333 c -0.0579,0 -0.10439,-0.0465 -0.10439,-0.10439 v -0.33848 c -0.56852,0.12619 -1.12955,0.30312 -1.64538,0.51677 0,0 0.67242,0.87012 0.95602,0.87798 0,0 1.85673,-0.0564 2.37143,0.25321 l 0.17208,0.58757 c 0.0944,0.47468 0.6904,0.31109 0.6904,0.31109 0,0 0.75719,-1.46913 1.73105,-1.96171 -0.33299,-0.36238 -0.79008,-0.5567 -1.34606,-0.68154 z m -0.42168,0.74931 c 0.32112,0 0.58394,0.26075 0.58394,0.58187 0,0.32113 -0.26282,0.58395 -0.58394,0.58395 -0.32112,0 -0.58188,-0.26282 -0.58188,-0.58395 0,-0.32112 0.26076,-0.58187 0.58188,-0.58187 z m 0,0.16381 c -0.23195,0 -0.41807,0.18611 -0.41807,0.41806 0,0.23195 0.18612,0.42013 0.41807,0.42013 0.23195,0 0.41961,-0.18818 0.41961,-0.42013 0,-0.23195 -0.18766,-0.41806 -0.41961,-0.41806 z"
       sodipodi:nodetypes="csssscsscssssccccccccssssssssss" /><path
       id="path3987"
       style="fill:#000000;stroke:none;stroke-width:0.290674px;stroke-linecap:butt;stroke-linejoin:miter;stroke-opacity:1"
       d="M 154.9024 109.46125 C 154.34078 109.46825 153.79303 109.77438 153.65441 110.38626 L 153.59809 110.59865 C 153.06061 110.80566 152.61113 111.12414 152.34958 111.51384 L 153.44564 112.05128 L 153.31955 114.46301 L 153.04515 115.84484 L 153.34384 115.76113 C 153.43184 115.48285 153.59027 115.23203 153.80376 115.03301 L 153.8513 114.87488 L 154.11382 114.80253 C 154.36138 114.66052 154.64081 114.58337 154.92617 114.57825 L 154.95873 114.56947 L 154.98663 114.57722 C 155.27309 114.58222 155.55366 114.65932 155.80209 114.80201 L 156.06615 114.87488 L 156.11266 115.03145 C 156.32758 115.23153 156.48678 115.48405 156.57465 115.76423 L 156.87747 115.85156 L 156.59739 114.46301 L 156.47233 112.0704 L 157.66709 111.50764 C 157.32916 111.05661 156.79107 110.75597 156.30955 110.56868 L 156.25167 110.39194 C 156.07621 109.76724 155.48184 109.45487 154.9024 109.46177 L 154.9024 109.46125 z M 154.92255 109.61887 C 155.0399 109.61737 155.15794 109.63272 155.27292 109.66382 L 155.46877 110.29376 C 155.19298 110.24636 154.70285 110.25136 154.41922 110.29376 L 154.61559 109.66382 C 154.71605 109.63492 154.81899 109.62087 154.92255 109.61887 z M 154.52619 109.70206 C 154.5433 109.70016 154.32879 110.2841 154.32879 110.3103 C 154.2194 110.3115 153.91745 110.36197 153.91745 110.36197 C 153.93571 110.16882 154.2453 109.73306 154.52619 109.70206 z M 155.36232 109.70206 C 155.64321 109.73314 155.95225 110.16882 155.97055 110.36197 C 155.97055 110.36197 155.66911 110.31117 155.55972 110.3103 C 155.55972 110.2841 155.34522 109.70006 155.36232 109.70206 z M 154.92049 110.69684 C 154.93629 110.69784 154.95243 110.69902 154.96803 110.69994 C 154.98363 110.69894 154.99925 110.69763 155.01505 110.69684 L 155.01505 110.70304 C 155.57567 110.74048 156.01603 110.84876 156.01603 110.84876 C 156.01603 110.84876 156.12594 111.13455 156.09664 111.24461 L 155.72509 111.19293 L 155.76953 111.64613 C 155.76953 111.64613 155.15207 111.69861 154.96751 111.69161 C 154.78233 111.69841 154.16601 111.64613 154.16601 111.64613 L 154.20993 111.19293 L 153.83941 111.24461 C 153.81024 111.13505 153.91851 110.85228 153.91951 110.84928 L 153.91951 110.84876 C 153.91951 110.84876 154.35994 110.74044 154.92049 110.70304 L 154.92049 110.69684 z M 153.67508 110.85962 C 153.69168 110.85962 153.70597 110.86185 153.71797 110.86685 C 153.71797 110.86685 153.59464 111.19426 153.62134 111.27716 L 153.01828 111.38 L 152.99295 111.24977 C 152.99295 111.24977 153.47881 110.86913 153.67508 110.86013 L 153.67508 110.85962 z M 156.23203 110.86013 L 156.23203 110.86065 C 156.42142 110.85639 156.92398 111.25029 156.92398 111.25029 L 156.89814 111.38052 L 156.29508 111.27768 C 156.32186 111.19482 156.19844 110.86737 156.19844 110.86737 C 156.20804 110.86337 156.21943 110.86042 156.23203 110.86013 z M 154.11382 112.94734 L 154.25438 113.07912 L 154.95821 113.07912 L 155.66204 113.07912 L 155.8026 112.94734 L 156.06667 113.00419 L 156.1509 114.10386 L 155.8026 114.10386 L 155.66204 113.877 L 154.95821 113.877 L 154.25438 113.877 L 154.11382 114.10386 L 153.76603 114.10386 L 153.85027 113.00419 L 154.11382 112.94734 z M 153.17382 114.37826 L 152.76454 114.41754 L 152.32426 116.58847 L 152.8772 116.59932 L 153.17382 114.37826 z M 156.74001 114.37826 L 157.03664 116.59932 L 157.58957 116.58847 L 157.14929 114.41754 L 156.74001 114.37826 z M 152.00283 116.71869 C 152.19738 117.96244 153.18648 118.95093 154.43369 119.17074 L 154.43369 119.14283 L 154.43369 118.75216 L 155.48221 118.75216 L 155.48221 119.17074 C 156.72976 118.95111 157.71954 117.96261 157.9141 116.71869 L 156.87799 116.71869 C 156.6732 117.56845 155.89851 118.19922 154.95821 118.19922 C 154.01793 118.19922 153.24488 117.56845 153.0405 116.71869 L 152.00283 116.71869 z " /><path
       id="path3700"
       style="fill:#000000;stroke:none;stroke-width:0.252045px;stroke-linecap:butt;stroke-linejoin:miter;stroke-opacity:1"
       d="M 151.78476 117.29695 L 151.78424 117.29747 L 151.16671 118.1 C 151.42134 117.98528 152.0635 117.97861 152.42141 118.069 C 152.26146 117.83994 152.13674 117.58525 152.05503 117.31245 C 151.96323 117.30845 151.87107 117.30435 151.78476 117.29695 z M 150.49285 118.12274 C 150.49194 118.12474 150.48561 118.13307 150.48561 118.13307 C 150.48561 118.13307 150.70965 119.00965 150.96931 118.96972 C 151.02554 118.9905 151.16093 119.00308 151.34189 119.01002 C 151.2485 118.63689 151.14977 118.22512 151.14449 118.12842 L 151.05457 118.24521 C 151.05457 118.24521 150.81816 118.19563 150.49285 118.12274 z M 152.58368 118.2788 C 152.61963 118.44773 152.67616 118.71604 152.73302 119.00176 C 153.05897 118.99252 153.34446 118.98125 153.49783 118.97488 C 153.14495 118.80922 152.83337 118.57061 152.58368 118.2788 z " /><path
       id="path1857"
       style="fill:#000000;stroke:none;stroke-width:0.264583px;stroke-linecap:butt;stroke-linejoin:miter;stroke-opacity:1"
       d="M 152.15786 111.63476 C 151.56095 111.70876 146.75738 113.16301 146.39646 115.93528 C 147.15401 115.33407 147.82118 115.31102 147.82118 115.31102 L 148.46765 114.58187 C 149.05098 114.14754 151.2866 113.9478 151.2866 113.9478 L 152.34803 114.21238 L 153.0808 114.14469 L 153.22085 112.12362 L 152.15786 111.63476 z M 151.63593 112.21819 A 0.20462655 0.20462655 0 0 1 151.84057 112.42283 A 0.20462655 0.20462655 0 0 1 151.63593 112.62747 A 0.20462655 0.20462655 0 0 1 151.43181 112.42283 A 0.20462655 0.20462655 0 0 1 151.63593 112.21819 z M 150.92796 112.33291 A 0.20462655 0.20462655 0 0 1 151.1326 112.53755 A 0.20462655 0.20462655 0 0 1 150.92796 112.74219 A 0.20462655 0.20462655 0 0 1 150.72333 112.53755 A 0.20462655 0.20462655 0 0 1 150.92796 112.33291 z M 150.22 112.54634 A 0.20462655 0.20462655 0 0 1 150.42464 112.75097 A 0.20462655 0.20462655 0 0 1 150.22 112.95561 A 0.20462655 0.20462655 0 0 1 150.01536 112.75097 A 0.20462655 0.20462655 0 0 1 150.22 112.54634 z M 149.51203 112.82022 A 0.20462655 0.20462655 0 0 1 149.71667 113.02486 A 0.20462655 0.20462655 0 0 1 149.51203 113.2295 A 0.20462655 0.20462655 0 0 1 149.30739 113.02486 A 0.20462655 0.20462655 0 0 1 149.51203 112.82022 z M 148.80406 113.20521 A 0.20462655 0.20462655 0 0 1 149.0087 113.40985 A 0.20462655 0.20462655 0 0 1 148.80406 113.61449 A 0.20462655 0.20462655 0 0 1 148.59942 113.40985 A 0.20462655 0.20462655 0 0 1 148.80406 113.20521 z M 151.32381 114.12763 C 151.32381 114.12763 149.15485 114.28707 148.57152 114.7214 L 147.8496 115.55649 C 147.8496 115.55649 147.7871 115.55851 147.67958 115.57871 C 147.17504 117.03338 148.26818 117.3972 148.26818 117.3972 C 148.48416 117.60491 150.98739 118.12739 150.98739 118.12739 L 151.94702 116.87992 L 151.85969 116.56883 L 152.18629 116.45152 L 152.61055 114.34106 L 152.37025 114.37413 L 151.32381 114.12763 z M 150.15437 114.35759 L 151.13105 114.35759 C 151.40192 114.35759 151.62508 114.58075 151.62508 114.85162 L 151.62508 116.17402 C 151.62508 116.44489 151.40192 116.66805 151.13105 116.66805 L 150.15437 116.66805 C 149.8835 116.66805 149.66189 116.44489 149.66189 116.17402 L 149.66189 114.85162 C 149.66189 114.58075 149.8835 114.35759 150.15437 114.35759 z M 150.1461 114.50487 C 149.95857 114.50959 149.80917 114.66239 149.80917 114.8511 L 149.80917 116.17402 C 149.80917 116.36573 149.9637 116.51974 150.1554 116.51974 L 151.13157 116.51974 C 151.32328 116.51974 151.4778 116.36573 151.4778 116.17402 L 151.4778 114.8511 C 151.4778 114.6594 151.32328 114.50487 151.13157 114.50487 L 150.1554 114.50487 C 150.15241 114.50487 150.14908 114.5048 150.1461 114.50487 z M 150.64323 114.78289 A 0.49526405 0.49526405 0 0 1 151.1388 115.27795 A 0.49526405 0.49526405 0 0 1 150.64323 115.77353 A 0.49526405 0.49526405 0 0 1 150.14817 115.27795 A 0.49526405 0.49526405 0 0 1 150.64323 114.78289 z M 147.51835 115.55855 C 147.47888 115.55969 147.31576 115.56903 147.23207 115.64382 C 147.20327 115.70462 146.90237 116.75951 146.90237 116.75951 C 146.90237 116.75951 147.37015 116.7714 147.5199 116.7435 C 147.39747 116.4742 147.35306 116.09177 147.52662 115.55855 C 147.52628 115.55855 147.52366 115.5584 147.51835 115.55855 z " /><path
       id="path1857-0"
       style="fill:#000000;stroke:none;stroke-width:0.264583px;stroke-linecap:butt;stroke-linejoin:miter;stroke-opacity:1"
       d="m 157.80086,111.64154 c 0.59691,0.074 5.40048,1.52825 5.7614,4.30052 -0.75755,-0.60121 -1.42472,-0.62426 -1.42472,-0.62426 l -0.64647,-0.72915 c -0.58333,-0.43433 -2.81895,-0.63407 -2.81895,-0.63407 l -1.06143,0.26458 -0.73277,-0.0677 -0.14005,-2.02107 z m 0.52193,0.58343 a 0.20462655,0.20462655 0 0 0 -0.20464,0.20464 0.20462655,0.20462655 0 0 0 0.20464,0.20464 0.20462655,0.20462655 0 0 0 0.20412,-0.20464 0.20462655,0.20462655 0 0 0 -0.20412,-0.20464 z m 0.70797,0.11472 a 0.20462655,0.20462655 0 0 0 -0.20464,0.20464 0.20462655,0.20462655 0 0 0 0.20464,0.20464 0.20462655,0.20462655 0 0 0 0.20463,-0.20464 0.20462655,0.20462655 0 0 0 -0.20463,-0.20464 z m 0.70796,0.21343 a 0.20462655,0.20462655 0 0 0 -0.20464,0.20463 0.20462655,0.20462655 0 0 0 0.20464,0.20464 0.20462655,0.20462655 0 0 0 0.20464,-0.20464 0.20462655,0.20462655 0 0 0 -0.20464,-0.20463 z m 0.70797,0.27388 a 0.20462655,0.20462655 0 0 0 -0.20464,0.20464 0.20462655,0.20462655 0 0 0 0.20464,0.20464 0.20462655,0.20462655 0 0 0 0.20464,-0.20464 0.20462655,0.20462655 0 0 0 -0.20464,-0.20464 z m 0.70797,0.38499 a 0.20462655,0.20462655 0 0 0 -0.20464,0.20464 0.20462655,0.20462655 0 0 0 0.20464,0.20464 0.20462655,0.20462655 0 0 0 0.20464,-0.20464 0.20462655,0.20462655 0 0 0 -0.20464,-0.20464 z m -2.51975,0.92242 c 0,0 2.16896,0.15944 2.75229,0.59377 l 0.72192,0.83509 c 0,0 0.0625,0.002 0.17002,0.0222 0.50454,1.45467 -0.5886,1.81849 -0.5886,1.81849 -0.21598,0.20771 -2.71921,0.73019 -2.71921,0.73019 l -0.95963,-1.24747 0.0873,-0.31109 -0.3266,-0.11731 -0.42426,-2.11046 0.2403,0.0331 z m 1.16944,0.22996 h -0.97668 c -0.27087,0 -0.49403,0.22316 -0.49403,0.49403 v 1.3224 c 0,0.27087 0.22316,0.49403 0.49403,0.49403 h 0.97668 c 0.27087,0 0.49248,-0.22316 0.49248,-0.49403 v -1.3224 c 0,-0.27087 -0.22161,-0.49403 -0.49248,-0.49403 z m 0.008,0.14728 c 0.18753,0.005 0.33693,0.15752 0.33693,0.34623 v 1.32292 c 0,0.19171 -0.15453,0.34572 -0.34623,0.34572 h -0.97617 c -0.19171,0 -0.34623,-0.15401 -0.34623,-0.34572 v -1.32292 c 0,-0.1917 0.15452,-0.34623 0.34623,-0.34623 h 0.97617 c 0.003,0 0.006,-7e-5 0.009,0 z m -0.49713,0.27802 a 0.49526405,0.49526405 0 0 0 -0.49557,0.49506 0.49526405,0.49526405 0 0 0 0.49557,0.49558 0.49526405,0.49526405 0 0 0 0.49506,-0.49558 0.49526405,0.49526405 0 0 0 -0.49506,-0.49506 z m 3.12488,0.77566 c 0.0395,10e-4 0.20259,0.0105 0.28628,0.0853 0.0288,0.0608 0.3297,1.11569 0.3297,1.11569 0,0 -0.46778,0.0119 -0.61753,-0.016 0.12243,-0.2693 0.16684,-0.65173 -0.007,-1.18495 3.4e-4,0 0.003,-1.5e-4 0.008,0 z" /><rect
       style="opacity:1;vector-effect:none;fill:#1a1a1a;fill-opacity:1;stroke:none;stroke-width:0.1;stroke-linecap:butt;stroke-linejoin:miter;stroke-miterlimit:4;stroke-dasharray:none;stroke-dashoffset:0;stroke-opacity:1"
       id="rect860"
       width="7.0941477"
       height="0"
       x="148.86763"
       y="129.31949" /><circle
       style="fill:#000000;stroke:none;stroke-width:0.19501;stroke-linecap:round;stroke-dasharray:2.24704, 0.749014;stop-color:#000000"
       id="path617"
       cx="154.95847"
       cy="116.38863"
       r="0.99350643" /><circle
       style="fill:none;stroke:#000000;stroke-width:0.455018;stroke-linecap:round;stroke-dasharray:none;stop-color:#000000"
       id="path619-5"
       cx="154.95847"
       cy="116.38863"
       r="1.4511067" /><path
       style="fill:#000000;stroke:none;stroke-width:0.264583px;stroke-linecap:butt;stroke-linejoin:miter;stroke-opacity:1"
       d="m 146.5926,116.04325 c 0.0302,0 0.41946,-0.0127 0.41946,-0.0328 0,-0.02 0.075,-0.23111 0.15048,-0.38051 0,0 -0.26104,0.0992 -0.56542,0.27318 -0.0157,0.0327 -0.004,0.12102 -0.005,0.14014 z"
       id="path1887"
       sodipodi:nodetypes="csccc" /><path
       style="fill:#000000;stroke:none;stroke-width:0.264583px;stroke-linecap:butt;stroke-linejoin:miter;stroke-opacity:1"
       d="m 150.80956,111.89907 c 0.1588,-0.10161 0.97358,-0.33675 0.97358,-0.33675 l -0.44082,-0.80569 c -0.24884,-0.0612 -0.56697,0.0174 -0.66966,0.21277 z"
       id="path1911"
       sodipodi:nodetypes="ccccc" /><path
       style="fill:#000000;stroke:none;stroke-width:0.264583px;stroke-linecap:butt;stroke-linejoin:miter;stroke-opacity:1"
       d="m 159.20474,111.94851 c -0.1588,-0.10161 -0.97358,-0.33675 -0.97358,-0.33675 l 0.44082,-0.80569 c 0.24884,-0.0612 0.56697,0.0174 0.66966,0.21277 z"
       id="path1911-7"
       sodipodi:nodetypes="ccccc" /><path
       id="rect1936"
       style="fill:#000000;stroke:none;stroke-width:0.295;stroke-linecap:round;stroke-dasharray:none;stop-color:#000000"
       d="m 142.58997,109.9682 c -0.18753,0.005 -0.33745,0.15752 -0.33745,0.34623 v 0.15141 l 0.72813,0.3545 0.008,-0.004 c 0.0976,0.1055 0.0957,0.10696 0,0.1912 l -0.008,-0.004 -0.72761,0.36071 v 0.21962 c 0,0.19171 0.15452,0.34623 0.34623,0.34623 h 5.35368 c 0.19171,0 0.34623,-0.15452 0.34623,-0.34623 v -0.21962 l -0.72863,-0.36122 -0.009,0.005 c -0.0885,-0.0985 -0.0862,-0.10016 0.002,-0.19171 l 0.007,0.004 0.72915,-0.3545 v -0.1509 c 0,-0.19171 -0.15452,-0.34623 -0.34623,-0.34623 h -5.35368 c -0.003,0 -0.006,-7e-5 -0.009,0 z m 0.54467,0.19378 c 0.11211,1.2e-4 0.20297,0.091 0.20309,0.20309 1.7e-4,0.11232 -0.0908,0.20349 -0.20309,0.20361 -0.11252,1.6e-4 -0.20377,-0.0911 -0.2036,-0.20361 1.2e-4,-0.11231 0.0913,-0.20325 0.2036,-0.20309 z m 0.61185,0 c 0.11211,1.2e-4 0.20297,0.091 0.20309,0.20309 1.7e-4,0.11232 -0.0908,0.20349 -0.20309,0.20361 -0.11252,1.6e-4 -0.20377,-0.0911 -0.2036,-0.20361 1.2e-4,-0.11231 0.0913,-0.20325 0.2036,-0.20309 z m 0.61133,0 c 0.11232,-1.7e-4 0.20349,0.0908 0.20361,0.20309 1.7e-4,0.11252 -0.0911,0.20378 -0.20361,0.20361 -0.11232,-1.2e-4 -0.20326,-0.0913 -0.20309,-0.20361 1.2e-4,-0.11211 0.091,-0.20297 0.20309,-0.20309 z m 0.61185,0 c 0.11232,-1.7e-4 0.20349,0.0908 0.20361,0.20309 1.7e-4,0.11252 -0.0911,0.20378 -0.20361,0.20361 -0.11232,-1.2e-4 -0.20326,-0.0913 -0.20309,-0.20361 1.2e-4,-0.11211 0.091,-0.20297 0.20309,-0.20309 z m 0.61185,0 c 0.11211,1.2e-4 0.20297,0.091 0.20309,0.20309 1.7e-4,0.11232 -0.0908,0.20349 -0.20309,0.20361 -0.11252,1.6e-4 -0.20377,-0.0911 -0.2036,-0.20361 1.2e-4,-0.11231 0.0913,-0.20325 0.2036,-0.20309 z m 0.61185,0 c 0.11211,1.2e-4 0.20297,0.091 0.20309,0.20309 1.7e-4,0.11232 -0.0908,0.20349 -0.20309,0.20361 -0.11252,1.7e-4 -0.20378,-0.0911 -0.20361,-0.20361 1.2e-4,-0.11232 0.0913,-0.20326 0.20361,-0.20309 z m 0.61133,0 c 0.11232,-1.7e-4 0.20349,0.0908 0.20361,0.20309 1.7e-4,0.11252 -0.0911,0.20378 -0.20361,0.20361 -0.11232,-1.2e-4 -0.20326,-0.0913 -0.20309,-0.20361 1.2e-4,-0.11211 0.091,-0.20297 0.20309,-0.20309 z m 0.61185,0 c 0.11232,-1.7e-4 0.20349,0.0908 0.20361,0.20309 1.7e-4,0.11252 -0.0911,0.20378 -0.20361,0.20361 -0.11232,-1.2e-4 -0.20326,-0.0913 -0.20309,-0.20361 1.2e-4,-0.11211 0.091,-0.20297 0.20309,-0.20309 z m -5.16403,0.48731 v 0.53175 l 0.54106,-0.2682 z m 6.04615,0 -0.54209,0.26304 0.54209,0.26871 z m -4.23644,0.0966 c 0.11232,-1.7e-4 0.20349,0.0908 0.20361,0.20309 -1.2e-4,0.11232 -0.0913,0.20326 -0.20361,0.20309 -0.11211,-1.2e-4 -0.20297,-0.091 -0.20309,-0.20309 1.2e-4,-0.11211 0.091,-0.20297 0.20309,-0.20309 z m 0.61185,0 c 0.11211,1.2e-4 0.20297,0.091 0.20309,0.20309 -1.2e-4,0.11211 -0.091,0.20297 -0.20309,0.20309 -0.11231,1.6e-4 -0.20348,-0.0908 -0.2036,-0.20309 1.2e-4,-0.11231 0.0913,-0.20325 0.2036,-0.20309 z m 1.20303,0 c 0.11231,-1.6e-4 0.20348,0.0908 0.2036,0.20309 -1.2e-4,0.11231 -0.0913,0.20325 -0.2036,0.20309 -0.11211,-1.2e-4 -0.20297,-0.091 -0.20309,-0.20309 1.2e-4,-0.11211 0.091,-0.20297 0.20309,-0.20309 z m 0.61185,0 c 0.11211,1.2e-4 0.20297,0.091 0.20309,0.20309 -1.2e-4,0.11211 -0.091,0.20297 -0.20309,0.20309 -0.11232,1.7e-4 -0.20349,-0.0908 -0.20361,-0.20309 1.2e-4,-0.11232 0.0913,-0.20326 0.20361,-0.20309 z m -3.35432,0.58343 c 0.11231,1.2e-4 0.20325,0.0913 0.20309,0.2036 -1.2e-4,0.11211 -0.091,0.20297 -0.20309,0.20309 -0.11231,1.6e-4 -0.20348,-0.0908 -0.2036,-0.20309 -1.6e-4,-0.11251 0.0911,-0.20376 0.2036,-0.2036 z m 0.61185,0 c 0.11231,1.2e-4 0.20325,0.0913 0.20309,0.2036 -1.2e-4,0.11211 -0.091,0.20297 -0.20309,0.20309 -0.11231,1.6e-4 -0.20348,-0.0908 -0.2036,-0.20309 -1.6e-4,-0.11251 0.0911,-0.20376 0.2036,-0.2036 z m 0.61133,0 c 0.11252,-1.7e-4 0.20377,0.0911 0.20361,0.2036 -1.2e-4,0.11232 -0.0913,0.20326 -0.20361,0.20309 -0.11211,-1.2e-4 -0.20297,-0.091 -0.20309,-0.20309 -1.6e-4,-0.11231 0.0908,-0.20348 0.20309,-0.2036 z m 0.61185,0 c 0.11252,-1.7e-4 0.20377,0.0911 0.20361,0.2036 -1.2e-4,0.11232 -0.0913,0.20326 -0.20361,0.20309 -0.11211,-1.2e-4 -0.20297,-0.091 -0.20309,-0.20309 -1.6e-4,-0.11231 0.0908,-0.20348 0.20309,-0.2036 z m 0.61185,0 c 0.11231,1.2e-4 0.20325,0.0913 0.20309,0.2036 -1.2e-4,0.11211 -0.091,0.20297 -0.20309,0.20309 -0.11231,1.6e-4 -0.20348,-0.0908 -0.2036,-0.20309 -1.6e-4,-0.11251 0.0911,-0.20376 0.2036,-0.2036 z m 0.61185,0 c 0.11231,1.2e-4 0.20325,0.0913 0.20309,0.2036 -1.2e-4,0.11211 -0.091,0.20297 -0.20309,0.20309 -0.11232,1.7e-4 -0.20349,-0.0908 -0.20361,-0.20309 -1.6e-4,-0.11252 0.0911,-0.20377 0.20361,-0.2036 z m 0.61133,0 c 0.11252,-1.7e-4 0.20377,0.0911 0.20361,0.2036 -1.2e-4,0.11232 -0.0913,0.20326 -0.20361,0.20309 -0.11211,-1.2e-4 -0.20297,-0.091 -0.20309,-0.20309 -1.6e-4,-0.11231 0.0908,-0.20348 0.20309,-0.2036 z m 0.61185,0 c 0.11252,-1.7e-4 0.20377,0.0911 0.20361,0.2036 -1.2e-4,0.11232 -0.0913,0.20326 -0.20361,0.20309 -0.11211,-1.2e-4 -0.20297,-0.091 -0.20309,-0.20309 -1.6e-4,-0.11231 0.0908,-0.20348 0.20309,-0.2036 z m -3.42253,0.71106 c -0.0456,0.002 -0.0816,0.0401 -0.0816,0.0863 v 0.88935 c 0,0.0477 0.0386,0.0863 0.0863,0.0863 h 0.37827 c 0.0477,0 0.0858,-0.0386 0.0858,-0.0863 v -0.88935 c 0,-0.0477 -0.0381,-0.0863 -0.0858,-0.0863 h -0.37827 c -0.001,0 -0.003,-7e-5 -0.005,0 z m 0.61857,0 c -0.0456,0.002 -0.0817,0.0401 -0.0817,0.0863 v 0.53175 c 0,0.0477 0.0386,0.0858 0.0863,0.0858 h 1.31775 c 0.0477,0 0.0858,-0.0381 0.0858,-0.0858 v -0.53175 c 0,-0.0477 -0.0381,-0.0863 -0.0858,-0.0863 h -1.31775 c -0.001,0 -0.003,-7e-5 -0.005,0 z m 1.55804,0 c -0.0456,0.002 -0.0816,0.0401 -0.0816,0.0863 v 0.88935 c 0,0.0477 0.0386,0.0863 0.0863,0.0863 h 0.37827 c 0.0477,0 0.0863,-0.0386 0.0863,-0.0863 v -0.88935 c 0,-0.0477 -0.0386,-0.0863 -0.0863,-0.0863 h -0.37827 c -0.001,0 -0.003,-7e-5 -0.005,0 z"
       sodipodi:nodetypes="csccccccssssccccccssscccccccccccccccccccccccccccccccccccccccccccccccccccccccccccccccccccccccccccccccccccccccccccccccccccccccccccccccssssssssccssssssssccsssssssscscs" /><path
       style="fill:#000000;stroke:none;stroke-width:0.264583px;stroke-linecap:butt;stroke-linejoin:miter;stroke-opacity:1"
       d="m 151.26022,118.20851 c 0.23533,-0.1233 0.95313,-0.11791 1.22851,0 0,0 0.27855,1.29074 0.25779,1.35444 -0.0439,0.048 -0.98822,0.0875 -1.16913,0 0,0 -0.33748,-1.28562 -0.31717,-1.35444 z"
       id="path3673"
       sodipodi:nodetypes="ccccc" /><g
       id="g3867"
       transform="matrix(-1,0,0,1,319.09932,-2.20211)"><path
         id="path3700-5"
         style="fill:#000000;stroke:none;stroke-width:0.252045px;stroke-linecap:butt;stroke-linejoin:miter;stroke-opacity:1"
         d="m 161.02981,119.49906 -5.2e-4,5.2e-4 -0.61753,0.80253 c 0.25463,-0.11472 0.89679,-0.12139 1.2547,-0.031 -0.15995,-0.22906 -0.28467,-0.48375 -0.36638,-0.75655 -0.0918,-0.004 -0.18396,-0.008 -0.27027,-0.0155 z m -1.29191,0.82579 c -9.1e-4,0.002 -0.007,0.0103 -0.007,0.0103 0,0 0.22404,0.87658 0.4837,0.83665 0.0562,0.0208 0.19162,0.0334 0.37258,0.0403 -0.0934,-0.37313 -0.19212,-0.7849 -0.1974,-0.8816 l -0.0899,0.11679 c 0,0 -0.23641,-0.0496 -0.56172,-0.12247 z m 2.09083,0.15606 c 0.036,0.16893 0.0925,0.43724 0.14934,0.72296 0.32595,-0.009 0.61144,-0.0205 0.76481,-0.0269 -0.35288,-0.16566 -0.66446,-0.40427 -0.91415,-0.69608 z" /><path
         style="fill:#000000;stroke:none;stroke-width:0.264583px;stroke-linecap:butt;stroke-linejoin:miter;stroke-opacity:1"
         d="m 160.50527,120.41062 c 0.23533,-0.1233 0.95313,-0.11791 1.22851,0 0,0 0.27855,1.29074 0.25779,1.35444 -0.0439,0.048 -0.98822,0.0875 -1.16913,0 0,0 -0.33748,-1.28562 -0.31717,-1.35444 z"
         id="path3673-2"
         sodipodi:nodetypes="ccccc" /></g><path
       id="path4417"
       style="fill:#000000;stroke:none;stroke-width:0.264583px;stroke-linecap:butt;stroke-linejoin:miter;stroke-opacity:1"
       d="M 144.44412 114.34984 C 144.14922 114.41911 144.07464 115.06711 144.07464 115.06711 C 144.0509 115.32513 145.5104 116.71285 145.59909 116.73781 C 145.68779 116.76281 146.14648 117.11141 146.33445 117.1383 C 146.33445 117.1383 146.7368 116.45502 146.62745 116.22156 C 146.57545 116.10616 146.29 115.94613 146.29 115.94613 C 146.28243 115.9314 146.27772 115.91386 146.2745 115.89497 C 146.13518 115.95756 145.98048 115.99212 145.8182 115.99212 C 145.20107 115.99212 144.69734 115.48839 144.69734 114.87126 C 144.69734 114.69786 144.73702 114.53369 144.80792 114.38705 C 144.6871 114.37041 144.56539 114.35966 144.44412 114.34984 z M 145.07974 114.43821 C 145.0055 114.56505 144.96295 114.7131 144.96295 114.87126 C 144.96295 115.34517 145.34429 115.7265 145.8182 115.7265 C 146.00685 115.7265 146.1809 115.66589 146.32204 115.56321 C 146.34408 115.4918 146.36494 115.44073 146.36494 115.44073 C 146.36494 115.44073 146.02856 115.5209 145.66162 115.3658 C 145.50877 115.3498 145.32934 114.52038 145.32934 114.52038 C 145.24792 114.48606 145.16448 114.45939 145.07974 114.43821 z " /><path
       style="fill:#000000;stroke:none;stroke-width:0.264583px;stroke-linecap:butt;stroke-linejoin:miter;stroke-opacity:1"
       d="m 142.14399,114.79734 c 0.35962,0.0806 0.93135,0.84899 1.00961,1.0134 l -1.88114,3.74943 c 0,0 0.39772,1.75482 0.2412,1.78042 -0.15652,0.0256 -2.72572,0.96031 -2.72572,0.96031 0,0 -0.2692,-1.81947 -0.035,-2.3966 0,0 2.17021,-4.20657 3.39105,-5.10696 z"
       id="path4474"
       sodipodi:nodetypes="cccsccc" /><path
       style="fill:#000000;stroke:none;stroke-width:0.303638px;stroke-linecap:butt;stroke-linejoin:miter;stroke-opacity:1"
       d="m 143.91984,115.28323 c 0.0957,0.19102 1.54417,1.4902 1.17141,1.58043 -0.37278,0.0902 -1.96241,1.29981 -1.96241,1.29981 0,0 -0.5984,-0.5754 -0.52336,-0.69691 0.0751,-0.12152 1.00969,-2.17002 1.00969,-2.17002 z"
       id="path4476" /><path
       style="fill:#000000;stroke:none;stroke-width:0.264583px;stroke-linecap:butt;stroke-linejoin:miter;stroke-opacity:1"
       d="m 145.23509,116.93208 c -0.13689,0.0835 -2.00626,1.29589 -2.00626,1.29589 0,0 0.61232,0.56516 0.98604,0.54161 0,0 1.39248,-0.64464 1.92185,-1.3113 0,0 -0.7641,-0.5233 -0.90163,-0.5262 z"
       id="path4478"
       sodipodi:nodetypes="ccccc" /><path
       style="fill:#000000;stroke:none;stroke-width:0.264583px;stroke-linecap:butt;stroke-linejoin:miter;stroke-opacity:1"
       d="m 142.47315,117.71954 c 0.14973,0.60452 1.29928,1.12227 1.69168,1.28571 -0.002,0.32468 -0.74102,1.98691 -0.74102,1.98691 0,0 0.21854,1.10666 0.14374,1.06703 -0.0748,-0.0396 -1.63688,-0.33136 -1.6587,-0.54481 -0.0218,-0.21346 -0.36955,-1.93134 -0.36955,-1.93134 z"
       id="path4480"
       sodipodi:nodetypes="ccccccc" /><path
       style="fill:#000000;stroke:none;stroke-width:0.264583px;stroke-linecap:butt;stroke-linejoin:miter;stroke-opacity:1"
       d="m 141.77176,122.34385 c -0.19295,0.14978 -0.15854,0.69515 0.1101,0.7688 l 0.43035,0.0223 0.63701,0.6404 c 0,0 0.989,-0.3731 0.97069,-0.42644 -0.0183,-0.0533 -0.18207,-0.52548 -0.18207,-0.52548 0,0 -0.71565,-0.77137 -0.74645,-0.78504 -0.0308,-0.0137 -0.38565,-0.15048 -0.38565,-0.15048 z"
       id="path4482"
       sodipodi:nodetypes="ccccscccc" /><path
       style="fill:#000000;stroke:none;stroke-width:0.264583px;stroke-linecap:butt;stroke-linejoin:miter;stroke-opacity:1"
       d="m 143.75288,123.52593 c -0.0894,0.0475 -0.73216,0.35412 -0.73216,0.35412 l -0.4808,1.40374 c 0,0 0.12653,0.65663 0.18294,0.58981 0.0564,-0.0668 0.48026,-0.57199 0.5227,-0.65397 0.0424,-0.082 0.74727,-1.75319 0.74727,-1.75319 z"
       id="path4484" /><path
       style="fill:#000000;stroke:none;stroke-width:0.264583px;stroke-linecap:butt;stroke-linejoin:miter;stroke-opacity:1"
       d="m 144.56714,123.51812 0.0652,0.81442 c 0,0 -0.49563,1.5203 -0.85635,1.77613 l -0.31588,0.15726 c 0.0601,-0.0209 -0.40479,-0.20329 -0.60719,-0.30493 l 0.63163,-0.71009 0.704,-1.71495 -0.31691,-0.73673 z"
       id="path4486"
       sodipodi:nodetypes="ccccccccc" /><g
       id="g4530"
       transform="matrix(-1,0,0,1,277.08087,-0.3919795)"><path
         style="fill:#000000;stroke:none;stroke-width:0.264583px;stroke-linecap:butt;stroke-linejoin:miter;stroke-opacity:1"
         d="m 136.43393,122.93904 c -0.35746,0.18463 -0.18587,0.73274 -0.0252,0.75901 l 0.56565,0.0321 0.63701,0.6404 c 0,0 0.989,-0.3731 0.97069,-0.42644 -0.0183,-0.0533 -0.18207,-0.52548 -0.18207,-0.52548 0,0 -0.71565,-0.77137 -0.74645,-0.78504 -0.0308,-0.0137 -0.38565,-0.15048 -0.38565,-0.15048 z"
         id="path4482-6"
         sodipodi:nodetypes="ccccscccc" /><path
         style="fill:#000000;stroke:none;stroke-width:0.264583px;stroke-linecap:butt;stroke-linejoin:miter;stroke-opacity:1"
         d="m 138.41505,124.12112 c -0.0894,0.0475 -0.73216,0.35412 -0.73216,0.35412 l -0.4808,1.40374 c 0,0 0.12653,0.65663 0.18294,0.58981 0.0564,-0.0668 0.48026,-0.57199 0.5227,-0.65397 0.0424,-0.082 0.74727,-1.75319 0.74727,-1.75319 z"
         id="path4484-8" /><path
         style="fill:#000000;stroke:none;stroke-width:0.264583px;stroke-linecap:butt;stroke-linejoin:miter;stroke-opacity:1"
         d="m 139.22931,124.11331 0.0652,0.81442 c 0,0 -0.49563,1.5203 -0.85635,1.77613 l -0.31588,0.15726 c 0.0601,-0.0209 -0.40479,-0.20329 -0.60719,-0.30493 l 0.63163,-0.71009 0.704,-1.71495 -0.31691,-0.73673 z"
         id="path4486-8"
         sodipodi:nodetypes="ccccccccc" /></g><path
       style="fill:#000000;stroke:none;stroke-width:0.264583px;stroke-linecap:butt;stroke-linejoin:miter;stroke-opacity:1"
       d="m 142.66123,115.04023 c 0.0204,0.0243 0.53385,0.464 0.56781,0.64151 0,0 0.21754,-0.41038 0.19149,-0.42166 -0.0261,-0.0113 -0.35625,-0.32375 -0.7593,-0.21985 z"
       id="path5018"
       sodipodi:nodetypes="ccsc" /><path
       id="path5059"
       style="fill:#000000;stroke:none;stroke-width:0.264583px;stroke-linecap:butt;stroke-linejoin:miter;stroke-opacity:1"
       d="M 164.05274 112.20424 C 163.89973 112.20418 163.77862 112.21663 163.69669 112.24196 C 163.0221 112.38639 162.18051 113.08687 162.18051 113.08687 L 162.22081 113.5685 C 162.22081 113.5685 163.26296 114.3047 163.74165 115.60351 L 164.55452 115.29811 C 164.55452 115.29811 164.52896 114.49852 164.88163 114.33382 C 165.23522 114.20322 167.46132 114.28835 167.46132 114.28835 L 168.15999 113.92145 C 168.15999 113.92145 168.52737 113.52648 168.44627 113.21606 C 166.85741 112.60614 164.93055 112.20457 164.05274 112.20424 z M 163.97058 113.88889 C 164.26009 113.88889 164.49613 114.12647 164.49613 114.41599 C 164.49613 114.7055 164.26009 114.94154 163.97058 114.94154 C 163.68107 114.94154 163.44348 114.7055 163.44348 114.41599 C 163.44348 114.12647 163.68107 113.88889 163.97058 113.88889 z M 163.97058 114.10541 C 163.79774 114.10541 163.66 114.24314 163.66 114.41599 C 163.66 114.58883 163.79774 114.72656 163.97058 114.72656 C 164.14343 114.72656 164.28115 114.58883 164.28115 114.41599 C 164.28115 114.24314 164.14343 114.10541 163.97058 114.10541 z " /><path
       style="fill:#000000;stroke:none;stroke-width:0.264583px;stroke-linecap:butt;stroke-linejoin:miter;stroke-opacity:1"
       d="m 164.65699,115.52413 c -0.12845,0.0463 -0.89964,0.30157 -0.89964,0.30157 l -0.0526,0.4408 -0.64023,-0.29603 0.23052,0.95214 -0.31912,0.0129 0.0622,0.89478 c 0,0 1.54688,0.13117 1.53846,0.0784 0.14054,-0.81549 0.14149,-1.60032 0.0804,-2.38456 z"
       id="path5068"
       sodipodi:nodetypes="ccccccccc" /><path
       style="fill:#000000;stroke:none;stroke-width:0.295242px;stroke-linecap:butt;stroke-linejoin:miter;stroke-opacity:1"
       d="m 162.88276,116.88421 0.0333,0.41852 -0.22462,-0.0205 -0.16029,-0.41993 z"
       id="path5072" /><path
       id="rect5287"
       style="fill:#000000;stroke:none;stroke-width:0.264999;stroke-linecap:round;stroke-dasharray:none;stop-color:#000000"
       d="M 165.90069 114.87694 C 165.77992 114.88145 165.67758 114.95541 165.63146 115.05988 L 165.41287 115.05988 C 165.24263 115.05988 165.10591 115.1966 165.10591 115.36684 L 165.10591 116.56521 L 165.27541 116.46703 L 165.71104 115.24229 L 166.50324 115.12344 L 166.50376 115.1193 L 166.51668 115.12137 L 166.52908 115.1193 L 166.5296 115.12344 L 167.32231 115.24229 L 167.75794 116.46703 L 167.92744 116.56521 L 167.92744 115.36684 C 167.92744 115.1966 167.79021 115.05988 167.61997 115.05988 L 167.40189 115.05988 C 167.35428 114.95204 167.24662 114.87694 167.12077 114.87694 L 165.91258 114.87694 C 165.90865 114.87694 165.90459 114.8768 165.90069 114.87694 z M 166.51668 115.2888 L 165.83196 115.39061 L 165.41183 116.5802 L 165.10591 116.75641 L 165.10591 117.97598 L 165.41235 118.15219 L 165.83196 119.33972 L 166.51668 119.44359 L 167.20139 119.33972 L 167.621 118.15219 L 167.92744 117.97546 L 167.92744 116.75693 L 167.621 116.5802 L 167.20139 115.39061 L 166.51668 115.2888 z M 166.51771 115.60765 C 166.95045 115.60765 167.30268 115.95986 167.30268 116.39261 C 167.30268 116.82535 166.95045 117.17758 166.51771 117.17758 C 166.08496 117.17758 165.73068 116.82535 165.73068 116.39261 C 165.73068 115.95986 166.08496 115.60765 166.51771 115.60765 z M 166.50169 115.77353 C 166.16557 115.78195 165.89656 116.05441 165.89656 116.39261 C 165.89656 116.73618 166.17414 117.01376 166.51771 117.01376 C 166.86128 117.01376 167.13679 116.73618 167.13679 116.39261 C 167.13679 116.04904 166.86128 115.77353 166.51771 115.77353 C 166.51234 115.77353 166.50703 115.77339 166.50169 115.77353 z M 166.51771 117.56463 C 166.95045 117.56463 167.30268 117.91685 167.30268 118.3496 C 167.30268 118.78234 166.95045 119.13456 166.51771 119.13456 C 166.08496 119.13456 165.73068 118.78234 165.73068 118.3496 C 165.73068 117.91685 166.08496 117.56463 166.51771 117.56463 z M 166.51771 117.72845 C 166.17414 117.72845 165.89656 118.00603 165.89656 118.3496 C 165.89656 118.69317 166.17414 118.96868 166.51771 118.96868 C 166.86128 118.96868 167.13679 118.69317 167.13679 118.3496 C 167.13679 118.00603 166.86128 117.72845 166.51771 117.72845 z M 165.10591 118.16615 L 165.10591 119.37538 C 165.10591 119.54561 165.24263 119.68233 165.41287 119.68233 L 165.63146 119.68233 C 165.67904 119.79025 165.78667 119.86527 165.91258 119.86527 L 167.12077 119.86527 C 167.24668 119.86527 167.35431 119.79025 167.40189 119.68233 L 167.61997 119.68233 C 167.79021 119.68233 167.92744 119.54561 167.92744 119.37538 L 167.92744 118.16615 L 167.75794 118.26382 L 167.32231 119.4901 L 166.5296 119.60792 L 166.52908 119.61154 L 166.51668 119.60947 L 166.50376 119.61154 L 166.50324 119.60792 L 165.71104 119.4901 L 165.27541 118.26382 L 165.10591 118.16615 z " /><path
       id="rect5636"
       style="fill:#000000;stroke:none;stroke-width:0.169898;stroke-linecap:round;stroke-dasharray:none;stop-color:#000000"
       d="m 153.94995,121.046 c -0.39364,0.01 -0.70745,0.33047 -0.70745,0.72657 v 3.17603 c 0,0.63663 -0.13444,0.72658 0.72656,0.72658 h 0.29301 v -1.32395 c 6.1e-4,-0.10073 0.0827,-0.18192 0.18345,-0.18139 0.10013,3.2e-4 0.1813,0.0813 0.18191,0.18139 v 1.32395 h 0.30076 v -1.32395 c 6.1e-4,-0.0999 0.0814,-0.18077 0.18137,-0.18139 0.10073,-5.3e-4 0.18284,0.0807 0.18345,0.18139 v 1.32395 h 0.30077 v -1.32395 c 6.1e-4,-0.10012 0.0818,-0.18106 0.18189,-0.18139 0.0999,6.1e-4 0.18077,0.0815 0.18138,0.18139 v 1.32395 h 0.29301 c 0.80137,0 0.72658,-0.0132 0.72658,-0.72658 v -3.17603 c 0,-0.40239 -0.32419,-0.72657 -0.72658,-0.72657 h -2.281 c -0.006,0 -0.0129,-1.6e-4 -0.0191,0 z"
       sodipodi:nodetypes="sssscccccccccccccccsssssss" /><path
       id="path6158"
       style="fill:#000000;stroke:none;stroke-width:0.264583px;stroke-linecap:butt;stroke-linejoin:miter;stroke-opacity:1"
       d="m 152.79586,134.43402 c -0.19377,0.12545 -0.29611,1.80609 -0.29611,1.80609 0.17217,0.15583 5.08053,0.16285 5.33973,0 0,0 -0.14729,-1.61122 -0.3483,-1.80609 -0.1431,0.10407 -3.99072,0.17994 -4.69532,0 z m 0.42323,0.4377 c 0.11766,-1.9e-4 0.2131,0.0952 0.21291,0.2129 -10e-5,0.11746 -0.0954,0.21258 -0.21291,0.21239 -0.11726,-1e-4 -0.21229,-0.0951 -0.21239,-0.21239 -1.9e-4,-0.11746 0.0949,-0.2128 0.21239,-0.2129 z m 3.89279,0 c 0.11746,1e-4 0.21258,0.0954 0.21239,0.2129 -1e-4,0.11726 -0.0951,0.21229 -0.21239,0.21239 -0.11746,1.9e-4 -0.21281,-0.0949 -0.21291,-0.21239 -1.9e-4,-0.11766 0.0953,-0.21309 0.21291,-0.2129 z m -2.26405,0.10106 h 4e-4 c 0.003,-6e-5 0.007,0 0.0107,0 h 0.64988 c 0.11716,0 0.21161,0.0355 0.21161,0.0794 v 0.19255 h 0.23661 c 0.11715,0 0.21159,0.035 0.21159,0.079 v 0.21557 c 0,0.0439 -0.0944,0.0794 -0.21159,0.0794 h -0.23661 v 0.13339 c 0,0.0439 -0.0945,0.0794 -0.21161,0.0794 h -0.64988 c -0.11716,0 -0.2112,-0.0355 -0.2112,-0.0794 v -0.13339 h -0.23701 c -0.11716,0 -0.2116,-0.0354 -0.2116,-0.0794 v -0.21557 c 0,-0.0426 0.0884,-0.0767 0.20048,-0.079 0.004,-7e-5 0.008,0 0.0115,0 h 0.23661 v -0.19255 c 0,-0.0425 0.0882,-0.0794 0.20008,-0.0794 z m -1.64683,0.52573 c 0.11767,-1.9e-4 0.2131,0.0952 0.21291,0.21291 -10e-5,0.11746 -0.0954,0.21258 -0.21291,0.21239 -0.11726,-1e-4 -0.21229,-0.0951 -0.21239,-0.21239 -1.9e-4,-0.11746 0.0949,-0.21281 0.21239,-0.21291 z m 3.93671,0 c 0.11746,1e-4 0.21258,0.0954 0.21239,0.21291 -1e-4,0.11726 -0.0951,0.21229 -0.21239,0.21239 -0.11726,-1e-4 -0.21229,-0.0951 -0.21239,-0.21239 -1.9e-4,-0.11746 0.0949,-0.21281 0.21239,-0.21291 z"
       sodipodi:nodetypes="cccccccccccccccccssscsssscsssscssscscssccccccccccc" /><path
       id="rect6162"
       style="fill:#000000;stroke:none;stroke-width:0.365001;stroke-linecap:round;stroke-dasharray:none;stop-color:#000000"
       d="m 157.92547,135.63073 c 0.0851,0.1116 0.0875,0.65162 0.0574,0.70642 -0.0758,0.13815 -1.42679,0.1142 -1.42679,0.1142 0.0583,0.17939 -0.0326,0.71059 -0.0491,0.74569 0.37475,-0.002 0.9101,-0.0252 0.9834,0.30231 l 0.2155,-0.006 c 0.007,0.0698 0.0657,0.12402 0.13745,0.12402 h 0.7457 c 0.0768,0 0.13849,-0.0623 0.13849,-0.13901 0,-0.004 -1.7e-4,-0.008 -5.2e-4,-0.0119 l 0.30644,-0.008 c -9.1e-4,0.006 -0.002,0.0129 -0.002,0.0196 0,0.0768 0.0622,0.13901 0.13901,0.13901 h 0.74517 c 0.0768,0 0.13849,-0.0623 0.13849,-0.13901 0,-0.0164 -0.003,-0.0319 -0.008,-0.0465 l 0.14108,-0.004 c 0,0 0.15106,-0.32344 0.0186,-0.49247 l -0.38292,-0.20102 -0.12971,-0.42789 c 0,0 -0.84554,-0.571 -1.76785,-0.67644 z m -5.71379,0.0903 c -0.92231,0.10544 -1.76785,0.67645 -1.76785,0.67645 l -0.12971,0.42788 -0.38292,0.20102 c -0.13246,0.16903 0.0186,0.49248 0.0186,0.49248 l 0.14108,0.004 c -0.005,0.0145 -0.008,0.0301 -0.008,0.0465 0,0.0767 0.0617,0.13901 0.13849,0.13901 h 0.74518 c 0.0768,0 0.13901,-0.0622 0.13901,-0.13901 0,-0.007 -0.001,-0.0136 -0.002,-0.0196 l 0.30644,0.008 c -3.5e-4,0.004 -5.2e-4,0.008 -5.2e-4,0.0119 0,0.0767 0.0617,0.13901 0.1385,0.13901 h 0.74569 c 0.0718,0 0.13046,-0.0542 0.13746,-0.12402 l 0.21549,0.006 c 0.0733,-0.32751 0.60865,-0.30483 0.9834,-0.30283 -0.0165,-0.0351 -0.10739,-0.5663 -0.0491,-0.74569 0,0 -1.35099,0.0245 -1.42679,-0.11369 -0.0301,-0.0548 -0.0277,-0.59481 0.0574,-0.70641 z m 1.60086,0.80942 c -0.0634,0.39696 0.23461,1.46192 0.23461,1.46192 0.0857,0.11708 1.90394,0.0563 2.02055,0 0,0 0.24607,-1.25849 0.15917,-1.46192 z m -0.33789,1.02303 c -0.18579,0 -0.27604,0.15931 -0.33538,0.33538 l -0.22125,0.65645 c -0.0593,0.17607 0.14959,0.33538 0.33538,0.33538 h 3.70934 c 0.1858,0 0.33538,-0.14958 0.33538,-0.33538 v -0.67231 c 0,-0.1858 -0.14958,-0.33538 -0.33538,-0.33538 h -0.57051 c -0.0469,0.28954 -0.093,0.52503 -0.093,0.52503 l -0.0119,0.0641 -0.0605,0.0295 c -0.0359,0.0175 -0.0524,0.0167 -0.078,0.0217 -0.0256,0.005 -0.0536,0.007 -0.0879,0.0114 -0.0687,0.008 -0.15612,0.0157 -0.25786,0.0217 -0.20347,0.0127 -0.46299,0.0234 -0.72089,0.0274 -0.2579,0.004 -0.51479,0.003 -0.71675,-0.008 -0.10097,-0.005 -0.18749,-0.0139 -0.25786,-0.0253 -0.0352,-0.006 -0.0654,-0.0112 -0.0956,-0.0212 -0.0302,-0.01 -0.0644,-0.0148 -0.10387,-0.0687 l -0.0134,-0.0196 -0.008,-0.0233 c 0,0 -0.0659,-0.23614 -0.13178,-0.53433 z"
       sodipodi:nodetypes="ccccccsssccsssscccccccccccccssssccssscccccccccccccssssssscccssccsccsccccc" /><path
       id="path6803-3"
       style="fill:#000000;stroke:none;stroke-width:0.264583px;stroke-linecap:butt;stroke-linejoin:miter;stroke-opacity:1"
       d="M 148.97356 121.34942 C 148.242 121.55727 147.97362 125.30938 147.97362 125.30938 C 148.10351 125.6871 148.61941 126.06192 149.1813 126.36461 C 149.194 126.25458 149.20826 126.14091 149.22626 126.03854 C 149.24536 125.92998 149.26576 125.8401 149.30016 125.7631 C 149.53058 125.11422 149.89667 124.82705 150.2417 124.81535 L 150.2417 124.81587 C 150.2586 124.81539 150.27544 124.81565 150.29234 124.81639 L 150.29234 124.81587 C 150.65249 124.83182 150.9392 125.1286 150.9507 125.47423 L 150.9507 125.4887 L 150.94863 125.49955 C 150.95111 125.48995 150.9478 125.5357 150.94812 125.5843 C 150.94812 125.6361 150.94925 125.70472 150.95225 125.78532 C 150.95725 125.94658 150.96651 126.15397 150.97551 126.35583 C 150.98701 126.60708 150.99748 126.81391 151.00548 126.96354 C 151.45638 126.6833 151.93876 125.72486 151.93876 125.72486 C 151.89476 125.65266 151.63127 124.26308 151.17394 124.05364 L 149.98384 123.48107 C 149.81833 123.31596 149.86343 121.87445 149.86343 121.87445 L 148.97356 121.34993 L 148.97356 121.34942 z M 151.21942 121.9561 L 150.02311 122.19949 C 150.02753 122.62219 150.05287 123.14051 150.14817 123.23561 L 151.32484 123.80198 L 151.21942 121.9561 z M 146.19027 124.90475 L 145.98408 125.15952 L 147.28374 125.37501 L 147.15972 125.05668 L 146.19027 124.90475 z M 144.74281 124.91096 C 144.72386 124.91092 144.70689 124.91121 144.68959 124.91147 C 144.64294 125.03941 144.589 125.18238 144.52525 125.3378 C 144.43964 125.54654 144.34097 125.76369 144.24 125.94913 C 144.21752 125.99042 144.19561 126.02923 144.17334 126.06696 C 144.16202 126.34198 144.1618 126.58548 144.13458 126.68707 L 144.96399 126.82195 C 144.96399 126.82195 144.43171 128.66336 144.07774 130.07601 C 144.20315 130.08221 144.32796 130.08813 144.46324 130.09513 C 144.85494 130.11553 145.22289 130.13441 145.22289 130.13441 L 145.29885 130.14061 L 146.0218 131.55654 L 144.02658 132.4738 C 144.31099 133.20547 144.73661 134.14295 144.73661 134.14295 C 144.54147 134.35921 144.11324 135.46061 144.08704 135.53511 C 143.96292 135.88711 144.32423 136.2839 144.32423 136.2839 C 144.47728 136.50422 145.52778 136.42033 145.52778 136.42033 L 145.9815 135.95989 L 147.41603 135.97436 L 148.46041 134.97184 L 147.69095 130.66254 C 147.69095 130.66254 146.72168 130.78675 146.38922 130.70905 C 146.49118 130.25588 146.2869 125.74966 146.2869 125.74966 L 145.61459 124.95385 C 145.61459 124.95385 145.06739 124.91217 144.74281 124.91147 L 144.74281 124.91096 z M 151.93617 125.00759 L 151.87778 125.15022 C 151.87778 125.15022 152.00127 125.4389 152.03487 125.56983 C 152.06847 125.70078 152.03192 125.7649 151.99612 125.88867 C 152.3222 125.77303 152.3346 125.67112 152.3346 125.67112 L 151.93617 125.00759 z M 150.2603 125.08097 C 150.04497 125.08204 149.76211 125.24907 149.54872 125.85302 L 149.54665 125.85922 L 149.54252 125.86542 C 149.53052 125.89076 149.50604 125.98181 149.48774 126.08608 C 149.46934 126.19035 149.45372 126.31253 149.44072 126.42973 C 149.43772 126.45233 149.436 126.47284 149.434 126.49484 C 149.9694 126.7585 150.50051 126.94942 150.74296 127.00902 C 150.73496 126.86664 150.72269 126.64593 150.70989 126.3672 C 150.70069 126.16464 150.69215 125.95884 150.68715 125.79514 C 150.68415 125.71329 150.68339 125.64197 150.68302 125.58637 C 150.68302 125.54257 150.68415 125.51646 150.68715 125.48456 C 150.68051 125.28427 150.4986 125.092 150.28098 125.082 C 150.27898 125.08193 150.27781 125.08158 150.27581 125.08149 L 150.27581 125.08097 L 150.27529 125.08097 C 150.27365 125.08092 150.27244 125.08101 150.27064 125.08097 C 150.26734 125.08087 150.2633 125.08095 150.2603 125.08097 z M 146.43315 125.37398 L 146.64399 125.6985 L 146.68378 128.93758 C 147.2638 129.09034 149.22006 128.84043 149.22006 128.84043 C 149.74275 128.72049 150.59103 127.20125 150.59103 127.20125 C 147.85903 126.43731 147.66873 125.57551 147.66873 125.57551 L 146.43315 125.37398 z M 150.22155 125.42669 A 0.27247697 0.27247697 0 0 1 150.49388 125.69954 A 0.27247697 0.27247697 0 0 1 150.22155 125.97136 A 0.27247697 0.27247697 0 0 1 149.9487 125.69954 A 0.27247697 0.27247697 0 0 1 150.22155 125.42669 z M 149.7916 126.11088 A 0.176135 0.176135 0 0 1 149.96782 126.28762 A 0.176135 0.176135 0 0 1 149.7916 126.46332 A 0.176135 0.176135 0 0 1 149.6159 126.28762 A 0.176135 0.176135 0 0 1 149.7916 126.11088 z M 150.33265 126.23852 A 0.2158682 0.2158682 0 0 1 150.54814 126.45505 A 0.2158682 0.2158682 0 0 1 150.33265 126.67105 A 0.2158682 0.2158682 0 0 1 150.11664 126.45505 A 0.2158682 0.2158682 0 0 1 150.33265 126.23852 z M 146.65432 129.12569 C 146.70302 129.20179 146.63934 130.52663 146.63934 130.52663 C 146.94704 130.55023 147.46358 130.48891 147.46358 130.48891 L 147.41552 129.15669 L 146.65432 129.12569 z M 144.01262 130.33801 C 143.89298 130.82938 143.80298 131.24549 143.77698 131.47541 C 143.77224 131.67141 143.83743 131.93857 143.93563 132.22524 L 145.66214 131.432 L 145.13297 130.39641 C 145.06968 130.39341 144.80123 130.37802 144.44929 130.35972 C 144.29822 130.35182 144.15209 130.34501 144.01262 130.33801 z M 148.5524 130.50028 L 147.83926 130.54369 L 148.63405 135.06124 L 150.40965 134.71708 C 150.43965 134.37909 150.04561 131.49191 149.69186 131.27336 C 149.60596 131.22026 148.96168 131.22478 148.96168 131.22478 L 148.5524 130.50028 z M 146.76336 132.92649 C 146.76776 132.92611 146.77185 132.92643 146.77628 132.92649 C 146.83056 132.92679 146.87905 132.96022 146.89875 133.01072 C 146.92559 133.07865 146.89224 133.15549 146.82434 133.18229 L 145.40065 133.75279 C 145.33258 133.77997 145.25537 133.74658 145.22857 133.67838 C 145.20175 133.61046 145.23508 133.53371 145.30298 133.50681 L 146.7246 132.93631 C 146.7369 132.93106 146.75017 132.92763 146.76336 132.92649 z M 147.04913 133.70318 C 147.06643 133.70318 147.08367 133.70652 147.09977 133.71352 C 147.13187 133.72742 147.15715 133.75347 147.17005 133.78587 C 147.19861 133.85452 147.16494 133.93322 147.09564 133.96002 L 145.67402 134.52794 C 145.60566 134.55618 145.52739 134.52284 145.50039 134.45404 C 145.4732 134.38612 145.50629 134.30906 145.57429 134.28196 L 146.99797 133.71352 C 147.01427 133.70652 147.03163 133.70303 147.04913 133.70318 z M 150.16574 134.87831 C 150.06389 134.87831 148.78959 135.22454 148.78959 135.22454 L 147.66925 136.2467 C 147.66925 136.2467 147.82515 136.9927 147.9359 137.32053 L 147.9359 137.63059 C 147.9359 137.67729 147.97343 137.71534 148.02013 137.71534 L 149.43968 137.71534 C 149.45038 137.64564 149.47628 137.57397 149.52908 137.50657 L 149.55234 137.47556 L 149.61797 137.44094 L 149.58541 137.36963 C 149.58541 137.36963 149.53916 137.27236 149.51306 137.1469 C 149.487 137.02146 149.46764 136.84352 149.58954 136.68801 L 149.6128 136.65701 L 149.96213 136.47356 L 150.08926 136.05756 L 150.14197 136.02035 C 150.14197 136.02035 150.46916 135.79723 150.94915 135.59868 C 150.54205 135.2254 150.16574 134.87831 150.16574 134.87831 z M 146.01405 136.22913 L 145.21462 137.08024 L 145.21462 137.13553 L 145.11798 137.13553 C 145.07128 137.13553 145.03323 137.17255 145.03323 137.21925 L 145.03323 137.63059 C 145.03323 137.67729 145.07128 137.71431 145.11798 137.71431 L 147.56486 137.71431 C 147.61156 137.71431 147.64961 137.67729 147.64961 137.63059 L 147.64961 137.21925 C 147.64961 137.17255 147.61156 137.13553 147.56486 137.13553 L 147.46823 137.13553 L 147.46823 136.8601 L 147.08841 136.22964 L 146.01405 136.22913 z M 143.83176 136.30354 L 142.95222 136.84924 C 142.83615 136.89118 142.83415 137.14258 142.84215 137.27971 L 142.8158 137.27971 C 142.7691 137.27971 142.73105 137.31724 142.73105 137.36394 L 142.73105 137.63008 C 142.73105 137.67678 142.7691 137.71482 142.8158 137.71482 L 144.71439 137.71482 C 144.76109 137.71482 144.79862 137.67678 144.79862 137.63008 L 144.79862 137.36394 C 144.79862 137.31724 144.76109 137.27971 144.71439 137.27971 L 144.49993 137.27971 L 145.03737 136.69111 L 144.17799 136.57846 L 143.83176 136.30354 z " /><path
       id="rect3564"
       style="fill:#000000;stroke:none;stroke-width:0.300422;stroke-linecap:round;stop-color:#000000"
       d="m 168.12745,116.01206 c -0.0427,0.004 -0.0754,0.0404 -0.0754,0.0842 v 0.12712 c -1.9e-4,0.004 0,0.008 0,0.0114 v 2.27273 c 0,0.004 -1.9e-4,0.008 0,0.0114 v 0.12712 c 0,0.0467 0.0375,0.0842 0.0842,0.0842 h 0.12713 0.10438 0.008 0.0434 c 0.12346,0 0.22273,-0.0993 0.22273,-0.22272 v -2.27273 c 0,-0.12346 -0.0993,-0.22273 -0.22273,-0.22273 h -0.0434 -0.008 -0.10438 -0.12713 c -0.003,0 -0.006,-2.8e-4 -0.009,0 z" /></g></svg>
