<?xml version="1.0" encoding="UTF-8" standalone="no"?>
<!-- Created with Inkscape (http://www.inkscape.org/) -->

<svg
   sodipodi:docname="Poseidon.svg"
   inkscape:version="1.2.2 (b0a8486541, 2022-12-01)"
   id="svg8"
   version="1.1"
   viewBox="0 0 34.98301 52.516205"
   height="52.516205mm"
   width="34.983009mm"
   xml:space="preserve"
   xmlns:inkscape="http://www.inkscape.org/namespaces/inkscape"
   xmlns:sodipodi="http://sodipodi.sourceforge.net/DTD/sodipodi-0.dtd"
   xmlns="http://www.w3.org/2000/svg"
   xmlns:svg="http://www.w3.org/2000/svg"
   xmlns:rdf="http://www.w3.org/1999/02/22-rdf-syntax-ns#"
   xmlns:cc="http://creativecommons.org/ns#"
   xmlns:dc="http://purl.org/dc/elements/1.1/"><defs
     id="defs2" /><sodipodi:namedview
     id="base"
     pagecolor="#ffffff"
     bordercolor="#666666"
     borderopacity="1.0"
     inkscape:pageopacity="0.0"
     inkscape:pageshadow="2"
     inkscape:zoom="2.8284271"
     inkscape:cx="109.248"
     inkscape:cy="98.287843"
     inkscape:document-units="mm"
     inkscape:current-layer="layer1"
     showgrid="false"
     inkscape:window-width="796"
     inkscape:window-height="773"
     inkscape:window-x="1191"
     inkscape:window-y="1136"
     inkscape:window-maximized="0"
     inkscape:snap-global="false"
     fit-margin-top="0"
     fit-margin-left="0"
     fit-margin-right="0"
     fit-margin-bottom="0"
     showguides="false"
     inkscape:guide-bbox="true"
     inkscape:showpageshadow="2"
     inkscape:pagecheckerboard="0"
     inkscape:deskcolor="#d1d1d1" /><metadata
     id="metadata5"><rdf:RDF><cc:Work
         rdf:about=""><dc:format>image/svg+xml</dc:format><dc:type
           rdf:resource="http://purl.org/dc/dcmitype/StillImage" /><dc:title /></cc:Work></rdf:RDF></metadata><g
     inkscape:label="Capa 1"
     inkscape:groupmode="layer"
     id="layer1"
     transform="translate(-135.48963,-99.590537)"><path
       id="rect4742"
       style="fill:#000000;stroke:none;stroke-width:0.264999;stroke-linecap:round;stroke-dasharray:none;stop-color:#000000"
       d="m 140.38856,120.83478 c -0.0869,0.002 -0.17039,0.0467 -0.21808,0.12712 l -0.52917,0.89297 c -0.002,0.003 -0.005,0.007 -0.008,0.0114 -0.0402,0.0765 -0.0382,0.16456 -0.002,0.23719 l -0.0806,0.1354 c -0.11682,-0.0137 -0.23569,0.0408 -0.29972,0.14882 l -0.0253,0.0429 -0.4868,-0.0692 -1.90324,3.22306 0.39119,0.63665 -0.0331,0.0558 c -0.0868,0.14643 -0.0384,0.33436 0.108,0.42116 l 0.41806,0.24805 c 0.14646,0.0868 0.33439,0.0385 0.42117,-0.108 l 0.078,-0.13126 c 0.009,-0.18584 0.0305,-0.35127 0.0687,-0.47594 -0.0242,-0.0336 -0.0555,-0.0628 -0.0935,-0.0853 l -0.41857,-0.24804 c -0.1052,-0.0624 -0.23096,-0.0546 -0.32608,0.008 l -0.1788,-0.34933 1.69343,-2.85719 0.11317,0.009 c -0.0291,0.0924 -0.0124,0.19248 0.0424,0.26975 l -0.0992,0.16692 c -0.0698,5e-5 -0.13745,0.0356 -0.1757,0.10025 l -0.006,0.009 c -0.0333,0.0624 -0.03,0.13446 0.002,0.19275 l -0.0419,0.0708 c -0.0698,5e-5 -0.13745,0.0351 -0.1757,0.0997 l -0.006,0.009 c -0.0333,0.0624 -0.0307,0.13446 0.002,0.19276 l -0.0418,0.0708 c -0.0697,5e-5 -0.13746,0.0347 -0.1757,0.0992 l -0.006,0.009 c -0.0333,0.0625 -0.03,0.13446 0.002,0.19276 l -0.0424,0.0708 c -0.0697,4e-5 -0.13693,0.0352 -0.17518,0.0997 l -0.006,0.009 c -0.0333,0.0624 -0.03,0.13445 0.002,0.19276 l -0.0419,0.0708 c -0.0698,4e-5 -0.13798,0.0356 -0.17622,0.10026 -0.002,0.003 -0.004,0.006 -0.006,0.008 -0.0333,0.0624 -0.03,0.13497 0.002,0.19327 l -0.0424,0.0708 c -0.0698,5e-5 -0.13744,0.0352 -0.1757,0.0997 -0.002,0.003 -0.004,0.006 -0.006,0.008 -0.0333,0.0624 -0.0306,0.13496 0.002,0.19327 l -0.0124,0.0207 c -0.11555,0.19497 -0.0513,0.44463 0.14367,0.56017 l 0.24701,0.14677 c 0.0751,0.0445 0.15819,0.0622 0.23874,0.0563 0.18795,-0.36083 1.81386,-3.45287 2.98432,-4.6948 -0.0184,-0.0361 -0.0453,-0.0682 -0.0801,-0.093 -0.0256,-0.10221 -0.0905,-0.19453 -0.18862,-0.2527 l -0.24701,-0.14624 c -0.0981,-0.0582 -0.21031,-0.0711 -0.31213,-0.0444 -0.0376,-0.0181 -0.0778,-0.0261 -0.1173,-0.0253 z m -3.17449,5.90248 c -0.1,-0.004 -0.19846,0.0461 -0.25321,0.13849 l -0.4346,0.73329 c -0.0796,0.13436 -0.0361,0.44434 0.0982,0.524 l 0.15555,0.092 c 0.13436,0.0796 0.45522,-0.0137 0.53485,-0.14831 l 0.4346,-0.7338 c 0.0796,-0.13437 0.0357,-0.30691 -0.0987,-0.38654 l -0.30334,-0.17984 c -0.042,-0.0249 -0.0879,-0.0375 -0.13333,-0.0393 z" /><path
       id="path6803"
       style="fill:#000000;stroke:none;stroke-width:0.264583px;stroke-linecap:butt;stroke-linejoin:miter;stroke-opacity:1"
       d="m 160.99143,127.75425 -0.88987,0.52452 c 0,0 0.0451,1.44151 -0.1204,1.60662 l -1.19011,0.57257 c -0.45733,0.20944 -0.72081,1.59902 -0.76481,1.67122 0,0 0.48238,0.95844 0.93328,1.23868 0.008,-0.14963 0.0185,-0.35646 0.03,-0.60771 0.009,-0.20186 0.0183,-0.40925 0.0233,-0.57051 0.003,-0.0806 0.004,-0.14922 0.004,-0.20102 3.2e-4,-0.0486 -0.003,-0.0943 -5.2e-4,-0.0847 l -0.002,-0.0109 v -0.014 c 0.0115,-0.34563 0.29821,-0.6424 0.65836,-0.65835 v 5.1e-4 c 0.0169,-7.4e-4 0.0337,-0.001 0.0506,-5.1e-4 v -5.2e-4 c 0.34503,0.0117 0.71113,0.29888 0.94155,0.94774 0.0344,0.077 0.0548,0.16688 0.0739,0.27544 0.018,0.10238 0.0324,0.21605 0.045,0.32608 0.56189,-0.30269 1.07779,-0.67751 1.20768,-1.05523 0,0 -0.26838,-3.75212 -0.99994,-3.95997 z m -2.24586,0.60617 -0.10542,1.84588 1.17668,-0.56638 c 0.0953,-0.0951 0.12063,-0.6134 0.12505,-1.03611 z m 5.02916,2.94865 -0.96945,0.15245 -0.12403,0.31781 1.29966,-0.21549 z m 1.44745,0.006 v 5.2e-4 c -0.32458,7e-4 -0.87178,0.0424 -0.87178,0.0424 l -0.67231,0.79581 c 0,0 -0.20428,4.50622 -0.10232,4.95939 -0.33246,0.0777 -1.30173,-0.0465 -1.30173,-0.0465 l -0.76946,4.3093 1.04438,1.00252 1.43454,-0.0145 0.45372,0.46044 c 0,0 1.05049,0.0839 1.20354,-0.13643 0,0 0.36132,-0.39679 0.2372,-0.74879 -0.0262,-0.0745 -0.45444,-1.1759 -0.64958,-1.39216 0,0 0.42563,-0.93748 0.71004,-1.66915 l -1.99523,-0.91726 0.72295,-1.41593 0.076,-0.006 c 0,0 0.36794,-0.0189 0.75964,-0.0393 0.13528,-0.007 0.2601,-0.0129 0.38551,-0.0191 -0.35397,-1.41266 -0.88625,-3.25406 -0.88625,-3.25406 l 0.8294,-0.13488 c -0.0737,-0.27508 0.0516,-1.58836 -0.38602,-1.7601 -0.0302,-0.0118 -0.11401,-0.0162 -0.22221,-0.016 z m -7.19336,0.0972 -0.39842,0.66352 c 0,0 0.0124,0.10192 0.33848,0.21756 -0.0358,-0.12377 -0.0724,-0.18791 -0.0388,-0.31884 0.0336,-0.13093 0.1571,-0.41962 0.1571,-0.41962 z m 1.66037,0.0734 c -0.002,9e-5 -0.003,4.4e-4 -0.005,5.1e-4 -0.21763,0.01 -0.39954,0.20227 -0.40618,0.40256 0.003,0.0319 0.004,0.058 0.004,0.1018 -3.7e-4,0.0556 -0.001,0.12693 -0.004,0.20878 -0.005,0.1637 -0.0135,0.3695 -0.0227,0.57206 -0.0128,0.27873 -0.0251,0.49944 -0.0331,0.64182 0.24245,-0.0597 0.77357,-0.25052 1.30897,-0.51418 -0.002,-0.022 -0.004,-0.0425 -0.007,-0.0651 -0.013,-0.1172 -0.0286,-0.23937 -0.047,-0.34364 -0.0183,-0.10427 -0.0428,-0.19532 -0.0548,-0.22066 l -0.004,-0.006 -0.002,-0.006 c -0.21339,-0.60395 -0.49625,-0.77097 -0.71158,-0.77204 -0.003,-2e-5 -0.007,-1e-4 -0.0103,0 -0.002,4e-5 -0.003,-1e-4 -0.005,0 z m 3.84266,0.293 -1.23559,0.20102 c 0,0 -0.19029,0.86179 -2.9223,1.62574 0,0 0.84829,1.51976 1.37098,1.6397 0,0 1.95626,0.24943 2.53628,0.0966 l 0.0398,-3.23908 z m -3.7884,0.0522 a 0.27247697,0.27247697 0 0 1 0.27285,0.27286 0.27247697,0.27247697 0 0 1 -0.27285,0.27233 0.27247697,0.27247697 0 0 1 -0.27234,-0.27233 0.27247697,0.27247697 0 0 1 0.27234,-0.27286 z m 0.42994,0.68472 a 0.176135,0.176135 0 0 1 0.1757,0.17621 0.176135,0.176135 0 0 1 -0.1757,0.17622 0.176135,0.176135 0 0 1 -0.17621,-0.17622 0.176135,0.176135 0 0 1 0.17621,-0.17621 z m -0.54105,0.12764 a 0.2158682,0.2158682 0 0 1 0.21601,0.21601 0.2158682,0.2158682 0 0 1 -0.21601,0.216 0.2158682,0.2158682 0 0 1 -0.21549,-0.216 0.2158682,0.2158682 0 0 1 0.21549,-0.21601 z m 3.67833,2.88768 -0.76119,0.03 -0.0481,1.33222 c 0,0 0.51654,0.0624 0.82424,0.0388 0,0 -0.0637,-1.32485 -0.015,-1.40095 z m 2.6417,1.21129 c -0.13947,0.007 -0.2856,0.0138 -0.43667,0.0217 -0.35194,0.0183 -0.62039,0.0337 -0.68367,0.0367 l -0.52917,1.03559 1.72651,0.79324 c 0.0982,-0.28667 0.16338,-0.55382 0.15864,-0.74983 -0.026,-0.22992 -0.116,-0.64603 -0.23564,-1.1374 z m -4.53977,0.16278 -0.40928,0.72451 c 0,0 -0.64429,-0.004 -0.73019,0.0486 -0.35375,0.21855 -0.74779,3.10521 -0.71779,3.4432 l 1.77561,0.34469 0.79478,-4.51808 z m 1.77611,2.4257 c 0.0177,-2.1e-4 0.0353,0.003 0.0517,0.0103 l 1.42162,0.57051 c 0.0679,0.0269 0.10121,0.10364 0.0744,0.17156 -0.0268,0.0682 -0.10401,0.10158 -0.17208,0.0744 l -1.42368,-0.57051 c -0.0679,-0.0268 -0.10124,-0.10364 -0.0744,-0.17157 0.0197,-0.0505 0.0682,-0.0839 0.12247,-0.0842 z m -0.27285,0.77721 c 0.0175,-1.5e-4 0.0349,0.003 0.0512,0.0103 l 1.42369,0.56844 c 0.068,0.0271 0.10109,0.10417 0.0739,0.17209 -0.027,0.0688 -0.10528,0.10213 -0.17364,0.0739 l -1.42162,-0.56792 c -0.0693,-0.0268 -0.10295,-0.1055 -0.0744,-0.17415 0.0129,-0.0324 0.0382,-0.0584 0.0703,-0.0724 0.0161,-0.007 0.0333,-0.0103 0.0506,-0.0103 z m -3.1166,1.17512 c 0,0 -0.37632,0.34657 -0.78342,0.71985 0.47999,0.19856 0.80719,0.4222 0.80719,0.4222 l 0.0527,0.0372 0.12712,0.41599 0.34934,0.18345 0.0232,0.0315 c 0.1219,0.15551 0.10256,0.33344 0.0765,0.45888 -0.0261,0.12546 -0.0724,0.22273 -0.0724,0.22273 l -0.0326,0.0713 0.0656,0.0346 0.0233,0.031 c 0.0528,0.0674 0.0787,0.13907 0.0894,0.20877 h 1.41955 c 0.0467,0 0.0842,-0.038 0.0842,-0.0847 v -0.31005 c 0.11075,-0.32783 0.26665,-1.07436 0.26665,-1.07436 l -1.12035,-1.02216 c 0,0 -1.27429,-0.34623 -1.37614,-0.34623 z m 3.07733,1.35082 -0.37982,0.63046 v 0.27595 h -0.0966 c -0.0467,0 -0.0847,0.037 -0.0847,0.0837 v 0.41135 c 0,0.0467 0.038,0.0842 0.0847,0.0842 h 2.44688 c 0.0467,0 0.0847,-0.0375 0.0847,-0.0842 v -0.41135 c 0,-0.0467 -0.038,-0.0837 -0.0847,-0.0837 h -0.0966 v -0.0553 l -0.79944,-0.85111 z m 3.25665,0.0749 -0.34623,0.27492 -0.85938,0.11266 0.53743,0.58859 h -0.21446 c -0.0467,0 -0.0842,0.0375 -0.0842,0.0842 v 0.26614 c 0,0.0467 0.0375,0.0848 0.0842,0.0848 h 1.8986 c 0.0467,0 0.0847,-0.038 0.0847,-0.0848 v -0.26614 c 0,-0.0467 -0.038,-0.0842 -0.0847,-0.0842 h -0.0264 c 0.008,-0.13713 0.006,-0.38852 -0.11007,-0.43046 z" /><path
       id="path5575"
       style="fill:#000000;stroke:none;stroke-width:0.264583px;stroke-linecap:butt;stroke-linejoin:miter;stroke-opacity:1"
       d="m 153.09889,125.93162 -0.27182,0.58963 h -1.13533 l -0.14676,0.045 c -0.30129,0.52511 0,3.44785 0,3.44785 -0.0308,0.60502 1.3348,2.312 1.3348,2.312 l -0.0176,-0.62011 v -3.82302 c 0,-0.47673 0.37785,-0.86237 0.85163,-0.87437 0.007,-1.9e-4 0.0163,0 0.0233,0 h 2.74505 c 0.4843,0 0.87436,0.39007 0.87436,0.87437 v 3.82302 c 0,0.0869 -0.0123,0.17049 -0.0356,0.24959 0.39791,-0.53653 1.07291,-1.51351 1.05109,-1.94148 0,0 0.30129,-2.92274 0,-3.44785 l -0.14676,-0.045 h -1.13584 l -0.27131,-0.58963 h -1.85983 z"
       sodipodi:nodetypes="cccccccsssssscccccccc" /><path
       id="rect5889"
       style="fill:#000000;stroke-width:0.116;stroke-linecap:round;stop-color:#000000"
       d="m 153.19501,132.09145 v 0.82838 c 0,0.0962 0.066,0.17325 0.15606,0.18965 l 0.0682,0.0114 v 1.14877 c 0.004,0.002 0.004,0.002 0.0103,0.004 0.0135,0.005 0.0326,0.01 0.0553,0.0134 0.0207,-0.005 0.0426,-0.008 0.0656,-0.008 0.0232,0 0.0459,0.003 0.0672,0.008 0.0219,-0.004 0.0406,-0.009 0.0538,-0.014 0.006,-0.002 0.007,-0.002 0.0103,-0.004 v -1.14877 l 0.0682,-0.0114 c 0.09,-0.0164 0.15813,-0.0934 0.15813,-0.18965 v -0.83561 c -0.35256,0.002 -0.40507,-0.009 -0.71313,0.007 z m 0.87747,-0.007 v 0.79582 c 0.0152,-0.0241 0.0306,-0.0477 0.0465,-0.0713 h -0.0372 l 0.40256,-0.69556 0.017,-0.0289 z m 1.56837,0 0.41962,0.7245 h -0.0372 c 0.1328,0.19713 0.24801,0.41003 0.24805,0.65009 -3e-5,0.21195 -0.0553,0.41129 -0.15193,0.58446 v 1.56433 h -0.83819 v 1.08342 h -0.46457 v -1.08342 h -0.83613 v -1.64856 c -0.0702,-0.15239 -0.10953,-0.32193 -0.10955,-0.50023 1.4e-4,-0.11421 0.0267,-0.22188 0.0682,-0.32504 -0.0291,0.0204 -0.0605,0.0385 -0.0915,0.0558 v 1.10122 c 0,0.0397 -0.0212,0.0738 -0.0429,0.094 -0.0156,0.0146 -0.0328,0.0246 -0.0506,0.0331 10e-4,0.007 0.002,0.0143 0.002,0.0217 v 0.34942 c 0,0.004 -9e-5,0.009 -5.2e-4,0.0134 0.006,0.001 0.0113,0.003 0.0165,0.004 0.0305,0.009 0.0582,0.0208 0.0837,0.0393 0.0255,0.0184 0.0548,0.0518 0.0548,0.0997 v 0.47025 c 0,0.0479 -0.0293,0.0812 -0.0548,0.0997 -0.0255,0.0185 -0.0532,0.0303 -0.0837,0.0393 -0.061,0.0184 -0.13611,0.0274 -0.21911,0.0274 h -0.0506 c -0.083,0 -0.15759,-0.009 -0.21859,-0.0274 -0.0305,-0.009 -0.0587,-0.0208 -0.0842,-0.0393 -0.0255,-0.0184 -0.0563,-0.0518 -0.0563,-0.0997 v -0.47025 c 0,-0.0479 0.0308,-0.0812 0.0563,-0.0997 0.0255,-0.0185 0.0537,-0.0303 0.0842,-0.0393 0.0195,-0.006 0.0404,-0.0105 0.0625,-0.0145 -2e-5,-10e-4 0,-0.002 0,-0.003 v -0.34942 c 0,-0.007 3.4e-4,-0.0147 0.002,-0.0217 -0.0173,-0.009 -0.0331,-0.0186 -0.0486,-0.0331 -0.0218,-0.0203 -0.0429,-0.0543 -0.0429,-0.094 v -1.09915 c -0.11126,-0.0608 -0.22686,-0.13679 -0.22686,-0.27182 v -0.75861 c -0.006,0.008 -0.01,0.0172 -0.01,0.0263 l -0.19275,4.93243 0.006,0.11421 h 4.55269 l 0.006,-0.11421 -0.18448,-4.56863 v 0.36846 c 0,0.13398 -0.11497,0.20845 -0.2248,0.26975 v 1.10122 c 0,0.0397 -0.0212,0.0738 -0.0429,0.094 -0.0218,0.0204 -0.0463,0.0326 -0.0723,0.0429 -5.1e-4,1.9e-4 -0.001,3.2e-4 -0.002,5.1e-4 0.0155,0.0227 0.0248,0.05 0.0248,0.0796 v 0.34787 c 0,0.007 -1.5e-4,0.0129 -0.001,0.0191 0.0139,0.003 0.0276,0.006 0.0403,0.01 0.0305,0.009 0.0587,0.0208 0.0842,0.0393 0.0255,0.0185 0.0563,0.0518 0.0563,0.0997 v 0.47077 c 0,0.0479 -0.0308,0.0807 -0.0563,0.0992 -0.0255,0.0185 -0.0537,0.0303 -0.0842,0.0393 -0.061,0.0183 -0.13559,0.0274 -0.21859,0.0274 h -0.0512 c -0.083,0 -0.15759,-0.009 -0.21859,-0.0274 -0.0305,-0.009 -0.0582,-0.0208 -0.0837,-0.0393 -0.0255,-0.0184 -0.0548,-0.0513 -0.0548,-0.0992 v -0.47077 c 0,-0.0479 0.0293,-0.0812 0.0548,-0.0997 0.0255,-0.0185 0.0532,-0.0303 0.0837,-0.0393 0.0128,-0.004 0.0269,-0.007 0.0408,-0.01 -9.5e-4,-0.006 -0.002,-0.0126 -0.002,-0.0191 v -0.34787 c 0,-0.0293 0.01,-0.0564 0.0258,-0.0791 -8.7e-4,-3.4e-4 -0.002,-6.9e-4 -0.003,-10e-4 -0.026,-0.0103 -0.0486,-0.0226 -0.0703,-0.0429 -0.0218,-0.0203 -0.0429,-0.0543 -0.0429,-0.094 v -1.09915 c -0.11125,-0.0608 -0.22686,-0.13679 -0.22686,-0.27182 v -0.83561 z m 0.68885,0 v 0.83561 c 0,0.0962 0.066,0.17325 0.15606,0.18965 l 0.0682,0.0114 v 1.14877 c 0.004,0.002 0.004,0.002 0.0103,0.004 0.0252,0.01 0.0705,0.0191 0.12093,0.0191 0.0504,0 0.0957,-0.009 0.12092,-0.0191 0.006,-0.002 0.007,-0.002 0.0103,-0.004 v -1.14877 l 0.0682,-0.0114 c 0.09,-0.0164 0.15606,-0.0935 0.15606,-0.18965 v -0.82579 c -0.31264,-0.008 -0.32927,0.006 -0.71107,-0.01 z m -1.72031,0.16175 -0.22272,0.38705 h 0.0491 l -0.13126,0.14625 c -0.16652,0.18733 -0.25755,0.42889 -0.25786,0.67954 7e-5,0.56704 0.45872,1.02572 1.02577,1.02578 0.56704,-6e-5 1.02314,-0.45874 1.0232,-1.02578 -4e-5,-0.25053 -0.0917,-0.49207 -0.25787,-0.67954 l -0.12867,-0.14625 h 0.047 l -0.22272,-0.38705 h -0.4222 -0.0801 z m -0.36328,2.08359 v 1.01449 h 1.60765 v -0.97522 c -0.20993,0.18134 -0.48277,0.29143 -0.78135,0.29146 -0.31966,-3e-5 -0.6107,-0.126 -0.8263,-0.33073 z m -0.78497,0.12144 v 0.32926 c 0,0.0134 0.027,-10e-4 0.0408,-10e-4 h 0.0506 c 0.0304,0 0.0879,0.0321 0.0879,0.004 v -0.33236 c -0.0283,0.004 -0.0586,0.006 -0.0899,0.006 -0.0313,0 -0.0611,-0.002 -0.0894,-0.006 z m 3.21893,0.01 c -0.0275,0.001 -0.0503,0.01 -0.0646,0.0196 -0.0155,0.0106 -0.0196,0.0214 -0.0196,0.0274 v 0.34787 c 0,0.001 1.2e-4,0.003 5.1e-4,0.004 0.0206,-10e-4 0.0417,-0.002 0.0636,-0.002 h 0.0512 c 0.0221,0 0.0433,8.1e-4 0.0641,0.002 2.6e-4,-10e-4 5.2e-4,-0.003 5.2e-4,-0.004 v -0.34787 c 0,-0.006 -0.002,-0.0167 -0.0176,-0.0274 -0.0153,-0.0105 -0.0423,-0.0196 -0.0724,-0.0196 -0.002,0 -0.004,-7e-5 -0.006,0 z m -3.19154,0.48274 c -0.0642,0.001 -0.12265,0.0107 -0.15865,0.0217 -0.0115,0.004 -0.0212,0.001 -0.0212,0.008 v 0.41599 c 0.006,0.003 0.009,0.004 0.0212,0.008 0.0385,0.0115 0.10259,0.0212 0.17209,0.0212 h 0.0506 c 0.0695,0 0.13358,-0.009 0.17208,-0.0212 0.0125,-0.004 0.0212,-0.003 0.0212,-0.0103 v -0.41186 c -0.006,-0.003 -0.009,-0.006 -0.0212,-0.0103 -0.0283,-0.008 -0.0705,-0.0162 -0.11834,-0.0196 -0.0179,0.004 -0.0367,0.006 -0.0558,0.006 -0.0215,0 -0.042,-0.003 -0.0615,-0.008 z m 3.17138,0.078 c -0.0695,4e-5 -0.13306,0.009 -0.17156,0.0212 -0.0125,0.004 -0.0217,0.003 -0.0217,0.0103 v 0.41186 c 0.006,0.003 0.009,0.006 0.0217,0.0103 0.0385,0.0115 0.10206,0.0212 0.17156,0.0212 h 0.0512 c 0.0695,0 0.13307,-0.009 0.17157,-0.0212 0.0115,-0.004 0.0217,-0.001 0.0217,-0.008 v -0.41599 c -0.006,-0.003 -0.01,-0.004 -0.0217,-0.008 -0.0385,-0.0115 -0.10207,-0.0217 -0.17157,-0.0217 z m -3.81268,2.47823 0.17208,3.14813 c 0,0.0571 0.12293,0.10335 0.27543,0.10335 h 3.62872 c 0.1525,0 0.27244,-0.0462 0.27544,-0.10335 l 0.17208,-3.14813 z m 2.01649,0.63038 c 0.12272,1e-5 0.2222,0.0995 0.22221,0.22221 -1e-5,0.12272 -0.0995,0.2222 -0.22221,0.22221 -0.12272,-10e-6 -0.2222,-0.0995 -0.22221,-0.22221 1e-5,-0.12272 0.0995,-0.2222 0.22221,-0.22221 z m 0.55759,0 c 0.12272,1e-5 0.2222,0.0995 0.22221,0.22221 -1e-5,0.12272 -0.0995,0.2222 -0.22221,0.22221 -0.12272,-10e-6 -0.2222,-0.0995 -0.22221,-0.22221 1e-5,-0.12272 0.0995,-0.2222 0.22221,-0.22221 z m -0.63357,0.89841 c 0.004,-6e-5 0.007,0 0.0108,0 h 0.62811 c 0.11323,0 0.20451,0.0343 0.20451,0.0767 v 0.18609 h 0.22868 c 0.11324,0 0.20452,0.0339 0.20452,0.0764 v 0.20835 c 0,0.0425 -0.0913,0.0767 -0.20452,0.0767 h -0.22868 v 0.12893 c 0,0.0425 -0.0913,0.0767 -0.20451,0.0767 h -0.62811 c -0.11324,0 -0.2045,-0.0343 -0.2045,-0.0767 v -0.12893 h -0.22869 c -0.11324,0 -0.20451,-0.0342 -0.20451,-0.0767 v -0.20835 c 0,-0.0411 0.0855,-0.0741 0.19376,-0.0764 0.003,-6e-5 0.007,0 0.0108,0 h 0.22869 v -0.18609 c 0,-0.0411 0.0855,-0.0745 0.19376,-0.0767 z"
       sodipodi:nodetypes="cscccccscccccsccccccccccccccccccccccccsccsscccssscssscsssccssccscscccccccscssccssccsssscssscsssccsscccscsccccccccsccccsccccccccccccccccccccccccssccscccsccsscsscsccccccsscccccsccscccsssccccssccssccccccccccccssssscsssscsssscssssscssscscc" /><path
       style="color:#000000;fill:#000000;stroke-width:0.116;stroke-linecap:round;-inkscape-stroke:none"
       d="m 153.55106,134.33715 c 0.0818,0 0.14765,0.0461 0.14765,0.10324 v 0.96799 c 0,0.0572 -0.0659,0.10324 -0.14765,0.10324 -0.0818,0 -0.14765,-0.0461 -0.14765,-0.10324 v -0.96799 c 0,-0.0572 0.0658,-0.10324 0.14765,-0.10324 z"
       id="path6026" /><path
       id="path4592"
       style="fill:#000000;stroke:none;stroke-width:0.264583px;stroke-linecap:butt;stroke-linejoin:miter;stroke-opacity:1"
       d="m 142.04892,130.02388 c -0.16335,0.25167 -0.44601,0.41105 -0.75706,0.41134 -0.18146,-7e-5 -0.3551,-0.0547 -0.50126,-0.15244 0.0379,0.19335 0.21027,1.0801 0.18913,1.12344 l -0.32142,2.02985 c 0.21808,0.32466 0.98971,0.31137 1.34875,0.0424 l 0.33693,-1.05575 0.0413,-1.12396 z" /><path
       id="path4532"
       style="fill:#000000;stroke:none;stroke-width:0.264999;stroke-linecap:round;stroke-dasharray:none;stop-color:#000000"
       d="m 140.36761,128.60756 0.50515,0.26239 c 0.21565,0.1674 0.2087,0.75022 -0.0868,0.925 l -0.26149,0.0176 c 0.16413,0.26765 0.4555,0.43085 0.76947,0.43098 0.39701,-3.7e-4 0.74722,-0.25999 0.86299,-0.63975 l -0.36948,-0.0439 c -0.32543,-0.11547 -0.34588,-0.73487 -0.13023,-0.90228 l 0.43346,-0.2231 c -0.34844,-0.21835 -1.23525,-0.42327 -1.72306,0.17311 z"
       sodipodi:nodetypes="cccccccccc" /><path
       id="path4299"
       style="fill:#000000;stroke:none;stroke-width:0.264583px;stroke-linecap:butt;stroke-linejoin:miter;stroke-opacity:1"
       d="m 146.74011,119.0106 v 0.43511 c 0,0.0579 -0.0465,0.10439 -0.10439,0.10439 h -0.5333 c -0.0579,0 -0.10439,-0.0465 -0.10439,-0.10439 v -0.26716 c -0.005,6.4e-4 -0.009,0.001 -0.0139,0.001 h -1.42834 c -9.8e-4,0 -0.002,3e-5 -0.003,0 v 0.26613 c 0,0.0579 -0.0464,0.10439 -0.10438,0.10439 h -0.5333 c -0.0579,0 -0.10439,-0.0465 -0.10439,-0.10439 v -0.33848 c -0.56852,0.12619 -1.12955,0.30312 -1.64538,0.51677 0,0 0.67242,0.87012 0.95602,0.87798 0,0 1.85673,-0.0564 2.37143,0.25321 l 0.17208,0.58757 c 0.0944,0.47468 0.6904,0.31109 0.6904,0.31109 0,0 0.75719,-1.46913 1.73105,-1.96171 -0.33299,-0.36238 -0.79008,-0.5567 -1.34606,-0.68154 z m -0.42168,0.74931 c 0.32112,0 0.58394,0.26075 0.58394,0.58187 0,0.32113 -0.26282,0.58395 -0.58394,0.58395 -0.32112,0 -0.58188,-0.26282 -0.58188,-0.58395 0,-0.32112 0.26076,-0.58187 0.58188,-0.58187 z m 0,0.16381 c -0.23195,0 -0.41807,0.18611 -0.41807,0.41806 0,0.23195 0.18612,0.42013 0.41807,0.42013 0.23195,0 0.41961,-0.18818 0.41961,-0.42013 0,-0.23195 -0.18766,-0.41806 -0.41961,-0.41806 z"
       sodipodi:nodetypes="csssscsscssssccccccccssssssssss" /><path
       id="path3987"
       style="fill:#000000;stroke:none;stroke-width:0.290674px;stroke-linecap:butt;stroke-linejoin:miter;stroke-opacity:1"
       d="m 154.9024,115.82061 c -0.56162,0.007 -1.10937,0.31313 -1.24799,0.92501 l -0.0563,0.21239 c -0.53748,0.20701 -0.98696,0.52549 -1.24851,0.91519 l 1.09606,0.53744 -0.12609,2.41173 -0.2744,1.38183 0.29869,-0.0837 c 0.088,-0.27828 0.24643,-0.5291 0.45992,-0.72812 l 0.0475,-0.15813 0.26252,-0.0724 c 0.24756,-0.14201 0.52699,-0.21916 0.81235,-0.22428 l 0.0326,-0.009 0.0279,0.008 c 0.28646,0.005 0.56703,0.0821 0.81546,0.22479 l 0.26406,0.0729 0.0465,0.15657 c 0.21492,0.20008 0.37412,0.4526 0.46199,0.73278 l 0.30282,0.0873 -0.28008,-1.38855 -0.12506,-2.39261 1.19476,-0.56276 c -0.33793,-0.45103 -0.87602,-0.75167 -1.35754,-0.93896 l -0.0579,-0.17674 c -0.17546,-0.6247 -0.76983,-0.93707 -1.34927,-0.93017 z m 0.0202,0.15762 c 0.11735,-10e-4 0.23539,0.0139 0.35037,0.045 l 0.19585,0.62994 c -0.27579,-0.0474 -0.76592,-0.0424 -1.04955,0 l 0.19637,-0.62994 c 0.10046,-0.0289 0.2034,-0.0429 0.30696,-0.045 z m -0.39636,0.0832 c 0.0171,-0.002 -0.1974,0.58204 -0.1974,0.60824 -0.10939,0.001 -0.41134,0.0517 -0.41134,0.0517 0.0183,-0.19315 0.32785,-0.62891 0.60874,-0.65991 z m 0.83613,0 c 0.28089,0.0311 0.58993,0.46676 0.60823,0.65991 0,0 -0.30144,-0.0508 -0.41083,-0.0517 0,-0.0262 -0.2145,-0.61024 -0.1974,-0.60824 z m -0.44183,0.99478 c 0.0158,0.001 0.0319,0.002 0.0475,0.003 0.0156,-10e-4 0.0312,-0.002 0.047,-0.003 v 0.006 c 0.56062,0.0374 1.00098,0.14572 1.00098,0.14572 0,0 0.10991,0.28579 0.0806,0.39585 l -0.37155,-0.0517 0.0444,0.4532 c 0,0 -0.61746,0.0525 -0.80202,0.0455 -0.18518,0.007 -0.8015,-0.0455 -0.8015,-0.0455 l 0.0439,-0.4532 -0.37052,0.0517 c -0.0292,-0.10956 0.0791,-0.39233 0.0801,-0.39533 v -5.2e-4 c 0,0 0.44043,-0.10832 1.00098,-0.14572 z m -1.24541,0.16278 c 0.0166,0 0.0309,0.002 0.0429,0.007 0,0 -0.12333,0.32741 -0.0966,0.41031 l -0.60306,0.10284 -0.0253,-0.13023 c 0,0 0.48586,-0.38064 0.68213,-0.38964 z m 2.55695,5.1e-4 v 5.2e-4 c 0.18939,-0.004 0.69195,0.38964 0.69195,0.38964 l -0.0258,0.13023 -0.60306,-0.10284 c 0.0268,-0.0829 -0.0966,-0.41031 -0.0966,-0.41031 0.01,-0.004 0.021,-0.007 0.0336,-0.007 z m -2.11821,2.08721 0.14056,0.13178 h 0.70383 0.70383 l 0.14056,-0.13178 0.26407,0.0568 0.0842,1.09967 h -0.3483 l -0.14056,-0.22686 h -0.70383 -0.70383 l -0.14056,0.22686 h -0.34779 l 0.0842,-1.09967 z m -0.94,1.43092 -0.40928,0.0393 -0.44028,2.17093 0.55294,0.0109 z m 3.56619,0 0.29663,2.22106 0.55293,-0.0109 -0.44028,-2.17093 z m -4.73718,2.34043 c 0.19455,1.24375 1.18365,2.23224 2.43086,2.45205 v -0.0279 -0.39067 h 1.04852 v 0.41858 c 1.24755,-0.21963 2.23733,-1.20813 2.43189,-2.45205 h -1.03611 c -0.20479,0.84976 -0.97948,1.48053 -1.91978,1.48053 -0.94028,0 -1.71333,-0.63077 -1.91771,-1.48053 z" /><path
       id="path3700"
       style="fill:#000000;stroke:none;stroke-width:0.252045px;stroke-linecap:butt;stroke-linejoin:miter;stroke-opacity:1"
       d="m 151.78476,123.65631 -5.2e-4,5.2e-4 -0.61753,0.80253 c 0.25463,-0.11472 0.89679,-0.12139 1.2547,-0.031 -0.15995,-0.22906 -0.28467,-0.48375 -0.36638,-0.75655 -0.0918,-0.004 -0.18396,-0.008 -0.27027,-0.0155 z m -1.29191,0.82579 c -9.1e-4,0.002 -0.007,0.0103 -0.007,0.0103 0,0 0.22404,0.87658 0.4837,0.83665 0.0562,0.0208 0.19162,0.0334 0.37258,0.0403 -0.0934,-0.37313 -0.19212,-0.7849 -0.1974,-0.8816 l -0.0899,0.11679 c 0,0 -0.23641,-0.0496 -0.56172,-0.12247 z m 2.09083,0.15606 c 0.036,0.16893 0.0925,0.43724 0.14934,0.72296 0.32595,-0.009 0.61144,-0.0205 0.76481,-0.0269 -0.35288,-0.16566 -0.66446,-0.40427 -0.91415,-0.69608 z" /><path
       id="path1857"
       style="fill:#000000;stroke:none;stroke-width:0.264583px;stroke-linecap:butt;stroke-linejoin:miter;stroke-opacity:1"
       d="m 152.15786,117.99412 c -0.59691,0.074 -5.40048,1.52825 -5.7614,4.30052 0.75755,-0.60121 1.42472,-0.62426 1.42472,-0.62426 l 0.64647,-0.72915 c 0.58333,-0.43433 2.81895,-0.63407 2.81895,-0.63407 l 1.06143,0.26458 0.73277,-0.0677 0.14005,-2.02107 z m -0.52193,0.58343 a 0.20462655,0.20462655 0 0 1 0.20464,0.20464 0.20462655,0.20462655 0 0 1 -0.20464,0.20464 0.20462655,0.20462655 0 0 1 -0.20412,-0.20464 0.20462655,0.20462655 0 0 1 0.20412,-0.20464 z m -0.70797,0.11472 a 0.20462655,0.20462655 0 0 1 0.20464,0.20464 0.20462655,0.20462655 0 0 1 -0.20464,0.20464 0.20462655,0.20462655 0 0 1 -0.20463,-0.20464 0.20462655,0.20462655 0 0 1 0.20463,-0.20464 z M 150.22,118.9057 a 0.20462655,0.20462655 0 0 1 0.20464,0.20463 0.20462655,0.20462655 0 0 1 -0.20464,0.20464 0.20462655,0.20462655 0 0 1 -0.20464,-0.20464 0.20462655,0.20462655 0 0 1 0.20464,-0.20463 z m -0.70797,0.27388 a 0.20462655,0.20462655 0 0 1 0.20464,0.20464 0.20462655,0.20462655 0 0 1 -0.20464,0.20464 0.20462655,0.20462655 0 0 1 -0.20464,-0.20464 0.20462655,0.20462655 0 0 1 0.20464,-0.20464 z m -0.70797,0.38499 a 0.20462655,0.20462655 0 0 1 0.20464,0.20464 0.20462655,0.20462655 0 0 1 -0.20464,0.20464 0.20462655,0.20462655 0 0 1 -0.20464,-0.20464 0.20462655,0.20462655 0 0 1 0.20464,-0.20464 z m 2.51975,0.92242 c 0,0 -2.16896,0.15944 -2.75229,0.59377 l -0.72192,0.83509 c 0,0 -0.0625,0.002 -0.17002,0.0222 -0.50454,1.45467 0.5886,1.81849 0.5886,1.81849 0.21598,0.20771 2.71921,0.73019 2.71921,0.73019 l 0.95963,-1.24747 -0.0873,-0.31109 0.3266,-0.11731 0.42426,-2.11046 -0.2403,0.0331 z m -1.16944,0.22996 h 0.97668 c 0.27087,0 0.49403,0.22316 0.49403,0.49403 v 1.3224 c 0,0.27087 -0.22316,0.49403 -0.49403,0.49403 h -0.97668 c -0.27087,0 -0.49248,-0.22316 -0.49248,-0.49403 v -1.3224 c 0,-0.27087 0.22161,-0.49403 0.49248,-0.49403 z m -0.008,0.14728 c -0.18753,0.005 -0.33693,0.15752 -0.33693,0.34623 v 1.32292 c 0,0.19171 0.15453,0.34572 0.34623,0.34572 h 0.97617 c 0.19171,0 0.34623,-0.15401 0.34623,-0.34572 v -1.32292 c 0,-0.1917 -0.15452,-0.34623 -0.34623,-0.34623 h -0.97617 c -0.003,0 -0.006,-7e-5 -0.009,0 z m 0.49713,0.27802 a 0.49526405,0.49526405 0 0 1 0.49557,0.49506 0.49526405,0.49526405 0 0 1 -0.49557,0.49558 0.49526405,0.49526405 0 0 1 -0.49506,-0.49558 0.49526405,0.49526405 0 0 1 0.49506,-0.49506 z m -3.12488,0.77566 c -0.0395,10e-4 -0.20259,0.0105 -0.28628,0.0853 -0.0288,0.0608 -0.3297,1.11569 -0.3297,1.11569 0,0 0.46778,0.0119 0.61753,-0.016 -0.12243,-0.2693 -0.16684,-0.65173 0.007,-1.18495 -3.4e-4,0 -0.003,-1.5e-4 -0.008,0 z" /><path
       id="path1857-0"
       style="fill:#000000;stroke:none;stroke-width:0.264583px;stroke-linecap:butt;stroke-linejoin:miter;stroke-opacity:1"
       d="m 157.80086,118.0009 c 0.59691,0.074 5.40048,1.52825 5.7614,4.30052 -0.75755,-0.60121 -1.42472,-0.62426 -1.42472,-0.62426 l -0.64647,-0.72915 c -0.58333,-0.43433 -2.81895,-0.63407 -2.81895,-0.63407 l -1.06143,0.26458 -0.73277,-0.0677 -0.14005,-2.02107 z m 0.52193,0.58343 a 0.20462655,0.20462655 0 0 0 -0.20464,0.20464 0.20462655,0.20462655 0 0 0 0.20464,0.20464 0.20462655,0.20462655 0 0 0 0.20412,-0.20464 0.20462655,0.20462655 0 0 0 -0.20412,-0.20464 z m 0.70797,0.11472 a 0.20462655,0.20462655 0 0 0 -0.20464,0.20464 0.20462655,0.20462655 0 0 0 0.20464,0.20464 0.20462655,0.20462655 0 0 0 0.20463,-0.20464 0.20462655,0.20462655 0 0 0 -0.20463,-0.20464 z m 0.70796,0.21343 a 0.20462655,0.20462655 0 0 0 -0.20464,0.20463 0.20462655,0.20462655 0 0 0 0.20464,0.20464 0.20462655,0.20462655 0 0 0 0.20464,-0.20464 0.20462655,0.20462655 0 0 0 -0.20464,-0.20463 z m 0.70797,0.27388 a 0.20462655,0.20462655 0 0 0 -0.20464,0.20464 0.20462655,0.20462655 0 0 0 0.20464,0.20464 0.20462655,0.20462655 0 0 0 0.20464,-0.20464 0.20462655,0.20462655 0 0 0 -0.20464,-0.20464 z m 0.70797,0.38499 a 0.20462655,0.20462655 0 0 0 -0.20464,0.20464 0.20462655,0.20462655 0 0 0 0.20464,0.20464 0.20462655,0.20462655 0 0 0 0.20464,-0.20464 0.20462655,0.20462655 0 0 0 -0.20464,-0.20464 z m -2.51975,0.92242 c 0,0 2.16896,0.15944 2.75229,0.59377 l 0.72192,0.83509 c 0,0 0.0625,0.002 0.17002,0.0222 0.50454,1.45467 -0.5886,1.81849 -0.5886,1.81849 -0.21598,0.20771 -2.71921,0.73019 -2.71921,0.73019 l -0.95963,-1.24747 0.0873,-0.31109 -0.3266,-0.11731 -0.42426,-2.11046 0.2403,0.0331 z m 1.16944,0.22996 h -0.97668 c -0.27087,0 -0.49403,0.22316 -0.49403,0.49403 v 1.3224 c 0,0.27087 0.22316,0.49403 0.49403,0.49403 h 0.97668 c 0.27087,0 0.49248,-0.22316 0.49248,-0.49403 v -1.3224 c 0,-0.27087 -0.22161,-0.49403 -0.49248,-0.49403 z m 0.008,0.14728 c 0.18753,0.005 0.33693,0.15752 0.33693,0.34623 v 1.32292 c 0,0.19171 -0.15453,0.34572 -0.34623,0.34572 h -0.97617 c -0.19171,0 -0.34623,-0.15401 -0.34623,-0.34572 v -1.32292 c 0,-0.1917 0.15452,-0.34623 0.34623,-0.34623 h 0.97617 c 0.003,0 0.006,-7e-5 0.009,0 z m -0.49713,0.27802 a 0.49526405,0.49526405 0 0 0 -0.49557,0.49506 0.49526405,0.49526405 0 0 0 0.49557,0.49558 0.49526405,0.49526405 0 0 0 0.49506,-0.49558 0.49526405,0.49526405 0 0 0 -0.49506,-0.49506 z m 3.12488,0.77566 c 0.0395,0.001 0.20259,0.0105 0.28628,0.0853 0.0288,0.0608 0.3297,1.11569 0.3297,1.11569 0,0 -0.46778,0.0119 -0.61753,-0.016 0.12243,-0.2693 0.16684,-0.65173 -0.007,-1.18495 3.4e-4,0 0.003,-1.5e-4 0.008,0 z" /><rect
       style="opacity:1;vector-effect:none;fill:#1a1a1a;fill-opacity:1;stroke:none;stroke-width:0.1;stroke-linecap:butt;stroke-linejoin:miter;stroke-miterlimit:4;stroke-dasharray:none;stroke-dashoffset:0;stroke-opacity:1"
       id="rect860"
       width="7.0941477"
       height="0"
       x="148.86763"
       y="129.31949" /><circle
       style="fill:#000000;stroke:none;stroke-width:0.19501;stroke-linecap:round;stroke-dasharray:2.24704, 0.749014;stop-color:#000000"
       id="path617"
       cx="154.95847"
       cy="122.74799"
       r="0.99350643" /><circle
       style="fill:none;stroke:#000000;stroke-width:0.455018;stroke-linecap:round;stroke-dasharray:none;stop-color:#000000"
       id="path619-5"
       cx="154.95847"
       cy="122.74799"
       r="1.4511067" /><path
       style="fill:#000000;stroke:none;stroke-width:0.264583px;stroke-linecap:butt;stroke-linejoin:miter;stroke-opacity:1"
       d="m 146.5926,122.40261 c 0.0302,0 0.41946,-0.0127 0.41946,-0.0328 0,-0.02 0.075,-0.23111 0.15048,-0.38051 0,0 -0.26104,0.0992 -0.56542,0.27318 -0.0157,0.0327 -0.004,0.12102 -0.005,0.14014 z"
       id="path1887"
       sodipodi:nodetypes="csccc" /><path
       style="fill:#000000;stroke:none;stroke-width:0.264583px;stroke-linecap:butt;stroke-linejoin:miter;stroke-opacity:1"
       d="m 150.80956,118.25843 c 0.1588,-0.10161 0.97358,-0.33675 0.97358,-0.33675 l -0.44082,-0.80569 c -0.24884,-0.0612 -0.56697,0.0174 -0.66966,0.21277 z"
       id="path1911"
       sodipodi:nodetypes="ccccc" /><path
       style="fill:#000000;stroke:none;stroke-width:0.264583px;stroke-linecap:butt;stroke-linejoin:miter;stroke-opacity:1"
       d="m 159.20474,118.30787 c -0.1588,-0.10161 -0.97358,-0.33675 -0.97358,-0.33675 l 0.44082,-0.80569 c 0.24884,-0.0612 0.56697,0.0174 0.66966,0.21277 z"
       id="path1911-7"
       sodipodi:nodetypes="ccccc" /><path
       id="rect1936"
       style="fill:#000000;stroke:none;stroke-width:0.295;stroke-linecap:round;stroke-dasharray:none;stop-color:#000000"
       d="m 142.58997,116.32756 c -0.18753,0.005 -0.33745,0.15752 -0.33745,0.34623 v 0.15141 l 0.72813,0.3545 0.008,-0.004 c 0.0976,0.1055 0.0957,0.10696 0,0.1912 l -0.008,-0.004 -0.72761,0.36071 v 0.21962 c 0,0.19171 0.15452,0.34623 0.34623,0.34623 h 5.35368 c 0.19171,0 0.34623,-0.15452 0.34623,-0.34623 v -0.21962 l -0.72863,-0.36122 -0.009,0.005 c -0.0885,-0.0985 -0.0862,-0.10016 0.002,-0.19171 l 0.007,0.004 0.72915,-0.3545 v -0.1509 c 0,-0.19171 -0.15452,-0.34623 -0.34623,-0.34623 h -5.35368 c -0.003,0 -0.006,-7e-5 -0.009,0 z m 0.54467,0.19378 c 0.11211,1.2e-4 0.20297,0.091 0.20309,0.20309 1.7e-4,0.11232 -0.0908,0.20349 -0.20309,0.20361 -0.11252,1.6e-4 -0.20377,-0.0911 -0.2036,-0.20361 1.2e-4,-0.11231 0.0913,-0.20325 0.2036,-0.20309 z m 0.61185,0 c 0.11211,1.2e-4 0.20297,0.091 0.20309,0.20309 1.7e-4,0.11232 -0.0908,0.20349 -0.20309,0.20361 -0.11252,1.6e-4 -0.20377,-0.0911 -0.2036,-0.20361 1.2e-4,-0.11231 0.0913,-0.20325 0.2036,-0.20309 z m 0.61133,0 c 0.11232,-1.7e-4 0.20349,0.0908 0.20361,0.20309 1.7e-4,0.11252 -0.0911,0.20378 -0.20361,0.20361 -0.11232,-1.2e-4 -0.20326,-0.0913 -0.20309,-0.20361 1.2e-4,-0.11211 0.091,-0.20297 0.20309,-0.20309 z m 0.61185,0 c 0.11232,-1.7e-4 0.20349,0.0908 0.20361,0.20309 1.7e-4,0.11252 -0.0911,0.20378 -0.20361,0.20361 -0.11232,-1.2e-4 -0.20326,-0.0913 -0.20309,-0.20361 1.2e-4,-0.11211 0.091,-0.20297 0.20309,-0.20309 z m 0.61185,0 c 0.11211,1.2e-4 0.20297,0.091 0.20309,0.20309 1.7e-4,0.11232 -0.0908,0.20349 -0.20309,0.20361 -0.11252,1.6e-4 -0.20377,-0.0911 -0.2036,-0.20361 1.2e-4,-0.11231 0.0913,-0.20325 0.2036,-0.20309 z m 0.61185,0 c 0.11211,1.2e-4 0.20297,0.091 0.20309,0.20309 1.7e-4,0.11232 -0.0908,0.20349 -0.20309,0.20361 -0.11252,1.7e-4 -0.20378,-0.0911 -0.20361,-0.20361 1.2e-4,-0.11232 0.0913,-0.20326 0.20361,-0.20309 z m 0.61133,0 c 0.11232,-1.7e-4 0.20349,0.0908 0.20361,0.20309 1.7e-4,0.11252 -0.0911,0.20378 -0.20361,0.20361 -0.11232,-1.2e-4 -0.20326,-0.0913 -0.20309,-0.20361 1.2e-4,-0.11211 0.091,-0.20297 0.20309,-0.20309 z m 0.61185,0 c 0.11232,-1.7e-4 0.20349,0.0908 0.20361,0.20309 1.7e-4,0.11252 -0.0911,0.20378 -0.20361,0.20361 -0.11232,-1.2e-4 -0.20326,-0.0913 -0.20309,-0.20361 1.2e-4,-0.11211 0.091,-0.20297 0.20309,-0.20309 z m -5.16403,0.48731 v 0.53175 l 0.54106,-0.2682 z m 6.04615,0 -0.54209,0.26304 0.54209,0.26871 z m -4.23644,0.0966 c 0.11232,-1.7e-4 0.20349,0.0908 0.20361,0.20309 -1.2e-4,0.11232 -0.0913,0.20326 -0.20361,0.20309 -0.11211,-1.2e-4 -0.20297,-0.091 -0.20309,-0.20309 1.2e-4,-0.11211 0.091,-0.20297 0.20309,-0.20309 z m 0.61185,0 c 0.11211,1.2e-4 0.20297,0.091 0.20309,0.20309 -1.2e-4,0.11211 -0.091,0.20297 -0.20309,0.20309 -0.11231,1.6e-4 -0.20348,-0.0908 -0.2036,-0.20309 1.2e-4,-0.11231 0.0913,-0.20325 0.2036,-0.20309 z m 1.20303,0 c 0.11231,-1.6e-4 0.20348,0.0908 0.2036,0.20309 -1.2e-4,0.11231 -0.0913,0.20325 -0.2036,0.20309 -0.11211,-1.2e-4 -0.20297,-0.091 -0.20309,-0.20309 1.2e-4,-0.11211 0.091,-0.20297 0.20309,-0.20309 z m 0.61185,0 c 0.11211,1.2e-4 0.20297,0.091 0.20309,0.20309 -1.2e-4,0.11211 -0.091,0.20297 -0.20309,0.20309 -0.11232,1.7e-4 -0.20349,-0.0908 -0.20361,-0.20309 1.2e-4,-0.11232 0.0913,-0.20326 0.20361,-0.20309 z m -3.35432,0.58343 c 0.11231,1.2e-4 0.20325,0.0913 0.20309,0.2036 -1.2e-4,0.11211 -0.091,0.20297 -0.20309,0.20309 -0.11231,1.6e-4 -0.20348,-0.0908 -0.2036,-0.20309 -1.6e-4,-0.11251 0.0911,-0.20376 0.2036,-0.2036 z m 0.61185,0 c 0.11231,1.2e-4 0.20325,0.0913 0.20309,0.2036 -1.2e-4,0.11211 -0.091,0.20297 -0.20309,0.20309 -0.11231,1.6e-4 -0.20348,-0.0908 -0.2036,-0.20309 -1.6e-4,-0.11251 0.0911,-0.20376 0.2036,-0.2036 z m 0.61133,0 c 0.11252,-1.7e-4 0.20377,0.0911 0.20361,0.2036 -1.2e-4,0.11232 -0.0913,0.20326 -0.20361,0.20309 -0.11211,-1.2e-4 -0.20297,-0.091 -0.20309,-0.20309 -1.6e-4,-0.11231 0.0908,-0.20348 0.20309,-0.2036 z m 0.61185,0 c 0.11252,-1.7e-4 0.20377,0.0911 0.20361,0.2036 -1.2e-4,0.11232 -0.0913,0.20326 -0.20361,0.20309 -0.11211,-1.2e-4 -0.20297,-0.091 -0.20309,-0.20309 -1.6e-4,-0.11231 0.0908,-0.20348 0.20309,-0.2036 z m 0.61185,0 c 0.11231,1.2e-4 0.20325,0.0913 0.20309,0.2036 -1.2e-4,0.11211 -0.091,0.20297 -0.20309,0.20309 -0.11231,1.6e-4 -0.20348,-0.0908 -0.2036,-0.20309 -1.6e-4,-0.11251 0.0911,-0.20376 0.2036,-0.2036 z m 0.61185,0 c 0.11231,1.2e-4 0.20325,0.0913 0.20309,0.2036 -1.2e-4,0.11211 -0.091,0.20297 -0.20309,0.20309 -0.11232,1.7e-4 -0.20349,-0.0908 -0.20361,-0.20309 -1.6e-4,-0.11252 0.0911,-0.20377 0.20361,-0.2036 z m 0.61133,0 c 0.11252,-1.7e-4 0.20377,0.0911 0.20361,0.2036 -1.2e-4,0.11232 -0.0913,0.20326 -0.20361,0.20309 -0.11211,-1.2e-4 -0.20297,-0.091 -0.20309,-0.20309 -1.6e-4,-0.11231 0.0908,-0.20348 0.20309,-0.2036 z m 0.61185,0 c 0.11252,-1.7e-4 0.20377,0.0911 0.20361,0.2036 -1.2e-4,0.11232 -0.0913,0.20326 -0.20361,0.20309 -0.11211,-1.2e-4 -0.20297,-0.091 -0.20309,-0.20309 -1.6e-4,-0.11231 0.0908,-0.20348 0.20309,-0.2036 z m -3.42253,0.71106 c -0.0456,0.002 -0.0816,0.0401 -0.0816,0.0863 v 0.88935 c 0,0.0477 0.0386,0.0863 0.0863,0.0863 h 0.37827 c 0.0477,0 0.0858,-0.0386 0.0858,-0.0863 v -0.88935 c 0,-0.0477 -0.0381,-0.0863 -0.0858,-0.0863 h -0.37827 c -0.001,0 -0.003,-7e-5 -0.005,0 z m 0.61857,0 c -0.0456,0.002 -0.0817,0.0401 -0.0817,0.0863 v 0.53175 c 0,0.0477 0.0386,0.0858 0.0863,0.0858 h 1.31775 c 0.0477,0 0.0858,-0.0381 0.0858,-0.0858 v -0.53175 c 0,-0.0477 -0.0381,-0.0863 -0.0858,-0.0863 h -1.31775 c -0.001,0 -0.003,-7e-5 -0.005,0 z m 1.55804,0 c -0.0456,0.002 -0.0816,0.0401 -0.0816,0.0863 v 0.88935 c 0,0.0477 0.0386,0.0863 0.0863,0.0863 h 0.37827 c 0.0477,0 0.0863,-0.0386 0.0863,-0.0863 v -0.88935 c 0,-0.0477 -0.0386,-0.0863 -0.0863,-0.0863 h -0.37827 c -0.001,0 -0.003,-7e-5 -0.005,0 z"
       sodipodi:nodetypes="csccccccssssccccccssscccccccccccccccccccccccccccccccccccccccccccccccccccccccccccccccccccccccccccccccccccccccccccccccccccccccccccccccssssssssccssssssssccsssssssscscs" /><path
       style="fill:#000000;stroke:none;stroke-width:0.264583px;stroke-linecap:butt;stroke-linejoin:miter;stroke-opacity:1"
       d="m 151.26022,124.56787 c 0.23533,-0.1233 0.95313,-0.11791 1.22851,0 0,0 0.27855,1.29074 0.25779,1.35444 -0.0439,0.048 -0.98822,0.0875 -1.16913,0 0,0 -0.33748,-1.28562 -0.31717,-1.35444 z"
       id="path3673"
       sodipodi:nodetypes="ccccc" /><g
       id="g3867"
       transform="matrix(-1,0,0,1,319.09932,4.157249)"><path
         id="path3700-5"
         style="fill:#000000;stroke:none;stroke-width:0.252045px;stroke-linecap:butt;stroke-linejoin:miter;stroke-opacity:1"
         d="m 161.02981,119.49906 -5.2e-4,5.2e-4 -0.61753,0.80253 c 0.25463,-0.11472 0.89679,-0.12139 1.2547,-0.031 -0.15995,-0.22906 -0.28467,-0.48375 -0.36638,-0.75655 -0.0918,-0.004 -0.18396,-0.008 -0.27027,-0.0155 z m -1.29191,0.82579 c -9.1e-4,0.002 -0.007,0.0103 -0.007,0.0103 0,0 0.22404,0.87658 0.4837,0.83665 0.0562,0.0208 0.19162,0.0334 0.37258,0.0403 -0.0934,-0.37313 -0.19212,-0.7849 -0.1974,-0.8816 l -0.0899,0.11679 c 0,0 -0.23641,-0.0496 -0.56172,-0.12247 z m 2.09083,0.15606 c 0.036,0.16893 0.0925,0.43724 0.14934,0.72296 0.32595,-0.009 0.61144,-0.0205 0.76481,-0.0269 -0.35288,-0.16566 -0.66446,-0.40427 -0.91415,-0.69608 z" /><path
         style="fill:#000000;stroke:none;stroke-width:0.264583px;stroke-linecap:butt;stroke-linejoin:miter;stroke-opacity:1"
         d="m 160.50527,120.41062 c 0.23533,-0.1233 0.95313,-0.11791 1.22851,0 0,0 0.27855,1.29074 0.25779,1.35444 -0.0439,0.048 -0.98822,0.0875 -1.16913,0 0,0 -0.33748,-1.28562 -0.31717,-1.35444 z"
         id="path3673-2"
         sodipodi:nodetypes="ccccc" /></g><path
       id="path4417"
       style="fill:#000000;stroke:none;stroke-width:0.264583px;stroke-linecap:butt;stroke-linejoin:miter;stroke-opacity:1"
       d="m 144.44412,120.7092 c -0.2949,0.0693 -0.36948,0.71727 -0.36948,0.71727 -0.0237,0.25802 1.43576,1.64574 1.52445,1.6707 0.0887,0.025 0.54739,0.3736 0.73536,0.40049 0,0 0.40235,-0.68328 0.293,-0.91674 -0.052,-0.1154 -0.33745,-0.27543 -0.33745,-0.27543 -0.008,-0.0147 -0.0123,-0.0323 -0.0155,-0.0512 -0.13932,0.0626 -0.29402,0.0971 -0.4563,0.0971 -0.61713,0 -1.12086,-0.50373 -1.12086,-1.12086 0,-0.1734 0.0397,-0.33757 0.11058,-0.48421 -0.12082,-0.0166 -0.24253,-0.0274 -0.3638,-0.0372 z m 0.63562,0.0884 c -0.0742,0.12684 -0.11679,0.27489 -0.11679,0.43305 0,0.47391 0.38134,0.85524 0.85525,0.85524 0.18865,0 0.3627,-0.0606 0.50384,-0.16329 0.022,-0.0714 0.0429,-0.12248 0.0429,-0.12248 0,0 -0.33638,0.0802 -0.70332,-0.0749 -0.15285,-0.016 -0.33228,-0.84542 -0.33228,-0.84542 -0.0814,-0.0343 -0.16486,-0.061 -0.2496,-0.0822 z" /><path
       style="fill:#000000;stroke:none;stroke-width:0.264583px;stroke-linecap:butt;stroke-linejoin:miter;stroke-opacity:1"
       d="m 142.14399,121.1567 c 0.35962,0.0806 0.93135,0.84899 1.00961,1.0134 l -1.88114,3.74943 c 0,0 0.39772,1.75482 0.2412,1.78042 -0.15652,0.0256 -2.72572,0.96031 -2.72572,0.96031 0,0 -0.2692,-1.81947 -0.035,-2.3966 0,0 2.17021,-4.20657 3.39105,-5.10696 z"
       id="path4474"
       sodipodi:nodetypes="cccsccc" /><path
       style="fill:#000000;stroke:none;stroke-width:0.303638px;stroke-linecap:butt;stroke-linejoin:miter;stroke-opacity:1"
       d="m 143.91984,121.64259 c 0.0957,0.19102 1.54417,1.4902 1.17141,1.58043 -0.37278,0.0902 -1.96241,1.29981 -1.96241,1.29981 0,0 -0.5984,-0.5754 -0.52336,-0.69691 0.0751,-0.12152 1.00969,-2.17002 1.00969,-2.17002 z"
       id="path4476" /><path
       style="fill:#000000;stroke:none;stroke-width:0.264583px;stroke-linecap:butt;stroke-linejoin:miter;stroke-opacity:1"
       d="m 145.23509,123.29144 c -0.13689,0.0835 -2.00626,1.29589 -2.00626,1.29589 0,0 0.61232,0.56516 0.98604,0.54161 0,0 1.39248,-0.64464 1.92185,-1.3113 0,0 -0.7641,-0.5233 -0.90163,-0.5262 z"
       id="path4478"
       sodipodi:nodetypes="ccccc" /><path
       style="fill:#000000;stroke:none;stroke-width:0.264583px;stroke-linecap:butt;stroke-linejoin:miter;stroke-opacity:1"
       d="m 142.47315,124.0789 c 0.14973,0.60452 1.29928,1.12227 1.69168,1.28571 -0.002,0.32468 -0.74102,1.98691 -0.74102,1.98691 0,0 0.21854,1.10666 0.14374,1.06703 -0.0748,-0.0396 -1.63688,-0.33136 -1.6587,-0.54481 -0.0218,-0.21346 -0.36955,-1.93134 -0.36955,-1.93134 z"
       id="path4480"
       sodipodi:nodetypes="ccccccc" /><path
       style="fill:#000000;stroke:none;stroke-width:0.264583px;stroke-linecap:butt;stroke-linejoin:miter;stroke-opacity:1"
       d="m 141.77176,128.70321 c -0.19295,0.14978 -0.15854,0.69515 0.1101,0.7688 l 0.43035,0.0223 0.63701,0.6404 c 0,0 0.989,-0.3731 0.97069,-0.42644 -0.0183,-0.0533 -0.18207,-0.52548 -0.18207,-0.52548 0,0 -0.71565,-0.77137 -0.74645,-0.78504 -0.0308,-0.0137 -0.38565,-0.15048 -0.38565,-0.15048 z"
       id="path4482"
       sodipodi:nodetypes="ccccscccc" /><path
       style="fill:#000000;stroke:none;stroke-width:0.264583px;stroke-linecap:butt;stroke-linejoin:miter;stroke-opacity:1"
       d="m 143.75288,129.88529 c -0.0894,0.0475 -0.73216,0.35412 -0.73216,0.35412 l -0.4808,1.40374 c 0,0 0.12653,0.65663 0.18294,0.58981 0.0564,-0.0668 0.48026,-0.57199 0.5227,-0.65397 0.0424,-0.082 0.74727,-1.75319 0.74727,-1.75319 z"
       id="path4484" /><path
       style="fill:#000000;stroke:none;stroke-width:0.264583px;stroke-linecap:butt;stroke-linejoin:miter;stroke-opacity:1"
       d="m 144.56714,129.87748 0.0652,0.81442 c 0,0 -0.49563,1.5203 -0.85635,1.77613 l -0.31588,0.15726 c 0.0601,-0.0209 -0.40479,-0.20329 -0.60719,-0.30493 l 0.63163,-0.71009 0.704,-1.71495 -0.31691,-0.73673 z"
       id="path4486"
       sodipodi:nodetypes="ccccccccc" /><g
       id="g4530"
       transform="matrix(-1,0,0,1,277.08087,5.9673795)"><path
         style="fill:#000000;stroke:none;stroke-width:0.264583px;stroke-linecap:butt;stroke-linejoin:miter;stroke-opacity:1"
         d="m 136.43393,122.93904 c -0.35746,0.18463 -0.18587,0.73274 -0.0252,0.75901 l 0.56565,0.0321 0.63701,0.6404 c 0,0 0.989,-0.3731 0.97069,-0.42644 -0.0183,-0.0533 -0.18207,-0.52548 -0.18207,-0.52548 0,0 -0.71565,-0.77137 -0.74645,-0.78504 -0.0308,-0.0137 -0.38565,-0.15048 -0.38565,-0.15048 z"
         id="path4482-6"
         sodipodi:nodetypes="ccccscccc" /><path
         style="fill:#000000;stroke:none;stroke-width:0.264583px;stroke-linecap:butt;stroke-linejoin:miter;stroke-opacity:1"
         d="m 138.41505,124.12112 c -0.0894,0.0475 -0.73216,0.35412 -0.73216,0.35412 l -0.4808,1.40374 c 0,0 0.12653,0.65663 0.18294,0.58981 0.0564,-0.0668 0.48026,-0.57199 0.5227,-0.65397 0.0424,-0.082 0.74727,-1.75319 0.74727,-1.75319 z"
         id="path4484-8" /><path
         style="fill:#000000;stroke:none;stroke-width:0.264583px;stroke-linecap:butt;stroke-linejoin:miter;stroke-opacity:1"
         d="m 139.22931,124.11331 0.0652,0.81442 c 0,0 -0.49563,1.5203 -0.85635,1.77613 l -0.31588,0.15726 c 0.0601,-0.0209 -0.40479,-0.20329 -0.60719,-0.30493 l 0.63163,-0.71009 0.704,-1.71495 -0.31691,-0.73673 z"
         id="path4486-8"
         sodipodi:nodetypes="ccccccccc" /></g><path
       style="fill:#000000;stroke:none;stroke-width:0.264583px;stroke-linecap:butt;stroke-linejoin:miter;stroke-opacity:1"
       d="m 142.66123,121.39959 c 0.0204,0.0243 0.53385,0.464 0.56781,0.64151 0,0 0.21754,-0.41038 0.19149,-0.42166 -0.0261,-0.0113 -0.35625,-0.32375 -0.7593,-0.21985 z"
       id="path5018"
       sodipodi:nodetypes="ccsc" /><path
       id="path5059"
       style="fill:#000000;stroke:none;stroke-width:0.264583px;stroke-linecap:butt;stroke-linejoin:miter;stroke-opacity:1"
       d="m 164.05274,118.5636 c -0.15301,-6e-5 -0.27412,0.0124 -0.35605,0.0377 -0.67459,0.14443 -1.51618,0.84491 -1.51618,0.84491 l 0.0403,0.48163 c 0,0 1.04215,0.7362 1.52084,2.03501 l 0.81287,-0.3054 c 0,0 -0.0256,-0.79959 0.32711,-0.96429 0.35359,-0.1306 2.57969,-0.0455 2.57969,-0.0455 l 0.69867,-0.3669 c 0,0 0.36738,-0.39497 0.28628,-0.70539 -1.58886,-0.60992 -3.51572,-1.01149 -4.39353,-1.01182 z m -0.0822,1.68465 c 0.28951,0 0.52555,0.23758 0.52555,0.5271 0,0.28951 -0.23604,0.52555 -0.52555,0.52555 -0.28951,0 -0.5271,-0.23604 -0.5271,-0.52555 0,-0.28952 0.23759,-0.5271 0.5271,-0.5271 z m 0,0.21652 c -0.17284,0 -0.31058,0.13773 -0.31058,0.31058 0,0.17284 0.13774,0.31057 0.31058,0.31057 0.17285,0 0.31057,-0.13773 0.31057,-0.31057 0,-0.17285 -0.13772,-0.31058 -0.31057,-0.31058 z" /><path
       style="fill:#000000;stroke:none;stroke-width:0.264583px;stroke-linecap:butt;stroke-linejoin:miter;stroke-opacity:1"
       d="m 164.65699,121.88349 c -0.12845,0.0463 -0.89964,0.30157 -0.89964,0.30157 l -0.0526,0.4408 -0.64023,-0.29603 0.23052,0.95214 -0.31912,0.0129 0.0622,0.89478 c 0,0 1.54688,0.13117 1.53846,0.0784 0.14054,-0.81549 0.14149,-1.60032 0.0804,-2.38456 z"
       id="path5068"
       sodipodi:nodetypes="ccccccccc" /><path
       style="fill:#000000;stroke:none;stroke-width:0.295242px;stroke-linecap:butt;stroke-linejoin:miter;stroke-opacity:1"
       d="m 162.88276,123.24357 0.0333,0.41852 -0.22462,-0.0205 -0.16029,-0.41993 z"
       id="path5072" /><path
       id="rect5287"
       style="fill:#000000;stroke:none;stroke-width:0.264999;stroke-linecap:round;stroke-dasharray:none;stop-color:#000000"
       d="m 165.90069,121.2363 c -0.12077,0.005 -0.22311,0.0785 -0.26923,0.18294 h -0.21859 c -0.17024,0 -0.30696,0.13672 -0.30696,0.30696 v 1.19837 l 0.1695,-0.0982 0.43563,-1.22474 0.7922,-0.11885 5.2e-4,-0.004 0.0129,0.002 0.0124,-0.002 5.2e-4,0.004 0.79271,0.11885 0.43563,1.22474 0.1695,0.0982 v -1.19837 c 0,-0.17024 -0.13723,-0.30696 -0.30747,-0.30696 h -0.21808 c -0.0476,-0.10784 -0.15527,-0.18294 -0.28112,-0.18294 h -1.20819 c -0.004,0 -0.008,-1.4e-4 -0.0119,0 z m 0.61599,0.41186 -0.68472,0.10181 -0.42013,1.18959 -0.30592,0.17621 v 1.21957 l 0.30644,0.17621 0.41961,1.18753 0.68472,0.10387 0.68471,-0.10387 0.41961,-1.18753 0.30644,-0.17673 v -1.21853 l -0.30644,-0.17673 -0.41961,-1.18959 z m 0.001,0.31885 c 0.43274,0 0.78497,0.35221 0.78497,0.78496 0,0.43274 -0.35223,0.78497 -0.78497,0.78497 -0.43275,0 -0.78703,-0.35223 -0.78703,-0.78497 0,-0.43275 0.35428,-0.78496 0.78703,-0.78496 z m -0.016,0.16588 c -0.33612,0.008 -0.60513,0.28088 -0.60513,0.61908 0,0.34357 0.27758,0.62115 0.62115,0.62115 0.34357,0 0.61908,-0.27758 0.61908,-0.62115 0,-0.34357 -0.27551,-0.61908 -0.61908,-0.61908 -0.005,0 -0.0107,-1.4e-4 -0.016,0 z m 0.016,1.7911 c 0.43274,0 0.78497,0.35222 0.78497,0.78497 0,0.43274 -0.35223,0.78496 -0.78497,0.78496 -0.43275,0 -0.78703,-0.35222 -0.78703,-0.78496 0,-0.43275 0.35428,-0.78497 0.78703,-0.78497 z m 0,0.16382 c -0.34357,0 -0.62115,0.27758 -0.62115,0.62115 0,0.34357 0.27758,0.61908 0.62115,0.61908 0.34357,0 0.61908,-0.27551 0.61908,-0.61908 0,-0.34357 -0.27551,-0.62115 -0.61908,-0.62115 z m -1.4118,0.4377 v 1.20923 c 0,0.17023 0.13672,0.30695 0.30696,0.30695 h 0.21859 c 0.0476,0.10792 0.15521,0.18294 0.28112,0.18294 h 1.20819 c 0.12591,0 0.23354,-0.075 0.28112,-0.18294 h 0.21808 c 0.17024,0 0.30747,-0.13672 0.30747,-0.30695 v -1.20923 l -0.1695,0.0977 -0.43563,1.22628 -0.79271,0.11782 -5.2e-4,0.004 -0.0124,-0.002 -0.0129,0.002 -5.2e-4,-0.004 -0.7922,-0.11782 -0.43563,-1.22628 z" /><path
       id="rect5636"
       style="fill:#000000;stroke:none;stroke-width:0.169898;stroke-linecap:round;stroke-dasharray:none;stop-color:#000000"
       d="m 153.94995,127.40536 c -0.39364,0.01 -0.70745,0.33047 -0.70745,0.72657 v 3.17603 c 0,0.63663 -0.13444,0.72658 0.72656,0.72658 h 0.29301 v -1.32395 c 6.1e-4,-0.10073 0.0827,-0.18192 0.18345,-0.18139 0.10013,3.2e-4 0.1813,0.0813 0.18191,0.18139 v 1.32395 h 0.30076 v -1.32395 c 6.1e-4,-0.0999 0.0814,-0.18077 0.18137,-0.18139 0.10073,-5.3e-4 0.18284,0.0807 0.18345,0.18139 v 1.32395 h 0.30077 v -1.32395 c 6.1e-4,-0.10012 0.0818,-0.18106 0.18189,-0.18139 0.0999,6.1e-4 0.18077,0.0815 0.18138,0.18139 v 1.32395 h 0.29301 c 0.80137,0 0.72658,-0.0132 0.72658,-0.72658 v -3.17603 c 0,-0.40239 -0.32419,-0.72657 -0.72658,-0.72657 h -2.281 c -0.006,0 -0.0129,-1.6e-4 -0.0191,0 z"
       sodipodi:nodetypes="sssscccccccccccccccsssssss" /><path
       id="path6158"
       style="fill:#000000;stroke:none;stroke-width:0.264583px;stroke-linecap:butt;stroke-linejoin:miter;stroke-opacity:1"
       d="m 152.79586,140.79338 c -0.19377,0.12545 -0.29611,1.80609 -0.29611,1.80609 0.17217,0.15583 5.08053,0.16285 5.33973,0 0,0 -0.14729,-1.61122 -0.3483,-1.80609 -0.1431,0.10407 -3.99072,0.17994 -4.69532,0 z m 0.42323,0.4377 c 0.11766,-1.9e-4 0.2131,0.0952 0.21291,0.2129 -10e-5,0.11746 -0.0954,0.21258 -0.21291,0.21239 -0.11726,-1e-4 -0.21229,-0.0951 -0.21239,-0.21239 -1.9e-4,-0.11746 0.0949,-0.2128 0.21239,-0.2129 z m 3.89279,0 c 0.11746,1e-4 0.21258,0.0954 0.21239,0.2129 -1e-4,0.11726 -0.0951,0.21229 -0.21239,0.21239 -0.11746,1.9e-4 -0.21281,-0.0949 -0.21291,-0.21239 -1.9e-4,-0.11766 0.0953,-0.21309 0.21291,-0.2129 z m -2.26405,0.10106 h 4e-4 c 0.003,-6e-5 0.007,0 0.0107,0 h 0.64988 c 0.11716,0 0.21161,0.0355 0.21161,0.0794 v 0.19255 h 0.23661 c 0.11715,0 0.21159,0.035 0.21159,0.079 v 0.21557 c 0,0.0439 -0.0944,0.0794 -0.21159,0.0794 h -0.23661 v 0.13339 c 0,0.0439 -0.0945,0.0794 -0.21161,0.0794 h -0.64988 c -0.11716,0 -0.2112,-0.0355 -0.2112,-0.0794 v -0.13339 h -0.23701 c -0.11716,0 -0.2116,-0.0354 -0.2116,-0.0794 v -0.21557 c 0,-0.0426 0.0884,-0.0767 0.20048,-0.079 0.004,-7e-5 0.008,0 0.0115,0 h 0.23661 v -0.19255 c 0,-0.0425 0.0882,-0.0794 0.20008,-0.0794 z m -1.64683,0.52573 c 0.11767,-1.9e-4 0.2131,0.0952 0.21291,0.21291 -10e-5,0.11746 -0.0954,0.21258 -0.21291,0.21239 -0.11726,-1e-4 -0.21229,-0.0951 -0.21239,-0.21239 -1.9e-4,-0.11746 0.0949,-0.21281 0.21239,-0.21291 z m 3.93671,0 c 0.11746,1e-4 0.21258,0.0954 0.21239,0.21291 -1e-4,0.11726 -0.0951,0.21229 -0.21239,0.21239 -0.11726,-1e-4 -0.21229,-0.0951 -0.21239,-0.21239 -1.9e-4,-0.11746 0.0949,-0.21281 0.21239,-0.21291 z"
       sodipodi:nodetypes="cccccccccccccccccssscsssscsssscssscscssccccccccccc" /><path
       id="rect6162"
       style="fill:#000000;stroke:none;stroke-width:0.365001;stroke-linecap:round;stroke-dasharray:none;stop-color:#000000"
       d="m 157.92547,141.99009 c 0.0851,0.1116 0.0875,0.65162 0.0574,0.70642 -0.0758,0.13815 -1.42679,0.1142 -1.42679,0.1142 0.0583,0.17939 -0.0326,0.71059 -0.0491,0.74569 0.37475,-0.002 0.9101,-0.0252 0.9834,0.30231 l 0.2155,-0.006 c 0.007,0.0698 0.0657,0.12402 0.13745,0.12402 h 0.7457 c 0.0768,0 0.13849,-0.0623 0.13849,-0.13901 0,-0.004 -1.7e-4,-0.008 -5.2e-4,-0.0119 l 0.30644,-0.008 c -9.1e-4,0.006 -0.002,0.0129 -0.002,0.0196 0,0.0768 0.0622,0.13901 0.13901,0.13901 h 0.74517 c 0.0768,0 0.13849,-0.0623 0.13849,-0.13901 0,-0.0164 -0.003,-0.0319 -0.008,-0.0465 l 0.14108,-0.004 c 0,0 0.15106,-0.32344 0.0186,-0.49247 l -0.38292,-0.20102 -0.12971,-0.42789 c 0,0 -0.84554,-0.571 -1.76785,-0.67644 z m -5.71379,0.0903 c -0.92231,0.10544 -1.76785,0.67645 -1.76785,0.67645 l -0.12971,0.42788 -0.38292,0.20102 c -0.13246,0.16903 0.0186,0.49248 0.0186,0.49248 l 0.14108,0.004 c -0.005,0.0145 -0.008,0.0301 -0.008,0.0465 0,0.0767 0.0617,0.13901 0.13849,0.13901 h 0.74518 c 0.0768,0 0.13901,-0.0622 0.13901,-0.13901 0,-0.007 -0.001,-0.0136 -0.002,-0.0196 l 0.30644,0.008 c -3.5e-4,0.004 -5.2e-4,0.008 -5.2e-4,0.0119 0,0.0767 0.0617,0.13901 0.1385,0.13901 h 0.74569 c 0.0718,0 0.13046,-0.0542 0.13746,-0.12402 l 0.21549,0.006 c 0.0733,-0.32751 0.60865,-0.30483 0.9834,-0.30283 -0.0165,-0.0351 -0.10739,-0.5663 -0.0491,-0.74569 0,0 -1.35099,0.0245 -1.42679,-0.11369 -0.0301,-0.0548 -0.0277,-0.59481 0.0574,-0.70641 z m 1.60086,0.80942 c -0.0634,0.39696 0.23461,1.46192 0.23461,1.46192 0.0857,0.11708 1.90394,0.0563 2.02055,0 0,0 0.24607,-1.25849 0.15917,-1.46192 z m -0.33789,1.02303 c -0.18579,0 -0.27604,0.15931 -0.33538,0.33538 l -0.22125,0.65645 c -0.0593,0.17607 0.14959,0.33538 0.33538,0.33538 h 3.70934 c 0.1858,0 0.33538,-0.14958 0.33538,-0.33538 v -0.67231 c 0,-0.1858 -0.14958,-0.33538 -0.33538,-0.33538 h -0.57051 c -0.0469,0.28954 -0.093,0.52503 -0.093,0.52503 l -0.0119,0.0641 -0.0605,0.0295 c -0.0359,0.0175 -0.0524,0.0167 -0.078,0.0217 -0.0256,0.005 -0.0536,0.007 -0.0879,0.0114 -0.0687,0.008 -0.15612,0.0157 -0.25786,0.0217 -0.20347,0.0127 -0.46299,0.0234 -0.72089,0.0274 -0.2579,0.004 -0.51479,0.003 -0.71675,-0.008 -0.10097,-0.005 -0.18749,-0.0139 -0.25786,-0.0253 -0.0352,-0.006 -0.0654,-0.0112 -0.0956,-0.0212 -0.0302,-0.01 -0.0644,-0.0148 -0.10387,-0.0687 l -0.0134,-0.0196 -0.008,-0.0233 c 0,0 -0.0659,-0.23614 -0.13178,-0.53433 z"
       sodipodi:nodetypes="ccccccsssccsssscccccccccccccssssccssscccccccccccccssssssscccssccsccsccccc" /><path
       id="path6803-3"
       style="fill:#000000;stroke:none;stroke-width:0.264583px;stroke-linecap:butt;stroke-linejoin:miter;stroke-opacity:1"
       d="m 148.97356,127.70878 c -0.73156,0.20785 -0.99994,3.95996 -0.99994,3.95996 0.12989,0.37772 0.64579,0.75254 1.20768,1.05523 0.0127,-0.11003 0.027,-0.2237 0.045,-0.32607 0.0191,-0.10856 0.0395,-0.19844 0.0739,-0.27544 0.23042,-0.64888 0.59651,-0.93605 0.94154,-0.94775 v 5.2e-4 c 0.0169,-4.8e-4 0.0337,-2.2e-4 0.0506,5.2e-4 v -5.2e-4 c 0.36015,0.016 0.64686,0.31273 0.65836,0.65836 v 0.0145 l -0.002,0.0109 c 0.002,-0.01 -8.3e-4,0.0361 -5.1e-4,0.0847 0,0.0518 10e-4,0.12042 0.004,0.20102 0.005,0.16126 0.0143,0.36865 0.0233,0.57051 0.0115,0.25125 0.022,0.45808 0.03,0.60771 0.4509,-0.28024 0.93328,-1.23868 0.93328,-1.23868 -0.044,-0.0722 -0.30749,-1.46178 -0.76482,-1.67122 l -1.1901,-0.57257 c -0.16551,-0.16511 -0.12041,-1.60662 -0.12041,-1.60662 l -0.88987,-0.52452 z m 2.24586,0.60668 -1.19631,0.24339 c 0.004,0.4227 0.0298,0.94102 0.12506,1.03612 l 1.17667,0.56637 z m -5.02915,2.94865 -0.20619,0.25477 1.29966,0.21549 -0.12402,-0.31833 z m -1.44746,0.006 c -0.0189,-4e-5 -0.0359,2.5e-4 -0.0532,5.1e-4 -0.0466,0.12794 -0.10059,0.27091 -0.16434,0.42633 -0.0856,0.20874 -0.18428,0.42589 -0.28525,0.61133 -0.0225,0.0413 -0.0444,0.0801 -0.0667,0.11783 -0.0113,0.27502 -0.0115,0.51852 -0.0388,0.62011 l 0.82941,0.13488 c 0,0 -0.53228,1.84141 -0.88625,3.25406 0.12541,0.006 0.25022,0.0121 0.3855,0.0191 0.3917,0.0204 0.75965,0.0393 0.75965,0.0393 l 0.076,0.006 0.72295,1.41593 -1.99522,0.91726 c 0.28441,0.73167 0.71003,1.66915 0.71003,1.66915 -0.19514,0.21626 -0.62337,1.31766 -0.64957,1.39216 -0.12412,0.352 0.23719,0.74879 0.23719,0.74879 0.15305,0.22032 1.20355,0.13643 1.20355,0.13643 l 0.45372,-0.46044 1.43453,0.0145 1.04438,-1.00252 -0.76946,-4.3093 c 0,0 -0.96927,0.12421 -1.30173,0.0465 0.10196,-0.45317 -0.10232,-4.95939 -0.10232,-4.95939 l -0.67231,-0.79581 c 0,0 -0.5472,-0.0417 -0.87178,-0.0424 z m 7.19336,0.0966 -0.0584,0.14263 c 0,0 0.12349,0.28868 0.15709,0.41961 0.0336,0.13095 -0.003,0.19507 -0.0388,0.31884 0.32608,-0.11564 0.33848,-0.21755 0.33848,-0.21755 z m -1.67587,0.0734 c -0.21533,0.001 -0.49819,0.1681 -0.71158,0.77205 l -0.002,0.006 -0.004,0.006 c -0.012,0.0253 -0.0365,0.11639 -0.0548,0.22066 -0.0184,0.10427 -0.034,0.22645 -0.047,0.34365 -0.003,0.0226 -0.005,0.0431 -0.007,0.0651 0.5354,0.26366 1.06651,0.45458 1.30896,0.51418 -0.008,-0.14238 -0.0203,-0.36309 -0.0331,-0.64182 -0.009,-0.20256 -0.0177,-0.40836 -0.0227,-0.57206 -0.003,-0.0819 -0.004,-0.15317 -0.004,-0.20877 0,-0.0438 0.001,-0.0699 0.004,-0.10181 -0.007,-0.20029 -0.18855,-0.39256 -0.40617,-0.40256 -0.002,-7e-5 -0.003,-4.2e-4 -0.005,-5.1e-4 v -5.2e-4 h -5.2e-4 c -0.002,-5e-5 -0.003,4e-5 -0.005,0 -0.003,-10e-5 -0.007,-2e-5 -0.0103,0 z m -3.82715,0.29301 0.21084,0.32452 0.0398,3.23908 c 0.58002,0.15276 2.53628,-0.0971 2.53628,-0.0971 0.52269,-0.11994 1.37097,-1.63918 1.37097,-1.63918 -2.732,-0.76394 -2.9223,-1.62574 -2.9223,-1.62574 z m 3.7884,0.0527 a 0.27247697,0.27247697 0 0 1 0.27233,0.27285 0.27247697,0.27247697 0 0 1 -0.27233,0.27182 0.27247697,0.27247697 0 0 1 -0.27285,-0.27182 0.27247697,0.27247697 0 0 1 0.27285,-0.27285 z m -0.42995,0.68419 a 0.176135,0.176135 0 0 1 0.17622,0.17674 0.176135,0.176135 0 0 1 -0.17622,0.1757 0.176135,0.176135 0 0 1 -0.1757,-0.1757 0.176135,0.176135 0 0 1 0.1757,-0.17674 z m 0.54105,0.12764 a 0.2158682,0.2158682 0 0 1 0.21549,0.21653 0.2158682,0.2158682 0 0 1 -0.21549,0.216 0.2158682,0.2158682 0 0 1 -0.21601,-0.216 0.2158682,0.2158682 0 0 1 0.21601,-0.21653 z m -3.67833,2.88717 c 0.0487,0.0761 -0.015,1.40094 -0.015,1.40094 0.3077,0.0236 0.82424,-0.0377 0.82424,-0.0377 l -0.0481,-1.33222 z m -2.6417,1.21232 c -0.11964,0.49137 -0.20964,0.90748 -0.23564,1.1374 -0.005,0.196 0.0605,0.46316 0.15865,0.74983 l 1.72651,-0.79324 -0.52917,-1.03559 c -0.0633,-0.003 -0.33174,-0.0184 -0.68368,-0.0367 -0.15107,-0.008 -0.2972,-0.0147 -0.43667,-0.0217 z m 4.53978,0.16227 -0.71314,0.0434 0.79479,4.51755 1.7756,-0.34416 c 0.03,-0.33799 -0.36404,-3.22517 -0.71779,-3.44372 -0.0859,-0.0531 -0.73018,-0.0486 -0.73018,-0.0486 z m -1.78904,2.42621 c 0.004,-3.8e-4 0.008,-6e-5 0.0129,0 0.0543,3e-4 0.10277,0.0337 0.12247,0.0842 0.0268,0.0679 -0.007,0.14477 -0.0744,0.17157 l -1.42369,0.5705 c -0.0681,0.0272 -0.14528,-0.006 -0.17208,-0.0744 -0.0268,-0.0679 0.007,-0.14467 0.0744,-0.17157 l 1.42162,-0.5705 c 0.0123,-0.005 0.0256,-0.009 0.0388,-0.01 z m 0.28577,0.77669 c 0.0173,0 0.0345,0.003 0.0506,0.0103 0.0321,0.0139 0.0574,0.04 0.0703,0.0724 0.0286,0.0686 -0.005,0.14735 -0.0744,0.17415 l -1.42162,0.56792 c -0.0684,0.0282 -0.14663,-0.005 -0.17363,-0.0739 -0.0272,-0.0679 0.006,-0.14498 0.0739,-0.17208 l 1.42368,-0.56844 c 0.0163,-0.007 0.0337,-0.0105 0.0512,-0.0103 z m 3.11661,1.17513 c -0.10185,0 -1.37615,0.34623 -1.37615,0.34623 l -1.12034,1.02216 c 0,0 0.1559,0.746 0.26665,1.07383 v 0.31006 c 0,0.0467 0.0375,0.0848 0.0842,0.0848 h 1.41955 c 0.0107,-0.0697 0.0366,-0.14137 0.0894,-0.20877 l 0.0233,-0.031 0.0656,-0.0346 -0.0326,-0.0713 c 0,0 -0.0462,-0.0973 -0.0724,-0.22273 -0.0261,-0.12544 -0.0454,-0.30338 0.0765,-0.45889 l 0.0233,-0.031 0.34933,-0.18345 0.12713,-0.416 0.0527,-0.0372 c 0,0 0.32719,-0.22312 0.80718,-0.42167 -0.4071,-0.37328 -0.78341,-0.72037 -0.78341,-0.72037 z m -4.15169,1.35082 -0.79943,0.85111 v 0.0553 h -0.0966 c -0.0467,0 -0.0847,0.037 -0.0847,0.0837 v 0.41134 c 0,0.0467 0.038,0.0837 0.0847,0.0837 h 2.44688 c 0.0467,0 0.0847,-0.037 0.0847,-0.0837 v -0.41134 c 0,-0.0467 -0.038,-0.0837 -0.0847,-0.0837 h -0.0966 v -0.27543 l -0.37982,-0.63046 z m -2.18229,0.0744 -0.87954,0.5457 c -0.11607,0.0419 -0.11807,0.29334 -0.11007,0.43047 h -0.0264 c -0.0467,0 -0.0847,0.0375 -0.0847,0.0842 v 0.26614 c 0,0.0467 0.038,0.0847 0.0847,0.0847 h 1.89859 c 0.0467,0 0.0842,-0.038 0.0842,-0.0847 v -0.26614 c 0,-0.0467 -0.0375,-0.0842 -0.0842,-0.0842 h -0.21446 l 0.53744,-0.5886 -0.85938,-0.11265 z" /><path
       id="rect3564"
       style="fill:#000000;stroke:none;stroke-width:0.300422;stroke-linecap:round;stop-color:#000000"
       d="m 168.12745,122.37142 c -0.0427,0.004 -0.0754,0.0404 -0.0754,0.0842 v 0.12712 c -1.9e-4,0.004 0,0.008 0,0.0114 v 2.27273 c 0,0.004 -1.9e-4,0.008 0,0.0114 v 0.12712 c 0,0.0467 0.0375,0.0842 0.0842,0.0842 h 0.12713 0.10438 0.008 0.0434 c 0.12346,0 0.22273,-0.0993 0.22273,-0.22272 v -2.27273 c 0,-0.12346 -0.0993,-0.22273 -0.22273,-0.22273 h -0.0434 -0.008 -0.10438 -0.12713 c -0.003,0 -0.006,-2.8e-4 -0.009,0 z" /></g></svg>
