<?xml version="1.0" encoding="UTF-8" standalone="no"?>
<!-- Created with Inkscape (http://www.inkscape.org/) -->

<svg
   sodipodi:docname="Raven.svg"
   inkscape:version="1.2.2 (b0a8486541, 2022-12-01)"
   id="svg8"
   version="1.1"
   viewBox="0 0 34.98301 52.516205"
   height="52.516205mm"
   width="34.983009mm"
   xml:space="preserve"
   xmlns:inkscape="http://www.inkscape.org/namespaces/inkscape"
   xmlns:sodipodi="http://sodipodi.sourceforge.net/DTD/sodipodi-0.dtd"
   xmlns="http://www.w3.org/2000/svg"
   xmlns:svg="http://www.w3.org/2000/svg"
   xmlns:rdf="http://www.w3.org/1999/02/22-rdf-syntax-ns#"
   xmlns:cc="http://creativecommons.org/ns#"
   xmlns:dc="http://purl.org/dc/elements/1.1/"><defs
     id="defs2" /><sodipodi:namedview
     id="base"
     pagecolor="#ffffff"
     bordercolor="#666666"
     borderopacity="1.0"
     inkscape:pageopacity="0.0"
     inkscape:pageshadow="2"
     inkscape:zoom="4.0000003"
     inkscape:cx="55.999996"
     inkscape:cy="96.749994"
     inkscape:document-units="mm"
     inkscape:current-layer="layer3"
     showgrid="false"
     inkscape:window-width="1854"
     inkscape:window-height="1011"
     inkscape:window-x="66"
     inkscape:window-y="1112"
     inkscape:window-maximized="1"
     inkscape:snap-global="false"
     fit-margin-top="0"
     fit-margin-left="0"
     fit-margin-right="0"
     fit-margin-bottom="0"
     showguides="true"
     inkscape:guide-bbox="true"
     inkscape:showpageshadow="2"
     inkscape:pagecheckerboard="0"
     inkscape:deskcolor="#d1d1d1" /><metadata
     id="metadata5"><rdf:RDF><cc:Work
         rdf:about=""><dc:format>image/svg+xml</dc:format><dc:type
           rdf:resource="http://purl.org/dc/dcmitype/StillImage" /><dc:title /></cc:Work></rdf:RDF></metadata><g
     inkscape:groupmode="layer"
     id="layer3"
     inkscape:label="Capa 1"><path
       id="rect1567"
       style="fill:#000000;stroke:none;stroke-width:0.134131;stroke-linecap:round;stroke-linejoin:round;stop-color:#000000"
       d="m 16.159724,17.661942 c -0.313622,0 -0.565857,0.252655 -0.565857,0.566276 v 0.92671 c 0,0.03129 0.0028,0.06174 0.0076,0.09158 l 0.01932,-0.01638 c 0.0032,-0.0013 0.0064,-0.0025 0.0097,-0.0034 -6.3e-5,-0.0021 -6.3e-5,-0.0042 0,-0.0063 l 0.03613,-0.03151 c 0.0033,-1.5e-4 0.0064,-1.5e-4 0.0097,0 -1.49e-4,-0.0033 -1.49e-4,-0.0064 0,-0.0097 l 0.02227,-0.0189 0.0034,-0.0034 0.01554,-0.0126 c 0.0033,4.08e-4 0.0065,9.49e-4 0.0097,0.0017 4.08e-4,-0.0033 9.49e-4,-0.0065 0.0017,-0.0097 l 0.03823,-0.03025 c 0.0027,4.55e-4 0.0054,0.001 0.008,0.0017 2.69e-4,-0.0033 7.3e-4,-0.0064 0.0013,-0.0097 l 0.03991,-0.03151 c 0.0042,3.03e-4 0.0084,8.68e-4 0.0126,0.0017 3.51e-4,-0.0038 8.67e-4,-0.0076 0.0017,-0.01134 l 0.03991,-0.02857 c 0.0031,4.21e-4 0.0062,9.49e-4 0.0092,0.0017 4.08e-4,-0.0033 9.49e-4,-0.0065 0.0017,-0.0097 l 0.03991,-0.02857 c 0.0031,4.21e-4 0.0062,9.49e-4 0.0092,0.0017 4.21e-4,-0.0031 9.49e-4,-0.0062 0.0017,-0.0092 l 0.01596,-0.01134 0.0046,-0.0029 0.02563,-0.01596 c 0.0027,4.55e-4 0.0054,0.001 0.008,0.0017 4.55e-4,-0.0027 9.48e-4,-0.0054 0.0017,-0.008 l 0.04285,-0.02731 c 0.0015,5.24e-4 0.0031,0.0015 0.0046,0.0021 0.0015,-0.0028 0.0033,-0.0054 0.005,-0.008 l 0.04285,-0.02689 c 0.0031,-6.99e-4 0.0062,-0.0012 0.0092,-0.0017 0.0016,-0.0022 0.0033,-0.0046 0.005,-0.0067 l 0.04411,-0.0252 c 0.0026,-6.65e-4 0.0053,-0.0012 0.008,-0.0017 5.4e-4,-0.0011 0.0011,-0.0023 0.0017,-0.0034 l 0.04453,-0.0252 c 0.0021,-6.26e-4 0.0041,-0.0012 0.0063,-0.0017 0.0016,-0.0017 0.0033,-0.0034 0.005,-0.005 l 0.02059,-0.01092 0.0046,-0.0034 0.02226,-0.01092 c 0.0027,9.75e-4 0.0054,0.0021 0.008,0.0034 9.76e-4,-0.0027 0.0021,-0.0054 0.0034,-0.008 l 0.04411,-0.02226 c 0.0027,8.94e-4 0.0054,0.0019 0.008,0.0029 9.75e-4,-0.0032 0.0021,-0.0062 0.0034,-0.0092 l 0.02983,-0.0147 a 0.54103471,0.54103471 0 0 1 -0.126865,-0.342789 0.54103471,0.54103471 0 0 1 0.541071,-0.541072 0.54103471,0.54103471 0 0 1 0.54107,0.541072 0.54103471,0.54103471 0 0 1 -0.0025,0.02604 l 0.03151,-0.0071 c 0.0033,2.69e-4 0.0065,7.3e-4 0.0097,0.0013 5.43e-4,-9.75e-4 0.0011,-0.002 0.0017,-0.0029 l 0.04915,-0.01134 c 0.0028,0.0015 0.0054,0.0033 0.008,0.005 0.0015,-0.0022 0.003,-0.0042 0.0046,-0.0063 l 0.03823,-0.008 0.0046,-0.0017 0.0097,-0.0017 c 0.0027,4.56e-4 0.0054,0.001 0.008,0.0017 0.0015,-0.0011 0.0031,-0.0023 0.0046,-0.0034 l 0.04915,-0.008 c 0.0027,4.55e-4 0.0054,9.49e-4 0.008,0.0017 0.0011,-9.75e-4 0.0022,-0.002 0.0034,-0.0029 l 0.04915,-0.008 c 0.0028,0.0014 0.0054,0.0029 0.008,0.0046 0.0016,-0.0022 0.0033,-0.0042 0.005,-0.0063 l 0.04915,-0.008 c 0.0028,0.002 0.0055,0.004 0.008,0.0063 0.0024,-0.0033 0.0051,-0.0063 0.008,-0.0092 l 0.04915,-0.0067 c 0.0022,0.0021 0.0043,0.0044 0.0063,0.0067 0.002,-0.0028 0.004,-0.0055 0.0063,-0.008 l 0.04915,-0.0063 c 0.0022,0.0015 0.0042,0.003 0.0063,0.0046 0.0016,-0.0022 0.0033,-0.0042 0.005,-0.0063 l 0.04915,-0.0063 c 0.0028,0.0014 0.0054,0.0029 0.008,0.0046 0.0015,-0.0022 0.003,-0.0042 0.0046,-0.0063 l 0.01932,-0.0017 0.0046,-0.0017 0.03025,-0.0017 c 9.76e-4,0.0011 0.002,0.0022 0.0029,0.0034 0.0026,-0.0016 0.0053,-0.0032 0.008,-0.0046 l 0.05083,-0.005 c 0.0017,5.17e-4 0.0034,0.001 0.005,0.0017 0.002,-0.0011 0.0041,-0.002 0.0063,-0.0029 l 0.05083,-0.0034 c 0.0015,5.23e-4 0.0031,0.001 0.0046,0.0017 0.002,-0.0012 0.0041,-0.0023 0.0063,-0.0034 l 0.04915,-0.0046 c 0.0017,5.74e-4 0.0033,0.0015 0.005,0.0021 a 0.54103471,0.54103471 0 0 1 0.530569,-0.458735 0.54103471,0.54103471 0 0 1 0.530148,0.452853 l 0.0063,4.2e-4 c 0.0037,8.95e-4 0.0073,0.0021 0.01092,0.0034 5.53e-4,-5.67e-4 0.0011,-0.0011 0.0017,-0.0017 l 0.04915,0.0017 c 0.0027,8.94e-4 0.0054,0.0019 0.008,0.0029 0.0016,-6.03e-4 0.0033,-0.0011 0.005,-0.0017 h 0.0029 0.0034 l 0.04579,0.005 c 0.0027,8.94e-4 0.0054,0.0019 0.008,0.0029 0.0016,-6.03e-4 0.0033,-0.0011 0.005,-0.0017 l 0.04915,0.005 c 0.0021,4.94e-4 0.0042,0.001 0.0063,0.0017 0.0021,-6.26e-4 0.0041,-0.0012 0.0063,-0.0017 l 0.04915,0.0046 c 0.0038,8.95e-4 0.0076,0.0021 0.01134,0.0034 5.54e-4,-5.67e-4 0.0011,-0.0015 0.0017,-0.0021 l 0.02521,0.0029 h 0.005 l 0.02184,0.0034 c 0.0027,9.76e-4 0.0054,0.0021 0.008,0.0034 0.0016,-6.04e-4 0.0033,-0.0011 0.005,-0.0017 l 0.04915,0.0063 c 0.0027,8.94e-4 0.0054,0.0019 0.008,0.0029 0.0015,-5.96e-4 0.0031,-0.0011 0.0046,-0.0017 l 0.04957,0.0067 c 0.0021,8.95e-4 0.0042,0.0019 0.0063,0.0029 0.0015,-5.96e-4 0.0031,-0.0011 0.0046,-0.0017 l 0.04285,0.005 0.005,0.0017 h 0.0063 c 0.0031,8.13e-4 0.0062,0.0018 0.0092,0.0029 5.6e-4,-5e-6 0.0011,-5e-6 0.0017,0 l 0.04915,0.008 c 0.0033,0.0014 0.0065,0.0029 0.0097,0.0046 0.0011,-9.75e-4 0.0022,-0.002 0.0034,-0.0029 l 0.04915,0.008 c 0.0032,0.0014 0.0063,0.0029 0.0092,0.0046 0.0011,-9.76e-4 0.0022,-0.002 0.0034,-0.0029 l 0.04747,0.0092 c 0.0027,9.75e-4 0.0054,0.0021 0.008,0.0034 0.0032,-7.11e-4 0.0064,-0.0013 0.0097,-0.0017 l 0.04747,0.01134 c 0.0021,8.95e-4 0.0042,0.0019 0.0063,0.0029 0.0022,-6.35e-4 0.0044,-0.0012 0.0067,-0.0017 l 0.01176,0.0025 a 0.54103471,0.54103471 0 0 1 -0.0013,-0.0126 0.54103471,0.54103471 0 0 1 0.54107,-0.541072 0.54103471,0.54103471 0 0 1 0.541071,0.541072 0.54103471,0.54103471 0 0 1 -0.115103,0.330187 l 0.03445,0.01638 c 0.0028,0.002 0.0055,0.004 0.008,0.0063 0.0011,-1.8e-5 0.0023,-1.8e-5 0.0034,0 l 0.0076,0.0029 0.0017,0.0017 0.03823,0.0189 c 0.0022,0.0021 0.0043,0.0044 0.0063,0.0067 0.0017,-4.1e-5 0.0033,-4.1e-5 0.005,0 l 0.02059,0.01092 0.0029,0.0017 0.02227,0.0126 c 0.0022,0.002 0.0043,0.0041 0.0063,0.0063 0.0011,-1.8e-5 0.0023,-1.8e-5 0.0034,0 l 0.03655,0.01932 0.0017,0.0013 0.008,0.005 c 0.0022,0.002 0.0043,0.0041 0.0063,0.0063 0.0015,-3.4e-5 0.0031,-3.4e-5 0.0046,0 l 0.04285,0.0252 c 0.0028,0.002 0.0055,0.004 0.008,0.0063 0.0017,5.17e-4 0.0034,0.001 0.005,0.0017 l 0.04117,0.0273 c 0.0022,0.0015 0.0042,0.0034 0.0063,0.005 0.0015,5.24e-4 0.0031,0.001 0.0046,0.0017 l 0.0063,0.0046 0.0017,0.0017 0.03487,0.02394 c 0.0017,0.0015 0.0034,0.003 0.005,0.0046 0.0021,4.94e-4 0.0042,10e-4 0.0063,0.0017 l 0.01596,0.01134 0.0029,0.0013 0.02394,0.01764 c 0.0022,0.0025 0.0043,0.0052 0.0063,0.008 0.0011,-1.7e-5 0.0023,-1.7e-5 0.0034,0 l 0.02689,0.0189 0.0029,0.0017 0.01302,0.0097 c 0.0016,0.002 0.0032,0.0041 0.0046,0.0063 0.0015,5.24e-4 0.0031,10e-4 0.0046,0.0017 l 0.03655,0.02689 0.0017,0.0017 0.0034,0.0034 c 0.0016,0.002 0.0032,0.0041 0.0046,0.0063 0.0021,4.94e-4 0.0042,0.001 0.0063,0.0017 l 0.03823,0.03151 c 0.0022,0.0025 0.0043,0.0052 0.0063,0.008 0.0017,5.17e-4 0.0034,0.001 0.005,0.0017 l 0.03781,0.03319 c 0.0022,0.0025 0.0043,0.0052 0.0063,0.008 0.0011,-1.8e-5 0.0023,-1.8e-5 0.0034,0 l 0.0029,0.0017 0.0017,0.0034 0.03487,0.03025 c 0.0018,0.002 0.0034,0.0041 0.005,0.0063 2.8e-4,1.39e-4 5.88e-4,2.79e-4 8.4e-4,4.21e-4 8.13e-4,-0.01242 0.0017,-0.02474 0.0017,-0.03739 v -0.92671 c 0,-0.313621 -0.252663,-0.566276 -0.566276,-0.566276 z m -5.723673,0.53855 c -0.141277,0 -0.254992,0.113715 -0.254992,0.254992 v 0.441931 H 9.8550719 c -0.1412771,0 -0.2549922,0.113716 -0.2549922,0.254992 v 0.183998 c -0.1048143,0.03166 -0.1810571,0.128657 -0.1810571,0.24407 v 3.26995 c 0,0.115413 0.076243,0.21241 0.1810571,0.24407 v 0.183998 c 0,0.141275 0.1137151,0.254992 0.2549922,0.254992 h 2.6541031 c 0.141278,0 0.254993,-0.113717 0.254993,-0.254992 v -4.126086 c 0,-0.141276 -0.113715,-0.254992 -0.254993,-0.254992 h -0.119724 v -0.441931 c 0,-0.141277 -0.113715,-0.254992 -0.254992,-0.254992 z m 14.365263,0.258353 c -0.140167,0 -0.252891,0.113146 -0.252891,0.253312 v 0.82925 c 0,0.140166 0.112724,0.253312 0.252891,0.253312 h 2.558744 c 0.140167,0 0.252892,-0.113146 0.252892,-0.253312 V 19.40866 h 0.0147 c 0.08023,0 0.14493,-0.0647 0.14493,-0.14493 v -0.331448 c 0,-0.08023 -0.0647,-0.14493 -0.14493,-0.14493 h -0.0147 v -0.0752 c 0,-0.140166 -0.112725,-0.253312 -0.252892,-0.253312 z m -6.081586,0.03907 4.2e-4,0.0013 c -0.002,0.0022 -0.0041,0.0043 -0.0063,0.0063 h -0.04915 c -0.0021,-8.95e-4 -0.0042,-0.0019 -0.0063,-0.0029 -0.002,0.0011 -0.0041,0.002 -0.0063,0.0029 h -0.04915 c -0.002,-0.0019 -0.004,-0.0038 -0.0059,-0.0059 -0.0019,0.002 -0.0038,0.004 -0.0059,0.0059 h -0.03487 -0.0126 c -5.67e-4,-5.54e-4 -0.0011,-0.0011 -0.0017,-0.0017 -0.0032,7.12e-4 -0.0064,0.0013 -0.0097,0.0017 l -0.05083,0.0017 c -4.26e-4,-5.56e-4 -8.54e-4,-0.0011 -0.0013,-0.0017 -0.0032,7.11e-4 -0.0064,0.0013 -0.0097,0.0017 l -0.05083,0.0017 c -0.0011,-0.0011 -0.0023,-0.0022 -0.0034,-0.0034 -0.003,0.0013 -0.0061,0.0024 -0.0092,0.0034 l -0.04915,0.0017 c -0.0011,-0.0011 -0.0023,-0.0022 -0.0034,-0.0034 -0.0032,0.0013 -0.0064,0.0025 -0.0097,0.0034 h -0.0189 l -0.02689,0.0017 c -0.0011,-5.4e-4 -0.0023,-0.0011 -0.0034,-0.0017 -0.0032,0.0011 -0.0064,0.0021 -0.0097,0.0029 l -0.04915,0.0034 c -0.0015,-5.23e-4 -0.0031,-0.001 -0.0046,-0.0017 -0.0026,6.64e-4 -0.0053,0.0012 -0.008,0.0017 l -0.04915,0.0029 c -0.0011,-9.76e-4 -0.0023,-0.002 -0.0034,-0.0029 -0.0032,0.0011 -0.0064,0.0021 -0.0097,0.0029 l -0.04915,0.0034 c -5.67e-4,-5.53e-4 -0.0011,-0.0011 -0.0017,-0.0017 -0.0026,0.0012 -0.0053,0.0024 -0.008,0.0034 l -0.04915,0.0029 c -0.0015,-5.24e-4 -0.0031,-0.001 -0.0046,-0.0017 -0.0026,0.0012 -0.0053,0.0024 -0.008,0.0034 l -0.04915,0.0046 c -0.0011,-5.39e-4 -0.0023,-0.0011 -0.0034,-0.0017 -0.0026,0.0012 -0.0053,0.0024 -0.008,0.0034 l -0.05083,0.0046 c -0.0015,-5.23e-4 -0.0031,-10e-4 -0.0046,-0.0017 -0.0021,6.26e-4 -0.0041,0.0012 -0.0063,0.0017 l -0.02857,0.0034 -0.01764,0.0017 c -9.76e-4,-5.44e-4 -0.002,-0.0011 -0.0029,-0.0017 -0.0032,0.0011 -0.0064,0.0021 -0.0097,0.0029 l -0.04915,0.0063 c -5.64e-4,-4.15e-4 -0.0011,-7.73e-4 -0.0017,-0.0013 -0.0037,0.0012 -0.0075,0.0022 -0.01134,0.0029 l -0.04915,0.0063 c -5.66e-4,-5.54e-4 -0.0011,-0.0011 -0.0017,-0.0017 -0.0036,0.0013 -0.0072,0.0025 -0.01092,0.0034 l -0.04915,0.0063 c -5.67e-4,-5.54e-4 -0.0011,-0.0011 -0.0017,-0.0017 -0.002,0.0012 -0.0041,0.0023 -0.0063,0.0034 l -0.04915,0.0076 c -0.0011,-5.4e-4 -0.0023,-0.0011 -0.0034,-0.0017 -0.0032,0.0011 -0.0064,0.0021 -0.0097,0.0029 l -0.04915,0.008 c -5.66e-4,-5.53e-4 -0.0011,-0.0011 -0.0017,-0.0017 -0.003,0.0019 -0.0061,0.0035 -0.0092,0.005 l -0.04915,0.008 c -0.0023,-4.85e-4 -0.0044,-10e-4 -0.0067,-0.0017 -0.002,0.0011 -0.0041,0.002 -0.0063,0.0029 l -0.008,0.0017 -0.03655,0.0063 c -4.23e-4,-4.17e-4 -7.73e-4,-7.73e-4 -0.0013,-0.0013 -0.0037,0.0018 -0.0075,0.0033 -0.01134,0.0046 l -0.04747,0.0097 c -0.0011,-5.4e-4 -0.0023,-0.0011 -0.0034,-0.0017 -0.003,0.0017 -0.0061,0.0032 -0.0092,0.0046 l -0.04957,0.0097 c -9.76e-4,1.4e-5 -0.002,1.4e-5 -0.0029,0 -0.0026,0.0011 -0.0053,0.002 -0.008,0.0029 l -0.0189,0.0034 -0.02563,0.0063 c -0.0011,-5.39e-4 -0.0023,-0.0011 -0.0034,-0.0017 -0.003,0.0019 -0.0061,0.0035 -0.0092,0.005 l -0.04789,0.01092 c -0.0015,3.4e-5 -0.0031,3.4e-5 -0.0046,0 -0.0026,0.0012 -0.0053,0.0024 -0.008,0.0034 l -0.04747,0.01092 c -0.0017,4.1e-5 -0.0033,4.1e-5 -0.005,0 -0.0026,0.0012 -0.0053,0.0024 -0.008,0.0034 l -0.02226,0.0063 -0.02226,0.0063 c -9.76e-4,-5.43e-4 -0.002,-0.0011 -0.0029,-0.0017 -0.0026,0.0016 -0.0053,0.0032 -0.008,0.0046 l -0.04747,0.01428 c -0.0011,-4.01e-4 -0.0023,-8.55e-4 -0.0034,-0.0013 -0.0032,0.0017 -0.0063,0.0032 -0.0097,0.0046 l -0.04747,0.0126 c -5.6e-4,5e-6 -0.0011,5e-6 -0.0017,0 -0.0032,0.0019 -0.0063,0.0035 -0.0097,0.005 l -0.02058,0.0046 -0.02226,0.008 c -9.75e-4,-5.44e-4 -0.002,-0.0011 -0.0029,-0.0017 -0.0031,0.0023 -0.0063,0.0043 -0.0097,0.0063 l -0.04579,0.01596 c -0.0027,1.03e-4 -0.0053,1.03e-4 -0.008,0 -0.0016,0.0011 -0.0033,0.0023 -0.005,0.0034 l -0.04747,0.01554 c -0.0011,1.7e-5 -0.0023,1.7e-5 -0.0034,0 -0.0026,0.0018 -0.0053,0.0035 -0.008,0.005 l -0.0126,0.0029 -0.03025,0.01134 c -9.76e-4,-5.43e-4 -0.002,-0.0011 -0.0029,-0.0017 -0.0025,0.0022 -0.0052,0.0043 -0.008,0.0063 l -0.04621,0.0189 c -0.0021,6.4e-5 -0.0042,6.4e-5 -0.0063,0 -0.0015,0.0011 -0.0031,0.0023 -0.0046,0.0034 l -0.04789,0.0189 c -0.0015,3.5e-5 -0.0031,3.5e-5 -0.0046,0 -0.002,0.0012 -0.0041,0.0023 -0.0063,0.0034 v 0.0017 l -0.04159,0.01722 c -0.0015,3.5e-5 -0.0031,3.5e-5 -0.0046,0 -0.002,0.0018 -0.0041,0.0034 -0.0063,0.005 l -0.04453,0.02058 c -0.0021,6.4e-5 -0.0042,6.4e-5 -0.0063,0 -0.002,0.0016 -0.0041,0.0032 -0.0063,0.0046 l -0.04117,0.01764 c -5.6e-4,5e-6 -0.0011,5e-6 -0.0017,0 -0.0025,0.0022 -0.0052,0.0043 -0.008,0.0063 l -0.04453,0.02227 c -0.0011,-5.4e-4 -0.0023,-0.0011 -0.0034,-0.0017 -0.0025,0.0022 -0.0052,0.0043 -0.008,0.0063 l -0.04411,0.02227 c -5.6e-4,4e-6 -0.0011,4e-6 -0.0017,0 -0.0031,0.0023 -0.0063,0.0043 -0.0097,0.0063 l -0.02058,0.0097 -0.01891,0.01092 c -0.0017,4.1e-5 -0.0033,4.1e-5 -0.005,0 -0.002,0.0022 -0.0041,0.0043 -0.0063,0.0063 l -0.04285,0.02394 c -0.0015,3.4e-5 -0.0031,3.4e-5 -0.0046,0 -0.002,0.0022 -0.0045,0.0047 -0.0067,0.0067 l -0.04327,0.02394 c -9.76e-4,1.4e-5 -0.0015,1.4e-5 -0.0025,0 -0.0011,9.75e-4 -0.0022,0.002 -0.0034,0.0029 l -0.04285,0.02731 c -9.75e-4,1.4e-5 -0.002,1.4e-5 -0.0029,0 -0.002,0.0022 -0.0041,0.0043 -0.0063,0.0063 l -0.04285,0.02689 c -0.0011,1.8e-5 -0.0023,1.8e-5 -0.0034,0 -0.002,0.0022 -0.0045,0.0043 -0.0067,0.0063 l -0.02394,0.01428 -0.01428,0.0097 c -5.61e-4,5e-6 -0.0011,5e-6 -0.0017,0 -0.0025,0.0028 -0.0052,0.0055 -0.008,0.008 l -0.03949,0.02857 c -0.0011,1.8e-5 -0.0019,1.8e-5 -0.0029,0 -0.0025,0.0028 -0.0052,0.0055 -0.008,0.008 l -0.03949,0.02857 c -0.0011,1.8e-5 -0.0023,1.8e-5 -0.0034,0 l -0.0029,0.0029 -0.03823,0.03193 c -0.0015,3.5e-5 -0.0031,3.5e-5 -0.0046,0 -0.002,0.0022 -0.0041,0.0043 -0.0063,0.0063 l -0.03823,0.03151 c -0.0011,1.8e-5 -0.0023,1.8e-5 -0.0034,0 -0.002,0.0028 -0.0044,0.0055 -0.0067,0.008 l -0.01428,0.01134 -0.0189,0.01722 c -0.0011,1.8e-5 -0.0019,1.8e-5 -0.0029,0 -0.002,0.0028 -0.0044,0.0055 -0.0067,0.008 l -0.03781,0.03361 c -5.6e-4,5e-6 -0.0011,5e-6 -0.0017,0 -0.002,0.0028 -0.004,0.0055 -0.0063,0.008 l -0.03025,0.02521 -0.0034,0.0034 c -0.0015,5.97e-4 -0.0031,0.0011 -0.0046,0.0017 -0.0015,0.0028 -0.0033,0.0054 -0.005,0.008 l -0.03487,0.03487 c -0.0015,5.97e-4 -0.0031,0.0011 -0.0046,0.0017 -0.0011,0.0021 -0.0022,0.0042 -0.0034,0.0063 l -0.03655,0.03487 c -9.76e-4,5.76e-4 -0.002,0.0011 -0.0029,0.0017 -5.44e-4,9.76e-4 -0.0011,0.002 -0.0017,0.0029 l -0.03319,0.03655 c -0.0011,1.7e-5 -0.0023,1.7e-5 -0.0034,0 -0.0014,0.0033 -0.0029,0.0065 -0.0046,0.0097 l -0.03361,0.03655 c -9.75e-4,1.4e-5 -0.002,1.4e-5 -0.0029,0 -0.0015,0.0033 -0.0032,0.0065 -0.005,0.0097 l -0.01008,0.0088 -0.0189,0.02227 c -0.0011,5.81e-4 -0.0022,0.0011 -0.0034,0.0017 -0.0014,0.0028 -0.0029,0.0054 -0.0046,0.008 l -0.03025,0.03949 c -0.0017,4.1e-5 -0.0033,4.1e-5 -0.005,0 -8.13e-4,0.0033 -0.0018,0.0065 -0.0029,0.0097 l -0.01932,0.02226 -0.0071,0.0126 c -0.0016,0.0011 -0.0033,0.002 -0.005,0.0029 -8.94e-4,0.0023 -0.0019,0.0045 -0.0029,0.0067 l -0.02857,0.03949 c -5.6e-4,4e-6 -0.0015,4e-6 -0.0021,0 -0.0015,0.0037 -0.0032,0.0074 -0.005,0.01092 l -0.02689,0.03529 c -5.56e-4,4.26e-4 -0.0011,8.54e-4 -0.0017,0.0013 -0.0014,0.0033 -0.0029,0.0065 -0.0046,0.0097 l -0.02562,0.04117 c -9.76e-4,5.76e-4 -0.002,0.0011 -0.0029,0.0017 -0.0015,0.0033 -0.0032,0.0065 -0.005,0.0097 l -0.02521,0.04117 c -0.0011,1.8e-5 -0.0023,1.8e-5 -0.0034,0 -4.95e-4,0.0021 -10e-4,0.0042 -0.0017,0.0063 l -0.02353,0.04285 c -0.0011,0.0011 -0.0022,0.0023 -0.0034,0.0034 -8.94e-4,0.0027 -0.0015,0.0054 -0.0025,0.008 l -0.02395,0.04285 c -0.0011,5.81e-4 -0.0022,0.0011 -0.0034,0.0017 -8.13e-4,0.0033 -0.0018,0.0065 -0.0029,0.0097 l -0.0034,0.0063 -0.01596,0.03319 c -9.76e-4,5.76e-4 -0.002,0.0011 -0.0029,0.0017 -4.08e-4,0.0033 -9.5e-4,0.0065 -0.0017,0.0097 l -0.02226,0.04411 c -9.75e-4,0.0011 -0.002,0.0023 -0.0029,0.0034 -4.55e-4,0.0027 -9.49e-4,0.0054 -0.0017,0.008 l -0.0097,0.01722 -0.0097,0.02226 c -9.75e-4,0.0011 -0.002,0.0023 -0.0029,0.0034 -4.55e-4,0.0027 -10e-4,0.0054 -0.0017,0.008 l -0.0189,0.04579 c -0.0011,5.81e-4 -0.0022,0.0011 -0.0034,0.0017 -3.51e-4,0.0038 -8.68e-4,0.0076 -0.0017,0.01134 l -0.0126,0.02857 -0.0034,0.01092 c -9.76e-4,5.76e-4 -0.002,0.0011 -0.0029,0.0017 -3.52e-4,0.0038 -8.68e-4,0.0076 -0.0017,0.01134 l -0.01596,0.04579 c -9.75e-4,0.0011 -0.002,0.0023 -0.0029,0.0034 -4.55e-4,0.0027 -10e-4,0.0054 -0.0017,0.008 l -0.01428,0.04117 v 0.0017 c -0.0011,5.81e-4 -0.0022,0.0011 -0.0034,0.0017 v 4.21e-4 4.2e-4 4.19e-4 4.21e-4 4.2e-4 4.2e-4 4.2e-4 4.2e-4 4.2e-4 4.21e-4 4.2e-4 4.19e-4 4.21e-4 4.2e-4 4.2e-4 4.2e-4 4.2e-4 4.2e-4 4.2e-4 4.2e-4 4.2e-4 4.2e-4 l -0.01428,0.04789 -0.0029,0.0046 c -4.55e-4,0.0027 -10e-4,0.0054 -0.0017,0.008 l -0.01428,0.04789 c -5.6e-4,4e-6 -0.0011,4e-6 -0.0017,0 v 4.2e-4 4.2e-4 4.2e-4 4.2e-4 4.2e-4 4.2e-4 4.2e-4 4.2e-4 4.2e-4 4.21e-4 4.2e-4 4.19e-4 4.21e-4 4.2e-4 4.2e-4 l -0.01134,0.04747 c -9.76e-4,5.76e-4 -0.002,0.0011 -0.0029,0.0017 v 4.2e-4 4.21e-4 4.19e-4 4.2e-4 4.21e-4 4.2e-4 c 3e-6,4.2e-4 3e-6,8.53e-4 0,0.0013 3e-6,4.2e-4 3e-6,8.53e-4 0,0.0013 3e-6,4.2e-4 3e-6,8.53e-4 0,0.0013 v 4.2e-4 c 3e-6,4.2e-4 3e-6,7.73e-4 0,0.0013 3e-6,4.2e-4 3e-6,8.54e-4 0,0.0013 v 4.2e-4 4.2e-4 4.2e-4 4.2e-4 l -0.01134,0.04789 -0.0029,0.0046 v 4.2e-4 4.2e-4 4.2e-4 4.2e-4 4.2e-4 4.21e-4 4.2e-4 4.2e-4 4.2e-4 4.2e-4 4.2e-4 4.2e-4 4.2e-4 4.2e-4 4.2e-4 4.21e-4 4.19e-4 4.2e-4 4.21e-4 l -0.0017,0.0063 -0.008,0.03655 c -5.4e-4,0.0011 -0.0011,0.0023 -0.0017,0.0034 v 4.2e-4 4.21e-4 4.19e-4 4.2e-4 4.21e-4 4.2e-4 4.19e-4 4.21e-4 4.2e-4 4.2e-4 4.2e-4 4.2e-4 4.2e-4 4.21e-4 4.2e-4 4.19e-4 4.21e-4 4.2e-4 4.2e-4 4.2e-4 4.2e-4 4.2e-4 l -0.0097,0.04957 c -4.04e-4,9.76e-4 -8.53e-4,0.002 -0.0013,0.0029 v 4.21e-4 4.2e-4 4.2e-4 4.2e-4 4.2e-4 4.2e-4 4.21e-4 4.2e-4 4.19e-4 4.21e-4 4.2e-4 4.2e-4 4.2e-4 4.2e-4 4.2e-4 4.2e-4 4.2e-4 4.2e-4 4.2e-4 l -0.005,0.02227 -0.0029,0.02226 c -5.53e-4,5.66e-4 -0.0011,0.0011 -0.0017,0.0017 v 4.2e-4 4.2e-4 4.2e-4 4.2e-4 c 2e-6,4.2e-4 2e-6,8.54e-4 0,0.0013 2e-6,4.2e-4 2e-6,7.73e-4 0,0.0013 v 4.2e-4 c 2e-6,4.2e-4 2e-6,7.73e-4 0,0.0013 2e-6,4.21e-4 2e-6,8.54e-4 0,0.0013 2e-6,4.21e-4 2e-6,8.54e-4 0,0.0013 v 4.21e-4 4.2e-4 4.2e-4 4.2e-4 4.2e-4 4.2e-4 l -0.0063,0.04915 c -0.0011,5.8e-4 -0.0022,0.0011 -0.0034,0.0017 7.68e-4,0.0037 0.0013,0.0076 0.0017,0.01134 l -0.0046,0.03487 -0.0017,0.008 c -5.44e-4,9.75e-4 -0.0015,0.002 -0.0021,0.0029 7.11e-4,0.0032 0.0017,0.0064 0.0021,0.0097 l -0.005,0.04915 c -8.94e-4,0.0021 -0.0019,0.0042 -0.0029,0.0063 6.26e-4,0.0021 0.0012,0.0041 0.0017,0.0063 l -0.0034,0.04957 c -5.24e-4,0.0015 -10e-4,0.0031 -0.0017,0.0046 v 4.2e-4 4.2e-4 4.2e-4 4.2e-4 4.21e-4 4.19e-4 4.2e-4 4.21e-4 l -0.0017,0.04915 c -5.23e-4,0.0015 -10e-4,0.0031 -0.0017,0.0046 6.64e-4,0.0026 0.0012,0.0053 0.0017,0.008 l -0.0029,0.04915 c -5.4e-4,0.0011 -0.0011,0.0023 -0.0017,0.0034 6.99e-4,0.0031 0.0012,0.0062 0.0017,0.0092 v 0.0097 0.03655 c -3.51e-4,0.0038 -8.68e-4,0.0076 -0.0017,0.01134 5.64e-4,4.15e-4 0.0011,7.74e-4 0.0017,0.0013 v 0.03529 0.0092 c -4.94e-4,0.0021 -0.001,0.0042 -0.0017,0.0063 0.0011,0.002 0.002,0.0041 0.0029,0.0063 l 0.0017,0.04957 c -4.55e-4,0.0027 -9.48e-4,0.0054 -0.0017,0.008 5.97e-4,0.0015 0.0011,0.0031 0.0017,0.0046 l 0.005,0.04621 c -4.55e-4,0.0027 -10e-4,0.0054 -0.0017,0.008 5.76e-4,9.76e-4 0.0011,0.002 0.0017,0.0029 l 0.0029,0.02563 0.0017,0.02058 c -4.55e-4,0.0027 -9.48e-4,0.0054 -0.0017,0.008 0.0011,0.0015 0.0019,0.0031 0.0029,0.0046 l 0.0067,0.04915 v 4.2e-4 4.21e-4 4.19e-4 4.21e-4 4.2e-4 4.2e-4 4.2e-4 4.2e-4 4.2e-4 4.2e-4 4.21e-4 4.19e-4 4.2e-4 4.21e-4 4.2e-4 c 5.66e-4,5.54e-4 0.0011,0.0011 0.0017,0.0017 l 0.008,0.04915 v 4.2e-4 4.21e-4 4.19e-4 4.2e-4 4.21e-4 4.2e-4 4.19e-4 4.21e-4 4.2e-4 4.2e-4 4.2e-4 4.2e-4 4.2e-4 4.2e-4 4.21e-4 4.19e-4 4.2e-4 4.21e-4 4.2e-4 4.19e-4 4.21e-4 4.2e-4 4.2e-4 c 5.8e-4,0.0011 0.0011,0.0022 0.0017,0.0034 l 0.0017,0.01092 0.0076,0.03319 c 1.45e-4,5.59e-4 2.85e-4,0.0011 4.21e-4,0.0017 v 4.2e-4 4.21e-4 4.19e-4 4.2e-4 4.21e-4 4.2e-4 4.19e-4 4.21e-4 4.2e-4 4.2e-4 4.2e-4 4.2e-4 4.2e-4 4.2e-4 4.21e-4 4.19e-4 c -1.38e-4,4.21e-4 -2.78e-4,7.73e-4 -4.21e-4,0.0013 5.67e-4,5.54e-4 0.0011,0.0011 0.0017,0.0017 l 0.008,0.03655 0.0017,0.0097 v 4.19e-4 4.2e-4 4.21e-4 4.2e-4 4.2e-4 4.2e-4 4.2e-4 4.2e-4 4.21e-4 4.19e-4 4.2e-4 4.21e-4 4.2e-4 4.19e-4 4.21e-4 4.2e-4 4.2e-4 4.2e-4 4.2e-4 c 0.0011,9.75e-4 0.0023,0.002 0.0034,0.0029 l 0.01092,0.04915 v 4.2e-4 4.2e-4 4.2e-4 4.2e-4 4.2e-4 4.21e-4 4.19e-4 4.2e-4 4.21e-4 4.2e-4 4.19e-4 4.21e-4 4.2e-4 4.2e-4 4.2e-4 c 0.0011,0.0016 0.0023,0.0033 0.0034,0.005 l 0.0126,0.04453 v 4.19e-4 4.2e-4 4.21e-4 4.2e-4 4.19e-4 4.21e-4 4.2e-4 4.2e-4 4.2e-4 4.2e-4 4.2e-4 4.2e-4 4.21e-4 4.19e-4 4.2e-4 4.21e-4 4.2e-4 4.19e-4 4.21e-4 4.2e-4 4.2e-4 4.2e-4 c 0.0011,0.0011 0.0023,0.0022 0.0034,0.0034 l 0.0063,0.02226 0.008,0.02059 v 4.19e-4 4.21e-4 4.2e-4 4.2e-4 4.2e-4 4.2e-4 4.2e-4 4.21e-4 4.19e-4 4.2e-4 4.21e-4 4.2e-4 4.19e-4 4.21e-4 4.2e-4 4.2e-4 4.2e-4 4.2e-4 4.2e-4 4.2e-4 4.21e-4 4.19e-4 4.21e-4 l 0.0029,0.0029 0.01428,0.04285 v 0.0017 c 7.53e-4,0.0036 0.0013,0.0072 0.0017,0.01092 5.6e-4,-5e-6 0.0011,-5e-6 0.0017,0 l 0.01722,0.04621 v 4.2e-4 4.2e-4 l 4.2e-4,4.21e-4 v 4.2e-4 4.19e-4 4.21e-4 4.2e-4 4.2e-4 4.2e-4 4.2e-4 4.2e-4 4.2e-4 l -4.2e-4,4.2e-4 v 4.2e-4 4.2e-4 c 0.0017,0.0016 0.0034,0.0033 0.005,0.005 l 0.0029,0.0092 0.01302,0.03361 c 6.99e-4,0.0031 0.0012,0.0062 0.0017,0.0092 9.76e-4,0.0011 0.002,0.0022 0.0029,0.0034 l 0.0126,0.03025 0.005,0.0126 c 7.11e-4,0.0032 0.0013,0.0064 0.0017,0.0097 0.0015,3.84e-4 0.0031,7.64e-4 0.0046,0.0013 l 0.0189,0.04453 c 7.11e-4,0.0032 0.0013,0.0064 0.0017,0.0097 5.61e-4,-5e-6 0.0011,-5e-6 0.0017,0 l 0.02226,0.04453 c 6.64e-4,0.0026 0.0012,0.0053 0.0017,0.008 l 0.0029,0.0029 0.0097,0.01932 0.01134,0.02227 c 5.24e-4,0.0027 10e-4,0.0053 0.0013,0.008 0.0017,8.94e-4 0.0034,0.002 0.005,0.0029 l 0.02058,0.03991 0.0017,0.0013 c 0.0011,0.0032 0.0021,0.0064 0.0029,0.0097 5.67e-4,5.54e-4 0.0011,0.0011 0.0017,0.0017 l 0.02562,0.04285 c 0.0011,0.0032 0.0021,0.0064 0.0029,0.0097 0.0011,5.39e-4 0.0023,0.0011 0.0034,0.0017 l 0.0029,0.0063 0.01932,0.03319 c 0.0011,0.0026 0.002,0.0053 0.0029,0.008 0.0017,0.0011 0.0034,0.0022 0.005,0.0034 l 0.01722,0.02857 0.0063,0.01092 c 0.0013,0.0032 0.0025,0.0064 0.0034,0.0097 9.75e-4,-1.3e-5 0.002,-1.3e-5 0.0029,0 l 0.02731,0.04285 c 6.64e-4,0.0026 0.0012,0.0053 0.0017,0.008 9.76e-4,-1.3e-5 0.002,-1.3e-5 0.0029,0 l 0.02857,0.04117 c 0.0013,0.0032 0.0025,0.0064 0.0034,0.0097 9.76e-4,-1.4e-5 0.002,-1.4e-5 0.0029,0 l 0.01302,0.0189 0.01428,0.0189 c 0.0012,0.0037 0.0022,0.0075 0.0029,0.01134 0.0015,-3.4e-5 0.0031,-3.4e-5 0.0046,0 l 0.02899,0.03949 c 4.62e-4,0.0017 9.35e-4,0.0033 0.0013,0.005 0.0017,8.94e-4 0.0034,0.002 0.005,0.0029 l 0.03025,0.03991 c 0.0011,0.0026 0.002,0.0053 0.0029,0.008 0.0011,5.4e-4 0.0023,0.0011 0.0034,0.0017 l 0.0092,0.01092 0.021,0.02562 c 0.0011,0.002 0.002,0.0041 0.0029,0.0063 0.0017,8.94e-4 0.0034,0.002 0.005,0.0029 l 0.0252,0.03193 0.0029,0.0046 c 0.0017,0.0032 0.0037,0.0063 0.005,0.0097 9.75e-4,-1.4e-5 0.0015,-1.4e-5 0.0025,0 l 0.03193,0.03823 c 0.0012,0.002 0.0023,0.0041 0.0034,0.0063 0.0021,8.94e-4 0.0046,0.0019 0.0067,0.0029 l 0.0025,0.005 0.02731,0.02983 c 0.0011,0.0026 0.002,0.0053 0.0029,0.008 0.0015,5.23e-4 0.0031,0.001 0.0046,0.0017 l 0.02226,0.02562 0.0097,0.0092 c 0.0023,0.0031 0.0048,0.0063 0.0067,0.0097 0.0011,-1.8e-5 0.0019,-1.8e-5 0.0029,0 l 0.03319,0.03655 c 0.0016,0.0026 0.0036,0.0053 0.005,0.008 0.0011,5.4e-4 0.0019,0.0011 0.0029,0.0017 l 0.03319,0.03151 c 0.0018,0.0026 0.0035,0.0053 0.005,0.008 9.76e-4,5.44e-4 0.002,0.0011 0.0029,0.0017 l 0.03529,0.03487 c 0.0023,0.0031 0.0048,0.0063 0.0067,0.0097 9.75e-4,-1.4e-5 0.0015,-1.4e-5 0.0025,0 l 0.03487,0.03487 c 0.0011,0.0016 0.0023,0.0033 0.0034,0.005 9.75e-4,-1.4e-5 0.002,-1.4e-5 0.0029,0 l 0.03655,0.03319 c 0.0023,0.0031 0.0044,0.0063 0.0063,0.0097 5.6e-4,-5e-6 0.0015,-5e-6 0.0021,0 l 0.03655,0.03319 c 0.0018,0.0026 0.0035,0.0053 0.005,0.008 0.0015,-3.4e-5 0.0031,-3.4e-5 0.0046,0 l 0.03655,0.03361 c 0.0016,0.002 0.0032,0.0045 0.0046,0.0067 5.6e-4,-5e-6 0.0011,-5e-6 0.0017,0 l 0.03823,0.03151 c 0.0016,0.002 0.0032,0.0041 0.0046,0.0063 0.0017,5.17e-4 0.0034,0.001 0.005,0.0017 l 0.03823,0.03193 c 0.0022,0.0025 0.0043,0.0052 0.0063,0.008 9.75e-4,-1.4e-5 0.002,-1.4e-5 0.0029,0 l 0.03361,0.02857 0.0013,0.0017 c 0.0024,0.0025 0.0046,0.0052 0.0067,0.008 9.75e-4,-1.3e-5 0.002,-1.3e-5 0.0029,0 l 0.03823,0.02983 c 0.0022,0.0025 0.0043,0.0052 0.0063,0.008 0.0015,-3.4e-5 0.0031,-3.4e-5 0.0046,0 l 0.03823,0.03025 c 0.0022,0.0025 0.0043,0.0052 0.0063,0.008 0.0011,-1.7e-5 0.0023,-1.7e-5 0.0034,0 l 0.03151,0.02395 0.005,0.0046 c 0.0011,0.0016 0.002,0.0033 0.0029,0.005 0.0027,4.55e-4 0.0054,10e-4 0.008,0.0017 l 0.03991,0.02856 c 0.0022,0.0025 0.0043,0.0052 0.0063,0.008 9.76e-4,-1.3e-5 0.002,-1.3e-5 0.0029,0 l 0.04159,0.02857 c 0.0022,0.0025 0.0043,0.0052 0.0063,0.008 9.75e-4,-1.3e-5 0.002,-1.3e-5 0.0029,0 l 0.02689,0.02058 0.0097,0.0063 c 0.0016,0.0015 0.0031,0.003 0.0046,0.0046 0.0023,4.85e-4 0.0044,0.001 0.0067,0.0017 l 0.04117,0.02689 c 0.0022,0.002 0.0043,0.0041 0.0063,0.0063 0.0015,5.24e-4 0.0031,0.001 0.0046,0.0017 l 0.04159,0.0273 c 0.0022,0.002 0.0043,0.0041 0.0063,0.0063 9.75e-4,-1.3e-5 0.002,-1.3e-5 0.0029,0 l 0.02394,0.01554 0.01428,0.0097 c 0.0016,0.0015 0.0031,0.003 0.0046,0.0046 0.0023,4.86e-4 0.0044,0.001 0.0067,0.0017 l 0.04285,0.0273 c 0.0028,0.002 0.0055,0.004 0.008,0.0063 4.2e-4,-2e-6 0.0012,-2e-6 0.0017,0 l 0.04285,0.02521 c 0.0028,0.0025 0.005,0.0052 0.0076,0.008 5.6e-4,-5e-6 0.0015,-5e-6 0.0021,0 l 0.01932,0.01134 0.02058,0.01092 c 0.0028,0.0025 0.0055,0.0052 0.008,0.008 9.75e-4,-5.77e-4 0.0015,-0.0011 0.0025,-0.0017 l 0.04285,0.02563 c 0.0028,0.002 0.0055,0.004 0.008,0.0063 0.0011,-1.8e-5 0.0023,-1.8e-5 0.0034,0 l 0.04285,0.02353 c 0.0022,0.002 0.0043,0.0041 0.0063,0.0063 0.0015,-3.4e-5 0.0031,-3.4e-5 0.0046,0 l 0.01134,0.0067 0.03025,0.01554 c 0.0032,0.002 0.0067,0.004 0.0097,0.0063 5.6e-4,-5e-6 0.0011,-5e-6 0.0017,0 l 0.04285,0.02227 c 0.0028,0.0025 0.0055,0.0052 0.008,0.008 0.0011,-5.81e-4 0.0018,-0.0011 0.0029,-0.0017 l 0.04369,0.02268 c 0.0024,0.002 0.0049,0.004 0.0071,0.0063 0.0015,-3.4e-5 0.0031,-3.4e-5 0.0046,0 l 0.0029,0.0021 0.03781,0.0189 c 0.0028,0.002 0.0055,0.004 0.008,0.0063 0.0011,-5.81e-4 0.0022,-0.0011 0.0034,-0.0017 l 0.04453,0.02226 c 0.0028,0.002 0.0055,0.004 0.008,0.0063 9.75e-4,-5.76e-4 0.002,-0.0011 0.0029,-0.0017 l 0.04453,0.02227 c 0.0016,0.0016 0.0032,0.0033 0.0046,0.005 0.0011,-5.8e-4 0.0022,-0.0011 0.0034,-0.0017 l 0.04579,0.02058 c 0.0023,0.0015 0.0045,0.003 0.0067,0.0046 0.0015,-3.4e-5 0.0031,-3.4e-5 0.0046,0 l 0.04621,0.021 c 0.0022,0.0015 0.0042,0.003 0.0063,0.0046 0.0015,-3.4e-5 0.0035,-3.4e-5 0.005,0 l 0.03277,0.01428 0.008,0.0034 c 0.0028,0.0014 0.0054,0.0029 0.008,0.0046 0.0017,-4.1e-5 0.0033,-4.1e-5 0.005,0 l 0.04579,0.0189 c 0.0028,0.002 0.0055,0.004 0.008,0.0063 0.0011,-4.39e-4 0.0022,-9.35e-4 0.0034,-0.0013 l 0.04621,0.0189 c 0.0026,0.002 0.0051,0.004 0.0076,0.0063 0.0011,-5.8e-4 0.0022,-0.0011 0.0034,-0.0017 l 0.01764,0.0063 0.02521,0.0097 c 0.0017,0.0011 0.0034,0.0022 0.005,0.0034 0.0025,-9.2e-5 0.005,-9.2e-5 0.0076,0 l 0.04621,0.01722 c 0.0033,0.002 0.0066,0.004 0.0097,0.0063 9.76e-4,-5.76e-4 0.002,-0.0011 0.0029,-0.0017 l 0.04621,0.01596 c 0.0022,0.0016 0.0042,0.0033 0.0063,0.005 5.53e-4,-5.67e-4 0.0011,-0.0011 0.0017,-0.0017 l 0.04747,0.01554 c 0.0021,0.0011 0.0042,0.0022 0.0063,0.0034 0.0017,-4.1e-5 0.0033,-4.1e-5 0.005,0 l 0.04747,0.01596 c 0.0028,0.0014 0.0054,0.0029 0.008,0.0046 0.0016,-6.04e-4 0.0033,-0.0011 0.005,-0.0017 l 0.02857,0.0097 0.01428,0.0034 c 0.0032,0.0014 0.0063,0.0029 0.0092,0.0046 0.0011,-5.81e-4 0.0022,-0.0011 0.0034,-0.0017 l 0.04747,0.01428 c 0.0021,0.0011 0.0042,0.0022 0.0063,0.0034 0.0017,-4.1e-5 0.0033,-4.1e-5 0.005,0 l 0.04747,0.0126 c 0.0033,0.0014 0.0065,0.0029 0.0097,0.0046 9.76e-4,-5.76e-4 0.002,-0.0015 0.0029,-0.0021 l 0.04453,0.01134 c 0.0027,8.94e-4 0.0054,0.0019 0.008,0.0029 0.0011,-1.8e-5 0.0023,-1.8e-5 0.0034,0 l 0.04831,0.01344 c 0.0027,8.94e-4 0.0054,0.0019 0.008,0.0029 0.0011,-1.8e-5 0.0023,-1.8e-5 0.0034,0 l 0.02521,0.005 0.01932,0.0029 c 0.0028,0.0015 0.0054,0.0033 0.008,0.005 0.0015,-5.97e-4 0.0031,-0.0011 0.0046,-0.0017 l 0.04915,0.0092 c 0.0027,9.75e-4 0.0054,0.0021 0.008,0.0034 0.0011,-5.8e-4 0.0022,-0.0011 0.0034,-0.0017 l 0.04453,0.008 c 0.0032,0.0014 0.0063,0.0029 0.0092,0.0046 0.0011,-9.76e-4 0.0022,-0.002 0.0034,-0.0029 l 0.04915,0.008 c 0.0033,8.13e-4 0.0065,0.0018 0.0097,0.0029 9.76e-4,-4.35e-4 0.002,-9.36e-4 0.0029,-0.0013 l 0.04915,0.0063 c 0.0017,3.78e-4 0.0033,7.57e-4 0.005,0.0013 5.6e-4,-5e-6 0.0011,-5e-6 0.0017,0 l 0.04915,0.0034 c 0.0027,9.76e-4 0.0054,0.0021 0.008,0.0034 0.0015,-5.97e-4 0.0031,-0.0011 0.0046,-0.0017 l 0.04915,0.0029 c 0.0027,9.75e-4 0.0054,0.0021 0.008,0.0034 0.0016,-6.03e-4 0.0033,-0.0011 0.005,-0.0017 h 0.0029 l 0.03991,0.0017 c 0.0027,4.56e-4 0.0054,9.49e-4 0.008,0.0017 0.0015,-5.97e-4 0.0031,-0.0011 0.0046,-0.0017 l 0.04915,0.0017 c 0.0027,4.55e-4 0.0054,0.001 0.008,0.0017 0.0016,-6.03e-4 0.0033,-0.0011 0.005,-0.0017 h 0.0046 l 0.03823,-0.0017 0.0046,0.0029 c 0.0026,-0.0011 0.0053,-0.002 0.008,-0.0029 l 0.04957,-0.0017 c 0.0025,8.94e-4 0.005,0.0019 0.0076,0.0029 0.0016,-0.0016 0.0033,-0.0032 0.005,-0.0046 h 0.0013 l 0.03991,-0.0029 0.0029,0.0029 c 0.0032,-0.0017 0.0063,-0.0032 0.0097,-0.0046 l 0.04915,-0.005 c 0.0033,9.76e-4 0.0065,0.0021 0.0097,0.0034 0.0011,-0.0017 0.0022,-0.0034 0.0034,-0.005 h 0.0092 l 0.03487,-0.0063 c 0.0033,9.76e-4 0.0065,0.0021 0.0097,0.0034 0.0011,-0.0017 0.0022,-0.0034 0.0034,-0.005 l 0.04915,-0.0063 c 9.75e-4,0.0011 0.002,0.0022 0.0029,0.0034 0.0026,-0.0018 0.0053,-0.0035 0.008,-0.005 l 0.02058,-0.0029 0.02394,-0.005 c 0.0033,4.08e-4 0.0065,9.49e-4 0.0097,0.0017 l 0.0029,-0.0046 0.04957,-0.0097 c 0.0015,0.0011 0.0031,0.0022 0.0046,0.0034 0.002,-0.0018 0.0041,-0.0034 0.0063,-0.005 l 0.03823,-0.008 0.0063,-0.0013 c 0.0028,0.0014 0.0054,0.0029 0.008,0.0046 0.0014,-0.0028 0.0029,-0.0054 0.0046,-0.008 l 0.04789,-0.01092 c 0.0021,3.55e-4 0.0042,8.16e-4 0.0063,0.0013 0.002,-0.0016 0.0041,-0.0032 0.0063,-0.0046 l 0.04747,-0.01092 c 0.0028,0.0014 0.0054,0.0029 0.008,0.0046 0.0015,-0.0028 0.0033,-0.0054 0.005,-0.008 l 0.04285,-0.0126 c 0.0027,4.55e-4 0.0054,10e-4 0.008,0.0017 0.0015,-0.0017 0.003,-0.0034 0.0046,-0.005 l 0.04747,-0.0126 c 0.0021,-6.3e-5 0.0042,-6.3e-5 0.0063,0 0.0022,-0.0016 0.0044,-0.0032 0.0067,-0.0046 l 0.02857,-0.008 0.01428,-0.005 c 0.0027,-1.02e-4 0.0053,-1.02e-4 0.008,0 0.0015,-0.0011 0.0031,-0.002 0.0046,-0.0029 l 0.04621,-0.01596 c 0.0021,8.95e-4 0.0042,0.0019 0.0063,0.0029 0.002,-0.0022 0.0041,-0.0043 0.0063,-0.0063 l 0.04747,-0.01596 c 0.0033,-1.5e-4 0.0064,-1.5e-4 0.0097,0 5.44e-4,-9.76e-4 0.0011,-0.002 0.0017,-0.0029 l 0.0017,-0.0017 0.04117,-0.01428 c 0.0031,-1.36e-4 0.0062,-1.36e-4 0.0092,0 0.0011,-0.0015 0.0022,-0.0031 0.0034,-0.0046 l 0.04621,-0.01596 c 0.0015,5.24e-4 0.0031,0.001 0.0046,0.0017 0.0025,-0.0022 0.0052,-0.0043 0.008,-0.0063 l 0.03823,-0.01428 0.0046,-0.0017 c 0.0021,-6.4e-5 0.0042,-6.4e-5 0.0063,0 0.0016,-0.0017 0.0033,-0.0034 0.005,-0.005 l 0.04579,-0.0189 c 0.0021,-6.3e-5 0.0046,-6.3e-5 0.0067,0 0.0016,-0.0016 0.0033,-0.0032 0.005,-0.0046 l 0.04579,-0.01764 c 0.0027,-1.02e-4 0.0053,-1.02e-4 0.008,0 0.0016,-0.0016 0.0033,-0.0032 0.005,-0.0046 l 0.0189,-0.008 0.02226,-0.01134 c 0.0037,-1.91e-4 0.0069,-1.91e-4 0.0105,0 5.23e-4,-0.0015 0.0014,-0.0031 0.0021,-0.0046 l 0.04453,-0.01932 c 0.0027,9.75e-4 0.0054,0.0017 0.008,0.0029 9.76e-4,-0.0033 0.0017,-0.0065 0.0029,-0.0097 l 0.04579,-0.0189 c 0.0017,5.17e-4 0.0034,0.0015 0.005,0.0021 0.002,-0.0022 0.0045,-0.0047 0.0067,-0.0067 l 0.0046,-0.0034 0.03655,-0.01722 c 0.0027,8.94e-4 0.0054,0.0019 0.008,0.0029 9.76e-4,-0.0027 0.0017,-0.0054 0.0029,-0.008 l 0.04579,-0.02227 c 0.0017,5.17e-4 0.0034,0.0014 0.005,0.0021 0.002,-0.0022 0.0045,-0.0047 0.0067,-0.0067 l 0.04453,-0.02227 c 0.0015,-3.4e-5 0.0031,-3.4e-5 0.0046,0 0.0011,-9.75e-4 0.0022,-0.002 0.0034,-0.0029 l 0.04411,-0.02395 c 0.0027,-1.03e-4 0.0053,-1.03e-4 0.008,0 4.94e-4,-0.0021 0.001,-0.0042 0.0017,-0.0063 l 0.04453,-0.02226 c 0.0015,5.23e-4 0.0031,0.001 0.0046,0.0017 0.0021,-0.0028 0.0043,-0.0055 0.0067,-0.008 l 0.03781,-0.01932 0.0034,-0.0017 c 0.0027,4.55e-4 0.0054,0.001 0.008,0.0017 8.95e-4,-0.0027 0.0019,-0.005 0.0029,-0.0076 l 0.04285,-0.0252 c 0.0021,4.94e-4 0.0042,10e-4 0.0063,0.0017 0.0016,-0.0022 0.0033,-0.0046 0.005,-0.0067 l 0.04285,-0.02563 c 0.0021,-6.26e-4 0.0041,-0.0012 0.0063,-0.0017 0.0015,-0.0016 0.003,-0.0031 0.0046,-0.0046 l 0.02857,-0.01596 0.01134,-0.0063 c 0.0015,5.23e-4 0.0031,0.001 0.0046,0.0017 0.0015,-0.0028 0.0033,-0.0054 0.005,-0.008 l 0.04285,-0.02689 c 0.0026,-6.64e-4 0.0053,-0.0012 0.008,-0.0017 8.95e-4,-0.0017 0.002,-0.0034 0.0029,-0.005 l 0.04159,-0.0252 c 0.0031,-6.99e-4 0.0061,-0.0012 0.0092,-0.0017 5.24e-4,-0.0015 0.001,-0.0031 0.0017,-0.0046 l 0.02394,-0.01428 0.01596,-0.01134 c 0.0021,-6.26e-4 0.0041,-0.0012 0.0063,-0.0017 l 0.0029,-0.0046 0.04159,-0.02689 c 0.0031,-6.99e-4 0.0062,-0.0012 0.0092,-0.0017 4.95e-4,-0.0021 10e-4,-0.0042 0.0017,-0.0063 l 0.04117,-0.02731 c 0.0017,5.17e-4 0.0034,0.001 0.005,0.0017 0.0014,-0.0028 0.0029,-0.0054 0.0046,-0.008 l 0.01764,-0.0126 0.02058,-0.01428 c 0.0027,4.56e-4 0.0054,9.49e-4 0.008,0.0017 4.55e-4,-0.0027 9.49e-4,-0.0054 0.0017,-0.008 l 0.04117,-0.03025 c 0.0015,5.24e-4 0.0031,0.001 0.0046,0.0017 0.0015,-0.0028 0.0033,-0.0054 0.005,-0.008 l 0.04117,-0.02857 c 0.0026,-6.64e-4 0.0053,-0.0012 0.008,-0.0017 4.94e-4,-0.0021 0.001,-0.0042 0.0017,-0.0063 l 0.0126,-0.008 0.02394,-0.0189 c 0.0021,-6.26e-4 0.0041,-0.0012 0.0063,-0.0017 8.94e-4,-0.0021 0.0019,-0.0042 0.0029,-0.0063 l 0.03991,-0.03025 c 0.0021,-6.26e-4 0.0041,-0.0012 0.0063,-0.0017 0.0011,-0.0021 0.0022,-0.0042 0.0034,-0.0063 l 0.03949,-0.03025 c 0.0021,-6.26e-4 0.0041,-0.0012 0.0063,-0.0017 0.0011,-0.0021 0.0022,-0.0042 0.0034,-0.0063 l 0.008,-0.0063 0.02689,-0.02227 c 0.0015,-3.4e-5 0.0031,-3.4e-5 0.0046,0 0.0015,-0.0028 0.0033,-0.0054 0.005,-0.008 l 0.03823,-0.03151 c 0.003,-0.0013 0.0061,-0.0024 0.0092,-0.0034 -3.4e-5,-0.0015 -3.4e-5,-0.0031 0,-0.0046 l 0.03823,-0.03361 c 0.0015,-3.4e-5 0.0031,-3.4e-5 0.0046,0 0.0015,-0.0028 0.0033,-0.0054 0.005,-0.008 l 0.0029,-0.0013 0.03025,-0.02899 c 0.0032,-0.0011 0.0064,-0.0021 0.0097,-0.0029 -3.4e-5,-0.0015 -3.4e-5,-0.0031 0,-0.0046 l 0.03655,-0.03361 c 0.0031,-1.37e-4 0.0062,-1.37e-4 0.0092,0 -1.03e-4,-0.0027 -1.03e-4,-0.0053 0,-0.008 l 0.03655,-0.03487 c 0.0033,-1.5e-4 0.0064,-1.5e-4 0.0097,0 -1.02e-4,-0.0027 -1.02e-4,-0.0053 0,-0.008 l 0.03193,-0.03193 c 0.0021,-6.3e-5 0.0042,-6.3e-5 0.0063,0 8.95e-4,-0.0025 0.0019,-0.005 0.0029,-0.0076 l 0.03487,-0.03529 c 0.0016,-6.03e-4 0.0033,-0.0011 0.005,-0.0017 8.95e-4,-0.0025 0.0019,-0.005 0.0029,-0.0076 l 0.03655,-0.03529 c 0.0011,-4.39e-4 0.0022,-9.35e-4 0.0034,-0.0013 5.17e-4,-0.0017 10e-4,-0.0034 0.0017,-0.005 l 0.03487,-0.03655 c 0.0015,-5.96e-4 0.0031,-0.0011 0.0046,-0.0017 9.75e-4,-0.0027 0.0021,-0.0054 0.0034,-0.008 l 0.01428,-0.01428 0.01722,-0.02059 c 0.0026,-0.0011 0.0053,-0.002 0.008,-0.0029 -4e-5,-0.0017 -4e-5,-0.0033 0,-0.005 l 0.03193,-0.03487 c 0.002,-0.0011 0.0041,-0.002 0.0063,-0.0029 4.85e-4,-0.0023 10e-4,-0.0044 0.0017,-0.0067 l 0.03319,-0.03781 c 0.0026,-0.0018 0.0053,-0.0035 0.008,-0.005 -3.5e-5,-0.0015 -3.5e-5,-0.0031 0,-0.0046 l 0.008,-0.0097 0.02058,-0.02689 c 0.0032,-7.12e-4 0.0064,-0.0013 0.0097,-0.0017 -6.64e-4,-0.0026 -0.0012,-0.0053 -0.0017,-0.008 l 0.02562,-0.03025 0.0046,-0.0063 c 0.0026,-0.0016 0.0053,-0.0032 0.008,-0.0046 -4.1e-5,-0.0017 -4.1e-5,-0.0033 0,-0.005 l 0.03025,-0.03991 c 9.76e-4,-1.4e-5 0.002,-1.4e-5 0.0029,0 8.94e-4,-0.0038 0.0021,-0.0072 0.0034,-0.01092 l 0.0029,-0.0017 0.02563,-0.03529 c 0.0027,-5.24e-4 0.0053,-5.97e-4 0.008,-8.41e-4 -7.11e-4,-0.0032 -0.0013,-0.0064 -0.0017,-0.0097 l 0.01764,-0.02395 0.0092,-0.01428 c 0.0025,-0.0022 0.0052,-0.0047 0.008,-0.0067 -1.4e-5,-9.75e-4 -1.4e-5,-0.002 0,-0.0029 l 0.02857,-0.04159 c 0.0021,-6.26e-4 0.0041,-0.0012 0.0063,-0.0017 -6.26e-4,-0.0021 -0.0012,-0.0041 -0.0017,-0.0063 l 0.02731,-0.04117 c 0.0015,-5.97e-4 0.0031,-0.0011 0.0046,-0.0017 4.08e-4,-0.0033 9.49e-4,-0.0065 0.0017,-0.0097 l 0.0097,-0.01554 0.01428,-0.02394 c 0.0026,-6.64e-4 0.0053,-0.0012 0.008,-0.0017 -7.11e-4,-0.0032 -0.0013,-0.0064 -0.0017,-0.0097 l 0.02352,-0.03655 0.0017,-0.0029 c 0.0026,-6.65e-4 0.0053,-0.0012 0.008,-0.0017 -0.0011,-0.0032 -0.0021,-0.0064 -0.0029,-0.0097 l 0.0252,-0.04285 c 0.0016,-6.03e-4 0.0033,-0.0011 0.005,-0.0017 4.21e-4,-0.0031 9.49e-4,-0.0062 0.0017,-0.0092 l 0.0029,-0.005 0.01764,-0.03655 c 0.002,-0.0016 0.0041,-0.0032 0.0063,-0.0046 -3.4e-5,-0.0015 -3.4e-5,-0.0031 0,-0.0046 l 0.01428,-0.02857 0.0063,-0.01302 c 0.0015,-5.97e-4 0.0031,-0.0011 0.0046,-0.0017 -1.91e-4,-0.0037 -1.91e-4,-0.0073 0,-0.01092 l 0.02227,-0.04453 c 0.0011,-9.75e-4 0.0022,-0.002 0.0034,-0.0029 -4.1e-5,-0.0017 -4.1e-5,-0.0033 0,-0.005 l 0.02058,-0.04453 c 0.002,-0.0022 0.0041,-0.0043 0.0063,-0.0063 -6.26e-4,-0.0021 -0.0012,-0.0041 -0.0017,-0.0063 l 0.008,-0.01554 0.0097,-0.02562 c 0.0015,-5.97e-4 0.0031,-0.0011 0.0046,-0.0017 -1.91e-4,-0.0037 -1.91e-4,-0.0073 0,-0.01092 l 0.01596,-0.03991 0.0017,-0.0029 c 0.002,-0.0012 0.0041,-0.0023 0.0063,-0.0034 -0.0012,-0.0026 -0.0024,-0.0053 -0.0034,-0.008 l 0.01764,-0.04537 c 0.0026,-0.0016 0.0053,-0.0032 0.008,-0.0046 -0.0012,-0.0026 -0.0024,-0.0053 -0.0034,-0.008 l 0.0017,-0.005 0.0126,-0.03781 c 0.0016,-6.03e-4 0.0033,-0.0011 0.005,-0.0017 -7.68e-4,-0.0037 -0.0013,-0.0076 -0.0017,-0.01134 l 0.0092,-0.02689 0.0034,-0.01596 c 0.0015,-0.0016 0.003,-0.0031 0.0046,-0.0046 -5.24e-4,-0.0027 -0.001,-0.0053 -0.0013,-0.008 l 0.01428,-0.04789 0.0029,-0.0029 c -6.03e-4,-0.0016 -0.0011,-0.0033 -0.0017,-0.005 l 0.01302,-0.04915 0.0029,-0.0029 c -6.64e-4,-0.0026 -0.0012,-0.0053 -0.0017,-0.008 l 0.005,-0.01596 0.0046,-0.02857 c 0.002,-0.0028 0.004,-0.0055 0.0063,-0.008 -0.0011,-0.0015 -0.002,-0.0031 -0.0029,-0.0046 l 0.008,-0.03991 v -0.0046 c 0.0015,-0.0022 0.003,-0.0042 0.0046,-0.0063 -6.35e-4,-0.0022 -0.0012,-0.0044 -0.0017,-0.0067 l 0.008,-0.04915 c 0.0014,-0.0028 0.0029,-0.0054 0.0046,-0.008 -0.0011,-0.0015 -0.002,-0.0031 -0.0029,-0.0046 v -0.0034 l 0.0046,-0.04117 c 0.0015,-0.0028 0.0033,-0.0054 0.005,-0.008 -0.0011,-0.0015 -0.0023,-0.0031 -0.0034,-0.0046 l 0.0034,-0.02857 0.0017,-0.01596 c 8.94e-4,-0.0021 0.0019,-0.0042 0.0029,-0.0063 -6.26e-4,-0.0021 -0.0012,-0.0041 -0.0017,-0.0063 l 0.0034,-0.04915 c 0.002,-0.0018 0.0041,-0.0034 0.0063,-0.005 -0.0016,-0.0015 -0.0031,-0.003 -0.0046,-0.0046 l 0.0013,-0.04915 c 0.002,-0.0024 0.004,-0.0045 0.0063,-0.0067 -0.0022,-0.002 -0.0043,-0.0045 -0.0063,-0.0067 l 0.0017,-0.0189 -0.0017,-0.0252 c 0.002,-0.0024 0.004,-0.0045 0.0063,-0.0067 -0.0022,-0.002 -0.0043,-0.0041 -0.0063,-0.0063 v -0.04579 -0.0034 -0.02395 c 5.23e-4,-0.0015 0.001,-0.0031 0.0017,-0.0046 -0.0011,-0.002 -0.0016,-0.0041 -0.0025,-0.0063 l -0.0021,-0.05083 c 8.95e-4,-0.0027 0.0019,-0.0054 0.0029,-0.008 l -0.0029,-0.0029 -0.0029,-0.05083 c 0.0011,-0.0011 0.0018,-0.0023 0.0029,-0.0034 -0.0011,-0.0015 -0.0019,-0.0031 -0.0029,-0.0046 l -0.005,-0.04957 c 8.95e-4,-0.0027 0.0019,-0.0054 0.0029,-0.008 -0.0011,-0.0015 -0.002,-0.0031 -0.0029,-0.0046 l -0.005,-0.04915 c 9.76e-4,-0.0033 0.0021,-0.0065 0.0034,-0.0097 l -0.0046,-0.0029 -0.0017,-0.02731 -0.0034,-0.01722 c 4.94e-4,-0.0021 0.001,-0.0042 0.0017,-0.0063 -0.0011,-0.0016 -0.002,-0.0033 -0.0029,-0.005 l -0.0067,-0.04915 c 9.75e-4,-0.0033 0.0021,-0.0065 0.0034,-0.0097 l -0.0046,-0.0029 -0.0067,-0.04915 c 0.0011,-0.0017 0.0022,-0.0034 0.0034,-0.005 l -0.0046,-0.0029 -0.008,-0.04747 c 4.56e-4,-0.0027 9.49e-4,-0.0054 0.0017,-0.008 -0.0011,-0.0011 -0.0023,-0.0022 -0.0034,-0.0034 l -0.0097,-0.04915 c 0.0011,-0.0015 0.0022,-0.0031 0.0034,-0.0046 -0.0016,-0.0026 -0.0032,-0.0053 -0.0046,-0.008 l -0.005,-0.02226 -0.0046,-0.02059 c 0.0014,-0.0028 0.0029,-0.0054 0.0046,-0.008 -0.0028,-0.0015 -0.0054,-0.0033 -0.008,-0.005 l -0.01092,-0.04747 0.0029,-0.0046 c -0.0022,-0.0025 -0.0043,-0.0052 -0.0063,-0.008 l -0.01092,-0.04453 0.0017,0.0021 c 3.78e-4,-0.0017 8.39e-4,-0.0033 0.0013,-0.005 -0.0016,-0.002 -0.0032,-0.0045 -0.0046,-0.0067 l -0.01428,-0.04747 c 0.0011,-0.0017 0.0022,-0.0034 0.0034,-0.005 -0.0024,-0.0025 -0.0046,-0.0052 -0.0067,-0.008 l -0.01428,-0.04747 c 5.23e-4,-0.0015 10e-4,-0.0031 0.0017,-0.0046 -0.0016,-0.002 -0.0032,-0.0041 -0.0046,-0.0063 l -0.0034,-0.0063 -0.01092,-0.03655 c 8.95e-4,-0.0027 0.0019,-0.0054 0.0029,-0.008 -0.0027,-9.76e-4 -0.0054,-0.0021 -0.008,-0.0034 l -0.01722,-0.04747 c -1.49e-4,-0.0033 -1.49e-4,-0.0064 0,-0.0097 -0.0011,-5.4e-4 -0.0023,-0.0011 -0.0034,-0.0017 l -0.0092,-0.0252 -0.0063,-0.01764 c 3.84e-4,-0.0015 7.64e-4,-0.0031 0.0013,-0.0046 -0.0022,-0.002 -0.0043,-0.0041 -0.0063,-0.0063 l -0.01428,-0.03529 -0.0029,-0.008 c -6.3e-5,-0.0021 -6.3e-5,-0.0042 0,-0.0063 -0.0017,-0.0015 -0.0034,-0.003 -0.005,-0.0046 l -0.0189,-0.04285 c -6.4e-5,-0.0021 -6.4e-5,-0.0042 0,-0.0063 -0.0016,-0.0016 -0.0032,-0.0033 -0.0046,-0.005 l -0.02226,-0.04579 c -6.3e-5,-0.0021 -6.3e-5,-0.0042 0,-0.0063 -0.0011,-5.4e-4 -0.0023,-0.0011 -0.0034,-0.0017 l -0.02227,-0.04453 c -6.3e-5,-0.0021 -6.3e-5,-0.0042 0,-0.0063 -0.0022,-0.0016 -0.0042,-0.0033 -0.0063,-0.005 v -0.0013 l -0.02226,-0.03991 c 5.44e-4,-9.75e-4 0.0011,-0.002 0.0017,-0.0029 -0.0028,-0.0021 -0.0055,-0.0043 -0.008,-0.0067 l -0.0046,-0.0092 -0.01764,-0.03193 c -6.99e-4,-0.0031 -0.0012,-0.0061 -0.0017,-0.0092 -0.0015,-5.23e-4 -0.0031,-0.001 -0.0046,-0.0017 l -0.0097,-0.01596 -0.01428,-0.02395 c -5.96e-4,-0.0015 -0.0011,-0.0031 -0.0017,-0.0046 -0.0022,-0.0016 -0.0042,-0.0033 -0.0063,-0.005 l -0.0126,-0.02227 -0.01092,-0.01722 c -7.11e-4,-0.0032 -0.0013,-0.0064 -0.0017,-0.0097 -0.0021,-4.94e-4 -0.0042,-0.0015 -0.0063,-0.0021 l -0.01932,-0.02857 -0.0063,-0.0092 c -6.03e-4,-0.0016 -0.0015,-0.0033 -0.0021,-0.005 -0.0022,-0.0015 -0.0042,-0.003 -0.0063,-0.0046 l -0.02394,-0.03487 -0.0029,-0.0029 c 4.56e-4,-0.0027 9.49e-4,-0.0054 0.0017,-0.008 -0.0033,-4.08e-4 -0.0065,-0.0014 -0.0097,-0.0021 l -0.02857,-0.03949 c -6.65e-4,-0.0026 -0.0012,-0.0049 -0.0017,-0.0076 -0.0015,3.4e-5 -0.0031,3.4e-5 -0.0046,0 l -0.03193,-0.03823 c -6.26e-4,-0.0021 -0.0012,-0.0045 -0.0017,-0.0067 -9.75e-4,-5.44e-4 -0.002,-0.0011 -0.0029,-0.0017 l -0.03361,-0.03655 c -3.4e-5,-0.0015 -3.4e-5,-0.0031 0,-0.0046 -0.0028,-0.0015 -0.0054,-0.0033 -0.008,-0.005 l -0.0029,-0.0046 -0.02857,-0.03025 c -0.0012,-0.002 -0.0023,-0.0041 -0.0034,-0.0063 -0.0015,-0.0011 -0.0031,-0.0022 -0.0046,-0.0034 l -0.0097,-0.01092 -0.02226,-0.02226 c -1.5e-4,-0.0033 -1.5e-4,-0.0064 0,-0.0097 -0.0031,1.36e-4 -0.0062,1.36e-4 -0.0092,0 l -0.01596,-0.01554 -0.01596,-0.01596 c -1.5e-4,-0.0033 -1.5e-4,-0.0064 0,-0.0097 -0.0033,1.5e-4 -0.0064,1.5e-4 -0.0097,0 l -0.02353,-0.02395 -0.0097,-0.008 c -3.4e-5,-0.0015 -3.4e-5,-0.0031 0,-0.0046 -0.0033,-8.13e-4 -0.0065,-0.0018 -0.0097,-0.0029 l -0.03151,-0.03025 -0.0034,-0.0017 c -4.1e-5,-0.0017 -4.1e-5,-0.0033 0,-0.005 -0.0027,-8.95e-4 -0.005,-0.0019 -0.0076,-0.0029 l -0.03823,-0.03319 c -4.4e-4,-0.0011 -0.0013,-0.0022 -0.0017,-0.0034 -0.0021,-4.94e-4 -0.0042,-0.001 -0.0063,-0.0017 l -0.03823,-0.03151 c -4e-5,-0.0017 -4e-5,-0.0033 0,-0.005 -0.0033,-8.13e-4 -0.0065,-0.0018 -0.0097,-0.0029 l -0.0029,-0.0017 -0.03361,-0.02731 c -0.0016,-0.0026 -0.0032,-0.0053 -0.0046,-0.008 -0.0021,6.3e-5 -0.0042,6.3e-5 -0.0063,0 l -0.01134,-0.008 -0.02521,-0.0189 c -0.0019,-0.0032 -0.0035,-0.0063 -0.005,-0.0097 -0.0021,6.26e-4 -0.0041,0.0012 -0.0063,0.0017 l -0.02226,-0.01554 -0.01554,-0.0097 c -6.26e-4,-0.0021 -0.0012,-0.0041 -0.0017,-0.0063 -0.0027,-4.56e-4 -0.0054,-10e-4 -0.008,-0.0017 l -0.03487,-0.02227 -0.005,-0.0034 c -6.99e-4,-0.0031 -0.0012,-0.0062 -0.0017,-0.0092 -0.0026,6.64e-4 -0.0053,0.0012 -0.008,0.0017 l -0.04285,-0.02562 c -5.97e-4,-0.0015 -0.0011,-0.0031 -0.0017,-0.0046 -0.0021,-4.94e-4 -0.0042,-0.001 -0.0063,-0.0017 l -0.04285,-0.02562 c -5.97e-4,-0.0015 -0.0011,-0.0031 -0.0017,-0.0046 -0.0027,-4.55e-4 -0.0054,-9.48e-4 -0.008,-0.0017 l -0.008,-0.0029 -0.03319,-0.01932 c -0.0011,-0.003 -0.0021,-0.0061 -0.0029,-0.0092 -0.0026,0.0011 -0.0053,0.002 -0.008,0.0029 l -0.021,-0.01092 -0.02058,-0.01134 c -0.0011,-0.0032 -0.0021,-0.0064 -0.0029,-0.0097 -0.0026,0.0012 -0.0053,0.0024 -0.008,0.0034 l -0.03487,-0.0189 -0.0063,-0.0034 c -0.0012,-0.0026 -0.0024,-0.0053 -0.0034,-0.008 -0.0026,0.0012 -0.0053,0.0024 -0.008,0.0034 l -0.04453,-0.02226 c -5.81e-4,-0.0011 -0.0011,-0.0022 -0.0017,-0.0034 -0.0021,6.3e-5 -0.0042,6.3e-5 -0.0063,0 l -0.04453,-0.02059 c -4.85e-4,-0.0021 -9.35e-4,-0.0042 -0.0013,-0.0063 -0.0033,1.5e-4 -0.0064,1.5e-4 -0.0097,0 l -0.04621,-0.0189 c -0.0022,-0.002 -0.0043,-0.0041 -0.0063,-0.0063 -0.0015,3.4e-5 -0.0031,3.4e-5 -0.0046,0 l -0.03025,-0.01302 -0.01092,-0.0046 c -0.0017,-0.0016 -0.0034,-0.0033 -0.005,-0.005 -0.0021,6.3e-5 -0.0042,6.3e-5 -0.0063,0 l -0.04621,-0.01722 c -4.56e-4,-0.0015 -8.55e-4,-0.0031 -0.0013,-0.0046 -0.0033,1.5e-4 -0.0064,1.5e-4 -0.0097,0 l -0.04789,-0.01764 c -0.0011,-0.0026 -0.002,-0.0053 -0.0029,-0.008 -0.0026,0.0012 -0.0053,0.0024 -0.008,0.0034 l -0.01428,-0.0067 -0.02689,-0.0092 c -0.0017,-0.0011 -0.0034,-0.0022 -0.005,-0.0034 -0.0027,1.03e-4 -0.0053,1.03e-4 -0.008,0 l -0.04579,-0.01596 c -0.0011,-0.0015 -0.0023,-0.0031 -0.0034,-0.0046 -0.0033,1.5e-4 -0.0064,1.5e-4 -0.0097,0 l -0.04579,-0.01596 c -0.0011,-0.0015 -0.0023,-0.0031 -0.0034,-0.0046 -0.0031,1.36e-4 -0.0062,1.36e-4 -0.0092,0 h -0.0017 l -0.04117,-0.0126 c -6.03e-4,-0.0016 -0.0011,-0.0033 -0.0017,-0.005 -0.0037,7.68e-4 -0.0076,0.0013 -0.01134,0.0017 l -0.04747,-0.0126 c -0.0022,-0.0016 -0.0042,-0.0033 -0.0063,-0.005 -0.0017,4.1e-5 -0.0033,4.1e-5 -0.005,0 l -0.04747,-0.0126 c -0.0022,-0.0015 -0.0042,-0.003 -0.0063,-0.0046 -5.53e-4,5.66e-4 -0.0011,0.0011 -0.0017,0.0017 l -0.04747,-0.01134 c -0.0028,-0.002 -0.0055,-0.004 -0.008,-0.0063 -0.0016,0.0011 -0.0033,0.0023 -0.005,0.0034 l -0.04747,-0.01302 c -0.0018,-0.0026 -0.0035,-0.0053 -0.005,-0.008 -0.0026,0.0018 -0.0053,0.0035 -0.008,0.005 l -0.04747,-0.01134 c -0.0022,-0.0015 -0.0042,-0.003 -0.0063,-0.0046 -0.0011,9.75e-4 -0.0022,0.002 -0.0034,0.0029 l -0.04747,-0.0092 c -0.0022,-0.0016 -0.0042,-0.0033 -0.0063,-0.005 -0.0021,6.26e-4 -0.0045,0.0012 -0.0067,0.0017 l -0.04789,-0.0092 c -0.0011,-0.0016 -0.0016,-0.0033 -0.0025,-0.005 -0.0032,7.12e-4 -0.0064,0.0013 -0.0097,0.0017 l -0.04915,-0.0097 -0.005,-0.0029 c -0.0011,5.8e-4 -0.0018,0.0011 -0.0029,0.0017 l -0.04915,-0.008 c -0.0033,-0.002 -0.0066,-0.0039 -0.0097,-0.0063 l -0.0029,0.0029 -0.04789,-0.008 c -0.0028,-0.0014 -0.0054,-0.0029 -0.008,-0.0046 -0.0015,0.0011 -0.0031,0.002 -0.0046,0.0029 l -0.04915,-0.008 c -0.0017,-8.94e-4 -0.0034,-0.002 -0.005,-0.0029 -0.0026,6.64e-4 -0.0053,0.0012 -0.008,0.0017 l -0.0046,-0.0017 -0.03991,-0.005 c -0.0026,-0.0015 -0.0051,-0.003 -0.0076,-0.0046 -0.0016,0.0011 -0.0033,0.002 -0.005,0.0029 l -0.04915,-0.0063 c -0.0028,-0.0014 -0.0054,-0.0029 -0.008,-0.0046 -0.0015,0.0011 -0.0031,0.0023 -0.0046,0.0034 l -0.04957,-0.0067 c -0.0021,-8.95e-4 -0.0042,-0.0019 -0.0063,-0.0029 -0.0021,6.26e-4 -0.0045,0.0012 -0.0067,0.0017 l -0.02058,-0.0034 -0.0252,-0.0017 c -0.0011,-0.0015 -0.0023,-0.0031 -0.0034,-0.0046 -0.0026,0.0011 -0.0049,0.002 -0.0076,0.0029 l -0.05083,-0.0046 c -0.0011,-0.0015 -0.002,-0.0031 -0.0029,-0.0046 -0.0026,0.0011 -0.0053,0.002 -0.008,0.0029 l -0.05083,-0.0046 c -0.0021,-0.0011 -0.0042,-0.0022 -0.0063,-0.0034 -0.0016,6.03e-4 -0.0033,0.0011 -0.005,0.0017 l -0.04495,-0.0029 h -0.0017 c -0.0021,-0.0011 -0.0042,-0.0022 -0.0063,-0.0034 -0.0021,6.26e-4 -0.0041,0.0012 -0.0063,0.0017 l -0.04915,-0.0034 -0.0046,-0.0029 c -0.0026,0.0011 -0.0053,0.002 -0.008,0.0029 l -0.04915,-0.0029 c -0.0033,-0.0015 -0.0065,-0.0032 -0.0097,-0.005 -0.0011,0.0011 -0.0022,0.0023 -0.0034,0.0034 l -0.05083,-0.0034 -0.0029,-0.0029 c -0.0026,0.0011 -0.0053,0.002 -0.008,0.0029 l -0.01428,-0.0017 h -0.03361 c -0.0015,-3.84e-4 -0.0031,-7.64e-4 -0.0046,-0.0013 -0.0021,4.86e-4 -0.0042,8.54e-4 -0.0063,0.0013 l -0.05083,-0.0013 c -0.0027,-9.75e-4 -0.0054,-0.0021 -0.008,-0.0034 -0.0015,5.97e-4 -0.0031,0.0011 -0.0046,0.0017 l -0.04957,-0.0017 c -9.76e-4,-0.0011 -0.002,-0.0022 -0.0029,-0.0034 -0.0032,0.0013 -0.0064,0.0025 -0.0097,0.0034 l -0.04915,-0.0017 -0.0029,-0.0029 c -0.0022,0.0011 -0.0044,0.002 -0.0067,0.0029 h -0.04915 c -0.0022,-0.002 -0.0043,-0.0041 -0.0063,-0.0063 z m 6.292889,0.141148 h 0.662056 c 0.176161,0 0.318846,0.144365 0.318846,0.320526 v 0.335228 c 0,0.176161 -0.142685,0.318846 -0.318846,0.318846 h -0.662056 c -0.17616,0 -0.320945,-0.142685 -0.320945,-0.318846 v -0.335228 c 0,-0.176161 0.144785,-0.320526 0.320945,-0.320526 z m -6.426476,0.05419 c 1.337059,-0.01015 2.112541,0.333133 2.505813,0.854875 -0.0011,0.0831 -0.0096,0.185482 -0.02479,0.301202 -0.578712,-0.600544 -1.554923,-0.889387 -2.529338,-0.894363 -0.900179,-0.0046 -1.819623,0.234194 -2.447001,0.748593 -0.0064,-0.06087 -0.0111,-0.116938 -0.01302,-0.167194 0.384265,-0.503812 1.146635,-0.833564 2.508334,-0.843113 z m 6.426476,0.08066 c -0.104172,0 -0.186097,0.0815 -0.186097,0.185678 v 0.335228 c 0,0.104173 0.08192,0.185678 0.186097,0.185678 h 0.662056 c 0.104172,0 0.185679,-0.0815 0.185679,-0.185678 v -0.335228 c 0,-0.104173 -0.08151,-0.185678 -0.185679,-0.185678 z m 0.330609,0.05419 a 0.29888136,0.29888136 0 0 1 0.299101,0.298681 0.29888136,0.29888136 0 0 1 -0.299101,0.299101 0.29888136,0.29888136 0 0 1 -0.298682,-0.299101 0.29888136,0.29888136 0 0 1 0.298682,-0.298681 z m -6.708775,0.425547 c 0.981294,0.02649 1.919071,0.372998 2.368025,0.980481 -0.04009,0.201214 -0.09201,0.418947 -0.152911,0.63559 h -2.215114 z m -0.295321,0.0017 v 1.61439 h -2.005071 c -0.08024,-0.278518 -0.146067,-0.561574 -0.191139,-0.810766 0.512504,-0.496118 1.342799,-0.770761 2.19621,-0.803624 z m -2.846503,0.09662 c -0.556236,0.08987 -3.426651,1.300126 -2.318875,3.769013 0.0809,0.167258 0.401719,0.286844 1.461479,0.164674 v 0.08612 l -0.350772,0.236928 c -0.09417,0.06362 -0.118653,0.191063 -0.05503,0.285239 l 0.09494,0.140729 c 0.06362,0.09417 0.190644,0.11865 0.284819,0.05503 l 0.357913,-0.241549 h 1.500548 l -0.0017,-0.0013 -0.0034,-0.0017 -0.02521,-0.01764 c -5.96e-4,-0.0015 -0.0011,-0.0031 -0.0017,-0.0046 -0.0027,-4.55e-4 -0.0054,-0.001 -0.008,-0.0017 l -0.04117,-0.02689 c -0.0018,-0.002 -0.0034,-0.0041 -0.005,-0.0063 -0.0021,-4.95e-4 -0.0042,-0.001 -0.0063,-0.0017 l -0.04117,-0.02731 c -0.0016,-0.0026 -0.0032,-0.0053 -0.0046,-0.008 -0.0016,6.04e-4 -0.0033,0.0011 -0.005,0.0017 l -0.0126,-0.008 -0.0017,-0.0029 -0.03025,-0.02059 c -4.1e-5,-0.0017 -4.1e-5,-0.0033 0,-0.005 -0.0031,-4.22e-4 -0.0062,-9.49e-4 -0.0092,-0.0017 l -0.04159,-0.02983 c -4.1e-5,-0.0017 -4.1e-5,-0.0033 0,-0.005 -0.0031,-4.21e-4 -0.0062,-9.49e-4 -0.0092,-0.0017 l -0.03991,-0.03025 c -3.4e-5,-0.0015 -3.4e-5,-0.0031 0,-0.0046 -0.0037,-3.67e-4 -0.0073,-8.68e-4 -0.01092,-0.0017 l -0.0063,-0.0046 -0.0034,-0.0034 -0.03193,-0.0252 c -0.0016,-0.0026 -0.0032,-0.0053 -0.0046,-0.008 -0.0021,6.3e-5 -0.0042,6.3e-5 -0.0063,0 l -0.03823,-0.03025 c -0.0016,-0.0026 -0.0032,-0.0053 -0.0046,-0.008 -0.0017,4e-5 -0.0033,4e-5 -0.005,0 l -0.03949,-0.03025 c -0.0012,-0.002 -0.0023,-0.0041 -0.0034,-0.0063 -0.0021,-4.94e-4 -0.0042,-0.001 -0.0063,-0.0017 l -0.0029,-0.0017 -0.0034,-0.0029 -0.03487,-0.03025 c -0.0011,-0.002 -0.002,-0.0041 -0.0029,-0.0063 -0.0023,-4.86e-4 -0.0044,-10e-4 -0.0067,-0.0017 l -0.03781,-0.03193 c -0.0018,-0.0026 -0.0035,-0.0053 -0.005,-0.008 -0.0015,3.4e-5 -0.0031,3.4e-5 -0.0046,0 l -0.03823,-0.03151 c -7.69e-4,-0.0037 -0.0013,-0.0076 -0.0017,-0.01134 -0.0037,1.91e-4 -0.0073,1.91e-4 -0.01092,0 l -0.03655,-0.03319 c -0.0017,-0.0032 -0.0032,-0.0063 -0.0046,-0.0097 -0.0011,1.8e-5 -0.0023,1.8e-5 -0.0034,0 l -0.03655,-0.03319 c -0.0016,-0.0026 -0.0032,-0.0053 -0.0046,-0.008 -0.0017,4e-5 -0.0033,4e-5 -0.005,0 l -0.03655,-0.03319 c -0.0024,-0.0042 -0.0044,-0.0085 -0.0063,-0.01302 -0.0021,6.4e-5 -0.0042,6.4e-5 -0.0063,0 l -0.03487,-0.03487 c -0.0012,-0.0026 -0.0024,-0.0053 -0.0034,-0.008 -0.0021,6.3e-5 -0.0042,6.3e-5 -0.0063,0 l -0.03487,-0.03655 c -1.02e-4,-0.0027 -1.02e-4,-0.0053 0,-0.008 -0.0027,1.03e-4 -0.0053,1.03e-4 -0.008,0 l -0.03487,-0.03487 -0.0034,-0.0029 c -0.0011,-0.0032 -0.0021,-0.0064 -0.0029,-0.0097 -0.0015,3.4e-5 -0.0031,3.4e-5 -0.0046,0 l -0.03361,-0.03655 c -5.97e-4,-0.0015 -0.0011,-0.0031 -0.0017,-0.0046 -0.0027,-9.75e-4 -0.0054,-0.0021 -0.008,-0.0034 l -0.0092,-0.01092 -0.0017,-0.0017 -0.02395,-0.02689 c -0.0011,-0.0032 -0.0021,-0.0064 -0.0029,-0.0097 -0.0017,4.1e-5 -0.0033,4.1e-5 -0.005,0 l -0.02689,-0.03025 -0.0034,-0.0029 -0.0046,-0.005 c -1.49e-4,-0.0033 -1.49e-4,-0.0064 0,-0.0097 -0.0027,1.02e-4 -0.0053,1.02e-4 -0.008,0 l -0.03193,-0.03781 c -6.26e-4,-0.0021 -0.0012,-0.0041 -0.0017,-0.0063 -0.0021,-0.0011 -0.0042,-0.0022 -0.0063,-0.0034 l -0.0046,-0.0063 -0.0017,-0.0017 -0.02689,-0.03319 c 4.08e-4,-0.0033 9.49e-4,-0.0065 0.0017,-0.0097 -0.0027,1.03e-4 -0.0053,1.03e-4 -0.008,0 l -0.02226,-0.0252 -0.0017,-0.0034 -0.0097,-0.0126 c -4.1e-5,-0.0017 -4.1e-5,-0.0033 0,-0.005 -0.0028,-0.0014 -0.0054,-0.0029 -0.008,-0.0046 l -0.02983,-0.03949 c 2.69e-4,-0.0033 6.5e-4,-0.0065 0.0013,-0.0097 -0.0031,-4.21e-4 -0.0062,-9.49e-4 -0.0092,-0.0017 l -0.03025,-0.04117 c -7.11e-4,-0.0032 -0.0013,-0.0064 -0.0017,-0.0097 -0.0015,3.4e-5 -0.0031,3.4e-5 -0.0046,0 l -0.01428,-0.02058 -0.0017,-0.0017 -0.01428,-0.02058 c 4.08e-4,-0.0033 9.49e-4,-0.0065 0.0017,-0.0097 -0.0033,-4.08e-4 -0.0065,-9.48e-4 -0.0097,-0.0017 l -0.02689,-0.03949 c -0.0014,-0.0041 -0.0025,-0.0083 -0.0034,-0.0126 -0.0015,-5.23e-4 -0.0031,-0.001 -0.0046,-0.0017 l -0.0042,-0.0067 -1.230012,0.279777 c -0.118041,-0.01562 -0.195627,-0.03842 -0.239449,-0.05629 -0.01663,-0.0067 -0.02759,-0.01466 -0.03487,-0.021 -0.01153,-0.02475 -0.02265,-0.04917 -0.03319,-0.07352 0.0021,-8.94e-4 0.0042,-0.0017 0.0063,-0.0025 l 1.41359,-0.319685 -0.0038,-0.0067 c -6.26e-4,-0.0021 -0.0016,-0.0041 -0.0021,-0.0063 -0.0017,-0.0015 -0.0034,-0.003 -0.005,-0.0046 l -0.0017,-0.0034 v -0.0017 l -0.02184,-0.04285 c 8.94e-4,-0.0027 0.0019,-0.0054 0.0029,-0.008 -0.0033,-8.13e-4 -0.0065,-0.0018 -0.0097,-0.0029 l -0.0126,-0.02394 -0.0017,-0.0034 -0.0092,-0.0189 c 8.94e-4,-0.0027 0.0019,-0.0054 0.0029,-0.008 -0.0027,-8.95e-4 -0.0054,-0.0019 -0.008,-0.0029 l -0.02227,-0.04621 c -2.55e-4,-0.0042 -2.55e-4,-0.0084 0,-0.0126 -0.0021,-4.94e-4 -0.0042,-0.001 -0.0063,-0.0017 l -0.0189,-0.04453 c 5.24e-4,-0.0015 10e-4,-0.0031 0.0017,-0.0046 -0.0028,-0.0025 -0.0055,-0.0052 -0.008,-0.008 l -0.005,-0.01302 -0.0013,-0.0029 -0.01302,-0.03361 c -1.37e-4,-0.0031 -1.37e-4,-0.0062 0,-0.0092 -0.0015,-5.23e-4 -0.0031,-0.001 -0.0046,-0.0017 l -0.0084,-0.02016 -1.345536,0.296161 c -0.0143,0.0028 -0.02902,0.0027 -0.04327,-4.2e-4 -0.01703,-0.06554 -0.03047,-0.129531 -0.04033,-0.191979 0.01124,-0.0081 0.02393,-0.01397 0.03739,-0.01722 l 1.321171,-0.29112 -0.0021,-0.0088 c 8.94e-4,-0.0027 0.0019,-0.0054 0.0029,-0.008 -0.0021,-0.0011 -0.0042,-0.0022 -0.0063,-0.0034 l -0.0126,-0.04747 -0.0017,-0.0034 v -0.0013 c 4.94e-4,-0.0021 0.001,-0.0042 0.0017,-0.0063 -0.0016,-0.0016 -0.0032,-0.0033 -0.0046,-0.005 l -0.01134,-0.04915 c 4.94e-4,-0.0021 10e-4,-0.0042 0.0017,-0.0063 -0.0016,-0.0016 -0.0032,-0.0033 -0.0046,-0.005 l -0.0034,-0.01092 v -0.0034 l -0.008,-0.03781 c 4.94e-4,-0.0021 10e-4,-0.0042 0.0017,-0.0063 -0.0018,-0.002 -0.0034,-0.0045 -0.005,-0.0067 l -0.0063,-0.03529 -0.0017,-0.0029 -0.0013,-0.01428 c 0.0014,-0.0028 0.0029,-0.0054 0.0046,-0.008 -0.0022,-0.0016 -0.0042,-0.0033 -0.0063,-0.005 l -0.008,-0.04915 c 0.0011,-0.0015 0.0022,-0.0031 0.0034,-0.0046 -0.0024,-0.0037 -0.0047,-0.0074 -0.0067,-0.01134 l -0.0025,-0.02101 -1.298906,0.262554 c 0.0063,-0.07815 0.01799,-0.153869 0.03445,-0.227266 l 1.246395,-0.252052 v -0.005 c 5.24e-4,-0.0015 10e-4,-0.0031 0.0017,-0.0046 -0.0012,-0.0026 -0.0024,-0.0053 -0.0034,-0.008 v -0.01302 -0.0025 -0.03823 c 0.0011,-0.0021 0.0022,-0.0046 0.0034,-0.0067 -0.0012,-0.002 -0.0023,-0.0041 -0.0034,-0.0063 v -0.03823 -0.0046 -0.01134 c 0.0011,-0.0021 0.0022,-0.0042 0.0034,-0.0063 -0.0012,-0.002 -0.0023,-0.0041 -0.0034,-0.0063 l 0.0034,-0.04915 c 8.94e-4,-0.0021 0.0019,-0.0042 0.0029,-0.0063 -0.0011,-0.002 -0.002,-0.0041 -0.0029,-0.0063 l 0.0017,-0.04915 c 0.0014,-0.0033 0.0029,-0.0065 0.0046,-0.0097 -0.0011,-0.0026 -0.002,-0.0053 -0.0029,-0.008 l 0.0029,-0.02941 -1.07878,0.212143 c -0.01789,0.003 -0.03624,0.0014 -0.05335,-0.0046 0.03742,-0.07931 0.08046,-0.156039 0.128546,-0.229787 l 1.027531,-0.201641 0.005,-0.02479 v -0.0046 l 0.0046,-0.02395 c 0.0011,-0.0011 0.0022,-0.0023 0.0034,-0.0034 -6.54e-4,-0.0025 -0.0012,-0.005 -0.0017,-0.0076 l 0.0092,-0.04957 c 0.0016,-0.0022 0.0033,-0.0042 0.005,-0.0063 -6.26e-4,-0.0021 -0.0012,-0.0041 -0.0017,-0.0063 l 0.0063,-0.03823 0.0017,-0.0063 0.0017,-0.0092 c 0.0015,-0.0017 0.003,-0.0034 0.0046,-0.005 -6.26e-4,-0.0021 -0.0012,-0.0041 -0.0017,-0.0063 l 0.0126,-0.04915 c 0.0016,-0.0022 0.0033,-0.0046 0.005,-0.0067 -0.0012,-0.002 -0.0023,-0.0041 -0.0034,-0.0063 l 0.01302,-0.04789 c 0.0035,-0.0024 0.0071,-0.0043 0.01092,-0.0063 -0.0024,-0.0035 -0.0044,-0.0071 -0.0063,-0.01092 l 8.41e-4,-0.0025 -0.801104,0.158372 c 0.0331,-0.03361 0.0672,-0.06627 0.102081,-0.0983 0.07024,-0.0645 0.144065,-0.125498 0.219285,-0.183158 l 0.558714,-0.111743 c -7.31e-4,-0.0014 -0.0015,-0.0027 -0.0021,-0.0042 l 0.0063,-0.01428 0.0017,-0.0046 0.01302,-0.03193 c 0.0024,-0.0012 0.005,-0.0024 0.0076,-0.0034 -0.0011,-0.0025 -0.002,-0.005 -0.0029,-0.0076 l 0.0189,-0.04621 c 0.0016,-6.03e-4 0.0033,-0.0011 0.005,-0.0017 -1.5e-4,-0.0033 -1.5e-4,-0.0064 0,-0.0097 l 0.01092,-0.0252 0.0017,-0.005 0.01092,-0.02058 c 0.0016,-0.0016 0.0033,-0.0032 0.005,-0.0046 -6.4e-5,-0.0021 -6.4e-5,-0.0042 0,-0.0063 l 0.02226,-0.04453 c 0.0015,-0.0016 0.003,-0.0031 0.0046,-0.0046 -7.2e-5,-0.0023 -7.2e-5,-0.0044 0,-0.0067 l 0.01764,-0.03613 0.0029,-0.005 0.005,-0.0097 c 0.003,-0.0011 0.0061,-0.0021 0.0092,-0.0029 -0.0011,-0.0026 -0.002,-0.0053 -0.0029,-0.008 l 0.02394,-0.04285 c 0.0015,-5.96e-4 0.0031,-0.0011 0.0046,-0.0017 4.09e-4,-0.0033 9.49e-4,-0.0065 0.0017,-0.0097 l 0.02394,-0.04285 c 0.0034,-0.0033 0.0071,-0.0064 0.01092,-0.0092 -6.26e-4,-0.0021 -0.0012,-0.0041 -0.0017,-0.0063 l 0.02689,-0.04159 c 0.0026,-6.64e-4 0.0053,-0.0012 0.008,-0.0017 -5.59e-4,-0.0031 -9.35e-4,-0.0062 -0.0013,-0.0092 l 0.02689,-0.04159 c 0.0027,-5.24e-4 0.0053,-10e-4 0.008,-0.0013 -7.12e-4,-0.0032 -0.0013,-0.0064 -0.0017,-0.0097 l 0.0017,-0.0017 0.0029,-0.0063 0.02731,-0.03823 c 0.0024,-0.0016 0.005,-0.0032 0.0076,-0.0046 -4.1e-5,-0.0017 -4.1e-5,-0.0033 0,-0.005 l 0.02899,-0.03949 c 0.0015,-3.4e-5 0.0031,-3.4e-5 0.0046,0 3.52e-4,-0.0038 8.68e-4,-0.0076 0.0017,-0.01134 l 0.01092,-0.0126 0.0034,-0.0046 0.02058,-0.02563 c 0.0026,-0.0016 0.0053,-0.0032 0.008,-0.0046 -6.3e-5,-0.0021 -6.3e-5,-0.0042 0,-0.0063 l 0.03025,-0.03823 c 0.0015,-3.4e-5 0.0031,-3.4e-5 0.0046,0 9.76e-4,-0.0033 0.0021,-0.0065 0.0034,-0.0097 l 0.02058,-0.02521 0.0029,-0.0046 0.01302,-0.01302 c 0.0026,-0.0011 0.0053,-0.002 0.008,-0.0029 -6.4e-5,-0.0021 -6.4e-5,-0.0046 0,-0.0067 l 0.03319,-0.03655 c 0.0027,-1.03e-4 0.0053,-1.03e-4 0.008,0 -1.49e-4,-0.0033 -1.49e-4,-0.0064 0,-0.0097 l 0.03319,-0.03655 c 0.0027,-1.02e-4 0.0053,-1.02e-4 0.008,0 0.0014,-0.0043 0.0031,-0.0085 0.005,-0.0126 z m -4.310503,4.2e-4 a 0.74082714,0.74082714 0 0 1 0.740611,0.741032 0.74082714,0.74082714 0 0 1 -0.740611,0.740612 0.74082714,0.74082714 0 0 1 -0.741032,-0.740612 0.74082714,0.74082714 0 0 1 0.741032,-0.741032 z m 10.565164,0.01344 4.21e-4,8.4e-4 0.0046,0.0046 c 0.0012,0.002 0.0023,0.0041 0.0034,0.0063 0.0021,0.0011 0.0042,0.0022 0.0063,0.0034 l 0.03151,0.03823 c 0.0029,0.004 0.0056,0.0082 0.008,0.0126 5.6e-4,-5e-6 0.0011,-5e-6 0.0017,0 l 0.03193,0.03823 c 0.0018,0.0041 0.0033,0.0083 0.0046,0.0126 0.0017,-4.1e-5 0.0033,-4.1e-5 0.005,0 l 0.02983,0.03949 c 0.0013,0.0032 0.0025,0.0064 0.0034,0.0097 0.0015,-3.4e-5 0.0031,-3.4e-5 0.0046,0 l 0.0034,0.0034 0.0017,0.0029 0.02521,0.03655 c 6.26e-4,0.0021 0.0012,0.0041 0.0017,0.0063 0.0021,0.0011 0.0042,0.0022 0.0063,0.0034 l 0.0063,0.01092 0.0034,0.0034 0.0189,0.02983 c 0.0012,0.0022 0.0024,0.0044 0.0034,0.0067 l 0.0046,0.0029 0.01134,0.0189 0.0017,0.0017 0.01554,0.02394 c 0.0013,0.0032 0.0025,0.0064 0.0034,0.0097 9.75e-4,5.44e-4 0.002,0.0011 0.0029,0.0017 l 0.01596,0.0252 0.0017,0.0017 0.0097,0.01722 c 0.0012,0.0037 0.0022,0.0075 0.0029,0.01134 0.0011,-1.8e-5 0.0023,-1.8e-5 0.0034,0 l 0.0189,0.03319 0.0017,0.0017 0.0046,0.01134 c 0.0012,0.0026 0.0024,0.0053 0.0034,0.008 0.0011,9.75e-4 0.0023,0.002 0.0034,0.0029 l 0.02184,0.03991 0.0017,0.0029 0.0017,0.0034 c 0.0013,0.003 0.0024,0.0061 0.0034,0.0092 9.75e-4,5.43e-4 0.002,0.0011 0.0029,0.0017 l 0.02227,0.04453 c 7.68e-4,0.0037 0.0013,0.0076 0.0017,0.01134 0.0017,8.94e-4 0.0034,0.002 0.005,0.0029 l 0.02058,0.04453 c 7.12e-4,0.0032 0.0013,0.0064 0.0017,0.0097 0.0015,3.85e-4 0.0031,8.46e-4 0.0046,0.0013 v 0.0017 l 0.0017,0.0034 0.0189,0.04285 c 7.11e-4,0.0032 0.0013,0.0064 0.0017,0.0097 0.0011,9.76e-4 0.0023,0.002 0.0034,0.0029 l 0.0046,0.0097 v 0.0029 l 0.01596,0.03529 c 8.13e-4,0.0041 0.0014,0.0084 0.0017,0.0126 5.6e-4,-5e-6 0.0011,-5e-6 0.0017,0 l 0.0076,0.01722 0.0021,0.005 0.0097,0.02689 c 7.11e-4,0.0032 0.0013,0.0064 0.0017,0.0097 l 0.0029,0.0029 0.01554,0.04495 c 0.0025,3.29e-4 0.005,3.7e-4 0.0076,8.4e-4 l 0.596522,0.135688 c 0.07522,0.05766 0.149044,0.118662 0.219285,0.183158 0.03488,0.03203 0.06898,0.06468 0.102081,0.0983 l -0.854035,-0.183158 0.0038,0.01596 c 1.41e-4,2.79e-4 2.81e-4,5.86e-4 4.2e-4,8.39e-4 3e-6,4.21e-4 3e-6,7.74e-4 0,0.0013 3e-6,4.21e-4 3e-6,8.54e-4 0,0.0013 v 4.21e-4 c 3e-6,4.2e-4 3e-6,8.53e-4 0,0.0013 3e-6,4.2e-4 3e-6,8.53e-4 0,0.0013 3e-6,4.2e-4 3e-6,7.73e-4 0,0.0013 v 4.2e-4 c -1.26e-4,9.75e-4 -2.66e-4,0.002 -4.2e-4,0.0029 0.0011,5.4e-4 0.0023,0.0011 0.0034,0.0017 l 0.01092,0.04747 c 1.96e-4,0.002 3.35e-4,0.0039 4.2e-4,0.0059 -9.2e-5,0.0018 -2.32e-4,0.0037 -4.2e-4,0.0055 0.0011,5.4e-4 0.0023,0.0011 0.0034,0.0017 l 0.0046,0.02352 0.0017,0.005 0.005,0.02352 c 2e-6,4.2e-4 2e-6,8.53e-4 0,0.0013 v 4.2e-4 c 2e-6,4.2e-4 2e-6,4.33e-4 0,8.4e-4 v 4.2e-4 c 2e-6,4.2e-4 2e-6,8.53e-4 0,0.0013 v 4.2e-4 c 2e-6,4.2e-4 2e-6,8.54e-4 0,0.0013 v 4.2e-4 4.21e-4 4.2e-4 4.19e-4 4.21e-4 4.2e-4 4.2e-4 4.2e-4 4.2e-4 4.2e-4 4.21e-4 4.19e-4 c 5.67e-4,5.54e-4 0.0011,0.0011 0.0017,0.0017 l 0.0092,0.04915 c 1.58e-4,0.0011 2.99e-4,0.0023 4.21e-4,0.0034 -5.8e-5,0.0024 -1.99e-4,0.0048 -4.21e-4,0.0071 v 4.2e-4 c 5.67e-4,5.54e-4 0.0011,0.0011 0.0017,0.0017 l 0.0097,0.04789 c -2.3e-4,0.0048 -7.65e-4,0.0096 -0.0017,0.01428 l 0.0046,0.0029 0.0063,0.04915 c 1.45e-4,5.59e-4 2.85e-4,0.0011 4.2e-4,0.0017 v 4.21e-4 4.19e-4 4.2e-4 4.21e-4 4.2e-4 4.19e-4 4.21e-4 4.2e-4 4.2e-4 4.2e-4 4.2e-4 4.2e-4 4.21e-4 4.19e-4 4.2e-4 4.21e-4 4.2e-4 4.2e-4 c 9.76e-4,1.73e-4 0.002,2.2e-4 0.0029,4.2e-4 l 1.082142,0.207522 c 0.04808,0.07375 0.09113,0.150479 0.128546,0.229787 -0.01711,0.006 -0.03546,0.0076 -0.05335,0.0046 l -1.135493,-0.218865 0.0021,0.02016 c -7.83e-4,0.0048 -0.0019,0.0096 -0.0034,0.01428 0.0011,4e-4 0.0023,7.72e-4 0.0034,0.0013 l 0.0029,0.05083 c -4.08e-4,0.0033 -9.48e-4,0.0065 -0.0017,0.0097 5.8e-4,0.0011 0.0011,0.0022 0.0017,0.0034 l 0.0017,0.04915 c -4.95e-4,0.0021 -10e-4,0.0046 -0.0017,0.0067 0.0012,0.002 0.0023,0.0041 0.0034,0.0063 v 0.02689 4.2e-4 4.2e-4 4.21e-4 4.19e-4 4.2e-4 4.21e-4 4.2e-4 4.19e-4 l 0.0017,0.05083 c -4.21e-4,0.0031 -9.48e-4,0.0062 -0.0017,0.0092 5.67e-4,5.54e-4 0.0011,0.0011 0.0017,0.0017 v 0.02857 l 1.301007,0.286078 c 0.01646,0.0734 0.0282,0.149111 0.03445,0.227267 l -1.351417,-0.295741 -4.2e-4,0.0034 -0.0029,0.0046 c 6.26e-4,0.0021 0.0012,0.0041 0.0017,0.0063 l -0.005,0.04453 v 0.005 l -0.0017,0.0046 -0.0029,0.0046 c 6.65e-4,0.0026 0.0012,0.0053 0.0017,0.008 l -0.008,0.04957 c -0.0011,9.76e-4 -0.0022,0.002 -0.0034,0.0029 6.64e-4,0.0026 0.0012,0.0053 0.0017,0.008 l -0.0017,0.008 v 0.0034 l -0.0092,0.04285 c -5.54e-4,5.67e-4 -0.0011,0.0011 -0.0017,0.0017 v 4.21e-4 4.19e-4 4.2e-4 4.21e-4 4.2e-4 4.2e-4 4.2e-4 4.2e-4 4.2e-4 4.21e-4 4.19e-4 4.2e-4 4.21e-4 4.2e-4 4.19e-4 4.21e-4 4.2e-4 4.2e-4 4.2e-4 4.2e-4 4.2e-4 4.21e-4 l -0.0063,0.03193 -0.0017,0.0029 -0.0034,0.01764 -0.0029,0.0046 v 4.2e-4 4.2e-4 4.2e-4 4.21e-4 4.2e-4 4.19e-4 4.21e-4 4.2e-4 4.2e-4 4.2e-4 4.2e-4 4.2e-4 4.2e-4 4.2e-4 4.2e-4 4.2e-4 4.21e-4 4.19e-4 4.2e-4 l -0.01134,0.04789 c -0.0015,0.0022 -0.003,0.0042 -0.0046,0.0063 v 4.2e-4 4.2e-4 4.2e-4 4.2e-4 4.2e-4 4.2e-4 4.2e-4 4.2e-4 4.21e-4 4.19e-4 4.21e-4 4.2e-4 4.2e-4 4.2e-4 4.2e-4 4.2e-4 4.2e-4 4.21e-4 4.19e-4 4.2e-4 4.21e-4 4.2e-4 l -0.0126,0.04789 c -0.0011,0.0015 -0.0022,0.0031 -0.0034,0.0046 v 4.21e-4 4.2e-4 4.19e-4 4.21e-4 4.2e-4 4.2e-4 4.2e-4 4.2e-4 4.2e-4 4.2e-4 4.21e-4 4.19e-4 4.2e-4 4.21e-4 4.2e-4 4.19e-4 4.21e-4 4.2e-4 4.2e-4 l 1.375362,0.28902 c 0.01345,0.0033 0.02615,0.0091 0.03739,0.01722 -0.0099,0.06245 -0.0233,0.126443 -0.04033,0.191979 -0.01424,0.0031 -0.02896,0.0033 -0.04327,4.2e-4 l -1.399307,-0.29406 -0.01092,0.02899 c -0.0011,0.0011 -0.0022,0.0023 -0.0034,0.0034 -4.55e-4,0.0027 -9.48e-4,0.0054 -0.0017,0.008 l -0.01092,0.02857 -0.0017,0.0029 -0.008,0.01764 c -0.0011,5.8e-4 -0.0022,0.0011 -0.0034,0.0017 -4.08e-4,0.0033 -9.49e-4,0.0065 -0.0017,0.0097 l -0.02058,0.04579 c -0.0015,0.0017 -0.003,0.0034 -0.0046,0.005 -4.21e-4,0.0031 -9.49e-4,0.0062 -0.0017,0.0092 l -0.02227,0.04453 c -9.76e-4,5.77e-4 -0.002,0.0011 -0.0029,0.0017 -4.08e-4,0.0033 -9.49e-4,0.0065 -0.0017,0.0097 l -0.0063,0.01554 -0.0017,0.0034 -0.01596,0.02857 c -0.0015,0.0011 -0.0031,0.0023 -0.0046,0.0034 -4.55e-4,0.0027 -9.48e-4,0.0054 -0.0017,0.008 l -0.01932,0.03613 -8.4e-4,0.0021 1.457698,0.335649 c 0.0021,7.75e-4 0.0043,0.0016 0.0063,0.0025 -0.01053,0.02435 -0.02166,0.04876 -0.03319,0.07352 -0.0072,0.0063 -0.01824,0.01422 -0.03487,0.021 -0.04382,0.01787 -0.121408,0.04067 -0.239449,0.05629 l -1.245555,-0.28944 c -0.0083,-0.0018 -0.01616,-0.0046 -0.02352,-0.008 l -0.02311,0.03529 c -9.76e-4,1.4e-5 -0.002,1.4e-5 -0.0029,0 -0.0014,0.0043 -0.0031,0.0085 -0.005,0.0126 l -0.02857,0.04159 c -9.76e-4,1.4e-5 -0.002,1.4e-5 -0.0029,0 -9.76e-4,0.0032 -0.0021,0.0062 -0.0034,0.0092 l -0.01092,0.01596 -0.0017,0.0017 -0.01764,0.02521 c -9.76e-4,1.3e-5 -0.002,1.3e-5 -0.0029,0 -0.0015,0.0039 -0.0032,0.0076 -0.005,0.01134 l -0.02689,0.03487 -0.0017,0.0034 -0.0034,0.0029 c -4.14e-4,5.64e-4 -7.73e-4,0.0011 -0.0013,0.0017 -0.0015,0.0028 -0.0033,0.0054 -0.005,0.008 l -0.03025,0.03949 c -0.0015,3.5e-5 -0.0031,3.5e-5 -0.0046,0 -9.76e-4,0.0033 -0.0021,0.0065 -0.0034,0.0097 l -0.0063,0.008 -0.0017,0.0017 -0.0252,0.03193 c -0.0011,1.8e-5 -0.0023,1.8e-5 -0.0034,0 -0.0014,0.0032 -0.0029,0.0063 -0.0046,0.0092 l -0.02227,0.02857 -0.0017,0.0017 -0.0092,0.01134 c -0.0011,1.7e-5 -0.0023,1.7e-5 -0.0034,0 -0.0014,0.0032 -0.0029,0.0063 -0.0046,0.0092 l -0.03193,0.03823 c -0.0015,5.97e-4 -0.0031,0.0011 -0.0046,0.0017 -9.75e-4,0.0027 -0.0021,0.0054 -0.0034,0.008 l -0.0017,0.0017 -0.03319,0.03655 c -0.0011,1.8e-5 -0.0023,1.8e-5 -0.0034,0 -0.0014,0.0032 -0.0029,0.0063 -0.0046,0.0092 l -0.01932,0.02058 -0.0017,0.0017 -0.01428,0.01596 c -0.0022,0.0012 -0.0044,0.0024 -0.0067,0.0034 -8.94e-4,0.0021 -0.0019,0.0042 -0.0029,0.0063 l -0.03319,0.03655 c -0.0022,0.0011 -0.0044,0.002 -0.0067,0.0029 -0.0014,0.0028 -0.0029,0.0054 -0.0046,0.008 l -0.03487,0.03487 c -0.002,0.0012 -0.0041,0.0023 -0.0063,0.0034 -0.0011,0.0015 -0.0022,0.0031 -0.0034,0.0046 l -0.03487,0.03655 c -9.75e-4,5.76e-4 -0.002,0.0011 -0.0029,0.0017 -0.0016,0.0022 -0.0033,0.0042 -0.005,0.0063 l -0.03487,0.03487 -0.0034,0.0034 h -0.0013 c -0.0011,1.8e-5 -0.0023,1.8e-5 -0.0034,0 -0.002,0.0028 -0.004,0.0055 -0.0063,0.008 l -0.03655,0.03319 c -5.6e-4,5e-6 -0.0011,5e-6 -0.0017,0 -0.002,0.0033 -0.004,0.0066 -0.0063,0.0097 l -0.03823,0.03319 c -9.75e-4,1.4e-5 -0.002,1.4e-5 -0.0029,0 -0.0015,0.0028 -0.0033,0.0054 -0.005,0.008 l -0.03151,0.02857 -0.005,0.0034 -0.0046,0.0046 c -0.0015,5.97e-4 -0.0031,0.0011 -0.0046,0.0017 -0.0016,0.0022 -0.0033,0.0042 -0.005,0.0063 l -0.03823,0.03193 c -9.76e-4,1.4e-5 -0.002,1.4e-5 -0.0029,0 -0.002,0.0028 -0.004,0.0055 -0.0063,0.008 l -0.03655,0.03151 c -0.0016,6.03e-4 -0.0033,0.0011 -0.005,0.0017 -0.0015,0.0022 -0.003,0.0042 -0.0046,0.0063 l -0.03025,0.02563 -0.0029,0.0017 -0.0097,0.008 c -0.0021,4.85e-4 -0.0042,8.54e-4 -0.0063,0.0013 -0.0011,0.0017 -0.0022,0.0034 -0.0034,0.005 l -0.03949,0.03151 c -0.0021,6.26e-4 -0.0041,0.0012 -0.0063,0.0017 -0.0011,0.0017 -0.0022,0.0034 -0.0034,0.005 l -0.03823,0.03151 c -0.0025,6.54e-4 -0.005,0.0012 -0.0076,0.0017 -0.0011,0.0017 -0.0022,0.0034 -0.0034,0.005 l -0.02563,0.02058 -0.0029,0.0017 -0.01428,0.01092 c -0.0011,1.8e-5 -0.0023,1.8e-5 -0.0034,0 -0.002,0.0022 -0.0041,0.0047 -0.0063,0.0067 l -0.03949,0.02857 c -0.0016,6.03e-4 -0.0033,0.0011 -0.005,0.0017 -0.002,0.0022 -0.0041,0.0043 -0.0063,0.0063 l -0.03949,0.02857 c -0.0011,1.8e-5 -0.0023,1.8e-5 -0.0034,0 -0.0025,0.0028 -0.0052,0.0055 -0.008,0.008 l -0.02058,0.01596 -0.0029,0.0017 -0.01932,0.0126 c -0.0021,6.25e-4 -0.0041,0.0012 -0.0063,0.0017 -0.0015,0.0016 -0.003,0.0031 -0.0046,0.0046 l -0.04159,0.02731 c -9.76e-4,1.4e-5 -0.002,1.4e-5 -0.0029,0 -0.002,0.0028 -0.004,0.0055 -0.0063,0.008 l -0.04117,0.02689 c -0.0022,6.35e-4 -0.0044,0.0012 -0.0067,0.0017 -0.0015,0.0016 -0.003,0.0031 -0.0046,0.0046 l -0.01764,0.0126 -0.0029,0.0017 -0.005,0.0029 h 1.51735 l 0.357494,0.241549 c 0.09417,0.06362 0.221196,0.03915 0.284818,-0.05503 l 0.09536,-0.140729 c 0.06363,-0.09418 0.03872,-0.221616 -0.05545,-0.285238 L 22.53663,23.371752 v -0.08612 c 1.059816,0.122187 1.468412,3.57e-4 1.534155,-0.159633 1.068205,-2.380705 -1.641825,-3.595807 -2.323497,-3.760191 z m 3.013278,0.576778 c -0.117532,0 -0.212143,0.105797 -0.212143,0.236929 v 3.555608 c 0,0.131132 0.09461,0.236929 0.212143,0.236929 h 2.944383 c 0.117532,0 0.212144,-0.105797 0.212144,-0.236929 v -0.226006 c 0.124405,-0.03702 0.215504,-0.163443 0.215504,-0.314225 v -2.475567 c 0,-0.150783 -0.0911,-0.276782 -0.215504,-0.313804 v -0.226006 c 0,-0.131132 -0.09461,-0.236929 -0.212144,-0.236929 z m 0.2949,0.06511 h 0.576359 c 0.177918,0 0.322205,0.144288 0.322205,0.322207 v 3.2229 c 0,0.177917 -0.144287,0.323886 -0.322205,0.323886 h -0.576359 c -0.177919,0 -0.322626,-0.145969 -0.322626,-0.323886 v -3.2229 c 0,-0.177919 0.144707,-0.322207 0.322626,-0.322207 z m 0,0.136529 c -0.104634,0 -0.186097,0.08104 -0.186097,0.185678 v 3.2229 c 0,0.104634 0.08146,0.187359 0.186097,0.187359 h 0.576359 c 0.104634,0 0.185678,-0.08272 0.185678,-0.187359 v -3.2229 c 0,-0.104635 -0.08104,-0.185678 -0.185678,-0.185678 z m 0.28776,0.03151 a 0.29888136,0.29888136 0 0 1 0.299101,0.299101 0.29888136,0.29888136 0 0 1 -0.299101,0.298682 0.29888136,0.29888136 0 0 1 -0.298682,-0.298682 0.29888136,0.29888136 0 0 1 0.298682,-0.299101 z m 0,0.717927 a 0.29888136,0.29888136 0 0 1 0.299101,0.298681 0.29888136,0.29888136 0 0 1 -0.299101,0.299102 0.29888136,0.29888136 0 0 1 -0.298682,-0.299102 0.29888136,0.29888136 0 0 1 0.298682,-0.298681 z m -8.917168,0.273056 h 4.333608 c -0.146642,0.453627 -0.327331,0.86332 -0.511665,1.052316 -0.03492,0.01728 -0.07046,0.03414 -0.106702,0.05041 h -0.208783 l 8.41e-4,-8.4e-4 c -0.340936,-0.349597 -0.856765,-0.516225 -1.36402,-0.516286 -0.506199,-6.1e-5 -1.011054,0.165482 -1.328312,0.517126 h -0.210463 c -0.02377,-0.01067 -0.04695,-0.02165 -0.07015,-0.03277 0.01673,0.0014 0.03354,0.0023 0.04957,0.0034 -0.207307,-0.127114 -0.416406,-0.568257 -0.58392,-1.07332 z m -5.243934,0.430168 a 0.74082714,0.74082714 0 0 1 0.740611,0.740612 0.74082714,0.74082714 0 0 1 -0.740611,0.741032 0.74082714,0.74082714 0 0 1 -0.741032,-0.741032 0.74082714,0.74082714 0 0 1 0.741032,-0.740612 z m 14.161102,0.0147 a 0.29888136,0.29888136 0 0 1 0.299101,0.29868 0.29888136,0.29888136 0 0 1 -0.299101,0.299102 0.29888136,0.29888136 0 0 1 -0.298682,-0.299102 0.29888136,0.29888136 0 0 1 0.298682,-0.29868 z M 18.569337,21.967 c 0.374354,4.6e-5 0.750608,0.104027 1.032992,0.302462 h -2.041198 c 0.265171,-0.197704 0.632892,-0.302507 1.008206,-0.302462 z m 6.773889,0.362114 a 0.29888136,0.29888136 0 0 1 0.299101,0.299101 0.29888136,0.29888136 0 0 1 -0.299101,0.298682 0.29888136,0.29888136 0 0 1 -0.298682,-0.298682 0.29888136,0.29888136 0 0 1 0.298682,-0.299101 z m 0,0.717927 a 0.29888136,0.29888136 0 0 1 0.299101,0.299102 0.29888136,0.29888136 0 0 1 -0.299101,0.298681 0.29888136,0.29888136 0 0 1 -0.298682,-0.298681 0.29888136,0.29888136 0 0 1 0.298682,-0.299102 z m -9.597708,0.82925 c -0.113652,0 -0.385121,0.09487 -0.356653,0.205002 l 0.151651,0.586861 c 0.02844,0.110036 0.09135,0.205002 0.205002,0.205002 h 5.680825 c 0.113652,0 0.176558,-0.09497 0.205002,-0.205002 l 0.151651,-0.586861 c 0.02847,-0.110129 -0.243001,-0.205002 -0.356653,-0.205002 h -0.784721 l -0.02647,0.0168 c -0.0017,4.1e-5 -0.0033,4.1e-5 -0.005,0 -0.0015,0.0022 -0.003,0.0042 -0.0046,0.0063 l -0.04285,0.0252 c -0.0016,6.03e-4 -0.0033,0.0011 -0.005,0.0017 -0.002,0.0016 -0.0041,0.0032 -0.0063,0.0046 l -0.01092,0.008 -0.0034,0.0017 -0.03151,0.01764 c -0.0011,1.8e-5 -0.0023,1.8e-5 -0.0034,0 -0.002,0.0022 -0.0041,0.0043 -0.0063,0.0063 l -0.04453,0.0252 c -0.0015,3.4e-5 -0.0031,3.4e-5 -0.0046,0 -0.0016,0.0017 -0.0033,0.0034 -0.005,0.005 l -0.04411,0.0252 c -5.61e-4,5e-6 -0.0011,5e-6 -0.0017,0 -0.0025,0.0022 -0.0052,0.0043 -0.008,0.0063 l -0.005,0.0017 -0.0029,0.0021 -0.03991,0.02058 c -9.75e-4,1.4e-5 -0.002,1.4e-5 -0.0029,0 -0.0025,0.0022 -0.0052,0.0043 -0.008,0.0063 l -0.04453,0.02394 c -0.0015,-5.24e-4 -0.0031,-10e-4 -0.0046,-0.0017 -0.0021,0.0022 -0.0044,0.0043 -0.0067,0.0063 l -0.04285,0.02395 c -0.0027,1.02e-4 -0.0053,1.02e-4 -0.008,0 -0.002,0.0022 -0.0041,0.0043 -0.0063,0.0063 l -0.04411,0.02226 c -0.0017,4e-5 -0.0033,4e-5 -0.005,0 -0.002,0.0016 -0.0041,0.0032 -0.0063,0.0046 l -0.04621,0.02226 c -9.76e-4,-5.44e-4 -0.002,-0.0011 -0.0029,-0.0017 -0.0025,0.0024 -0.0052,0.0046 -0.008,0.0067 l -0.03823,0.01891 -0.0029,0.0017 -0.0063,0.0029 c -0.0017,4.1e-5 -0.0033,4.1e-5 -0.005,0 -0.002,0.0018 -0.0041,0.0034 -0.0063,0.005 l -0.04621,0.0189 c -4.2e-4,3e-6 -8.54e-4,3e-6 -0.0013,0 -0.0031,0.0023 -0.0063,0.0043 -0.0097,0.0063 l -0.04453,0.01932 c -0.0015,-5.23e-4 -0.0031,-0.001 -0.0046,-0.0017 -0.0025,0.0022 -0.0052,0.0043 -0.008,0.0063 l -0.02395,0.01092 -0.0034,0.0017 -0.02059,0.008 c -0.0021,6.4e-5 -0.0042,6.4e-5 -0.0063,0 -0.002,0.0016 -0.0041,0.0032 -0.0063,0.0046 l -0.04621,0.01932 c -0.0015,3.4e-5 -0.0031,3.4e-5 -0.0046,0 -0.002,0.0016 -0.0045,0.0032 -0.0067,0.0046 l -0.04621,0.01932 c -9.76e-4,1.4e-5 -0.0015,1.4e-5 -0.0025,0 -0.0026,0.0016 -0.0053,0.0032 -0.008,0.0046 l -0.0067,0.0017 -0.005,0.0017 -0.03949,0.01428 c -0.0011,1.8e-5 -0.0019,1.8e-5 -0.0029,0 -0.0026,0.0016 -0.0053,0.0032 -0.008,0.0046 l -0.04747,0.01596 c -0.0011,1.8e-5 -0.0023,1.8e-5 -0.0034,0 -0.0026,0.0016 -0.0053,0.0032 -0.008,0.0046 l -0.04285,0.01596 -0.0029,0.0017 h -0.005 c -9.75e-4,1.4e-5 -0.002,1.4e-5 -0.0029,0 -0.0026,0.0016 -0.0053,0.0032 -0.008,0.0046 l -0.04747,0.0147 c -5.66e-4,-5.54e-4 -0.0011,-0.0011 -0.0017,-0.0017 -0.0031,0.0023 -0.0063,0.0043 -0.0097,0.0063 l -0.04747,0.01596 c -0.0011,-5.4e-4 -0.0023,-0.0011 -0.0034,-0.0017 -0.0026,0.0016 -0.0053,0.0032 -0.008,0.0046 l -0.01722,0.0046 -0.0034,0.0017 -0.03193,0.0097 c -9.76e-4,-5.44e-4 -0.002,-0.0011 -0.0029,-0.0017 -0.0026,0.0018 -0.0053,0.0035 -0.008,0.005 l -0.04747,0.0126 c -0.0023,7.3e-5 -0.0044,7.3e-5 -0.0067,0 -0.002,0.0011 -0.0041,0.002 -0.0063,0.0029 l -0.04411,0.01302 -0.005,0.0013 h -0.0029 c -0.0011,-4e-4 -0.0023,-8.53e-4 -0.0034,-0.0013 -0.0026,0.0016 -0.0053,0.0032 -0.008,0.0046 l -0.04915,0.0126 c -0.0011,-5.4e-4 -0.0023,-0.0011 -0.0034,-0.0017 -0.0026,0.0012 -0.0053,0.0024 -0.008,0.0034 l -0.04915,0.0126 c -0.0015,-5.24e-4 -0.0031,-0.001 -0.0046,-0.0017 -0.002,0.0012 -0.0041,0.0023 -0.0063,0.0034 l -0.008,0.0029 h -0.005 l -0.04117,0.008 c -5.64e-4,-4.14e-4 -0.0011,-7.72e-4 -0.0017,-0.0013 -0.0032,0.0017 -0.0063,0.0032 -0.0097,0.0046 l -0.04915,0.0097 c -9.75e-4,-0.0011 -0.002,-0.0022 -0.0029,-0.0034 -0.0032,0.0017 -0.0063,0.0032 -0.0097,0.0046 l -0.02521,0.0067 h -0.005 l -0.02226,0.0029 c -0.0015,-5.24e-4 -0.0031,-0.001 -0.0046,-0.0017 -0.0026,0.0012 -0.0053,0.0024 -0.008,0.0034 l -0.04915,0.008 c -0.0011,-5.4e-4 -0.0023,-0.0011 -0.0034,-0.0017 -0.003,0.0011 -0.0061,0.0021 -0.0092,0.0029 l -0.03823,0.0067 h -0.005 l -0.01092,0.0013 c -0.0015,-3.84e-4 -0.0031,-7.64e-4 -0.0046,-0.0013 -0.0026,0.0011 -0.0053,0.002 -0.008,0.0029 l -0.04957,0.005 c -0.0021,-4.94e-4 -0.0042,-10e-4 -0.0063,-0.0017 -0.0021,6.26e-4 -0.0041,0.0012 -0.0063,0.0017 l -0.04285,0.0046 h -0.0063 -0.0063 c -5.67e-4,-5.54e-4 -0.0011,-0.0011 -0.0017,-0.0017 -0.0036,0.0013 -0.0072,0.0025 -0.01092,0.0034 l -0.04957,0.0013 c -0.0021,-3.55e-4 -0.0046,-7.35e-4 -0.0067,-0.0013 -0.0021,4.84e-4 -0.0042,8.54e-4 -0.0063,0.0013 l -0.04117,0.0017 h -0.0063 -0.008 c -0.0021,-8.94e-4 -0.0042,-0.0019 -0.0063,-0.0029 -0.002,0.0011 -0.0041,0.002 -0.0063,0.0029 l -0.04915,-0.0017 c -0.0021,-8.94e-4 -0.0042,-0.0019 -0.0063,-0.0029 -0.0022,0.0011 -0.0044,0.002 -0.0067,0.0029 l -0.04285,-0.0013 h -0.0063 -0.0063 c -0.0021,-0.0011 -0.0042,-0.0022 -0.0063,-0.0034 -0.0021,6.26e-4 -0.0041,0.0012 -0.0063,0.0017 l -0.04915,-0.0046 c -0.0028,-0.0015 -0.0054,-0.0033 -0.008,-0.005 -0.0016,0.0017 -0.0033,0.0034 -0.005,0.005 l -0.04915,-0.005 c -0.0037,-0.0019 -0.0074,-0.0039 -0.01092,-0.0063 -0.002,0.0016 -0.0041,0.0032 -0.0063,0.0046 l -0.04915,-0.0063 c -0.0033,-0.002 -0.0066,-0.0039 -0.0097,-0.0063 -0.0011,0.0011 -0.0022,0.0023 -0.0034,0.0034 l -0.04915,-0.0067 c -0.0011,-0.0016 -0.002,-0.0033 -0.0029,-0.005 -0.0032,0.0013 -0.0064,0.0025 -0.0097,0.0034 h -0.0017 l -0.0046,-0.0017 -0.04789,-0.008 c -0.0011,-0.0015 -0.002,-0.0031 -0.0029,-0.0046 -0.0027,5.23e-4 -0.0053,0.001 -0.008,0.0013 l -0.04915,-0.008 c -0.0023,-0.0015 -0.0045,-0.003 -0.0067,-0.0046 -0.0021,6.26e-4 -0.0045,0.0012 -0.0067,0.0017 l -0.02226,-0.0034 -0.0029,-0.0013 -0.02689,-0.0067 c -0.0011,-0.0015 -0.0019,-0.0031 -0.0029,-0.0046 -0.0032,7.12e-4 -0.0064,0.0013 -0.0097,0.0017 l -0.04747,-0.01134 c -0.0028,-0.002 -0.0055,-0.004 -0.008,-0.0063 -0.0015,0.0011 -0.0031,0.0023 -0.0046,0.0034 l -0.04621,-0.0097 -0.0046,-0.0017 h -0.0021 c -0.0017,-0.0015 -0.0034,-0.003 -0.005,-0.0046 -0.0026,6.64e-4 -0.0049,0.0012 -0.0076,0.0017 l -0.04747,-0.01428 c -0.0022,-0.0016 -0.0046,-0.0033 -0.0067,-0.005 -0.0015,5.96e-4 -0.0031,0.0011 -0.0046,0.0017 l -0.04789,-0.0126 c -0.0016,-0.0015 -0.0031,-0.003 -0.0046,-0.0046 -0.0027,5.23e-4 -0.0053,9.35e-4 -0.008,0.0013 l -0.01596,-0.0046 -0.0034,-0.0017 -0.03151,-0.0097 c -0.0022,-0.0015 -0.0042,-0.003 -0.0063,-0.0046 -0.0021,6.3e-5 -0.0042,6.3e-5 -0.0063,0 l -0.04789,-0.01428 c -0.0028,-0.002 -0.0055,-0.004 -0.008,-0.0063 -9.76e-4,5.77e-4 -0.002,0.0011 -0.0029,0.0017 l -0.04789,-0.01428 c -0.0017,-0.0032 -0.0032,-0.0063 -0.0046,-0.0097 -0.0036,0.0017 -0.0072,0.0032 -0.01092,0.0046 l -0.04621,-0.01722 c -0.0017,-0.0015 -0.0034,-0.003 -0.005,-0.0046 -0.0021,6.3e-5 -0.0042,6.3e-5 -0.0063,0 l -0.04747,-0.01596 c -6.04e-4,-0.0016 -0.0011,-0.0033 -0.0017,-0.005 -0.0033,1.49e-4 -0.0064,1.49e-4 -0.0097,0 l -0.02689,-0.0092 -0.0046,-0.0017 -0.01932,-0.008 c -0.0011,-0.0026 -0.002,-0.0053 -0.0029,-0.008 -0.0026,0.0011 -0.0053,0.002 -0.008,0.0029 l -0.04621,-0.01722 c -6.03e-4,-0.0016 -0.0011,-0.0033 -0.0017,-0.005 -0.0031,1.37e-4 -0.0062,1.37e-4 -0.0092,0 l -0.04621,-0.0189 c -5.97e-4,-0.0015 -0.0011,-0.0031 -0.0017,-0.0046 -0.0031,1.37e-4 -0.0062,1.37e-4 -0.0092,0 l -0.0097,-0.0034 -0.0046,-0.0017 -0.03529,-0.01596 c -0.0016,-0.0015 -0.0031,-0.003 -0.0046,-0.0046 -0.0021,6.3e-5 -0.0042,6.3e-5 -0.0063,0 l -0.04621,-0.02059 c -0.0011,-0.0026 -0.002,-0.0053 -0.0029,-0.008 -0.0026,0.0011 -0.0053,0.002 -0.008,0.0029 l -0.04621,-0.02058 c -0.0011,-0.003 -0.0021,-0.0061 -0.0029,-0.0092 -0.0037,0.0012 -0.0075,0.0022 -0.01134,0.0029 l -0.04453,-0.02227 c -0.0022,-0.002 -0.0043,-0.0041 -0.0063,-0.0063 -0.0015,5.96e-4 -0.0031,0.0011 -0.0046,0.0017 l -0.04453,-0.02226 c -5.97e-4,-0.0015 -0.0011,-0.0031 -0.0017,-0.0046 -0.0033,1.5e-4 -0.0064,1.5e-4 -0.0097,0 l -0.04117,-0.02058 -0.0029,-0.0017 -0.0034,-0.0017 c -0.0011,-0.0032 -0.0021,-0.0064 -0.0029,-0.0097 -0.0026,0.0012 -0.0053,0.0024 -0.008,0.0034 l -0.04453,-0.02227 c -0.0022,-0.0025 -0.0043,-0.0052 -0.0063,-0.008 -0.0016,6.03e-4 -0.0033,0.0011 -0.005,0.0017 l -0.04453,-0.02395 c -0.0011,-0.0015 -0.002,-0.0031 -0.0029,-0.0046 -0.0021,6.4e-5 -0.0042,6.4e-5 -0.0063,0 l -0.03193,-0.01596 -0.0029,-0.0017 -0.01302,-0.008 c -6.64e-4,-0.0026 -0.0012,-0.0053 -0.0017,-0.008 -0.0031,6.99e-4 -0.0061,0.0012 -0.0092,0.0017 l -0.04285,-0.02562 c -0.0018,-0.002 -0.0034,-0.0041 -0.005,-0.0063 -0.0021,6.25e-4 -0.0041,0.0012 -0.0063,0.0017 l -0.04285,-0.0252 c -6.64e-4,-0.0026 -0.0012,-0.0053 -0.0017,-0.008 -0.0031,6.99e-4 -0.0062,0.0012 -0.0092,0.0017 l -0.02227,-0.01302 -0.0034,-0.0017 -0.02058,-0.0126 c -6.64e-4,-0.0026 -0.0012,-0.0053 -0.0017,-0.008 -0.0026,6.64e-4 -0.0053,0.0012 -0.008,0.0017 l -0.04285,-0.02689 c -6.03e-4,-0.0016 -0.0011,-0.0033 -0.0017,-0.005 -0.0027,-3.16e-4 -0.0054,-6.95e-4 -0.008,-0.0013 l -0.02268,-0.01344 z m 1.213629,1.099786 c -0.11365,0 -0.205421,0.09135 -0.205421,0.205002 v 0.314224 c 0,0.113652 0.09177,0.205422 0.205421,0.205422 h 3.253987 c 0.113652,0 0.205002,-0.09177 0.205002,-0.205422 v -0.314224 c 0,-0.113653 -0.09135,-0.205002 -0.205002,-0.205002 z m -4.360073,0.822108 c -0.141275,0 -0.258976,0.113771 -0.254992,0.254992 l 0.0088,0.308764 c -0.0235,0.04129 -0.03697,0.08879 -0.03697,0.139888 v 0.33985 h -0.05419 c -0.156806,0 -0.283138,0.125912 -0.283138,0.282718 v 1.618592 c 0,0.156806 0.126332,0.282717 0.283138,0.282717 h 0.05419 v 3.491756 c 0,0.135193 0.09376,0.247141 0.220125,0.275577 l 0.0168,0.596522 c 0.004,0.141214 0.09522,0.254992 0.211724,0.254992 h 1.557679 c 0.116499,0 0.20816,-0.113778 0.212143,-0.254992 l 0.123926,-4.363855 h 0.167194 c 0.156806,0 0.283139,-0.125911 0.283139,-0.282717 v -1.618592 c 0,-0.156806 -0.126333,-0.282718 -0.283139,-0.282718 h -0.105021 l 0.02226,-0.788502 c 0.004,-0.141221 -0.113715,-0.254992 -0.254992,-0.254992 z m 9.998889,0 c -0.141278,0 -0.258976,0.113771 -0.254992,0.254992 l 0.02226,0.788502 h -0.105022 c -0.156805,0 -0.283138,0.125912 -0.283138,0.282718 v 1.618592 c 0,0.156806 0.126333,0.282717 0.283138,0.282717 h 0.167195 l 0.123925,4.363855 c 0.004,0.141214 0.09565,0.254992 0.212144,0.254992 h 1.557679 c 0.116499,0 0.20774,-0.113778 0.211723,-0.254992 l 0.0168,-0.596522 c 0.126362,-0.02844 0.220124,-0.140384 0.220124,-0.275577 v -3.491756 h 0.05419 c 0.156806,0 0.283138,-0.125911 0.283138,-0.282717 v -1.618592 c 0,-0.156806 -0.126332,-0.282718 -0.283138,-0.282718 h -0.05419 v -0.33985 c 0,-0.0511 -0.01347,-0.09859 -0.03697,-0.139888 l 0.0088,-0.308764 c 0.004,-0.141221 -0.113717,-0.254992 -0.254992,-0.254992 z m -6.109732,0.02226 c -0.116622,0 -0.210463,0.09426 -0.210463,0.210884 v 2.620077 c 0,0.116622 0.09384,0.210463 0.210463,0.210463 h 1.144315 l -0.0046,-2.263844 h 1.829055 v 2.263844 h 1.140534 c 0.116622,0 0.210463,-0.09384 0.210463,-0.210463 v -2.620077 c 0,-0.116623 -0.09384,-0.210884 -0.210463,-0.210884 z m -0.848574,0.592742 c -0.116622,0 -0.210463,0.09384 -0.210463,0.210463 v 2.691492 c 0,0.116623 0.09384,0.210463 0.210463,0.210463 h 0.284818 c 0.116623,0 0.210464,-0.09384 0.210464,-0.210463 V 26.62365 c 0,-0.116622 -0.09384,-0.210463 -0.210464,-0.210463 z m 5.521611,0 c -0.116622,0 -0.210463,0.09384 -0.210463,0.210463 v 2.691492 c 0,0.116623 0.09384,0.210463 0.210463,0.210463 h 0.284819 c 0.116622,0 0.210463,-0.09384 0.210463,-0.210463 V 26.62365 c 0,-0.116622 -0.09384,-0.210463 -0.210463,-0.210463 z m -3.317419,0.399502 0.0034,2.04918 h 1.395526 v -2.04918 z m -0.890163,2.158402 c -0.112306,0.0057 -0.212947,0.09823 -0.19996,0.210464 l 0.144929,1.250596 c 0.0134,0.11581 0.109042,0.210883 0.214664,0.210883 h 0.794383 l 0.02647,0.213404 c 0.01431,0.115722 0.104216,0.210463 0.199121,0.210463 h 0.819168 c 0.0949,0 0.184805,-0.09474 0.19912,-0.210463 l 0.02647,-0.213404 h 0.794383 c 0.105622,0 0.201267,-0.09507 0.214663,-0.210883 l 0.14493,-1.250596 c 0.0134,-0.11585 -0.09426,-0.210464 -0.210883,-0.210464 h -3.156946 c -0.0037,0 -0.0069,-1.82e-4 -0.0105,0 z m -5.253176,1.890808 c -0.01253,0 -0.02269,0.01016 -0.02269,0.02268 V 32.0583 c 0,0.01253 0.01016,0.02268 0.02269,0.02268 h 0.463775 c 0.01253,0 0.02268,-0.01016 0.02268,-0.02268 v -1.173721 c 0,-0.01175 -0.0092,-0.02155 -0.02058,-0.02268 -8.13e-4,-7.8e-5 -0.0013,0 -0.0021,0 z m 13.218849,0 c -0.01143,0.0011 -0.02059,0.01094 -0.02059,0.02268 V 32.0583 c 0,0.01253 0.01015,0.02268 0.02269,0.02268 h 0.463775 c 0.01253,0 0.02268,-0.01015 0.02268,-0.02268 v -1.173721 c 0,-0.01253 -0.01015,-0.02268 -0.02268,-0.02268 h -0.463775 c -7.84e-4,0 -0.0013,-7.8e-5 -0.0021,0 z m -13.054175,1.285463 c -0.156806,0 -0.282718,0.126332 -0.282718,0.283138 v 0.956536 c 0,0.156806 0.125912,0.283139 0.282718,0.283139 h 0.570056 c 0.05329,0 0.102875,-0.01493 0.14535,-0.04033 -0.05715,-0.05962 -0.09234,-0.145869 -0.09494,-0.237768 l -0.01596,-0.549473 c -0.12958,-0.05129 -0.220548,-0.17769 -0.220548,-0.325158 V 32.14735 Z m 12.971418,0 v 0.370096 c 0,0.147467 -0.09097,0.27387 -0.220545,0.325147 l -0.01596,0.549473 c -0.0026,0.0919 -0.03778,0.178144 -0.09494,0.237768 0.04247,0.0254 0.09206,0.04033 0.145349,0.04033 h 0.570058 c 0.156805,0 0.282717,-0.126333 0.282717,-0.283139 v -0.956536 c 0,-0.156806 -0.125912,-0.283138 -0.282717,-0.283138 z m -12.804644,1.766882 c -0.13811,0 -0.247011,0.09511 -0.247011,0.215925 v 1.770242 c 0,0.120811 0.108901,0.215924 0.247011,0.215924 h 0.718767 c 0.138109,0 0.247011,-0.09511 0.247011,-0.215924 v -1.770242 c 0,-0.120811 -0.108902,-0.215924 -0.247011,-0.215925 z m 12.30306,0 c -0.138108,1e-6 -0.24701,0.09511 -0.24701,0.215925 v 1.770242 c 0,0.120811 0.108902,0.215924 0.24701,0.215924 h 0.718768 c 0.138109,0 0.247011,-0.09511 0.247011,-0.215924 v -1.770242 c 0,-0.120811 -0.108902,-0.215925 -0.247011,-0.215925 z m -12.782378,0.06974 c -0.179256,0 -0.334154,0.12667 -0.323887,0.283138 l 0.304143,4.63607 c 0.01026,0.156402 0.117356,0.282717 0.24785,0.282717 h 1.222031 c 0.130494,0 0.237591,-0.126315 0.24785,-0.282717 l 0.304143,-4.63607 c 0.01026,-0.156468 -0.144629,-0.283138 -0.323887,-0.283138 H 13.11452 c 0.0235,0.04451 0.03697,0.09422 0.03697,0.14619 v 1.770242 c 0,0.1928 -0.180358,0.349092 -0.400762,0.349092 h -0.718767 c -0.220406,0 -0.399082,-0.156292 -0.399082,-0.349092 v -1.770242 c 0,-0.05197 0.01282,-0.101684 0.03613,-0.14619 z m 12.302221,0 c -0.179258,0 -0.334152,0.12667 -0.323887,0.283138 l 0.304142,4.63607 c 0.01026,0.156402 0.117356,0.282717 0.247851,0.282717 h 1.22203 c 0.130495,0 0.237591,-0.126315 0.247851,-0.282717 l 0.304143,-4.63607 c 0.01027,-0.156468 -0.144631,-0.283138 -0.323887,-0.283138 h -0.116363 c 0.02331,0.04451 0.03613,0.09422 0.03613,0.14619 v 1.770242 c 0,0.1928 -0.178676,0.349092 -0.399082,0.349092 h -0.718768 c -0.220403,0 -0.400762,-0.156292 -0.400762,-0.349092 v -1.770242 c 0,-0.05197 0.01347,-0.101681 0.03697,-0.14619 z m -12.487479,5.277944 c -0.156804,0 -0.283138,0.125913 -0.283138,0.282718 v 0.422186 c -0.01019,-0.0017 -0.02083,-0.0025 -0.03151,-0.0025 h -0.0055 c -0.104453,0 -0.188619,0.08375 -0.188619,0.188199 v 0.521326 c 0,0.104453 0.08417,0.188619 0.188619,0.188619 h 0.0055 c 0.01068,0 0.02132,-8.13e-4 0.03151,-0.0025 v 0.447392 h -0.08696 v 0.625508 h 2.744422 v -0.625508 h -0.08654 v -0.447392 c 0.01006,0.0016 0.02055,0.0025 0.03109,0.0025 h 0.0059 c 0.104453,0 0.188198,-0.08417 0.188198,-0.188619 v -0.521326 c 0,-0.104454 -0.08375,-0.188199 -0.188198,-0.188199 h -0.0059 c -0.01054,0 -0.02103,8.95e-4 -0.03109,0.0025 v -0.422186 c 0,-0.151905 -0.118472,-0.275158 -0.268435,-0.282718 -0.0048,-2.44e-4 -0.0098,0 -0.0147,0 H 13.0179 c -0.156804,0 -0.283138,0.125913 -0.283138,0.282718 v 1.762681 h -0.109223 v -1.308148 h -0.511665 v 1.308148 h -0.109222 v -1.762681 c 0,-0.156805 -0.126332,-0.282718 -0.283138,-0.282718 z m 12.331626,0 c -0.149962,0.0076 -0.268434,0.130812 -0.268434,0.282718 v 0.422186 c -0.01006,-0.0016 -0.02055,-0.0025 -0.03109,-0.0025 h -0.0059 c -0.104453,0 -0.188199,0.08375 -0.188199,0.188199 v 0.521326 c 0,0.104453 0.08375,0.188619 0.188199,0.188619 h 0.0059 c 0.01054,0 0.02103,-8.95e-4 0.03109,-0.0025 v 0.447392 h -0.08654 v 0.625508 h 2.744423 v -0.625508 h -0.08696 v -0.447392 c 0.01019,0.0017 0.02083,0.0025 0.03151,0.0025 h 0.0055 c 0.104453,0 0.188619,-0.08417 0.188619,-0.188619 v -0.521326 c 0,-0.104454 -0.08417,-0.188199 -0.188619,-0.188199 h -0.0055 c -0.01068,0 -0.02132,8.13e-4 -0.03151,0.0025 v -0.422186 c 0,-0.156806 -0.126334,-0.282718 -0.283138,-0.282718 H 25.36423 c -0.156806,0 -0.283138,0.125912 -0.283138,0.282718 v 1.762681 h -0.109223 v -1.308148 h -0.511665 v 1.308148 h -0.109222 v -1.762681 c 0,-0.156806 -0.126334,-0.282718 -0.283138,-0.282718 h -0.354133 c -0.0049,0 -0.0099,-2.44e-4 -0.0147,0 z m -11.621261,0.03613 v 0.616687 h 0.528468 v -0.616687 z m 12.401781,0 v 0.616687 h 0.528469 v -0.616687 z m -13.637254,2.774249 0.29238,2.256282 h 0.594002 v -1.41821 a 0.06707229,0.06707229 0 0 1 0.06805,-0.06637 h 1.163639 a 0.06707229,0.06707229 0 0 1 0.06847,0.06637 v 1.41821 h 0.594002 l 0.291959,-2.256282 z m 12.328686,0 0.29196,2.256282 h 0.594001 v -1.41821 a 0.06707229,0.06707229 0 0 1 0.06847,-0.06637 h 1.163638 a 0.06707229,0.06707229 0 0 1 0.06805,0.06637 v 1.41821 h 0.594002 l 0.29238,-2.256282 z m -11.307457,0.906545 v 1.349737 h 1.030471 v -1.349737 z m 12.328267,0 v 1.349737 h 1.030471 v -1.34974 z m -13.396125,0.787239 c -0.07942,0.004 -0.141989,0.06911 -0.141989,0.149551 v 0.08948 c -0.06911,0.0024 -0.123926,0.05842 -0.123926,0.128127 v 1.185902 c 0,0.07124 0.0573,0.128546 0.128547,0.128546 h 0.1004 c 0.0071,0 0.01418,-5.42e-4 0.021,-0.0017 0.0077,0.0013 0.01548,0.0017 0.02352,0.0017 h 0.159213 c 0.08304,0 0.14997,-0.06693 0.14997,-0.14997 v -0.927131 l -0.03823,-0.03445 -0.07352,-0.565436 c -0.0098,-0.0026 -0.02013,-0.0041 -0.03067,-0.0046 -0.0026,-1.28e-4 -0.005,0 -0.0076,0 h -0.159214 c -0.0026,0 -0.005,-1.29e-4 -0.0076,0 z m 2.998994,0 c -0.01296,0 -0.02541,0.0015 -0.03739,0.0046 l -0.07268,0.565436 -0.03991,0.03487 v 0.92671 c 0,0.08304 0.06693,0.14997 0.149971,0.14997 h 0.159212 c 0.0081,0 0.0158,-4.6e-4 0.02353,-0.0017 0.0068,0.0012 0.01385,0.0017 0.021,0.0017 h 0.1004 c 0.07124,0 0.128547,-0.0573 0.128547,-0.128546 v -1.185902 c 0,-0.06971 -0.05482,-0.12577 -0.123926,-0.128127 v -0.08948 c 0,-0.08044 -0.06257,-0.145567 -0.141989,-0.149551 -0.0025,-1.29e-4 -0.005,0 -0.0076,0 z m 9.329692,0 c -0.07942,0.004 -0.14199,0.06911 -0.14199,0.149551 v 0.08948 c -0.06911,0.0024 -0.123925,0.05842 -0.123925,0.128127 v 1.185902 c 0,0.07124 0.0573,0.128546 0.128547,0.128546 h 0.1004 c 0.0072,0 0.01421,-4.98e-4 0.02101,-0.0017 0.0077,0.0012 0.01546,0.0017 0.02352,0.0017 h 0.159213 c 0.08304,0 0.149971,-0.06693 0.149971,-0.14997 v -0.92671 l -0.03991,-0.03487 -0.07268,-0.565436 c -0.01198,-0.0031 -0.02443,-0.0046 -0.03739,-0.0046 h -0.159213 c -0.0026,0 -0.005,-1.29e-4 -0.0076,0 z m 2.991432,0 c -0.01054,5.29e-4 -0.02082,0.002 -0.03066,0.0046 l -0.07352,0.565436 -0.03823,0.03445 v 0.927131 c 0,0.08304 0.06693,0.14997 0.149971,0.14997 h 0.159213 c 0.008,0 0.0158,-4.07e-4 0.02352,-0.0017 0.0068,0.0011 0.01385,0.0017 0.021,0.0017 h 0.1004 c 0.07124,0 0.128547,-0.0573 0.128547,-0.128546 V 44.13323 c 0,-0.06971 -0.05482,-0.12577 -0.123925,-0.128127 v -0.08948 c 0,-0.08045 -0.06257,-0.145567 -0.141989,-0.149551 -0.0025,-1.29e-4 -0.005,0 -0.0076,0 h -0.159213 c -0.0026,0 -0.005,-1.28e-4 -0.0076,0 z m -14.955064,0.657854 v 1.035513 h 0.557034 l -0.07646,-0.656174 a 0.06707229,0.06707229 0 0 1 0.03655,-0.06847 c 0.162467,-0.08205 0.427789,-0.109425 0.698603,-0.107961 0.270816,0.0015 0.538986,0.0323 0.701544,0.106281 a 0.06707229,0.06707229 0 0 1 0.03823,0.07015 l -0.07646,0.656174 h 0.556614 v -1.035513 z m 12.328687,0 v 1.035513 H 24.046 l -0.07646,-0.656174 a 0.06707229,0.06707229 0 0 1 0.03823,-0.07015 c 0.162558,-0.07398 0.430728,-0.104818 0.701543,-0.106281 0.270814,-0.0015 0.536137,0.02591 0.698603,0.107961 a 0.06707229,0.06707229 0 0 1 0.03655,0.06847 l -0.07645,0.656174 h 0.557033 v -1.035513 z m -11.112958,0.33607 c -0.241995,-0.0013 -0.469486,0.03541 -0.595682,0.08738 l 0.131907,1.133812 h 0.932171 l 0.131487,-1.132132 c -0.131364,-0.04918 -0.358918,-0.08776 -0.599883,-0.08906 z m 12.332887,0 c -0.240965,0.0013 -0.468518,0.03987 -0.599882,0.08906 l 0.131486,1.132132 h 0.932171 l 0.131907,-1.133812 c -0.126195,-0.05197 -0.353687,-0.08868 -0.595682,-0.08738 z" /></g></svg>
