<?xml version="1.0" encoding="UTF-8" standalone="no"?>
<!-- Created with Inkscape (http://www.inkscape.org/) -->

<svg
   sodipodi:docname="SalvageMech.svg"
   inkscape:version="1.1.2 (0a00cf5339, 2022-02-04)"
   id="svg8"
   version="1.1"
   viewBox="0 0 34.98301 52.516205"
   height="52.516205mm"
   width="34.983009mm"
   xmlns:inkscape="http://www.inkscape.org/namespaces/inkscape"
   xmlns:sodipodi="http://sodipodi.sourceforge.net/DTD/sodipodi-0.dtd"
   xmlns="http://www.w3.org/2000/svg"
   xmlns:svg="http://www.w3.org/2000/svg"
   xmlns:rdf="http://www.w3.org/1999/02/22-rdf-syntax-ns#"
   xmlns:cc="http://creativecommons.org/ns#"
   xmlns:dc="http://purl.org/dc/elements/1.1/">
  <defs
     id="defs2" />
  <sodipodi:namedview
     id="base"
     pagecolor="#ffffff"
     bordercolor="#666666"
     borderopacity="1.0"
     inkscape:pageopacity="0.0"
     inkscape:pageshadow="2"
     inkscape:zoom="5.6568543"
     inkscape:cx="60.899571"
     inkscape:cy="110.39705"
     inkscape:document-units="mm"
     inkscape:current-layer="layer1"
     showgrid="false"
     inkscape:window-width="1846"
     inkscape:window-height="1016"
     inkscape:window-x="74"
     inkscape:window-y="27"
     inkscape:window-maximized="1"
     inkscape:snap-global="false"
     fit-margin-top="0"
     fit-margin-left="0"
     fit-margin-right="0"
     fit-margin-bottom="0"
     showguides="true"
     inkscape:guide-bbox="true"
     inkscape:pagecheckerboard="0" />
  <metadata
     id="metadata5">
    <rdf:RDF>
      <cc:Work
         rdf:about="">
        <dc:format>image/svg+xml</dc:format>
        <dc:type
           rdf:resource="http://purl.org/dc/dcmitype/StillImage" />
      </cc:Work>
    </rdf:RDF>
  </metadata>
  <g
     inkscape:label="Capa 1"
     inkscape:groupmode="layer"
     id="layer1"
     transform="translate(-135.48963,-99.590537)"
     style="display:inline">
    <rect
       style="opacity:1;vector-effect:none;fill:#1a1a1a;fill-opacity:1;stroke:none;stroke-width:0.1;stroke-linecap:butt;stroke-linejoin:miter;stroke-miterlimit:4;stroke-dasharray:none;stroke-dashoffset:0;stroke-opacity:1"
       id="rect860"
       width="7.0941477"
       height="0"
       x="148.86763"
       y="129.31949" />
    <g
       id="g1831"
       transform="translate(0.54280906,-0.93131917)">
      <g
         id="path1550" />
      <g
         id="path1550-3" />
    </g>
    <g
       id="rect2870" />
    <g
       id="g32216"
       transform="translate(2.1724453)">
      <path
         style="fill:none;stroke:#000000;stroke-width:0.264583;stroke-linecap:butt;stroke-linejoin:miter;stroke-miterlimit:4;stroke-dasharray:0.0661457, 0.0661457;stroke-dashoffset:0;stroke-opacity:1"
         d="m 157.2694,118.93694 c 0.23894,-0.95683 0.0286,-2.35676 1.16752,-2.78002 1.34899,-0.51714 1.99664,1.498 1.33403,2.38847"
         id="path24517" />
      <path
         id="rect9816"
         style="fill:#000000;stroke:none;stroke-width:0.12869;stroke-linecap:round;stroke-miterlimit:4;stroke-dasharray:none"
         d="m 153.35107,134.44629 c -0.16608,0.0454 -0.33414,0.41394 -0.45733,0.78393 -0.005,-0.001 -0.01,-0.002 -0.0145,-0.003 l -0.001,-5.3e-4 c -0.002,-2.7e-4 -0.005,-2.7e-4 -0.008,-5.3e-4 l -0.40824,-0.0191 c -0.0888,-0.007 -0.1624,0.0594 -0.1664,0.14831 l -0.003,0.0868 c -0.0468,0.004 -0.0865,0.0399 -0.0935,0.0884 l -0.01,0.0682 c -0.008,0.0567 0.0311,0.10878 0.0879,0.11678 l 0.005,0.001 -5.2e-4,0.0264 c -0.003,0.089 0.0648,0.16663 0.15347,0.17363 l 0.23668,0.0186 c 0.0139,0.001 0.0274,8e-4 0.0403,-0.002 -0.005,0.0376 -0.008,0.068 -0.006,0.0832 h 0.31471 l 0.15658,-0.89245 c 0.0242,-0.13793 0.15869,-0.23195 0.29662,-0.20774 l 0.27699,0.0486 c 0.13792,0.0242 0.23193,0.15817 0.20774,0.2961 l -0.13281,0.75551 h 0.17518 l 0.14211,-0.93741 c 0.0207,-0.13849 0.15042,-0.23387 0.28887,-0.21291 l 0.28009,0.0424 c 0.13848,0.0207 0.23389,0.15041 0.2129,0.28887 l -0.12402,0.81907 h 0.29972 c 0.008,-0.009 0.0148,-0.0344 0.0202,-0.0703 l 0.0186,0.002 c -0.004,0.0143 -0.005,0.0296 -0.003,0.0455 l 0.007,0.047 h 0.23719 l -0.0103,-0.076 c -2e-4,-0.001 -8e-4,-0.003 -10e-4,-0.004 0.0796,-0.005 0.14659,-0.0681 0.15502,-0.14934 l 0.003,-0.0264 h 0.005 c 0.0573,0 0.10335,-0.0461 0.10335,-0.10335 v -0.0687 c 0,-0.049 -0.0339,-0.09 -0.0796,-0.10077 l 0.009,-0.0868 c 0.009,-0.0885 -0.0548,-0.16434 -0.14366,-0.17001 l -0.23668,-0.015 c -0.003,-1.8e-4 -0.006,-5.3e-4 -0.008,-5.3e-4 -0.0132,-1.8e-4 -0.0263,0.001 -0.0388,0.004 -0.007,-0.38923 -0.0279,-0.78144 -0.0362,-0.79788 z m 1.03508,0.52917 c -0.0675,0.003 -0.12431,0.0512 -0.13487,0.12092 l -0.13953,0.92087 h 0.57671 l 0.12661,-0.8356 c 0.0117,-0.0798 -0.0397,-0.15019 -0.11938,-0.16227 l -0.28008,-0.0424 c -0.01,-0.002 -0.0198,-0.002 -0.0295,-0.002 z m -0.96066,0.0491 c -0.0675,0.002 -0.1258,0.05 -0.13798,0.11937 l -0.15296,0.87333 h 0.57877 l 0.13591,-0.77463 c 0.0137,-0.0794 -0.038,-0.15299 -0.1173,-0.16691 v -5.3e-4 l -0.27699,-0.0486 c -0.01,-0.002 -0.0198,-0.002 -0.0294,-0.002 z m -1.01751,0.89555 5.3e-4,0.11421 0.23512,0.032 v -0.11421 z m 0.001,0.17984 v 0.1142 l 0.23564,0.032 v -0.1142 z m 2.74298,0.006 0.0155,0.11317 h 0.23771 l -0.0155,-0.11317 z m -2.43706,0.0104 c 0,0 0.0108,0.99765 0.0341,1.73168 -0.0171,-0.006 -0.0353,-0.009 -0.0548,-0.009 l -0.046,5.3e-4 -5.3e-4,-0.0889 -0.23513,-0.032 5.3e-4,0.1142 0.0615,0.008 -0.0439,5.3e-4 c -0.003,-1e-4 -0.005,-1.8e-4 -0.008,0 l 5.3e-4,-5.3e-4 c -0.0852,0.005 -0.15458,0.0761 -0.15658,0.16226 l -0.002,0.0579 c -0.0498,0.01 -0.0862,0.0549 -0.0832,0.10697 l 0.004,0.0687 c 0.002,0.0439 0.0319,0.0798 0.0713,0.0925 l -0.002,0.0615 c -0.002,0.0889 0.0676,0.16016 0.15658,0.15917 l 0.37311,-0.008 c 0.003,0.0267 0.007,0.0461 0.0103,0.0574 0.0888,0.10472 0.40411,0.16847 0.40411,0.16847 0.0886,0 0.15968,0.0716 0.15968,0.1602 v 1.22938 h 0.78755 c -0.0283,-0.0292 -0.046,-0.0691 -0.046,-0.11317 v -0.25477 c 0,-0.0833 0.0624,-0.15123 0.14314,-0.16123 h -0.0109 c -0.0502,0 -0.0904,-0.0403 -0.0904,-0.0904 v -0.0847 c 0,-0.0502 0.0403,-0.0904 0.0904,-0.0904 h 0.0279 v -0.0196 c 0,-0.0913 0.0735,-0.16485 0.16485,-0.16485 h 0.76636 c 0.0913,0 0.16485,0.0736 0.16485,0.16485 v 0.0196 h 0.0279 c 0.0501,0 0.0904,0.0403 0.0904,0.0904 v 0.0847 c 0,0.0502 -0.0403,0.0904 -0.0904,0.0904 h -0.0103 c 0.0806,0.01 0.14263,0.0779 0.14263,0.16123 v 0.25477 c 0,0.044 -0.0172,0.084 -0.0455,0.11317 h 0.17674 c 0,0 -0.0772,-0.57349 -0.16795,-1.24489 l 0.24081,-0.0114 c 0.0889,-0.004 0.15464,-0.0788 0.14728,-0.16743 l -0.005,-0.0615 c 0.0386,-0.0149 0.0661,-0.0521 0.0661,-0.0961 v -0.0693 c 0,-0.0522 -0.0387,-0.0947 -0.0889,-0.1018 l -0.005,-0.0579 c -0.007,-0.0833 -0.0756,-0.14829 -0.15761,-0.15245 l -0.0181,-0.13022 h -0.23719 l 0.0191,0.14004 -0.0429,0.002 c -0.005,2.1e-4 -0.009,0.001 -0.014,0.002 -0.13863,-1.01514 -0.28359,-2.05181 -0.30385,-2.09186 h -0.30438 l 0.12919,1.71721 c 0.0105,0.13965 -0.0965,0.26183 -0.23616,0.27233 l -0.2806,0.0212 c -0.13964,0.0105 -0.26338,-0.0944 -0.27389,-0.2341 l -0.13384,-1.77663 h -0.18345 l 0.092,1.78387 c 0.007,0.13985 -0.10045,0.2594 -0.2403,0.26665 l -0.28267,0.015 c -0.13984,0.007 -0.26147,-0.10096 -0.26872,-0.24081 l -0.0946,-1.82469 z m 0.39998,0 0.0946,1.81901 c 0.004,0.0805 0.0714,0.13904 0.15193,0.13487 l 0.28267,-0.0145 c 0.0805,-0.004 0.13904,-0.0694 0.13487,-0.14986 l -0.0925,-1.78956 z m 0.97875,0 0.13281,1.76837 c 0.006,0.0803 0.0747,0.13937 0.15503,0.13332 l 0.28008,-0.0212 c 0.0803,-0.006 0.13937,-0.0747 0.13333,-0.15503 l -0.12971,-1.72548 z m -1.68413,0.1633 v 0.1142 l 0.23512,0.032 v -0.1142 z m 2.76727,0.004 0.0155,0.11317 h 0.23771 l -0.0155,-0.11317 z m -2.76676,0.17673 5.3e-4,0.11265 0.23461,0.032 v -0.11265 z m 2.79156,0.001 0.0155,0.11317 h 0.2372 l -0.0155,-0.11317 z m -2.79156,0.1788 v 0.1142 l 0.23565,0.032 v -0.11472 z m 2.81637,5.3e-4 0.0155,0.11162 h 0.23719 l -0.0155,-0.11162 z m 0.0243,0.17776 0.0155,0.11317 h 0.23771 l -0.0155,-0.11317 z m -2.84014,0.001 v 0.11421 l 0.23564,0.032 -5.2e-4,-0.11421 z m 2.86442,0.17673 0.0155,0.11317 h 0.23771 l -0.0155,-0.11317 z m -2.8639,0.003 v 0.1142 l 0.23564,0.032 v -0.1142 z m 2.88871,0.17518 0.0155,0.11317 h 0.23771 l -0.0155,-0.11317 z m -2.88871,0.004 v 0.11421 l 0.23564,0.032 v -0.1142 z m 2.913,0.17363 0.0155,0.11317 h 0.23771 l -0.0155,-0.11317 z m -2.91249,0.006 5.3e-4,0.11421 0.23513,0.032 v -0.11472 z m 2.93729,0.17157 0.0155,0.11317 h 0.23772 l -0.0155,-0.11317 z m -2.93677,0.01 5.3e-4,0.11214 0.23564,0.032 -5.3e-4,-0.11213 z m 2.96158,0.17002 0.0155,0.1111 h 0.23771 l -0.0155,-0.1111 z m 0.0248,0.17777 0.0155,0.11317 h 0.2372 l -0.0155,-0.11317 z m -0.92656,1.36064 c -0.0629,0 -0.11369,0.0513 -0.11369,0.1142 v 0.0372 h -0.0294 c -0.0571,-2e-4 -0.10337,0.0463 -0.10335,0.10335 5e-4,0.0567 0.0466,0.10202 0.10335,0.10181 h 0.0294 v 0.0636 h -0.0243 c -0.0409,0 -0.11126,0.0214 -0.13126,0.0537 0,0 -5.3e-4,5.3e-4 -5.3e-4,5.3e-4 0,0 0,5.3e-4 0,5.3e-4 -0.0127,0.0176 -0.0196,0.0383 -0.0196,0.0599 v 0.28164 c 5.8e-4,0.0478 0.0686,0.0892 0.11524,0.0997 0.0114,0.004 0.0236,0.006 0.0362,0.006 h 0.0243 v 0.0718 h -0.0258 c -0.0567,5.3e-4 -0.10252,0.0466 -0.10232,0.10336 -2e-4,0.0567 0.0455,0.10285 0.10232,0.10335 h 0.0258 v 0.0196 c 0,0.0629 0.0508,0.11318 0.11369,0.11318 h 0.70848 c 0.0629,0 0.11317,-0.0503 0.11317,-0.11318 v -0.0196 h 0.0346 c 0.0567,-5.3e-4 0.10252,-0.0466 0.10232,-0.10335 2.1e-4,-0.0567 -0.0455,-0.10286 -0.10232,-0.10336 h -0.0346 v -0.0718 h 0.0248 c 0.0629,0 0.15451,-0.0503 0.15451,-0.11318 v -0.27492 c 0,-0.0629 -0.0916,-0.11368 -0.15451,-0.11368 h -0.0248 v -0.0636 h 0.03 c 0.0567,2.1e-4 0.10286,-0.045 0.10335,-0.1018 3e-5,-0.0571 -0.0463,-0.10355 -0.10335,-0.10335 h -0.03 v -0.0372 c 0,-0.0629 -0.0503,-0.1142 -0.11317,-0.1142 z m -0.84801,1.02888 c -0.0848,0.004 -0.15193,0.0744 -0.15193,0.16019 v 0.27544 c 0,0.0886 0.0716,0.1602 0.1602,0.1602 h 2.1053 c 0.0886,0 0.1602,-0.0716 0.1602,-0.1602 v -0.27544 c 0,-0.0886 -0.0716,-0.16019 -0.1602,-0.16019 h -0.26562 c 0.002,0.008 0.004,0.017 0.004,0.0258 v 0.0847 c 0,0.0501 -0.0403,0.0899 -0.0904,0.0899 h -0.0279 v 0.007 c 0,0.0913 -0.0735,0.16485 -0.16485,0.16485 h -0.76688 c -0.0913,0 -0.16484,-0.0736 -0.16484,-0.16485 v -0.007 h -0.0279 c -0.0501,0 -0.0904,-0.0398 -0.0904,-0.0899 v -0.0847 c 0,-0.009 10e-4,-0.0178 0.004,-0.0258 h -0.51366 c -0.003,0 -0.006,-1.4e-4 -0.008,0 z m 0.0207,0.69246 c -0.11509,0 -0.20774,0.0926 -0.20774,0.20774 v 0.13281 l 0.50075,-0.0512 v 0.71055 h 0.3762 l 0.23772,-0.89452 h 1.59473 l 0.0801,0.89452 c 0.0373,-1.8e-4 0.0722,-0.0102 0.10232,-0.0274 v -0.70693 l 0.10438,0.007 v -0.0646 c 0,-0.1151 -0.0926,-0.20774 -0.20773,-0.20774 z m 1.00304,0.23048 -0.25063,0.94309 h 1.70894 l -0.0837,-0.94309 z m 1.7477,0.15813 v 0.78496 h 0.88108 l -0.17208,-0.73794 z m -2.54506,0.008 -1.1896,0.12092 -0.1173,0.65629 h 1.3069 z" />
      <path
         id="rect10609"
         style="fill:#000000;stroke-width:0.167;stroke-linecap:round;stop-color:#000000"
         d="m 146.93131,124.68565 c -0.46856,0.002 -0.98197,0.0228 -1.16117,0.10025 -0.0219,0.049 -0.0325,0.80389 -0.0258,1.33635 0.77164,-0.007 1.63523,0.0464 1.77891,0.12598 v 0.70825 l 0.11098,-0.006 0.002,-0.83259 c 10e-5,-0.0541 0.0355,-0.093 0.0896,-0.093 h 0.0731 l 0.0248,-1.32291 c 0,0 -0.42338,-0.0177 -0.89194,-0.016 z"
         sodipodi:nodetypes="scccccssccss" />
      <path
         id="rect8949"
         style="fill:#000000;stroke:none;stroke-width:0.167;stroke-linecap:round;stroke-miterlimit:4;stroke-dasharray:none;stop-color:#000000"
         d="m 147.523,126.91807 v 1.63762 h 0.0326 c 0.128,0 0.23099,0.103 0.23099,0.231 v 0.32504 h 3.30006 v -1.71772 h -0.12144 c -0.0106,-0.15922 -0.0205,-0.31751 -0.03,-0.47594 h -0.0997 v 0.3054 c 0,0.0597 -0.045,0.10801 -0.10128,0.10801 h -2.99982 c -0.0563,0 -0.10129,-0.0483 -0.10129,-0.10801 v -0.3054 z m 1.54151,0.48937 c 0.53542,-10e-4 1.13641,0.0129 1.19631,0.0341 0.0378,0.0195 0.0366,0.76286 0,0.80563 -0.0442,0.0317 -1.97495,0.023 -2.04122,0 -0.0325,-0.0278 -0.0464,-0.72177 0,-0.80563 0.0517,-0.0228 0.42848,-0.0332 0.84491,-0.0341 z" />
      <path
         id="rect3793"
         style="stroke-width:0.06766;stroke-linecap:round;stop-color:#000000"
         d="m 151.4499,127.41468 c -0.13834,0 -0.2496,0.11126 -0.2496,0.2496 v 1.2702 c 0,0.13834 0.11126,0.2496 0.2496,0.2496 h 2.63188 c 0.13834,0 0.24959,-0.11126 0.24959,-0.2496 v -1.2702 c 0,-0.13834 -0.11125,-0.2496 -0.24959,-0.2496 z m 1.32705,0.20825 h 5.3e-4 c 0.305,1e-5 0.607,0.002 0.83922,0.006 0.11618,0.002 0.21462,0.005 0.28732,0.008 0.0363,0.002 0.0671,0.004 0.0899,0.006 0.0228,0.002 0.0327,2.6e-4 0.0527,0.008 l 0.01,0.004 0.006,0.008 c 0.0247,0.0272 0.0328,0.0602 0.0408,0.10335 0.009,0.0431 0.0136,0.0947 0.0176,0.15452 0.007,0.1195 0.007,0.26617 0.002,0.41186 -0.005,0.14569 -0.0143,0.29092 -0.0233,0.40256 -0.005,0.0558 -0.009,0.10219 -0.014,0.13849 -0.002,0.0182 -0.006,0.0346 -0.008,0.047 -0.002,0.0124 -0.002,0.0203 -0.008,0.0331 l -0.0114,0.0238 h -2.59777 l -0.008,-0.004 c -0.0215,-0.009 -0.0308,-0.024 -0.0388,-0.0393 -0.008,-0.0153 -0.0146,-0.0329 -0.0196,-0.0527 -0.0101,-0.0395 -0.0183,-0.0897 -0.0233,-0.14831 -0.011,-0.11725 -0.0139,-0.26744 -0.0119,-0.41807 0.002,-0.15063 0.01,-0.30054 0.0217,-0.41806 0.006,-0.0587 0.0132,-0.10931 0.0212,-0.14831 0.004,-0.0196 0.009,-0.0361 0.0139,-0.0506 0.006,-0.0145 0.0101,-0.0278 0.0289,-0.0413 l 0.006,-0.006 0.01,-0.002 c 0.0301,-0.007 0.0794,-0.009 0.15865,-0.0119 0.0793,-0.003 0.18371,-0.006 0.30437,-0.008 0.24118,-0.004 0.54818,-0.006 0.85318,-0.006 z m -0.11369,0.0822 c -0.26609,7.9e-4 -0.52693,0.004 -0.73742,0.008 -0.12028,0.002 -0.22463,0.005 -0.30283,0.008 -0.0697,0.003 -0.11107,0.006 -0.12867,0.008 -0.003,0.008 -0.007,0.021 -0.01,0.0372 -0.007,0.034 -0.0136,0.082 -0.0196,0.13901 -0.0115,0.11395 -0.0197,0.26332 -0.0217,0.41186 -0.002,0.14853 0.001,0.296 0.0119,0.40824 0.005,0.0561 0.0116,0.10494 0.0196,0.13694 0.004,0.0151 0.0104,0.024 0.0134,0.031 h 2.50992 c 0.002,-0.009 0.002,-0.0171 0.004,-0.0295 0.005,-0.0344 0.008,-0.0814 0.0134,-0.13642 0.009,-0.11002 0.0183,-0.25276 0.0233,-0.39688 0.005,-0.14412 0.005,-0.28899 -0.002,-0.40411 -0.003,-0.0575 -0.008,-0.10739 -0.0155,-0.14469 -0.006,-0.0315 -0.0125,-0.0478 -0.0155,-0.0548 -0.005,-10e-4 -0.007,-5.3e-4 -0.0196,-0.002 -0.0208,-0.002 -0.048,-0.002 -0.0837,-0.004 -0.0713,-0.003 -0.16949,-0.006 -0.28525,-0.008 -0.23153,-0.004 -0.53495,-0.008 -0.83974,-0.008 -0.0381,0 -0.0762,-1.1e-4 -0.11421,0 z m -1.10071,0.12867 h 2.33216 v 0.0646 h -2.33216 z m 0,0.21911 h 2.33216 v 0.0646 h -2.33216 z m 0,0.21653 h 2.33216 v 0.0667 h -2.33216 z m 0,0.2191 h 2.33216 v 0.0641 h -2.33216 z m 0,0.2186 h 2.33216 v 0.0641 h -2.33216 z" />
      <path
         id="rect9594"
         style="fill:#000000;stroke-width:0.167;stroke-linecap:round;stop-color:#000000"
         d="m 147.99119,125.09286 c 0.006,0.0486 0.0477,0.0842 0.10232,0.0842 h 0.14418 c -0.0141,-0.026 -0.0221,-0.0544 -0.0248,-0.0842 z m 0.38603,0 c 0.011,0.048 0.0551,0.0822 0.1111,0.0822 h 1.4366 c 0.056,0 0.10015,-0.0342 0.11111,-0.0822 z m 1.82314,0 c -0.003,0.0298 -0.011,0.0582 -0.0243,0.0842 h 0.14418 c 0.0546,0 0.0965,-0.0357 0.10232,-0.0842 z m 0.40411,0 c -0.007,0.13879 -0.13256,0.25011 -0.28422,0.25011 h -2.22674 c -0.0894,0 -0.17021,-0.0385 -0.22272,-0.0987 v 0.78238 h 0.53123 v -0.22014 h 1.66812 v 0.22014 h 0.70486 c 0.0577,0 0.10439,0.0436 0.10439,0.0977 v 0.21084 h 0.0512 l -0.0578,-1.24639 z m -2.01176,1.07021 c -0.14903,0 -0.28157,0.0676 -0.36432,0.17209 h 0.11679 c 0.065,-0.0559 0.15164,-0.0899 0.24753,-0.0899 0.0959,0 0.18303,0.034 0.24856,0.0899 h 0.11575 c -0.0828,-0.10451 -0.21528,-0.17209 -0.36431,-0.17209 z m 1.28261,0 c -0.14412,0.004 -0.27192,0.0703 -0.35244,0.17209 h 0.11576 c 0.0631,-0.0537 0.14657,-0.0874 0.23823,-0.0899 h 0.001 c 0.003,-4e-5 0.007,0 0.009,0 0.0959,0 0.18251,0.034 0.24753,0.0899 h 0.11679 c -0.0828,-0.10451 -0.21529,-0.17209 -0.36432,-0.17209 -0.004,0 -0.008,-7e-5 -0.0114,0 z"
         sodipodi:nodetypes="csccccssccccscccssccccccssccccsccsccscccccsccscc" />
      <path
         id="rect1009"
         style="fill:#000000;stroke-width:1.865;stroke-linecap:round;stop-color:#000000"
         d="m 148.48935,125.90159 v 0.22014 h -0.69039 c -0.0541,0 -0.0972,0.0436 -0.0972,0.0977 v 0.92966 c 0,0.0541 0.0431,0.0977 0.0972,0.0977 h 2.88199 c 0.0541,0 0.0977,-0.0436 0.0977,-0.0977 v -0.92966 c 0,-0.0541 -0.0436,-0.0977 -0.0977,-0.0977 h -0.68988 v -0.22014 z m 0.14315,0.35657 c 0.23475,0 0.42581,0.19107 0.42581,0.42581 0,0.23475 -0.19106,0.42582 -0.42581,0.42582 -0.23474,0 -0.42582,-0.19107 -0.42582,-0.42582 0,-0.23474 0.19108,-0.42581 0.42582,-0.42581 z m 1.20406,0 c 0.004,-9e-5 0.007,0 0.0109,0 0.23474,0 0.42581,0.19107 0.42581,0.42581 0,0.23475 -0.19107,0.42582 -0.42581,0.42582 -0.23475,0 -0.42581,-0.19107 -0.42581,-0.42582 0,-0.23107 0.18526,-0.41997 0.41496,-0.42581 z m -1.20406,0.0822 c -0.19093,0 -0.34365,0.15272 -0.34365,0.34365 0,0.19094 0.15272,0.34572 0.34365,0.34572 0.19093,0 0.34571,-0.15478 0.34571,-0.34572 0,-0.19093 -0.15478,-0.34365 -0.34571,-0.34365 z m 1.20612,0 c -0.1868,0.005 -0.33693,0.15571 -0.33693,0.34365 0,0.19094 0.15479,0.34572 0.34572,0.34572 0.19093,0 0.34365,-0.15478 0.34365,-0.34572 0,-0.19093 -0.15272,-0.34365 -0.34365,-0.34365 -0.003,0 -0.006,-7e-5 -0.009,0 z"
         sodipodi:nodetypes="ccsssssssscccssssssssssssssssssssssss" />
      <path
         id="rect1113"
         style="fill:#000000;stroke-width:1.865;stroke-linecap:round;stop-color:#000000"
         d="m 149.24435,122.50645 c -0.4524,0.001 -0.90694,0.0229 -1.01235,0.062 v 0.26355 h -0.68367 v 0.56276 h 0.39687 v 1.61695 c 0,0.14403 0.11952,0.26149 0.26355,0.26149 h 2.05879 c 0.14403,0 0.26355,-0.11746 0.26355,-0.26149 v -1.61695 h 0.39687 V 122.832 h -0.68419 v -0.26355 c -0.0968,-0.0433 -0.54703,-0.0631 -0.99942,-0.062 z m -1.1312,0.88832 h 0.20515 v 1.60507 c 0,0.0382 0.008,0.0748 0.0238,0.10749 h -0.13332 c -0.0544,0 -0.0956,-0.0412 -0.0956,-0.0956 z m 0.35553,0 h 1.53893 v 1.60507 c 0,0.0599 -0.0455,0.10542 -0.10542,0.10542 h -1.32809 c -0.0599,0 -0.10542,-0.0456 -0.10542,-0.10542 z m 1.68931,0 h 0.20515 v 1.61695 c 0,0.0544 -0.0412,0.0956 -0.0956,0.0956 h -0.13333 c 0.0154,-0.0327 0.0238,-0.0693 0.0238,-0.10749 z" />
      <path
         id="rect1868"
         style="stroke-width:0.1;stroke-linecap:round;stop-color:#000000"
         d="m 149.25106,130.73851 c -1.03576,0.001 -1.97054,0.0119 -2.04845,0.0362 -0.0948,0.10122 -0.20633,2.18296 -0.14263,2.35541 h 1.11415 l -0.031,-0.11575 0.25425,-1.44953 h 2.54093 l 0.25476,1.44953 -0.031,0.11575 h 1.12448 c 0.0429,-0.20064 -0.0488,-2.12586 -0.14625,-2.35541 -0.0588,-0.0236 -1.55753,-0.0378 -2.88923,-0.0362 z m -2.17661,2.49545 0.18914,1.07952 c 0.13335,0.0523 4.72744,0.062 4.80849,0 l 0.18914,-1.07952 h -1.12655 l -0.19637,0.73484 h -2.54093 l -0.19585,-0.73484 z" />
      <path
         id="rect2378"
         style="fill:#000000;stroke-width:0.0850098;stroke-linecap:round;stop-color:#000000"
         d="m 148.59942,131.77772 -0.0444,0.25373 h 2.24896 l -0.0444,-0.25373 z m -0.0734,0.41755 -0.0372,0.2129 h 2.38125 l -0.0372,-0.2129 z m -0.0661,0.37723 -0.0377,0.21291 h 2.51458 l -0.0377,-0.21291 z m -0.0667,0.37879 -0.0103,0.0584 0.0408,0.15245 h 2.51148 l 0.0408,-0.15245 -0.0103,-0.0584 z m 0.0744,0.37672 0.0568,0.21291 h 2.30994 l 0.0568,-0.21291 z m 0.10077,0.37724 0.031,0.11576 h 2.16008 l 0.031,-0.11576 z" />
      <path
         style="color:#000000;fill:#ffffff;stroke-width:0.065;-inkscape-stroke:none"
         d="m 151.56265,127.86652 h 2.33223"
         id="path7561" />
      <path
         style="color:#000000;fill:#ffffff;stroke-width:0.065;-inkscape-stroke:none"
         d="m 151.56265,128.08474 h 2.33223"
         id="path7567" />
      <path
         style="color:#000000;fill:#ffffff;stroke-width:0.065;-inkscape-stroke:none"
         d="m 151.56265,128.30295 h 2.33223"
         id="path7573" />
      <path
         style="color:#000000;fill:#ffffff;stroke-width:0.065;-inkscape-stroke:none"
         d="m 151.56265,128.73938 h 2.33223"
         id="path7585" />
      <path
         style="color:#000000;fill:#ffffff;stroke-width:0.065;-inkscape-stroke:none"
         d="m 151.56265,128.52116 h 2.33223"
         id="path7579" />
      <path
         id="rect4153"
         style="fill:#000000;stroke:none;stroke-width:0.0649999;stroke-linecap:round;stroke-miterlimit:4;stroke-dasharray:none;stroke-opacity:1;stop-color:#000000"
         d="m 153.81616,124.79933 c -0.0953,0.001 -0.18838,0.0115 -0.20826,0.0279 l 0.42065,1.90479 h -1.01544 l -0.22324,-1.74511 c -0.0616,-0.041 -0.37843,-0.0362 -0.42944,0 l 0.22325,1.74511 h -1.01545 l -0.1173,-1.82934 c -0.0523,-0.0285 -0.39352,-0.02 -0.42943,0 0.0242,0.81065 0.0634,1.61439 0.11782,2.43034 h 3.31918 c 0.0575,-0.22302 0.0331,-0.40067 0.0331,-0.601 0.0349,-0.0738 -0.45372,-1.90479 -0.45372,-1.90479 -0.0289,-0.0209 -0.12641,-0.029 -0.22169,-0.0279 z m -2.27015,0.48421 0.0749,1.34824 h 0.88781 l -0.19844,-1.34824 z m 1.36323,0 0.19275,1.34824 h 0.81287 l -0.293,-1.34824 z" />
      <path
         id="rect1423"
         style="stroke-width:0.0708841;stroke-linecap:round;stop-color:#000000"
         d="m 147.47277,130.05208 c 0.75747,-0.2223 3.71414,-0.18525 4.39014,0 v 0.60623 h -4.39014 z"
         sodipodi:nodetypes="ccccc" />
      <path
         id="rect1776"
         style="stroke-width:0.0649999;stroke-linecap:round;stop-color:#000000"
         d="m 148.28598,127.48219 c 0.1105,-0.0468 1.80886,-0.0338 1.90842,0 0.0353,0.0175 0.0342,0.68431 0,0.72267 -0.0413,0.0284 -1.84646,0.0207 -1.90842,0 -0.0304,-0.025 -0.0434,-0.64745 0,-0.72267 z"
         sodipodi:nodetypes="ccccc" />
      <path
         id="rect3406"
         style="stroke-width:0.0688332;stroke-linecap:round;stop-color:#000000"
         d="m 152.58626,124.2557 c -0.6493,-0.003 -1.31286,0.0643 -1.51722,0.15348 v 0.43925 c 0.12893,-0.0122 0.43165,-0.013 0.47439,0.0103 l 0.0232,0.31264 h 0.7457 l -0.031,-0.22841 c 0.051,-0.0362 0.52389,-0.041 0.58549,0 l 0.031,0.22841 h 0.68626 l -0.0873,-0.38809 c 0.0199,-0.0164 0.21579,-0.0279 0.31109,-0.0279 0.0138,0 0.029,-3.2e-4 0.045,0 v -0.34623 c -0.26504,-0.10765 -0.76158,-0.15153 -1.26659,-0.15348 z" />
      <path
         id="path6091"
         style="color:#000000;fill:#000000;stroke-width:0.264583px;-inkscape-stroke:none"
         d="m 158.8882,118.42918 c -0.035,9.8e-4 -0.0733,0.0107 -0.1049,0.031 -0.0148,0.007 -0.22806,0.11271 -0.47646,0.22737 -0.12856,0.0593 -0.26397,0.11965 -0.3793,0.16795 -0.11532,0.0483 -0.21837,0.0851 -0.25012,0.092 l -0.006,0.002 -0.008,0.002 c -0.022,0.007 -0.0998,0.0162 -0.1912,0.0139 -0.0914,-0.002 -0.19989,-0.0114 -0.30076,-0.0232 -0.20173,-0.0237 -0.37672,-0.0569 -0.37672,-0.0569 l -0.0393,-0.008 -0.15813,0.0662 c -0.0238,0.009 -0.0378,0.019 -0.0548,0.0294 -0.0199,0.0123 -0.0413,0.0264 -0.0682,0.045 -0.0537,0.0371 -0.12288,0.0875 -0.20723,0.15038 -0.16871,0.12572 -0.39575,0.30031 -0.66197,0.50746 -0.53244,0.41431 -1.22163,0.95966 -1.90273,1.50224 -1.36218,1.08517 -2.69492,2.16007 -2.69492,2.16007 l -0.0196,0.0155 -0.0119,0.0196 c -0.11163,0.1812 -0.0806,0.38695 -0.0387,0.54105 0.0419,0.1541 0.10542,0.2713 0.10542,0.2713 l 0.0114,0.0217 0.0196,0.0155 c 0.0548,0.0466 0.0737,0.0377 0.10181,0.0429 0.0106,0.002 0.0219,0.003 0.0336,0.005 0.32916,-0.06 0.85829,-0.0999 1.38027,-0.0977 h 5.3e-4 c 0.31902,0.001 0.63333,0.0185 0.89814,0.0553 0.13559,-0.0316 0.41607,-0.0976 0.7028,-0.17105 0.19806,-0.0508 0.39651,-0.1047 0.55087,-0.15245 0.0772,-0.0239 0.14316,-0.0447 0.19534,-0.0661 0.0261,-0.0107 0.0477,-0.0222 0.0703,-0.0357 0.019,-0.0113 0.0463,-0.0136 0.0692,-0.0625 l 3.76463,-3.91552 0.44132,-0.5333 0.006,-0.006 c 0.0626,-0.0962 0.0649,-0.20728 0.047,-0.30645 -0.0179,-0.0992 -0.0583,-0.19435 -0.10748,-0.2775 -0.0493,-0.0831 -0.10653,-0.15465 -0.17415,-0.20722 -0.0338,-0.0263 -0.0693,-0.0493 -0.11886,-0.0605 l 5.3e-4,5.3e-4 c -0.0124,-0.003 -0.0263,-0.005 -0.0408,-0.005 -0.002,-2e-5 -0.004,-7e-5 -0.007,0 z m -0.17518,0.27182 c 0.21171,0 0.38447,0.17535 0.38447,0.38705 0,0.21171 -0.17276,0.38448 -0.38447,0.38448 -0.2117,0 -0.38499,-0.17277 -0.38499,-0.38448 0,-0.2117 0.17329,-0.38705 0.38499,-0.38705 z m 0,0.15244 c -0.1301,0 -0.23461,0.10451 -0.23461,0.23461 0,0.1301 0.10451,0.23203 0.23461,0.23203 0.1301,0 0.23409,-0.10193 0.23409,-0.23203 0,-0.1301 -0.10399,-0.23461 -0.23409,-0.23461 z m -0.87023,0.48318 c 0.002,-7e-5 0.003,1e-5 0.005,0 0.0105,-5e-5 0.0204,0.001 0.0294,0.003 l 5.3e-4,5.3e-4 c 0.0362,0.008 0.0632,0.0258 0.0879,0.045 0.0494,0.0383 0.0912,0.0897 0.12713,0.15038 0.0359,0.0606 0.065,0.12872 0.078,0.20102 0.0131,0.0723 0.0105,0.15459 -0.0351,0.22479 l -0.004,0.004 -0.32246,0.38912 -2.75384,2.86494 -0.006,0.006 c -0.004,0.004 -0.007,0.008 -0.01,0.0114 -0.01,0.009 -0.0194,0.0146 -0.0274,0.0196 -0.0165,0.01 -0.0316,0.0173 -0.0506,0.0253 -0.0381,0.0156 -0.0863,0.0317 -0.14262,0.0491 -0.11259,0.0348 -0.25809,0.0741 -0.40256,0.11111 -0.28896,0.0741 -0.57413,0.13849 -0.57413,0.13849 l -0.01,0.002 -0.008,0.002 c 0,0 -0.38849,0.0137 -0.78496,0.0217 -0.19823,0.004 -0.39814,0.007 -0.55501,0.004 -0.0784,-0.001 -0.14635,-0.004 -0.19895,-0.008 -0.0264,-0.002 -0.0477,-0.004 -0.0682,-0.008 -0.0205,-0.004 -0.0344,0.002 -0.0744,-0.0315 l -0.0135,-0.0114 -0.0103,-0.016 c 0,0 -0.0454,-0.0845 -0.076,-0.19689 -0.0306,-0.11241 -0.0525,-0.2647 0.0289,-0.39687 l 0.008,-0.0134 0.0134,-0.01 c 0,0 0.97315,-0.78508 1.9668,-1.57665 0.49682,-0.39579 0.99861,-0.79332 1.387,-1.09554 0.19419,-0.1511 0.35907,-0.27933 0.48214,-0.37103 0.0615,-0.0459 0.11334,-0.0825 0.15244,-0.10956 0.0196,-0.0135 0.0367,-0.0241 0.0512,-0.0331 0.0145,-0.009 0.0217,-0.0153 0.0465,-0.0233 l 0.10749,-0.045 0.0274,0.004 c 0,0 0.13034,0.0235 0.2775,0.0408 0.0736,0.009 0.14982,0.0156 0.21652,0.0176 0.0667,0.001 0.12446,-0.005 0.14056,-0.01 l 0.006,-0.002 h 0.004 c 0.0232,-0.005 0.0973,-0.033 0.18139,-0.0682 0.0841,-0.0352 0.1837,-0.0781 0.2775,-0.12144 0.18755,-0.0865 0.35553,-0.17001 0.35553,-0.17001 l -0.005,0.004 c 0.0226,-0.0139 0.0493,-0.0213 0.0739,-0.0222 z m 0.001,0.19844 c -0.0123,0.006 -0.16247,0.0794 -0.3452,0.16381 -0.095,0.0439 -0.19393,0.0904 -0.28163,0.12712 -0.086,0.036 -0.15559,0.061 -0.21239,0.0739 l -0.004,0.002 c -0.0603,0.0179 -0.12294,0.0196 -0.19534,0.0176 -0.0761,-0.002 -0.15937,-0.0101 -0.23667,-0.0191 -0.13889,-0.0164 -0.23612,-0.0353 -0.25942,-0.0393 l -0.0625,0.0274 -0.004,0.002 -0.004,0.002 c 0.004,-10e-4 0.006,-0.002 0.007,-0.002 -0.001,7.7e-4 -0.006,0.003 -0.0109,0.006 -0.01,0.006 -0.0255,0.015 -0.0434,0.0274 -0.0358,0.0248 -0.0857,0.0624 -0.14624,0.10749 -0.12104,0.0902 -0.2849,0.21675 -0.47853,0.36742 -0.38727,0.30134 -0.88995,0.69791 -1.38647,1.09347 -0.98211,0.78239 -1.92245,1.54157 -1.94355,1.55857 -0.0322,0.0583 -0.0315,0.15137 -0.008,0.23667 0.0183,0.0671 0.0358,0.0943 0.047,0.11679 0.009,10e-4 0.0135,0.003 0.0253,0.004 0.0451,0.004 0.11139,0.007 0.18759,0.008 0.15242,0.002 0.34971,-1.4e-4 0.54674,-0.004 0.38814,-0.008 0.75867,-0.0213 0.76997,-0.0217 0.006,-0.001 0.27946,-0.064 0.56224,-0.13643 0.14289,-0.0366 0.28808,-0.0745 0.39481,-0.10749 0.0534,-0.0166 0.0964,-0.0319 0.12454,-0.0434 0.0113,-0.005 0.0177,-0.009 0.0217,-0.0114 l 2.7559,-2.86701 0.30851,-0.37311 c 0.008,-0.0142 0.0132,-0.0399 0.006,-0.0801 -0.008,-0.0422 -0.0266,-0.0949 -0.0527,-0.13901 -0.0261,-0.0441 -0.0597,-0.0797 -0.0801,-0.0956 -0.002,-10e-4 -5.5e-4,-10e-4 -0.002,-0.002 z" />
      <path
         id="rect6931"
         style="fill:#000000;stroke:none;stroke-width:0.194616;stroke-linecap:round;stroke-miterlimit:4;stroke-dasharray:none;stop-color:#000000"
         d="m 144.13303,128.65285 c -0.12241,0.006 -0.21911,0.10699 -0.21911,0.23099 v 0.69091 c 0,0.128 0.103,0.231 0.231,0.231 h 3.30212 c 0.0938,0 0.17405,-0.0555 0.21032,-0.1354 h 5.59966 c 0.0308,-0.0338 0.0511,-0.35792 0,-0.39325 h -5.57899 v -0.39326 c 0,-0.128 -0.10299,-0.23099 -0.23099,-0.23099 h -3.30212 c -0.004,0 -0.008,-2e-4 -0.0119,0 z"
         sodipodi:nodetypes="cssssccccsssc" />
      <path
         id="rect10123"
         style="stroke-width:0.167;stroke-linecap:round;stop-color:#000000"
         d="m 144.2894,126.36026 c 0.57554,-0.19265 2.83781,-0.1383 3.0875,0 v 2.12317 h -3.0875 z"
         sodipodi:nodetypes="ccccc" />
      <path
         id="rect11637"
         style="stroke-width:0.167;stroke-linecap:round;stop-color:#000000"
         d="m 146.96096,124.18101 c -0.005,0.0104 -0.009,0.036 -0.0119,0.0698 h -0.0109 c -0.0258,0 -0.047,0.0207 -0.047,0.0465 v 0.0191 c 0,0.0258 0.0212,0.0465 0.047,0.0465 h 0.005 c -0.003,0.11556 0.002,0.2431 0.0176,0.25063 h 0.86248 v -0.43253 z" />
      <path
         id="rect12068"
         style="stroke-width:0.183439;stroke-linecap:round;stop-color:#000000"
         d="m 147.30673,123.94312 c 0,0 0.28725,-0.0726 0.51651,-0.0803 v 0.26994 h -0.61342 c 0,0 0.04,-0.17811 0.0969,-0.18962 z"
         sodipodi:nodetypes="ccccc" />
      <path
         id="rect12430"
         style="stroke-width:0.167;stroke-linecap:round;stop-color:#000000"
         d="m 150.60007,123.46621 0.12537,-4.4e-4 0.13328,1.56008 -0.25535,3.8e-4 z"
         sodipodi:nodetypes="ccccc" />
      <path
         id="rect12928"
         style="stroke-width:0.167;stroke-linecap:round;stop-color:#000000"
         d="m 145.13865,123.74617 c -0.18661,0.002 -0.37426,0.033 -0.4749,0.0966 v 0.51728 a 0.22952182,0.22952182 0 0 1 0.20154,0.2279 0.22952182,0.22952182 0 0 1 -0.20154,0.22582 v 0.23306 a 0.22952182,0.22952182 0 0 1 0.20154,0.2279 0.22952182,0.22952182 0 0 1 -0.20154,0.22582 v 0.6749 c 0.28004,-0.0274 0.62703,-0.0397 0.97616,-0.0408 v -0.63407 a 0.22952182,0.22952182 0 0 1 -0.20153,-0.22582 0.22952182,0.22952182 0 0 1 0.20153,-0.22583 v -0.23513 a 0.22952182,0.22952182 0 0 1 -0.20153,-0.22582 0.22952182,0.22952182 0 0 1 0.20153,-0.22583 v -0.51935 c -0.0797,-0.0643 -0.28976,-0.099 -0.50126,-0.0966 z m 0.0129,0.31833 a 0.22952181,0.22952181 0 0 1 0.22996,0.22996 0.22952181,0.22952181 0 0 1 -0.22996,0.22944 0.22952181,0.22952181 0 0 1 -0.22944,-0.22944 0.22952181,0.22952181 0 0 1 0.22944,-0.22996 z m 0,0.63458 a 0.22952181,0.22952181 0 0 1 0.22996,0.22944 0.22952181,0.22952181 0 0 1 -0.22996,0.22945 0.22952181,0.22952181 0 0 1 -0.22944,-0.22945 0.22952181,0.22952181 0 0 1 0.22944,-0.22944 z m 0,0.63459 a 0.22952181,0.22952181 0 0 1 0.22996,0.22944 0.22952181,0.22952181 0 0 1 -0.22996,0.22944 0.22952181,0.22952181 0 0 1 -0.22944,-0.22944 0.22952181,0.22952181 0 0 1 0.22944,-0.22944 z" />
      <path
         id="rect14079"
         style="stroke-width:0.167;stroke-linecap:round;stop-color:#000000"
         d="m 144.89156,122.67976 c 0.0795,-0.0842 0.49903,-0.0759 0.59377,0 v 1.0157 c -0.13701,-0.0357 -0.49518,-0.0365 -0.59377,0 z"
         sodipodi:nodetypes="ccccc" />
      <path
         id="rect207"
         style="fill:#000000;stroke-width:0.282937"
         d="m 152.23178,130.98823 c 0.0847,0.49356 0.15407,2.04803 0.11575,2.22725 l -0.0253,0.10387 -0.14831,0.84543 h 0.37827 c 0.30147,-0.65948 0.21747,-2.55184 0,-3.17655 z"
         sodipodi:nodetypes="ccccccc" />
      <path
         id="rect207-5"
         style="display:inline;fill:#000000;stroke-width:0.282937"
         d="m 147.06177,130.98823 c -0.0847,0.49356 -0.0988,2.04803 -0.0605,2.22725 l 0.0253,0.10387 0.14831,0.84543 h -0.37827 c -0.30147,-0.65948 -0.21747,-2.55184 0,-3.17655 z"
         sodipodi:nodetypes="ccccccc" />
      <path
         id="rect1330"
         style="stroke-width:0.264583"
         d="m 154.26058,130.29409 c -0.33753,0.002 -0.66256,0.0212 -0.8046,0.0579 v 0.18345 h -0.38861 c 0.0205,0.0654 0.0406,0.37263 0.0558,0.78083 h -0.68523 v 2.50269 h 0.69091 c -0.0132,0.24282 -0.0329,0.41389 -0.0615,0.45527 h 2.4045 c 0.15676,-0.20966 0.24161,-0.72626 0.26665,-1.31827 h 0.13074 c 0.10807,-0.10228 0.10668,-0.36173 0,-0.46767 h -0.12402 c -4.5e-4,-0.0552 -1.8e-4,-0.11009 -0.002,-0.16536 h 0.0951 c 0.10807,-0.10228 0.10668,-0.36173 0,-0.46768 h -0.1173 c -0.003,-0.0439 -0.007,-0.0881 -0.0103,-0.13125 h 0.0729 c 0.10807,-0.10228 0.10668,-0.36174 0,-0.46768 h -0.12713 c -0.0459,-0.30312 -0.10791,-0.55863 -0.185,-0.72088 h -0.26355 v -0.18345 c -0.15669,-0.0379 -0.51906,-0.0576 -0.88005,-0.0579 -0.0226,-2e-5 -0.0452,-1.3e-4 -0.0677,0 z m -0.46199,0.54519 h 1.22835 c 0.13996,1e-5 0.2558,0.11377 0.2558,0.25373 v 0.24339 c 0,0.13994 -0.11584,0.2558 -0.2558,0.2558 h -1.22835 c -0.13996,0 -0.25425,-0.11586 -0.25425,-0.2558 v -0.24339 c 0,-0.13996 0.11429,-0.25373 0.25425,-0.25373 z m 0,0.16433 c -0.0514,0 -0.0899,0.038 -0.0899,0.0894 v 0.24288 c 0,0.0514 0.0385,0.0899 0.0899,0.0899 h 1.22835 c 0.0514,0 0.0899,-0.0385 0.0899,-0.0899 v -0.24288 c 0,-0.0514 -0.0385,-0.0894 -0.0899,-0.0894 z m 0.12299,0.96325 h 1.22835 c 0.13996,1e-5 0.2558,0.11377 0.2558,0.25373 v 0.36638 c 0,0.13995 -0.11584,0.2558 -0.2558,0.2558 h -1.22835 c -0.13996,0 -0.25425,-0.11585 -0.25425,-0.2558 v -0.36638 c 0,-0.13996 0.11429,-0.25373 0.25425,-0.25373 z m 0,0.16381 c -0.0514,0 -0.0899,0.0385 -0.0899,0.0899 v 0.36638 c 0,0.0514 0.0385,0.0894 0.0899,0.0894 h 1.22835 c 0.0514,0 0.0899,-0.038 0.0899,-0.0894 v -0.36638 c 0,-0.0514 -0.0385,-0.0899 -0.0899,-0.0899 z m -0.13126,1.0852 h 1.22887 c 0.13996,1e-5 0.2558,0.11377 0.2558,0.25374 v 0.27957 c 0,0.13994 -0.11584,0.25579 -0.2558,0.25579 h -1.22887 c -0.13996,0 -0.25373,-0.11585 -0.25373,-0.25579 v -0.27957 c 0,-0.13997 0.11377,-0.25374 0.25373,-0.25374 z m 0,0.16433 c -0.0514,0 -0.0894,0.038 -0.0894,0.0894 v 0.27957 c 0,0.0514 0.038,0.0899 0.0894,0.0899 h 1.22887 c 0.0514,0 0.0894,-0.0385 0.0894,-0.0899 v -0.27957 c 0,-0.0514 -0.038,-0.0894 -0.0894,-0.0894 z" />
      <path
         id="rect9816-6"
         style="display:inline;fill:#000000;stroke:none;stroke-width:0.12869;stroke-linecap:round;stroke-miterlimit:4;stroke-dasharray:none"
         d="m 145.78523,134.44566 c 0.16608,0.0454 0.33414,0.41394 0.45733,0.78393 0.005,-0.001 0.01,-0.002 0.0145,-0.003 l 0.001,-5.3e-4 c 0.002,-2.7e-4 0.005,-2.7e-4 0.008,-5.3e-4 l 0.40824,-0.0191 c 0.0888,-0.007 0.1624,0.0594 0.1664,0.14831 l 0.003,0.0868 c 0.0468,0.004 0.0865,0.0399 0.0935,0.0884 l 0.01,0.0682 c 0.008,0.0567 -0.0311,0.10879 -0.0879,0.11679 l -0.005,10e-4 5.2e-4,0.0263 c 0.003,0.089 -0.0648,0.16663 -0.15347,0.17363 l -0.23668,0.0186 c -0.0139,0.001 -0.0274,8e-4 -0.0403,-0.002 0.005,0.0376 0.008,0.068 0.006,0.0832 h -0.31471 l -0.15658,-0.89245 c -0.0242,-0.13793 -0.15869,-0.23195 -0.29662,-0.20774 l -0.27699,0.0486 c -0.13792,0.0242 -0.23193,0.15817 -0.20774,0.2961 l 0.13281,0.75551 h -0.17518 l -0.14211,-0.93741 c -0.0207,-0.13848 -0.15042,-0.23386 -0.28887,-0.2129 l -0.28009,0.0424 c -0.13848,0.0207 -0.23389,0.15041 -0.2129,0.28887 l 0.12402,0.81907 h -0.29972 c -0.008,-0.009 -0.0148,-0.0344 -0.0202,-0.0703 l -0.0186,0.002 c 0.004,0.0143 0.005,0.0296 0.003,0.0455 l -0.007,0.047 h -0.23719 l 0.0103,-0.076 c 2e-4,-0.001 8e-4,-0.003 0.001,-0.004 -0.0796,-0.006 -0.14659,-0.0681 -0.15502,-0.14934 l -0.003,-0.0264 h -0.005 c -0.0573,0 -0.10335,-0.0461 -0.10335,-0.10336 v -0.0687 c 0,-0.049 0.0339,-0.09 0.0796,-0.10077 l -0.009,-0.0868 c -0.009,-0.0885 0.0548,-0.16435 0.14366,-0.17002 l 0.23668,-0.015 c 0.003,-1.8e-4 0.006,-5.3e-4 0.008,-5.3e-4 0.0132,-1.8e-4 0.0263,0.001 0.0388,0.004 0.007,-0.38924 0.0279,-0.78145 0.0362,-0.79789 z m -1.03508,0.52917 c 0.0675,0.003 0.12431,0.0512 0.13487,0.12092 l 0.13953,0.92088 h -0.57671 l -0.12661,-0.83561 c -0.0117,-0.0798 0.0397,-0.15019 0.11938,-0.16227 l 0.28008,-0.0424 c 0.01,-0.002 0.0198,-0.002 0.0295,-0.002 z m 0.96066,0.0491 c 0.0676,0.002 0.1258,0.05 0.13798,0.11937 l 0.15296,0.87334 h -0.57877 l -0.13591,-0.77463 c -0.0137,-0.0794 0.038,-0.153 0.1173,-0.16692 v -5.3e-4 l 0.27699,-0.0486 c 0.01,-0.002 0.0198,-0.002 0.0294,-0.002 z m 1.01751,0.89555 -5.3e-4,0.11421 -0.23512,0.032 v -0.11421 z m -0.001,0.17984 v 0.1142 l -0.23564,0.032 v -0.1142 z m -2.74298,0.006 -0.0155,0.11317 h -0.23771 l 0.0155,-0.11317 z m 2.43706,0.0103 c 0,0 -0.0109,0.99765 -0.0341,1.73168 0.0171,-0.006 0.0353,-0.009 0.0548,-0.009 l 0.046,5.3e-4 5.3e-4,-0.0889 0.23513,-0.032 -5.3e-4,0.11421 -0.0615,0.008 0.0439,5.3e-4 c 0.003,-10e-5 0.005,-1.8e-4 0.008,0 l -5.3e-4,-5.3e-4 c 0.0852,0.005 0.15458,0.0761 0.15658,0.16226 l 0.002,0.0579 c 0.0498,0.01 0.0862,0.0549 0.0832,0.10697 l -0.004,0.0687 c -0.002,0.0439 -0.0319,0.0798 -0.0713,0.0925 l 0.002,0.0615 c 0.002,0.0889 -0.0676,0.16015 -0.15658,0.15916 l -0.37311,-0.008 c -0.003,0.0267 -0.007,0.0461 -0.0103,0.0574 -0.0888,0.10471 -0.40411,0.16846 -0.40411,0.16846 -0.0886,0 -0.15968,0.0716 -0.15968,0.1602 v 1.22938 h -0.78755 c 0.0283,-0.0292 0.046,-0.0691 0.046,-0.11317 v -0.25477 c 0,-0.0833 -0.0624,-0.15123 -0.14314,-0.16122 h 0.0109 c 0.0502,0 0.0904,-0.0403 0.0904,-0.0904 v -0.0848 c 0,-0.0502 -0.0403,-0.0904 -0.0904,-0.0904 h -0.0279 v -0.0196 c 0,-0.0913 -0.0736,-0.16485 -0.16485,-0.16485 h -0.76636 c -0.0913,0 -0.16485,0.0735 -0.16485,0.16485 v 0.0196 h -0.0279 c -0.0501,0 -0.0904,0.0403 -0.0904,0.0904 v 0.0848 c 0,0.0502 0.0403,0.0904 0.0904,0.0904 h 0.0103 c -0.0807,0.01 -0.14263,0.0779 -0.14263,0.16122 v 0.25477 c 0,0.044 0.0172,0.084 0.0455,0.11317 h -0.17674 c 0,0 0.0772,-0.57349 0.16795,-1.24488 l -0.24081,-0.0114 c -0.0889,-0.004 -0.15464,-0.0788 -0.14728,-0.16743 l 0.005,-0.0615 c -0.0386,-0.0149 -0.0661,-0.0521 -0.0661,-0.0961 v -0.0692 c 0,-0.0522 0.0387,-0.0947 0.0889,-0.1018 l 0.005,-0.0579 c 0.007,-0.0833 0.0756,-0.14829 0.15761,-0.15245 l 0.0181,-0.13022 h 0.23719 l -0.0191,0.14004 0.0429,0.002 c 0.005,2.2e-4 0.009,0.001 0.014,0.002 0.13863,-1.01515 0.28359,-2.05182 0.30385,-2.09187 h 0.30438 l -0.12919,1.71721 c -0.0105,0.13965 0.0965,0.26183 0.23616,0.27234 l 0.2806,0.0212 c 0.13964,0.0105 0.26338,-0.0944 0.27389,-0.2341 l 0.13384,-1.77663 h 0.18345 l -0.092,1.78387 c -0.007,0.13985 0.10045,0.25941 0.2403,0.26665 l 0.28267,0.015 c 0.13984,0.007 0.26147,-0.10096 0.26872,-0.24082 l 0.0946,-1.82469 z m -0.39998,0 -0.0946,1.81901 c -0.004,0.0805 -0.0714,0.13905 -0.15193,0.13488 l -0.28267,-0.0145 c -0.0805,-0.004 -0.13904,-0.0694 -0.13487,-0.14986 l 0.0925,-1.78955 z m -0.97875,0 -0.13281,1.76837 c -0.006,0.0803 -0.0747,0.13937 -0.15503,0.13332 l -0.28008,-0.0212 c -0.0803,-0.006 -0.13937,-0.0747 -0.13333,-0.15503 l 0.12971,-1.72547 z m 1.68413,0.1633 v 0.1142 l -0.23512,0.032 v -0.1142 z m -2.76727,0.004 -0.0155,0.11317 h -0.23771 l 0.0155,-0.11317 z m 2.76676,0.17673 -5.3e-4,0.11266 -0.23461,0.032 v -0.11265 z m -2.79156,10e-4 -0.0155,0.11317 h -0.2372 l 0.0155,-0.11317 z m 2.79156,0.1788 v 0.1142 l -0.23565,0.032 v -0.11472 z m -2.81637,5.3e-4 -0.0155,0.11162 h -0.23719 l 0.0155,-0.11162 z m -0.0243,0.17776 -0.0155,0.11318 h -0.23771 l 0.0155,-0.11318 z m 2.84014,0.001 v 0.11421 l -0.23564,0.032 5.2e-4,-0.11421 z m -2.86442,0.17674 -0.0155,0.11317 h -0.23771 l 0.0155,-0.11317 z m 2.8639,0.003 v 0.11421 l -0.23564,0.032 v -0.11421 z m -2.88871,0.17519 -0.0155,0.11317 h -0.23771 l 0.0155,-0.11317 z m 2.88871,0.004 v 0.11421 l -0.23564,0.032 v -0.11421 z m -2.913,0.17364 -0.0155,0.11317 h -0.23771 l 0.0155,-0.11317 z m 2.91249,0.006 -5.3e-4,0.1142 -0.23513,0.032 v -0.11472 z m -2.93729,0.17156 -0.0155,0.11317 h -0.23772 l 0.0155,-0.11317 z m 2.93677,0.01 -5.3e-4,0.11213 -0.23564,0.032 5.3e-4,-0.11214 z m -2.96158,0.17001 -0.0155,0.11111 h -0.23771 l 0.0155,-0.11111 z m -0.0248,0.17777 -0.0155,0.11317 h -0.2372 l 0.0155,-0.11317 z m 0.92656,1.36064 c 0.0629,0 0.11369,0.0513 0.11369,0.11421 v 0.0372 h 0.0294 c 0.0571,-2e-4 0.10337,0.0463 0.10335,0.10336 -5e-4,0.0567 -0.0466,0.10201 -0.10335,0.1018 h -0.0294 v 0.0636 h 0.0243 c 0.0409,0 0.11126,0.0214 0.13126,0.0537 0,0 5.3e-4,5.3e-4 5.3e-4,5.3e-4 0,0 0,5.3e-4 0,5.3e-4 0.0127,0.0176 0.0196,0.0383 0.0196,0.0599 v 0.28163 c -5.8e-4,0.0478 -0.0686,0.0892 -0.11524,0.0997 -0.0114,0.004 -0.0236,0.006 -0.0362,0.006 h -0.0243 v 0.0718 h 0.0258 c 0.0567,5.3e-4 0.10252,0.0466 0.10232,0.10335 2e-4,0.0567 -0.0455,0.10285 -0.10232,0.10335 h -0.0258 v 0.0196 c 0,0.0629 -0.0508,0.11317 -0.11369,0.11317 h -0.70848 c -0.0629,0 -0.11317,-0.0503 -0.11317,-0.11317 v -0.0196 h -0.0346 c -0.0567,-5.2e-4 -0.10252,-0.0466 -0.10232,-0.10335 -2.1e-4,-0.0567 0.0455,-0.10286 0.10232,-0.10335 h 0.0346 v -0.0718 h -0.0248 c -0.0629,0 -0.15451,-0.0503 -0.15451,-0.11317 v -0.27492 c 0,-0.0629 0.0916,-0.11369 0.15451,-0.11369 h 0.0248 v -0.0636 h -0.03 c -0.0567,2e-4 -0.10286,-0.045 -0.10335,-0.1018 -3e-5,-0.0571 0.0463,-0.10356 0.10335,-0.10336 h 0.03 v -0.0372 c 0,-0.0629 0.0503,-0.11421 0.11317,-0.11421 z m 0.84801,1.02888 c 0.0848,0.004 0.15193,0.0744 0.15193,0.1602 v 0.27543 c 0,0.0886 -0.0716,0.1602 -0.1602,0.1602 h -2.1053 c -0.0886,0 -0.1602,-0.0716 -0.1602,-0.1602 v -0.27543 c 0,-0.0886 0.0716,-0.1602 0.1602,-0.1602 h 0.26562 c -0.002,0.008 -0.004,0.017 -0.004,0.0258 v 0.0848 c 0,0.0501 0.0403,0.0899 0.0904,0.0899 h 0.0279 v 0.007 c 0,0.0913 0.0735,0.16485 0.16485,0.16485 h 0.76688 c 0.0913,0 0.16484,-0.0735 0.16484,-0.16485 v -0.007 h 0.0279 c 0.0501,0 0.0904,-0.0398 0.0904,-0.0899 v -0.0848 c 0,-0.009 -0.001,-0.0177 -0.004,-0.0258 h 0.51366 c 0.003,0 0.006,-1.4e-4 0.008,0 z m -0.0207,0.69246 c 0.11509,0 0.20774,0.0926 0.20774,0.20774 v 0.13281 l -0.50075,-0.0512 v 0.71055 h -0.3762 l -0.23772,-0.89452 h -1.59473 l -0.0801,0.89452 c -0.0373,-1.8e-4 -0.0722,-0.0102 -0.10232,-0.0274 v -0.70693 l -0.10438,0.007 v -0.0646 c 0,-0.1151 0.0926,-0.20773 0.20773,-0.20774 z m -1.00304,0.23048 0.25063,0.94309 h -1.70894 l 0.0837,-0.94309 z m -1.7477,0.15813 v 0.78496 h -0.88108 l 0.17208,-0.73794 z m 2.54506,0.008 1.1896,0.12093 0.1173,0.65629 h -1.3069 z" />
      <path
         id="rect1330-8"
         style="display:inline;stroke-width:0.264583"
         d="m 144.87572,130.31006 c 0.33753,0.002 0.66256,0.0212 0.8046,0.0579 v 0.18345 h 0.38861 c -0.0205,0.0654 -0.0406,0.37263 -0.0558,0.78083 h 0.68523 v 2.50269 h -0.69091 c 0.0132,0.24282 0.0329,0.41389 0.0615,0.45527 h -2.4045 c -0.15676,-0.20966 -0.24161,-0.72626 -0.26665,-1.31827 h -0.13074 c -0.10807,-0.10228 -0.10668,-0.36173 0,-0.46767 h 0.12402 c 4.5e-4,-0.0552 1.8e-4,-0.11009 0.002,-0.16536 h -0.0951 c -0.10807,-0.10228 -0.10668,-0.36173 0,-0.46767 h 0.1173 c 0.003,-0.0439 0.007,-0.0881 0.0103,-0.13126 h -0.0729 c -0.10807,-0.10228 -0.10668,-0.36173 0,-0.46767 h 0.12713 c 0.0459,-0.30313 0.10791,-0.55864 0.185,-0.72089 h 0.26355 v -0.18345 c 0.15669,-0.0379 0.51906,-0.0576 0.88005,-0.0579 0.0226,-2e-5 0.0452,-1.3e-4 0.0677,0 z m 0.46199,0.54519 h -1.22835 c -0.13996,10e-6 -0.2558,0.11377 -0.2558,0.25373 v 0.2434 c 0,0.13994 0.11584,0.25579 0.2558,0.25579 h 1.22835 c 0.13996,0 0.25425,-0.11585 0.25425,-0.25579 v -0.2434 c 0,-0.13996 -0.11429,-0.25373 -0.25425,-0.25373 z m 0,0.16433 c 0.0514,0 0.0899,0.038 0.0899,0.0894 v 0.24288 c 0,0.0514 -0.0385,0.0899 -0.0899,0.0899 h -1.22835 c -0.0514,0 -0.0899,-0.0385 -0.0899,-0.0899 v -0.24288 c 0,-0.0514 0.0385,-0.0894 0.0899,-0.0894 z m -0.12299,0.96325 h -1.22835 c -0.13996,1e-5 -0.2558,0.11377 -0.2558,0.25373 v 0.36638 c 0,0.13995 0.11584,0.2558 0.2558,0.2558 h 1.22835 c 0.13996,0 0.25425,-0.11585 0.25425,-0.2558 v -0.36638 c 0,-0.13996 -0.11429,-0.25373 -0.25425,-0.25373 z m 0,0.16381 c 0.0514,0 0.0899,0.0385 0.0899,0.0899 v 0.36638 c 0,0.0514 -0.0385,0.0894 -0.0899,0.0894 h -1.22835 c -0.0514,0 -0.0899,-0.038 -0.0899,-0.0894 v -0.36638 c 0,-0.0514 0.0385,-0.0899 0.0899,-0.0899 z m 0.13126,1.08521 h -1.22887 c -0.13996,1e-5 -0.2558,0.11377 -0.2558,0.25373 v 0.27957 c 0,0.13995 0.11584,0.25579 0.2558,0.25579 h 1.22887 c 0.13996,0 0.25373,-0.11584 0.25373,-0.25579 v -0.27957 c 0,-0.13996 -0.11377,-0.25373 -0.25373,-0.25373 z m 0,0.16433 c 0.0514,0 0.0894,0.038 0.0894,0.0894 v 0.27957 c 0,0.0514 -0.038,0.0899 -0.0894,0.0899 h -1.22887 c -0.0514,0 -0.0894,-0.0385 -0.0894,-0.0899 v -0.27957 c 0,-0.0514 0.038,-0.0894 0.0894,-0.0894 z" />
      <path
         id="rect16312"
         style="fill:#000000;stroke:none;stroke-width:0.343561;stroke-linecap:round;stroke-miterlimit:4;stroke-dasharray:none"
         d="m 140.39632,128.30824 c -0.0593,0.003 -0.10634,0.052 -0.10634,0.11211 v 0.0717 c 0,0.006 9.6e-4,0.012 0.002,0.0179 h -0.0826 v 0.10891 l 1.1659,6.5e-4 c 0.17105,-0.006 0.22667,0.043 0.22677,0.13645 h 1.28978 v -0.24599 h -0.0931 c 9.6e-4,-0.006 0.002,-0.0117 0.002,-0.0179 v -0.0718 c 0,-0.0621 -0.05,-0.1121 -0.11211,-0.1121 h -0.35873 c -0.002,0 -0.004,-1e-4 -0.006,0 -0.0593,0.003 -0.10634,0.052 -0.10634,0.1121 v 0.0718 c 0,0.006 9.5e-4,0.012 0.002,0.0179 h -0.0634 c 9.5e-4,-0.006 0.002,-0.0117 0.002,-0.0179 v -0.0718 c 0,-0.0621 -0.05,-0.1121 -0.1121,-0.1121 h -0.35874 c -0.002,0 -0.004,-1e-4 -0.006,0 -0.0593,0.003 -0.10634,0.052 -0.10634,0.1121 v 0.0718 c 0,0.006 9.5e-4,0.012 0.002,0.0179 h -0.0634 c 9.5e-4,-0.006 0.002,-0.0117 0.002,-0.0179 v -0.0718 c 0,-0.0621 -0.05,-0.1121 -0.1121,-0.1121 h -0.35874 c -0.002,0 -0.004,-1e-4 -0.006,0 -0.0594,0.003 -0.10634,0.052 -0.10634,0.1121 v 0.0718 c 0,0.006 9.5e-4,0.012 0.002,0.0179 h -0.0634 c 9.5e-4,-0.006 0.002,-0.0117 0.002,-0.0179 v -0.0718 c 0,-0.0621 -0.05,-0.1121 -0.11211,-0.1121 h -0.35874 c -0.002,0 -0.004,-1e-4 -0.006,0 z"
         sodipodi:nodetypes="cssccccccccsssscssccsssscssccsssscssccssssc" />
      <path
         id="rect15925-2"
         style="display:inline;fill:#000000;stroke:none;stroke-width:0.385002;stroke-linecap:round;stroke-miterlimit:4;stroke-dasharray:none"
         d="m 141.59974,128.77779 v 0.25689 c 0,0.009 -6.8e-4,0.0182 -0.002,0.0257 h 0.37219 l 0.25495,1.48491 h 0.92568 c 0.10872,0 0.19666,-0.0874 0.19666,-0.19602 v -1.37537 c 0,-0.10872 -0.088,-0.19604 -0.19666,-0.19604 z" />
      <path
         id="rect14615"
         style="fill:#000000;stroke-width:0.415856;stroke-linecap:round"
         d="m 139.839,128.7099 c -0.0679,0.003 -0.12107,0.0593 -0.12107,0.12812 v 0.26136 c 0,0.008 5.4e-4,0.0161 0.002,0.0237 h -0.33376 l -0.27353,1.50733 0.35938,1.45737 h 0.25624 v 0.24407 c 0,0.071 0.0571,0.12812 0.12812,0.12812 h 0.43048 c 0.071,0 0.12812,-0.0571 0.12812,-0.12812 v -0.24343 h 0.42472 v 0.24343 c 0,0.071 0.0571,0.12812 0.12812,0.12812 h 0.42984 c 0.071,0 0.12877,-0.0571 0.12877,-0.12812 v -0.24343 h 0.2383 l 0.37731,-1.45801 -0.2588,-1.50733 h -0.34849 c 0.001,-0.008 0.002,-0.0157 0.002,-0.0237 v -0.26136 c 0,-0.071 -0.0571,-0.12812 -0.12812,-0.12812 h -1.56244 c -0.002,0 -0.005,-1.1e-4 -0.007,0 z" />
      <path
         id="path13398"
         style="fill:#000000;stroke:#ffffff;stroke-width:0.0499037;stroke-linecap:round;stroke-miterlimit:4;stroke-dasharray:none"
         d="m 140.62265,129.26677 a 1.3372517,1.3372517 0 0 0 -1.3372,1.3372 1.3372517,1.3372517 0 0 0 1.3372,1.33719 1.3372517,1.3372517 0 0 0 1.33719,-1.33719 1.3372517,1.3372517 0 0 0 -1.33719,-1.3372 z m 0.006,0.1518 c 0.004,-9e-5 0.006,0 0.01,0 0.2227,0 0.40438,0.18167 0.40438,0.40438 0,0.22271 -0.18168,0.40438 -0.40438,0.40438 -0.22273,0 -0.40495,-0.18167 -0.40495,-0.40438 0,-0.21923 0.17679,-0.39883 0.39475,-0.40438 z m -0.002,0.15801 c -0.13121,0.006 -0.23391,0.11343 -0.23391,0.24637 0,0.13723 0.10922,0.24806 0.24638,0.24806 0.13723,0 0.24807,-0.11082 0.24807,-0.24806 0,-0.13723 -0.11083,-0.24637 -0.24807,-0.24637 -0.002,0 -0.004,-6e-5 -0.006,0 -0.002,5e-5 -0.004,-9e-5 -0.006,0 z m -0.74363,0.38966 c 0.22271,0 0.40495,0.18224 0.40495,0.40495 0,0.22272 -0.18224,0.40439 -0.40495,0.40439 -0.22272,0 -0.40439,-0.18167 -0.40439,-0.40439 0,-0.22271 0.18167,-0.40495 0.40439,-0.40495 z m 1.46519,0 c 0.004,-9e-5 0.006,0 0.01,0 0.22271,0 0.40438,0.18224 0.40438,0.40495 0,0.22272 -0.18167,0.40439 -0.40438,0.40439 -0.22272,0 -0.40721,-0.18167 -0.40721,-0.40439 0,-0.21923 0.17899,-0.39937 0.39702,-0.40495 z m -1.46519,0.15859 c -0.13723,0 -0.24807,0.10909 -0.24807,0.24636 0,0.13723 0.11083,0.2458 0.24807,0.2458 0.13722,0 0.24636,-0.10859 0.24636,-0.2458 0,-0.13722 -0.10909,-0.24636 -0.24636,-0.24636 z m 1.46292,0 c -0.13134,0.006 -0.23618,0.11342 -0.23618,0.24636 0,0.13723 0.11145,0.2458 0.24864,0.2458 0.13721,0 0.24581,-0.10859 0.24581,-0.2458 0,-0.13722 -0.1086,-0.24636 -0.24581,-0.24636 -0.002,0 -0.004,-5e-5 -0.006,0 -0.002,5e-5 -0.004,-1.1e-4 -0.006,0 z m -1.20975,0.68077 c 0.004,-9e-5 0.006,0 0.01,0 0.2227,0 0.40495,0.18167 0.40495,0.40438 0,0.22272 -0.18225,0.40439 -0.40495,0.40439 -0.22272,0 -0.40439,-0.18167 -0.40439,-0.40439 0,-0.21924 0.17625,-0.39883 0.3942,-0.40438 z m 0.92941,0 c 0.004,-9e-5 0.006,0 0.01,0 0.22272,0 0.40439,0.18167 0.40439,0.40438 0,0.22272 -0.18167,0.40439 -0.40439,0.40439 -0.2227,0 -0.40495,-0.18167 -0.40495,-0.40439 0,-0.21924 0.17681,-0.39883 0.39476,-0.40438 z m -0.92546,0.15632 c -0.13418,0.004 -0.23957,0.11293 -0.23957,0.24806 0,0.13723 0.10859,0.24637 0.24581,0.24637 0.13723,0 0.24863,-0.10909 0.24863,-0.24637 0,-0.13722 -0.11144,-0.24806 -0.24863,-0.24806 -0.002,0 -0.004,-6e-5 -0.006,0 z m 0.92319,0 c -0.13122,0.006 -0.23391,0.11504 -0.23391,0.24806 0,0.13723 0.10909,0.24637 0.24637,0.24637 0.13722,0 0.2458,-0.10909 0.2458,-0.24637 0,-0.13722 -0.10859,-0.24806 -0.2458,-0.24806 -0.002,0 -0.004,-6e-5 -0.006,0 -0.002,5e-5 -0.004,-1.1e-4 -0.006,0 z" />
      <circle
         style="fill:#ffffff;stroke:none;stroke-width:0.326914;stroke-linecap:round;stroke-miterlimit:4;stroke-dasharray:none"
         id="path17708"
         cx="140.63858"
         cy="129.82048"
         r="0.23670503" />
      <circle
         style="display:inline;fill:#ffffff;stroke:none;stroke-width:0.326914;stroke-linecap:round;stroke-miterlimit:4;stroke-dasharray:none"
         id="path17708-5"
         cx="141.36259"
         cy="130.37468"
         r="0.23670503" />
      <circle
         style="display:inline;fill:#ffffff;stroke:none;stroke-width:0.326914;stroke-linecap:round;stroke-miterlimit:4;stroke-dasharray:none"
         id="path17708-0"
         cx="141.07912"
         cy="131.20811"
         r="0.23670503" />
      <circle
         style="display:inline;fill:#ffffff;stroke:none;stroke-width:0.326914;stroke-linecap:round;stroke-miterlimit:4;stroke-dasharray:none"
         id="path17708-4"
         cx="140.15047"
         cy="131.21375"
         r="0.23670503" />
      <circle
         style="display:inline;fill:#ffffff;stroke:none;stroke-width:0.326914;stroke-linecap:round;stroke-miterlimit:4;stroke-dasharray:none"
         id="path17708-8"
         cx="139.88091"
         cy="130.37488"
         r="0.23670503" />
      <path
         style="fill:#000000;stroke:none;stroke-width:0.264583px;stroke-linecap:butt;stroke-linejoin:miter;stroke-opacity:1"
         d="m 159.25104,118.44039 c 0,0 0.28652,0.43463 0.20662,0.74922 -0.0971,0.30043 -0.97012,1.23313 -0.97012,1.23313 -0.1639,0.52268 0.33684,4.58151 0.52118,4.67261 l 0.98958,-0.0291 c 0.0809,-0.16227 0.30483,-5.98048 0.0491,-6.31058 0,0 -0.39521,-0.61978 -0.79636,-0.31528 z"
         id="path18682"
         sodipodi:nodetypes="ccccccc" />
      <rect
         style="fill:#000000;stroke:none;stroke-width:0.126377;stroke-linecap:round;stroke-miterlimit:4;stroke-dasharray:none"
         id="rect20200"
         width="1.289185"
         height="0.3711006"
         x="158.87724"
         y="125.14181"
         ry="0.13982192" />
      <rect
         style="fill:#000000;stroke:none;stroke-width:0.184889;stroke-linecap:round;stroke-miterlimit:4;stroke-dasharray:none"
         id="rect20304"
         width="2.5826504"
         height="1.4234928"
         x="158.24936"
         y="125.56937"
         ry="0.25992161" />
      <path
         style="fill:none;stroke:#ffffff;stroke-width:0.165;stroke-linecap:butt;stroke-linejoin:miter;stroke-miterlimit:4;stroke-dasharray:none;stroke-opacity:1"
         d="m 159.69068,119.57503 c -0.11692,0.23784 -0.73869,0.92936 -0.87647,1.14898 -0.0615,0.25452 0.29168,3.64178 0.45995,3.94001 0.12301,0.0171 0.43021,0 0.43021,0 0.15338,-0.21368 0.22971,-5.20498 -0.0137,-5.08899 z"
         id="path20482"
         sodipodi:nodetypes="ccccc" />
      <circle
         style="fill:#000000;stroke:none;stroke-width:0.165;stroke-linecap:round;stroke-miterlimit:4;stroke-dasharray:none"
         id="path21185"
         cx="161.90675"
         cy="127.50401"
         r="0.59798521" />
      <circle
         style="display:inline;fill:#000000;stroke:none;stroke-width:0.165;stroke-linecap:round;stroke-miterlimit:4;stroke-dasharray:none"
         id="path21185-7"
         cx="157.07932"
         cy="127.53275"
         r="0.59798521" />
      <path
         style="fill:#000000;stroke:none;stroke-width:0.264583px;stroke-linecap:butt;stroke-linejoin:miter;stroke-opacity:1"
         d="m 158.12507,125.78891 c -0.0594,0.81563 -0.0438,1.10509 0.0772,1.29421 l -0.47111,0.22076 c -0.0752,-0.43933 -0.60706,-0.67777 -1.08245,-0.42169 0.0224,-0.13667 1.42634,-1.1161 1.47637,-1.09328 z"
         id="path21475"
         sodipodi:nodetypes="cccccc" />
      <path
         style="display:inline;fill:#000000;stroke:none;stroke-width:0.264583px;stroke-linecap:butt;stroke-linejoin:miter;stroke-opacity:1"
         d="m 156.71505,128.17263 c 0.42209,0.20131 0.93619,-0.024 0.99969,-0.33598 0,0 0.23367,0.40836 0.22782,0.50291 l -0.25942,0.92962 c 0,0 -0.9438,-0.99342 -0.96809,-1.09655 z"
         id="path21475-7"
         sodipodi:nodetypes="ccccc" />
      <path
         style="display:inline;fill:#000000;stroke:none;stroke-width:0.264583px;stroke-linecap:butt;stroke-linejoin:miter;stroke-opacity:1"
         d="m 162.33572,128.10647 c -0.48416,0.26534 -0.91821,0.0633 -1.02786,-0.25819 l -0.26143,0.46524 0.25942,0.92962 z"
         id="path21475-7-2"
         sodipodi:nodetypes="ccccc" />
      <path
         style="display:inline;fill:#000000;stroke:none;stroke-width:0.264583px;stroke-linecap:butt;stroke-linejoin:miter;stroke-opacity:1"
         d="m 160.93363,125.75629 c 0.0301,0.81487 0.11496,1.18917 -0.12502,1.27972 l 0.45279,0.26084 c 0.1108,-0.54743 0.67737,-0.61365 1.05276,-0.41694 -0.0117,-0.17472 -1.15574,-1.13333 -1.38053,-1.12362 z"
         id="path21475-1"
         sodipodi:nodetypes="ccccc" />
      <path
         style="fill:#000000;stroke:none;stroke-width:0.264583px;stroke-linecap:butt;stroke-linejoin:miter;stroke-opacity:1"
         d="m 157.96708,128.56651 c 0,0 -0.31866,0.75666 -0.21786,0.75666 0.10081,0 1.388,0.0963 1.388,0.0963 0,0 0.11097,-0.32128 -0.0222,-0.41273 z"
         id="path21931"
         sodipodi:nodetypes="csccc" />
      <path
         style="display:inline;fill:#000000;stroke:none;stroke-width:0.264583px;stroke-linecap:butt;stroke-linejoin:miter;stroke-opacity:1"
         d="m 161.01185,128.56738 c 0,0 0.31866,0.75666 0.21786,0.75666 -0.10081,0 -1.388,0.0963 -1.388,0.0963 0,0 -0.11097,-0.32128 0.0222,-0.41273 z"
         id="path21931-7"
         sodipodi:nodetypes="csccc" />
      <path
         style="fill:none;stroke:#000000;stroke-width:0.264583;stroke-linecap:butt;stroke-linejoin:miter;stroke-miterlimit:4;stroke-dasharray:0.0661457, 0.0661457;stroke-dashoffset:0;stroke-opacity:1"
         d="m 158.53927,121.29827 c -0.538,0.0362 -0.7369,0.76095 -0.71829,1.21458 0.013,0.36659 0.11553,0.72102 0.27912,1.05173 0.18786,0.34254 0.44935,0.60546 0.88379,0.7153"
         id="path25068"
         sodipodi:nodetypes="cccc" />
      <path
         style="fill:none;stroke:#000000;stroke-width:0.264583;stroke-linecap:butt;stroke-linejoin:miter;stroke-miterlimit:4;stroke-dasharray:0.0661457, 0.0661457;stroke-dashoffset:0;stroke-opacity:1"
         d="m 159.95532,124.36113 c 0.57903,-0.12548 1.23747,0.0282 1.08895,0.58088 -0.14459,0.35669 -0.56565,0.19831 -0.6453,0.81769"
         id="path25740"
         sodipodi:nodetypes="ccc" />
      <path
         id="rect30037"
         style="fill:#000000;stroke:none;stroke-width:0.310608;stroke-linecap:round;stroke-miterlimit:4;stroke-dasharray:0.0776523, 0.0776523;stroke-dashoffset:0"
         d="m 142.46237,126.72877 c -0.12491,0 -0.22577,0.0448 -0.22577,0.16972 0.002,0.46769 -0.007,0.90866 -0.007,1.37784 0.034,-0.0356 0.0635,-0.0278 0.12278,-0.0308 0.002,-1e-4 0.004,0 0.006,0 h 0.35863 c 0.0621,0 0.13879,0.05 0.13879,0.11214 v 0.0718 c 0,0.006 -10e-4,0.0121 -0.002,0.0181 h 0.0809 v 0.24598 h -7e-5 v 0.0191 h 0.24283 c 0.10866,0 0.22845,0.0871 0.22845,0.19585 v 0.47387 h 0.10073 c 0.12491,0 0.22531,-0.1004 0.22531,-0.22531 v -2.20245 c 0,-0.1249 -0.1004,-0.22582 -0.22531,-0.22582 z"
         sodipodi:nodetypes="cccssssscccccsscssscc" />
      <rect
         style="fill:#000000;stroke:none;stroke-width:0.264583;stroke-linecap:round;stroke-miterlimit:4;stroke-dasharray:0.0661458, 0.0661458;stroke-dashoffset:0"
         id="rect30141"
         width="0.96742225"
         height="1.2498009"
         x="143.58592"
         y="126.92802"
         ry="0.19908838" />
    </g>
  </g>
</svg>
