<?xml version="1.0" encoding="UTF-8" standalone="no"?>
<!-- Created with Inkscape (http://www.inkscape.org/) -->

<svg
   sodipodi:docname="SalvageMech.svg"
   inkscape:version="1.1.2 (0a00cf5339, 2022-02-04)"
   id="svg8"
   version="1.1"
   viewBox="0 0 34.98301 52.516205"
   height="52.516205mm"
   width="34.983009mm"
   xmlns:inkscape="http://www.inkscape.org/namespaces/inkscape"
   xmlns:sodipodi="http://sodipodi.sourceforge.net/DTD/sodipodi-0.dtd"
   xmlns="http://www.w3.org/2000/svg"
   xmlns:svg="http://www.w3.org/2000/svg"
   xmlns:rdf="http://www.w3.org/1999/02/22-rdf-syntax-ns#"
   xmlns:cc="http://creativecommons.org/ns#"
   xmlns:dc="http://purl.org/dc/elements/1.1/">
  <defs
     id="defs2" />
  <sodipodi:namedview
     id="base"
     pagecolor="#ffffff"
     bordercolor="#666666"
     borderopacity="1.0"
     inkscape:pageopacity="0.0"
     inkscape:pageshadow="2"
     inkscape:zoom="2.8284272"
     inkscape:cx="34.825008"
     inkscape:cy="123.56691"
     inkscape:document-units="mm"
     inkscape:current-layer="layer1"
     showgrid="false"
     inkscape:window-width="1846"
     inkscape:window-height="1016"
     inkscape:window-x="74"
     inkscape:window-y="1107"
     inkscape:window-maximized="1"
     inkscape:snap-global="false"
     fit-margin-top="0"
     fit-margin-left="0"
     fit-margin-right="0"
     fit-margin-bottom="0"
     showguides="true"
     inkscape:guide-bbox="true"
     inkscape:pagecheckerboard="0" />
  <metadata
     id="metadata5">
    <rdf:RDF>
      <cc:Work
         rdf:about="">
        <dc:format>image/svg+xml</dc:format>
        <dc:type
           rdf:resource="http://purl.org/dc/dcmitype/StillImage" />
      </cc:Work>
    </rdf:RDF>
  </metadata>
  <g
     inkscape:label="Capa 1"
     inkscape:groupmode="layer"
     id="layer1"
     transform="translate(-135.48963,-99.590537)"
     style="display:inline">
    <rect
       style="opacity:1;vector-effect:none;fill:#1a1a1a;fill-opacity:1;stroke:none;stroke-width:0.1;stroke-linecap:butt;stroke-linejoin:miter;stroke-miterlimit:4;stroke-dasharray:none;stroke-dashoffset:0;stroke-opacity:1"
       id="rect860"
       width="7.0941477"
       height="0"
       x="148.86763"
       y="129.31949" />
    <g
       id="g1831"
       transform="translate(0.54280906,-0.93131917)">
      <g
         id="path1550" />
      <g
         id="path1550-3" />
    </g>
    <g
       id="rect2870" />
    <g
       id="g2222">
      <path
         style="fill:none;stroke:#000000;stroke-width:0.347655;stroke-linecap:butt;stroke-linejoin:miter;stroke-miterlimit:4;stroke-dasharray:0.0869137, 0.0869137;stroke-dashoffset:0;stroke-opacity:1"
         d="m 161.47034,114.19208 c 0.31396,-1.25725 0.0376,-3.09672 1.53409,-3.65287 1.77254,-0.67951 2.62353,1.96833 1.75288,3.13839"
         id="path24517" />
      <path
         id="rect9816"
         style="fill:#000000;stroke:none;stroke-width:0.169095;stroke-linecap:round;stroke-miterlimit:4;stroke-dasharray:none"
         d="m 156.32176,134.57096 c -0.21823,0.0596 -0.43906,0.54391 -0.60092,1.03006 -0.007,-0.001 -0.0131,-0.003 -0.0191,-0.004 l -0.001,-6.9e-4 c -0.003,-3.6e-4 -0.007,-3.6e-4 -0.0105,-7e-4 l -0.53642,-0.0251 c -0.11668,-0.009 -0.21339,0.078 -0.21864,0.19488 l -0.004,0.11405 c -0.0615,0.005 -0.11365,0.0524 -0.12285,0.11616 l -0.0131,0.0896 c -0.0105,0.0745 0.0409,0.14293 0.1155,0.15344 l 0.007,10e-4 -6.9e-4,0.0347 c -0.004,0.11694 0.0851,0.21894 0.20166,0.22814 l 0.31099,0.0244 c 0.0183,10e-4 0.036,10e-4 0.053,-0.003 -0.007,0.0494 -0.0105,0.0893 -0.008,0.10933 h 0.41352 l 0.20574,-1.17266 c 0.0318,-0.18124 0.20852,-0.30477 0.38975,-0.27296 l 0.36396,0.0639 c 0.18122,0.0318 0.30475,0.20783 0.27296,0.38906 l -0.1745,0.99272 h 0.23018 l 0.18673,-1.23173 c 0.0272,-0.18197 0.19764,-0.3073 0.37956,-0.27976 l 0.36804,0.0557 c 0.18195,0.0272 0.30732,0.19763 0.27974,0.37956 l -0.16296,1.07624 h 0.39383 c 0.0105,-0.0118 0.0194,-0.0452 0.0265,-0.0924 l 0.0244,0.003 c -0.005,0.0188 -0.007,0.0389 -0.004,0.0598 l 0.009,0.0618 h 0.31166 l -0.0135,-0.0999 c -2.6e-4,-10e-4 -0.001,-0.004 -0.001,-0.005 0.10459,-0.007 0.19261,-0.0895 0.20369,-0.19623 l 0.004,-0.0347 h 0.007 c 0.0753,0 0.1358,-0.0606 0.1358,-0.1358 v -0.0903 c 0,-0.0644 -0.0445,-0.11825 -0.10459,-0.13241 l 0.0118,-0.11405 c 0.0118,-0.11629 -0.072,-0.21594 -0.18876,-0.22339 l -0.31099,-0.0197 c -0.004,-2.3e-4 -0.008,-6.9e-4 -0.0105,-6.9e-4 -0.0173,-2.4e-4 -0.0346,0.001 -0.051,0.005 -0.009,-0.51144 -0.0367,-1.02679 -0.0476,-1.04839 z m 1.36006,0.69532 c -0.0887,0.004 -0.16334,0.0673 -0.17721,0.15888 l -0.18334,1.21 h 0.75778 l 0.16636,-1.09796 c 0.0154,-0.10485 -0.0522,-0.19734 -0.15686,-0.21321 l -0.36802,-0.0557 c -0.0131,-0.003 -0.026,-0.003 -0.0388,-0.003 z m -1.26228,0.0645 c -0.0887,0.003 -0.1653,0.0657 -0.1813,0.15685 l -0.20099,1.14753 h 0.76049 l 0.17858,-1.01784 c 0.018,-0.10433 -0.0499,-0.20102 -0.15412,-0.21932 v -6.9e-4 l -0.36396,-0.0639 c -0.0131,-0.003 -0.026,-0.003 -0.0386,-0.003 z m -1.33698,1.17673 7e-4,0.15007 0.30894,0.042 v -0.15007 z m 0.001,0.23631 v 0.15005 l 0.30963,0.0421 v -0.15006 z m 3.60421,0.008 0.0204,0.1487 h 0.31235 l -0.0204,-0.1487 z m -3.20223,0.0137 c 0,0 0.0142,1.31088 0.0448,2.27538 -0.0225,-0.008 -0.0464,-0.0118 -0.072,-0.0118 l -0.0605,7e-4 -6.9e-4,-0.11681 -0.30896,-0.0421 7e-4,0.15005 0.0808,0.0105 -0.0577,6.9e-4 c -0.004,-1.3e-4 -0.007,-2.3e-4 -0.0105,0 l 7e-4,-6.9e-4 c -0.11195,0.007 -0.20311,0.1 -0.20574,0.2132 l -0.003,0.0761 c -0.0654,0.0131 -0.11327,0.0721 -0.10932,0.14056 l 0.005,0.0903 c 0.003,0.0577 0.0419,0.10485 0.0937,0.12154 l -0.003,0.0808 c -0.003,0.11681 0.0888,0.21044 0.20574,0.20914 l 0.49026,-0.0105 c 0.004,0.0351 0.009,0.0606 0.0135,0.0754 0.11668,0.1376 0.53099,0.22137 0.53099,0.22137 0.11642,0 0.20982,0.0941 0.20982,0.2105 v 1.61537 h 1.03482 c -0.0372,-0.0384 -0.0604,-0.0908 -0.0604,-0.1487 v -0.33476 c 0,-0.10946 0.082,-0.19872 0.18808,-0.21186 h -0.0143 c -0.066,0 -0.11879,-0.053 -0.11879,-0.11878 v -0.11129 c 0,-0.066 0.053,-0.11879 0.11879,-0.11879 h 0.0367 v -0.0258 c 0,-0.11996 0.0966,-0.21661 0.2166,-0.21661 h 1.00698 c 0.11997,0 0.21661,0.0967 0.21661,0.21661 v 0.0258 h 0.0367 c 0.0658,0 0.11878,0.053 0.11878,0.11879 v 0.11129 c 0,0.066 -0.053,0.11878 -0.11878,0.11878 h -0.0135 c 0.1059,0.0131 0.18741,0.10236 0.18741,0.21186 v 0.33476 c 0,0.0578 -0.0226,0.11037 -0.0598,0.1487 h 0.23223 c 0,0 -0.10144,-0.75355 -0.22068,-1.63575 l 0.31642,-0.015 c 0.11681,-0.005 0.20319,-0.10354 0.19352,-0.22 l -0.007,-0.0808 c 0.0507,-0.0196 0.0869,-0.0685 0.0869,-0.12627 v -0.0911 c 0,-0.0686 -0.0509,-0.12443 -0.11682,-0.13376 l -0.007,-0.0761 c -0.009,-0.10946 -0.0993,-0.19485 -0.20709,-0.20032 l -0.0238,-0.1711 h -0.31167 l 0.0251,0.18401 -0.0564,0.003 c -0.007,2.8e-4 -0.0118,10e-4 -0.0184,0.003 -0.18216,-1.33387 -0.37263,-2.69602 -0.39926,-2.74865 h -0.39994 l 0.16975,2.25637 c 0.0138,0.1835 -0.1268,0.34404 -0.31031,0.35784 l -0.3687,0.0279 c -0.18348,0.0138 -0.34607,-0.12404 -0.35988,-0.3076 l -0.17587,-2.33444 h -0.24104 l 0.12088,2.34395 c 0.009,0.18376 -0.13199,0.34085 -0.31575,0.35037 l -0.37142,0.0197 c -0.18374,0.009 -0.34356,-0.13265 -0.35309,-0.31641 l -0.1243,-2.3976 z m 0.52556,0 0.1243,2.39013 c 0.005,0.10577 0.0938,0.18269 0.19963,0.17721 l 0.37142,-0.019 c 0.10578,-0.005 0.1827,-0.0912 0.17722,-0.19691 l -0.12154,-2.35144 z m 1.28605,0 0.17451,2.32359 c 0.008,0.10551 0.0982,0.18313 0.2037,0.17518 l 0.36802,-0.0279 c 0.10551,-0.008 0.18313,-0.0982 0.17519,-0.20371 l -0.17043,-2.26723 z m -2.2129,0.21457 V 137.13 l 0.30894,0.0421 v -0.15006 z m 3.63612,0.005 0.0204,0.14871 h 0.31235 l -0.0204,-0.14871 z m -3.63545,0.23222 6.9e-4,0.14802 0.30828,0.042 v -0.14802 z m 3.66803,0.001 0.0204,0.1487 h 0.31168 l -0.0204,-0.1487 z m -3.66803,0.23493 v 0.15006 l 0.30964,0.042 v -0.15074 z m 3.70063,7e-4 0.0204,0.14667 h 0.31166 l -0.0204,-0.14667 z m 0.0319,0.23357 0.0204,0.1487 h 0.31234 l -0.0204,-0.1487 z m -3.73187,0.001 v 0.15007 l 0.30963,0.042 -6.8e-4,-0.15007 z m 3.76378,0.23221 0.0204,0.14871 h 0.31235 l -0.0204,-0.14871 z m -3.76309,0.004 v 0.15005 l 0.30962,0.0421 v -0.15006 z m 3.79569,0.23018 0.0204,0.1487 h 0.31235 l -0.0204,-0.1487 z m -3.79569,0.005 v 0.15007 l 0.30962,0.042 v -0.15006 z m 3.8276,0.22815 0.0204,0.1487 h 0.31234 l -0.0204,-0.1487 z m -3.82693,0.008 6.9e-4,0.15007 0.30896,0.042 v -0.15074 z m 3.85952,0.22544 0.0204,0.1487 h 0.31235 l -0.0204,-0.1487 z m -3.85884,0.0131 7e-4,0.14735 0.30962,0.042 -6.9e-4,-0.14734 z m 3.89144,0.2234 0.0204,0.14599 h 0.31234 l -0.0204,-0.14599 z m 0.0326,0.23359 0.0204,0.1487 h 0.31168 l -0.0204,-0.1487 z m -1.21748,1.78784 c -0.0827,0 -0.14939,0.0674 -0.14939,0.15006 v 0.0489 h -0.0386 c -0.075,-2.6e-4 -0.13582,0.0608 -0.1358,0.1358 6.6e-4,0.0745 0.0612,0.13405 0.1358,0.13377 h 0.0386 v 0.0836 h -0.0319 c -0.0537,0 -0.14619,0.0281 -0.17247,0.0706 0,0 -6.9e-4,7e-4 -6.9e-4,7e-4 0,0 0,7e-4 0,7e-4 -0.0167,0.0231 -0.0258,0.0503 -0.0258,0.0787 v 0.37007 c 7.6e-4,0.0628 0.0901,0.11721 0.15142,0.131 0.015,0.005 0.031,0.008 0.0476,0.008 h 0.0319 v 0.0943 h -0.0339 c -0.0745,7e-4 -0.13471,0.0612 -0.13445,0.13581 -2.6e-4,0.0745 0.0598,0.13515 0.13445,0.1358 h 0.0339 v 0.0258 c 0,0.0827 0.0667,0.14871 0.14939,0.14871 h 0.93092 c 0.0827,0 0.1487,-0.0661 0.1487,-0.14871 v -0.0258 h 0.0455 c 0.0745,-6.9e-4 0.1347,-0.0612 0.13444,-0.1358 2.8e-4,-0.0745 -0.0598,-0.13515 -0.13444,-0.13581 h -0.0455 v -0.0943 h 0.0326 c 0.0827,0 0.20302,-0.0661 0.20302,-0.14872 v -0.36124 c 0,-0.0826 -0.12036,-0.14937 -0.20302,-0.14937 h -0.0326 v -0.0836 h 0.0394 c 0.0745,2.8e-4 0.13516,-0.0591 0.1358,-0.13376 4e-5,-0.075 -0.0608,-0.13606 -0.1358,-0.1358 h -0.0394 v -0.0489 c 0,-0.0827 -0.0661,-0.15005 -0.1487,-0.15005 z m -1.11426,1.35193 c -0.11143,0.005 -0.19963,0.0977 -0.19963,0.21048 v 0.36192 c 0,0.11642 0.0941,0.2105 0.21049,0.2105 h 2.76631 c 0.11642,0 0.2105,-0.0941 0.2105,-0.2105 v -0.36192 c 0,-0.11642 -0.0941,-0.21048 -0.2105,-0.21048 h -0.34902 c 0.003,0.0105 0.005,0.0223 0.005,0.0339 v 0.11129 c 0,0.0658 -0.053,0.11813 -0.11878,0.11813 h -0.0367 v 0.009 c 0,0.11997 -0.0966,0.21661 -0.21661,0.21661 h -1.00766 c -0.11997,0 -0.2166,-0.0967 -0.2166,-0.21661 v -0.009 h -0.0367 c -0.0658,0 -0.11878,-0.0523 -0.11878,-0.11813 v -0.11129 c 0,-0.0118 0.001,-0.0234 0.005,-0.0339 h -0.67494 c -0.004,0 -0.008,-1.9e-4 -0.0105,0 z m 0.0272,0.90987 c -0.15123,0 -0.27297,0.12167 -0.27297,0.27296 v 0.17451 l 0.65797,-0.0673 v 0.93364 h 0.49432 l 0.31236,-1.17537 h 2.09543 l 0.10525,1.17537 c 0.049,-2.3e-4 0.0949,-0.0134 0.13445,-0.036 v -0.92889 l 0.13715,0.009 v -0.0849 c 0,-0.15124 -0.12167,-0.27297 -0.27295,-0.27297 z m 1.31796,0.30284 -0.32932,1.2392 h 2.24551 l -0.10998,-1.2392 z m 2.29644,0.20778 v 1.03142 h 1.15771 l -0.22611,-0.96963 z m -3.34415,0.0105 -1.5631,0.15889 -0.15413,0.86235 h 1.71723 z" />
      <path
         id="rect10609"
         style="fill:#000000;stroke-width:0.219434;stroke-linecap:round;stop-color:#000000"
         d="m 147.88636,121.74574 c -0.61568,0.003 -1.29028,0.0299 -1.52575,0.13172 -0.0288,0.0644 -0.0427,1.05629 -0.0339,1.75593 1.01392,-0.009 2.14865,0.061 2.33744,0.16553 v 0.93063 l 0.14583,-0.008 0.003,-1.094 c 1.3e-4,-0.0711 0.0466,-0.1222 0.11773,-0.1222 h 0.096 l 0.0326,-1.73827 c 0,0 -0.55631,-0.0233 -1.17199,-0.021 z"
         sodipodi:nodetypes="scccccssccss" />
      <path
         id="rect8949"
         style="fill:#000000;stroke:none;stroke-width:0.219434;stroke-linecap:round;stroke-miterlimit:4;stroke-dasharray:none;stop-color:#000000"
         d="m 148.66383,124.67908 v 2.15179 h 0.0428 c 0.16819,0 0.30352,0.13534 0.30352,0.30352 v 0.4271 h 4.33619 v -2.25704 h -0.15957 c -0.0139,-0.20921 -0.0269,-0.4172 -0.0394,-0.62537 h -0.131 v 0.40128 c 0,0.0785 -0.0591,0.14193 -0.13308,0.14193 h -3.94169 c -0.074,0 -0.13309,-0.0635 -0.13309,-0.14193 v -0.40128 z m 2.0255,0.64302 c 0.70353,-0.001 1.49321,0.0169 1.57192,0.0448 0.0497,0.0256 0.0481,1.00238 0,1.05858 -0.0581,0.0417 -2.59503,0.0302 -2.68211,0 -0.0427,-0.0365 -0.061,-0.94839 0,-1.05858 0.0679,-0.03 0.56301,-0.0436 1.11019,-0.0448 z" />
      <path
         id="rect3793"
         style="stroke-width:0.0889035;stroke-linecap:round;stop-color:#000000"
         d="m 153.82367,125.33161 c -0.18178,0 -0.32797,0.14619 -0.32797,0.32797 v 1.66901 c 0,0.18177 0.14619,0.32796 0.32797,0.32796 h 3.45822 c 0.18177,0 0.32795,-0.14619 0.32795,-0.32796 v -1.66901 c 0,-0.18178 -0.14618,-0.32797 -0.32795,-0.32797 z m 1.74371,0.27363 h 6.9e-4 c 0.40077,2e-5 0.79759,0.003 1.10272,0.008 0.15265,0.003 0.282,0.007 0.37753,0.0105 0.0477,0.003 0.0882,0.005 0.11812,0.008 0.03,0.003 0.043,3.5e-4 0.0693,0.0105 l 0.0131,0.005 0.008,0.0105 c 0.0325,0.0357 0.0431,0.0791 0.0536,0.1358 0.0118,0.0566 0.0179,0.12444 0.0231,0.20304 0.009,0.15702 0.009,0.34974 0.003,0.54117 -0.007,0.19143 -0.0188,0.38226 -0.0306,0.52895 -0.007,0.0733 -0.0118,0.13428 -0.0184,0.18198 -0.003,0.0239 -0.008,0.0455 -0.0105,0.0618 -0.003,0.0163 -0.003,0.0267 -0.0105,0.0435 l -0.015,0.0313 h -3.4134 l -0.0105,-0.005 c -0.0282,-0.0118 -0.0405,-0.0315 -0.051,-0.0516 -0.0105,-0.0201 -0.0192,-0.0432 -0.0258,-0.0692 -0.0133,-0.0519 -0.024,-0.11787 -0.0306,-0.19488 -0.0144,-0.15406 -0.0183,-0.35141 -0.0156,-0.54933 0.003,-0.19793 0.0131,-0.3949 0.0285,-0.54932 0.008,-0.0771 0.0173,-0.14363 0.0279,-0.19488 0.005,-0.0257 0.0118,-0.0474 0.0183,-0.0665 0.008,-0.0191 0.0133,-0.0365 0.038,-0.0543 l 0.008,-0.008 0.0131,-0.003 c 0.0395,-0.009 0.10433,-0.0118 0.20847,-0.0156 0.10419,-0.004 0.24139,-0.008 0.39993,-0.0105 0.3169,-0.005 0.72029,-0.008 1.12106,-0.008 z m -0.14939,0.10801 c -0.34963,0.001 -0.69237,0.005 -0.96895,0.0105 -0.15804,0.003 -0.29516,0.007 -0.39791,0.0105 -0.0916,0.004 -0.14594,0.008 -0.16907,0.0105 -0.004,0.0105 -0.009,0.0276 -0.0131,0.0489 -0.009,0.0447 -0.0179,0.10774 -0.0258,0.18265 -0.0151,0.14973 -0.0259,0.346 -0.0285,0.54118 -0.003,0.19516 0.001,0.38893 0.0156,0.53641 0.007,0.0737 0.0152,0.13789 0.0258,0.17994 0.005,0.0198 0.0137,0.0315 0.0176,0.0407 h 3.29797 c 0.003,-0.0118 0.003,-0.0225 0.005,-0.0388 0.007,-0.0452 0.0105,-0.10696 0.0176,-0.17925 0.0118,-0.14457 0.024,-0.33212 0.0306,-0.52149 0.007,-0.18937 0.007,-0.37973 -0.003,-0.53099 -0.004,-0.0756 -0.0105,-0.14111 -0.0204,-0.19012 -0.008,-0.0414 -0.0164,-0.0628 -0.0204,-0.072 -0.007,-10e-4 -0.009,-6.9e-4 -0.0258,-0.003 -0.0273,-0.003 -0.0631,-0.003 -0.10997,-0.005 -0.0937,-0.004 -0.22271,-0.008 -0.37482,-0.0105 -0.30422,-0.005 -0.70291,-0.0105 -1.10339,-0.0105 -0.0501,0 -0.10013,-1.5e-4 -0.15007,0 z m -1.4463,0.16907 h 3.06439 v 0.0849 h -3.06439 z m 0,0.28791 h 3.06439 v 0.0849 h -3.06439 z m 0,0.28451 h 3.06439 v 0.0876 h -3.06439 z m 0,0.28789 h 3.06439 v 0.0842 h -3.06439 z m 0,0.28724 h 3.06439 v 0.0842 h -3.06439 z" />
      <path
         id="rect9594"
         style="fill:#000000;stroke-width:0.219434;stroke-linecap:round;stop-color:#000000"
         d="m 149.27901,122.2808 c 0.008,0.0639 0.0627,0.11064 0.13445,0.11064 h 0.18945 c -0.0185,-0.0342 -0.029,-0.0715 -0.0326,-0.11064 z m 0.50724,0 c 0.0145,0.0631 0.0724,0.10801 0.14598,0.10801 h 1.88765 c 0.0736,0 0.1316,-0.0449 0.146,-0.10801 z m 2.39556,0 c -0.004,0.0392 -0.0145,0.0765 -0.0319,0.11064 h 0.18944 c 0.0718,0 0.1268,-0.0469 0.13445,-0.11064 z m 0.53099,0 c -0.009,0.18237 -0.17418,0.32864 -0.37346,0.32864 h -2.92588 c -0.11747,0 -0.22365,-0.0506 -0.29265,-0.12969 v 1.02802 h 0.69802 v -0.28925 h 2.19187 v 0.28925 h 0.92617 c 0.0758,0 0.13716,0.0573 0.13716,0.12838 v 0.27704 h 0.0673 l -0.076,-1.63773 z m -2.6434,1.40623 c -0.19583,0 -0.36998,0.0888 -0.47871,0.22612 h 0.15346 c 0.0854,-0.0735 0.19925,-0.11813 0.32525,-0.11813 0.12601,0 0.24049,0.0447 0.3266,0.11813 h 0.15209 c -0.1088,-0.13732 -0.28287,-0.22612 -0.47869,-0.22612 z m 1.68531,0 c -0.18937,0.005 -0.35729,0.0924 -0.4631,0.22612 h 0.15211 c 0.0829,-0.0706 0.19259,-0.11484 0.31303,-0.11813 h 10e-4 c 0.004,-5e-5 0.009,0 0.0118,0 0.12601,0 0.23981,0.0447 0.32525,0.11813 h 0.15346 c -0.1088,-0.13732 -0.28289,-0.22612 -0.47871,-0.22612 -0.005,0 -0.0105,-10e-5 -0.015,0 z"
         sodipodi:nodetypes="csccccssccccscccssccccccssccccsccsccscccccsccscc" />
      <path
         id="rect1009"
         style="fill:#000000;stroke-width:2.45056;stroke-linecap:round;stop-color:#000000"
         d="m 149.93358,123.34345 v 0.28926 h -0.90715 c -0.0711,0 -0.12772,0.0573 -0.12772,0.12837 v 1.22155 c 0,0.0711 0.0566,0.12838 0.12772,0.12838 h 3.78686 c 0.0711,0 0.12837,-0.0573 0.12837,-0.12838 v -1.22155 c 0,-0.0711 -0.0573,-0.12837 -0.12837,-0.12837 h -0.90649 v -0.28926 z m 0.1881,0.46852 c 0.30845,0 0.5595,0.25106 0.5595,0.55951 0,0.30845 -0.25105,0.55951 -0.5595,0.55951 -0.30844,0 -0.55952,-0.25106 -0.55952,-0.55951 0,-0.30845 0.25108,-0.55951 0.55952,-0.55951 z m 1.5821,0 c 0.005,-1.2e-4 0.009,0 0.0143,0 0.30845,0 0.55951,0.25106 0.55951,0.55951 0,0.30845 -0.25106,0.55951 -0.55951,0.55951 -0.30845,0 -0.5595,-0.25106 -0.5595,-0.55951 0,-0.30362 0.24343,-0.55183 0.54525,-0.55951 z m -1.5821,0.10801 c -0.25088,0 -0.45155,0.20067 -0.45155,0.45155 0,0.25089 0.20067,0.45427 0.45155,0.45427 0.25088,0 0.45425,-0.20338 0.45425,-0.45427 0,-0.25088 -0.20337,-0.45155 -0.45425,-0.45155 z m 1.58481,0 c -0.24545,0.007 -0.44272,0.2046 -0.44272,0.45155 0,0.25089 0.20339,0.45427 0.45427,0.45427 0.25088,0 0.45155,-0.20338 0.45155,-0.45427 0,-0.25088 -0.20067,-0.45155 -0.45155,-0.45155 -0.004,0 -0.008,-9e-5 -0.0118,0 z"
         sodipodi:nodetypes="ccsssssssscccssssssssssssssssssssssss" />
      <path
         id="rect1113"
         style="fill:#000000;stroke-width:2.45056;stroke-linecap:round;stop-color:#000000"
         d="m 150.92563,118.88232 c -0.59444,10e-4 -1.19169,0.0301 -1.3302,0.0815 v 0.3463 h -0.89832 v 0.73945 h 0.52147 v 2.12463 c 0,0.18925 0.15705,0.34359 0.3463,0.34359 h 2.7052 c 0.18925,0 0.3463,-0.15434 0.3463,-0.34359 v -2.12463 h 0.52147 v -0.73945 h -0.899 v -0.3463 c -0.1272,-0.0569 -0.71879,-0.0829 -1.31322,-0.0815 z m -1.48636,1.16723 h 0.26956 v 2.10902 c 0,0.0502 0.0105,0.0983 0.0313,0.14124 h -0.17518 c -0.0715,0 -0.12561,-0.0541 -0.12561,-0.12561 z m 0.46715,0 h 2.02212 v 2.10902 c 0,0.0787 -0.0598,0.13852 -0.13852,0.13852 h -1.74508 c -0.0787,0 -0.13852,-0.0599 -0.13852,-0.13852 z m 2.21971,0 h 0.26956 v 2.12463 c 0,0.0715 -0.0541,0.12562 -0.12561,0.12562 h -0.17519 c 0.0202,-0.043 0.0313,-0.0911 0.0313,-0.14124 z" />
      <path
         id="rect1868"
         style="stroke-width:0.131397;stroke-linecap:round;stop-color:#000000"
         d="m 150.93445,129.69903 c -1.36096,0.001 -2.58924,0.0156 -2.69161,0.0476 -0.12456,0.133 -0.27111,2.86835 -0.18741,3.09495 h 1.46396 l -0.0407,-0.1521 0.33408,-1.90464 h 3.33871 l 0.33475,1.90464 -0.0407,0.1521 h 1.47753 c 0.0564,-0.26364 -0.0641,-2.79333 -0.19216,-3.09495 -0.0773,-0.031 -2.04656,-0.0497 -3.79638,-0.0476 z m -2.86001,3.27896 0.24853,1.41846 c 0.17522,0.0687 6.21173,0.0815 6.31823,0 l 0.24852,-1.41846 h -1.48026 l -0.25802,0.96556 h -3.33872 l -0.25734,-0.96556 z" />
      <path
         id="rect2378"
         style="fill:#000000;stroke-width:0.111701;stroke-linecap:round;stop-color:#000000"
         d="m 150.07821,131.06453 -0.0583,0.33339 h 2.95508 l -0.0583,-0.33339 z m -0.0964,0.54865 -0.0489,0.27974 h 3.1289 l -0.0489,-0.27974 z m -0.0869,0.49567 -0.0495,0.27976 h 3.30409 L 153.1,132.10885 Z m -0.0876,0.49772 -0.0135,0.0767 0.0536,0.20031 h 3.30002 l 0.0536,-0.20031 -0.0135,-0.0767 z m 0.0978,0.495 0.0746,0.27976 h 3.03521 l 0.0746,-0.27976 z m 0.13241,0.49568 0.0407,0.15211 h 2.83829 l 0.0407,-0.15211 z" />
      <path
         style="color:#000000;fill:#ffffff;stroke-width:0.0854083;-inkscape-stroke:none"
         d="m 153.97182,125.92532 h 3.06449"
         id="path7561" />
      <path
         style="color:#000000;fill:#ffffff;stroke-width:0.0854083;-inkscape-stroke:none"
         d="m 153.97182,126.21205 h 3.06449"
         id="path7567" />
      <path
         style="color:#000000;fill:#ffffff;stroke-width:0.0854083;-inkscape-stroke:none"
         d="m 153.97182,126.49877 h 3.06449"
         id="path7573" />
      <path
         style="color:#000000;fill:#ffffff;stroke-width:0.0854083;-inkscape-stroke:none"
         d="m 153.97182,127.07223 h 3.06449"
         id="path7585" />
      <path
         style="color:#000000;fill:#ffffff;stroke-width:0.0854083;-inkscape-stroke:none"
         d="m 153.97182,126.7855 h 3.06449"
         id="path7579" />
      <path
         id="rect4153"
         style="fill:#000000;stroke:none;stroke-width:0.0854082;stroke-linecap:round;stroke-miterlimit:4;stroke-dasharray:none;stroke-opacity:1;stop-color:#000000"
         d="m 156.93287,121.89511 c -0.12522,10e-4 -0.24752,0.0151 -0.27365,0.0367 l 0.55273,2.50284 h -1.33426 l -0.29334,-2.29303 c -0.0809,-0.0539 -0.49724,-0.0476 -0.56427,0 l 0.29335,2.29303 h -1.33428 l -0.15413,-2.4037 c -0.0687,-0.0375 -0.51707,-0.0263 -0.56426,0 0.0318,1.06517 0.0833,2.12126 0.15481,3.1934 h 4.36132 c 0.0755,-0.29304 0.0435,-0.52647 0.0435,-0.7897 0.0459,-0.097 -0.59617,-2.50284 -0.59617,-2.50284 -0.038,-0.0275 -0.1661,-0.0381 -0.2913,-0.0367 z m -2.98292,0.63624 0.0984,1.77155 h 1.16656 l -0.26074,-1.77155 z m 1.79125,0 0.25327,1.77155 h 1.06809 l -0.38499,-1.77155 z" />
      <path
         id="rect1423"
         style="stroke-width:0.0931398;stroke-linecap:round;stop-color:#000000"
         d="m 148.59782,128.79708 c 0.9953,-0.29209 4.88029,-0.24341 5.76853,0 v 0.79657 h -5.76853 z"
         sodipodi:nodetypes="ccccc" />
      <path
         id="rect1776"
         style="stroke-width:0.0854082;stroke-linecap:round;stop-color:#000000"
         d="m 149.66636,125.42032 c 0.14519,-0.0615 2.3768,-0.0444 2.50761,0 0.0464,0.023 0.0449,0.89916 0,0.94957 -0.0543,0.0373 -2.4262,0.0272 -2.50761,0 -0.0399,-0.0328 -0.057,-0.85074 0,-0.94957 z"
         sodipodi:nodetypes="ccccc" />
      <path
         id="rect3406"
         style="stroke-width:0.090445;stroke-linecap:round;stop-color:#000000"
         d="m 155.31682,121.18079 c -0.85317,-0.004 -1.72507,0.0845 -1.99359,0.20167 v 0.57716 c 0.16941,-0.016 0.56718,-0.0171 0.62333,0.0135 l 0.0305,0.4108 h 0.97983 l -0.0407,-0.30013 c 0.067,-0.0476 0.68837,-0.0539 0.76931,0 l 0.0407,0.30013 h 0.90172 l -0.11471,-0.50994 c 0.0262,-0.0216 0.28355,-0.0367 0.40877,-0.0367 0.0181,0 0.0381,-4.2e-4 0.0591,0 v -0.45494 c -0.34826,-0.14145 -1.0007,-0.1991 -1.66427,-0.20167 z" />
      <path
         id="path6091"
         style="color:#000000;fill:#000000;stroke-width:0.347655px;-inkscape-stroke:none"
         d="m 163.5974,113.5249 c -0.046,10e-4 -0.0963,0.0141 -0.13784,0.0407 -0.0194,0.009 -0.29966,0.1481 -0.62605,0.29876 -0.16893,0.0779 -0.34685,0.15722 -0.49839,0.22068 -0.15153,0.0635 -0.28694,0.11182 -0.32865,0.12089 l -0.008,0.003 -0.0105,0.003 c -0.0289,0.009 -0.13113,0.0213 -0.25123,0.0183 -0.1201,-0.003 -0.26265,-0.015 -0.39519,-0.0305 -0.26507,-0.0311 -0.495,-0.0748 -0.495,-0.0748 l -0.0516,-0.0105 -0.20778,0.087 c -0.0313,0.0118 -0.0497,0.025 -0.072,0.0386 -0.0261,0.0162 -0.0543,0.0347 -0.0896,0.0591 -0.0706,0.0487 -0.16146,0.11497 -0.27229,0.1976 -0.22168,0.16519 -0.52001,0.3946 -0.86981,0.66679 -0.69962,0.54439 -1.60519,1.26096 -2.50014,1.9739 -1.78987,1.42588 -3.54106,2.83827 -3.54106,2.83827 l -0.0258,0.0204 -0.0156,0.0258 c -0.14668,0.23809 -0.1059,0.50844 -0.0508,0.71092 0.0551,0.20248 0.13852,0.35648 0.13852,0.35648 l 0.015,0.0285 0.0258,0.0204 c 0.072,0.0612 0.0968,0.0495 0.13377,0.0564 0.0139,0.003 0.0288,0.004 0.0442,0.007 0.43251,-0.0788 1.12777,-0.13126 1.81364,-0.12837 h 7e-4 c 0.41918,10e-4 0.83217,0.0243 1.18013,0.0727 0.17816,-0.0415 0.5467,-0.12825 0.92346,-0.22476 0.26024,-0.0667 0.521,-0.13757 0.72383,-0.20031 0.10144,-0.0314 0.18811,-0.0587 0.25667,-0.0869 0.0343,-0.0141 0.0627,-0.0292 0.0924,-0.0469 0.025,-0.0148 0.0608,-0.0179 0.0909,-0.0821 l 4.94662,-5.14489 0.57989,-0.70074 0.008,-0.008 c 0.0823,-0.12641 0.0853,-0.27236 0.0618,-0.40267 -0.0235,-0.13035 -0.0766,-0.25537 -0.14123,-0.36463 -0.0648,-0.10919 -0.13998,-0.20321 -0.22883,-0.27228 -0.0444,-0.0346 -0.0911,-0.0648 -0.15618,-0.0795 l 7e-4,7e-4 c -0.0163,-0.004 -0.0346,-0.007 -0.0536,-0.007 -0.003,-3e-5 -0.005,-9e-5 -0.009,0 z m -0.23018,0.35716 c 0.27818,0 0.50518,0.23041 0.50518,0.50858 0,0.27818 -0.227,0.50519 -0.50518,0.50519 -0.27817,0 -0.50587,-0.22701 -0.50587,-0.50519 0,-0.27817 0.2277,-0.50858 0.50587,-0.50858 z m 0,0.20031 c -0.17095,0 -0.30827,0.13732 -0.30827,0.30827 0,0.17094 0.13732,0.30488 0.30827,0.30488 0.17095,0 0.30759,-0.13394 0.30759,-0.30488 0,-0.17095 -0.13664,-0.30827 -0.30759,-0.30827 z m -1.14346,0.63488 c 0.003,-9e-5 0.004,10e-6 0.007,0 0.0138,-6e-5 0.0268,10e-4 0.0386,0.004 l 6.9e-4,7e-4 c 0.0476,0.0105 0.083,0.0339 0.1155,0.0591 0.0649,0.0503 0.11984,0.11786 0.16705,0.19759 0.0472,0.0796 0.0854,0.16914 0.10249,0.26414 0.0172,0.095 0.0138,0.20313 -0.0461,0.29537 l -0.005,0.005 -0.4237,0.5113 -3.61848,3.76445 -0.008,0.008 c -0.005,0.005 -0.009,0.0105 -0.0131,0.015 -0.0131,0.0118 -0.0255,0.0192 -0.036,0.0258 -0.0217,0.0131 -0.0415,0.0227 -0.0665,0.0332 -0.0501,0.0205 -0.11339,0.0417 -0.1874,0.0645 -0.14794,0.0457 -0.33912,0.0974 -0.52895,0.14599 -0.37969,0.0974 -0.75439,0.18198 -0.75439,0.18198 l -0.0131,0.003 -0.0105,0.003 c 0,0 -0.51047,0.018 -1.03142,0.0285 -0.26047,0.005 -0.52315,0.009 -0.72927,0.005 -0.10301,-0.001 -0.1923,-0.005 -0.26141,-0.0105 -0.0347,-0.003 -0.0627,-0.005 -0.0896,-0.0105 -0.0269,-0.005 -0.0452,0.003 -0.0978,-0.0414 l -0.0177,-0.015 -0.0135,-0.021 c 0,0 -0.0597,-0.11103 -0.0999,-0.2587 -0.0402,-0.14771 -0.069,-0.34781 0.038,-0.52148 l 0.0105,-0.0176 0.0176,-0.0131 c 0,0 1.27869,-1.03157 2.58432,-2.07167 0.65281,-0.52006 1.31215,-1.04241 1.82249,-1.43951 0.25516,-0.19855 0.4718,-0.36704 0.63352,-0.48753 0.0808,-0.0603 0.14892,-0.1084 0.2003,-0.14396 0.0258,-0.0177 0.0482,-0.0317 0.0673,-0.0435 0.0191,-0.0118 0.0285,-0.0201 0.0611,-0.0306 l 0.14124,-0.0591 0.036,0.005 c 0,0 0.17127,0.0309 0.36463,0.0536 0.0967,0.0118 0.19686,0.0205 0.2845,0.0231 0.0876,10e-4 0.16354,-0.007 0.1847,-0.0131 l 0.008,-0.003 h 0.005 c 0.0305,-0.007 0.12785,-0.0434 0.23834,-0.0896 0.1105,-0.0463 0.24137,-0.10262 0.36463,-0.15957 0.24643,-0.11366 0.46715,-0.22339 0.46715,-0.22339 l -0.007,0.005 c 0.0297,-0.0183 0.0648,-0.028 0.0971,-0.0292 z m 0.001,0.26075 c -0.0162,0.008 -0.21348,0.10433 -0.45358,0.21524 -0.12483,0.0577 -0.25482,0.11878 -0.37006,0.16703 -0.113,0.0473 -0.20444,0.0802 -0.27907,0.0971 l -0.005,0.003 c -0.0792,0.0235 -0.16154,0.0258 -0.25667,0.0231 -0.1,-0.003 -0.20941,-0.0133 -0.31098,-0.0251 -0.18249,-0.0215 -0.31025,-0.0464 -0.34087,-0.0516 l -0.0821,0.036 -0.005,0.003 -0.005,0.003 c 0.005,-10e-4 0.008,-0.003 0.009,-0.003 -0.001,0.001 -0.008,0.004 -0.0143,0.008 -0.0131,0.008 -0.0335,0.0197 -0.057,0.036 -0.047,0.0326 -0.11261,0.082 -0.19216,0.14124 -0.15904,0.11852 -0.37435,0.2848 -0.62878,0.48278 -0.50886,0.39595 -1.16937,0.91703 -1.82178,1.43679 -1.29047,1.02804 -2.52605,2.02558 -2.55377,2.04792 -0.0423,0.0766 -0.0414,0.19889 -0.0105,0.31098 0.024,0.0882 0.047,0.1239 0.0618,0.15346 0.0118,0.001 0.0177,0.004 0.0332,0.005 0.0593,0.005 0.14637,0.009 0.24649,0.0105 0.20028,0.003 0.45951,-1.8e-4 0.7184,-0.005 0.51001,-0.0105 0.99688,-0.028 1.01173,-0.0285 0.008,-10e-4 0.3672,-0.0841 0.73876,-0.17926 0.18776,-0.0481 0.37853,-0.0979 0.51877,-0.14124 0.0702,-0.0218 0.12667,-0.0419 0.16365,-0.057 0.0148,-0.007 0.0233,-0.0118 0.0285,-0.015 l 3.62118,-3.76717 0.40537,-0.49026 c 0.0105,-0.0187 0.0173,-0.0524 0.008,-0.10525 -0.0105,-0.0555 -0.0349,-0.12469 -0.0692,-0.18265 -0.0343,-0.0579 -0.0784,-0.10473 -0.10525,-0.12562 -0.003,-10e-4 -7.2e-4,-10e-4 -0.003,-0.003 z" />
      <path
         id="rect6931"
         style="fill:#000000;stroke:none;stroke-width:0.25572;stroke-linecap:round;stroke-miterlimit:4;stroke-dasharray:none;stop-color:#000000"
         d="m 144.20949,126.95853 c -0.16084,0.008 -0.2879,0.14058 -0.2879,0.30352 v 0.90783 c 0,0.16819 0.13534,0.30353 0.30353,0.30353 h 4.3389 c 0.12325,0 0.22869,-0.0729 0.27635,-0.17791 h 7.35781 c 0.0405,-0.0444 0.0671,-0.4703 0,-0.51672 h -7.33065 v -0.51673 c 0,-0.16819 -0.13533,-0.30352 -0.30351,-0.30352 h -4.3389 c -0.005,0 -0.0105,-2.6e-4 -0.0156,0 z"
         sodipodi:nodetypes="cssssccccsssc" />
      <path
         id="rect10123"
         style="stroke-width:0.219434;stroke-linecap:round;stop-color:#000000"
         d="m 144.41496,123.94613 c 0.75624,-0.25314 3.72881,-0.18172 4.05689,0 v 2.78979 h -4.05689 z"
         sodipodi:nodetypes="ccccc" />
      <path
         id="rect11637"
         style="stroke-width:0.219434;stroke-linecap:round;stop-color:#000000"
         d="m 147.92532,121.08265 c -0.007,0.0137 -0.0118,0.0473 -0.0156,0.0917 h -0.0143 c -0.0339,0 -0.0618,0.0272 -0.0618,0.0611 v 0.0251 c 0,0.0339 0.0279,0.0611 0.0618,0.0611 h 0.007 c -0.004,0.15185 0.003,0.31943 0.0231,0.32933 h 1.13327 v -0.56834 z" />
      <path
         id="rect12068"
         style="stroke-width:0.241034;stroke-linecap:round;stop-color:#000000"
         d="m 148.37965,120.77007 c 0,0 0.37744,-0.0954 0.67868,-0.10551 v 0.35469 h -0.80602 c 0,0 0.0526,-0.23403 0.12733,-0.24915 z"
         sodipodi:nodetypes="ccccc" />
      <path
         id="rect12430"
         style="stroke-width:0.219434;stroke-linecap:round;stop-color:#000000"
         d="m 152.70701,120.14342 0.16474,-5.7e-4 0.17512,2.0499 -0.33552,5e-4 z"
         sodipodi:nodetypes="ccccc" />
      <path
         id="rect12928"
         style="stroke-width:0.219434;stroke-linecap:round;stop-color:#000000"
         d="m 145.53085,120.51128 c -0.2452,0.003 -0.49177,0.0434 -0.624,0.12693 v 0.6797 a 0.30158564,0.30158564 0 0 1 0.26481,0.29945 0.30158564,0.30158564 0 0 1 -0.26481,0.29672 v 0.30624 a 0.30158564,0.30158564 0 0 1 0.26481,0.29945 0.30158564,0.30158564 0 0 1 -0.26481,0.29672 v 0.8868 c 0.36796,-0.036 0.8239,-0.0522 1.28264,-0.0536 v -0.83315 a 0.30158564,0.30158564 0 0 1 -0.2648,-0.29672 0.30158564,0.30158564 0 0 1 0.2648,-0.29673 v -0.30896 a 0.30158564,0.30158564 0 0 1 -0.2648,-0.29672 0.30158564,0.30158564 0 0 1 0.2648,-0.29673 v -0.68242 c -0.10472,-0.0845 -0.38073,-0.13008 -0.65864,-0.12693 z m 0.017,0.41828 a 0.30158562,0.30158562 0 0 1 0.30216,0.30216 0.30158562,0.30158562 0 0 1 -0.30216,0.30148 0.30158562,0.30158562 0 0 1 -0.30148,-0.30148 0.30158562,0.30158562 0 0 1 0.30148,-0.30216 z m 0,0.83382 a 0.30158562,0.30158562 0 0 1 0.30216,0.30148 0.30158562,0.30158562 0 0 1 -0.30216,0.30149 0.30158562,0.30158562 0 0 1 -0.30148,-0.30149 0.30158562,0.30158562 0 0 1 0.30148,-0.30148 z m 0,0.83384 a 0.30158562,0.30158562 0 0 1 0.30216,0.30148 0.30158562,0.30158562 0 0 1 -0.30216,0.30147 0.30158562,0.30158562 0 0 1 -0.30148,-0.30147 0.30158562,0.30158562 0 0 1 0.30148,-0.30148 z" />
      <path
         id="rect14079"
         style="stroke-width:0.219434;stroke-linecap:round;stop-color:#000000"
         d="m 145.20618,119.11005 c 0.10446,-0.11064 0.65571,-0.0997 0.7802,0 v 1.3346 c -0.18003,-0.0469 -0.65065,-0.048 -0.7802,0 z"
         sodipodi:nodetypes="ccccc" />
      <path
         id="rect207"
         style="fill:#000000;stroke-width:0.371772"
         d="m 154.85104,130.02716 c 0.11129,0.64853 0.20244,2.69106 0.15209,2.92655 l -0.0332,0.13648 -0.19488,1.11087 h 0.49704 c 0.39612,-0.86654 0.28575,-3.35305 0,-4.1739 z"
         sodipodi:nodetypes="ccccccc" />
      <path
         id="rect207-5"
         style="display:inline;fill:#000000;stroke-width:0.371772"
         d="m 148.05778,130.02716 c -0.11129,0.64853 -0.12982,2.69106 -0.0795,2.92655 l 0.0332,0.13648 0.19487,1.11087 h -0.49703 c -0.39613,-0.86654 -0.28575,-3.35305 0,-4.1739 z"
         sodipodi:nodetypes="ccccccc" />
      <path
         id="rect1330"
         style="stroke-width:0.347655"
         d="m 157.51683,129.11508 c -0.44351,0.003 -0.87059,0.0279 -1.05723,0.0761 v 0.24105 h -0.51062 c 0.0269,0.0859 0.0533,0.48962 0.0733,1.02599 h -0.90037 v 3.28847 h 0.90783 c -0.0173,0.31905 -0.0432,0.54384 -0.0808,0.59821 h 3.15944 c 0.20598,-0.27549 0.31747,-0.95429 0.35038,-1.73217 h 0.17178 c 0.14201,-0.1344 0.14018,-0.47531 0,-0.61451 h -0.16295 c -6e-4,-0.0725 -2.4e-4,-0.14466 -0.003,-0.21728 h 0.12496 c 0.142,-0.13439 0.14017,-0.4753 0,-0.61452 h -0.15413 c -0.004,-0.0577 -0.009,-0.11576 -0.0135,-0.17246 h 0.0958 c 0.142,-0.13439 0.14018,-0.47531 0,-0.61452 h -0.16704 c -0.0603,-0.39829 -0.14179,-0.73402 -0.24309,-0.94721 h -0.3463 v -0.24105 c -0.20588,-0.0498 -0.68203,-0.0757 -1.15636,-0.0761 -0.0297,-3e-5 -0.0594,-1.7e-4 -0.0889,0 z m -0.60704,0.71636 h 1.61401 c 0.18391,2e-5 0.33612,0.14949 0.33612,0.3334 v 0.31981 c 0,0.18387 -0.15221,0.33611 -0.33612,0.33611 h -1.61401 c -0.18391,0 -0.33408,-0.15224 -0.33408,-0.33611 v -0.31981 c 0,-0.18391 0.15017,-0.3334 0.33408,-0.3334 z m 0,0.21593 c -0.0675,0 -0.11813,0.0499 -0.11813,0.11747 v 0.31914 c 0,0.0675 0.0506,0.11812 0.11813,0.11812 h 1.61401 c 0.0675,0 0.11813,-0.0506 0.11813,-0.11812 v -0.31914 c 0,-0.0675 -0.0506,-0.11747 -0.11813,-0.11747 z m 0.1616,1.26568 h 1.61402 c 0.1839,2e-5 0.33612,0.1495 0.33612,0.3334 v 0.48141 c 0,0.18389 -0.15222,0.33612 -0.33612,0.33612 h -1.61402 c -0.1839,0 -0.33408,-0.15223 -0.33408,-0.33612 v -0.48141 c 0,-0.1839 0.15018,-0.3334 0.33408,-0.3334 z m 0,0.21525 c -0.0675,0 -0.11813,0.0506 -0.11813,0.11812 v 0.48142 c 0,0.0675 0.0506,0.11747 0.11813,0.11747 h 1.61402 c 0.0675,0 0.11813,-0.0499 0.11813,-0.11747 v -0.48142 c 0,-0.0675 -0.0506,-0.11812 -0.11813,-0.11812 z m -0.17247,1.42592 h 1.6147 c 0.18391,1e-5 0.33612,0.14949 0.33612,0.33341 v 0.36735 c 0,0.18387 -0.15221,0.3361 -0.33612,0.3361 h -1.6147 c -0.1839,0 -0.3334,-0.15223 -0.3334,-0.3361 v -0.36735 c 0,-0.18392 0.1495,-0.33341 0.3334,-0.33341 z m 0,0.21593 c -0.0675,0 -0.11747,0.0499 -0.11747,0.11747 v 0.36734 c 0,0.0675 0.0499,0.11813 0.11747,0.11813 h 1.6147 c 0.0675,0 0.11747,-0.0506 0.11747,-0.11813 v -0.36734 c 0,-0.0675 -0.0499,-0.11747 -0.11747,-0.11747 z" />
      <path
         id="rect9816-6"
         style="display:inline;fill:#000000;stroke:none;stroke-width:0.169095;stroke-linecap:round;stroke-miterlimit:4;stroke-dasharray:none"
         d="m 146.38044,134.57013 c 0.21823,0.0597 0.43905,0.54391 0.60092,1.03007 0.007,-0.001 0.0131,-0.003 0.019,-0.004 l 0.001,-6.9e-4 c 0.003,-3.6e-4 0.007,-3.6e-4 0.0105,-7e-4 l 0.53642,-0.0251 c 0.11668,-0.009 0.21338,0.078 0.21864,0.19488 l 0.004,0.11405 c 0.0615,0.005 0.11366,0.0524 0.12286,0.11616 l 0.0131,0.0896 c 0.0105,0.0745 -0.0409,0.14295 -0.1155,0.15346 l -0.007,10e-4 6.8e-4,0.0346 c 0.004,0.11694 -0.0851,0.21895 -0.20165,0.22815 l -0.31099,0.0244 c -0.0183,10e-4 -0.036,10e-4 -0.053,-0.003 0.007,0.0494 0.0105,0.0893 0.008,0.10932 h -0.41352 l -0.20574,-1.17265 c -0.0318,-0.18124 -0.20852,-0.30478 -0.38976,-0.27297 l -0.36395,0.0639 c -0.18123,0.0318 -0.30475,0.20783 -0.27297,0.38907 l 0.17451,0.99272 h -0.23018 l -0.18673,-1.23173 c -0.0272,-0.18196 -0.19765,-0.30729 -0.37957,-0.27975 l -0.36803,0.0557 c -0.18196,0.0272 -0.30732,0.19764 -0.27974,0.37957 l 0.16296,1.07624 h -0.39383 c -0.0105,-0.0118 -0.0195,-0.0452 -0.0265,-0.0924 l -0.0244,0.003 c 0.005,0.0188 0.007,0.0389 0.004,0.0598 l -0.009,0.0617 h -0.31166 l 0.0135,-0.0999 c 2.6e-4,-0.001 0.001,-0.004 0.001,-0.005 -0.10459,-0.008 -0.19262,-0.0895 -0.20369,-0.19623 l -0.004,-0.0347 h -0.007 c -0.0753,0 -0.1358,-0.0606 -0.1358,-0.13581 v -0.0903 c 0,-0.0644 0.0445,-0.11826 0.10459,-0.13241 l -0.0118,-0.11406 c -0.0118,-0.11628 0.072,-0.21595 0.18877,-0.2234 l 0.31099,-0.0197 c 0.004,-2.3e-4 0.008,-6.9e-4 0.0105,-6.9e-4 0.0173,-2.4e-4 0.0346,0.001 0.051,0.005 0.009,-0.51145 0.0367,-1.0268 0.0476,-1.0484 z m -1.36007,0.69532 c 0.0887,0.004 0.16334,0.0673 0.17722,0.15888 l 0.18334,1.21002 h -0.75778 l -0.16637,-1.09797 c -0.0154,-0.10486 0.0522,-0.19735 0.15687,-0.21322 l 0.36801,-0.0557 c 0.0131,-0.003 0.026,-0.003 0.0388,-0.003 z m 1.26229,0.0645 c 0.0888,0.003 0.16529,0.0657 0.1813,0.15685 l 0.20098,1.14755 h -0.76049 l -0.17858,-1.01784 c -0.018,-0.10433 0.0499,-0.20104 0.15413,-0.21933 v -7e-4 l 0.36396,-0.0639 c 0.0131,-0.003 0.026,-0.003 0.0386,-0.003 z m 1.33698,1.17673 -7e-4,0.15007 -0.30894,0.0421 v -0.15007 z m -0.001,0.23631 v 0.15005 l -0.30962,0.0421 v -0.15005 z m -3.6042,0.008 -0.0204,0.1487 h -0.31234 l 0.0204,-0.1487 z m 3.20223,0.0135 c 0,0 -0.0143,1.31088 -0.0448,2.27538 0.0225,-0.008 0.0464,-0.0118 0.072,-0.0118 l 0.0604,7e-4 7e-4,-0.11681 0.30895,-0.042 -6.9e-4,0.15007 -0.0808,0.0105 0.0577,7e-4 c 0.004,-1.4e-4 0.007,-2.4e-4 0.0105,0 l -6.9e-4,-7e-4 c 0.11195,0.007 0.20311,0.1 0.20574,0.21321 l 0.003,0.0761 c 0.0654,0.0131 0.11326,0.0721 0.10932,0.14056 l -0.005,0.0903 c -0.003,0.0577 -0.0419,0.10486 -0.0937,0.12154 l 0.003,0.0808 c 0.003,0.11681 -0.0888,0.21043 -0.20575,0.20913 l -0.49025,-0.0105 c -0.004,0.0351 -0.009,0.0606 -0.0135,0.0754 -0.11668,0.13759 -0.53099,0.22136 -0.53099,0.22136 -0.11641,0 -0.20981,0.0941 -0.20981,0.21049 v 1.61538 h -1.03482 c 0.0372,-0.0384 0.0604,-0.0908 0.0604,-0.1487 v -0.33477 c 0,-0.10945 -0.082,-0.19871 -0.18808,-0.21183 h 0.0143 c 0.066,0 0.11878,-0.053 0.11878,-0.11879 v -0.11142 c 0,-0.066 -0.053,-0.11879 -0.11878,-0.11879 h -0.0367 v -0.0257 c 0,-0.11997 -0.0967,-0.21661 -0.21661,-0.21661 h -1.00697 c -0.11997,0 -0.21661,0.0966 -0.21661,0.21661 v 0.0257 h -0.0367 c -0.0658,0 -0.11879,0.053 -0.11879,0.11879 v 0.11142 c 0,0.066 0.053,0.11879 0.11879,0.11879 h 0.0135 c -0.10604,0.0131 -0.18741,0.10235 -0.18741,0.21183 v 0.33477 c 0,0.0578 0.0226,0.11037 0.0598,0.1487 h -0.23224 c 0,0 0.10144,-0.75355 0.22069,-1.63574 l -0.31642,-0.015 c -0.11682,-0.005 -0.2032,-0.10354 -0.19352,-0.22 l 0.007,-0.0808 c -0.0507,-0.0196 -0.0869,-0.0685 -0.0869,-0.12627 v -0.0909 c 0,-0.0686 0.0508,-0.12443 0.11681,-0.13376 l 0.007,-0.0761 c 0.009,-0.10945 0.0993,-0.19485 0.2071,-0.20032 l 0.0238,-0.1711 h 0.31166 l -0.0251,0.18401 0.0564,0.003 c 0.007,2.8e-4 0.0118,10e-4 0.0184,0.003 0.18216,-1.33388 0.37263,-2.69603 0.39925,-2.74866 h 0.39995 l -0.16975,2.25637 c -0.0138,0.1835 0.1268,0.34404 0.31031,0.35785 l 0.3687,0.0279 c 0.18348,0.0138 0.34607,-0.12404 0.35988,-0.3076 l 0.17586,-2.33444 h 0.24105 l -0.12088,2.34396 c -0.009,0.18375 0.13198,0.34085 0.31574,0.35037 l 0.37142,0.0197 c 0.18375,0.009 0.34357,-0.13266 0.3531,-0.31643 l 0.1243,-2.3976 z m -0.52556,0 -0.1243,2.39013 c -0.005,0.10577 -0.0938,0.18271 -0.19964,0.17723 l -0.37142,-0.0191 c -0.10577,-0.005 -0.18269,-0.0912 -0.17721,-0.19691 l 0.12154,-2.35142 z m -1.28605,0 -0.17451,2.32359 c -0.008,0.10551 -0.0982,0.18313 -0.20371,0.17518 l -0.36802,-0.0279 c -0.10551,-0.008 -0.18312,-0.0982 -0.17519,-0.20371 l 0.17044,-2.26722 z m 2.2129,0.21457 v 0.15005 l -0.30894,0.042 v -0.15006 z m -3.63612,0.005 -0.0204,0.14871 h -0.31234 l 0.0204,-0.14871 z m 3.63545,0.23222 -7e-4,0.14803 -0.30827,0.0421 v -0.14802 z m -3.66804,10e-4 -0.0204,0.1487 h -0.31168 l 0.0204,-0.1487 z m 3.66804,0.23493 v 0.15006 l -0.30964,0.0421 v -0.15074 z m -3.70064,7e-4 -0.0204,0.14667 h -0.31166 l 0.0204,-0.14667 z m -0.0319,0.23357 -0.0204,0.14872 H 143.552 l 0.0204,-0.14872 z m 3.73187,0.001 v 0.15007 l -0.30962,0.042 6.8e-4,-0.15007 z m -3.76377,0.23223 -0.0204,0.1487 h -0.31234 l 0.0204,-0.1487 z m 3.76309,0.004 v 0.15007 l -0.30963,0.042 v -0.15007 z m -3.79569,0.2302 -0.0204,0.1487 h -0.31234 l 0.0204,-0.1487 z m 3.79569,0.005 v 0.15007 l -0.30963,0.042 v -0.15007 z m -3.82761,0.22816 -0.0204,0.1487 h -0.31235 l 0.0204,-0.1487 z m 3.82694,0.008 -7e-4,0.15006 -0.30895,0.042 v -0.15074 z m -3.85952,0.22543 -0.0204,0.1487 h -0.31236 l 0.0204,-0.1487 z m 3.85884,0.0131 -7e-4,0.14733 -0.30963,0.0421 7e-4,-0.14735 z m -3.89144,0.22339 -0.0204,0.14599 h -0.31234 l 0.0204,-0.14599 z m -0.0326,0.23358 -0.0204,0.14871 h -0.31167 l 0.0204,-0.14871 z m 1.21748,1.78785 c 0.0827,0 0.14938,0.0674 0.14938,0.15007 v 0.0489 h 0.0386 c 0.075,-2.7e-4 0.13583,0.0608 0.1358,0.13581 -6.5e-4,0.0745 -0.0612,0.13404 -0.1358,0.13376 h -0.0386 v 0.0836 h 0.0319 c 0.0537,0 0.14619,0.0281 0.17247,0.0706 0,0 7e-4,7e-4 7e-4,7e-4 0,0 0,6.9e-4 0,6.9e-4 0.0167,0.0231 0.0258,0.0503 0.0258,0.0787 v 0.37005 c -7.6e-4,0.0628 -0.0901,0.11721 -0.15142,0.13101 -0.015,0.005 -0.031,0.008 -0.0476,0.008 h -0.0319 v 0.0944 h 0.0339 c 0.0745,6.9e-4 0.13471,0.0612 0.13444,0.13579 2.7e-4,0.0745 -0.0598,0.13515 -0.13444,0.1358 h -0.0339 v 0.0258 c 0,0.0827 -0.0667,0.1487 -0.14939,0.1487 h -0.93092 c -0.0827,0 -0.14871,-0.0661 -0.14871,-0.1487 v -0.0258 h -0.0455 c -0.0745,-6.8e-4 -0.13471,-0.0612 -0.13444,-0.1358 -2.8e-4,-0.0745 0.0598,-0.13515 0.13444,-0.13579 h 0.0455 v -0.0944 h -0.0326 c -0.0827,0 -0.20302,-0.0661 -0.20302,-0.1487 v -0.36124 c 0,-0.0827 0.12036,-0.14938 0.20302,-0.14938 h 0.0326 v -0.0836 h -0.0394 c -0.0745,2.6e-4 -0.13516,-0.0591 -0.1358,-0.13377 -4e-5,-0.075 0.0608,-0.13607 0.1358,-0.13581 h 0.0394 v -0.0489 c 0,-0.0827 0.0661,-0.15007 0.14871,-0.15007 z m 1.11426,1.35192 c 0.11142,0.005 0.19963,0.0978 0.19963,0.2105 v 0.36191 c 0,0.11641 -0.0941,0.21049 -0.2105,0.21049 h -2.76631 c -0.11641,0 -0.21049,-0.0941 -0.21049,-0.21049 v -0.36191 c 0,-0.11642 0.0941,-0.2105 0.21049,-0.2105 h 0.34902 c -0.003,0.0105 -0.005,0.0223 -0.005,0.0339 v 0.11142 c 0,0.0658 0.053,0.11813 0.11878,0.11813 h 0.0367 v 0.009 c 0,0.11996 0.0966,0.21661 0.21661,0.21661 h 1.00766 c 0.11996,0 0.21659,-0.0966 0.21659,-0.21661 v -0.009 h 0.0367 c 0.0658,0 0.11879,-0.0523 0.11879,-0.11813 v -0.11142 c 0,-0.0118 -0.001,-0.0233 -0.005,-0.0339 h 0.67494 c 0.004,0 0.008,-1.8e-4 0.0105,0 z m -0.0272,0.90987 c 0.15123,0 0.27297,0.12168 0.27297,0.27297 v 0.17451 l -0.65798,-0.0673 v 0.93365 h -0.49431 l -0.31236,-1.17538 h -2.09544 l -0.10524,1.17538 c -0.049,-2.4e-4 -0.0949,-0.0134 -0.13445,-0.036 v -0.92888 l -0.13715,0.009 v -0.0849 c 0,-0.15124 0.12167,-0.27295 0.27295,-0.27296 z m -1.31797,0.30285 0.32932,1.23919 h -2.2455 l 0.10998,-1.23919 z m -2.29643,0.20778 v 1.03141 h -1.15772 l 0.22611,-0.96963 z m 3.34414,0.0105 1.56311,0.1589 0.15412,0.86235 h -1.71723 z" />
      <path
         id="rect1330-8"
         style="display:inline;stroke-width:0.347655"
         d="m 145.18537,129.13606 c 0.4435,0.003 0.87059,0.0279 1.05722,0.0761 v 0.24105 h 0.51063 c -0.0269,0.0859 -0.0533,0.48963 -0.0733,1.02599 h 0.90037 v 3.28847 h -0.90784 c 0.0174,0.31906 0.0432,0.54384 0.0808,0.59821 h -3.15945 c -0.20598,-0.27549 -0.31747,-0.95428 -0.35037,-1.73217 h -0.17179 c -0.142,-0.13439 -0.14017,-0.4753 0,-0.61451 h 0.16296 c 5.9e-4,-0.0725 2.4e-4,-0.14465 0.003,-0.21727 h -0.12496 c -0.142,-0.1344 -0.14017,-0.47531 0,-0.61451 h 0.15413 c 0.004,-0.0577 0.009,-0.11576 0.0135,-0.17247 h -0.0958 c -0.142,-0.1344 -0.14017,-0.47531 0,-0.61451 h 0.16705 c 0.0603,-0.3983 0.14179,-0.73404 0.24308,-0.94723 h 0.3463 v -0.24105 c 0.20589,-0.0498 0.68203,-0.0757 1.15637,-0.0761 0.0297,-2e-5 0.0594,-1.7e-4 0.089,0 z m 0.60704,0.71637 h -1.61402 c -0.1839,1e-5 -0.33611,0.14949 -0.33611,0.33339 v 0.31982 c 0,0.18388 0.15221,0.33611 0.33611,0.33611 h 1.61402 c 0.18391,0 0.33408,-0.15223 0.33408,-0.33611 v -0.31982 c 0,-0.1839 -0.15017,-0.33339 -0.33408,-0.33339 z m 0,0.21592 c 0.0675,0 0.11813,0.0499 0.11813,0.11747 v 0.31914 c 0,0.0675 -0.0506,0.11813 -0.11813,0.11813 h -1.61402 c -0.0675,0 -0.11812,-0.0506 -0.11812,-0.11813 v -0.31914 c 0,-0.0675 0.0506,-0.11747 0.11812,-0.11747 z m -0.1616,1.26569 h -1.61402 c -0.18391,1e-5 -0.33612,0.14949 -0.33612,0.33339 v 0.48142 c 0,0.18389 0.15221,0.33611 0.33612,0.33611 h 1.61402 c 0.1839,0 0.33407,-0.15222 0.33407,-0.33611 v -0.48142 c 0,-0.1839 -0.15017,-0.33339 -0.33407,-0.33339 z m 0,0.21524 c 0.0675,0 0.11812,0.0506 0.11812,0.11813 v 0.48141 c 0,0.0675 -0.0506,0.11747 -0.11812,0.11747 h -1.61402 c -0.0675,0 -0.11813,-0.0499 -0.11813,-0.11747 v -0.48141 c 0,-0.0675 0.0506,-0.11813 0.11813,-0.11813 z m 0.17247,1.42594 h -1.6147 c -0.18391,1e-5 -0.33612,0.14949 -0.33612,0.33339 v 0.36735 c 0,0.18389 0.15221,0.3361 0.33612,0.3361 h 1.6147 c 0.1839,0 0.33339,-0.15221 0.33339,-0.3361 v -0.36735 c 0,-0.1839 -0.14949,-0.33339 -0.33339,-0.33339 z m 0,0.21592 c 0.0675,0 0.11747,0.0499 0.11747,0.11747 v 0.36735 c 0,0.0675 -0.0499,0.11813 -0.11747,0.11813 h -1.6147 c -0.0675,0 -0.11747,-0.0506 -0.11747,-0.11813 v -0.36735 c 0,-0.0675 0.0499,-0.11747 0.11747,-0.11747 z" />
      <path
         id="rect16312"
         style="fill:#000000;stroke:none;stroke-width:0.45143;stroke-linecap:round;stroke-miterlimit:4;stroke-dasharray:none"
         d="m 139.29956,126.50572 c -0.0779,0.004 -0.13973,0.0683 -0.13973,0.14731 v 0.0942 c 0,0.008 0.001,0.0158 0.003,0.0235 h -0.10854 v 0.1431 l 1.53196,8.5e-4 c 0.22476,-0.008 0.29784,0.0565 0.29797,0.1793 h 1.69474 v -0.32323 h -0.12233 c 0.001,-0.008 0.003,-0.0154 0.003,-0.0235 v -0.0943 c 0,-0.0816 -0.0657,-0.1473 -0.14731,-0.1473 h -0.47136 c -0.003,0 -0.005,-1.3e-4 -0.008,0 -0.0779,0.004 -0.13973,0.0683 -0.13973,0.1473 v 0.0943 c 0,0.008 0.001,0.0158 0.003,0.0235 h -0.0833 c 0.001,-0.008 0.003,-0.0154 0.003,-0.0235 v -0.0943 c 0,-0.0816 -0.0657,-0.1473 -0.14729,-0.1473 h -0.47138 c -0.003,0 -0.005,-1.3e-4 -0.008,0 -0.0779,0.004 -0.13973,0.0683 -0.13973,0.1473 v 0.0943 c 0,0.008 0.001,0.0158 0.003,0.0235 h -0.0833 c 0.001,-0.008 0.003,-0.0154 0.003,-0.0235 v -0.0943 c 0,-0.0816 -0.0657,-0.1473 -0.1473,-0.1473 h -0.47137 c -0.003,0 -0.005,-1.3e-4 -0.008,0 -0.0781,0.004 -0.13972,0.0683 -0.13972,0.1473 v 0.0943 c 0,0.008 0.001,0.0158 0.003,0.0235 h -0.0833 c 10e-4,-0.008 0.003,-0.0154 0.003,-0.0235 v -0.0943 c 0,-0.0816 -0.0657,-0.1473 -0.14731,-0.1473 h -0.47138 c -0.003,0 -0.005,-1.3e-4 -0.008,0 z"
         sodipodi:nodetypes="cssccccccccsssscssccsssscssccsssscssccssssc" />
      <path
         id="rect15925-2"
         style="display:inline;fill:#000000;stroke:none;stroke-width:0.505883;stroke-linecap:round;stroke-miterlimit:4;stroke-dasharray:none"
         d="m 140.88082,127.1227 v 0.33755 c 0,0.0118 -9e-4,0.0239 -0.003,0.0338 h 0.48905 l 0.33499,1.95113 h 1.21632 c 0.14286,0 0.25841,-0.11484 0.25841,-0.25757 v -1.8072 c 0,-0.14285 -0.11563,-0.25759 -0.25841,-0.25759 z" />
      <path
         id="rect14615"
         style="fill:#000000;stroke-width:0.546424;stroke-linecap:round"
         d="m 138.56725,127.03349 c -0.0892,0.004 -0.15908,0.0779 -0.15908,0.16835 v 0.34342 c 0,0.0105 7.1e-4,0.0212 0.003,0.0311 h -0.43856 l -0.35941,1.98059 0.47222,1.91495 h 0.33669 v 0.3207 c 0,0.0933 0.075,0.16835 0.16835,0.16835 h 0.56564 c 0.0933,0 0.16834,-0.075 0.16834,-0.16835 v -0.31986 h 0.55807 v 0.31986 c 0,0.0933 0.075,0.16835 0.16835,0.16835 h 0.5648 c 0.0933,0 0.1692,-0.075 0.1692,-0.16835 v -0.31986 h 0.31312 l 0.49578,-1.91579 -0.34006,-1.98059 h -0.45791 c 10e-4,-0.0105 0.003,-0.0206 0.003,-0.0311 v -0.34342 c 0,-0.0933 -0.075,-0.16835 -0.16835,-0.16835 h -2.053 c -0.003,0 -0.007,-1.4e-4 -0.009,0 z" />
      <path
         style="fill:#000000;stroke:none;stroke-width:0.347655px;stroke-linecap:butt;stroke-linejoin:miter;stroke-opacity:1"
         d="m 164.07416,113.53963 c 0,0 0.37648,0.57109 0.27149,0.98445 -0.12758,0.39476 -1.27471,1.6203 -1.27471,1.6203 -0.21536,0.68679 0.4426,6.01999 0.68482,6.13969 l 1.30028,-0.0382 c 0.1063,-0.21321 0.40054,-7.85819 0.0645,-8.29193 0,0 -0.5193,-0.81438 -1.0464,-0.41427 z"
         id="path18682"
         sodipodi:nodetypes="ccccccc" />
      <rect
         style="fill:#000000;stroke:none;stroke-width:0.166056;stroke-linecap:round;stroke-miterlimit:4;stroke-dasharray:none"
         id="rect20200"
         width="1.6939553"
         height="0.48761642"
         x="163.58301"
         y="122.34512"
         ry="0.18372232" />
      <rect
         style="fill:#000000;stroke:none;stroke-width:0.242939;stroke-linecap:round;stroke-miterlimit:4;stroke-dasharray:none"
         id="rect20304"
         width="3.3935347"
         height="1.8704321"
         x="162.75798"
         y="122.90691"
         ry="0.34153017" />
      <path
         style="fill:none;stroke:#ffffff;stroke-width:0.216806;stroke-linecap:butt;stroke-linejoin:miter;stroke-miterlimit:4;stroke-dasharray:none;stroke-opacity:1"
         d="m 164.65184,115.03052 c -0.15363,0.31251 -0.97062,1.22115 -1.15166,1.50973 -0.0808,0.33443 0.38326,4.7852 0.60436,5.17706 0.16163,0.0225 0.56528,0 0.56528,0 0.20154,-0.28077 0.30184,-6.8392 -0.018,-6.68679 z"
         id="path20482"
         sodipodi:nodetypes="ccccc" />
      <circle
         style="fill:#000000;stroke:none;stroke-width:0.216806;stroke-linecap:round;stroke-miterlimit:4;stroke-dasharray:none"
         id="path21185"
         cx="167.56371"
         cy="125.44899"
         r="0.78573686" />
      <circle
         style="display:inline;fill:#000000;stroke:none;stroke-width:0.216806;stroke-linecap:round;stroke-miterlimit:4;stroke-dasharray:none"
         id="path21185-7"
         cx="161.22057"
         cy="125.48676"
         r="0.78573686" />
      <path
         style="fill:#000000;stroke:none;stroke-width:0.347655px;stroke-linecap:butt;stroke-linejoin:miter;stroke-opacity:1"
         d="m 162.59467,123.19539 c -0.0781,1.07172 -0.0576,1.45206 0.10144,1.70056 l -0.61903,0.29007 c -0.0988,-0.57727 -0.79766,-0.89057 -1.42231,-0.55409 0.0294,-0.17958 1.87417,-1.46652 1.93991,-1.43654 z"
         id="path21475"
         sodipodi:nodetypes="cccccc" />
      <path
         style="display:inline;fill:#000000;stroke:none;stroke-width:0.347655px;stroke-linecap:butt;stroke-linejoin:miter;stroke-opacity:1"
         d="m 160.74194,126.32754 c 0.55461,0.26451 1.23013,-0.0315 1.31356,-0.44147 0,0 0.30704,0.53657 0.29935,0.66081 l -0.34087,1.22149 c 0,0 -1.24013,-1.30532 -1.27204,-1.44083 z"
         id="path21475-7"
         sodipodi:nodetypes="ccccc" />
      <path
         style="display:inline;fill:#000000;stroke:none;stroke-width:0.347655px;stroke-linecap:butt;stroke-linejoin:miter;stroke-opacity:1"
         d="m 168.12735,126.2406 c -0.63617,0.34865 -1.2065,0.0832 -1.35058,-0.33925 l -0.34351,0.61131 0.34087,1.2215 z"
         id="path21475-7-2"
         sodipodi:nodetypes="ccccc" />
      <path
         style="display:inline;fill:#000000;stroke:none;stroke-width:0.347655px;stroke-linecap:butt;stroke-linejoin:miter;stroke-opacity:1"
         d="m 166.28504,123.15253 c 0.0395,1.07072 0.15105,1.56254 -0.16427,1.68152 l 0.59495,0.34273 c 0.14559,-0.7193 0.89005,-0.80632 1.3833,-0.54784 -0.0154,-0.22958 -1.51861,-1.48917 -1.81398,-1.47641 z"
         id="path21475-1"
         sodipodi:nodetypes="ccccc" />
      <path
         style="fill:#000000;stroke:none;stroke-width:0.347655px;stroke-linecap:butt;stroke-linejoin:miter;stroke-opacity:1"
         d="m 162.38707,126.84508 c 0,0 -0.41871,0.99424 -0.28626,0.99424 0.13246,0 1.82379,0.12653 1.82379,0.12653 0,0 0.14582,-0.42215 -0.0292,-0.54232 z"
         id="path21931"
         sodipodi:nodetypes="csccc" />
      <path
         style="display:inline;fill:#000000;stroke:none;stroke-width:0.347655px;stroke-linecap:butt;stroke-linejoin:miter;stroke-opacity:1"
         d="m 166.38782,126.84623 c 0,0 0.41871,0.99423 0.28626,0.99423 -0.13246,0 -1.82379,0.12653 -1.82379,0.12653 0,0 -0.14582,-0.42215 0.0292,-0.54231 z"
         id="path21931-7"
         sodipodi:nodetypes="csccc" />
      <path
         style="fill:none;stroke:#000000;stroke-width:0.347655;stroke-linecap:butt;stroke-linejoin:miter;stroke-miterlimit:4;stroke-dasharray:0.0869137, 0.0869137;stroke-dashoffset:0;stroke-opacity:1"
         d="m 163.13891,117.29481 c -0.70691,0.0476 -0.96826,0.99987 -0.94381,1.59592 0.0171,0.48169 0.1518,0.94741 0.36676,1.38195 0.24684,0.45009 0.59043,0.79556 1.16127,0.93988"
         id="path25068"
         sodipodi:nodetypes="cccc" />
      <path
         style="fill:none;stroke:#000000;stroke-width:0.347655;stroke-linecap:butt;stroke-linejoin:miter;stroke-miterlimit:4;stroke-dasharray:0.0869137, 0.0869137;stroke-dashoffset:0;stroke-opacity:1"
         d="m 164.99957,121.31933 c 0.76083,-0.16488 1.626,0.0371 1.43085,0.76326 -0.18999,0.46868 -0.74325,0.26057 -0.84791,1.07442"
         id="path25740"
         sodipodi:nodetypes="ccc" />
      <path
         id="rect30037"
         style="fill:#000000;stroke:none;stroke-width:0.408131;stroke-linecap:round;stroke-miterlimit:4;stroke-dasharray:0.102033, 0.102033;stroke-dashoffset:0"
         d="m 142.01429,124.43034 c -0.16413,0 -0.29666,0.0589 -0.29666,0.22301 0.003,0.61453 -0.009,1.19395 -0.009,1.81044 0.0447,-0.0468 0.0834,-0.0365 0.16133,-0.0405 0.003,-1.3e-4 0.005,0 0.008,0 h 0.47123 c 0.0816,0 0.18237,0.0657 0.18237,0.14735 v 0.0943 c 0,0.008 -0.001,0.0159 -0.003,0.0238 h 0.1063 v 0.32321 h -9e-5 v 0.0251 h 0.31907 c 0.14278,0 0.30018,0.11445 0.30018,0.25734 v 0.62265 h 0.13235 c 0.16413,0 0.29606,-0.13192 0.29606,-0.29605 v -2.89396 c 0,-0.16412 -0.13193,-0.29672 -0.29606,-0.29672 z"
         sodipodi:nodetypes="cccssssscccccsscssscc" />
      <rect
         style="fill:#000000;stroke:none;stroke-width:0.347655;stroke-linecap:round;stroke-miterlimit:4;stroke-dasharray:0.0869138, 0.0869138;stroke-dashoffset:0"
         id="rect30141"
         width="1.2711674"
         height="1.6422056"
         x="143.49062"
         y="124.69215"
         ry="0.26159689" />
      <path
         id="path1364-3"
         style="display:inline;fill:none;stroke:#ffffff;stroke-width:0.307;stroke-linejoin:round;stroke-miterlimit:4;stroke-dasharray:none;stroke-opacity:1"
         d="m 139.62007,128.7265 a 0.3261214,0.3261214 0 0 0 -0.32611,0.32612 0.3261214,0.3261214 0 0 0 3.7e-4,0.006 0.3261214,0.3261214 0 0 0 -0.16325,-0.0436 0.3261214,0.3261214 0 0 0 -0.32611,0.32611 0.3261214,0.3261214 0 0 0 0.26282,0.31957 0.3261214,0.3261214 0 0 0 -0.12968,0.25973 0.3261214,0.3261214 0 0 0 0.32613,0.32613 0.3261214,0.3261214 0 0 0 0.29022,-0.17715 0.47068139,0.47068139 0 0 0 0.0251,7.5e-4 0.3261214,0.3261214 0 0 0 0.29949,0.19798 0.3261214,0.3261214 0 0 0 0.32613,-0.32611 0.3261214,0.3261214 0 0 0 -0.1019,-0.23698 0.3261214,0.3261214 0 0 0 0.29872,-0.32495 0.3261214,0.3261214 0 0 0 -0.32612,-0.32613 0.3261214,0.3261214 0 0 0 -0.13122,0.0278 0.3261214,0.3261214 0 0 0 0.002,-0.0294 0.3261214,0.3261214 0 0 0 -0.32612,-0.32612 z" />
      <circle
         style="fill:none;fill-opacity:1;stroke:#ffffff;stroke-width:0.184186;stroke-linejoin:round;stroke-miterlimit:4;stroke-dasharray:none;stroke-opacity:1"
         id="path1902"
         cx="139.60349"
         cy="129.49719"
         r="1.4027256" />
    </g>
  </g>
</svg>
