<?xml version="1.0" encoding="UTF-8" standalone="no"?>
<!-- Created with Inkscape (http://www.inkscape.org/) -->

<svg
   sodipodi:docname="Solitaire.svg"
   inkscape:version="1.2.2 (b0a8486541, 2022-12-01)"
   id="svg8"
   version="1.1"
   viewBox="0 0 34.98301 52.516205"
   height="52.516205mm"
   width="34.983009mm"
   xml:space="preserve"
   xmlns:inkscape="http://www.inkscape.org/namespaces/inkscape"
   xmlns:sodipodi="http://sodipodi.sourceforge.net/DTD/sodipodi-0.dtd"
   xmlns="http://www.w3.org/2000/svg"
   xmlns:svg="http://www.w3.org/2000/svg"
   xmlns:rdf="http://www.w3.org/1999/02/22-rdf-syntax-ns#"
   xmlns:cc="http://creativecommons.org/ns#"
   xmlns:dc="http://purl.org/dc/elements/1.1/"><defs
     id="defs2" /><sodipodi:namedview
     id="base"
     pagecolor="#ffffff"
     bordercolor="#666666"
     borderopacity="1.0"
     inkscape:pageopacity="0.0"
     inkscape:pageshadow="2"
     inkscape:zoom="2.8284271"
     inkscape:cx="39.774756"
     inkscape:cy="148.13887"
     inkscape:document-units="mm"
     inkscape:current-layer="layer1"
     showgrid="false"
     inkscape:window-width="1854"
     inkscape:window-height="1011"
     inkscape:window-x="66"
     inkscape:window-y="1112"
     inkscape:window-maximized="1"
     inkscape:snap-global="false"
     fit-margin-top="0"
     fit-margin-left="0"
     fit-margin-right="0"
     fit-margin-bottom="0"
     showguides="false"
     inkscape:guide-bbox="true"
     inkscape:showpageshadow="2"
     inkscape:pagecheckerboard="0"
     inkscape:deskcolor="#d1d1d1" /><metadata
     id="metadata5"><rdf:RDF><cc:Work
         rdf:about=""><dc:format>image/svg+xml</dc:format><dc:type
           rdf:resource="http://purl.org/dc/dcmitype/StillImage" /></cc:Work></rdf:RDF></metadata><g
     inkscape:label="Capa 1"
     inkscape:groupmode="layer"
     id="layer1"
     transform="translate(-135.48963,-99.590537)"
     style="display:inline"><rect
       style="opacity:1;vector-effect:none;fill:#1a1a1a;fill-opacity:1;stroke:none;stroke-width:0.1;stroke-linecap:butt;stroke-linejoin:miter;stroke-miterlimit:4;stroke-dasharray:none;stroke-dashoffset:0;stroke-opacity:1"
       id="rect860"
       width="7.0941477"
       height="0"
       x="148.86763"
       y="129.31949" /><g
       id="g5440"
       transform="matrix(1.3116205,0,0,1.3116205,-46.840978,-39.934443)"><path
         id="path4888"
         style="fill:#000000;stroke:none;stroke-width:0.264583px;stroke-linecap:butt;stroke-linejoin:miter;stroke-opacity:1"
         d="m 151.63541,127.51855 c -0.0273,0.36674 -0.037,0.83607 -0.0351,1.33377 l 1.06196,0.65887 1.06091,-0.6506 c 0.002,-0.50076 -0.008,-0.97328 -0.0351,-1.34204 -0.35988,0.16389 -0.71313,0.27992 -1.02629,0.28629 -0.31316,-0.006 -0.66648,-0.1224 -1.0263,-0.28629 z m -0.0336,1.54409 c 0.003,0.2618 0.008,0.52831 0.016,0.78962 l 1.04439,0.63923 1.04386,-0.65215 c 0.008,-0.25677 0.0129,-0.51858 0.0155,-0.77567 l -1.05936,0.64079 z m 0.0222,0.9927 c 0.0353,1.03081 0.10267,1.93236 0.15244,2.04432 0,0 0.62976,0.62194 0.90331,0.62994 0.27351,-0.008 0.86713,-0.62994 0.86713,-0.62994 0.0498,-0.11194 0.11709,-1.01317 0.15244,-2.0438 l -1.03714,0.62684 z m 0.42839,0.74621 c 0.0184,-0.001 0.0366,0.004 0.0517,0.0145 l 0.42581,0.28319 c 0.0366,0.0258 0.046,0.076 0.0212,0.11317 -0.025,0.0375 -0.0753,0.0481 -0.11317,0.0238 l -0.42581,-0.28319 c -0.0386,-0.0251 -0.0491,-0.077 -0.0233,-0.11523 0.0144,-0.0213 0.0379,-0.0352 0.0636,-0.0362 z m 1.2113,0 h 5.2e-4 c 0.003,-5e-5 0.005,-1.2e-4 0.007,0 0.0257,0.001 0.0492,0.0149 0.0636,0.0362 0.0258,0.0382 0.0148,0.0901 -0.0238,0.11523 l -0.42529,0.28319 c -0.0379,0.0243 -0.0882,0.0137 -0.11317,-0.0238 -0.0248,-0.0372 -0.0154,-0.0874 0.0212,-0.11317 l 0.42582,-0.28319 c 0.0132,-0.01 0.0286,-0.0139 0.0444,-0.0145 z m 0.001,0.33383 c 0.002,2e-5 0.004,3.7e-4 0.007,5.2e-4 0.0259,0.002 0.05,0.0158 0.0641,0.0377 0.0244,0.0378 0.0134,0.0881 -0.0238,0.11317 l -0.42582,0.28526 c -0.0379,0.0243 -0.0882,0.0137 -0.11317,-0.0238 -0.0262,-0.0376 -0.0167,-0.0894 0.0212,-0.11524 l 0.42581,-0.28319 c 0.0114,-0.008 0.0246,-0.0129 0.0382,-0.0139 h 5.2e-4 c 0.002,-2.3e-4 0.004,-5.4e-4 0.006,-5.2e-4 z m -1.21336,5.2e-4 h 5.2e-4 c 0.0182,-0.001 0.0361,0.004 0.0512,0.0139 l 0.42581,0.28319 c 0.0379,0.0258 0.0474,0.0776 0.0212,0.11524 -0.025,0.0375 -0.0753,0.0481 -0.11317,0.0238 l -0.42582,-0.28526 c -0.0372,-0.0251 -0.0471,-0.0754 -0.0227,-0.11317 0.014,-0.0217 0.0374,-0.0357 0.0631,-0.0377 z m 0.009,0.33538 c 0.0184,-0.001 0.0366,0.004 0.0517,0.0145 l 0.42581,0.28318 c 0.0369,0.0258 0.0463,0.0764 0.0212,0.11369 -0.0251,0.0373 -0.0754,0.0477 -0.11317,0.0233 l -0.42582,-0.28319 c -0.0386,-0.0252 -0.049,-0.077 -0.0232,-0.11524 0.0144,-0.0213 0.0379,-0.0352 0.0636,-0.0362 z m 1.19476,0 h 5.2e-4 c 0.003,-6e-5 0.005,-1.2e-4 0.007,0 0.0257,0.001 0.0492,0.0149 0.0636,0.0362 0.0258,0.0382 0.0153,0.09 -0.0233,0.11524 l -0.42581,0.28319 c -0.0378,0.0244 -0.0881,0.014 -0.11317,-0.0233 -0.0251,-0.0373 -0.0157,-0.0879 0.0212,-0.11369 l 0.42581,-0.28318 c 0.0131,-0.01 0.0286,-0.0139 0.0444,-0.0145 z m -1.20096,0.33486 c 0.0183,-0.001 0.0365,0.004 0.0517,0.0139 l 0.42581,0.28319 c 0.0388,0.025 0.0495,0.0769 0.0238,0.11524 -0.0252,0.0385 -0.077,0.049 -0.11524,0.0232 l -0.42581,-0.28525 c -0.0375,-0.025 -0.0481,-0.0753 -0.0238,-0.11317 0.0142,-0.0217 0.0377,-0.0352 0.0636,-0.0372 z m 1.20716,0 h 5.2e-4 c 0.003,-4e-5 0.005,-1.5e-4 0.007,0 0.0259,0.002 0.0494,0.0155 0.0636,0.0372 0.0243,0.0379 0.0137,0.0882 -0.0238,0.11317 l -0.42582,0.28525 c -0.0382,0.0258 -0.09,0.0153 -0.11523,-0.0232 -0.0257,-0.0383 -0.015,-0.0902 0.0238,-0.11524 l 0.42581,-0.28319 c 0.0132,-0.009 0.0286,-0.0137 0.0444,-0.0139 z" /><path
         id="path1628-6"
         style="display:inline;fill:#000000;stroke:none;stroke-width:0.264583px;stroke-linecap:butt;stroke-linejoin:miter;stroke-opacity:1"
         d="m 145.74482,121.21402 c -0.30662,0.12042 -0.53382,0.22428 -0.53382,0.22428 l -0.0403,0.2682 v 10e-4 c 0.004,0.29963 0.0774,0.75295 0.20051,1.14102 0.0704,0.222 0.14705,0.42828 0.21135,0.58394 0.0321,0.0778 0.0618,0.14381 0.0858,0.19121 0.0163,0.0321 0.0219,0.0381 0.0289,0.0491 0.006,-0.001 0.003,-0.001 0.0114,-0.002 0.0271,-0.004 0.0643,-0.0116 0.10542,-0.0217 0.0821,-0.02 0.18533,-0.0487 0.28939,-0.0801 0.0986,-0.0297 0.19728,-0.0612 0.28267,-0.0889 a 2.8335383,3.0320177 0 0 1 -0.24029,-0.3576 l -0.35864,0.1323 a 0.1,0.1 0 0 1 -0.12919,-0.0589 0.1,0.1 0 0 1 0.0605,-0.12867 l 0.33228,-0.12247 a 2.8335383,3.0320177 0 0 1 -0.16485,-0.4036 l -0.16743,0.0615 a 0.1,0.1 0 0 1 -0.12867,-0.0584 0.1,0.1 0 0 1 0.0584,-0.12919 l 0.18242,-0.0672 a 2.8335383,3.0320177 0 0 1 -0.0775,-0.41289 l -0.15348,0.0563 a 0.1,0.1 0 0 1 -0.12713,-0.0584 0.1,0.1 0 0 1 0.0584,-0.12919 l 0.20257,-0.0749 a 2.8335383,3.0320177 0 0 1 -0.007,-0.18965 2.8335383,3.0320177 0 0 1 0.0186,-0.32505 z m -0.73329,0.67335 -0.0661,0.0532 c -0.18408,0.32825 0.49698,2.2174 0.60565,2.2841 0.13742,0.0625 1.00097,-0.0543 1.00097,-0.0543 l 0.44959,0.33228 c 0.1509,0.0668 0.62735,-0.0145 0.62735,-0.0145 -0.0131,-0.0188 -0.0281,-0.055 -0.0439,-0.10387 a 2.8335383,3.0320177 0 0 1 -0.73071,-0.42529 c -0.0438,0.004 -0.0866,-0.002 -0.13022,-0.03 l -0.0289,-0.0181 -0.006,-0.0331 c 0,0 -0.008,-0.0358 -0.0202,-0.0827 a 2.8335383,3.0320177 0 0 1 -0.17053,-0.17777 c -0.0933,0.0306 -0.20906,0.0681 -0.3483,0.11007 -0.1056,0.0318 -0.20994,0.0609 -0.29714,0.0822 -0.0436,0.0106 -0.0834,0.0193 -0.1173,0.0253 -0.0339,0.006 -0.0593,0.009 -0.0935,0.004 l -0.0253,-0.004 -0.0176,-0.016 c -0.037,-0.0338 -0.0531,-0.0676 -0.0801,-0.12092 -0.027,-0.0533 -0.0567,-0.12259 -0.0899,-0.20309 -0.0665,-0.16108 -0.14317,-0.36957 -0.21497,-0.59583 -0.10517,-0.33149 -0.17887,-0.70269 -0.20257,-1.01182 z m -0.0956,0.97306 -0.47543,0.64751 a 0.60019461,0.93694723 41.658277 0 1 0.25219,0.0889 0.60019461,0.93694723 41.658277 0 1 -0.0553,0.98754 c 0.11892,-0.0167 0.20722,-0.0207 0.20722,-0.0207 0.26584,0.0247 0.4346,0.24753 0.4346,0.24753 0.0607,-0.0282 0.38189,-0.0382 0.38189,-0.0382 0.11636,0.0667 0.13546,0.29259 0.13746,0.31419 l 0.45579,-0.66042 -0.15348,-0.10232 c 0.002,-1.8e-4 0.007,-4.3e-4 0.008,-5.2e-4 l -0.0165,-0.005 0.008,0.006 c -0.0569,0.006 -0.52548,0.0502 -0.68161,0.0103 -0.10146,-0.0761 -0.52051,-1.32009 -0.50281,-1.47433 z m -0.53175,0.74156 a 0.45457761,0.70962855 41.658277 0 0 -0.59687,0.33021 0.45457761,0.70962855 41.658277 0 0 -0.20567,0.39429 c 0.0879,-0.0583 0.20585,-0.11681 0.37104,-0.17001 l 0.12712,0.6351 a 0.45457761,0.70962855 41.658277 0 0 0.4253,-0.29972 0.45457761,0.70962855 41.658277 0 0 0.0982,-0.82166 0.45457761,0.70962855 41.658277 0 0 -0.21911,-0.0682 z m -0.49661,0.73432 c -0.62834,0.20261 -0.57131,0.47933 -0.78704,0.54261 -0.012,0.24843 0.31006,1.0082 0.31006,1.0082 l -0.15037,0.11369 0.34468,0.55346 c 0.0244,0.0754 0.0696,0.12059 0.11317,0.14779 -0.0515,-0.11778 -0.11847,-0.2929 -0.12247,-0.49661 v -0.008 l 0.002,-0.008 c 0.0268,-0.161 0.13297,-0.31654 0.24598,-0.44132 0.0565,-0.0624 0.11481,-0.11658 0.17001,-0.15658 0.0388,-0.028 0.0724,-0.0517 0.11317,-0.063 z m 0.86609,0.3483 c 0,0 -0.44589,0.0186 -0.68316,0.16485 l 0.58911,2.80241 c 0.36367,-0.0976 0.90273,0.0139 1.16841,0.28164 0,0 0.0311,-0.25841 -0.0186,-0.30231 l -0.11007,-0.15916 c 0,0 0.13532,-1.92881 0.009,-2.25981 0,0 -0.0158,-0.24831 -0.13798,-0.31833 0,0 -0.32119,0.01 -0.38189,0.0382 0,0 -0.16876,-0.22279 -0.4346,-0.24753 z m -0.59376,1.01286 c -0.0136,0.006 -0.0315,0.0149 -0.0501,0.0284 -0.0429,0.031 -0.0949,0.0799 -0.1447,0.13488 -0.0979,0.10812 -0.18182,0.24899 -0.20102,0.3514 0.008,0.22887 0.1066,0.41849 0.154,0.53692 0.0118,0.0204 0.0503,0.0577 0.0956,0.0879 0.0427,0.0283 0.087,0.0502 0.1173,0.0646 0.002,0 0.003,0.002 0.006,0.002 0.01,0.001 0.0238,0.001 0.0408,0.002 0.034,0.002 0.0779,0.003 0.12144,0.004 0.0527,0.001 0.0711,0.001 0.10387,0.002 z m -0.0155,0.51418 a 0.0325,0.0325 0 0 1 0.0305,0.031 0.0325,0.0325 0 0 1 -0.0315,0.0336 l -0.2558,0.0155 a 0.0325,0.0325 0 0 1 -0.0331,-0.0315 0.0325,0.0325 0 0 1 0.031,-0.0346 l 0.25425,-0.0134 a 0.0325,0.0325 0 0 1 0.005,0 z m 0.0403,0.17828 a 0.0325,0.0325 0 0 1 0.005,0 0.0325,0.0325 0 0 1 0.03,0.0295 0.0325,0.0325 0 0 1 -0.0315,0.0351 l -0.25373,0.0134 a 0.0325,0.0325 0 0 1 -0.0351,-0.031 0.0325,0.0325 0 0 1 0.031,-0.0336 z m 0.0532,0.1757 a 0.0325,0.0325 0 0 1 0.0351,0.031 0.0325,0.0325 0 0 1 -0.0315,0.0336 l -0.2558,0.0134 a 0.0325,0.0325 0 0 1 -0.0331,-0.03 0.0325,0.0325 0 0 1 0.031,-0.0346 z m -0.28577,0.42737 -0.0894,0.0827 0.10025,0.47491 -0.25218,0.22531 c 0.0498,0.78961 -0.14821,1.4774 0.33797,1.88722 l 0.26768,-0.20774 c -0.19758,-0.29351 -0.3772,-1.28963 0.23616,-1.79782 l -0.11575,-0.57826 c -0.0234,-10e-4 -0.0694,-0.002 -0.1416,-0.004 -0.0443,-0.001 -0.0884,-0.002 -0.12505,-0.004 -0.0183,-0.001 -0.0349,-0.003 -0.0486,-0.004 -0.007,-10e-4 -0.0136,-10e-4 -0.0196,-0.002 -0.003,0 -0.006,-0.001 -0.01,-0.002 -0.004,-0.001 -0.0173,-0.006 -0.0181,-0.006 h -0.002 v -0.002 c -0.0291,-0.0135 -0.0739,-0.0344 -0.12041,-0.0625 z m 1.08521,0.86144 c -0.0294,3.3e-4 -0.0561,0.003 -0.0796,0.008 -0.14613,-0.009 -0.47288,0.48579 0.18448,0.74155 0.12843,0.006 0.27483,0.0183 0.41341,0.0103 l 0.12506,-0.62425 c 0,0 -0.40364,-0.13806 -0.64337,-0.1354 z m 0.7059,0.17984 -0.11472,0.58704 c 0.15483,-0.0241 0.48059,-0.17001 0.48059,-0.17001 0.0377,0.0442 0.13263,-0.13751 0.009,-0.27595 -0.19516,-0.0779 -0.18768,-0.0526 -0.37517,-0.14108 z m -1.21285,0.11782 -0.0718,0.0439 c 0,0 -0.48052,0.28678 -0.15554,0.76584 l 0.0367,0.11266 0.48782,-0.40825 c 0,0 -0.19202,-0.42558 -0.29714,-0.51418 z m 0.37466,0.48111 c 0.0775,0.2147 0.18989,0.4835 0.31987,0.7338 l 0.1447,-0.19585 c 0,0 -0.28281,-0.34748 -0.46457,-0.53795 z m -0.0749,0.15503 -0.45889,0.36225 c -0.0117,0.10256 0.39481,0.74672 0.39481,0.74672 l 0.42891,-0.31574 c 0,0 -0.27153,-0.67626 -0.36483,-0.79323 z m 0.60513,0.4408 -0.16847,0.21807 c 0.0939,0.17272 0.19489,0.33116 0.29611,0.44959 0.0323,0.0122 0.0649,0.0225 0.0971,0.0305 l 0.0966,-0.53589 z m 0.43253,0.19999 -0.0956,0.53226 c 0.24795,0.0969 0.62528,-0.26303 0.62528,-0.26303 0.0646,-0.14842 0.0112,-0.20694 -0.0382,-0.22944 l -5.2e-4,5.1e-4 c -0.0296,-0.0136 -0.0579,-0.0145 -0.0579,-0.0145 z m -0.62684,0.22686 -0.41341,0.29042 c 0,0 0.19352,0.30685 0.42065,0.44286 l 0.25166,-0.48317 z m 0.35347,0.31987 -0.24856,0.47956 c 0.20808,0.16604 0.67489,-0.0661 0.67489,-0.0661 0.14813,-0.17162 0.0219,-0.24246 -0.0119,-0.25786 l 0.001,-5.2e-4 c -0.006,-0.001 -0.009,-0.002 -0.009,-0.002 z" /><path
         id="path1628"
         style="fill:#000000;stroke:none;stroke-width:0.264583px;stroke-linecap:butt;stroke-linejoin:miter;stroke-opacity:1"
         d="m 159.48817,123.12295 c 0.0177,0.15424 -0.40136,1.39823 -0.50282,1.47433 -0.15639,0.0399 -0.62654,-0.004 -0.68213,-0.01 l -0.15347,0.10232 0.45578,0.66042 c 0.002,-0.0216 0.0211,-0.24751 0.13746,-0.31419 0,0 0.32119,0.01 0.38189,0.0382 0,0 0.16876,-0.22279 0.4346,-0.24753 0,0 0.0883,0.004 0.20722,0.0207 a 0.93694723,0.60019461 48.341723 0 1 -0.0553,-0.98753 0.93694723,0.60019461 48.341723 0 1 0.25218,-0.0889 z m -1.18495,1.46451 0.009,-0.006 -0.0165,0.005 c 9e-4,1e-4 0.006,3.4e-4 0.008,5.2e-4 z" /><path
         id="path1598"
         style="fill:#000000;stroke:none;stroke-width:0.173309;stroke-linecap:round;stroke-dasharray:none;stroke-dashoffset:0;stop-color:#000000"
         d="m 196.21494,-42.5452 a 0.7092663,0.45514262 0 0 0 -0.081,0.211646 0.7092663,0.45514262 0 0 0 0.7089,0.454842 0.7092663,0.45514262 0 0 0 0.49823,-0.132091 l -0.42304,-0.506909 c 0.14363,-0.09207 0.2624,-0.144595 0.36247,-0.174235 a 0.7092663,0.45514262 0 0 0 -0.43773,-0.09695 0.7092663,0.45514262 0 0 0 -0.62785,0.243697 z"
         transform="matrix(0.64452765,0.764581,-0.78866626,0.61482154,0,0)" /><path
         id="path2018"
         style="fill:#000000;stroke:none;stroke-width:0.489;stroke-linecap:butt;stroke-dasharray:none;stop-color:#000000"
         d="m 149.67378,118.29896 c -0.42256,0.0204 -0.74497,0.0425 -1.19114,0.19533 l -0.0372,0.0134 -0.0253,0.0315 c -0.13851,0.18088 -0.17723,0.4178 -0.19379,0.61133 -0.0165,0.19353 -0.004,0.34934 -0.004,0.34934 l 0.26355,-0.0212 c 0,0 -0.0106,-0.13462 0.004,-0.30489 0.0134,-0.15689 0.06,-0.32871 0.12867,-0.4377 0.38699,-0.12646 0.65442,-0.15429 1.05472,-0.17363 0.40029,0.0193 0.64447,0.0472 1.03146,0.17363 0.0687,0.109 0.11525,0.2808 0.12867,0.4377 0.0126,0.14712 0.007,0.26192 0.005,0.29197 l -0.16381,-0.016 c 0,0 0.008,-0.0797 -0.004,-0.21032 -0.0115,-0.12035 -0.0513,-0.2523 -0.11007,-0.3359 -0.0423,-0.0124 -0.0825,-0.0235 -0.12144,-0.0336 v 0.52297 h -0.16433 v -0.56069 c -0.0662,-0.0132 -0.13034,-0.0234 -0.19534,-0.0315 v 0.60565 h -0.0641 a 2.4208148,2.4208148 0 0 1 0.82062,0.72657 l 0.25941,-0.45165 c 0.01,-0.002 0.0155,-0.004 0.0155,-0.007 v -0.18191 l -0.009,-0.001 c 0.002,-0.0223 0.0107,-0.16254 -0.005,-0.34055 -0.0166,-0.19353 -0.0568,-0.43045 -0.19533,-0.61133 l -0.0233,-0.0315 -0.0372,-0.0134 c -0.4462,-0.15281 -0.74533,-0.17491 -1.16788,-0.19533 z m 0.045,0.47387 v 0.49868 a 2.4208148,2.4208148 0 0 1 0.19533,0.0837 v -0.57102 c -0.0611,-0.005 -0.12583,-0.008 -0.19533,-0.0114 z m -0.16589,0.004 c -0.0656,0.004 -0.12748,0.007 -0.18758,0.0129 v 0.37878 a 2.4208148,2.4208148 0 0 1 0.18758,0.0476 z m -0.35191,0.032 c -0.0584,0.008 -0.11694,0.0189 -0.17725,0.0315 v 0.2806 a 2.4208148,2.4208148 0 0 1 0.17725,0.0181 z m -0.34365,0.0713 c -0.027,0.007 -0.0543,0.015 -0.0827,0.0232 -0.04,0.0569 -0.071,0.13636 -0.0904,0.21911 a 2.4208148,2.4208148 0 0 1 0.17312,-0.007 z" /><path
         id="path1493"
         style="fill:#000000;stroke:none;stroke-width:0.264583px;stroke-linecap:butt;stroke-linejoin:miter;stroke-opacity:1"
         d="m 154.65642,120.07301 c -0.0282,5.1e-4 -0.0561,0.002 -0.0832,0.004 0,0 -1.08237,1.83445 -1.22421,1.93425 -0.10947,0.0808 -0.51419,0.14314 -0.51419,0.14314 v 2.03812 c 0.13671,0.17282 3.14525,0.90932 3.81734,0.64286 0.14475,-0.11605 0.50054,-3.05165 0.44804,-3.38171 0,0 0.0146,-0.68845 -0.15193,-0.84904 -0.0355,-0.0167 -1.41756,-0.54705 -2.29185,-0.53124 z m -3.57963,0.48214 a 2.4208148,2.4208148 0 0 1 0.20826,0.98082 2.4208148,2.4208148 0 0 1 -2.42104,2.42052 2.4208148,2.4208148 0 0 1 -0.35089,-0.0284 c 0.0747,0.48837 0.14954,0.86689 0.19948,0.90692 0.67208,0.26646 3.68062,-0.47003 3.81733,-0.64285 v -2.03812 c 0,0 -0.40471,-0.0624 -0.51418,-0.14315 -0.095,-0.0669 -0.60778,-0.90495 -0.93896,-1.45572 z" /><path
         id="rect1475"
         style="display:inline;fill:#000000;stroke:none;stroke-width:0.1;stroke-linecap:butt;stroke-dasharray:none;stop-color:#000000"
         d="m 16.715259,18.562691 c -0.02253,0.0023 -0.03979,0.02129 -0.03979,0.04444 v 0.09198 c -0.09293,0.03062 -0.311609,0.314193 -0.311609,0.314193 -0.170985,0.07763 -0.733805,1.421618 -0.733805,1.421618 -0.01121,0.100242 0.66296,1.355926 0.891935,1.423686 0,0 0.253275,0.01648 0.309025,0 l 0.06821,-0.130741 c 0.04939,0.0065 0.293522,-0.0124 0.293522,-0.0124 0,0 0.244132,0.01891 0.293522,0.0124 l 0.06821,0.130741 c 0.05575,0.01648 0.309025,0 0.309025,0 0.228975,-0.06776 0.90315,-1.323444 0.891935,-1.423686 0,0 -0.56282,-1.343984 -0.733805,-1.421618 0,0 -0.209396,-0.271446 -0.305408,-0.311609 v -0.09457 c 0,-0.0247 -0.02026,-0.04444 -0.04496,-0.04444 H 16.71991 c -0.0015,0 -0.0031,-1.51e-4 -0.0047,0 z"
         transform="translate(135.48963,99.590537)" /><path
         id="path1384"
         style="color:#000000;display:inline;fill:#ffffff;stroke-linecap:round;-inkscape-stroke:none"
         d="m 17.189648,18.673796 c 0,0 -0.07338,0.0027 -0.160197,0.0098 -0.08682,0.007 -0.184285,0.01599 -0.248046,0.03927 l -0.0093,0.0036 -0.0062,0.0062 c -0.04545,0.04101 -0.06584,0.09598 -0.07803,0.14056 -0.01218,0.04458 -0.0155,0.08165 -0.0155,0.08165 l 0.09922,0.0083 c 0,0 0.0023,-0.02728 0.01189,-0.06253 0.0088,-0.03234 0.02647,-0.06625 0.04496,-0.0863 0.04127,-0.01283 0.129202,-0.02456 0.208773,-0.03101 0.08405,-0.0068 0.152445,-0.0098 0.152445,-0.0098 0,0 0.07408,0.003 0.15813,0.0098 0.07957,0.0064 0.168018,0.01818 0.20929,0.03101 0.0185,0.02005 0.03613,0.05396 0.04496,0.0863 0.0096,0.03525 0.01137,0.06253 0.01137,0.06253 l 0.09974,-0.0083 c 0,0 -0.0033,-0.03707 -0.0155,-0.08165 -0.01218,-0.04458 -0.03257,-0.09954 -0.07803,-0.14056 l -0.0062,-0.0062 -0.0098,-0.0036 c -0.06376,-0.02328 -0.161228,-0.03225 -0.248047,-0.03927 -0.08682,-0.007 -0.165882,-0.0098 -0.165882,-0.0098 z m -0.337963,0.44545 c -0.07266,0.0038 -0.131259,0.065 -0.131259,0.138493 v 0.220659 c 0,0.07587 0.06263,0.139009 0.138493,0.139009 h 0.66766 c 0.07587,0 0.139009,-0.06315 0.139009,-0.139009 v -0.220659 c 0,-0.07586 -0.06315,-0.138493 -0.139009,-0.138493 h -0.66766 c -0.0024,0 -0.0049,-1.21e-4 -0.0072,0 z m 0.0031,0.09974 c 0.0013,-1.29e-4 0.0027,0 0.0041,0 h 0.201538 a 0.19906826,0.19906826 0 0 0 -0.06666,0.148828 0.19906826,0.19906826 0 0 0 0.06821,0.149862 h -0.203089 c -0.02219,0 -0.03927,-0.01708 -0.03927,-0.03927 v -0.220659 c 0,-0.0208 0.015,-0.03682 0.03514,-0.03876 z m 0.470256,0 h 0.201538 c 0.02219,0 0.03927,0.01657 0.03927,0.03876 v 0.220659 c 0,0.02219 -0.01708,0.03927 -0.03927,0.03927 H 17.32349 a 0.19906826,0.19906826 0 0 0 0.06821,-0.149862 0.19906826,0.19906826 0 0 0 -0.06666,-0.148828 z m -0.464055,0.652157 c -0.07613,0.0039 -0.136942,0.06764 -0.136942,0.144694 v 1.974556 c 0,0.07954 0.06515,0.144177 0.144694,0.144177 h 0.646472 c 0.07954,0 0.146244,-0.06463 0.146244,-0.144177 v -1.974556 c 0,-0.07954 -0.0667,-0.144694 -0.146244,-0.144694 h -0.646472 c -0.0025,0 -0.0053,-1.26e-4 -0.0078,0 z m 0.0031,0.09973 c 0.0016,-1.46e-4 0.003,0 0.0047,0 h 0.646472 c 0.02587,0 0.04651,0.01909 0.04651,0.04496 v 1.974556 c 0,0.02587 -0.02064,0.04496 -0.04651,0.04496 h -0.646472 c -0.02587,0 -0.04496,-0.01909 -0.04496,-0.04496 v -1.974556 c 0,-0.02425 0.0169,-0.04277 0.04031,-0.04496 z m 0.328662,0.08113 a 0.19906826,0.19906826 0 0 0 -0.198954,0.198954 0.19906826,0.19906826 0 0 0 0.198954,0.198955 0.19906826,0.19906826 0 0 0 0.198954,-0.198955 0.19906826,0.19906826 0 0 0 -0.198954,-0.198954 z"
         transform="translate(135.48963,99.590537)" /><path
         id="path1533"
         style="color:#000000;fill:#000000;stroke-width:1.1574;-inkscape-stroke:none"
         d="m 147.89817,118.94853 c -1.09521,0.34994 -1.8929,1.37882 -1.8929,2.58692 0,1.2081 0.79769,2.23749 1.8929,2.58744 v -0.96945 c -0.58958,-0.29813 -0.99115,-0.90819 -0.99115,-1.61799 0,-0.70979 0.40157,-1.31986 0.99115,-1.61799 z" /><circle
         style="display:inline;fill:none;stroke:#000000;stroke-width:0.550278;stroke-linecap:butt;stroke-dasharray:none;stop-color:#000000"
         id="path1533-5"
         cx="148.86404"
         cy="121.53571"
         r="1.3797154" /><circle
         style="display:inline;fill:none;stroke:#000000;stroke-width:0.440542;stroke-linecap:butt;stroke-dasharray:none;stop-color:#000000"
         id="path1533-5-6"
         cx="148.86404"
         cy="121.53571"
         r="2.0091097" /><circle
         style="fill:#000000;stroke:none;stroke-width:0.7;stroke-linecap:butt;stroke-dasharray:none;stop-color:#000000"
         id="path1583"
         cx="148.86404"
         cy="121.53571"
         r="0.90566117" /><path
         id="path355"
         style="fill:#000000;stroke:none;stroke-width:0.264583px;stroke-linecap:butt;stroke-linejoin:miter;stroke-opacity:1"
         d="m 152.66169,124.40537 c -1.4593,0.25028 -2.40191,0.62401 -3.71502,0.80512 -0.0411,0.60224 0.38913,0.95549 0.38913,0.95549 0.65804,0.0767 2.2343,1.42987 3.32589,1.45211 1.09159,-0.0222 2.66837,-1.37541 3.32641,-1.45211 0,0 0.42971,-0.35325 0.38861,-0.95549 -1.31311,-0.18111 -2.25572,-0.55484 -3.71502,-0.80512 z" /><rect
         style="fill:#000000;stroke:#ffffff;stroke-width:0.171447;stroke-linecap:round;stop-color:#000000"
         id="rect558"
         width="1.220433"
         height="1.1648215"
         x="152.04074"
         y="124.52644"
         rx="0"
         ry="0.24608591" /><rect
         style="display:inline;fill:#000000;stroke:#ffffff;stroke-width:0.171447;stroke-linecap:round;stop-color:#000000"
         id="rect558-6"
         width="1.220433"
         height="1.1648215"
         x="154.4297"
         y="124.1039"
         rx="0"
         ry="0.24608591" /><rect
         style="display:inline;fill:#000000;stroke:#ffffff;stroke-width:0.136142;stroke-linecap:round;stop-color:#000000"
         id="rect558-6-7"
         width="0.9691146"
         height="0.92495495"
         x="155.12376"
         y="120.76746"
         rx="0"
         ry="0.19541053" /><circle
         style="fill:#ffffff;stroke:none;stroke-width:1.0022;stroke-linecap:round;stroke-dasharray:0.285122, 0.285122;stroke-dashoffset:0;stop-color:#000000"
         id="path1249"
         cx="152.65096"
         cy="124.97962"
         r="0.32052237" /><circle
         style="display:inline;fill:#ffffff;stroke:none;stroke-width:1.0022;stroke-linecap:round;stroke-dasharray:0.285122, 0.285122;stroke-dashoffset:0;stop-color:#000000"
         id="path1249-3"
         cx="155.03992"
         cy="124.56307"
         r="0.32052237" /><circle
         style="display:inline;fill:#ffffff;stroke:none;stroke-width:0.817519;stroke-linecap:round;stroke-dasharray:0.232581, 0.232581;stroke-dashoffset:0;stop-color:#000000"
         id="path1249-3-2"
         cx="155.60832"
         cy="121.13963"
         r="0.26145783" /><path
         id="path1442"
         style="fill:#000000;stroke:none;stroke-width:0.264583px;stroke-linecap:butt;stroke-linejoin:miter;stroke-opacity:1"
         d="m 157.29398,121.11325 c -0.0395,8.5e-4 -0.0759,0.005 -0.10852,0.0114 0.15377,0.13389 -0.0192,1.71308 -0.19843,2.74764 l 0.015,-0.0284 c 0,0 0.13382,0.0689 0.28164,0.12867 0.0739,0.0299 0.15171,0.0564 0.21291,0.0703 0.0472,0.011 0.0628,0.007 0.0718,0.008 0.007,-0.0323 0.0131,-0.063 0.0336,-0.12919 0.0145,-0.0471 0.0323,-0.0962 0.0527,-0.13849 0.0101,-0.0211 0.0206,-0.0397 0.0351,-0.0584 0.0145,-0.0188 0.0337,-0.0406 0.0703,-0.0512 l 0.0232,-0.008 0.0233,0.008 c 0.0738,0.0239 0.28592,0.0954 0.49403,0.15813 0.10406,0.0314 0.20729,0.0601 0.28939,0.0801 0.0411,0.0101 0.0783,0.0177 0.10542,0.0217 0.008,0.001 0.005,0.001 0.0114,0.002 0.007,-0.011 0.0131,-0.017 0.0294,-0.0491 0.024,-0.0474 0.0537,-0.1134 0.0858,-0.1912 0.0643,-0.15566 0.14095,-0.36195 0.21135,-0.58395 0.12312,-0.38807 0.19608,-0.84138 0.20051,-1.14101 v -10e-4 l -0.0408,-0.2682 c 0,0 -1.30629,-0.6007 -1.89911,-0.58808 z m 0.63252,0.60875 a 0.1,0.1 0 0 1 0.0305,0.007 l 0.91623,0.33745 a 0.1,0.1 0 0 1 0.0584,0.12919 0.1,0.1 0 0 1 -0.12712,0.0584 l -0.91571,-0.33796 a 0.1,0.1 0 0 1 -0.0605,-0.12868 0.1,0.1 0 0 1 0.0982,-0.0651 z m 1.46606,0.42788 c -0.0237,0.30913 -0.0974,0.68034 -0.20257,1.01183 -0.0718,0.22626 -0.14847,0.43475 -0.21497,0.59583 -0.0332,0.0805 -0.0629,0.14979 -0.0899,0.20309 -0.027,0.0533 -0.0431,0.0871 -0.0801,0.12092 l -0.0176,0.016 -0.0253,0.004 c -0.0342,0.005 -0.0596,0.002 -0.0935,-0.004 -0.0339,-0.006 -0.0737,-0.0147 -0.11731,-0.0253 -0.0872,-0.0213 -0.19154,-0.0504 -0.29714,-0.0822 -0.18973,-0.0572 -0.3581,-0.11363 -0.447,-0.14263 -0.002,0.003 -0.002,0.004 -0.004,0.008 -0.0141,0.0291 -0.0297,0.0725 -0.0429,0.11523 -0.0264,0.0854 -0.045,0.17002 -0.045,0.17002 l -0.006,0.0331 -0.0289,0.0181 c -0.0731,0.0474 -0.14446,0.0307 -0.22066,0.0134 -0.0762,-0.0174 -0.15808,-0.0483 -0.23668,-0.0801 -0.11036,-0.0446 -0.20911,-0.0924 -0.25993,-0.11783 -0.0704,0.38602 -0.13928,0.6746 -0.18759,0.74363 0,0 0.47645,0.0813 0.62735,0.0145 l 0.44959,-0.33228 c 0,0 0.86355,0.11684 1.00097,0.0543 0.10867,-0.0667 0.78973,-1.95585 0.60565,-2.2841 z m -1.58336,0.18345 a 0.1,0.1 0 0 1 0.0305,0.007 l 0.91622,0.33745 a 0.1,0.1 0 0 1 0.0584,0.12919 0.1,0.1 0 0 1 -0.12867,0.0584 l -0.91622,-0.33797 a 0.1,0.1 0 0 1 -0.0584,-0.12867 0.1,0.1 0 0 1 0.0982,-0.0651 z m -0.0703,0.65268 a 0.1,0.1 0 0 1 0.0305,0.006 l 0.91622,0.33796 a 0.1,0.1 0 0 1 0.0605,0.12868 0.1,0.1 0 0 1 -0.12919,0.0589 l -0.91571,-0.33797 a 0.1,0.1 0 0 1 -0.0605,-0.12919 0.1,0.1 0 0 1 0.0982,-0.0646 z" /><path
         style="fill:#000000;stroke:none;stroke-width:0.264583px;stroke-linecap:butt;stroke-linejoin:miter;stroke-opacity:1"
         d="m 160.33373,125.1122 -0.58905,2.80227 c -0.36367,-0.0976 -0.90288,0.0139 -1.16856,0.28166 0,0 -0.0311,-0.25832 0.0186,-0.30222 l 0.1105,-0.15912 c 0,0 -0.13553,-1.92898 -0.009,-2.25998 0,0 0.0159,-0.24823 0.13809,-0.31825 0,0 0.32096,0.01 0.38166,0.0384 0,0 0.16899,-0.22314 0.43483,-0.24788 0,0 0.44569,0.0189 0.68296,0.16512 z"
         id="path1596"
         sodipodi:nodetypes="cccccccccc" /><path
         id="path1594"
         style="fill:#000000;stroke:none;stroke-width:0.264583px;stroke-linecap:butt;stroke-linejoin:miter;stroke-opacity:1"
         d="m 160.51653,124.59883 -0.23875,1.19269 c 0.0408,0.0113 0.0744,0.035 0.11317,0.063 0.0552,0.04 0.11352,0.0942 0.17002,0.15658 0.11301,0.12478 0.21918,0.28031 0.24598,0.44131 l 0.002,0.008 v 0.008 c -0.004,0.20371 -0.071,0.37883 -0.12247,0.49661 0.0436,-0.0272 0.0888,-0.0724 0.11317,-0.14779 l 0.34468,-0.55346 -0.15037,-0.11368 c 0,0 0.32204,-0.75978 0.31005,-1.00821 -0.2158,-0.0633 -0.15853,-0.3405 -0.78754,-0.54312 z m -0.27234,1.36116 -0.24288,1.21439 c 0.0328,-7.6e-4 0.0512,-8.5e-4 0.10387,-0.002 0.0435,-0.001 0.0874,-0.002 0.12144,-0.004 0.017,-0.001 0.0308,-0.001 0.0408,-0.002 0.003,0 0.004,-0.002 0.006,-0.002 0.0303,-0.0144 0.0746,-0.0363 0.1173,-0.0646 0.0453,-0.0301 0.0838,-0.0675 0.0956,-0.0879 0.0474,-0.11843 0.146,-0.30805 0.154,-0.53692 -0.0192,-0.10241 -0.10312,-0.24328 -0.20102,-0.3514 -0.0498,-0.055 -0.1018,-0.10387 -0.1447,-0.13487 -0.0188,-0.0136 -0.0369,-0.0225 -0.0506,-0.0284 z m 0.0155,0.51469 a 0.0325,0.0325 0 0 1 0.005,0 l 0.25424,0.0134 a 0.0325,0.0325 0 0 1 0.031,0.0351 0.0325,0.0325 0 0 1 -0.0331,0.0315 l -0.2558,-0.0155 a 0.0325,0.0325 0 0 1 -0.0315,-0.0336 0.0325,0.0325 0 0 1 0.0305,-0.031 z m -0.045,0.17777 a 0.0325,0.0325 0 0 1 0.005,0 l 0.25424,0.0134 a 0.0325,0.0325 0 0 1 0.031,0.0336 0.0325,0.0325 0 0 1 -0.0351,0.031 l -0.25373,-0.0134 a 0.0325,0.0325 0 0 1 -0.0315,-0.0351 0.0325,0.0325 0 0 1 0.0305,-0.0295 z m -0.0481,0.1757 0.25424,0.0134 a 0.0325,0.0325 0 0 1 0.031,0.0351 0.0325,0.0325 0 0 1 -0.0331,0.0295 l -0.2558,-0.0134 a 0.0325,0.0325 0 0 1 -0.0315,-0.0336 0.0325,0.0325 0 0 1 0.0351,-0.031 z m 0.28577,0.42737 c -0.0465,0.0281 -0.0913,0.049 -0.12041,0.0625 v 0.002 h -0.002 c -8e-4,0 -0.0136,0.005 -0.0176,0.006 -0.004,0.001 -0.007,0.002 -0.0103,0.002 -0.006,0.001 -0.0126,9e-4 -0.0196,0.002 -0.0137,10e-4 -0.0303,0.003 -0.0486,0.004 -0.0366,0.002 -0.0808,0.003 -0.12505,0.004 -0.0722,0.002 -0.11821,0.003 -0.1416,0.004 l -0.11575,0.57826 c 0.61336,0.50819 0.43374,1.50432 0.23616,1.79783 l 0.26768,0.20774 c 0.48618,-0.40982 0.28816,-1.09762 0.33797,-1.88723 l -0.25218,-0.22531 0.10025,-0.4749 z" /><path
         id="path3293-5"
         style="fill:#000000;stroke:none;stroke-width:0.118467px;stroke-linecap:butt;stroke-linejoin:miter;stroke-opacity:1"
         inkscape:transform-center-x="-0.61695693"
         inkscape:transform-center-y="0.4473835"
         d="m 159.87397,128.4147 c -0.10512,0.0886 -0.29708,0.51408 -0.29708,0.51408 l 0.48792,0.40869 0.0363,-0.11283 c 0.32498,-0.47906 -0.15558,-0.76597 -0.15558,-0.76597 z m -0.37447,0.48139 c -0.18176,0.19047 -0.46508,0.53787 -0.46508,0.53787 l 0.14487,0.19574 c 0.12998,-0.2503 0.24267,-0.51891 0.32021,-0.73361 z m 0.0747,0.15497 c -0.0933,0.11697 -0.36502,0.79298 -0.36502,0.79298 l 0.42928,0.3159 c 0,0 0.40657,-0.64424 0.39485,-0.7468 z m -1.52895,0.68069 c -0.0494,0.0225 -0.103,0.0808 -0.0384,0.22922 0,0 0.37711,0.36019 0.62506,0.26325 l -0.0955,-0.53257 -0.43316,0.0259 c 0,0 -0.0282,0.001 -0.0578,0.0146 z m 0.92358,-0.2401 -0.32126,0.16242 0.0969,0.53573 c 0.0323,-0.008 0.0646,-0.018 0.0969,-0.0302 0.10122,-0.11843 0.20201,-0.27683 0.29591,-0.44955 z m 0.19443,0.42673 -0.25896,0.25048 0.25187,0.48302 c 0.22713,-0.13601 0.42054,-0.44279 0.42054,-0.44279 z m -0.76783,0.47577 c -0.0338,0.0154 -0.15983,0.0863 -0.0117,0.25792 0,0 0.46668,0.23224 0.67476,0.0662 l -0.24869,-0.48001 -0.40621,0.15307 c 0,0 -0.003,7.3e-4 -0.009,0.002 z" /><g
         id="g2079"
         transform="rotate(-10.490116,160.07353,128.51702)"><path
           style="fill:#000000;stroke:none;stroke-width:0.106162px;stroke-linecap:butt;stroke-linejoin:miter;stroke-opacity:1"
           d="m 159.21208,128.71272 c 0.69294,-0.1318 0.46181,-0.67729 0.31652,-0.69524 -0.20238,-0.0849 -0.73412,-0.006 -0.73412,-0.006 l 0.009,0.63619 c 0.13476,0.0333 0.2813,0.0471 0.4086,0.065 z"
           id="path2665"
           sodipodi:nodetypes="cccccc" /><path
           style="fill:#000000;stroke:none;stroke-width:0.106162px;stroke-linecap:butt;stroke-linejoin:miter;stroke-opacity:1"
           d="m 158.72454,128.04344 0.006,0.59828 c -0.14785,-0.0519 -0.4416,-0.25459 -0.4416,-0.25459 -0.0451,0.0366 -0.10505,-0.15946 0.0413,-0.27315 0.20609,-0.0411 0.19384,-0.0176 0.39431,-0.0705 z"
           id="path2873"
           sodipodi:nodetypes="ccccc" /></g><path
         id="rect3570"
         style="fill:#000000;stroke:none;stroke-width:0.141029;stroke-linecap:round;stroke-dasharray:none;stroke-dashoffset:0;stop-color:#000000"
         d="m 154.82747,127.01057 c -0.0439,0.0289 -0.0881,0.0577 -0.13281,0.0868 0.048,0.004 0.0948,0.009 0.13901,0.0139 0.0237,0.003 0.046,0.006 0.0682,0.009 -0.0219,-0.0391 -0.0472,-0.0754 -0.0744,-0.10955 z m -0.37207,0.23926 c -0.17421,0.10875 -0.35111,0.21259 -0.52607,0.30179 0.004,0.0943 0.007,0.1919 0.009,0.29249 0.11482,-0.0101 0.23645,-0.0154 0.35812,-0.016 0.18937,-10e-4 0.37783,0.008 0.53692,0.0274 0.0347,0.004 0.0678,0.009 0.0992,0.0139 0.0321,-0.0757 0.0598,-0.13891 0.0827,-0.1881 v -0.11679 c 0,-0.0923 -0.0133,-0.18082 -0.0377,-0.26355 -0.0472,-0.01 -0.10116,-0.0187 -0.15968,-0.0258 -0.10852,-0.0131 -0.23333,-0.0218 -0.36277,-0.0253 z m -0.15658,0.74259 c -0.12125,6.6e-4 -0.2429,0.007 -0.35605,0.017 0.006,0.30963 0.007,0.64181 0.003,0.98082 0.0997,0.005 0.20471,0.008 0.31109,0.008 0.0773,1.2e-4 0.15513,-0.001 0.23151,-0.004 0.13597,-0.35871 0.27168,-0.7058 0.37931,-0.9679 -0.0163,-0.002 -0.0325,-0.005 -0.0496,-0.007 -0.15192,-0.0183 -0.33484,-0.0279 -0.51935,-0.0269 z m -0.35502,1.16427 c -0.002,0.15824 -0.005,0.31698 -0.009,0.47542 0.0986,0.009 0.20405,0.0138 0.31005,0.0155 0.0572,-0.15746 0.11803,-0.32159 0.17984,-0.48628 -0.0558,0.001 -0.11193,0.003 -0.16795,0.003 -0.10678,-1e-4 -0.21241,-0.002 -0.31316,-0.008 z m -0.0134,0.64079 c -0.003,0.11437 -0.006,0.22809 -0.01,0.34055 0.0405,0.0262 0.0832,0.0484 0.12815,0.0656 0.0402,-0.11827 0.0866,-0.25059 0.13695,-0.3912 -0.0872,-0.002 -0.17283,-0.008 -0.25529,-0.015 z" /><path
         id="rect3968"
         style="fill:#000000;stroke:none;stroke-width:0.286568;stroke-linecap:round;stroke-dasharray:none;stroke-dashoffset:0;stop-color:#000000"
         d="m 155.35889,127.32838 c -0.12669,0 -0.22884,0.11557 -0.22884,0.2589 l -0.0591,0.80029 -0.18893,0.0708 c -0.0951,0.0816 -0.79664,1.99431 -0.84691,2.33681 -0.017,0.42289 0.34946,2.76004 0.34946,2.76004 0.0935,0.22847 0.56094,1.20096 0.56094,1.20096 l 0.88117,0.0124 0.003,-0.0677 0.87249,-0.0119 c 0,0 0.46792,-0.97301 0.5614,-1.20148 0,0 0.36597,-2.33663 0.349,-2.75952 -0.0503,-0.3425 -0.75131,-2.25572 -0.84646,-2.33732 l -0.23055,-0.0199 -0.0435,-0.7835 c -0.008,-0.14305 -0.10215,-0.2589 -0.22886,-0.2589 z"
         sodipodi:nodetypes="csccccccccccccscc" /><path
         id="rect3362"
         style="fill:#000000;stroke:none;stroke-width:0.171884;stroke-linecap:round;stroke-dasharray:none;stroke-dashoffset:0;stop-color:#000000"
         d="m 156.57901,137.78459 -0.14297,0.30386 0.13795,0.34313 c 0.0408,-0.0315 0.0676,-0.0849 0.0676,-0.14521 v -0.36122 c 0,-0.0578 -0.0248,-0.10868 -0.0626,-0.14056 z" /><path
         id="rect3362-3"
         style="display:inline;fill:#000000;stroke:none;stroke-width:0.171884;stroke-linecap:round;stroke-dasharray:none;stroke-dashoffset:0;stop-color:#000000"
         d="m 154.88465,137.76394 0.14297,0.30386 -0.13795,0.34313 c -0.0408,-0.0315 -0.0676,-0.0849 -0.0676,-0.14521 v -0.36122 c 0,-0.0578 0.0247,-0.10868 0.0626,-0.14056 z" /><path
         id="rect2772"
         style="fill:#000000;stroke:none;stroke-width:0.155132;stroke-linecap:round;stroke-dasharray:none;stroke-dashoffset:0;stop-color:#000000"
         d="m 154.55082,135.45553 c 3.2e-4,0.52284 -0.008,1.30018 -0.008,1.30018 l 0.65963,1.26349 v 0.0703 h 1.14474 v -0.0191 l 0.62354,-1.32395 c 0,0 0.0496,-0.75144 0.0891,-1.27176 -0.27709,0.43013 -0.74644,0.68891 -1.24936,0.68885 -0.51025,-5.1e-4 -0.98509,-0.26734 -1.25986,-0.70797 z"
         sodipodi:nodetypes="cccccccccc" /><path
         id="path2718"
         style="fill:#000000;stroke:none;stroke-width:0.155132;stroke-linecap:round;stroke-dasharray:none;stroke-dashoffset:0;stop-color:#000000"
         d="m 157.19204,134.08921 c -0.0982,0.20128 -0.20815,0.42278 -0.28824,0.58342 v 0.0165 c 0,0.20872 -0.13722,0.38958 -0.31748,0.43925 -0.0766,0.18051 -0.23944,0.30437 -0.42893,0.30437 h -0.63632 c -0.18636,0 -0.34665,-0.11992 -0.42483,-0.29559 -0.18539,-0.029 -0.33585,-0.19556 -0.35768,-0.3979 -0.0823,-0.16507 -0.19507,-0.39221 -0.29463,-0.59635 a 1.4150262,1.5340482 0 0 0 -0.0352,0.33641 1.4150262,1.5340482 0 0 0 1.4147,1.53428 1.4150262,1.5340482 0 0 0 1.41518,-1.53428 1.4150262,1.5340482 0 0 0 -0.0466,-0.39015 z" /><rect
         style="fill:#000000;stroke:none;stroke-width:0.155132;stroke-linecap:round;stroke-dasharray:none;stroke-dashoffset:0;stop-color:#000000"
         id="rect2804"
         width="1.2788932"
         height="0.97024637"
         x="155.20024"
         y="134.32977"
         ry="0.43356085" /><path
         id="rect2573-2"
         style="color:#000000;fill:#ffffff;stroke-width:0.940194;stroke-linecap:round;-inkscape-stroke:none"
         d="m 155.21546,128.14848 c -0.206,0 -0.37823,0.19484 -0.37823,0.42788 v 5.90972 c 0,0.23304 0.17223,0.42788 0.37823,0.42788 h 1.21372 c 0.206,0 0.37778,-0.19484 0.37778,-0.42788 v -5.90972 c 0,-0.23304 -0.17178,-0.42788 -0.37778,-0.42788 z m 0,0.23255 h 1.21281 c 0.0957,0 0.17268,0.0871 0.17268,0.19533 v 5.91024 c 0,0.10826 -0.077,0.19534 -0.17268,0.19534 h -1.21281 c -0.0957,0 -0.17267,-0.0871 -0.17267,-0.19534 v -5.91024 c 0,-0.10825 0.077,-0.19533 0.17267,-0.19533 z" /><path
         style="color:#000000;fill:#ffffff;stroke-width:0.940194;stroke-linecap:round;-inkscape-stroke:none"
         d="m 155.82275,132.44987 c -0.20285,0 -0.36774,0.18849 -0.36774,0.41797 0,0.22947 0.16489,0.41796 0.36774,0.41796 0.20285,0 0.36947,-0.18849 0.36947,-0.41796 0,-0.22948 -0.16662,-0.41797 -0.36947,-0.41797 z m 0,0.16601 c 0.12403,0 0.22444,0.11165 0.22444,0.25196 0,0.1403 -0.10041,0.25195 -0.22444,0.25195 -0.12402,0 -0.22272,-0.11165 -0.22272,-0.25195 0,-0.14031 0.0987,-0.25196 0.22272,-0.25196 z"
         id="path4816" /><path
         style="color:#000000;display:inline;fill:#ffffff;stroke-width:0.940194;stroke-linecap:round;-inkscape-stroke:none"
         d="m 155.82275,133.52715 c -0.20285,0 -0.36774,0.18849 -0.36774,0.41797 0,0.22947 0.16489,0.41796 0.36774,0.41796 0.20285,0 0.36947,-0.18849 0.36947,-0.41796 0,-0.22948 -0.16662,-0.41797 -0.36947,-0.41797 z m 0,0.16601 c 0.12403,0 0.22444,0.11165 0.22444,0.25196 0,0.1403 -0.10041,0.25195 -0.22444,0.25195 -0.12402,0 -0.22272,-0.11165 -0.22272,-0.25195 0,-0.14031 0.0987,-0.25196 0.22272,-0.25196 z"
         id="path4813" /><path
         id="path3165"
         style="fill:#000000;stroke:none;stroke-width:0.279247px;stroke-linecap:butt;stroke-linejoin:miter;stroke-opacity:1"
         d="m 155.71977,138.21919 c -0.23076,8e-4 -0.46128,0.004 -0.69205,0.006 l -0.73636,1.83296 v 0.49196 h 0.1585 v -0.30127 c 0,-0.0954 0.071,-0.17622 0.15531,-0.17622 h 0.38874 c 0.0843,0 0.15349,0.0808 0.15349,0.17622 v 0.30127 h 0.5646 0.016 0.51573 v -0.3054 c 0,-0.0954 0.071,-0.1757 0.15532,-0.1757 h 0.38873 c 0.0843,0 0.15349,0.0803 0.15349,0.1757 v 0.3054 h 0.20739 v -0.49196 l -0.73637,-1.83296 c -0.23077,-0.005 -0.46176,-0.006 -0.69251,-0.006 z m -0.53537,0.18293 1.09267,0.0119 0.50614,1.44952 h -2.13418 l 0.51801,-1.41025 z m 0.0982,0.16433 -0.0507,0.1385 h 0.98989 l -0.0447,-0.12868 z m -0.11101,0.30283 -0.0667,0.18138 h 1.23748 l -0.063,-0.18138 z m -0.12699,0.34571 -0.0667,0.18139 h 1.48506 l -0.063,-0.18139 z m -0.12699,0.34572 -0.0512,0.13901 h 1.7025 l -0.0485,-0.13901 z m 1.48141,0.65835 c -0.0132,0 -0.0224,0.0104 -0.0224,0.0253 v 0.3054 h 0.43351 v -0.3054 c 0,-0.0149 -0.009,-0.0253 -0.0224,-0.0253 z m -1.79615,0.004 c -0.0118,0.001 -0.0201,0.0119 -0.0201,0.0258 v 0.30127 h 0.43167 v -0.30127 c 0,-0.0149 -0.007,-0.0258 -0.0205,-0.0258 h -0.38874 c -8.2e-4,0 -0.002,-8e-5 -0.003,0 z" /><path
         style="color:#000000;fill:#000000;stroke-width:0.141029;stroke-linecap:round;-inkscape-stroke:none"
         d="m 154.60447,140.14796 h 0.38888 c 0.0488,0 0.088,0.0444 0.088,0.0996 v 0.4489 c 0,0.0552 -0.0392,0.0996 -0.088,0.0996 h -0.38888 c -0.0488,0 -0.088,-0.0444 -0.088,-0.0996 v -0.4489 c 0,-0.0552 0.0392,-0.0996 0.088,-0.0996 z"
         id="path3339" /><path
         style="color:#000000;fill:#000000;stroke-width:0.141029;stroke-linecap:round;-inkscape-stroke:none"
         d="m 156.39867,140.14434 h 0.38887 c 0.0488,0 0.088,0.0444 0.088,0.0996 v 0.4489 c 0,0.0552 -0.0392,0.0996 -0.088,0.0996 h -0.38887 c -0.0488,0 -0.0881,-0.0444 -0.0881,-0.0996 v -0.4489 c 0,-0.0552 0.0393,-0.0996 0.0881,-0.0996 z"
         id="path3345" /><g
         id="g5326"
         transform="translate(2.5700103,0.47796057)"><path
           id="rect3570-3"
           style="display:inline;fill:#000000;stroke:none;stroke-width:0.141029;stroke-linecap:round;stroke-dasharray:none;stroke-dashoffset:0;stop-color:#000000"
           d="m 147.98165,126.51407 c 0.0439,0.0289 0.0881,0.0577 0.13281,0.0868 -0.048,0.004 -0.0948,0.009 -0.13901,0.0139 -0.0237,0.003 -0.046,0.006 -0.0682,0.009 0.0219,-0.0391 0.0472,-0.0754 0.0744,-0.10955 z m 0.37207,0.23926 c 0.17421,0.10875 0.35111,0.21259 0.52607,0.30179 -0.004,0.0943 -0.007,0.1919 -0.009,0.29249 -0.11482,-0.0101 -0.23645,-0.0154 -0.35812,-0.016 -0.18937,-0.001 -0.37783,0.008 -0.53692,0.0274 -0.0347,0.004 -0.0678,0.009 -0.0992,0.0139 -0.0321,-0.0757 -0.0598,-0.13891 -0.0827,-0.1881 v -0.11679 c 0,-0.0923 0.0133,-0.18082 0.0377,-0.26355 0.0472,-0.01 0.10116,-0.0187 0.15968,-0.0258 0.10852,-0.0131 0.23333,-0.0218 0.36277,-0.0253 z m 0.15658,0.74259 c 0.12125,6.6e-4 0.2429,0.007 0.35605,0.017 -0.006,0.30963 -0.007,0.64181 -0.003,0.98082 -0.0997,0.005 -0.20471,0.008 -0.31109,0.008 -0.0773,1.2e-4 -0.15513,-0.001 -0.23151,-0.004 -0.13597,-0.35871 -0.27168,-0.7058 -0.37931,-0.9679 0.0163,-0.002 0.0325,-0.005 0.0496,-0.007 0.15192,-0.0183 0.33484,-0.0279 0.51935,-0.0269 z m 0.35502,1.16427 c 0.002,0.15824 0.005,0.31698 0.009,0.47542 -0.0986,0.009 -0.20405,0.0138 -0.31005,0.0155 -0.0572,-0.15746 -0.11803,-0.32159 -0.17984,-0.48628 0.0558,0.001 0.11193,0.003 0.16795,0.003 0.10678,-1e-4 0.21241,-0.002 0.31316,-0.008 z m 0.0134,0.64079 c 0.003,0.11437 0.006,0.22809 0.01,0.34055 -0.0405,0.0262 -0.0832,0.0484 -0.12815,0.0656 -0.0402,-0.11827 -0.0866,-0.25059 -0.13695,-0.3912 0.0872,-0.002 0.17283,-0.008 0.25529,-0.015 z" /><path
           id="rect3968-1"
           style="display:inline;fill:#000000;stroke:none;stroke-width:0.286568;stroke-linecap:round;stroke-dasharray:none;stroke-dashoffset:0;stop-color:#000000"
           d="m 147.45023,126.83188 c 0.12669,0 0.22884,0.11557 0.22884,0.2589 l 0.0591,0.80029 0.18893,0.0708 c 0.0951,0.0816 0.79664,1.99431 0.84691,2.33681 0.017,0.42289 -0.34946,2.76004 -0.34946,2.76004 -0.0935,0.22847 -0.56094,1.20096 -0.56094,1.20096 l -0.88117,0.0124 -0.003,-0.0677 -0.87249,-0.0119 c 0,0 -0.46792,-0.97301 -0.5614,-1.20148 0,0 -0.36597,-2.33663 -0.349,-2.75952 0.0503,-0.3425 0.75131,-2.25572 0.84646,-2.33732 l 0.23055,-0.0199 0.0435,-0.7835 c 0.008,-0.14305 0.10215,-0.2589 0.22886,-0.2589 z"
           sodipodi:nodetypes="csccccccccccccscc" /><path
           id="rect3362-4"
           style="display:inline;fill:#000000;stroke:none;stroke-width:0.171884;stroke-linecap:round;stroke-dasharray:none;stroke-dashoffset:0;stop-color:#000000"
           d="m 146.23011,137.28809 0.14297,0.30386 -0.13795,0.34313 c -0.0408,-0.0315 -0.0676,-0.0849 -0.0676,-0.14521 v -0.36122 c 0,-0.0578 0.0248,-0.10868 0.0626,-0.14056 z" /><path
           id="rect3362-3-9"
           style="display:inline;fill:#000000;stroke:none;stroke-width:0.171884;stroke-linecap:round;stroke-dasharray:none;stroke-dashoffset:0;stop-color:#000000"
           d="m 147.92447,137.26744 -0.14297,0.30386 0.13795,0.34313 c 0.0408,-0.0315 0.0676,-0.0849 0.0676,-0.14521 V 137.408 c 0,-0.0578 -0.0247,-0.10868 -0.0626,-0.14056 z" /><path
           id="rect2772-2"
           style="display:inline;fill:#000000;stroke:none;stroke-width:0.155132;stroke-linecap:round;stroke-dasharray:none;stroke-dashoffset:0;stop-color:#000000"
           d="m 148.2583,134.95903 c -3.2e-4,0.52284 0.008,1.30018 0.008,1.30018 l -0.65963,1.26349 v 0.0703 h -1.14474 v -0.0191 l -0.62354,-1.32395 c 0,0 -0.0496,-0.75144 -0.0891,-1.27176 0.27709,0.43013 0.74644,0.68891 1.24936,0.68885 0.51025,-5.1e-4 0.98509,-0.26734 1.25986,-0.70797 z"
           sodipodi:nodetypes="cccccccccc" /><path
           id="path2718-0"
           style="display:inline;fill:#000000;stroke:none;stroke-width:0.155132;stroke-linecap:round;stroke-dasharray:none;stroke-dashoffset:0;stop-color:#000000"
           d="m 145.61708,133.59271 c 0.0982,0.20128 0.20815,0.42278 0.28824,0.58342 v 0.0165 c 0,0.20872 0.13722,0.38958 0.31748,0.43925 0.0766,0.18051 0.23944,0.30437 0.42893,0.30437 h 0.63632 c 0.18636,0 0.34665,-0.11992 0.42483,-0.29559 0.18539,-0.029 0.33585,-0.19556 0.35768,-0.3979 0.0823,-0.16507 0.19507,-0.39221 0.29463,-0.59635 a 1.4150262,1.5340482 0 0 1 0.0352,0.33641 1.4150262,1.5340482 0 0 1 -1.4147,1.53428 1.4150262,1.5340482 0 0 1 -1.41518,-1.53428 1.4150262,1.5340482 0 0 1 0.0466,-0.39015 z" /><rect
           style="display:inline;fill:#000000;stroke:none;stroke-width:0.155132;stroke-linecap:round;stroke-dasharray:none;stroke-dashoffset:0;stop-color:#000000"
           id="rect2804-6"
           width="1.2788932"
           height="0.97024637"
           x="-147.60887"
           y="133.83327"
           ry="0.43356085"
           transform="scale(-1,1)" /><path
           id="rect2573-2-8"
           style="color:#000000;display:inline;fill:#ffffff;stroke-width:0.940194;stroke-linecap:round;-inkscape-stroke:none"
           d="m 147.59366,127.65198 c 0.206,0 0.37823,0.19484 0.37823,0.42788 v 5.90972 c 0,0.23304 -0.17223,0.42788 -0.37823,0.42788 h -1.21372 c -0.206,0 -0.37778,-0.19484 -0.37778,-0.42788 v -5.90972 c 0,-0.23304 0.17178,-0.42788 0.37778,-0.42788 z m 0,0.23255 h -1.21281 c -0.0957,0 -0.17268,0.0871 -0.17268,0.19533 v 5.91024 c 0,0.10826 0.077,0.19534 0.17268,0.19534 h 1.21281 c 0.0957,0 0.17267,-0.0871 0.17267,-0.19534 v -5.91024 c 0,-0.10825 -0.077,-0.19533 -0.17267,-0.19533 z" /><path
           style="color:#000000;display:inline;fill:#ffffff;stroke-width:0.940194;stroke-linecap:round;-inkscape-stroke:none"
           d="m 146.98637,131.95337 c 0.20285,0 0.36774,0.18849 0.36774,0.41797 0,0.22947 -0.16489,0.41796 -0.36774,0.41796 -0.20285,0 -0.36947,-0.18849 -0.36947,-0.41796 0,-0.22948 0.16662,-0.41797 0.36947,-0.41797 z m 0,0.16601 c -0.12403,0 -0.22444,0.11165 -0.22444,0.25196 0,0.1403 0.10041,0.25195 0.22444,0.25195 0.12402,0 0.22272,-0.11165 0.22272,-0.25195 0,-0.14031 -0.0987,-0.25196 -0.22272,-0.25196 z"
           id="path4816-9" /><path
           style="color:#000000;display:inline;fill:#ffffff;stroke-width:0.940194;stroke-linecap:round;-inkscape-stroke:none"
           d="m 146.98637,133.03065 c 0.20285,0 0.36774,0.18849 0.36774,0.41797 0,0.22947 -0.16489,0.41796 -0.36774,0.41796 -0.20285,0 -0.36947,-0.18849 -0.36947,-0.41796 0,-0.22948 0.16662,-0.41797 0.36947,-0.41797 z m 0,0.16601 c -0.12403,0 -0.22444,0.11165 -0.22444,0.25196 0,0.1403 0.10041,0.25195 0.22444,0.25195 0.12402,0 0.22272,-0.11165 0.22272,-0.25195 0,-0.14031 -0.0987,-0.25196 -0.22272,-0.25196 z"
           id="path4813-2" /><path
           id="path3165-6"
           style="display:inline;fill:#000000;stroke:none;stroke-width:0.279247px;stroke-linecap:butt;stroke-linejoin:miter;stroke-opacity:1"
           d="m 147.08935,137.72269 c 0.23076,8e-4 0.46128,0.004 0.69205,0.006 l 0.73636,1.83296 v 0.49196 h -0.1585 v -0.30127 c 0,-0.0954 -0.071,-0.17622 -0.15531,-0.17622 h -0.38874 c -0.0843,0 -0.15349,0.0808 -0.15349,0.17622 v 0.30127 h -0.5646 -0.016 -0.51573 v -0.3054 c 0,-0.0954 -0.071,-0.1757 -0.15532,-0.1757 h -0.38873 c -0.0843,0 -0.15349,0.0803 -0.15349,0.1757 v 0.3054 h -0.20739 v -0.49196 l 0.73637,-1.83296 c 0.23077,-0.005 0.46176,-0.006 0.69251,-0.006 z m 0.53537,0.18293 -1.09267,0.0119 -0.50614,1.44952 h 2.13418 l -0.51801,-1.41025 z m -0.0982,0.16433 0.0507,0.1385 h -0.98989 l 0.0447,-0.12868 z m 0.11101,0.30283 0.0667,0.18138 h -1.23748 l 0.063,-0.18138 z m 0.12699,0.34571 0.0667,0.18139 h -1.48506 l 0.063,-0.18139 z m 0.12699,0.34572 0.0512,0.13901 h -1.7025 l 0.0485,-0.13901 z m -1.48141,0.65835 c 0.0132,0 0.0224,0.0104 0.0224,0.0253 v 0.3054 h -0.43351 v -0.3054 c 0,-0.0149 0.009,-0.0253 0.0224,-0.0253 z m 1.79615,0.004 c 0.0118,0.001 0.0201,0.0119 0.0201,0.0258 v 0.30127 h -0.43167 v -0.30127 c 0,-0.0149 0.007,-0.0258 0.0205,-0.0258 h 0.38874 c 8.2e-4,0 0.002,-8e-5 0.003,0 z" /><path
           style="color:#000000;display:inline;fill:#000000;stroke-width:0.141029;stroke-linecap:round;-inkscape-stroke:none"
           d="m 148.20465,139.65146 h -0.38888 c -0.0488,0 -0.088,0.0444 -0.088,0.0996 v 0.4489 c 0,0.0552 0.0392,0.0996 0.088,0.0996 h 0.38888 c 0.0488,0 0.088,-0.0444 0.088,-0.0996 v -0.4489 c 0,-0.0552 -0.0392,-0.0996 -0.088,-0.0996 z"
           id="path3339-6" /><path
           style="color:#000000;display:inline;fill:#000000;stroke-width:0.141029;stroke-linecap:round;-inkscape-stroke:none"
           d="m 146.41045,139.64784 h -0.38887 c -0.0488,0 -0.088,0.0444 -0.088,0.0996 v 0.4489 c 0,0.0552 0.0392,0.0996 0.088,0.0996 h 0.38887 c 0.0488,0 0.0881,-0.0444 0.0881,-0.0996 v -0.4489 c 0,-0.0552 -0.0393,-0.0996 -0.0881,-0.0996 z"
           id="path3345-4" /></g></g></g></svg>
