<?xml version="1.0" encoding="UTF-8" standalone="no"?>
<!-- Created with Inkscape (http://www.inkscape.org/) -->

<svg
   sodipodi:docname="Valiant.svg"
   inkscape:version="1.1.2 (0a00cf5339, 2022-02-04)"
   id="svg8"
   version="1.1"
   viewBox="0 0 34.98301 52.516205"
   height="52.516205mm"
   width="34.983009mm"
   xmlns:inkscape="http://www.inkscape.org/namespaces/inkscape"
   xmlns:sodipodi="http://sodipodi.sourceforge.net/DTD/sodipodi-0.dtd"
   xmlns="http://www.w3.org/2000/svg"
   xmlns:svg="http://www.w3.org/2000/svg"
   xmlns:rdf="http://www.w3.org/1999/02/22-rdf-syntax-ns#"
   xmlns:cc="http://creativecommons.org/ns#"
   xmlns:dc="http://purl.org/dc/elements/1.1/">
  <defs
     id="defs2" />
  <sodipodi:namedview
     id="base"
     pagecolor="#ffffff"
     bordercolor="#666666"
     borderopacity="1.0"
     inkscape:pageopacity="0.0"
     inkscape:pageshadow="2"
     inkscape:zoom="2.8284271"
     inkscape:cx="72.831998"
     inkscape:cy="130.4612"
     inkscape:document-units="mm"
     inkscape:current-layer="layer1"
     showgrid="false"
     inkscape:window-width="1637"
     inkscape:window-height="773"
     inkscape:window-x="1989"
     inkscape:window-y="1229"
     inkscape:window-maximized="0"
     inkscape:snap-global="false"
     fit-margin-top="0"
     fit-margin-left="0"
     fit-margin-right="0"
     fit-margin-bottom="0"
     showguides="false"
     inkscape:guide-bbox="true"
     inkscape:pagecheckerboard="0" />
  <metadata
     id="metadata5">
    <rdf:RDF>
      <cc:Work
         rdf:about="">
        <dc:format>image/svg+xml</dc:format>
        <dc:type
           rdf:resource="http://purl.org/dc/dcmitype/StillImage" />
      </cc:Work>
    </rdf:RDF>
  </metadata>
  <g
     inkscape:label="Capa 1"
     inkscape:groupmode="layer"
     id="layer1"
     transform="translate(-135.48963,-99.590537)">
    <rect
       style="opacity:1;vector-effect:none;fill:#1a1a1a;fill-opacity:1;stroke:none;stroke-width:0.1;stroke-linecap:butt;stroke-linejoin:miter;stroke-miterlimit:4;stroke-dasharray:none;stroke-dashoffset:0;stroke-opacity:1"
       id="rect860"
       width="7.0941477"
       height="0"
       x="148.86763"
       y="129.31949" />
    <g
       id="g11644"
       transform="translate(-0.16413927)">
      <path
         id="rect10456"
         style="fill:#000000;stroke:none;stroke-width:0.623622;stroke-linecap:round;stroke-miterlimit:4;stroke-dasharray:none;stroke-dashoffset:0;stop-color:#000000"
         d="m 31.427734,65.234375 v 2.246094 h 9.146485 v -2.246094 z m 1.992188,2.402344 v 5.996093 c 0.654866,-0.646984 1.640856,-1.110815 2.732422,-1.117187 1.162312,0.03314 2.167972,0.427569 2.83789,1.052734 v -5.93164 z m 2.666016,5.507812 c -1.535774,0.0075 -2.808594,1.160089 -2.808594,2.242188 v 1.423828 c 0,0.28989 0.135751,0.564638 0.351562,0.8125 0.806196,-0.275633 1.651903,-0.418124 2.503906,-0.421875 v -0.002 c 0.858887,0.0035 1.711371,0.148009 2.523438,0.427734 0.220346,-0.248693 0.359375,-0.525194 0.359375,-0.816406 v -1.423828 c -0.07057,-1.261797 -1.307469,-2.19595 -2.929687,-2.242188 z m -1.101563,1.22461 h 2.384766 c 0.171223,6.93e-4 0.309854,0.139324 0.310547,0.310547 0.0037,0.174264 -0.136245,0.317691 -0.310547,0.318359 h -2.384766 c -0.173535,-0.0018 -0.312247,-0.144854 -0.308594,-0.318359 6.82e-4,-0.170467 0.138135,-0.30879 0.308594,-0.310547 z m -0.169922,0.871093 h 2.724609 c 0.171223,6.93e-4 0.309854,0.139324 0.310547,0.310547 0.0037,0.174266 -0.136244,0.317692 -0.310547,0.31836 h -2.724609 c -0.173536,-0.0018 -0.312248,-0.144854 -0.308594,-0.31836 6.82e-4,-0.170467 0.138135,-0.30879 0.308594,-0.310547 z m -0.265625,0.871094 h 3.25586 c 0.174264,-0.0037 0.317691,0.136245 0.318359,0.310547 -6.68e-4,0.174302 -0.144095,0.314209 -0.318359,0.310547 h -3.25586 c -0.173506,0.0026 -0.315721,-0.137023 -0.316406,-0.310547 6.85e-4,-0.173524 0.1429,-0.313105 0.316406,-0.310547 z m 1.65625,1.619141 a 7.8466331,7.8466331 0 0 0 -2.822266,0.529297 l 1.289063,1.320312 c 0.494976,-0.118582 1.010232,-0.183539 1.541016,-0.183594 h 0.002 c 0.523062,6e-5 1.031142,0.06247 1.519531,0.177735 l 1.292969,-1.316407 a 7.8466331,7.8466331 0 0 0 -2.822266,-0.527343 z m -4.716797,0.189453 c -0.399519,-0.0041 -0.80002,0.144355 -1.109375,0.447266 l -0.15039,0.148437 c -0.61818,0.60582 -0.629258,1.592231 -0.02344,2.210937 l 0.976563,0.996094 c 0.157522,-0.184243 0.325532,-0.359266 0.501953,-0.52539 0.08335,-0.07839 0.168574,-0.154425 0.255859,-0.228516 0.03702,-0.03145 0.07362,-0.06311 0.111328,-0.09375 0.122604,-0.09958 0.249325,-0.194356 0.378907,-0.285156 0.0034,-0.0024 0.0063,-0.0054 0.0098,-0.0078 0.276937,-0.193286 0.569375,-0.366113 0.875,-0.515625 0.209536,-0.102686 0.425224,-0.195074 0.646485,-0.27539 l -1.371094,-1.400391 c -0.30291,-0.309071 -0.702043,-0.466574 -1.101563,-0.470703 z m 9.433594,0 c -0.39952,0.0041 -0.796699,0.161632 -1.099609,0.470703 l -1.369141,1.396484 c 0.236382,0.08523 0.466402,0.184329 0.689453,0.294922 0.124287,0.06159 0.245526,0.128182 0.365234,0.197266 0.02726,0.01573 0.05502,0.03077 0.08203,0.04687 0.121166,0.07226 0.23945,0.148874 0.355468,0.228516 0.05976,0.04099 0.117454,0.08408 0.175782,0.126953 0.081,0.05958 0.162086,0.118542 0.240234,0.18164 0.04055,0.03272 0.07939,0.06791 0.119141,0.101563 0.08337,0.07058 0.166305,0.142288 0.246093,0.216797 0.179831,0.167999 0.351385,0.344427 0.511719,0.53125 l 0.966797,-0.986329 c 0.605821,-0.618668 0.596657,-1.605117 -0.02148,-2.210937 L 42.03125,78.367188 c -0.309354,-0.30293 -0.709855,-0.4514 -1.109375,-0.447266 z m -4.716797,2.36914 a 5.9674481,5.9674481 0 0 0 -5.966797,5.966797 5.9674481,5.9674481 0 0 0 0.002,0.05273 h 1.324219 A 4.6675344,4.6675344 0 0 0 36.205078,90.5 4.6675344,4.6675344 0 0 0 40.845703,86.308594 h 1.324219 a 5.9674481,5.9674481 0 0 0 0.002,-0.05273 5.9674481,5.9674481 0 0 0 -5.966797,-5.966797 z m 7.13086,0.65625 v 0.002 c 1.004446,1.39457 1.597429,3.103259 1.597656,4.949218 -0.003,3.623622 -2.39817,6.688757 -5.779297,7.869141 v 2.511719 c 0.20674,0.01512 0.413787,0.02539 0.621094,0.02539 3.596357,-4.56e-4 6.643882,-2.346468 7.697265,-5.591796 h 1.396485 c 0.510682,0 0.921875,-0.411193 0.921875,-0.921876 v -3.746093 c 0,-0.510682 -0.411193,-0.921875 -0.921875,-0.921875 h -1.617188 c -0.740733,-1.79021 -2.113369,-3.292296 -3.916015,-4.175782 z m -0.646485,0.216797 c -0.0061,0.0064 -0.0114,0.01323 -0.01758,0.01953 l -1.029297,1.050781 c 0.751052,1.073626 1.193199,2.378491 1.19336,3.785156 v 0.01563 0.0078 c -6.05e-4,0.01928 7.91e-4,0.0397 0,0.05859 l -0.02148,1.019532 h -1.289062 c -0.353462,2.694652 -2.649481,4.325153 -5.367188,4.326171 -2.717707,-0.001 -5.015755,-1.764332 -5.369141,-4.458984 h -1.166015 l -0.03125,-0.886719 c -7.94e-4,-0.01928 6.42e-4,-0.0397 0,-0.05859 v -0.0078 -0.01563 c 1.59e-4,-1.400639 0.438406,-2.700475 1.183594,-3.771484 l -1.041016,-1.0625 c -0.0055,-0.0056 -0.01018,-0.01189 -0.01563,-0.01758 a 7.8466331,7.8466331 0 0 0 -1.359375,4.410156 7.8466331,7.8466331 0 0 0 5.783203,7.564453 v 0.04883 10.400387 2.0586 c 0,1.14259 0.919873,2.0625 2.0625,2.0625 1.142589,0 2.0625,-0.91991 2.0625,-2.0625 v -2.0586 -10.400387 -0.04883 a 7.8466331,7.8466331 0 0 0 5.785156,-7.564453 7.8466331,7.8466331 0 0 0 -1.363281,-4.414063 z m -6.486328,0.615235 c 2.141329,0 3.882813,1.749258 3.882813,3.890625 0,2.141329 -1.741484,3.882812 -3.882813,3.882812 -2.141329,0 -3.890625,-1.741483 -3.890625,-3.882812 0,-2.141367 1.749296,-3.890625 3.890625,-3.890625 z m 0,0.996094 c -1.600894,0 -2.886719,1.293636 -2.886719,2.894531 0,1.600894 1.285825,2.886719 2.886719,2.886719 1.600894,0 2.886719,-1.285825 2.886719,-2.886719 0,-1.600895 -1.285825,-2.894531 -2.886719,-2.894531 z"
         transform="matrix(0.26458333,0,0,0.26458333,135.48963,99.590537)" />
      <path
         id="rect4226"
         style="fill:#000000;stroke:none;stroke-width:0.165;stroke-linecap:round;stroke-miterlimit:4;stroke-dasharray:none;stop-color:#000000"
         d="m 160.17897,127.38724 v 0.60979 c 0.17645,-0.1678 0.41987,-0.27182 0.68884,-0.27182 h 0.0755 c 0.27332,0 0.52003,0.10748 0.69712,0.28009 v -0.61806 z m 0.6966,0.4899 c -0.45435,0 -0.82011,0.36574 -0.82011,0.8201 v 1.67019 c 0,0.45437 0.36576,0.8201 0.82011,0.8201 h 0.0687 c 0.45436,0 0.8201,-0.36573 0.8201,-0.8201 v -1.67019 c 0,-0.45436 -0.36574,-0.8201 -0.8201,-0.8201 z m -0.91106,0.22479 c -0.23037,0 -0.41599,0.18563 -0.41599,0.416 v 0.8232 l -0.0915,-0.23047 -0.0568,0.0212 -0.0723,0.0351 0.11369,0.23823 0.0646,-0.0289 0.0424,-0.0171 v 0.41393 c 0,0.1672 0.098,0.31096 0.23977,0.37723 0.0116,-0.009 0.0303,-0.024 0.0382,-0.03 l 0.0558,-0.0419 v -1.39061 c 0,-0.22195 0.082,-0.42594 0.21859,-0.58601 z m 1.72599,0 c 0.13657,0.16007 0.21859,0.36406 0.21859,0.58601 v 1.37925 l 0.0915,0.0718 c 0.002,0.002 0.007,0.006 0.0103,0.008 0.13792,-0.0677 0.23254,-0.20922 0.23254,-0.37362 v -1.25522 c 0,-0.23037 -0.18562,-0.41599 -0.41599,-0.41599 z m -0.78083,0.0372 c 0.38139,0 0.6935,0.31213 0.6935,0.69349 0,0.3814 -0.31211,0.6935 -0.6935,0.6935 -0.38138,0 -0.69349,-0.3121 -0.69349,-0.6935 0,-0.38136 0.31211,-0.69349 0.69349,-0.69349 z m 0,0.24029 c -0.25151,0 -0.4532,0.20169 -0.4532,0.4532 0,0.25155 0.20169,0.45321 0.4532,0.45321 0.25153,0 0.45321,-0.20166 0.45321,-0.45321 0,-0.25151 -0.20168,-0.4532 -0.45321,-0.4532 z m 1.45366,0.73123 -0.0977,0.24597 0.0486,0.0196 0.0646,0.0289 0.11318,-0.23823 -0.0724,-0.0351 z m -3.16001,0.12092 -0.0667,0.0372 -0.0548,0.0351 0.14469,0.22066 0.047,-0.0294 0.0584,-0.0331 z m 3.41374,0 -0.12867,0.23047 0.0584,0.0331 0.047,0.0294 0.14469,-0.22066 -0.0548,-0.0351 z m -3.65249,0.15606 -0.0429,0.0336 -0.0646,0.0605 0.17984,0.19327 0.0568,-0.0527 0.0351,-0.0253 z m 3.89072,0 -0.16381,0.20929 0.0351,0.0253 0.0563,0.0527 0.17984,-0.19327 -0.0646,-0.0605 z m -4.10518,0.20929 -0.0605,0.0837 -0.0217,0.0372 0.22841,0.13281 0.014,-0.0233 0.0548,-0.0744 z m 4.32016,0 -0.21498,0.15606 0.0548,0.0744 0.014,0.0233 0.22841,-0.13281 -0.0217,-0.0372 z m -2.32079,0.21807 a 0.1322915,0.1322915 0 0 1 0.1328,0.13075 v 0.67592 a 0.1322915,0.1322915 0 0 1 -0.1328,0.13281 0.1322915,0.1322915 0 0 1 -0.13075,-0.13281 v -0.67592 a 0.1322915,0.1322915 0 0 1 0.13075,-0.13075 z m 0.37878,0 a 0.1322915,0.1322915 0 0 1 0.13281,0.13075 v 0.67592 a 0.1322915,0.1322915 0 0 1 -0.13281,0.13281 0.1322915,0.1322915 0 0 1 -0.1328,-0.13281 v -0.67592 a 0.1322915,0.1322915 0 0 1 0.1328,-0.13075 z m -2.52697,0.0315 -0.0103,0.0238 -0.0331,0.0977 -0.006,0.031 0.25787,0.0568 0.004,-0.0181 0.0227,-0.0703 0.004,-0.0114 z m 4.61728,0 -0.24029,0.10955 0.004,0.0119 0.0233,0.0703 0.004,0.0176 0.25786,-0.0568 -0.006,-0.031 -0.0331,-0.0977 z m -4.69118,0.29507 -0.002,0.0232 -0.002,0.0997 0.002,0.0331 0.26355,-0.0176 -0.002,-0.0232 0.002,-0.0724 0.002,-0.0114 z m 4.7656,0 -0.26355,0.0315 0.002,0.0114 0.002,0.0724 -0.002,0.0232 0.26406,0.0176 0.002,-0.0331 -0.002,-0.0997 z m -3.38532,0.15348 c -0.15759,0.11407 -1.25446,0.98024 -1.26246,1.10536 -0.1153,0.39912 0.55292,1.29312 0.83096,1.24592 0.10206,0.0105 1.32367,-0.74066 1.4335,-0.91778 0.10982,0.17712 1.33145,0.92832 1.43351,0.91778 0.27803,0.0472 0.94677,-0.8468 0.83147,-1.24592 -0.007,-0.12021 -1.02075,-0.92463 -1.24023,-1.08882 v 0.12712 c 0,0.51264 -0.43662,0.92811 -0.97565,0.92811 h -0.0754 c -0.53902,0 -0.97565,-0.41547 -0.97565,-0.92811 z m -1.10485,0.10645 -0.26199,0.0393 0.004,0.0176 0.0217,0.0956 0.0114,0.0351 0.25218,-0.0801 -0.008,-0.0253 -0.0176,-0.0765 z m 4.21473,0 -0.002,0.006 -0.0176,0.0765 -0.008,0.0253 0.25166,0.0801 0.0119,-0.0351 0.0212,-0.0956 0.004,-0.0176 z m -4.14651,0.22273 -0.24598,0.0977 0.008,0.0155 0.0413,0.0899 0.0155,0.0294 0.23255,-0.12712 -0.0119,-0.0217 -0.0351,-0.0739 z m 4.0783,0 -0.004,0.01 -0.0351,0.0744 -0.0119,0.0212 0.23255,0.12712 0.0155,-0.0294 0.0408,-0.0899 0.008,-0.0155 z m -3.96513,0.21291 -0.22428,0.14056 0.0134,0.0196 0.0568,0.0801 0.0155,0.0191 0.20722,-0.16382 -0.0119,-0.0139 -0.047,-0.0682 z m 3.85144,0 -0.0103,0.0134 -0.0465,0.0687 -0.0119,0.0134 0.20671,0.16434 0.0155,-0.0196 0.0568,-0.0801 0.0134,-0.0196 z" />
      <path
         id="path9379"
         style="color:#000000;fill:#000000;stroke-width:0.999999px;-inkscape-stroke:none"
         d="M 69.085938,63.634766 A 1.8663699,1.8663699 0 0 0 67.220703,65.5 1.8663699,1.8663699 0 0 0 69.085938,67.367188 1.8663699,1.8663699 0 0 0 70.953125,65.5 1.8663699,1.8663699 0 0 0 69.085938,63.634766 Z m -2.212891,0.8125 c -0.372401,0.226508 -0.619141,0.636123 -0.619141,1.105468 v 1.546875 h -0.02148 c -0.716098,0 -1.292969,0.574918 -1.292969,1.291016 v 1.041016 c -0.03725,-0.0142 -0.07874,-0.02344 -0.121094,-0.02344 h -1.072265 c -0.185829,0 -0.335938,0.150109 -0.335938,0.335938 v 1.027343 c 0,0.09872 0.04193,0.186773 0.109375,0.248047 -0.655992,0.120576 -1.15039,0.689014 -1.15039,1.38086 v 5.128906 h -2.585938 v 0.0078 h -0.107422 c -0.110798,-0.445715 -0.470052,-0.80164 -0.9375,-0.939453 0.266686,0.392941 0.421875,0.865075 0.421875,1.373047 0,1.351937 -1.105094,2.451172 -2.457031,2.451172 -1.351937,-3.8e-5 -2.451134,-1.099235 -2.451172,-2.451172 0,-0.518443 0.163958,-0.998836 0.439453,-1.396484 -0.586232,0.139991 -1.019768,0.619782 -1.044922,1.199219 -0.445455,0.264933 -0.740234,0.724973 -0.740234,1.251953 v 2.603515 h -1.193359 c -0.660737,0 -1.19336,0.490879 -1.19336,1.09961 V 92.8125 c 0,0.08172 0.0091,0.161716 0.02734,0.238281 v 0.800781 l 0.191406,0.191407 c -0.03974,-2.165468 -0.0051,-4.332071 0.0957,-6.636719 0.640933,-0.02468 11.310537,5.044291 11.589844,5.375 0,0 0.563616,10.35294 0.107422,12.23047 h 5.212891 c -2.491423,-0.63819 -4.337891,-2.89944 -4.337891,-5.587892 0,-3.181682 2.581952,-5.771484 5.763672,-5.771484 3.181682,0 5.773437,2.589802 5.773437,5.771484 0,2.688452 -1.852671,4.949702 -4.345703,5.587892 h 5.644532 c -0.456194,-1.87753 0.107421,-12.23047 0.107421,-12.23047 0.277538,-0.328614 10.804123,-5.329949 11.566407,-5.369141 v -4.683593 c 0,-0.608731 -0.532623,-1.09961 -1.19336,-1.09961 h -1.193359 v -2.603515 c 0,-0.52698 -0.294779,-0.987019 -0.740235,-1.251953 -0.0246,-0.566939 -0.440752,-1.038266 -1.007812,-1.189454 0.311498,0.411964 0.501953,0.919429 0.501953,1.472657 0,1.351937 -1.105094,2.449218 -2.457031,2.449218 -1.351937,-3.7e-5 -2.451134,-1.097281 -2.451172,-2.449218 0,-0.5678 0.202343,-1.086538 0.527344,-1.503907 -0.565401,0.08347 -1.016089,0.475573 -1.142578,0.984375 h -0.107422 v -0.0059 h -2.640625 v -5.130859 c 0,-0.780029 -0.628174,-1.408203 -1.408203,-1.408203 0.05114,-0.05884 0.08203,-0.136261 0.08203,-0.220704 v -1.027343 c 0,-0.185829 -0.150109,-0.335938 -0.335938,-0.335938 h -1.074218 c -0.04129,0 -0.08072,0.008 -0.117188,0.02148 v -1.039063 c 0,-0.716098 -0.576871,-1.291016 -1.292969,-1.291016 h -0.02148 v -1.546875 c 0,-0.421689 -0.199051,-0.795488 -0.509766,-1.03125 0.132917,0.301721 0.207032,0.633017 0.207032,0.982422 0,1.351937 -1.107048,2.451172 -2.458985,2.451172 -1.351937,-3.8e-5 -2.451134,-1.099235 -2.451172,-2.451172 0,-0.378535 0.08846,-0.73552 0.242188,-1.05664 z m 2.210937,0.240234 a 0.81418275,0.81418275 0 0 1 0.814454,0.814453 0.81418275,0.81418275 0 0 1 -0.814454,0.8125 0.81418275,0.81418275 0 0 1 -0.814453,-0.8125 0.81418275,0.81418275 0 0 1 0.814453,-0.814453 z m -0.246093,3.724609 c 0.01848,-3.8e-4 0.03623,2.37e-4 0.05469,0 l -0.002,0.002 c 0.08844,0 0.17479,-1.25e-4 0.261719,0.002 1.255559,-0.03012 2.634527,0.279967 3.505859,0.873046 0.356772,0.297661 0.80878,0.905062 1.251953,1.81836 h 0.002 c 0.0085,0.01754 0.01693,0.03692 0.02539,0.05469 0.03589,0.07507 0.07173,0.151282 0.107422,0.230469 0.0066,0.01466 0.01295,0.02817 0.01953,0.04297 0.03888,0.08717 0.07677,0.175492 0.115235,0.267578 0.01187,0.0285 0.02333,0.05502 0.03516,0.08398 0.03489,0.08527 0.06911,0.178213 0.103515,0.267579 0.01439,0.03745 0.02868,0.07316 0.04297,0.111328 0.0066,0.01762 0.01294,0.03496 0.01953,0.05273 0.04039,0.108926 0.0797,0.219276 0.119141,0.333984 0.0018,0.0054 0.004,0.01023 0.0059,0.01563 0.01047,0.03057 0.02085,0.06277 0.03125,0.09375 0.07551,0.224993 0.147992,0.460361 0.21875,0.707032 0.0076,0.02648 0.01592,0.05139 0.02344,0.07813 0.0066,0.02342 0.01298,0.0467 0.01953,0.07031 0.03695,0.13317 0.07216,0.266944 0.107422,0.40625 0.07398,0.292319 0.143811,0.600457 0.208984,0.919922 0.02244,0.110325 0.04321,0.220406 0.06445,0.333984 0.0032,0.01709 0.0066,0.03362 0.0098,0.05078 0.01731,0.09345 0.03433,0.185616 0.05078,0.28125 0.0062,0.0362 0.0115,0.07286 0.01758,0.109375 0.02565,0.15399 0.05093,0.309153 0.07422,0.46875 0.0019,0.01321 0.0039,0.02581 0.0059,0.03906 0.0232,0.160054 0.04379,0.324568 0.06445,0.490235 0.0032,0.02562 0.0067,0.05042 0.0098,0.07617 0.0063,0.0517 0.01154,0.104011 0.01758,0.15625 0.006,0.05205 0.01187,0.103657 0.01758,0.15625 0.02299,0.210275 0.04388,0.425624 0.0625,0.644532 0.0092,0.109523 0.01928,0.220332 0.02734,0.332031 8.16e-4,0.01117 0.0012,0.02201 0.002,0.0332 0.01506,0.209528 0.02826,0.423482 0.03906,0.640625 1.6e-4,0.0033 -1.59e-4,0.0065 0,0.0098 5.42e-4,0.01096 0.0014,0.02222 0.002,0.0332 0.0111,0.229833 0.02326,0.456957 0.0293,0.695312 0.0012,0.02797 9.7e-4,0.05375 0.002,0.08398 0.0038,0.08126 0.0065,0.161747 0.0078,0.24414 0.0054,0.199219 0.0082,0.399485 0.0078,0.605469 7.6e-5,0.04535 -0.0016,0.09294 -0.002,0.138672 0.0058,0.403592 -0.02208,0.82467 -0.0625,1.251953 -0.397304,4.19956 -2.792969,9.240234 -2.792969,9.240234 -0.12359,0.05556 -0.244289,0.109133 -0.365234,0.160157 -0.492513,0.24211 -0.972388,0.423714 -1.449219,0.552734 L 69.234375,91.775391 67.3125,91.660156 c -0.461658,-0.12844 -0.92705,-0.306427 -1.404297,-0.541015 -0.120945,-0.05065 -0.241266,-0.104598 -0.365234,-0.160157 0,0 -0.0074,-0.01678 -0.0078,-0.01758 -0.0076,-0.01589 -0.104233,-0.221761 -0.236328,-0.519531 -0.06077,-0.137262 -0.128413,-0.291864 -0.207031,-0.476563 -0.0021,-0.005 -0.0057,-0.01254 -0.0078,-0.01758 -0.132771,-0.312388 -0.287776,-0.689021 -0.453125,-1.111328 v -0.002 c -0.0027,-0.0069 -0.0051,-0.01262 -0.0078,-0.01953 -0.245473,-0.627998 -0.513932,-1.360479 -0.771485,-2.150391 -0.0079,-0.02432 -0.01554,-0.04783 -0.02344,-0.07227 -0.0023,-0.007 -0.0036,-0.01449 -0.0059,-0.02148 -0.614825,-1.903424 -1.157711,-4.126543 -1.144532,-6.029297 0,-7.93e-4 3.8e-5,-0.0024 0,-0.0039 -0.001,-0.06954 -2.64e-4,-0.138244 0,-0.207031 0,-0.205682 0.004,-0.408619 0.0078,-0.607422 1.13e-4,-0.01134 -1.51e-4,-0.01393 0,-0.02148 6.8e-4,-0.02646 0.0012,-0.05167 0.002,-0.07813 0.07212,-3.97467 0.867487,-6.779468 1.697266,-8.496094 h 0.01563 c 0.443518,-0.913426 0.897047,-1.520631 1.253906,-1.81836 0.798042,-0.543185 2.019056,-0.853012 3.183594,-0.876953 z m 0.103515,1.199219 c -1.077354,0.01512 -2.207343,0.288912 -2.990234,0.826172 l -0.0078,0.0078 -0.01367,0.0078 c -0.530457,0.446135 -1.144683,1.403163 -1.675782,2.9375 -0.531099,1.534299 -0.95515,3.643732 -1.003906,6.349609 -5.67e-4,0.0189 6.05e-4,0.04411 0,0.06641 -2.27e-4,0.01512 0,0.02148 0,0.02148 -0.0037,0.171969 -0.0078,0.351294 -0.0078,0.533203 -2.65e-4,0.05896 -9.83e-4,0.117452 0,0.183594 v 0.0078 c -0.0076,1.332362 0.276588,2.807336 0.654296,4.183594 0.05756,0.209738 0.116471,0.41679 0.177735,0.621094 0.0043,0.01449 0.0093,0.02851 0.01367,0.04297 0.05507,0.182635 0.109106,0.362183 0.166015,0.539062 0.005,0.01548 0.01063,0.03144 0.01563,0.04687 0.07245,0.224006 0.147257,0.443962 0.220703,0.65625 0.629594,1.819805 1.261719,3.166016 1.261719,3.166016 l 0.05078,0.103515 0.103516,0.04492 c 0.103937,0.04687 0.203333,0.09048 0.302734,0.132813 0.0038,0.0023 0.01185,-0.0023 0.01563,0 0.0029,0.0012 0.004,0.0078 0.0078,0.0078 0.991635,0.487786 1.951523,0.730037 2.945312,0.708985 0.990955,0.0189 1.947415,-0.221048 2.9375,-0.708985 l 0.01563,-0.0078 c 0.100914,-0.04309 0.202767,-0.08443 0.308594,-0.132813 l 0.103516,-0.04492 0.05273,-0.103515 c 0,0 0.636914,-1.359785 1.269531,-3.195313 0.08703,-0.25253 0.174357,-0.514654 0.259766,-0.783203 0.0035,-0.01092 0.0063,-0.02226 0.0098,-0.0332 0.121874,-0.384634 0.23995,-0.782895 0.349609,-1.189453 0.368165,-1.364966 0.639633,-2.81875 0.621094,-4.128906 4.53e-4,-0.03024 1.13e-4,-0.07108 0,-0.117188 3.4e-4,-0.180661 -0.0019,-0.354633 -0.0078,-0.53125 v -0.0078 c -0.0012,-0.07181 -0.004,-0.145679 -0.0078,-0.214844 v -0.0078 c -5.29e-4,-0.0189 0.0012,-0.03806 0,-0.06641 -0.06652,-2.642268 -0.490901,-4.700019 -1.017578,-6.201172 -0.526715,-1.501153 -1.138192,-2.438289 -1.66211,-2.878906 l -0.0078,-0.0059 -0.01367,-0.0078 C 71.550524,69.86436 70.319504,69.594045 69.175781,69.619141 h -0.01367 c -0.06841,-0.0017 -0.140765,-0.0078 -0.214843,-0.0078 z m -0.0078,0.626953 h 0.0078 0.0078 c 0.06916,1.14e-4 0.139568,-0.0017 0.21289,0 h 0.0078 0.0078 c 1.028107,-0.02646 2.168021,0.244416 2.841797,0.701172 0.357544,0.303118 0.962141,1.172424 1.462891,2.599609 0.502412,1.431988 0.915461,3.424355 0.980469,6.007813 v 0.0078 c 7.56e-4,0.0189 0.0078,0.04323 0.0078,0.07422 v 0.0078 c 0.0036,0.06803 0.0078,0.131943 0.0078,0.199219 v 0.0078 c 0.0038,0.170079 0.0078,0.33829 0.0078,0.515625 7.6e-5,0.03024 -0.0078,0.0719 -0.0078,0.119141 v 0.0059 c 0.01302,0.906815 -0.129259,1.921478 -0.34961,2.931641 -0.0082,-0.0237 -0.01522,-0.04884 -0.02344,-0.07227 -0.526677,-1.501153 -1.130379,-2.430476 -1.654297,-2.871094 l -0.01367,-0.01563 -0.01563,-0.0078 c -0.785764,-0.539114 -1.915603,-0.809315 -2.996094,-0.820313 -0.07203,-7.33e-4 -0.143366,3.83e-4 -0.214843,0.002 -0.07295,-0.0018 -0.149524,1.14e-4 -0.228516,0 h -0.0059 c -0.0123,1.73e-4 -0.02479,0.0017 -0.03711,0.002 l 0.0039,-0.30664 h 0.0078 c 0.07484,0 0.14007,0.0063 0.205078,0.0078 1.217008,-0.02944 2.502724,0.228916 3.447266,0.876954 l 0.03125,0.02344 0.02344,0.02344 c 0.40259,0.338571 0.795578,0.865099 1.169922,1.607422 0.06108,-0.479299 0.09356,-0.940665 0.08789,-1.36914 v -0.01172 -0.0098 c 6.04e-4,-0.06123 0.002,-0.09804 0.002,-0.109375 v -0.002 -0.0039 c 0,-0.171855 -0.004,-0.341955 -0.0078,-0.509766 v -0.002 -0.0039 c -0.0038,-0.05216 -0.0059,-0.118273 -0.0078,-0.197266 -0.0014,-0.04006 -0.0017,-0.06275 -0.002,-0.07031 v -0.0078 -0.0078 c -0.06372,-2.530016 -0.470832,-4.468757 -0.951172,-5.837891 -0.47195,-1.345134 -1.061911,-2.12869 -1.277344,-2.320312 -0.528265,-0.346318 -1.567033,-0.620334 -2.480469,-0.597656 h -0.02344 -0.02148 c -0.0858,-0.002 -0.150336,-0.0045 -0.195312,-0.0039 l 0.0059,0.0039 c -0.862488,0.01167 -1.788588,0.27879 -2.28125,0.601562 -0.218343,0.194003 -0.82204,0.995711 -1.298828,2.373047 -0.484913,1.400957 -0.891012,3.385989 -0.9375,5.978515 v 0.0039 0.0039 c -7.18e-4,0.02457 -0.0015,0.04348 -0.002,0.05859 v 0.0078 c 7.6e-5,0 2.65e-4,-0.0072 0,0.01172 v 0.0039 0.002 c -0.0056,0.167736 -0.0082,0.337797 -0.0078,0.509766 v 0.0039 0.002 c -3.03e-4,0.06312 -6.81e-4,0.118331 0,0.164063 v 0.002 0.01172 0.01172 c -0.0027,0.412072 0.02962,0.854957 0.08789,1.3125 0.375219,-0.743524 0.76909,-1.270614 1.171875,-1.609376 l 0.03125,-0.02344 0.02148,-0.02344 c 0.878095,-0.602722 2.057738,-0.869648 3.197265,-0.884766 l -0.002,0.30664 c -1.06541,0.0209 -2.169881,0.285457 -2.943359,0.816407 l -0.01563,0.0078 -0.01563,0.01563 c -0.530457,0.446136 -1.144682,1.395389 -1.675782,2.929688 -0.01649,0.04765 -0.03259,0.09768 -0.04883,0.146484 -0.230941,-1.02937 -0.383387,-2.065546 -0.376953,-2.996094 v -0.0078 -0.0078 c -8.31e-4,-0.05556 -2.64e-4,-0.116128 0,-0.177734 0,-0.175748 0.0039,-0.349317 0.0078,-0.523437 1.51e-4,-0.01134 3.7e-5,-0.01185 0,-0.01563 5.67e-4,-0.02268 -6.81e-4,-0.0426 0,-0.06641 v -0.0078 c 0.04762,-2.646501 0.467699,-4.684022 0.974609,-6.148438 0.505247,-1.459653 1.11441,-2.351192 1.476562,-2.658203 0.623698,-0.422816 1.648595,-0.684315 2.613282,-0.701172 z m -12.226563,5.863281 a 1.8663699,1.8663699 0 0 0 -1.867187,1.865235 1.8663699,1.8663699 0 0 0 1.867187,1.867187 1.8663699,1.8663699 0 0 0 1.865235,-1.867187 1.8663699,1.8663699 0 0 0 -1.865235,-1.865235 z m 25.123047,0.08398 a 1.8663699,1.8663699 0 0 0 -1.867187,1.867187 1.8663699,1.8663699 0 0 0 1.867187,1.865235 1.8663699,1.8663699 0 0 0 1.865234,-1.865235 1.8663699,1.8663699 0 0 0 -1.865234,-1.867187 z m -25.126953,0.96875 a 0.81418272,0.81418272 0 0 1 0.814453,0.814453 0.81418272,0.81418272 0 0 1 -0.814453,0.8125 0.81418272,0.81418272 0 0 1 -0.814453,-0.8125 0.81418272,0.81418272 0 0 1 0.814453,-0.814453 z m 25.123047,0.08398 a 0.81418275,0.81418275 0 0 1 0.814453,0.814453 0.81418275,0.81418275 0 0 1 -0.814453,0.814454 0.81418275,0.81418275 0 0 1 -0.8125,-0.814454 0.81418275,0.81418275 0 0 1 0.8125,-0.814453 z M 68.976562,80.25 h 0.0059 0.0078 c 0.0669,2.27e-4 0.135977,0.0078 0.207032,0.0078 h 0.0078 0.0078 c 1.025612,-0.02645 2.16734,0.246684 2.841797,0.701172 0.357918,0.305008 0.969096,1.167671 1.46875,2.591797 0.111144,0.316791 0.216488,0.662344 0.316406,1.035157 -0.174392,0.637753 -0.367774,1.255484 -0.564453,1.826171 -0.602193,1.747276 -1.17439,2.949561 -1.210938,3.027344 -0.06387,0.02646 -0.126776,0.05444 -0.191406,0.08203 l -0.0078,0.0078 h -0.0078 c -0.930369,0.461027 -1.784582,0.674089 -2.679688,0.65625 h -0.0078 -0.0078 c -0.89416,0.0189 -1.741544,-0.195412 -2.671875,-0.65625 h -0.0078 l -0.0078,-0.0078 c -0.06501,-0.02646 -0.134588,-0.05368 -0.199218,-0.08203 -0.0378,-0.07748 -0.603957,-1.264201 -1.203125,-2.996094 -0.184284,-0.53265 -0.367266,-1.107868 -0.533204,-1.701171 0.105097,-0.410489 0.220279,-0.789344 0.339844,-1.134766 0.503093,-1.453455 1.121578,-2.331901 1.484375,-2.642578 0.623547,-0.423345 1.647918,-0.698025 2.613281,-0.714844 z m -0.03125,0.455078 c -0.897371,0.01606 -1.860534,0.287303 -2.392578,0.642578 -0.266192,0.233802 -0.864771,1.05833 -1.349609,2.458985 -0.06024,0.17403 -0.118629,0.357276 -0.175781,0.548828 0.178136,0.66237 0.380935,1.309598 0.585937,1.902343 0.550375,1.591182 1.000586,2.540741 1.09961,2.753907 l 0.0078,0.002 0.02344,0.01172 c 0.867137,0.429656 1.613507,0.606912 2.410156,0.591797 h 0.01758 0.01953 c 0.796951,0.01704 1.544821,-0.162065 2.41211,-0.591797 l 0.02344,-0.01172 0.0078,-0.002 c 0.09921,-0.213695 0.555749,-1.176829 1.109375,-2.783203 0.203119,-0.589373 0.402289,-1.231455 0.578125,-1.888672 -0.06128,-0.204551 -0.12474,-0.399546 -0.189454,-0.583985 -0.481963,-1.373669 -1.082584,-2.186913 -1.34375,-2.414062 -0.576035,-0.381997 -1.646386,-0.657443 -2.597656,-0.634766 h -0.01563 -0.01563 c -0.07106,-0.0017 -0.137992,2.27e-4 -0.199218,0 h -0.01367 z m -17.572265,7.455078 c -0.132048,3.015138 -0.152595,5.771492 0,8.636719 0,0 9.65312,7.857455 10.503906,7.558595 0.584219,-0.60943 0,-11.32422 0,-11.32422 -0.253167,-0.299816 -9.923008,-4.893474 -10.503906,-4.871094 z m 36.027344,0 c -0.580914,-0.02237 -10.250678,4.571377 -10.503907,4.871094 0,0 -0.584201,10.71477 0,11.32422 0.850772,0.29885 10.503907,-7.558595 10.503907,-7.558595 0.152693,-2.865222 0.131905,-5.621601 0,-8.636719 z m -35.03125,1.564453 0.554687,0.257813 v 6.695312 l -0.554687,-0.398437 z m 34.035156,0 v 6.554688 l -0.554688,0.398437 v -6.695312 z m -32.476563,0.722657 0.597657,0.277343 v 7.105469 l -0.597657,-0.429687 z m 30.917969,0 v 6.953125 l -0.597656,0.429687 v -7.105469 z m -29.324219,0.738281 0.597657,0.277344 v 7.515625 l -0.595703,-0.429688 -0.002,-0.195312 z m 27.730469,0 v 7.167969 l -0.002,0.195312 -0.595703,0.429688 v -7.515625 z m -26.128906,0.742187 0.597656,0.277344 v 7.542969 l 0.002,0.382813 -0.591797,-0.425782 -0.0078,-0.53125 z m 24.527344,0 v 7.246094 l -0.0078,0.53125 -0.591797,0.425782 0.002,-0.382813 v -7.542969 z m -22.931641,0.738282 0.597656,0.277343 v 8.335941 l -0.591797,-0.42578 -0.0059,-1.105473 z m 21.335938,0 0.002,7.082031 -0.0078,1.105473 -0.591797,0.42578 v -8.335941 z m -19.734376,0.740234 0.560547,0.259766 v 8.740234 l -0.554687,-0.40039 -0.0059,-0.72266 z m 18.132813,0 0.002,7.87695 -0.0078,0.72266 -0.554688,0.40039 v -8.740234 z m -9.345703,1.205078 c -2.634323,0.03322 -4.742188,2.170025 -4.742188,4.8125 0,2.663322 2.141368,4.812502 4.804688,4.812502 2.663282,0 4.814453,-2.14918 4.814453,-4.812502 0,-2.663282 -2.151171,-4.8125 -4.814453,-4.8125 -0.02081,0 -0.04176,-2.61e-4 -0.0625,0 z"
         transform="matrix(0.26458333,0,0,0.26458333,135.48963,99.590537)" />
      <path
         id="rect918"
         style="fill:#000000;stroke:none;stroke-width:0.653242;stroke-linecap:round;stop-color:#000000"
         d="m 63.605469,105.4043 c -0.208661,0.0105 -0.375,0.18321 -0.375,0.39453 v 2.33203 c 0,0.21813 0.1764,0.39258 0.394531,0.39258 h 0.939453 V 105.4043 H 63.625 c -0.0068,0 -0.0128,-3.4e-4 -0.01953,0 z m 1.623047,0 v 3.11914 h 2.296875 v -3.11914 z m 2.960937,0 v 3.11914 h 2.486328 v -3.11914 z m 3.152344,0 v 3.11914 h 2.294922 v -3.11914 z m 2.958984,0 v 3.11914 h 0.939453 c 0.218131,0 0.392579,-0.17445 0.392578,-0.39258 v -2.33203 c 0,-0.21813 -0.174447,-0.39453 -0.392578,-0.39453 z"
         transform="matrix(0.26458333,0,0,0.26458333,135.48963,99.590537)" />
      <path
         id="path1511"
         style="fill:#000000;stroke:none;stroke-width:0.999999px;stroke-linecap:butt;stroke-linejoin:miter;stroke-opacity:1"
         d="m 88.703125,80.800781 c -0.53759,0.288624 -0.360298,15.155957 0,15.509766 0,0 2.10611,-0.15395 2.919922,-0.884766 0,0 0.917984,-4.746574 0.867187,-5.117187 0,0 2.889978,-0.03155 6.054688,-0.414063 v 3.234375 c 0,0.654994 0.526646,1.183594 1.18164,1.183594 h 0.320318 c 0.65499,0 1.18164,-0.5286 1.18164,-1.183594 v -3.523437 c 0,-0.04159 -0.002,-0.08259 -0.006,-0.123047 0.5971,-0.116369 1.17791,-0.249091 1.72265,-0.400391 1.44419,-0.693729 1.11922,-3.142873 0.64453,-3.652343 0,0 -7.333988,-3.897171 -14.886715,-4.628907 z m 2.386719,2.857422 a 0.49999936,0.49999936 0 0 1 0.130859,0.01367 l 9.765627,2.25 a 0.49999936,0.49999936 0 0 1 0.37695,0.597656 0.49999936,0.49999936 0 0 1 -0.59766,0.376953 l -9.767573,-2.251953 a 0.49999936,0.49999936 0 0 1 -0.375,-0.597656 0.49999936,0.49999936 0 0 1 0.466797,-0.388672 z"
         transform="matrix(0.26458333,0,0,0.26458333,135.48963,99.590537)" />
      <path
         id="rect2607"
         style="fill:#000000;stroke:none;stroke-width:0.665197;stroke-linecap:round;stop-color:#000000"
         d="m 57.269531,107.58008 c -0.354982,0.0217 -0.679704,0.24415 -0.820312,0.59961 l -0.136719,0.34179 c -0.195402,0.49531 0.04464,1.0573 0.537109,1.25977 l 8.248047,3.39063 c 0.49251,0.20258 1.046597,-0.0328 1.242188,-0.52735 l 0.136718,-0.3418 c 0.195402,-0.4953 -0.0446,-1.05729 -0.537109,-1.25976 l -8.248047,-3.39063 c -0.138518,-0.057 -0.282969,-0.0807 -0.421875,-0.0723 z m 24.230469,0 c -0.109226,0.004 -0.220388,0.028 -0.328125,0.0723 l -8.248047,3.39063 c -0.492472,0.20247 -0.730558,0.7645 -0.535156,1.25976 l 0.134766,0.3418 c 0.195628,0.49451 0.749677,0.72993 1.242187,0.52735 l 8.248047,-3.39063 c 0.492472,-0.20247 0.732889,-0.7645 0.537109,-1.25977 l -0.136719,-0.34179 C 82.261257,107.79332 81.890094,107.56515 81.5,107.58008 Z m -19.748047,1.30469 4.332031,1.78125 c 0.694375,0.28535 1.045324,1.09466 0.769532,1.79296 v 0.002 h 5.162109 l -0.002,-0.006 c -0.275792,-0.69831 0.06731,-1.50371 0.761719,-1.78906 l 4.333984,-1.78125 z m 19.472656,1.66015 -4.662109,1.91602 h 3.923828 c 0.409938,0 0.738281,-0.3303 0.738281,-0.74024 z m -23.585937,0.002 v 1.17382 c 0,0.40994 0.330297,0.74024 0.740234,0.74024 h 3.917969 z"
         transform="matrix(0.26458333,0,0,0.26458333,135.48963,99.590537)" />
      <path
         id="rect3191"
         style="stroke-width:0.665197;stroke-linecap:round;stop-color:#000000"
         d="m 66.671875,112.90625 c -0.286251,0.51334 -0.877843,0.77872 -1.449219,0.66211 l 1.011719,6.875 h 6.394531 l 1.001953,-6.80274 c -0.598967,0.12408 -1.222529,-0.17242 -1.492187,-0.73437 H 70.15625 c 0.227484,0.20018 0.373047,0.49132 0.373047,0.81641 v 3.13086 c 0,0.60317 -0.496435,1.0996 -1.099609,1.0996 -0.603138,0 -1.101563,-0.49643 -1.101563,-1.0996 v -3.13086 c 0,-0.32509 0.145569,-0.61623 0.373047,-0.81641 z m 2.757813,0.38867 c -0.246161,0 -0.435547,0.18169 -0.435547,0.42774 v 3.13086 c 0,0.24619 0.189499,0.43554 0.435547,0.43554 0.246009,0 0.427734,-0.1895 0.427734,-0.43554 v -3.13086 c 0,-0.24598 -0.181687,-0.42774 -0.427734,-0.42774 z m -2.466797,7.58399 v 1.33984 h 4.939453 v -1.33984 z"
         transform="matrix(0.26458333,0,0,0.26458333,135.48963,99.590537)" />
      <path
         id="rect3757"
         style="fill:#000000;stroke:none;stroke-width:0.184213;stroke-linecap:round;stop-color:#000000"
         d="m 156.86373,129.52669 c -0.008,1.3e-4 -0.0163,5.3e-4 -0.0243,0.001 l -1.39629,0.0941 c -0.25618,0.0172 -0.44814,0.24248 -0.43047,0.5054 l 0.0258,0.37879 0.11627,1.73219 0.032,0.47439 0.46199,-0.031 0.25476,-0.017 -0.063,-1.05109 c -0.01,-0.15929 0.11355,-0.298 0.27285,-0.308 l 0.36639,-0.0222 c 0.15929,-0.01 0.29592,0.11408 0.30592,0.27337 l 0.0631,1.04438 0.19637,-0.0134 0.4625,-0.031 -0.032,-0.47439 -0.0599,-0.8909 h 0.15813 c 0.16033,0 0.28938,-0.12906 0.28938,-0.28939 v -0.58136 c 0,-0.16033 -0.12905,-0.28939 -0.28938,-0.28939 h -0.23565 l -0.004,-0.0599 c -0.0171,-0.2547 -0.22442,-0.44821 -0.47026,-0.44442 z m -0.3731,1.93219 -0.36691,0.0222 c -0.065,0.004 -0.112,0.057 -0.108,0.12196 l 0.0636,1.04955 0.59428,-0.0403 -0.063,-1.04542 c -0.004,-0.065 -0.0549,-0.112 -0.11989,-0.108 z m 1.03559,1.31723 5.3e-4,0.001 -2.17042,0.14156 c -0.21664,0.0159 -0.38389,1.17921 -0.38292,1.42266 l 5.3e-4,0.15296 -0.13488,0.008 c -0.004,2.2e-4 -0.008,2.7e-4 -0.0124,5.3e-4 -0.11917,0.0127 -0.20829,0.11666 -0.20154,0.23772 l 0.0114,0.18706 -0.0982,0.006 c -0.0781,0.005 -0.13716,0.0707 -0.13281,0.14883 l 0.0119,0.21601 c 0.005,0.0781 0.0707,0.13715 0.14883,0.13281 l 0.0977,-0.006 0.0124,0.21652 c 0.007,0.12497 0.11327,0.21987 0.23823,0.21291 l 0.0646,-0.004 v 0.0589 c 9.2e-4,0.24365 0.3036,1.6406 0.54673,1.62471 l 2.43293,-0.15865 c 0.24315,-0.0159 0.36143,-1.44088 0.33073,-1.68258 l -0.004,-0.0269 0.0693,-0.004 c 0.12497,-0.007 0.21987,-0.11326 0.21291,-0.23823 l -0.0119,-0.21652 0.0982,-0.006 c 0.0781,-0.005 0.13767,-0.0702 0.13332,-0.14831 l -0.0124,-0.21653 c -0.005,-0.0781 -0.0702,-0.13716 -0.14831,-0.13281 l -0.0987,0.006 -0.0103,-0.18759 c -0.007,-0.12497 -0.11326,-0.21987 -0.23823,-0.2129 l -0.16484,0.009 -0.0233,-0.1819 c -0.0308,-0.2417 -0.34794,-1.37484 -0.56482,-1.36064 z m -0.78341,0.23254 c 0.0736,-0.004 0.13918,0.0542 0.14418,0.12764 l 0.0253,0.36225 c 0.005,0.0735 -0.0515,0.1386 -0.12506,0.1416 l -0.61443,0.0315 c -0.0736,0.004 -0.14125,-0.0541 -0.14625,-0.12764 l -0.0253,-0.36225 c -0.005,-0.0735 0.0536,-0.13859 0.12713,-0.1416 z m -0.0155,0.16537 -0.56018,0.0284 0.0217,0.30592 0.56017,-0.0279 z m 1.13481,1.36736 c 0.0706,-8e-4 0.13093,0.0553 0.13384,0.1266 l 0.0274,0.61444 c 0.003,0.0736 -0.0547,0.14021 -0.12816,0.14521 l -0.36225,0.0243 c -0.0735,0.005 -0.13807,-0.0547 -0.14107,-0.12816 l -0.0274,-0.61443 c -0.003,-0.0736 0.0553,-0.13815 0.12867,-0.14315 l 0.36225,-0.0243 c 0.002,-1.5e-4 0.004,-5.2e-4 0.007,-5.2e-4 z m -2.18798,0.1452 c 0.001,-1e-4 0.002,1e-5 0.003,0 0.0706,-7.9e-4 0.13094,0.0554 0.13385,0.12661 l 0.0279,0.61495 c 0.003,0.0736 -0.0551,0.14021 -0.12867,0.14521 l -0.36226,0.0233 c -0.0735,0.005 -0.13756,-0.0546 -0.14056,-0.12816 l -0.0279,-0.61443 c -0.003,-0.0736 0.0551,-0.13814 0.12867,-0.14314 l 0.36226,-0.0238 c 10e-4,-8e-5 0.003,-5.3e-4 0.004,-5.3e-4 z m 2.16111,0.0191 -0.30593,0.0196 0.0248,0.56017 0.30592,-0.0196 z m -2.18436,0.14728 -0.30593,0.0196 0.0248,0.55811 0.30592,-0.0196 z m 2.74453,2.65979 -0.34416,0.0248 0.34778,1.69706 -0.34003,1.06815 -1.80868,0.15658 -0.50953,-0.97255 -0.0765,-1.78025 -0.43718,0.0305 -0.0165,1.55133 -0.34416,0.20671 -0.0279,3.18481 0.33487,0.14573 -0.009,0.80615 1.08314,0.0227 0.15658,-0.81494 2.21692,-0.15347 0.6103,0.63975 0.89813,-0.18087 -0.10697,-0.34726 0.26355,-0.27751 -1.06401,-3.58272 -0.39584,-0.0253 z m -0.51108,0.0367 -2.05569,0.14573 0.076,1.74821 0.44131,0.84181 1.58802,-0.1385 0.29507,-0.9219 z m 1.17099,2.96622 0.57774,1.72445 -0.99374,0.18758 -0.17983,-0.40824 -2.03708,0.1757 -0.0155,0.40463 -0.99839,0.008 0.0119,-1.67173 v -0.0765 z m -0.11524,0.17571 -3.35587,0.31884 -0.0119,1.43144 0.67541,-0.006 0.0145,-0.39222 2.29857,-0.1974 0.17621,0.39635 0.68162,-0.12867 z m -2.27325,2.32595 -0.2253,1.32395 h 2.44171 l -0.22531,-1.32395 z m -0.5457,1.54823 -0.20825,1.43609 h 3.61941 l -0.20825,-1.43609 z" />
      <path
         id="rect3757-8"
         style="fill:#000000;stroke:none;stroke-width:0.184213;stroke-linecap:round;stop-color:#000000"
         d="m 150.85419,129.52667 c 0.008,1.3e-4 0.0163,5.3e-4 0.0243,0.001 l 1.39629,0.0941 c 0.25618,0.0172 0.44814,0.24248 0.43047,0.5054 l -0.0258,0.37879 -0.11627,1.73219 -0.032,0.47439 -0.46199,-0.031 -0.25476,-0.017 0.063,-1.05109 c 0.01,-0.15929 -0.11355,-0.298 -0.27285,-0.308 l -0.36639,-0.0222 c -0.15929,-0.01 -0.29592,0.11408 -0.30592,0.27337 l -0.0631,1.04438 -0.19637,-0.0134 -0.4625,-0.031 0.032,-0.47439 0.0599,-0.8909 h -0.15813 c -0.16033,0 -0.28938,-0.12906 -0.28938,-0.28939 v -0.58136 c 0,-0.16033 0.12905,-0.28939 0.28938,-0.28939 h 0.23565 l 0.004,-0.0599 c 0.0172,-0.2547 0.22442,-0.44821 0.47026,-0.44442 z m 0.3731,1.93219 0.36691,0.0222 c 0.065,0.004 0.112,0.057 0.108,0.12196 l -0.0636,1.04955 -0.59428,-0.0403 0.063,-1.04542 c 0.004,-0.065 0.0549,-0.112 0.11989,-0.108 z m -1.03559,1.31723 -5.3e-4,10e-4 2.17042,0.14156 c 0.21664,0.0159 0.38389,1.17921 0.38292,1.42266 l -5.3e-4,0.15296 0.13488,0.008 c 0.004,2.2e-4 0.008,2.7e-4 0.0124,5.3e-4 0.11917,0.0127 0.20829,0.11666 0.20154,0.23772 l -0.0114,0.18706 0.0982,0.006 c 0.0781,0.005 0.13716,0.0707 0.13281,0.14883 l -0.0119,0.21601 c -0.005,0.0781 -0.0707,0.13715 -0.14883,0.13281 l -0.0977,-0.006 -0.0124,0.21652 c -0.007,0.12497 -0.11327,0.21987 -0.23823,0.21291 l -0.0646,-0.004 v 0.0589 c -9.2e-4,0.24365 -0.3036,1.6406 -0.54673,1.62471 l -2.43293,-0.15865 c -0.24315,-0.0159 -0.36143,-1.44088 -0.33073,-1.68258 l 0.004,-0.0269 -0.0693,-0.004 c -0.12497,-0.007 -0.21987,-0.11326 -0.21291,-0.23823 l 0.0119,-0.21652 -0.0982,-0.006 c -0.0781,-0.005 -0.13767,-0.0702 -0.13332,-0.14831 l 0.0124,-0.21653 c 0.005,-0.0781 0.0702,-0.13716 0.14831,-0.13281 l 0.0987,0.006 0.0103,-0.18759 c 0.007,-0.12497 0.11326,-0.21987 0.23823,-0.2129 l 0.16484,0.009 0.0233,-0.1819 c 0.0308,-0.2417 0.34794,-1.37484 0.56482,-1.36064 z m 0.78341,0.23254 c -0.0736,-0.004 -0.13918,0.0542 -0.14418,0.12764 l -0.0253,0.36225 c -0.005,0.0735 0.0515,0.1386 0.12506,0.1416 l 0.61443,0.0315 c 0.0736,0.004 0.14125,-0.0541 0.14625,-0.12764 l 0.0253,-0.36225 c 0.005,-0.0735 -0.0536,-0.13859 -0.12713,-0.1416 z m 0.0155,0.16537 0.56018,0.0284 -0.0217,0.30592 -0.56017,-0.0279 z m -1.13481,1.36736 c -0.0706,-8e-4 -0.13093,0.0553 -0.13384,0.1266 l -0.0274,0.61444 c -0.003,0.0736 0.0547,0.14021 0.12816,0.14521 l 0.36225,0.0243 c 0.0735,0.005 0.13807,-0.0547 0.14107,-0.12816 l 0.0274,-0.61443 c 0.003,-0.0736 -0.0553,-0.13815 -0.12867,-0.14315 l -0.36225,-0.0243 c -0.002,-1.5e-4 -0.004,-5.2e-4 -0.007,-5.2e-4 z m 2.18798,0.1452 c -0.001,-10e-5 -0.002,1e-5 -0.003,0 -0.0706,-7.9e-4 -0.13094,0.0554 -0.13385,0.12661 l -0.0279,0.61495 c -0.003,0.0736 0.0551,0.14021 0.12867,0.14521 l 0.36226,0.0233 c 0.0735,0.005 0.13756,-0.0546 0.14056,-0.12816 l 0.0279,-0.61443 c 0.003,-0.0736 -0.0551,-0.13814 -0.12867,-0.14314 l -0.36226,-0.0238 c -0.001,-8e-5 -0.003,-5.3e-4 -0.004,-5.3e-4 z m -2.16111,0.0191 0.30593,0.0196 -0.0248,0.56017 -0.30592,-0.0196 z m 2.18436,0.14728 0.30593,0.0196 -0.0248,0.55811 -0.30592,-0.0196 z m -2.74453,2.65979 0.34416,0.0248 -0.34778,1.69706 0.34003,1.06815 1.80868,0.15658 0.50953,-0.97255 0.0765,-1.78025 0.43718,0.0305 0.0165,1.55133 0.34416,0.20671 0.0279,3.18481 -0.33487,0.14573 0.009,0.80615 -1.08314,0.0227 -0.15658,-0.81494 -2.21692,-0.15347 -0.6103,0.63975 -0.89813,-0.18087 0.10697,-0.34726 -0.26355,-0.27751 1.06401,-3.58272 0.39584,-0.0253 z m 0.51108,0.0367 2.05569,0.14573 -0.076,1.74821 -0.44131,0.84181 -1.58802,-0.1385 -0.29507,-0.9219 z m -1.17099,2.96622 -0.57774,1.72445 0.99374,0.18758 0.17983,-0.40824 2.03708,0.1757 0.0155,0.40463 0.99839,0.008 -0.0119,-1.67173 v -0.0765 z m 0.11524,0.17571 3.35587,0.31884 0.0119,1.43144 -0.67541,-0.006 -0.0145,-0.39222 -2.29857,-0.1974 -0.17621,0.39635 -0.68162,-0.12867 z m 2.27325,2.32595 0.2253,1.32395 h -2.44171 l 0.22531,-1.32395 z m 0.5457,1.54823 0.20825,1.43609 h -3.61941 l 0.20825,-1.43609 z" />
      <path
         style="fill:none;stroke:#000000;stroke-width:0.264583px;stroke-linecap:butt;stroke-linejoin:miter;stroke-opacity:1"
         d="M 155.35589,137.93839 Z"
         id="path4809" />
      <path
         id="rect3240"
         style="fill:#000000;stroke:none;stroke-width:0.18552;stroke-linecap:round;stroke-miterlimit:4;stroke-dasharray:none;stop-color:#000000"
         d="m 160.53585,123.52155 c -0.08,0.004 -0.14315,0.0699 -0.14315,0.15089 v 0.0444 h -0.31626 v 0.77256 h 0.31626 v 0.1664 c 0,0.003 -1.3e-4,0.005 0,0.008 v 0.14314 h 0.1509 0.67489 0.1509 v -0.15089 -0.60255 -0.38086 c 0,-0.0836 -0.0673,-0.15089 -0.1509,-0.15089 h -0.67489 c -0.003,0 -0.005,-1.3e-4 -0.008,0 z m -0.39739,1.42894 c -0.23715,0 -0.4284,0.19073 -0.4284,0.42788 v 1.41335 c 0,0.23715 0.19125,0.4284 0.4284,0.4284 h 1.48518 c 0.23714,0 0.42788,-0.19125 0.42788,-0.4284 v -1.41335 c 0,-0.23715 -0.19074,-0.42788 -0.42788,-0.42788 z"
         sodipodi:nodetypes="csccccscccccccsssccsssssssss" />
    </g>
  </g>
</svg>
