<?xml version="1.0" encoding="UTF-8" standalone="no"?>
<!-- Created with Inkscape (http://www.inkscape.org/) -->

<svg
   xmlns:dc="http://purl.org/dc/elements/1.1/"
   xmlns:cc="http://creativecommons.org/ns#"
   xmlns:rdf="http://www.w3.org/1999/02/22-rdf-syntax-ns#"
   xmlns:svg="http://www.w3.org/2000/svg"
   xmlns="http://www.w3.org/2000/svg"
   xmlns:sodipodi="http://sodipodi.sourceforge.net/DTD/sodipodi-0.dtd"
   xmlns:inkscape="http://www.inkscape.org/namespaces/inkscape"
   sodipodi:docname="Vulture MK IV.svg"
   inkscape:version="0.92.5 (2060ec1f9f, 2020-04-08)"
   id="svg8"
   version="1.1"
   viewBox="0 0 34.98301 52.516205"
   height="52.516205mm"
   width="34.983009mm">
  <defs
     id="defs2" />
  <sodipodi:namedview
     id="base"
     pagecolor="#ffffff"
     bordercolor="#666666"
     borderopacity="1.0"
     inkscape:pageopacity="0.0"
     inkscape:pageshadow="2"
     inkscape:zoom="15.839192"
     inkscape:cx="100.18353"
     inkscape:cy="81.545276"
     inkscape:document-units="mm"
     inkscape:current-layer="layer1"
     showgrid="false"
     inkscape:window-width="1848"
     inkscape:window-height="1016"
     inkscape:window-x="72"
     inkscape:window-y="1107"
     inkscape:window-maximized="1"
     inkscape:snap-global="false"
     fit-margin-top="0"
     fit-margin-left="0"
     fit-margin-right="0"
     fit-margin-bottom="0"
     showguides="true"
     inkscape:guide-bbox="true" />
  <metadata
     id="metadata5">
    <rdf:RDF>
      <cc:Work
         rdf:about="">
        <dc:format>image/svg+xml</dc:format>
        <dc:type
           rdf:resource="http://purl.org/dc/dcmitype/StillImage" />
        <dc:title />
      </cc:Work>
    </rdf:RDF>
  </metadata>
  <g
     inkscape:label="Capa 1"
     inkscape:groupmode="layer"
     id="layer1"
     transform="translate(-135.48963,-99.590537)">
    <path
       style="opacity:1;vector-effect:none;fill:#000000;fill-opacity:1;stroke:none;stroke-width:0.2696169;stroke-linecap:butt;stroke-linejoin:miter;stroke-miterlimit:4;stroke-dasharray:none;stroke-dashoffset:0;stroke-opacity:1"
       d="m 151.55702,118.08301 c -0.42756,0.0378 -0.7484,0.10152 -0.85073,0.19696 -0.0377,0.18028 -0.32433,0.77783 -0.34521,1.57808 -0.0209,0.80024 -0.0315,1.80312 -0.0315,2.79412 0,0.44711 0.003,0.88654 0.007,1.30909 h 5.34805 c 0.005,-0.44991 0.007,-0.92059 0.005,-1.39654 -0.003,-1.02943 -0.0194,-2.06344 -0.047,-2.85872 -0.0276,-0.79526 -0.32251,-1.3518 -0.36559,-1.42603 -0.0647,-0.0637 -0.35692,-0.11936 -0.76564,-0.16108 -0.20435,-0.0208 -0.43767,0.95869 -0.68622,0.94547 -0.24855,-0.0131 -0.51249,-0.0224 -0.77732,-0.0261 -0.26485,-0.004 -0.53066,-0.004 -0.78392,0.004 -0.25324,0.007 -0.49372,-0.97763 -0.70749,-0.95876 z m -1.21931,6.01487 c 0.0156,1.39035 0.0546,2.51283 0.11747,2.64023 h 0.48703 l 0.28251,-2.13112 h 3.52153 l 0.30606,2.13112 h 0.47642 c 0.0891,-0.0554 0.13808,-1.20597 0.15493,-2.64023 z"
       id="rect849"
       inkscape:connector-curvature="0"
       sodipodi:nodetypes="cccscccscccccccccccccccc" />
    <path
       style="opacity:1;vector-effect:none;fill:#000000;fill-opacity:1;stroke:none;stroke-width:0.35341659;stroke-linecap:butt;stroke-linejoin:miter;stroke-miterlimit:4;stroke-dasharray:none;stroke-dashoffset:0;stroke-opacity:1"
       d="m 152.74742,124.83337 v 0.16388 h -1.31478 v 1.35141 c 0.12797,-0.18009 0.33512,-0.28717 0.55603,-0.28746 0.37739,1.6e-4 0.68317,0.30628 0.6829,0.68367 -2.3e-4,0.15626 -0.054,0.30772 -0.15241,0.42912 h 0.97056 c -0.0983,-0.12142 -0.1519,-0.2729 -0.15204,-0.42912 -2.6e-4,-0.37739 0.30552,-0.68351 0.68292,-0.68367 0.22752,2.1e-4 0.44001,0.11368 0.56674,0.30262 v -1.36657 h -1.31514 v -0.16388 z m 1.27834,1.37027 c -0.29337,5e-5 -0.53118,0.23787 -0.53123,0.53124 5e-5,0.29337 0.23786,0.53118 0.53123,0.53123 0.29352,1.6e-4 0.53156,-0.23771 0.53161,-0.53123 -5e-5,-0.29352 -0.23809,-0.5314 -0.53161,-0.53124 z m -2.01822,0.0148 c -0.29338,5e-5 -0.5312,0.23786 -0.53125,0.53123 5e-5,0.29339 0.23787,0.53119 0.53125,0.53124 0.29337,-5e-5 0.5312,-0.23785 0.53123,-0.53124 -4e-5,-0.29337 -0.23787,-0.53118 -0.53123,-0.53123 z"
       id="rect852"
       inkscape:connector-curvature="0"
       sodipodi:nodetypes="ccccccccccccccccccccccccc" />
    <path
       style="opacity:1;vector-effect:none;fill:#000000;fill-opacity:1;stroke:none;stroke-width:0.24528798;stroke-linecap:butt;stroke-linejoin:miter;stroke-miterlimit:4;stroke-dasharray:none;stroke-dashoffset:0;stroke-opacity:1"
       d="m 151.86566,115.91101 -0.56891,1.90007 c 0.0307,-0.0159 0.15709,-0.0508 0.41738,-0.0623 0.19667,0.16239 0.34878,0.51997 0.50735,0.94121 0.10974,0.29155 0.45333,0.20662 0.84662,0.20712 0.3933,5.3e-4 0.68038,0.0843 0.78788,-0.20475 0.23889,-0.6423 0.29449,-0.81492 0.39482,-0.90065 0.12077,-0.10321 0.39805,0.004 0.42562,0.0193 l -0.56928,-1.90007 z m 0.0524,0.24865 v 0.88917 c -0.0594,0.0297 -0.22489,-0.0509 -0.22489,-0.0509 z m 2.13721,0 0.22875,0.84252 c 0,0 -0.13544,0.0849 -0.22875,0.0467 z m -1.9921,0.006 h 1.84663 v 0.8825 c -0.11027,0.0763 -1.74908,0.0679 -1.84663,0 z"
       id="rect921"
       inkscape:connector-curvature="0"
       sodipodi:nodetypes="cccsssscccccccccccccccc" />
    <path
       inkscape:connector-curvature="0"
       style="opacity:1;vector-effect:none;fill:#000000;fill-opacity:1;stroke:none;stroke-width:0.48277301;stroke-linecap:butt;stroke-linejoin:miter;stroke-miterlimit:4;stroke-dasharray:none;stroke-dashoffset:0;stroke-opacity:1"
       d="m 148.28446,118.19698 c -0.98935,-0.004 -1.99181,0.0288 -2.22932,0.112 h -5.3e-4 c -0.22055,0.63556 0,5.77788 0,5.77788 h 4.06073 c 0.009,-0.37184 -0.005,-1.70677 -0.008,-3.00349 -0.002,-0.64835 -0.001,-0.74678 -0.003,-1.25098 -0.001,-0.34899 0.25728,-1.35211 0.33228,-1.52064 -0.18661,-0.0681 -1.16297,-0.11032 -2.15232,-0.11477 z m -1.10071,0.93155 a 0.54287594,0.21185068 0 0 1 0.54312,0.21157 0.54287594,0.21185068 0 0 1 -0.54312,0.21203 0.54287594,0.21185068 0 0 1 -0.5426,-0.21203 0.54287594,0.21185068 0 0 1 0.5426,-0.21157 z m 1.7477,0 a 0.54287594,0.21185069 0 0 1 0.5426,0.21157 0.54287594,0.21185069 0 0 1 -0.5426,0.21203 0.54287594,0.21185069 0 0 1 -0.54312,-0.21203 0.54287594,0.21185069 0 0 1 0.54312,-0.21157 z m -3.23081,0.004 -1.83245,0.57802 v 2.29456 l 1.83245,0.57755 c -0.0264,-0.19033 -0.0763,-3.16261 0,-3.45013 z m -4.11965,0.84582 v 0.25168 h -0.23202 c -0.0552,0.17403 -0.11875,1.37553 0,1.59117 h 0.23202 v 1.94515 h -0.19223 v 1.17678 h 0.19223 v 0.29962 h 1.96681 v -0.29962 h 0.28835 c 0.14396,-0.24609 0.14995,-0.92532 0,-1.17678 h -0.28835 v -3.788 z m 5.60276,0.0434 a 0.54287594,0.21185069 0 0 1 0.54312,0.21157 0.54287594,0.21185069 0 0 1 -0.54312,0.21204 0.54287594,0.21185069 0 0 1 -0.5426,-0.21204 0.54287594,0.21185069 0 0 1 0.5426,-0.21157 z m 1.7477,0 a 0.54287594,0.21185069 0 0 1 0.5426,0.21157 0.54287594,0.21185069 0 0 1 -0.5426,0.21204 0.54287594,0.21185069 0 0 1 -0.54312,-0.21204 0.54287594,0.21185069 0 0 1 0.54312,-0.21157 z m -1.7477,0.87763 a 0.54287594,0.21185069 0 0 1 0.54312,0.21157 0.54287594,0.21185069 0 0 1 -0.54312,0.21203 0.54287594,0.21185069 0 0 1 -0.5426,-0.21203 0.54287594,0.21185069 0 0 1 0.5426,-0.21157 z m 1.7477,0 a 0.54287594,0.21185069 0 0 1 0.5426,0.21157 0.54287594,0.21185069 0 0 1 -0.5426,0.21203 0.54287594,0.21185069 0 0 1 -0.54312,-0.21203 0.54287594,0.21185069 0 0 1 0.54312,-0.21157 z m -1.7477,0.90805 a 0.54287594,0.21185069 0 0 1 0.54312,0.21157 0.54287594,0.21185069 0 0 1 -0.54312,0.21204 0.54287594,0.21185069 0 0 1 -0.5426,-0.21204 0.54287594,0.21185069 0 0 1 0.5426,-0.21157 z m 1.7477,0 a 0.54287594,0.21185069 0 0 1 0.5426,0.21157 0.54287594,0.21185069 0 0 1 -0.5426,0.21204 0.54287594,0.21185069 0 0 1 -0.54312,-0.21204 0.54287594,0.21185069 0 0 1 0.54312,-0.21157 z m -1.7477,0.92281 a 0.54287594,0.21185069 0 0 1 0.54312,0.21203 0.54287594,0.21185069 0 0 1 -0.54312,0.21156 0.54287594,0.21185069 0 0 1 -0.5426,-0.21156 0.54287594,0.21185069 0 0 1 0.5426,-0.21203 z m 1.7477,0 a 0.54287594,0.2118507 0 0 1 0.5426,0.21203 0.54287594,0.2118507 0 0 1 -0.5426,0.21156 0.54287594,0.2118507 0 0 1 -0.54312,-0.21156 0.54287594,0.2118507 0 0 1 0.54312,-0.21203 z m -9.29917,0.34846 c -0.57395,0.002 -1.14974,0.0333 -1.25471,0.088 -0.21554,0.69482 -0.32529,1.41785 -0.29197,2.13923 0.0636,1.08941 0.19891,2.21863 0.48731,2.37752 0.35626,0.22698 1.8976,0.22695 2.20296,-0.0152 0.33082,-0.14376 0.42397,-1.26876 0.4346,-2.35817 0.0105,-1.08941 -0.33279,-2.14337 -0.33279,-2.14337 -0.099,-0.0628 -0.67144,-0.0901 -1.2454,-0.088 z m -0.56328,0.90944 h 1.15135 c 0.10603,0.053 0.0975,0.12845 0,0.17008 H 139.069 c -0.093,-0.0241 -0.10797,-0.11923 0,-0.17008 z m 11.05307,0.23692 -4.06435,0.005 c 1.9e-4,0.002 0.28112,2.1243 0.46767,2.26044 0.15268,0.10592 3.50093,0.18158 3.67058,0 -0.0418,-0.17373 -0.0679,-1.83798 -0.0739,-2.26598 z m -2.90008,0.65776 h 1.80868 c 0.16653,0.0832 0.15321,0.20196 0,0.26735 h -1.80868 c -0.14602,-0.0378 -0.16957,-0.18743 0,-0.26735 z m 0,0.79282 h 1.80868 c 0.16653,0.0832 0.15321,0.20196 0,0.26734 h -1.80868 c -0.14602,-0.0378 -0.16957,-0.18742 0,-0.26734 z m -7.56233,0.0106 a 0.9839626,0.87766729 0 0 1 0.98392,0.87762 0.9839626,0.87766729 0 0 1 -0.98392,0.87809 0.9839626,0.87766729 0 0 1 -0.98392,-0.87809 0.9839626,0.87766729 0 0 1 0.98392,-0.87762 z"
       id="rect954" />
    <path
       style="opacity:1;vector-effect:none;fill:#000000;fill-opacity:1;stroke:none;stroke-width:0.20478903;stroke-linecap:butt;stroke-linejoin:miter;stroke-miterlimit:4;stroke-dasharray:none;stroke-dashoffset:0;stroke-opacity:1"
       d="m 151.0806,126.97399 h 0.18408 c -0.0184,0.5048 0.5262,0.74842 0.97984,0.74842 h 0.76132 0.76132 c 0.57346,0.0289 1.01334,-0.25732 1.02709,-0.74842 h 0.15421 l 0.21383,0.5842 v 2.20288 l -0.21383,0.58419 h -3.86786 l -0.27215,-0.58419 v -2.20288 z"
       id="rect1030"
       inkscape:connector-curvature="0"
       sodipodi:nodetypes="cccccccccccccc" />
    <path
       inkscape:connector-curvature="0"
       style="opacity:1;vector-effect:none;fill:#000000;fill-opacity:1;stroke:none;stroke-width:0.48610264;stroke-linecap:butt;stroke-linejoin:miter;stroke-miterlimit:4;stroke-dasharray:none;stroke-dashoffset:0;stroke-opacity:1"
       d="m 157.67781,118.06344 c 0.98935,-0.005 1.99181,0.0292 2.22932,0.11355 h 5.3e-4 c 0.22055,0.64436 0,5.85785 0,5.85785 h -4.06073 c -0.009,-0.37698 0.005,-1.73039 0.008,-3.04506 0.002,-0.65733 0.001,-0.75711 0.003,-1.26829 10e-4,-0.35383 -0.25728,-1.37083 -0.33228,-1.54169 0.18661,-0.069 1.16297,-0.11185 2.15232,-0.11636 z m 1.10071,0.94445 c -0.29963,-5e-5 -0.54271,0.096 -0.54312,0.21449 -2.6e-4,0.11873 0.24302,0.21502 0.54312,0.21497 0.2999,-6e-5 0.54286,-0.0963 0.5426,-0.21497 -4.1e-4,-0.11846 -0.24317,-0.21443 -0.5426,-0.21449 z m -1.7477,0 c -0.29943,6e-5 -0.54219,0.096 -0.5426,0.21449 -2.6e-4,0.11865 0.2427,0.21491 0.5426,0.21497 0.3001,5e-5 0.54338,-0.0962 0.54312,-0.21497 -4.1e-4,-0.11854 -0.24349,-0.21454 -0.54312,-0.21449 z m 3.23081,0.004 1.83245,0.58601 v 2.32633 l -1.83245,0.58554 c 0.0264,-0.19297 0.0763,-3.20639 0,-3.49788 z m 4.11965,0.85753 v 0.25516 h 0.23202 c 0.0552,0.17643 0.11875,1.39457 0,1.61318 h -0.23202 v 1.97209 h 0.19223 v 1.19306 h -0.19223 v 0.30377 h -1.96681 v -0.30377 h -0.28835 c -0.14396,-0.2495 -0.14995,-0.93813 0,-1.19306 h 0.28835 v -3.84043 z m -5.60276,0.0439 c -0.29965,-5e-5 -0.54274,0.096 -0.54312,0.21451 -2.5e-4,0.11873 0.24303,0.21501 0.54312,0.21496 0.29989,-6e-5 0.54285,-0.0963 0.5426,-0.21496 -3.8e-4,-0.11847 -0.24315,-0.21445 -0.5426,-0.21451 z m -1.7477,0 c -0.29945,6e-5 -0.54222,0.096 -0.5426,0.21451 -2.5e-4,0.11865 0.24271,0.2149 0.5426,0.21496 0.30009,5e-5 0.54337,-0.0962 0.54312,-0.21496 -3.8e-4,-0.11855 -0.24347,-0.21456 -0.54312,-0.21451 z m 1.7477,0.88978 c -0.29964,-5e-5 -0.54273,0.096 -0.54312,0.2145 -2.6e-4,0.11873 0.24302,0.21502 0.54312,0.21497 0.2999,-6e-5 0.54286,-0.0963 0.5426,-0.21497 -3.9e-4,-0.11847 -0.24316,-0.21444 -0.5426,-0.2145 z m -1.7477,0 c -0.29944,6e-5 -0.54221,0.096 -0.5426,0.2145 -2.6e-4,0.11865 0.2427,0.21491 0.5426,0.21497 0.3001,5e-5 0.54338,-0.0962 0.54312,-0.21497 -3.9e-4,-0.11855 -0.24348,-0.21455 -0.54312,-0.2145 z m 1.7477,0.92062 c -0.29964,-5e-5 -0.54273,0.096 -0.54312,0.2145 -2.6e-4,0.11873 0.24302,0.21502 0.54312,0.21497 0.2999,-6e-5 0.54286,-0.0963 0.5426,-0.21497 -3.9e-4,-0.11847 -0.24316,-0.21444 -0.5426,-0.2145 z m -1.7477,0 c -0.29944,6e-5 -0.54221,0.096 -0.5426,0.2145 -2.6e-4,0.11865 0.2427,0.21491 0.5426,0.21497 0.3001,5e-5 0.54338,-0.0962 0.54312,-0.21497 -3.9e-4,-0.11855 -0.24348,-0.21455 -0.54312,-0.2145 z m 1.7477,0.93558 c -0.30009,-5e-5 -0.54337,0.0962 -0.54312,0.21496 3.9e-4,0.11855 0.24348,0.21455 0.54312,0.2145 0.29944,-6e-5 0.54221,-0.096 0.5426,-0.2145 2.5e-4,-0.11865 -0.24271,-0.2149 -0.5426,-0.21496 z m -1.7477,0 c -0.29989,6e-5 -0.54285,0.0963 -0.5426,0.21496 3.9e-4,0.11847 0.24316,0.21444 0.5426,0.2145 0.29964,5e-5 0.54273,-0.0959 0.54312,-0.2145 2.5e-4,-0.11873 -0.24303,-0.21501 -0.54312,-0.21496 z m 9.29917,0.35329 c 0.57395,0.002 0.59459,0.0337 0.69956,0.0893 0.0539,0.17611 0.10115,0.35401 0.14123,0.53322 0.0401,0.17921 0.62812,0.35974 0.65323,0.54111 0.0502,0.36273 0.0693,0.72883 0.0527,1.09451 -0.0636,1.10449 -0.19891,2.24935 -0.48731,2.41043 -0.35626,0.23012 -1.8976,0.23009 -2.20297,-0.0154 -0.33082,-0.14575 -0.42396,-1.28632 -0.43459,-2.39081 -0.0105,-1.10449 0.33279,-2.17303 0.33279,-2.17303 0.099,-0.0637 0.67144,-0.0913 1.2454,-0.0893 z m -10.48979,1.16222 4.06435,0.005 c -1.9e-4,0.002 -0.28112,2.15371 -0.46768,2.29174 -0.15268,0.10737 -3.50092,0.18409 -3.67057,0 0.0418,-0.17614 0.0679,-1.86342 0.0739,-2.29735 z m 2.90008,0.66687 h -1.80868 c -0.16653,0.0844 -0.15321,0.20475 0,0.27104 h 1.80868 c 0.14602,-0.0383 0.16957,-0.19001 0,-0.27104 z m 0,0.80378 h -1.80868 c -0.16653,0.0844 -0.15321,0.20477 0,0.27105 h 1.80868 c 0.14602,-0.0383 0.16957,-0.19002 0,-0.27105 z m 7.56233,0.0108 c -0.5434,2e-5 -0.9839,0.39838 -0.98392,0.88978 -2.6e-4,0.49158 0.44033,0.89022 0.98392,0.89024 0.54359,-3e-5 0.98417,-0.39866 0.98391,-0.89024 -2e-5,-0.4914 -0.44052,-0.88975 -0.98391,-0.88978 z"
       id="rect954-6"
       sodipodi:nodetypes="ccccccccccccccccccccccccccccccccccccccccccccccccccccccccccccccccccccccccccccccccccccsscccccccccccccccccccccccccccc" />
    <path
       sodipodi:nodetypes="ccccccccccccccccccccccccccccccccccccccccccccccccccccccccccccccccc"
       inkscape:connector-curvature="0"
       style="opacity:1;vector-effect:none;fill:#000000;fill-opacity:1;stroke:none;stroke-width:0.26499999;stroke-linecap:butt;stroke-linejoin:miter;stroke-miterlimit:4;stroke-dasharray:none;stroke-dashoffset:0;stroke-opacity:1"
       d="m 148.94618,126.77492 c -0.47047,-10e-4 -0.97026,0.0309 -1.22422,0.10181 v 0.93578 h -0.48421 c -0.17717,0.28348 -0.14174,1.49116 0,1.70377 h 0.48421 v 2.10073 h -0.57774 v 1.18132 h 0.57774 v 0.44493 h 2.2717 v -0.44493 h 0.45785 c 0.18375,-0.13363 0.20045,-0.91405 0,-1.18132 h -0.45785 v -2.10073 h 0.48472 v -1.70377 h -0.48472 v -0.93578 c -0.13584,-0.065 -0.577,-0.10033 -1.04748,-0.10181 z m -3.54397,3.55638 c -0.55942,-0.003 -1.13518,0.0383 -1.31827,0.1328 v 0.26562 h -0.37 c -0.18899,0.27167 -0.16537,2.9412 0,3.07113 h 0.37 v 1.46459 h -0.73845 c -0.44885,0.51972 -0.25986,5.48088 0,5.66986 h 0.73845 v 0.68626 h 2.53887 v -0.68626 h 0.73897 c 0.4016,-0.35435 0.25986,-5.36275 0,-5.66986 h -0.73897 v -1.46459 h 0.37052 v -3.07113 h -0.37052 v -0.26562 c -0.11812,-0.0827 -0.66119,-0.12985 -1.2206,-0.1328 z m -2.03871,11.42979 -0.0724,0.50333 h -0.80822 v 0.94464 h 0.67231 l -0.002,0.0109 h 1.45883 l -0.002,-0.0109 h 1.72054 l -0.002,0.0109 h 1.45883 l -0.002,-0.0109 h 0.67231 v -0.94464 H 147.65 l -0.0724,-0.50333 h -1.03973 l -0.0724,0.50333 h -1.99185 l -0.0723,-0.50333 z"
       id="rect967" />
    <path
       sodipodi:nodetypes="ccccccccccccccccccccccccccccccccccccccccccccccccccccccccccccccccc"
       inkscape:connector-curvature="0"
       style="opacity:1;vector-effect:none;fill:#000000;fill-opacity:1;stroke:none;stroke-width:0.26499999;stroke-linecap:butt;stroke-linejoin:miter;stroke-miterlimit:4;stroke-dasharray:none;stroke-dashoffset:0;stroke-opacity:1"
       d="m 157.01607,126.78081 c 0.47047,-0.001 0.97025,0.0309 1.22421,0.10181 v 0.93578 h 0.48421 c 0.17718,0.28348 0.14174,1.49116 0,1.70377 h -0.48421 v 2.10072 h 0.57775 v 1.18133 h -0.57775 v 0.44493 h -2.27169 v -0.44493 h -0.45786 c -0.18375,-0.13363 -0.20045,-0.91406 0,-1.18133 h 0.45786 v -2.10072 h -0.48473 v -1.70377 h 0.48473 v -0.93578 c 0.13584,-0.065 0.577,-0.10033 1.04748,-0.10181 z m 3.54397,3.55637 c 0.55941,-0.003 1.13518,0.0383 1.31826,0.13281 v 0.26562 h 0.37001 c 0.18899,0.27167 0.16537,2.9412 0,3.07113 h -0.37001 v 1.41536 h 0.73846 c 0.44885,0.51972 0.25986,5.53011 0,5.71909 h -0.73846 v 0.68626 h -2.53886 v -0.68626 h -0.73897 c -0.4016,-0.35435 -0.25986,-5.41198 0,-5.71909 h 0.73897 v -1.41536 h -0.37052 v -3.07113 h 0.37052 v -0.26562 c 0.11812,-0.0827 0.66118,-0.12985 1.2206,-0.13281 z m 2.09776,11.4298 0.0724,0.50332 h 0.80822 v 0.94465 h -0.67231 l 0.002,0.0109 h -2.08485 l 0.002,-0.0109 h -1.02831 l 0.002,0.0109 h -1.45882 l 0.002,-0.0109 h -0.67231 v -0.94465 h 0.8077 l 0.0724,-0.50332 h 1.03973 l 0.0723,0.50332 h 1.92563 l 0.0724,-0.50332 z"
       id="rect967-3" />
    <path
       style="opacity:1;vector-effect:none;fill:#000000;fill-opacity:1;stroke:none;stroke-width:0.1;stroke-linecap:butt;stroke-linejoin:miter;stroke-miterlimit:4;stroke-dasharray:none;stroke-dashoffset:0;stroke-opacity:1"
       d="m 167.89654,126.36898 c -0.0796,0.73779 -0.20593,1.34881 -0.41031,1.46296 -0.17264,0.11151 -0.62426,0.16782 -1.07797,0.1695 0.20235,0.3903 0.60526,0.63539 1.04489,0.63562 0.65044,3e-5 1.17774,-0.52727 1.17771,-1.17771 -2.6e-4,-0.47897 -0.29059,-0.91006 -0.73432,-1.09037 z"
       id="path820"
       inkscape:connector-curvature="0"
       sodipodi:nodetypes="cccccc" />
  </g>
</svg>
