<?xml version="1.0" encoding="UTF-8" standalone="no"?>
<!-- Created with Inkscape (http://www.inkscape.org/) -->

<svg
   xmlns:dc="http://purl.org/dc/elements/1.1/"
   xmlns:cc="http://creativecommons.org/ns#"
   xmlns:rdf="http://www.w3.org/1999/02/22-rdf-syntax-ns#"
   xmlns:svg="http://www.w3.org/2000/svg"
   xmlns="http://www.w3.org/2000/svg"
   xmlns:sodipodi="http://sodipodi.sourceforge.net/DTD/sodipodi-0.dtd"
   xmlns:inkscape="http://www.inkscape.org/namespaces/inkscape"
   sodipodi:docname="Zeus.svg"
   inkscape:version="0.92.5 (2060ec1f9f, 2020-04-08)"
   id="svg8"
   version="1.1"
   viewBox="0 0 34.98301 52.516205"
   height="52.516205mm"
   width="34.983009mm">
  <defs
     id="defs2" />
  <sodipodi:namedview
     id="base"
     pagecolor="#ffffff"
     bordercolor="#666666"
     borderopacity="1.0"
     inkscape:pageopacity="0.0"
     inkscape:pageshadow="2"
     inkscape:zoom="4.0000002"
     inkscape:cx="138.34762"
     inkscape:cy="100.91701"
     inkscape:document-units="mm"
     inkscape:current-layer="layer1"
     showgrid="false"
     inkscape:window-width="1920"
     inkscape:window-height="1043"
     inkscape:window-x="1920"
     inkscape:window-y="0"
     inkscape:window-maximized="1"
     inkscape:snap-global="false"
     fit-margin-top="0"
     fit-margin-left="0"
     fit-margin-right="0"
     fit-margin-bottom="0"
     showguides="false"
     inkscape:guide-bbox="true" />
  <metadata
     id="metadata5">
    <rdf:RDF>
      <cc:Work
         rdf:about="">
        <dc:format>image/svg+xml</dc:format>
        <dc:type
           rdf:resource="http://purl.org/dc/dcmitype/StillImage" />
        <dc:title />
      </cc:Work>
    </rdf:RDF>
  </metadata>
  <g
     inkscape:label="Capa 1"
     inkscape:groupmode="layer"
     id="layer1"
     transform="translate(-135.48963,-99.590537)">
    <path
       style="opacity:1;vector-effect:none;fill:#000000;fill-opacity:1;fill-rule:nonzero;stroke:none;stroke-width:0.22015963;stroke-linecap:round;stroke-linejoin:miter;stroke-miterlimit:4;stroke-dasharray:none;stroke-dashoffset:0;stroke-opacity:1"
       d="m 163.65605,108.56711 -0.67851,0.14521 0.15813,0.50643 -0.0491,0.0109 c -0.0656,0.119 0.027,0.39599 0.0992,0.4129 l 0.077,-0.016 0.0491,0.15813 -0.0357,0.007 c -0.0656,0.11902 0.0266,0.39598 0.0987,0.41289 l 0.0636,-0.0134 0.0496,0.15813 -0.0196,0.004 c -0.0656,0.119 0.0271,0.39598 0.0992,0.41289 l 0.047,-0.0103 0.27906,0.89503 0.0904,0.44132 h 0.16898 l 0.0284,-1.49707 h 0.002 l 0.009,-0.48472 z"
       id="rect2454-9-6"
       inkscape:connector-curvature="0" />
    <path
       style="opacity:1;vector-effect:none;fill:#000000;fill-opacity:1;fill-rule:nonzero;stroke:none;stroke-width:0.20584764;stroke-linecap:round;stroke-linejoin:miter;stroke-miterlimit:4;stroke-dasharray:none;stroke-dashoffset:0;stroke-opacity:1"
       d="m 164.55923,107.11341 -0.60978,0.0223 0.0512,0.49372 -0.047,0.002 c -0.0819,0.0992 -0.0479,0.37029 0.015,0.3977 l 0.0729,-0.003 0.016,0.15391 -0.0341,5.1e-4 c -0.0819,0.0992 -0.0484,0.3703 0.0145,0.39771 l 0.0605,-0.003 0.016,0.1539 -0.0186,5.1e-4 c -0.0819,0.0992 -0.0484,0.37032 0.0145,0.39772 l 0.045,-9.8e-4 0.0899,0.87213 -0.0398,2.10977 c 0.0598,0.0469 0.15932,0.07 0.26665,0.0762 l 0.16718,-2.00869 -0.0279,-1.07835 -0.0553,-0.002 c -0.0745,-0.0394 -0.0903,-0.37446 0.0196,-0.48864 l 0.0227,5.1e-4 -0.005,-0.18997 -0.0739,-0.003 c -0.0745,-0.0393 -0.0903,-0.37494 0.0196,-0.48913 l 0.0419,0.002 -0.005,-0.19047 -0.0899,-0.004 c -0.0745,-0.0394 -0.0903,-0.37496 0.0196,-0.48915 l 0.0574,0.002 z"
       id="rect2454-7-1"
       inkscape:connector-curvature="0"
       sodipodi:nodetypes="ccccccccccccccccccccccccccccccc" />
    <path
       style="opacity:1;vector-effect:none;fill:#000000;fill-opacity:1;fill-rule:nonzero;stroke:none;stroke-width:0.18472882;stroke-linecap:round;stroke-linejoin:miter;stroke-miterlimit:4;stroke-dasharray:none;stroke-dashoffset:0;stroke-opacity:1"
       d="m 140.37405,123.9914 c -0.17803,0.46284 -0.19285,1.65695 0,1.79409 h 0.91767 l -0.14892,-0.95464 0.13071,-0.83945 z m 4.06657,0 0.13072,0.83945 -0.14893,0.95464 h 0.9241 c 0.20769,-0.17142 0.26703,-1.51981 0,-1.79409 z"
       id="rect2424-5"
       inkscape:connector-curvature="0"
       sodipodi:nodetypes="cccccccccccc" />
    <path
       style="opacity:1;vector-effect:none;fill:#000000;fill-opacity:1;fill-rule:nonzero;stroke:none;stroke-width:0.15067883;stroke-linecap:round;stroke-linejoin:miter;stroke-miterlimit:4;stroke-dasharray:none;stroke-dashoffset:0;stroke-opacity:1"
       d="m 161.30719,113.23228 c 0.0119,0.2388 0.0189,0.51635 0.0196,0.8263 v 0.0667 c 5.2e-4,0.35063 -0.007,0.70463 -0.0155,1.03714 l -0.002,0.0636 c -0.0179,0.59116 -0.0473,1.06969 -0.0811,1.09089 l -0.3979,0.11938 c -0.0139,0.14654 -0.1297,0.51733 -0.26666,0.92139 v 0.33951 h 1.5875 v -4.46484 z"
       id="rect2306-1"
       inkscape:connector-curvature="0"
       sodipodi:nodetypes="cccccccccccc" />
    <rect
       style="opacity:1;vector-effect:none;fill:#1a1a1a;fill-opacity:1;stroke:none;stroke-width:0.1;stroke-linecap:butt;stroke-linejoin:miter;stroke-miterlimit:4;stroke-dasharray:none;stroke-dashoffset:0;stroke-opacity:1"
       id="rect860"
       width="7.0941477"
       height="0"
       x="148.86763"
       y="129.31949" />
    <path
       inkscape:connector-curvature="0"
       style="opacity:1;vector-effect:none;fill:#000000;fill-opacity:1;fill-rule:nonzero;stroke:none;stroke-width:0.0855265;stroke-linecap:round;stroke-linejoin:miter;stroke-miterlimit:4;stroke-dasharray:none;stroke-dashoffset:0;stroke-opacity:1"
       d="m 149.26424,126.94343 0.56844,2.52469 0.41186,-0.69285 0.01,-0.0179 h 6.06423 l 0.42168,0.71039 0.56844,-2.52435 h -0.0971 l -0.82062,1.37759 h -6.03323 -0.0289 l -0.82062,-1.37759 z m 0.339,0 0.786,1.32124 h 5.94124 l 0.78599,-1.32124 z m 0.71158,1.87132 -0.45682,0.76744 0.37776,0.3547 h 6.10143 l 0.37776,-0.35504 -0.45682,-0.7671 z"
       id="rect1411"
       sodipodi:nodetypes="ccccccccccccccccccccccccc" />
    <path
       style="opacity:1;vector-effect:none;fill:#000000;fill-opacity:1;fill-rule:nonzero;stroke:none;stroke-width:0.75672859;stroke-linecap:round;stroke-linejoin:miter;stroke-miterlimit:4;stroke-dasharray:none;stroke-dashoffset:0;stroke-opacity:1"
       d="M 95.255859 63.46875 L 92.060547 63.488281 L 91.896484 63.488281 C 91.153996 67.912143 89.970883 69.817217 89.658203 70.308594 C 89.286298 70.331271 87.627149 69.895014 85.796875 69.382812 L 85.369141 70.576172 C 85.976668 71.264616 88.144924 72.249658 89.798828 72.855469 C 90.609925 73.210925 91.906412 73.739356 93.435547 74.025391 C 94.79493 73.353504 95.787109 70.236328 95.787109 70.236328 C 95.724147 70.01148 94.757022 69.027493 93.845703 68.126953 C 94.555795 66.139043 95.189903 64.16513 95.255859 63.46875 z M 92.34375 69.361328 A 1.4062499 1.4062499 0 0 1 93.75 70.767578 A 1.4062499 1.4062499 0 0 1 92.34375 72.173828 A 1.4062499 1.4062499 0 0 1 90.9375 70.767578 A 1.4062499 1.4062499 0 0 1 92.34375 69.361328 z "
       transform="matrix(0.26458333,0,0,0.26458333,135.48963,99.590537)"
       id="rect1284-3" />
    <path
       inkscape:connector-curvature="0"
       style="opacity:1;vector-effect:none;fill:#000000;fill-opacity:1;fill-rule:nonzero;stroke:none;stroke-width:0.2;stroke-linecap:round;stroke-linejoin:miter;stroke-miterlimit:4;stroke-dasharray:none;stroke-dashoffset:0;stroke-opacity:1"
       d="m 150.86156,114.63721 v 2.67891 h 5.35781 v -2.67891 h -1.09967 v 2.33991 h -3.15847 v -2.33991 z"
       id="rect1007" />
    <path
       style="opacity:1;vector-effect:none;fill:#000000;fill-opacity:1;fill-rule:nonzero;stroke:none;stroke-width:0.69814044;stroke-linecap:round;stroke-linejoin:miter;stroke-miterlimit:4;stroke-dasharray:2.09442142, 2.09442142;stroke-dashoffset:0;stroke-opacity:1"
       d="m 151.15254,109.31076 c -0.24059,0.23678 -0.6726,2.52334 -0.64969,2.99688 0.24222,-0.0151 0.67574,-0.0127 0.74086,0.0134 l 0.56635,-3.11644 c -0.26321,-0.002 -0.44921,0.008 -0.65752,0.10616 z"
       id="rect911-3"
       inkscape:connector-curvature="0"
       sodipodi:nodetypes="ccccc" />
    <path
       inkscape:connector-curvature="0"
       style="opacity:1;vector-effect:none;fill:#000000;fill-opacity:1;fill-rule:nonzero;stroke:none;stroke-width:0.73322499;stroke-linecap:round;stroke-linejoin:miter;stroke-miterlimit:4;stroke-dasharray:2.1996749, 2.1996749;stroke-dashoffset:0;stroke-opacity:1"
       d="m 151.74083,110.98276 -0.36661,2.93814 h 4.40699 l -0.36662,-2.93814 z m 0.0955,0.0764 h 3.48281 l 0.34752,2.7854 h -4.17786 z"
       id="rect865" />
    <path
       style="opacity:1;vector-effect:none;fill:#000000;fill-opacity:1;fill-rule:nonzero;stroke:none;stroke-width:0.61796564;stroke-linecap:round;stroke-linejoin:miter;stroke-miterlimit:4;stroke-dasharray:1.85389699, 1.85389699;stroke-dashoffset:0;stroke-opacity:1"
       d="m 152.02057,109.41328 -0.24442,1.49083 h 3.57447 l -0.1833,-1.49083 z m 0.10883,0.0763 h 2.92478 l 0.17043,1.33822 h -3.32243 z"
       id="rect867"
       inkscape:connector-curvature="0" />
    <rect
       style="opacity:1;vector-effect:none;fill:#000000;fill-opacity:1;fill-rule:nonzero;stroke:none;stroke-width:0.88305223;stroke-linecap:round;stroke-linejoin:miter;stroke-miterlimit:4;stroke-dasharray:2.6491567, 2.6491567;stroke-dashoffset:0;stroke-opacity:1"
       id="rect891"
       width="4.4285831"
       height="0.48574612"
       x="151.32643"
       y="113.9987" />
    <path
       style="opacity:1;vector-effect:none;fill:#000000;fill-opacity:1;fill-rule:nonzero;stroke:none;stroke-width:0.73322499;stroke-linecap:round;stroke-linejoin:miter;stroke-miterlimit:4;stroke-dasharray:2.19967493, 2.19967493;stroke-dashoffset:0;stroke-opacity:1"
       d="m 150.33543,112.35708 c 0.1222,-0.0306 0.83159,-0.0344 0.89652,0 v 1.92246 c 0,0 -0.76286,0.0611 -0.8927,-0.0802 z"
       id="rect893"
       inkscape:connector-curvature="0"
       sodipodi:nodetypes="ccccc" />
    <path
       style="opacity:1;vector-effect:none;fill:#000000;fill-opacity:1;fill-rule:nonzero;stroke:none;stroke-width:0.73322499;stroke-linecap:round;stroke-linejoin:miter;stroke-miterlimit:4;stroke-dasharray:2.19967495, 2.19967495;stroke-dashoffset:0;stroke-opacity:1"
       d="m 156.74597,112.38627 c -0.1222,-0.0306 -0.83159,-0.0344 -0.89651,0 v 1.92246 c 0,0 0.76286,0.0611 0.8927,-0.0802 z"
       id="rect893-7"
       inkscape:connector-curvature="0"
       sodipodi:nodetypes="ccccc" />
    <path
       style="opacity:1;vector-effect:none;fill:#000000;fill-opacity:1;fill-rule:nonzero;stroke:none;stroke-width:0.7827962;stroke-linecap:round;stroke-linejoin:miter;stroke-miterlimit:4;stroke-dasharray:2.34838859, 2.34838859;stroke-dashoffset:0;stroke-opacity:1"
       d="m 152.84326,106.91234 -0.56185,2.48466 h 0.21385 l 0.44395,-1.961 0.0163,-0.0721 h 1.24495 l 0.45969,2.03308 h 0.21386 l -0.56185,-2.48466 z m 0.26015,0.63584 -0.37902,1.6722 h 1.70704 l -0.37902,-1.6722 z"
       id="rect950"
       inkscape:connector-curvature="0" />
    <path
       style="opacity:1;vector-effect:none;fill:#000000;fill-opacity:1;fill-rule:nonzero;stroke:none;stroke-width:0.69814044;stroke-linecap:round;stroke-linejoin:miter;stroke-miterlimit:4;stroke-dasharray:2.09442145, 2.09442145;stroke-dashoffset:0;stroke-opacity:1"
       d="m 155.93694,109.32813 c 0.24059,0.23677 0.6726,2.52334 0.64969,2.99688 -0.24222,-0.0151 -0.67574,-0.0127 -0.74087,0.0134 l -0.56635,-3.11644 c 0.26322,-0.002 0.44921,0.008 0.65753,0.10617 z"
       id="rect911-3-2"
       inkscape:connector-curvature="0"
       sodipodi:nodetypes="ccccc" />
    <rect
       style="opacity:1;vector-effect:none;fill:#000000;fill-opacity:1;fill-rule:nonzero;stroke:none;stroke-width:0.2;stroke-linecap:round;stroke-linejoin:miter;stroke-miterlimit:4;stroke-dasharray:none;stroke-dashoffset:0;stroke-opacity:1"
       id="rect988"
       width="2.9700325"
       height="1.099146"
       x="152.08691"
       y="114.5649" />
    <rect
       style="opacity:1;vector-effect:none;fill:#000000;fill-opacity:1;fill-rule:nonzero;stroke:none;stroke-width:0.2;stroke-linecap:round;stroke-linejoin:miter;stroke-miterlimit:4;stroke-dasharray:none;stroke-dashoffset:0;stroke-opacity:1"
       id="rect988-9"
       width="2.9700325"
       height="1.099146"
       x="152.08691"
       y="115.7342" />
    <path
       inkscape:connector-curvature="0"
       style="opacity:1;vector-effect:none;fill:#000000;fill-opacity:1;fill-rule:nonzero;stroke:none;stroke-width:0.2;stroke-linecap:round;stroke-linejoin:miter;stroke-miterlimit:4;stroke-dasharray:none;stroke-dashoffset:0;stroke-opacity:1"
       d="m 159.60314,114.21501 c -0.89376,-0.0245 -3.04426,0.36172 -3.21892,0.42892 l -0.008,2.65565 c 0,0 2.56314,0.79371 2.82773,0.77721 0.11575,-0.1819 0.81882,-2.22232 0.77722,-3.77031 -0.0327,-0.0584 -0.17202,-0.0858 -0.37828,-0.0915 z m 0.13126,0.18707 a 0.0883562,0.0883562 0 0 1 5.3e-4,0 0.0883562,0.0883562 0 0 1 0.006,0 0.0883562,0.0883562 0 0 1 0.0884,0.0884 0.0883562,0.0883562 0 0 1 -0.0884,0.0884 0.0883562,0.0883562 0 0 1 -0.0884,-0.0884 0.0883562,0.0883562 0 0 1 0.0816,-0.0884 z m -3.12229,0.35037 a 0.0883562,0.0883562 0 0 1 5.3e-4,0 0.0883562,0.0883562 0 0 1 0.006,0 0.0883562,0.0883562 0 0 1 0.0884,0.0884 0.0883562,0.0883562 0 0 1 -0.0884,0.0884 0.0883562,0.0883562 0 0 1 -0.0884,-0.0884 0.0883562,0.0883562 0 0 1 0.0816,-0.0884 z m 5.3e-4,2.29185 a 0.0883562,0.0883562 0 0 1 0.006,0 0.0883562,0.0883562 0 0 1 0.0884,0.0884 0.0883562,0.0883562 0 0 1 -0.0884,0.0884 0.0883562,0.0883562 0 0 1 -0.0884,-0.0884 0.0883562,0.0883562 0 0 1 0.0822,-0.0884 z m 2.46962,0.73742 a 0.0883562,0.0883562 0 0 1 0.006,0 0.0883562,0.0883562 0 0 1 0.0884,0.0884 0.0883562,0.0883562 0 0 1 -0.0884,0.0884 0.0883562,0.0883562 0 0 1 -0.0884,-0.0884 0.0883562,0.0883562 0 0 1 0.0822,-0.0884 z"
       id="rect1033" />
    <path
       inkscape:connector-curvature="0"
       style="opacity:1;vector-effect:none;fill:#000000;fill-opacity:1;fill-rule:nonzero;stroke:none;stroke-width:0.2;stroke-linecap:round;stroke-linejoin:miter;stroke-miterlimit:4;stroke-dasharray:none;stroke-dashoffset:0;stroke-opacity:1"
       d="m 147.5249,114.21335 c 0.89377,-0.0245 3.04427,0.36172 3.21893,0.42891 l 0.008,2.65566 c 0,0 -2.56314,0.79371 -2.82773,0.77721 -0.11575,-0.1819 -0.81882,-2.22232 -0.77722,-3.77032 0.0327,-0.0584 0.17202,-0.0858 0.37827,-0.0915 z m -0.13125,0.18707 a 0.0883562,0.0883562 0 0 0 -5.3e-4,0 0.0883562,0.0883562 0 0 0 -0.006,0 0.0883562,0.0883562 0 0 0 -0.0884,0.0884 0.0883562,0.0883562 0 0 0 0.0884,0.0884 0.0883562,0.0883562 0 0 0 0.0884,-0.0884 0.0883562,0.0883562 0 0 0 -0.0816,-0.0884 z m 3.12229,0.35037 a 0.0883562,0.0883562 0 0 0 -5.3e-4,0 0.0883562,0.0883562 0 0 0 -0.006,0 0.0883562,0.0883562 0 0 0 -0.0883,0.0884 0.0883562,0.0883562 0 0 0 0.0884,0.0884 0.0883562,0.0883562 0 0 0 0.0884,-0.0884 0.0883562,0.0883562 0 0 0 -0.0816,-0.0884 z m -5.3e-4,2.29184 a 0.0883562,0.0883562 0 0 0 -0.006,0 0.0883562,0.0883562 0 0 0 -0.0883,0.0884 0.0883562,0.0883562 0 0 0 0.0884,0.0884 0.0883562,0.0883562 0 0 0 0.0884,-0.0884 0.0883562,0.0883562 0 0 0 -0.0822,-0.0884 z m -2.46962,0.73743 a 0.0883562,0.0883562 0 0 0 -0.006,0 0.0883562,0.0883562 0 0 0 -0.0884,0.0884 0.0883562,0.0883562 0 0 0 0.0884,0.0884 0.0883562,0.0883562 0 0 0 0.0884,-0.0884 0.0883562,0.0883562 0 0 0 -0.0822,-0.0884 z"
       id="rect1033-8" />
    <path
       inkscape:connector-curvature="0"
       style="opacity:1;vector-effect:none;fill:#000000;fill-opacity:1;fill-rule:nonzero;stroke:none;stroke-width:0.19428512;stroke-linecap:round;stroke-linejoin:miter;stroke-miterlimit:4;stroke-dasharray:none;stroke-dashoffset:0;stroke-opacity:1"
       d="m 159.30755,112.46422 c -0.87292,-0.005 -1.81919,0.0277 -2.2226,0.10955 l -0.001,0.33021 h 4.07107 c -0.016,-0.17145 -0.0356,-0.30499 -0.0641,-0.32969 -0.11109,-0.0643 -0.91043,-0.1055 -1.78335,-0.11007 z m -2.22363,0.50436 -0.003,1.03714 h 4.1088 c -0.001,-0.40041 -0.009,-0.77512 -0.03,-1.03714 z m -0.003,1.10381 v 0.0594 c -6.6e-4,6.9e-4 -0.002,4.3e-4 -0.003,0.002 v 0.29247 c 0.75763,-0.13329 1.94099,-0.31337 2.62568,-0.29559 0.21754,0.006 0.36445,0.0331 0.39894,0.0915 0.008,0.28467 -0.0145,0.58567 -0.0512,0.8878 h 1.12293 c 0.009,-0.33251 0.016,-0.68651 0.0155,-1.03714 z m 2.96364,1.10122 c -0.0484,0.37359 -0.12064,0.74807 -0.20464,1.09864 l 1.25109,-0.008 c 0.0338,-0.0212 0.0632,-0.49973 0.0811,-1.09089 z"
       id="rect1118-2" />
    <path
       inkscape:connector-curvature="0"
       style="opacity:1;vector-effect:none;fill:#000000;fill-opacity:1;fill-rule:nonzero;stroke:none;stroke-width:0.19428512;stroke-linecap:round;stroke-linejoin:miter;stroke-miterlimit:4;stroke-dasharray:none;stroke-dashoffset:0;stroke-opacity:1"
       d="m 147.77824,112.42717 c 0.87293,-0.005 1.8192,0.0277 2.22261,0.10955 l 10e-4,0.33022 h -4.07107 c 0.016,-0.17146 0.0356,-0.30501 0.0641,-0.3297 0.11108,-0.0643 0.91043,-0.1055 1.78335,-0.11007 z m 2.22364,0.50436 0.003,1.03715 h -4.10879 c 0.001,-0.40041 0.009,-0.77513 0.03,-1.03715 z m 0.003,1.10381 v 0.0594 c 6.6e-4,6.9e-4 0.002,4.2e-4 0.003,0.002 v 0.29248 c -0.75763,-0.13329 -1.94099,-0.31338 -2.62568,-0.29559 -0.21754,0.006 -0.36445,0.0331 -0.39894,0.0915 -0.008,0.28468 0.0145,0.58568 0.0512,0.88781 h -1.12293 c -0.009,-0.33251 -0.016,-0.68652 -0.0155,-1.03715 z m -2.96364,1.10122 c 0.0484,0.37359 0.12064,0.74807 0.20463,1.09865 l -1.25108,-0.008 c -0.0338,-0.0212 -0.0632,-0.49973 -0.0811,-1.09089 z"
       id="rect1118-2-5" />
    <path
       inkscape:connector-curvature="0"
       style="opacity:1;vector-effect:none;fill:#000000;fill-opacity:1;fill-rule:nonzero;stroke:none;stroke-width:0.17460947;stroke-linecap:round;stroke-linejoin:miter;stroke-miterlimit:4;stroke-dasharray:none;stroke-dashoffset:0;stroke-opacity:1"
       d="m 151.18402,117.43911 0.17725,1.35392 h 4.30878 l 0.17725,-1.35392 z m 0.19895,1.51773 0.18087,1.37925 h 3.90364 l 0.18087,-1.37925 z m 0.20258,1.54513 0.17725,1.35237 h 3.50572 l 0.17725,-1.35237 z"
       id="rect1215" />
    <path
       style="opacity:1;vector-effect:none;fill:#000000;fill-opacity:1;fill-rule:nonzero;stroke:none;stroke-width:0.16500001;stroke-linecap:round;stroke-linejoin:miter;stroke-miterlimit:4;stroke-dasharray:none;stroke-dashoffset:0;stroke-opacity:1"
       d="m 151.00212,117.49744 -2.03399,0.52916 0.26304,0.90072 h 1.97197 z m -1.72341,1.5937 0.40256,1.37924 h 1.73891 l -0.19379,-1.37924 z m 0.45113,1.54512 0.36277,1.24334 1.52136,-0.0331 -0.17002,-1.21027 z"
       id="rect1264"
       inkscape:connector-curvature="0" />
    <path
       inkscape:connector-curvature="0"
       style="opacity:1;vector-effect:none;fill:#000000;fill-opacity:1;fill-rule:nonzero;stroke:none;stroke-width:0.16500001;stroke-linecap:round;stroke-linejoin:miter;stroke-miterlimit:4;stroke-dasharray:none;stroke-dashoffset:0;stroke-opacity:1"
       d="m 156.02457,117.49744 2.03398,0.52916 -0.26303,0.90072 h -1.97198 z m 1.7234,1.5937 -0.40255,1.37924 h -1.73892 l 0.19379,-1.37924 z m -0.45113,1.54512 -0.36277,1.24334 -1.52135,-0.0331 0.17001,-1.21027 z"
       id="rect1264-8" />
    <path
       style="opacity:1;vector-effect:none;fill:#000000;fill-opacity:1;fill-rule:nonzero;stroke:none;stroke-width:0.75672859;stroke-linecap:round;stroke-linejoin:miter;stroke-miterlimit:4;stroke-dasharray:none;stroke-dashoffset:0;stroke-opacity:1"
       d="m 41.123047,63.65625 c 0.0634,0.669384 0.661411,2.529597 1.335937,4.435547 -0.915165,0.888739 -2.395465,2.343198 -2.476562,2.632812 0,0 0.99218,3.117176 2.351562,3.789063 2.473087,-0.595279 6.778292,-1.748072 8.675782,-3.75 l -0.427735,-1.19336 c -1.830274,0.512202 -3.487469,0.948459 -3.859375,0.925782 -0.31268,-0.491377 -1.495793,-2.396451 -2.238281,-6.820313 h -0.164063 z m 2.302734,6.193359 c 0.77665,0 1.40625,0.6296 1.40625,1.40625 0,0.77665 -0.6296,1.40625 -1.40625,1.40625 -0.77665,0 -1.40625,-0.6296 -1.40625,-1.40625 0,-0.77665 0.6296,-1.40625 1.40625,-1.40625 z"
       transform="matrix(0.26458333,0,0,0.26458333,135.48963,99.590537)"
       id="rect1284-3-6"
       inkscape:connector-curvature="0"
       sodipodi:nodetypes="ccccccccccsssss" />
    <path
       inkscape:connector-curvature="0"
       style="opacity:1;vector-effect:none;fill:#000000;fill-opacity:1;fill-rule:nonzero;stroke:none;stroke-width:0.20021777;stroke-linecap:round;stroke-linejoin:miter;stroke-miterlimit:4;stroke-dasharray:none;stroke-dashoffset:0;stroke-opacity:1"
       d="m 148.73714,122.44242 v 4.43177 h 0.76895 l 0.57825,-1.86449 0.0119,-0.0393 h 6.57634 l 0.59015,1.90376 h 0.80098 v -4.43177 z m 0.54467,0.21549 h 8.369 l -0.91778,1.93787 h -6.51588 -0.0176 z m 0.0837,0.0527 0.86764,1.83245 h 6.46472 l 0.8692,-1.83245 z m 0.80873,2.3673 -0.5581,1.79627 h 7.53494 l -0.55707,-1.79627 z"
       id="rect1345" />
    <path
       style="opacity:1;vector-effect:none;fill:#000000;fill-opacity:1;fill-rule:nonzero;stroke:none;stroke-width:0.16500001;stroke-linecap:round;stroke-linejoin:miter;stroke-miterlimit:4;stroke-dasharray:none;stroke-dashoffset:0;stroke-opacity:1"
       d="m 158.09834,122.44088 2.31024,0.99738 v 2.17559 l -2.31024,1.26196 z"
       id="rect1347"
       inkscape:connector-curvature="0"
       sodipodi:nodetypes="ccccc" />
    <path
       style="opacity:1;vector-effect:none;fill:#000000;fill-opacity:1;fill-rule:nonzero;stroke:none;stroke-width:0.16500001;stroke-linecap:round;stroke-linejoin:miter;stroke-miterlimit:4;stroke-dasharray:none;stroke-dashoffset:0;stroke-opacity:1"
       d="m 148.70276,122.44088 -2.04565,0.99738 v 2.17559 l 2.04565,1.26196 z"
       id="rect1347-2"
       inkscape:connector-curvature="0"
       sodipodi:nodetypes="ccccc" />
    <g
       id="g1920">
      <path
         sodipodi:nodetypes="cccccccc"
         inkscape:connector-curvature="0"
         id="rect1834-7"
         d="m 158.74971,136.27564 c -0.39687,0.11576 -0.45475,0.85989 -0.0909,1.32291 0.13229,0.11576 0.41599,0.33073 0.66404,0.10749 l -0.23358,-0.59531 -0.004,-0.0331 0.11885,-0.71933 c 0,0 -0.16497,-0.19015 -0.45436,-0.0827 z"
         style="opacity:1;vector-effect:none;fill:#000000;fill-opacity:1;fill-rule:nonzero;stroke:none;stroke-width:0.13229166;stroke-linecap:round;stroke-linejoin:miter;stroke-miterlimit:4;stroke-dasharray:none;stroke-dashoffset:0;stroke-opacity:1" />
      <path
         sodipodi:nodetypes="cccccccc"
         inkscape:connector-curvature="0"
         id="rect1659-6"
         d="m 159.37396,126.94339 -1.55598,0.0527 -0.39584,0.26097 -0.33796,1.91151 0.32297,1.96887 1.28158,0.40514 1.28157,-0.40514 z"
         style="opacity:1;vector-effect:none;fill:#000000;fill-opacity:1;fill-rule:nonzero;stroke:none;stroke-width:0.13229166;stroke-linecap:round;stroke-linejoin:miter;stroke-miterlimit:4;stroke-dasharray:none;stroke-dashoffset:0;stroke-opacity:1" />
      <path
         id="rect1527-1"
         transform="matrix(0.26458333,0,0,0.26458333,135.48963,99.590537)"
         d="M 96.421875 118.68555 L 92.404297 119.97852 L 93.628906 125.41016 L 97.646484 124.11914 L 96.421875 118.68555 z M 92.017578 120.10352 L 87.998047 121.39648 L 89.222656 126.83008 L 93.244141 125.53516 L 92.017578 120.10352 z M 97.75 124.57812 L 93.734375 125.87305 L 94.855469 130.84766 L 98.873047 129.55469 L 97.75 124.57812 z M 93.347656 125.99609 L 89.328125 127.29297 L 90.449219 132.26562 L 90.806641 132.15039 L 90.84375 131.9082 L 91.572266 131.9043 L 94.470703 130.9707 L 93.347656 125.99609 z M 98.974609 130.00977 L 94.958984 131.30078 L 95.087891 131.87305 L 99.390625 131.8457 L 98.974609 130.00977 z M 94.572266 131.42773 L 93.115234 131.89453 L 93.962891 131.89062 L 93.964844 131.87891 L 94.673828 131.875 L 94.572266 131.42773 z M 90.730469 132.66211 L 90.552734 132.71875 L 90.654297 133.17188 L 90.730469 132.66211 z "
         style="opacity:1;vector-effect:none;fill:#000000;fill-opacity:1;fill-rule:nonzero;stroke:none;stroke-width:0.23522526;stroke-linecap:round;stroke-linejoin:miter;stroke-miterlimit:4;stroke-dasharray:none;stroke-dashoffset:0;stroke-opacity:1" />
      <path
         sodipodi:nodetypes="ccccccccc"
         inkscape:connector-curvature="0"
         id="rect1503"
         d="m 159.59184,134.59101 -0.40928,2.47572 0.004,0.0331 0.39199,0.99433 2.57686,-0.0132 0.33289,-0.99843 0.002,-0.0331 -0.53119,-2.47039 z"
         style="opacity:1;vector-effect:none;fill:#000000;fill-opacity:1;fill-rule:nonzero;stroke:none;stroke-width:0.07413074;stroke-linecap:round;stroke-linejoin:miter;stroke-miterlimit:4;stroke-dasharray:none;stroke-dashoffset:0;stroke-opacity:1" />
      <path
         id="rect1527-0"
         transform="matrix(0.26458333,0,0,0.26458333,135.48963,99.590537)"
         d="M 84.939453 120.66406 L 86.183594 126.10156 L 88.917969 126.92188 L 87.671875 121.48438 L 84.939453 120.66406 z M 86.291016 126.5625 L 87.431641 131.54102 L 90.164062 132.36328 L 89.023438 127.38281 L 86.291016 126.5625 z M 87.535156 131.99609 L 88.771484 137.39648 L 89.933594 137.74609 L 90.511719 133.88477 L 90.267578 132.81641 L 87.535156 131.99609 z "
         style="opacity:1;vector-effect:none;fill:#000000;fill-opacity:1;fill-rule:nonzero;stroke:none;stroke-width:0.23856522;stroke-linecap:round;stroke-linejoin:miter;stroke-miterlimit:4;stroke-dasharray:none;stroke-dashoffset:0;stroke-opacity:1" />
      <path
         sodipodi:nodetypes="ccccccccccccccc"
         inkscape:connector-curvature="0"
         id="rect1527-0-3"
         d="m 157.13025,131.24224 0.32954,1.43853 0.72324,0.21723 -0.32956,-1.43852 z m 0.35751,1.56058 0.30177,1.31743 0.72324,0.21723 -0.30179,-1.31742 z m 0.3293,1.43758 0.32736,1.42903 0.72324,0.21723 -0.32736,-1.42902 z"
         style="opacity:1;vector-effect:none;fill:#000000;fill-opacity:1;fill-rule:nonzero;stroke:none;stroke-width:0.06312038;stroke-linecap:round;stroke-linejoin:miter;stroke-miterlimit:4;stroke-dasharray:none;stroke-dashoffset:0;stroke-opacity:1" />
      <path
         inkscape:connector-curvature="0"
         id="rect1727"
         d="m 162.73865,137.8311 -0.47548,0.0227 -0.0989,0.28784 -1.15095,0.006 0.11913,1.33325 1.90088,-0.16072 z m -3.2933,0.15916 -0.36858,0.0176 -0.19786,1.66295 1.98173,-0.16743 -0.12127,-1.35496 -1.227,0.006 z m 3.63953,1.59112 -1.92906,0.16278 0.12074,1.34979 2.07319,-0.17467 z m -2.20084,0.18552 -2.03703,0.17208 -0.16329,1.37408 2.32105,-0.19586 z m 2.51731,1.41335 -2.1014,0.17725 0.13776,1.54564 2.28276,-0.11059 z m -2.37265,0.2005 -2.37689,0.20051 -0.17392,1.46502 2.68804,-0.13022 z"
         style="opacity:1;vector-effect:none;fill:#000000;fill-opacity:1;fill-rule:nonzero;stroke:none;stroke-width:0.12483647;stroke-linecap:round;stroke-linejoin:miter;stroke-miterlimit:4;stroke-dasharray:none;stroke-dashoffset:0;stroke-opacity:1" />
      <path
         inkscape:connector-curvature="0"
         id="rect1790"
         d="m 163.24408,143.88276 -0.043,0.69068 -3.88849,0.0736 -0.0656,-0.69304 -1.58728,0.0259 -0.15291,2.47038 -0.0385,0.27249 0.0217,-3.6e-4 -4.2e-4,0.006 2.01718,-0.033 -6.2e-4,-0.006 5.58496,-0.0913 -0.25982,-2.74118 z"
         style="opacity:1;vector-effect:none;fill:#000000;fill-opacity:1;fill-rule:nonzero;stroke:none;stroke-width:0.13229166;stroke-linecap:round;stroke-linejoin:miter;stroke-miterlimit:4;stroke-dasharray:none;stroke-dashoffset:0;stroke-opacity:1" />
      <path
         inkscape:connector-curvature="0"
         id="rect1812"
         d="m 158.08214,143.27822 0.01,0.59524 1.40541,-0.023 0.0116,0.71097 3.47219,-0.0568 -0.0116,-0.71097 1.40541,-0.023 -0.01,-0.59524 z"
         style="opacity:1;vector-effect:none;fill:#000000;fill-opacity:1;fill-rule:nonzero;stroke:none;stroke-width:0.13229166;stroke-linecap:round;stroke-linejoin:miter;stroke-miterlimit:4;stroke-dasharray:none;stroke-dashoffset:0;stroke-opacity:1" />
      <path
         inkscape:connector-curvature="0"
         id="rect1818"
         d="m 158.32573,137.44381 -0.21982,1.58804 0.60197,0.55448 0.22444,-1.62243 z m -0.25854,1.86871 -0.19828,1.43309 0.60793,0.50829 0.19197,-1.38692 z m -0.23641,1.70966 -0.19937,1.44028 0.60624,0.52008 0.20061,-1.45055 z"
         style="opacity:1;vector-effect:none;fill:#000000;fill-opacity:1;fill-rule:nonzero;stroke:none;stroke-width:0.1108407;stroke-linecap:round;stroke-linejoin:miter;stroke-miterlimit:4;stroke-dasharray:none;stroke-dashoffset:0;stroke-opacity:1" />
    </g>
    <g
       id="g1908"
       transform="matrix(-1,0,0,1,330.64281,-55.5625)">
      <path
         sodipodi:nodetypes="ccccccc"
         inkscape:connector-curvature="0"
         id="rect1834-7-6"
         d="m 183.03995,191.67628 c -0.39687,0.11576 -0.46904,0.94676 -0.10524,1.40978 0.1754,0.18124 0.52916,0.26309 0.6227,0 l -0.19224,-0.48782 -0.004,-0.0331 0.11885,-0.71933 c 0.0468,-0.0877 -0.26467,-0.2163 -0.44007,-0.16953 z"
         style="opacity:1;vector-effect:none;fill:#000000;fill-opacity:1;fill-rule:nonzero;stroke:none;stroke-width:0.13229166;stroke-linecap:round;stroke-linejoin:miter;stroke-miterlimit:4;stroke-dasharray:none;stroke-dashoffset:0;stroke-opacity:1" />
      <path
         sodipodi:nodetypes="cccccccc"
         inkscape:connector-curvature="0"
         id="rect1659-6-5"
         d="m 183.64991,182.4309 -1.55598,0.0527 -0.39584,0.26097 -0.33796,1.91151 0.32297,1.96887 1.28158,0.40514 1.28157,-0.40514 z"
         style="opacity:1;vector-effect:none;fill:#000000;fill-opacity:1;fill-rule:nonzero;stroke:none;stroke-width:0.13229166;stroke-linecap:round;stroke-linejoin:miter;stroke-miterlimit:4;stroke-dasharray:none;stroke-dashoffset:0;stroke-opacity:1" />
      <path
         id="rect1527-1-6"
         d="m 185.2772,186.48026 -1.06298,0.3421 0.32401,1.43712 1.06298,-0.34158 z m -1.1653,0.37517 -1.06351,0.3421 0.32402,1.43764 1.06401,-0.34262 z m 1.5167,1.18391 -1.06247,0.34261 0.29662,1.3162 1.06299,-0.3421 z m -1.16479,0.37517 -1.0635,0.34313 0.29662,1.31568 0.0946,-0.0305 0.01,-0.0641 0.19275,-0.001 0.76688,-0.24702 z m 1.4888,1.06195 -1.06247,0.34158 0.0341,0.15141 1.13843,-0.007 z m -1.16479,0.37517 -0.3855,0.12351 0.22427,-0.001 5.3e-4,-0.003 0.18759,-0.001 z m -1.01647,0.3266 -0.047,0.015 0.0269,0.11989 z"
         style="opacity:1;vector-effect:none;fill:#000000;fill-opacity:1;fill-rule:nonzero;stroke:none;stroke-width:0.06223668;stroke-linecap:round;stroke-linejoin:miter;stroke-miterlimit:4;stroke-dasharray:none;stroke-dashoffset:0;stroke-opacity:1"
         inkscape:connector-curvature="0" />
      <path
         sodipodi:nodetypes="ccccccccc"
         inkscape:connector-curvature="0"
         id="rect1503-9"
         d="m 183.86779,190.07852 -0.40928,2.47572 0.004,0.0331 0.39199,0.99433 2.57686,-0.0132 0.33289,-0.99843 0.002,-0.0331 -0.53119,-2.47039 z"
         style="opacity:1;vector-effect:none;fill:#000000;fill-opacity:1;fill-rule:nonzero;stroke:none;stroke-width:0.07413074;stroke-linecap:round;stroke-linejoin:miter;stroke-miterlimit:4;stroke-dasharray:none;stroke-dashoffset:0;stroke-opacity:1" />
      <path
         id="rect1527-0-37"
         d="m 182.23914,187.00374 0.32918,1.43867 0.72347,0.21705 -0.32969,-1.43867 z m 0.3576,1.56063 0.30179,1.31723 0.72296,0.21756 -0.30179,-1.31775 z m 0.32918,1.43764 0.32711,1.42885 0.30748,0.0925 0.15296,-1.02164 -0.0646,-0.28267 z"
         style="opacity:1;vector-effect:none;fill:#000000;fill-opacity:1;fill-rule:nonzero;stroke:none;stroke-width:0.06312038;stroke-linecap:round;stroke-linejoin:miter;stroke-miterlimit:4;stroke-dasharray:none;stroke-dashoffset:0;stroke-opacity:1"
         inkscape:connector-curvature="0" />
      <path
         sodipodi:nodetypes="ccccccccccccccc"
         inkscape:connector-curvature="0"
         id="rect1527-0-3-4"
         d="m 181.4062,186.72975 0.32954,1.43853 0.72324,0.21723 -0.32956,-1.43852 z m 0.35751,1.56058 0.30177,1.31743 0.72324,0.21723 -0.30179,-1.31742 z m 0.3293,1.43758 0.32736,1.42903 0.72324,0.21723 -0.32736,-1.42902 z"
         style="opacity:1;vector-effect:none;fill:#000000;fill-opacity:1;fill-rule:nonzero;stroke:none;stroke-width:0.06312038;stroke-linecap:round;stroke-linejoin:miter;stroke-miterlimit:4;stroke-dasharray:none;stroke-dashoffset:0;stroke-opacity:1" />
      <path
         inkscape:connector-curvature="0"
         id="rect1727-5"
         d="m 187.0146,193.31861 -0.47548,0.0227 -0.0989,0.28784 -1.15095,0.006 0.11913,1.33325 1.90088,-0.16072 z m -3.2933,0.15916 -0.36858,0.0176 -0.19786,1.66295 1.98173,-0.16743 -0.12127,-1.35496 -1.227,0.006 z m 3.63953,1.59112 -1.92906,0.16278 0.12074,1.34979 2.07319,-0.17467 z m -2.20084,0.18552 -2.03703,0.17208 -0.16329,1.37408 2.32105,-0.19586 z m 2.51731,1.41335 -2.1014,0.17725 0.13776,1.54564 2.28276,-0.11059 z m -2.37265,0.2005 -2.37689,0.20051 -0.17392,1.46502 2.68804,-0.13022 z"
         style="opacity:1;vector-effect:none;fill:#000000;fill-opacity:1;fill-rule:nonzero;stroke:none;stroke-width:0.12483647;stroke-linecap:round;stroke-linejoin:miter;stroke-miterlimit:4;stroke-dasharray:none;stroke-dashoffset:0;stroke-opacity:1" />
      <path
         inkscape:connector-curvature="0"
         id="rect1790-2"
         d="m 187.52003,199.37027 -0.043,0.69068 -3.88849,0.0736 -0.0656,-0.69304 -1.58728,0.0259 -0.15291,2.47038 -0.0385,0.27249 0.0217,-3.7e-4 -4.2e-4,0.006 2.01718,-0.033 -6.2e-4,-0.006 5.58496,-0.0913 -0.25982,-2.74118 z"
         style="opacity:1;vector-effect:none;fill:#000000;fill-opacity:1;fill-rule:nonzero;stroke:none;stroke-width:0.13229166;stroke-linecap:round;stroke-linejoin:miter;stroke-miterlimit:4;stroke-dasharray:none;stroke-dashoffset:0;stroke-opacity:1" />
      <path
         inkscape:connector-curvature="0"
         id="rect1812-5"
         d="m 182.35809,198.76573 0.01,0.59524 1.40541,-0.023 0.0116,0.71097 3.47219,-0.0568 -0.0116,-0.71097 1.40541,-0.023 -0.01,-0.59524 z"
         style="opacity:1;vector-effect:none;fill:#000000;fill-opacity:1;fill-rule:nonzero;stroke:none;stroke-width:0.13229166;stroke-linecap:round;stroke-linejoin:miter;stroke-miterlimit:4;stroke-dasharray:none;stroke-dashoffset:0;stroke-opacity:1" />
      <path
         inkscape:connector-curvature="0"
         id="rect1818-4"
         d="m 182.60168,192.93132 -0.21982,1.58804 0.60197,0.55448 0.22444,-1.62243 z m -0.25854,1.86871 -0.19828,1.43309 0.60793,0.50829 0.19197,-1.38692 z m -0.23641,1.70966 -0.19937,1.44028 0.60624,0.52008 0.20061,-1.45055 z"
         style="opacity:1;vector-effect:none;fill:#000000;fill-opacity:1;fill-rule:nonzero;stroke:none;stroke-width:0.1108407;stroke-linecap:round;stroke-linejoin:miter;stroke-miterlimit:4;stroke-dasharray:none;stroke-dashoffset:0;stroke-opacity:1" />
    </g>
    <path
       style="opacity:1;vector-effect:none;fill:#000000;fill-opacity:1;fill-rule:nonzero;stroke:none;stroke-width:0.13212819;stroke-linecap:round;stroke-linejoin:miter;stroke-miterlimit:4;stroke-dasharray:none;stroke-dashoffset:0;stroke-opacity:1"
       d="m 166.03083,112.50474 c 0.0164,0.0371 0.0329,0.33436 0.0478,0.72967 l 0.46572,0.0615 c -0.0164,-0.29545 -0.0344,-0.52393 -0.0533,-0.55552 -0.052,-0.0992 -0.46015,-0.23564 -0.46015,-0.23564 z m 0.058,0.99684 c 0.009,0.29902 0.0155,0.67747 0.0218,1.04748 l 0.47592,0.0269 c -0.008,-0.36284 -0.0158,-0.73002 -0.0278,-1.01286 z m 0.0274,1.31309 c 0.005,0.33225 0.007,0.67519 0.008,1.01286 l 0.47685,-0.0274 c -5.5e-4,-0.31948 -0.002,-0.64413 -0.007,-0.95756 z m 0.48473,1.25161 -0.47546,0.0274 c 3e-4,0.3559 -0.003,0.68733 -0.007,0.99787 l 0.46757,-0.0615 c 0.008,-0.29776 0.0143,-0.61732 0.0153,-0.96376 z m -0.0241,1.23041 -0.46479,0.061 c -0.0136,0.58385 -0.0381,1.02375 -0.0821,1.10019 0.004,-0.001 0.40558,-0.13996 0.44252,-0.23461 0.0525,-0.0666 0.0847,-0.4334 0.10437,-0.92656 z"
       id="rect2005-8"
       inkscape:connector-curvature="0" />
    <path
       style="opacity:1;vector-effect:none;fill:#000000;fill-opacity:1;fill-rule:nonzero;stroke:none;stroke-width:0.41518119;stroke-linecap:round;stroke-linejoin:miter;stroke-miterlimit:4;stroke-dasharray:none;stroke-dashoffset:0;stroke-opacity:1"
       d="M 103.92383 47.554688 C 102.60542 47.543349 101.57743 47.573537 101.14648 47.634766 L 101.14648 51.53125 L 115.46094 51.53125 C 115.40424 50.066267 115.34361 48.97333 115.28125 48.871094 C 115.06218 48.638896 114.44296 48.442224 113.59375 48.275391 L 113.54688 48.791016 C 112.89808 49.264401 110.14693 49.326511 109.24219 48.65625 L 109.32031 47.792969 C 107.44938 47.657879 105.4942 47.568388 103.92383 47.554688 z M 101.14648 52.527344 L 101.14648 56.447266 L 115.58398 56.447266 C 115.55753 55.061691 115.53672 53.639772 115.50195 52.527344 L 101.14648 52.527344 z M 101.14648 57.449219 L 101.14648 61.371094 L 115.63867 61.371094 C 115.63111 60.062999 115.62437 58.731575 115.60547 57.449219 L 101.14648 57.449219 z M 101.14648 62.367188 L 101.14648 66.287109 L 115.61328 66.287109 C 115.63218 65.070328 115.64636 63.769279 115.64258 62.367188 L 101.14648 62.367188 z M 101.14648 67.291016 L 101.14648 72.634766 C 101.22396 72.714892 102.12037 72.772118 103.41406 72.791016 C 103.44808 72.489787 103.48697 72.265337 103.5293 72.208984 C 104.51783 71.591145 106.68973 71.257432 108.76953 71.246094 C 110.78005 71.234755 112.69282 71.524677 113.37695 72.146484 C 114.33083 71.950705 115.03362 71.706103 115.28125 71.396484 C 115.44566 71.109996 115.53964 69.471123 115.5918 67.291016 L 101.14648 67.291016 z "
       id="rect1922"
       transform="matrix(0.26458333,0,0,0.26458333,135.48963,99.590537)" />
    <path
       style="opacity:1;vector-effect:none;fill:#000000;fill-opacity:1;fill-rule:nonzero;stroke:none;stroke-width:0.13229166;stroke-linecap:round;stroke-linejoin:miter;stroke-miterlimit:4;stroke-dasharray:none;stroke-dashoffset:0;stroke-opacity:1"
       d="m 164.23798,118.48984 c -0.49203,0.003 -1.00585,0.0817 -1.23971,0.2279 -0.0702,0.0935 -0.10524,1.84405 0,1.98437 0.0295,-0.008 0.0651,-0.0137 0.0971,-0.0207 0.007,0.24101 0.0202,0.44735 0.0501,0.48731 0.0549,-0.014 0.11615,-0.0271 0.18087,-0.0388 0.004,0.25435 0.0145,0.47998 0.0408,0.52038 0.37362,-0.10971 1.06368,-0.14628 1.59628,0 0.0387,-0.0239 0.0558,-0.25169 0.0636,-0.51159 0.0506,0.01 0.10217,0.0183 0.1509,0.03 0.0452,-0.0243 0.0708,-0.22821 0.0827,-0.48318 0.0282,0.006 0.0581,0.01 0.0858,0.0165 0.15201,-0.0819 0.12862,-1.87913 0,-1.98437 -0.14616,-0.15786 -0.61642,-0.23082 -1.10846,-0.2279 z"
       id="rect2084"
       inkscape:connector-curvature="0" />
    <path
       style="opacity:1;vector-effect:none;fill:#000000;fill-opacity:1;fill-rule:nonzero;stroke:none;stroke-width:0.13229166;stroke-linecap:round;stroke-linejoin:miter;stroke-miterlimit:4;stroke-dasharray:none;stroke-dashoffset:0;stroke-opacity:1"
       d="m 164.19485,121.69203 c -0.11718,0 -0.23995,0.0124 -0.28525,0.0372 -0.013,0.0659 -0.0176,0.11141 -0.0217,0.15503 -0.31551,0.004 -0.60352,0.0169 -0.70332,0.0512 v 0.18138 c -0.80992,0.0215 -1.47155,0.0695 -1.58388,0.14159 -0.13229,0.0662 -0.14883,0.69451 0,0.72761 1.21622,-0.1049 3.90261,-0.13229 5.09323,0 0.18474,-0.0484 0.21497,-0.57878 0,-0.72761 -0.15633,-0.0738 -0.77666,-0.11847 -1.52187,-0.13952 v -0.18345 c -0.0899,-0.0225 -0.38427,-0.0384 -0.70849,-0.0476 -0.004,-0.0494 -0.007,-0.0989 -0.0165,-0.15864 -0.0234,-0.0249 -0.13499,-0.0372 -0.25218,-0.0372 z"
       id="rect2127"
       inkscape:connector-curvature="0" />
    <path
       style="opacity:1;vector-effect:none;fill:#000000;fill-opacity:1;fill-rule:nonzero;stroke:none;stroke-width:0.11112498;stroke-linecap:round;stroke-linejoin:miter;stroke-miterlimit:4;stroke-dasharray:none;stroke-dashoffset:0;stroke-opacity:1"
       d="m 164.16961,123.02218 a 2.7781247,2.7781247 0 0 0 -2.77812,2.77813 2.7781247,2.7781247 0 0 0 2.77812,2.77812 2.7781247,2.7781247 0 0 0 2.77813,-2.77812 2.7781247,2.7781247 0 0 0 -2.77813,-2.77813 z m -0.0129,0.22634 a 1.1108388,1.1108388 0 0 1 1.11053,1.11053 1.1108388,1.1108388 0 0 1 -1.11053,1.11104 1.1108388,1.1108388 0 0 1 -1.11104,-1.11104 1.1108388,1.1108388 0 0 1 1.11104,-1.11053 z m 0,0.26872 a 0.84189918,0.84189918 0 0 0 -0.84181,0.84181 0.84189918,0.84189918 0 0 0 0.84181,0.84181 0.84189918,0.84189918 0 0 0 0.84181,-0.84181 0.84189918,0.84189918 0 0 0 -0.84181,-0.84181 z"
       id="path2137"
       inkscape:connector-curvature="0" />
    <circle
       style="opacity:1;vector-effect:none;fill:#ffffff;fill-opacity:1;fill-rule:nonzero;stroke:none;stroke-width:0.13229166;stroke-linecap:round;stroke-linejoin:miter;stroke-miterlimit:4;stroke-dasharray:none;stroke-dashoffset:0;stroke-opacity:1"
       id="path2159-8"
       cx="164.16229"
       cy="127.78162"
       r="0.49609375" />
    <circle
       style="opacity:1;vector-effect:none;fill:#ffffff;fill-opacity:1;fill-rule:nonzero;stroke:none;stroke-width:0.13229166;stroke-linecap:round;stroke-linejoin:miter;stroke-miterlimit:4;stroke-dasharray:none;stroke-dashoffset:0;stroke-opacity:1"
       id="path2159-6"
       cx="165.68365"
       cy="126.91344"
       r="0.49609375" />
    <circle
       style="opacity:1;vector-effect:none;fill:#ffffff;fill-opacity:1;fill-rule:nonzero;stroke:none;stroke-width:0.13229166;stroke-linecap:round;stroke-linejoin:miter;stroke-miterlimit:4;stroke-dasharray:none;stroke-dashoffset:0;stroke-opacity:1"
       id="path2159-9"
       cx="162.64095"
       cy="126.91344"
       r="0.49609375" />
    <circle
       style="opacity:1;vector-effect:none;fill:#ffffff;fill-opacity:1;fill-rule:nonzero;stroke:none;stroke-width:0.13229166;stroke-linecap:round;stroke-linejoin:miter;stroke-miterlimit:4;stroke-dasharray:none;stroke-dashoffset:0;stroke-opacity:1"
       id="path2159"
       cx="166.03091"
       cy="125.28461"
       r="0.49609375" />
    <circle
       style="opacity:1;vector-effect:none;fill:#ffffff;fill-opacity:1;fill-rule:nonzero;stroke:none;stroke-width:0.13229166;stroke-linecap:round;stroke-linejoin:miter;stroke-miterlimit:4;stroke-dasharray:none;stroke-dashoffset:0;stroke-opacity:1"
       id="path2159-2"
       cx="162.29367"
       cy="125.28461"
       r="0.49609375" />
    <path
       style="opacity:1;vector-effect:none;fill:#000000;fill-opacity:1;fill-rule:nonzero;stroke:none;stroke-width:0.13772199;stroke-linecap:round;stroke-linejoin:miter;stroke-miterlimit:4;stroke-dasharray:none;stroke-dashoffset:0;stroke-opacity:1"
       d="m 164.07736,122.93743 c -1.00259,0.005 -1.96244,0.0527 -2.34328,0.12713 -0.1073,0.24754 -0.14613,0.7611 -0.1557,1.28881 0.54306,-0.83716 1.52225,-1.3501 2.57964,-1.35134 1.19164,7.6e-4 2.27068,0.64992 2.75213,1.65571 0.0399,-0.62267 0.0205,-1.32837 -0.23411,-1.59318 -0.55109,-0.0951 -1.59607,-0.1323 -2.59868,-0.12713 z"
       id="rect2242-4"
       inkscape:connector-curvature="0"
       sodipodi:nodetypes="scccccs" />
    <path
       style="opacity:1;vector-effect:none;fill:#000000;fill-opacity:1;fill-rule:nonzero;stroke:none;stroke-width:0.13212819;stroke-linecap:round;stroke-linejoin:miter;stroke-miterlimit:4;stroke-dasharray:none;stroke-dashoffset:0;stroke-opacity:1"
       d="m 141.02888,112.50474 c -0.0164,0.0371 -0.0329,0.33436 -0.0478,0.72967 l -0.46572,0.0615 c 0.0164,-0.29545 0.0344,-0.52393 0.0533,-0.55552 0.052,-0.0992 0.46015,-0.23564 0.46015,-0.23564 z m -0.058,0.99684 c -0.009,0.29902 -0.0155,0.67747 -0.0218,1.04748 l -0.47592,0.0269 c 0.008,-0.36284 0.0158,-0.73002 0.0278,-1.01286 z m -0.0274,1.31309 c -0.005,0.33225 -0.007,0.67519 -0.008,1.01286 l -0.47685,-0.0274 c 5.5e-4,-0.31948 0.002,-0.64413 0.007,-0.95756 z m -0.48473,1.25161 0.47546,0.0274 c -3e-4,0.3559 0.003,0.68733 0.007,0.99787 l -0.46757,-0.0615 c -0.008,-0.29776 -0.0143,-0.61732 -0.0153,-0.96376 z m 0.0241,1.23041 0.46479,0.061 c 0.0136,0.58385 0.0381,1.02375 0.0821,1.10019 -0.004,-0.001 -0.40558,-0.13996 -0.44252,-0.23461 -0.0525,-0.0666 -0.0847,-0.4334 -0.10437,-0.92656 z"
       id="rect2005-8-4"
       inkscape:connector-curvature="0" />
    <path
       style="opacity:1;vector-effect:none;fill:#000000;fill-opacity:1;fill-rule:nonzero;stroke:none;stroke-width:0.41518119;stroke-linecap:round;stroke-linejoin:miter;stroke-miterlimit:4;stroke-dasharray:none;stroke-dashoffset:0;stroke-opacity:1"
       d="m 32.443359,47.554688 c -0.461601,0.004 -1.033365,0.03095 -1.552734,0.04492 l 0.03906,0.701172 c -0.45789,0.258142 -5.737849,0.222992 -5.949162,0 l 0.01953,-0.34375 c -1.97153,0.21195 -3.531121,0.508119 -3.914119,0.914063 -0.06236,0.102236 -0.122995,1.195173 -0.179688,2.660156 h 14.314453 v -3.896484 c -0.430942,-0.06123 -1.458931,-0.09142 -2.777344,-0.08008 z m -11.578125,4.972656 c -0.03477,1.112428 -0.05557,2.534347 -0.08203,3.919922 h 14.4375 v -3.919922 z m -0.103515,4.921875 c -0.0189,1.282356 -0.02564,2.61378 -0.0332,3.921875 h 14.492187 v -3.921875 z m -0.03906,4.917969 c -0.0038,1.402091 0.01235,2.70314 0.03125,3.919921 h 14.466797 v -3.919921 z m 0.05273,4.923828 c 0.05216,2.180107 0.146137,3.81898 0.310547,4.105468 0.247634,0.309619 0.950419,0.554221 1.904296,0.75 0.684133,-0.621807 2.596903,-0.911729 4.607422,-0.90039 2.079799,0.01134 4.251699,0.345051 5.240235,0.96289 0.04233,0.05635 0.08122,0.280803 0.115234,0.582032 1.293694,-0.0189 2.190098,-0.07612 2.267578,-0.15625 v -5.34375 z"
       transform="matrix(0.26458333,0,0,0.26458333,135.48963,99.590537)"
       id="rect1922-8"
       inkscape:connector-curvature="0"
       sodipodi:nodetypes="cccccccccccccccccccccccccccccccccc" />
    <path
       style="opacity:1;vector-effect:none;fill:#000000;fill-opacity:1;fill-rule:nonzero;stroke:none;stroke-width:0.13229166;stroke-linecap:round;stroke-linejoin:miter;stroke-miterlimit:4;stroke-dasharray:none;stroke-dashoffset:0;stroke-opacity:1"
       d="m 142.82173,118.48984 c 0.49203,0.003 1.00585,0.0817 1.23971,0.2279 0.0702,0.0935 0.10524,1.84405 0,1.98437 -0.0295,-0.008 -0.0651,-0.0137 -0.0971,-0.0207 -0.007,0.24101 -0.0202,0.44735 -0.0501,0.48731 -0.0549,-0.014 -0.11615,-0.0271 -0.18087,-0.0388 -0.004,0.25435 -0.0145,0.47998 -0.0408,0.52038 -0.37362,-0.10971 -1.06368,-0.14628 -1.59628,0 -0.0387,-0.0239 -0.0558,-0.25169 -0.0636,-0.51159 -0.0506,0.01 -0.10217,0.0183 -0.1509,0.03 -0.0452,-0.0243 -0.0708,-0.22821 -0.0827,-0.48318 -0.0282,0.006 -0.0581,0.01 -0.0858,0.0165 -0.15201,-0.0819 -0.12862,-1.87913 0,-1.98437 0.14616,-0.15786 0.61642,-0.23082 1.10846,-0.2279 z"
       id="rect2084-7"
       inkscape:connector-curvature="0" />
    <path
       style="opacity:1;vector-effect:none;fill:#000000;fill-opacity:1;fill-rule:nonzero;stroke:none;stroke-width:0.15067883;stroke-linecap:round;stroke-linejoin:miter;stroke-miterlimit:4;stroke-dasharray:none;stroke-dashoffset:0;stroke-opacity:1"
       d="m 145.78292,113.25168 c -0.0119,0.2388 -0.0189,0.51636 -0.0196,0.82631 v 0.0667 c -5.2e-4,0.35063 0.007,0.70463 0.0155,1.03714 l 0.002,0.0636 c 0.0179,0.59116 0.0473,1.06969 0.0811,1.09089 l 0.3979,0.11938 c 0.0139,0.14654 0.1297,0.51733 0.26666,0.92139 v 0.33951 h -1.5875 v -4.46485 z"
       id="rect2306-1-7"
       inkscape:connector-curvature="0"
       sodipodi:nodetypes="cccccccccccc" />
    <g
       id="g2422"
       transform="translate(-0.03307292,-0.1405599)">
      <path
         sodipodi:nodetypes="cccccccccc"
         inkscape:connector-curvature="0"
         id="rect2394-1"
         d="m 140.98023,122.51162 c -0.32802,0.32801 -0.268,1.77118 0,2.09973 h 0.26543 l 0.32694,-2.09973 z m 3.24022,0 0.32694,2.09973 h 0.29079 c 0.25896,-0.31076 0.36255,-1.79761 0,-2.09973 z"
         style="opacity:1;vector-effect:none;fill:#000000;fill-opacity:1;fill-rule:nonzero;stroke:none;stroke-width:0.21186315;stroke-linecap:round;stroke-linejoin:miter;stroke-miterlimit:4;stroke-dasharray:none;stroke-dashoffset:0;stroke-opacity:1" />
      <path
         sodipodi:nodetypes="cccccccccccccccccccccccccccccccccc"
         inkscape:connector-curvature="0"
         id="rect2350"
         d="m 142.1192,121.9101 v 0.31523 h -0.43047 l -0.42788,2.74505 0.42788,2.74506 h 0.5302 c -7.9e-4,0.10575 0.003,0.20053 0.0238,0.2253 0.10541,0.0439 0.27483,0.0674 0.45475,0.0811 v 0.24132 c 0.0819,0.0877 0.31261,0.076 0.38861,0 v -0.23099 c 0.19898,-0.0101 0.37897,-0.0396 0.47955,-0.0915 0.038,-0.019 0.0444,-0.11618 0.0424,-0.2253 h 0.53226 l 0.42789,-2.74506 -0.42789,-2.74505 h -0.43046 v -0.31523 c -0.40514,-0.16537 -1.14002,-0.17356 -1.59064,7e-5 z m -0.22479,0.86507 h 2.04122 l 0.34158,2.19521 -0.34158,2.19522 h -2.04122 l -0.34158,-2.19522 0.32762,-2.1115 z m 0.16795,0.19689 -0.31265,1.99832 0.31265,1.99781 h 1.70532 l 0.31006,-1.99781 -0.31006,-1.99832 z"
         style="opacity:1;vector-effect:none;fill:#000000;fill-opacity:1;fill-rule:nonzero;stroke:none;stroke-width:0.1228297;stroke-linecap:round;stroke-linejoin:miter;stroke-miterlimit:4;stroke-dasharray:none;stroke-dashoffset:0;stroke-opacity:1" />
    </g>
    <path
       style="opacity:1;vector-effect:none;fill:#000000;fill-opacity:1;fill-rule:nonzero;stroke:none;stroke-width:0.25546145;stroke-linecap:round;stroke-linejoin:miter;stroke-miterlimit:4;stroke-dasharray:none;stroke-dashoffset:0;stroke-opacity:1"
       d="m 164.60517,106.60219 0.0158,0.62101 -0.0574,-0.002 c -0.10992,0.11617 -0.0942,0.45743 -0.0197,0.49749 l 0.0898,0.004 0.005,0.19361 -0.0419,-0.002 c -0.10992,0.11618 -0.0942,0.45744 -0.0197,0.49749 l 0.0743,0.003 0.005,0.19361 -0.0227,-9e-4 c -0.10992,0.11617 -0.0942,0.45743 -0.0197,0.49749 l 0.0553,0.002 0.028,1.09681 -0.1567,2.18196 c 0.19155,0.17805 0.77401,0.16179 0.91138,0.0361 l 0.1567,-2.18196 -0.20848,-3.60599 z"
       id="rect2454"
       inkscape:connector-curvature="0" />
    <path
       style="opacity:1;vector-effect:none;fill:#000000;fill-opacity:1;fill-rule:nonzero;stroke:none;stroke-width:0.1228297;stroke-linecap:round;stroke-linejoin:miter;stroke-miterlimit:4;stroke-dasharray:none;stroke-dashoffset:0;stroke-opacity:1"
       d="m 142.23957,110.68776 c 0.0643,-0.0526 1.22711,-0.0409 1.29142,0 l 0.0909,1.63703 c -0.11401,0.0643 -1.4207,0.0555 -1.47332,0 z"
       id="rect2603"
       inkscape:connector-curvature="0"
       sodipodi:nodetypes="ccccc" />
    <path
       style="color:#000000;font-style:normal;font-variant:normal;font-weight:normal;font-stretch:normal;font-size:medium;line-height:normal;font-family:sans-serif;font-variant-ligatures:normal;font-variant-position:normal;font-variant-caps:normal;font-variant-numeric:normal;font-variant-alternates:normal;font-feature-settings:normal;text-indent:0;text-align:start;text-decoration:none;text-decoration-line:none;text-decoration-style:solid;text-decoration-color:#000000;letter-spacing:normal;word-spacing:normal;text-transform:none;writing-mode:lr-tb;direction:ltr;text-orientation:mixed;dominant-baseline:auto;baseline-shift:baseline;text-anchor:start;white-space:normal;shape-padding:0;clip-rule:nonzero;display:inline;overflow:visible;visibility:visible;opacity:1;isolation:auto;mix-blend-mode:normal;color-interpolation:sRGB;color-interpolation-filters:linearRGB;solid-color:#000000;solid-opacity:1;vector-effect:none;fill:#000000;fill-opacity:1;fill-rule:nonzero;stroke:none;stroke-width:0.50270832;stroke-linecap:butt;stroke-linejoin:miter;stroke-miterlimit:4;stroke-dasharray:none;stroke-dashoffset:0;stroke-opacity:1;color-rendering:auto;image-rendering:auto;shape-rendering:auto;text-rendering:auto;enable-background:accumulate"
       d="m 165.92824,118.60181 c -0.0365,0.0307 -0.37807,0.13157 -0.40584,0.12865 0.32048,0.57653 0.75503,1.19085 0.80963,1.67968 l 0.004,0.0273 0.008,0.0234 c 0.11175,0.33864 0.008,0.72747 -0.16406,1.09765 -0.029,0.0469 -0.26851,0.39896 -0.47804,0.48318 l 0.67722,0.0363 c 0.1053,-0.0773 0.18508,-0.17366 0.24414,-0.27539 l 0.006,-0.01 0.004,-0.01 c 0.19612,-0.41736 0.345,-0.93417 0.1836,-1.45508 -0.079,-0.66418 -0.60334,-1.23379 -0.88865,-1.72569 z"
       id="path2625"
       inkscape:connector-curvature="0"
       sodipodi:nodetypes="ccccccccccccc" />
  </g>
</svg>
