<?xml version="1.0" encoding="UTF-8" standalone="no"?>
<!-- Created with Inkscape (http://www.inkscape.org/) -->

<svg
   width="10.530727mm"
   height="10.530727mm"
   viewBox="0 0 10.530727 10.530727"
   version="1.1"
   id="svg8"
   inkscape:version="1.1.2 (0a00cf5339, 2022-02-04)"
   sodipodi:docname="AMS1.svg"
   xmlns:inkscape="http://www.inkscape.org/namespaces/inkscape"
   xmlns:sodipodi="http://sodipodi.sourceforge.net/DTD/sodipodi-0.dtd"
   xmlns="http://www.w3.org/2000/svg"
   xmlns:svg="http://www.w3.org/2000/svg"
   xmlns:rdf="http://www.w3.org/1999/02/22-rdf-syntax-ns#"
   xmlns:cc="http://creativecommons.org/ns#"
   xmlns:dc="http://purl.org/dc/elements/1.1/">
  <defs
     id="defs2" />
  <sodipodi:namedview
     id="base"
     pagecolor="#ffffff"
     bordercolor="#666666"
     borderopacity="1.0"
     inkscape:pageopacity="0.0"
     inkscape:pageshadow="2"
     inkscape:zoom="7.919596"
     inkscape:cx="14.20527"
     inkscape:cy="37.691317"
     inkscape:document-units="mm"
     inkscape:current-layer="layer1"
     showgrid="false"
     fit-margin-top="0"
     fit-margin-left="0"
     fit-margin-right="0"
     fit-margin-bottom="0"
     inkscape:window-width="1850"
     inkscape:window-height="1016"
     inkscape:window-x="70"
     inkscape:window-y="1107"
     inkscape:window-maximized="1"
     inkscape:pagecheckerboard="0"
     inkscape:snap-bbox="true" />
  <metadata
     id="metadata5">
    <rdf:RDF>
      <cc:Work
         rdf:about="">
        <dc:format>image/svg+xml</dc:format>
        <dc:type
           rdf:resource="http://purl.org/dc/dcmitype/StillImage" />
      </cc:Work>
    </rdf:RDF>
  </metadata>
  <g
     inkscape:label="Capa 1"
     inkscape:groupmode="layer"
     id="layer1"
     transform="translate(-49.92077,-36.602315)">
    <path
       style="opacity:1;fill:#ffffff;fill-opacity:1;fill-rule:nonzero;stroke:#000000;stroke-width:0.442;stroke-linecap:round;stroke-linejoin:miter;stroke-miterlimit:4;stroke-dasharray:none;stroke-dashoffset:0;stroke-opacity:1"
       d="m 51.454373,36.773315 h 7.463521 c 0.754883,0 1.362604,0.607721 1.362604,1.362603 v 7.463522 c 0,0.754882 -0.607721,1.362603 -1.362604,1.362603 h -7.463521 c -0.754882,0 -1.362603,-0.607721 -1.362603,-1.362603 v -7.463522 c 0,-0.754882 0.607721,-1.362603 1.362603,-1.362603 z"
       id="rect815"
       inkscape:connector-curvature="0" />
    <circle
       style="fill:none;stroke:#000000;stroke-width:0.249814;stroke-linecap:round;stroke-miterlimit:4;stroke-dasharray:none;stop-color:#000000"
       id="path846"
       cx="55.186134"
       cy="41.86768"
       r="4.9772944" />
    <g
       id="g1406"
       transform="translate(40.53426,-22.514441)">
      <path
         inkscape:export-ydpi="300"
         inkscape:export-xdpi="300"
         inkscape:export-filename="ams.png"
         sodipodi:nodetypes="cscccccccccscccscccccsccccccccsccsscccscsscscsscsscscccsscccccccscccccccccsssccccsccccccccsscscccsccccccssccccccc"
         inkscape:connector-curvature="0"
         id="path1100"
         d="m 16.186029,66.671124 c -0.01169,-0.01409 -0.194684,-0.241351 -0.49137,-0.610259 -0.03433,-0.04271 -0.102088,-0.126716 -0.150575,-0.186751 l -0.08816,-0.109138 -0.04112,-0.0211 c -0.136431,-0.06992 -0.241235,-0.182451 -0.297134,-0.319089 -0.01059,-0.02597 -0.02026,-0.0481 -0.02146,-0.04935 -0.0012,-0.0014 -0.01627,0.0067 -0.03352,0.018 -0.04119,0.02656 -0.06781,0.03961 -0.120552,0.05931 -0.182495,0.06816 -0.385705,0.04545 -0.555817,-0.06196 l -0.02902,-0.01836 -0.07841,0.07754 c -0.31381,0.310356 -0.558734,0.553381 -0.568382,0.563988 -0.0063,0.0067 -0.01221,0.0118 -0.01316,0.01084 -0.0019,-0.0023 0.116382,-0.280481 0.131959,-0.310996 0.0053,-0.01004 0.01648,-0.0357 0.02527,-0.05709 0.0088,-0.02131 0.0206,-0.05008 0.02629,-0.06388 0.0057,-0.01379 0.01366,-0.03127 0.01773,-0.0388 0.0041,-0.0075 0.0074,-0.01652 0.0074,-0.01991 1.3e-5,-0.0037 0.0041,-0.01372 0.0089,-0.02287 0.0048,-0.0092 0.01376,-0.02891 0.01972,-0.04396 0.006,-0.01505 0.05032,-0.1192 0.09859,-0.231414 l 0.08775,-0.204027 -0.01002,-0.05164 c -0.01279,-0.06594 -0.01379,-0.159888 -0.0024,-0.222822 0.01476,-0.08151 0.05196,-0.174757 0.09559,-0.239668 0.02512,-0.03739 0.03518,-0.0495 0.07283,-0.08782 l 0.03245,-0.03304 -0.03187,-0.03319 c -0.03667,-0.03813 -0.06578,-0.07571 -0.0903,-0.116537 -0.04307,-0.07169 -0.07836,-0.181462 -0.0835,-0.259769 l -0.0028,-0.04204 -0.01645,-0.003 c -0.0091,-0.0014 -0.199284,-0.02626 -0.422751,-0.05525 -0.223466,-0.02899 -0.46074,-0.05982 -0.527279,-0.06853 -0.06654,-0.0087 -0.132835,-0.01711 -0.147327,-0.01874 -0.0145,-0.0014 -0.02547,-0.0037 -0.02441,-0.0053 0.0012,-0.0014 0.0458,-0.0099 0.09939,-0.01962 0.0536,-0.0097 0.192976,-0.03519 0.309732,-0.05657 0.654067,-0.119782 0.837988,-0.15361 0.840495,-0.154568 0.0016,-5.83e-4 0.01732,-0.01851 0.03508,-0.0399 0.08819,-0.105915 0.209314,-0.179213 0.347884,-0.210517 0.06769,-0.01526 0.181845,-0.0163 0.25859,-0.0023 0.0017,3.9e-4 0.0075,-0.01689 0.01288,-0.03821 0.01786,-0.07081 0.05063,-0.145334 0.08867,-0.201696 0.0078,-0.01158 0.0142,-0.02412 0.0142,-0.02781 0,-0.0037 -0.01548,-0.07229 -0.0344,-0.152275 -0.01892,-0.08 -0.05396,-0.228671 -0.07785,-0.330359 -0.02389,-0.101689 -0.05991,-0.254422 -0.08005,-0.33941 -0.02013,-0.08499 -0.0356,-0.155522 -0.03438,-0.156746 0.0012,-0.0014 0.0045,0.0023 0.0073,0.0073 0.0027,0.0053 0.0743,0.114163 0.159009,0.242281 0.08471,0.128118 0.196562,0.297491 0.24857,0.376379 l 0.09456,0.143431 0.03327,-0.01054 c 0.05803,-0.01844 0.09995,-0.02552 0.165656,-0.02817 0.173185,-0.0067 0.332143,0.05318 0.456518,0.172707 l 0.04109,0.03946 0.05385,-0.02656 c 0.02962,-0.01461 0.06762,-0.03091 0.08446,-0.03622 0.07473,-0.02346 0.176917,-0.03593 0.23492,-0.02862 l 0.03083,0.0037 0.01711,-0.02146 c 0.01554,-0.01947 0.07887,-0.09434 0.457142,-0.540228 0.06625,-0.07811 0.149381,-0.176337 0.184707,-0.218286 0.03533,-0.04197 0.06483,-0.07566 0.06556,-0.07493 7.38e-4,7.38e-4 -0.04099,0.08641 -0.09274,0.190403 -0.05175,0.103983 -0.100825,0.203444 -0.109074,0.221021 -0.0083,0.01756 -0.07074,0.144722 -0.13887,0.282547 -0.06813,0.137824 -0.123306,0.250895 -0.122619,0.251272 0.02046,0.01099 0.08468,0.06476 0.1169,0.09782 0.08158,0.08373 0.135124,0.183411 0.16341,0.304226 0.01226,0.05237 0.0123,0.202979 6.8e-5,0.255652 -0.0088,0.03799 -0.028,0.09887 -0.03574,0.113381 -0.0024,0.0044 -0.0037,0.0093 -0.0027,0.01018 0.001,7.37e-4 0.107451,0.01733 0.236618,0.03629 0.129169,0.01903 0.281073,0.04145 0.337569,0.04986 0.05649,0.0084 0.171125,0.02522 0.25474,0.0374 0.0868,0.01261 0.148494,0.02352 0.143803,0.02537 -0.0045,0.0014 -0.05136,0.01275 -0.10409,0.02435 -0.05273,0.01158 -0.130791,0.02899 -0.173478,0.03865 -0.04268,0.0097 -0.200867,0.04485 -0.351518,0.07822 -0.15065,0.03334 -0.274695,0.06122 -0.275652,0.06188 -10e-4,5.82e-4 0.0025,0.01822 0.0076,0.03903 0.01592,0.0641 0.0206,0.110031 0.01796,0.176543 -0.0038,0.09391 -0.02081,0.16303 -0.06043,0.244758 -0.04096,0.08448 -0.09041,0.149686 -0.156936,0.206948 l -0.03057,0.02633 0.09553,0.104779 c 0.05256,0.05761 0.114259,0.125427 0.137141,0.150654 0.09626,0.106114 0.231403,0.254332 0.274536,0.301083 0.09097,0.09861 0.13457,0.147294 0.13457,0.150254 0,0.0014 -0.0038,7.36e-4 -0.0086,-0.0014 -0.0048,-0.0023 -0.09254,-0.0357 -0.195162,-0.07376 -0.102618,-0.03806 -0.227664,-0.08447 -0.277883,-0.103194 -0.05022,-0.01873 -0.112873,-0.0419 -0.139236,-0.05148 -0.02637,-0.0096 -0.125441,-0.0464 -0.220168,-0.08182 -0.09472,-0.03541 -0.174267,-0.06432 -0.176755,-0.06432 -0.0025,0 -0.0034,0.003 -0.002,0.0067 0.0045,0.0118 -0.0075,0.114339 -0.01861,0.158433 -0.01295,0.05134 -0.02731,0.09086 -0.04796,0.131998 -0.05574,0.111013 -0.159294,0.216301 -0.268037,0.272515 -0.02328,0.01202 -0.04236,0.02405 -0.04239,0.02662 -3.5e-5,0.003 0.0049,0.02212 0.01106,0.04338 0.0061,0.02124 0.02579,0.09202 0.04372,0.157299 0.01793,0.06528 0.03944,0.143349 0.0478,0.173474 0.0084,0.03017 0.03201,0.115386 0.05256,0.189459 0.02056,0.07407 0.04879,0.175761 0.06276,0.225978 0.01397,0.05023 0.02637,0.09746 0.02755,0.105001 0.0012,0.0075 0.0043,0.0163 0.0068,0.01947 0.0026,0.003 0.0038,0.0067 0.0028,0.0076 -0.001,7.37e-4 -0.0081,-0.0059 -0.01577,-0.01498 z"
         style="display:inline;fill:#000000;stroke:#000000;stroke-width:0.205;stroke-miterlimit:4;stroke-dasharray:none;stroke-opacity:1" />
      <path
         inkscape:export-ydpi="300"
         inkscape:export-xdpi="300"
         inkscape:export-filename="ams.png"
         id="path974-3"
         d="m 15.507832,61.816389 c -0.282799,0.0052 -0.537415,0.06075 -0.736157,0.161102 -0.07124,0.03597 -0.213786,0.150153 -0.330387,0.264052 -0.112577,0.109967 -0.216046,0.206501 -0.21667,0.214515 l -4.42e-4,-4.41e-4 c 0,0 -4.41e-4,8.6e-4 -4.41e-4,8.6e-4 -6.61e-4,5.73e-4 -0.399951,0.399543 -0.719788,0.719358 -0.01956,-0.0088 -0.14438,-0.01594 -0.30885,-0.01594 H 12.8716 l -0.568163,0.569887 c -0.312586,0.31354 -0.568164,0.58199 -0.568164,0.596594 -2e-6,0.01459 0.01632,0.04304 0.03661,0.06332 0.02869,0.0287 0.09001,0.03705 0.275682,0.03705 h 0.229161 c -0.07168,0.07539 -0.19987,0.205854 -0.19987,0.210639 0,0.0096 0.04519,0.06152 0.107258,0.129225 -0.149137,0.01675 -0.332364,0.100562 -0.527673,0.247253 -0.164686,0.123688 -0.1936,0.174556 -0.134826,0.239499 0.03234,0.03574 0.06035,0.04191 0.14301,0.03058 0.05649,-0.0077 0.102521,-0.0078 0.102521,0 0,0.0078 -0.04804,0.08831 -0.106828,0.179193 -0.122542,0.189431 -0.169946,0.292653 -0.211499,0.458322 -0.04235,0.168886 -0.03947,0.216398 0.01595,0.271805 0.04175,0.04171 0.06556,0.04685 0.158088,0.03317 0.176249,-0.02607 0.353173,-0.0978 0.550072,-0.22313 0.101376,-0.06452 0.190379,-0.117165 0.197715,-0.117165 0.0073,0 0.0069,0.04603 -8.83e-4,0.102519 -0.01134,0.08267 -0.0056,0.110668 0.03015,0.14301 0.06494,0.05877 0.116241,0.03029 0.23993,-0.134395 0.146328,-0.194823 0.22997,-0.378631 0.246821,-0.527242 0.06731,0.06177 0.118791,0.106396 0.128365,0.106396 0.006,0 0.124485,-0.113976 0.211499,-0.195993 v 0.09907 c 0,0.185976 0.0084,0.246992 0.03704,0.275683 0.02029,0.02027 0.04872,0.03704 0.06332,0.03704 0.0146,0 0.283053,-0.255577 0.596594,-0.568163 l 0.570318,-0.568595 v -0.323065 c 0,-0.07581 -0.002,-0.139417 -0.0043,-0.1947 l 0.707727,-0.707728 0.199007,-0.197716 c 0.31756,-0.315909 0.433093,-0.600363 0.441954,-1.085499 0.0061,-0.335995 0.0056,-0.336556 -0.330388,-0.330388 z"
         style="fill:#000000;stroke:#000000;stroke-width:0.0234628;stroke-opacity:1"
         inkscape:connector-curvature="0" />
    </g>
  </g>
</svg>
