<?xml version="1.0" encoding="UTF-8" standalone="no"?>
<!-- Created with Inkscape (http://www.inkscape.org/) -->

<svg
   width="10.530727mm"
   height="10.530727mm"
   viewBox="0 0 10.530727 10.530727"
   version="1.1"
   id="svg8"
   inkscape:version="1.1.2 (0a00cf5339, 2022-02-04)"
   sodipodi:docname="Artillery2.svg"
   xmlns:inkscape="http://www.inkscape.org/namespaces/inkscape"
   xmlns:sodipodi="http://sodipodi.sourceforge.net/DTD/sodipodi-0.dtd"
   xmlns="http://www.w3.org/2000/svg"
   xmlns:svg="http://www.w3.org/2000/svg"
   xmlns:rdf="http://www.w3.org/1999/02/22-rdf-syntax-ns#"
   xmlns:cc="http://creativecommons.org/ns#"
   xmlns:dc="http://purl.org/dc/elements/1.1/">
  <defs
     id="defs2" />
  <sodipodi:namedview
     id="base"
     pagecolor="#ffffff"
     bordercolor="#666666"
     borderopacity="1.0"
     inkscape:pageopacity="0.0"
     inkscape:pageshadow="2"
     inkscape:zoom="2.8"
     inkscape:cx="-23.571428"
     inkscape:cy="80.357142"
     inkscape:document-units="mm"
     inkscape:current-layer="layer1"
     showgrid="false"
     fit-margin-top="0"
     fit-margin-left="0"
     fit-margin-right="0"
     fit-margin-bottom="0"
     inkscape:window-width="1637"
     inkscape:window-height="773"
     inkscape:window-x="170"
     inkscape:window-y="1167"
     inkscape:window-maximized="0"
     inkscape:pagecheckerboard="0"
     inkscape:snap-bbox="true" />
  <metadata
     id="metadata5">
    <rdf:RDF>
      <cc:Work
         rdf:about="">
        <dc:format>image/svg+xml</dc:format>
        <dc:type
           rdf:resource="http://purl.org/dc/dcmitype/StillImage" />
      </cc:Work>
    </rdf:RDF>
  </metadata>
  <g
     inkscape:label="Capa 1"
     inkscape:groupmode="layer"
     id="layer1"
     transform="translate(-49.92077,-36.602315)">
    <path
       style="opacity:1;fill:#ffffff;fill-opacity:1;fill-rule:nonzero;stroke:#000000;stroke-width:0.442;stroke-linecap:round;stroke-linejoin:miter;stroke-miterlimit:4;stroke-dasharray:none;stroke-dashoffset:0;stroke-opacity:1"
       d="m 51.454373,36.773315 h 7.463521 c 0.754883,0 1.362604,0.607721 1.362604,1.362603 v 7.463522 c 0,0.754882 -0.607721,1.362603 -1.362604,1.362603 h -7.463521 c -0.754882,0 -1.362603,-0.607721 -1.362603,-1.362603 v -7.463522 c 0,-0.754882 0.607721,-1.362603 1.362603,-1.362603 z"
       id="rect815"
       inkscape:connector-curvature="0" />
    <circle
       style="fill:none;stroke:#000000;stroke-width:0.249814;stroke-linecap:round;stroke-miterlimit:4;stroke-dasharray:none;stop-color:#000000"
       id="path846"
       cx="55.186134"
       cy="41.86768"
       r="4.9772944" />
    <g
       id="g1258"
       transform="translate(27.589101,5.3097672)"
       style="stroke:#000000;stroke-opacity:1"
       inkscape:export-filename="2bullets.png"
       inkscape:export-xdpi="300"
       inkscape:export-ydpi="300">
      <path
         inkscape:connector-curvature="0"
         id="path1002-7-2"
         d="m 24.723817,34.352165 c -0.03365,-0.0033 -0.068,0.0065 -0.09374,0.0298 -0.03104,0.0282 -0.03305,0.08119 -0.03305,0.941749 0,0.823251 0.0028,0.9152 0.0298,0.945 0.04572,0.05052 0.139957,0.04303 0.185316,-0.01463 0.01258,-0.01603 0.02047,-0.04145 0.02602,-0.08616 l 0.06394,0.06557 0.06665,0.06827 h 1.774584 1.774584 l 0.480086,-0.0082 c 0.574907,-0.0098 0.683647,-0.02925 0.986724,-0.177186 0.265621,-0.129656 0.445186,-0.292535 0.544567,-0.493634 0.06339,-0.128221 0.06774,-0.148204 0.06774,-0.300731 0,-0.140107 -0.0067,-0.178369 -0.04877,-0.26822 -0.09637,-0.205695 -0.383724,-0.446597 -0.686532,-0.575453 -0.256102,-0.108982 -0.384912,-0.117882 -0.794367,-0.123544 -0.203543,-0.0028 -0.409089,-0.0038 -0.456244,-0.0022 l -0.09319,-5.42e-4 h -1.772959 -1.772958 l -0.06827,0.06665 -0.0661,0.06449 c -0.0056,-0.04308 -0.01304,-0.06765 -0.02547,-0.08345 -0.02196,-0.02791 -0.05467,-0.04442 -0.08832,-0.04769 z"
         style="fill:#000000;stroke:#000000;stroke-width:0.0180527;stroke-opacity:1" />
      <path
         inkscape:connector-curvature="0"
         id="path1002-7-0"
         d="m 24.723817,36.813849 c -0.03365,-0.0033 -0.068,0.0065 -0.09374,0.0298 -0.03104,0.0282 -0.03305,0.08119 -0.03305,0.941749 0,0.823251 0.0028,0.9152 0.0298,0.945 0.04572,0.05052 0.139957,0.04303 0.185316,-0.01463 0.01258,-0.01603 0.02047,-0.04145 0.02602,-0.08616 l 0.06394,0.06557 0.06665,0.06827 h 1.774584 1.774584 l 0.480086,-0.0082 c 0.574907,-0.0098 0.683647,-0.02925 0.986724,-0.177187 0.265621,-0.129655 0.445186,-0.292535 0.544567,-0.493633 0.06339,-0.128221 0.06774,-0.148204 0.06774,-0.300731 0,-0.140107 -0.0067,-0.178369 -0.04877,-0.26822 -0.09637,-0.205695 -0.383724,-0.446597 -0.686532,-0.575453 -0.256102,-0.108982 -0.384912,-0.117882 -0.794367,-0.123544 -0.203543,-0.0028 -0.409089,-0.0038 -0.456244,-0.0022 l -0.09319,-5.42e-4 h -1.772959 -1.772958 l -0.06827,0.06665 -0.0661,0.06449 c -0.0056,-0.04308 -0.01304,-0.06765 -0.02547,-0.08345 -0.02196,-0.02791 -0.05467,-0.04442 -0.08832,-0.04769 z"
         style="fill:#000000;stroke:#000000;stroke-width:0.0180527;stroke-opacity:1" />
    </g>
  </g>
</svg>
