<?xml version="1.0" encoding="UTF-8" standalone="no"?>
<!-- Created with Inkscape (http://www.inkscape.org/) -->

<svg
   width="10.530727mm"
   height="10.530727mm"
   viewBox="0 0 10.530727 10.530727"
   version="1.1"
   id="svg8"
   inkscape:version="1.1.2 (0a00cf5339, 2022-02-04)"
   sodipodi:docname="Cover2.svg"
   xmlns:inkscape="http://www.inkscape.org/namespaces/inkscape"
   xmlns:sodipodi="http://sodipodi.sourceforge.net/DTD/sodipodi-0.dtd"
   xmlns="http://www.w3.org/2000/svg"
   xmlns:svg="http://www.w3.org/2000/svg"
   xmlns:rdf="http://www.w3.org/1999/02/22-rdf-syntax-ns#"
   xmlns:cc="http://creativecommons.org/ns#"
   xmlns:dc="http://purl.org/dc/elements/1.1/">
  <defs
     id="defs2" />
  <sodipodi:namedview
     id="base"
     pagecolor="#ffffff"
     bordercolor="#666666"
     borderopacity="1.0"
     inkscape:pageopacity="0.0"
     inkscape:pageshadow="2"
     inkscape:zoom="7.919596"
     inkscape:cx="14.20527"
     inkscape:cy="37.691317"
     inkscape:document-units="mm"
     inkscape:current-layer="layer1"
     showgrid="false"
     fit-margin-top="0"
     fit-margin-left="0"
     fit-margin-right="0"
     fit-margin-bottom="0"
     inkscape:window-width="1850"
     inkscape:window-height="1016"
     inkscape:window-x="70"
     inkscape:window-y="1107"
     inkscape:window-maximized="1"
     inkscape:pagecheckerboard="0"
     inkscape:snap-bbox="true" />
  <metadata
     id="metadata5">
    <rdf:RDF>
      <cc:Work
         rdf:about="">
        <dc:format>image/svg+xml</dc:format>
        <dc:type
           rdf:resource="http://purl.org/dc/dcmitype/StillImage" />
      </cc:Work>
    </rdf:RDF>
  </metadata>
  <g
     inkscape:label="Capa 1"
     inkscape:groupmode="layer"
     id="layer1"
     transform="translate(-49.92077,-36.602315)">
    <path
       style="opacity:1;fill:#ffffff;fill-opacity:1;fill-rule:nonzero;stroke:#000000;stroke-width:0.442;stroke-linecap:round;stroke-linejoin:miter;stroke-miterlimit:4;stroke-dasharray:none;stroke-dashoffset:0;stroke-opacity:1"
       d="m 51.454373,36.773315 h 7.463521 c 0.754883,0 1.362604,0.607721 1.362604,1.362603 v 7.463522 c 0,0.754882 -0.607721,1.362603 -1.362604,1.362603 h -7.463521 c -0.754882,0 -1.362603,-0.607721 -1.362603,-1.362603 v -7.463522 c 0,-0.754882 0.607721,-1.362603 1.362603,-1.362603 z"
       id="rect815"
       inkscape:connector-curvature="0" />
    <circle
       style="fill:none;stroke:#000000;stroke-width:0.249814;stroke-linecap:round;stroke-miterlimit:4;stroke-dasharray:none;stop-color:#000000"
       id="path846"
       cx="55.186134"
       cy="41.86768"
       r="4.9772944" />
    <g
       style="display:inline"
       id="g868"
       inkscape:export-filename="2trees.png"
       inkscape:export-xdpi="300"
       inkscape:export-ydpi="300"
       transform="translate(24.311833,-65.573022)">
      <path
         sodipodi:nodetypes="cscccccccccscccccccccccccccsscc"
         inkscape:connector-curvature="0"
         id="path1419-1"
         d="m 31.138038,109.76009 c 0.122425,-0.50919 0.125116,-1.28502 0.0044,-1.28502 -0.02914,0 -0.119607,-0.039 -0.201049,-0.0868 -0.139344,-0.0816 -0.158091,-0.0844 -0.31801,-0.046 -0.438461,0.10518 -0.930324,-0.24259 -0.933285,-0.6599 -5.08e-4,-0.0632 -0.02892,-0.12905 -0.07267,-0.16797 -0.115608,-0.10285 -0.195283,-0.31488 -0.19609,-0.52183 -8.5e-4,-0.23064 0.06298,-0.39283 0.212538,-0.53964 0.08805,-0.0864 0.11713,-0.14682 0.130701,-0.27137 0.03528,-0.32371 0.316379,-0.59488 0.644933,-0.62212 0.174729,-0.0145 0.17943,-0.0177 0.218272,-0.1473 0.05682,-0.18964 0.262961,-0.38243 0.47683,-0.44595 0.217109,-0.0645 0.244396,-0.0645 0.456219,-0.002 0.109684,0.0326 0.21697,0.0972 0.301409,0.18168 l 0.131106,0.1311 0.178281,-0.0463 c 0.319405,-0.0828 0.623171,0.0291 0.814124,0.29998 0.07108,0.10084 0.142112,0.15862 0.226166,0.18395 0.346242,0.10436 0.588254,0.50998 0.510352,0.8554 -0.02049,0.0908 -0.01246,0.14014 0.03451,0.21173 0.104453,0.15923 0.144301,0.39295 0.09911,0.58132 -0.04283,0.17853 -0.216444,0.41038 -0.365232,0.48775 -0.05975,0.031 -0.108576,0.10195 -0.148526,0.21562 -0.140676,0.4003 -0.551918,0.59589 -0.96466,0.45879 l -0.176276,-0.0585 -0.134225,0.13422 c -0.207185,0.20718 -0.246749,0.55206 -0.125996,1.0983 0.03655,0.16536 0.06647,0.3052 0.06647,0.31076 0,0.006 -0.20971,0.0101 -0.466025,0.0101 h -0.466024 z"
         style="display:inline;fill:#000000;stroke-width:0.0335953" />
      <path
         sodipodi:nodetypes="cscccccccccscccccccccccccccsscc"
         inkscape:connector-curvature="0"
         id="path1419-2"
         d="m 29.591014,109.70383 c 0.122426,-0.50919 0.125117,-1.28502 0.0044,-1.28502 -0.02914,0 -0.119607,-0.039 -0.201049,-0.0868 -0.139344,-0.0816 -0.15809,-0.0844 -0.318009,-0.046 -0.438462,0.10518 -0.930325,-0.24259 -0.933286,-0.6599 -5.08e-4,-0.0632 -0.02892,-0.12905 -0.07267,-0.16796 -0.115607,-0.10286 -0.195282,-0.31489 -0.196089,-0.52184 -8.51e-4,-0.23064 0.06298,-0.39283 0.212538,-0.53964 0.08805,-0.0864 0.11713,-0.14681 0.130701,-0.27136 0.03528,-0.32371 0.316378,-0.59488 0.644932,-0.62212 0.174729,-0.0145 0.179431,-0.0177 0.218273,-0.1473 0.05682,-0.18964 0.262961,-0.38243 0.476829,-0.44595 0.217109,-0.0645 0.244396,-0.0645 0.456219,-0.002 0.109684,0.0326 0.21697,0.0972 0.30141,0.18168 l 0.131106,0.1311 0.17828,-0.0463 c 0.319405,-0.0828 0.623172,0.0291 0.814125,0.29998 0.07108,0.10084 0.142111,0.15862 0.226165,0.18395 0.346243,0.10436 0.588254,0.50998 0.510352,0.85539 -0.02049,0.0908 -0.01246,0.14015 0.03451,0.21173 0.104453,0.15923 0.144301,0.39295 0.09911,0.58132 -0.04283,0.17853 -0.216444,0.41038 -0.365232,0.48775 -0.05975,0.031 -0.108576,0.10195 -0.148526,0.21562 -0.140676,0.4003 -0.551918,0.59589 -0.964659,0.45879 l -0.176277,-0.0585 -0.134225,0.13422 c -0.207184,0.20719 -0.246749,0.55206 -0.125995,1.0983 0.03655,0.16536 0.06646,0.3052 0.06646,0.31076 0,0.006 -0.20971,0.0101 -0.466025,0.0101 h -0.466024 z"
         style="display:inline;fill:#000000;stroke-width:0.0335953" />
    </g>
  </g>
</svg>
