<?xml version="1.0" encoding="UTF-8" standalone="no"?>
<!-- Created with Inkscape (http://www.inkscape.org/) -->

<svg
   width="10.530727mm"
   height="10.530727mm"
   viewBox="0 0 10.530727 10.530727"
   version="1.1"
   id="svg8"
   inkscape:version="1.1.2 (0a00cf5339, 2022-02-04)"
   sodipodi:docname="Cover3.svg"
   xmlns:inkscape="http://www.inkscape.org/namespaces/inkscape"
   xmlns:sodipodi="http://sodipodi.sourceforge.net/DTD/sodipodi-0.dtd"
   xmlns="http://www.w3.org/2000/svg"
   xmlns:svg="http://www.w3.org/2000/svg"
   xmlns:rdf="http://www.w3.org/1999/02/22-rdf-syntax-ns#"
   xmlns:cc="http://creativecommons.org/ns#"
   xmlns:dc="http://purl.org/dc/elements/1.1/">
  <defs
     id="defs2" />
  <sodipodi:namedview
     id="base"
     pagecolor="#ffffff"
     bordercolor="#666666"
     borderopacity="1.0"
     inkscape:pageopacity="0.0"
     inkscape:pageshadow="2"
     inkscape:zoom="7.919596"
     inkscape:cx="14.20527"
     inkscape:cy="37.691317"
     inkscape:document-units="mm"
     inkscape:current-layer="layer1"
     showgrid="false"
     fit-margin-top="0"
     fit-margin-left="0"
     fit-margin-right="0"
     fit-margin-bottom="0"
     inkscape:window-width="1850"
     inkscape:window-height="1016"
     inkscape:window-x="70"
     inkscape:window-y="1107"
     inkscape:window-maximized="1"
     inkscape:pagecheckerboard="0"
     inkscape:snap-bbox="true" />
  <metadata
     id="metadata5">
    <rdf:RDF>
      <cc:Work
         rdf:about="">
        <dc:format>image/svg+xml</dc:format>
        <dc:type
           rdf:resource="http://purl.org/dc/dcmitype/StillImage" />
      </cc:Work>
    </rdf:RDF>
  </metadata>
  <g
     inkscape:label="Capa 1"
     inkscape:groupmode="layer"
     id="layer1"
     transform="translate(-49.92077,-36.602315)">
    <path
       style="opacity:1;fill:#ffffff;fill-opacity:1;fill-rule:nonzero;stroke:#000000;stroke-width:0.442;stroke-linecap:round;stroke-linejoin:miter;stroke-miterlimit:4;stroke-dasharray:none;stroke-dashoffset:0;stroke-opacity:1"
       d="m 51.454373,36.773315 h 7.463521 c 0.754883,0 1.362604,0.607721 1.362604,1.362603 v 7.463522 c 0,0.754882 -0.607721,1.362603 -1.362604,1.362603 h -7.463521 c -0.754882,0 -1.362603,-0.607721 -1.362603,-1.362603 v -7.463522 c 0,-0.754882 0.607721,-1.362603 1.362603,-1.362603 z"
       id="rect815"
       inkscape:connector-curvature="0" />
    <circle
       style="fill:none;stroke:#000000;stroke-width:0.249814;stroke-linecap:round;stroke-miterlimit:4;stroke-dasharray:none;stop-color:#000000"
       id="path846"
       cx="55.186134"
       cy="41.86768"
       r="4.9772944" />
    <g
       style="display:inline"
       id="g874"
       inkscape:export-filename="3trees.png"
       inkscape:export-xdpi="300"
       inkscape:export-ydpi="300"
       transform="translate(8.0903009,-65.359921)">
      <g
         transform="translate(0.09921923,-0.35609055)"
         id="g1531">
        <path
           style="display:inline;fill:#000000;stroke-width:0.0269073"
           d="m 46.715282,109.79765 c 0.09805,-0.40782 0.100208,-1.02921 0.0035,-1.02921 -0.02334,0 -0.0958,-0.0312 -0.161025,-0.0695 -0.111604,-0.0653 -0.12662,-0.0676 -0.254702,-0.0368 -0.351175,0.0842 -0.74512,-0.19429 -0.747492,-0.52853 -4.06e-4,-0.0506 -0.02316,-0.10336 -0.0582,-0.13453 -0.09259,-0.0824 -0.156407,-0.2522 -0.157053,-0.41795 -6.81e-4,-0.18472 0.05044,-0.31462 0.170227,-0.43221 0.07052,-0.0692 0.09381,-0.11759 0.104682,-0.21734 0.02826,-0.25927 0.253395,-0.47646 0.516543,-0.49828 0.139944,-0.0116 0.14371,-0.0142 0.174819,-0.11797 0.04551,-0.15189 0.210612,-0.3063 0.381904,-0.35718 0.173889,-0.0516 0.195744,-0.0516 0.365398,-0.002 0.08785,0.0261 0.173777,0.0778 0.241406,0.14551 l 0.105007,0.10501 0.142789,-0.0371 c 0.25582,-0.0663 0.499114,0.0233 0.652053,0.24026 0.05693,0.0808 0.11382,0.12705 0.181142,0.14734 0.277314,0.0836 0.471147,0.40845 0.408753,0.68511 -0.01641,0.0727 -0.01,0.11224 0.02764,0.16958 0.08366,0.12753 0.115574,0.31472 0.07938,0.46559 -0.0343,0.14299 -0.173355,0.32868 -0.292524,0.39065 -0.04786,0.0248 -0.08696,0.0817 -0.118958,0.1727 -0.112671,0.32061 -0.442045,0.47726 -0.772621,0.36745 l -0.141184,-0.0468 -0.107504,0.1075 c -0.165939,0.16593 -0.197627,0.44216 -0.100912,0.87966 0.02927,0.13244 0.05324,0.24444 0.05324,0.24889 0,0.005 -0.167963,0.008 -0.373252,0.008 h -0.373249 z"
           id="path1419-1-1"
           inkscape:connector-curvature="0"
           sodipodi:nodetypes="cscccccccccscccccccccccccccsscc" />
        <path
           style="display:inline;fill:#000000;stroke-width:0.0269073"
           d="m 45.371592,109.0404 c 0.09805,-0.40782 0.100209,-1.02921 0.0035,-1.02921 -0.02334,0 -0.0958,-0.0312 -0.161025,-0.0695 -0.111604,-0.0653 -0.126619,-0.0676 -0.254702,-0.0368 -0.351175,0.0842 -0.74512,-0.19429 -0.747492,-0.52853 -4.07e-4,-0.0506 -0.02316,-0.10336 -0.0582,-0.13452 -0.09259,-0.0824 -0.156406,-0.25221 -0.157053,-0.41796 -6.81e-4,-0.18472 0.05044,-0.31462 0.170227,-0.43221 0.07052,-0.0692 0.09381,-0.11758 0.104682,-0.21734 0.02826,-0.25926 0.253395,-0.47645 0.516542,-0.49827 0.139945,-0.0116 0.143711,-0.0142 0.174821,-0.11797 0.04551,-0.15189 0.210612,-0.3063 0.381904,-0.35718 0.173888,-0.0517 0.195743,-0.0517 0.365397,-0.002 0.08785,0.0261 0.173777,0.0778 0.241407,0.14551 l 0.105006,0.105 0.142789,-0.0371 c 0.255819,-0.0663 0.499114,0.0233 0.652053,0.24026 0.05693,0.0808 0.11382,0.12705 0.181141,0.14733 0.277315,0.0836 0.471148,0.40846 0.408753,0.68511 -0.01641,0.0727 -0.01,0.11225 0.02764,0.16958 0.08366,0.12753 0.115574,0.31472 0.07938,0.46559 -0.0343,0.14299 -0.173356,0.32868 -0.292524,0.39065 -0.04786,0.0248 -0.08696,0.0817 -0.118958,0.1727 -0.112671,0.32061 -0.442045,0.47726 -0.772619,0.36745 -0.169081,-0.077 -0.116495,-0.002 -0.248689,0.0606 -0.165939,0.16594 -0.197628,0.44216 -0.100913,0.87966 0.02927,0.13244 0.05323,0.24444 0.05323,0.24889 0,0.005 -0.167962,0.008 -0.373251,0.008 h -0.373251 z"
           id="path1419-2-9"
           inkscape:connector-curvature="0"
           sodipodi:nodetypes="cscccccccccsccccccccccccccsscc" />
        <path
           style="display:inline;fill:#000000;stroke-width:0.0269073"
           d="m 47.805095,109.08033 c 0.09805,-0.40782 0.100207,-1.0292 0.0035,-1.0292 -0.02334,0 -0.0958,-0.0312 -0.161026,-0.0695 -0.111604,-0.0654 -0.126619,-0.0676 -0.254702,-0.0368 -0.351174,0.0842 -0.74512,-0.1943 -0.747491,-0.52853 -4.07e-4,-0.0506 -0.02316,-0.10336 -0.0582,-0.13454 -0.09259,-0.0824 -0.156407,-0.25219 -0.157054,-0.41794 -6.8e-4,-0.18473 0.05044,-0.31463 0.170227,-0.43221 0.07052,-0.0692 0.09381,-0.1176 0.104682,-0.21735 0.02826,-0.25927 0.253396,-0.47646 0.516543,-0.49827 0.139944,-0.0116 0.14371,-0.0142 0.17482,-0.11798 0.04551,-0.15189 0.210612,-0.3063 0.381904,-0.35717 0.173889,-0.0517 0.195744,-0.0517 0.365398,-0.002 0.08785,0.0261 0.173777,0.0778 0.241405,0.14551 l 0.105007,0.105 0.14279,-0.0371 c 0.255819,-0.0663 0.499113,0.0233 0.652052,0.24026 0.05693,0.0808 0.11382,0.12704 0.181142,0.14733 0.277314,0.0836 0.471148,0.40845 0.408754,0.68511 -0.01641,0.0727 -0.01,0.11224 0.02764,0.16958 0.08366,0.12753 0.115573,0.31472 0.07938,0.46559 -0.0343,0.14299 -0.173355,0.32869 -0.292524,0.39066 -0.04785,0.0248 -0.08696,0.0817 -0.118958,0.17269 -0.112671,0.32061 -0.442044,0.47726 -0.77262,0.36746 l -0.141184,-0.0469 -0.107504,0.1075 c -0.165939,0.16594 -0.197628,0.44216 -0.100913,0.87966 0.02927,0.13244 0.05324,0.24444 0.05324,0.24889 0,0.005 -0.167962,0.008 -0.373251,0.008 h -0.37325 z m 0.632646,-1.08522 c 0.04984,-0.0307 0.09062,-0.0596 0.09062,-0.064 0,-0.004 -0.03164,-0.0771 -0.07031,-0.16159 -0.0417,-0.0911 -0.08017,-0.14372 -0.09454,-0.12935 -0.03636,0.0364 -0.08905,0.31466 -0.06931,0.3661 0.02204,0.0574 0.03407,0.0565 0.143541,-0.0111 z m -0.286251,-0.17216 c 0.03903,-0.11828 0.02736,-0.1357 -0.09653,-0.14404 -0.05526,-0.003 -0.110602,-0.013 -0.122973,-0.0207 -0.03934,-0.0243 -0.02448,0.0216 0.04591,0.14163 0.08271,0.14113 0.132442,0.14774 0.173588,0.0231 z m -0.309434,-0.007 c -0.01066,-0.0259 -0.02548,-0.0682 -0.03293,-0.0942 -0.0074,-0.0259 -0.02132,-0.0471 -0.03084,-0.0471 -0.01985,0 -0.09218,0.10935 -0.07919,0.11973 0.02816,0.0225 0.119789,0.0671 0.139279,0.0678 0.01269,4e-4 0.01434,-0.0204 0.0037,-0.0462 z"
           id="path1419-1-1-4"
           inkscape:connector-curvature="0"
           sodipodi:nodetypes="cscccccccccscccccccccccccccsscccsccccsccssccscccc" />
      </g>
    </g>
  </g>
</svg>
