<?xml version="1.0" encoding="UTF-8" standalone="no"?>
<!-- Created with Inkscape (http://www.inkscape.org/) -->

<svg
   width="10.530727mm"
   height="10.530727mm"
   viewBox="0 0 10.530727 10.530727"
   version="1.1"
   id="svg8"
   inkscape:version="1.1.2 (0a00cf5339, 2022-02-04)"
   sodipodi:docname="Cover1.svg"
   xmlns:inkscape="http://www.inkscape.org/namespaces/inkscape"
   xmlns:sodipodi="http://sodipodi.sourceforge.net/DTD/sodipodi-0.dtd"
   xmlns="http://www.w3.org/2000/svg"
   xmlns:svg="http://www.w3.org/2000/svg"
   xmlns:rdf="http://www.w3.org/1999/02/22-rdf-syntax-ns#"
   xmlns:cc="http://creativecommons.org/ns#"
   xmlns:dc="http://purl.org/dc/elements/1.1/">
  <defs
     id="defs2" />
  <sodipodi:namedview
     id="base"
     pagecolor="#ffffff"
     bordercolor="#666666"
     borderopacity="1.0"
     inkscape:pageopacity="0.0"
     inkscape:pageshadow="2"
     inkscape:zoom="7.919596"
     inkscape:cx="14.20527"
     inkscape:cy="37.691317"
     inkscape:document-units="mm"
     inkscape:current-layer="layer1"
     showgrid="false"
     fit-margin-top="0"
     fit-margin-left="0"
     fit-margin-right="0"
     fit-margin-bottom="0"
     inkscape:window-width="1850"
     inkscape:window-height="1016"
     inkscape:window-x="70"
     inkscape:window-y="1107"
     inkscape:window-maximized="1"
     inkscape:pagecheckerboard="0"
     inkscape:snap-bbox="true" />
  <metadata
     id="metadata5">
    <rdf:RDF>
      <cc:Work
         rdf:about="">
        <dc:format>image/svg+xml</dc:format>
        <dc:type
           rdf:resource="http://purl.org/dc/dcmitype/StillImage" />
      </cc:Work>
    </rdf:RDF>
  </metadata>
  <g
     inkscape:label="Capa 1"
     inkscape:groupmode="layer"
     id="layer1"
     transform="translate(-49.92077,-36.602315)">
    <path
       style="opacity:1;fill:#ffffff;fill-opacity:1;fill-rule:nonzero;stroke:#000000;stroke-width:0.442;stroke-linecap:round;stroke-linejoin:miter;stroke-miterlimit:4;stroke-dasharray:none;stroke-dashoffset:0;stroke-opacity:1"
       d="m 51.454373,36.773315 h 7.463521 c 0.754883,0 1.362604,0.607721 1.362604,1.362603 v 7.463522 c 0,0.754882 -0.607721,1.362603 -1.362604,1.362603 h -7.463521 c -0.754882,0 -1.362603,-0.607721 -1.362603,-1.362603 v -7.463522 c 0,-0.754882 0.607721,-1.362603 1.362603,-1.362603 z"
       id="rect815"
       inkscape:connector-curvature="0" />
    <circle
       style="fill:none;stroke:#000000;stroke-width:0.249814;stroke-linecap:round;stroke-miterlimit:4;stroke-dasharray:none;stop-color:#000000"
       id="path846"
       cx="55.186134"
       cy="41.86768"
       r="4.9772944" />
    <path
       style="display:inline;fill:#000000;stroke:#000000;stroke-width:0.04;stroke-miterlimit:4;stroke-dasharray:none;stroke-opacity:1"
       d="m 54.586613,44.561165 c 0.14395,-0.59871 0.147114,-1.51094 0.0052,-1.51094 -0.03426,0 -0.140636,-0.0459 -0.236396,-0.10203 -0.163843,-0.096 -0.185885,-0.0992 -0.37392,-0.0541 -0.515549,0.12367 -1.093888,-0.28525 -1.097369,-0.77592 -5.98e-4,-0.0743 -0.03401,-0.15174 -0.08545,-0.1975 -0.135933,-0.12094 -0.229616,-0.37025 -0.230565,-0.61358 -10e-4,-0.27119 0.07405,-0.46189 0.249905,-0.63452 0.103528,-0.10163 0.137723,-0.17262 0.15368,-0.31907 0.04148,-0.38062 0.372002,-0.69946 0.75832,-0.73149 0.205449,-0.017 0.210977,-0.0208 0.256648,-0.1732 0.06681,-0.22298 0.309193,-0.44967 0.560662,-0.52435 0.25528,-0.0758 0.287364,-0.0759 0.536429,-0.002 0.128968,0.0383 0.255116,0.11433 0.354401,0.21362 l 0.154156,0.15415 0.209625,-0.0544 c 0.37556,-0.0974 0.732733,0.0342 0.957258,0.35272 0.08358,0.11858 0.167097,0.18651 0.265928,0.2163 0.407117,0.1227 0.691677,0.59964 0.600079,1.00578 -0.02409,0.10681 -0.01465,0.16478 0.04058,0.24895 0.122817,0.18723 0.169671,0.46204 0.116537,0.68353 -0.05036,0.20991 -0.254498,0.48253 -0.429445,0.5735 -0.07026,0.0365 -0.127665,0.11987 -0.174639,0.25353 -0.165408,0.47067 -0.648952,0.70065 -1.134259,0.53945 l -0.207268,-0.0688 -0.157824,0.15782 c -0.24361,0.24361 -0.29013,0.64912 -0.148147,1.29139 0.04298,0.19444 0.07815,0.35886 0.07815,0.3654 0,0.007 -0.24658,0.0119 -0.547958,0.0119 h -0.547958 z"
       id="path1419"
       inkscape:connector-curvature="0"
       sodipodi:nodetypes="cscccccccccscccccccccccccccsscc"
       inkscape:export-filename="1tree.png"
       inkscape:export-xdpi="300"
       inkscape:export-ydpi="300" />
  </g>
</svg>
