<?xml version="1.0" encoding="UTF-8" standalone="no"?>
<!-- Created with Inkscape (http://www.inkscape.org/) -->

<svg
   width="10.530727mm"
   height="10.530727mm"
   viewBox="0 0 10.530727 10.530727"
   version="1.1"
   id="svg8"
   inkscape:version="1.1.2 (0a00cf5339, 2022-02-04)"
   sodipodi:docname="Heat1.svg"
   xmlns:inkscape="http://www.inkscape.org/namespaces/inkscape"
   xmlns:sodipodi="http://sodipodi.sourceforge.net/DTD/sodipodi-0.dtd"
   xmlns="http://www.w3.org/2000/svg"
   xmlns:svg="http://www.w3.org/2000/svg"
   xmlns:rdf="http://www.w3.org/1999/02/22-rdf-syntax-ns#"
   xmlns:cc="http://creativecommons.org/ns#"
   xmlns:dc="http://purl.org/dc/elements/1.1/">
  <defs
     id="defs2" />
  <sodipodi:namedview
     id="base"
     pagecolor="#ffffff"
     bordercolor="#666666"
     borderopacity="1.0"
     inkscape:pageopacity="0.0"
     inkscape:pageshadow="2"
     inkscape:zoom="7.919596"
     inkscape:cx="14.20527"
     inkscape:cy="37.691317"
     inkscape:document-units="mm"
     inkscape:current-layer="layer1"
     showgrid="false"
     fit-margin-top="0"
     fit-margin-left="0"
     fit-margin-right="0"
     fit-margin-bottom="0"
     inkscape:window-width="1850"
     inkscape:window-height="1016"
     inkscape:window-x="70"
     inkscape:window-y="1107"
     inkscape:window-maximized="1"
     inkscape:pagecheckerboard="0"
     inkscape:snap-bbox="true" />
  <metadata
     id="metadata5">
    <rdf:RDF>
      <cc:Work
         rdf:about="">
        <dc:format>image/svg+xml</dc:format>
        <dc:type
           rdf:resource="http://purl.org/dc/dcmitype/StillImage" />
      </cc:Work>
    </rdf:RDF>
  </metadata>
  <g
     inkscape:label="Capa 1"
     inkscape:groupmode="layer"
     id="layer1"
     transform="translate(-49.92077,-36.602315)">
    <path
       style="opacity:1;fill:#ffffff;fill-opacity:1;fill-rule:nonzero;stroke:#000000;stroke-width:0.442;stroke-linecap:round;stroke-linejoin:miter;stroke-miterlimit:4;stroke-dasharray:none;stroke-dashoffset:0;stroke-opacity:1"
       d="m 51.454373,36.773315 h 7.463521 c 0.754883,0 1.362604,0.607721 1.362604,1.362603 v 7.463522 c 0,0.754882 -0.607721,1.362603 -1.362604,1.362603 h -7.463521 c -0.754882,0 -1.362603,-0.607721 -1.362603,-1.362603 v -7.463522 c 0,-0.754882 0.607721,-1.362603 1.362603,-1.362603 z"
       id="rect815"
       inkscape:connector-curvature="0" />
    <circle
       style="fill:none;stroke:#000000;stroke-width:0.249814;stroke-linecap:round;stroke-miterlimit:4;stroke-dasharray:none;stop-color:#000000"
       id="path846"
       cx="55.186134"
       cy="41.86768"
       r="4.9772944" />
    <path
       style="fill:#000000;stroke:#000000;stroke-width:0.3;stroke-miterlimit:4;stroke-dasharray:none;stroke-opacity:1"
       d="m 54.139507,44.722759 c -0.740367,-0.424543 -1.163134,-1.30599 -1.029028,-2.145474 0.07227,-0.452355 0.205401,-0.757277 0.512812,-1.17452 0.855265,-1.160822 1.011211,-1.478112 1.057367,-2.151323 0.01449,-0.211059 0.0365,-0.383745 0.04897,-0.383745 0.01244,0 0.167663,0.107508 0.34491,0.238908 0.70314,0.521262 1.097979,1.229319 1.190179,2.134331 l 0.03543,0.347889 0.127998,-0.135615 c 0.07041,-0.07459 0.155334,-0.229371 0.188751,-0.343977 l 0.06075,-0.208368 0.190954,0.390853 c 0.227845,0.466373 0.370017,0.954419 0.409957,1.407328 0.07219,0.818608 -0.342683,1.616107 -1.05246,2.0231 -0.284597,0.163192 -0.392554,0.190945 -0.222546,0.05722 0.173554,-0.136526 0.368751,-0.535108 0.39724,-0.811176 0.03837,-0.371758 -0.07549,-0.691701 -0.409015,-1.149351 -0.334525,-0.459009 -0.48778,-0.770348 -0.532898,-1.08258 l -0.03244,-0.224683 -0.183044,0.17817 c -0.348586,0.339298 -0.595971,1.08145 -0.534235,1.602701 0.01476,0.124704 0.009,0.226745 -0.01257,0.226745 -0.089,0 -0.325505,-0.335021 -0.352294,-0.49904 -0.01577,-0.09648 -0.03453,-0.206823 -0.04172,-0.2452 -0.01689,-0.09024 -0.246437,0.409251 -0.305333,0.664458 -0.109987,0.476592 -0.01838,0.910874 0.260977,1.237236 0.09015,0.105324 0.157038,0.191287 0.148647,0.191048 -0.0083,-1.76e-4 -0.128651,-0.06545 -0.267249,-0.144938 z"
       id="path826"
       inkscape:connector-curvature="0"
       sodipodi:nodetypes="ccccsccccscccccscscccsccccccc"
       inkscape:export-filename="1flame.png"
       inkscape:export-xdpi="300"
       inkscape:export-ydpi="300" />
  </g>
</svg>
