<?xml version="1.0" encoding="UTF-8" standalone="no"?>
<!-- Created with Inkscape (http://www.inkscape.org/) -->

<svg
   width="10.530727mm"
   height="10.530727mm"
   viewBox="0 0 10.530727 10.530727"
   version="1.1"
   id="svg8"
   inkscape:version="1.1.2 (0a00cf5339, 2022-02-04)"
   sodipodi:docname="Laser1.svg"
   xmlns:inkscape="http://www.inkscape.org/namespaces/inkscape"
   xmlns:sodipodi="http://sodipodi.sourceforge.net/DTD/sodipodi-0.dtd"
   xmlns="http://www.w3.org/2000/svg"
   xmlns:svg="http://www.w3.org/2000/svg"
   xmlns:rdf="http://www.w3.org/1999/02/22-rdf-syntax-ns#"
   xmlns:cc="http://creativecommons.org/ns#"
   xmlns:dc="http://purl.org/dc/elements/1.1/">
  <defs
     id="defs2" />
  <sodipodi:namedview
     id="base"
     pagecolor="#ffffff"
     bordercolor="#666666"
     borderopacity="1.0"
     inkscape:pageopacity="0.0"
     inkscape:pageshadow="2"
     inkscape:zoom="7.919596"
     inkscape:cx="14.20527"
     inkscape:cy="37.691317"
     inkscape:document-units="mm"
     inkscape:current-layer="layer1"
     showgrid="false"
     fit-margin-top="0"
     fit-margin-left="0"
     fit-margin-right="0"
     fit-margin-bottom="0"
     inkscape:window-width="1850"
     inkscape:window-height="1016"
     inkscape:window-x="70"
     inkscape:window-y="1107"
     inkscape:window-maximized="1"
     inkscape:pagecheckerboard="0"
     inkscape:snap-bbox="true" />
  <metadata
     id="metadata5">
    <rdf:RDF>
      <cc:Work
         rdf:about="">
        <dc:format>image/svg+xml</dc:format>
        <dc:type
           rdf:resource="http://purl.org/dc/dcmitype/StillImage" />
      </cc:Work>
    </rdf:RDF>
  </metadata>
  <g
     inkscape:label="Capa 1"
     inkscape:groupmode="layer"
     id="layer1"
     transform="translate(-49.92077,-36.602315)">
    <path
       style="opacity:1;fill:#ffffff;fill-opacity:1;fill-rule:nonzero;stroke:#000000;stroke-width:0.442;stroke-linecap:round;stroke-linejoin:miter;stroke-miterlimit:4;stroke-dasharray:none;stroke-dashoffset:0;stroke-opacity:1"
       d="m 51.454373,36.773315 h 7.463521 c 0.754883,0 1.362604,0.607721 1.362604,1.362603 v 7.463522 c 0,0.754882 -0.607721,1.362603 -1.362604,1.362603 h -7.463521 c -0.754882,0 -1.362603,-0.607721 -1.362603,-1.362603 v -7.463522 c 0,-0.754882 0.607721,-1.362603 1.362603,-1.362603 z"
       id="rect815"
       inkscape:connector-curvature="0" />
    <circle
       style="fill:none;stroke:#000000;stroke-width:0.249814;stroke-linecap:round;stroke-miterlimit:4;stroke-dasharray:none;stop-color:#000000"
       id="path846"
       cx="55.186134"
       cy="41.86768"
       r="4.9772944" />
    <g
       id="g939"
       transform="matrix(0.84914231,0,0,0.84914231,-120.4165,-0.27408023)"
       inkscape:export-filename="3laser.png"
       inkscape:export-xdpi="300"
       inkscape:export-ydpi="300">
      <path
         sodipodi:nodetypes="cccccccsccccssscccsccccccsscc"
         inkscape:connector-curvature="0"
         id="path994-6"
         d="m 209.70935,51.516352 c -0.16461,-0.880833 -0.14661,-0.87169 -0.3819,-0.194047 -0.23214,0.66855 -0.26702,0.59884 -0.13606,-0.271944 0.0466,-0.309657 0.0615,-0.5487 0.0332,-0.531201 -0.0283,0.01751 -0.16021,0.238744 -0.29312,0.491661 -0.1329,0.252916 -0.25035,0.433701 -0.26101,0.401747 -0.0107,-0.03195 0.0943,-0.356406 0.23329,-0.721 0.13896,-0.364595 0.24002,-0.662902 0.22457,-0.662902 -0.0154,0 -0.20483,0.08923 -0.42087,0.198281 -0.21604,0.109053 -0.40326,0.187819 -0.41604,0.175033 -0.0128,-0.01278 0.14283,-0.152949 0.34583,-0.311473 l 0.36907,-0.19841 -2.60315,-0.0094 C 203.8537,49.873497 203.8,49.863147 203.8,49.639861 c 0,-0.29091 0.013,-0.27073 2.59029,-0.248388 l 2.5903,0.02246 -0.37494,-0.263507 c -0.39735,-0.382379 -0.38004,-0.387623 0.15558,-0.04713 0.18506,0.117642 0.35156,0.213894 0.37,0.213894 0.0184,0 -0.0827,-0.324384 -0.22471,-0.720855 -0.14202,-0.396473 -0.24607,-0.733014 -0.23121,-0.74787 0.0149,-0.01486 0.14952,0.194914 0.29924,0.466155 0.14974,0.271244 0.28051,0.48408 0.29062,0.472971 0.0101,-0.0111 -0.0214,-0.282159 -0.07,-0.602335 -0.13098,-0.86232 -0.10434,-0.90791 0.13231,-0.226387 0.23529,0.677644 0.21729,0.686788 0.3819,-0.194046 0.085,-0.454631 0.0907,-0.336758 0.0907,1.875777 0,2.212536 -0.006,2.330409 -0.0907,1.875779 z"
         style="display:inline;fill:#000000;stroke:#000000;stroke-width:0.4;stroke-miterlimit:4;stroke-dasharray:none;stroke-opacity:1" />
      <path
         sodipodi:nodetypes="cccccccsccccssscccsccccccsscc"
         inkscape:connector-curvature="0"
         id="path994-7"
         d="m 209.77693,49.339561 c -0.12635,-0.675947 -0.11253,-0.668931 -0.29313,-0.14891 -0.17818,0.513042 -0.20494,0.459547 -0.10443,-0.20869 0.0357,-0.237629 0.0472,-0.42107 0.0255,-0.407641 -0.0217,0.01344 -0.12297,0.183211 -0.22498,0.377299 -0.10201,0.194087 -0.19216,0.33282 -0.20034,0.308299 -0.008,-0.02452 0.0724,-0.273505 0.17907,-0.553293 0.10665,-0.279789 0.18422,-0.508708 0.17236,-0.508708 -0.0119,0 -0.15722,0.06847 -0.32304,0.15216 -0.16582,0.08369 -0.30952,0.144131 -0.31933,0.134319 -0.01,-0.0098 0.10964,-0.117372 0.26544,-0.239023 l 0.28328,-0.152259 -1.99803,-0.0072 c -1.95682,-0.0071 -1.99804,-0.015 -1.99804,-0.186351 0,-0.223243 0.01,-0.207757 1.98817,-0.190611 l 1.98817,0.01724 -0.28779,-0.202214 c -0.30498,-0.293436 -0.29169,-0.297461 0.11942,-0.03617 0.14204,0.09028 0.26984,0.164141 0.28399,0.164141 0.0142,0 -0.0635,-0.248931 -0.17247,-0.553181 -0.10901,-0.304252 -0.18887,-0.562512 -0.17747,-0.573913 0.0114,-0.0114 0.11476,0.149577 0.22969,0.357726 0.11492,0.208151 0.2153,0.371481 0.22306,0.362956 0.008,-0.0085 -0.0164,-0.216527 -0.0538,-0.462229 -0.10054,-0.661742 -0.0801,-0.696727 0.10155,-0.173729 0.18059,0.520022 0.16678,0.527039 0.29313,-0.14891 0.0652,-0.348883 0.0696,-0.258427 0.0696,1.439464 0,1.697891 -0.004,1.788347 -0.0696,1.439466 z"
         style="display:inline;fill:#000000;stroke:#000000;stroke-width:0.306988;stroke-miterlimit:4;stroke-dasharray:none;stroke-opacity:1" />
      <path
         sodipodi:nodetypes="cccccccsccccssscccsccccccsscc"
         inkscape:connector-curvature="0"
         id="path994-7-5"
         d="m 209.77693,52.814938 c -0.12635,-0.675947 -0.11254,-0.668931 -0.29313,-0.14891 -0.17818,0.513042 -0.20495,0.459547 -0.10443,-0.20869 0.0357,-0.237629 0.0472,-0.42107 0.0255,-0.407641 -0.0217,0.01344 -0.12297,0.183211 -0.22498,0.377299 -0.10201,0.194087 -0.19216,0.33282 -0.20034,0.308299 -0.008,-0.02452 0.0724,-0.273505 0.17906,-0.553293 0.10666,-0.279789 0.18423,-0.508708 0.17237,-0.508708 -0.0119,0 -0.15722,0.06847 -0.32304,0.15216 -0.16582,0.08369 -0.30952,0.144131 -0.31933,0.134319 -0.01,-0.0098 0.10963,-0.117372 0.26544,-0.239023 l 0.28328,-0.152259 -1.99803,-0.0072 c -1.95682,-0.0071 -1.99804,-0.015 -1.99804,-0.186351 0,-0.223243 0.01,-0.207757 1.98817,-0.190611 l 1.98817,0.01724 -0.28779,-0.202214 c -0.30498,-0.293436 -0.29169,-0.297461 0.11942,-0.03617 0.14204,0.09028 0.26984,0.164141 0.28399,0.164141 0.0142,0 -0.0635,-0.248931 -0.17247,-0.553181 -0.10901,-0.304252 -0.18887,-0.562512 -0.17747,-0.573913 0.0114,-0.0114 0.11476,0.149577 0.22968,0.357726 0.11493,0.208151 0.21531,0.371481 0.22307,0.362956 0.008,-0.0085 -0.0164,-0.216527 -0.0538,-0.462229 -0.10054,-0.661742 -0.0801,-0.696727 0.10155,-0.173729 0.18059,0.520022 0.16678,0.527039 0.29313,-0.14891 0.0652,-0.348883 0.0696,-0.258427 0.0696,1.439464 0,1.697891 -0.004,1.788347 -0.0696,1.439466 z"
         style="display:inline;fill:#000000;stroke:#000000;stroke-width:0.306988;stroke-miterlimit:4;stroke-dasharray:none;stroke-opacity:1" />
    </g>
  </g>
</svg>
