<?xml version="1.0" encoding="UTF-8" standalone="no"?>
<!-- Created with Inkscape (http://www.inkscape.org/) -->

<svg
   width="10.530727mm"
   height="10.530727mm"
   viewBox="0 0 10.530727 10.530727"
   version="1.1"
   id="svg8"
   inkscape:version="1.1.2 (0a00cf5339, 2022-02-04)"
   sodipodi:docname="Laser3.svg"
   xmlns:inkscape="http://www.inkscape.org/namespaces/inkscape"
   xmlns:sodipodi="http://sodipodi.sourceforge.net/DTD/sodipodi-0.dtd"
   xmlns="http://www.w3.org/2000/svg"
   xmlns:svg="http://www.w3.org/2000/svg"
   xmlns:rdf="http://www.w3.org/1999/02/22-rdf-syntax-ns#"
   xmlns:cc="http://creativecommons.org/ns#"
   xmlns:dc="http://purl.org/dc/elements/1.1/">
  <defs
     id="defs2" />
  <sodipodi:namedview
     id="base"
     pagecolor="#ffffff"
     bordercolor="#666666"
     borderopacity="1.0"
     inkscape:pageopacity="0.0"
     inkscape:pageshadow="2"
     inkscape:zoom="7.919596"
     inkscape:cx="14.20527"
     inkscape:cy="37.691317"
     inkscape:document-units="mm"
     inkscape:current-layer="layer1"
     showgrid="false"
     fit-margin-top="0"
     fit-margin-left="0"
     fit-margin-right="0"
     fit-margin-bottom="0"
     inkscape:window-width="1850"
     inkscape:window-height="1016"
     inkscape:window-x="70"
     inkscape:window-y="1107"
     inkscape:window-maximized="1"
     inkscape:pagecheckerboard="0"
     inkscape:snap-bbox="true" />
  <metadata
     id="metadata5">
    <rdf:RDF>
      <cc:Work
         rdf:about="">
        <dc:format>image/svg+xml</dc:format>
        <dc:type
           rdf:resource="http://purl.org/dc/dcmitype/StillImage" />
      </cc:Work>
    </rdf:RDF>
  </metadata>
  <g
     inkscape:label="Capa 1"
     inkscape:groupmode="layer"
     id="layer1"
     transform="translate(-49.92077,-36.602315)">
    <path
       style="opacity:1;fill:#ffffff;fill-opacity:1;fill-rule:nonzero;stroke:#000000;stroke-width:0.442;stroke-linecap:round;stroke-linejoin:miter;stroke-miterlimit:4;stroke-dasharray:none;stroke-dashoffset:0;stroke-opacity:1"
       d="m 51.454373,36.773315 h 7.463521 c 0.754883,0 1.362604,0.607721 1.362604,1.362603 v 7.463522 c 0,0.754882 -0.607721,1.362603 -1.362604,1.362603 h -7.463521 c -0.754882,0 -1.362603,-0.607721 -1.362603,-1.362603 v -7.463522 c 0,-0.754882 0.607721,-1.362603 1.362603,-1.362603 z"
       id="rect815"
       inkscape:connector-curvature="0" />
    <circle
       style="fill:none;stroke:#000000;stroke-width:0.249814;stroke-linecap:round;stroke-miterlimit:4;stroke-dasharray:none;stop-color:#000000"
       id="path846"
       cx="55.186134"
       cy="41.86768"
       r="4.9772944" />
    <path
       style="display:inline;fill:#000000;stroke:#000000;stroke-width:0.4;stroke-miterlimit:4;stroke-dasharray:none;stroke-opacity:1"
       d="m 58.095517,43.755414 c -0.164609,-0.880833 -0.146611,-0.87169 -0.381902,-0.194047 -0.232136,0.66855 -0.267011,0.59884 -0.136055,-0.271944 0.04657,-0.309657 0.0615,-0.5487 0.03319,-0.531201 -0.02831,0.01751 -0.160214,0.238744 -0.293118,0.491661 -0.132903,0.252916 -0.250357,0.433701 -0.261008,0.401747 -0.01066,-0.03195 0.09433,-0.356406 0.23329,-0.721 0.13896,-0.364595 0.24002,-0.662902 0.22457,-0.662902 -0.01545,0 -0.204839,0.08923 -0.420877,0.198281 -0.216036,0.109053 -0.403256,0.187819 -0.41604,0.175033 -0.01278,-0.01278 0.142837,-0.152949 0.345829,-0.311473 l 0.369077,-0.19841 -2.603151,-0.0094 c -2.549454,-0.0092 -2.603154,-0.01955 -2.603154,-0.242836 0,-0.29091 0.01296,-0.27073 2.590295,-0.248388 l 2.590294,0.02246 -0.37494,-0.263507 c -0.397349,-0.382379 -0.380038,-0.387623 0.155585,-0.04713 0.185059,0.117642 0.351556,0.213894 0.369993,0.213894 0.01844,0 -0.08268,-0.324384 -0.224702,-0.720855 -0.142025,-0.396473 -0.246073,-0.733014 -0.231214,-0.74787 0.01486,-0.01486 0.149519,0.194914 0.299245,0.466155 0.149731,0.271244 0.280507,0.48408 0.29062,0.472971 0.01012,-0.0111 -0.02142,-0.282159 -0.07004,-0.602335 -0.130983,-0.86232 -0.104341,-0.90791 0.132303,-0.226387 0.235288,0.677644 0.21729,0.686788 0.381902,-0.194046 0.08497,-0.454631 0.09066,-0.336758 0.09066,1.875777 0,2.212536 -0.0057,2.330409 -0.09066,1.875779 z"
       id="path994"
       inkscape:connector-curvature="0"
       sodipodi:nodetypes="cccccccsccccssscccsccccccsscc"
       inkscape:export-filename="1laser.png"
       inkscape:export-xdpi="300"
       inkscape:export-ydpi="300" />
  </g>
</svg>
