<?xml version="1.0" encoding="UTF-8" standalone="no"?>
<!-- Created with Inkscape (http://www.inkscape.org/) -->

<svg
   width="10.530727mm"
   height="10.530727mm"
   viewBox="0 0 10.530727 10.530727"
   version="1.1"
   id="svg8"
   inkscape:version="1.1.2 (0a00cf5339, 2022-02-04)"
   sodipodi:docname="Melee4.svg"
   xmlns:inkscape="http://www.inkscape.org/namespaces/inkscape"
   xmlns:sodipodi="http://sodipodi.sourceforge.net/DTD/sodipodi-0.dtd"
   xmlns="http://www.w3.org/2000/svg"
   xmlns:svg="http://www.w3.org/2000/svg"
   xmlns:rdf="http://www.w3.org/1999/02/22-rdf-syntax-ns#"
   xmlns:cc="http://creativecommons.org/ns#"
   xmlns:dc="http://purl.org/dc/elements/1.1/">
  <defs
     id="defs2" />
  <sodipodi:namedview
     id="base"
     pagecolor="#ffffff"
     bordercolor="#666666"
     borderopacity="1.0"
     inkscape:pageopacity="0.0"
     inkscape:pageshadow="2"
     inkscape:zoom="7.919596"
     inkscape:cx="14.20527"
     inkscape:cy="37.691317"
     inkscape:document-units="mm"
     inkscape:current-layer="layer1"
     showgrid="false"
     fit-margin-top="0"
     fit-margin-left="0"
     fit-margin-right="0"
     fit-margin-bottom="0"
     inkscape:window-width="1850"
     inkscape:window-height="1016"
     inkscape:window-x="70"
     inkscape:window-y="1107"
     inkscape:window-maximized="1"
     inkscape:pagecheckerboard="0"
     inkscape:snap-bbox="true" />
  <metadata
     id="metadata5">
    <rdf:RDF>
      <cc:Work
         rdf:about="">
        <dc:format>image/svg+xml</dc:format>
        <dc:type
           rdf:resource="http://purl.org/dc/dcmitype/StillImage" />
      </cc:Work>
    </rdf:RDF>
  </metadata>
  <g
     inkscape:label="Capa 1"
     inkscape:groupmode="layer"
     id="layer1"
     transform="translate(-49.92077,-36.602315)">
    <path
       style="opacity:1;fill:#ffffff;fill-opacity:1;fill-rule:nonzero;stroke:#000000;stroke-width:0.442;stroke-linecap:round;stroke-linejoin:miter;stroke-miterlimit:4;stroke-dasharray:none;stroke-dashoffset:0;stroke-opacity:1"
       d="m 51.454373,36.773315 h 7.463521 c 0.754883,0 1.362604,0.607721 1.362604,1.362603 v 7.463522 c 0,0.754882 -0.607721,1.362603 -1.362604,1.362603 h -7.463521 c -0.754882,0 -1.362603,-0.607721 -1.362603,-1.362603 v -7.463522 c 0,-0.754882 0.607721,-1.362603 1.362603,-1.362603 z"
       id="rect815"
       inkscape:connector-curvature="0" />
    <circle
       style="fill:none;stroke:#000000;stroke-width:0.249814;stroke-linecap:round;stroke-miterlimit:4;stroke-dasharray:none;stop-color:#000000"
       id="path846"
       cx="55.186134"
       cy="41.86768"
       r="4.9772944" />
    <g
       id="g1213"
       transform="matrix(0.92712734,0,0,0.92712734,-4.9589588,-26.566965)"
       inkscape:export-filename="4sword.png"
       inkscape:export-xdpi="300"
       inkscape:export-ydpi="300">
      <path
         sodipodi:nodetypes="cccccccsccssscssscsscscsscscccccccscscc"
         inkscape:connector-curvature="0"
         id="path1327-2-6-7-2"
         d="m 60.78278,74.980053 c 0.06358,-0.01564 0.115639,-0.04691 0.161796,-0.09696 0.06136,-0.06659 0.07906,-0.106726 0.08459,-0.191983 l 0.0049,-0.07468 0.432581,-0.432486 0.432581,-0.432486 0.108249,-8.98e-4 c 0.141935,-8.99e-4 0.197522,-0.02579 0.313894,-0.139079 l 0.08287,-0.0807 0.191609,0.1906 c 0.187957,0.186959 0.192453,0.190599 0.235963,0.190599 0.06124,0 0.09578,-0.0346 0.09578,-0.09586 0,-0.04377 -0.0031,-0.04754 -0.214644,-0.259959 l -0.214646,-0.21552 1.19771,-1.199278 c 1.350011,-1.351773 1.417296,-1.424691 1.706057,-1.848775 0.179817,-0.264083 0.374954,-0.606459 0.374954,-0.657873 0,-0.01689 -0.0082,-0.0319 -0.02109,-0.03882 -0.04474,-0.02399 -0.539811,0.270662 -0.875174,0.520807 -0.28076,0.209418 -0.387191,0.310662 -1.612885,1.534267 l -1.22586,1.223767 -0.204093,-0.205257 c -0.112251,-0.112891 -0.218237,-0.211422 -0.235523,-0.218961 -0.06703,-0.02921 -0.141422,0.02193 -0.141422,0.09719 0,0.03514 0.01407,0.05203 0.193759,0.232594 l 0.193759,0.194734 -0.07902,0.07827 c -0.05329,0.05275 -0.08994,0.100382 -0.11257,0.146214 -0.03125,0.06327 -0.03354,0.07531 -0.03326,0.175223 l 2.69e-4,0.107265 -0.424861,0.424767 -0.424862,0.424766 -0.069,0.0036 c -0.08394,0.0045 -0.149452,0.03217 -0.210283,0.08825 -0.0749,0.06902 -0.09727,0.124808 -0.09727,0.242579 0,0.09041 0.0027,0.104138 0.02969,0.150033 0.01633,0.02777 0.04461,0.06497 0.06285,0.08268 0.06834,0.06623 0.202236,0.103383 0.292604,0.08106 z"
         style="fill:#000000;stroke:#000000;stroke-width:0.190518;stroke-miterlimit:4;stroke-dasharray:none;stroke-opacity:1" />
      <path
         sodipodi:nodetypes="cccccccsccssscssscsscscsscscccccccscscc"
         inkscape:connector-curvature="0"
         id="path1327-28-2-5-8"
         d="m 63.063317,77.100498 c 0.06358,-0.01564 0.115638,-0.04691 0.161796,-0.09696 0.06136,-0.06659 0.07906,-0.106726 0.08459,-0.191983 l 0.0049,-0.07468 0.432582,-0.432485 0.432581,-0.432487 0.108249,-8.99e-4 c 0.141935,-8.98e-4 0.197522,-0.02579 0.313894,-0.139078 l 0.08288,-0.0807 0.191609,0.1906 c 0.187957,0.186959 0.192453,0.190599 0.235963,0.190599 0.06124,0 0.09578,-0.0346 0.09578,-0.09586 0,-0.04377 -0.0031,-0.04754 -0.214644,-0.259959 l -0.214646,-0.215524 1.19771,-1.199278 c 1.35001,-1.351774 1.417296,-1.424692 1.706056,-1.848775 0.179816,-0.264084 0.374954,-0.60646 0.374954,-0.657873 0,-0.0169 -0.0082,-0.0319 -0.02109,-0.03882 -0.04474,-0.02398 -0.53981,0.270667 -0.875173,0.520812 -0.280761,0.209418 -0.387191,0.310662 -1.612886,1.534267 l -1.22586,1.223767 -0.204093,-0.205257 c -0.112252,-0.112891 -0.218238,-0.211422 -0.235524,-0.218962 -0.06703,-0.02921 -0.141421,0.02193 -0.141421,0.09719 0,0.03514 0.01407,0.05203 0.193759,0.232594 l 0.19376,0.194733 -0.07902,0.07828 c -0.05329,0.05275 -0.08994,0.100381 -0.11257,0.146214 -0.03125,0.06327 -0.03354,0.07531 -0.03326,0.175223 l 2.62e-4,0.107265 -0.424861,0.424767 -0.424862,0.424766 -0.069,0.0036 c -0.08394,0.0045 -0.149452,0.03217 -0.210283,0.08825 -0.0749,0.06902 -0.09727,0.124808 -0.09727,0.242579 0,0.09041 0.0027,0.104138 0.02969,0.150034 0.01633,0.02777 0.04461,0.06497 0.06285,0.08268 0.06834,0.06623 0.202236,0.103383 0.292604,0.08106 z"
         style="fill:#000000;stroke:#000000;stroke-width:0.190518;stroke-miterlimit:4;stroke-dasharray:none;stroke-opacity:1" />
      <path
         sodipodi:nodetypes="cccccccsccssscssscsscscsscscccccccscscc"
         inkscape:connector-curvature="0"
         id="path1327-2-6-7-2-7"
         d="m 66.681726,70.526774 c -0.06358,0.01564 -0.115639,0.04691 -0.161796,0.09696 -0.06136,0.06659 -0.07906,0.106726 -0.08459,0.191983 l -0.0049,0.07468 -0.432581,0.432486 -0.432581,0.432486 -0.108249,9e-4 c -0.141935,9e-4 -0.197522,0.02579 -0.313894,0.139079 l -0.08287,0.0807 -0.191609,-0.1906 c -0.187957,-0.186959 -0.192453,-0.190599 -0.235963,-0.190599 -0.06124,0 -0.09578,0.0346 -0.09578,0.09586 0,0.04377 0.0031,0.04754 0.214644,0.259959 l 0.214646,0.215518 -1.19771,1.199278 c -1.350011,1.351773 -1.417296,1.424691 -1.706057,1.848775 -0.179817,0.264083 -0.374954,0.606459 -0.374954,0.657873 0,0.01689 0.0082,0.0319 0.02109,0.03882 0.04474,0.02399 0.539811,-0.270662 0.875174,-0.520807 0.28076,-0.209418 0.387191,-0.310662 1.612885,-1.534267 l 1.22586,-1.223767 0.204093,0.205257 c 0.112251,0.112891 0.218237,0.211422 0.235523,0.218962 0.06703,0.02921 0.141422,-0.02193 0.141422,-0.09719 0,-0.03514 -0.01407,-0.05203 -0.193759,-0.232594 l -0.193759,-0.194734 0.07902,-0.07827 c 0.05329,-0.05275 0.08994,-0.100383 0.11257,-0.146214 0.03125,-0.06327 0.03354,-0.07531 0.03326,-0.175223 l -2.7e-4,-0.107265 0.424861,-0.424768 0.424862,-0.424766 0.069,-0.0036 c 0.08394,-0.0045 0.149452,-0.03217 0.210283,-0.08825 0.0749,-0.06902 0.09727,-0.124808 0.09727,-0.242579 0,-0.09041 -0.0027,-0.104138 -0.02969,-0.150033 -0.01633,-0.02777 -0.04461,-0.06497 -0.06285,-0.08268 -0.06834,-0.06623 -0.202236,-0.103382 -0.292604,-0.08106 z"
         style="fill:#000000;stroke:#000000;stroke-width:0.190518;stroke-miterlimit:4;stroke-dasharray:none;stroke-opacity:1" />
      <path
         sodipodi:nodetypes="cccccccsccssscssscsscscsscscccccccscscc"
         inkscape:connector-curvature="0"
         id="path1327-28-2-5-8-3"
         d="m 68.962276,72.647224 c -0.06358,0.01564 -0.115638,0.04691 -0.161796,0.09696 -0.06136,0.06659 -0.07906,0.106726 -0.08459,0.191983 l -0.0049,0.07468 -0.432582,0.432485 -0.432581,0.432487 -0.108249,9e-4 c -0.141935,9e-4 -0.197522,0.02579 -0.313894,0.139078 l -0.08288,0.0807 -0.191609,-0.1906 c -0.187957,-0.186959 -0.192453,-0.190599 -0.235963,-0.190599 -0.06124,0 -0.09578,0.0346 -0.09578,0.09586 0,0.04377 0.0031,0.04754 0.214644,0.259959 l 0.214646,0.215524 -1.19771,1.199278 c -1.35001,1.351774 -1.417296,1.424692 -1.706056,1.848775 -0.179816,0.264084 -0.374954,0.60646 -0.374954,0.657873 0,0.0169 0.0082,0.0319 0.02109,0.03882 0.04474,0.02398 0.53981,-0.270667 0.875173,-0.520812 0.280761,-0.209418 0.387191,-0.310662 1.612886,-1.534267 l 1.22586,-1.223767 0.204093,0.205257 c 0.112252,0.112891 0.218238,0.211422 0.235524,0.218962 0.06703,0.02921 0.141421,-0.02193 0.141421,-0.09719 0,-0.03514 -0.01407,-0.05203 -0.193759,-0.232594 l -0.19376,-0.194733 0.07902,-0.07828 c 0.05329,-0.05275 0.08994,-0.100381 0.11257,-0.146214 0.03125,-0.06327 0.03354,-0.07531 0.03326,-0.175223 l -2.62e-4,-0.107265 0.424861,-0.424767 0.424862,-0.424766 0.069,-0.0036 c 0.08394,-0.0045 0.149452,-0.03217 0.210283,-0.08825 0.0749,-0.06902 0.09727,-0.124808 0.09727,-0.242579 0,-0.09041 -0.0027,-0.104137 -0.02969,-0.150033 -0.01633,-0.02777 -0.04461,-0.06497 -0.06285,-0.08268 -0.06834,-0.06623 -0.202236,-0.103383 -0.292604,-0.08106 z"
         style="fill:#000000;stroke:#000000;stroke-width:0.190518;stroke-miterlimit:4;stroke-dasharray:none;stroke-opacity:1" />
    </g>
  </g>
</svg>
