<?xml version="1.0" encoding="UTF-8" standalone="no"?>
<!-- Created with Inkscape (http://www.inkscape.org/) -->

<svg
   width="10.530727mm"
   height="10.530727mm"
   viewBox="0 0 10.530727 10.530727"
   version="1.1"
   id="svg8"
   inkscape:version="1.1.2 (0a00cf5339, 2022-02-04)"
   sodipodi:docname="Missile3.svg"
   xmlns:inkscape="http://www.inkscape.org/namespaces/inkscape"
   xmlns:sodipodi="http://sodipodi.sourceforge.net/DTD/sodipodi-0.dtd"
   xmlns="http://www.w3.org/2000/svg"
   xmlns:svg="http://www.w3.org/2000/svg"
   xmlns:rdf="http://www.w3.org/1999/02/22-rdf-syntax-ns#"
   xmlns:cc="http://creativecommons.org/ns#"
   xmlns:dc="http://purl.org/dc/elements/1.1/">
  <defs
     id="defs2" />
  <sodipodi:namedview
     id="base"
     pagecolor="#ffffff"
     bordercolor="#666666"
     borderopacity="1.0"
     inkscape:pageopacity="0.0"
     inkscape:pageshadow="2"
     inkscape:zoom="7.919596"
     inkscape:cx="14.20527"
     inkscape:cy="37.691317"
     inkscape:document-units="mm"
     inkscape:current-layer="layer1"
     showgrid="false"
     fit-margin-top="0"
     fit-margin-left="0"
     fit-margin-right="0"
     fit-margin-bottom="0"
     inkscape:window-width="1850"
     inkscape:window-height="1016"
     inkscape:window-x="70"
     inkscape:window-y="1107"
     inkscape:window-maximized="1"
     inkscape:pagecheckerboard="0"
     inkscape:snap-bbox="true" />
  <metadata
     id="metadata5">
    <rdf:RDF>
      <cc:Work
         rdf:about="">
        <dc:format>image/svg+xml</dc:format>
        <dc:type
           rdf:resource="http://purl.org/dc/dcmitype/StillImage" />
      </cc:Work>
    </rdf:RDF>
  </metadata>
  <g
     inkscape:label="Capa 1"
     inkscape:groupmode="layer"
     id="layer1"
     transform="translate(-49.92077,-36.602315)">
    <path
       style="opacity:1;fill:#ffffff;fill-opacity:1;fill-rule:nonzero;stroke:#000000;stroke-width:0.442;stroke-linecap:round;stroke-linejoin:miter;stroke-miterlimit:4;stroke-dasharray:none;stroke-dashoffset:0;stroke-opacity:1"
       d="m 51.454373,36.773315 h 7.463521 c 0.754883,0 1.362604,0.607721 1.362604,1.362603 v 7.463522 c 0,0.754882 -0.607721,1.362603 -1.362604,1.362603 h -7.463521 c -0.754882,0 -1.362603,-0.607721 -1.362603,-1.362603 v -7.463522 c 0,-0.754882 0.607721,-1.362603 1.362603,-1.362603 z"
       id="rect815"
       inkscape:connector-curvature="0" />
    <circle
       style="fill:none;stroke:#000000;stroke-width:0.249814;stroke-linecap:round;stroke-miterlimit:4;stroke-dasharray:none;stop-color:#000000"
       id="path846"
       cx="55.186134"
       cy="41.86768"
       r="4.9772944" />
    <g
       id="g1271"
       transform="matrix(0.89445158,0,0,0.89445158,19.332586,21.315023)"
       style="stroke:#000000;stroke-opacity:1"
       inkscape:export-filename="3missiles.png"
       inkscape:export-xdpi="300"
       inkscape:export-ydpi="300">
      <path
         id="path974-3-6-6-8"
         d="m 40.42117,19.078659 c -0.295167,0.0054 -0.560918,0.06341 -0.768352,0.168147 -0.07435,0.03755 -0.223136,0.156721 -0.344837,0.2756 -0.1175,0.114778 -0.225494,0.215532 -0.226146,0.223898 l -4.68e-4,-4.62e-4 c 0,0 -4.67e-4,8.45e-4 -4.67e-4,8.45e-4 -6.92e-4,5.98e-4 -0.417442,0.417017 -0.751268,0.750819 -0.02041,-0.0091 -0.15068,-0.01663 -0.322342,-0.01663 h -0.337644 l -0.593012,0.59481 c -0.326257,0.327252 -0.593011,0.607442 -0.593011,0.622684 -3e-6,0.01523 0.01703,0.04492 0.03821,0.06609 0.02994,0.02996 0.09394,0.03867 0.287739,0.03867 h 0.239183 c -0.07482,0.07868 -0.208611,0.214857 -0.208611,0.219851 0,0.01003 0.04716,0.06421 0.111948,0.134877 -0.155659,0.01748 -0.3469,0.10496 -0.55075,0.258067 -0.171888,0.129097 -0.202066,0.18219 -0.140722,0.249972 0.03375,0.03731 0.063,0.04375 0.149264,0.03192 0.05897,-0.0081 0.107005,-0.0082 0.107005,0 0,0.0082 -0.05014,0.09218 -0.1115,0.187031 -0.127901,0.197715 -0.177378,0.305451 -0.220749,0.478365 -0.04421,0.176273 -0.04119,0.225863 0.01664,0.283692 0.04358,0.04353 0.06843,0.0489 0.165001,0.03462 0.183957,-0.02722 0.368619,-0.102082 0.574128,-0.232888 0.105811,-0.06734 0.198706,-0.122288 0.206362,-0.122288 0.0075,0 0.0072,0.04804 -9.22e-4,0.107001 -0.01183,0.08628 -0.0058,0.115509 0.03147,0.149265 0.06778,0.06135 0.121325,0.03161 0.250423,-0.140272 0.152728,-0.203344 0.240028,-0.39519 0.257618,-0.550301 0.07026,0.06448 0.123984,0.111049 0.133977,0.111049 0.0064,0 0.129929,-0.11896 0.220748,-0.204564 v 0.103406 c 0,0.194109 0.0087,0.257794 0.03867,0.287739 0.02117,0.02116 0.05084,0.03867 0.06609,0.03867 0.01524,0 0.295432,-0.266754 0.622685,-0.593011 l 0.595262,-0.593462 v -0.337193 c 0,-0.07913 -0.0021,-0.145515 -0.0045,-0.203216 l 0.738679,-0.738679 0.207711,-0.206363 c 0.331448,-0.329725 0.452033,-0.626618 0.461282,-1.132972 0.0065,-0.350689 0.0058,-0.351275 -0.344837,-0.344837 z"
         style="fill:#000000;stroke:#000000;stroke-width:0.0244889;stroke-opacity:1"
         inkscape:connector-curvature="0" />
      <path
         id="path974-3-6-6-2-7"
         d="m 43.668208,22.268728 c -0.295167,0.0054 -0.560918,0.06341 -0.768352,0.168147 -0.07435,0.03755 -0.223136,0.156721 -0.344837,0.2756 -0.1175,0.114778 -0.225494,0.215532 -0.226146,0.223898 l -4.76e-4,-4.63e-4 c 0,0 -4.76e-4,8.44e-4 -4.76e-4,8.44e-4 -6.88e-4,5.98e-4 -0.417442,0.417018 -0.751268,0.75082 -0.02039,-0.0091 -0.150663,-0.01663 -0.322325,-0.01663 h -0.337644 l -0.593012,0.59481 c -0.326257,0.327252 -0.593011,0.607442 -0.593011,0.622684 -3e-6,0.01523 0.01703,0.04492 0.03821,0.06609 0.02994,0.02996 0.09394,0.03867 0.287739,0.03867 h 0.239183 c -0.07482,0.07868 -0.208611,0.214857 -0.208611,0.219851 0,0.01003 0.04716,0.06421 0.111948,0.134876 -0.155659,0.01748 -0.3469,0.10496 -0.55075,0.258067 -0.171888,0.129097 -0.202066,0.18219 -0.140722,0.249972 0.03375,0.03731 0.063,0.04375 0.149264,0.03192 0.05897,-0.0081 0.107005,-0.0082 0.107005,0 0,0.0082 -0.05014,0.09218 -0.1115,0.187031 -0.127901,0.197715 -0.177378,0.305451 -0.220749,0.478365 -0.04421,0.176273 -0.04119,0.225863 0.01664,0.283692 0.04358,0.04353 0.06843,0.0489 0.165001,0.03462 0.183957,-0.02722 0.368619,-0.102081 0.574128,-0.232887 0.105811,-0.06734 0.198706,-0.122289 0.206362,-0.122289 0.0075,0 0.0072,0.04804 -9.21e-4,0.107001 -0.01183,0.08628 -0.0058,0.11551 0.03147,0.149265 0.06778,0.06135 0.121325,0.03161 0.250423,-0.140272 0.152728,-0.203344 0.240028,-0.39519 0.257618,-0.5503 0.07026,0.06448 0.123984,0.111048 0.133977,0.111048 0.0064,0 0.129929,-0.118959 0.220748,-0.204564 V 26.092 c 0,0.194109 0.0087,0.257794 0.03867,0.287739 0.02117,0.02116 0.05084,0.03867 0.06609,0.03867 0.01524,0 0.295432,-0.266754 0.622685,-0.593011 l 0.595262,-0.593462 v -0.337192 c 0,-0.07913 -0.0021,-0.145515 -0.0045,-0.203216 l 0.738679,-0.738679 0.207711,-0.206363 c 0.331448,-0.329725 0.452033,-0.626619 0.461282,-1.132973 0.0065,-0.350689 0.0058,-0.351275 -0.344837,-0.344837 z"
         style="fill:#000000;stroke:#000000;stroke-width:0.0244889;stroke-opacity:1"
         inkscape:connector-curvature="0" />
      <path
         id="path974-3-6-6-2-7-9"
         d="m 43.469457,19.27817 c -0.295167,0.0054 -0.560918,0.06341 -0.768352,0.168147 -0.07435,0.03755 -0.223136,0.156721 -0.344837,0.2756 -0.1175,0.114778 -0.225494,0.215532 -0.226146,0.223898 l -4.76e-4,-4.63e-4 c 0,0 -4.77e-4,8.44e-4 -4.77e-4,8.44e-4 -6.88e-4,5.98e-4 -0.417442,0.417018 -0.751268,0.75082 -0.02039,-0.0091 -0.150662,-0.01663 -0.322324,-0.01663 h -0.337644 l -0.593012,0.59481 c -0.326257,0.327252 -0.593011,0.607442 -0.593011,0.622684 -3e-6,0.01523 0.01703,0.04492 0.03821,0.06609 0.02994,0.02996 0.09394,0.03867 0.287739,0.03867 h 0.239183 c -0.07482,0.07868 -0.208611,0.214857 -0.208611,0.219851 0,0.01003 0.04716,0.06421 0.111948,0.134876 -0.155659,0.01748 -0.3469,0.10496 -0.55075,0.258067 -0.171888,0.129097 -0.202066,0.18219 -0.140722,0.249972 0.03375,0.03731 0.063,0.04375 0.149264,0.03192 0.05897,-0.0081 0.107005,-0.0082 0.107005,0 0,0.0082 -0.05014,0.09218 -0.1115,0.187031 -0.127901,0.197715 -0.177378,0.305451 -0.220749,0.478365 -0.04421,0.176273 -0.04119,0.225863 0.01664,0.283692 0.04358,0.04353 0.06843,0.0489 0.165001,0.03462 0.183957,-0.02722 0.368619,-0.102081 0.574128,-0.232887 0.105811,-0.06734 0.198706,-0.122289 0.206362,-0.122289 0.0075,0 0.0072,0.04804 -9.21e-4,0.107001 -0.01183,0.08628 -0.0058,0.11551 0.03147,0.149265 0.06778,0.06135 0.121325,0.03161 0.250423,-0.140272 0.152728,-0.203344 0.240028,-0.39519 0.257618,-0.5503 0.07026,0.06448 0.123984,0.111048 0.133977,0.111048 0.0064,0 0.129929,-0.118959 0.220748,-0.204564 v 0.103406 c 0,0.194109 0.0087,0.257794 0.03867,0.287739 0.02117,0.02116 0.05084,0.03867 0.06609,0.03867 0.01524,0 0.295432,-0.266754 0.622685,-0.593011 l 0.595262,-0.593462 v -0.337192 c 0,-0.07913 -0.0021,-0.145515 -0.0045,-0.203216 l 0.738679,-0.738679 0.207711,-0.206363 c 0.331448,-0.329725 0.452033,-0.626619 0.461282,-1.132973 0.0065,-0.350689 0.0058,-0.351275 -0.344837,-0.344837 z"
         style="fill:#000000;stroke:#000000;stroke-width:0.0244889;stroke-opacity:1"
         inkscape:connector-curvature="0" />
    </g>
  </g>
</svg>
