<?xml version="1.0" encoding="UTF-8" standalone="no"?>
<!-- Created with Inkscape (http://www.inkscape.org/) -->

<svg
   width="10.530727mm"
   height="10.530727mm"
   viewBox="0 0 10.530727 10.530727"
   version="1.1"
   id="svg8"
   inkscape:version="1.1.2 (0a00cf5339, 2022-02-04)"
   sodipodi:docname="PlaceArm.svg"
   xmlns:inkscape="http://www.inkscape.org/namespaces/inkscape"
   xmlns:sodipodi="http://sodipodi.sourceforge.net/DTD/sodipodi-0.dtd"
   xmlns="http://www.w3.org/2000/svg"
   xmlns:svg="http://www.w3.org/2000/svg"
   xmlns:rdf="http://www.w3.org/1999/02/22-rdf-syntax-ns#"
   xmlns:cc="http://creativecommons.org/ns#"
   xmlns:dc="http://purl.org/dc/elements/1.1/">
  <defs
     id="defs2" />
  <sodipodi:namedview
     id="base"
     pagecolor="#ffffff"
     bordercolor="#666666"
     borderopacity="1.0"
     inkscape:pageopacity="0.0"
     inkscape:pageshadow="2"
     inkscape:zoom="7.919596"
     inkscape:cx="14.20527"
     inkscape:cy="37.691317"
     inkscape:document-units="mm"
     inkscape:current-layer="layer1"
     showgrid="false"
     fit-margin-top="0"
     fit-margin-left="0"
     fit-margin-right="0"
     fit-margin-bottom="0"
     inkscape:window-width="1850"
     inkscape:window-height="1016"
     inkscape:window-x="70"
     inkscape:window-y="1107"
     inkscape:window-maximized="1"
     inkscape:pagecheckerboard="0"
     inkscape:snap-bbox="true" />
  <metadata
     id="metadata5">
    <rdf:RDF>
      <cc:Work
         rdf:about="">
        <dc:format>image/svg+xml</dc:format>
        <dc:type
           rdf:resource="http://purl.org/dc/dcmitype/StillImage" />
      </cc:Work>
    </rdf:RDF>
  </metadata>
  <g
     inkscape:label="Capa 1"
     inkscape:groupmode="layer"
     id="layer1"
     transform="translate(-49.92077,-36.602315)">
    <path
       style="opacity:1;fill:#ffffff;fill-opacity:1;fill-rule:nonzero;stroke:#000000;stroke-width:0.442;stroke-linecap:round;stroke-linejoin:miter;stroke-miterlimit:4;stroke-dasharray:none;stroke-dashoffset:0;stroke-opacity:1"
       d="m 51.454373,36.773315 h 7.463521 c 0.754883,0 1.362604,0.607721 1.362604,1.362603 v 7.463522 c 0,0.754882 -0.607721,1.362603 -1.362604,1.362603 h -7.463521 c -0.754882,0 -1.362603,-0.607721 -1.362603,-1.362603 v -7.463522 c 0,-0.754882 0.607721,-1.362603 1.362603,-1.362603 z"
       id="rect815"
       inkscape:connector-curvature="0" />
    <circle
       style="fill:none;stroke:#000000;stroke-width:0.249814;stroke-linecap:round;stroke-miterlimit:4;stroke-dasharray:none;stop-color:#000000"
       id="path846"
       cx="55.186134"
       cy="41.86768"
       r="4.9772944" />
    <path
       style="display:inline;fill:#000000;fill-opacity:1;stroke:none;stroke-width:0.0228914px;stroke-linecap:butt;stroke-linejoin:miter;stroke-opacity:1"
       d="m 56.468668,38.798968 c 0.0072,0.04205 0.01605,0.08015 0.02546,0.105165 0.06517,0.172922 0.313139,0.4335 0.492452,0.517007 0.22038,0.102646 0.683643,0.06257 0.887152,-0.07692 0.20722,-0.141993 0.336474,-0.324623 0.386829,-0.545263 z m 1.477822,0.996952 c -0.02761,7.08e-4 -0.06768,0.02914 -0.12184,0.05191 -0.226782,0.09509 -0.686629,0.09496 -0.944141,-4.66e-4 -0.146905,-0.05442 -0.20073,-0.05926 -0.200595,-0.01757 0.07817,1.078656 0.144915,0.950738 0.235342,2.102305 l -0.117671,0.173262 c -0.24004,0.353722 -0.106591,0.839486 0.278893,1.01455 0.243277,0.110499 0.333193,0.110024 0.581858,-0.0027 0.286316,-0.12997 0.400374,-0.332538 0.378491,-0.673584 -0.01309,-0.204154 -0.04509,-0.299978 -0.129253,-0.389608 l -0.111647,-0.119061 c -0.009,-0.981676 0.301117,-1.269588 0.150563,-2.1389 z m -3.73069,1.495419 -1.141482,0.122306 c 0,0 -0.131468,0.348451 0.170017,0.468363 l 0.81581,-0.05603 0.327527,0.41184 -1.074309,0.166314 -1.037257,0.282596 c -0.133692,0.111253 -0.02851,0.375247 0.05191,0.407206 l 0.925144,-0.107478 1.028911,-0.06858 c 0,0 -1.006185,0.294896 -1.028911,0.293712 -0.02268,-8.96e-4 -1.038647,0.228395 -1.038647,0.228395 -0.217288,0.173773 -0.04133,0.482259 0.08149,0.485962 l 1.047451,-0.159824 0.956646,-0.186234 -0.472998,0.305752 -1.0581,0.172338 c -0.199394,0.144754 -0.05594,0.46242 0.125076,0.453079 l 1.038647,-0.19597 0.692581,-0.292779 -0.264523,0.246916 -0.616148,0.282129 c -0.198918,0.119635 0.03398,0.442438 0.189946,0.376179 l 0.79589,-0.259897 c 0.08893,-0.03873 0.51793,-0.545263 0.51793,-0.545263 l 1.094237,-0.378949 0.156121,-0.228852 c 0,0 0.426982,-0.07835 0.684244,-0.138057 a 0.89621022,0.89621022 0 0 1 -0.726862,-0.879738 0.89621022,0.89621022 0 0 1 0.06813,-0.342821 l -0.228852,4.75e-4 -1.049764,-0.621705 -0.3178,-0.01623 z"
       id="path816-7-0-7"
       inkscape:connector-curvature="0" />
  </g>
</svg>
