<?xml version="1.0" encoding="UTF-8" standalone="no"?>
<!-- Created with Inkscape (http://www.inkscape.org/) -->

<svg
   width="10.530727mm"
   height="10.530727mm"
   viewBox="0 0 10.530727 10.530727"
   version="1.1"
   id="svg8"
   inkscape:version="1.1.2 (0a00cf5339, 2022-02-04)"
   sodipodi:docname="PlaceTorso.svg"
   xmlns:inkscape="http://www.inkscape.org/namespaces/inkscape"
   xmlns:sodipodi="http://sodipodi.sourceforge.net/DTD/sodipodi-0.dtd"
   xmlns="http://www.w3.org/2000/svg"
   xmlns:svg="http://www.w3.org/2000/svg"
   xmlns:rdf="http://www.w3.org/1999/02/22-rdf-syntax-ns#"
   xmlns:cc="http://creativecommons.org/ns#"
   xmlns:dc="http://purl.org/dc/elements/1.1/">
  <defs
     id="defs2" />
  <sodipodi:namedview
     id="base"
     pagecolor="#ffffff"
     bordercolor="#666666"
     borderopacity="1.0"
     inkscape:pageopacity="0.0"
     inkscape:pageshadow="2"
     inkscape:zoom="7.919596"
     inkscape:cx="14.142136"
     inkscape:cy="37.754451"
     inkscape:document-units="mm"
     inkscape:current-layer="layer1"
     showgrid="false"
     fit-margin-top="0"
     fit-margin-left="0"
     fit-margin-right="0"
     fit-margin-bottom="0"
     inkscape:window-width="1637"
     inkscape:window-height="773"
     inkscape:window-x="2254"
     inkscape:window-y="143"
     inkscape:window-maximized="0"
     inkscape:pagecheckerboard="0"
     inkscape:snap-bbox="true" />
  <metadata
     id="metadata5">
    <rdf:RDF>
      <cc:Work
         rdf:about="">
        <dc:format>image/svg+xml</dc:format>
        <dc:type
           rdf:resource="http://purl.org/dc/dcmitype/StillImage" />
      </cc:Work>
    </rdf:RDF>
  </metadata>
  <g
     inkscape:label="Capa 1"
     inkscape:groupmode="layer"
     id="layer1"
     transform="translate(-49.92077,-36.602315)">
    <path
       style="opacity:1;fill:#ffffff;fill-opacity:1;fill-rule:nonzero;stroke:#000000;stroke-width:0.442;stroke-linecap:round;stroke-linejoin:miter;stroke-miterlimit:4;stroke-dasharray:none;stroke-dashoffset:0;stroke-opacity:1"
       d="m 51.454373,36.773315 h 7.463521 c 0.754883,0 1.362604,0.607721 1.362604,1.362603 v 7.463522 c 0,0.754882 -0.607721,1.362603 -1.362604,1.362603 h -7.463521 c -0.754882,0 -1.362603,-0.607721 -1.362603,-1.362603 v -7.463522 c 0,-0.754882 0.607721,-1.362603 1.362603,-1.362603 z"
       id="rect815"
       inkscape:connector-curvature="0" />
    <circle
       style="fill:none;stroke:#000000;stroke-width:0.249814;stroke-linecap:round;stroke-miterlimit:4;stroke-dasharray:none;stop-color:#000000"
       id="path846"
       cx="55.186134"
       cy="41.86768"
       r="4.9772944" />
    <path
       style="display:inline;fill:#000000;fill-opacity:1;stroke-width:0.0135472"
       d="m 53.231963,39.643554 v 4.79e-4 c -0.04196,2.44e-4 -0.08335,0.0028 -0.124176,0.0075 -0.509932,0.06364 -0.954115,0.399947 -1.099082,0.831834 -0.03417,0.101941 -0.04327,0.179056 -0.02422,0.20759 0.02825,0.04233 0.07068,0.04824 0.227479,0.03154 0.304022,-0.03248 0.486702,0.02018 0.664013,0.192075 0.06354,0.06167 0.115438,0.100627 0.144056,0.107188 0.05313,0.01248 0.125425,0.0038 0.176072,-0.02234 0.02009,-0.01014 0.109262,-0.102232 0.197885,-0.20468 0.204154,-0.236067 0.340946,-0.364346 0.49619,-0.463697 0.15043,-0.09635 0.194394,-0.138302 0.205657,-0.198373 0.01192,-0.06364 -0.01445,-0.120375 -0.09555,-0.206623 -0.163382,-0.173735 -0.474443,-0.284546 -0.76829,-0.282293 z m 3.905982,4.79e-4 c -0.293856,-0.0019 -0.604908,0.108577 -0.7683,0.282293 -0.08119,0.08626 -0.107498,0.142987 -0.09555,0.206624 0.01126,0.06007 0.05519,0.102007 0.205656,0.198382 0.155217,0.09938 0.292224,0.227357 0.496191,0.463208 0.162584,0.187974 0.187879,0.210143 0.261428,0.228446 0.02234,0.0056 0.05303,0.0075 0.06795,0.0047 0.01492,-0.0038 0.03792,-0.0056 0.05143,-0.0056 0.01352,-1.03e-4 0.07293,-0.04665 0.13193,-0.102823 0.186781,-0.177968 0.362843,-0.229685 0.669352,-0.196928 0.246646,0.02638 0.279384,-0.01173 0.203226,-0.238639 -0.144976,-0.431877 -0.589159,-0.768196 -1.099091,-0.831833 -0.04083,-0.0047 -0.08222,-0.0075 -0.124167,-0.0075 z m -1.090849,0.565075 c -0.01765,0.0028 -0.0505,0.01671 -0.114951,0.04317 -0.153874,0.06289 -0.342429,0.112125 -0.502977,0.13193 -0.04843,0.0056 -0.07537,0.0094 -0.09604,0.01117 h -0.302182 v 9.39e-4 l -0.07959,-0.01023 c -0.171529,-0.02178 -0.357391,-0.06993 -0.513649,-0.133863 -0.06448,-0.02638 -0.09739,-0.03961 -0.11495,-0.04271 -0.01755,-0.0028 -0.02018,0.0038 -0.02375,0.01746 -0.01511,0.06007 -0.09273,0.156398 -0.164424,0.203713 -0.04083,0.02694 -0.108765,0.07152 -0.15133,0.09943 -0.111815,0.0734 -0.227977,0.185824 -0.432169,0.418587 -0.154306,0.175903 -0.192112,0.211232 -0.264347,0.247368 -0.04637,0.02309 -0.09542,0.04167 -0.109131,0.04167 -0.02225,0 -0.02487,0.01248 -0.02478,0.112041 7.5e-5,0.06148 0.02168,0.487095 0.0291,0.595137 0.04618,0.66894 0.0056,0.490053 0.227488,1.150996 l 0.178005,0.661581 h 0.744526 1.705867 0.744525 l 0.16249,-0.661581 c 0.221501,-0.660943 0.227845,-0.482056 0.274043,-1.150996 0.0075,-0.108042 -0.0019,-0.53365 -0.0019,-0.595137 1.32e-4,-0.09955 -0.0028,-0.112041 -0.02478,-0.112041 -0.0137,0 -0.06279,-0.01858 -0.109131,-0.04167 -0.07227,-0.03614 -0.110051,-0.07143 -0.264347,-0.247368 -0.205666,-0.234434 -0.320203,-0.345076 -0.435567,-0.421009 -0.0444,-0.02928 -0.112397,-0.07387 -0.15133,-0.09943 -0.0688,-0.04515 -0.146187,-0.14216 -0.161035,-0.201282 -0.0038,-0.01436 -0.0066,-0.02112 -0.02375,-0.01793 z m -2.440209,3.657647 v 0.225048 h 3.158547 v -0.225048 z"
       id="path831-2-3"
       inkscape:connector-curvature="0" />
  </g>
</svg>
