<?xml version="1.0" encoding="UTF-8" standalone="no"?>
<!-- Created with Inkscape (http://www.inkscape.org/) -->

<svg
   width="60mm"
   height="42mm"
   viewBox="0 0 60 42"
   version="1.1"
   id="svg8"
   inkscape:version="1.2.2 (b0a8486541, 2022-12-01)"
   sodipodi:docname="Towed Gauss.svg"
   xml:space="preserve"
   xmlns:inkscape="http://www.inkscape.org/namespaces/inkscape"
   xmlns:sodipodi="http://sodipodi.sourceforge.net/DTD/sodipodi-0.dtd"
   xmlns="http://www.w3.org/2000/svg"
   xmlns:svg="http://www.w3.org/2000/svg"
   xmlns:rdf="http://www.w3.org/1999/02/22-rdf-syntax-ns#"
   xmlns:cc="http://creativecommons.org/ns#"
   xmlns:dc="http://purl.org/dc/elements/1.1/"><defs
     id="defs2"><inkscape:path-effect
       effect="copy_rotate"
       starting_point="62.825012,51.902842"
       origin="61.825012,51.902842"
       id="path-effect2032-9"
       is_visible="true"
       lpeversion="1"
       method="normal"
       num_copies="19"
       starting_angle="0"
       rotation_angle="18.947368"
       gap="-0.01"
       copies_to_360="true"
       mirror_copies="false"
       split_items="false" /><inkscape:path-effect
       effect="copy_rotate"
       starting_point="62.825012,52.034264"
       origin="61.825012,52.034264"
       id="path-effect1183-6"
       is_visible="true"
       lpeversion="1"
       method="normal"
       num_copies="19"
       starting_angle="0"
       rotation_angle="18.947368"
       gap="-0.01"
       copies_to_360="true"
       mirror_copies="false"
       split_items="false" /><inkscape:path-effect
       effect="copy_rotate"
       starting_point="64.010074,52.034264"
       origin="61.825012,52.034264"
       id="path-effect2800-4"
       is_visible="true"
       lpeversion="1"
       method="normal"
       num_copies="6"
       starting_angle="0"
       rotation_angle="60"
       gap="-0.01"
       copies_to_360="true"
       mirror_copies="false"
       split_items="false" /><inkscape:path-effect
       effect="copy_rotate"
       starting_point="62.825012,51.902842"
       origin="61.825012,51.902842"
       id="path-effect2032"
       is_visible="true"
       lpeversion="1"
       method="normal"
       num_copies="19"
       starting_angle="0"
       rotation_angle="18.947368"
       gap="-0.01"
       copies_to_360="true"
       mirror_copies="false"
       split_items="false" /><inkscape:path-effect
       effect="copy_rotate"
       starting_point="62.81794,52.034264"
       origin="61.825012,52.034264"
       id="path-effect1183"
       is_visible="true"
       lpeversion="1"
       method="normal"
       num_copies="19"
       starting_angle="0"
       rotation_angle="18.947368"
       gap="-0.01"
       copies_to_360="true"
       mirror_copies="false"
       split_items="false" /><inkscape:path-effect
       effect="copy_rotate"
       starting_point="64.010074,52.034264"
       origin="61.825012,52.034264"
       id="path-effect2800"
       is_visible="true"
       lpeversion="1"
       method="normal"
       num_copies="8"
       starting_angle="0"
       rotation_angle="45"
       gap="-0.01"
       copies_to_360="true"
       mirror_copies="false"
       split_items="false" /><inkscape:path-effect
       effect="copy_rotate"
       starting_point="62.825012,51.902842"
       origin="61.825012,51.902842"
       id="path-effect2032-8"
       is_visible="true"
       lpeversion="1"
       method="normal"
       num_copies="19"
       starting_angle="0"
       rotation_angle="18.947368"
       gap="-0.01"
       copies_to_360="true"
       mirror_copies="false"
       split_items="false" /><inkscape:path-effect
       effect="copy_rotate"
       starting_point="62.81794,52.034264"
       origin="61.825012,52.034264"
       id="path-effect1183-9"
       is_visible="true"
       lpeversion="1"
       method="normal"
       num_copies="19"
       starting_angle="0"
       rotation_angle="18.947368"
       gap="-0.01"
       copies_to_360="true"
       mirror_copies="false"
       split_items="false" /><inkscape:path-effect
       effect="copy_rotate"
       starting_point="64.010074,52.034264"
       origin="61.825012,52.034264"
       id="path-effect2800-6"
       is_visible="true"
       lpeversion="1"
       method="normal"
       num_copies="8"
       starting_angle="0"
       rotation_angle="45"
       gap="-0.01"
       copies_to_360="true"
       mirror_copies="false"
       split_items="false" /><inkscape:path-effect
       effect="copy_rotate"
       starting_point="62.825012,51.902842"
       origin="61.825012,51.902842"
       id="path-effect2032-4"
       is_visible="true"
       lpeversion="1"
       method="normal"
       num_copies="19"
       starting_angle="0"
       rotation_angle="18.947368"
       gap="-0.01"
       copies_to_360="true"
       mirror_copies="false"
       split_items="false" /><inkscape:path-effect
       effect="copy_rotate"
       starting_point="62.81794,52.034264"
       origin="61.825012,52.034264"
       id="path-effect1183-8"
       is_visible="true"
       lpeversion="1"
       method="normal"
       num_copies="19"
       starting_angle="0"
       rotation_angle="18.947368"
       gap="-0.01"
       copies_to_360="true"
       mirror_copies="false"
       split_items="false" /><inkscape:path-effect
       effect="copy_rotate"
       starting_point="64.010074,52.034264"
       origin="61.825012,52.034264"
       id="path-effect2800-8"
       is_visible="true"
       lpeversion="1"
       method="normal"
       num_copies="8"
       starting_angle="0"
       rotation_angle="45"
       gap="-0.01"
       copies_to_360="true"
       mirror_copies="false"
       split_items="false" /><inkscape:path-effect
       effect="copy_rotate"
       starting_point="171.81761,98.936495"
       origin="170.10836,98.936495"
       id="path-effect1421"
       is_visible="true"
       lpeversion="1"
       method="normal"
       num_copies="8"
       starting_angle="0"
       rotation_angle="45"
       gap="-0.01"
       copies_to_360="true"
       mirror_copies="false"
       split_items="false"
       lpesatellites=""
       link_styles="false" /></defs><sodipodi:namedview
     id="base"
     pagecolor="#ffffff"
     bordercolor="#666666"
     borderopacity="1.0"
     inkscape:pageopacity="0.0"
     inkscape:pageshadow="2"
     inkscape:zoom="1.4142136"
     inkscape:cx="14.495689"
     inkscape:cy="62.225395"
     inkscape:document-units="mm"
     inkscape:current-layer="layer3"
     showgrid="false"
     inkscape:window-width="1539"
     inkscape:window-height="773"
     inkscape:window-x="1629"
     inkscape:window-y="1235"
     inkscape:window-maximized="0"
     inkscape:snap-global="false"
     showguides="true"
     inkscape:pagecheckerboard="0"
     inkscape:guide-bbox="true"
     inkscape:showpageshadow="2"
     inkscape:deskcolor="#d1d1d1" /><metadata
     id="metadata5"><rdf:RDF><cc:Work
         rdf:about=""><dc:format>image/svg+xml</dc:format><dc:type
           rdf:resource="http://purl.org/dc/dcmitype/StillImage" /></cc:Work></rdf:RDF></metadata><g
     inkscape:groupmode="layer"
     id="layer3"
     inkscape:label="Capa 2"
     style="display:inline"><path
       id="rect25774"
       style="fill:#000000;stroke-width:0.876297;stroke-linecap:round;stroke-linejoin:round;stop-color:#000000"
       d="M 38.47622 -2.5718042 C 38.448306 -2.561209 38.420558 -2.5498338 38.393057 -2.5376103 C 37.553026 -2.1642361 36.898245 -1.0272504 35.993904 1.1285051 C 35.503392 2.2977787 34.97194 3.3735387 34.565809 4.0517949 L 25.929089 4.0521568 C 25.283517 4.0521568 24.763796 4.5719065 24.763796 5.2174791 L 24.763812 10.666937 C 24.763812 11.312509 25.283562 11.83223 25.929135 11.83223 L 32.504125 11.8324 L 32.549551 13.790126 C 32.653024 18.227199 32.540222 17.971302 34.116588 17.33372 L 35.510182 16.770062 L 34.963906 14.930181 C 34.879449 14.645662 34.814411 14.356005 34.767311 14.063733 A 8.0491695 8.0491695 0 0 1 37.729381 5.8782621 L 37.729402 5.7087942 C 38.045089 4.8253113 38.346523 3.6765911 38.706669 2.0609042 C 39.253277 -0.3913038 40.162512 -2.4599978 39.928076 -2.532472 C 39.361828 -2.7075246 38.894938 -2.7307321 38.47622 -2.5718042 z M 40.23328 2.4752544 C 39.946448 2.5866288 39.719562 2.8373169 39.654469 3.156981 L 39.289971 4.9460469 A 8.0491695 8.0491695 0 0 1 39.584907 4.8083607 A 8.0491695 8.0491695 0 0 1 48.098639 6.3906835 L 48.459083 4.6205375 C 48.558273 4.1334308 48.24327 3.6754709 47.752893 3.5939683 L 40.718556 2.4250255 C 40.549988 2.3970068 40.383515 2.4168921 40.23328 2.4752544 z M 50.604633 10.826565 C 50.805839 11.857975 50.803133 12.918811 50.596669 13.949181 C 50.657846 14.150734 50.724946 14.286341 50.792583 14.313657 C 50.927042 14.368006 55.482161 14.337563 57.884496 13.38399 L 61.470281 11.933672 C 61.581395 11.889567 61.409767 11.348079 61.190852 10.662585 C 60.308926 7.9009834 58.365814 10.143782 56.405074 10.365737 C 51.494663 10.921599 51.289945 10.584323 50.604633 10.826565 z "
       transform="rotate(22.021528)" /><circle
       style="fill:#000000;stroke:#000000;stroke-width:0.606746;stroke-linecap:butt;stroke-miterlimit:4;stroke-dasharray:2.42698, 0.606746;stroke-dashoffset:0.0606746;stop-color:#000000"
       id="path1677"
       cx="34.720367"
       cy="27.510973"
       r="7.0532408" /><circle
       style="fill:none;stroke:#ffffff;stroke-width:0.664239;stroke-linecap:round;stop-color:#000000"
       id="path1118"
       cx="34.720367"
       cy="27.510973"
       r="5.4516582" /><path
       id="path1295"
       d="m 35.319596,23.962463 c 0,0.329845 -0.267393,0.597238 -0.597238,0.597238 -0.329845,0 -0.597239,-0.267393 -0.597239,-0.597238 0,-0.329846 0.267394,-0.597238 0.597239,-0.597238 0.329845,0 0.597238,0.267392 0.597238,0.597238 z m -2.684685,0.615615 c 0.233235,0.233236 0.233235,0.611386 0,0.844622 -0.233238,0.233236 -0.611386,0.233236 -0.844621,0 -0.233239,-0.233236 -0.233239,-0.611386 0,-0.844622 0.233235,-0.233236 0.611383,-0.233236 0.844621,0 z m -1.463055,2.333665 c 0.329844,0 0.597238,0.267393 0.597238,0.597238 0,0.329846 -0.267394,0.597237 -0.597238,0.597237 -0.329845,0 -0.597239,-0.267391 -0.597239,-0.597237 0,-0.329845 0.267394,-0.597238 0.597239,-0.597238 z m 0.615614,2.684687 c 0.233238,-0.233239 0.611386,-0.233239 0.844625,0 0.233234,0.233235 0.233234,0.611386 0,0.844621 -0.233239,0.233235 -0.611387,0.233235 -0.844625,0 -0.233235,-0.233235 -0.233235,-0.611386 0,-0.844621 z m 2.333666,1.463052 c 0,-0.329845 0.267394,-0.597239 0.597239,-0.597239 0.329844,0 0.597238,0.267394 0.597238,0.597239 0,0.329844 -0.267394,0.597238 -0.597238,0.597238 -0.329845,0 -0.597239,-0.267394 -0.597239,-0.597238 z m 2.684685,-0.615615 c -0.233234,-0.233235 -0.233234,-0.611386 0,-0.844621 0.233239,-0.233238 0.611387,-0.233238 0.844622,0 0.233238,0.233235 0.233238,0.611386 0,0.844621 -0.233235,0.233235 -0.611383,0.233235 -0.844622,0 z m 1.463056,-2.333666 c -0.329845,0 -0.597239,-0.267391 -0.597239,-0.597237 0,-0.329845 0.267394,-0.597238 0.597239,-0.597238 0.329845,0 0.597238,0.267393 0.597238,0.597238 0,0.329846 -0.267393,0.597237 -0.597238,0.597237 z m -0.615615,-2.684684 c -0.233238,0.233236 -0.611386,0.233236 -0.844624,0 -0.233235,-0.233236 -0.233235,-0.611387 0,-0.844623 0.233238,-0.233235 0.611386,-0.233235 0.844624,0 0.233235,0.233236 0.233235,0.611387 0,0.844623 z"
       style="fill:#ffffff;stroke:none;stroke-width:0.581777;stroke-linecap:round;stop-color:#000000" /></g></svg>
