<?xml version="1.0" encoding="UTF-8" standalone="no"?>
<!-- Created with Inkscape (http://www.inkscape.org/) -->

<svg
   width="8.1079206mm"
   height="8.1079216mm"
   viewBox="0 0 8.1079206 8.1079216"
   version="1.1"
   id="svg944"
   inkscape:version="1.1.2 (0a00cf5339, 2022-02-04)"
   sodipodi:docname="Cover.svg"
   xmlns:inkscape="http://www.inkscape.org/namespaces/inkscape"
   xmlns:sodipodi="http://sodipodi.sourceforge.net/DTD/sodipodi-0.dtd"
   xmlns="http://www.w3.org/2000/svg"
   xmlns:svg="http://www.w3.org/2000/svg">
  <sodipodi:namedview
     id="namedview946"
     pagecolor="#ffffff"
     bordercolor="#666666"
     borderopacity="1.0"
     inkscape:pageshadow="2"
     inkscape:pageopacity="0.0"
     inkscape:pagecheckerboard="0"
     inkscape:document-units="mm"
     showgrid="false"
     fit-margin-top="0"
     fit-margin-left="0"
     fit-margin-right="0"
     fit-margin-bottom="0"
     inkscape:zoom="6.0150392"
     inkscape:cx="-4.5718738"
     inkscape:cy="45.968113"
     inkscape:window-width="1850"
     inkscape:window-height="1016"
     inkscape:window-x="70"
     inkscape:window-y="1107"
     inkscape:window-maximized="1"
     inkscape:current-layer="layer1" />
  <defs
     id="defs941" />
  <g
     inkscape:label="Capa 1"
     inkscape:groupmode="layer"
     id="layer1"
     transform="translate(-29.024239,-93.421157)">
    <ellipse
       cy="97.475121"
       cx="33.078197"
       id="path1760-3-3"
       style="vector-effect:none;fill:#ffffff;fill-opacity:1;stroke:#000000;stroke-width:0.412575;stroke-linecap:butt;stroke-linejoin:miter;stroke-miterlimit:4;stroke-dasharray:none;stroke-dashoffset:0;stroke-opacity:1"
       rx="3.8476732"
       ry="3.8476737" />
    <path
       style="display:inline;fill:#000000;stroke:#000000;stroke-width:0.0348031;stroke-miterlimit:4;stroke-dasharray:none;stroke-opacity:1"
       d="m 32.556595,99.818609 c 0.125248,-0.520925 0.128001,-1.314639 0.0045,-1.314639 -0.02981,0 -0.122364,-0.03994 -0.205682,-0.08877 -0.142557,-0.08353 -0.161735,-0.08631 -0.32534,-0.04707 -0.448568,0.107602 -0.951767,-0.24819 -0.954796,-0.675111 -5.2e-4,-0.06465 -0.02959,-0.132026 -0.07435,-0.171841 -0.118273,-0.105227 -0.199784,-0.322146 -0.20061,-0.533862 -8.7e-4,-0.235956 0.06443,-0.40188 0.217437,-0.552081 0.09008,-0.08843 0.11983,-0.150193 0.133714,-0.277616 0.03609,-0.331169 0.32367,-0.608585 0.659797,-0.636453 0.178756,-0.01479 0.183566,-0.0181 0.223304,-0.150698 0.05813,-0.19401 0.269022,-0.391248 0.487819,-0.456225 0.222114,-0.06595 0.250029,-0.06604 0.466735,-0.0017 0.112212,0.03332 0.221971,0.09948 0.308356,0.185866 l 0.134128,0.134122 0.18239,-0.04733 c 0.326766,-0.08474 0.637535,0.02976 0.832889,0.306894 0.07272,0.103174 0.145387,0.162278 0.231378,0.188198 0.354223,0.106758 0.601813,0.521733 0.522115,0.875106 -0.02096,0.09293 -0.01275,0.143372 0.03531,0.216606 0.10686,0.162905 0.147627,0.402011 0.101396,0.594725 -0.04382,0.182638 -0.221433,0.419838 -0.37365,0.498989 -0.06113,0.03176 -0.111079,0.104296 -0.15195,0.220591 -0.143918,0.409519 -0.564638,0.60962 -0.986893,0.469363 l -0.180339,-0.05986 -0.13732,0.137316 c -0.211959,0.211959 -0.252435,0.564788 -0.128899,1.12362 0.0374,0.16918 0.068,0.312231 0.068,0.317921 0,0.006 -0.214544,0.0104 -0.476766,0.0104 h -0.476766 z"
       id="path1419"
       inkscape:connector-curvature="0"
       sodipodi:nodetypes="cscccccccccscccccccccccccccsscc"
       inkscape:export-filename="1tree.png"
       inkscape:export-xdpi="300"
       inkscape:export-ydpi="300" />
  </g>
</svg>
