<?xml version="1.0" encoding="UTF-8" standalone="no"?>
<!-- Created with Inkscape (http://www.inkscape.org/) -->

<svg
   width="8.1079206mm"
   height="8.1079216mm"
   viewBox="0 0 8.1079206 8.1079216"
   version="1.1"
   id="svg944"
   inkscape:version="1.1.2 (0a00cf5339, 2022-02-04)"
   sodipodi:docname="Critical.svg"
   xmlns:inkscape="http://www.inkscape.org/namespaces/inkscape"
   xmlns:sodipodi="http://sodipodi.sourceforge.net/DTD/sodipodi-0.dtd"
   xmlns="http://www.w3.org/2000/svg"
   xmlns:svg="http://www.w3.org/2000/svg">
  <sodipodi:namedview
     id="namedview946"
     pagecolor="#ffffff"
     bordercolor="#666666"
     borderopacity="1.0"
     inkscape:pageshadow="2"
     inkscape:pageopacity="0.0"
     inkscape:pagecheckerboard="0"
     inkscape:document-units="mm"
     showgrid="false"
     fit-margin-top="0"
     fit-margin-left="0"
     fit-margin-right="0"
     fit-margin-bottom="0"
     inkscape:zoom="6.0150392"
     inkscape:cx="16.375621"
     inkscape:cy="58.436859"
     inkscape:window-width="1850"
     inkscape:window-height="1016"
     inkscape:window-x="70"
     inkscape:window-y="1107"
     inkscape:window-maximized="1"
     inkscape:current-layer="layer1" />
  <defs
     id="defs941" />
  <g
     inkscape:label="Capa 1"
     inkscape:groupmode="layer"
     id="layer1"
     transform="translate(-29.024239,-93.421157)">
    <ellipse
       cy="97.475121"
       cx="33.078197"
       id="path1760-3-7"
       style="vector-effect:none;fill:#ffffff;fill-opacity:1;stroke:#000000;stroke-width:0.412575;stroke-linecap:butt;stroke-linejoin:miter;stroke-miterlimit:4;stroke-dasharray:none;stroke-dashoffset:0;stroke-opacity:1"
       rx="3.8476732"
       ry="3.8476737" />
    <path
       style="fill:#000000;stroke:#000000;stroke-width:0.18539;stroke-miterlimit:4;stroke-dasharray:none;stroke-opacity:1"
       d="m 32.761825,99.864622 -0.004,-0.17339 -0.149506,-0.0314 c -0.28379,-0.05967 -0.554621,-0.172845 -0.771374,-0.322422 -0.501991,-0.346408 -0.839601,-0.848014 -0.946666,-1.406522 l -0.0246,-0.128349 h -0.175223 -0.175223 v -0.320373 -0.320372 l 0.174424,-4.5e-5 0.174424,-3.5e-5 0.02555,-0.131669 c 0.0544,-0.280343 0.175571,-0.568697 0.342553,-0.815118 0.119417,-0.176232 0.418162,-0.473536 0.592148,-0.589288 0.273507,-0.181959 0.574462,-0.301801 0.880108,-0.350453 l 0.06051,-0.0096 V 95.08885 94.912114 h 0.313251 0.313252 v 0.175904 0.175886 l 0.131707,0.02532 c 0.279147,0.05347 0.55228,0.166512 0.800313,0.331102 0.184596,0.122498 0.479147,0.414146 0.602552,0.596635 0.168267,0.248803 0.287334,0.533457 0.340269,0.813481 l 0.02485,0.131457 h 0.175012 0.17501 v 0.320372 0.320373 H 35.46639 35.291614 l -0.02542,0.124587 c -0.12211,0.5986 -0.494939,1.135323 -1.002747,1.443542 -0.233766,0.141885 -0.447736,0.228008 -0.715851,0.288099 l -0.149032,0.0334 -0.004,0.17292 -0.004,0.172928 h -0.31232 -0.312375 z m 0.0031,-1.044861 v -0.376487 h 0.316811 l 0.316812,-9e-6 v 0.380887 0.380896 l 0.04272,-0.0044 c 0.07262,-0.008 0.326077,-0.09754 0.443555,-0.156951 0.32378,-0.163714 0.601576,-0.443331 0.766033,-0.77106 0.06027,-0.120091 0.122919,-0.293117 0.148239,-0.409366 l 0.01318,-0.06046 h -0.382932 -0.382932 v -0.320373 -0.320372 h 0.384716 0.384717 l -0.0094,-0.03913 c -0.09143,-0.382463 -0.240406,-0.650767 -0.502677,-0.905252 -0.222956,-0.21635 -0.442042,-0.344576 -0.732424,-0.42869 -0.200369,-0.05798 -0.179951,-0.09751 -0.179951,0.347904 v 0.384437 H 33.07814 32.764889 v -0.386261 -0.386269 l -0.05655,0.009 c -0.0889,0.01416 -0.282768,0.07878 -0.392483,0.130686 -0.173734,0.08215 -0.321091,0.188979 -0.477841,0.346213 -0.164819,0.165325 -0.272312,0.313982 -0.355706,0.491939 -0.0566,0.120781 -0.127057,0.343363 -0.127057,0.401381 v 0.03399 l 0.380885,-8e-6 0.380886,-9e-6 -0.0041,0.320372 -0.0041,0.320382 h -0.382964 -0.382898 l 0.03454,0.129075 c 0.166467,0.622032 0.644842,1.094806 1.266245,1.251421 0.05482,0.01372 0.104477,0.02249 0.11035,0.01912 0.0059,-0.0035 0.01068,-0.175364 0.01068,-0.382436 z"
       id="path1101"
       inkscape:connector-curvature="0"
       inkscape:export-filename="1aim.png"
       inkscape:export-xdpi="300"
       inkscape:export-ydpi="300" />
  </g>
</svg>
