<?xml version="1.0" encoding="UTF-8" standalone="no"?>
<!-- Created with Inkscape (http://www.inkscape.org/) -->

<svg
   xmlns:dc="http://purl.org/dc/elements/1.1/"
   xmlns:cc="http://creativecommons.org/ns#"
   xmlns:rdf="http://www.w3.org/1999/02/22-rdf-syntax-ns#"
   xmlns:svg="http://www.w3.org/2000/svg"
   xmlns="http://www.w3.org/2000/svg"
   xmlns:sodipodi="http://sodipodi.sourceforge.net/DTD/sodipodi-0.dtd"
   xmlns:inkscape="http://www.inkscape.org/namespaces/inkscape"
   width="210mm"
   height="297mm"
   viewBox="0 0 210 297"
   version="1.1"
   id="svg8"
   inkscape:version="0.92.5 (2060ec1f9f, 2020-04-08)"
   sodipodi:docname="Dices.svg"
   inkscape:export-filename="./Dices.png"
   inkscape:export-xdpi="300"
   inkscape:export-ydpi="300">
  <defs
     id="defs2" />
  <sodipodi:namedview
     id="base"
     pagecolor="#ffffff"
     bordercolor="#666666"
     borderopacity="1.0"
     inkscape:pageopacity="0.0"
     inkscape:pageshadow="2"
     inkscape:zoom="1"
     inkscape:cx="204.2057"
     inkscape:cy="833.99109"
     inkscape:document-units="mm"
     inkscape:current-layer="layer2"
     showgrid="false"
     inkscape:window-width="1848"
     inkscape:window-height="1016"
     inkscape:window-x="72"
     inkscape:window-y="27"
     inkscape:window-maximized="1" />
  <metadata
     id="metadata5">
    <rdf:RDF>
      <cc:Work
         rdf:about="">
        <dc:format>image/svg+xml</dc:format>
        <dc:type
           rdf:resource="http://purl.org/dc/dcmitype/StillImage" />
        <dc:title></dc:title>
      </cc:Work>
    </rdf:RDF>
  </metadata>
  <g
     inkscape:label="Tamaños"
     inkscape:groupmode="layer"
     id="layer1"
     style="display:none">
    <circle
       style="opacity:1;vector-effect:none;fill:none;fill-opacity:1;stroke:#000000;stroke-width:0.22157939;stroke-linecap:butt;stroke-linejoin:miter;stroke-miterlimit:4;stroke-dasharray:none;stroke-dashoffset:0;stroke-opacity:1"
       id="path906"
       cx="13.617902"
       cy="10.925131"
       r="4.8892102" />
    <circle
       style="opacity:1;vector-effect:none;fill:none;fill-opacity:1;stroke:#000000;stroke-width:0.22157939;stroke-linecap:butt;stroke-linejoin:miter;stroke-miterlimit:4;stroke-dasharray:none;stroke-dashoffset:0;stroke-opacity:1"
       id="path906-6"
       cx="27.194674"
       cy="10.620701"
       r="4.8892102" />
    <circle
       style="opacity:1;vector-effect:none;fill:none;fill-opacity:1;stroke:#000000;stroke-width:0.22157939;stroke-linecap:butt;stroke-linejoin:miter;stroke-miterlimit:4;stroke-dasharray:none;stroke-dashoffset:0;stroke-opacity:1"
       id="path906-5"
       cx="13.890625"
       cy="23.392485"
       r="4.8892102" />
    <circle
       style="opacity:1;vector-effect:none;fill:none;fill-opacity:1;stroke:#000000;stroke-width:0.22157939;stroke-linecap:butt;stroke-linejoin:miter;stroke-miterlimit:4;stroke-dasharray:none;stroke-dashoffset:0;stroke-opacity:1"
       id="path906-5-3"
       cx="13.898015"
       cy="36.479027"
       r="4.8892102" />
    <circle
       style="opacity:1;vector-effect:none;fill:none;fill-opacity:1;stroke:#000000;stroke-width:0.22157939;stroke-linecap:butt;stroke-linejoin:miter;stroke-miterlimit:4;stroke-dasharray:none;stroke-dashoffset:0;stroke-opacity:1"
       id="path906-5-3-5"
       cx="27.461945"
       cy="36.679478"
       r="4.8892102" />
    <circle
       style="opacity:1;vector-effect:none;fill:none;fill-opacity:1;stroke:#000000;stroke-width:0.22157939;stroke-linecap:butt;stroke-linejoin:miter;stroke-miterlimit:4;stroke-dasharray:none;stroke-dashoffset:0;stroke-opacity:1"
       id="path906-5-3-5-9"
       cx="41.502602"
       cy="36.517723"
       r="4.8892102" />
    <circle
       style="opacity:1;vector-effect:none;fill:none;fill-opacity:1;stroke:#000000;stroke-width:0.22157939;stroke-linecap:butt;stroke-linejoin:miter;stroke-miterlimit:4;stroke-dasharray:none;stroke-dashoffset:0;stroke-opacity:1"
       id="path906-5-36"
       cx="26.726952"
       cy="22.781464"
       r="4.8892102" />
    <path
       style="fill:#000000;stroke-width:0.26458332"
       d="m 35.467647,-61.560472 c -1.768025,-0.295963 -4.170643,-1.383247 -14.881637,-6.734561 L 9.0116667,-74.077684 h -14.817843 -8.4678407 v -8.466666 -8.466666 h 8.4678697 14.817867 l 11.4420273,-5.72398 c 6.293114,-3.148187 12.096869,-5.961274 12.897233,-6.251304 1.125654,-0.40791 2.368973,-0.55697 5.490104,-0.65819 l 4.034896,-0.13087 v 6.382173 6.382171 h 8.403621 8.403623 l 4.22713,-4.233333 4.22713,-4.233334 h 4.30258 4.30258 v 16.933333 16.933333 h -4.30258 -4.30258 l -4.22713,-4.233334 -4.22713,-4.233333 H 51.279601 42.87598 v 6.35 6.35 l -3.373438,-0.03603 c -1.85539,-0.01982 -3.671093,-0.08586 -4.034895,-0.146758 z m -54.570723,-12.791042 c -0.69146,-0.116372 -4.20263,-1.193369 -7.80261,-2.393323 -7.13366,-2.377805 -7.68765,-2.691746 -8.28842,-4.696957 -0.26406,-0.881341 -0.26406,-1.323771 0,-2.205112 0.60866,-2.03155 1.13096,-2.321642 8.68721,-4.824981 6.27809,-2.079895 7.182537,-2.274939 9.58168,-2.457548 l 2.651199,-0.161517 v 8.506634 8.506634 l -1.785938,-0.03112 c -0.982261,-0.01712 -2.351671,-0.126336 -3.043121,-0.24271 z"
       id="path1169"
       inkscape:connector-curvature="0"
       sodipodi:nodetypes="cscccccccsccccccccccccccccccccccccsccssccccc" />
    <circle
       style="display:inline;opacity:1;vector-effect:none;fill:none;fill-opacity:1;stroke:#000000;stroke-width:0.22157939;stroke-linecap:butt;stroke-linejoin:miter;stroke-miterlimit:4;stroke-dasharray:none;stroke-dashoffset:0;stroke-opacity:1"
       id="path906-5-3-5-1"
       cx="13.657474"
       cy="49.762321"
       r="4.8892102" />
    <circle
       style="display:inline;opacity:1;vector-effect:none;fill:none;fill-opacity:1;stroke:#000000;stroke-width:0.22157939;stroke-linecap:butt;stroke-linejoin:miter;stroke-miterlimit:4;stroke-dasharray:none;stroke-dashoffset:0;stroke-opacity:1"
       id="path906-5-3-5-1-2"
       cx="27.979687"
       cy="49.482292"
       r="4.8892102" />
    <circle
       style="display:inline;opacity:1;vector-effect:none;fill:none;fill-opacity:1;stroke:#000000;stroke-width:0.22157939;stroke-linecap:butt;stroke-linejoin:miter;stroke-miterlimit:4;stroke-dasharray:none;stroke-dashoffset:0;stroke-opacity:1"
       id="path906-5-3-5-6"
       cx="14.419791"
       cy="64.232811"
       r="4.8892102" />
    <circle
       style="display:inline;opacity:1;vector-effect:none;fill:none;fill-opacity:1;stroke:#000000;stroke-width:0.22157939;stroke-linecap:butt;stroke-linejoin:miter;stroke-miterlimit:4;stroke-dasharray:none;stroke-dashoffset:0;stroke-opacity:1"
       id="path906-5-3-5-9-0"
       cx="14.816667"
       cy="79.247917"
       r="4.8892102" />
    <circle
       style="display:inline;opacity:1;vector-effect:none;fill:none;fill-opacity:1;stroke:#000000;stroke-width:0.22157939;stroke-linecap:butt;stroke-linejoin:miter;stroke-miterlimit:4;stroke-dasharray:none;stroke-dashoffset:0;stroke-opacity:1"
       id="path906-5-36-6"
       cx="40.411152"
       cy="22.634468"
       r="4.8892102" />
    <circle
       style="display:inline;opacity:1;vector-effect:none;fill:none;fill-opacity:1;stroke:#000000;stroke-width:0.22157939;stroke-linecap:butt;stroke-linejoin:miter;stroke-miterlimit:4;stroke-dasharray:none;stroke-dashoffset:0;stroke-opacity:1"
       id="path906-5-3-5-9-0-9"
       cx="28.773438"
       cy="79.049477"
       r="4.8892102" />
    <circle
       style="display:inline;opacity:1;vector-effect:none;fill:none;fill-opacity:1;stroke:#000000;stroke-width:0.22157939;stroke-linecap:butt;stroke-linejoin:miter;stroke-miterlimit:4;stroke-dasharray:none;stroke-dashoffset:0;stroke-opacity:1"
       id="path906-5-3-5-9-0-97"
       cx="15.279688"
       cy="94.196869"
       r="4.8892102" />
    <circle
       style="display:inline;opacity:1;vector-effect:none;fill:none;fill-opacity:1;stroke:#000000;stroke-width:0.22157939;stroke-linecap:butt;stroke-linejoin:miter;stroke-miterlimit:4;stroke-dasharray:none;stroke-dashoffset:0;stroke-opacity:1"
       id="path906-6-3"
       cx="15.08125"
       cy="108.02135"
       r="4.8892102" />
    <circle
       style="display:inline;opacity:1;vector-effect:none;fill:none;fill-opacity:1;stroke:#000000;stroke-width:0.22157939;stroke-linecap:butt;stroke-linejoin:miter;stroke-miterlimit:4;stroke-dasharray:none;stroke-dashoffset:0;stroke-opacity:1"
       id="path906-6-3-6"
       cx="30.658594"
       cy="107.52526"
       r="4.8892102" />
    <circle
       style="display:inline;opacity:1;vector-effect:none;fill:none;fill-opacity:1;stroke:#000000;stroke-width:0.22157939;stroke-linecap:butt;stroke-linejoin:miter;stroke-miterlimit:4;stroke-dasharray:none;stroke-dashoffset:0;stroke-opacity:1"
       id="path906-6-3-6-9"
       cx="47.095833"
       cy="107.2276"
       r="4.8892102" />
    <circle
       style="display:inline;opacity:1;vector-effect:none;fill:none;fill-opacity:1;stroke:#000000;stroke-width:0.22157939;stroke-linecap:butt;stroke-linejoin:miter;stroke-miterlimit:4;stroke-dasharray:none;stroke-dashoffset:0;stroke-opacity:1"
       id="path906-6-3-3"
       cx="15.528359"
       cy="122.25919"
       r="4.8892102" />
    <circle
       style="display:inline;opacity:1;vector-effect:none;fill:none;fill-opacity:1;stroke:#000000;stroke-width:0.22157939;stroke-linecap:butt;stroke-linejoin:miter;stroke-miterlimit:4;stroke-dasharray:none;stroke-dashoffset:0;stroke-opacity:1"
       id="path906-6-3-3-9"
       cx="29.897917"
       cy="122.30886"
       r="4.8892102" />
    <circle
       style="display:inline;opacity:1;vector-effect:none;fill:none;fill-opacity:1;stroke:#000000;stroke-width:0.22157939;stroke-linecap:butt;stroke-linejoin:miter;stroke-miterlimit:4;stroke-dasharray:none;stroke-dashoffset:0;stroke-opacity:1"
       id="path906-6-3-3-9-0"
       cx="46.632812"
       cy="121.91197"
       r="4.8892102" />
    <circle
       style="display:inline;opacity:1;vector-effect:none;fill:none;fill-opacity:1;stroke:#000000;stroke-width:0.22157939;stroke-linecap:butt;stroke-linejoin:miter;stroke-miterlimit:4;stroke-dasharray:none;stroke-dashoffset:0;stroke-opacity:1"
       id="path906-6-3-3-9-0-9"
       cx="15.609166"
       cy="137.3447"
       r="4.8892102" />
    <circle
       style="display:inline;opacity:1;vector-effect:none;fill:none;fill-opacity:1;stroke:#000000;stroke-width:0.22157939;stroke-linecap:butt;stroke-linejoin:miter;stroke-miterlimit:4;stroke-dasharray:none;stroke-dashoffset:0;stroke-opacity:1"
       id="path906-5-3-5-1-3"
       cx="41.627228"
       cy="49.493038"
       r="4.8892102" />
    <circle
       style="display:inline;opacity:1;vector-effect:none;fill:none;fill-opacity:1;stroke:#000000;stroke-width:0.22157939;stroke-linecap:butt;stroke-linejoin:miter;stroke-miterlimit:4;stroke-dasharray:none;stroke-dashoffset:0;stroke-opacity:1"
       id="path906-5-3-5-9-0-9-3"
       cx="43.217484"
       cy="79.135239"
       r="4.8892102" />
    <circle
       style="display:inline;opacity:1;vector-effect:none;fill:none;fill-opacity:1;stroke:#000000;stroke-width:0.22157939;stroke-linecap:butt;stroke-linejoin:miter;stroke-miterlimit:4;stroke-dasharray:none;stroke-dashoffset:0;stroke-opacity:1"
       id="path906-5-3-5-9-0-9-5"
       cx="57.810398"
       cy="79.602966"
       r="4.8892102" />
  </g>
  <g
     inkscape:groupmode="layer"
     id="layer2"
     inkscape:label="pip">
    <path
       style="fill:#000000;stroke-width:0.3;stroke:#000000;stroke-opacity:1;stroke-miterlimit:4;stroke-dasharray:none"
       d="m 12.571167,13.780194 c -0.740367,-0.424543 -1.163134,-1.30599 -1.029028,-2.145474 0.07227,-0.452355 0.205401,-0.757277 0.512812,-1.17452 0.855265,-1.1608218 1.011211,-1.4781117 1.057367,-2.1513229 0.01449,-0.2110594 0.0365,-0.3837453 0.04897,-0.3837453 0.01244,0 0.167663,0.1075082 0.34491,0.2389084 0.70314,0.5212614 1.097979,1.2293189 1.190179,2.1343308 l 0.03543,0.347889 0.127998,-0.135615 c 0.07041,-0.07459 0.155334,-0.229371 0.188751,-0.343977 l 0.06075,-0.2083678 0.190954,0.3908528 c 0.227845,0.466373 0.370017,0.954419 0.409957,1.407328 0.07219,0.818608 -0.342683,1.616107 -1.05246,2.0231 -0.284597,0.163192 -0.392554,0.190945 -0.222546,0.05722 0.173554,-0.136526 0.368751,-0.535108 0.39724,-0.811176 0.03837,-0.371758 -0.07549,-0.691701 -0.409015,-1.149351 -0.334525,-0.459009 -0.48778,-0.770348 -0.532898,-1.08258 l -0.03244,-0.224683 -0.183044,0.17817 c -0.348586,0.339298 -0.595971,1.08145 -0.534235,1.602701 0.01476,0.124704 0.009,0.226745 -0.01257,0.226745 -0.089,0 -0.325505,-0.335021 -0.352294,-0.49904 -0.01577,-0.09648 -0.03453,-0.206823 -0.04172,-0.2452 -0.01689,-0.09024 -0.246437,0.409251 -0.305333,0.664458 -0.109987,0.476592 -0.01838,0.910874 0.260977,1.237236 0.09015,0.105324 0.157038,0.191287 0.148647,0.191048 -0.0083,-1.76e-4 -0.128651,-0.06545 -0.267249,-0.144938 z"
       id="path826"
       inkscape:connector-curvature="0"
       sodipodi:nodetypes="ccccsccccscccccscscccsccccccc"
       inkscape:export-filename="1flame.png"
       inkscape:export-xdpi="300"
       inkscape:export-ydpi="300" />
    <g
       id="g1406">
      <path
         inkscape:export-ydpi="300"
         inkscape:export-xdpi="300"
         inkscape:export-filename="ams.png"
         sodipodi:nodetypes="cscccccccccscccscccccsccccccccsccsscccscsscscsscsscscccsscccccccscccccccccsssccccsccccccccsscscccsccccccssccccccc"
         inkscape:connector-curvature="0"
         id="path1100"
         d="m 16.186029,66.671124 c -0.01169,-0.01409 -0.194684,-0.241351 -0.49137,-0.610259 -0.03433,-0.04271 -0.102088,-0.126716 -0.150575,-0.186751 l -0.08816,-0.109138 -0.04112,-0.0211 c -0.136431,-0.06992 -0.241235,-0.182451 -0.297134,-0.319089 -0.01059,-0.02597 -0.02026,-0.0481 -0.02146,-0.04935 -0.0012,-0.0014 -0.01627,0.0067 -0.03352,0.018 -0.04119,0.02656 -0.06781,0.03961 -0.120552,0.05931 -0.182495,0.06816 -0.385705,0.04545 -0.555817,-0.06196 l -0.02902,-0.01836 -0.07841,0.07754 c -0.31381,0.310356 -0.558734,0.553381 -0.568382,0.563988 -0.0063,0.0067 -0.01221,0.0118 -0.01316,0.01084 -0.0019,-0.0023 0.116382,-0.280481 0.131959,-0.310996 0.0053,-0.01004 0.01648,-0.0357 0.02527,-0.05709 0.0088,-0.02131 0.0206,-0.05008 0.02629,-0.06388 0.0057,-0.01379 0.01366,-0.03127 0.01773,-0.0388 0.0041,-0.0075 0.0074,-0.01652 0.0074,-0.01991 1.3e-5,-0.0037 0.0041,-0.01372 0.0089,-0.02287 0.0048,-0.0092 0.01376,-0.02891 0.01972,-0.04396 0.006,-0.01505 0.05032,-0.1192 0.09859,-0.231414 l 0.08775,-0.204027 -0.01002,-0.05164 c -0.01279,-0.06594 -0.01379,-0.159888 -0.0024,-0.222822 0.01476,-0.08151 0.05196,-0.174757 0.09559,-0.239668 0.02512,-0.03739 0.03518,-0.0495 0.07283,-0.08782 l 0.03245,-0.03304 -0.03187,-0.03319 c -0.03667,-0.03813 -0.06578,-0.07571 -0.0903,-0.116537 -0.04307,-0.07169 -0.07836,-0.181462 -0.0835,-0.259769 l -0.0028,-0.04204 -0.01645,-0.003 c -0.0091,-0.0014 -0.199284,-0.02626 -0.422751,-0.05525 -0.223466,-0.02899 -0.46074,-0.05982 -0.527279,-0.06853 -0.06654,-0.0087 -0.132835,-0.01711 -0.147327,-0.01874 -0.0145,-0.0014 -0.02547,-0.0037 -0.02441,-0.0053 0.0012,-0.0014 0.0458,-0.0099 0.09939,-0.01962 0.0536,-0.0097 0.192976,-0.03519 0.309732,-0.05657 0.654067,-0.119782 0.837988,-0.15361 0.840495,-0.154568 0.0016,-5.83e-4 0.01732,-0.01851 0.03508,-0.0399 0.08819,-0.105915 0.209314,-0.179213 0.347884,-0.210517 0.06769,-0.01526 0.181845,-0.0163 0.25859,-0.0023 0.0017,3.9e-4 0.0075,-0.01689 0.01288,-0.03821 0.01786,-0.07081 0.05063,-0.145334 0.08867,-0.201696 0.0078,-0.01158 0.0142,-0.02412 0.0142,-0.02781 0,-0.0037 -0.01548,-0.07229 -0.0344,-0.152275 -0.01892,-0.08 -0.05396,-0.228671 -0.07785,-0.330359 -0.02389,-0.101689 -0.05991,-0.254422 -0.08005,-0.33941 -0.02013,-0.08499 -0.0356,-0.155522 -0.03438,-0.156746 0.0012,-0.0014 0.0045,0.0023 0.0073,0.0073 0.0027,0.0053 0.0743,0.114163 0.159009,0.242281 0.08471,0.128118 0.196562,0.297491 0.24857,0.376379 l 0.09456,0.143431 0.03327,-0.01054 c 0.05803,-0.01844 0.09995,-0.02552 0.165656,-0.02817 0.173185,-0.0067 0.332143,0.05318 0.456518,0.172707 l 0.04109,0.03946 0.05385,-0.02656 c 0.02962,-0.01461 0.06762,-0.03091 0.08446,-0.03622 0.07473,-0.02346 0.176917,-0.03593 0.23492,-0.02862 l 0.03083,0.0037 0.01711,-0.02146 c 0.01554,-0.01947 0.07887,-0.09434 0.457142,-0.540228 0.06625,-0.07811 0.149381,-0.176337 0.184707,-0.218286 0.03533,-0.04197 0.06483,-0.07566 0.06556,-0.07493 7.38e-4,7.38e-4 -0.04099,0.08641 -0.09274,0.190403 -0.05175,0.103983 -0.100825,0.203444 -0.109074,0.221021 -0.0083,0.01756 -0.07074,0.144722 -0.13887,0.282547 -0.06813,0.137824 -0.123306,0.250895 -0.122619,0.251272 0.02046,0.01099 0.08468,0.06476 0.1169,0.09782 0.08158,0.08373 0.135124,0.183411 0.16341,0.304226 0.01226,0.05237 0.0123,0.202979 6.8e-5,0.255652 -0.0088,0.03799 -0.028,0.09887 -0.03574,0.113381 -0.0024,0.0044 -0.0037,0.0093 -0.0027,0.01018 0.001,7.37e-4 0.107451,0.01733 0.236618,0.03629 0.129169,0.01903 0.281073,0.04145 0.337569,0.04986 0.05649,0.0084 0.171125,0.02522 0.25474,0.0374 0.0868,0.01261 0.148494,0.02352 0.143803,0.02537 -0.0045,0.0014 -0.05136,0.01275 -0.10409,0.02435 -0.05273,0.01158 -0.130791,0.02899 -0.173478,0.03865 -0.04268,0.0097 -0.200867,0.04485 -0.351518,0.07822 -0.15065,0.03334 -0.274695,0.06122 -0.275652,0.06188 -10e-4,5.82e-4 0.0025,0.01822 0.0076,0.03903 0.01592,0.0641 0.0206,0.110031 0.01796,0.176543 -0.0038,0.09391 -0.02081,0.16303 -0.06043,0.244758 -0.04096,0.08448 -0.09041,0.149686 -0.156936,0.206948 l -0.03057,0.02633 0.09553,0.104779 c 0.05256,0.05761 0.114259,0.125427 0.137141,0.150654 0.09626,0.106114 0.231403,0.254332 0.274536,0.301083 0.09097,0.09861 0.13457,0.147294 0.13457,0.150254 0,0.0014 -0.0038,7.36e-4 -0.0086,-0.0014 -0.0048,-0.0023 -0.09254,-0.0357 -0.195162,-0.07376 -0.102618,-0.03806 -0.227664,-0.08447 -0.277883,-0.103194 -0.05022,-0.01873 -0.112873,-0.0419 -0.139236,-0.05148 -0.02637,-0.0096 -0.125441,-0.0464 -0.220168,-0.08182 -0.09472,-0.03541 -0.174267,-0.06432 -0.176755,-0.06432 -0.0025,0 -0.0034,0.003 -0.002,0.0067 0.0045,0.0118 -0.0075,0.114339 -0.01861,0.158433 -0.01295,0.05134 -0.02731,0.09086 -0.04796,0.131998 -0.05574,0.111013 -0.159294,0.216301 -0.268037,0.272515 -0.02328,0.01202 -0.04236,0.02405 -0.04239,0.02662 -3.5e-5,0.003 0.0049,0.02212 0.01106,0.04338 0.0061,0.02124 0.02579,0.09202 0.04372,0.157299 0.01793,0.06528 0.03944,0.143349 0.0478,0.173474 0.0084,0.03017 0.03201,0.115386 0.05256,0.189459 0.02056,0.07407 0.04879,0.175761 0.06276,0.225978 0.01397,0.05023 0.02637,0.09746 0.02755,0.105001 0.0012,0.0075 0.0043,0.0163 0.0068,0.01947 0.0026,0.003 0.0038,0.0067 0.0028,0.0076 -0.001,7.37e-4 -0.0081,-0.0059 -0.01577,-0.01498 z"
         style="display:inline;fill:#000000;stroke-width:0.205;stroke:#000000;stroke-opacity:1;stroke-miterlimit:4;stroke-dasharray:none" />
      <path
         inkscape:export-ydpi="300"
         inkscape:export-xdpi="300"
         inkscape:export-filename="ams.png"
         id="path974-3"
         d="m 15.507832,61.816389 c -0.282799,0.0052 -0.537415,0.06075 -0.736157,0.161102 -0.07124,0.03597 -0.213786,0.150153 -0.330387,0.264052 -0.112577,0.109967 -0.216046,0.206501 -0.21667,0.214515 l -4.42e-4,-4.41e-4 c 0,0 -4.41e-4,8.6e-4 -4.41e-4,8.6e-4 -6.61e-4,5.73e-4 -0.399951,0.399543 -0.719788,0.719358 -0.01956,-0.0088 -0.14438,-0.01594 -0.30885,-0.01594 H 12.8716 l -0.568163,0.569887 c -0.312586,0.31354 -0.568164,0.58199 -0.568164,0.596594 -2e-6,0.01459 0.01632,0.04304 0.03661,0.06332 0.02869,0.0287 0.09001,0.03705 0.275682,0.03705 h 0.229161 c -0.07168,0.07539 -0.19987,0.205854 -0.19987,0.210639 0,0.0096 0.04519,0.06152 0.107258,0.129225 -0.149137,0.01675 -0.332364,0.100562 -0.527673,0.247253 -0.164686,0.123688 -0.1936,0.174556 -0.134826,0.239499 0.03234,0.03574 0.06035,0.04191 0.14301,0.03058 0.05649,-0.0077 0.102521,-0.0078 0.102521,0 0,0.0078 -0.04804,0.08831 -0.106828,0.179193 -0.122542,0.189431 -0.169946,0.292653 -0.211499,0.458322 -0.04235,0.168886 -0.03947,0.216398 0.01595,0.271805 0.04175,0.04171 0.06556,0.04685 0.158088,0.03317 0.176249,-0.02607 0.353173,-0.0978 0.550072,-0.22313 0.101376,-0.06452 0.190379,-0.117165 0.197715,-0.117165 0.0073,0 0.0069,0.04603 -8.83e-4,0.102519 -0.01134,0.08267 -0.0056,0.110668 0.03015,0.14301 0.06494,0.05877 0.116241,0.03029 0.23993,-0.134395 0.146328,-0.194823 0.22997,-0.378631 0.246821,-0.527242 0.06731,0.06177 0.118791,0.106396 0.128365,0.106396 0.006,0 0.124485,-0.113976 0.211499,-0.195993 v 0.09907 c 0,0.185976 0.0084,0.246992 0.03704,0.275683 0.02029,0.02027 0.04872,0.03704 0.06332,0.03704 0.0146,0 0.283053,-0.255577 0.596594,-0.568163 l 0.570318,-0.568595 v -0.323065 c 0,-0.07581 -0.002,-0.139417 -0.0043,-0.1947 l 0.707727,-0.707728 0.199007,-0.197716 c 0.31756,-0.315909 0.433093,-0.600363 0.441954,-1.085499 0.0061,-0.335995 0.0056,-0.336556 -0.330388,-0.330388 z"
         style="fill:#000000;stroke-width:0.02346282;stroke:#000000;stroke-opacity:1"
         inkscape:connector-curvature="0" />
    </g>
    <path
       style="display:inline;fill:#000000;stroke-width:0.4;stroke-miterlimit:4;stroke-dasharray:none;stroke:#000000;stroke-opacity:1"
       d="m 16.566822,51.649011 c -0.164609,-0.880833 -0.146611,-0.87169 -0.381902,-0.194047 -0.232136,0.66855 -0.267011,0.59884 -0.136055,-0.271944 0.04657,-0.309657 0.0615,-0.5487 0.03319,-0.531201 -0.02831,0.01751 -0.160214,0.238744 -0.293118,0.491661 -0.132903,0.252916 -0.250357,0.433701 -0.261008,0.401747 -0.01066,-0.03195 0.09433,-0.356406 0.23329,-0.721 0.13896,-0.364595 0.24002,-0.662902 0.22457,-0.662902 -0.01545,0 -0.204839,0.08923 -0.420877,0.198281 -0.216036,0.109053 -0.403256,0.187819 -0.41604,0.175033 -0.01278,-0.01278 0.142837,-0.152949 0.345829,-0.311473 l 0.369077,-0.19841 -2.603151,-0.0094 c -2.549454,-0.0092 -2.603154,-0.01955 -2.603154,-0.242836 0,-0.29091 0.01296,-0.27073 2.590295,-0.248388 l 2.590294,0.02246 -0.37494,-0.263507 c -0.397349,-0.382379 -0.380038,-0.387623 0.155585,-0.04713 0.185059,0.117642 0.351556,0.213894 0.369993,0.213894 0.01844,0 -0.08268,-0.324384 -0.224702,-0.720855 -0.142025,-0.396473 -0.246073,-0.733014 -0.231214,-0.74787 0.01486,-0.01486 0.149519,0.194914 0.299245,0.466155 0.149731,0.271244 0.280507,0.48408 0.29062,0.472971 0.01012,-0.0111 -0.02142,-0.282159 -0.07004,-0.602335 -0.130983,-0.86232 -0.104341,-0.90791 0.132303,-0.226387 0.235288,0.677644 0.21729,0.686788 0.381902,-0.194046 0.08497,-0.454631 0.09066,-0.336758 0.09066,1.875777 0,2.212536 -0.0057,2.330409 -0.09066,1.875779 z"
       id="path994"
       inkscape:connector-curvature="0"
       sodipodi:nodetypes="cccccccsccccssscccsccccccsscc"
       inkscape:export-filename="1laser.png"
       inkscape:export-xdpi="300"
       inkscape:export-ydpi="300" />
    <path
       inkscape:connector-curvature="0"
       style="fill:#000000;stroke:#000000;stroke-width:0.132;stroke-opacity:1;stroke-miterlimit:4;stroke-dasharray:none"
       d="m 16.411757,20.426265 c -0.382014,0.007 -0.725957,0.08206 -0.994423,0.217622 -0.09623,0.04859 -0.288789,0.202832 -0.446298,0.356689 -0.152072,0.148548 -0.291841,0.278948 -0.292684,0.289774 l -5.95e-4,-5.96e-4 c 0,0 -5.97e-4,0.0011 -5.97e-4,0.0011 -8.93e-4,7.75e-4 -0.540266,0.539715 -0.972312,0.971731 -0.02643,-0.01182 -0.195034,-0.02153 -0.417204,-0.02153 h -0.436989 l -0.767493,0.769821 c -0.422251,0.423538 -0.767491,0.786169 -0.767491,0.805896 -4e-6,0.01971 0.02204,0.05813 0.04946,0.08553 0.03875,0.03877 0.121583,0.05004 0.372399,0.05004 h 0.309557 c -0.09683,0.101835 -0.26999,0.278074 -0.26999,0.284537 0,0.01298 0.06104,0.0831 0.144887,0.174562 -0.201458,0.02262 -0.448968,0.135842 -0.712796,0.333997 -0.222463,0.167082 -0.26152,0.235796 -0.182128,0.323522 0.04369,0.04828 0.08154,0.05662 0.193183,0.04131 0.07631,-0.01047 0.138489,-0.01058 0.138489,0 0,0.01058 -0.06489,0.119297 -0.144307,0.24206 -0.165533,0.255889 -0.229568,0.395324 -0.285699,0.619115 -0.05722,0.228137 -0.05332,0.292318 0.02154,0.367162 0.0564,0.05634 0.08856,0.06329 0.213549,0.0448 0.238083,-0.03522 0.477078,-0.132117 0.743054,-0.301411 0.136943,-0.08716 0.257171,-0.158268 0.267079,-0.158268 0.0097,0 0.0093,0.06218 -0.0012,0.138484 -0.01531,0.111666 -0.0076,0.149494 0.04072,0.193183 0.08772,0.0794 0.157023,0.04091 0.324105,-0.181544 0.197664,-0.263174 0.31065,-0.511467 0.333415,-0.712215 0.09094,0.08345 0.160464,0.143723 0.173397,0.143723 0.0083,0 0.168158,-0.153962 0.285699,-0.264753 v 0.133831 c 0,0.251221 0.01129,0.333644 0.05004,0.3724 0.0274,0.02738 0.0658,0.05004 0.08553,0.05004 0.01973,0 0.382357,-0.345241 0.805897,-0.767492 l 0.770406,-0.768076 v -0.436405 c 0,-0.102409 -0.0027,-0.188329 -0.0059,-0.263008 l 0.95602,-0.95602 0.268825,-0.26708 c 0.428969,-0.426739 0.585034,-0.810988 0.597005,-1.466325 0.0084,-0.453872 0.0076,-0.454631 -0.446299,-0.446298 z"
       id="path974-3-6"
       inkscape:export-filename="1missile.png"
       inkscape:export-xdpi="300"
       inkscape:export-ydpi="300" />
    <path
       style="fill:#000000;stroke-width:0.01805271;stroke:#000000;stroke-opacity:1"
       d="m 11.0248,35.504226 c -0.03365,-0.0033 -0.068,0.0065 -0.09374,0.0298 -0.03104,0.0282 -0.03305,0.08119 -0.03305,0.941749 0,0.823251 0.0028,0.9152 0.0298,0.945 0.04572,0.05052 0.139957,0.04303 0.185316,-0.01463 0.01258,-0.01603 0.02047,-0.04145 0.02602,-0.08616 l 0.06394,0.06557 0.06665,0.06827 h 1.774584 1.774584 l 0.480086,-0.0082 c 0.574907,-0.0098 0.683647,-0.02925 0.986724,-0.177187 0.265621,-0.129655 0.445186,-0.292535 0.544567,-0.493633 0.06339,-0.128221 0.06774,-0.148204 0.06774,-0.300731 0,-0.140107 -0.0067,-0.178369 -0.04877,-0.26822 -0.09637,-0.205695 -0.383724,-0.446597 -0.686532,-0.575453 -0.256102,-0.108982 -0.384912,-0.117882 -0.794367,-0.123544 -0.203543,-0.0028 -0.409089,-0.0038 -0.456244,-0.0022 l -0.09319,-5.42e-4 h -1.772959 -1.772958 l -0.06827,0.06665 -0.0661,0.06449 c -0.0056,-0.04308 -0.01304,-0.06765 -0.02547,-0.08345 -0.02196,-0.02791 -0.05467,-0.04442 -0.08832,-0.04769 z"
       id="path1002-7"
       inkscape:connector-curvature="0"
       inkscape:export-filename="1bullet.png"
       inkscape:export-xdpi="300"
       inkscape:export-ydpi="300" />
    <g
       id="g1072"
       transform="matrix(0.81562005,0,0,0.81562005,5.6105467,9.0449706)"
       style="stroke:#000000;stroke-opacity:1;stroke-width:0.3874353;stroke-miterlimit:4;stroke-dasharray:none"
       inkscape:export-filename="2laser.png"
       inkscape:export-xdpi="300"
       inkscape:export-ydpi="300">
      <path
         sodipodi:nodetypes="cccccccsccccssscccsccccccsscc"
         inkscape:connector-curvature="0"
         id="path994-9"
         d="m 30.622372,50.349812 c -0.18184,-0.973035 -0.161958,-0.962935 -0.421878,-0.214359 -0.256435,0.738531 -0.294961,0.661524 -0.150297,-0.30041 0.05144,-0.342071 0.06794,-0.606136 0.03667,-0.586805 -0.03127,0.01934 -0.176985,0.263735 -0.323801,0.543126 -0.146814,0.27939 -0.276563,0.479099 -0.288329,0.4438 -0.01178,-0.03529 0.104201,-0.393713 0.25771,-0.796471 0.153506,-0.40276 0.265144,-0.732292 0.248077,-0.732292 -0.01707,0 -0.226281,0.09857 -0.464933,0.219036 -0.238649,0.120469 -0.445467,0.207479 -0.459589,0.193355 -0.01412,-0.01412 0.157789,-0.168959 0.382029,-0.344077 l 0.40771,-0.219178 -2.875637,-0.01042 c -2.81632,-0.01021 -2.875641,-0.0216 -2.875641,-0.268255 0,-0.321361 0.01432,-0.299068 2.861436,-0.274388 l 2.861435,0.02481 -0.414187,-0.29109 c -0.438942,-0.422404 -0.419819,-0.428197 0.17187,-0.05206 0.204431,0.129957 0.388356,0.236284 0.408723,0.236284 0.02037,0 -0.09134,-0.358339 -0.248223,-0.796311 -0.156892,-0.437974 -0.271831,-0.809743 -0.255417,-0.826154 0.01642,-0.01642 0.16517,0.215317 0.330569,0.51495 0.165404,0.299637 0.309869,0.534751 0.321041,0.52248 0.01118,-0.01226 -0.02366,-0.311695 -0.07737,-0.665385 -0.144694,-0.952584 -0.115263,-1.002946 0.146152,-0.250085 0.259916,0.748577 0.240034,0.758678 0.421877,-0.214357 0.09386,-0.50222 0.100148,-0.372009 0.100148,2.072125 0,2.444135 -0.0063,2.574346 -0.100148,2.072127 z"
         style="display:inline;fill:#000000;stroke-width:0.3874353;stroke:#000000;stroke-opacity:1;stroke-miterlimit:4;stroke-dasharray:none" />
      <path
         sodipodi:nodetypes="cccccccsccccssscccsccccccsscc"
         inkscape:connector-curvature="0"
         id="path994-3"
         d="m 30.657256,52.975834 c -0.18184,-0.973035 -0.161958,-0.962935 -0.421878,-0.214359 -0.256435,0.738531 -0.294961,0.661524 -0.150297,-0.30041 0.05144,-0.342071 0.06794,-0.606136 0.03667,-0.586805 -0.03127,0.01934 -0.176985,0.263735 -0.323801,0.543126 -0.146814,0.27939 -0.276563,0.479099 -0.288329,0.4438 -0.01178,-0.03529 0.104201,-0.393713 0.25771,-0.796471 0.153506,-0.40276 0.265144,-0.732292 0.248077,-0.732292 -0.01707,0 -0.226281,0.09857 -0.464933,0.219036 -0.238649,0.120469 -0.445467,0.207479 -0.459589,0.193355 -0.01412,-0.01412 0.157789,-0.168959 0.382029,-0.344077 l 0.40771,-0.219178 -2.875637,-0.01042 c -2.81632,-0.01021 -2.875641,-0.0216 -2.875641,-0.268255 0,-0.321361 0.01432,-0.299068 2.861436,-0.274388 l 2.861435,0.02481 -0.414187,-0.29109 c -0.438942,-0.422404 -0.419819,-0.428197 0.17187,-0.05206 0.204431,0.129957 0.388356,0.236284 0.408723,0.236284 0.02037,0 -0.09134,-0.358339 -0.248223,-0.796311 -0.156892,-0.437974 -0.271831,-0.809743 -0.255417,-0.826154 0.01642,-0.01642 0.16517,0.215317 0.330569,0.51495 0.165404,0.299637 0.309869,0.534751 0.321041,0.52248 0.01118,-0.01226 -0.02366,-0.311695 -0.07737,-0.665385 -0.144694,-0.952584 -0.115263,-1.002946 0.146152,-0.250085 0.259916,0.748577 0.240034,0.758678 0.421877,-0.214357 0.09386,-0.50222 0.100148,-0.372009 0.100148,2.072125 0,2.444135 -0.0063,2.574346 -0.100148,2.072127 z"
         style="display:inline;fill:#000000;stroke-width:0.3874353;stroke:#000000;stroke-opacity:1;stroke-miterlimit:4;stroke-dasharray:none" />
    </g>
    <g
       id="g1195"
       transform="matrix(0.87375564,0,0,0.87375564,3.2601013,2.9982915)"
       style="stroke:#000000;stroke-opacity:1"
       inkscape:export-filename="2missile.png"
       inkscape:export-xdpi="300"
       inkscape:export-ydpi="300">
      <path
         id="path974-3-6-6"
         d="m 27.682056,19.221815 c -0.295167,0.0054 -0.560918,0.06341 -0.768352,0.168147 -0.07435,0.03755 -0.223136,0.156721 -0.344837,0.2756 -0.1175,0.114778 -0.225494,0.215532 -0.226146,0.223898 l -4.68e-4,-4.62e-4 c 0,0 -4.67e-4,8.45e-4 -4.67e-4,8.45e-4 -6.92e-4,5.98e-4 -0.417442,0.417017 -0.751268,0.750819 -0.02041,-0.0091 -0.15068,-0.01663 -0.322342,-0.01663 h -0.337644 l -0.593012,0.59481 c -0.326257,0.327252 -0.593011,0.607442 -0.593011,0.622684 -3e-6,0.01523 0.01703,0.04492 0.03821,0.06609 0.02994,0.02996 0.09394,0.03867 0.287739,0.03867 h 0.239183 c -0.07482,0.07868 -0.208611,0.214857 -0.208611,0.219851 0,0.01003 0.04716,0.06421 0.111948,0.134877 -0.155659,0.01748 -0.3469,0.10496 -0.55075,0.258067 -0.171888,0.129097 -0.202066,0.18219 -0.140722,0.249972 0.03375,0.03731 0.063,0.04375 0.149264,0.03192 0.05897,-0.0081 0.107005,-0.0082 0.107005,0 0,0.0082 -0.05014,0.09218 -0.1115,0.187031 -0.127901,0.197715 -0.177378,0.305451 -0.220749,0.478365 -0.04421,0.176273 -0.04119,0.225863 0.01664,0.283692 0.04358,0.04353 0.06843,0.0489 0.165001,0.03462 0.183957,-0.02722 0.368619,-0.102082 0.574128,-0.232888 0.105811,-0.06734 0.198706,-0.122288 0.206362,-0.122288 0.0075,0 0.0072,0.04804 -9.22e-4,0.107001 -0.01183,0.08628 -0.0058,0.115509 0.03147,0.149265 0.06778,0.06135 0.121325,0.03161 0.250423,-0.140272 0.152728,-0.203344 0.240028,-0.39519 0.257618,-0.550301 0.07026,0.06448 0.123984,0.111049 0.133977,0.111049 0.0064,0 0.129929,-0.11896 0.220748,-0.204564 v 0.103406 c 0,0.194109 0.0087,0.257794 0.03867,0.287739 0.02117,0.02116 0.05084,0.03867 0.06609,0.03867 0.01524,0 0.295432,-0.266754 0.622685,-0.593011 l 0.595262,-0.593462 v -0.337193 c 0,-0.07913 -0.0021,-0.145515 -0.0045,-0.203216 l 0.738679,-0.738679 0.207711,-0.206363 c 0.331448,-0.329725 0.452033,-0.626618 0.461282,-1.132972 0.0065,-0.350689 0.0058,-0.351275 -0.344837,-0.344837 z"
         style="fill:#000000;stroke:#000000;stroke-width:0.02448894;stroke-opacity:1"
         inkscape:connector-curvature="0" />
      <path
         id="path974-3-6-6-2"
         d="m 29.953442,21.452768 c -0.295167,0.0054 -0.560918,0.06341 -0.768352,0.168147 -0.07435,0.03755 -0.223136,0.156721 -0.344837,0.2756 -0.1175,0.114778 -0.225494,0.215532 -0.226146,0.223898 l -4.76e-4,-4.63e-4 c 0,0 -4.76e-4,8.44e-4 -4.76e-4,8.44e-4 -6.88e-4,5.98e-4 -0.417442,0.417018 -0.751268,0.75082 -0.02039,-0.0091 -0.150663,-0.01663 -0.322325,-0.01663 h -0.337644 l -0.593012,0.59481 c -0.326257,0.327252 -0.593011,0.607442 -0.593011,0.622684 -3e-6,0.01523 0.01703,0.04492 0.03821,0.06609 0.02994,0.02996 0.09394,0.03867 0.287739,0.03867 h 0.239183 c -0.07482,0.07868 -0.208611,0.214857 -0.208611,0.219851 0,0.01003 0.04716,0.06421 0.111948,0.134876 -0.155659,0.01748 -0.3469,0.10496 -0.55075,0.258067 -0.171888,0.129097 -0.202066,0.18219 -0.140722,0.249972 0.03375,0.03731 0.063,0.04375 0.149264,0.03192 0.05897,-0.0081 0.107005,-0.0082 0.107005,0 0,0.0082 -0.05014,0.09218 -0.1115,0.187031 -0.127901,0.197715 -0.177378,0.305451 -0.220749,0.478365 -0.04421,0.176273 -0.04119,0.225863 0.01664,0.283692 0.04358,0.04353 0.06843,0.0489 0.165001,0.03462 0.183957,-0.02722 0.368619,-0.102081 0.574128,-0.232887 0.105811,-0.06734 0.198706,-0.122289 0.206362,-0.122289 0.0075,0 0.0072,0.04804 -9.21e-4,0.107001 -0.01183,0.08628 -0.0058,0.11551 0.03147,0.149265 0.06778,0.06135 0.121325,0.03161 0.250423,-0.140272 0.152728,-0.203344 0.240028,-0.39519 0.257618,-0.5503 0.07026,0.06448 0.123984,0.111048 0.133977,0.111048 0.0064,0 0.129929,-0.118959 0.220748,-0.204564 v 0.103406 c 0,0.194109 0.0087,0.257794 0.03867,0.287739 0.02117,0.02116 0.05084,0.03867 0.06609,0.03867 0.01524,0 0.295432,-0.266754 0.622685,-0.593011 l 0.595262,-0.593462 v -0.337192 c 0,-0.07913 -0.0021,-0.145515 -0.0045,-0.203216 l 0.738679,-0.738679 0.207711,-0.206363 c 0.331448,-0.329725 0.452033,-0.626619 0.461282,-1.132973 0.0065,-0.350689 0.0058,-0.351275 -0.344837,-0.344837 z"
         style="fill:#000000;stroke:#000000;stroke-width:0.02448894;stroke-opacity:1"
         inkscape:connector-curvature="0" />
    </g>
    <g
       id="g1271"
       transform="matrix(0.89445158,0,0,0.89445158,4.557604,2.5495345)"
       style="stroke:#000000;stroke-opacity:1"
       inkscape:export-filename="3missiles.png"
       inkscape:export-xdpi="300"
       inkscape:export-ydpi="300">
      <path
         id="path974-3-6-6-8"
         d="m 40.42117,19.078659 c -0.295167,0.0054 -0.560918,0.06341 -0.768352,0.168147 -0.07435,0.03755 -0.223136,0.156721 -0.344837,0.2756 -0.1175,0.114778 -0.225494,0.215532 -0.226146,0.223898 l -4.68e-4,-4.62e-4 c 0,0 -4.67e-4,8.45e-4 -4.67e-4,8.45e-4 -6.92e-4,5.98e-4 -0.417442,0.417017 -0.751268,0.750819 -0.02041,-0.0091 -0.15068,-0.01663 -0.322342,-0.01663 h -0.337644 l -0.593012,0.59481 c -0.326257,0.327252 -0.593011,0.607442 -0.593011,0.622684 -3e-6,0.01523 0.01703,0.04492 0.03821,0.06609 0.02994,0.02996 0.09394,0.03867 0.287739,0.03867 h 0.239183 c -0.07482,0.07868 -0.208611,0.214857 -0.208611,0.219851 0,0.01003 0.04716,0.06421 0.111948,0.134877 -0.155659,0.01748 -0.3469,0.10496 -0.55075,0.258067 -0.171888,0.129097 -0.202066,0.18219 -0.140722,0.249972 0.03375,0.03731 0.063,0.04375 0.149264,0.03192 0.05897,-0.0081 0.107005,-0.0082 0.107005,0 0,0.0082 -0.05014,0.09218 -0.1115,0.187031 -0.127901,0.197715 -0.177378,0.305451 -0.220749,0.478365 -0.04421,0.176273 -0.04119,0.225863 0.01664,0.283692 0.04358,0.04353 0.06843,0.0489 0.165001,0.03462 0.183957,-0.02722 0.368619,-0.102082 0.574128,-0.232888 0.105811,-0.06734 0.198706,-0.122288 0.206362,-0.122288 0.0075,0 0.0072,0.04804 -9.22e-4,0.107001 -0.01183,0.08628 -0.0058,0.115509 0.03147,0.149265 0.06778,0.06135 0.121325,0.03161 0.250423,-0.140272 0.152728,-0.203344 0.240028,-0.39519 0.257618,-0.550301 0.07026,0.06448 0.123984,0.111049 0.133977,0.111049 0.0064,0 0.129929,-0.11896 0.220748,-0.204564 v 0.103406 c 0,0.194109 0.0087,0.257794 0.03867,0.287739 0.02117,0.02116 0.05084,0.03867 0.06609,0.03867 0.01524,0 0.295432,-0.266754 0.622685,-0.593011 l 0.595262,-0.593462 v -0.337193 c 0,-0.07913 -0.0021,-0.145515 -0.0045,-0.203216 l 0.738679,-0.738679 0.207711,-0.206363 c 0.331448,-0.329725 0.452033,-0.626618 0.461282,-1.132972 0.0065,-0.350689 0.0058,-0.351275 -0.344837,-0.344837 z"
         style="fill:#000000;stroke:#000000;stroke-width:0.02448894;stroke-opacity:1"
         inkscape:connector-curvature="0" />
      <path
         id="path974-3-6-6-2-7"
         d="m 43.668208,22.268728 c -0.295167,0.0054 -0.560918,0.06341 -0.768352,0.168147 -0.07435,0.03755 -0.223136,0.156721 -0.344837,0.2756 -0.1175,0.114778 -0.225494,0.215532 -0.226146,0.223898 l -4.76e-4,-4.63e-4 c 0,0 -4.76e-4,8.44e-4 -4.76e-4,8.44e-4 -6.88e-4,5.98e-4 -0.417442,0.417018 -0.751268,0.75082 -0.02039,-0.0091 -0.150663,-0.01663 -0.322325,-0.01663 h -0.337644 l -0.593012,0.59481 c -0.326257,0.327252 -0.593011,0.607442 -0.593011,0.622684 -3e-6,0.01523 0.01703,0.04492 0.03821,0.06609 0.02994,0.02996 0.09394,0.03867 0.287739,0.03867 h 0.239183 c -0.07482,0.07868 -0.208611,0.214857 -0.208611,0.219851 0,0.01003 0.04716,0.06421 0.111948,0.134876 -0.155659,0.01748 -0.3469,0.10496 -0.55075,0.258067 -0.171888,0.129097 -0.202066,0.18219 -0.140722,0.249972 0.03375,0.03731 0.063,0.04375 0.149264,0.03192 0.05897,-0.0081 0.107005,-0.0082 0.107005,0 0,0.0082 -0.05014,0.09218 -0.1115,0.187031 -0.127901,0.197715 -0.177378,0.305451 -0.220749,0.478365 -0.04421,0.176273 -0.04119,0.225863 0.01664,0.283692 0.04358,0.04353 0.06843,0.0489 0.165001,0.03462 0.183957,-0.02722 0.368619,-0.102081 0.574128,-0.232887 0.105811,-0.06734 0.198706,-0.122289 0.206362,-0.122289 0.0075,0 0.0072,0.04804 -9.21e-4,0.107001 -0.01183,0.08628 -0.0058,0.11551 0.03147,0.149265 0.06778,0.06135 0.121325,0.03161 0.250423,-0.140272 0.152728,-0.203344 0.240028,-0.39519 0.257618,-0.5503 0.07026,0.06448 0.123984,0.111048 0.133977,0.111048 0.0064,0 0.129929,-0.118959 0.220748,-0.204564 V 26.092 c 0,0.194109 0.0087,0.257794 0.03867,0.287739 0.02117,0.02116 0.05084,0.03867 0.06609,0.03867 0.01524,0 0.295432,-0.266754 0.622685,-0.593011 l 0.595262,-0.593462 v -0.337192 c 0,-0.07913 -0.0021,-0.145515 -0.0045,-0.203216 l 0.738679,-0.738679 0.207711,-0.206363 c 0.331448,-0.329725 0.452033,-0.626619 0.461282,-1.132973 0.0065,-0.350689 0.0058,-0.351275 -0.344837,-0.344837 z"
         style="fill:#000000;stroke:#000000;stroke-width:0.02448894;stroke-opacity:1"
         inkscape:connector-curvature="0" />
      <path
         id="path974-3-6-6-2-7-9"
         d="m 43.469457,19.27817 c -0.295167,0.0054 -0.560918,0.06341 -0.768352,0.168147 -0.07435,0.03755 -0.223136,0.156721 -0.344837,0.2756 -0.1175,0.114778 -0.225494,0.215532 -0.226146,0.223898 l -4.76e-4,-4.63e-4 c 0,0 -4.77e-4,8.44e-4 -4.77e-4,8.44e-4 -6.88e-4,5.98e-4 -0.417442,0.417018 -0.751268,0.75082 -0.02039,-0.0091 -0.150662,-0.01663 -0.322324,-0.01663 h -0.337644 l -0.593012,0.59481 c -0.326257,0.327252 -0.593011,0.607442 -0.593011,0.622684 -3e-6,0.01523 0.01703,0.04492 0.03821,0.06609 0.02994,0.02996 0.09394,0.03867 0.287739,0.03867 h 0.239183 c -0.07482,0.07868 -0.208611,0.214857 -0.208611,0.219851 0,0.01003 0.04716,0.06421 0.111948,0.134876 -0.155659,0.01748 -0.3469,0.10496 -0.55075,0.258067 -0.171888,0.129097 -0.202066,0.18219 -0.140722,0.249972 0.03375,0.03731 0.063,0.04375 0.149264,0.03192 0.05897,-0.0081 0.107005,-0.0082 0.107005,0 0,0.0082 -0.05014,0.09218 -0.1115,0.187031 -0.127901,0.197715 -0.177378,0.305451 -0.220749,0.478365 -0.04421,0.176273 -0.04119,0.225863 0.01664,0.283692 0.04358,0.04353 0.06843,0.0489 0.165001,0.03462 0.183957,-0.02722 0.368619,-0.102081 0.574128,-0.232887 0.105811,-0.06734 0.198706,-0.122289 0.206362,-0.122289 0.0075,0 0.0072,0.04804 -9.21e-4,0.107001 -0.01183,0.08628 -0.0058,0.11551 0.03147,0.149265 0.06778,0.06135 0.121325,0.03161 0.250423,-0.140272 0.152728,-0.203344 0.240028,-0.39519 0.257618,-0.5503 0.07026,0.06448 0.123984,0.111048 0.133977,0.111048 0.0064,0 0.129929,-0.118959 0.220748,-0.204564 v 0.103406 c 0,0.194109 0.0087,0.257794 0.03867,0.287739 0.02117,0.02116 0.05084,0.03867 0.06609,0.03867 0.01524,0 0.295432,-0.266754 0.622685,-0.593011 l 0.595262,-0.593462 v -0.337192 c 0,-0.07913 -0.0021,-0.145515 -0.0045,-0.203216 l 0.738679,-0.738679 0.207711,-0.206363 c 0.331448,-0.329725 0.452033,-0.626619 0.461282,-1.132973 0.0065,-0.350689 0.0058,-0.351275 -0.344837,-0.344837 z"
         style="fill:#000000;stroke:#000000;stroke-width:0.02448894;stroke-opacity:1"
         inkscape:connector-curvature="0" />
    </g>
    <g
       id="g1258"
       transform="translate(-0.13508792,0.12166979)"
       style="stroke:#000000;stroke-opacity:1"
       inkscape:export-filename="2bullets.png"
       inkscape:export-xdpi="300"
       inkscape:export-ydpi="300">
      <path
         inkscape:connector-curvature="0"
         id="path1002-7-2"
         d="m 24.723817,34.352165 c -0.03365,-0.0033 -0.068,0.0065 -0.09374,0.0298 -0.03104,0.0282 -0.03305,0.08119 -0.03305,0.941749 0,0.823251 0.0028,0.9152 0.0298,0.945 0.04572,0.05052 0.139957,0.04303 0.185316,-0.01463 0.01258,-0.01603 0.02047,-0.04145 0.02602,-0.08616 l 0.06394,0.06557 0.06665,0.06827 h 1.774584 1.774584 l 0.480086,-0.0082 c 0.574907,-0.0098 0.683647,-0.02925 0.986724,-0.177186 0.265621,-0.129656 0.445186,-0.292535 0.544567,-0.493634 0.06339,-0.128221 0.06774,-0.148204 0.06774,-0.300731 0,-0.140107 -0.0067,-0.178369 -0.04877,-0.26822 -0.09637,-0.205695 -0.383724,-0.446597 -0.686532,-0.575453 -0.256102,-0.108982 -0.384912,-0.117882 -0.794367,-0.123544 -0.203543,-0.0028 -0.409089,-0.0038 -0.456244,-0.0022 l -0.09319,-5.42e-4 h -1.772959 -1.772958 l -0.06827,0.06665 -0.0661,0.06449 c -0.0056,-0.04308 -0.01304,-0.06765 -0.02547,-0.08345 -0.02196,-0.02791 -0.05467,-0.04442 -0.08832,-0.04769 z"
         style="fill:#000000;stroke-width:0.01805271;stroke:#000000;stroke-opacity:1" />
      <path
         inkscape:connector-curvature="0"
         id="path1002-7-0"
         d="m 24.723817,36.813849 c -0.03365,-0.0033 -0.068,0.0065 -0.09374,0.0298 -0.03104,0.0282 -0.03305,0.08119 -0.03305,0.941749 0,0.823251 0.0028,0.9152 0.0298,0.945 0.04572,0.05052 0.139957,0.04303 0.185316,-0.01463 0.01258,-0.01603 0.02047,-0.04145 0.02602,-0.08616 l 0.06394,0.06557 0.06665,0.06827 h 1.774584 1.774584 l 0.480086,-0.0082 c 0.574907,-0.0098 0.683647,-0.02925 0.986724,-0.177187 0.265621,-0.129655 0.445186,-0.292535 0.544567,-0.493633 0.06339,-0.128221 0.06774,-0.148204 0.06774,-0.300731 0,-0.140107 -0.0067,-0.178369 -0.04877,-0.26822 -0.09637,-0.205695 -0.383724,-0.446597 -0.686532,-0.575453 -0.256102,-0.108982 -0.384912,-0.117882 -0.794367,-0.123544 -0.203543,-0.0028 -0.409089,-0.0038 -0.456244,-0.0022 l -0.09319,-5.42e-4 h -1.772959 -1.772958 l -0.06827,0.06665 -0.0661,0.06449 c -0.0056,-0.04308 -0.01304,-0.06765 -0.02547,-0.08345 -0.02196,-0.02791 -0.05467,-0.04442 -0.08832,-0.04769 z"
         style="fill:#000000;stroke-width:0.01805271;stroke:#000000;stroke-opacity:1" />
    </g>
    <g
       id="g1314"
       style="stroke:#000000;stroke-opacity:1"
       transform="matrix(0.99710634,0,0,0.99710634,0.12009305,0.10555998)"
       inkscape:export-filename="3bullets.png"
       inkscape:export-xdpi="300"
       inkscape:export-ydpi="300">
      <path
         inkscape:connector-curvature="0"
         id="path1002-7-2-3"
         d="m 38.791441,35.598415 c -0.03173,-0.0031 -0.06413,0.0061 -0.0884,0.0281 -0.02927,0.02659 -0.03117,0.07657 -0.03117,0.888129 0,0.776379 0.0026,0.863092 0.0281,0.891196 0.04312,0.04764 0.131989,0.04058 0.174765,-0.0138 0.01186,-0.01512 0.01931,-0.03909 0.02454,-0.08125 l 0.0603,0.06184 0.06285,0.06438 h 1.673546 1.673547 l 0.452751,-0.0077 c 0.542174,-0.0092 0.644723,-0.02758 0.930544,-0.167098 0.250498,-0.122274 0.419839,-0.275879 0.513562,-0.465528 0.05978,-0.120921 0.06388,-0.139766 0.06388,-0.283609 0,-0.13213 -0.0063,-0.168213 -0.04599,-0.252948 -0.09088,-0.193984 -0.361877,-0.42117 -0.647444,-0.542689 -0.241521,-0.102777 -0.362997,-0.111171 -0.749139,-0.11651 -0.191954,-0.0026 -0.385797,-0.0036 -0.430267,-0.0021 l -0.08788,-5.11e-4 H 40.697523 39.02551 l -0.06438,0.06285 -0.06234,0.06082 c -0.0053,-0.04063 -0.0123,-0.0638 -0.02402,-0.0787 -0.02071,-0.02632 -0.05156,-0.04189 -0.08329,-0.04498 z"
         style="fill:#000000;stroke:#000000;stroke-width:0.01702486;stroke-opacity:1" />
      <path
         inkscape:connector-curvature="0"
         id="path1002-7-0-7"
         d="m 38.791441,37.678538 c -0.03173,-0.0031 -0.06413,0.0061 -0.0884,0.0281 -0.02927,0.0266 -0.03117,0.07657 -0.03117,0.88813 0,0.776378 0.0026,0.863092 0.0281,0.891195 0.04312,0.04764 0.131989,0.04058 0.174765,-0.0138 0.01186,-0.01512 0.01931,-0.03909 0.02454,-0.08125 l 0.0603,0.06184 0.06285,0.06438 h 1.673546 1.673547 l 0.452751,-0.0077 c 0.542174,-0.0092 0.644723,-0.02758 0.930544,-0.167098 0.250498,-0.122273 0.419839,-0.275879 0.513562,-0.465528 0.05978,-0.12092 0.06388,-0.139765 0.06388,-0.283608 0,-0.13213 -0.0063,-0.168214 -0.04599,-0.252949 -0.09088,-0.193983 -0.361877,-0.421169 -0.647444,-0.542689 -0.241521,-0.102777 -0.362997,-0.11117 -0.749139,-0.11651 -0.191954,-0.0026 -0.385797,-0.0036 -0.430267,-0.0021 l -0.08788,-5.12e-4 H 40.697523 39.02551 l -0.06438,0.06286 -0.06234,0.06082 c -0.0053,-0.04063 -0.0123,-0.0638 -0.02402,-0.0787 -0.02071,-0.02632 -0.05156,-0.04189 -0.08329,-0.04498 z"
         style="fill:#000000;stroke:#000000;stroke-width:0.01702486;stroke-opacity:1" />
      <path
         inkscape:connector-curvature="0"
         id="path1002-7-2-3-5"
         d="m 38.79452,33.518312 c -0.03173,-0.0031 -0.06413,0.0061 -0.0884,0.0281 -0.02927,0.02659 -0.03117,0.07657 -0.03117,0.88813 0,0.776378 0.0026,0.863092 0.0281,0.891195 0.04312,0.04764 0.131989,0.04058 0.174765,-0.0138 0.01186,-0.01512 0.01931,-0.03909 0.02454,-0.08125 l 0.0603,0.06184 0.06285,0.06438 h 1.673547 1.673546 l 0.452751,-0.0077 c 0.542175,-0.0092 0.644723,-0.02759 0.930544,-0.167098 0.250498,-0.122274 0.419839,-0.275879 0.513562,-0.465528 0.05978,-0.120921 0.06388,-0.139766 0.06388,-0.283609 0,-0.13213 -0.0063,-0.168213 -0.04599,-0.252948 -0.09088,-0.193984 -0.361877,-0.42117 -0.647444,-0.542689 -0.24152,-0.102777 -0.362996,-0.11117 -0.749139,-0.11651 -0.191954,-0.0026 -0.385797,-0.0036 -0.430267,-0.0021 l -0.08788,-5.11e-4 H 40.700602 39.02859 l -0.06438,0.06286 -0.06234,0.06082 c -0.0053,-0.04063 -0.0123,-0.0638 -0.02402,-0.0787 -0.02071,-0.02632 -0.05156,-0.04189 -0.08329,-0.04498 z"
         style="fill:#000000;stroke:#000000;stroke-width:0.01702486;stroke-opacity:1" />
    </g>
    <path
       style="fill:#000000;stroke:#000000;stroke-width:0.304;stroke-miterlimit:4;stroke-dasharray:none;stroke-opacity:1"
       d="m 12.347323,82.120653 c 0.06813,-0.01676 0.12391,-0.05027 0.173369,-0.103893 0.06575,-0.07135 0.08471,-0.11436 0.09064,-0.205715 l 0.0052,-0.08002 0.463523,-0.46342 0.463521,-0.46342 0.115992,-9.63e-4 c 0.152087,-9.63e-4 0.21165,-0.02764 0.336346,-0.149027 l 0.0888,-0.08647 0.205314,0.204233 c 0.201401,0.200332 0.206219,0.204232 0.252841,0.204232 0.06561,0 0.102632,-0.03707 0.102632,-0.102718 0,-0.0469 -0.0033,-0.05094 -0.229998,-0.278553 l -0.229998,-0.230954 1.283378,-1.285058 c 1.446572,-1.448462 1.518671,-1.526596 1.828086,-1.981012 0.192678,-0.282973 0.401773,-0.649838 0.401773,-0.704929 0,-0.0181 -0.0088,-0.03418 -0.0226,-0.0416 -0.04795,-0.02571 -0.578425,0.290021 -0.937775,0.558059 -0.300842,0.224396 -0.414886,0.332882 -1.72825,1.644008 l -1.313542,1.311299 -0.218691,-0.219938 c -0.12028,-0.120966 -0.233847,-0.226544 -0.25237,-0.234623 -0.07183,-0.0313 -0.151537,0.0235 -0.151537,0.104143 0,0.03765 0.01508,0.05575 0.207619,0.249231 l 0.207618,0.208662 -0.08467,0.08387 c -0.0571,0.05652 -0.09637,0.107561 -0.120622,0.156672 -0.03348,0.06779 -0.03594,0.08069 -0.03564,0.187756 l 2.87e-4,0.114938 -0.455249,0.455148 -0.455251,0.455149 -0.07393,0.0039 c -0.08995,0.0048 -0.160143,0.03447 -0.225324,0.09456 -0.08026,0.07395 -0.104224,0.133735 -0.104224,0.25993 0,0.09688 0.0029,0.111587 0.03182,0.160765 0.0175,0.02976 0.0478,0.06962 0.06735,0.08859 0.07323,0.07097 0.216701,0.110778 0.313533,0.08686 z"
       id="path1327"
       inkscape:connector-curvature="0"
       sodipodi:nodetypes="cccccccsccssscssscsscscsscscccccccscscc"
       inkscape:export-filename="1sword.png"
       inkscape:export-xdpi="300"
       inkscape:export-ydpi="300" />
    <path
       style="fill:#000000;stroke:#000000;stroke-width:0.19;stroke-miterlimit:4;stroke-dasharray:none;stroke-opacity:1"
       d="m 25.676633,80.987308 c 0.06356,-0.01564 0.115618,-0.04692 0.161768,-0.09694 0.06135,-0.06658 0.07904,-0.106707 0.08457,-0.191948 l 0.0047,-0.07466 0.432504,-0.432408 0.432503,-0.432408 0.108229,-8.99e-4 c 0.141909,-8.98e-4 0.197487,-0.02579 0.313837,-0.139052 l 0.08286,-0.08069 0.191574,0.190565 c 0.187925,0.186926 0.192419,0.190565 0.235922,0.190565 0.06122,0 0.09576,-0.03459 0.09576,-0.09585 0,-0.04375 -0.0033,-0.04754 -0.214605,-0.259912 l -0.214606,-0.21549 1.197494,-1.199063 c 1.349767,-1.351529 1.417039,-1.424434 1.705749,-1.848441 0.179783,-0.264034 0.374887,-0.606351 0.374887,-0.657754 0,-0.01688 -0.0083,-0.0319 -0.02108,-0.03881 -0.04475,-0.02399 -0.539715,0.270613 -0.875017,0.520715 -0.28071,0.209379 -0.387122,0.310604 -1.612594,1.53399 l -1.225639,1.223545 -0.204057,-0.205221 c -0.112231,-0.112869 -0.218198,-0.211382 -0.235482,-0.218921 -0.06702,-0.02922 -0.141394,0.02192 -0.141394,0.09717 0,0.03512 0.01406,0.05202 0.193723,0.232553 l 0.193725,0.194698 -0.07901,0.07826 c -0.05329,0.05273 -0.08993,0.100364 -0.112549,0.146188 -0.03125,0.06325 -0.03354,0.0753 -0.03325,0.175192 l 2.68e-4,0.107246 -0.424783,0.424691 -0.424786,0.424688 -0.06898,0.0035 c -0.08392,0.0043 -0.149427,0.03218 -0.210246,0.08823 -0.07488,0.069 -0.09725,0.124784 -0.09725,0.242535 0,0.0904 0.0029,0.104118 0.02969,0.150006 0.01633,0.02777 0.0446,0.06495 0.06284,0.08266 0.06832,0.06622 0.2022,0.103364 0.292552,0.08104 z"
       id="path1327-2"
       inkscape:connector-curvature="0"
       sodipodi:nodetypes="cccccccsccssscssscsscscsscscccccccscscc"
       inkscape:export-filename="2sword.png"
       inkscape:export-xdpi="300"
       inkscape:export-ydpi="300" />
    <path
       style="fill:#000000;stroke:#000000;stroke-width:0.19;stroke-miterlimit:4;stroke-dasharray:none;stroke-opacity:1"
       d="m 27.262353,82.479097 c 0.06356,-0.01564 0.115619,-0.04691 0.161766,-0.09694 0.06135,-0.06658 0.07904,-0.106709 0.08457,-0.19195 l 0.0047,-0.07465 0.432502,-0.432407 0.432503,-0.432409 0.10823,-9e-4 c 0.141909,-8.97e-4 0.197487,-0.02579 0.313836,-0.139052 l 0.08287,-0.08069 0.191573,0.190566 c 0.187923,0.186925 0.19242,0.190564 0.235921,0.190564 0.06122,0 0.09576,-0.03459 0.09576,-0.09585 0,-0.04375 -0.0033,-0.04754 -0.214605,-0.259911 l -0.214607,-0.21549 1.197494,-1.199061 c 1.349767,-1.351531 1.417038,-1.424436 1.70575,-1.848442 0.179784,-0.264037 0.374885,-0.606351 0.374885,-0.657756 0,-0.01689 -0.0083,-0.0319 -0.02108,-0.03881 -0.04475,-0.02399 -0.539716,0.270612 -0.875018,0.520714 -0.28071,0.209379 -0.387121,0.310606 -1.612595,1.53399 l -1.225639,1.223546 -0.204056,-0.205221 c -0.11223,-0.112869 -0.218198,-0.211383 -0.235481,-0.218921 -0.06702,-0.02921 -0.141396,0.02192 -0.141396,0.09717 0,0.03512 0.01406,0.05203 0.193725,0.232551 l 0.193724,0.194699 -0.079,0.07826 c -0.0533,0.05273 -0.08993,0.100365 -0.112551,0.14619 -0.03125,0.06324 -0.03354,0.07529 -0.03325,0.175191 l 2.69e-4,0.107245 -0.424785,0.424691 -0.424783,0.424689 -0.06899,0.0035 c -0.08392,0.0043 -0.149427,0.03218 -0.210247,0.08823 -0.07488,0.069 -0.09725,0.124785 -0.09725,0.242534 0,0.0904 0.0029,0.10412 0.02969,0.150008 0.01633,0.02778 0.0446,0.06495 0.06284,0.08266 0.06833,0.06622 0.2022,0.103365 0.29255,0.08104 z"
       id="path1327-28"
       inkscape:connector-curvature="0"
       sodipodi:nodetypes="cccccccsccssscssscsscscsscscccccccscscc"
       inkscape:export-filename="2sword.png"
       inkscape:export-xdpi="300"
       inkscape:export-ydpi="300" />
    <path
       style="display:inline;fill:#000000;stroke-width:0.01172598"
       d="m 15.152129,97.169105 c -0.319177,-0.108727 -0.796817,-0.463934 -1.155583,-0.859372 -0.589076,-0.649287 -0.95936,-1.370871 -1.128579,-2.199296 -0.07021,-0.343745 -0.07793,-0.445655 -0.08371,-1.10655 -0.0054,-0.609938 -0.0053,-0.612889 0.02007,-0.665178 0.01398,-0.02889 0.04024,-0.06499 0.05835,-0.08022 0.01811,-0.01525 0.558747,-0.261364 1.201419,-0.546949 1.136787,-0.505158 1.170156,-0.519105 1.229638,-0.514054 0.04882,0.0041 0.291541,0.107479 1.204425,0.51276 0.628807,0.279161 1.161546,0.521923 1.183867,0.539476 0.02232,0.01757 0.05304,0.05523 0.06826,0.08375 l 0.02768,0.05185 -0.0053,0.609751 c -0.004,0.466883 -0.0097,0.644096 -0.02418,0.756325 -0.12609,0.977926 -0.516166,1.818137 -1.187736,2.558347 -0.362559,0.399622 -0.866575,0.772381 -1.16901,0.864586 -0.102384,0.03121 -0.134753,0.0305 -0.239614,-0.0052 z"
       id="path1391"
       inkscape:connector-curvature="0"
       inkscape:export-filename="shield.png"
       inkscape:export-xdpi="300"
       inkscape:export-ydpi="300" />
    <path
       style="display:inline;fill:#000000;stroke:#000000;stroke-width:0.04;stroke-miterlimit:4;stroke-dasharray:none;stroke-opacity:1"
       d="m 14.286524,110.63199 c 0.14395,-0.59871 0.147114,-1.51094 0.0052,-1.51094 -0.03426,0 -0.140636,-0.0459 -0.236396,-0.10203 -0.163843,-0.096 -0.185885,-0.0992 -0.37392,-0.0541 -0.515549,0.12367 -1.093888,-0.28525 -1.097369,-0.77592 -5.98e-4,-0.0743 -0.03401,-0.15174 -0.08545,-0.1975 -0.135933,-0.12094 -0.229616,-0.37025 -0.230565,-0.61358 -0.001,-0.27119 0.07405,-0.46189 0.249905,-0.63452 0.103528,-0.10163 0.137723,-0.17262 0.15368,-0.31907 0.04148,-0.38062 0.372002,-0.69946 0.75832,-0.73149 0.205449,-0.017 0.210977,-0.0208 0.256648,-0.1732 0.06681,-0.22298 0.309193,-0.44967 0.560662,-0.52435 0.25528,-0.0758 0.287364,-0.0759 0.536429,-0.002 0.128968,0.0383 0.255116,0.11433 0.354401,0.21362 l 0.154156,0.15415 0.209625,-0.0544 c 0.37556,-0.0974 0.732733,0.0342 0.957258,0.35272 0.08358,0.11858 0.167097,0.18651 0.265928,0.2163 0.407117,0.1227 0.691677,0.59964 0.600079,1.00578 -0.02409,0.10681 -0.01465,0.16478 0.04058,0.24895 0.122817,0.18723 0.169671,0.46204 0.116537,0.68353 -0.05036,0.20991 -0.254498,0.48253 -0.429445,0.5735 -0.07026,0.0365 -0.127665,0.11987 -0.174639,0.25353 -0.165408,0.47067 -0.648952,0.70065 -1.134259,0.53945 l -0.207268,-0.0688 -0.157824,0.15782 c -0.24361,0.24361 -0.29013,0.64912 -0.148147,1.29139 0.04298,0.19444 0.07815,0.35886 0.07815,0.3654 0,0.007 -0.24658,0.0119 -0.547958,0.0119 h -0.547958 z"
       id="path1419"
       inkscape:connector-curvature="0"
       sodipodi:nodetypes="cscccccccccscccccccccccccccsscc"
       inkscape:export-filename="1tree.png"
       inkscape:export-xdpi="300"
       inkscape:export-ydpi="300" />
    <g
       style="display:inline"
       id="g868"
       inkscape:export-filename="2trees.png"
       inkscape:export-xdpi="300"
       inkscape:export-ydpi="300">
      <path
         sodipodi:nodetypes="cscccccccccscccccccccccccccsscc"
         inkscape:connector-curvature="0"
         id="path1419-1"
         d="m 31.138038,109.76009 c 0.122425,-0.50919 0.125116,-1.28502 0.0044,-1.28502 -0.02914,0 -0.119607,-0.039 -0.201049,-0.0868 -0.139344,-0.0816 -0.158091,-0.0844 -0.31801,-0.046 -0.438461,0.10518 -0.930324,-0.24259 -0.933285,-0.6599 -5.08e-4,-0.0632 -0.02892,-0.12905 -0.07267,-0.16797 -0.115608,-0.10285 -0.195283,-0.31488 -0.19609,-0.52183 -8.5e-4,-0.23064 0.06298,-0.39283 0.212538,-0.53964 0.08805,-0.0864 0.11713,-0.14682 0.130701,-0.27137 0.03528,-0.32371 0.316379,-0.59488 0.644933,-0.62212 0.174729,-0.0145 0.17943,-0.0177 0.218272,-0.1473 0.05682,-0.18964 0.262961,-0.38243 0.47683,-0.44595 0.217109,-0.0645 0.244396,-0.0645 0.456219,-0.002 0.109684,0.0326 0.21697,0.0972 0.301409,0.18168 l 0.131106,0.1311 0.178281,-0.0463 c 0.319405,-0.0828 0.623171,0.0291 0.814124,0.29998 0.07108,0.10084 0.142112,0.15862 0.226166,0.18395 0.346242,0.10436 0.588254,0.50998 0.510352,0.8554 -0.02049,0.0908 -0.01246,0.14014 0.03451,0.21173 0.104453,0.15923 0.144301,0.39295 0.09911,0.58132 -0.04283,0.17853 -0.216444,0.41038 -0.365232,0.48775 -0.05975,0.031 -0.108576,0.10195 -0.148526,0.21562 -0.140676,0.4003 -0.551918,0.59589 -0.96466,0.45879 l -0.176276,-0.0585 -0.134225,0.13422 c -0.207185,0.20718 -0.246749,0.55206 -0.125996,1.0983 0.03655,0.16536 0.06647,0.3052 0.06647,0.31076 0,0.006 -0.20971,0.0101 -0.466025,0.0101 h -0.466024 z"
         style="display:inline;fill:#000000;stroke-width:0.03359529" />
      <path
         sodipodi:nodetypes="cscccccccccscccccccccccccccsscc"
         inkscape:connector-curvature="0"
         id="path1419-2"
         d="m 29.591014,109.70383 c 0.122426,-0.50919 0.125117,-1.28502 0.0044,-1.28502 -0.02914,0 -0.119607,-0.039 -0.201049,-0.0868 -0.139344,-0.0816 -0.15809,-0.0844 -0.318009,-0.046 -0.438462,0.10518 -0.930325,-0.24259 -0.933286,-0.6599 -5.08e-4,-0.0632 -0.02892,-0.12905 -0.07267,-0.16796 -0.115607,-0.10286 -0.195282,-0.31489 -0.196089,-0.52184 -8.51e-4,-0.23064 0.06298,-0.39283 0.212538,-0.53964 0.08805,-0.0864 0.11713,-0.14681 0.130701,-0.27136 0.03528,-0.32371 0.316378,-0.59488 0.644932,-0.62212 0.174729,-0.0145 0.179431,-0.0177 0.218273,-0.1473 0.05682,-0.18964 0.262961,-0.38243 0.476829,-0.44595 0.217109,-0.0645 0.244396,-0.0645 0.456219,-0.002 0.109684,0.0326 0.21697,0.0972 0.30141,0.18168 l 0.131106,0.1311 0.17828,-0.0463 c 0.319405,-0.0828 0.623172,0.0291 0.814125,0.29998 0.07108,0.10084 0.142111,0.15862 0.226165,0.18395 0.346243,0.10436 0.588254,0.50998 0.510352,0.85539 -0.02049,0.0908 -0.01246,0.14015 0.03451,0.21173 0.104453,0.15923 0.144301,0.39295 0.09911,0.58132 -0.04283,0.17853 -0.216444,0.41038 -0.365232,0.48775 -0.05975,0.031 -0.108576,0.10195 -0.148526,0.21562 -0.140676,0.4003 -0.551918,0.59589 -0.964659,0.45879 l -0.176277,-0.0585 -0.134225,0.13422 c -0.207184,0.20719 -0.246749,0.55206 -0.125995,1.0983 0.03655,0.16536 0.06646,0.3052 0.06646,0.31076 0,0.006 -0.20971,0.0101 -0.466025,0.0101 h -0.466024 z"
         style="display:inline;fill:#000000;stroke-width:0.03359529" />
    </g>
    <g
       style="display:inline"
       id="g874"
       inkscape:export-filename="3trees.png"
       inkscape:export-xdpi="300"
       inkscape:export-ydpi="300">
      <g
         transform="translate(0.09921923,-0.35609055)"
         id="g1531">
        <path
           style="display:inline;fill:#000000;stroke-width:0.02690731"
           d="m 46.715282,109.79765 c 0.09805,-0.40782 0.100208,-1.02921 0.0035,-1.02921 -0.02334,0 -0.0958,-0.0312 -0.161025,-0.0695 -0.111604,-0.0653 -0.12662,-0.0676 -0.254702,-0.0368 -0.351175,0.0842 -0.74512,-0.19429 -0.747492,-0.52853 -4.06e-4,-0.0506 -0.02316,-0.10336 -0.0582,-0.13453 -0.09259,-0.0824 -0.156407,-0.2522 -0.157053,-0.41795 -6.81e-4,-0.18472 0.05044,-0.31462 0.170227,-0.43221 0.07052,-0.0692 0.09381,-0.11759 0.104682,-0.21734 0.02826,-0.25927 0.253395,-0.47646 0.516543,-0.49828 0.139944,-0.0116 0.14371,-0.0142 0.174819,-0.11797 0.04551,-0.15189 0.210612,-0.3063 0.381904,-0.35718 0.173889,-0.0516 0.195744,-0.0516 0.365398,-0.002 0.08785,0.0261 0.173777,0.0778 0.241406,0.14551 l 0.105007,0.10501 0.142789,-0.0371 c 0.25582,-0.0663 0.499114,0.0233 0.652053,0.24026 0.05693,0.0808 0.11382,0.12705 0.181142,0.14734 0.277314,0.0836 0.471147,0.40845 0.408753,0.68511 -0.01641,0.0727 -0.01,0.11224 0.02764,0.16958 0.08366,0.12753 0.115574,0.31472 0.07938,0.46559 -0.0343,0.14299 -0.173355,0.32868 -0.292524,0.39065 -0.04786,0.0248 -0.08696,0.0817 -0.118958,0.1727 -0.112671,0.32061 -0.442045,0.47726 -0.772621,0.36745 l -0.141184,-0.0468 -0.107504,0.1075 c -0.165939,0.16593 -0.197627,0.44216 -0.100912,0.87966 0.02927,0.13244 0.05324,0.24444 0.05324,0.24889 0,0.005 -0.167963,0.008 -0.373252,0.008 h -0.373249 z"
           id="path1419-1-1"
           inkscape:connector-curvature="0"
           sodipodi:nodetypes="cscccccccccscccccccccccccccsscc" />
        <path
           style="display:inline;fill:#000000;stroke-width:0.02690731"
           d="m 45.371592,109.0404 c 0.09805,-0.40782 0.100209,-1.02921 0.0035,-1.02921 -0.02334,0 -0.0958,-0.0312 -0.161025,-0.0695 -0.111604,-0.0653 -0.126619,-0.0676 -0.254702,-0.0368 -0.351175,0.0842 -0.74512,-0.19429 -0.747492,-0.52853 -4.07e-4,-0.0506 -0.02316,-0.10336 -0.0582,-0.13452 -0.09259,-0.0824 -0.156406,-0.25221 -0.157053,-0.41796 -6.81e-4,-0.18472 0.05044,-0.31462 0.170227,-0.43221 0.07052,-0.0692 0.09381,-0.11758 0.104682,-0.21734 0.02826,-0.25926 0.253395,-0.47645 0.516542,-0.49827 0.139945,-0.0116 0.143711,-0.0142 0.174821,-0.11797 0.04551,-0.15189 0.210612,-0.3063 0.381904,-0.35718 0.173888,-0.0517 0.195743,-0.0517 0.365397,-0.002 0.08785,0.0261 0.173777,0.0778 0.241407,0.14551 l 0.105006,0.105 0.142789,-0.0371 c 0.255819,-0.0663 0.499114,0.0233 0.652053,0.24026 0.05693,0.0808 0.11382,0.12705 0.181141,0.14733 0.277315,0.0836 0.471148,0.40846 0.408753,0.68511 -0.01641,0.0727 -0.01,0.11225 0.02764,0.16958 0.08366,0.12753 0.115574,0.31472 0.07938,0.46559 -0.0343,0.14299 -0.173356,0.32868 -0.292524,0.39065 -0.04786,0.0248 -0.08696,0.0817 -0.118958,0.1727 -0.112671,0.32061 -0.442045,0.47726 -0.772619,0.36745 -0.169081,-0.077 -0.116495,-0.002 -0.248689,0.0606 -0.165939,0.16594 -0.197628,0.44216 -0.100913,0.87966 0.02927,0.13244 0.05323,0.24444 0.05323,0.24889 0,0.005 -0.167962,0.008 -0.373251,0.008 h -0.373251 z"
           id="path1419-2-9"
           inkscape:connector-curvature="0"
           sodipodi:nodetypes="cscccccccccsccccccccccccccsscc" />
        <path
           style="display:inline;fill:#000000;stroke-width:0.02690731"
           d="m 47.805095,109.08033 c 0.09805,-0.40782 0.100207,-1.0292 0.0035,-1.0292 -0.02334,0 -0.0958,-0.0312 -0.161026,-0.0695 -0.111604,-0.0654 -0.126619,-0.0676 -0.254702,-0.0368 -0.351174,0.0842 -0.74512,-0.1943 -0.747491,-0.52853 -4.07e-4,-0.0506 -0.02316,-0.10336 -0.0582,-0.13454 -0.09259,-0.0824 -0.156407,-0.25219 -0.157054,-0.41794 -6.8e-4,-0.18473 0.05044,-0.31463 0.170227,-0.43221 0.07052,-0.0692 0.09381,-0.1176 0.104682,-0.21735 0.02826,-0.25927 0.253396,-0.47646 0.516543,-0.49827 0.139944,-0.0116 0.14371,-0.0142 0.17482,-0.11798 0.04551,-0.15189 0.210612,-0.3063 0.381904,-0.35717 0.173889,-0.0517 0.195744,-0.0517 0.365398,-0.002 0.08785,0.0261 0.173777,0.0778 0.241405,0.14551 l 0.105007,0.105 0.14279,-0.0371 c 0.255819,-0.0663 0.499113,0.0233 0.652052,0.24026 0.05693,0.0808 0.11382,0.12704 0.181142,0.14733 0.277314,0.0836 0.471148,0.40845 0.408754,0.68511 -0.01641,0.0727 -0.01,0.11224 0.02764,0.16958 0.08366,0.12753 0.115573,0.31472 0.07938,0.46559 -0.0343,0.14299 -0.173355,0.32869 -0.292524,0.39066 -0.04785,0.0248 -0.08696,0.0817 -0.118958,0.17269 -0.112671,0.32061 -0.442044,0.47726 -0.77262,0.36746 l -0.141184,-0.0469 -0.107504,0.1075 c -0.165939,0.16594 -0.197628,0.44216 -0.100913,0.87966 0.02927,0.13244 0.05324,0.24444 0.05324,0.24889 0,0.005 -0.167962,0.008 -0.373251,0.008 h -0.37325 z m 0.632646,-1.08522 c 0.04984,-0.0307 0.09062,-0.0596 0.09062,-0.064 0,-0.004 -0.03164,-0.0771 -0.07031,-0.16159 -0.0417,-0.0911 -0.08017,-0.14372 -0.09454,-0.12935 -0.03636,0.0364 -0.08905,0.31466 -0.06931,0.3661 0.02204,0.0574 0.03407,0.0565 0.143541,-0.0111 z m -0.286251,-0.17216 c 0.03903,-0.11828 0.02736,-0.1357 -0.09653,-0.14404 -0.05526,-0.003 -0.110602,-0.013 -0.122973,-0.0207 -0.03934,-0.0243 -0.02448,0.0216 0.04591,0.14163 0.08271,0.14113 0.132442,0.14774 0.173588,0.0231 z m -0.309434,-0.007 c -0.01066,-0.0259 -0.02548,-0.0682 -0.03293,-0.0942 -0.0074,-0.0259 -0.02132,-0.0471 -0.03084,-0.0471 -0.01985,0 -0.09218,0.10935 -0.07919,0.11973 0.02816,0.0225 0.119789,0.0671 0.139279,0.0678 0.01269,4e-4 0.01434,-0.0204 0.0037,-0.0462 z"
           id="path1419-1-1-4"
           inkscape:connector-curvature="0"
           sodipodi:nodetypes="cscccccccccscccccccccccccccsscccsccccsccssccscccc" />
      </g>
    </g>
    <g
       style="display:inline;stroke:#000000;stroke-width:0.2;stroke-miterlimit:4;stroke-dasharray:none;stroke-opacity:1"
       id="g965"
       transform="matrix(0.88611264,0,0,0.88611264,1.94583,14.006502)"
       inkscape:export-filename="4cpp.png"
       inkscape:export-xdpi="300"
       inkscape:export-ydpi="300">
      <path
         sodipodi:nodetypes="cccccscccccccsc"
         inkscape:connector-curvature="0"
         id="path932"
         d="m 17.115578,121.64423 c -0.149113,-0.37791 -0.304974,-0.63865 -0.476928,-0.79784 -0.159143,-0.14734 -0.442683,-0.30808 -0.762236,-0.43212 -0.06612,-0.0257 -0.11569,-0.0603 -0.110153,-0.0769 0.0055,-0.0166 0.134878,-0.0832 0.287426,-0.14805 0.566328,-0.24066 0.792737,-0.47837 1.037804,-1.08964 0.0504,-0.12572 0.103709,-0.22455 0.118462,-0.21964 0.01475,0.005 0.07963,0.13522 0.144175,0.28956 0.249895,0.59755 0.48919,0.8226 1.153122,1.08449 0.08805,0.0348 0.156286,0.0746 0.151633,0.0885 -0.0046,0.0139 -0.133297,0.0784 -0.285875,0.14327 -0.329974,0.14022 -0.557339,0.28557 -0.691746,0.44225 -0.09528,0.11106 -0.31251,0.51789 -0.4045,0.75755 -0.02481,0.0646 -0.05711,0.11752 -0.07178,0.11752 -0.01467,0 -0.0549,-0.0716 -0.08941,-0.15901 z"
         style="fill:#000000;stroke:#000000;stroke-width:0.2;stroke-miterlimit:4;stroke-dasharray:none;stroke-opacity:1" />
      <path
         sodipodi:nodetypes="cccccscccccccsc"
         inkscape:connector-curvature="0"
         id="path932-5"
         d="m 17.115578,125.29246 c -0.149113,-0.37791 -0.304974,-0.63865 -0.476928,-0.79784 -0.159143,-0.14734 -0.442683,-0.30808 -0.762236,-0.43212 -0.06612,-0.0257 -0.11569,-0.0603 -0.110153,-0.0769 0.0055,-0.0166 0.134878,-0.0832 0.287426,-0.14805 0.566328,-0.24066 0.792737,-0.47837 1.037804,-1.08964 0.0504,-0.12572 0.103709,-0.22455 0.118462,-0.21964 0.01475,0.005 0.07963,0.13522 0.144175,0.28956 0.249895,0.59755 0.48919,0.8226 1.153122,1.08449 0.08805,0.0348 0.156286,0.0746 0.151633,0.0885 -0.0046,0.0139 -0.133297,0.0784 -0.285875,0.14327 -0.329974,0.14022 -0.557339,0.28557 -0.691746,0.44225 -0.09528,0.11106 -0.31251,0.51789 -0.4045,0.75755 -0.02481,0.0646 -0.05711,0.11752 -0.07178,0.11752 -0.01467,0 -0.0549,-0.0716 -0.08941,-0.15901 z"
         style="display:inline;fill:#000000;stroke:#000000;stroke-width:0.2;stroke-miterlimit:4;stroke-dasharray:none;stroke-opacity:1" />
      <path
         sodipodi:nodetypes="cccccscccccccsc"
         inkscape:connector-curvature="0"
         id="path932-6"
         d="m 13.350103,121.64423 c -0.149113,-0.37791 -0.304974,-0.63865 -0.476928,-0.79784 -0.159143,-0.14734 -0.442683,-0.30808 -0.762236,-0.43212 -0.06612,-0.0257 -0.11569,-0.0603 -0.110153,-0.0769 0.0055,-0.0166 0.134878,-0.0832 0.287426,-0.14805 0.566328,-0.24066 0.792737,-0.47837 1.037804,-1.08964 0.0504,-0.12572 0.103709,-0.22455 0.118462,-0.21964 0.01475,0.005 0.07963,0.13522 0.144175,0.28956 0.249895,0.59755 0.48919,0.8226 1.153122,1.08449 0.08805,0.0348 0.156286,0.0746 0.151633,0.0885 -0.0046,0.0139 -0.133297,0.0784 -0.285875,0.14327 -0.329974,0.14022 -0.557339,0.28557 -0.691746,0.44225 -0.09528,0.11106 -0.31251,0.51789 -0.4045,0.75755 -0.02481,0.0646 -0.05711,0.11752 -0.07178,0.11752 -0.01467,0 -0.0549,-0.0716 -0.08941,-0.15901 z"
         style="display:inline;fill:#000000;stroke:#000000;stroke-width:0.2;stroke-miterlimit:4;stroke-dasharray:none;stroke-opacity:1" />
      <path
         sodipodi:nodetypes="cccccscccccccsc"
         inkscape:connector-curvature="0"
         id="path932-2"
         d="m 13.350103,125.29246 c -0.149113,-0.37791 -0.304974,-0.63865 -0.476928,-0.79784 -0.159143,-0.14734 -0.442683,-0.30808 -0.762236,-0.43212 -0.06612,-0.0257 -0.11569,-0.0603 -0.110153,-0.0769 0.0055,-0.0166 0.134878,-0.0832 0.287426,-0.14805 0.566328,-0.24066 0.792737,-0.47837 1.037804,-1.08964 0.0504,-0.12572 0.103709,-0.22455 0.118462,-0.21964 0.01475,0.005 0.07963,0.13522 0.144175,0.28956 0.249895,0.59755 0.48919,0.8226 1.153122,1.08449 0.08805,0.0348 0.156286,0.0746 0.151633,0.0885 -0.0046,0.0139 -0.133297,0.0784 -0.285875,0.14327 -0.329974,0.14022 -0.557339,0.28557 -0.691746,0.44225 -0.09528,0.11106 -0.31251,0.51789 -0.4045,0.75755 -0.02481,0.0646 -0.05711,0.11752 -0.07178,0.11752 -0.01467,0 -0.0549,-0.0716 -0.08941,-0.15901 z"
         style="display:inline;fill:#000000;stroke:#000000;stroke-width:0.2;stroke-miterlimit:4;stroke-dasharray:none;stroke-opacity:1" />
    </g>
    <g
       id="g1055"
       transform="matrix(0.88611264,0,0,0.88611264,3.4063381,13.92926)"
       inkscape:export-filename="5cpp.png"
       inkscape:export-xdpi="300"
       inkscape:export-ydpi="300">
      <path
         sodipodi:nodetypes="cccccscccccccsc"
         inkscape:connector-curvature="0"
         id="path932-27"
         d="m 31.683759,121.78745 c -0.149113,-0.37791 -0.304974,-0.63865 -0.476928,-0.79784 -0.159143,-0.14734 -0.442683,-0.30808 -0.762236,-0.43212 -0.06612,-0.0257 -0.11569,-0.0603 -0.110153,-0.0769 0.0055,-0.0166 0.134878,-0.0832 0.287426,-0.14805 0.566328,-0.24066 0.792737,-0.47837 1.037804,-1.08964 0.0504,-0.12572 0.103709,-0.22455 0.118462,-0.21964 0.01475,0.005 0.07963,0.13522 0.144175,0.28956 0.249895,0.59755 0.48919,0.8226 1.153122,1.08449 0.08805,0.0348 0.156286,0.0746 0.151633,0.0885 -0.0046,0.0139 -0.133297,0.0784 -0.285875,0.14327 -0.329974,0.14022 -0.557339,0.28557 -0.691746,0.44225 -0.09528,0.11106 -0.31251,0.51789 -0.4045,0.75755 -0.02481,0.0646 -0.05711,0.11752 -0.07178,0.11752 -0.01467,0 -0.0549,-0.0716 -0.08941,-0.15901 z"
         style="display:inline;fill:#000000;stroke:#000000;stroke-width:0.2;stroke-miterlimit:4;stroke-dasharray:none;stroke-opacity:1" />
      <path
         sodipodi:nodetypes="cccccscccccccsc"
         inkscape:connector-curvature="0"
         id="path932-5-0"
         d="m 31.683759,125.43568 c -0.149113,-0.37791 -0.304974,-0.63865 -0.476928,-0.79784 -0.159143,-0.14734 -0.442683,-0.30808 -0.762236,-0.43212 -0.06612,-0.0257 -0.11569,-0.0603 -0.110153,-0.0769 0.0055,-0.0166 0.134878,-0.0832 0.287426,-0.14805 0.566328,-0.24066 0.792737,-0.47837 1.037804,-1.08964 0.0504,-0.12572 0.103709,-0.22455 0.118462,-0.21964 0.01475,0.005 0.07963,0.13522 0.144175,0.28956 0.249895,0.59755 0.48919,0.8226 1.153122,1.08449 0.08805,0.0348 0.156286,0.0746 0.151633,0.0885 -0.0046,0.0139 -0.133297,0.0784 -0.285875,0.14327 -0.329974,0.14022 -0.557339,0.28557 -0.691746,0.44225 -0.09528,0.11106 -0.31251,0.51789 -0.4045,0.75755 -0.02481,0.0646 -0.05711,0.11752 -0.07178,0.11752 -0.01467,0 -0.0549,-0.0716 -0.08941,-0.15901 z"
         style="display:inline;fill:#000000;stroke:#000000;stroke-width:0.2;stroke-miterlimit:4;stroke-dasharray:none;stroke-opacity:1" />
      <path
         sodipodi:nodetypes="cccccscccccccsc"
         inkscape:connector-curvature="0"
         id="path932-6-9"
         d="m 27.918284,121.78745 c -0.149113,-0.37791 -0.304974,-0.63865 -0.476928,-0.79784 -0.159143,-0.14734 -0.442683,-0.30808 -0.762236,-0.43212 -0.06612,-0.0257 -0.11569,-0.0603 -0.110153,-0.0769 0.0055,-0.0166 0.134878,-0.0832 0.287426,-0.14805 0.566328,-0.24066 0.792737,-0.47837 1.037804,-1.08964 0.0504,-0.12572 0.103709,-0.22455 0.118462,-0.21964 0.01475,0.005 0.07963,0.13522 0.144175,0.28956 0.249895,0.59755 0.48919,0.8226 1.153122,1.08449 0.08805,0.0348 0.156286,0.0746 0.151633,0.0885 -0.0046,0.0139 -0.133297,0.0784 -0.285875,0.14327 -0.329974,0.14022 -0.557339,0.28557 -0.691746,0.44225 -0.09528,0.11106 -0.31251,0.51789 -0.4045,0.75755 -0.02481,0.0646 -0.05711,0.11752 -0.07178,0.11752 -0.01467,0 -0.0549,-0.0716 -0.08941,-0.15901 z"
         style="display:inline;fill:#000000;stroke:#000000;stroke-width:0.2;stroke-miterlimit:4;stroke-dasharray:none;stroke-opacity:1" />
      <path
         sodipodi:nodetypes="cccccscccccccsc"
         inkscape:connector-curvature="0"
         id="path932-2-3"
         d="m 27.918284,125.43568 c -0.149113,-0.37791 -0.304974,-0.63865 -0.476928,-0.79784 -0.159143,-0.14734 -0.442683,-0.30808 -0.762236,-0.43212 -0.06612,-0.0257 -0.11569,-0.0603 -0.110153,-0.0769 0.0055,-0.0166 0.134878,-0.0832 0.287426,-0.14805 0.566328,-0.24066 0.792737,-0.47837 1.037804,-1.08964 0.0504,-0.12572 0.103709,-0.22455 0.118462,-0.21964 0.01475,0.005 0.07963,0.13522 0.144175,0.28956 0.249895,0.59755 0.48919,0.8226 1.153122,1.08449 0.08805,0.0348 0.156286,0.0746 0.151633,0.0885 -0.0046,0.0139 -0.133297,0.0784 -0.285875,0.14327 -0.329974,0.14022 -0.557339,0.28557 -0.691746,0.44225 -0.09528,0.11106 -0.31251,0.51789 -0.4045,0.75755 -0.02481,0.0646 -0.05711,0.11752 -0.07178,0.11752 -0.01467,0 -0.0549,-0.0716 -0.08941,-0.15901 z"
         style="display:inline;fill:#000000;stroke:#000000;stroke-width:0.2;stroke-miterlimit:4;stroke-dasharray:none;stroke-opacity:1" />
      <path
         sodipodi:nodetypes="cccccscccccccsc"
         inkscape:connector-curvature="0"
         id="path932-27-6"
         d="m 29.801022,123.61156 c -0.149113,-0.37791 -0.304974,-0.63865 -0.476928,-0.79784 -0.159143,-0.14734 -0.442683,-0.30808 -0.762236,-0.43212 -0.06612,-0.0257 -0.115691,-0.0603 -0.110153,-0.0769 0.0055,-0.0166 0.134878,-0.0832 0.287426,-0.14805 0.566327,-0.24066 0.792736,-0.47837 1.037804,-1.08964 0.0504,-0.12572 0.103708,-0.22455 0.118462,-0.21964 0.01475,0.005 0.07963,0.13522 0.144175,0.28956 0.249895,0.59755 0.48919,0.8226 1.153122,1.08449 0.08805,0.0348 0.156286,0.0746 0.151632,0.0885 -0.0046,0.0139 -0.133296,0.0784 -0.285874,0.14327 -0.329974,0.14022 -0.557339,0.28557 -0.691746,0.44225 -0.09528,0.11106 -0.31251,0.51789 -0.4045,0.75755 -0.02481,0.0646 -0.05711,0.11752 -0.07178,0.11752 -0.01467,0 -0.0549,-0.0716 -0.08941,-0.15901 z"
         style="display:inline;fill:#000000;stroke:#000000;stroke-width:0.2;stroke-miterlimit:4;stroke-dasharray:none;stroke-opacity:1" />
    </g>
    <g
       id="g1060"
       transform="matrix(0.88611264,0,0,0.88611264,5.3122309,13.884061)"
       inkscape:export-filename="3cpp.png"
       inkscape:export-xdpi="300"
       inkscape:export-ydpi="300">
      <path
         sodipodi:nodetypes="cccccscccccccsc"
         inkscape:connector-curvature="0"
         id="path932-27-62"
         d="m 48.418655,121.39056 c -0.149113,-0.37791 -0.304974,-0.63865 -0.476928,-0.79784 -0.159143,-0.14734 -0.442683,-0.30808 -0.762236,-0.43212 -0.06612,-0.0257 -0.11569,-0.0603 -0.110153,-0.0769 0.0055,-0.0166 0.134878,-0.0832 0.287426,-0.14805 0.566328,-0.24066 0.792737,-0.47837 1.037804,-1.08964 0.0504,-0.12572 0.103709,-0.22455 0.118462,-0.21964 0.01475,0.005 0.07963,0.13522 0.144175,0.28956 0.249895,0.59755 0.48919,0.8226 1.153122,1.08449 0.08805,0.0348 0.156286,0.0746 0.151633,0.0885 -0.0046,0.0139 -0.133297,0.0784 -0.285875,0.14327 -0.329974,0.14022 -0.557339,0.28557 -0.691746,0.44225 -0.09528,0.11106 -0.31251,0.51789 -0.4045,0.75755 -0.02481,0.0646 -0.05711,0.11752 -0.07178,0.11752 -0.01467,0 -0.0549,-0.0716 -0.08941,-0.15901 z"
         style="display:inline;fill:#000000;stroke:#000000;stroke-width:0.2;stroke-miterlimit:4;stroke-dasharray:none;stroke-opacity:1" />
      <path
         sodipodi:nodetypes="cccccscccccccsc"
         inkscape:connector-curvature="0"
         id="path932-2-3-8"
         d="m 44.65318,125.03879 c -0.149113,-0.37791 -0.304974,-0.63865 -0.476928,-0.79784 -0.159143,-0.14734 -0.442683,-0.30808 -0.762236,-0.43212 -0.06612,-0.0257 -0.11569,-0.0603 -0.110153,-0.0769 0.0055,-0.0166 0.134878,-0.0832 0.287426,-0.14805 0.566328,-0.24066 0.792737,-0.47837 1.037803,-1.08964 0.0504,-0.12572 0.103709,-0.22455 0.118463,-0.21964 0.01475,0.005 0.07963,0.13522 0.144175,0.28956 0.249895,0.59755 0.48919,0.8226 1.153122,1.08449 0.08805,0.0348 0.156286,0.0746 0.151633,0.0885 -0.0046,0.0139 -0.133297,0.0784 -0.285875,0.14327 -0.329975,0.14022 -0.557339,0.28557 -0.691746,0.44225 -0.09528,0.11106 -0.31251,0.51789 -0.4045,0.75755 -0.02481,0.0646 -0.05711,0.11752 -0.07178,0.11752 -0.01467,0 -0.0549,-0.0716 -0.08941,-0.15901 z"
         style="display:inline;fill:#000000;stroke:#000000;stroke-width:0.2;stroke-miterlimit:4;stroke-dasharray:none;stroke-opacity:1" />
      <path
         sodipodi:nodetypes="cccccscccccccsc"
         inkscape:connector-curvature="0"
         id="path932-27-6-7"
         d="m 46.535918,123.21467 c -0.149113,-0.37791 -0.304975,-0.63865 -0.476928,-0.79784 -0.159143,-0.14734 -0.442683,-0.30808 -0.762236,-0.43212 -0.06612,-0.0257 -0.115691,-0.0603 -0.110153,-0.0769 0.0055,-0.0166 0.134878,-0.0832 0.287426,-0.14805 0.566327,-0.24066 0.792736,-0.47837 1.037804,-1.08964 0.0504,-0.12572 0.103708,-0.22455 0.118462,-0.21964 0.01475,0.005 0.07963,0.13522 0.144175,0.28956 0.249895,0.59755 0.48919,0.8226 1.153122,1.08449 0.08805,0.0348 0.156286,0.0746 0.151632,0.0885 -0.0046,0.0139 -0.133296,0.0784 -0.285874,0.14327 -0.329974,0.14022 -0.557339,0.28557 -0.691746,0.44225 -0.09528,0.11106 -0.31251,0.51789 -0.4045,0.75755 -0.02481,0.0646 -0.05711,0.11752 -0.07178,0.11752 -0.01467,0 -0.0549,-0.0716 -0.08941,-0.15901 z"
         style="display:inline;fill:#000000;stroke:#000000;stroke-width:0.2;stroke-miterlimit:4;stroke-dasharray:none;stroke-opacity:1" />
    </g>
    <path
       style="fill:#000000;stroke:#000000;stroke-width:0.20942611;stroke-miterlimit:4;stroke-dasharray:none;stroke-opacity:1"
       d="m 15.251754,140.0441 -0.0045,-0.19587 -0.16889,-0.0355 c -0.320584,-0.0674 -0.626528,-0.19525 -0.871384,-0.36422 -0.567075,-0.39132 -0.948456,-0.95796 -1.069402,-1.58888 l -0.02779,-0.14499 h -0.197941 -0.197941 v -0.36191 -0.36191 l 0.197039,-5e-5 0.197038,-4e-5 0.02886,-0.14874 c 0.06145,-0.31669 0.198334,-0.64243 0.386966,-0.9208 0.134899,-0.19908 0.472377,-0.53493 0.668921,-0.66569 0.308967,-0.20555 0.648942,-0.34093 0.994215,-0.39589 l 0.06836,-0.0109 v -0.19965 -0.19965 h 0.353865 0.353865 v 0.19871 0.19869 l 0.148784,0.0286 c 0.315338,0.0604 0.623883,0.1881 0.904074,0.37403 0.20853,0.13838 0.54127,0.46784 0.680674,0.67399 0.190084,0.28106 0.324588,0.60262 0.384386,0.91895 l 0.02807,0.1485 h 0.197702 0.197701 v 0.36191 0.36191 H 18.30699 18.109553 l -0.02871,0.14074 c -0.137941,0.67621 -0.559108,1.28252 -1.132755,1.6307 -0.264074,0.16028 -0.505785,0.25757 -0.808662,0.32545 l -0.168354,0.0377 -0.0045,0.19534 -0.0045,0.19535 h -0.352875 -0.352875 z m 0.0035,-1.18033 v -0.4253 h 0.357887 l 0.357887,-1e-5 v 0.43027 0.43028 l 0.04826,-0.005 c 0.08203,-0.009 0.368353,-0.11019 0.501062,-0.1773 0.365759,-0.18494 0.679572,-0.50081 0.865351,-0.87103 0.06808,-0.13566 0.138855,-0.33112 0.167458,-0.46244 l 0.01489,-0.0683 h -0.43258 -0.432579 v -0.36191 -0.36191 h 0.434595 0.434596 l -0.01058,-0.0442 c -0.103281,-0.43205 -0.271576,-0.73514 -0.56785,-1.02262 -0.251863,-0.2444 -0.499354,-0.38925 -0.827385,-0.48427 -0.226347,-0.0655 -0.203281,-0.11015 -0.203281,0.39301 v 0.43428 h -0.353866 -0.353865 v -0.43634 -0.43635 l -0.06388,0.0102 c -0.100429,0.016 -0.31943,0.089 -0.44337,0.14763 -0.196258,0.0928 -0.36272,0.21348 -0.539793,0.3911 -0.186189,0.18676 -0.307618,0.35469 -0.401824,0.55572 -0.06394,0.13644 -0.143531,0.38788 -0.143531,0.45342 v 0.0384 l 0.430268,-10e-6 0.430268,-1e-5 -0.0046,0.36191 -0.0046,0.36192 h -0.432617 -0.432541 l 0.03902,0.14581 c 0.18805,0.70268 0.728448,1.23675 1.430417,1.41367 0.06193,0.0155 0.118022,0.0254 0.124657,0.0216 0.0067,-0.004 0.01206,-0.1981 0.01206,-0.43202 z"
       id="path1101"
       inkscape:connector-curvature="0"
       inkscape:export-filename="1aim.png"
       inkscape:export-xdpi="300"
       inkscape:export-ydpi="300" />
    <g
       id="g939"
       transform="matrix(0.84914231,0,0,0.84914231,-133.97541,7.3512793)"
       inkscape:export-filename="3laser.png"
       inkscape:export-xdpi="300"
       inkscape:export-ydpi="300">
      <path
         sodipodi:nodetypes="cccccccsccccssscccsccccccsscc"
         inkscape:connector-curvature="0"
         id="path994-6"
         d="m 209.70935,51.516352 c -0.16461,-0.880833 -0.14661,-0.87169 -0.3819,-0.194047 -0.23214,0.66855 -0.26702,0.59884 -0.13606,-0.271944 0.0466,-0.309657 0.0615,-0.5487 0.0332,-0.531201 -0.0283,0.01751 -0.16021,0.238744 -0.29312,0.491661 -0.1329,0.252916 -0.25035,0.433701 -0.26101,0.401747 -0.0107,-0.03195 0.0943,-0.356406 0.23329,-0.721 0.13896,-0.364595 0.24002,-0.662902 0.22457,-0.662902 -0.0154,0 -0.20483,0.08923 -0.42087,0.198281 -0.21604,0.109053 -0.40326,0.187819 -0.41604,0.175033 -0.0128,-0.01278 0.14283,-0.152949 0.34583,-0.311473 l 0.36907,-0.19841 -2.60315,-0.0094 C 203.8537,49.873497 203.8,49.863147 203.8,49.639861 c 0,-0.29091 0.013,-0.27073 2.59029,-0.248388 l 2.5903,0.02246 -0.37494,-0.263507 c -0.39735,-0.382379 -0.38004,-0.387623 0.15558,-0.04713 0.18506,0.117642 0.35156,0.213894 0.37,0.213894 0.0184,0 -0.0827,-0.324384 -0.22471,-0.720855 -0.14202,-0.396473 -0.24607,-0.733014 -0.23121,-0.74787 0.0149,-0.01486 0.14952,0.194914 0.29924,0.466155 0.14974,0.271244 0.28051,0.48408 0.29062,0.472971 0.0101,-0.0111 -0.0214,-0.282159 -0.07,-0.602335 -0.13098,-0.86232 -0.10434,-0.90791 0.13231,-0.226387 0.23529,0.677644 0.21729,0.686788 0.3819,-0.194046 0.085,-0.454631 0.0907,-0.336758 0.0907,1.875777 0,2.212536 -0.006,2.330409 -0.0907,1.875779 z"
         style="display:inline;fill:#000000;stroke:#000000;stroke-width:0.40000001;stroke-miterlimit:4;stroke-dasharray:none;stroke-opacity:1" />
      <path
         sodipodi:nodetypes="cccccccsccccssscccsccccccsscc"
         inkscape:connector-curvature="0"
         id="path994-7"
         d="m 209.77693,49.339561 c -0.12635,-0.675947 -0.11253,-0.668931 -0.29313,-0.14891 -0.17818,0.513042 -0.20494,0.459547 -0.10443,-0.20869 0.0357,-0.237629 0.0472,-0.42107 0.0255,-0.407641 -0.0217,0.01344 -0.12297,0.183211 -0.22498,0.377299 -0.10201,0.194087 -0.19216,0.33282 -0.20034,0.308299 -0.008,-0.02452 0.0724,-0.273505 0.17907,-0.553293 0.10665,-0.279789 0.18422,-0.508708 0.17236,-0.508708 -0.0119,0 -0.15722,0.06847 -0.32304,0.15216 -0.16582,0.08369 -0.30952,0.144131 -0.31933,0.134319 -0.01,-0.0098 0.10964,-0.117372 0.26544,-0.239023 l 0.28328,-0.152259 -1.99803,-0.0072 c -1.95682,-0.0071 -1.99804,-0.015 -1.99804,-0.186351 0,-0.223243 0.01,-0.207757 1.98817,-0.190611 l 1.98817,0.01724 -0.28779,-0.202214 c -0.30498,-0.293436 -0.29169,-0.297461 0.11942,-0.03617 0.14204,0.09028 0.26984,0.164141 0.28399,0.164141 0.0142,0 -0.0635,-0.248931 -0.17247,-0.553181 -0.10901,-0.304252 -0.18887,-0.562512 -0.17747,-0.573913 0.0114,-0.0114 0.11476,0.149577 0.22969,0.357726 0.11492,0.208151 0.2153,0.371481 0.22306,0.362956 0.008,-0.0085 -0.0164,-0.216527 -0.0538,-0.462229 -0.10054,-0.661742 -0.0801,-0.696727 0.10155,-0.173729 0.18059,0.520022 0.16678,0.527039 0.29313,-0.14891 0.0652,-0.348883 0.0696,-0.258427 0.0696,1.439464 0,1.697891 -0.004,1.788347 -0.0696,1.439466 z"
         style="display:inline;fill:#000000;stroke:#000000;stroke-width:0.30698833;stroke-miterlimit:4;stroke-dasharray:none;stroke-opacity:1" />
      <path
         sodipodi:nodetypes="cccccccsccccssscccsccccccsscc"
         inkscape:connector-curvature="0"
         id="path994-7-5"
         d="m 209.77693,52.814938 c -0.12635,-0.675947 -0.11254,-0.668931 -0.29313,-0.14891 -0.17818,0.513042 -0.20495,0.459547 -0.10443,-0.20869 0.0357,-0.237629 0.0472,-0.42107 0.0255,-0.407641 -0.0217,0.01344 -0.12297,0.183211 -0.22498,0.377299 -0.10201,0.194087 -0.19216,0.33282 -0.20034,0.308299 -0.008,-0.02452 0.0724,-0.273505 0.17906,-0.553293 0.10666,-0.279789 0.18423,-0.508708 0.17237,-0.508708 -0.0119,0 -0.15722,0.06847 -0.32304,0.15216 -0.16582,0.08369 -0.30952,0.144131 -0.31933,0.134319 -0.01,-0.0098 0.10963,-0.117372 0.26544,-0.239023 l 0.28328,-0.152259 -1.99803,-0.0072 c -1.95682,-0.0071 -1.99804,-0.015 -1.99804,-0.186351 0,-0.223243 0.01,-0.207757 1.98817,-0.190611 l 1.98817,0.01724 -0.28779,-0.202214 c -0.30498,-0.293436 -0.29169,-0.297461 0.11942,-0.03617 0.14204,0.09028 0.26984,0.164141 0.28399,0.164141 0.0142,0 -0.0635,-0.248931 -0.17247,-0.553181 -0.10901,-0.304252 -0.18887,-0.562512 -0.17747,-0.573913 0.0114,-0.0114 0.11476,0.149577 0.22968,0.357726 0.11493,0.208151 0.21531,0.371481 0.22307,0.362956 0.008,-0.0085 -0.0164,-0.216527 -0.0538,-0.462229 -0.10054,-0.661742 -0.0801,-0.696727 0.10155,-0.173729 0.18059,0.520022 0.16678,0.527039 0.29313,-0.14891 0.0652,-0.348883 0.0696,-0.258427 0.0696,1.439464 0,1.697891 -0.004,1.788347 -0.0696,1.439466 z"
         style="display:inline;fill:#000000;stroke:#000000;stroke-width:0.30698833;stroke-miterlimit:4;stroke-dasharray:none;stroke-opacity:1" />
    </g>
    <g
       id="g1162"
       transform="matrix(0.9611056,0,0,0.9611056,-7.7883113,10.810623)"
       style="stroke-width:0.20809368;stroke-miterlimit:4;stroke-dasharray:none"
       inkscape:export-filename="3sword.png"
       inkscape:export-xdpi="300"
       inkscape:export-ydpi="300">
      <path
         sodipodi:nodetypes="cccccccsccssscssscsscscsscscccccccscscc"
         inkscape:connector-curvature="0"
         id="path1327-2-6-7"
         d="m 49.625093,72.708719 c 0.06358,-0.01564 0.115639,-0.04691 0.161796,-0.09696 0.06136,-0.06659 0.07906,-0.106726 0.08459,-0.191983 l 0.0049,-0.07468 0.432581,-0.432486 0.432581,-0.432486 0.108249,-8.98e-4 c 0.141935,-8.99e-4 0.197522,-0.02579 0.313894,-0.139079 l 0.08287,-0.0807 0.191609,0.1906 c 0.187957,0.186959 0.192453,0.190599 0.235963,0.190599 0.06124,0 0.09578,-0.0346 0.09578,-0.09586 0,-0.04377 -0.0031,-0.04754 -0.214644,-0.259959 l -0.214646,-0.21552 1.19771,-1.199278 c 1.350011,-1.351773 1.417296,-1.424691 1.706057,-1.848775 0.179817,-0.264083 0.374954,-0.606459 0.374954,-0.657873 0,-0.01689 -0.0082,-0.0319 -0.02109,-0.03882 -0.04474,-0.02399 -0.539811,0.270662 -0.875174,0.520807 -0.28076,0.209418 -0.387191,0.310662 -1.612885,1.534267 l -1.22586,1.223767 -0.204093,-0.205257 c -0.112251,-0.112891 -0.218237,-0.211422 -0.235523,-0.218961 -0.06703,-0.02921 -0.141422,0.02193 -0.141422,0.09719 0,0.03514 0.01407,0.05203 0.193759,0.232594 l 0.193759,0.194734 -0.07902,0.07827 c -0.05329,0.05275 -0.08994,0.100382 -0.11257,0.146214 -0.03125,0.06327 -0.03354,0.07531 -0.03326,0.175223 l 2.69e-4,0.107265 -0.424861,0.424767 -0.424862,0.424766 -0.069,0.0036 c -0.08394,0.0045 -0.149452,0.03217 -0.210283,0.08825 -0.0749,0.06902 -0.09727,0.124808 -0.09727,0.242579 0,0.09041 0.0027,0.104138 0.02969,0.150033 0.01633,0.02777 0.04461,0.06497 0.06285,0.08268 0.06834,0.06623 0.202236,0.103383 0.292604,0.08106 z"
         style="fill:#000000;stroke:#000000;stroke-width:0.20809368;stroke-miterlimit:4;stroke-dasharray:none;stroke-opacity:1" />
      <path
         sodipodi:nodetypes="cccccccsccssscssscsscscsscscccccccscscc"
         inkscape:connector-curvature="0"
         id="path1327-28-2-5"
         d="m 51.90563,74.829164 c 0.06358,-0.01564 0.115638,-0.04691 0.161796,-0.09696 0.06136,-0.06659 0.07906,-0.106726 0.08459,-0.191983 l 0.0049,-0.07468 0.432582,-0.432485 0.432581,-0.432487 0.108249,-8.99e-4 c 0.141935,-8.98e-4 0.197522,-0.02579 0.313894,-0.139078 l 0.08288,-0.0807 0.191609,0.1906 c 0.187957,0.186959 0.192453,0.190599 0.235963,0.190599 0.06124,0 0.09578,-0.0346 0.09578,-0.09586 0,-0.04377 -0.0031,-0.04754 -0.214644,-0.259959 l -0.214646,-0.215524 1.19771,-1.199278 c 1.35001,-1.351774 1.417296,-1.424692 1.706056,-1.848775 0.179816,-0.264084 0.374954,-0.60646 0.374954,-0.657873 0,-0.0169 -0.0082,-0.0319 -0.02109,-0.03882 -0.04474,-0.02398 -0.53981,0.270667 -0.875173,0.520812 -0.280761,0.209418 -0.387191,0.310662 -1.612886,1.534267 l -1.22586,1.223767 -0.204093,-0.205257 C 52.84853,72.4057 52.742544,72.307169 52.725258,72.299629 c -0.06703,-0.02921 -0.141421,0.02193 -0.141421,0.09719 0,0.03514 0.01407,0.05203 0.193759,0.232594 l 0.19376,0.194733 -0.07902,0.07828 c -0.05329,0.05275 -0.08994,0.100381 -0.11257,0.146214 -0.03125,0.06327 -0.03354,0.07531 -0.03326,0.175223 l 2.62e-4,0.107265 -0.424861,0.424767 -0.424862,0.424766 -0.069,0.0036 c -0.08394,0.0045 -0.149452,0.03217 -0.210283,0.08825 -0.0749,0.06902 -0.09727,0.124808 -0.09727,0.242579 0,0.09041 0.0027,0.104138 0.02969,0.150034 0.01633,0.02777 0.04461,0.06497 0.06285,0.08268 0.06834,0.06623 0.202236,0.103383 0.292604,0.08106 z"
         style="fill:#000000;stroke:#000000;stroke-width:0.20809368;stroke-miterlimit:4;stroke-dasharray:none;stroke-opacity:1" />
      <path
         sodipodi:nodetypes="cccccccsccssscssscsscscsscscccccccscscc"
         inkscape:connector-curvature="0"
         id="path1327-27-9"
         d="m 55.382131,68.447592 c -0.06357,0.01564 -0.115638,0.04691 -0.161795,0.09696 -0.06136,0.06659 -0.07906,0.106724 -0.0846,0.191982 l -0.0047,0.07469 -0.432581,0.432487 -0.432581,0.432486 -0.10825,8.98e-4 c -0.141933,8.98e-4 -0.197521,0.0258 -0.313893,0.13908 l -0.08288,0.0807 -0.191608,-0.1906 c -0.187959,-0.186961 -0.192454,-0.1906 -0.235965,-0.1906 -0.06124,0 -0.09578,0.03459 -0.09578,0.09586 0,0.04376 0.0032,0.04754 0.214645,0.259959 l 0.214645,0.215527 -1.197711,1.199278 c -1.350035,1.35177 -1.417321,1.424688 -1.706082,1.848771 -0.179816,0.264084 -0.374954,0.606461 -0.374954,0.657874 0,0.01689 0.0082,0.0319 0.02108,0.03882 0.04475,0.02399 0.539812,-0.270661 0.875175,-0.520806 0.28076,-0.209418 0.387191,-0.310662 1.612886,-1.534266 l 1.225859,-1.223767 0.204095,0.205255 c 0.11225,0.112892 0.218236,0.211424 0.235523,0.218962 0.06702,0.02921 0.14142,-0.02192 0.14142,-0.09719 0,-0.03514 -0.01407,-0.05204 -0.193759,-0.232594 l -0.193759,-0.194734 0.07903,-0.07828 c 0.05329,-0.05276 0.08994,-0.100381 0.11257,-0.146214 0.03125,-0.06327 0.03355,-0.07531 0.03325,-0.175223 l -2.68e-4,-0.107265 0.42486,-0.424768 0.424862,-0.424766 0.06901,-0.0035 c 0.08395,-0.0044 0.149453,-0.03218 0.210283,-0.08825 0.07489,-0.06903 0.09727,-0.124808 0.09727,-0.242578 0,-0.0904 -0.0028,-0.10414 -0.02969,-0.150034 -0.01633,-0.02777 -0.0446,-0.06497 -0.06285,-0.08268 -0.06835,-0.06623 -0.202236,-0.103383 -0.292604,-0.08107 z"
         style="fill:#000000;stroke:#000000;stroke-width:0.20809368;stroke-miterlimit:4;stroke-dasharray:none;stroke-opacity:1" />
    </g>
    <g
       id="g1213"
       transform="matrix(0.92712734,0,0,0.92712734,-2.3346944,11.168322)"
       inkscape:export-filename="4sword.png"
       inkscape:export-xdpi="300"
       inkscape:export-ydpi="300">
      <path
         sodipodi:nodetypes="cccccccsccssscssscsscscsscscccccccscscc"
         inkscape:connector-curvature="0"
         id="path1327-2-6-7-2"
         d="m 60.78278,74.980053 c 0.06358,-0.01564 0.115639,-0.04691 0.161796,-0.09696 0.06136,-0.06659 0.07906,-0.106726 0.08459,-0.191983 l 0.0049,-0.07468 0.432581,-0.432486 0.432581,-0.432486 0.108249,-8.98e-4 c 0.141935,-8.99e-4 0.197522,-0.02579 0.313894,-0.139079 l 0.08287,-0.0807 0.191609,0.1906 c 0.187957,0.186959 0.192453,0.190599 0.235963,0.190599 0.06124,0 0.09578,-0.0346 0.09578,-0.09586 0,-0.04377 -0.0031,-0.04754 -0.214644,-0.259959 l -0.214646,-0.21552 1.19771,-1.199278 c 1.350011,-1.351773 1.417296,-1.424691 1.706057,-1.848775 0.179817,-0.264083 0.374954,-0.606459 0.374954,-0.657873 0,-0.01689 -0.0082,-0.0319 -0.02109,-0.03882 -0.04474,-0.02399 -0.539811,0.270662 -0.875174,0.520807 -0.28076,0.209418 -0.387191,0.310662 -1.612885,1.534267 l -1.22586,1.223767 -0.204093,-0.205257 c -0.112251,-0.112891 -0.218237,-0.211422 -0.235523,-0.218961 -0.06703,-0.02921 -0.141422,0.02193 -0.141422,0.09719 0,0.03514 0.01407,0.05203 0.193759,0.232594 l 0.193759,0.194734 -0.07902,0.07827 c -0.05329,0.05275 -0.08994,0.100382 -0.11257,0.146214 -0.03125,0.06327 -0.03354,0.07531 -0.03326,0.175223 l 2.69e-4,0.107265 -0.424861,0.424767 -0.424862,0.424766 -0.069,0.0036 c -0.08394,0.0045 -0.149452,0.03217 -0.210283,0.08825 -0.0749,0.06902 -0.09727,0.124808 -0.09727,0.242579 0,0.09041 0.0027,0.104138 0.02969,0.150033 0.01633,0.02777 0.04461,0.06497 0.06285,0.08268 0.06834,0.06623 0.202236,0.103383 0.292604,0.08106 z"
         style="fill:#000000;stroke:#000000;stroke-width:0.19051847;stroke-miterlimit:4;stroke-dasharray:none;stroke-opacity:1" />
      <path
         sodipodi:nodetypes="cccccccsccssscssscsscscsscscccccccscscc"
         inkscape:connector-curvature="0"
         id="path1327-28-2-5-8"
         d="m 63.063317,77.100498 c 0.06358,-0.01564 0.115638,-0.04691 0.161796,-0.09696 0.06136,-0.06659 0.07906,-0.106726 0.08459,-0.191983 l 0.0049,-0.07468 0.432582,-0.432485 0.432581,-0.432487 0.108249,-8.99e-4 c 0.141935,-8.98e-4 0.197522,-0.02579 0.313894,-0.139078 l 0.08288,-0.0807 0.191609,0.1906 c 0.187957,0.186959 0.192453,0.190599 0.235963,0.190599 0.06124,0 0.09578,-0.0346 0.09578,-0.09586 0,-0.04377 -0.0031,-0.04754 -0.214644,-0.259959 l -0.214646,-0.215524 1.19771,-1.199278 c 1.35001,-1.351774 1.417296,-1.424692 1.706056,-1.848775 0.179816,-0.264084 0.374954,-0.60646 0.374954,-0.657873 0,-0.0169 -0.0082,-0.0319 -0.02109,-0.03882 -0.04474,-0.02398 -0.53981,0.270667 -0.875173,0.520812 -0.280761,0.209418 -0.387191,0.310662 -1.612886,1.534267 l -1.22586,1.223767 -0.204093,-0.205257 c -0.112252,-0.112891 -0.218238,-0.211422 -0.235524,-0.218962 -0.06703,-0.02921 -0.141421,0.02193 -0.141421,0.09719 0,0.03514 0.01407,0.05203 0.193759,0.232594 l 0.19376,0.194733 -0.07902,0.07828 c -0.05329,0.05275 -0.08994,0.100381 -0.11257,0.146214 -0.03125,0.06327 -0.03354,0.07531 -0.03326,0.175223 l 2.62e-4,0.107265 -0.424861,0.424767 -0.424862,0.424766 -0.069,0.0036 c -0.08394,0.0045 -0.149452,0.03217 -0.210283,0.08825 -0.0749,0.06902 -0.09727,0.124808 -0.09727,0.242579 0,0.09041 0.0027,0.104138 0.02969,0.150034 0.01633,0.02777 0.04461,0.06497 0.06285,0.08268 0.06834,0.06623 0.202236,0.103383 0.292604,0.08106 z"
         style="fill:#000000;stroke:#000000;stroke-width:0.19051847;stroke-miterlimit:4;stroke-dasharray:none;stroke-opacity:1" />
      <path
         sodipodi:nodetypes="cccccccsccssscssscsscscsscscccccccscscc"
         inkscape:connector-curvature="0"
         id="path1327-2-6-7-2-7"
         d="m 66.681726,70.526774 c -0.06358,0.01564 -0.115639,0.04691 -0.161796,0.09696 -0.06136,0.06659 -0.07906,0.106726 -0.08459,0.191983 l -0.0049,0.07468 -0.432581,0.432486 -0.432581,0.432486 -0.108249,9e-4 c -0.141935,9e-4 -0.197522,0.02579 -0.313894,0.139079 l -0.08287,0.0807 -0.191609,-0.1906 c -0.187957,-0.186959 -0.192453,-0.190599 -0.235963,-0.190599 -0.06124,0 -0.09578,0.0346 -0.09578,0.09586 0,0.04377 0.0031,0.04754 0.214644,0.259959 l 0.214646,0.215518 -1.19771,1.199278 c -1.350011,1.351773 -1.417296,1.424691 -1.706057,1.848775 -0.179817,0.264083 -0.374954,0.606459 -0.374954,0.657873 0,0.01689 0.0082,0.0319 0.02109,0.03882 0.04474,0.02399 0.539811,-0.270662 0.875174,-0.520807 0.28076,-0.209418 0.387191,-0.310662 1.612885,-1.534267 l 1.22586,-1.223767 0.204093,0.205257 c 0.112251,0.112891 0.218237,0.211422 0.235523,0.218962 0.06703,0.02921 0.141422,-0.02193 0.141422,-0.09719 0,-0.03514 -0.01407,-0.05203 -0.193759,-0.232594 l -0.193759,-0.194734 0.07902,-0.07827 c 0.05329,-0.05275 0.08994,-0.100383 0.11257,-0.146214 0.03125,-0.06327 0.03354,-0.07531 0.03326,-0.175223 l -2.7e-4,-0.107265 0.424861,-0.424768 0.424862,-0.424766 0.069,-0.0036 c 0.08394,-0.0045 0.149452,-0.03217 0.210283,-0.08825 0.0749,-0.06902 0.09727,-0.124808 0.09727,-0.242579 0,-0.09041 -0.0027,-0.104138 -0.02969,-0.150033 -0.01633,-0.02777 -0.04461,-0.06497 -0.06285,-0.08268 -0.06834,-0.06623 -0.202236,-0.103382 -0.292604,-0.08106 z"
         style="fill:#000000;stroke:#000000;stroke-width:0.19051847;stroke-miterlimit:4;stroke-dasharray:none;stroke-opacity:1" />
      <path
         sodipodi:nodetypes="cccccccsccssscssscsscscsscscccccccscscc"
         inkscape:connector-curvature="0"
         id="path1327-28-2-5-8-3"
         d="m 68.962276,72.647224 c -0.06358,0.01564 -0.115638,0.04691 -0.161796,0.09696 -0.06136,0.06659 -0.07906,0.106726 -0.08459,0.191983 l -0.0049,0.07468 -0.432582,0.432485 -0.432581,0.432487 -0.108249,9e-4 c -0.141935,9e-4 -0.197522,0.02579 -0.313894,0.139078 l -0.08288,0.0807 -0.191609,-0.1906 c -0.187957,-0.186959 -0.192453,-0.190599 -0.235963,-0.190599 -0.06124,0 -0.09578,0.0346 -0.09578,0.09586 0,0.04377 0.0031,0.04754 0.214644,0.259959 l 0.214646,0.215524 -1.19771,1.199278 c -1.35001,1.351774 -1.417296,1.424692 -1.706056,1.848775 -0.179816,0.264084 -0.374954,0.60646 -0.374954,0.657873 0,0.0169 0.0082,0.0319 0.02109,0.03882 0.04474,0.02398 0.53981,-0.270667 0.875173,-0.520812 0.280761,-0.209418 0.387191,-0.310662 1.612886,-1.534267 l 1.22586,-1.223767 0.204093,0.205257 c 0.112252,0.112891 0.218238,0.211422 0.235524,0.218962 0.06703,0.02921 0.141421,-0.02193 0.141421,-0.09719 0,-0.03514 -0.01407,-0.05203 -0.193759,-0.232594 l -0.19376,-0.194733 0.07902,-0.07828 c 0.05329,-0.05275 0.08994,-0.100381 0.11257,-0.146214 0.03125,-0.06327 0.03354,-0.07531 0.03326,-0.175223 l -2.62e-4,-0.107265 0.424861,-0.424767 0.424862,-0.424766 0.069,-0.0036 c 0.08394,-0.0045 0.149452,-0.03217 0.210283,-0.08825 0.0749,-0.06902 0.09727,-0.124808 0.09727,-0.242579 0,-0.09041 -0.0027,-0.104137 -0.02969,-0.150033 -0.01633,-0.02777 -0.04461,-0.06497 -0.06285,-0.08268 -0.06834,-0.06623 -0.202236,-0.103383 -0.292604,-0.08106 z"
         style="fill:#000000;stroke:#000000;stroke-width:0.19051847;stroke-miterlimit:4;stroke-dasharray:none;stroke-opacity:1" />
    </g>
  </g>
</svg>
