<?xml version="1.0" encoding="UTF-8" standalone="no"?>
<!-- Created with Inkscape (http://www.inkscape.org/) -->

<svg
   width="8.1079206mm"
   height="8.1079216mm"
   viewBox="0 0 8.1079206 8.1079216"
   version="1.1"
   id="svg944"
   inkscape:version="1.1.2 (0a00cf5339, 2022-02-04)"
   sodipodi:docname="Localization.svg"
   xmlns:inkscape="http://www.inkscape.org/namespaces/inkscape"
   xmlns:sodipodi="http://sodipodi.sourceforge.net/DTD/sodipodi-0.dtd"
   xmlns="http://www.w3.org/2000/svg"
   xmlns:svg="http://www.w3.org/2000/svg">
  <sodipodi:namedview
     id="namedview946"
     pagecolor="#ffffff"
     bordercolor="#666666"
     borderopacity="1.0"
     inkscape:pageshadow="2"
     inkscape:pageopacity="0.0"
     inkscape:pagecheckerboard="0"
     inkscape:document-units="mm"
     showgrid="false"
     fit-margin-top="0"
     fit-margin-left="0"
     fit-margin-right="0"
     fit-margin-bottom="0"
     inkscape:zoom="4.253275"
     inkscape:cx="52.31263"
     inkscape:cy="89.460474"
     inkscape:window-width="1850"
     inkscape:window-height="1016"
     inkscape:window-x="70"
     inkscape:window-y="1107"
     inkscape:window-maximized="1"
     inkscape:current-layer="layer1" />
  <defs
     id="defs941" />
  <g
     inkscape:label="Capa 1"
     inkscape:groupmode="layer"
     id="layer1"
     transform="translate(-29.024239,-93.421157)">
    <ellipse
       cy="97.475121"
       cx="33.078197"
       id="path1760-3-3"
       style="vector-effect:none;fill:#ffffff;fill-opacity:1;stroke:#000000;stroke-width:0.412575;stroke-linecap:butt;stroke-linejoin:miter;stroke-miterlimit:4;stroke-dasharray:none;stroke-dashoffset:0;stroke-opacity:1"
       rx="3.8476732"
       ry="3.8476737" />
    <path
       style="display:inline;fill:#000000;fill-opacity:1;stroke:none;stroke-width:0.0171542px;stroke-linecap:butt;stroke-linejoin:miter;stroke-opacity:1"
       d="m 34.039295,95.175475 c 0.0054,0.03151 0.01202,0.06006 0.01908,0.07881 0.04884,0.129582 0.234658,0.324848 0.36903,0.387428 0.165147,0.0769 0.512303,0.0469 0.664807,-0.0576 0.155286,-0.10641 0.252145,-0.243261 0.289879,-0.408603 z m 1.107439,0.747088 c -0.02069,5.3e-4 -0.05072,0.0218 -0.0913,0.0389 -0.169944,0.0713 -0.514541,0.0712 -0.707514,-3.5e-4 -0.110087,-0.0408 -0.150421,-0.0444 -0.15032,-0.0132 0.05858,0.80832 0.108595,0.71246 0.176359,1.57541 l -0.08818,0.12984 c -0.179879,0.26507 -0.07988,0.62908 0.208996,0.76027 0.182304,0.0828 0.249685,0.0824 0.436027,-0.002 0.214558,-0.0974 0.30003,-0.2492 0.283632,-0.50477 -0.0098,-0.15299 -0.03379,-0.22479 -0.09686,-0.29196 l -0.08367,-0.0892 c -0.0067,-0.73564 0.225649,-0.95139 0.112828,-1.60283 z m -2.795676,1.12062 -0.855396,0.0917 c 0,0 -0.09852,0.26112 0.127406,0.35098 l 0.611346,-0.042 0.24544,0.30862 -0.805058,0.12463 -0.777292,0.21177 c -0.100185,0.0834 -0.02136,0.2812 0.0389,0.30515 l 0.693277,-0.0805 0.771039,-0.0514 c 0,0 -0.754009,0.22098 -0.771039,0.2201 -0.017,-6.8e-4 -0.778333,0.17115 -0.778333,0.17115 -0.16283,0.13022 -0.03097,0.36139 0.06107,0.36417 l 0.784931,-0.11977 0.716884,-0.13956 -0.354452,0.22912 -0.792911,0.12915 c -0.149421,0.10847 -0.04192,0.34652 0.09373,0.33952 l 0.778334,-0.14685 0.519001,-0.2194 -0.198226,0.18503 -0.461724,0.21142 c -0.149064,0.0897 0.02546,0.33155 0.14234,0.2819 l 0.596418,-0.19476 c 0.06664,-0.029 0.388123,-0.40861 0.388123,-0.40861 l 0.819991,-0.28397 0.116993,-0.1715 c 0,0 0.319968,-0.0587 0.512753,-0.10345 a 0.67159552,0.67159552 0 0 1 -0.54469,-0.65926 0.67159552,0.67159552 0 0 1 0.05106,-0.2569 l -0.171495,3.6e-4 -0.786664,-0.46589 -0.238151,-0.0122 z"
       id="path816-7-0-7"
       inkscape:connector-curvature="0"
       inkscape:export-filename="./arm.png"
       inkscape:export-xdpi="300"
       inkscape:export-ydpi="300" />
  </g>
</svg>
