<?xml version="1.0" encoding="UTF-8" standalone="no"?>
<!-- Created with Inkscape (http://www.inkscape.org/) -->

<svg
   width="8.1079206mm"
   height="8.1079216mm"
   viewBox="0 0 8.1079206 8.1079216"
   version="1.1"
   id="svg944"
   inkscape:version="1.1.2 (0a00cf5339, 2022-02-04)"
   sodipodi:docname="Particle.svg"
   xmlns:inkscape="http://www.inkscape.org/namespaces/inkscape"
   xmlns:sodipodi="http://sodipodi.sourceforge.net/DTD/sodipodi-0.dtd"
   xmlns="http://www.w3.org/2000/svg"
   xmlns:svg="http://www.w3.org/2000/svg">
  <sodipodi:namedview
     id="namedview946"
     pagecolor="#ffffff"
     bordercolor="#666666"
     borderopacity="1.0"
     inkscape:pageshadow="2"
     inkscape:pageopacity="0.0"
     inkscape:pagecheckerboard="0"
     inkscape:document-units="mm"
     showgrid="false"
     fit-margin-top="0"
     fit-margin-left="0"
     fit-margin-right="0"
     fit-margin-bottom="0"
     inkscape:zoom="3.0075196"
     inkscape:cx="58.686234"
     inkscape:cy="115.54372"
     inkscape:window-width="1850"
     inkscape:window-height="1016"
     inkscape:window-x="70"
     inkscape:window-y="1107"
     inkscape:window-maximized="1"
     inkscape:current-layer="layer1" />
  <defs
     id="defs941" />
  <g
     inkscape:label="Capa 1"
     inkscape:groupmode="layer"
     id="layer1"
     transform="translate(-29.024239,-93.421157)">
    <g
       id="g925"
       transform="matrix(1.3240563,0,0,1.3240565,-0.70901837,84.58636)"
       style="display:inline">
      <circle
         r="2.9059739"
         cy="9.7342958"
         cx="25.517962"
         id="path1760-3-3"
         style="opacity:1;vector-effect:none;fill:#ffffff;fill-opacity:1;stroke:#000000;stroke-width:0.311599;stroke-linecap:butt;stroke-linejoin:miter;stroke-miterlimit:4;stroke-dasharray:none;stroke-dashoffset:0;stroke-opacity:1" />
      <g
         inkscape:export-ydpi="300"
         inkscape:export-xdpi="300"
         inkscape:export-filename="5cpp.png"
         transform="matrix(0.55530279,0,0,0.55530279,8.9164052,-58.184263)"
         id="g1055">
        <path
           style="display:inline;fill:#000000;stroke:#000000;stroke-width:0.2;stroke-miterlimit:4;stroke-dasharray:none;stroke-opacity:1"
           d="m 31.683759,121.78745 c -0.149113,-0.37791 -0.304974,-0.63865 -0.476928,-0.79784 -0.159143,-0.14734 -0.442683,-0.30808 -0.762236,-0.43212 -0.06612,-0.0257 -0.11569,-0.0603 -0.110153,-0.0769 0.0055,-0.0166 0.134878,-0.0832 0.287426,-0.14805 0.566328,-0.24066 0.792737,-0.47837 1.037804,-1.08964 0.0504,-0.12572 0.103709,-0.22455 0.118462,-0.21964 0.01475,0.005 0.07963,0.13522 0.144175,0.28956 0.249895,0.59755 0.48919,0.8226 1.153122,1.08449 0.08805,0.0348 0.156286,0.0746 0.151633,0.0885 -0.0046,0.0139 -0.133297,0.0784 -0.285875,0.14327 -0.329974,0.14022 -0.557339,0.28557 -0.691746,0.44225 -0.09528,0.11106 -0.31251,0.51789 -0.4045,0.75755 -0.02481,0.0646 -0.05711,0.11752 -0.07178,0.11752 -0.01467,0 -0.0549,-0.0716 -0.08941,-0.15901 z"
           id="path932-27"
           inkscape:connector-curvature="0"
           sodipodi:nodetypes="cccccscccccccsc" />
        <path
           style="display:inline;fill:#000000;stroke:#000000;stroke-width:0.2;stroke-miterlimit:4;stroke-dasharray:none;stroke-opacity:1"
           d="m 31.683759,125.43568 c -0.149113,-0.37791 -0.304974,-0.63865 -0.476928,-0.79784 -0.159143,-0.14734 -0.442683,-0.30808 -0.762236,-0.43212 -0.06612,-0.0257 -0.11569,-0.0603 -0.110153,-0.0769 0.0055,-0.0166 0.134878,-0.0832 0.287426,-0.14805 0.566328,-0.24066 0.792737,-0.47837 1.037804,-1.08964 0.0504,-0.12572 0.103709,-0.22455 0.118462,-0.21964 0.01475,0.005 0.07963,0.13522 0.144175,0.28956 0.249895,0.59755 0.48919,0.8226 1.153122,1.08449 0.08805,0.0348 0.156286,0.0746 0.151633,0.0885 -0.0046,0.0139 -0.133297,0.0784 -0.285875,0.14327 -0.329974,0.14022 -0.557339,0.28557 -0.691746,0.44225 -0.09528,0.11106 -0.31251,0.51789 -0.4045,0.75755 -0.02481,0.0646 -0.05711,0.11752 -0.07178,0.11752 -0.01467,0 -0.0549,-0.0716 -0.08941,-0.15901 z"
           id="path932-5-0"
           inkscape:connector-curvature="0"
           sodipodi:nodetypes="cccccscccccccsc" />
        <path
           style="display:inline;fill:#000000;stroke:#000000;stroke-width:0.2;stroke-miterlimit:4;stroke-dasharray:none;stroke-opacity:1"
           d="m 27.918284,121.78745 c -0.149113,-0.37791 -0.304974,-0.63865 -0.476928,-0.79784 -0.159143,-0.14734 -0.442683,-0.30808 -0.762236,-0.43212 -0.06612,-0.0257 -0.11569,-0.0603 -0.110153,-0.0769 0.0055,-0.0166 0.134878,-0.0832 0.287426,-0.14805 0.566328,-0.24066 0.792737,-0.47837 1.037804,-1.08964 0.0504,-0.12572 0.103709,-0.22455 0.118462,-0.21964 0.01475,0.005 0.07963,0.13522 0.144175,0.28956 0.249895,0.59755 0.48919,0.8226 1.153122,1.08449 0.08805,0.0348 0.156286,0.0746 0.151633,0.0885 -0.0046,0.0139 -0.133297,0.0784 -0.285875,0.14327 -0.329974,0.14022 -0.557339,0.28557 -0.691746,0.44225 -0.09528,0.11106 -0.31251,0.51789 -0.4045,0.75755 -0.02481,0.0646 -0.05711,0.11752 -0.07178,0.11752 -0.01467,0 -0.0549,-0.0716 -0.08941,-0.15901 z"
           id="path932-6-9"
           inkscape:connector-curvature="0"
           sodipodi:nodetypes="cccccscccccccsc" />
        <path
           style="display:inline;fill:#000000;stroke:#000000;stroke-width:0.2;stroke-miterlimit:4;stroke-dasharray:none;stroke-opacity:1"
           d="m 27.918284,125.43568 c -0.149113,-0.37791 -0.304974,-0.63865 -0.476928,-0.79784 -0.159143,-0.14734 -0.442683,-0.30808 -0.762236,-0.43212 -0.06612,-0.0257 -0.11569,-0.0603 -0.110153,-0.0769 0.0055,-0.0166 0.134878,-0.0832 0.287426,-0.14805 0.566328,-0.24066 0.792737,-0.47837 1.037804,-1.08964 0.0504,-0.12572 0.103709,-0.22455 0.118462,-0.21964 0.01475,0.005 0.07963,0.13522 0.144175,0.28956 0.249895,0.59755 0.48919,0.8226 1.153122,1.08449 0.08805,0.0348 0.156286,0.0746 0.151633,0.0885 -0.0046,0.0139 -0.133297,0.0784 -0.285875,0.14327 -0.329974,0.14022 -0.557339,0.28557 -0.691746,0.44225 -0.09528,0.11106 -0.31251,0.51789 -0.4045,0.75755 -0.02481,0.0646 -0.05711,0.11752 -0.07178,0.11752 -0.01467,0 -0.0549,-0.0716 -0.08941,-0.15901 z"
           id="path932-2-3"
           inkscape:connector-curvature="0"
           sodipodi:nodetypes="cccccscccccccsc" />
        <path
           style="display:inline;fill:#000000;stroke:#000000;stroke-width:0.2;stroke-miterlimit:4;stroke-dasharray:none;stroke-opacity:1"
           d="m 29.801022,123.61156 c -0.149113,-0.37791 -0.304974,-0.63865 -0.476928,-0.79784 -0.159143,-0.14734 -0.442683,-0.30808 -0.762236,-0.43212 -0.06612,-0.0257 -0.115691,-0.0603 -0.110153,-0.0769 0.0055,-0.0166 0.134878,-0.0832 0.287426,-0.14805 0.566327,-0.24066 0.792736,-0.47837 1.037804,-1.08964 0.0504,-0.12572 0.103708,-0.22455 0.118462,-0.21964 0.01475,0.005 0.07963,0.13522 0.144175,0.28956 0.249895,0.59755 0.48919,0.8226 1.153122,1.08449 0.08805,0.0348 0.156286,0.0746 0.151632,0.0885 -0.0046,0.0139 -0.133296,0.0784 -0.285874,0.14327 -0.329974,0.14022 -0.557339,0.28557 -0.691746,0.44225 -0.09528,0.11106 -0.31251,0.51789 -0.4045,0.75755 -0.02481,0.0646 -0.05711,0.11752 -0.07178,0.11752 -0.01467,0 -0.0549,-0.0716 -0.08941,-0.15901 z"
           id="path932-27-6"
           inkscape:connector-curvature="0"
           sodipodi:nodetypes="cccccscccccccsc" />
      </g>
    </g>
  </g>
</svg>
