<?xml version="1.0" encoding="UTF-8" standalone="no"?>
<!-- Created with Inkscape (http://www.inkscape.org/) -->

<svg
   width="49.500797mm"
   height="19.172613mm"
   viewBox="0 0 49.500797 19.172614"
   version="1.1"
   id="svg2574"
   inkscape:version="1.1.2 (0a00cf5339, 2022-02-04)"
   sodipodi:docname="Pilot 4.svg"
   xmlns:inkscape="http://www.inkscape.org/namespaces/inkscape"
   xmlns:sodipodi="http://sodipodi.sourceforge.net/DTD/sodipodi-0.dtd"
   xmlns="http://www.w3.org/2000/svg"
   xmlns:svg="http://www.w3.org/2000/svg">
  <sodipodi:namedview
     id="namedview2576"
     pagecolor="#ffffff"
     bordercolor="#666666"
     borderopacity="1.0"
     inkscape:pageshadow="2"
     inkscape:pageopacity="0.0"
     inkscape:pagecheckerboard="0"
     inkscape:document-units="mm"
     showgrid="false"
     fit-margin-top="0"
     fit-margin-left="0"
     fit-margin-right="0"
     fit-margin-bottom="0"
     inkscape:snap-global="true"
     inkscape:zoom="5.6568542"
     inkscape:cx="39.156038"
     inkscape:cy="6.6291261"
     inkscape:window-width="1846"
     inkscape:window-height="1016"
     inkscape:window-x="74"
     inkscape:window-y="1107"
     inkscape:window-maximized="1"
     inkscape:current-layer="layer1" />
  <defs
     id="defs2571" />
  <g
     inkscape:label="Capa 1"
     inkscape:groupmode="layer"
     id="layer1"
     transform="translate(-65.373825,-116.04208)">
    <path
       style="display:inline;fill:#000000;stroke-width:0.0157096"
       d="m 70.554047,123.48417 c -0.4896,0 -0.510722,10e-4 -0.567922,0.0336 -0.0327,0.0185 -0.067,0.0504 -0.077,0.0713 -0.0103,0.0223 -0.01705,0.13561 -0.01705,0.27389 0,0.22928 -0.0013,0.23638 -0.03876,0.27388 -0.04642,0.0469 -0.07192,0.0489 -0.120922,0.009 -0.0351,-0.0287 -0.03669,-0.0391 -0.03669,-0.22789 0,-0.12796 -0.0058,-0.19789 -0.01654,-0.19792 -0.0516,-1.7e-4 -0.373611,0.12397 -0.549321,0.21187 -0.24951,0.1248 -0.452497,0.26793 -0.653707,0.46044 -0.53426,0.51114 -0.834369,1.1902 -0.892968,2.02003 -0.0084,0.12003 -0.01764,0.21943 -0.01964,0.22014 -0.04964,0.0196 -0.10379,0.0653 -0.12609,0.10646 -0.026,0.0479 -0.02829,0.0965 -0.02429,0.57102 0.0049,0.59261 0.0025,0.5808 0.142627,0.632 0.057,0.0208 0.07772,0.037 0.08372,0.0667 0.02626,0.12591 0.08238,0.26671 0.150378,0.37724 0.14041,0.22816 0.401339,0.47465 0.749308,0.70693 0.118951,0.0794 0.180753,0.13494 0.275953,0.24856 0.37648,0.44912 0.891249,0.73689 1.477429,0.82579 0.02593,0.003 0.167301,0.004 0.314193,10e-4 0.293118,-0.006 0.425201,-0.0295 0.67541,-0.11834 0.393501,-0.13966 0.776435,-0.41435 1.043865,-0.7488 0.06316,-0.079 0.126225,-0.13362 0.238745,-0.20722 0.49644,-0.32456 0.802685,-0.67932 0.887285,-1.02681 0.0172,-0.0705 0.03389,-0.10593 0.04909,-0.10593 0.04753,0 0.130215,-0.0525 0.160713,-0.10181 0.0296,-0.0487 0.03159,-0.0774 0.03152,-0.56792 2e-6,-0.48465 -0.0017,-0.51917 -0.03049,-0.56638 -0.0169,-0.0277 -0.05225,-0.0618 -0.07855,-0.0754 -0.0325,-0.0168 -0.04806,-0.0361 -0.04806,-0.061 -3e-6,-0.0201 -0.007,-0.12663 -0.01602,-0.23668 -0.05166,-0.63611 -0.280701,-1.24187 -0.63872,-1.68982 -0.259342,-0.32447 -0.581289,-0.57844 -0.9648,-0.76068 -0.15398,-0.0732 -0.445741,-0.1819 -0.488342,-0.1819 -0.0064,0 -0.0124,0.085 -0.0124,0.18914 0,0.17998 -0.0021,0.19119 -0.03876,0.22789 -0.04495,0.0449 -0.06734,0.0476 -0.11524,0.014 -0.0339,-0.0234 -0.03462,-0.034 -0.03462,-0.26304 0,-0.27106 -0.0157,-0.32345 -0.111104,-0.37465 -0.04868,-0.0267 -0.0996,-0.0289 -0.56224,-0.0289 z m -0.720886,2.5864 c 0.0045,0.004 -0.0043,0.0803 -0.01964,0.16847 -0.044,0.25383 -0.04799,0.2994 -0.05839,0.73587 -0.0068,0.27776 -0.0026,0.48189 0.01292,0.62425 0.0126,0.11631 0.02389,0.23152 0.02481,0.25632 l -5.18e-4,5.1e-4 c 0.0013,0.0363 -0.01595,0.0548 -0.09095,0.0951 -0.113339,0.061 -0.10581,0.0737 -0.14521,-0.24701 -0.0528,-0.42915 -0.03598,-1.09467 0.03772,-1.49397 l 0.02171,-0.11782 0.104903,-0.0145 c 0.05767,-0.008 0.107653,-0.0122 0.112654,-0.007 z m -0.54622,0.0506 c 0.0044,0.004 2.16e-4,0.0401 -0.0088,0.0796 -0.0955,0.40709 -0.100302,1.28182 -0.0093,1.72289 l 0.02325,0.11266 -0.05633,-10e-4 c -0.13913,-0.003 -0.483542,-0.13514 -0.574642,-0.22014 -0.15013,-0.14024 -0.214457,-0.35568 -0.214457,-0.71985 0,-0.24604 0.05898,-0.78917 0.08888,-0.81907 0.03358,-0.0336 0.729276,-0.17713 0.751375,-0.15503 z m 1.241267,1.6123 c 0.08118,-0.008 0.09929,-0.002 0.184486,0.0568 0.05205,0.0362 0.161481,0.12479 0.24288,0.19689 0.28077,0.24853 0.449829,0.32348 0.75861,0.33538 0.235228,0.009 0.393899,-0.0238 0.65009,-0.13384 0.163793,-0.0704 0.288697,-0.16778 0.380338,-0.29662 -0.0339,0.0729 -0.0725,0.14152 -0.11989,0.20412 -0.05085,0.0672 -0.09637,0.15058 -0.119372,0.21807 -0.02045,0.06 -0.06567,0.16822 -0.10077,0.24082 -0.05168,0.10666 -0.07362,0.13576 -0.11472,0.15296 -0.06158,0.0257 -0.275744,0.0648 -0.427366,0.078 -0.110548,0.01 -0.111397,0.009 -0.169497,-0.0455 -0.0321,-0.0302 -0.08469,-0.0623 -0.11679,-0.0713 -0.03405,-0.009 -0.250293,-0.016 -0.518314,-0.016 -0.492561,-1e-4 -0.529701,0.005 -0.613399,0.0832 -0.132681,0.12391 -0.100883,0.35807 0.06098,0.44907 0.05592,0.0318 0.08015,0.0331 0.556553,0.0331 0.556832,0 0.562809,-8.8e-4 0.656807,-0.10955 0.04901,-0.0567 0.05448,-0.0587 0.18397,-0.0687 0.07347,-0.006 0.149582,-0.0152 0.168982,-0.0202 0.0202,-0.005 0.03514,-0.002 0.03514,0.007 0,0.009 -0.07608,0.0933 -0.168981,0.18759 -0.165,0.16758 -0.327986,0.29959 -0.480074,0.38809 l -0.07545,0.0439 -0.128675,-0.0636 c -0.2296,-0.11362 -0.349073,-0.18943 -0.702284,-0.18914 -0.242948,3e-4 -0.327241,0.0586 -0.408241,0.0806 -0.125886,0.0342 -0.255151,0.0846 -0.337966,0.13177 -0.03443,0.0196 -0.07067,0.0356 -0.08061,0.0357 -0.02886,3.1e-4 -0.286626,-0.17489 -0.403076,-0.27389 -0.29612,-0.25165 -0.604108,-0.70541 -0.727088,-1.07176 -0.02665,-0.0794 -0.06135,-0.14442 -0.100252,-0.18862 -0.03693,-0.042 -0.07869,-0.11039 -0.116789,-0.18294 0.0601,0.0759 0.129262,0.1416 0.210323,0.19017 0.12867,0.077 0.319161,0.15267 0.463021,0.18397 v -5.2e-4 c 0.13306,0.0295 0.423208,0.0339 0.535368,0.008 0.14923,-0.034 0.364422,-0.15401 0.515732,-0.28732 0.272439,-0.24006 0.327631,-0.27729 0.426328,-0.28629 z"
       id="path873-6"
       inkscape:connector-curvature="0" />
    <path
       id="rect965-3-06-3-0"
       style="display:inline;fill:#ffffff;fill-opacity:1;stroke:#000000;stroke-width:2.26771657;stroke-linecap:butt;stroke-linejoin:miter;stroke-miterlimit:4;stroke-dasharray:none;stroke-dashoffset:0;stroke-opacity:1"
       d="M 56.113281 0.75585938 L 6.4882812 0.7578125 L 0.76367188 10.730469 L 0.76367188 58.646484 L 3.9746094 61.855469 L 108.17188 61.833984 L 113.87109 71.701172 L 183.11719 71.701172 L 186.32617 68.490234 L 186.32617 13.763672 L 183.11914 10.558594 L 111.58008 10.558594 L 105.73633 0.75585938 L 56.113281 0.75585938 z "
       transform="matrix(0.26458333,0,0,0.26458333,65.373825,116.04208)" />
    <path
       sodipodi:nodetypes="ccccccccccc"
       inkscape:connector-curvature="0"
       id="rect912-9-1-2-7-26"
       d="m 67.506899,116.90957 -1.16452,1.94273 1.16452,2.30972 h 0.0796 25.244894 0.07907 l 1.316816,-2.19279 -1.316816,-2.05966 h -0.07907 -25.244884 z"
       style="vector-effect:none;fill:#000000;fill-opacity:1;stroke:#000000;stroke-width:0.4;stroke-linecap:butt;stroke-linejoin:miter;stroke-miterlimit:4;stroke-dasharray:none;stroke-dashoffset:0;stroke-opacity:1" />
    <text
       id="text8716-3-6-5-1"
       y="119.98988"
       x="74.706734"
       style="font-style:normal;font-weight:normal;font-size:158.75px;line-height:1.25;font-family:sans-serif;letter-spacing:0px;word-spacing:0px;fill:#000000;fill-opacity:1;stroke:none;stroke-width:0.264583"
       xml:space="preserve"><tspan
         style="font-style:normal;font-variant:normal;font-weight:normal;font-stretch:normal;font-size:3.175px;font-family:Robotech;-inkscape-font-specification:Robotech;fill:#ffffff;stroke-width:0.264583"
         y="119.98988"
         x="74.706734"
         id="tspan8714-6-1-3-8"
         sodipodi:role="line">piloto</tspan></text>
    <rect
       y="122.68229"
       x="90.229759"
       height="8.2894325"
       width="8.2894325"
       id="rect925-7-3-61-49-0-6-7-3"
       style="display:inline;vector-effect:none;fill:#ffffff;fill-opacity:1;stroke:#000000;stroke-width:0.710567;stroke-linecap:butt;stroke-linejoin:miter;stroke-miterlimit:4;stroke-dasharray:none;stroke-dashoffset:0;stroke-opacity:1" />
    <rect
       y="122.68229"
       x="100.51924"
       height="8.2894325"
       width="8.2894325"
       id="rect925-7-3-61-49-9-3-8-6"
       style="display:inline;vector-effect:none;fill:#ffffff;fill-opacity:1;stroke:#000000;stroke-width:0.710567;stroke-linecap:butt;stroke-linejoin:miter;stroke-miterlimit:4;stroke-dasharray:none;stroke-dashoffset:0;stroke-opacity:1" />
    <rect
       y="122.68229"
       x="79.940277"
       height="8.2894325"
       width="8.2894325"
       id="rect925-7-3-61-49-09-4-75"
       style="display:inline;vector-effect:none;fill:#ffffff;fill-opacity:1;stroke:#000000;stroke-width:0.710567;stroke-linecap:butt;stroke-linejoin:miter;stroke-miterlimit:4;stroke-dasharray:none;stroke-dashoffset:0;stroke-opacity:1" />
    <path
       style="fill:#000000;stroke-width:0.0324373"
       d="m 70.902648,130.25265 c -0.128799,-0.0974 -0.42454,-0.11168 -0.584308,-0.0283 -0.143428,0.0749 -0.165406,0.0256 -0.0408,-0.0915 0.171084,-0.16072 0.556535,-0.11431 0.685521,0.0825 0.0701,0.10699 0.04905,0.11994 -0.06042,0.0372 z m -0.738385,-0.17872 c 0,-0.0529 0.106418,-0.17135 0.194982,-0.21715 0.181542,-0.0939 0.412543,-0.0573 0.575404,0.091 0.119479,0.10882 0.09103,0.16093 -0.04428,0.0811 -0.08319,-0.0491 -0.171651,-0.0692 -0.304423,-0.0692 -0.132771,0 -0.221235,0.0201 -0.304421,0.0692 -0.0645,0.0381 -0.117264,0.0584 -0.117264,0.045 z m -0.03244,-0.20302 c 0,-0.0201 0.04848,-0.0851 0.107729,-0.14438 0.191022,-0.19102 0.501766,-0.19102 0.692788,0 0.13557,0.13557 0.140585,0.20533 0.0077,0.10708 -0.08409,-0.0622 -0.140506,-0.0739 -0.354094,-0.0739 -0.213587,0 -0.269999,0.0118 -0.354093,0.0739 -0.05501,0.0407 -0.100029,0.0575 -0.10003,0.0373 z m 0,-0.22912 c 0,-0.019 0.04848,-0.0831 0.107729,-0.14232 0.186179,-0.18618 0.482487,-0.19074 0.687679,-0.0105 0.156491,0.1374 0.150961,0.21001 -0.0088,0.11558 -0.09201,-0.0544 -0.172996,-0.0719 -0.332482,-0.0719 -0.159487,0 -0.240472,0.0175 -0.332483,0.0719 -0.0669,0.0395 -0.12164,0.0563 -0.12164,0.0373 z m -0.03243,-0.1898 c 0,-0.0824 0.215793,-0.26458 0.348701,-0.29433 0.204413,-0.0458 0.391408,0.007 0.518997,0.14565 0.133373,0.14523 0.136362,0.20544 0.0054,0.10861 -0.08636,-0.0638 -0.139178,-0.074 -0.386531,-0.074 -0.247352,0 -0.300169,0.0101 -0.38653,0.074 -0.05501,0.0407 -0.100029,0.0587 -0.100029,0.04 z m -0.487882,-0.18345 c -0.145643,-0.0487 -0.148545,-0.0525 -0.259499,-0.34382 l -0.112208,-0.2946 -0.328534,-0.15449 c -0.646305,-0.30392 -0.800903,-0.55506 -0.85693,-1.39206 -0.01897,-0.28335 -0.05495,-0.52377 -0.101949,-0.68119 -0.0591,-0.19792 -0.0726,-0.32189 -0.07243,-0.66496 1.96e-4,-0.39501 0.0065,-0.43746 0.100049,-0.67116 0.182474,-0.45594 0.491669,-0.81376 0.980131,-1.13426 0.381693,-0.25044 0.518278,-0.21172 0.607489,0.17224 0.04456,0.19178 0.192011,0.47541 0.228293,0.43913 0.0088,-0.009 -0.0012,-0.10336 -0.02213,-0.21007 -0.0375,-0.19063 -0.03409,-0.72851 0.0049,-0.76744 0.01092,-0.0109 0.142296,-0.0431 0.291935,-0.0714 0.30003,-0.0569 0.8537,-0.0471 1.154984,0.0205 0.157204,0.0352 0.170793,0.046 0.190335,0.15014 0.02343,0.1249 -0.0018,0.65622 -0.03839,0.80734 -0.02164,0.0895 -0.01902,0.0936 0.03249,0.051 0.08038,-0.0664 0.136172,-0.18641 0.197836,-0.42549 0.09948,-0.38569 0.221185,-0.41639 0.620135,-0.15639 0.472005,0.30761 0.826492,0.73597 0.989593,1.19583 0.107542,0.30321 0.108068,0.91117 0.0011,1.27468 -0.04837,0.16439 -0.08421,0.40281 -0.102394,0.68118 -0.05401,0.82684 -0.21602,1.08431 -0.87603,1.39222 l -0.308155,0.14376 -0.109487,0.29522 -0.109488,0.29523 -0.156106,0.051 c -0.229451,0.0751 -0.30352,0.0646 -0.536794,-0.0762 -0.346536,-0.209 -0.545815,-0.20632 -0.888436,0.0119 -0.197211,0.12563 -0.295101,0.13731 -0.520281,0.0621 z m 0.974443,-0.53067 c 0.08566,0 0.154887,0.0253 0.220853,0.0808 l 0.09608,0.0808 0.0195,-0.0727 c 0.08613,-0.32136 -0.07248,-0.60796 -0.336431,-0.60796 -0.263957,0 -0.422557,0.2866 -0.33643,0.60796 l 0.0195,0.0727 0.09608,-0.0808 c 0.06597,-0.0555 0.135189,-0.0808 0.220853,-0.0808 z m -1.410521,-0.48814 c 0.03577,-0.1127 -0.06333,-0.21258 -0.305005,-0.30739 -0.247792,-0.0972 -0.328027,-0.0906 -0.328027,0.0272 0,0.10149 0.07739,0.16728 0.310672,0.26413 0.236582,0.0982 0.295349,0.10115 0.32236,0.016 z m -0.398355,-0.0951 c -0.264503,-0.12006 -0.218016,-0.27112 0.04925,-0.16005 0.15995,0.0665 0.222866,0.13285 0.184604,0.19476 -0.02675,0.0433 -0.07913,0.0355 -0.233856,-0.0347 z m 3.534224,0.0805 c 0.23977,-0.0974 0.318204,-0.16289 0.318204,-0.26558 0,-0.11525 -0.07453,-0.12327 -0.31611,-0.034 -0.241079,0.0891 -0.353361,0.19934 -0.317655,0.31184 0.02802,0.0883 0.07231,0.0865 0.315561,-0.0123 z m -0.150328,-0.0458 c -0.03826,-0.0619 0.02465,-0.12828 0.184603,-0.19476 0.17496,-0.0727 0.240329,-0.0561 0.205886,0.0525 -0.01153,0.0363 -0.08301,0.0845 -0.173518,0.11695 -0.17732,0.0635 -0.192269,0.0653 -0.216971,0.0253 z m -1.928065,-0.104 c 0.07511,-0.0751 0.07365,-0.11714 -0.01788,-0.51524 -0.02666,-0.11596 -0.049,-0.30899 -0.04962,-0.42896 -0.0011,-0.21331 0.0012,-0.21936 0.104282,-0.27462 0.144689,-0.0775 0.490018,-0.0764 0.63679,0.002 l 0.109682,0.0587 -0.01652,0.29701 c -0.0091,0.16335 -0.04347,0.39635 -0.0764,0.51777 -0.05402,0.19918 -0.0551,0.2293 -0.01105,0.30815 0.03669,0.0657 0.07809,0.0899 0.166525,0.0973 0.180912,0.0152 0.278028,-0.12073 0.38285,-0.53587 l 0.03452,-0.13673 0.218007,0.12051 c 0.206192,0.11397 0.233829,0.1205 0.509943,0.1205 0.328355,0 0.519477,-0.0708 0.68822,-0.25489 0.08635,-0.0942 0.08675,-0.0961 0.0092,-0.0435 -0.297751,0.20184 -0.568776,0.26834 -0.868119,0.21301 -0.287651,-0.0532 -0.485177,-0.17313 -0.769966,-0.46758 -0.319378,-0.33021 -0.41941,-0.38551 -0.697403,-0.38551 -0.277562,0 -0.377249,0.0552 -0.697404,0.38623 -0.288056,0.29782 -0.483009,0.41466 -0.782538,0.46897 -0.287023,0.052 -0.529602,6.1e-4 -0.790672,-0.16768 l -0.145968,-0.0941 0.139831,0.13004 c 0.293424,0.27286 0.75609,0.3096 1.152814,0.0915 l 0.2138,-0.11753 0.03452,0.13673 c 0.05859,0.23207 0.13548,0.41837 0.19877,0.48166 0.08117,0.0812 0.238457,0.0772 0.323799,-0.008 z m -0.328154,-0.14223 c -0.0596,-0.0718 -0.07431,-0.31156 -0.02484,-0.40516 0.101007,-0.19113 0.24923,-0.0841 0.250886,0.1812 0.0014,0.22255 -0.12406,0.34685 -0.226046,0.22396 z m 1.185817,-0.0234 c -0.07403,-0.10569 -0.0663,-0.35767 0.01317,-0.42959 0.125534,-0.11361 0.24869,0.047 0.217726,0.284 -0.02775,0.21237 -0.136219,0.28076 -0.230896,0.14559 z m 1.712959,-1.45481 c 0.251833,-0.19809 -0.08978,-0.76661 -0.395945,-0.65894 -0.04735,0.0166 -0.106097,0.072 -0.130552,0.12304 -0.0816,0.17025 0.06141,0.4668 0.268622,0.55702 0.135052,0.0588 0.158735,0.0569 0.257875,-0.0212 z m -3.679648,-0.097 c 0.139726,-0.10122 0.259839,-0.30616 0.261171,-0.44562 9.52e-4,-0.10027 -0.08282,-0.25634 -0.159678,-0.29748 -0.257259,-0.13768 -0.667696,0.14955 -0.706574,0.49447 -0.01329,0.11794 -0.002,0.15651 0.07166,0.24402 0.07585,0.0901 0.107927,0.10392 0.241886,0.10392 0.12081,0 0.184288,-0.0216 0.291535,-0.0993 z m 0.715648,-0.46816 c 0.125487,-0.0649 0.194982,-0.17075 0.194982,-0.29702 0,-0.18777 -0.136824,-0.25427 -0.324015,-0.15747 -0.185011,0.0957 -0.255608,0.31733 -0.141299,0.44365 0.06515,0.072 0.145839,0.0752 0.270332,0.0108 z m -1.138941,-0.50479 c 0.925508,-0.60759 2.251084,-0.7071 3.304899,-0.24811 0.342617,0.14923 0.598645,0.31873 0.86367,0.5718 0.122892,0.11735 0.207856,0.18416 0.188809,0.14848 -0.06176,-0.1157 -0.471298,-0.49254 -0.700093,-0.64421 -0.256427,-0.16997 -0.597862,-0.31919 -0.955303,-0.41748 -0.208612,-0.0574 -0.34099,-0.0686 -0.816624,-0.0693 -0.483688,-6.1e-4 -0.604899,0.01 -0.819451,0.0692 -0.340073,0.0945 -0.730481,0.26729 -0.974214,0.4311 -0.213436,0.14344 -0.620485,0.522 -0.678144,0.63067 -0.01893,0.0357 0.05083,-0.0202 0.155031,-0.12421 0.104199,-0.104 0.298338,-0.26058 0.43142,-0.34795 z m -0.947882,1.92119 c -0.04538,-0.0502 -0.05368,-0.14196 -0.05368,-0.59361 0,-0.37038 0.01186,-0.54614 0.03868,-0.57296 0.06042,-0.0604 0.173901,0.43236 0.198478,0.86191 l 0.02082,0.36398 h -0.07531 c -0.04142,0 -0.09946,-0.0267 -0.12899,-0.0593 z m 5.484342,-0.30403 c 0.02254,-0.42721 0.13601,-0.92367 0.197145,-0.86254 0.02685,0.0269 0.03867,0.20384 0.03867,0.5786 0,0.48187 -0.0064,0.54569 -0.05932,0.59361 -0.03262,0.0295 -0.09,0.0537 -0.127494,0.0537 -0.06636,0 -0.06767,-0.01 -0.04901,-0.36335 z"
       id="path843" />
  </g>
</svg>
