<?xml version="1.0" encoding="UTF-8" standalone="no"?>
<!-- Created with Inkscape (http://www.inkscape.org/) -->

<svg
   width="49.500797mm"
   height="19.172613mm"
   viewBox="0 0 49.500797 19.172614"
   version="1.1"
   id="svg2574"
   inkscape:version="1.1.2 (0a00cf5339, 2022-02-04)"
   sodipodi:docname="Pilot.svg"
   xmlns:inkscape="http://www.inkscape.org/namespaces/inkscape"
   xmlns:sodipodi="http://sodipodi.sourceforge.net/DTD/sodipodi-0.dtd"
   xmlns="http://www.w3.org/2000/svg"
   xmlns:svg="http://www.w3.org/2000/svg">
  <sodipodi:namedview
     id="namedview2576"
     pagecolor="#ffffff"
     bordercolor="#666666"
     borderopacity="1.0"
     inkscape:pageshadow="2"
     inkscape:pageopacity="0.0"
     inkscape:pagecheckerboard="0"
     inkscape:document-units="mm"
     showgrid="false"
     fit-margin-top="0"
     fit-margin-left="0"
     fit-margin-right="0"
     fit-margin-bottom="0"
     inkscape:snap-global="true"
     inkscape:zoom="2"
     inkscape:cx="29.75"
     inkscape:cy="54.75"
     inkscape:window-width="1846"
     inkscape:window-height="1016"
     inkscape:window-x="74"
     inkscape:window-y="1107"
     inkscape:window-maximized="1"
     inkscape:current-layer="layer1" />
  <defs
     id="defs2571" />
  <g
     inkscape:label="Capa 1"
     inkscape:groupmode="layer"
     id="layer1"
     transform="translate(-65.373825,-116.04208)">
    <path
       style="display:inline;fill:#000000;stroke-width:0.0157096"
       d="m 70.554047,123.48417 c -0.4896,0 -0.510722,10e-4 -0.567922,0.0336 -0.0327,0.0185 -0.067,0.0504 -0.077,0.0713 -0.0103,0.0223 -0.01705,0.13561 -0.01705,0.27389 0,0.22928 -0.0013,0.23638 -0.03876,0.27388 -0.04642,0.0469 -0.07192,0.0489 -0.120922,0.009 -0.0351,-0.0287 -0.03669,-0.0391 -0.03669,-0.22789 0,-0.12796 -0.0058,-0.19789 -0.01654,-0.19792 -0.0516,-1.7e-4 -0.373611,0.12397 -0.549321,0.21187 -0.24951,0.1248 -0.452497,0.26793 -0.653707,0.46044 -0.53426,0.51114 -0.834369,1.1902 -0.892968,2.02003 -0.0084,0.12003 -0.01764,0.21943 -0.01964,0.22014 -0.04964,0.0196 -0.10379,0.0653 -0.12609,0.10646 -0.026,0.0479 -0.02829,0.0965 -0.02429,0.57102 0.0049,0.59261 0.0025,0.5808 0.142627,0.632 0.057,0.0208 0.07772,0.037 0.08372,0.0667 0.02626,0.12591 0.08238,0.26671 0.150378,0.37724 0.14041,0.22816 0.401339,0.47465 0.749308,0.70693 0.118951,0.0794 0.180753,0.13494 0.275953,0.24856 0.37648,0.44912 0.891249,0.73689 1.477429,0.82579 0.02593,0.003 0.167301,0.004 0.314193,10e-4 0.293118,-0.006 0.425201,-0.0295 0.67541,-0.11834 0.393501,-0.13966 0.776435,-0.41435 1.043865,-0.7488 0.06316,-0.079 0.126225,-0.13362 0.238745,-0.20722 0.49644,-0.32456 0.802685,-0.67932 0.887285,-1.02681 0.0172,-0.0705 0.03389,-0.10593 0.04909,-0.10593 0.04753,0 0.130215,-0.0525 0.160713,-0.10181 0.0296,-0.0487 0.03159,-0.0774 0.03152,-0.56792 2e-6,-0.48465 -0.0017,-0.51917 -0.03049,-0.56638 -0.0169,-0.0277 -0.05225,-0.0618 -0.07855,-0.0754 -0.0325,-0.0168 -0.04806,-0.0361 -0.04806,-0.061 -3e-6,-0.0201 -0.007,-0.12663 -0.01602,-0.23668 -0.05166,-0.63611 -0.280701,-1.24187 -0.63872,-1.68982 -0.259342,-0.32447 -0.581289,-0.57844 -0.9648,-0.76068 -0.15398,-0.0732 -0.445741,-0.1819 -0.488342,-0.1819 -0.0064,0 -0.0124,0.085 -0.0124,0.18914 0,0.17998 -0.0021,0.19119 -0.03876,0.22789 -0.04495,0.0449 -0.06734,0.0476 -0.11524,0.014 -0.0339,-0.0234 -0.03462,-0.034 -0.03462,-0.26304 0,-0.27106 -0.0157,-0.32345 -0.111104,-0.37465 -0.04868,-0.0267 -0.0996,-0.0289 -0.56224,-0.0289 z m -0.720886,2.5864 c 0.0045,0.004 -0.0043,0.0803 -0.01964,0.16847 -0.044,0.25383 -0.04799,0.2994 -0.05839,0.73587 -0.0068,0.27776 -0.0026,0.48189 0.01292,0.62425 0.0126,0.11631 0.02389,0.23152 0.02481,0.25632 l -5.18e-4,5.1e-4 c 0.0013,0.0363 -0.01595,0.0548 -0.09095,0.0951 -0.113339,0.061 -0.10581,0.0737 -0.14521,-0.24701 -0.0528,-0.42915 -0.03598,-1.09467 0.03772,-1.49397 l 0.02171,-0.11782 0.104903,-0.0145 c 0.05767,-0.008 0.107653,-0.0122 0.112654,-0.007 z m -0.54622,0.0506 c 0.0044,0.004 2.16e-4,0.0401 -0.0088,0.0796 -0.0955,0.40709 -0.100302,1.28182 -0.0093,1.72289 l 0.02325,0.11266 -0.05633,-10e-4 c -0.13913,-0.003 -0.483542,-0.13514 -0.574642,-0.22014 -0.15013,-0.14024 -0.214457,-0.35568 -0.214457,-0.71985 0,-0.24604 0.05898,-0.78917 0.08888,-0.81907 0.03358,-0.0336 0.729276,-0.17713 0.751375,-0.15503 z m 1.241267,1.6123 c 0.08118,-0.008 0.09929,-0.002 0.184486,0.0568 0.05205,0.0362 0.161481,0.12479 0.24288,0.19689 0.28077,0.24853 0.449829,0.32348 0.75861,0.33538 0.235228,0.009 0.393899,-0.0238 0.65009,-0.13384 0.163793,-0.0704 0.288697,-0.16778 0.380338,-0.29662 -0.0339,0.0729 -0.0725,0.14152 -0.11989,0.20412 -0.05085,0.0672 -0.09637,0.15058 -0.119372,0.21807 -0.02045,0.06 -0.06567,0.16822 -0.10077,0.24082 -0.05168,0.10666 -0.07362,0.13576 -0.11472,0.15296 -0.06158,0.0257 -0.275744,0.0648 -0.427366,0.078 -0.110548,0.01 -0.111397,0.009 -0.169497,-0.0455 -0.0321,-0.0302 -0.08469,-0.0623 -0.11679,-0.0713 -0.03405,-0.009 -0.250293,-0.016 -0.518314,-0.016 -0.492561,-1e-4 -0.529701,0.005 -0.613399,0.0832 -0.132681,0.12391 -0.100883,0.35807 0.06098,0.44907 0.05592,0.0318 0.08015,0.0331 0.556553,0.0331 0.556832,0 0.562809,-8.8e-4 0.656807,-0.10955 0.04901,-0.0567 0.05448,-0.0587 0.18397,-0.0687 0.07347,-0.006 0.149582,-0.0152 0.168982,-0.0202 0.0202,-0.005 0.03514,-0.002 0.03514,0.007 0,0.009 -0.07608,0.0933 -0.168981,0.18759 -0.165,0.16758 -0.327986,0.29959 -0.480074,0.38809 l -0.07545,0.0439 -0.128675,-0.0636 c -0.2296,-0.11362 -0.349073,-0.18943 -0.702284,-0.18914 -0.242948,3e-4 -0.327241,0.0586 -0.408241,0.0806 -0.125886,0.0342 -0.255151,0.0846 -0.337966,0.13177 -0.03443,0.0196 -0.07067,0.0356 -0.08061,0.0357 -0.02886,3.1e-4 -0.286626,-0.17489 -0.403076,-0.27389 -0.29612,-0.25165 -0.604108,-0.70541 -0.727088,-1.07176 -0.02665,-0.0794 -0.06135,-0.14442 -0.100252,-0.18862 -0.03693,-0.042 -0.07869,-0.11039 -0.116789,-0.18294 0.0601,0.0759 0.129262,0.1416 0.210323,0.19017 0.12867,0.077 0.319161,0.15267 0.463021,0.18397 v -5.2e-4 c 0.13306,0.0295 0.423208,0.0339 0.535368,0.008 0.14923,-0.034 0.364422,-0.15401 0.515732,-0.28732 0.272439,-0.24006 0.327631,-0.27729 0.426328,-0.28629 z"
       id="path873-6"
       inkscape:connector-curvature="0" />
    <path
       id="rect965-3-06-3-0"
       style="display:inline;fill:#ffffff;fill-opacity:1;stroke:#000000;stroke-width:2.26771657;stroke-linecap:butt;stroke-linejoin:miter;stroke-miterlimit:4;stroke-dasharray:none;stroke-dashoffset:0;stroke-opacity:1"
       d="M 56.113281 0.75585938 L 6.4882812 0.7578125 L 0.76367188 10.730469 L 0.76367188 58.646484 L 3.9746094 61.855469 L 108.17188 61.833984 L 113.87109 71.701172 L 183.11719 71.701172 L 186.32617 68.490234 L 186.32617 13.763672 L 183.11914 10.558594 L 111.58008 10.558594 L 105.73633 0.75585938 L 56.113281 0.75585938 z "
       transform="matrix(0.26458333,0,0,0.26458333,65.373825,116.04208)" />
    <path
       sodipodi:nodetypes="ccccccccccc"
       inkscape:connector-curvature="0"
       id="rect912-9-1-2-7-26"
       d="m 67.506899,116.90957 -1.16452,1.94273 1.16452,2.30972 h 0.0796 25.244894 0.07907 l 1.316816,-2.19279 -1.316816,-2.05966 h -0.07907 -25.244884 z"
       style="vector-effect:none;fill:#000000;fill-opacity:1;stroke:#000000;stroke-width:0.4;stroke-linecap:butt;stroke-linejoin:miter;stroke-miterlimit:4;stroke-dasharray:none;stroke-dashoffset:0;stroke-opacity:1" />
    <text
       id="text8716-3-6-5-1"
       y="119.98988"
       x="74.706734"
       style="font-style:normal;font-weight:normal;font-size:158.75px;line-height:1.25;font-family:sans-serif;letter-spacing:0px;word-spacing:0px;fill:#000000;fill-opacity:1;stroke:none;stroke-width:0.264583"
       xml:space="preserve"><tspan
         style="font-style:normal;font-variant:normal;font-weight:normal;font-stretch:normal;font-size:3.175px;font-family:Robotech;-inkscape-font-specification:Robotech;fill:#ffffff;stroke-width:0.264583"
         y="119.98988"
         x="74.706734"
         id="tspan8714-6-1-3-8"
         sodipodi:role="line">piloto</tspan></text>
    <path
       style="fill:#000000;stroke-width:0.0301867"
       d="m 70.352119,130.384 c -0.308417,-0.0778 -0.696524,-0.3461 -0.904616,-0.62551 -0.07117,-0.0955 -0.163364,-0.20048 -0.204872,-0.23315 -0.04151,-0.0326 -0.156971,-0.13599 -0.256587,-0.22962 -0.166109,-0.1561 -0.188626,-0.16805 -0.27168,-0.14427 -0.139888,0.04 -0.243079,0.002 -0.364663,-0.13181 -0.168966,-0.18703 -0.577393,-0.82662 -0.631083,-0.98825 -0.03029,-0.0913 -0.07477,-0.15755 -0.122882,-0.18331 -0.04147,-0.0223 -0.11578,-0.10126 -0.165137,-0.17581 -0.08943,-0.13502 -0.08973,-0.13701 -0.08973,-0.5846 0,-0.47732 0.01784,-0.55453 0.165867,-0.71782 0.05402,-0.0596 0.07619,-0.13895 0.105316,-0.37712 0.03954,-0.32323 0.14539,-0.72808 0.243413,-0.93097 0.04861,-0.10064 0.05652,-0.15868 0.04069,-0.29854 -0.01802,-0.15927 -0.01256,-0.18307 0.0658,-0.28722 0.158132,-0.21017 0.329068,-0.4009 0.438523,-0.4893 0.09395,-0.0759 0.123206,-0.0845 0.215247,-0.0638 0.0907,0.0205 0.126111,0.0112 0.238418,-0.0653 0.853307,-0.57797 2.120527,-0.66207 3.095434,-0.20545 0.135698,0.0635 0.3055,0.15513 0.377334,0.20348 0.10783,0.0726 0.149966,0.0845 0.241617,0.0685 0.09865,-0.0173 0.126222,-0.006 0.247689,0.0974 0.07518,0.0643 0.217372,0.22393 0.315992,0.35481 0.179232,0.23785 0.179298,0.23802 0.14993,0.37572 -0.02605,0.12214 -0.01875,0.16533 0.06441,0.38096 0.111442,0.28898 0.200847,0.65835 0.229945,0.95001 0.0173,0.17336 0.03698,0.22952 0.109642,0.31276 0.132671,0.15201 0.144888,0.21063 0.144888,0.69528 v 0.44566 l -0.09525,0.14381 c -0.05238,0.0791 -0.12587,0.15775 -0.163295,0.1748 -0.04417,0.0201 -0.09049,0.0925 -0.13199,0.20637 -0.07121,0.19529 -0.460893,0.79856 -0.625876,0.9689 -0.116568,0.1204 -0.226496,0.15666 -0.360664,0.11915 -0.07867,-0.022 -0.105791,-0.006 -0.283922,0.16003 -0.108317,0.10139 -0.233969,0.21485 -0.279228,0.2521 -0.04526,0.0373 -0.08229,0.08 -0.08229,0.0951 0,0.0444 0.301955,0.10652 0.503374,0.10352 0.297298,-0.005 0.551588,-0.18668 0.600617,-0.43058 0.02012,-0.10001 0.05637,-0.16146 0.238937,-0.40479 0.17537,-0.23373 0.191165,-0.22291 0.194474,0.13339 0.0046,0.49139 -0.20827,0.85823 -0.598505,1.03158 -0.194669,0.0865 -0.593371,0.10552 -0.849478,0.0405 -0.238956,-0.0606 -0.593416,-0.22522 -0.791717,-0.3677 -0.157478,-0.11314 -0.221803,-0.12089 -0.275537,-0.0331 -0.03807,0.0621 0.0083,0.10539 0.318302,0.29739 l 0.178448,0.11051 -0.08643,0.0615 c -0.225924,0.16088 -0.641168,0.24718 -0.888869,0.18473 z m -1.109488,-1.40788 c 0,-0.0443 0.03388,-0.13817 0.07527,-0.20882 0.06068,-0.10351 0.120169,-0.15087 0.306808,-0.24414 0.137895,-0.0689 0.321995,-0.19778 0.455228,-0.31866 0.395831,-0.35913 0.642475,-0.35725 1.022635,0.008 0.103654,0.0995 0.267018,0.21776 0.364803,0.26401 0.329057,0.15562 0.461869,0.29989 0.461869,0.50172 0,0.095 0.03202,0.0994 0.108517,0.0149 0.04391,-0.0485 0.05807,-0.11164 0.05987,-0.26669 0.0027,-0.23461 0.02775,-0.27771 0.282979,-0.48754 0.380521,-0.31282 0.505427,-0.62244 0.512778,-1.27106 0.006,-0.52989 -0.06319,-0.93913 -0.178221,-1.05417 -0.34261,-0.34261 -2.738503,-0.44085 -3.883975,-0.15927 -0.254005,0.0624 -0.359506,0.1134 -0.416689,0.2012 -0.148076,0.22737 -0.183274,1.33774 -0.05367,1.69315 0.08162,0.22383 0.251643,0.44915 0.469869,0.62272 0.210188,0.16715 0.274259,0.28954 0.246945,0.47169 -0.01619,0.10801 -0.0079,0.14977 0.04439,0.22318 0.07954,0.11164 0.120581,0.11514 0.120581,0.01 z m -0.02262,-0.96065 c -0.407548,-0.11439 -0.60355,-0.30384 -0.689143,-0.66616 -0.05431,-0.22986 -0.04346,-0.65413 0.02697,-1.05483 0.03197,-0.18188 0.04839,-0.21663 0.118281,-0.25013 0.136874,-0.0656 0.591806,-0.15205 1,-0.19001 0.486646,-0.0453 1.890213,-0.0183 2.238371,0.0431 0.314122,0.0554 0.610534,0.13911 0.643838,0.18191 0.04302,0.0553 0.09395,0.37405 0.113956,0.7131 0.03248,0.55045 -0.06947,0.87159 -0.333106,1.0493 -0.214016,0.14426 -0.521926,0.22994 -0.758246,0.21097 -0.240004,-0.0192 -0.404398,-0.0983 -0.650433,-0.31263 -0.212303,-0.18496 -0.307062,-0.23433 -0.395736,-0.20619 -0.03205,0.01 -0.153039,0.0979 -0.268838,0.19485 -0.115793,0.097 -0.272616,0.20638 -0.348483,0.24311 -0.175456,0.0849 -0.481895,0.10414 -0.697436,0.0436 z m 0.264113,-0.20956 c 0,-0.007 -0.01286,-0.11239 -0.02858,-0.23394 -0.06814,-0.52699 -0.06446,-0.82089 0.01669,-1.3343 l 0.01852,-0.11714 -0.165303,0.0206 c -0.229883,0.0288 -0.480764,0.0981 -0.506788,0.14027 -0.04097,0.0663 -0.09524,0.69943 -0.07454,0.86952 0.02403,0.19738 0.101428,0.38809 0.189087,0.46585 0.08985,0.0796 0.550915,0.23791 0.550915,0.18904 z m 0.403634,-0.0921 c 0.04576,-0.0346 0.05303,-0.0674 0.03831,-0.17262 -0.04087,-0.29196 -0.05013,-0.60619 -0.03228,-0.74629 -0.01075,-0.10477 0.02389,-0.3092 0.03641,-0.41785 0.01878,-0.16041 0.02894,-0.29686 0.02259,-0.30321 -0.0064,-0.006 -0.05197,-0.002 -0.101391,0.009 -0.08729,0.0191 -0.0909,0.0271 -0.126606,0.27866 -0.03823,0.26935 -0.02732,1.24523 0.01504,1.34498 0.0269,0.0634 0.07177,0.0658 0.147928,0.009 z m 0.367004,1.11943 c 0.05082,-0.14818 0.0901,-0.18668 0.240618,-0.23571 0.06951,-0.0226 0.120744,-0.0585 0.120744,-0.0845 0,-0.0713 -0.228433,-0.0543 -0.340274,0.0254 -0.100441,0.0715 -0.207319,0.30342 -0.176658,0.38331 0.03146,0.082 0.113018,0.0355 0.155566,-0.0885 z m -0.926191,-4.52601 c 0.09772,-0.0573 0.206643,-0.11327 0.242072,-0.12452 0.07129,-0.0226 0.08749,-0.12177 0.02389,-0.14621 -0.100566,-0.0386 -0.804531,0.42728 -0.851901,0.56376 -0.04222,0.12164 0.05696,0.10352 0.23247,-0.0425 0.09669,-0.0805 0.255755,-0.19316 0.353463,-0.25042 z"
       id="path919-3-7"
       sodipodi:nodetypes="sssccssscsssssssscsssssssssscssssscsscssssssscccscscsscsssscssssssccccsssssscssscsscssscssssscsccccssccssssssssssss" />
    <rect
       y="122.68229"
       x="90.229759"
       height="8.2894325"
       width="8.2894325"
       id="rect925-7-3-61-49-0-6-7-3"
       style="display:inline;vector-effect:none;fill:#ffffff;fill-opacity:1;stroke:#000000;stroke-width:0.710567;stroke-linecap:butt;stroke-linejoin:miter;stroke-miterlimit:4;stroke-dasharray:none;stroke-dashoffset:0;stroke-opacity:1" />
    <rect
       y="122.68229"
       x="100.51924"
       height="8.2894325"
       width="8.2894325"
       id="rect925-7-3-61-49-9-3-8-6"
       style="display:inline;vector-effect:none;fill:#ffffff;fill-opacity:1;stroke:#000000;stroke-width:0.710567;stroke-linecap:butt;stroke-linejoin:miter;stroke-miterlimit:4;stroke-dasharray:none;stroke-dashoffset:0;stroke-opacity:1" />
    <rect
       y="122.68229"
       x="79.940277"
       height="8.2894325"
       width="8.2894325"
       id="rect925-7-3-61-49-09-4-75"
       style="display:inline;vector-effect:none;fill:#ffffff;fill-opacity:1;stroke:#000000;stroke-width:0.710567;stroke-linecap:butt;stroke-linejoin:miter;stroke-miterlimit:4;stroke-dasharray:none;stroke-dashoffset:0;stroke-opacity:1" />
  </g>
</svg>
