<?xml version="1.0" encoding="UTF-8" standalone="no"?>
<!-- Created with Inkscape (http://www.inkscape.org/) -->

<svg
   width="49.500797mm"
   height="19.172613mm"
   viewBox="0 0 49.500797 19.172614"
   version="1.1"
   id="svg2574"
   inkscape:version="1.1.2 (0a00cf5339, 2022-02-04)"
   sodipodi:docname="Pilot 2.svg"
   xmlns:inkscape="http://www.inkscape.org/namespaces/inkscape"
   xmlns:sodipodi="http://sodipodi.sourceforge.net/DTD/sodipodi-0.dtd"
   xmlns="http://www.w3.org/2000/svg"
   xmlns:svg="http://www.w3.org/2000/svg">
  <sodipodi:namedview
     id="namedview2576"
     pagecolor="#ffffff"
     bordercolor="#666666"
     borderopacity="1.0"
     inkscape:pageshadow="2"
     inkscape:pageopacity="0.0"
     inkscape:pagecheckerboard="0"
     inkscape:document-units="mm"
     showgrid="false"
     fit-margin-top="0"
     fit-margin-left="0"
     fit-margin-right="0"
     fit-margin-bottom="0"
     inkscape:snap-global="true"
     inkscape:zoom="2"
     inkscape:cx="87.75"
     inkscape:cy="-0.75"
     inkscape:window-width="1846"
     inkscape:window-height="1016"
     inkscape:window-x="74"
     inkscape:window-y="1107"
     inkscape:window-maximized="1"
     inkscape:current-layer="layer1" />
  <defs
     id="defs2571" />
  <g
     inkscape:label="Capa 1"
     inkscape:groupmode="layer"
     id="layer1"
     transform="translate(-65.373825,-116.04208)">
    <path
       style="display:inline;fill:#000000;stroke-width:0.0157096"
       d="m 70.554047,123.48417 c -0.4896,0 -0.510722,10e-4 -0.567922,0.0336 -0.0327,0.0185 -0.067,0.0504 -0.077,0.0713 -0.0103,0.0223 -0.01705,0.13561 -0.01705,0.27389 0,0.22928 -0.0013,0.23638 -0.03876,0.27388 -0.04642,0.0469 -0.07192,0.0489 -0.120922,0.009 -0.0351,-0.0287 -0.03669,-0.0391 -0.03669,-0.22789 0,-0.12796 -0.0058,-0.19789 -0.01654,-0.19792 -0.0516,-1.7e-4 -0.373611,0.12397 -0.549321,0.21187 -0.24951,0.1248 -0.452497,0.26793 -0.653707,0.46044 -0.53426,0.51114 -0.834369,1.1902 -0.892968,2.02003 -0.0084,0.12003 -0.01764,0.21943 -0.01964,0.22014 -0.04964,0.0196 -0.10379,0.0653 -0.12609,0.10646 -0.026,0.0479 -0.02829,0.0965 -0.02429,0.57102 0.0049,0.59261 0.0025,0.5808 0.142627,0.632 0.057,0.0208 0.07772,0.037 0.08372,0.0667 0.02626,0.12591 0.08238,0.26671 0.150378,0.37724 0.14041,0.22816 0.401339,0.47465 0.749308,0.70693 0.118951,0.0794 0.180753,0.13494 0.275953,0.24856 0.37648,0.44912 0.891249,0.73689 1.477429,0.82579 0.02593,0.003 0.167301,0.004 0.314193,10e-4 0.293118,-0.006 0.425201,-0.0295 0.67541,-0.11834 0.393501,-0.13966 0.776435,-0.41435 1.043865,-0.7488 0.06316,-0.079 0.126225,-0.13362 0.238745,-0.20722 0.49644,-0.32456 0.802685,-0.67932 0.887285,-1.02681 0.0172,-0.0705 0.03389,-0.10593 0.04909,-0.10593 0.04753,0 0.130215,-0.0525 0.160713,-0.10181 0.0296,-0.0487 0.03159,-0.0774 0.03152,-0.56792 2e-6,-0.48465 -0.0017,-0.51917 -0.03049,-0.56638 -0.0169,-0.0277 -0.05225,-0.0618 -0.07855,-0.0754 -0.0325,-0.0168 -0.04806,-0.0361 -0.04806,-0.061 -3e-6,-0.0201 -0.007,-0.12663 -0.01602,-0.23668 -0.05166,-0.63611 -0.280701,-1.24187 -0.63872,-1.68982 -0.259342,-0.32447 -0.581289,-0.57844 -0.9648,-0.76068 -0.15398,-0.0732 -0.445741,-0.1819 -0.488342,-0.1819 -0.0064,0 -0.0124,0.085 -0.0124,0.18914 0,0.17998 -0.0021,0.19119 -0.03876,0.22789 -0.04495,0.0449 -0.06734,0.0476 -0.11524,0.014 -0.0339,-0.0234 -0.03462,-0.034 -0.03462,-0.26304 0,-0.27106 -0.0157,-0.32345 -0.111104,-0.37465 -0.04868,-0.0267 -0.0996,-0.0289 -0.56224,-0.0289 z m -0.720886,2.5864 c 0.0045,0.004 -0.0043,0.0803 -0.01964,0.16847 -0.044,0.25383 -0.04799,0.2994 -0.05839,0.73587 -0.0068,0.27776 -0.0026,0.48189 0.01292,0.62425 0.0126,0.11631 0.02389,0.23152 0.02481,0.25632 l -5.18e-4,5.1e-4 c 0.0013,0.0363 -0.01595,0.0548 -0.09095,0.0951 -0.113339,0.061 -0.10581,0.0737 -0.14521,-0.24701 -0.0528,-0.42915 -0.03598,-1.09467 0.03772,-1.49397 l 0.02171,-0.11782 0.104903,-0.0145 c 0.05767,-0.008 0.107653,-0.0122 0.112654,-0.007 z m -0.54622,0.0506 c 0.0044,0.004 2.16e-4,0.0401 -0.0088,0.0796 -0.0955,0.40709 -0.100302,1.28182 -0.0093,1.72289 l 0.02325,0.11266 -0.05633,-10e-4 c -0.13913,-0.003 -0.483542,-0.13514 -0.574642,-0.22014 -0.15013,-0.14024 -0.214457,-0.35568 -0.214457,-0.71985 0,-0.24604 0.05898,-0.78917 0.08888,-0.81907 0.03358,-0.0336 0.729276,-0.17713 0.751375,-0.15503 z m 1.241267,1.6123 c 0.08118,-0.008 0.09929,-0.002 0.184486,0.0568 0.05205,0.0362 0.161481,0.12479 0.24288,0.19689 0.28077,0.24853 0.449829,0.32348 0.75861,0.33538 0.235228,0.009 0.393899,-0.0238 0.65009,-0.13384 0.163793,-0.0704 0.288697,-0.16778 0.380338,-0.29662 -0.0339,0.0729 -0.0725,0.14152 -0.11989,0.20412 -0.05085,0.0672 -0.09637,0.15058 -0.119372,0.21807 -0.02045,0.06 -0.06567,0.16822 -0.10077,0.24082 -0.05168,0.10666 -0.07362,0.13576 -0.11472,0.15296 -0.06158,0.0257 -0.275744,0.0648 -0.427366,0.078 -0.110548,0.01 -0.111397,0.009 -0.169497,-0.0455 -0.0321,-0.0302 -0.08469,-0.0623 -0.11679,-0.0713 -0.03405,-0.009 -0.250293,-0.016 -0.518314,-0.016 -0.492561,-1e-4 -0.529701,0.005 -0.613399,0.0832 -0.132681,0.12391 -0.100883,0.35807 0.06098,0.44907 0.05592,0.0318 0.08015,0.0331 0.556553,0.0331 0.556832,0 0.562809,-8.8e-4 0.656807,-0.10955 0.04901,-0.0567 0.05448,-0.0587 0.18397,-0.0687 0.07347,-0.006 0.149582,-0.0152 0.168982,-0.0202 0.0202,-0.005 0.03514,-0.002 0.03514,0.007 0,0.009 -0.07608,0.0933 -0.168981,0.18759 -0.165,0.16758 -0.327986,0.29959 -0.480074,0.38809 l -0.07545,0.0439 -0.128675,-0.0636 c -0.2296,-0.11362 -0.349073,-0.18943 -0.702284,-0.18914 -0.242948,3e-4 -0.327241,0.0586 -0.408241,0.0806 -0.125886,0.0342 -0.255151,0.0846 -0.337966,0.13177 -0.03443,0.0196 -0.07067,0.0356 -0.08061,0.0357 -0.02886,3.1e-4 -0.286626,-0.17489 -0.403076,-0.27389 -0.29612,-0.25165 -0.604108,-0.70541 -0.727088,-1.07176 -0.02665,-0.0794 -0.06135,-0.14442 -0.100252,-0.18862 -0.03693,-0.042 -0.07869,-0.11039 -0.116789,-0.18294 0.0601,0.0759 0.129262,0.1416 0.210323,0.19017 0.12867,0.077 0.319161,0.15267 0.463021,0.18397 v -5.2e-4 c 0.13306,0.0295 0.423208,0.0339 0.535368,0.008 0.14923,-0.034 0.364422,-0.15401 0.515732,-0.28732 0.272439,-0.24006 0.327631,-0.27729 0.426328,-0.28629 z"
       id="path873-6"
       inkscape:connector-curvature="0" />
    <path
       id="rect965-3-06-3-0"
       style="display:inline;fill:#ffffff;fill-opacity:1;stroke:#000000;stroke-width:2.26771657;stroke-linecap:butt;stroke-linejoin:miter;stroke-miterlimit:4;stroke-dasharray:none;stroke-dashoffset:0;stroke-opacity:1"
       d="M 56.113281 0.75585938 L 6.4882812 0.7578125 L 0.76367188 10.730469 L 0.76367188 58.646484 L 3.9746094 61.855469 L 108.17188 61.833984 L 113.87109 71.701172 L 183.11719 71.701172 L 186.32617 68.490234 L 186.32617 13.763672 L 183.11914 10.558594 L 111.58008 10.558594 L 105.73633 0.75585938 L 56.113281 0.75585938 z "
       transform="matrix(0.26458333,0,0,0.26458333,65.373825,116.04208)" />
    <path
       sodipodi:nodetypes="ccccccccccc"
       inkscape:connector-curvature="0"
       id="rect912-9-1-2-7-26"
       d="m 67.506899,116.90957 -1.16452,1.94273 1.16452,2.30972 h 0.0796 25.244894 0.07907 l 1.316816,-2.19279 -1.316816,-2.05966 h -0.07907 -25.244884 z"
       style="vector-effect:none;fill:#000000;fill-opacity:1;stroke:#000000;stroke-width:0.4;stroke-linecap:butt;stroke-linejoin:miter;stroke-miterlimit:4;stroke-dasharray:none;stroke-dashoffset:0;stroke-opacity:1" />
    <text
       id="text8716-3-6-5-1"
       y="119.98988"
       x="74.706734"
       style="font-style:normal;font-weight:normal;font-size:158.75px;line-height:1.25;font-family:sans-serif;letter-spacing:0px;word-spacing:0px;fill:#000000;fill-opacity:1;stroke:none;stroke-width:0.264583"
       xml:space="preserve"><tspan
         style="font-style:normal;font-variant:normal;font-weight:normal;font-stretch:normal;font-size:3.175px;font-family:Robotech;-inkscape-font-specification:Robotech;fill:#ffffff;stroke-width:0.264583"
         y="119.98988"
         x="74.706734"
         id="tspan8714-6-1-3-8"
         sodipodi:role="line">piloto</tspan></text>
    <rect
       y="122.68229"
       x="90.229759"
       height="8.2894325"
       width="8.2894325"
       id="rect925-7-3-61-49-0-6-7-3"
       style="display:inline;vector-effect:none;fill:#ffffff;fill-opacity:1;stroke:#000000;stroke-width:0.710567;stroke-linecap:butt;stroke-linejoin:miter;stroke-miterlimit:4;stroke-dasharray:none;stroke-dashoffset:0;stroke-opacity:1" />
    <rect
       y="122.68229"
       x="100.51924"
       height="8.2894325"
       width="8.2894325"
       id="rect925-7-3-61-49-9-3-8-6"
       style="display:inline;vector-effect:none;fill:#ffffff;fill-opacity:1;stroke:#000000;stroke-width:0.710567;stroke-linecap:butt;stroke-linejoin:miter;stroke-miterlimit:4;stroke-dasharray:none;stroke-dashoffset:0;stroke-opacity:1" />
    <rect
       y="122.68229"
       x="79.940277"
       height="8.2894325"
       width="8.2894325"
       id="rect925-7-3-61-49-09-4-75"
       style="display:inline;vector-effect:none;fill:#ffffff;fill-opacity:1;stroke:#000000;stroke-width:0.710567;stroke-linecap:butt;stroke-linejoin:miter;stroke-miterlimit:4;stroke-dasharray:none;stroke-dashoffset:0;stroke-opacity:1" />
    <path
       style="fill:#000000;stroke-width:0.00759905"
       d="m 70.164252,130.41736 c -0.06818,-0.0245 -0.09087,-0.078 -0.08582,-0.20219 0.0038,-0.0937 0.01842,-0.12661 0.06729,-0.15155 0.02803,-0.0143 0.04635,-0.015 0.413626,-0.015 0.414823,0 0.408776,-4.9e-4 0.463386,0.0411 0.01288,0.01 0.03336,0.0361 0.04553,0.0585 0.05131,0.0943 0.01293,0.2104 -0.08555,0.25891 l -0.03576,0.0176 -0.376153,0.002 c -0.311109,0.001 -0.38141,-1e-4 -0.406549,-0.009 z m -1.094263,-0.12914 c -0.350801,-0.0559 -0.636137,-0.28617 -0.758908,-0.61233 -0.0183,-0.0486 -0.144576,-0.53865 -0.139987,-0.54324 0.0013,-0.001 0.02282,0.002 0.04786,0.009 0.02504,0.005 0.08401,0.0131 0.131033,0.0158 l 0.08551,0.004 0.0072,0.0274 c 0.0039,0.015 0.02641,0.10424 0.04988,0.19816 0.02347,0.094 0.05308,0.1958 0.06581,0.22637 0.08314,0.19971 0.259299,0.35174 0.475371,0.41024 l 0.07423,0.0202 0.369631,0.002 0.369631,0.002 -0.01051,0.0394 c -0.0059,0.0222 -0.01051,0.0767 -0.01062,0.12487 l -8.5e-5,0.0855 -0.347658,-6.4e-4 c -0.241627,-4.8e-4 -0.366197,-0.004 -0.408449,-0.011 z m -0.767234,-1.38788 c -0.08966,-0.0131 -0.173317,-0.0493 -0.253952,-0.10987 -0.08989,-0.0676 -0.145176,-0.15445 -0.193086,-0.30342 -0.155433,-0.48329 -0.255244,-1.00615 -0.2952,-1.5464 -0.01281,-0.17321 -0.01299,-0.63883 -2.93e-4,-0.76371 0.06082,-0.59843 0.236077,-1.09647 0.546843,-1.554 0.188469,-0.27748 0.452283,-0.54661 0.72726,-0.74191 0.262179,-0.18621 0.573647,-0.33628 0.881015,-0.42451 0.293985,-0.0844 0.551866,-0.11988 0.870661,-0.11988 0.417729,0 0.76699,0.0652 1.13975,0.21256 0.727209,0.2876 1.315239,0.8651 1.62911,1.59996 0.194517,0.45539 0.280416,0.93079 0.268101,1.48372 -0.0081,0.36619 -0.03795,0.66863 -0.100628,1.02165 -0.06281,0.35373 -0.191527,0.83531 -0.258063,0.9655 -0.09837,0.1925 -0.321808,0.31083 -0.531784,0.28161 -0.03273,-0.004 -0.06118,-0.01 -0.06321,-0.0119 -0.0021,-0.002 -2.1e-5,-0.0183 0.0044,-0.0359 0.0045,-0.0177 0.03258,-0.12777 0.06241,-0.24449 0.04716,-0.18447 0.133347,-0.58841 0.149088,-0.69875 0.0035,-0.0242 0.01577,-0.0529 0.03554,-0.0826 0.07252,-0.10916 0.140869,-0.27482 0.174304,-0.42242 0.01604,-0.0708 0.01673,-0.0914 0.0194,-0.58843 0.0032,-0.57829 0.0047,-0.55735 -0.0525,-0.67414 -0.05987,-0.12212 -0.180238,-0.21981 -0.317829,-0.25794 -0.05671,-0.0158 -0.05695,-0.0158 -2.158159,-0.0158 -2.101213,0 -2.101449,0 -2.158159,0.0158 -0.09048,0.0251 -0.155419,0.0634 -0.224331,0.13229 -0.06892,0.0689 -0.107208,0.13386 -0.132276,0.22433 -0.01514,0.0546 -0.01571,0.0747 -0.01571,0.54434 0,0.45407 10e-4,0.49381 0.01531,0.57716 0.02675,0.15644 0.09365,0.33047 0.174877,0.45489 0.02445,0.0374 0.03734,0.0664 0.04104,0.0921 0.025,0.17366 0.134529,0.66258 0.198039,0.884 0.01486,0.0518 0.02608,0.0951 0.02494,0.0962 -0.0039,0.004 -0.121135,0.0185 -0.141299,0.0176 -0.01119,-4.9e-4 -0.04074,-0.004 -0.06568,-0.008 z m -0.832183,-0.51285 c -0.02289,-0.007 -0.05577,-0.0195 -0.07308,-0.0297 -0.04624,-0.0272 -0.106015,-0.0962 -0.123414,-0.14273 -0.01159,-0.031 -0.211442,-1.00939 -0.232392,-1.13769 -0.0064,-0.0389 0.0076,-0.11109 0.03035,-0.15768 0.03613,-0.0739 0.120378,-0.1407 0.198226,-0.15728 l 0.02405,-0.005 0.0041,0.048 c 0.0023,0.0264 0.0078,0.10611 0.01234,0.17715 0.02666,0.41645 0.111714,0.9157 0.223724,1.31321 0.01492,0.053 0.02714,0.0981 0.02714,0.10019 0,0.008 -0.04962,0.002 -0.091,-0.009 z m 6.139849,0.007 c 0,-0.004 0.0036,-0.0175 0.008,-0.029 0.01381,-0.0363 0.081,-0.30543 0.109778,-0.43967 0.06931,-0.32332 0.122879,-0.71785 0.136721,-1.00703 0.0025,-0.0522 0.0062,-0.10939 0.0084,-0.12702 0.0038,-0.0313 0.0044,-0.032 0.02818,-0.0274 0.06937,0.0132 0.151439,0.074 0.190913,0.14139 0.02412,0.0412 0.04454,0.13283 0.03817,0.1713 -0.02328,0.14044 -0.221296,1.10861 -0.23334,1.14091 -0.02209,0.0592 -0.09953,0.13613 -0.159702,0.15856 -0.05221,0.0195 -0.127127,0.03 -0.127127,0.018 z m -4.407449,-0.25237 c -0.388128,-0.0377 -0.721406,-0.30135 -0.843238,-0.66704 -0.04988,-0.1497 -0.04965,-0.14668 -0.04965,-0.67793 v -0.48254 l 0.01976,-0.0421 c 0.02821,-0.0601 0.06158,-0.0945 0.119408,-0.12298 l 0.05049,-0.0249 h 2.086098 2.086098 l 0.04214,0.0198 c 0.06015,0.0282 0.09452,0.0617 0.122981,0.11942 l 0.02486,0.0505 v 0.48268 c 0,0.53142 2.02e-4,0.52838 -0.04965,0.67808 -0.09801,0.2942 -0.338556,0.53025 -0.636128,0.62424 -0.101667,0.0321 -0.186906,0.045 -0.298297,0.0451 -0.362243,2.5e-4 -0.663418,-0.17427 -0.864226,-0.50104 -0.108818,-0.17708 -0.256945,-0.25985 -0.45041,-0.25166 -0.177035,0.008 -0.303662,0.0878 -0.410603,0.2603 -0.06035,0.0973 -0.105511,0.15385 -0.179605,0.22463 -0.157705,0.15065 -0.36061,0.24238 -0.58655,0.26517 -0.0852,0.009 -0.09766,0.009 -0.183472,2.5e-4 z m -0.335882,-0.64154 c 0.01129,-0.005 0.229739,-0.22056 0.485451,-0.47683 0.415478,-0.4164 0.465494,-0.46908 0.470226,-0.49519 0.0097,-0.0536 -0.01957,-0.11444 -0.06675,-0.13883 -0.02697,-0.0139 -0.08878,-0.0153 -0.113878,-0.002 -0.0096,0.005 -0.222095,0.21281 -0.472256,0.46207 -0.308759,0.30766 -0.459411,0.46298 -0.469075,0.48361 -0.01901,0.0406 -0.01817,0.0706 0.0031,0.11088 0.03073,0.0583 0.109047,0.0855 0.163187,0.0568 z m -0.133116,-0.63039 c 0.01345,-0.005 0.09162,-0.0785 0.173717,-0.16149 0.156817,-0.15855 0.165657,-0.17138 0.155411,-0.22561 -0.0066,-0.0348 -0.03109,-0.0714 -0.05953,-0.0887 -0.03145,-0.0192 -0.100485,-0.0206 -0.127561,-0.002 -0.02766,0.0183 -0.263682,0.2524 -0.289347,0.28696 -0.01824,0.0245 -0.02201,0.0371 -0.02201,0.0729 0,0.0543 0.02053,0.088 0.06816,0.11207 0.03898,0.0197 0.06657,0.0215 0.101164,0.007 z"
       id="path842"
       sodipodi:nodetypes="sssssssccsscsscscsssscccsccsccssssssssssssssssssssssssssssscsssscssssssscscsssssssssssssscsscsscccsscscsssssssccssssssssssssssssssss" />
  </g>
</svg>
