<?xml version="1.0" encoding="utf-8"?>
<!-- Generator: Adobe Illustrator 21.0.0, SVG Export Plug-In . SVG Version: 6.00 Build 0)  -->
<svg version="1.1" xmlns="http://www.w3.org/2000/svg" xmlns:xlink="http://www.w3.org/1999/xlink" x="0px" y="0px"
	 viewBox="0 0 1559 283" style="enable-background:new 0 0 1559 283;" xml:space="preserve">
<g id="Fondo">
</g>
<g id="Guías">
</g>
<g id="Primer_plano">
	<path d="M723.5,151.5c-0.3,1.5-0.4,3.7,0,3.7c0.1,0,0.3,0.1,0.6,0.3c0.4,0.2,0.4,0.2,0.9,0.1c1.2-0.3,2.6,0.7,2.6,1.9
		c0,0.2,0.1,0.4,0.2,0.5c0.3,0.3,0.6,0.9,0.6,1.5c0,0.7-0.2,1.1-0.6,1.6c-0.2,0.3-0.3,0.4-0.4,0.8c-0.1,0.9-0.9,1.7-1.8,1.8
		c-0.5,0-0.5,0.1-0.6,0.4c-0.2,0.6-0.7,1.1-1.3,1.3c-0.6,0.2-0.7,0.2-1.3,0c-0.3-0.1-0.6-0.3-0.8-0.5l-0.4-0.4l-0.5,0.1
		c-0.9,0.2-1.8-0.1-2.3-0.9c-0.2-0.2-0.3-0.4-0.5-0.5c-0.2,0.1-0.5,0.2-0.8,0.3c-0.5,0-0.5,0.1-0.6,0.4c-0.2,0.6-0.7,1.1-1.3,1.3
		c-0.6,0.2-0.7,0.2-1.3,0c-0.3-0.1-0.6-0.3-0.8-0.5l-0.4-0.4l-0.5,0.1c-0.9,0.2-1.8-0.1-2.3-0.9c-0.2-0.3-0.4-0.5-0.6-0.5
		c-1-0.3-1.7-1.5-1.4-2.5c0.1-0.3,0-0.4-0.1-0.6c-0.3-0.5-0.4-1.1-0.3-1.7c0.1-0.5,0.6-1.2,1-1.4c0.2-0.1,0.3-0.3,0.4-0.6
		c0.4-1.2,1.6-1.7,2.7-1.3c0.2-0.3,0.5-0.5,0.7-0.6c0.2-0.1,0.3-0.3,0.4-0.6c0.1-0.2,0.2-0.4,0.3-0.6c0-0.4-0.1-1-0.2-1.5l-0.2-0.9
		c0,0,0.6,0,1.3,0h1.3l-0.2,0.8c-0.1,0.3-0.1,0.6-0.2,0.9c0.2,0,0.3,0.1,0.5,0.1l0.5,0.2l0.4-0.4c0.6-0.6,0.7-1.6,0.4-3.2l-0.2-0.9
		c0,0,0.6,0,1.3,0h1.3l-0.2,0.8c-0.3,1.5-0.4,3.7,0,3.7c0.1,0,0.3,0.1,0.6,0.3c0.4,0.2,0.4,0.2,0.9,0.1c0.4-0.1,0.8-0.1,1.2,0.1
		c0-0.4-0.1-0.8-0.2-1.3l-0.2-0.9c0,0,0.6,0,1.3,0h1.3L723.5,151.5z M664.4,111.6c1.3,0,1.3,0,1.3,1.3c0,1.9-0.5,3-1.7,4.2l-0.8,0.8
		l-2.7,2.7c0,0.2,0,0.5,0,0.7v1.2l-2.2,2.2c-1.2,1.2-2.2,2.2-2.3,2.2c-0.1,0-0.2-0.1-0.2-0.1c-0.1-0.1-0.1-0.3-0.1-1.1v-0.4
		c-0.3,0.3-0.8,0.8-0.8,0.8c0,0-0.2-0.2-0.5-0.4c-0.1,0.6-0.4,1.3-1,2c-0.5,0.6-0.7,0.7-0.9,0.5c-0.1-0.1-0.2-0.2-0.1-0.6
		c0-0.2,0-0.4,0-0.4c0,0-0.4,0.2-0.8,0.5c-0.8,0.5-1.4,0.8-2.1,0.9c-0.4,0.1-0.4,0-0.6-0.1c-0.2-0.2-0.2-0.4-0.1-1
		c0.2-0.6,0.3-1,0.8-1.8c0.2-0.3,0.4-0.7,0.4-0.7c0,0-0.2,0-0.4,0c-0.3,0-0.4,0-0.6-0.1c-0.2-0.3-0.1-0.4,0.5-0.9
		c0.8-0.6,1.5-0.9,2-1c-0.2-0.3-0.4-0.5-0.4-0.5c0,0,0.5-0.5,0.8-0.8h-0.9c-0.7,0-1,0-1.1-0.1c-0.1-0.1-0.1-0.2-0.1-0.2
		c0-0.1,1-1.1,2.2-2.3l2.2-2.2h1.2c0.6,0,1.1,0,1.2,0.1l2.8-2.8c0,0,0.4-0.4,0.8-0.8c0.4-0.4,1-0.9,1.3-1
		C662.3,111.8,663.3,111.6,664.4,111.6z M579.6,113.8c0.1,0,0.2,0.1,0.3,0.1c0,0,0.1,0.1,0.1,0.3l0.2-0.2l0.2-0.2c0,0,11.4,0,12,0
		c1.2,0,1.6,0,2.3,0.4c0.9,0.4,1.7,1.1,2,1.8c0.1,0.3,0.1,0.4,0.1,0.8c0,0.5,0,0.5-0.2,0.9c-0.3,0.6-0.8,1.1-1.6,1.5
		c-0.9,0.5-1.2,0.5-2.9,0.5l-11.8,0l-0.2-0.2l-0.2-0.2c0,0.1,0,0.2-0.1,0.3c-0.1,0.2-0.4,0.2-0.5,0c-0.1-0.1-0.1-0.4-0.1-2.9
		c0-2.6,0-2.8,0.1-2.9C579.4,113.8,579.5,113.8,579.6,113.8z M621.4,122.5c-0.3-0.3-1-0.9-1-1.3c0-0.7,0.8-1.1,1.4-0.6l0.2,0.2
		l0.5,0.5l0.3,0.3l3.5-3.5c1.4-1.4,5.4-5.7,7.9-6.6c0.4-0.1,0.8,0.1,0.8,0.6c0,0.1,0,0.2-0.1,0.3l-0.1,0.2c-1.5,3-4.2,5.5-6.6,7.8
		l-3.4,3.4l0.3,0.3l0.4,0.4l0.2,0.2c0.2,0.2,0.2,0.3,0.2,0.5c0,0.5-0.3,0.8-0.8,0.8c-0.2,0-0.3,0-0.5-0.2l-0.2-0.2l-0.4-0.3
		l-0.3-0.3c-0.5,0.4-0.8,0.5-1.4,0.5l-1.2,1.2l-1.2,1.3c0,0.6-1.2,1.4-1.2,1.4c-0.7,0.2-1.7-0.3-1.8-1.1l0-0.2l0-0.2
		c0-0.9,0.6-1.5,1.5-1.5l2.4-2.4l0-0.3C621,123.1,621.2,122.7,621.4,122.5z M639,196.3c0.5-1.2,0.6-2.6-0.5-3.7l-0.4-0.4
		c-0.3-0.3-0.1-1.2,0.7-0.9l0.2,0.1l0.6,0.3l-0.3,0.4c2.9,0.9,4.4,3.6,3.9,6.2c-0.7,3.7-4.8,5.6-5.1,9.4c0,0.3-0.1,0.6-0.1,0.8
		l0,0.3c-0.1,0.4-0.5,0.5-0.6,0.5c0,0-0.2,0-0.4-0.1l-0.3-0.2l-0.8-0.5c-2.3-1.5-3.7-3.5-4-6.1l-0.7,2c-1.2-2.1-2.4-4-2.6-6.4
		c-0.3-2.5,1.2-5,3.7-6.2c0.4-0.2,0.8-0.4,1.1-0.4c1.3-0.3,1.1,0.5,0.5,1l-0.2,0.1c-0.4,0.3-1,1.3-1.1,2c-0.2,2.1,2.4,3.7,3,5.9
		c2-2.1,0.7-5.1,2-5.1C638.1,195,638.7,195.7,639,196.3z M648.1,163.1l0.4,0.4c0.4,0.4,0.2,1.2-0.5,0.9l-0.3-0.1l-0.6-0.4
		c0.2,0.6,0.5,1.2,0.7,1.9l0.1,0.4c0.2,0.9-0.7,0.9-1.1,0.2c0,0.5,0.1,1,0,1.2c-0.5,0.8-1.1-0.1-1.4-1l0,0.2l-0.1,0.4
		c-0.3,1.1-1.1,0.7-1.1-0.3c0-0.6,0-2,0-4.7c0-2.5,0-3.9,0-4.6c0-0.1-0.1-0.3-0.1-0.4c0-0.6,0-2,0-4.7c0-2.7,0-4.1,0-4.7
		c0-1,0.8-1.4,1.1-0.3l0.1,0.4l0,0.3c0.2-0.5,0.4-0.9,0.5-1.1c0.4-0.5,1-0.1,1,0.5c0,0.2,0,0.5-0.1,0.7c0.1-0.1,0.2-0.2,0.2-0.3
		c0.6-0.6,1,0.1,0.9,0.6l-0.1,0.4c-0.1,0.3-0.3,0.8-0.4,1.2l-0.2,0.5c0.3-0.1,0.5-0.2,0.8-0.3l0.3-0.1c0.8-0.2,1,0.5,0.4,1l-0.2,0.2
		l4.9,0c3.3,0,5,0,5.8,0.1c0.9,0.1,1.3,0.3,1.3,1c0,0.7-0.3,1-1.3,1.1c-0.8,0.1-2.5,0-5.8,0l-5.1,0l0.4,0.4c0.4,0.4,0.2,1.2-0.5,0.9
		l-0.3-0.1l-0.6-0.4c0.2,0.6,0.5,1.2,0.7,1.9l0.1,0.4c0.2,0.9-0.6,0.9-1.1,0.3c0,0.1,0.1,0.2,0.1,0.3c0,0.2,0,0.5-0.1,0.7
		c0.1-0.1,0.2-0.2,0.2-0.3c0.6-0.6,1,0.1,0.9,0.6l-0.1,0.4c-0.1,0.3-0.3,0.8-0.4,1.2l-0.2,0.5c0.3-0.1,0.5-0.2,0.8-0.3l0.3-0.1
		c0.8-0.2,1,0.5,0.4,1l-0.2,0.2l4.9,0c3.3,0,5,0,5.8,0.1c0.9,0.1,1.3,0.3,1.3,1c0,0.7-0.3,1-1.3,1.1c-0.8,0.1-2.5,0-5.8,0
		L648.1,163.1z M625.9,151.3l-0.3,0.1l-0.5,0.1c0.6,0.2,1.2,0.4,1.5,0.6c0.5,0.4,0.1,1-0.5,1c-0.4,0-0.7-0.1-1.1-0.1
		c0.2,0.1,0.4,0.3,0.6,0.4c0.7,0.6-0.1,1-0.6,0.9l-0.5-0.1c-0.4-0.1-0.9-0.3-1.4-0.5l-0.8-0.3c0.2,0.5,0.4,0.8,0.5,1l0.1,0.3
		c0.3,0.9-0.6,0.9-1.1,0.3l-0.3-0.3c0,0,0,11.1-0.1,12.1c-0.1,1-0.3,1.4-1.1,1.4c-0.7,0-1.1-0.3-1.2-1.4c-0.1-0.9,0-12.3,0-12.3
		c-0.3,0.3-1.2,1.4-1.5,0.4c0-0.1-0.1-0.2,0.1-0.5l0.1-0.3c0.2-0.3,0.3-0.6,0.5-0.8c-0.8,0.3-1.5,0.5-2.3,0.8l-0.5,0.1
		c-1,0.3-0.9-0.7-0.2-1.2l0.3-0.2c-0.7,0.1-1.4,0.1-1.6,0c-1.3-0.7,1.2-1.4,1.5-1.5l-0.5-0.1l-0.4-0.1c-1.3-0.3-0.7-1.1,0.3-1.1
		c0.7,0,2.4,0,5.5,0c3.1,0,4.8,0,5.5,0C626.7,150.2,627.3,151,625.9,151.3L625.9,151.3z M584.5,150.1l1.6,2.2l0.5,0.7l0.3,0.4
		c0.6,0.3,0.9,0.7,1.1,1.2l0.1,0.2c0.2-0.2,0.3-0.2,0.5-0.3c0.6-0.2,1.2-0.2,1.8,0.2l0.3-0.2l1.8-2c0,0-0.1,0.7-0.1,0.7
		c0,0,0.1,0.1,0.2,0.1c0.1,0.1,0.1,0.3,0.1,1v0.4c0.3-0.3,0.7-0.7,0.7-0.7c0,0,0.2,0.2,0.4,0.4c0.1-0.5,0.3-1.2,0.8-1.9
		c0.4-0.6,0.6-0.7,0.8-0.5c0.1,0.1,0.1,0.2,0.1,0.5c0,0.2,0,0.4,0,0.4c0,0,0.3-0.2,0.6-0.4c0.6-0.4,1.2-0.7,1.8-0.8
		c0.3,0,0.4,0,0.5,0.1c0.2,0.2,0.2,0.4,0.1,1c-0.1,0.6-0.3,1-0.7,1.6c-0.2,0.3-0.3,0.6-0.3,0.6c0,0,0.1,0,0.3,0c0.3,0,0.4,0,0.5,0.1
		c0.2,0.2,0.1,0.4-0.4,0.8c-0.6,0.5-1.2,0.8-1.7,0.9c0.2,0.2,0.3,0.4,0.3,0.5c0,0-0.4,0.5-0.6,0.7h0.7c0.6,0,0.8,0,0.9,0.1
		c0.1,0.1,0.1,0.2,0.1,0.2s-0.8,1-1.8,2.1l-1.8,2h-1c-0.5,0-0.9,0-1-0.1c0,0-3.9,4.1-4.1,4.2c-0.6,0.4-1.5,0.6-2.4,0.6
		c-1.1,0-1.1,0-1.1-1.2c0-1.2,0.2-2,0.6-2.7c-0.3,0.1-0.7,0.2-0.9,0.1l-1.6,2l-0.6,0.8l-0.2,0.3l0.3-0.7l0.4-0.8l0.5-1l0.4-0.9
		c-0.1,0-0.3-0.2-0.4-0.3c-0.3-0.3-0.4-0.6-0.5-1.1c0-0.2,0-0.7,0-0.9c0-0.1,0.1-0.3,0.1-0.4l-0.8-0.2l-1.1-0.2l-0.8-0.1
		c-0.3,0-0.5-0.1-0.5-0.1l0.3-0.1l0.6-0.1l1.1-0.3l0.9-0.2c-0.1-0.4-0.1-0.5-0.1-0.8c0-0.3,0.1-0.6,0.2-0.9c0.1-0.3,0.3-0.5,0.5-0.7
		l-0.2-0.5l-0.4-0.5l-0.9-1.1c-0.3-0.3-0.4-0.5-0.4-0.5l0.7,0.3l0.9,0.4l0.5,0.2l0.7,0.3l0.6,0.2c0-0.1,0-0.4,0.1-0.6
		c0-0.2,0.1-0.3,0.2-0.5c0.2-0.4,0.5-0.8,0.9-1l0.1-0.2l-0.1-0.6L585,152l-0.2-0.7l-0.2-0.8L584.5,150.1L584.5,150.1z M666.4,207
		c-1,0-1,0-1-1c0-1.4,0.4-2.3,1.3-3.2l0.6-0.6l2.1-2.1l0-0.6v-1l1.7-1.7c0.9-0.9,1.7-1.7,1.8-1.7s0.1,0,0.2,0.1
		c0.1,0.1,0.1,0.3,0.1,0.8v0.3c0.3-0.2,0.6-0.6,0.6-0.6c0,0,0.2,0.1,0.4,0.3c0-0.4,0.3-1,0.7-1.6c0.4-0.5,0.5-0.6,0.7-0.4
		c0.1,0.1,0.1,0.2,0.1,0.4c0,0.2,0,0.3,0,0.3c0,0,0.3-0.2,0.6-0.3c0.6-0.4,1.1-0.6,1.6-0.7c0.3,0,0.3,0,0.5,0.1
		c0.2,0.2,0.2,0.3,0,0.8c-0.1,0.5-0.3,0.8-0.6,1.4c-0.2,0.3-0.3,0.5-0.3,0.5c0,0,0.1,0,0.3,0c0.2,0,0.3,0,0.4,0.1
		c0.2,0.2,0.1,0.3-0.4,0.7c-0.6,0.4-1.1,0.7-1.6,0.7c0.2,0.2,0.3,0.4,0.3,0.4c0,0-0.4,0.4-0.6,0.6h0.7c0.5,0,0.7,0,0.8,0.1
		c0.1,0.1,0.1,0.1,0.1,0.2s-0.8,0.8-1.7,1.8l-1.7,1.7h-1c-0.5,0-0.9,0-0.9,0l-2.1,2.1c0,0-0.3,0.3-0.6,0.6c-0.3,0.3-0.8,0.7-1,0.8
		C668,206.8,667.2,207,666.4,207z M660.9,201.7c-1,0-1,0-1-1c0-1.4,0.4-2.3,1.3-3.2l0.6-0.6l2.1-2.1l0-0.6v-1l1.7-1.7
		c0.9-0.9,1.7-1.7,1.8-1.7s0.1,0,0.2,0.1c0.1,0.1,0.1,0.3,0.1,0.8v0.3c0.3-0.2,0.6-0.6,0.6-0.6c0,0,0.2,0.1,0.4,0.3
		c0-0.4,0.3-1,0.7-1.6c0.4-0.5,0.5-0.6,0.7-0.4c0.1,0.1,0.1,0.2,0.1,0.4c0,0.2,0,0.3,0,0.3c0,0,0.3-0.2,0.6-0.3
		c0.6-0.4,1.1-0.6,1.6-0.7c0.3,0,0.3,0,0.5,0.1c0.2,0.2,0.2,0.3,0,0.8c-0.1,0.5-0.3,0.8-0.6,1.4c-0.2,0.3-0.3,0.5-0.3,0.5
		s0.1,0,0.3,0c0.2,0,0.3,0,0.4,0.1c0.2,0.2,0.1,0.3-0.4,0.7c-0.6,0.4-1.1,0.7-1.6,0.7c0.2,0.2,0.3,0.4,0.3,0.4c0,0-0.4,0.4-0.6,0.6
		h0.7c0.5,0,0.7,0,0.8,0.1c0.1,0.1,0.1,0.1,0.1,0.2s-0.8,0.8-1.7,1.8l-1.7,1.7h-1c-0.5,0-0.9,0-0.9,0l-2.1,2.1c0,0-0.3,0.3-0.6,0.6
		c-0.3,0.3-0.8,0.7-1,0.8C662.5,201.5,661.8,201.7,660.9,201.7z M705.6,210.3c-1,0-1,0-1-1c0-1.4,0.4-2.3,1.3-3.2l0.6-0.6l2.1-2.1
		l0-0.6v-1l1.7-1.7c0.9-0.9,1.7-1.7,1.8-1.7c0,0,0.1,0,0.2,0.1c0.1,0.1,0.1,0.3,0.1,0.8v0.3c0.3-0.2,0.6-0.6,0.6-0.6
		c0,0,0.2,0.1,0.4,0.3c0-0.4,0.3-1,0.7-1.6c0.4-0.5,0.5-0.6,0.7-0.4c0.1,0.1,0.1,0.2,0.1,0.4c0,0.2,0,0.3,0,0.3c0,0,0.3-0.2,0.6-0.3
		c0.6-0.4,1.1-0.6,1.6-0.7c0.3,0,0.3,0,0.5,0.1c0.2,0.2,0.2,0.3,0,0.8c-0.1,0.5-0.3,0.8-0.6,1.4c-0.2,0.3-0.3,0.5-0.3,0.5
		c0,0,0.1,0,0.3,0c0.2,0,0.3,0,0.4,0.1c0.2,0.2,0.1,0.3-0.4,0.7c-0.6,0.4-1.1,0.7-1.6,0.7c0.2,0.2,0.3,0.4,0.3,0.4
		c0,0-0.4,0.4-0.6,0.6h0.7c0.5,0,0.7,0,0.8,0.1c0.1,0.1,0.1,0.1,0.1,0.2s-0.8,0.8-1.7,1.8l-1.7,1.7h-1c-0.5,0-0.9,0-0.9,0l-2.1,2.1
		c0,0-0.3,0.3-0.6,0.6c-0.3,0.3-0.8,0.7-1,0.8C707.2,210.1,706.4,210.3,705.6,210.3z M696.4,201.3c-1,0-1,0-1-1
		c0-1.4,0.4-2.3,1.3-3.2l0.6-0.6l2.1-2.1l0-0.6v-1l1.7-1.7c0.9-0.9,1.7-1.7,1.8-1.7s0.1,0,0.2,0.1c0.1,0.1,0.1,0.3,0.1,0.8v0.3
		c0.3-0.2,0.6-0.6,0.6-0.6c0,0,0.2,0.1,0.4,0.3c0-0.4,0.3-1,0.7-1.6c0.4-0.5,0.5-0.6,0.7-0.4c0.1,0.1,0.1,0.2,0.1,0.4
		c0,0.2,0,0.3,0,0.3c0,0,0.3-0.2,0.6-0.3c0.6-0.4,1.1-0.6,1.6-0.7c0.3,0,0.3,0,0.5,0.1c0.2,0.2,0.2,0.3,0,0.8
		c-0.1,0.5-0.3,0.8-0.6,1.4c-0.2,0.3-0.3,0.5-0.3,0.5c0,0,0.1,0,0.3,0c0.2,0,0.3,0,0.4,0.1c0.2,0.2,0.1,0.3-0.4,0.7
		c-0.6,0.4-1.1,0.7-1.6,0.7c0.2,0.2,0.3,0.4,0.3,0.4c0,0-0.4,0.4-0.6,0.6h0.7c0.5,0,0.7,0,0.8,0.1c0.1,0.1,0.1,0.1,0.1,0.2
		c0,0-0.8,0.8-1.7,1.8l-1.7,1.7h-1c-0.5,0-0.9,0-0.9,0l-2.1,2.1c0,0-0.3,0.3-0.6,0.6c-0.3,0.3-0.8,0.7-1,0.8
		C698,201.1,697.2,201.2,696.4,201.3z M696.9,209.7c-1,0-1,0-1-1c0-1.4,0.4-2.3,1.3-3.2l0.6-0.6l2.1-2.1l0-0.6v-1l1.7-1.7
		c0.9-0.9,1.7-1.7,1.8-1.7c0,0,0.1,0,0.2,0.1c0.1,0.1,0.1,0.3,0.1,0.8v0.3c0.3-0.2,0.6-0.6,0.6-0.6c0,0,0.2,0.1,0.4,0.3
		c0-0.4,0.3-1,0.7-1.6c0.4-0.5,0.5-0.6,0.7-0.4c0.1,0.1,0.1,0.2,0.1,0.4c0,0.2,0,0.3,0,0.3c0,0,0.3-0.2,0.6-0.3
		c0.6-0.4,1.1-0.6,1.6-0.7c0.3,0,0.3,0,0.5,0.1c0.2,0.2,0.2,0.3,0,0.8c-0.1,0.5-0.3,0.8-0.6,1.4c-0.2,0.3-0.3,0.5-0.3,0.5
		c0,0,0.1,0,0.3,0c0.2,0,0.3,0,0.4,0.1c0.2,0.2,0.1,0.3-0.4,0.7c-0.6,0.4-1.1,0.7-1.6,0.7c0.2,0.2,0.3,0.4,0.3,0.4
		c0,0-0.4,0.4-0.6,0.6h0.7c0.5,0,0.7,0,0.8,0.1c0.1,0.1,0.1,0.1,0.1,0.2c0,0-0.8,0.8-1.7,1.8l-1.7,1.7h-1c-0.5,0-0.9,0-0.9,0
		l-2.1,2.1c0,0-0.3,0.3-0.6,0.6c-0.3,0.3-0.8,0.7-1,0.8C698.5,209.5,697.8,209.7,696.9,209.7z M795.7,204.3c-0.1,0-0.2-0.1-0.3-0.1
		c0,0-0.1-0.1-0.1-0.3l-0.2,0.2l-0.2,0.2h-5.2h-5.2l-0.3,0c-0.1,0-0.7,0-1.3,0c-1.2,0-1.6,0-2.3-0.4c-0.9-0.4-1.7-1.1-2-1.8
		c-0.1-0.3-0.1-0.4-0.1-0.8c0-0.5,0-0.5,0.2-0.9c0.3-0.6,0.8-1.1,1.6-1.5c0.9-0.5,1.2-0.5,2.9-0.5l1.4,0h5.2h5.2l0.2,0.2l0.2,0.2
		c0-0.1,0-0.2,0.1-0.3c0.1-0.2,0.4-0.2,0.5,0c0.1,0.1,0.1,0.4,0.1,2.9c0,2.6,0,2.8-0.1,2.9C795.9,204.2,795.8,204.3,795.7,204.3z
		 M795.7,195.8c-0.1,0-0.2-0.1-0.3-0.1c0,0-0.1-0.1-0.1-0.3l-0.2,0.2l-0.2,0.2h-5.2h-5.2l-0.3,0c-0.1,0-0.7,0-1.3,0
		c-1.2,0-1.6,0-2.3-0.4c-0.9-0.4-1.7-1.1-2-1.8c-0.1-0.3-0.1-0.4-0.1-0.8c0-0.5,0-0.5,0.2-0.9c0.3-0.6,0.8-1.1,1.6-1.5
		c0.9-0.5,1.2-0.5,2.9-0.5l1.4,0h5.2h5.2l0.2,0.2l0.2,0.2c0-0.1,0-0.2,0.1-0.3c0.1-0.2,0.4-0.2,0.5,0c0.1,0.1,0.1,0.4,0.1,2.9
		c0,2.6,0,2.8-0.1,2.9C795.9,195.7,795.8,195.8,795.7,195.8z M753.4,201.1c-0.1,0-0.2-0.1-0.2-0.1c0,0-0.1-0.1-0.1-0.2l-0.2,0.2
		l-0.2,0.2h-4.9h-4.9l-0.3,0l-1.3,0c-1.1,0-1.5,0-2.2-0.3c-0.8-0.4-1.6-1-1.9-1.6c-0.1-0.2-0.1-0.4-0.1-0.7c0-0.4,0-0.5,0.2-0.8
		c0.3-0.5,0.8-1,1.5-1.3c0.8-0.4,1.1-0.5,2.7-0.5l1.3,0h4.9h4.9l0.2,0.2l0.2,0.2c0-0.1,0-0.2,0.1-0.2c0.1-0.2,0.4-0.2,0.5,0
		c0.1,0.1,0.1,0.3,0.1,2.6c0,2.4,0,2.5-0.1,2.6C753.6,201.1,753.5,201.1,753.4,201.1z M753.4,194.1c-0.1,0-0.2-0.1-0.2-0.1
		c0,0-0.1-0.1-0.1-0.2l-0.2,0.2l-0.2,0.2h-4.9h-4.9l-0.3,0c-0.1,0-0.7,0-1.3,0c-1.1,0-1.5,0-2.2-0.3c-0.8-0.4-1.6-1-1.9-1.6
		c-0.1-0.2-0.1-0.4-0.1-0.7c0-0.4,0-0.5,0.2-0.8c0.3-0.5,0.8-1,1.5-1.3c0.8-0.4,1.1-0.5,2.7-0.5l1.3,0h4.9h4.9l0.2,0.2l0.2,0.2
		c0-0.1,0-0.2,0.1-0.2c0.1-0.2,0.4-0.2,0.5,0c0.1,0.1,0.1,0.3,0.1,2.6c0,2.4,0,2.5-0.1,2.6C753.6,194.1,753.5,194.1,753.4,194.1z
		 M753.4,208.1c-0.1,0-0.2-0.1-0.2-0.1c0,0-0.1-0.1-0.1-0.2l-0.2,0.2l-0.2,0.2h-4.9h-4.9l-0.3,0c-0.1,0-0.7,0-1.3,0
		c-1.1,0-1.5,0-2.2-0.3c-0.8-0.4-1.6-1-1.9-1.6c-0.1-0.2-0.1-0.4-0.1-0.7c0-0.4,0-0.5,0.2-0.8c0.3-0.5,0.8-1,1.5-1.3
		c0.8-0.4,1.1-0.5,2.7-0.5l1.3,0h4.9h4.9l0.2,0.2l0.2,0.2c0-0.1,0-0.2,0.1-0.2c0.1-0.2,0.4-0.2,0.5,0c0.1,0.1,0.1,0.3,0.1,2.6
		c0,2.4,0,2.5-0.1,2.6C753.5,208.1,753.4,208.1,753.4,208.1z M685.9,148.3c0.9,0.3,2.3,1.3,3.3,2.4c1.7,1.8,2.7,3.9,3.2,6.2
		c0.2,1,0.2,1.3,0.2,3.1c0,1.7,0,1.7-0.1,1.9c0,0.1-0.1,0.2-0.2,0.2c-0.1,0-1.6,0.7-3.4,1.6c-3.2,1.4-3.3,1.5-3.5,1.5
		c-0.1,0-0.8-0.3-3.4-1.5c-1.8-0.8-3.3-1.5-3.4-1.5c-0.1,0-0.2-0.2-0.2-0.2l-0.1-1.9c0-1.3,0-1.8,0.1-2.1c0.4-2.8,1.5-5.2,3.4-7.3
		c1-1.1,2.5-2.2,3.3-2.5C685.5,148.2,685.6,148.2,685.9,148.3z M752.4,147.3c-0.5,1.9-0.5,4.8,0,4.8c0.1,0,0.4,0.1,0.8,0.3
		c0.5,0.3,0.6,0.3,1.2,0.2c1.6-0.4,3.5,0.9,3.5,2.5c0,0.2,0.1,0.5,0.3,0.6c0.4,0.4,0.7,1.2,0.7,1.9c0,0.9-0.2,1.5-0.8,2
		c-0.3,0.3-0.4,0.5-0.5,1c-0.1,1.2-1.2,2.2-2.4,2.3c-0.7,0.1-0.7,0.1-0.8,0.5c-0.2,0.7-1,1.4-1.8,1.7c-0.8,0.2-0.9,0.2-1.7,0
		c-0.4-0.1-0.8-0.4-1.1-0.7l-0.5-0.5l-0.7,0.2c-1.2,0.3-2.3-0.1-3-1.1c-0.3-0.4-0.5-0.6-0.8-0.7c-1.3-0.4-2.2-1.9-1.9-3.2
		c0.1-0.3,0-0.5-0.1-0.8c-0.4-0.6-0.5-1.5-0.4-2.2c0.2-0.7,0.8-1.5,1.4-1.8c0.2-0.1,0.4-0.4,0.6-0.8c0.5-1.5,2.1-2.2,3.6-1.7
		l0.7,0.2l0.5-0.5c0.8-0.8,0.9-2.1,0.5-4.1l-0.2-1.2c0,0,0.8,0,1.7,0h1.7L752.4,147.3z M605.6,198c0.3,0.3,1,0.8,1,1.3
		c0,0.7-0.8,1-1.3,0.6l-0.2-0.2l-0.5-0.5l-0.3-0.3l-3.4,3.4c-1.4,1.4-5.1,5.5-7.6,6.3c-0.4,0.1-0.8-0.1-0.8-0.6c0-0.1,0-0.1,0.1-0.3
		l0.1-0.2c1.4-2.9,4.1-5.2,6.3-7.4l3.3-3.3l-0.3-0.3l-0.4-0.4l-0.2-0.2c-0.1-0.1-0.2-0.3-0.2-0.4c-0.2,0.1-0.5,0-0.7-0.2l-0.2-0.2
		l-0.5-0.5l-0.3-0.3l-3.4,3.4c-1.4,1.4-5.1,5.5-7.6,6.3c-0.4,0.1-0.8-0.1-0.8-0.6c0-0.1,0-0.1,0.1-0.3l0.1-0.2
		c1.4-2.9,4.1-5.2,6.3-7.4l3.3-3.3l-0.3-0.3l-0.4-0.4l-0.2-0.2c-0.2-0.2-0.2-0.3-0.2-0.5c0-0.4,0.3-0.8,0.8-0.8c0.2,0,0.3,0,0.5,0.2
		l0.2,0.2l0.3,0.3l0.2,0.2c0.4-0.4,0.7-0.5,1.3-0.5l1.2-1.2l1.2-1.2c0-0.6,1.1-1.3,1.1-1.3c0.7-0.2,1.6,0.3,1.7,1l0,0.2l0,0.2
		c0,0.8-0.6,1.4-1.4,1.5l-2.3,2.3l0,0.3c0,0.4-0.2,0.7-0.5,1c0.3,0.3,0.9,0.8,1,1.2c0.1,0,0.1,0,0.2,0c0.2,0,0.3,0,0.5,0.2l0.2,0.2
		l0.3,0.3l0.2,0.2c0.4-0.4,0.7-0.5,1.3-0.5l1.2-1.2l1.2-1.2c0-0.6,1.1-1.3,1.1-1.3c0.7-0.2,1.6,0.3,1.7,1l0,0.2l0,0.2
		c0,0.8-0.6,1.4-1.4,1.5l-2.3,2.3l0,0.3C606.1,197.4,605.9,197.7,605.6,198z M784.1,149c-0.3,1.5-0.4,3.7-0.1,4.2
		c0.4,0,0.7,0,1.1,0.1l0.6,0.2l0.4-0.4c0.6-0.7,0.8-1.8,0.4-3.7l-0.2-1c0,0,0.7,0,1.5,0h1.5l-0.2,0.9c-0.4,1.7-0.4,4.3,0,4.3
		c0.1,0,0.4,0.1,0.6,0.3c0.4,0.3,0.5,0.3,1,0.2c1.4-0.3,2.9,0.8,2.9,2.2c0,0.2,0.1,0.4,0.2,0.6c0.4,0.3,0.6,1,0.6,1.7
		c0,0.8-0.2,1.3-0.7,1.8c-0.3,0.3-0.4,0.5-0.4,0.9c-0.1,1.1-1,2-2,2.1c-0.5,0-0.6,0.1-0.7,0.5c-0.2,0.6-0.8,1.3-1.5,1.5
		c-0.7,0.2-0.8,0.2-1.4,0c-0.3-0.1-0.7-0.3-0.9-0.6l-0.4-0.4l-0.6,0.2c-0.2,0.1-0.4,0.1-0.6,0.1c-0.3,0.3-0.6,0.5-1,0.6
		c-0.7,0.2-0.8,0.2-1.4,0c-0.3-0.1-0.7-0.3-0.9-0.6l-0.4-0.4l-0.6,0.2c-1,0.3-2-0.1-2.5-1c-0.2-0.3-0.4-0.5-0.7-0.6
		c-1.1-0.3-1.8-1.7-1.6-2.8c0.1-0.3,0-0.5-0.1-0.7c-0.3-0.5-0.5-1.3-0.3-1.9c0.1-0.6,0.7-1.4,1.1-1.6c0.2-0.1,0.3-0.3,0.5-0.7
		c0.4-1.3,1.7-2,3-1.5l0.6,0.2l0.4-0.4c0.6-0.7,0.8-1.8,0.4-3.7l-0.2-1c0,0,0.7,0,1.5,0h1.5L784.1,149z"/>
</g>
</svg>
