<?xml version="1.0" encoding="UTF-8" standalone="no"?>
<!-- Created with Inkscape (http://www.inkscape.org/) -->

<svg
   width="147.43871mm"
   height="89.740822mm"
   viewBox="0 0 147.4387 89.740821"
   version="1.1"
   id="svg5"
   inkscape:version="1.1.2 (0a00cf5339, 2022-02-04)"
   sodipodi:docname="extras.svg"
   xmlns:inkscape="http://www.inkscape.org/namespaces/inkscape"
   xmlns:sodipodi="http://sodipodi.sourceforge.net/DTD/sodipodi-0.dtd"
   xmlns="http://www.w3.org/2000/svg"
   xmlns:svg="http://www.w3.org/2000/svg">
  <sodipodi:namedview
     id="namedview7"
     pagecolor="#ffffff"
     bordercolor="#666666"
     borderopacity="1.0"
     inkscape:pageshadow="2"
     inkscape:pageopacity="0.0"
     inkscape:pagecheckerboard="0"
     inkscape:document-units="mm"
     showgrid="false"
     inkscape:snap-intersection-paths="true"
     inkscape:snap-bbox="true"
     inkscape:snap-center="true"
     inkscape:zoom="1.5037598"
     inkscape:cx="67.497482"
     inkscape:cy="160.59746"
     inkscape:window-width="1850"
     inkscape:window-height="1016"
     inkscape:window-x="70"
     inkscape:window-y="1107"
     inkscape:window-maximized="1"
     inkscape:current-layer="layer1"
     inkscape:snap-global="false"
     fit-margin-top="0"
     fit-margin-left="0"
     fit-margin-right="0"
     fit-margin-bottom="0" />
  <defs
     id="defs2">
    <inkscape:path-effect
       effect="copy_rotate"
       starting_point="171.81761,98.936495"
       origin="170.10836,98.936495"
       id="path-effect1421"
       is_visible="true"
       lpeversion="1"
       method="normal"
       num_copies="8"
       starting_angle="0"
       rotation_angle="45"
       gap="-0.01"
       copies_to_360="true"
       mirror_copies="false"
       split_items="false" />
    <inkscape:path-effect
       effect="copy_rotate"
       starting_point="64.010074,52.034264"
       origin="61.825012,52.034264"
       id="path-effect2800"
       is_visible="true"
       lpeversion="1"
       method="normal"
       num_copies="8"
       starting_angle="0"
       rotation_angle="45"
       gap="-0.01"
       copies_to_360="true"
       mirror_copies="false"
       split_items="false" />
    <inkscape:path-effect
       effect="copy_rotate"
       starting_point="62.825012,51.902842"
       origin="61.825012,51.902842"
       id="path-effect2032"
       is_visible="true"
       lpeversion="1"
       method="normal"
       num_copies="19"
       starting_angle="0"
       rotation_angle="18.947368"
       gap="-0.01"
       copies_to_360="true"
       mirror_copies="false"
       split_items="false" />
    <inkscape:path-effect
       effect="copy_rotate"
       starting_point="62.81794,52.034264"
       origin="61.825012,52.034264"
       id="path-effect1183"
       is_visible="true"
       lpeversion="1"
       method="normal"
       num_copies="19"
       starting_angle="0"
       rotation_angle="18.947368"
       gap="-0.01"
       copies_to_360="true"
       mirror_copies="false"
       split_items="false" />
    <inkscape:path-effect
       effect="copy_rotate"
       starting_point="62.825012,51.902842"
       origin="61.825012,51.902842"
       id="path-effect2032-9"
       is_visible="true"
       lpeversion="1"
       method="normal"
       num_copies="19"
       starting_angle="0"
       rotation_angle="18.947368"
       gap="-0.01"
       copies_to_360="true"
       mirror_copies="false"
       split_items="false" />
    <inkscape:path-effect
       effect="copy_rotate"
       starting_point="62.825012,52.034264"
       origin="61.825012,52.034264"
       id="path-effect1183-6"
       is_visible="true"
       lpeversion="1"
       method="normal"
       num_copies="19"
       starting_angle="0"
       rotation_angle="18.947368"
       gap="-0.01"
       copies_to_360="true"
       mirror_copies="false"
       split_items="false" />
    <inkscape:path-effect
       effect="copy_rotate"
       starting_point="64.010074,52.034264"
       origin="61.825012,52.034264"
       id="path-effect2800-4"
       is_visible="true"
       lpeversion="1"
       method="normal"
       num_copies="6"
       starting_angle="0"
       rotation_angle="60"
       gap="-0.01"
       copies_to_360="true"
       mirror_copies="false"
       split_items="false" />
  </defs>
  <g
     inkscape:label="Capa 1"
     inkscape:groupmode="layer"
     id="layer1"
     transform="translate(-40.867315,-30.87977)">
    <g
       id="g1610"
       transform="translate(-5.4122334,2.7319601)">
      <path
         id="path1016"
         style="color:#000000;fill:#ff8080;stroke-width:2.14203;-inkscape-stroke:none"
         d="m 64.777228,28.476846 c -3.514082,0.01849 -7.045044,0.281671 -9.943601,0.792999 -1.449277,0.255666 -2.739927,0.572577 -3.813715,0.96868 -1.073789,0.396102 -1.95143,0.838192 -2.558948,1.583559 l -0.106147,0.131759 -0.05978,0.15677 c -0.209293,0.537302 -0.294791,1.134373 -0.392229,1.961757 -0.09745,0.827385 -0.175724,1.841486 -0.23973,2.987778 -0.128011,2.292584 -0.193116,4.175878 -0.195809,6.983789 -0.0027,2.807909 0.05739,5.60187 0.184218,7.848252 0.06341,1.12319 0.141959,2.108754 0.242171,2.904816 0.07685,0.61053 0.189328,1.021888 0.332448,1.457288 l -0.02561,0.02989 c -0.638831,0.751719 -0.859816,1.688731 -1.058349,2.807827 -0.198532,1.119098 -0.291028,2.399727 -0.281209,3.656336 0.0098,1.256611 0.119372,2.479833 0.36905,3.509328 0.124838,0.514746 0.280488,0.981851 0.518499,1.406048 0.226121,0.403007 0.571715,0.792439 1.094949,1.01016 0.239515,0.131509 0.457756,0.227996 0.705769,0.292799 0.318497,0.08322 0.687658,0.156117 1.120569,0.225699 0.865823,0.139166 1.978302,0.264229 3.278137,0.375761 0.669354,0.05742 1.663883,0.06633 2.421087,0.115291 l 0.02989,0.408091 c -0.287655,2.120933 -0.520262,3.369026 -0.537409,6.617616 -0.0087,1.66006 0.03633,3.221439 0.16592,4.465806 0.06479,0.622181 0.149316,1.162476 0.27694,1.632357 0.127365,0.468932 0.191134,0.922717 0.809468,1.337118 0.790557,0.531728 1.781493,0.769931 2.971308,0.961357 1.189813,0.191431 2.558822,0.286779 3.954015,0.290973 2.790385,0.0084 5.600817,-0.262558 7.410272,-1.18767 l 0.161041,-0.08296 0.12688,-0.133591 c 0.48365,-0.508122 0.442888,-0.815198 0.530089,-1.247449 0.08719,-0.43225 0.151402,-0.945481 0.205569,-1.542078 0.108341,-1.193192 0.169579,-2.707564 0.1891,-4.327944 1.89e-4,-0.01567 -1.82e-4,-0.0319 0,-0.04758 0.0047,-0.38894 0.0068,-0.784297 0.0067,-1.18218 -5e-6,-0.01157 6e-6,-0.02321 0,-0.03478 -8.2e-5,-0.124969 -0.0018,-0.250993 -0.0025,-0.376371 -0.0012,-0.285925 -0.0018,-0.571638 -0.0054,-0.857658 -0.0052,-0.411355 -0.01308,1.460093 -0.02318,1.054345 -0.05085,-2.041831 -0.163604,-3.96929 -0.339769,-5.346035 l -0.02805,-0.21655 c 0.367118,-0.01824 0.81446,0.0015 1.168758,-0.02075 3.057958,-0.191914 5.53886,-0.483674 7.133325,-1.138871 l 0.233027,-0.09455 0.165921,-0.1891 c 0.64164,-0.733333 0.980941,-1.695637 1.251718,-2.805996 0.270776,-1.110362 0.429815,-2.366974 0.466042,-3.608147 0.0047,-0.163778 0.0071,-0.327091 0.0083,-0.48983 2.3e-5,-0.0041 -1.2e-5,-0.0081 0,-0.01222 2.01e-4,-0.05273 -0.0012,-0.104854 -0.0024,-0.15738 -5.55e-4,-0.09205 -4.37e-4,-0.184235 -0.0024,-0.275719 -0.0036,-0.143262 -0.0083,-0.285144 -0.01523,-0.425779 -0.03683,-0.76098 -0.127733,-1.493877 -0.287916,-2.16428 -0.177358,-0.742237 -0.502612,-1.390362 -0.961972,-1.941017 -0.223631,-0.49798 -0.228884,-0.398794 -0.395889,-0.818619 0.204992,-0.534545 0.367547,-1.287037 0.494714,-2.192949 0.09125,-0.606748 0.162047,-1.268867 0.215321,-2.009946 0.08334,-1.159488 0.130258,-2.434941 0.148839,-3.765528 8.2e-5,-0.0052 5.31e-4,-0.01064 6.25e-4,-0.01587 0.04721,-3.257987 -0.0805,-5.951937 -0.291588,-8.977255 -0.04321,-0.624909 -0.08983,-1.226285 -0.139691,-1.794007 -0.195088,-2.224403 -0.380413,-3.835258 -0.710035,-4.814115 l -0.03411,-0.103703 -0.05548,-0.09455 C 80.154802,31.095398 79.30046,30.601898 78.275878,30.18297 77.251297,29.764042 76.009022,29.446831 74.598807,29.194161 71.778367,28.688824 68.291501,28.45943 64.777208,28.476802 Z M 49.618743,46.093534 c 0.02527,2.407338 0.09899,4.700034 0.22265,6.507473 -0.01846,-0.265732 -0.03624,-0.541766 -0.05246,-0.828989 -0.09285,-1.644512 -0.149079,-3.61871 -0.17019,-5.678484 z m -0.6161,16.624312 c 0.0012,0.145632 0.0037,0.290701 0.0079,0.434931 -0.0041,-0.139234 -0.0068,-0.279518 -0.0079,-0.420289 -3.8e-5,-0.0049 3.5e-5,-0.0098 0,-0.01465 z"
         sodipodi:nodetypes="csscccsscssccscsscssscccsscsscccssscsscssccccccsssccccscccssccscccsscccscccsccc" />
      <g
         id="g885"
         transform="matrix(7.7147623,0,0,7.7147623,-153.90753,-1893.6404)">
        <path
           id="rect6047"
           style="fill:#000000;stroke-width:0.235215"
           d="m 28.382661,249.69036 c -0.760649,0.004 -1.531214,0.11586 -1.700974,0.32414 -0.108113,0.27755 -0.112818,2.47394 0,2.70874 0.272834,0.21383 3.035799,0.22501 3.343014,0 0.210362,-0.34242 0.100715,-2.40965 0,-2.70874 -0.130731,-0.22334 -0.881392,-0.3279 -1.64204,-0.32414 z m 1.698027,3.09476 c -0.01672,0.06 -0.03603,0.10468 -0.0582,0.13039 -0.307215,0.22501 -3.070917,0.21383 -3.343751,0 -0.01041,-0.0215 -0.01888,-0.0589 -0.02726,-0.1105 -0.15806,0.18599 -0.168898,1.10842 0.02726,1.17941 0.176013,0.12539 2.822967,0.23428 3.393108,0 0.185687,-0.21222 0.236877,-1.06822 0.0088,-1.1993 z m -2.500999,1.45492 c -0.06215,0.43988 -0.103846,1.61396 0.02652,1.70098 0.227937,0.15331 1.141136,0.16043 1.454926,0 0.08538,-0.0897 0.08908,-1.22167 0.0302,-1.68182 -0.488336,0.0177 -1.053082,0.007 -1.511649,-0.0192 z" />
      </g>
    </g>
  </g>
</svg>
