<?xml version="1.0" encoding="UTF-8" standalone="no"?>
<!-- Created with Inkscape (http://www.inkscape.org/) -->

<svg
   width="147.43871mm"
   height="89.740822mm"
   viewBox="0 0 147.4387 89.740821"
   version="1.1"
   id="svg5"
   inkscape:version="1.1.2 (0a00cf5339, 2022-02-04)"
   sodipodi:docname="wheels.svg"
   xmlns:inkscape="http://www.inkscape.org/namespaces/inkscape"
   xmlns:sodipodi="http://sodipodi.sourceforge.net/DTD/sodipodi-0.dtd"
   xmlns="http://www.w3.org/2000/svg"
   xmlns:svg="http://www.w3.org/2000/svg">
  <sodipodi:namedview
     id="namedview7"
     pagecolor="#ffffff"
     bordercolor="#666666"
     borderopacity="1.0"
     inkscape:pageshadow="2"
     inkscape:pageopacity="0.0"
     inkscape:pagecheckerboard="0"
     inkscape:document-units="mm"
     showgrid="false"
     inkscape:snap-intersection-paths="true"
     inkscape:snap-bbox="true"
     inkscape:snap-center="true"
     inkscape:zoom="0.7518799"
     inkscape:cx="523.35486"
     inkscape:cy="325.84991"
     inkscape:window-width="1920"
     inkscape:window-height="1043"
     inkscape:window-x="1920"
     inkscape:window-y="1080"
     inkscape:window-maximized="1"
     inkscape:current-layer="layer1"
     inkscape:snap-global="true"
     fit-margin-top="0"
     fit-margin-left="0"
     fit-margin-right="0"
     fit-margin-bottom="0" />
  <defs
     id="defs2">
    <inkscape:path-effect
       effect="copy_rotate"
       starting_point="171.81761,98.936495"
       origin="170.10836,98.936495"
       id="path-effect1421"
       is_visible="true"
       lpeversion="1"
       method="normal"
       num_copies="8"
       starting_angle="0"
       rotation_angle="45"
       gap="-0.01"
       copies_to_360="true"
       mirror_copies="false"
       split_items="false" />
    <inkscape:path-effect
       effect="copy_rotate"
       starting_point="64.010074,52.034264"
       origin="61.825012,52.034264"
       id="path-effect2800"
       is_visible="true"
       lpeversion="1"
       method="normal"
       num_copies="8"
       starting_angle="0"
       rotation_angle="45"
       gap="-0.01"
       copies_to_360="true"
       mirror_copies="false"
       split_items="false" />
    <inkscape:path-effect
       effect="copy_rotate"
       starting_point="62.825012,51.902842"
       origin="61.825012,51.902842"
       id="path-effect2032"
       is_visible="true"
       lpeversion="1"
       method="normal"
       num_copies="19"
       starting_angle="0"
       rotation_angle="18.947368"
       gap="-0.01"
       copies_to_360="true"
       mirror_copies="false"
       split_items="false" />
    <inkscape:path-effect
       effect="copy_rotate"
       starting_point="62.81794,52.034264"
       origin="61.825012,52.034264"
       id="path-effect1183"
       is_visible="true"
       lpeversion="1"
       method="normal"
       num_copies="19"
       starting_angle="0"
       rotation_angle="18.947368"
       gap="-0.01"
       copies_to_360="true"
       mirror_copies="false"
       split_items="false" />
    <inkscape:path-effect
       effect="copy_rotate"
       starting_point="62.825012,51.902842"
       origin="61.825012,51.902842"
       id="path-effect2032-9"
       is_visible="true"
       lpeversion="1"
       method="normal"
       num_copies="19"
       starting_angle="0"
       rotation_angle="18.947368"
       gap="-0.01"
       copies_to_360="true"
       mirror_copies="false"
       split_items="false" />
    <inkscape:path-effect
       effect="copy_rotate"
       starting_point="62.825012,52.034264"
       origin="61.825012,52.034264"
       id="path-effect1183-6"
       is_visible="true"
       lpeversion="1"
       method="normal"
       num_copies="19"
       starting_angle="0"
       rotation_angle="18.947368"
       gap="-0.01"
       copies_to_360="true"
       mirror_copies="false"
       split_items="false" />
    <inkscape:path-effect
       effect="copy_rotate"
       starting_point="64.010074,52.034264"
       origin="61.825012,52.034264"
       id="path-effect2800-4"
       is_visible="true"
       lpeversion="1"
       method="normal"
       num_copies="6"
       starting_angle="0"
       rotation_angle="60"
       gap="-0.01"
       copies_to_360="true"
       mirror_copies="false"
       split_items="false" />
  </defs>
  <g
     inkscape:label="Capa 1"
     inkscape:groupmode="layer"
     id="layer1"
     transform="translate(-40.867315,-30.87977)">
    <g
       id="g895">
      <circle
         style="fill:#000000;stroke:none;stroke-width:3.87714;stroke-linecap:round;stroke-miterlimit:4;stroke-dasharray:none;stop-color:#000000"
         id="path2306"
         cx="61.825012"
         cy="51.772316"
         r="19.375416" />
      <circle
         style="fill:#ffff00;stroke:#ffffff;stroke-width:3.68847;stroke-linecap:round;stroke-miterlimit:4;stroke-dasharray:none;stop-color:#000000"
         id="path2202"
         cx="61.825012"
         cy="51.772316"
         r="14.905806" />
      <path
         style="fill:#ffffff;stroke:#ffffff;stroke-width:3.765;stroke-linecap:round;stroke-linejoin:miter;stroke-miterlimit:4;stroke-dasharray:none;stroke-opacity:1"
         d="m 61.825012,32.76227 v 7.974309 m -6.214934,-6.93722 2.589254,7.542239 m -8.130703,-4.543357 4.897922,6.292851 m -9.165384,-1.657151 6.675824,4.361534 m -9.206855,1.408634 7.730298,1.957577 m -8.250619,4.321772 7.947072,-0.658513 m -6.4003,6.766577 7.302659,-3.203243 m -3.85641,8.47812 5.866889,-5.400853 m -0.894618,9.270927 3.795351,-7.013196 m 2.164119,9.059085 1.312529,-7.86555 m 4.988341,7.86555 -1.312529,-7.86555 m 7.271999,5.819661 -3.795351,-7.013196 m 8.767622,3.143122 -5.866889,-5.400853 m 9.313138,0.125976 -7.302659,-3.203243 m 8.849431,-2.904821 -7.947072,-0.658513 m 7.426751,-5.620836 -7.730298,1.957577 m 5.199267,-7.727745 -6.675824,4.361534 m 2.408362,-8.997234 -4.897922,6.292851 m -0.643527,-9.291733 -2.589254,7.542239"
         id="path1816"
         inkscape:path-effect="#path-effect2032"
         inkscape:original-d="m 61.825012,32.76227 v 7.974309" />
      <path
         style="fill:none;stroke:#000000;stroke-width:2.265;stroke-linecap:round;stroke-linejoin:miter;stroke-miterlimit:4;stroke-dasharray:none;stroke-opacity:1"
         d="m 61.825012,32.76227 v 9.21661 m -6.257606,-8.1724 2.992628,8.717228 m -8.572126,-5.697755 5.660959,7.2732 m -9.957722,-2.605671 7.715837,5.041008 m -10.264246,0.768779 8.934584,2.262544 m -9.458478,4.05992 9.18513,-0.761102 m -7.627738,6.911105 8.440326,-3.70227 m -4.970415,9.013364 6.780881,-6.24224 m -1.774469,10.138887 4.386621,-8.105767 m 1.613768,10.165703 1.517004,-9.090907 m 4.827128,9.090907 -1.517004,-9.090907 m 7.517393,7.030971 -4.386621,-8.105767 m 9.393033,4.20912 -6.780881,-6.24224 m 10.250792,0.931146 -8.440326,-3.70227 m 9.997718,-2.447733 -9.18513,-0.761102 m 8.661236,-5.561362 -8.934584,2.262544 m 6.386175,-8.072331 -7.715837,5.041008 m 3.419074,-9.708537 -5.660959,7.2732 m 0.08146,-10.292673 -2.992628,8.717228"
         id="path983"
         sodipodi:nodetypes="cc"
         inkscape:path-effect="#path-effect1183"
         inkscape:original-d="m 61.825012,32.76227 v 9.21661" />
      <circle
         style="fill:#000000;stroke-width:0.919478;-inkscape-stroke:none;stop-color:#000000"
         id="path846"
         cx="61.825012"
         cy="51.772316"
         r="14.971815" />
      <path
         style="fill:#ffffff;stroke:none;stroke-width:3.48423;stroke-linecap:round;stroke-miterlimit:4;stroke-dasharray:none;stop-color:#000000"
         id="path2674"
         inkscape:path-effect="#path-effect2800"
         sodipodi:type="arc"
         sodipodi:cx="61.825012"
         sodipodi:cy="41.978882"
         sodipodi:rx="2.1850624"
         sodipodi:ry="2.1850624"
         d="m 64.010075,41.978882 c 0,1.206776 -0.978286,2.185062 -2.185063,2.185062 -1.206776,0 -2.185062,-0.978286 -2.185062,-2.185062 0,-1.206777 0.978286,-2.185063 2.185062,-2.185063 1.206777,0 2.185063,0.978286 2.185063,2.185063 z m -7.750219,1.40008 c 0.85332,0.85332 0.85332,2.236825 0,3.090145 -0.85332,0.85332 -2.236825,0.85332 -3.090145,0 -0.85332,-0.85332 -0.85332,-2.236825 0,-3.090145 0.85332,-0.853319 2.236825,-0.853319 3.090145,0 z m -4.490226,6.470239 c 1.206776,0 2.185062,0.978286 2.185062,2.185063 0,1.206776 -0.978286,2.185062 -2.185062,2.185062 -1.206777,0 -2.185063,-0.978286 -2.185063,-2.185062 0,-1.206777 0.978286,-2.185063 2.185063,-2.185063 z m 1.40008,7.750219 c 0.85332,-0.85332 2.236825,-0.85332 3.090145,0 0.85332,0.85332 0.85332,2.236825 0,3.090145 -0.85332,0.85332 -2.236825,0.85332 -3.090145,0 -0.853319,-0.85332 -0.853319,-2.236825 0,-3.090145 z m 6.470239,4.490226 c 0,-1.206776 0.978286,-2.185062 2.185063,-2.185062 1.206776,0 2.185062,0.978286 2.185062,2.185062 0,1.206777 -0.978286,2.185063 -2.185062,2.185063 -1.206777,0 -2.185063,-0.978286 -2.185063,-2.185063 z m 7.750219,-1.40008 c -0.85332,-0.85332 -0.85332,-2.236825 0,-3.090145 0.85332,-0.85332 2.236825,-0.85332 3.090145,0 0.85332,0.85332 0.85332,2.236825 0,3.090145 -0.85332,0.853319 -2.236825,0.853319 -3.090145,0 z m 4.490226,-6.470239 c -1.206776,0 -2.185062,-0.978286 -2.185062,-2.185063 0,-1.206776 0.978286,-2.185062 2.185062,-2.185062 1.206777,0 2.185063,0.978286 2.185063,2.185062 0,1.206777 -0.978286,2.185063 -2.185063,2.185063 z m -1.40008,-7.750219 c -0.85332,0.85332 -2.236825,0.85332 -3.090145,0 -0.85332,-0.85332 -0.85332,-2.236825 0,-3.090145 0.85332,-0.85332 2.236825,-0.85332 3.090145,0 0.853319,0.85332 0.853319,2.236825 0,3.090145 z" />
    </g>
    <g
       id="g887">
      <circle
         style="fill:#000000;stroke:none;stroke-width:3.87714;stroke-linecap:round;stroke-miterlimit:4;stroke-dasharray:none;stop-color:#000000"
         id="path2306-3"
         cx="63.069695"
         cy="99.567154"
         r="19.375416" />
      <circle
         style="fill:#ffff00;stroke:#ffffff;stroke-width:3.68847;stroke-linecap:round;stroke-miterlimit:4;stroke-dasharray:none;stop-color:#000000"
         id="path2202-3"
         cx="63.069695"
         cy="99.567154"
         r="14.905806" />
      <path
         style="fill:#ffffff;stroke:#ffffff;stroke-width:3.765;stroke-linecap:round;stroke-linejoin:miter;stroke-miterlimit:4;stroke-dasharray:none;stroke-opacity:1"
         d="m 61.825012,32.76227 v 7.974309 m -6.214934,-6.93722 2.589254,7.542239 m -8.130703,-4.543357 4.897922,6.292851 m -9.165384,-1.657151 6.675824,4.361534 m -9.206855,1.408634 7.730298,1.957577 m -8.250619,4.321772 7.947072,-0.658513 m -6.4003,6.766577 7.302659,-3.203243 m -3.85641,8.47812 5.866889,-5.400853 m -0.894618,9.270927 3.795351,-7.013196 m 2.164119,9.059085 1.312529,-7.86555 m 4.988341,7.86555 -1.312529,-7.86555 m 7.271999,5.819661 -3.795351,-7.013196 m 8.767622,3.143122 -5.866889,-5.400853 m 9.313138,0.125976 -7.302659,-3.203243 m 8.849431,-2.904821 -7.947072,-0.658513 m 7.426751,-5.620836 -7.730298,1.957577 m 5.199267,-7.727745 -6.675824,4.361534 m 2.408362,-8.997234 -4.897922,6.292851 m -0.643527,-9.291733 -2.589254,7.542239"
         id="path1816-3"
         inkscape:path-effect="#path-effect2032-9"
         inkscape:original-d="m 61.825012,32.76227 v 7.974309"
         transform="translate(1.2446817,47.794843)" />
      <path
         style="fill:none;stroke:#000000;stroke-width:2.265;stroke-linecap:round;stroke-linejoin:miter;stroke-miterlimit:4;stroke-dasharray:none;stroke-opacity:1"
         d="m 61.825012,32.76227 v 9.21661 m -6.257606,-8.1724 2.992628,8.717228 m -8.572126,-5.697755 5.660959,7.2732 m -9.957722,-2.605671 7.715837,5.041008 m -10.264246,0.768779 8.934584,2.262544 m -9.458478,4.05992 9.18513,-0.761102 m -7.627738,6.911105 8.440326,-3.70227 m -4.970415,9.013364 6.780881,-6.24224 m -1.774469,10.138887 4.386621,-8.105767 m 1.613768,10.165703 1.517004,-9.090907 m 4.827128,9.090907 -1.517004,-9.090907 m 7.517393,7.030971 -4.386621,-8.105767 m 9.393033,4.20912 -6.780881,-6.24224 m 10.250792,0.931146 -8.440326,-3.70227 m 9.997718,-2.447733 -9.18513,-0.761102 m 8.661236,-5.561362 -8.934584,2.262544 m 6.386175,-8.072331 -7.715837,5.041008 m 3.419074,-9.708537 -5.660959,7.2732 m 0.08146,-10.292673 -2.992628,8.717228"
         id="path983-8"
         sodipodi:nodetypes="cc"
         inkscape:path-effect="#path-effect1183-6"
         inkscape:original-d="m 61.825012,32.76227 v 9.21661"
         transform="translate(1.2446817,47.794843)" />
      <circle
         style="fill:#000000;stroke-width:0.96373;-inkscape-stroke:none;stop-color:#000000"
         id="path846-6"
         cx="63.069695"
         cy="99.567154"
         r="15.692374" />
      <path
         style="fill:#ffffff;stroke:none;stroke-width:3.48423;stroke-linecap:round;stroke-miterlimit:4;stroke-dasharray:none;stop-color:#000000"
         id="path2674-0"
         inkscape:path-effect="#path-effect2800-4"
         sodipodi:type="arc"
         sodipodi:cx="61.825012"
         sodipodi:cy="41.978882"
         sodipodi:rx="2.1850624"
         sodipodi:ry="2.1850624"
         transform="matrix(0.84431292,0,0,0.84431292,10.870038,55.633958)"
         d="m 64.010075,41.978882 c 0,1.206776 -0.978286,2.185062 -2.185063,2.185062 -1.206776,0 -2.185062,-0.978286 -2.185062,-2.185062 0,-1.206777 0.978286,-2.185063 2.185062,-2.185063 1.206777,0 2.185063,0.978286 2.185063,2.185063 z m -9.800748,3.135371 c 1.045099,0.603389 1.403177,1.939752 0.799788,2.984851 -0.603388,1.045099 -1.939751,1.403177 -2.98485,0.799788 -1.0451,-0.603388 -1.403177,-1.939751 -0.799789,-2.98485 0.603388,-1.0451 1.939752,-1.403177 2.984851,-0.799789 z m -2.185063,10.055382 c 1.0451,-0.603388 2.381463,-0.245311 2.984851,0.799789 0.603388,1.045099 0.245311,2.381462 -0.799788,2.98485 -1.0451,0.603389 -2.381463,0.245311 -2.984851,-0.799788 -0.603388,-1.045099 -0.245311,-2.381462 0.799788,-2.984851 z m 7.615685,6.920011 c 0,-1.206776 0.978286,-2.185062 2.185063,-2.185062 1.206776,0 2.185062,0.978286 2.185062,2.185062 0,1.206777 -0.978286,2.185063 -2.185062,2.185063 -1.206777,0 -2.185063,-0.978286 -2.185063,-2.185063 z m 9.800748,-3.135371 c -1.045099,-0.603389 -1.403177,-1.939752 -0.799788,-2.984851 0.603388,-1.045099 1.939751,-1.403177 2.98485,-0.799788 1.0451,0.603388 1.403177,1.939751 0.799789,2.98485 -0.603388,1.0451 -1.939752,1.403177 -2.984851,0.799789 z M 71.62576,48.898893 c -1.0451,0.603388 -2.381463,0.245311 -2.984851,-0.799789 -0.603388,-1.045099 -0.245311,-2.381462 0.799788,-2.98485 1.0451,-0.603389 2.381463,-0.245311 2.984851,0.799788 0.603388,1.045099 0.245311,2.381462 -0.799788,2.984851 z" />
      <path
         style="color:#000000;fill:#ffffff;stroke-width:1.03333;stroke-linecap:round;-inkscape-stroke:none"
         d="m 63.070703,86.193411 c -7.3783,0 -13.374746,5.994429 -13.374746,13.372725 0,7.378314 5.996446,13.374754 13.374746,13.374764 7.378301,0 13.372729,-5.99645 13.372729,-13.374764 0,-7.378296 -5.994428,-13.372725 -13.372729,-13.372725 z m 0,1.33808 c 6.654832,0 12.034649,5.379817 12.034649,12.034645 0,6.654844 -5.379817,12.036674 -12.034649,12.036674 -6.654831,0 -12.036666,-5.38183 -12.036666,-12.036674 0,-6.654828 5.381835,-12.034645 12.036666,-12.034645 z"
         id="path852" />
    </g>
    <path
       style="vector-effect:none;fill:#000000;fill-opacity:1;fill-rule:nonzero;stroke:none;stroke-width:1.04955;stroke-linecap:round;stroke-linejoin:miter;stroke-miterlimit:4;stroke-dasharray:none;stroke-dashoffset:0;stroke-opacity:1"
       d="M 114.07337,30.87977 A 20.957628,20.892476 0 0 0 93.115664,51.772368 20.957628,20.892476 0 0 0 94.2816,58.568467 L 126.97324,35.337273 A 20.957628,20.892476 0 0 0 114.07337,30.87977 Z m 14.00205,5.377462 -33.281628,23.651239 a 20.957628,20.892476 0 0 0 5.702188,7.726907 l 33.05578,-23.488686 a 20.957628,20.892476 0 0 0 -5.47634,-7.88946 z m 5.97233,9.239258 -32.42151,23.03836 a 20.957628,20.892476 0 0 0 12.44713,4.130012 20.957628,20.892476 0 0 0 20.95769,-20.892494 20.957628,20.892476 0 0 0 -0.98331,-6.275878 z"
       id="path815"
       inkscape:connector-curvature="0" />
    <path
       id="path5961-5-6"
       style="color:#000000;fill:#000000;stroke-width:1.53552;stroke-linejoin:round;stroke-dasharray:4.60656, 1.53552;-inkscape-stroke:none"
       d="m 114.05843,78.674409 -1.05243,0.03082 a 0.76860451,0.76706528 0 0 0 -0.0276,0 l -1.03655,0.08734 a 0.76860451,0.76706528 0 0 0 -0.0314,0 l -0.85388,0.107601 0.0953,0.76082 a 20.191145,20.150709 0 0 0 -1.51313,0.281762 l -0.17477,-0.744769 -0.61556,0.134793 a 0.76860451,0.76706528 0 0 0 -0.0276,0.01154 l -0.96108,0.269455 a 0.76860451,0.76706528 0 0 0 -0.0475,0.01154 l -0.92932,0.313138 a 0.76860451,0.76706528 0 0 0 -0.0314,0.01154 l -0.91351,0.360488 a 0.76860451,0.76706528 0 0 0 -0.0475,0.01154 l -0.88564,0.404195 a 0.76860451,0.76706528 0 0 0 -0.0438,0.01154 h -0.0166 l 0.35748,0.693407 a 20.191145,20.150709 0 0 0 -1.36223,0.721634 l -0.38922,-0.665657 -0.3296,0.193785 a 0.76860451,0.76706528 0 0 0 -0.0314,0.01154 l -0.82607,0.522923 a 0.76860451,0.76706528 0 0 0 -0.0276,0.03082 l -0.79429,0.555516 a 0.76860451,0.76706528 0 0 0 -0.0314,0.03081 l -0.75062,0.597981 a 0.76860451,0.76706528 0 0 0 -0.0277,0.01154 l -0.738705,0.630461 a 0.76860451,0.76706528 0 0 0 -0.0276,0.03082 l -0.24226,0.225785 0.532225,0.554297 a 20.191145,20.150709 0 0 0 -1.084209,1.101887 l -0.556015,-0.535231 -0.04753,0.043 a 0.76860451,0.76706528 0 0 0 -0.02765,0.03081 l -0.631421,0.733202 a 0.76860451,0.76706528 0 0 0 -0.01659,0.03082 l -0.599667,0.749316 a 0.76860451,0.76706528 0 0 0 -0.03137,0.03081 l -0.556037,0.792689 a 0.76860451,0.76706528 0 0 0 -0.02765,0.03081 l -0.52422,0.824442 a 0.76860451,0.76706528 0 0 0 -0.01659,0.03081 l -0.329598,0.570907 0.671149,0.384489 a 20.191145,20.150709 0 0 0 -0.702976,1.359476 l -0.702977,-0.320437 -0.301811,0.674193 a 0.76860451,0.76706528 0 0 0 -0.01659,0.03081 l -0.361351,0.927481 a 0.76860451,0.76706528 0 0 0 -0.01319,0.03082 l -0.31772,0.927431 a 0.76860451,0.76706528 0 0 0 -0.01595,0.043 l -0.270061,0.959219 a 0.76860451,0.76706528 0 0 0 -0.01601,0.03081 l -0.194607,0.883862 0.754538,0.174111 a 20.191145,20.150709 0 0 0 -0.254161,1.510137 l -0.766526,-0.09904 -0.07532,0.586906 a 0.76860451,0.76706528 0 0 0 0,0.03081 l -0.09129,1.034473 a 0.76860451,0.76706528 0 0 0 0,0.03078 l -0.01614,1.046354 a 0.76860451,0.76706528 0 0 0 0,0.03088 l 0.01601,1.034529 a 0.76860451,0.76706528 0 0 0 0,0.043 l 0.07532,0.91154 0.778414,-0.0614 a 20.191145,20.150709 0 0 0 0.206511,1.51008 l -0.758556,0.13528 0.103308,0.59799 a 0.76860451,0.76706528 0 0 0 0,0.0309 l 0.226416,0.98697 a 0.76860451,0.76706528 0 0 0 0.01602,0.0309 l 0.270067,0.95921 a 0.76860451,0.76706528 0 0 0 0.01595,0.0309 l 0.313701,0.94723 a 0.76860451,0.76706528 0 0 0 0.01659,0.0309 l 0.35748,0.91558 a 0.76860451,0.76706528 0 0 0 0.01659,0.0309 l 0.01659,0.0309 0.706963,-0.31683 a 20.191145,20.150709 0 0 0 0.655262,1.38327 l -0.687078,0.35251 0.178703,0.34451 a 0.76860451,0.76706528 0 0 0 0.01659,0.043 l 0.480578,0.84023 a 0.76860451,0.76706528 0 0 0 0.01659,0.0309 l 0.52422,0.82438 a 0.76860451,0.76706528 0 0 0 0.03137,0.0309 l 0.556005,0.77682 a 0.76860451,0.76706528 0 0 0 0.02765,0.0309 l 0.599678,0.76469 a 0.76860451,0.76706528 0 0 0 0.01659,0.0309 l 0.226354,0.25408 0.583769,-0.51554 a 20.191145,20.150709 0 0 0 1.032595,1.12175 l -0.567914,0.54323 0.05976,0.043 a 0.76860451,0.76706528 0 0 0 0.01659,0.0309 l 0.706914,0.67421 a 0.76860451,0.76706528 0 0 0 0.0276,0.0116 l 0.73868,0.63045 a 0.76860451,0.76706528 0 0 0 0.0276,0.0309 l 0.75062,0.59798 a 0.76860451,0.76706528 0 0 0 0.0314,0.0116 l 0.79431,0.56661 a 0.76860451,0.76706528 0 0 0 0.0277,0.0116 l 0.55601,0.36051 0.42096,-0.6581 a 20.191145,20.150709 0 0 0 1.33441,0.76471 l -0.35747,0.69794 0.64342,0.32914 a 0.76860451,0.76706528 0 0 0 0.0475,0.0116 l 0.88565,0.40418 a 0.76860451,0.76706528 0 0 0 0.0438,0.0116 l 0.91743,0.36051 a 0.76860451,0.76706528 0 0 0 0.0276,0.0116 l 0.93327,0.31313 a 0.76860451,0.76706528 0 0 0 0.0438,0.0116 l 0.88563,0.25408 0.21452,-0.76083 a 20.191145,20.150709 0 0 0 1.49725,0.33283 l -0.13506,0.75699 0.54012,0.10757 a 0.76860451,0.76706528 0 0 0 0.0438,0 l 1.00478,0.13479 a 0.76860451,0.76706528 0 0 0 0.0314,0 l 1.03653,0.0769 a 0.76860451,0.76706528 0 0 0 0.0276,0 l 1.05246,0.0309 a 0.76860451,0.76706528 0 0 0 0.0276,0 l 0.97698,-0.0116 -0.0166,-0.78876 a 20.191145,20.150709 0 0 0 1.52108,-0.13099 l 0.0994,0.76889 0.57185,-0.0787 a 0.76860451,0.76706528 0 0 0 0.0438,0 l 0.99287,-0.17902 a 0.76860451,0.76706528 0 0 0 0.0276,0 l 0.99287,-0.2258 a 0.76860451,0.76706528 0 0 0 0.0276,-0.0116 l 0.96112,-0.26946 a 0.76860451,0.76706528 0 0 0 0.0314,-0.0115 l 0.94519,-0.31314 a 0.76860451,0.76706528 0 0 0 0.0276,-0.0116 l 0.0475,-0.0116 -0.28989,-0.72557 a 20.191145,20.150709 0 0 0 1.41382,-0.57829 l 0.31772,0.70946 0.35742,-0.16612 a 0.76860451,0.76706528 0 0 0 0.0314,-0.0116 l 0.86978,-0.44786 a 0.76860451,0.76706528 0 0 0 0.0438,-0.0116 l 0.84194,-0.47924 a 0.76860451,0.76706528 0 0 0 0.0314,-0.0309 l 0.82606,-0.52293 a 0.76860451,0.76706528 0 0 0 0.0276,-0.0116 l 0.78239,-0.56661 a 0.76860451,0.76706528 0 0 0 0.0276,-0.0116 l 0.25415,-0.19441 -0.47257,-0.61026 a 20.191145,20.150709 0 0 0 1.17955,-0.98299 l 0.50836,0.5906 0.0638,-0.0614 a 0.76860451,0.76706528 0 0 0 0.0277,-0.0116 l 0.69107,-0.67416 a 0.76860451,0.76706528 0 0 0 0.0314,-0.0309 l 0.67515,-0.68951 a 0.76860451,0.76706528 0 0 0 0.0132,-0.0309 l 0.64733,-0.73708 a 0.76860451,0.76706528 0 0 0 0.0166,-0.0309 l 0.59967,-0.76469 a 0.76860451,0.76706528 0 0 0 0.0314,-0.0309 l 0.37325,-0.52293 -0.63149,-0.44785 a 20.191145,20.150709 0 0 0 0.82606,-1.28419 l 0.67514,0.3845 0.36144,-0.6259 a 0.76860451,0.76706528 0 0 0 0.0166,-0.043 l 0.44876,-0.868 a 0.76860451,0.76706528 0 0 0 0.0166,-0.0309 l 0.40512,-0.8998 a 0.76860451,0.76706528 0 0 0 0.0166,-0.0309 l 0.36137,-0.91559 a 0.76860451,0.76706528 0 0 0 0.0166,-0.0309 l 0.29784,-0.88387 -0.73869,-0.24976 a 20.191145,20.150709 0 0 0 0.40906,-1.47847 l 0.75061,0.17411 0.11905,-0.50693 a 0.76860451,0.76706528 0 0 0 0,-0.003 0.76860451,0.76706528 0 0 0 0,-0.003 0.76860451,0.76706528 0 0 0 0,-0.003 0.76860451,0.76706528 0 0 0 0,-0.003 0.76860451,0.76706528 0 0 0 0,-0.003 0.76860451,0.76706528 0 0 0 0,-0.003 0.76860451,0.76706528 0 0 0 0,-0.003 0.76860451,0.76706528 0 0 0 0,-0.003 l 0.1787,-0.99084 a 0.76860451,0.76706528 0 0 0 0,-0.003 0.76860451,0.76706528 0 0 0 0,-0.003 0.76860451,0.76706528 0 0 0 0,-0.003 0.76860451,0.76706528 0 0 0 0,-0.003 0.76860451,0.76706528 0 0 0 0,-0.003 0.76860451,0.76706528 0 0 0 0,-0.003 0.76860451,0.76706528 0 0 0 0,-0.003 0.76860451,0.76706528 0 0 0 0,-0.003 0.76860451,0.76706528 0 0 0 0,-0.003 0.76860451,0.76706528 0 0 0 0,-0.003 0.76860451,0.76706528 0 0 0 0,-0.003 l 0.13506,-1.00272 a 0.76860451,0.76706528 0 0 0 0,-0.003 0.76860451,0.76706528 0 0 0 0,-0.003 0.76860451,0.76706528 0 0 0 0,-0.003 0.76860451,0.76706528 0 0 0 0,-0.003 0.76860451,0.76706528 0 0 0 0,-0.003 0.76860451,0.76706528 0 0 0 0,-0.003 0.76860451,0.76706528 0 0 0 0,-0.003 0.76860451,0.76706528 0 0 0 0,-0.003 0.76860451,0.76706528 0 0 0 0,-0.003 0.76860451,0.76706528 0 0 0 0,-0.003 0.76860451,0.76706528 0 0 0 0,-0.003 0.76860451,0.76706528 0 0 0 0,-0.003 l 0.0753,-1.01865 a 0.76860451,0.76706528 0 0 0 0,-0.003 0.76860451,0.76706528 0 0 0 0,-0.003 0.76860451,0.76706528 0 0 0 0,-0.003 0.76860451,0.76706528 0 0 0 0,-0.003 0.76860451,0.76706528 0 0 0 0,-0.003 0.76860451,0.76706528 0 0 0 0,-0.003 0.76860451,0.76706528 0 0 0 0,-0.003 0.76860451,0.76706528 0 0 0 0,-0.003 0.76860451,0.76706528 0 0 0 0,-0.003 0.76860451,0.76706528 0 0 0 0,-0.003 0.76860451,0.76706528 0 0 0 0,-0.003 0.76860451,0.76706528 0 0 0 0,-0.003 l 0.0314,-1.030543 -0.76654,-0.01157 0.76654,-0.01157 -0.0314,-1.050278 a 0.76860451,0.76706528 0 0 0 0,-0.0032 0.76860451,0.76706528 0 0 0 0,-0.0032 0.76860451,0.76706528 0 0 0 0,-0.0032 0.76860451,0.76706528 0 0 0 0,-0.0032 0.76860451,0.76706528 0 0 0 0,-0.0032 0.76860451,0.76706528 0 0 0 0,-0.0032 0.76860451,0.76706528 0 0 0 0,-0.0032 l -0.0753,-1.034475 a 0.76860451,0.76706528 0 0 0 0,-0.0032 0.76860451,0.76706528 0 0 0 0,-0.0033 0.76860451,0.76706528 0 0 0 0,-0.0033 0.76860451,0.76706528 0 0 0 0,-0.0033 0.76860451,0.76706528 0 0 0 0,-0.0033 0.76860451,0.76706528 0 0 0 0,-0.0033 0.76860451,0.76706528 0 0 0 0,-0.0033 0.76860451,0.76706528 0 0 0 0,-0.0033 l -0.13506,-1.002786 a 0.76860451,0.76706528 0 0 0 0,-0.0033 0.76860451,0.76706528 0 0 0 0,-0.0033 0.76860451,0.76706528 0 0 0 0,-0.0033 0.76860451,0.76706528 0 0 0 0,-0.0033 0.76860451,0.76706528 0 0 0 0,-0.0033 0.76860451,0.76706528 0 0 0 0,-0.0033 0.76860451,0.76706528 0 0 0 0,-0.0033 0.76860451,0.76706528 0 0 0 0,-0.0033 0.76860451,0.76706528 0 0 0 0,-0.0033 0.76860451,0.76706528 0 0 0 0,-0.0033 0.76860451,0.76706528 0 0 0 0,-0.0033 0.76860451,0.76706528 0 0 0 0,-0.0033 l -0.15092,-0.800681 -0.76252,0.139076 a 20.191145,20.150709 0 0 0 -0.34984,-1.495367 l 0.75461,-0.214104 -0.18265,-0.630458 a 0.76860451,0.76706528 0 0 0 -0.0166,-0.043 l -0.3137,-0.927547 a 0.76860451,0.76706528 0 0 0 -0.0166,-0.03081 l -0.35741,-0.927548 a 0.76860451,0.76706528 0 0 0 -0.0166,-0.03082 l -0.40499,-0.883864 a 0.76860451,0.76706528 0 0 0 -0.0166,-0.043 l -0.45272,-0.867995 a 0.76860451,0.76706528 0 0 0 -0.0132,-0.03082 l -0.0166,-0.01154 -0.67114,0.388196 a 20.191145,20.150709 0 0 0 -0.78635,-1.319797 l 0.64732,-0.416489 -0.21052,-0.329137 a 0.76860451,0.76706528 0 0 0 -0.0166,-0.03081 l -0.5558,-0.785617 a 0.76860451,0.76706528 0 0 0 -0.0276,-0.03082 l -0.59968,-0.749319 a 0.76860451,0.76706528 0 0 0 -0.0166,-0.03081 l -0.64731,-0.733267 a 0.76860451,0.76706528 0 0 0 -0.0166,-0.03082 l -0.67512,-0.70183 a 0.76860451,0.76706528 0 0 0 -0.0276,-0.01154 l -0.23833,-0.238079 -0.53611,0.559225 a 20.191145,20.150709 0 0 0 -1.14378,-1.022661 l 0.50838,-0.583215 -0.0473,-0.043 a 0.76860451,0.76706528 0 0 0 -0.0276,-0.01154 l -0.76655,-0.59798 a 0.76860451,0.76706528 0 0 0 -0.0276,-0.03081 l -0.78237,-0.554297 a 0.76860451,0.76706528 0 0 0 -0.0314,-0.03082 l -0.82212,-0.526614 a 0.76860451,0.76706528 0 0 0 -0.0314,-0.01154 L 124.08112,81.2892 a 0.76860451,0.76706528 0 0 0 -0.0438,-0.03081 l -0.58383,-0.297745 -0.36142,0.69339 a 20.191145,20.150709 0 0 0 -1.39397,-0.630461 l 0.28197,-0.720958 -0.69107,-0.269453 a 0.76860451,0.76706528 0 0 0 -0.0276,-0.01154 l -0.94521,-0.313136 a 0.76860451,0.76706528 0 0 0 -0.0314,-0.01154 l -0.9611,-0.269454 a 0.76860451,0.76706528 0 0 0 -0.0276,-0.01154 l -0.99287,-0.226396 a 0.76860451,0.76706528 0 0 0 -0.0276,0 l -0.86976,-0.162475 -0.13903,0.764692 a 20.191145,20.150709 0 0 0 -1.51312,-0.186403 l 0.0598,-0.760819 -0.64733,-0.06147 a 0.76860451,0.76706528 0 0 0 -0.0438,0 l -1.03654,-0.03082 a 0.76860451,0.76706528 0 0 0 -0.0277,0 z m 0.0116,5.318979 c 8.62918,0 15.64366,6.996587 15.64366,15.60838 0,8.611892 -7.01448,15.608352 -15.64366,15.608352 -8.62916,0 -15.639659,-6.99646 -15.639659,-15.608352 0,-8.611793 7.010499,-15.60838 15.639659,-15.60838 z m 0,1.347595 c -7.9019,0 -14.289355,6.374795 -14.289355,14.260785 0,7.886152 6.387455,14.260762 14.289355,14.260762 7.90193,0 14.29334,-6.37461 14.29334,-14.260762 0,-7.88599 -6.39141,-14.260785 -14.29334,-14.260785 z" />
    <g
       id="g2038"
       transform="translate(-52.260469,-4.2377419)">
      <circle
         style="fill:#000000;stroke:#000000;stroke-width:1.73646;stroke-linecap:butt;stroke-miterlimit:4;stroke-dasharray:6.94584, 1.73646;stroke-dashoffset:0.173646;stop-color:#000000"
         id="path1677"
         cx="219.51244"
         cy="103.80433"
         r="20.185823" />
      <circle
         style="fill:none;stroke:#ffffff;stroke-width:1.901;stroke-linecap:round;stop-color:#000000"
         id="path1118"
         cx="219.51244"
         cy="103.80433"
         r="15.602221" />
      <path
         style="fill:#ffffff;stroke:none;stroke-width:1.665;stroke-linecap:round;stop-color:#000000"
         id="path1295"
         inkscape:path-effect="#path-effect1421"
         sodipodi:type="arc"
         sodipodi:cx="170.11406"
         sodipodi:cy="88.780937"
         sodipodi:rx="1.7092487"
         sodipodi:ry="1.7092487"
         d="m 171.82331,88.780937 c 0,0.943992 -0.76526,1.709249 -1.70925,1.709249 -0.94399,0 -1.70925,-0.765257 -1.70925,-1.709249 0,-0.943992 0.76526,-1.709248 1.70925,-1.709248 0.94399,0 1.70925,0.765256 1.70925,1.709248 z m -7.68336,1.761843 c 0.6675,0.667503 0.6675,1.749739 0,2.417242 -0.66751,0.667504 -1.74974,0.667504 -2.41724,0 -0.66751,-0.667503 -0.66751,-1.749739 0,-2.417242 0.6675,-0.667503 1.74973,-0.667503 2.41724,0 z m -4.18715,6.678767 c 0.94399,0 1.70925,0.765257 1.70925,1.709249 0,0.943992 -0.76526,1.709244 -1.70925,1.709244 -0.94399,0 -1.70925,-0.765252 -1.70925,-1.709244 0,-0.943992 0.76526,-1.709249 1.70925,-1.709249 z m 1.76184,7.683363 c 0.66751,-0.66751 1.74974,-0.66751 2.41725,0 0.6675,0.6675 0.6675,1.74974 0,2.41724 -0.66751,0.6675 -1.74974,0.6675 -2.41725,0 -0.6675,-0.6675 -0.6675,-1.74974 0,-2.41724 z m 6.67877,4.18714 c 0,-0.94399 0.76526,-1.70925 1.70925,-1.70925 0.94399,0 1.70925,0.76526 1.70925,1.70925 0,0.94399 -0.76526,1.70925 -1.70925,1.70925 -0.94399,0 -1.70925,-0.76526 -1.70925,-1.70925 z m 7.68336,-1.76184 c -0.6675,-0.6675 -0.6675,-1.74974 0,-2.41724 0.66751,-0.66751 1.74974,-0.66751 2.41724,0 0.66751,0.6675 0.66751,1.74974 0,2.41724 -0.6675,0.6675 -1.74973,0.6675 -2.41724,0 z m 4.18715,-6.67877 c -0.94399,0 -1.70925,-0.765254 -1.70925,-1.709246 0,-0.943992 0.76526,-1.709248 1.70925,-1.709248 0.94399,0 1.70925,0.765256 1.70925,1.709248 0,0.943992 -0.76526,1.709246 -1.70925,1.709246 z m -1.76184,-7.683357 c -0.66751,0.667503 -1.74974,0.667503 -2.41725,0 -0.6675,-0.667503 -0.6675,-1.74974 0,-2.417243 0.66751,-0.667503 1.74974,-0.667503 2.41725,0 0.6675,0.667503 0.6675,1.74974 0,2.417243 z"
         transform="translate(49.404076,4.8678339)" />
    </g>
  </g>
</svg>
