<?xml version="1.0" encoding="UTF-8" standalone="no"?>
<!-- Created with Inkscape (http://www.inkscape.org/) -->

<svg
   width="120mm"
   height="23.016712mm"
   viewBox="0 0 120 23.016712"
   version="1.1"
   id="svg1100"
   inkscape:version="1.1.2 (0a00cf5339, 2022-02-04)"
   sodipodi:docname="Backhoe.svg"
   xmlns:inkscape="http://www.inkscape.org/namespaces/inkscape"
   xmlns:sodipodi="http://sodipodi.sourceforge.net/DTD/sodipodi-0.dtd"
   xmlns="http://www.w3.org/2000/svg"
   xmlns:svg="http://www.w3.org/2000/svg"
   xmlns:rdf="http://www.w3.org/1999/02/22-rdf-syntax-ns#"
   xmlns:cc="http://creativecommons.org/ns#"
   xmlns:dc="http://purl.org/dc/elements/1.1/">
  <defs
     id="defs1094" />
  <sodipodi:namedview
     id="base"
     pagecolor="#ffffff"
     bordercolor="#666666"
     borderopacity="1.0"
     inkscape:pageopacity="0.0"
     inkscape:pageshadow="2"
     inkscape:zoom="0.70710678"
     inkscape:cx="13.435029"
     inkscape:cy="28.991378"
     inkscape:document-units="mm"
     inkscape:current-layer="layer1"
     showgrid="false"
     inkscape:window-width="1846"
     inkscape:window-height="1016"
     inkscape:window-x="74"
     inkscape:window-y="1107"
     inkscape:window-maximized="1"
     fit-margin-top="0"
     fit-margin-left="0"
     fit-margin-right="0"
     fit-margin-bottom="0"
     inkscape:snap-global="false"
     inkscape:snap-bbox="true"
     inkscape:pagecheckerboard="0" />
  <metadata
     id="metadata1097">
    <rdf:RDF>
      <cc:Work
         rdf:about="">
        <dc:format>image/svg+xml</dc:format>
        <dc:type
           rdf:resource="http://purl.org/dc/dcmitype/StillImage" />
      </cc:Work>
    </rdf:RDF>
  </metadata>
  <g
     inkscape:groupmode="layer"
     id="layer3"
     inkscape:label="Background"
     style="display:inline" />
  <g
     inkscape:groupmode="layer"
     id="layer2"
     inkscape:label="Guias"
     style="display:none"
     transform="translate(0,0.2323513)">
    <g
       id="g1399"
       transform="translate(-6.7978492)">
      <rect
         y="11.402682"
         x="50.431446"
         height="11"
         width="74.99527"
         id="rect1878-3"
         style="display:inline;opacity:1;vector-effect:none;fill:#ffe680;fill-opacity:1;stroke:none;stroke-width:0.47467926;stroke-linecap:butt;stroke-linejoin:miter;stroke-miterlimit:4;stroke-dasharray:none;stroke-dashoffset:0;stroke-opacity:1" />
      <rect
         y="0.30218902"
         x="8.1689825"
         height="22.148087"
         width="42.262463"
         id="rect1868"
         style="display:inline;opacity:1;vector-effect:none;fill:#decd87;fill-opacity:1;stroke:none;stroke-width:0.39467782;stroke-linecap:butt;stroke-linejoin:miter;stroke-miterlimit:4;stroke-dasharray:none;stroke-dashoffset:0;stroke-opacity:1" />
      <rect
         y="0.39782956"
         x="50.431446"
         height="11"
         width="74.99527"
         id="rect1878"
         style="display:inline;opacity:1;vector-effect:none;fill:#deaa87;fill-opacity:1;stroke:none;stroke-width:0.47467929;stroke-linecap:butt;stroke-linejoin:miter;stroke-miterlimit:4;stroke-dasharray:none;stroke-dashoffset:0;stroke-opacity:1" />
      <rect
         y="12.891373"
         x="76.863533"
         height="8.0226164"
         width="22"
         id="rect1878-7-3"
         style="display:inline;opacity:1;vector-effect:none;fill:#eeffaa;fill-opacity:1;stroke:none;stroke-width:0.19344766;stroke-linecap:butt;stroke-linejoin:miter;stroke-miterlimit:4;stroke-dasharray:none;stroke-dashoffset:0;stroke-opacity:1" />
      <rect
         y="12.891415"
         x="103.2956"
         height="8.0226164"
         width="22"
         id="rect1878-7-56"
         style="display:inline;opacity:1;vector-effect:none;fill:#ccffaa;fill-opacity:1;stroke:none;stroke-width:0.21753596;stroke-linecap:butt;stroke-linejoin:miter;stroke-miterlimit:4;stroke-dasharray:none;stroke-dashoffset:0;stroke-opacity:1" />
      <rect
         y="12.680782"
         x="50.431446"
         height="8.443799"
         width="22"
         id="rect1878-7"
         style="display:inline;opacity:1;vector-effect:none;fill:#ff9955;fill-opacity:1;stroke:none;stroke-width:0.22317314;stroke-linecap:butt;stroke-linejoin:miter;stroke-miterlimit:4;stroke-dasharray:none;stroke-dashoffset:0;stroke-opacity:1" />
      <rect
         y="13.158642"
         x="77.363533"
         height="7.4880772"
         width="21"
         id="rect1878-7-2-7"
         style="display:inline;opacity:1;vector-effect:none;fill:#ddff55;fill-opacity:1;stroke:none;stroke-width:0.20533194;stroke-linecap:butt;stroke-linejoin:miter;stroke-miterlimit:4;stroke-dasharray:none;stroke-dashoffset:0;stroke-opacity:1" />
      <rect
         y="13.158684"
         x="103.7956"
         height="7.4880772"
         width="21"
         id="rect1878-7-2-7-0"
         style="display:inline;opacity:1;vector-effect:none;fill:#66ff00;fill-opacity:1;stroke:none;stroke-width:0.20533194;stroke-linecap:butt;stroke-linejoin:miter;stroke-miterlimit:4;stroke-dasharray:none;stroke-dashoffset:0;stroke-opacity:1" />
      <rect
         y="13.158642"
         x="50.931446"
         height="7.4880772"
         width="21"
         id="rect1878-7-2"
         style="display:inline;opacity:1;vector-effect:none;fill:#d45500;fill-opacity:1;stroke:none;stroke-width:0.20533194;stroke-linecap:butt;stroke-linejoin:miter;stroke-miterlimit:4;stroke-dasharray:none;stroke-dashoffset:0;stroke-opacity:1" />
    </g>
  </g>
  <g
     inkscape:label="Capa 1"
     inkscape:groupmode="layer"
     id="layer1"
     transform="translate(28.060163,-27.595709)"
     style="display:inline">
    <g
       transform="matrix(0.35279357,0,0,0.35279357,27.66483,22.56444)"
       id="layer1-6-3-2"
       inkscape:label="Capa 1" />
    <rect
       style="display:inline;opacity:1;fill:#ffffff;fill-opacity:1;stroke:none;stroke-width:0.711;stroke-miterlimit:4;stroke-dasharray:none;stroke-dashoffset:0;stroke-opacity:1"
       id="rect1126"
       width="119.999"
       height="23.017704"
       x="-28.060163"
       y="27.595709" />
    <g
       style="display:inline"
       id="g9128"
       transform="translate(-107.62953,-199.34653)">
      <path
         inkscape:connector-curvature="0"
         id="path9084"
         d="M 83.843672,227.37459 H 195.29507"
         style="fill:none;stroke:#000000;stroke-width:0.40000001;stroke-linecap:butt;stroke-linejoin:miter;stroke-miterlimit:4;stroke-dasharray:none;stroke-opacity:1" />
      <path
         inkscape:connector-curvature="0"
         id="path9084-3"
         d="M 83.843669,249.75895 H 195.29507"
         style="fill:none;stroke:#000000;stroke-width:0.40000001;stroke-linecap:butt;stroke-linejoin:miter;stroke-miterlimit:4;stroke-dasharray:none;stroke-opacity:1" />
    </g>
    <g
       id="g383"
       transform="matrix(1.3240563,0,0,1.3240565,-11.756817,13.836628)">
      <circle
         r="2.9059739"
         cy="15.820772"
         cx="24.290676"
         id="path1760-3-7"
         style="opacity:1;vector-effect:none;fill:#ffffff;fill-opacity:1;stroke:#000000;stroke-width:0.31159922;stroke-linecap:butt;stroke-linejoin:miter;stroke-miterlimit:4;stroke-dasharray:none;stroke-dashoffset:0;stroke-opacity:1" />
      <path
         inkscape:export-ydpi="300"
         inkscape:export-xdpi="300"
         inkscape:export-filename="1sword.png"
         sodipodi:nodetypes="cccccccsccssscssscsscscsscscccccccscscc"
         inkscape:connector-curvature="0"
         id="path1327"
         d="m 22.955075,17.371526 c 0.03685,-0.0091 0.06702,-0.02719 0.09377,-0.05619 0.03556,-0.03859 0.04582,-0.06185 0.04903,-0.111267 l 0.0028,-0.04328 0.250709,-0.250653 0.250707,-0.250653 0.06274,-5.02e-4 c 0.08226,-5.03e-4 0.114477,-0.01495 0.181922,-0.08061 l 0.04803,-0.04677 0.11105,0.110465 c 0.108933,0.108355 0.111538,0.110464 0.136755,0.110464 0.03549,0 0.05551,-0.02005 0.05551,-0.05556 0,-0.02537 -0.0018,-0.02755 -0.124401,-0.150661 l -0.1244,-0.124923 0.694148,-0.695057 c 0.782416,-0.783438 0.821412,-0.825699 0.988767,-1.071481 0.104214,-0.153054 0.21731,-0.351482 0.21731,-0.38128 0,-0.0098 -0.0048,-0.01849 -0.01222,-0.0225 -0.02594,-0.01391 -0.312856,0.156865 -0.50722,0.301841 -0.162718,0.12137 -0.224401,0.180047 -0.934768,0.889204 l -0.710463,0.70925 -0.118284,-0.118959 c -0.06506,-0.06543 -0.126483,-0.122533 -0.136501,-0.126903 -0.03885,-0.01693 -0.08196,0.01271 -0.08196,0.05633 0,0.02036 0.0082,0.03015 0.112296,0.134803 l 0.112296,0.112859 -0.0458,0.04536 c -0.03088,0.03057 -0.05212,0.05818 -0.06524,0.08474 -0.01811,0.03667 -0.01944,0.04364 -0.01928,0.101551 l 1.54e-4,0.06217 -0.246233,0.246178 -0.246234,0.246179 -0.03999,0.0021 c -0.04865,0.0026 -0.08662,0.01864 -0.121873,0.05115 -0.04341,0.04 -0.05637,0.07233 -0.05637,0.14059 0,0.0524 0.0016,0.06035 0.01721,0.08695 0.0095,0.0161 0.02585,0.03766 0.03643,0.04792 0.03961,0.03839 0.117208,0.05992 0.169582,0.04698 z"
         style="fill:#000000;stroke:#000000;stroke-width:0.16442627;stroke-miterlimit:4;stroke-dasharray:none;stroke-opacity:1" />
    </g>
    <g
       style="display:inline"
       id="g1033"
       transform="translate(19.247686,66.198426)">
      <rect
         y="-36.617252"
         x="21.17853"
         height="8.2894325"
         width="8.2894325"
         id="rect925-7-3-61-49-09"
         style="display:inline;opacity:1;vector-effect:none;fill:#ffffff;fill-opacity:1;stroke:#000000;stroke-width:0.71056741;stroke-linecap:butt;stroke-linejoin:miter;stroke-miterlimit:4;stroke-dasharray:none;stroke-dashoffset:0;stroke-opacity:1" />
      <rect
         y="-36.617252"
         x="31.46801"
         height="8.2894325"
         width="8.2894325"
         id="rect925-7-3-61-49-0-6"
         style="display:inline;opacity:1;vector-effect:none;fill:#ffffff;fill-opacity:1;stroke:#000000;stroke-width:0.71056741;stroke-linecap:butt;stroke-linejoin:miter;stroke-miterlimit:4;stroke-dasharray:none;stroke-dashoffset:0;stroke-opacity:1" />
      <rect
         y="-36.617252"
         x="41.757488"
         height="8.2894325"
         width="8.2894325"
         id="rect925-7-3-61-49-9-3"
         style="display:inline;opacity:1;vector-effect:none;fill:#ffffff;fill-opacity:1;stroke:#000000;stroke-width:0.71056741;stroke-linecap:butt;stroke-linejoin:miter;stroke-miterlimit:4;stroke-dasharray:none;stroke-dashoffset:0;stroke-opacity:1" />
      <rect
         y="-36.617252"
         x="52.046974"
         height="8.2894325"
         width="8.2894325"
         id="rect925-7-3-61-49-1-8"
         style="display:inline;opacity:1;vector-effect:none;fill:#ffffff;fill-opacity:1;stroke:#000000;stroke-width:0.71056741;stroke-linecap:butt;stroke-linejoin:miter;stroke-miterlimit:4;stroke-dasharray:none;stroke-dashoffset:0;stroke-opacity:1" />
      <rect
         y="-36.617252"
         x="62.336449"
         height="8.2894325"
         width="8.2894325"
         id="rect925-7-3-61-49-7-5"
         style="display:inline;opacity:1;vector-effect:none;fill:#ffffff;fill-opacity:1;stroke:#000000;stroke-width:0.71056741;stroke-linecap:butt;stroke-linejoin:miter;stroke-miterlimit:4;stroke-dasharray:none;stroke-dashoffset:0;stroke-opacity:1" />
    </g>
    <g
       id="g226"
       transform="translate(2.2151513,1.0583333)">
      <path
         inkscape:export-ydpi="300"
         inkscape:export-xdpi="300"
         inkscape:export-filename="1flame.png"
         sodipodi:nodetypes="ccccsccccscccccscscccsccccccc"
         inkscape:connector-curvature="0"
         id="path826-3-3"
         d="m -11.992062,47.899798 c -0.74036,-0.42454 -1.16313,-1.30599 -1.029019,-2.14547 0.0723,-0.45236 0.205399,-0.75728 0.51281,-1.17452 0.855259,-1.16082 1.01121,-1.47811 1.05736,-2.15132 0.0145,-0.21106 0.0365,-0.38375 0.049,-0.38375 0.0124,0 0.167669,0.10751 0.34492,0.23891 0.70314,0.52126 1.0979695,1.22932 1.1901695,2.13433 l 0.0354,0.34789 0.128,-0.13562 c 0.0704,-0.0746 0.15533,-0.22937 0.18875,-0.34397 l 0.0608,-0.20837 0.19096,0.39085 c 0.22784,0.46637 0.37001,0.95442 0.40995,1.40733 0.0722,0.81861 -0.34268,1.61611 -1.05246,2.0231 -0.2845895,0.16319 -0.3925495,0.19094 -0.2225405,0.0572 0.1735505,-0.13653 0.3687505,-0.53511 0.3972405,-0.81118 0.0384,-0.37175 -0.0755,-0.6917 -0.4090205,-1.14935 -0.334519,-0.45901 -0.487779,-0.77035 -0.53289,-1.08258 l -0.0324,-0.22468 -0.18305,0.17817 c -0.34858,0.3393 -0.59597,1.08145 -0.53423,1.6027 0.0148,0.1247 0.009,0.22675 -0.0126,0.22675 -0.089,0 -0.32551,-0.33503 -0.3523,-0.49904 -0.0158,-0.0965 -0.0345,-0.20683 -0.0417,-0.2452 -0.0169,-0.0902 -0.24643,0.40925 -0.30533,0.66445 -0.10999,0.4766 -0.0184,0.91088 0.26098,1.23724 0.0901,0.10532 0.15703,0.19129 0.14864,0.19105 -0.008,-1.8e-4 -0.12865,-0.0654 -0.26725,-0.14494 z"
         style="fill:#000000;stroke:#000000;stroke-width:0.30000001;stroke-miterlimit:4;stroke-dasharray:none;stroke-opacity:1" />
      <circle
         r="1.6063988"
         cy="45.131767"
         cx="-4.4457111"
         id="path3810-6"
         style="opacity:1;vector-effect:none;fill:#000000;fill-opacity:1;stroke:none;stroke-width:0.29209089;stroke-linecap:butt;stroke-linejoin:miter;stroke-miterlimit:4;stroke-dasharray:0.87627266, 0.29209089;stroke-dashoffset:0;stroke-opacity:1" />
    </g>
    <g
       id="g467"
       transform="translate(10.784234,-23.218246)">
      <path
         inkscape:connector-curvature="0"
         id="path1183-5"
         d="m 29.239768,66.535257 v 5.58932"
         style="fill:none;stroke:#000000;stroke-width:0.26458332px;stroke-linecap:butt;stroke-linejoin:miter;stroke-opacity:1" />
      <path
         inkscape:connector-curvature="0"
         id="path1183-2-3"
         d="m 55.671855,66.719005 v 5.58932"
         style="fill:none;stroke:#000000;stroke-width:0.26458332px;stroke-linecap:butt;stroke-linejoin:miter;stroke-opacity:1" />
      <text
         id="text1088-5"
         y="70.728912"
         x="5.2764497"
         style="font-style:normal;font-weight:normal;font-size:132.329px;line-height:1.25;font-family:sans-serif;letter-spacing:0px;word-spacing:0px;fill:#000000;fill-opacity:1;stroke:none;stroke-width:0.220548"
         xml:space="preserve"><tspan
           style="font-size:2.64658px;stroke-width:0.220548"
           y="70.728912"
           x="5.2764497"
           id="tspan1086-6"
           sodipodi:role="line">1</tspan></text>
      <path
         sodipodi:nodetypes="cc"
         inkscape:connector-curvature="0"
         id="path1090-29"
         d="M 9.0237331,69.775979 H 23.023733"
         style="fill:none;stroke:#000000;stroke-width:0.2093017px;stroke-linecap:butt;stroke-linejoin:miter;stroke-opacity:1" />
      <text
         id="text1088-0-1"
         y="70.746353"
         x="23.41115"
         style="font-style:normal;font-weight:normal;font-size:132.329px;line-height:1.25;font-family:sans-serif;letter-spacing:0px;word-spacing:0px;fill:#000000;fill-opacity:1;stroke:none;stroke-width:0.220548"
         xml:space="preserve"><tspan
           style="font-size:2.64658px;stroke-width:0.220548"
           y="70.746353"
           x="23.41115"
           id="tspan1086-9-27"
           sodipodi:role="line">5</tspan></text>
      <g
         transform="translate(-18.545377,28.100809)"
         id="g881">
        <g
           transform="matrix(0.35279357,0,0,0.35279357,27.664842,22.56444)"
           id="layer1-6-8-10-3-1"
           inkscape:label="Capa 1">
          <path
             sodipodi:nodetypes="cccssssssccscscccccsscscssccscsccscccccsscsssscs"
             inkscape:connector-curvature="0"
             id="path828-79-6-6-2"
             d="m 15.55133,51.922274 c -0.685146,-0.279517 -3.20637,-1.507059 -3.324727,-1.618753 -0.03438,-0.03244 -0.07718,-0.127286 -0.09554,-0.211722 -0.08948,-0.411375 -0.262648,-1.722668 -0.332832,-2.520399 -0.05025,-0.57112 -0.0596,-2.009074 -0.01364,-2.094972 0.04031,-0.07531 0.184184,-0.143729 0.562025,-0.267256 0.722856,-0.236322 1.733468,-0.499615 2.410752,-0.628071 0.275408,-0.05224 0.396016,-0.0603 0.707347,-0.04732 0.415417,0.01732 1.429283,0.142198 2.38188,0.293384 0.766175,0.121598 1.019543,0.178219 1.103853,0.246676 l 0.06543,0.05313 -0.0077,1.496494 c -0.0081,1.566318 -0.04308,2.635128 -0.0968,2.95367 -0.03024,0.179307 -0.04114,0.197626 -0.223796,0.376151 -0.196508,0.192058 -2.306176,1.852072 -2.49635,1.964276 -0.172205,0.101604 -0.398334,0.103271 -0.639907,0.0047 z m 0.681956,-0.312805 c 0.354128,-0.250525 1.358355,-1.012126 1.81541,-1.376797 0.537371,-0.428752 0.598921,-0.493547 0.633573,-0.666962 0.06192,-0.309915 0.154976,-1.794696 0.205292,-3.275805 0.02806,-0.82606 0.02665,-0.940151 -0.01209,-0.978893 -0.05115,-0.05115 -0.07672,-0.04286 -1.158797,0.375245 -1.269982,0.490712 -1.8449,0.758627 -1.912296,0.891141 -0.06033,0.118622 -0.03326,2.613007 0.04901,4.516299 0.02534,0.586113 0.04026,0.707347 0.08705,0.707347 0.01213,0 0.143904,-0.08621 0.292842,-0.191575 z m -0.622651,-1.013802 c -0.01218,-0.535923 -0.02681,-1.694557 -0.03252,-2.574744 -0.0081,-1.255585 -0.01836,-1.607633 -0.04745,-1.63421 -0.106289,-0.0971 -3.10159,-0.677511 -3.496415,-0.677511 h -0.135139 l 3.71e-4,0.281495 c 5.78e-4,0.445614 0.107808,1.632044 0.261587,2.894346 0.106753,0.876288 0.163675,1.197828 0.22476,1.269608 0.108101,0.127026 1.297194,0.741581 1.931131,0.998059 0.417345,0.168849 1.151926,0.414027 1.246224,0.415946 l 0.06959,0.0014 z m 0.778946,-4.666157 c 0.521312,-0.175316 1.631211,-0.587253 1.882404,-0.698649 0.123751,-0.05488 0.155359,-0.08002 0.123166,-0.09796 -0.08273,-0.04609 -1.835693,-0.312599 -2.781117,-0.422813 -0.349053,-0.04069 -0.466344,-0.04391 -0.635169,-0.01741 -0.320219,0.05026 -2.598014,0.698144 -2.656719,0.755658 -0.03178,0.03113 0.194652,0.08146 1.179323,0.262104 1.326108,0.243286 2.097867,0.369927 2.267379,0.372065 0.120438,0.0015 0.273269,-0.03615 0.620733,-0.153004 z"
             style="fill:#000000;stroke:#000000;stroke-width:0.229;stroke-miterlimit:4;stroke-dasharray:none;stroke-opacity:1" />
        </g>
        <path
           sodipodi:nodetypes="cccssssssccscscccccsscscssccscsccscccccsscsssscs"
           inkscape:connector-curvature="0"
           id="path828-6-0-0-7"
           d="m 36.103982,40.882284 c -0.241715,-0.09861 -1.131187,-0.531681 -1.172942,-0.571086 -0.01213,-0.01144 -0.02723,-0.0449 -0.03371,-0.07469 -0.03157,-0.14513 -0.09266,-0.607746 -0.117421,-0.88918 -0.01773,-0.201488 -0.02103,-0.708789 -0.0048,-0.739093 0.01422,-0.02657 0.06498,-0.05071 0.198279,-0.09429 0.255019,-0.08337 0.611556,-0.176261 0.850497,-0.22158 0.09716,-0.01843 0.139712,-0.02127 0.249548,-0.01669 0.146556,0.0061 0.504242,0.05017 0.840312,0.103504 0.270301,0.0429 0.359688,0.06288 0.389432,0.08703 l 0.02308,0.01874 -0.0027,0.527953 c -0.0029,0.552587 -0.0152,0.929656 -0.03415,1.042036 -0.01067,0.06326 -0.01451,0.06972 -0.07895,0.132704 -0.06933,0.06776 -0.813604,0.653399 -0.880697,0.692984 -0.06075,0.03584 -0.140529,0.03643 -0.225755,0.0017 z m 0.24059,-0.110356 c 0.124934,-0.08838 0.479219,-0.357071 0.640465,-0.485725 0.189581,-0.151261 0.211295,-0.17412 0.22352,-0.2353 0.02184,-0.109336 0.05468,-0.633157 0.07243,-1.155683 0.0099,-0.291428 0.0094,-0.331679 -0.0043,-0.345347 -0.01805,-0.01805 -0.02707,-0.01512 -0.408817,0.132384 -0.448041,0.17312 -0.650868,0.267639 -0.674645,0.314389 -0.02128,0.04185 -0.01173,0.921852 0.01729,1.593321 0.0089,0.206777 0.0142,0.249548 0.03071,0.249548 0.0043,0 0.05077,-0.03041 0.103313,-0.06759 z m -0.219668,-0.357663 c -0.0043,-0.18907 -0.0095,-0.597828 -0.01147,-0.908353 -0.0029,-0.442962 -0.0065,-0.567162 -0.01674,-0.576538 -0.0375,-0.03426 -1.094221,-0.239022 -1.233513,-0.239022 h -0.04768 l 1.31e-4,0.09931 c 2.04e-4,0.157209 0.03803,0.575774 0.09229,1.021106 0.03766,0.309149 0.05774,0.422586 0.07929,0.44791 0.03814,0.04481 0.457641,0.261625 0.68129,0.352109 0.147237,0.05957 0.406392,0.146066 0.43966,0.146743 l 0.02455,4.94e-4 z m 0.274808,-1.64619 c 0.183915,-0.06185 0.57548,-0.207179 0.6641,-0.246479 0.04366,-0.01936 0.05481,-0.02823 0.04345,-0.03456 -0.02919,-0.01626 -0.647621,-0.110283 -0.98116,-0.149166 -0.123144,-0.01436 -0.164524,-0.01549 -0.224084,-0.0061 -0.112971,0.01773 -0.916562,0.246301 -0.937273,0.266591 -0.01121,0.01098 0.06867,0.02874 0.416057,0.09247 0.467843,0.08583 0.740114,0.130508 0.799917,0.131262 0.04249,5.29e-4 0.09641,-0.01275 0.218991,-0.05398 z"
           style="fill:#000000;stroke:#000000;stroke-width:0.08078972;stroke-miterlimit:4;stroke-dasharray:none;stroke-opacity:1" />
      </g>
    </g>
    <path
       id="path1197"
       style="fill:#000000;stroke-width:0.256247"
       d="M 112.7793 6.7617188 C 112.77081 6.7621071 112.76226 6.7633419 112.75391 6.7636719 C 112.26903 6.7829999 111.90605 7.0263295 111.44727 7.40625 C 110.59765 8.1097146 107.94423 8.6667714 101.57422 9.4785156 C 97.297738 10.023358 94.909145 10.233507 93.615234 10.191406 L 93.566406 9.6738281 C 93.518629 9.1576493 93.065615 8.7909888 92.550781 8.8515625 L 83.103516 9.9628906 C 82.588682 10.023464 82.211988 10.487727 82.259766 11.003906 L 82.279297 11.207031 C 77.290576 11.805305 71.23255 12.584791 65.179688 13.433594 C 60.212489 14.130172 59.571118 14.163785 59.478516 13.728516 C 59.437586 13.5361 59.28199 13.336646 59.132812 13.283203 C 59.113914 13.276403 59.057992 13.285304 58.966797 13.308594 C 58.328631 13.472965 56.009279 14.341388 53.363281 15.412109 C 50.339293 16.635803 46.156334 18.288348 44.066406 19.085938 C 41.605424 20.025122 39.927581 20.811646 39.302734 21.318359 C 38.772074 21.748659 37.674771 23.141551 36.865234 24.416016 C 36.055716 25.690476 34.274235 28.001667 32.90625 29.548828 C 31.538269 31.096 30.352151 32.658853 30.271484 33.023438 C 30.211274 33.295332 30.21985 33.571048 30.28125 33.837891 C 30.547367 34.994248 31.82873 35.981762 33.037109 35.730469 C 33.994101 35.531892 34.347671 35.632229 34.871094 36.261719 C 35.361873 36.851983 35.96784 38.312995 37.177734 42.431641 L 40.050781 43.871094 C 38.797048 39.504757 37.879365 35.837845 38.101562 35.638672 C 38.424183 35.3495 43.594515 35.23072 45.894531 35.458984 C 48.217561 35.689536 49.840365 36.155354 49.939453 36.621094 C 49.843113 38.682002 49.744301 39.084941 49.591797 40.832031 L 58.369141 39.972656 C 57.918103 38.823446 57.490143 37.593763 57.398438 37.175781 C 57.234519 36.423432 57.28272 36.354917 58.259766 36.015625 C 59.624905 35.541525 67.243002 33.614215 89.404297 27.787109 L 88.287109 20.410156 L 73.166016 18.169922 C 66.073962 18.604118 60.193403 18.90584 60.097656 18.84375 C 60.073466 18.82825 60.055495 18.804846 60.046875 18.773438 C 60.019285 18.679098 60.057815 18.522654 60.152344 18.376953 C 60.224494 18.265722 60.333599 18.183117 60.896484 18.060547 C 62.134797 17.790915 65.576041 17.340231 75.689453 16.035156 C 78.574143 15.662892 80.722732 15.374108 82.638672 15.105469 L 82.644531 15.158203 C 82.692309 15.674382 83.145322 16.042996 83.660156 15.982422 L 93.107422 14.869141 C 93.622256 14.808567 93.99895 14.344304 93.951172 13.828125 L 93.894531 13.208984 C 93.998249 13.188853 94.070059 13.176828 94.175781 13.15625 C 101.22094 11.784954 106.99364 10.956162 108.1582 11.146484 L 108.86133 11.259766 L 107.46875 13.224609 C 107.14521 13.680863 106.78891 14.144539 106.45312 14.554688 L 112.08398 13.705078 L 112.12695 13.707031 C 112.67625 13.126679 113.2492 12.635015 113.5625 12.568359 C 113.86349 12.504339 115.02442 12.930965 116.14258 13.517578 C 116.51213 13.711462 116.80568 13.866876 117.04688 14 L 119.6875 14.216797 L 121.10547 23.871094 L 117.18164 25.326172 C 117.15114 26.862961 117.04631 29.976986 116.90625 33.326172 L 116.57031 41.376953 L 114.92773 42.916016 L 111.07031 47.75 L 107.39453 48.380859 L 107.02344 50.390625 L 123.76172 50.582031 L 129.43945 44.148438 L 135.66016 35.730469 C 136.2194 34.973679 137.31552 26.22635 136.42383 24.742188 C 133.58827 24.202271 134.29852 24.355844 129.20703 22.96875 C 126.6238 22.264987 124.91982 19.058566 125.95703 18.837891 C 126.1776 18.790961 126.66033 18.28911 127.0293 17.720703 C 127.91247 16.360202 127.71148 15.203902 126.43555 14.3125 C 125.94452 13.96944 125.35192 13.728236 125.12109 13.777344 C 124.89025 13.826474 122.62104 12.487432 120.07617 10.802734 C 115.55367 7.8088511 113.87359 6.7533871 112.80469 6.7617188 C 112.79619 6.7617847 112.78778 6.7613303 112.7793 6.7617188 z M 113.07617 7.4746094 C 113.38447 7.4736782 113.7064 7.5608784 114.00977 7.7578125 C 114.83904 8.2961193 114.93171 8.991598 114.27539 9.7792969 C 113.97298 10.142283 113.58307 10.469073 113.41016 10.505859 C 112.77471 10.641053 111.78196 9.9049573 111.62891 9.1855469 C 111.45562 8.3710436 111.97087 7.7177479 112.66797 7.5292969 C 112.79868 7.4939939 112.93604 7.4750329 113.07617 7.4746094 z M 125.19336 14.669922 C 126.25819 14.652362 127.20694 15.763722 126.53125 16.927734 C 126.35675 17.228358 125.93085 17.533627 125.58398 17.607422 C 124.67358 17.801123 123.91539 17.201783 123.72266 16.474609 C 123.60699 16.038286 123.69366 15.555663 124.07422 15.171875 C 124.31759 14.926432 124.58812 14.779788 124.86133 14.712891 C 124.97232 14.685721 125.0832 14.671741 125.19336 14.669922 z M 73.988281 22.132812 C 74.004192 22.132439 74.019171 22.132714 74.035156 22.132812 C 75.026323 22.139712 75.928884 22.821605 76.175781 23.826172 L 76.765625 26.220703 C 77.056896 27.405813 76.329642 28.614979 75.144531 28.90625 L 67.689453 30.738281 C 66.504347 31.029552 65.293225 30.296438 65.001953 29.111328 L 64.412109 26.716797 C 64.120838 25.531687 64.855909 24.320567 66.041016 24.029297 L 73.496094 22.197266 C 73.644233 22.160856 73.79253 22.140216 73.939453 22.134766 C 73.955523 22.134166 73.97237 22.133187 73.988281 22.132812 z M 74.003906 23.134766 C 73.914722 23.137197 73.82502 23.149598 73.734375 23.171875 L 66.279297 25.003906 C 65.616298 25.166855 65.225723 25.813566 65.388672 26.476562 L 65.976562 28.871094 C 66.139512 29.534093 66.78622 29.926621 67.449219 29.763672 L 74.904297 27.931641 C 75.567301 27.768694 75.959824 27.121984 75.796875 26.458984 L 75.208984 24.064453 C 75.086772 23.567204 74.692127 23.221034 74.222656 23.148438 C 74.163976 23.139338 74.10382 23.134946 74.042969 23.134766 C 74.030292 23.134727 74.016647 23.134418 74.003906 23.134766 z M 53.576172 27.113281 C 55.53213 27.113281 57.126953 28.70811 57.126953 30.664062 C 57.126953 32.620021 55.53213 34.222656 53.576172 34.222656 C 51.620217 34.222656 50.017578 32.620021 50.017578 30.664062 C 50.017578 28.70811 51.620217 27.113281 53.576172 27.113281 z M 53.517578 28.375 C 52.273771 28.406113 51.287109 29.412252 51.287109 30.664062 C 51.287109 31.935745 52.304489 32.953125 53.576172 32.953125 C 54.847854 32.953125 55.865234 31.935745 55.865234 30.664062 C 55.865234 29.392382 54.847854 28.375 53.576172 28.375 C 53.556302 28.375 53.537321 28.374506 53.517578 28.375 z M 35.0625 30.25 C 36.143914 30.25 37.033203 31.141239 37.033203 32.222656 C 37.033203 33.30407 36.143914 34.185547 35.0625 34.185547 C 33.981083 34.185547 33.099609 33.30407 33.099609 32.222656 C 33.099609 31.141239 33.981083 30.25 35.0625 30.25 z M 35.0625 30.953125 C 34.35941 30.953125 33.800781 31.519562 33.800781 32.222656 C 33.800781 32.925747 34.35941 33.484375 35.0625 33.484375 C 35.76559 33.484375 36.332031 32.925747 36.332031 32.222656 C 36.332031 31.519562 35.76559 30.953125 35.0625 30.953125 z "
       transform="matrix(0.26458333,0,0,0.26458333,-28.060163,27.595709)" />
    <path
       id="rect1410"
       style="stroke-width:0.335;stroke-linecap:round;stroke-linejoin:round;stroke-dashoffset:3.79844"
       d="m -2.4889989,32.207888 -1.8629952,0.612722 0.340949,2.112061 1.9611625,-0.0046 1.91258929,-0.308748 1.91258891,-0.308749 1.8564072,-0.653535 -0.3277723,-2.030435 -1.9677507,-0.03622 -1.91258892,0.308748 z m -0.025156,0.418114 c 0.5108992,-0.08247 0.996248,0.266602 1.0787221,0.777501 0.082474,0.5109 -0.2680513,0.997006 -0.7789505,1.07948 -0.510899,0.08247 -0.9950467,-0.268891 -1.0775211,-0.779791 -0.082474,-0.510899 0.2668504,-0.994716 0.7777495,-1.07719 z m 3.7251871,-0.601356 c 0.5108993,-0.08247 0.9947172,0.26685 1.0771913,0.777749 0.082475,0.5109 -0.2665204,0.996758 -0.7774197,1.079233 C 0.99990498,33.9641 0.5137167,33.613067 0.43124238,33.102167 0.34876818,32.591268 0.70013333,32.10712 1.2110326,32.024646 Z m -3.6872085,0.933899 c -0.3235774,0.06055 -0.5389481,0.364472 -0.4861648,0.691447 0.053621,0.332165 0.3625908,0.557049 0.6947565,0.503428 0.332166,-0.05362 0.5541691,-0.36422 0.500548,-0.696386 -0.053621,-0.332165 -0.361669,-0.554581 -0.6938348,-0.500959 -0.00519,8.38e-4 -0.010169,0.0015 -0.015305,0.0025 z m 3.740492,-0.603826 c -0.33216595,0.05362 -0.55509114,0.361752 -0.50146994,0.693917 0.0536214,0.332166 0.36259084,0.55705 0.69475674,0.503428 0.3321657,-0.05362 0.5541691,-0.364219 0.5005477,-0.696385 -0.053621,-0.332165 -0.3616688,-0.554581 -0.6938345,-0.50096 z" />
  </g>
</svg>
