<?xml version="1.0" encoding="UTF-8" standalone="no"?>
<!-- Created with Inkscape (http://www.inkscape.org/) -->

<svg
   width="120mm"
   height="23.016712mm"
   viewBox="0 0 120 23.016712"
   version="1.1"
   id="svg1100"
   inkscape:version="1.2.2 (b0a8486541, 2022-12-01)"
   sodipodi:docname="blade.svg"
   xml:space="preserve"
   xmlns:inkscape="http://www.inkscape.org/namespaces/inkscape"
   xmlns:sodipodi="http://sodipodi.sourceforge.net/DTD/sodipodi-0.dtd"
   xmlns="http://www.w3.org/2000/svg"
   xmlns:svg="http://www.w3.org/2000/svg"
   xmlns:rdf="http://www.w3.org/1999/02/22-rdf-syntax-ns#"
   xmlns:cc="http://creativecommons.org/ns#"
   xmlns:dc="http://purl.org/dc/elements/1.1/"><defs
     id="defs1094" /><sodipodi:namedview
     id="base"
     pagecolor="#ffffff"
     bordercolor="#666666"
     borderopacity="1.0"
     inkscape:pageopacity="0.0"
     inkscape:pageshadow="2"
     inkscape:zoom="1.4142136"
     inkscape:cx="106.06601"
     inkscape:cy="71.417783"
     inkscape:document-units="mm"
     inkscape:current-layer="layer1"
     showgrid="false"
     inkscape:window-width="1920"
     inkscape:window-height="1043"
     inkscape:window-x="1920"
     inkscape:window-y="0"
     inkscape:window-maximized="1"
     fit-margin-top="0"
     fit-margin-left="0"
     fit-margin-right="0"
     fit-margin-bottom="0"
     inkscape:snap-global="false"
     inkscape:snap-bbox="true"
     inkscape:pagecheckerboard="0"
     showguides="true"
     inkscape:lockguides="false"
     inkscape:showpageshadow="2"
     inkscape:deskcolor="#d1d1d1" /><metadata
     id="metadata1097"><rdf:RDF><cc:Work
         rdf:about=""><dc:format>image/svg+xml</dc:format><dc:type
           rdf:resource="http://purl.org/dc/dcmitype/StillImage" /></cc:Work></rdf:RDF></metadata><g
     inkscape:groupmode="layer"
     id="layer3"
     inkscape:label="Background"
     style="display:inline" /><g
     inkscape:groupmode="layer"
     id="layer2"
     inkscape:label="Guias"
     style="display:inline"
     transform="translate(0,0.2323513)"><g
       id="g1399"
       transform="translate(-6.7978492)"><rect
         y="11.402682"
         x="50.431446"
         height="11"
         width="74.99527"
         id="rect1878-3"
         style="display:inline;opacity:1;vector-effect:none;fill:#ffe680;fill-opacity:1;stroke:none;stroke-width:0.47467926;stroke-linecap:butt;stroke-linejoin:miter;stroke-miterlimit:4;stroke-dasharray:none;stroke-dashoffset:0;stroke-opacity:1" /><rect
         y="0.30218902"
         x="8.1689825"
         height="22.148087"
         width="42.262463"
         id="rect1868"
         style="display:inline;opacity:1;vector-effect:none;fill:#decd87;fill-opacity:1;stroke:none;stroke-width:0.39467782;stroke-linecap:butt;stroke-linejoin:miter;stroke-miterlimit:4;stroke-dasharray:none;stroke-dashoffset:0;stroke-opacity:1" /><rect
         y="0.39782956"
         x="50.431446"
         height="11"
         width="74.99527"
         id="rect1878"
         style="display:inline;opacity:1;vector-effect:none;fill:#deaa87;fill-opacity:1;stroke:none;stroke-width:0.47467929;stroke-linecap:butt;stroke-linejoin:miter;stroke-miterlimit:4;stroke-dasharray:none;stroke-dashoffset:0;stroke-opacity:1" /><rect
         y="12.891373"
         x="76.863533"
         height="8.0226164"
         width="22"
         id="rect1878-7-3"
         style="display:inline;opacity:1;vector-effect:none;fill:#eeffaa;fill-opacity:1;stroke:none;stroke-width:0.19344766;stroke-linecap:butt;stroke-linejoin:miter;stroke-miterlimit:4;stroke-dasharray:none;stroke-dashoffset:0;stroke-opacity:1" /><rect
         y="12.891415"
         x="103.2956"
         height="8.0226164"
         width="22"
         id="rect1878-7-56"
         style="display:inline;opacity:1;vector-effect:none;fill:#ccffaa;fill-opacity:1;stroke:none;stroke-width:0.21753596;stroke-linecap:butt;stroke-linejoin:miter;stroke-miterlimit:4;stroke-dasharray:none;stroke-dashoffset:0;stroke-opacity:1" /><rect
         y="12.680782"
         x="50.431446"
         height="8.443799"
         width="22"
         id="rect1878-7"
         style="display:inline;opacity:1;vector-effect:none;fill:#ff9955;fill-opacity:1;stroke:none;stroke-width:0.22317314;stroke-linecap:butt;stroke-linejoin:miter;stroke-miterlimit:4;stroke-dasharray:none;stroke-dashoffset:0;stroke-opacity:1" /><rect
         y="13.158642"
         x="77.363533"
         height="7.4880772"
         width="21"
         id="rect1878-7-2-7"
         style="display:inline;opacity:1;vector-effect:none;fill:#ddff55;fill-opacity:1;stroke:none;stroke-width:0.20533194;stroke-linecap:butt;stroke-linejoin:miter;stroke-miterlimit:4;stroke-dasharray:none;stroke-dashoffset:0;stroke-opacity:1" /><rect
         y="13.158684"
         x="103.7956"
         height="7.4880772"
         width="21"
         id="rect1878-7-2-7-0"
         style="display:inline;opacity:1;vector-effect:none;fill:#66ff00;fill-opacity:1;stroke:none;stroke-width:0.20533194;stroke-linecap:butt;stroke-linejoin:miter;stroke-miterlimit:4;stroke-dasharray:none;stroke-dashoffset:0;stroke-opacity:1" /><rect
         y="13.158642"
         x="50.931446"
         height="7.4880772"
         width="21"
         id="rect1878-7-2"
         style="display:inline;opacity:1;vector-effect:none;fill:#d45500;fill-opacity:1;stroke:none;stroke-width:0.20533194;stroke-linecap:butt;stroke-linejoin:miter;stroke-miterlimit:4;stroke-dasharray:none;stroke-dashoffset:0;stroke-opacity:1" /></g></g><g
     inkscape:label="Capa 1"
     inkscape:groupmode="layer"
     id="layer1"
     transform="translate(28.060163,-27.595709)"
     style="display:inline"><g
       transform="matrix(0.35279357,0,0,0.35279357,27.66483,22.56444)"
       id="layer1-6-3-2"
       inkscape:label="Capa 1" /><rect
       style="display:inline;opacity:1;fill:#ffffff;fill-opacity:1;stroke:none;stroke-width:0.71100003;stroke-miterlimit:4;stroke-dasharray:none;stroke-dashoffset:0;stroke-opacity:1"
       id="rect1126"
       width="119.99902"
       height="23.017704"
       x="-28.060163"
       y="27.595709" /><g
       style="display:inline"
       id="g9128"
       transform="translate(-107.62953,-199.34653)"><path
         inkscape:connector-curvature="0"
         id="path9084"
         d="M 83.843672,227.37459 H 195.29507"
         style="fill:none;stroke:#000000;stroke-width:0.40000001;stroke-linecap:butt;stroke-linejoin:miter;stroke-miterlimit:4;stroke-dasharray:none;stroke-opacity:1" /><path
         inkscape:connector-curvature="0"
         id="path9084-3"
         d="M 83.843669,249.75895 H 195.29507"
         style="fill:none;stroke:#000000;stroke-width:0.40000001;stroke-linecap:butt;stroke-linejoin:miter;stroke-miterlimit:4;stroke-dasharray:none;stroke-opacity:1" /></g><g
       id="g383"
       transform="matrix(1.3240563,0,0,1.3240565,-11.756817,13.836628)"><circle
         r="2.9059739"
         cy="15.820772"
         cx="24.290676"
         id="path1760-3-7"
         style="opacity:1;vector-effect:none;fill:#ffffff;fill-opacity:1;stroke:#000000;stroke-width:0.31159922;stroke-linecap:butt;stroke-linejoin:miter;stroke-miterlimit:4;stroke-dasharray:none;stroke-dashoffset:0;stroke-opacity:1" /><path
         inkscape:export-ydpi="300"
         inkscape:export-xdpi="300"
         inkscape:export-filename="1sword.png"
         sodipodi:nodetypes="cccccccsccssscssscsscscsscscccccccscscc"
         inkscape:connector-curvature="0"
         id="path1327"
         d="m 22.955075,17.371526 c 0.03685,-0.0091 0.06702,-0.02719 0.09377,-0.05619 0.03556,-0.03859 0.04582,-0.06185 0.04903,-0.111267 l 0.0028,-0.04328 0.250709,-0.250653 0.250707,-0.250653 0.06274,-5.02e-4 c 0.08226,-5.03e-4 0.114477,-0.01495 0.181922,-0.08061 l 0.04803,-0.04677 0.11105,0.110465 c 0.108933,0.108355 0.111538,0.110464 0.136755,0.110464 0.03549,0 0.05551,-0.02005 0.05551,-0.05556 0,-0.02537 -0.0018,-0.02755 -0.124401,-0.150661 l -0.1244,-0.124923 0.694148,-0.695057 c 0.782416,-0.783438 0.821412,-0.825699 0.988767,-1.071481 0.104214,-0.153054 0.21731,-0.351482 0.21731,-0.38128 0,-0.0098 -0.0048,-0.01849 -0.01222,-0.0225 -0.02594,-0.01391 -0.312856,0.156865 -0.50722,0.301841 -0.162718,0.12137 -0.224401,0.180047 -0.934768,0.889204 l -0.710463,0.70925 -0.118284,-0.118959 c -0.06506,-0.06543 -0.126483,-0.122533 -0.136501,-0.126903 -0.03885,-0.01693 -0.08196,0.01271 -0.08196,0.05633 0,0.02036 0.0082,0.03015 0.112296,0.134803 l 0.112296,0.112859 -0.0458,0.04536 c -0.03088,0.03057 -0.05212,0.05818 -0.06524,0.08474 -0.01811,0.03667 -0.01944,0.04364 -0.01928,0.101551 l 1.54e-4,0.06217 -0.246233,0.246178 -0.246234,0.246179 -0.03999,0.0021 c -0.04865,0.0026 -0.08662,0.01864 -0.121873,0.05115 -0.04341,0.04 -0.05637,0.07233 -0.05637,0.14059 0,0.0524 0.0016,0.06035 0.01721,0.08695 0.0095,0.0161 0.02585,0.03766 0.03643,0.04792 0.03961,0.03839 0.117208,0.05992 0.169582,0.04698 z"
         style="fill:#000000;stroke:#000000;stroke-width:0.16442627;stroke-miterlimit:4;stroke-dasharray:none;stroke-opacity:1" /></g><g
       style="display:inline"
       id="g1033"
       transform="translate(19.247686,66.198426)"><rect
         y="-36.617252"
         x="21.17853"
         height="8.2894325"
         width="8.2894325"
         id="rect925-7-3-61-49-09"
         style="display:inline;opacity:1;vector-effect:none;fill:#ffffff;fill-opacity:1;stroke:#000000;stroke-width:0.71056741;stroke-linecap:butt;stroke-linejoin:miter;stroke-miterlimit:4;stroke-dasharray:none;stroke-dashoffset:0;stroke-opacity:1" /><rect
         y="-36.617252"
         x="31.46801"
         height="8.2894325"
         width="8.2894325"
         id="rect925-7-3-61-49-0-6"
         style="display:inline;opacity:1;vector-effect:none;fill:#ffffff;fill-opacity:1;stroke:#000000;stroke-width:0.71056741;stroke-linecap:butt;stroke-linejoin:miter;stroke-miterlimit:4;stroke-dasharray:none;stroke-dashoffset:0;stroke-opacity:1" /><rect
         y="-36.617252"
         x="41.757488"
         height="8.2894325"
         width="8.2894325"
         id="rect925-7-3-61-49-9-3"
         style="display:inline;opacity:1;vector-effect:none;fill:#ffffff;fill-opacity:1;stroke:#000000;stroke-width:0.71056741;stroke-linecap:butt;stroke-linejoin:miter;stroke-miterlimit:4;stroke-dasharray:none;stroke-dashoffset:0;stroke-opacity:1" /><rect
         y="-36.617252"
         x="52.046974"
         height="8.2894325"
         width="8.2894325"
         id="rect925-7-3-61-49-1-8"
         style="display:inline;opacity:1;vector-effect:none;fill:#ffffff;fill-opacity:1;stroke:#000000;stroke-width:0.71056741;stroke-linecap:butt;stroke-linejoin:miter;stroke-miterlimit:4;stroke-dasharray:none;stroke-dashoffset:0;stroke-opacity:1" /><rect
         y="-36.617252"
         x="62.336449"
         height="8.2894325"
         width="8.2894325"
         id="rect925-7-3-61-49-7-5"
         style="display:inline;opacity:1;vector-effect:none;fill:#ffffff;fill-opacity:1;stroke:#000000;stroke-width:0.71056741;stroke-linecap:butt;stroke-linejoin:miter;stroke-miterlimit:4;stroke-dasharray:none;stroke-dashoffset:0;stroke-opacity:1" /></g><g
       id="g226"
       transform="translate(2.2151513,1.0583333)"><path
         inkscape:export-ydpi="300"
         inkscape:export-xdpi="300"
         inkscape:export-filename="1flame.png"
         sodipodi:nodetypes="ccccsccccscccccscscccsccccccc"
         inkscape:connector-curvature="0"
         id="path826-3-3"
         d="m -11.992062,47.899798 c -0.74036,-0.42454 -1.16313,-1.30599 -1.029019,-2.14547 0.0723,-0.45236 0.205399,-0.75728 0.51281,-1.17452 0.855259,-1.16082 1.01121,-1.47811 1.05736,-2.15132 0.0145,-0.21106 0.0365,-0.38375 0.049,-0.38375 0.0124,0 0.167669,0.10751 0.34492,0.23891 0.70314,0.52126 1.0979695,1.22932 1.1901695,2.13433 l 0.0354,0.34789 0.128,-0.13562 c 0.0704,-0.0746 0.15533,-0.22937 0.18875,-0.34397 l 0.0608,-0.20837 0.19096,0.39085 c 0.22784,0.46637 0.37001,0.95442 0.40995,1.40733 0.0722,0.81861 -0.34268,1.61611 -1.05246,2.0231 -0.2845895,0.16319 -0.3925495,0.19094 -0.2225405,0.0572 0.1735505,-0.13653 0.3687505,-0.53511 0.3972405,-0.81118 0.0384,-0.37175 -0.0755,-0.6917 -0.4090205,-1.14935 -0.334519,-0.45901 -0.487779,-0.77035 -0.53289,-1.08258 l -0.0324,-0.22468 -0.18305,0.17817 c -0.34858,0.3393 -0.59597,1.08145 -0.53423,1.6027 0.0148,0.1247 0.009,0.22675 -0.0126,0.22675 -0.089,0 -0.32551,-0.33503 -0.3523,-0.49904 -0.0158,-0.0965 -0.0345,-0.20683 -0.0417,-0.2452 -0.0169,-0.0902 -0.24643,0.40925 -0.30533,0.66445 -0.10999,0.4766 -0.0184,0.91088 0.26098,1.23724 0.0901,0.10532 0.15703,0.19129 0.14864,0.19105 -0.008,-1.8e-4 -0.12865,-0.0654 -0.26725,-0.14494 z"
         style="fill:#000000;stroke:#000000;stroke-width:0.30000001;stroke-miterlimit:4;stroke-dasharray:none;stroke-opacity:1" /><circle
         r="1.6063988"
         cy="45.131767"
         cx="-4.4457111"
         id="path3810-6"
         style="opacity:1;vector-effect:none;fill:#000000;fill-opacity:1;stroke:none;stroke-width:0.29209089;stroke-linecap:butt;stroke-linejoin:miter;stroke-miterlimit:4;stroke-dasharray:0.87627266, 0.29209089;stroke-dashoffset:0;stroke-opacity:1" /></g><path
       style="fill:none;stroke:#000000;stroke-width:0.26458332px;stroke-linecap:butt;stroke-linejoin:miter;stroke-opacity:1"
       d="m 40.024002,43.317011 v 5.58932"
       id="path1183-5"
       inkscape:connector-curvature="0" /><path
       style="fill:none;stroke:#000000;stroke-width:0.26458332px;stroke-linecap:butt;stroke-linejoin:miter;stroke-opacity:1"
       d="m 66.456089,43.500759 v 5.58932"
       id="path1183-2-3"
       inkscape:connector-curvature="0" /><text
       xml:space="preserve"
       style="font-style:normal;font-weight:normal;font-size:132.329px;line-height:1.25;font-family:sans-serif;letter-spacing:0px;word-spacing:0px;fill:#000000;fill-opacity:1;stroke:none;stroke-width:0.220548"
       x="16.060684"
       y="47.510666"
       id="text1088-5"><tspan
         sodipodi:role="line"
         id="tspan1086-6"
         x="16.060684"
         y="47.510666"
         style="font-size:2.64658px;stroke-width:0.220548">1</tspan></text><path
       style="fill:none;stroke:#000000;stroke-width:0.2093017px;stroke-linecap:butt;stroke-linejoin:miter;stroke-opacity:1"
       d="m 19.807967,46.557733 h 14"
       id="path1090-29"
       inkscape:connector-curvature="0"
       sodipodi:nodetypes="cc" /><text
       xml:space="preserve"
       style="font-style:normal;font-weight:normal;font-size:132.329px;line-height:1.25;font-family:sans-serif;letter-spacing:0px;word-spacing:0px;fill:#000000;fill-opacity:1;stroke:none;stroke-width:0.220548"
       x="34.195385"
       y="47.528107"
       id="text1088-0-1"><tspan
         sodipodi:role="line"
         id="tspan1086-9-27"
         x="34.195385"
         y="47.528107"
         style="font-size:2.64658px;stroke-width:0.220548">5</tspan></text><path
       sodipodi:nodetypes="cccssssssccscscccccsscscssccscsccscccccsscsssscs"
       inkscape:connector-curvature="0"
       id="path828-79-6-5"
       d="m 26.866475,45.768907 c -0.241715,-0.09861 -1.131187,-0.53168 -1.172942,-0.571085 -0.01213,-0.01144 -0.02723,-0.04491 -0.03371,-0.07469 -0.03157,-0.145131 -0.09266,-0.607747 -0.117421,-0.889181 -0.01773,-0.201487 -0.02103,-0.708788 -0.0048,-0.739093 0.01422,-0.02657 0.06498,-0.05071 0.198279,-0.09429 0.255019,-0.08337 0.611556,-0.176261 0.850498,-0.221579 0.09716,-0.01843 0.139711,-0.02127 0.249547,-0.01669 0.146556,0.0061 0.504242,0.05017 0.840312,0.103504 0.270302,0.0429 0.359688,0.06287 0.389432,0.08702 l 0.02308,0.01874 -0.0027,0.527954 c -0.0029,0.552587 -0.0152,0.929656 -0.03415,1.042035 -0.01067,0.06326 -0.01451,0.06972 -0.07895,0.132704 -0.06933,0.06776 -0.813604,0.653399 -0.880696,0.692984 -0.06075,0.03585 -0.14053,0.03643 -0.225755,0.0017 z m 0.24059,-0.110355 c 0.124934,-0.08838 0.479219,-0.357072 0.640465,-0.485725 0.189581,-0.151261 0.211295,-0.174121 0.22352,-0.2353 0.02184,-0.109336 0.05467,-0.633157 0.07243,-1.155683 0.0099,-0.291429 0.0094,-0.331679 -0.0043,-0.345347 -0.01805,-0.01805 -0.02707,-0.01512 -0.408816,0.132384 -0.448042,0.17312 -0.650869,0.267638 -0.674646,0.314389 -0.02128,0.04185 -0.01173,0.921852 0.01729,1.593321 0.0089,0.206777 0.0142,0.249547 0.03071,0.249547 0.0043,0 0.05077,-0.03041 0.103313,-0.06759 z m -0.219667,-0.357663 c -0.0043,-0.18907 -0.0095,-0.597829 -0.01147,-0.908353 -0.0029,-0.442962 -0.0065,-0.567163 -0.01674,-0.576539 -0.0375,-0.03426 -1.094221,-0.239021 -1.233513,-0.239021 h -0.04768 l 1.31e-4,0.09931 c 2.04e-4,0.15721 0.03803,0.575775 0.09229,1.021107 0.03766,0.309149 0.05774,0.422586 0.07929,0.447909 0.03814,0.04481 0.457642,0.261625 0.681291,0.352109 0.147236,0.05957 0.406392,0.146066 0.439659,0.146743 l 0.02455,4.94e-4 z m 0.274807,-1.64619 c 0.183915,-0.06185 0.575481,-0.207179 0.6641,-0.246479 0.04366,-0.01936 0.05481,-0.02823 0.04345,-0.03456 -0.02919,-0.01626 -0.647621,-0.110283 -0.98116,-0.149165 -0.123144,-0.01436 -0.164523,-0.01549 -0.224084,-0.0061 -0.112971,0.01773 -0.916562,0.246301 -0.937273,0.266592 -0.01121,0.01098 0.06867,0.02874 0.416057,0.09247 0.467843,0.08583 0.740114,0.130508 0.799917,0.131262 0.04249,5.3e-4 0.09641,-0.01275 0.218991,-0.05398 z"
       style="fill:#000000;stroke:#000000;stroke-width:0.0807897;stroke-miterlimit:4;stroke-dasharray:none;stroke-opacity:1" /><path
       style="fill:#000000;stroke-width:0.116606"
       d="M -5.7475753,32.496898 H -15.50749 v 1.690785 1.690787 l 0.553878,-0.0024 c 0.304633,-0.0013 1.754183,-0.08569 3.223461,-0.113762 l 1.361552,-0.02602 c 1.5610547,0.313574 2.3655681,0.893359 5.938671,1.335198 0.1677773,0.0083 4.26613668,-0.770545 8.3314926,-4.46735 0.069412,-0.06312 -3.70962342,-0.107219 -9.6491399,-0.107219 z m -6.2540717,1.511774 c -0.32712,0.17507 -1.786512,0.151621 -2.038662,-0.03276 -0.115432,-0.08441 -0.190461,-0.254942 -0.166732,-0.37897 0.0382,-0.199658 0.162216,-0.2294 1.082056,-0.259486 0.571402,-0.01869 1.108656,-0.0072 1.193898,0.02549 0.232352,0.08916 0.186573,0.508107 -0.07056,0.64572 z"
       id="path6115"
       sodipodi:nodetypes="sccccsccsssssssss" /><path
       style="fill:#000000;stroke-width:0.0326585"
       d="m 29.146238,37.879738 c -0.0171,-0.0225 -0.10942,-0.41845 -0.20514,-0.87997 -0.16831,-0.81158 -0.17694,-0.84035 -0.26223,-0.87569 -0.0825,-0.0341 -0.13548,-0.005 -0.81624,0.44139 -0.57548,0.37777 -0.74409,0.47387 -0.80471,0.45866 -0.0476,-0.0121 -0.0767,-0.0433 -0.0767,-0.0828 0,-0.0349 0.19777,-0.36519 0.4395,-0.73375 0.54221,-0.82673 0.51652,-0.77902 0.47208,-0.87656 -0.0331,-0.0725 -0.1022,-0.0925 -0.88778,-0.2569 -0.88652,-0.18553 -0.96693,-0.21681 -0.88623,-0.34477 0.0263,-0.0417 0.25309,-0.10154 0.88703,-0.23404 0.78314,-0.16369 0.85452,-0.18429 0.88722,-0.25608 0.0442,-0.0969 0.0698,-0.0494 -0.4741,-0.8787 -0.28719,-0.43789 -0.43781,-0.69716 -0.43134,-0.74252 0.0204,-0.14315 0.13793,-0.0964 0.73238,0.29172 0.32114,0.20967 0.58687,0.38363 0.59049,0.3866 0.005,0.003 0.0662,0.36495 0.13928,0.80439 0.073,0.43946 0.14867,0.83022 0.1682,0.86839 0.0256,0.0502 0.0255,0.0881 -4.8e-4,0.13665 -0.0199,0.0371 -0.0359,0.22589 -0.0359,0.42138 0,0.53747 0.0671,0.59726 0.66948,0.59726 0.60248,0 0.66951,-0.0598 0.66951,-0.59726 0,-0.19477 -0.0151,-0.38254 -0.0339,-0.41729 -0.0239,-0.0446 -0.0226,-0.0841 0.005,-0.13425 0.0208,-0.0391 0.0652,-0.41599 0.0984,-0.83754 0.0333,-0.42156 0.0644,-0.76999 0.0693,-0.77432 0.10714,-0.095 1.28743,-0.83177 1.33227,-0.83177 0.0393,0 0.0707,0.0292 0.0828,0.0772 0.0154,0.0613 -0.0792,0.22727 -0.45855,0.80498 -0.44645,0.67988 -0.47553,0.7336 -0.44147,0.8158 0.0352,0.085 0.0653,0.094 0.88956,0.26652 0.88646,0.18552 0.96804,0.21714 0.88794,0.34416 -0.0256,0.0405 -0.25985,0.1023 -0.88676,0.2335 -0.78554,0.16439 -0.85473,0.18441 -0.88777,0.2569 -0.0445,0.0976 -0.0701,0.0499 0.47207,0.87656 0.24172,0.36856 0.43951,0.68874 0.43951,0.7115 0,0.0533 -0.0665,0.11977 -0.11976,0.11977 -0.0227,0 -0.34295,-0.19777 -0.71151,-0.43951 -0.82669,-0.54218 -0.77903,-0.5165 -0.8765,-0.47209 -0.0724,0.0331 -0.0921,0.10112 -0.25236,0.87376 -0.0955,0.46089 -0.18779,0.85635 -0.20488,0.87879 -0.0171,0.0225 -0.0569,0.0409 -0.0884,0.0409 -0.0315,0 -0.0714,-0.0183 -0.0884,-0.0409 z m -0.29695,-2.05587 c -0.0246,-0.0246 -0.0392,-0.14634 -0.0392,-0.32543 0,-0.35082 0.005,-0.35387 0.4409,-0.35387 0.43469,0 0.44089,0.005 0.44089,0.3414 0,0.15057 -0.008,0.29702 -0.0199,0.32544 -0.0164,0.0431 -0.0837,0.0517 -0.4017,0.0517 -0.25348,0 -0.39506,-0.0133 -0.42107,-0.0392 z m 0.002,-0.94873 c -0.0182,-0.0225 -0.10186,-0.45966 -0.18599,-0.97159 -0.0841,-0.51191 -0.15973,-0.95494 -0.16805,-0.98448 -0.0306,-0.10918 0.0728,-0.14647 0.61248,-0.22066 0.29372,-0.0404 0.55685,-0.0797 0.58474,-0.0874 0.0278,-0.007 0.0759,0.005 0.10682,0.0271 0.053,0.0388 0.0514,0.1023 -0.0281,1.11763 -0.0463,0.59211 -0.0999,1.09542 -0.11904,1.11846 -0.0483,0.058 -0.75604,0.0589 -0.80292,0.002 z m 0.12429,-2.44575 c 7.4e-4,-0.0244 0.0346,-0.19771 0.0754,-0.38505 0.0784,-0.35951 0.13211,-0.4433 0.24093,-0.37466 0.0363,0.0229 0.0749,0.12737 0.10834,0.29376 0.0286,0.142 0.0618,0.29696 0.0739,0.34435 0.021,0.0822 0.0148,0.0871 -0.13285,0.10778 -0.0852,0.0119 -0.20259,0.0298 -0.26097,0.0399 -0.0771,0.0134 -0.10574,0.006 -0.10488,-0.0261 z"
       id="path6297" /></g></svg>
