<?xml version="1.0" encoding="UTF-8" standalone="no"?>
<!-- Created with Inkscape (http://www.inkscape.org/) -->

<svg
   width="120mm"
   height="23.016712mm"
   viewBox="0 0 120 23.016712"
   version="1.1"
   id="svg1100"
   inkscape:version="1.1.2 (0a00cf5339, 2022-02-04)"
   sodipodi:docname="chainsaw.svg"
   xmlns:inkscape="http://www.inkscape.org/namespaces/inkscape"
   xmlns:sodipodi="http://sodipodi.sourceforge.net/DTD/sodipodi-0.dtd"
   xmlns="http://www.w3.org/2000/svg"
   xmlns:svg="http://www.w3.org/2000/svg"
   xmlns:rdf="http://www.w3.org/1999/02/22-rdf-syntax-ns#"
   xmlns:cc="http://creativecommons.org/ns#"
   xmlns:dc="http://purl.org/dc/elements/1.1/">
  <defs
     id="defs1094" />
  <sodipodi:namedview
     id="base"
     pagecolor="#ffffff"
     bordercolor="#666666"
     borderopacity="1.0"
     inkscape:pageopacity="0.0"
     inkscape:pageshadow="2"
     inkscape:zoom="4"
     inkscape:cx="27.875"
     inkscape:cy="62.625"
     inkscape:document-units="mm"
     inkscape:current-layer="layer1"
     showgrid="false"
     inkscape:window-width="1846"
     inkscape:window-height="1016"
     inkscape:window-x="74"
     inkscape:window-y="1107"
     inkscape:window-maximized="1"
     fit-margin-top="0"
     fit-margin-left="0"
     fit-margin-right="0"
     fit-margin-bottom="0"
     inkscape:snap-global="false"
     inkscape:snap-bbox="true"
     inkscape:pagecheckerboard="0" />
  <metadata
     id="metadata1097">
    <rdf:RDF>
      <cc:Work
         rdf:about="">
        <dc:format>image/svg+xml</dc:format>
        <dc:type
           rdf:resource="http://purl.org/dc/dcmitype/StillImage" />
      </cc:Work>
    </rdf:RDF>
  </metadata>
  <g
     inkscape:groupmode="layer"
     id="layer3"
     inkscape:label="Background"
     style="display:inline" />
  <g
     inkscape:groupmode="layer"
     id="layer2"
     inkscape:label="Guias"
     style="display:none"
     transform="translate(0,0.2323513)">
    <g
       id="g1399"
       transform="translate(-6.7978492)">
      <rect
         y="11.402682"
         x="50.431446"
         height="11"
         width="74.99527"
         id="rect1878-3"
         style="display:inline;opacity:1;vector-effect:none;fill:#ffe680;fill-opacity:1;stroke:none;stroke-width:0.47467926;stroke-linecap:butt;stroke-linejoin:miter;stroke-miterlimit:4;stroke-dasharray:none;stroke-dashoffset:0;stroke-opacity:1" />
      <rect
         y="0.30218902"
         x="8.1689825"
         height="22.148087"
         width="42.262463"
         id="rect1868"
         style="display:inline;opacity:1;vector-effect:none;fill:#decd87;fill-opacity:1;stroke:none;stroke-width:0.39467782;stroke-linecap:butt;stroke-linejoin:miter;stroke-miterlimit:4;stroke-dasharray:none;stroke-dashoffset:0;stroke-opacity:1" />
      <rect
         y="0.39782956"
         x="50.431446"
         height="11"
         width="74.99527"
         id="rect1878"
         style="display:inline;opacity:1;vector-effect:none;fill:#deaa87;fill-opacity:1;stroke:none;stroke-width:0.47467929;stroke-linecap:butt;stroke-linejoin:miter;stroke-miterlimit:4;stroke-dasharray:none;stroke-dashoffset:0;stroke-opacity:1" />
      <rect
         y="12.891373"
         x="76.863533"
         height="8.0226164"
         width="22"
         id="rect1878-7-3"
         style="display:inline;opacity:1;vector-effect:none;fill:#eeffaa;fill-opacity:1;stroke:none;stroke-width:0.19344766;stroke-linecap:butt;stroke-linejoin:miter;stroke-miterlimit:4;stroke-dasharray:none;stroke-dashoffset:0;stroke-opacity:1" />
      <rect
         y="12.891415"
         x="103.2956"
         height="8.0226164"
         width="22"
         id="rect1878-7-56"
         style="display:inline;opacity:1;vector-effect:none;fill:#ccffaa;fill-opacity:1;stroke:none;stroke-width:0.21753596;stroke-linecap:butt;stroke-linejoin:miter;stroke-miterlimit:4;stroke-dasharray:none;stroke-dashoffset:0;stroke-opacity:1" />
      <rect
         y="12.680782"
         x="50.431446"
         height="8.443799"
         width="22"
         id="rect1878-7"
         style="display:inline;opacity:1;vector-effect:none;fill:#ff9955;fill-opacity:1;stroke:none;stroke-width:0.22317314;stroke-linecap:butt;stroke-linejoin:miter;stroke-miterlimit:4;stroke-dasharray:none;stroke-dashoffset:0;stroke-opacity:1" />
      <rect
         y="13.158642"
         x="77.363533"
         height="7.4880772"
         width="21"
         id="rect1878-7-2-7"
         style="display:inline;opacity:1;vector-effect:none;fill:#ddff55;fill-opacity:1;stroke:none;stroke-width:0.20533194;stroke-linecap:butt;stroke-linejoin:miter;stroke-miterlimit:4;stroke-dasharray:none;stroke-dashoffset:0;stroke-opacity:1" />
      <rect
         y="13.158684"
         x="103.7956"
         height="7.4880772"
         width="21"
         id="rect1878-7-2-7-0"
         style="display:inline;opacity:1;vector-effect:none;fill:#66ff00;fill-opacity:1;stroke:none;stroke-width:0.20533194;stroke-linecap:butt;stroke-linejoin:miter;stroke-miterlimit:4;stroke-dasharray:none;stroke-dashoffset:0;stroke-opacity:1" />
      <rect
         y="13.158642"
         x="50.931446"
         height="7.4880772"
         width="21"
         id="rect1878-7-2"
         style="display:inline;opacity:1;vector-effect:none;fill:#d45500;fill-opacity:1;stroke:none;stroke-width:0.20533194;stroke-linecap:butt;stroke-linejoin:miter;stroke-miterlimit:4;stroke-dasharray:none;stroke-dashoffset:0;stroke-opacity:1" />
    </g>
  </g>
  <g
     inkscape:label="Capa 1"
     inkscape:groupmode="layer"
     id="layer1"
     transform="translate(28.060163,-27.595709)"
     style="display:inline">
    <rect
       style="display:inline;opacity:1;fill:#ffffff;fill-opacity:1;stroke:none;stroke-width:0.711;stroke-miterlimit:4;stroke-dasharray:none;stroke-dashoffset:0;stroke-opacity:1"
       id="rect1126"
       width="119.999"
       height="23.017704"
       x="-28.060163"
       y="27.595709" />
    <g
       id="g2075"
       transform="translate(20.239964,-14.981539)">
      <path
         inkscape:export-ydpi="300"
         inkscape:export-xdpi="300"
         inkscape:export-filename="1flame.png"
         sodipodi:nodetypes="ccccsccccscccccscscccsccccccc"
         inkscape:connector-curvature="0"
         id="path826-3-7"
         d="m -32.880044,63.93967 c -0.74036,-0.42454 -1.16313,-1.30599 -1.029019,-2.14547 0.0723,-0.45236 0.205399,-0.75728 0.512809,-1.17452 0.85526,-1.16082 1.011211,-1.47811 1.057361,-2.15132 0.0145,-0.21106 0.0365,-0.38375 0.049,-0.38375 0.0124,0 0.167668,0.10751 0.344919,0.23891 0.703141,0.52126 1.09797,1.22932 1.19017,2.13433 l 0.0354,0.34789 0.128,-0.13562 c 0.0704,-0.0746 0.15533,-0.22937 0.18875,-0.34397 l 0.0608,-0.20837 0.19096,0.39085 c 0.22784,0.46637 0.37001,0.95442 0.40995,1.40733 0.0722,0.81861 -0.34268,1.61611 -1.05246,2.0231 -0.284589,0.16319 -0.392549,0.19094 -0.22254,0.0572 0.17355,-0.13653 0.36875,-0.53511 0.39724,-0.81118 0.0384,-0.37175 -0.0755,-0.6917 -0.40902,-1.14935 -0.334519,-0.45901 -0.487779,-0.77035 -0.532891,-1.08258 l -0.0324,-0.22468 -0.18305,0.17817 c -0.34858,0.3393 -0.59597,1.08145 -0.53423,1.6027 0.0148,0.1247 0.009,0.22675 -0.0126,0.22675 -0.089,0 -0.325509,-0.33503 -0.3523,-0.49904 -0.0158,-0.0965 -0.0345,-0.20683 -0.0417,-0.2452 -0.0169,-0.0902 -0.246429,0.40925 -0.30533,0.66445 -0.10999,0.4766 -0.0184,0.91088 0.26098,1.23724 0.0901,0.10532 0.157031,0.19129 0.14864,0.19105 -0.008,-1.8e-4 -0.12865,-0.0654 -0.26725,-0.14494 z"
         style="fill:#000000;stroke:#000000;stroke-width:0.3;stroke-miterlimit:4;stroke-dasharray:none;stroke-opacity:1" />
      <circle
         r="1.6063988"
         cy="61.171642"
         cx="-25.333694"
         id="path3810-6-5"
         style="vector-effect:none;fill:#000000;fill-opacity:1;stroke:none;stroke-width:0.292091;stroke-linecap:butt;stroke-linejoin:miter;stroke-miterlimit:4;stroke-dasharray:0.876273, 0.292091;stroke-dashoffset:0;stroke-opacity:1" />
      <circle
         r="1.6063988"
         cy="61.171642"
         cx="-19.607355"
         id="path3810-8-5"
         style="vector-effect:none;fill:#000000;fill-opacity:1;stroke:none;stroke-width:0.292091;stroke-linecap:butt;stroke-linejoin:miter;stroke-miterlimit:4;stroke-dasharray:0.876273, 0.292091;stroke-dashoffset:0;stroke-opacity:1" />
    </g>
    <path
       id="path877"
       style="fill:#000000;stroke-width:0.0173521"
       d="m -13.812598,30.620825 c -0.177805,0 -0.320911,0.143106 -0.320911,0.320911 v 0.488859 c -0.105561,-0.0265 -0.216204,-0.04031 -0.330212,-0.04031 h -2.724381 c -0.743883,0 -1.342554,0.598671 -1.342554,1.342554 v 4.845699 c 0,0.743882 0.598671,1.34307 1.342554,1.34307 h 2.724381 c 0.114008,0 0.224651,-0.01432 0.330212,-0.04082 v 0.541052 c 0,0.177805 0.143106,0.320911 0.320911,0.320911 h 2.0283 c 0.177805,0 0.320911,-0.143106 0.320911,-0.320911 v -0.179317 h 0.809253 c 0.158245,0 0.286287,-0.127526 0.286287,-0.285771 v -0.322978 c 0.251997,-0.01392 0.273395,-0.03654 0.362769,-0.07286 0.2965963,-0.120517 0.5672327,-0.390855 0.6950476,-0.694532 0.101799,-0.241863 0.098185,-0.156233 0.098185,-2.723347 8e-7,-2.554152 0.00266,-2.477753 -0.094568,-2.717147 -0.1213395,-0.298619 -0.4020671,-0.580214 -0.6986646,-0.700733 -0.103804,-0.04218 -0.231444,-0.07136 -0.362769,-0.08527 v -0.230478 c 0,-0.158245 -0.128042,-0.285254 -0.286287,-0.285253 h -0.809253 v -0.182418 c 0,-0.177805 -0.143106,-0.320911 -0.320911,-0.320911 z m 6.0414917,1.355473 c -0.0048,-5.5e-5 -0.145628,0.242156 -0.3126425,0.537952 l -0.3038573,0.537434 h -0.2552816 -0.2563151 v 0.364836 0.364319 h 6.6342198 c 6.4917796,0 6.6371469,9.23e-4 6.7649618,0.03359 0.4534244,0.115968 0.8188034,0.480092 0.9343099,0.931727 0.051649,0.201957 0.047466,0.477361 -0.010335,0.676961 -0.070003,0.241731 -0.1488308,0.372625 -0.3374469,0.562239 -0.1360752,0.136793 -0.1903783,0.1786 -0.3121263,0.238229 -0.081119,0.03973 -0.1944,0.08579 -0.2516638,0.102836 -0.099065,0.0295 -0.4267385,0.0314 -6.7628954,0.03566 l -6.6590245,0.0047 v 0.364318 0.363802 h 0.2573485 0.2568319 l 0.3028241,0.536402 h -5.168e-4 c 0.1804805,0.320008 0.3088069,0.530535 0.3183269,0.521415 0.00877,-0.0084 0.1497017,-0.248053 0.3131589,-0.532267 l 0.2971395,-0.516248 0.1839683,-0.0052 0.1844847,-0.0052 0.2511475,0.438733 c 0.138239,0.241289 0.2772881,0.483655 0.3090246,0.538468 0.031739,0.05481 0.063722,0.09391 0.070797,0.08682 0.00707,-0.0071 0.1449784,-0.247508 0.306959,-0.533818 l 0.2945553,-0.520382 h 0.1870684 0.1870683 l 0.2697507,0.470256 c 0.1484974,0.258607 0.287991,0.499988 0.3100599,0.536401 l 0.040307,0.06615 0.107487,-0.189136 c 0.059259,-0.104068 0.1970669,-0.347793 0.3059245,-0.541052 l 0.1974029,-0.3514 0.1839701,5.17e-4 0.1834515,5.17e-4 0.3100573,0.538468 c 0.2713196,0.471445 0.3121475,0.534464 0.3307291,0.506946 0.011674,-0.01729 0.062714,-0.105189 0.1131729,-0.195853 0.050461,-0.09066 0.1814671,-0.319179 0.2909358,-0.50798 l 0.1989561,-0.343648 0.1819011,0.0052 0.181901,0.0052 0.3028236,0.528133 c 0.1667589,0.290792 0.3060726,0.531384 0.3090254,0.534335 0.00295,0.0029 0.1250844,-0.203837 0.2713011,-0.459404 0.14621663,-0.255566 0.28562563,-0.497907 0.31005726,-0.538468 l 0.0444421,-0.07338 h 0.17776825 0.17724966 l 0.10438606,0.177767 c 0.0573564,0.09782 0.19625204,0.339309 0.30850946,0.536402 0.11225741,0.197091 0.20813183,0.355372 0.21290491,0.352433 0.0048,-0.0029 0.14511073,-0.243303 0.31212631,-0.534852 l 0.30334214,-0.530716 0.18499935,-5.17e-4 0.1844859,-5.17e-4 0.2909385,0.515731 c 0.1600438,0.283925 0.2990162,0.526728 0.3085068,0.538985 0.020309,0.02623 0.00573,0.04853 0.3700039,-0.586527 l 0.2640674,-0.459404 h 0.1860338 0.1860365 l 0.2966217,0.523482 c 0.163285,0.287981 0.3010959,0.528035 0.3064431,0.533301 0.00535,0.0053 0.1484762,-0.231335 0.3178095,-0.525549 l 0.3079909,-0.534851 0.1767337,-0.01085 c 0.097327,-0.006 0.2003108,-0.01521 0.2289255,-0.02067 0.044527,-0.0085 0.1271455,0.0337 0.5725768,0.294039 0.2863109,0.167337 0.5266584,0.304178 0.5338154,0.304374 0.0072,1.26e-4 0.013176,-0.259382 0.013438,-0.576709 l 5.159e-4,-0.576709 0.107487,-0.117305 0.1080029,-0.117823 0.5451872,-0.07803 c 0.2997862,-0.04274 0.5516589,-0.07751 0.5596546,-0.07751 0.008,0 0.01447,-0.0057 0.01447,-0.01292 -2.65e-5,-0.0072 -0.1636422,-0.223945 -0.3638021,-0.481624 l -0.3638021,-0.468188 -5.159e-4,-0.0894 -5.186e-4,-0.08888 0.3663871,-0.471289 c 0.2015198,-0.259251 0.362069,-0.4756 0.3570843,-0.480591 -0.005,-0.005 -0.2589345,-0.0458 -0.564306,-0.09043 l -0.5550059,-0.08113 -0.1054206,-0.115238 -0.1054179,-0.114722 -0.00465,-0.582393 -0.00465,-0.582394 -0.5302012,0.309025 -0.5301986,0.309542 -0.085783,-0.01447 c -0.047188,-0.0078 -0.1486879,-0.0144 -0.2253112,-0.01499 L 4.0705469,33.051684 3.7610055,32.513216 C 3.5726037,32.185365 3.44463,31.980032 3.4349278,31.989734 c -0.00878,0.0088 -0.147873,0.249508 -0.3090254,0.534851 l -0.2930049,0.518831 -0.1808665,0.0052 -0.1808692,0.0047 -0.091466,-0.161231 c -0.2513811,-0.444183 -0.5281194,-0.915664 -0.5369194,-0.91527 -0.00544,2.3e-4 -0.1462431,0.242541 -0.3131582,0.538468 l -0.3033421,0.537952 -0.1803506,-0.0047 -0.18035056,-0.0052 -0.30592448,-0.532784 C 0.39143897,32.21762 0.24985778,31.977724 0.24494182,31.977331 c -0.004935,-4.35e-4 -0.14680406,0.239317 -0.31522722,0.532784 l -0.30592448,0.533301 -0.179832,0.0047 -0.17880276,0.0047 -0.0620104,-0.109037 C -1.1109869,32.393347 -1.3393858,32.000162 -1.3503105,31.9887 c -0.00727,-0.0076 -0.1264073,0.183339 -0.2650992,0.42478 -0.1386946,0.241468 -0.2782782,0.484109 -0.31006,0.538986 l -0.057875,0.09922 h -0.1751832 -0.1751833 l -0.2180748,-0.37724 c -0.1198325,-0.207575 -0.2587519,-0.449658 -0.3090254,-0.538468 -0.052319,-0.09242 -0.098272,-0.154945 -0.1069711,-0.146244 -0.00836,0.0084 -0.1494975,0.248695 -0.3141927,0.534334 l -0.2997226,0.519348 -0.181901,0.0047 -0.1819011,0.0052 -0.3028235,-0.538469 c -0.166632,-0.296104 -0.3069723,-0.538534 -0.3121264,-0.538468 -0.010811,1.57e-4 -0.00972,-0.0015 -0.3586347,0.607198 l -0.2635488,0.45992 -0.1813851,0.0052 -0.1808665,0.0047 -0.3023077,-0.537435 c -0.1661636,-0.295738 -0.3080279,-0.53614 -0.3162591,-0.533818 -0.00823,0.0023 -0.1525672,0.244021 -0.3203948,0.537435 l -0.3048907,0.533818 -0.1813843,-0.0047 -0.1803509,-0.0052 -0.3064412,-0.533301 c -0.1682676,-0.293409 -0.309418,-0.533765 -0.3141927,-0.533817 z m -3.6580297,1.20192 h 0.254248 0.589628 l -0.0041,1.467094 -0.0046,1.466577 -0.835091,-5.16e-4 z m 15.5849501,1.074943 c -0.034052,9.59e-4 -0.068665,0.004 -0.1033515,0.0098 -0.3179789,0.05269 -0.5953257,0.308085 -0.6655938,0.612882 -0.046961,0.2037 -0.00574,0.452755 0.1023197,0.621151 0.1139005,0.177497 0.3272631,0.3263 0.5234808,0.364836 0.4211055,0.0827 0.8340301,-0.179169 0.9430967,-0.597897 0.1339691,-0.514342 -0.289187,-1.024797 -0.7999519,-1.010791 z m 0.010335,0.382406 c 0.010515,-1.4e-4 0.021108,3e-4 0.031522,10e-4 0.2499889,0.01671 0.4661932,0.269922 0.3855059,0.558106 -0.027419,0.09794 -0.1395783,0.228839 -0.2330583,0.271301 -0.1779693,0.08084 -0.4165547,0.01508 -0.5245179,-0.14521 -0.1439386,-0.213705 -0.093268,-0.470843 0.1209225,-0.61495 0.070916,-0.04771 0.1460289,-0.0693 0.2196254,-0.07028 z m -15.2650731,1.962598 c 0.06704,-0.0017 0.136182,0.02099 0.195854,0.07338 0.110336,0.09688 0.139254,0.232544 0.07648,0.355534 -0.04194,0.08217 -0.08657,0.122352 -0.169498,0.151929 -0.08256,0.02942 -0.10199,0.0296 -0.185002,0 -0.128416,-0.04579 -0.202055,-0.147173 -0.202055,-0.27802 10e-7,-0.178014 0.136741,-0.299085 0.28422,-0.302823 z"
       sodipodi:nodetypes="sscsssssscsssscssccsscscsccssscccccccscsssscccccccccscccccsccccccccccccccssccccccscccccsccccccscccccccccssccccccsccccccscccccccccccccccccccccccccccccccccccccscccccccccccccccccccccccccccccssssccccssssccscscsss" />
    <g
       transform="matrix(0.35279357,0,0,0.35279357,27.66483,22.56444)"
       id="layer1-6-3-2"
       inkscape:label="Capa 1" />
    <g
       style="display:inline"
       id="g9128"
       transform="translate(-107.62953,-199.34653)">
      <path
         inkscape:connector-curvature="0"
         id="path9084"
         d="M 83.843672,227.37459 H 195.29507"
         style="fill:none;stroke:#000000;stroke-width:0.40000001;stroke-linecap:butt;stroke-linejoin:miter;stroke-miterlimit:4;stroke-dasharray:none;stroke-opacity:1" />
      <path
         inkscape:connector-curvature="0"
         id="path9084-3"
         d="M 83.843669,249.75895 H 195.29507"
         style="fill:none;stroke:#000000;stroke-width:0.40000001;stroke-linecap:butt;stroke-linejoin:miter;stroke-miterlimit:4;stroke-dasharray:none;stroke-opacity:1" />
    </g>
    <g
       id="g383"
       transform="matrix(1.3240563,0,0,1.3240565,-11.756817,13.836628)">
      <circle
         r="2.9059739"
         cy="15.820772"
         cx="24.290676"
         id="path1760-3-7"
         style="opacity:1;vector-effect:none;fill:#ffffff;fill-opacity:1;stroke:#000000;stroke-width:0.31159922;stroke-linecap:butt;stroke-linejoin:miter;stroke-miterlimit:4;stroke-dasharray:none;stroke-dashoffset:0;stroke-opacity:1" />
      <path
         inkscape:export-ydpi="300"
         inkscape:export-xdpi="300"
         inkscape:export-filename="1sword.png"
         sodipodi:nodetypes="cccccccsccssscssscsscscsscscccccccscscc"
         inkscape:connector-curvature="0"
         id="path1327"
         d="m 22.955075,17.371526 c 0.03685,-0.0091 0.06702,-0.02719 0.09377,-0.05619 0.03556,-0.03859 0.04582,-0.06185 0.04903,-0.111267 l 0.0028,-0.04328 0.250709,-0.250653 0.250707,-0.250653 0.06274,-5.02e-4 c 0.08226,-5.03e-4 0.114477,-0.01495 0.181922,-0.08061 l 0.04803,-0.04677 0.11105,0.110465 c 0.108933,0.108355 0.111538,0.110464 0.136755,0.110464 0.03549,0 0.05551,-0.02005 0.05551,-0.05556 0,-0.02537 -0.0018,-0.02755 -0.124401,-0.150661 l -0.1244,-0.124923 0.694148,-0.695057 c 0.782416,-0.783438 0.821412,-0.825699 0.988767,-1.071481 0.104214,-0.153054 0.21731,-0.351482 0.21731,-0.38128 0,-0.0098 -0.0048,-0.01849 -0.01222,-0.0225 -0.02594,-0.01391 -0.312856,0.156865 -0.50722,0.301841 -0.162718,0.12137 -0.224401,0.180047 -0.934768,0.889204 l -0.710463,0.70925 -0.118284,-0.118959 c -0.06506,-0.06543 -0.126483,-0.122533 -0.136501,-0.126903 -0.03885,-0.01693 -0.08196,0.01271 -0.08196,0.05633 0,0.02036 0.0082,0.03015 0.112296,0.134803 l 0.112296,0.112859 -0.0458,0.04536 c -0.03088,0.03057 -0.05212,0.05818 -0.06524,0.08474 -0.01811,0.03667 -0.01944,0.04364 -0.01928,0.101551 l 1.54e-4,0.06217 -0.246233,0.246178 -0.246234,0.246179 -0.03999,0.0021 c -0.04865,0.0026 -0.08662,0.01864 -0.121873,0.05115 -0.04341,0.04 -0.05637,0.07233 -0.05637,0.14059 0,0.0524 0.0016,0.06035 0.01721,0.08695 0.0095,0.0161 0.02585,0.03766 0.03643,0.04792 0.03961,0.03839 0.117208,0.05992 0.169582,0.04698 z"
         style="fill:#000000;stroke:#000000;stroke-width:0.16442627;stroke-miterlimit:4;stroke-dasharray:none;stroke-opacity:1" />
    </g>
    <g
       style="display:inline"
       id="g1033"
       transform="translate(19.247686,66.198426)">
      <rect
         y="-36.617252"
         x="21.17853"
         height="8.2894325"
         width="8.2894325"
         id="rect925-7-3-61-49-09"
         style="display:inline;opacity:1;vector-effect:none;fill:#ffffff;fill-opacity:1;stroke:#000000;stroke-width:0.71056741;stroke-linecap:butt;stroke-linejoin:miter;stroke-miterlimit:4;stroke-dasharray:none;stroke-dashoffset:0;stroke-opacity:1" />
      <rect
         y="-36.617252"
         x="31.46801"
         height="8.2894325"
         width="8.2894325"
         id="rect925-7-3-61-49-0-6"
         style="display:inline;opacity:1;vector-effect:none;fill:#ffffff;fill-opacity:1;stroke:#000000;stroke-width:0.71056741;stroke-linecap:butt;stroke-linejoin:miter;stroke-miterlimit:4;stroke-dasharray:none;stroke-dashoffset:0;stroke-opacity:1" />
      <rect
         y="-36.617252"
         x="41.757488"
         height="8.2894325"
         width="8.2894325"
         id="rect925-7-3-61-49-9-3"
         style="display:inline;opacity:1;vector-effect:none;fill:#ffffff;fill-opacity:1;stroke:#000000;stroke-width:0.71056741;stroke-linecap:butt;stroke-linejoin:miter;stroke-miterlimit:4;stroke-dasharray:none;stroke-dashoffset:0;stroke-opacity:1" />
      <rect
         y="-36.617252"
         x="52.046974"
         height="8.2894325"
         width="8.2894325"
         id="rect925-7-3-61-49-1-8"
         style="display:inline;opacity:1;vector-effect:none;fill:#ffffff;fill-opacity:1;stroke:#000000;stroke-width:0.71056741;stroke-linecap:butt;stroke-linejoin:miter;stroke-miterlimit:4;stroke-dasharray:none;stroke-dashoffset:0;stroke-opacity:1" />
      <rect
         y="-36.617252"
         x="62.336449"
         height="8.2894325"
         width="8.2894325"
         id="rect925-7-3-61-49-7-5"
         style="display:inline;opacity:1;vector-effect:none;fill:#ffffff;fill-opacity:1;stroke:#000000;stroke-width:0.71056741;stroke-linecap:butt;stroke-linejoin:miter;stroke-miterlimit:4;stroke-dasharray:none;stroke-dashoffset:0;stroke-opacity:1" />
    </g>
    <path
       inkscape:connector-curvature="0"
       id="path1183-5"
       d="m 40.024002,43.317011 v 5.58932"
       style="fill:none;stroke:#000000;stroke-width:0.264583px;stroke-linecap:butt;stroke-linejoin:miter;stroke-opacity:1" />
    <path
       inkscape:connector-curvature="0"
       id="path1183-2-3"
       d="m 66.456089,43.500759 v 5.58932"
       style="fill:none;stroke:#000000;stroke-width:0.264583px;stroke-linecap:butt;stroke-linejoin:miter;stroke-opacity:1" />
    <text
       id="text1088-5"
       y="47.510666"
       x="16.060684"
       style="font-style:normal;font-weight:normal;font-size:132.329px;line-height:1.25;font-family:sans-serif;letter-spacing:0px;word-spacing:0px;fill:#000000;fill-opacity:1;stroke:none;stroke-width:0.220548"
       xml:space="preserve"><tspan
         style="font-size:2.64658px;stroke-width:0.220548"
         y="47.510666"
         x="16.060684"
         id="tspan1086-6"
         sodipodi:role="line">1</tspan></text>
    <path
       sodipodi:nodetypes="cc"
       inkscape:connector-curvature="0"
       id="path1090-29"
       d="m 19.807967,46.557733 h 14"
       style="fill:none;stroke:#000000;stroke-width:0.209302px;stroke-linecap:butt;stroke-linejoin:miter;stroke-opacity:1" />
    <text
       id="text1088-0-1"
       y="47.528107"
       x="34.195385"
       style="font-style:normal;font-weight:normal;font-size:132.329px;line-height:1.25;font-family:sans-serif;letter-spacing:0px;word-spacing:0px;fill:#000000;fill-opacity:1;stroke:none;stroke-width:0.220548"
       xml:space="preserve"><tspan
         style="font-size:2.64658px;stroke-width:0.220548"
         y="47.528107"
         x="34.195385"
         id="tspan1086-9-27"
         sodipodi:role="line">5</tspan></text>
    <g
       id="g1907"
       transform="translate(-1.4679109)">
      <g
         transform="matrix(0.35279357,0,0,0.35279357,19.903699,27.429703)"
         id="layer1-6-8-10-3-1"
         inkscape:label="Capa 1">
        <path
           sodipodi:nodetypes="cccssssssccscscccccsscscssccscsccscccccsscsssscs"
           inkscape:connector-curvature="0"
           id="path828-79-6-6-2"
           d="m 15.55133,51.922274 c -0.685146,-0.279517 -3.20637,-1.507059 -3.324727,-1.618753 -0.03438,-0.03244 -0.07718,-0.127286 -0.09554,-0.211722 -0.08948,-0.411375 -0.262648,-1.722668 -0.332832,-2.520399 -0.05025,-0.57112 -0.0596,-2.009074 -0.01364,-2.094972 0.04031,-0.07531 0.184184,-0.143729 0.562025,-0.267256 0.722856,-0.236322 1.733468,-0.499615 2.410752,-0.628071 0.275408,-0.05224 0.396016,-0.0603 0.707347,-0.04732 0.415417,0.01732 1.429283,0.142198 2.38188,0.293384 0.766175,0.121598 1.019543,0.178219 1.103853,0.246676 l 0.06543,0.05313 -0.0077,1.496494 c -0.0081,1.566318 -0.04308,2.635128 -0.0968,2.95367 -0.03024,0.179307 -0.04114,0.197626 -0.223796,0.376151 -0.196508,0.192058 -2.306176,1.852072 -2.49635,1.964276 -0.172205,0.101604 -0.398334,0.103271 -0.639907,0.0047 z m 0.681956,-0.312805 c 0.354128,-0.250525 1.358355,-1.012126 1.81541,-1.376797 0.537371,-0.428752 0.598921,-0.493547 0.633573,-0.666962 0.06192,-0.309915 0.154976,-1.794696 0.205292,-3.275805 0.02806,-0.82606 0.02665,-0.940151 -0.01209,-0.978893 -0.05115,-0.05115 -0.07672,-0.04286 -1.158797,0.375245 -1.269982,0.490712 -1.8449,0.758627 -1.912296,0.891141 -0.06033,0.118622 -0.03326,2.613007 0.04901,4.516299 0.02534,0.586113 0.04026,0.707347 0.08705,0.707347 0.01213,0 0.143904,-0.08621 0.292842,-0.191575 z m -0.622651,-1.013802 c -0.01218,-0.535923 -0.02681,-1.694557 -0.03252,-2.574744 -0.0081,-1.255585 -0.01836,-1.607633 -0.04745,-1.63421 -0.106289,-0.0971 -3.10159,-0.677511 -3.496415,-0.677511 h -0.135139 l 3.71e-4,0.281495 c 5.78e-4,0.445614 0.107808,1.632044 0.261587,2.894346 0.106753,0.876288 0.163675,1.197828 0.22476,1.269608 0.108101,0.127026 1.297194,0.741581 1.931131,0.998059 0.417345,0.168849 1.151926,0.414027 1.246224,0.415946 l 0.06959,0.0014 z m 0.778946,-4.666157 c 0.521312,-0.175316 1.631211,-0.587253 1.882404,-0.698649 0.123751,-0.05488 0.155359,-0.08002 0.123166,-0.09796 -0.08273,-0.04609 -1.835693,-0.312599 -2.781117,-0.422813 -0.349053,-0.04069 -0.466344,-0.04391 -0.635169,-0.01741 -0.320219,0.05026 -2.598014,0.698144 -2.656719,0.755658 -0.03178,0.03113 0.194652,0.08146 1.179323,0.262104 1.326108,0.243286 2.097867,0.369927 2.267379,0.372065 0.120438,0.0015 0.273269,-0.03615 0.620733,-0.153004 z"
           style="fill:#000000;stroke:#000000;stroke-width:0.229;stroke-miterlimit:4;stroke-dasharray:none;stroke-opacity:1" />
      </g>
      <path
         sodipodi:nodetypes="cccssssssccscscccccsscscssccscsccscccccsscsssscs"
         inkscape:connector-curvature="0"
         id="path828-6-0-0-7"
         d="m 28.334385,45.751608 c -0.241715,-0.09861 -1.131187,-0.531681 -1.172942,-0.571086 -0.01213,-0.01144 -0.02723,-0.0449 -0.03371,-0.07469 -0.03157,-0.14513 -0.09266,-0.607746 -0.117421,-0.88918 -0.01773,-0.201488 -0.02103,-0.708789 -0.0048,-0.739093 0.01422,-0.02657 0.06498,-0.05071 0.198279,-0.09429 0.255019,-0.08337 0.611556,-0.176261 0.850497,-0.22158 0.09716,-0.01843 0.139712,-0.02127 0.249548,-0.01669 0.146556,0.0061 0.504242,0.05017 0.840312,0.103504 0.270301,0.0429 0.359688,0.06288 0.389432,0.08703 l 0.02308,0.01874 -0.0027,0.527953 c -0.0029,0.552587 -0.0152,0.929656 -0.03415,1.042036 -0.01067,0.06326 -0.01451,0.06972 -0.07895,0.132704 -0.06933,0.06776 -0.813604,0.653399 -0.880697,0.692984 -0.06075,0.03584 -0.140529,0.03643 -0.225755,0.0017 z m 0.24059,-0.110356 c 0.124934,-0.08838 0.479219,-0.357071 0.640465,-0.485725 0.189581,-0.151261 0.211295,-0.17412 0.22352,-0.2353 0.02184,-0.109336 0.05468,-0.633157 0.07243,-1.155683 0.0099,-0.291428 0.0094,-0.331679 -0.0043,-0.345347 -0.01805,-0.01805 -0.02707,-0.01512 -0.408817,0.132384 -0.448041,0.17312 -0.650868,0.267639 -0.674645,0.314389 -0.02128,0.04185 -0.01173,0.921852 0.01729,1.593321 0.0089,0.206777 0.0142,0.249548 0.03071,0.249548 0.0043,0 0.05077,-0.03041 0.103313,-0.06759 z m -0.219668,-0.357663 c -0.0043,-0.18907 -0.0095,-0.597828 -0.01147,-0.908353 -0.0029,-0.442962 -0.0065,-0.567162 -0.01674,-0.576538 -0.0375,-0.03426 -1.094221,-0.239022 -1.233513,-0.239022 h -0.04768 l 1.31e-4,0.09931 c 2.04e-4,0.157209 0.03803,0.575774 0.09229,1.021106 0.03766,0.309149 0.05774,0.422586 0.07929,0.44791 0.03814,0.04481 0.457641,0.261625 0.68129,0.352109 0.147237,0.05957 0.406392,0.146066 0.43966,0.146743 l 0.02455,4.94e-4 z m 0.274808,-1.64619 c 0.183915,-0.06185 0.57548,-0.207179 0.6641,-0.246479 0.04366,-0.01936 0.05481,-0.02823 0.04345,-0.03456 -0.02919,-0.01626 -0.647621,-0.110283 -0.98116,-0.149166 -0.123144,-0.01436 -0.164524,-0.01549 -0.224084,-0.0061 -0.112971,0.01773 -0.916562,0.246301 -0.937273,0.266591 -0.01121,0.01098 0.06867,0.02874 0.416057,0.09247 0.467843,0.08583 0.740114,0.130508 0.799917,0.131262 0.04249,5.29e-4 0.09641,-0.01275 0.218991,-0.05398 z"
         style="fill:#000000;stroke:#000000;stroke-width:0.0807897;stroke-miterlimit:4;stroke-dasharray:none;stroke-opacity:1" />
      <path
         sodipodi:nodetypes="cccssssssccscscccccsscscssccscsccscccccsscsssscs"
         inkscape:connector-curvature="0"
         id="path828-6-0-0-7-3"
         d="m 31.278659,45.751608 c -0.241715,-0.09861 -1.131187,-0.531681 -1.172942,-0.571086 -0.01213,-0.01144 -0.02723,-0.0449 -0.03371,-0.07469 -0.03157,-0.14513 -0.09266,-0.607746 -0.117421,-0.88918 -0.01773,-0.201488 -0.02103,-0.708789 -0.0048,-0.739093 0.01422,-0.02657 0.06498,-0.05071 0.198279,-0.09429 0.255019,-0.08337 0.611556,-0.176261 0.850497,-0.22158 0.09716,-0.01843 0.139712,-0.02127 0.249548,-0.01669 0.146556,0.0061 0.504242,0.05017 0.840312,0.103504 0.270301,0.0429 0.359688,0.06288 0.389432,0.08703 l 0.02308,0.01874 -0.0027,0.527953 c -0.0029,0.552587 -0.0152,0.929656 -0.03415,1.042036 -0.01067,0.06326 -0.01451,0.06972 -0.07895,0.132704 -0.06933,0.06776 -0.813604,0.653399 -0.880697,0.692984 -0.06075,0.03584 -0.140529,0.03643 -0.225755,0.0017 z m 0.24059,-0.110356 c 0.124934,-0.08838 0.479219,-0.357071 0.640465,-0.485725 0.189581,-0.151261 0.211295,-0.17412 0.22352,-0.2353 0.02184,-0.109336 0.05468,-0.633157 0.07243,-1.155683 0.0099,-0.291428 0.0094,-0.331679 -0.0043,-0.345347 -0.01805,-0.01805 -0.02707,-0.01512 -0.408817,0.132384 -0.448041,0.17312 -0.650868,0.267639 -0.674645,0.314389 -0.02128,0.04185 -0.01173,0.921852 0.01729,1.593321 0.0089,0.206777 0.0142,0.249548 0.03071,0.249548 0.0043,0 0.05077,-0.03041 0.103313,-0.06759 z m -0.219668,-0.357663 c -0.0043,-0.18907 -0.0095,-0.597828 -0.01147,-0.908353 -0.0029,-0.442962 -0.0065,-0.567162 -0.01674,-0.576538 -0.0375,-0.03426 -1.094221,-0.239022 -1.233513,-0.239022 h -0.04768 l 1.31e-4,0.09931 c 2.04e-4,0.157209 0.03803,0.575774 0.09229,1.021106 0.03766,0.309149 0.05774,0.422586 0.07929,0.44791 0.03814,0.04481 0.457641,0.261625 0.68129,0.352109 0.147237,0.05957 0.406392,0.146066 0.43966,0.146743 l 0.02455,4.94e-4 z m 0.274808,-1.64619 c 0.183915,-0.06185 0.57548,-0.207179 0.6641,-0.246479 0.04366,-0.01936 0.05481,-0.02823 0.04345,-0.03456 -0.02919,-0.01626 -0.647621,-0.110283 -0.98116,-0.149166 -0.123144,-0.01436 -0.164524,-0.01549 -0.224084,-0.0061 -0.112971,0.01773 -0.916562,0.246301 -0.937273,0.266591 -0.01121,0.01098 0.06867,0.02874 0.416057,0.09247 0.467843,0.08583 0.740114,0.130508 0.799917,0.131262 0.04249,5.29e-4 0.09641,-0.01275 0.218991,-0.05398 z"
         style="fill:#000000;stroke:#000000;stroke-width:0.0807897;stroke-miterlimit:4;stroke-dasharray:none;stroke-opacity:1" />
    </g>
  </g>
</svg>
