<?xml version="1.0" encoding="UTF-8" standalone="no"?>
<!-- Created with Inkscape (http://www.inkscape.org/) -->

<svg
   xmlns:dc="http://purl.org/dc/elements/1.1/"
   xmlns:cc="http://creativecommons.org/ns#"
   xmlns:rdf="http://www.w3.org/1999/02/22-rdf-syntax-ns#"
   xmlns:svg="http://www.w3.org/2000/svg"
   xmlns="http://www.w3.org/2000/svg"
   xmlns:sodipodi="http://sodipodi.sourceforge.net/DTD/sodipodi-0.dtd"
   xmlns:inkscape="http://www.inkscape.org/namespaces/inkscape"
   width="120mm"
   height="23.016712mm"
   viewBox="0 0 120 23.016712"
   version="1.1"
   id="svg1100"
   inkscape:version="0.92.5 (2060ec1f9f, 2020-04-08)"
   sodipodi:docname="Claw.svg">
  <defs
     id="defs1094" />
  <sodipodi:namedview
     id="base"
     pagecolor="#ffffff"
     bordercolor="#666666"
     borderopacity="1.0"
     inkscape:pageopacity="0.0"
     inkscape:pageshadow="2"
     inkscape:zoom="1.4142136"
     inkscape:cx="46.790097"
     inkscape:cy="19.922863"
     inkscape:document-units="mm"
     inkscape:current-layer="layer1"
     showgrid="false"
     inkscape:window-width="1848"
     inkscape:window-height="1016"
     inkscape:window-x="72"
     inkscape:window-y="27"
     inkscape:window-maximized="1"
     fit-margin-top="0"
     fit-margin-left="0"
     fit-margin-right="0"
     fit-margin-bottom="0"
     inkscape:snap-global="true"
     inkscape:snap-bbox="true" />
  <metadata
     id="metadata1097">
    <rdf:RDF>
      <cc:Work
         rdf:about="">
        <dc:format>image/svg+xml</dc:format>
        <dc:type
           rdf:resource="http://purl.org/dc/dcmitype/StillImage" />
        <dc:title></dc:title>
      </cc:Work>
    </rdf:RDF>
  </metadata>
  <g
     inkscape:groupmode="layer"
     id="layer3"
     inkscape:label="Background"
     style="display:inline" />
  <g
     inkscape:groupmode="layer"
     id="layer2"
     inkscape:label="Guias"
     style="display:inline"
     transform="translate(0,0.2323513)">
    <g
       id="g1399"
       transform="translate(-6.7978492)">
      <rect
         y="11.402682"
         x="50.431446"
         height="11"
         width="74.99527"
         id="rect1878-3"
         style="display:inline;opacity:1;vector-effect:none;fill:#ffe680;fill-opacity:1;stroke:none;stroke-width:0.47467926;stroke-linecap:butt;stroke-linejoin:miter;stroke-miterlimit:4;stroke-dasharray:none;stroke-dashoffset:0;stroke-opacity:1" />
      <rect
         y="0.30218902"
         x="8.1689825"
         height="22.148087"
         width="42.262463"
         id="rect1868"
         style="display:inline;opacity:1;vector-effect:none;fill:#decd87;fill-opacity:1;stroke:none;stroke-width:0.39467782;stroke-linecap:butt;stroke-linejoin:miter;stroke-miterlimit:4;stroke-dasharray:none;stroke-dashoffset:0;stroke-opacity:1" />
      <rect
         y="0.39782956"
         x="50.431446"
         height="11"
         width="74.99527"
         id="rect1878"
         style="display:inline;opacity:1;vector-effect:none;fill:#deaa87;fill-opacity:1;stroke:none;stroke-width:0.47467929;stroke-linecap:butt;stroke-linejoin:miter;stroke-miterlimit:4;stroke-dasharray:none;stroke-dashoffset:0;stroke-opacity:1" />
      <rect
         y="12.891373"
         x="76.863533"
         height="8.0226164"
         width="22"
         id="rect1878-7-3"
         style="display:inline;opacity:1;vector-effect:none;fill:#eeffaa;fill-opacity:1;stroke:none;stroke-width:0.19344766;stroke-linecap:butt;stroke-linejoin:miter;stroke-miterlimit:4;stroke-dasharray:none;stroke-dashoffset:0;stroke-opacity:1" />
      <rect
         y="12.891415"
         x="103.2956"
         height="8.0226164"
         width="22"
         id="rect1878-7-56"
         style="display:inline;opacity:1;vector-effect:none;fill:#ccffaa;fill-opacity:1;stroke:none;stroke-width:0.21753596;stroke-linecap:butt;stroke-linejoin:miter;stroke-miterlimit:4;stroke-dasharray:none;stroke-dashoffset:0;stroke-opacity:1" />
      <rect
         y="12.680782"
         x="50.431446"
         height="8.443799"
         width="22"
         id="rect1878-7"
         style="display:inline;opacity:1;vector-effect:none;fill:#ff9955;fill-opacity:1;stroke:none;stroke-width:0.22317314;stroke-linecap:butt;stroke-linejoin:miter;stroke-miterlimit:4;stroke-dasharray:none;stroke-dashoffset:0;stroke-opacity:1" />
      <rect
         y="13.158642"
         x="77.363533"
         height="7.4880772"
         width="21"
         id="rect1878-7-2-7"
         style="display:inline;opacity:1;vector-effect:none;fill:#ddff55;fill-opacity:1;stroke:none;stroke-width:0.20533194;stroke-linecap:butt;stroke-linejoin:miter;stroke-miterlimit:4;stroke-dasharray:none;stroke-dashoffset:0;stroke-opacity:1" />
      <rect
         y="13.158684"
         x="103.7956"
         height="7.4880772"
         width="21"
         id="rect1878-7-2-7-0"
         style="display:inline;opacity:1;vector-effect:none;fill:#66ff00;fill-opacity:1;stroke:none;stroke-width:0.20533194;stroke-linecap:butt;stroke-linejoin:miter;stroke-miterlimit:4;stroke-dasharray:none;stroke-dashoffset:0;stroke-opacity:1" />
      <rect
         y="13.158642"
         x="50.931446"
         height="7.4880772"
         width="21"
         id="rect1878-7-2"
         style="display:inline;opacity:1;vector-effect:none;fill:#d45500;fill-opacity:1;stroke:none;stroke-width:0.20533194;stroke-linecap:butt;stroke-linejoin:miter;stroke-miterlimit:4;stroke-dasharray:none;stroke-dashoffset:0;stroke-opacity:1" />
    </g>
  </g>
  <g
     inkscape:label="Capa 1"
     inkscape:groupmode="layer"
     id="layer1"
     transform="translate(28.060163,-27.595709)"
     style="display:inline">
    <g
       transform="matrix(0.35279357,0,0,0.35279357,27.66483,22.56444)"
       id="layer1-6-3-2"
       inkscape:label="Capa 1" />
    <rect
       style="display:inline;opacity:1;fill:#ffffff;fill-opacity:1;stroke:none;stroke-width:0.71100003;stroke-miterlimit:4;stroke-dasharray:none;stroke-dashoffset:0;stroke-opacity:1"
       id="rect1126"
       width="119.99902"
       height="23.017704"
       x="-28.060163"
       y="27.595709" />
    <g
       style="display:inline"
       id="g9128"
       transform="translate(-107.62953,-199.34653)">
      <path
         inkscape:connector-curvature="0"
         id="path9084"
         d="M 83.843672,227.37459 H 195.29507"
         style="fill:none;stroke:#000000;stroke-width:0.40000001;stroke-linecap:butt;stroke-linejoin:miter;stroke-miterlimit:4;stroke-dasharray:none;stroke-opacity:1" />
      <path
         inkscape:connector-curvature="0"
         id="path9084-3"
         d="M 83.843669,249.75895 H 195.29507"
         style="fill:none;stroke:#000000;stroke-width:0.40000001;stroke-linecap:butt;stroke-linejoin:miter;stroke-miterlimit:4;stroke-dasharray:none;stroke-opacity:1" />
    </g>
    <g
       id="g383"
       transform="matrix(1.3240563,0,0,1.3240565,-11.756817,13.836628)">
      <circle
         r="2.9059739"
         cy="15.820772"
         cx="24.290676"
         id="path1760-3-7"
         style="opacity:1;vector-effect:none;fill:#ffffff;fill-opacity:1;stroke:#000000;stroke-width:0.31159922;stroke-linecap:butt;stroke-linejoin:miter;stroke-miterlimit:4;stroke-dasharray:none;stroke-dashoffset:0;stroke-opacity:1" />
      <path
         inkscape:export-ydpi="300"
         inkscape:export-xdpi="300"
         inkscape:export-filename="1sword.png"
         sodipodi:nodetypes="cccccccsccssscssscsscscsscscccccccscscc"
         inkscape:connector-curvature="0"
         id="path1327"
         d="m 22.955075,17.371526 c 0.03685,-0.0091 0.06702,-0.02719 0.09377,-0.05619 0.03556,-0.03859 0.04582,-0.06185 0.04903,-0.111267 l 0.0028,-0.04328 0.250709,-0.250653 0.250707,-0.250653 0.06274,-5.02e-4 c 0.08226,-5.03e-4 0.114477,-0.01495 0.181922,-0.08061 l 0.04803,-0.04677 0.11105,0.110465 c 0.108933,0.108355 0.111538,0.110464 0.136755,0.110464 0.03549,0 0.05551,-0.02005 0.05551,-0.05556 0,-0.02537 -0.0018,-0.02755 -0.124401,-0.150661 l -0.1244,-0.124923 0.694148,-0.695057 c 0.782416,-0.783438 0.821412,-0.825699 0.988767,-1.071481 0.104214,-0.153054 0.21731,-0.351482 0.21731,-0.38128 0,-0.0098 -0.0048,-0.01849 -0.01222,-0.0225 -0.02594,-0.01391 -0.312856,0.156865 -0.50722,0.301841 -0.162718,0.12137 -0.224401,0.180047 -0.934768,0.889204 l -0.710463,0.70925 -0.118284,-0.118959 c -0.06506,-0.06543 -0.126483,-0.122533 -0.136501,-0.126903 -0.03885,-0.01693 -0.08196,0.01271 -0.08196,0.05633 0,0.02036 0.0082,0.03015 0.112296,0.134803 l 0.112296,0.112859 -0.0458,0.04536 c -0.03088,0.03057 -0.05212,0.05818 -0.06524,0.08474 -0.01811,0.03667 -0.01944,0.04364 -0.01928,0.101551 l 1.54e-4,0.06217 -0.246233,0.246178 -0.246234,0.246179 -0.03999,0.0021 c -0.04865,0.0026 -0.08662,0.01864 -0.121873,0.05115 -0.04341,0.04 -0.05637,0.07233 -0.05637,0.14059 0,0.0524 0.0016,0.06035 0.01721,0.08695 0.0095,0.0161 0.02585,0.03766 0.03643,0.04792 0.03961,0.03839 0.117208,0.05992 0.169582,0.04698 z"
         style="fill:#000000;stroke:#000000;stroke-width:0.16442627;stroke-miterlimit:4;stroke-dasharray:none;stroke-opacity:1" />
    </g>
    <g
       style="display:inline"
       id="g1033"
       transform="translate(19.247686,66.198426)">
      <rect
         y="-36.617252"
         x="21.17853"
         height="8.2894325"
         width="8.2894325"
         id="rect925-7-3-61-49-09"
         style="display:inline;opacity:1;vector-effect:none;fill:#ffffff;fill-opacity:1;stroke:#000000;stroke-width:0.71056741;stroke-linecap:butt;stroke-linejoin:miter;stroke-miterlimit:4;stroke-dasharray:none;stroke-dashoffset:0;stroke-opacity:1" />
      <rect
         y="-36.617252"
         x="31.46801"
         height="8.2894325"
         width="8.2894325"
         id="rect925-7-3-61-49-0-6"
         style="display:inline;opacity:1;vector-effect:none;fill:#ffffff;fill-opacity:1;stroke:#000000;stroke-width:0.71056741;stroke-linecap:butt;stroke-linejoin:miter;stroke-miterlimit:4;stroke-dasharray:none;stroke-dashoffset:0;stroke-opacity:1" />
      <rect
         y="-36.617252"
         x="41.757488"
         height="8.2894325"
         width="8.2894325"
         id="rect925-7-3-61-49-9-3"
         style="display:inline;opacity:1;vector-effect:none;fill:#ffffff;fill-opacity:1;stroke:#000000;stroke-width:0.71056741;stroke-linecap:butt;stroke-linejoin:miter;stroke-miterlimit:4;stroke-dasharray:none;stroke-dashoffset:0;stroke-opacity:1" />
      <rect
         y="-36.617252"
         x="52.046974"
         height="8.2894325"
         width="8.2894325"
         id="rect925-7-3-61-49-1-8"
         style="display:inline;opacity:1;vector-effect:none;fill:#ffffff;fill-opacity:1;stroke:#000000;stroke-width:0.71056741;stroke-linecap:butt;stroke-linejoin:miter;stroke-miterlimit:4;stroke-dasharray:none;stroke-dashoffset:0;stroke-opacity:1" />
      <rect
         y="-36.617252"
         x="62.336449"
         height="8.2894325"
         width="8.2894325"
         id="rect925-7-3-61-49-7-5"
         style="display:inline;opacity:1;vector-effect:none;fill:#ffffff;fill-opacity:1;stroke:#000000;stroke-width:0.71056741;stroke-linecap:butt;stroke-linejoin:miter;stroke-miterlimit:4;stroke-dasharray:none;stroke-dashoffset:0;stroke-opacity:1" />
    </g>
    <g
       id="g226"
       transform="translate(2.2151513,1.0583333)">
      <path
         inkscape:export-ydpi="300"
         inkscape:export-xdpi="300"
         inkscape:export-filename="1flame.png"
         sodipodi:nodetypes="ccccsccccscccccscscccsccccccc"
         inkscape:connector-curvature="0"
         id="path826-3-3"
         d="m -11.992062,47.899798 c -0.74036,-0.42454 -1.16313,-1.30599 -1.029019,-2.14547 0.0723,-0.45236 0.205399,-0.75728 0.51281,-1.17452 0.855259,-1.16082 1.01121,-1.47811 1.05736,-2.15132 0.0145,-0.21106 0.0365,-0.38375 0.049,-0.38375 0.0124,0 0.167669,0.10751 0.34492,0.23891 0.70314,0.52126 1.0979695,1.22932 1.1901695,2.13433 l 0.0354,0.34789 0.128,-0.13562 c 0.0704,-0.0746 0.15533,-0.22937 0.18875,-0.34397 l 0.0608,-0.20837 0.19096,0.39085 c 0.22784,0.46637 0.37001,0.95442 0.40995,1.40733 0.0722,0.81861 -0.34268,1.61611 -1.05246,2.0231 -0.2845895,0.16319 -0.3925495,0.19094 -0.2225405,0.0572 0.1735505,-0.13653 0.3687505,-0.53511 0.3972405,-0.81118 0.0384,-0.37175 -0.0755,-0.6917 -0.4090205,-1.14935 -0.334519,-0.45901 -0.487779,-0.77035 -0.53289,-1.08258 l -0.0324,-0.22468 -0.18305,0.17817 c -0.34858,0.3393 -0.59597,1.08145 -0.53423,1.6027 0.0148,0.1247 0.009,0.22675 -0.0126,0.22675 -0.089,0 -0.32551,-0.33503 -0.3523,-0.49904 -0.0158,-0.0965 -0.0345,-0.20683 -0.0417,-0.2452 -0.0169,-0.0902 -0.24643,0.40925 -0.30533,0.66445 -0.10999,0.4766 -0.0184,0.91088 0.26098,1.23724 0.0901,0.10532 0.15703,0.19129 0.14864,0.19105 -0.008,-1.8e-4 -0.12865,-0.0654 -0.26725,-0.14494 z"
         style="fill:#000000;stroke:#000000;stroke-width:0.30000001;stroke-miterlimit:4;stroke-dasharray:none;stroke-opacity:1" />
      <circle
         r="1.6063988"
         cy="45.131767"
         cx="-4.4457111"
         id="path3810-6"
         style="opacity:1;vector-effect:none;fill:#000000;fill-opacity:1;stroke:none;stroke-width:0.29209089;stroke-linecap:butt;stroke-linejoin:miter;stroke-miterlimit:4;stroke-dasharray:0.87627266, 0.29209089;stroke-dashoffset:0;stroke-opacity:1" />
    </g>
    <g
       id="g467"
       transform="translate(10.784234,-23.218246)">
      <path
         inkscape:connector-curvature="0"
         id="path1183-5"
         d="m 29.239768,66.535257 v 5.58932"
         style="fill:none;stroke:#000000;stroke-width:0.26458332px;stroke-linecap:butt;stroke-linejoin:miter;stroke-opacity:1" />
      <path
         inkscape:connector-curvature="0"
         id="path1183-2-3"
         d="m 55.671855,66.719005 v 5.58932"
         style="fill:none;stroke:#000000;stroke-width:0.26458332px;stroke-linecap:butt;stroke-linejoin:miter;stroke-opacity:1" />
      <text
         id="text1088-5"
         y="70.728912"
         x="5.2764497"
         style="font-style:normal;font-weight:normal;font-size:132.3289032px;line-height:1.25;font-family:sans-serif;letter-spacing:0px;word-spacing:0px;fill:#000000;fill-opacity:1;stroke:none;stroke-width:0.22054817"
         xml:space="preserve"><tspan
           style="font-size:2.64657831px;stroke-width:0.22054817"
           y="70.728912"
           x="5.2764497"
           id="tspan1086-6"
           sodipodi:role="line">1</tspan></text>
      <path
         sodipodi:nodetypes="cc"
         inkscape:connector-curvature="0"
         id="path1090-29"
         d="M 9.0237331,69.775979 H 23.023733"
         style="fill:none;stroke:#000000;stroke-width:0.2093017px;stroke-linecap:butt;stroke-linejoin:miter;stroke-opacity:1" />
      <text
         id="text1088-0-1"
         y="70.746353"
         x="23.41115"
         style="font-style:normal;font-weight:normal;font-size:132.3289032px;line-height:1.25;font-family:sans-serif;letter-spacing:0px;word-spacing:0px;fill:#000000;fill-opacity:1;stroke:none;stroke-width:0.22054817"
         xml:space="preserve"><tspan
           style="font-size:2.64657831px;stroke-width:0.22054817"
           y="70.746353"
           x="23.41115"
           id="tspan1086-9-27"
           sodipodi:role="line">5</tspan></text>
      <g
         transform="translate(-18.545377,28.100809)"
         id="g881">
        <g
           transform="matrix(0.35279357,0,0,0.35279357,27.664842,22.56444)"
           id="layer1-6-8-10-3-1"
           inkscape:label="Capa 1">
          <path
             sodipodi:nodetypes="cccssssssccscscccccsscscssccscsccscccccsscsssscs"
             inkscape:connector-curvature="0"
             id="path828-79-6-6-2"
             d="m 15.55133,51.922274 c -0.685146,-0.279517 -3.20637,-1.507059 -3.324727,-1.618753 -0.03438,-0.03244 -0.07718,-0.127286 -0.09554,-0.211722 -0.08948,-0.411375 -0.262648,-1.722668 -0.332832,-2.520399 -0.05025,-0.57112 -0.0596,-2.009074 -0.01364,-2.094972 0.04031,-0.07531 0.184184,-0.143729 0.562025,-0.267256 0.722856,-0.236322 1.733468,-0.499615 2.410752,-0.628071 0.275408,-0.05224 0.396016,-0.0603 0.707347,-0.04732 0.415417,0.01732 1.429283,0.142198 2.38188,0.293384 0.766175,0.121598 1.019543,0.178219 1.103853,0.246676 l 0.06543,0.05313 -0.0077,1.496494 c -0.0081,1.566318 -0.04308,2.635128 -0.0968,2.95367 -0.03024,0.179307 -0.04114,0.197626 -0.223796,0.376151 -0.196508,0.192058 -2.306176,1.852072 -2.49635,1.964276 -0.172205,0.101604 -0.398334,0.103271 -0.639907,0.0047 z m 0.681956,-0.312805 c 0.354128,-0.250525 1.358355,-1.012126 1.81541,-1.376797 0.537371,-0.428752 0.598921,-0.493547 0.633573,-0.666962 0.06192,-0.309915 0.154976,-1.794696 0.205292,-3.275805 0.02806,-0.82606 0.02665,-0.940151 -0.01209,-0.978893 -0.05115,-0.05115 -0.07672,-0.04286 -1.158797,0.375245 -1.269982,0.490712 -1.8449,0.758627 -1.912296,0.891141 -0.06033,0.118622 -0.03326,2.613007 0.04901,4.516299 0.02534,0.586113 0.04026,0.707347 0.08705,0.707347 0.01213,0 0.143904,-0.08621 0.292842,-0.191575 z m -0.622651,-1.013802 c -0.01218,-0.535923 -0.02681,-1.694557 -0.03252,-2.574744 -0.0081,-1.255585 -0.01836,-1.607633 -0.04745,-1.63421 -0.106289,-0.0971 -3.10159,-0.677511 -3.496415,-0.677511 h -0.135139 l 3.71e-4,0.281495 c 5.78e-4,0.445614 0.107808,1.632044 0.261587,2.894346 0.106753,0.876288 0.163675,1.197828 0.22476,1.269608 0.108101,0.127026 1.297194,0.741581 1.931131,0.998059 0.417345,0.168849 1.151926,0.414027 1.246224,0.415946 l 0.06959,0.0014 z m 0.778946,-4.666157 c 0.521312,-0.175316 1.631211,-0.587253 1.882404,-0.698649 0.123751,-0.05488 0.155359,-0.08002 0.123166,-0.09796 -0.08273,-0.04609 -1.835693,-0.312599 -2.781117,-0.422813 -0.349053,-0.04069 -0.466344,-0.04391 -0.635169,-0.01741 -0.320219,0.05026 -2.598014,0.698144 -2.656719,0.755658 -0.03178,0.03113 0.194652,0.08146 1.179323,0.262104 1.326108,0.243286 2.097867,0.369927 2.267379,0.372065 0.120438,0.0015 0.273269,-0.03615 0.620733,-0.153004 z"
             style="fill:#000000;stroke:#000000;stroke-width:0.229;stroke-miterlimit:4;stroke-dasharray:none;stroke-opacity:1" />
        </g>
        <path
           sodipodi:nodetypes="cccssssssccscscccccsscscssccscsccscccccsscsssscs"
           inkscape:connector-curvature="0"
           id="path828-6-0-0-7"
           d="m 36.103982,40.882284 c -0.241715,-0.09861 -1.131187,-0.531681 -1.172942,-0.571086 -0.01213,-0.01144 -0.02723,-0.0449 -0.03371,-0.07469 -0.03157,-0.14513 -0.09266,-0.607746 -0.117421,-0.88918 -0.01773,-0.201488 -0.02103,-0.708789 -0.0048,-0.739093 0.01422,-0.02657 0.06498,-0.05071 0.198279,-0.09429 0.255019,-0.08337 0.611556,-0.176261 0.850497,-0.22158 0.09716,-0.01843 0.139712,-0.02127 0.249548,-0.01669 0.146556,0.0061 0.504242,0.05017 0.840312,0.103504 0.270301,0.0429 0.359688,0.06288 0.389432,0.08703 l 0.02308,0.01874 -0.0027,0.527953 c -0.0029,0.552587 -0.0152,0.929656 -0.03415,1.042036 -0.01067,0.06326 -0.01451,0.06972 -0.07895,0.132704 -0.06933,0.06776 -0.813604,0.653399 -0.880697,0.692984 -0.06075,0.03584 -0.140529,0.03643 -0.225755,0.0017 z m 0.24059,-0.110356 c 0.124934,-0.08838 0.479219,-0.357071 0.640465,-0.485725 0.189581,-0.151261 0.211295,-0.17412 0.22352,-0.2353 0.02184,-0.109336 0.05468,-0.633157 0.07243,-1.155683 0.0099,-0.291428 0.0094,-0.331679 -0.0043,-0.345347 -0.01805,-0.01805 -0.02707,-0.01512 -0.408817,0.132384 -0.448041,0.17312 -0.650868,0.267639 -0.674645,0.314389 -0.02128,0.04185 -0.01173,0.921852 0.01729,1.593321 0.0089,0.206777 0.0142,0.249548 0.03071,0.249548 0.0043,0 0.05077,-0.03041 0.103313,-0.06759 z m -0.219668,-0.357663 c -0.0043,-0.18907 -0.0095,-0.597828 -0.01147,-0.908353 -0.0029,-0.442962 -0.0065,-0.567162 -0.01674,-0.576538 -0.0375,-0.03426 -1.094221,-0.239022 -1.233513,-0.239022 h -0.04768 l 1.31e-4,0.09931 c 2.04e-4,0.157209 0.03803,0.575774 0.09229,1.021106 0.03766,0.309149 0.05774,0.422586 0.07929,0.44791 0.03814,0.04481 0.457641,0.261625 0.68129,0.352109 0.147237,0.05957 0.406392,0.146066 0.43966,0.146743 l 0.02455,4.94e-4 z m 0.274808,-1.64619 c 0.183915,-0.06185 0.57548,-0.207179 0.6641,-0.246479 0.04366,-0.01936 0.05481,-0.02823 0.04345,-0.03456 -0.02919,-0.01626 -0.647621,-0.110283 -0.98116,-0.149166 -0.123144,-0.01436 -0.164524,-0.01549 -0.224084,-0.0061 -0.112971,0.01773 -0.916562,0.246301 -0.937273,0.266591 -0.01121,0.01098 0.06867,0.02874 0.416057,0.09247 0.467843,0.08583 0.740114,0.130508 0.799917,0.131262 0.04249,5.29e-4 0.09641,-0.01275 0.218991,-0.05398 z"
           style="fill:#000000;stroke:#000000;stroke-width:0.08078972;stroke-miterlimit:4;stroke-dasharray:none;stroke-opacity:1" />
      </g>
    </g>
    <g
       id="g94"
       transform="matrix(0.61267823,0,0,0.61267823,-14.820103,35.190135)">
      <path
         style="fill:#000000;stroke-width:0.12216998"
         d="m 15.447336,-5.2139123 c -0.206786,-0.1558178 -0.725624,-0.1029388 -0.876805,0.089462 -0.690796,0.055122 -2.092121,0.026258 -2.112907,-0.2688934 -0.0038,-0.2486741 -0.362339,-0.4073223 -0.501923,-0.2221842 C 11.832421,-5.4519954 9.6074985,-5.768701 9.311512,-5.991855 8.7609246,-6.406981 8.490982,-6.1297082 7.9980673,-4.6425479 l -0.3515054,1.061005 -0.5072436,0.2301474 C 6.784293,-3.1901399 6.595951,-3.17244 6.5102777,-3.2921799 6.4334474,-3.3995606 6.2378131,-3.4179108 5.9847086,-3.341353 L 5.5815616,-3.2191143 5.4069414,-3.6400027 5.2323209,-4.0608833 4.8773942,-3.962607 C 4.4922051,-3.8562956 4.2016987,-3.5712256 4.3582328,-3.4532279 4.523383,-3.3285987 4.3556385,-3.2160457 3.3979952,-2.8091444 2.8277356,-2.5668321 2.3235206,-2.442693 2.0792308,-2.4843197 1.510721,-2.5811838 0.58277261,-2.2584976 0.11796294,-1.8024068 -0.35736002,-1.3361163 -0.65178085,-0.62146974 -0.6514107,0.06536571 -0.65110234,0.6792921 -0.92480596,1.062173 -1.3199218,1.0005883 -1.50562,1.0942872 -1.5071206,1.1389784 -1.522992,1.2791089 -1.8284202,2.6782177 0.70280671,4.3568979 1.2983613,3.649483 1.3589939,3.5689674 1.4744255,3.5528163 1.5549029,3.6134893 1.6354109,3.6741216 1.750769,3.6579798 1.811446,3.5774987 1.8720737,3.496989 1.8559356,3.3816349 1.7754576,3.3209565 1.5311768,3.1367176 2.0740037,2.5492931 2.6902948,2.3311627 3.0272505,2.2118997 3.4227602,1.944428 3.7312183,1.6272754 4.3598906,0.98091633 5.869896,0.31924283 6.1050702,0.58699098 6.2711232,0.77605706 6.7260698,0.69560816 6.9250068,0.44180312 6.9952149,0.35222136 6.9807108,0.10474616 6.892994,-0.1078978 6.7368972,-0.48633835 6.7413547,-0.49764461 7.0944067,-0.64327587 7.3864299,-0.7637236 7.4529588,-0.83768771 7.4439016,-1.0314162 c -0.00918,-0.1962859 0.092437,-0.2826286 0.5652755,-0.4795849 0.3170243,-0.1321207 0.7234344,-0.2531987 0.9031527,-0.2693396 0.1797158,-0.016134 0.3635836,-0.078283 0.4087936,-0.1382488 0.045218,-0.05996 0.2966104,-0.076256 0.5587113,-0.036103 0.3962343,0.060705 0.4863013,0.1140821 0.5339013,0.3155151 0.04199,0.1773419 0.108093,0.2348873 0.246984,0.2153829 0.138896,-0.019487 0.22352,-0.3375191 0.315184,-1.1872713 0.124104,-1.1496007 0.05078,-1.4630756 -0.250362,-1.0732536 -0.159437,0.2063992 -0.641142,0.2641666 -0.8551992,0.10278 -0.06567,-0.049611 -0.1264017,-0.3659758 -0.1344377,-0.703054 l -0.014641,-0.6127463 0.8861199,0.099507 c 0.487358,0.054691 1.039107,0.1702976 1.226183,0.2570084 0.252468,0.1169978 0.382104,0.1024022 0.501992,-0.056612 1.023538,-0.2152509 1.32253,-0.2159132 2.32448,0.3818847 0.208731,0.242569 0.654259,0.2275749 0.833146,-0.096623 0.210089,-0.278655 0.187304,-0.725987 -0.04589,-0.9018036 z m -0.177247,0.183286 c 0.04119,0.031174 0.05686,0.095823 0.07344,0.2140798 0.02087,0.1487533 -0.04383,0.3136902 -0.149158,0.3794876 -0.102397,0.063961 -0.264573,0.057126 -0.3604,-0.015121 -0.240613,-0.1815193 -0.111424,-0.5453265 0.209773,-0.5903849 0.118254,-0.016591 0.185098,-0.019157 0.226341,0.011938 z m -0.141876,0.1881962 c -0.05369,-0.04041 -0.130706,-0.029931 -0.171162,0.023729 -0.04047,0.053651 -0.02961,0.1309489 0.02404,0.1713978 0.05369,0.04041 0.130634,0.029359 0.17108,-0.024278 0.04047,-0.053653 0.02969,-0.1303947 -0.02396,-0.1708489 z m -0.349792,1.703623 c -0.04576,-0.00854 -0.08355,-0.017997 -0.09855,-0.029299 -0.04641,-0.035023 -0.128557,-0.00523 -0.182398,0.066181 -0.05385,0.071406 -0.255825,0.1049333 -0.448979,0.07483 -0.294323,-0.045871 -0.347962,-0.085847 -0.332959,-0.2475945 0.01014,-0.1094152 -0.07363,-0.2190709 -0.193122,-0.2533843 -0.185372,-0.053231 -0.223125,0.036127 -0.313985,0.7417201 -0.05682,0.44125 -0.127044,0.9749329 -0.155844,1.1857774 -0.06106,0.4470025 0.219003,0.65515538 0.423007,0.3143949 0.206331,-0.3446653 0.638627,-0.2168461 1.055572,0.282639 z M 12.98123,-3.6522853 c -0.02829,-0.037448 -0.07539,-0.021009 -0.156328,0.02898 -0.116854,0.072172 -0.237712,0.5350499 -0.325517,1.2462283 -0.13713,1.1107817 -0.109926,1.3103459 0.163809,1.2037927 0.143117,-0.05571 0.387199,-1.5283869 0.362143,-2.184694 -0.0063,-0.1654605 -0.01581,-0.2568572 -0.04409,-0.2943074 z m 1.301913,1.0057872 c 0.07775,0.046751 0.0917,0.1389777 0.09365,0.3420404 0.0044,0.4565301 -0.05617,0.5403469 -0.391411,0.5414509 -0.367415,0.0012 -0.409994,-0.044575 -0.396641,-0.4260986 0.0155,-0.4426355 0.105289,-0.5387217 0.474148,-0.5062609 0.103948,0.00915 0.173592,0.020833 0.220247,0.048874 z m -1.973502,-1.0468813 c -0.02988,-0.022015 -0.06792,-0.027699 -0.114039,-0.021207 -0.153321,0.021243 -0.226143,0.2181649 -0.308936,0.8379825 -0.05954,0.4457462 -0.115691,0.9994032 -0.125081,1.2302262 -0.01253,0.3079737 0.03332,0.4125275 0.172952,0.3929298 0.139633,-0.019588 0.226456,-0.2627025 0.325945,-0.9136594 0.157572,-1.0310018 0.178689,-1.4308721 0.04916,-1.5262719 z M 9.2820328,-5.7599543 c 0.1695468,0.1557886 0.179037,0.4454117 -0.027538,0.6516444 -0.1533917,0.1531338 -0.2891565,0.168709 -0.4827221,0.055318 -0.1481209,-0.086762 -0.2770493,-0.2127012 -0.2864717,-0.2797489 -0.033544,-0.239066 0.3252779,-0.5694698 0.5759071,-0.5304014 0.090046,0.014036 0.1642947,0.05129 0.2208283,0.1031867 z m 2.3885252,2.0059865 c -0.24383,-0.1845997 -0.335864,0.032182 -0.483556,1.1404243 -0.08914,0.6688816 -0.08931,1.1738026 -2.92e-4,1.2155387 0.08377,0.039262 0.187039,0.03836 0.229455,-0.00203 0.141807,-0.135066 0.372021,-2.2648835 0.254398,-2.3539317 z M 9.0793849,-5.554782 c -0.080504,-0.060628 -0.1958687,-0.044484 -0.2565453,0.03599 -0.060631,0.080503 -0.044728,0.1961783 0.035763,0.2568563 0.080507,0.060629 0.1961013,0.04417 0.2567776,-0.036317 0.060627,-0.080507 0.044488,-0.195867 -0.03599,-0.2565453 z m 0.1414993,1.9429337 c 0.7121997,0.5369484 0.3887674,1.610177 -0.4977974,1.6517899 -0.513085,0.024088 -0.9795934,-0.3915393 -0.9896371,-0.8815956 -0.00462,-0.2252089 0.065405,-0.5071013 0.1556195,-0.6267637 0.090269,-0.1196267 0.3422012,-0.2648641 0.5599901,-0.3223938 0.3054204,-0.080682 0.4817705,-0.039719 0.7718249,0.1789632 z m -0.072946,0.2777429 C 9.110996,-3.3662039 9.0688109,-3.3970345 9.0218124,-3.4258467 8.8044604,-3.5584595 8.59355,-3.5730676 8.3644579,-3.472036 c -0.3021211,0.1332489 -0.3397726,0.1884092 -0.3623271,0.5297564 -0.04368,0.6611133 0.7732468,0.9869614 1.1666053,0.4652278 0.2475573,-0.3283299 0.2378145,-0.6323509 -0.020741,-0.8571288 z m -0.1007903,0.047126 c 0.083227,0.056763 0.1335444,0.1404162 0.1234947,0.2493386 -0.00747,0.08063 -0.1185337,0.063408 -0.2546926,-0.03925 -0.1756625,-0.1324255 -0.3196179,-0.1285508 -0.5278649,0.014856 -0.2185458,0.1504876 -0.2725756,0.150134 -0.2288934,-0.00199 0.093401,-0.3252904 0.6382957,-0.3932585 0.8879585,-0.2229492 z m -4.4484384,0.4743867 c 0.028802,0.021668 0.1316394,0.2427764 0.2285269,0.4916916 l 0.1762769,0.4527885 -0.5043042,0.220991 C 4.0112127,-1.4334249 3.9806072,-1.4387411 3.5464435,-1.8057742 3.2996805,-2.014383 3.1060983,-2.1970087 3.1165979,-2.2114321 c 0.053775,-0.07372 1.4373426,-0.634913 1.4821116,-0.6011606 z m -1.4873054,1.126768 c 0.326914,0.2431092 0.588769,0.5762474 0.7284591,0.97094914 C 4.3519332,0.7319174 3.1576563,2.2562116 1.6496744,2.0806078 0.90991345,1.9944669 0.17071888,1.4783674 -0.06502006,0.88325211 -0.57135208,-0.39493004 -0.05690991,-1.5743101 1.2015675,-2.0197225 1.8410959,-2.2460778 2.5665352,-2.0909915 3.1114041,-1.6858247 Z M 2.8776658,-1.3646721 C 2.1829939,-1.8849175 1.1251795,-1.8009443 0.52748728,-1.009594 0.10383221,-0.44868963 0.0446032,0.15812217 0.35664781,0.73839352 0.67737851,1.3349227 0.86664495,1.4761719 1.549342,1.6287121 2.8081614,1.9099805 3.905404,0.57576084 3.4209032,-0.64709303 3.3005146,-0.9509483 3.1092267,-1.1912643 2.8776675,-1.3646767 Z M 2.6491389,-1.07271 c 0.2448923,0.18723739 0.4364879,0.43803335 0.4889872,0.68657482 0.074358,0.35205875 0.071241,0.35855343 -0.056107,0.1104741 C 2.8262721,-0.77383597 2.2918818,-1.0646269 1.7205359,-1.0168539 1.2462647,-0.97719632 1.1468476,-0.91702644 0.82086713,-0.47147214 0.61921972,-0.19595433 0.44169585,0.02038705 0.42653846,0.00893632 0.41136999,-0.00250552 0.47791907,-0.2242519 0.57415898,-0.48393635 0.78369461,-1.0493302 1.2315485,-1.3656935 1.8406674,-1.3781744 c 0.2654464,-0.00544 0.5635668,0.1182251 0.8084646,0.3054619 z"
         id="path190"
         inkscape:connector-curvature="0"
         sodipodi:nodetypes="ccccscccccccccscccscccccccccccccccccccccscccccccccccscccccccccsccscccccsscccscccccccccccscccsccccccccccccccccsccccccsccccccccccscccsssccsccccccscccccccscccccccccccc" />
      <path
         inkscape:connector-curvature="0"
         id="path65"
         d="M 25.591172,8.3073569 C 25.111925,7.1834497 23.989416,5.8530575 22.912458,5.1325581 L 22.69726,4.9885874 22.799238,4.6552936 C 22.99509,4.0151957 22.668864,3.2459831 22.107213,3.0235456 L 21.852082,2.9225044 21.989007,2.6549185 c 0.07531,-0.1471723 0.143513,-0.2782844 0.151566,-0.2913608 0.008,-0.013075 0.227103,0.065837 0.486777,0.1753558 2.24368,0.9463077 3.745154,2.8886652 4.145806,5.363155 l 0.08962,0.5535078 -0.587178,0.03992 -0.587179,0.03992 z M 30.163873,7.5812865 C 30.139878,7.5233506 30.032297,7.2219787 29.924799,6.9115774 29.676242,6.1938641 29.193362,5.3315167 28.677395,4.6839122 27.915419,3.7275344 26.594979,2.7755554 25.476376,2.3761202 24.998664,2.2055366 24.997285,2.2042511 25.03457,1.9639697 25.05515,1.8314017 25.02947,1.5739987 24.97751,1.3919617 24.856936,0.96950317 24.347844,0.49944332 23.961448,0.45380741 23.680939,0.42067804 23.654601,0.36716327 23.749115,0.02237333 l 0.06096,-0.22241144 0.487677,0.0612519 c 2.208147,0.27732917 4.190703,1.66165571 5.212429,3.63959541 0.471349,0.9124759 0.672617,1.6600577 0.7374,2.7389673 0.0536,0.8929864 0.01131,1.5709813 -0.08371,1.341513 z M 21.17281,4.9068225 C 21.060973,4.8535457 20.932103,4.7502621 20.88643,4.677296 20.779417,4.5063339 20.749488,4.06345 20.832504,3.8792979 c 0.07704,-0.1709075 0.409664,-0.3848849 0.620578,-0.3992242 0.479567,-0.032604 0.902429,0.4621276 0.785374,0.9188553 -0.03411,0.1331083 -0.119236,0.3013278 -0.189157,0.3738205 -0.17736,0.1838798 -0.627408,0.2527221 -0.876488,0.1340709 z M 32.950729,2.6927663 C 32.548972,1.8799074 31.187005,0.51875565 30.241284,-0.01505858 29.329572,-0.52967637 28.085655,-0.93632907 27.250443,-0.99280271 26.683977,-1.0311076 26.671366,-1.037968 26.630694,-1.3299947 c -0.08548,-0.6137386 -0.675388,-1.1058183 -1.362209,-1.1363044 -0.318017,-0.014111 -0.321695,-0.017239 -0.340182,-0.2891635 -0.01765,-0.2595508 -0.0042,-0.2786465 0.241036,-0.3421334 0.411217,-0.106458 1.735275,-0.096155 2.34209,0.018228 2.290803,0.4318084 4.146064,1.9012082 5.066787,4.01298317 0.393727,0.90305143 0.726803,2.47597143 0.372513,1.75915113 z M 23.437049,2.2369652 C 22.935847,1.9820557 22.926065,1.9717685 22.949178,1.723941 c 0.03632,-0.3893995 0.297051,-0.6402856 0.693424,-0.6672336 0.279305,-0.018989 0.361025,0.010275 0.553382,0.1981885 0.252622,0.24678 0.308221,0.5346969 0.16638,0.8616078 -0.168394,0.388113 -0.352052,0.4120226 -0.925315,0.1204615 z m 1.655075,-2.8452005 c -0.364078,-0.088746 -0.470561,-0.14718888 -0.514418,-0.28233631 -0.142908,-0.44038769 0.178357,-0.90837599 0.64538,-0.94012729 0.361246,-0.02456 0.536284,0.057176 0.699775,0.3267749 0.154063,0.254051 0.141051,0.64907235 -0.02846,0.86405221 -0.136089,0.17259544 -0.211761,0.17557914 -0.802283,0.0316317 z m 9.638734,-1.9736446 c -0.751575,-0.7997466 -2.46355,-1.6996479 -3.709939,-1.9501323 -0.793848,-0.1595377 -1.95678,-0.1866364 -2.653387,-0.06183 l -0.580594,0.1040213 -0.162931,-0.3226485 c -0.09674,-0.1915566 -0.2807,-0.4003632 -0.45279,-0.5139229 -0.266253,-0.1756967 -0.338211,-0.1879871 -0.88357,-0.15091 l -0.593711,0.040364 -0.0634,-0.2449826 c -0.0806,-0.3114401 -0.01084,-0.3721093 0.738657,-0.6424948 0.502701,-0.1813508 0.73385,-0.2187969 1.79868,-0.2913855 1.059994,-0.07226 1.298499,-0.066631 1.800473,0.042486 1.963904,0.4269016 3.579889,1.5752261 4.560417,3.2406475 0.293712,0.4988695 0.560089,1.0478496 0.510086,1.0512491 -0.01325,9.007e-4 -0.151845,-0.1343067 -0.307992,-0.3004609 z m -7.922886,-1.2018749 c -0.06016,-0.00877 -0.329119,-0.021796 -0.597673,-0.028946 l -0.488277,-0.01299 -0.02051,-0.3017215 c -0.02432,-0.3577831 0.09145,-0.5771806 0.38018,-0.7204389 0.583937,-0.2897338 1.228166,0.2158827 1.068556,0.8386463 -0.06061,0.2364947 -0.09793,0.2610782 -0.342273,0.2254526 z"
         style="fill:#000000;stroke-width:0.07204031" />
      <path
         sodipodi:nodetypes="sccccccs"
         inkscape:connector-curvature="0"
         id="path80"
         d="m 17.604726,2.3046047 c 0,0 -1.79832,-1.6828672 -2.393632,-3.13807553 0,0 -0.05501,-1.92308167 0.30879,-2.63414937 0.660966,-0.9758415 1.014012,-1.9040177 2.433219,-2.2486355 1.852502,-0.6030462 7.233666,-0.5255055 7.310885,-0.4482868 0.429948,0.7276042 0.22936,1.1034078 -0.699939,2.7225016 0.09185,2.0687206 -2.532343,5.8228619 -4.056264,6.5851513 -0.01079,0.00539 -1.695702,0.3963015 -2.903059,-0.8385057 z"
         style="fill:#000000;fill-opacity:1;stroke:none;stroke-width:0.17775001;stroke-miterlimit:4;stroke-dasharray:0.53325001, 0.17775;stroke-dashoffset:0;stroke-opacity:1" />
    </g>
  </g>
</svg>
