<?xml version="1.0" encoding="UTF-8" standalone="no"?>
<!-- Created with Inkscape (http://www.inkscape.org/) -->

<svg
   xmlns:dc="http://purl.org/dc/elements/1.1/"
   xmlns:cc="http://creativecommons.org/ns#"
   xmlns:rdf="http://www.w3.org/1999/02/22-rdf-syntax-ns#"
   xmlns:svg="http://www.w3.org/2000/svg"
   xmlns="http://www.w3.org/2000/svg"
   xmlns:sodipodi="http://sodipodi.sourceforge.net/DTD/sodipodi-0.dtd"
   xmlns:inkscape="http://www.inkscape.org/namespaces/inkscape"
   width="120mm"
   height="23.016712mm"
   viewBox="0 0 120 23.016712"
   version="1.1"
   id="svg1100"
   inkscape:version="0.92.5 (2060ec1f9f, 2020-04-08)"
   sodipodi:docname="cpp.svg">
  <defs
     id="defs1094" />
  <sodipodi:namedview
     id="base"
     pagecolor="#ffffff"
     bordercolor="#666666"
     borderopacity="1.0"
     inkscape:pageopacity="0.0"
     inkscape:pageshadow="2"
     inkscape:zoom="2"
     inkscape:cx="50.95595"
     inkscape:cy="-44.59265"
     inkscape:document-units="mm"
     inkscape:current-layer="layer1"
     showgrid="false"
     inkscape:window-width="1848"
     inkscape:window-height="1016"
     inkscape:window-x="72"
     inkscape:window-y="27"
     inkscape:window-maximized="1"
     fit-margin-top="0"
     fit-margin-left="0"
     fit-margin-right="0"
     fit-margin-bottom="0"
     inkscape:snap-global="true"
     inkscape:snap-bbox="true" />
  <metadata
     id="metadata1097">
    <rdf:RDF>
      <cc:Work
         rdf:about="">
        <dc:format>image/svg+xml</dc:format>
        <dc:type
           rdf:resource="http://purl.org/dc/dcmitype/StillImage" />
        <dc:title></dc:title>
      </cc:Work>
    </rdf:RDF>
  </metadata>
  <g
     inkscape:groupmode="layer"
     id="layer3"
     inkscape:label="Background"
     style="display:inline"
     sodipodi:insensitive="true" />
  <g
     inkscape:groupmode="layer"
     id="layer2"
     inkscape:label="Guias"
     style="display:none"
     transform="translate(0,0.2323513)">
    <g
       id="g1399"
       transform="translate(-6.7978492)">
      <rect
         y="11.402682"
         x="50.431446"
         height="11"
         width="74.99527"
         id="rect1878-3"
         style="display:inline;opacity:1;vector-effect:none;fill:#ffe680;fill-opacity:1;stroke:none;stroke-width:0.47467926;stroke-linecap:butt;stroke-linejoin:miter;stroke-miterlimit:4;stroke-dasharray:none;stroke-dashoffset:0;stroke-opacity:1" />
      <rect
         y="0.30218902"
         x="8.1689825"
         height="22.148087"
         width="42.262463"
         id="rect1868"
         style="display:inline;opacity:1;vector-effect:none;fill:#decd87;fill-opacity:1;stroke:none;stroke-width:0.39467782;stroke-linecap:butt;stroke-linejoin:miter;stroke-miterlimit:4;stroke-dasharray:none;stroke-dashoffset:0;stroke-opacity:1" />
      <rect
         y="0.39782956"
         x="50.431446"
         height="11"
         width="74.99527"
         id="rect1878"
         style="display:inline;opacity:1;vector-effect:none;fill:#deaa87;fill-opacity:1;stroke:none;stroke-width:0.47467929;stroke-linecap:butt;stroke-linejoin:miter;stroke-miterlimit:4;stroke-dasharray:none;stroke-dashoffset:0;stroke-opacity:1" />
      <rect
         y="12.891373"
         x="76.863533"
         height="8.0226164"
         width="22"
         id="rect1878-7-3"
         style="display:inline;opacity:1;vector-effect:none;fill:#eeffaa;fill-opacity:1;stroke:none;stroke-width:0.19344766;stroke-linecap:butt;stroke-linejoin:miter;stroke-miterlimit:4;stroke-dasharray:none;stroke-dashoffset:0;stroke-opacity:1" />
      <rect
         y="12.891415"
         x="103.2956"
         height="8.0226164"
         width="22"
         id="rect1878-7-56"
         style="display:inline;opacity:1;vector-effect:none;fill:#ccffaa;fill-opacity:1;stroke:none;stroke-width:0.21753596;stroke-linecap:butt;stroke-linejoin:miter;stroke-miterlimit:4;stroke-dasharray:none;stroke-dashoffset:0;stroke-opacity:1" />
      <rect
         y="12.680782"
         x="50.431446"
         height="8.443799"
         width="22"
         id="rect1878-7"
         style="display:inline;opacity:1;vector-effect:none;fill:#ff9955;fill-opacity:1;stroke:none;stroke-width:0.22317314;stroke-linecap:butt;stroke-linejoin:miter;stroke-miterlimit:4;stroke-dasharray:none;stroke-dashoffset:0;stroke-opacity:1" />
      <rect
         y="13.158642"
         x="77.363533"
         height="7.4880772"
         width="21"
         id="rect1878-7-2-7"
         style="display:inline;opacity:1;vector-effect:none;fill:#ddff55;fill-opacity:1;stroke:none;stroke-width:0.20533194;stroke-linecap:butt;stroke-linejoin:miter;stroke-miterlimit:4;stroke-dasharray:none;stroke-dashoffset:0;stroke-opacity:1" />
      <rect
         y="13.158684"
         x="103.7956"
         height="7.4880772"
         width="21"
         id="rect1878-7-2-7-0"
         style="display:inline;opacity:1;vector-effect:none;fill:#66ff00;fill-opacity:1;stroke:none;stroke-width:0.20533194;stroke-linecap:butt;stroke-linejoin:miter;stroke-miterlimit:4;stroke-dasharray:none;stroke-dashoffset:0;stroke-opacity:1" />
      <rect
         y="13.158642"
         x="50.931446"
         height="7.4880772"
         width="21"
         id="rect1878-7-2"
         style="display:inline;opacity:1;vector-effect:none;fill:#d45500;fill-opacity:1;stroke:none;stroke-width:0.20533194;stroke-linecap:butt;stroke-linejoin:miter;stroke-miterlimit:4;stroke-dasharray:none;stroke-dashoffset:0;stroke-opacity:1" />
    </g>
  </g>
  <g
     inkscape:label="Capa 1"
     inkscape:groupmode="layer"
     id="layer1"
     transform="translate(28.060163,-27.595709)"
     style="display:inline">
    <g
       transform="matrix(0.35279357,0,0,0.35279357,27.66483,22.56444)"
       id="layer1-6-3-2"
       inkscape:label="Capa 1" />
    <rect
       style="display:inline;opacity:1;fill:#ffffff;fill-opacity:1;stroke:none;stroke-width:0.71100003;stroke-miterlimit:4;stroke-dasharray:none;stroke-dashoffset:0;stroke-opacity:1"
       id="rect1126"
       width="119.99902"
       height="23.017704"
       x="-28.060163"
       y="27.595709" />
    <g
       style="display:inline"
       id="g9128"
       transform="translate(-107.62953,-199.34653)">
      <path
         inkscape:connector-curvature="0"
         id="path9084"
         d="M 83.843672,227.37459 H 195.29507"
         style="fill:none;stroke:#000000;stroke-width:0.40000001;stroke-linecap:butt;stroke-linejoin:miter;stroke-miterlimit:4;stroke-dasharray:none;stroke-opacity:1" />
      <path
         inkscape:connector-curvature="0"
         id="path9084-3"
         d="M 83.843669,249.75895 H 195.29507"
         style="fill:none;stroke:#000000;stroke-width:0.40000001;stroke-linecap:butt;stroke-linejoin:miter;stroke-miterlimit:4;stroke-dasharray:none;stroke-opacity:1" />
    </g>
    <g
       id="g1141"
       transform="matrix(1.1473165,0,0,1.1473165,-8.6338994,18.069031)">
      <path
         sodipodi:nodetypes="ccccccccccccccccscssscsccscccsccccc"
         inkscape:connector-curvature="0"
         id="path948"
         d="m -4.6954472,11.432616 -0.017052,0.539501 0.9622152,0.135392 -0.026872,-0.674893 h -0.4588864 z m 14.9799642,2.453227 c -1.8354067,0.0024 -13.7860116,0.02506 -13.8105265,0.03927 -0.013949,0.0081 -0.024583,0.440013 -0.02377,0.960149 l 0.00156,0.946195 1.8830891,5.29e-4 c 0.204175,2.43e-4 1.67713842,-0.0059 3.2731852,-0.01344 2.484302,-0.01162 9.9396422,-0.02696 9.9549472,-0.106452 0.02054,-0.106836 0.02242,-1.799818 0.0021,-1.821077 -0.0045,-0.0047 -0.668741,-0.006 -1.280542,-0.0052 z m -20.761007,0.51418 c -0.01391,0.296977 -0.01809,0.693696 -0.01809,1.257803 v 1.880505 h 0.9823688 c 1.0142629,0 1.3539226,0.09544 1.3539226,0.380338 0,0.08891 0.1090718,0.120407 0.4170288,0.120407 h 0.4175456 v -0.546219 c 0,-0.102193 0.00209,-0.180999 0.0062,-0.253214 0.1979361,0.02334 0.8400013,0.02785 1.5322063,0.0155 0.02899,0.128897 0.047026,0.266393 0.047026,0.40566 v 0.378272 h 0.5007446 0.5007445 v 0.316777 c 0,0.174184 0.045282,0.362241 0.1002525,0.417545 0.1126249,0.112675 0.6371299,0.133064 0.7978841,0.03101 0.0541,-0.0343 0.077869,-0.504338 0.084749,-1.668632 l 0.017052,-2.735749 z"
         style="fill:#000000;stroke-width:0.0550156" />
      <g
         transform="translate(21.03625,35.9737)"
         id="g943">
        <path
           style="opacity:1;fill:#000000;fill-opacity:1;stroke:none;stroke-width:0.66499996;stroke-miterlimit:4;stroke-dasharray:none;stroke-dashoffset:0;stroke-opacity:1"
           d="m -9.3342159,-23.174535 h 4.0632442 l -1.5119052,3.779762 -2.551339,-0.04725 z"
           id="rect913"
           inkscape:connector-curvature="0"
           sodipodi:nodetypes="ccccc" />
        <rect
           style="opacity:1;fill:#000000;fill-opacity:1;stroke:none;stroke-width:0.66499996;stroke-miterlimit:4;stroke-dasharray:none;stroke-dashoffset:0;stroke-opacity:1"
           id="rect916"
           width="4.4884672"
           height="0.8976934"
           x="-9.2590466"
           y="-20.565224" />
        <rect
           style="opacity:1;fill:#000000;fill-opacity:1;stroke:none;stroke-width:0.66499996;stroke-miterlimit:4;stroke-dasharray:none;stroke-dashoffset:0;stroke-opacity:1"
           id="rect916-3"
           width="4.4884672"
           height="0.89769346"
           x="-9.2590466"
           y="-21.603767" />
        <rect
           style="opacity:1;fill:#000000;fill-opacity:1;stroke:none;stroke-width:0.66499996;stroke-miterlimit:4;stroke-dasharray:none;stroke-dashoffset:0;stroke-opacity:1"
           id="rect916-6"
           width="4.4884672"
           height="0.89769346"
           x="-9.2590466"
           y="-22.642315" />
      </g>
      <path
         inkscape:connector-curvature="0"
         id="rect909"
         d="m -2.5303078,11.975882 c -0.2258904,-0.0098 -0.4592867,0.09995 -0.5229653,0.358116 -0.024546,-0.02541 -0.03371,0.298077 -0.03669,0.743109 h -0.1550295 v 4.05453 l 10.3719764,0.165365 1.3823447,0.425299 h 2.5641845 v -4.645194 h -0.142111 v -0.316262 c -0.03413,-0.218892 -0.252632,-0.347782 -0.478523,-0.3576 -0.225891,-0.0098 -0.4592872,0.09943 -0.5229656,0.3576 -0.017623,-0.01824 -0.026872,0.120359 -0.032556,0.316262 h -1.129647 v -0.635622 c -0.03413,-0.218892 -0.2526326,-0.347782 -0.4785235,-0.3576 -0.2258912,-0.0098 -0.4592876,0.09943 -0.5229657,0.3576 -0.0236,-0.02443 -0.033227,0.246933 -0.03669,0.635622 H 6.6035017 v -0.675929 c -0.034131,-0.218895 -0.2526329,-0.347781 -0.4785238,-0.357603 -0.225891,-0.0098 -0.4592876,0.09943 -0.5229654,0.357603 -0.024076,-0.02492 -0.033466,0.266761 -0.03669,0.675929 H 4.4398093 v -0.743109 c -0.03413,-0.218892 -0.2526326,-0.348297 -0.4785235,-0.358116 -0.225891,-0.0098 -0.4592876,0.09995 -0.5229656,0.358116 -0.024546,-0.02541 -0.03371,0.298077 -0.03669,0.743109 h -1.125513 v -0.743109 c -0.03413,-0.218892 -0.2526329,-0.348297 -0.4785238,-0.358116 -0.2258906,-0.0098 -0.4592873,0.09995 -0.5229653,0.358116 -0.024546,-0.02541 -0.03371,0.298077 -0.03669,0.743109 H 0.11190844 v -0.743109 c -0.034131,-0.218892 -0.25263289,-0.348297 -0.47852382,-0.358116 -0.22589093,-0.0098 -0.45877139,0.09995 -0.52244859,0.358116 -0.024546,-0.02541 -0.03371,0.298077 -0.03669,0.743109 H -2.0517836 v -0.743109 c -0.03413,-0.218892 -0.2526327,-0.348297 -0.4785242,-0.358116 z m 1.4515912,3.838525 H 8.409593 c 0.434313,0.267268 0.4510172,0.415028 0,0.665591 h -9.4883096 c -0.5011301,-0.167042 -0.5178351,-0.448435 0,-0.665591 z"
         style="opacity:1;vector-effect:none;fill:#000000;fill-opacity:1;stroke:#000000;stroke-width:0.27169043;stroke-linecap:butt;stroke-linejoin:miter;stroke-miterlimit:4;stroke-dasharray:none;stroke-dashoffset:0;stroke-opacity:1" />
      <path
         sodipodi:nodetypes="ccccc"
         inkscape:connector-curvature="0"
         id="rect991"
         d="m -10.399904,11.203951 6.6145833,0.992187 -0.09449,2.078869 H -10.3999 Z"
         style="opacity:1;fill:#000000;fill-opacity:1;stroke:none;stroke-width:0.66499996;stroke-miterlimit:4;stroke-dasharray:none;stroke-dashoffset:0;stroke-opacity:1" />
      <circle
         r="0.26726952"
         cy="13.862862"
         cx="12.43117"
         id="path1012"
         style="opacity:1;fill:#ffffff;fill-opacity:1;stroke:none;stroke-width:0.48363635;stroke-miterlimit:4;stroke-dasharray:none;stroke-dashoffset:0;stroke-opacity:1" />
      <circle
         r="0.26726952"
         cy="14.794127"
         cx="12.43117"
         id="path1012-9"
         style="opacity:1;fill:#ffffff;fill-opacity:1;stroke:none;stroke-width:0.48363638;stroke-miterlimit:4;stroke-dasharray:none;stroke-dashoffset:0;stroke-opacity:1" />
      <circle
         r="0.26726952"
         cy="14.794127"
         cx="13.361437"
         id="path1012-1"
         style="opacity:1;fill:#ffffff;fill-opacity:1;stroke:none;stroke-width:0.48363638;stroke-miterlimit:4;stroke-dasharray:none;stroke-dashoffset:0;stroke-opacity:1" />
      <circle
         r="0.26726952"
         cy="15.725395"
         cx="12.43117"
         id="path1012-27"
         style="opacity:1;fill:#ffffff;fill-opacity:1;stroke:none;stroke-width:0.48363638;stroke-miterlimit:4;stroke-dasharray:none;stroke-dashoffset:0;stroke-opacity:1" />
      <circle
         transform="rotate(90)"
         r="0.26726952"
         cy="-13.361437"
         cx="13.854013"
         id="path1012-9-9"
         style="opacity:1;fill:#ffffff;fill-opacity:1;stroke:none;stroke-width:0.48363641;stroke-miterlimit:4;stroke-dasharray:none;stroke-dashoffset:0;stroke-opacity:1" />
      <circle
         transform="rotate(90)"
         r="0.26726952"
         cy="-14.292706"
         cx="13.854013"
         id="path1012-27-3"
         style="opacity:1;fill:#ffffff;fill-opacity:1;stroke:none;stroke-width:0.48363641;stroke-miterlimit:4;stroke-dasharray:none;stroke-dashoffset:0;stroke-opacity:1" />
    </g>
    <g
       id="g944"
       transform="translate(-12.152474,1.0583333)">
      <path
         inkscape:export-ydpi="300"
         inkscape:export-xdpi="300"
         inkscape:export-filename="1flame.png"
         sodipodi:nodetypes="ccccsccccscccccscscccsccccccc"
         inkscape:connector-curvature="0"
         id="path826-3-6"
         d="m -11.992062,47.899798 c -0.74036,-0.42454 -1.16313,-1.30599 -1.029019,-2.14547 0.0723,-0.45236 0.205399,-0.75728 0.51281,-1.17452 0.855259,-1.16082 1.01121,-1.47811 1.05736,-2.15132 0.0145,-0.21106 0.0365,-0.38375 0.049,-0.38375 0.0124,0 0.167669,0.10751 0.34492,0.23891 0.70314,0.52126 1.0979695,1.22932 1.1901695,2.13433 l 0.0354,0.34789 0.128,-0.13562 c 0.0704,-0.0746 0.15533,-0.22937 0.18875,-0.34397 l 0.0608,-0.20837 0.19096,0.39085 c 0.22784,0.46637 0.37001,0.95442 0.40995,1.40733 0.0722,0.81861 -0.34268,1.61611 -1.05246,2.0231 -0.2845895,0.16319 -0.3925495,0.19094 -0.2225405,0.0572 0.1735505,-0.13653 0.3687505,-0.53511 0.3972405,-0.81118 0.0384,-0.37175 -0.0755,-0.6917 -0.4090205,-1.14935 -0.334519,-0.45901 -0.487779,-0.77035 -0.53289,-1.08258 l -0.0324,-0.22468 -0.18305,0.17817 c -0.34858,0.3393 -0.59597,1.08145 -0.53423,1.6027 0.0148,0.1247 0.009,0.22675 -0.0126,0.22675 -0.089,0 -0.32551,-0.33503 -0.3523,-0.49904 -0.0158,-0.0965 -0.0345,-0.20683 -0.0417,-0.2452 -0.0169,-0.0902 -0.24643,0.40925 -0.30533,0.66445 -0.10999,0.4766 -0.0184,0.91088 0.26098,1.23724 0.0901,0.10532 0.15703,0.19129 0.14864,0.19105 -0.008,-1.8e-4 -0.12865,-0.0654 -0.26725,-0.14494 z"
         style="fill:#000000;stroke:#000000;stroke-width:0.30000001;stroke-miterlimit:4;stroke-dasharray:none;stroke-opacity:1" />
      <g
         id="g934">
        <circle
           style="opacity:1;vector-effect:none;fill:#000000;fill-opacity:1;stroke:none;stroke-width:0.29209089;stroke-linecap:butt;stroke-linejoin:miter;stroke-miterlimit:4;stroke-dasharray:0.87627266, 0.29209089;stroke-dashoffset:0;stroke-opacity:1"
           id="path3810-75"
           cx="-4.4457111"
           cy="45.131767"
           r="1.6063988" />
        <circle
           style="opacity:1;vector-effect:none;fill:#000000;fill-opacity:1;stroke:none;stroke-width:0.29209092;stroke-linecap:butt;stroke-linejoin:miter;stroke-miterlimit:4;stroke-dasharray:0.87627267, 0.29209089;stroke-dashoffset:0;stroke-opacity:1"
           id="path3810-8-3"
           cx="1.280627"
           cy="45.131767"
           r="1.6063988" />
        <circle
           style="opacity:1;vector-effect:none;fill:#000000;fill-opacity:1;stroke:none;stroke-width:0.29209092;stroke-linecap:butt;stroke-linejoin:miter;stroke-miterlimit:4;stroke-dasharray:0.87627267, 0.29209089;stroke-dashoffset:0;stroke-opacity:1"
           id="path3810-89-5"
           cx="7.0069661"
           cy="45.131767"
           r="1.6063988" />
        <circle
           style="opacity:1;vector-effect:none;fill:#000000;fill-opacity:1;stroke:none;stroke-width:0.29209092;stroke-linecap:butt;stroke-linejoin:miter;stroke-miterlimit:4;stroke-dasharray:0.87627267, 0.29209089;stroke-dashoffset:0;stroke-opacity:1"
           id="path3810-7-6"
           cx="12.733305"
           cy="45.131767"
           r="1.6063988" />
        <circle
           style="opacity:1;vector-effect:none;fill:#000000;fill-opacity:1;stroke:none;stroke-width:0.29209092;stroke-linecap:butt;stroke-linejoin:miter;stroke-miterlimit:4;stroke-dasharray:0.87627267, 0.29209089;stroke-dashoffset:0;stroke-opacity:1"
           id="path3810-76-2"
           cx="18.459644"
           cy="45.131767"
           r="1.6063988" />
        <circle
           style="opacity:1;vector-effect:none;fill:#000000;fill-opacity:1;stroke:none;stroke-width:0.29209092;stroke-linecap:butt;stroke-linejoin:miter;stroke-miterlimit:4;stroke-dasharray:0.87627267, 0.29209089;stroke-dashoffset:0;stroke-opacity:1"
           id="path3810-3"
           cx="24.289539"
           cy="45.131767"
           r="1.6063988" />
      </g>
    </g>
    <g
       id="g925"
       transform="matrix(1.3240563,0,0,1.3240565,-13.381812,21.895466)">
      <circle
         r="2.9059739"
         cy="9.7342958"
         cx="25.517962"
         id="path1760-3-3"
         style="opacity:1;vector-effect:none;fill:#ffffff;fill-opacity:1;stroke:#000000;stroke-width:0.31159922;stroke-linecap:butt;stroke-linejoin:miter;stroke-miterlimit:4;stroke-dasharray:none;stroke-dashoffset:0;stroke-opacity:1" />
      <g
         inkscape:export-ydpi="300"
         inkscape:export-xdpi="300"
         inkscape:export-filename="5cpp.png"
         transform="matrix(0.55530279,0,0,0.55530279,8.9164052,-58.184263)"
         id="g1055">
        <path
           style="display:inline;fill:#000000;stroke:#000000;stroke-width:0.2;stroke-miterlimit:4;stroke-dasharray:none;stroke-opacity:1"
           d="m 31.683759,121.78745 c -0.149113,-0.37791 -0.304974,-0.63865 -0.476928,-0.79784 -0.159143,-0.14734 -0.442683,-0.30808 -0.762236,-0.43212 -0.06612,-0.0257 -0.11569,-0.0603 -0.110153,-0.0769 0.0055,-0.0166 0.134878,-0.0832 0.287426,-0.14805 0.566328,-0.24066 0.792737,-0.47837 1.037804,-1.08964 0.0504,-0.12572 0.103709,-0.22455 0.118462,-0.21964 0.01475,0.005 0.07963,0.13522 0.144175,0.28956 0.249895,0.59755 0.48919,0.8226 1.153122,1.08449 0.08805,0.0348 0.156286,0.0746 0.151633,0.0885 -0.0046,0.0139 -0.133297,0.0784 -0.285875,0.14327 -0.329974,0.14022 -0.557339,0.28557 -0.691746,0.44225 -0.09528,0.11106 -0.31251,0.51789 -0.4045,0.75755 -0.02481,0.0646 -0.05711,0.11752 -0.07178,0.11752 -0.01467,0 -0.0549,-0.0716 -0.08941,-0.15901 z"
           id="path932-27"
           inkscape:connector-curvature="0"
           sodipodi:nodetypes="cccccscccccccsc" />
        <path
           style="display:inline;fill:#000000;stroke:#000000;stroke-width:0.2;stroke-miterlimit:4;stroke-dasharray:none;stroke-opacity:1"
           d="m 31.683759,125.43568 c -0.149113,-0.37791 -0.304974,-0.63865 -0.476928,-0.79784 -0.159143,-0.14734 -0.442683,-0.30808 -0.762236,-0.43212 -0.06612,-0.0257 -0.11569,-0.0603 -0.110153,-0.0769 0.0055,-0.0166 0.134878,-0.0832 0.287426,-0.14805 0.566328,-0.24066 0.792737,-0.47837 1.037804,-1.08964 0.0504,-0.12572 0.103709,-0.22455 0.118462,-0.21964 0.01475,0.005 0.07963,0.13522 0.144175,0.28956 0.249895,0.59755 0.48919,0.8226 1.153122,1.08449 0.08805,0.0348 0.156286,0.0746 0.151633,0.0885 -0.0046,0.0139 -0.133297,0.0784 -0.285875,0.14327 -0.329974,0.14022 -0.557339,0.28557 -0.691746,0.44225 -0.09528,0.11106 -0.31251,0.51789 -0.4045,0.75755 -0.02481,0.0646 -0.05711,0.11752 -0.07178,0.11752 -0.01467,0 -0.0549,-0.0716 -0.08941,-0.15901 z"
           id="path932-5-0"
           inkscape:connector-curvature="0"
           sodipodi:nodetypes="cccccscccccccsc" />
        <path
           style="display:inline;fill:#000000;stroke:#000000;stroke-width:0.2;stroke-miterlimit:4;stroke-dasharray:none;stroke-opacity:1"
           d="m 27.918284,121.78745 c -0.149113,-0.37791 -0.304974,-0.63865 -0.476928,-0.79784 -0.159143,-0.14734 -0.442683,-0.30808 -0.762236,-0.43212 -0.06612,-0.0257 -0.11569,-0.0603 -0.110153,-0.0769 0.0055,-0.0166 0.134878,-0.0832 0.287426,-0.14805 0.566328,-0.24066 0.792737,-0.47837 1.037804,-1.08964 0.0504,-0.12572 0.103709,-0.22455 0.118462,-0.21964 0.01475,0.005 0.07963,0.13522 0.144175,0.28956 0.249895,0.59755 0.48919,0.8226 1.153122,1.08449 0.08805,0.0348 0.156286,0.0746 0.151633,0.0885 -0.0046,0.0139 -0.133297,0.0784 -0.285875,0.14327 -0.329974,0.14022 -0.557339,0.28557 -0.691746,0.44225 -0.09528,0.11106 -0.31251,0.51789 -0.4045,0.75755 -0.02481,0.0646 -0.05711,0.11752 -0.07178,0.11752 -0.01467,0 -0.0549,-0.0716 -0.08941,-0.15901 z"
           id="path932-6-9"
           inkscape:connector-curvature="0"
           sodipodi:nodetypes="cccccscccccccsc" />
        <path
           style="display:inline;fill:#000000;stroke:#000000;stroke-width:0.2;stroke-miterlimit:4;stroke-dasharray:none;stroke-opacity:1"
           d="m 27.918284,125.43568 c -0.149113,-0.37791 -0.304974,-0.63865 -0.476928,-0.79784 -0.159143,-0.14734 -0.442683,-0.30808 -0.762236,-0.43212 -0.06612,-0.0257 -0.11569,-0.0603 -0.110153,-0.0769 0.0055,-0.0166 0.134878,-0.0832 0.287426,-0.14805 0.566328,-0.24066 0.792737,-0.47837 1.037804,-1.08964 0.0504,-0.12572 0.103709,-0.22455 0.118462,-0.21964 0.01475,0.005 0.07963,0.13522 0.144175,0.28956 0.249895,0.59755 0.48919,0.8226 1.153122,1.08449 0.08805,0.0348 0.156286,0.0746 0.151633,0.0885 -0.0046,0.0139 -0.133297,0.0784 -0.285875,0.14327 -0.329974,0.14022 -0.557339,0.28557 -0.691746,0.44225 -0.09528,0.11106 -0.31251,0.51789 -0.4045,0.75755 -0.02481,0.0646 -0.05711,0.11752 -0.07178,0.11752 -0.01467,0 -0.0549,-0.0716 -0.08941,-0.15901 z"
           id="path932-2-3"
           inkscape:connector-curvature="0"
           sodipodi:nodetypes="cccccscccccccsc" />
        <path
           style="display:inline;fill:#000000;stroke:#000000;stroke-width:0.2;stroke-miterlimit:4;stroke-dasharray:none;stroke-opacity:1"
           d="m 29.801022,123.61156 c -0.149113,-0.37791 -0.304974,-0.63865 -0.476928,-0.79784 -0.159143,-0.14734 -0.442683,-0.30808 -0.762236,-0.43212 -0.06612,-0.0257 -0.115691,-0.0603 -0.110153,-0.0769 0.0055,-0.0166 0.134878,-0.0832 0.287426,-0.14805 0.566327,-0.24066 0.792736,-0.47837 1.037804,-1.08964 0.0504,-0.12572 0.103708,-0.22455 0.118462,-0.21964 0.01475,0.005 0.07963,0.13522 0.144175,0.28956 0.249895,0.59755 0.48919,0.8226 1.153122,1.08449 0.08805,0.0348 0.156286,0.0746 0.151632,0.0885 -0.0046,0.0139 -0.133296,0.0784 -0.285874,0.14327 -0.329974,0.14022 -0.557339,0.28557 -0.691746,0.44225 -0.09528,0.11106 -0.31251,0.51789 -0.4045,0.75755 -0.02481,0.0646 -0.05711,0.11752 -0.07178,0.11752 -0.01467,0 -0.0549,-0.0716 -0.08941,-0.15901 z"
           id="path932-27-6"
           inkscape:connector-curvature="0"
           sodipodi:nodetypes="cccccscccccccsc" />
      </g>
    </g>
    <g
       style="display:inline"
       id="g1033"
       transform="translate(19.247686,66.198426)">
      <rect
         y="-36.617252"
         x="21.17853"
         height="8.2894325"
         width="8.2894325"
         id="rect925-7-3-61-49-09"
         style="display:inline;opacity:1;vector-effect:none;fill:#ffffff;fill-opacity:1;stroke:#000000;stroke-width:0.71056741;stroke-linecap:butt;stroke-linejoin:miter;stroke-miterlimit:4;stroke-dasharray:none;stroke-dashoffset:0;stroke-opacity:1" />
      <rect
         y="-36.617252"
         x="31.46801"
         height="8.2894325"
         width="8.2894325"
         id="rect925-7-3-61-49-0-6"
         style="display:inline;opacity:1;vector-effect:none;fill:#ffffff;fill-opacity:1;stroke:#000000;stroke-width:0.71056741;stroke-linecap:butt;stroke-linejoin:miter;stroke-miterlimit:4;stroke-dasharray:none;stroke-dashoffset:0;stroke-opacity:1" />
      <rect
         y="-36.617252"
         x="41.757488"
         height="8.2894325"
         width="8.2894325"
         id="rect925-7-3-61-49-9-3"
         style="display:inline;opacity:1;vector-effect:none;fill:#ffffff;fill-opacity:1;stroke:#000000;stroke-width:0.71056741;stroke-linecap:butt;stroke-linejoin:miter;stroke-miterlimit:4;stroke-dasharray:none;stroke-dashoffset:0;stroke-opacity:1" />
      <rect
         y="-36.617252"
         x="52.046974"
         height="8.2894325"
         width="8.2894325"
         id="rect925-7-3-61-49-1-8"
         style="display:inline;opacity:1;vector-effect:none;fill:#ffffff;fill-opacity:1;stroke:#000000;stroke-width:0.71056741;stroke-linecap:butt;stroke-linejoin:miter;stroke-miterlimit:4;stroke-dasharray:none;stroke-dashoffset:0;stroke-opacity:1" />
      <rect
         y="-36.617252"
         x="62.336449"
         height="8.2894325"
         width="8.2894325"
         id="rect925-7-3-61-49-7-5"
         style="display:inline;opacity:1;vector-effect:none;fill:#ffffff;fill-opacity:1;stroke:#000000;stroke-width:0.71056741;stroke-linecap:butt;stroke-linejoin:miter;stroke-miterlimit:4;stroke-dasharray:none;stroke-dashoffset:0;stroke-opacity:1" />
    </g>
    <g
       id="g926"
       transform="translate(0,1.4519123)">
      <path
         inkscape:connector-curvature="0"
         id="path1183-9"
         d="m 40.024003,41.86511 v 5.58932"
         style="fill:none;stroke:#000000;stroke-width:0.26458332px;stroke-linecap:butt;stroke-linejoin:miter;stroke-opacity:1" />
      <text
         id="text1088-1-1"
         y="46.076206"
         x="42.532104"
         style="font-style:normal;font-weight:normal;font-size:132.3289032px;line-height:1.25;font-family:sans-serif;letter-spacing:0px;word-spacing:0px;fill:#000000;fill-opacity:1;stroke:none;stroke-width:0.22054817"
         xml:space="preserve"><tspan
           style="font-size:2.64657831px;stroke-width:0.22054817"
           y="46.076206"
           x="42.532104"
           id="tspan1086-8-2"
           sodipodi:role="line">10</tspan></text>
      <text
         id="text1088-0-9-7"
         y="46.057468"
         x="60.522533"
         style="font-style:normal;font-weight:normal;font-size:132.3289032px;line-height:1.25;font-family:sans-serif;letter-spacing:0px;word-spacing:0px;fill:#000000;fill-opacity:1;stroke:none;stroke-width:0.22054817"
         xml:space="preserve"><tspan
           style="font-size:2.64657831px;stroke-width:0.22054817"
           y="46.057468"
           x="60.522533"
           id="tspan1086-9-2-0"
           sodipodi:role="line">40</tspan></text>
      <g
         transform="translate(-7.761156,3.430662)"
         id="g921">
        <g
           transform="matrix(0.35279357,0,0,0.35279357,54.096917,22.56444)"
           id="layer1-6-3-2-32-9"
           inkscape:label="Capa 1">
          <path
             sodipodi:nodetypes="cccssssssccscscccccsscscssccscsccscccccsscsssscs"
             inkscape:connector-curvature="0"
             id="path828-6-0-0-3"
             d="m 15.55133,51.922274 c -0.685146,-0.279517 -3.20637,-1.507059 -3.324727,-1.618753 -0.03438,-0.03244 -0.07718,-0.127286 -0.09554,-0.211722 -0.08948,-0.411375 -0.262648,-1.722668 -0.332832,-2.520399 -0.05025,-0.57112 -0.0596,-2.009074 -0.01364,-2.094972 0.04031,-0.07531 0.184184,-0.143729 0.562025,-0.267256 0.722856,-0.236322 1.733468,-0.499615 2.410752,-0.628071 0.275408,-0.05224 0.396016,-0.0603 0.707347,-0.04732 0.415417,0.01732 1.429283,0.142198 2.38188,0.293384 0.766175,0.121598 1.019543,0.178219 1.103853,0.246676 l 0.06543,0.05313 -0.0077,1.496494 c -0.0081,1.566318 -0.04308,2.635128 -0.0968,2.95367 -0.03024,0.179307 -0.04114,0.197626 -0.223796,0.376151 -0.196508,0.192058 -2.306176,1.852072 -2.49635,1.964276 -0.172205,0.101604 -0.398334,0.103271 -0.639907,0.0047 z m 0.681956,-0.312805 c 0.354128,-0.250525 1.358355,-1.012126 1.81541,-1.376797 0.537371,-0.428752 0.598921,-0.493547 0.633573,-0.666962 0.06192,-0.309915 0.154976,-1.794696 0.205292,-3.275805 0.02806,-0.82606 0.02665,-0.940151 -0.01209,-0.978893 -0.05115,-0.05115 -0.07672,-0.04286 -1.158797,0.375245 -1.269982,0.490712 -1.8449,0.758627 -1.912296,0.891141 -0.06033,0.118622 -0.03326,2.613007 0.04901,4.516299 0.02534,0.586113 0.04026,0.707347 0.08705,0.707347 0.01213,0 0.143904,-0.08621 0.292842,-0.191575 z m -0.622651,-1.013802 c -0.01218,-0.535923 -0.02681,-1.694557 -0.03252,-2.574744 -0.0081,-1.255585 -0.01836,-1.607633 -0.04745,-1.63421 -0.106289,-0.0971 -3.10159,-0.677511 -3.496415,-0.677511 h -0.135139 l 3.71e-4,0.281495 c 5.78e-4,0.445614 0.107808,1.632044 0.261587,2.894346 0.106753,0.876288 0.163675,1.197828 0.22476,1.269608 0.108101,0.127026 1.297194,0.741581 1.931131,0.998059 0.417345,0.168849 1.151926,0.414027 1.246224,0.415946 l 0.06959,0.0014 z m 0.778946,-4.666157 c 0.521312,-0.175316 1.631211,-0.587253 1.882404,-0.698649 0.123751,-0.05488 0.155359,-0.08002 0.123166,-0.09796 -0.08273,-0.04609 -1.835693,-0.312599 -2.781117,-0.422813 -0.349053,-0.04069 -0.466344,-0.04391 -0.635169,-0.01741 -0.320219,0.05026 -2.598014,0.698144 -2.656719,0.755658 -0.03178,0.03113 0.194652,0.08146 1.179323,0.262104 1.326108,0.243286 2.097867,0.369927 2.267379,0.372065 0.120438,0.0015 0.273269,-0.03615 0.620733,-0.153004 z"
             style="fill:#000000;stroke:#000000;stroke-width:0.229;stroke-miterlimit:4;stroke-dasharray:none;stroke-opacity:1" />
        </g>
        <g
           transform="matrix(0.35279357,0,0,0.35279357,57.049687,22.56444)"
           id="layer1-6-75-2-6-60"
           inkscape:label="Capa 1">
          <path
             sodipodi:nodetypes="cccssssssccscscccccsscscssccscsccscccccsscsssscs"
             inkscape:connector-curvature="0"
             id="path828-35-3-1-6"
             d="m 15.55133,51.922274 c -0.685146,-0.279517 -3.20637,-1.507059 -3.324727,-1.618753 -0.03438,-0.03244 -0.07718,-0.127286 -0.09554,-0.211722 -0.08948,-0.411375 -0.262648,-1.722668 -0.332832,-2.520399 -0.05025,-0.57112 -0.0596,-2.009074 -0.01364,-2.094972 0.04031,-0.07531 0.184184,-0.143729 0.562025,-0.267256 0.722856,-0.236322 1.733468,-0.499615 2.410752,-0.628071 0.275408,-0.05224 0.396016,-0.0603 0.707347,-0.04732 0.415417,0.01732 1.429283,0.142198 2.38188,0.293384 0.766175,0.121598 1.019543,0.178219 1.103853,0.246676 l 0.06543,0.05313 -0.0077,1.496494 c -0.0081,1.566318 -0.04308,2.635128 -0.0968,2.95367 -0.03024,0.179307 -0.04114,0.197626 -0.223796,0.376151 -0.196508,0.192058 -2.306176,1.852072 -2.49635,1.964276 -0.172205,0.101604 -0.398334,0.103271 -0.639907,0.0047 z m 0.681956,-0.312805 c 0.354128,-0.250525 1.358355,-1.012126 1.81541,-1.376797 0.537371,-0.428752 0.598921,-0.493547 0.633573,-0.666962 0.06192,-0.309915 0.154976,-1.794696 0.205292,-3.275805 0.02806,-0.82606 0.02665,-0.940151 -0.01209,-0.978893 -0.05115,-0.05115 -0.07672,-0.04286 -1.158797,0.375245 -1.269982,0.490712 -1.8449,0.758627 -1.912296,0.891141 -0.06033,0.118622 -0.03326,2.613007 0.04901,4.516299 0.02534,0.586113 0.04026,0.707347 0.08705,0.707347 0.01213,0 0.143904,-0.08621 0.292842,-0.191575 z m -0.622651,-1.013802 c -0.01218,-0.535923 -0.02681,-1.694557 -0.03252,-2.574744 -0.0081,-1.255585 -0.01836,-1.607633 -0.04745,-1.63421 -0.106289,-0.0971 -3.10159,-0.677511 -3.496415,-0.677511 h -0.135139 l 3.71e-4,0.281495 c 5.78e-4,0.445614 0.107808,1.632044 0.261587,2.894346 0.106753,0.876288 0.163675,1.197828 0.22476,1.269608 0.108101,0.127026 1.297194,0.741581 1.931131,0.998059 0.417345,0.168849 1.151926,0.414027 1.246224,0.415946 l 0.06959,0.0014 z m 0.778946,-4.666157 c 0.521312,-0.175316 1.631211,-0.587253 1.882404,-0.698649 0.123751,-0.05488 0.155359,-0.08002 0.123166,-0.09796 -0.08273,-0.04609 -1.835693,-0.312599 -2.781117,-0.422813 -0.349053,-0.04069 -0.466344,-0.04391 -0.635169,-0.01741 -0.320219,0.05026 -2.598014,0.698144 -2.656719,0.755658 -0.03178,0.03113 0.194652,0.08146 1.179323,0.262104 1.326108,0.243286 2.097867,0.369927 2.267379,0.372065 0.120438,0.0015 0.273269,-0.03615 0.620733,-0.153004 z"
             style="fill:#000000;stroke:#000000;stroke-width:0.229;stroke-miterlimit:4;stroke-dasharray:none;stroke-opacity:1" />
        </g>
      </g>
      <path
         sodipodi:nodetypes="cc"
         inkscape:connector-curvature="0"
         id="path1090-2-2"
         d="M 46.240048,45.105832 H 60.240049"
         style="fill:none;stroke:#000000;stroke-width:0.20910574;stroke-linecap:butt;stroke-linejoin:miter;stroke-miterlimit:4;stroke-dasharray:1.67284597, 0.20910574;stroke-dashoffset:0;stroke-opacity:1" />
      <text
         id="text1088-8-6"
         y="46.057468"
         x="68.949112"
         style="font-style:normal;font-weight:normal;font-size:132.3289032px;line-height:1.25;font-family:sans-serif;letter-spacing:0px;word-spacing:0px;fill:#000000;fill-opacity:1;stroke:none;stroke-width:0.22054817"
         xml:space="preserve"><tspan
           style="font-size:2.64657831px;stroke-width:0.22054817"
           y="46.057468"
           x="68.949112"
           id="tspan1086-97-1"
           sodipodi:role="line">40</tspan></text>
      <text
         id="text1088-0-6-8"
         y="46.040028"
         x="87.036934"
         style="font-style:normal;font-weight:normal;font-size:132.3289032px;line-height:1.25;font-family:sans-serif;letter-spacing:0px;word-spacing:0px;fill:#000000;fill-opacity:1;stroke:none;stroke-width:0.22054817"
         xml:space="preserve"><tspan
           style="font-size:2.64657831px;stroke-width:0.22054817"
           y="46.040028"
           x="87.036934"
           id="tspan1086-9-1-7"
           sodipodi:role="line">70</tspan></text>
      <g
         transform="translate(-7.76114,3.430662)"
         id="g927">
        <g
           transform="matrix(0.35279357,0,0,0.35279357,80.528998,22.56444)"
           id="layer1-6-8-6-9"
           inkscape:label="Capa 1">
          <path
             sodipodi:nodetypes="cccssssssccscscccccsscscssccscsccscccccsscsssscs"
             inkscape:connector-curvature="0"
             id="path828-79-9-2"
             d="m 15.55133,51.922274 c -0.685146,-0.279517 -3.20637,-1.507059 -3.324727,-1.618753 -0.03438,-0.03244 -0.07718,-0.127286 -0.09554,-0.211722 -0.08948,-0.411375 -0.262648,-1.722668 -0.332832,-2.520399 -0.05025,-0.57112 -0.0596,-2.009074 -0.01364,-2.094972 0.04031,-0.07531 0.184184,-0.143729 0.562025,-0.267256 0.722856,-0.236322 1.733468,-0.499615 2.410752,-0.628071 0.275408,-0.05224 0.396016,-0.0603 0.707347,-0.04732 0.415417,0.01732 1.429283,0.142198 2.38188,0.293384 0.766175,0.121598 1.019543,0.178219 1.103853,0.246676 l 0.06543,0.05313 -0.0077,1.496494 c -0.0081,1.566318 -0.04308,2.635128 -0.0968,2.95367 -0.03024,0.179307 -0.04114,0.197626 -0.223796,0.376151 -0.196508,0.192058 -2.306176,1.852072 -2.49635,1.964276 -0.172205,0.101604 -0.398334,0.103271 -0.639907,0.0047 z m 0.681956,-0.312805 c 0.354128,-0.250525 1.358355,-1.012126 1.81541,-1.376797 0.537371,-0.428752 0.598921,-0.493547 0.633573,-0.666962 0.06192,-0.309915 0.154976,-1.794696 0.205292,-3.275805 0.02806,-0.82606 0.02665,-0.940151 -0.01209,-0.978893 -0.05115,-0.05115 -0.07672,-0.04286 -1.158797,0.375245 -1.269982,0.490712 -1.8449,0.758627 -1.912296,0.891141 -0.06033,0.118622 -0.03326,2.613007 0.04901,4.516299 0.02534,0.586113 0.04026,0.707347 0.08705,0.707347 0.01213,0 0.143904,-0.08621 0.292842,-0.191575 z m -0.622651,-1.013802 c -0.01218,-0.535923 -0.02681,-1.694557 -0.03252,-2.574744 -0.0081,-1.255585 -0.01836,-1.607633 -0.04745,-1.63421 -0.106289,-0.0971 -3.10159,-0.677511 -3.496415,-0.677511 h -0.135139 l 3.71e-4,0.281495 c 5.78e-4,0.445614 0.107808,1.632044 0.261587,2.894346 0.106753,0.876288 0.163675,1.197828 0.22476,1.269608 0.108101,0.127026 1.297194,0.741581 1.931131,0.998059 0.417345,0.168849 1.151926,0.414027 1.246224,0.415946 l 0.06959,0.0014 z m 0.778946,-4.666157 c 0.521312,-0.175316 1.631211,-0.587253 1.882404,-0.698649 0.123751,-0.05488 0.155359,-0.08002 0.123166,-0.09796 -0.08273,-0.04609 -1.835693,-0.312599 -2.781117,-0.422813 -0.349053,-0.04069 -0.466344,-0.04391 -0.635169,-0.01741 -0.320219,0.05026 -2.598014,0.698144 -2.656719,0.755658 -0.03178,0.03113 0.194652,0.08146 1.179323,0.262104 1.326108,0.243286 2.097867,0.369927 2.267379,0.372065 0.120438,0.0015 0.273269,-0.03615 0.620733,-0.153004 z"
             style="fill:#000000;stroke:#000000;stroke-width:0.229;stroke-miterlimit:4;stroke-dasharray:none;stroke-opacity:1" />
        </g>
        <g
           transform="matrix(0.35279357,0,0,0.35279357,83.481728,22.56444)"
           id="layer1-6-3-2-37-0"
           inkscape:label="Capa 1">
          <path
             sodipodi:nodetypes="cccssssssccscscccccsscscssccscsccscccccsscsssscs"
             inkscape:connector-curvature="0"
             id="path828-6-0-4-2"
             d="m 15.55133,51.922274 c -0.685146,-0.279517 -3.20637,-1.507059 -3.324727,-1.618753 -0.03438,-0.03244 -0.07718,-0.127286 -0.09554,-0.211722 -0.08948,-0.411375 -0.262648,-1.722668 -0.332832,-2.520399 -0.05025,-0.57112 -0.0596,-2.009074 -0.01364,-2.094972 0.04031,-0.07531 0.184184,-0.143729 0.562025,-0.267256 0.722856,-0.236322 1.733468,-0.499615 2.410752,-0.628071 0.275408,-0.05224 0.396016,-0.0603 0.707347,-0.04732 0.415417,0.01732 1.429283,0.142198 2.38188,0.293384 0.766175,0.121598 1.019543,0.178219 1.103853,0.246676 l 0.06543,0.05313 -0.0077,1.496494 c -0.0081,1.566318 -0.04308,2.635128 -0.0968,2.95367 -0.03024,0.179307 -0.04114,0.197626 -0.223796,0.376151 -0.196508,0.192058 -2.306176,1.852072 -2.49635,1.964276 -0.172205,0.101604 -0.398334,0.103271 -0.639907,0.0047 z m 0.681956,-0.312805 c 0.354128,-0.250525 1.358355,-1.012126 1.81541,-1.376797 0.537371,-0.428752 0.598921,-0.493547 0.633573,-0.666962 0.06192,-0.309915 0.154976,-1.794696 0.205292,-3.275805 0.02806,-0.82606 0.02665,-0.940151 -0.01209,-0.978893 -0.05115,-0.05115 -0.07672,-0.04286 -1.158797,0.375245 -1.269982,0.490712 -1.8449,0.758627 -1.912296,0.891141 -0.06033,0.118622 -0.03326,2.613007 0.04901,4.516299 0.02534,0.586113 0.04026,0.707347 0.08705,0.707347 0.01213,0 0.143904,-0.08621 0.292842,-0.191575 z m -0.622651,-1.013802 c -0.01218,-0.535923 -0.02681,-1.694557 -0.03252,-2.574744 -0.0081,-1.255585 -0.01836,-1.607633 -0.04745,-1.63421 -0.106289,-0.0971 -3.10159,-0.677511 -3.496415,-0.677511 h -0.135139 l 3.71e-4,0.281495 c 5.78e-4,0.445614 0.107808,1.632044 0.261587,2.894346 0.106753,0.876288 0.163675,1.197828 0.22476,1.269608 0.108101,0.127026 1.297194,0.741581 1.931131,0.998059 0.417345,0.168849 1.151926,0.414027 1.246224,0.415946 l 0.06959,0.0014 z m 0.778946,-4.666157 c 0.521312,-0.175316 1.631211,-0.587253 1.882404,-0.698649 0.123751,-0.05488 0.155359,-0.08002 0.123166,-0.09796 -0.08273,-0.04609 -1.835693,-0.312599 -2.781117,-0.422813 -0.349053,-0.04069 -0.466344,-0.04391 -0.635169,-0.01741 -0.320219,0.05026 -2.598014,0.698144 -2.656719,0.755658 -0.03178,0.03113 0.194652,0.08146 1.179323,0.262104 1.326108,0.243286 2.097867,0.369927 2.267379,0.372065 0.120438,0.0015 0.273269,-0.03615 0.620733,-0.153004 z"
             style="fill:#000000;stroke:#000000;stroke-width:0.229;stroke-miterlimit:4;stroke-dasharray:none;stroke-opacity:1" />
        </g>
      </g>
      <path
         sodipodi:nodetypes="cc"
         inkscape:connector-curvature="0"
         id="path1090-2-1-3"
         d="M 72.672124,45.105832 H 86.672125"
         style="fill:none;stroke:#000000;stroke-width:0.20910574;stroke-linecap:butt;stroke-linejoin:miter;stroke-miterlimit:4;stroke-dasharray:0.62731724, 0.20910574;stroke-dashoffset:0;stroke-opacity:1" />
      <path
         inkscape:connector-curvature="0"
         id="path1183-2-7"
         d="m 66.45609,42.048858 v 5.58932"
         style="fill:none;stroke:#000000;stroke-width:0.26458332px;stroke-linecap:butt;stroke-linejoin:miter;stroke-opacity:1" />
      <text
         id="text1088-5"
         y="46.058765"
         x="16.060684"
         style="font-style:normal;font-weight:normal;font-size:132.3289032px;line-height:1.25;font-family:sans-serif;letter-spacing:0px;word-spacing:0px;fill:#000000;fill-opacity:1;stroke:none;stroke-width:0.22054817"
         xml:space="preserve"><tspan
           style="font-size:2.64657831px;stroke-width:0.22054817"
           y="46.058765"
           x="16.060684"
           id="tspan1086-92"
           sodipodi:role="line">1</tspan></text>
      <path
         sodipodi:nodetypes="cc"
         inkscape:connector-curvature="0"
         id="path1090-28"
         d="m 19.807968,45.105832 h 14"
         style="fill:none;stroke:#000000;stroke-width:0.2093017px;stroke-linecap:butt;stroke-linejoin:miter;stroke-opacity:1" />
      <text
         id="text1088-0-97"
         y="46.076206"
         x="34.195385"
         style="font-style:normal;font-weight:normal;font-size:132.3289032px;line-height:1.25;font-family:sans-serif;letter-spacing:0px;word-spacing:0px;fill:#000000;fill-opacity:1;stroke:none;stroke-width:0.22054817"
         xml:space="preserve"><tspan
           style="font-size:2.64657831px;stroke-width:0.22054817"
           y="46.076206"
           x="34.195385"
           id="tspan1086-9-3"
           sodipodi:role="line">10</tspan></text>
      <path
         inkscape:connector-curvature="0"
         id="path1524"
         d="m 26.707462,44.385337 c -0.32721,-0.0309 -0.608,-0.1648 -0.83408,-0.39766 -0.2053,-0.21148 -0.33063,-0.46763 -0.37577,-0.76802 -0.0146,-0.0964 -0.0146,-0.2929 0,-0.38932 0.0451,-0.30039 0.17047,-0.55655 0.37577,-0.76802 0.2053,-0.21146 0.45398,-0.34056 0.74561,-0.38706 0.0936,-0.0149 0.28435,-0.0149 0.37795,0 0.29163,0.0465 0.54032,0.1756 0.74561,0.38706 0.20529,0.21147 0.33063,0.46763 0.37577,0.76802 0.0146,0.0964 0.0146,0.2929 0,0.38932 -0.0451,0.30039 -0.17048,0.55654 -0.37577,0.76802 -0.20369,0.2098 -0.45536,0.34113 -0.73948,0.38588 -0.0606,0.01 -0.24253,0.0168 -0.29561,0.0118 z m 0.28674,-0.4043 c 0.37902,-0.0826 0.66052,-0.37337 0.74277,-0.76726 0.0114,-0.0546 0.0134,-0.0821 0.0134,-0.18878 0,-0.13727 -0.008,-0.19521 -0.0442,-0.30753 -0.0193,-0.0605 -0.0832,-0.19821 -0.0976,-0.21054 -0.008,-0.007 -0.0985,0.0842 -0.66014,0.66271 -0.52709,0.54293 -0.64968,0.67214 -0.64415,0.67901 0.0112,0.0138 0.11799,0.0686 0.17857,0.0916 0.0594,0.0225 0.14302,0.0439 0.20692,0.053 0.0658,0.009 0.23732,0.003 0.30447,-0.0122 z m -0.32558,-1.10178 c 0.56058,-0.57744 0.64885,-0.67074 0.6423,-0.67888 -0.012,-0.0148 -0.1457,-0.0806 -0.2044,-0.10052 -0.10905,-0.037 -0.16529,-0.0455 -0.29856,-0.0455 -0.10356,0 -0.13023,0.002 -0.18327,0.0138 -0.34077,0.0755 -0.6073,0.3177 -0.71464,0.6494 -0.036,0.11106 -0.0444,0.16988 -0.0444,0.30753 0,0.13764 0.008,0.19646 0.0444,0.30752 0.0273,0.0846 0.0909,0.21619 0.10432,0.21619 0.003,0 0.29681,-0.30125 0.65425,-0.66945 z"
         style="display:inline;fill:#000000;stroke-width:0.00600021" />
    </g>
  </g>
</svg>
