<?xml version="1.0" encoding="UTF-8" standalone="no"?>
<!-- Created with Inkscape (http://www.inkscape.org/) -->

<svg
   width="120mm"
   height="23.016712mm"
   viewBox="0 0 120 23.016712"
   version="1.1"
   id="svg1100"
   inkscape:version="1.1.2 (0a00cf5339, 2022-02-04)"
   sodipodi:docname="DoubleSmallCannon.svg"
   xmlns:inkscape="http://www.inkscape.org/namespaces/inkscape"
   xmlns:sodipodi="http://sodipodi.sourceforge.net/DTD/sodipodi-0.dtd"
   xmlns="http://www.w3.org/2000/svg"
   xmlns:svg="http://www.w3.org/2000/svg"
   xmlns:rdf="http://www.w3.org/1999/02/22-rdf-syntax-ns#"
   xmlns:cc="http://creativecommons.org/ns#"
   xmlns:dc="http://purl.org/dc/elements/1.1/">
  <defs
     id="defs1094" />
  <sodipodi:namedview
     id="base"
     pagecolor="#ffffff"
     bordercolor="#666666"
     borderopacity="1.0"
     inkscape:pageopacity="0.0"
     inkscape:pageshadow="2"
     inkscape:zoom="1"
     inkscape:cx="306.5"
     inkscape:cy="321.5"
     inkscape:document-units="mm"
     inkscape:current-layer="layer1"
     showgrid="false"
     inkscape:window-width="1846"
     inkscape:window-height="1016"
     inkscape:window-x="74"
     inkscape:window-y="27"
     inkscape:window-maximized="1"
     fit-margin-top="0"
     fit-margin-left="0"
     fit-margin-right="0"
     fit-margin-bottom="0"
     inkscape:snap-global="false"
     inkscape:snap-bbox="true"
     inkscape:pagecheckerboard="0"
     showguides="false" />
  <metadata
     id="metadata1097">
    <rdf:RDF>
      <cc:Work
         rdf:about="">
        <dc:format>image/svg+xml</dc:format>
        <dc:type
           rdf:resource="http://purl.org/dc/dcmitype/StillImage" />
        <dc:title />
      </cc:Work>
    </rdf:RDF>
  </metadata>
  <g
     inkscape:groupmode="layer"
     id="layer3"
     inkscape:label="Background"
     style="display:inline"
     sodipodi:insensitive="true" />
  <g
     inkscape:groupmode="layer"
     id="layer2"
     inkscape:label="Guias"
     style="display:none"
     transform="translate(0,0.2323513)">
    <g
       id="g1399"
       transform="translate(-6.7978492)">
      <rect
         y="11.402682"
         x="50.431446"
         height="11"
         width="74.99527"
         id="rect1878-3"
         style="display:inline;opacity:1;vector-effect:none;fill:#ffe680;fill-opacity:1;stroke:none;stroke-width:0.47467926;stroke-linecap:butt;stroke-linejoin:miter;stroke-miterlimit:4;stroke-dasharray:none;stroke-dashoffset:0;stroke-opacity:1" />
      <rect
         y="0.30218902"
         x="8.1689825"
         height="22.148087"
         width="42.262463"
         id="rect1868"
         style="display:inline;opacity:1;vector-effect:none;fill:#decd87;fill-opacity:1;stroke:none;stroke-width:0.39467782;stroke-linecap:butt;stroke-linejoin:miter;stroke-miterlimit:4;stroke-dasharray:none;stroke-dashoffset:0;stroke-opacity:1" />
      <rect
         y="0.39782956"
         x="50.431446"
         height="11"
         width="74.99527"
         id="rect1878"
         style="display:inline;opacity:1;vector-effect:none;fill:#deaa87;fill-opacity:1;stroke:none;stroke-width:0.47467929;stroke-linecap:butt;stroke-linejoin:miter;stroke-miterlimit:4;stroke-dasharray:none;stroke-dashoffset:0;stroke-opacity:1" />
      <rect
         y="12.891373"
         x="76.863533"
         height="8.0226164"
         width="22"
         id="rect1878-7-3"
         style="display:inline;opacity:1;vector-effect:none;fill:#eeffaa;fill-opacity:1;stroke:none;stroke-width:0.19344766;stroke-linecap:butt;stroke-linejoin:miter;stroke-miterlimit:4;stroke-dasharray:none;stroke-dashoffset:0;stroke-opacity:1" />
      <rect
         y="12.891415"
         x="103.2956"
         height="8.0226164"
         width="22"
         id="rect1878-7-56"
         style="display:inline;opacity:1;vector-effect:none;fill:#ccffaa;fill-opacity:1;stroke:none;stroke-width:0.21753596;stroke-linecap:butt;stroke-linejoin:miter;stroke-miterlimit:4;stroke-dasharray:none;stroke-dashoffset:0;stroke-opacity:1" />
      <rect
         y="12.680782"
         x="50.431446"
         height="8.443799"
         width="22"
         id="rect1878-7"
         style="display:inline;opacity:1;vector-effect:none;fill:#ff9955;fill-opacity:1;stroke:none;stroke-width:0.22317314;stroke-linecap:butt;stroke-linejoin:miter;stroke-miterlimit:4;stroke-dasharray:none;stroke-dashoffset:0;stroke-opacity:1" />
      <rect
         y="13.158642"
         x="77.363533"
         height="7.4880772"
         width="21"
         id="rect1878-7-2-7"
         style="display:inline;opacity:1;vector-effect:none;fill:#ddff55;fill-opacity:1;stroke:none;stroke-width:0.20533194;stroke-linecap:butt;stroke-linejoin:miter;stroke-miterlimit:4;stroke-dasharray:none;stroke-dashoffset:0;stroke-opacity:1" />
      <rect
         y="13.158684"
         x="103.7956"
         height="7.4880772"
         width="21"
         id="rect1878-7-2-7-0"
         style="display:inline;opacity:1;vector-effect:none;fill:#66ff00;fill-opacity:1;stroke:none;stroke-width:0.20533194;stroke-linecap:butt;stroke-linejoin:miter;stroke-miterlimit:4;stroke-dasharray:none;stroke-dashoffset:0;stroke-opacity:1" />
      <rect
         y="13.158642"
         x="50.931446"
         height="7.4880772"
         width="21"
         id="rect1878-7-2"
         style="display:inline;opacity:1;vector-effect:none;fill:#d45500;fill-opacity:1;stroke:none;stroke-width:0.20533194;stroke-linecap:butt;stroke-linejoin:miter;stroke-miterlimit:4;stroke-dasharray:none;stroke-dashoffset:0;stroke-opacity:1" />
    </g>
  </g>
  <g
     inkscape:label="Capa 1"
     inkscape:groupmode="layer"
     id="layer1"
     transform="translate(28.060163,-27.595709)"
     style="display:inline">
    <g
       transform="matrix(0.35279357,0,0,0.35279357,27.66483,22.56444)"
       id="layer1-6-3-2"
       inkscape:label="Capa 1" />
    <g
       id="g1119">
      <rect
         style="display:inline;opacity:1;fill:#ffffff;fill-opacity:1;stroke:none;stroke-width:0.71100003;stroke-miterlimit:4;stroke-dasharray:none;stroke-dashoffset:0;stroke-opacity:1"
         id="rect1126"
         width="119.99902"
         height="23.017704"
         x="-28.060163"
         y="27.595709" />
      <g
         style="display:inline"
         id="g9128"
         transform="translate(-107.62953,-199.34653)">
        <path
           inkscape:connector-curvature="0"
           id="path9084"
           d="M 83.843672,227.37459 H 195.29507"
           style="fill:none;stroke:#000000;stroke-width:0.40000001;stroke-linecap:butt;stroke-linejoin:miter;stroke-miterlimit:4;stroke-dasharray:none;stroke-opacity:1" />
        <path
           inkscape:connector-curvature="0"
           id="path9084-3"
           d="M 83.843669,249.75895 H 195.29507"
           style="fill:none;stroke:#000000;stroke-width:0.40000001;stroke-linecap:butt;stroke-linejoin:miter;stroke-miterlimit:4;stroke-dasharray:none;stroke-opacity:1" />
      </g>
      <g
         id="g931"
         transform="matrix(1.3240563,0,0,1.3240565,-63.334155,-8.5250072)">
        <circle
           r="2.9059739"
           cy="32.709503"
           cx="63.244713"
           id="path1760-3"
           style="opacity:1;vector-effect:none;fill:#ffffff;fill-opacity:1;stroke:#000000;stroke-width:0.31159922;stroke-linecap:butt;stroke-linejoin:miter;stroke-miterlimit:4;stroke-dasharray:none;stroke-dashoffset:0;stroke-opacity:1" />
        <g
           inkscape:export-ydpi="300"
           inkscape:export-xdpi="300"
           inkscape:export-filename="3bullets.png"
           transform="matrix(0.57776063,0,0,0.57776063,39.266143,11.610937)"
           style="stroke:#000000;stroke-opacity:1"
           id="g1314">
          <path
             style="fill:#000000;stroke:#000000;stroke-width:0.01702486;stroke-opacity:1"
             d="m 38.791441,35.598415 c -0.03173,-0.0031 -0.06413,0.0061 -0.0884,0.0281 -0.02927,0.02659 -0.03117,0.07657 -0.03117,0.888129 0,0.776379 0.0026,0.863092 0.0281,0.891196 0.04312,0.04764 0.131989,0.04058 0.174765,-0.0138 0.01186,-0.01512 0.01931,-0.03909 0.02454,-0.08125 l 0.0603,0.06184 0.06285,0.06438 h 1.673546 1.673547 l 0.452751,-0.0077 c 0.542174,-0.0092 0.644723,-0.02758 0.930544,-0.167098 0.250498,-0.122274 0.419839,-0.275879 0.513562,-0.465528 0.05978,-0.120921 0.06388,-0.139766 0.06388,-0.283609 0,-0.13213 -0.0063,-0.168213 -0.04599,-0.252948 -0.09088,-0.193984 -0.361877,-0.42117 -0.647444,-0.542689 -0.241521,-0.102777 -0.362997,-0.111171 -0.749139,-0.11651 -0.191954,-0.0026 -0.385797,-0.0036 -0.430267,-0.0021 l -0.08788,-5.11e-4 H 40.697523 39.02551 l -0.06438,0.06285 -0.06234,0.06082 c -0.0053,-0.04063 -0.0123,-0.0638 -0.02402,-0.0787 -0.02071,-0.02632 -0.05156,-0.04189 -0.08329,-0.04498 z"
             id="path1002-7-2-3"
             inkscape:connector-curvature="0" />
          <path
             style="fill:#000000;stroke:#000000;stroke-width:0.01702486;stroke-opacity:1"
             d="m 38.791441,37.678538 c -0.03173,-0.0031 -0.06413,0.0061 -0.0884,0.0281 -0.02927,0.0266 -0.03117,0.07657 -0.03117,0.88813 0,0.776378 0.0026,0.863092 0.0281,0.891195 0.04312,0.04764 0.131989,0.04058 0.174765,-0.0138 0.01186,-0.01512 0.01931,-0.03909 0.02454,-0.08125 l 0.0603,0.06184 0.06285,0.06438 h 1.673546 1.673547 l 0.452751,-0.0077 c 0.542174,-0.0092 0.644723,-0.02758 0.930544,-0.167098 0.250498,-0.122273 0.419839,-0.275879 0.513562,-0.465528 0.05978,-0.12092 0.06388,-0.139765 0.06388,-0.283608 0,-0.13213 -0.0063,-0.168214 -0.04599,-0.252949 -0.09088,-0.193983 -0.361877,-0.421169 -0.647444,-0.542689 -0.241521,-0.102777 -0.362997,-0.11117 -0.749139,-0.11651 -0.191954,-0.0026 -0.385797,-0.0036 -0.430267,-0.0021 l -0.08788,-5.12e-4 H 40.697523 39.02551 l -0.06438,0.06286 -0.06234,0.06082 c -0.0053,-0.04063 -0.0123,-0.0638 -0.02402,-0.0787 -0.02071,-0.02632 -0.05156,-0.04189 -0.08329,-0.04498 z"
             id="path1002-7-0-7"
             inkscape:connector-curvature="0" />
          <path
             style="fill:#000000;stroke:#000000;stroke-width:0.01702486;stroke-opacity:1"
             d="m 38.79452,33.518312 c -0.03173,-0.0031 -0.06413,0.0061 -0.0884,0.0281 -0.02927,0.02659 -0.03117,0.07657 -0.03117,0.88813 0,0.776378 0.0026,0.863092 0.0281,0.891195 0.04312,0.04764 0.131989,0.04058 0.174765,-0.0138 0.01186,-0.01512 0.01931,-0.03909 0.02454,-0.08125 l 0.0603,0.06184 0.06285,0.06438 h 1.673547 1.673546 l 0.452751,-0.0077 c 0.542175,-0.0092 0.644723,-0.02759 0.930544,-0.167098 0.250498,-0.122274 0.419839,-0.275879 0.513562,-0.465528 0.05978,-0.120921 0.06388,-0.139766 0.06388,-0.283609 0,-0.13213 -0.0063,-0.168213 -0.04599,-0.252948 -0.09088,-0.193984 -0.361877,-0.42117 -0.647444,-0.542689 -0.24152,-0.102777 -0.362996,-0.11117 -0.749139,-0.11651 -0.191954,-0.0026 -0.385797,-0.0036 -0.430267,-0.0021 l -0.08788,-5.11e-4 H 40.700602 39.02859 l -0.06438,0.06286 -0.06234,0.06082 c -0.0053,-0.04063 -0.0123,-0.0638 -0.02402,-0.0787 -0.02071,-0.02632 -0.05156,-0.04189 -0.08329,-0.04498 z"
             id="path1002-7-2-3-5"
             inkscape:connector-curvature="0" />
        </g>
      </g>
      <g
         style="display:inline"
         id="g1033"
         transform="translate(19.247686,66.198426)">
        <rect
           y="-36.617252"
           x="21.17853"
           height="8.2894325"
           width="8.2894325"
           id="rect925-7-3-61-49-09"
           style="display:inline;opacity:1;vector-effect:none;fill:#ffffff;fill-opacity:1;stroke:#000000;stroke-width:0.71056741;stroke-linecap:butt;stroke-linejoin:miter;stroke-miterlimit:4;stroke-dasharray:none;stroke-dashoffset:0;stroke-opacity:1" />
        <rect
           y="-36.617252"
           x="31.46801"
           height="8.2894325"
           width="8.2894325"
           id="rect925-7-3-61-49-0-6"
           style="display:inline;opacity:1;vector-effect:none;fill:#ffffff;fill-opacity:1;stroke:#000000;stroke-width:0.71056741;stroke-linecap:butt;stroke-linejoin:miter;stroke-miterlimit:4;stroke-dasharray:none;stroke-dashoffset:0;stroke-opacity:1" />
        <rect
           y="-36.617252"
           x="41.757488"
           height="8.2894325"
           width="8.2894325"
           id="rect925-7-3-61-49-9-3"
           style="display:inline;opacity:1;vector-effect:none;fill:#ffffff;fill-opacity:1;stroke:#000000;stroke-width:0.71056741;stroke-linecap:butt;stroke-linejoin:miter;stroke-miterlimit:4;stroke-dasharray:none;stroke-dashoffset:0;stroke-opacity:1" />
        <rect
           y="-36.617252"
           x="52.046974"
           height="8.2894325"
           width="8.2894325"
           id="rect925-7-3-61-49-1-8"
           style="display:inline;opacity:1;vector-effect:none;fill:#ffffff;fill-opacity:1;stroke:#000000;stroke-width:0.71056741;stroke-linecap:butt;stroke-linejoin:miter;stroke-miterlimit:4;stroke-dasharray:none;stroke-dashoffset:0;stroke-opacity:1" />
        <rect
           y="-36.617252"
           x="62.336449"
           height="8.2894325"
           width="8.2894325"
           id="rect925-7-3-61-49-7-5"
           style="display:inline;opacity:1;vector-effect:none;fill:#ffffff;fill-opacity:1;stroke:#000000;stroke-width:0.71056741;stroke-linecap:butt;stroke-linejoin:miter;stroke-miterlimit:4;stroke-dasharray:none;stroke-dashoffset:0;stroke-opacity:1" />
      </g>
      <g
         id="g5462"
         transform="translate(-2.867426)">
        <path
           inkscape:export-ydpi="300"
           inkscape:export-xdpi="300"
           inkscape:export-filename="1flame.png"
           sodipodi:nodetypes="ccccsccccscccccscscccsccccccc"
           inkscape:connector-curvature="0"
           id="path826-3"
           d="m -12.64008,48.958131 c -0.74036,-0.42454 -1.16313,-1.30599 -1.029019,-2.14547 0.0723,-0.45236 0.205399,-0.75728 0.51281,-1.17452 0.855259,-1.16082 1.01121,-1.47811 1.05736,-2.15132 0.0145,-0.21106 0.0365,-0.38375 0.049,-0.38375 0.0124,0 0.167669,0.10751 0.34492,0.23891 0.70314,0.52126 1.09797,1.22932 1.19017,2.13433 l 0.0354,0.34789 0.128,-0.13562 c 0.0704,-0.0746 0.155331,-0.22937 0.188751,-0.34397 l 0.0608,-0.20837 0.1909595,0.39085 c 0.22784,0.46637 0.37001,0.95442 0.40995,1.40733 0.0722,0.81861 -0.34268,1.61611 -1.0524605,2.0231 -0.284589,0.16319 -0.392549,0.19094 -0.22254,0.0572 0.17355,-0.13653 0.36875,-0.53511 0.397241,-0.81118 0.0384,-0.37175 -0.0755,-0.6917 -0.409021,-1.14935 -0.334519,-0.45901 -0.487779,-0.77035 -0.53289,-1.08258 l -0.0324,-0.22468 -0.18305,0.17817 c -0.34858,0.3393 -0.59597,1.08145 -0.53423,1.6027 0.0148,0.1247 0.009,0.22675 -0.0126,0.22675 -0.089,0 -0.32551,-0.33503 -0.3523,-0.49904 -0.0158,-0.0965 -0.0345,-0.20683 -0.0417,-0.2452 -0.0169,-0.0902 -0.24643,0.40925 -0.30533,0.66445 -0.10999,0.4766 -0.0184,0.91088 0.26098,1.23724 0.0901,0.10532 0.15703,0.19129 0.14864,0.19105 -0.008,-1.8e-4 -0.12865,-0.0654 -0.26725,-0.14494 z"
           style="fill:#000000;stroke:#000000;stroke-width:0.3;stroke-miterlimit:4;stroke-dasharray:none;stroke-opacity:1" />
        <circle
           r="1.6063988"
           cy="46.190102"
           cx="-5.093729"
           id="path3810"
           style="vector-effect:none;fill:#000000;fill-opacity:1;stroke:none;stroke-width:0.292091;stroke-linecap:butt;stroke-linejoin:miter;stroke-miterlimit:4;stroke-dasharray:0.876273, 0.292091;stroke-dashoffset:0;stroke-opacity:1" />
        <circle
           r="1.6063988"
           cy="46.190102"
           cx="0.63260931"
           id="path3810-8"
           style="vector-effect:none;fill:#000000;fill-opacity:1;stroke:none;stroke-width:0.292091;stroke-linecap:butt;stroke-linejoin:miter;stroke-miterlimit:4;stroke-dasharray:0.876273, 0.292091;stroke-dashoffset:0;stroke-opacity:1" />
        <circle
           r="1.6063988"
           cy="46.190102"
           cx="6.3674612"
           id="path3810-8-7"
           style="display:inline;vector-effect:none;fill:#000000;fill-opacity:1;stroke:none;stroke-width:0.292091;stroke-linecap:butt;stroke-linejoin:miter;stroke-miterlimit:4;stroke-dasharray:0.876273, 0.292091;stroke-dashoffset:0;stroke-opacity:1" />
      </g>
      <g
         id="g319"
         transform="translate(0,1.4519014)">
        <path
           inkscape:connector-curvature="0"
           id="path1183-3"
           d="m 40.029239,41.86511 v 5.58932"
           style="fill:none;stroke:#000000;stroke-width:0.26458332px;stroke-linecap:butt;stroke-linejoin:miter;stroke-opacity:1" />
        <text
           id="text1088-6"
           y="46.058769"
           x="16.071161"
           style="font-style:normal;font-weight:normal;font-size:132.3289032px;line-height:1.25;font-family:sans-serif;letter-spacing:0px;word-spacing:0px;fill:#000000;fill-opacity:1;stroke:none;stroke-width:0.22054817"
           xml:space="preserve"><tspan
             style="font-size:2.64657831px;stroke-width:0.22054817"
             y="46.058769"
             x="16.071161"
             id="tspan1086-7"
             sodipodi:role="line">1</tspan></text>
        <path
           sodipodi:nodetypes="cc"
           inkscape:connector-curvature="0"
           id="path1090-5"
           d="m 19.818443,45.105832 h 14"
           style="fill:none;stroke:#000000;stroke-width:0.2093017px;stroke-linecap:butt;stroke-linejoin:miter;stroke-opacity:1" />
        <text
           id="text1088-0-3"
           y="46.07621"
           x="34.20586"
           style="font-style:normal;font-weight:normal;font-size:132.3289032px;line-height:1.25;font-family:sans-serif;letter-spacing:0px;word-spacing:0px;fill:#000000;fill-opacity:1;stroke:none;stroke-width:0.22054817"
           xml:space="preserve"><tspan
             style="font-size:2.64657831px;stroke-width:0.22054817"
             y="46.07621"
             x="34.20586"
             id="tspan1086-9-5"
             sodipodi:role="line">25</tspan></text>
        <g
           inkscape:label="Capa 1"
           id="layer1-6-75-2"
           transform="matrix(0.35279356,0,0,0.35279356,21.390541,25.995102)">
          <path
             style="fill:#000000;stroke:#000000;stroke-width:0.229;stroke-miterlimit:4;stroke-dasharray:none;stroke-opacity:1"
             d="m 15.55133,51.922274 c -0.685146,-0.279517 -3.20637,-1.507059 -3.324727,-1.618753 -0.03438,-0.03244 -0.07718,-0.127286 -0.09554,-0.211722 -0.08948,-0.411375 -0.262648,-1.722668 -0.332832,-2.520399 -0.05025,-0.57112 -0.0596,-2.009074 -0.01364,-2.094972 0.04031,-0.07531 0.184184,-0.143729 0.562025,-0.267256 0.722856,-0.236322 1.733468,-0.499615 2.410752,-0.628071 0.275408,-0.05224 0.396016,-0.0603 0.707347,-0.04732 0.415417,0.01732 1.429283,0.142198 2.38188,0.293384 0.766175,0.121598 1.019543,0.178219 1.103853,0.246676 l 0.06543,0.05313 -0.0077,1.496494 c -0.0081,1.566318 -0.04308,2.635128 -0.0968,2.95367 -0.03024,0.179307 -0.04114,0.197626 -0.223796,0.376151 -0.196508,0.192058 -2.306176,1.852072 -2.49635,1.964276 -0.172205,0.101604 -0.398334,0.103271 -0.639907,0.0047 z m 0.681956,-0.312805 c 0.354128,-0.250525 1.358355,-1.012126 1.81541,-1.376797 0.537371,-0.428752 0.598921,-0.493547 0.633573,-0.666962 0.06192,-0.309915 0.154976,-1.794696 0.205292,-3.275805 0.02806,-0.82606 0.02665,-0.940151 -0.01209,-0.978893 -0.05115,-0.05115 -0.07672,-0.04286 -1.158797,0.375245 -1.269982,0.490712 -1.8449,0.758627 -1.912296,0.891141 -0.06033,0.118622 -0.03326,2.613007 0.04901,4.516299 0.02534,0.586113 0.04026,0.707347 0.08705,0.707347 0.01213,0 0.143904,-0.08621 0.292842,-0.191575 z m -0.622651,-1.013802 c -0.01218,-0.535923 -0.02681,-1.694557 -0.03252,-2.574744 -0.0081,-1.255585 -0.01836,-1.607633 -0.04745,-1.63421 -0.106289,-0.0971 -3.10159,-0.677511 -3.496415,-0.677511 h -0.135139 l 3.71e-4,0.281495 c 5.78e-4,0.445614 0.107808,1.632044 0.261587,2.894346 0.106753,0.876288 0.163675,1.197828 0.22476,1.269608 0.108101,0.127026 1.297194,0.741581 1.931131,0.998059 0.417345,0.168849 1.151926,0.414027 1.246224,0.415946 l 0.06959,0.0014 z m 0.778946,-4.666157 c 0.521312,-0.175316 1.631211,-0.587253 1.882404,-0.698649 0.123751,-0.05488 0.155359,-0.08002 0.123166,-0.09796 -0.08273,-0.04609 -1.835693,-0.312599 -2.781117,-0.422813 -0.349053,-0.04069 -0.466344,-0.04391 -0.635169,-0.01741 -0.320219,0.05026 -2.598014,0.698144 -2.656719,0.755658 -0.03178,0.03113 0.194652,0.08146 1.179323,0.262104 1.326108,0.243286 2.097867,0.369927 2.267379,0.372065 0.120438,0.0015 0.273269,-0.03615 0.620733,-0.153004 z"
             id="path828-35-3"
             inkscape:connector-curvature="0"
             sodipodi:nodetypes="cccssssssccscscccccsscscssccscsccscccccsscsssscs" />
        </g>
        <text
           id="text1088-1-6"
           y="46.07621"
           x="42.910072"
           style="font-style:normal;font-weight:normal;font-size:132.3289032px;line-height:1.25;font-family:sans-serif;letter-spacing:0px;word-spacing:0px;fill:#000000;fill-opacity:1;stroke:none;stroke-width:0.22054817"
           xml:space="preserve"><tspan
             style="font-size:2.64657831px;stroke-width:0.22054817"
             y="46.07621"
             x="42.910072"
             id="tspan1086-8-2"
             sodipodi:role="line">25</tspan></text>
        <text
           id="text1088-0-9-9"
           y="46.057472"
           x="60.900501"
           style="font-style:normal;font-weight:normal;font-size:132.3289032px;line-height:1.25;font-family:sans-serif;letter-spacing:0px;word-spacing:0px;fill:#000000;fill-opacity:1;stroke:none;stroke-width:0.22054817"
           xml:space="preserve"><tspan
             style="font-size:2.64657831px;stroke-width:0.22054817"
             y="46.057472"
             x="60.900501"
             id="tspan1086-9-2-1"
             sodipodi:role="line">50</tspan></text>
        <g
           inkscape:label="Capa 1"
           id="layer1-6-3-2-32"
           transform="matrix(0.35279356,0,0,0.35279356,48.190112,25.995102)">
          <path
             style="fill:#000000;stroke:#000000;stroke-width:0.229;stroke-miterlimit:4;stroke-dasharray:none;stroke-opacity:1"
             d="m 15.55133,51.922274 c -0.685146,-0.279517 -3.20637,-1.507059 -3.324727,-1.618753 -0.03438,-0.03244 -0.07718,-0.127286 -0.09554,-0.211722 -0.08948,-0.411375 -0.262648,-1.722668 -0.332832,-2.520399 -0.05025,-0.57112 -0.0596,-2.009074 -0.01364,-2.094972 0.04031,-0.07531 0.184184,-0.143729 0.562025,-0.267256 0.722856,-0.236322 1.733468,-0.499615 2.410752,-0.628071 0.275408,-0.05224 0.396016,-0.0603 0.707347,-0.04732 0.415417,0.01732 1.429283,0.142198 2.38188,0.293384 0.766175,0.121598 1.019543,0.178219 1.103853,0.246676 l 0.06543,0.05313 -0.0077,1.496494 c -0.0081,1.566318 -0.04308,2.635128 -0.0968,2.95367 -0.03024,0.179307 -0.04114,0.197626 -0.223796,0.376151 -0.196508,0.192058 -2.306176,1.852072 -2.49635,1.964276 -0.172205,0.101604 -0.398334,0.103271 -0.639907,0.0047 z m 0.681956,-0.312805 c 0.354128,-0.250525 1.358355,-1.012126 1.81541,-1.376797 0.537371,-0.428752 0.598921,-0.493547 0.633573,-0.666962 0.06192,-0.309915 0.154976,-1.794696 0.205292,-3.275805 0.02806,-0.82606 0.02665,-0.940151 -0.01209,-0.978893 -0.05115,-0.05115 -0.07672,-0.04286 -1.158797,0.375245 -1.269982,0.490712 -1.8449,0.758627 -1.912296,0.891141 -0.06033,0.118622 -0.03326,2.613007 0.04901,4.516299 0.02534,0.586113 0.04026,0.707347 0.08705,0.707347 0.01213,0 0.143904,-0.08621 0.292842,-0.191575 z m -0.622651,-1.013802 c -0.01218,-0.535923 -0.02681,-1.694557 -0.03252,-2.574744 -0.0081,-1.255585 -0.01836,-1.607633 -0.04745,-1.63421 -0.106289,-0.0971 -3.10159,-0.677511 -3.496415,-0.677511 h -0.135139 l 3.71e-4,0.281495 c 5.78e-4,0.445614 0.107808,1.632044 0.261587,2.894346 0.106753,0.876288 0.163675,1.197828 0.22476,1.269608 0.108101,0.127026 1.297194,0.741581 1.931131,0.998059 0.417345,0.168849 1.151926,0.414027 1.246224,0.415946 l 0.06959,0.0014 z m 0.778946,-4.666157 c 0.521312,-0.175316 1.631211,-0.587253 1.882404,-0.698649 0.123751,-0.05488 0.155359,-0.08002 0.123166,-0.09796 -0.08273,-0.04609 -1.835693,-0.312599 -2.781117,-0.422813 -0.349053,-0.04069 -0.466344,-0.04391 -0.635169,-0.01741 -0.320219,0.05026 -2.598014,0.698144 -2.656719,0.755658 -0.03178,0.03113 0.194652,0.08146 1.179323,0.262104 1.326108,0.243286 2.097867,0.369927 2.267379,0.372065 0.120438,0.0015 0.273269,-0.03615 0.620733,-0.153004 z"
             id="path828-6-0-0"
             inkscape:connector-curvature="0"
             sodipodi:nodetypes="cccssssssccscscccccsscscssccscsccscccccsscsssscs" />
        </g>
        <path
           sodipodi:nodetypes="cc"
           inkscape:connector-curvature="0"
           id="path1090-2-2"
           d="M 46.618016,45.105832 H 60.618017"
           style="fill:none;stroke:#000000;stroke-width:0.20910574;stroke-linecap:butt;stroke-linejoin:miter;stroke-miterlimit:4;stroke-dasharray:1.67284597, 0.20910574;stroke-dashoffset:0;stroke-opacity:1" />
        <text
           id="text1088-8-7"
           y="46.057472"
           x="68.938629"
           style="font-style:normal;font-weight:normal;font-size:132.3289032px;line-height:1.25;font-family:sans-serif;letter-spacing:0px;word-spacing:0px;fill:#000000;fill-opacity:1;stroke:none;stroke-width:0.22054817"
           xml:space="preserve"><tspan
             style="font-size:2.64657831px;stroke-width:0.22054817"
             y="46.057472"
             x="68.938629"
             id="tspan1086-97-0"
             sodipodi:role="line">50</tspan></text>
        <text
           id="text1088-0-6-9"
           y="46.040031"
           x="87.026459"
           style="font-style:normal;font-weight:normal;font-size:132.3289032px;line-height:1.25;font-family:sans-serif;letter-spacing:0px;word-spacing:0px;fill:#000000;fill-opacity:1;stroke:none;stroke-width:0.22054817"
           xml:space="preserve"><tspan
             style="font-size:2.64657831px;stroke-width:0.22054817"
             y="46.040031"
             x="87.026459"
             id="tspan1086-9-1-3"
             sodipodi:role="line">80</tspan></text>
        <g
           inkscape:label="Capa 1"
           id="layer1-6-3-2-37"
           transform="matrix(0.35279356,0,0,0.35279356,74.233734,25.995102)">
          <path
             style="fill:#000000;stroke:#000000;stroke-width:0.229;stroke-miterlimit:4;stroke-dasharray:none;stroke-opacity:1"
             d="m 15.55133,51.922274 c -0.685146,-0.279517 -3.20637,-1.507059 -3.324727,-1.618753 -0.03438,-0.03244 -0.07718,-0.127286 -0.09554,-0.211722 -0.08948,-0.411375 -0.262648,-1.722668 -0.332832,-2.520399 -0.05025,-0.57112 -0.0596,-2.009074 -0.01364,-2.094972 0.04031,-0.07531 0.184184,-0.143729 0.562025,-0.267256 0.722856,-0.236322 1.733468,-0.499615 2.410752,-0.628071 0.275408,-0.05224 0.396016,-0.0603 0.707347,-0.04732 0.415417,0.01732 1.429283,0.142198 2.38188,0.293384 0.766175,0.121598 1.019543,0.178219 1.103853,0.246676 l 0.06543,0.05313 -0.0077,1.496494 c -0.0081,1.566318 -0.04308,2.635128 -0.0968,2.95367 -0.03024,0.179307 -0.04114,0.197626 -0.223796,0.376151 -0.196508,0.192058 -2.306176,1.852072 -2.49635,1.964276 -0.172205,0.101604 -0.398334,0.103271 -0.639907,0.0047 z m 0.681956,-0.312805 c 0.354128,-0.250525 1.358355,-1.012126 1.81541,-1.376797 0.537371,-0.428752 0.598921,-0.493547 0.633573,-0.666962 0.06192,-0.309915 0.154976,-1.794696 0.205292,-3.275805 0.02806,-0.82606 0.02665,-0.940151 -0.01209,-0.978893 -0.05115,-0.05115 -0.07672,-0.04286 -1.158797,0.375245 -1.269982,0.490712 -1.8449,0.758627 -1.912296,0.891141 -0.06033,0.118622 -0.03326,2.613007 0.04901,4.516299 0.02534,0.586113 0.04026,0.707347 0.08705,0.707347 0.01213,0 0.143904,-0.08621 0.292842,-0.191575 z m -0.622651,-1.013802 c -0.01218,-0.535923 -0.02681,-1.694557 -0.03252,-2.574744 -0.0081,-1.255585 -0.01836,-1.607633 -0.04745,-1.63421 -0.106289,-0.0971 -3.10159,-0.677511 -3.496415,-0.677511 h -0.135139 l 3.71e-4,0.281495 c 5.78e-4,0.445614 0.107808,1.632044 0.261587,2.894346 0.106753,0.876288 0.163675,1.197828 0.22476,1.269608 0.108101,0.127026 1.297194,0.741581 1.931131,0.998059 0.417345,0.168849 1.151926,0.414027 1.246224,0.415946 l 0.06959,0.0014 z m 0.778946,-4.666157 c 0.521312,-0.175316 1.631211,-0.587253 1.882404,-0.698649 0.123751,-0.05488 0.155359,-0.08002 0.123166,-0.09796 -0.08273,-0.04609 -1.835693,-0.312599 -2.781117,-0.422813 -0.349053,-0.04069 -0.466344,-0.04391 -0.635169,-0.01741 -0.320219,0.05026 -2.598014,0.698144 -2.656719,0.755658 -0.03178,0.03113 0.194652,0.08146 1.179323,0.262104 1.326108,0.243286 2.097867,0.369927 2.267379,0.372065 0.120438,0.0015 0.273269,-0.03615 0.620733,-0.153004 z"
             id="path828-6-0-4"
             inkscape:connector-curvature="0"
             sodipodi:nodetypes="cccssssssccscscccccsscscssccscsccscccccsscsssscs" />
        </g>
        <path
           sodipodi:nodetypes="cc"
           inkscape:connector-curvature="0"
           id="path1090-2-1-6"
           d="M 72.661638,45.105832 H 86.66164"
           style="fill:none;stroke:#000000;stroke-width:0.20910574;stroke-linecap:butt;stroke-linejoin:miter;stroke-miterlimit:4;stroke-dasharray:0.62731724, 0.20910574;stroke-dashoffset:0;stroke-opacity:1" />
        <path
           inkscape:connector-curvature="0"
           id="path1183-2-0"
           d="m 66.517797,42.048858 v 5.58932"
           style="fill:none;stroke:#000000;stroke-width:0.26458332px;stroke-linecap:butt;stroke-linejoin:miter;stroke-opacity:1" />
      </g>
      <text
         xml:space="preserve"
         style="font-style:normal;font-weight:normal;font-size:118.341px;line-height:1.25;font-family:sans-serif;letter-spacing:0px;word-spacing:0px;display:inline;fill:#000000;fill-opacity:1;stroke:none;stroke-width:0.197236"
         x="25.720625"
         y="36.345673"
         id="text872"><tspan
           sodipodi:role="line"
           id="tspan870"
           x="25.720625"
           y="36.345673"
           style="font-size:4.2077px;stroke-width:0.197236">x2</tspan></text>
      <g
         id="g731"
         transform="translate(0.57026207,11.080023)">
        <path
           style="display:inline;fill:#000000;stroke-width:0.0550156"
           d="m -8.6467063,20.021705 -0.03793,1.207622 c -1.3364277,-0.261722 -3.5431107,-0.08147 -4.1715087,0.365907 -0.194907,0.120977 -0.367799,0.273361 -0.515458,0.457276 -0.02821,-0.574479 -0.136984,-0.534303 -0.558127,-0.277555 -0.470463,0.286849 -0.51632,0.185913 -0.51632,2.288964 v 1.88039 h 0.982646 c 1.014262,0 1.353726,0.09523 1.353726,0.380129 0,0.08891 0.109236,0.120676 0.417194,0.120676 h 0.417194 v -0.546489 c 0,-0.102191 0.0025,-0.180773 0.0065,-0.252989 0.197936,0.02333 0.839949,0.02786 1.5321537,0.01551 0.02899,0.128896 0.04698,0.266291 0.04698,0.405558 v 0.378406 h 0.500805 0.500374 v 0.316773 c 0,0.174183 0.04545,0.361891 0.10042,0.417195 0.112625,0.112674 0.636999,0.133088 0.797754,0.03103 0.0541,-0.0343 0.07802,-0.504051 0.0849,-1.668344 0.02204,-0.0037 0.05619,-0.0065 0.07542,-0.01034 -0.0059,-0.05849 -0.01057,-1.038368 -0.01035,-2.17777 2.14e-4,-1.139403 -0.0091,-2.085631 -0.02067,-2.102778 -8.74e-4,-0.0015 -0.04485,-0.0025 -0.05904,-0.0039 l -0.0086,-1.225292 h -0.458999 z"
           id="path948"
           inkscape:connector-curvature="0"
           sodipodi:nodetypes="cccccscssscsccscccscccccccccc" />
        <g
           id="g8837"
           transform="matrix(0.96933443,0,0,0.71674313,-1.2218961,8.5086504)"
           style="display:inline">
          <g
             id="g8554"
             transform="translate(0.86962424,-0.47097607)">
            <path
               id="path978-2-3-7"
               style="display:inline;fill:#000000;stroke-width:0.114018"
               d="m -7.3808361,24.194413 c -0.00631,-0.0082 -0.0256,-4.835482 -0.0186,-5.007668 0.001,-0.03351 0.03028,-0.06148 0.06408,-0.06174 4.1639149,-0.01195 4.61079,0.0038 8.7746585,-0.03087 0.2951586,-0.0026 0.5381864,0.01714 0.5451846,0.0443 0.009,0.03831 0.025691,4.14639 0.021696,4.857343 -5.291e-4,0.08155 -0.016007,0.15394 -0.034105,0.161732 l -9.3529101,0.03691 z"
               sodipodi:nodetypes="scccccccs" />
            <path
               id="path978-2-3"
               style="display:inline;fill:#000000;stroke-width:0.0927053"
               d="m 2.5666375,23.944318 c -0.2512246,-2.15e-4 -0.420923,-0.0015 -0.426847,-0.0045 -0.012991,-0.006 -0.015584,-0.84277 -0.015002,-1.758191 1.005e-4,-0.211161 0.010768,-0.386092 0.023257,-0.389526 0.030898,-0.0077 1.5438513,-0.01616 1.5612523,-0.0084 0.01199,0.006 0.02347,2.119885 0.01138,2.144611 -0.003,0.0052 0.4266706,0.01092 -0.2378198,0.01375 -0.3322505,0.0013 -0.6650011,0.0024 -0.9162229,0.0022 z"
               sodipodi:nodetypes="ccccccccc" />
            <path
               id="path978-2-3-3"
               style="display:inline;fill:#000000;stroke-width:0.0939195"
               d="m 2.5666375,21.564715 c -0.2512246,-2.21e-4 -0.420923,-0.0015 -0.426847,-0.0046 -0.012991,-0.0062 -0.015584,-0.86499 -0.015002,-1.804546 1.005e-4,-0.216728 0.010768,-0.396271 0.023257,-0.399795 0.030898,-0.0079 1.5438513,-0.01658 1.5612523,-0.0086 0.01199,0.0062 0.02347,2.175776 0.01138,2.201154 -0.003,0.0053 0.4266706,0.01121 -0.2378198,0.01412 -0.3322505,0.0013 -0.6650011,0.0025 -0.9162229,0.0023 z"
               sodipodi:nodetypes="ccccccccc" />
            <rect
               style="fill:#ffffff;stroke-width:10.665;stroke-linecap:round"
               id="rect5648"
               width="1.930373"
               height="6.8720927"
               x="0.23453414"
               y="18.214127" />
            <rect
               style="fill:#000000;stroke-width:10.665;stroke-linecap:round"
               id="rect5522"
               width="1.5574306"
               height="6.71104"
               x="0.46783698"
               y="18.202105" />
            <rect
               style="fill:#ffffff;stroke-width:10.665;stroke-linecap:round"
               id="rect5648-2"
               width="1.930373"
               height="6.8720927"
               x="-7.5408525"
               y="18.214127" />
            <rect
               style="fill:#000000;stroke-width:10.665;stroke-linecap:round"
               id="rect5522-3"
               width="1.5574306"
               height="6.71104"
               x="-7.3075495"
               y="18.202105" />
          </g>
        </g>
        <g
           id="g716"
           transform="translate(8.2648906,-0.11620141)">
          <circle
             style="fill:#ffffff;stroke-width:10.665;stroke-linecap:round"
             id="path2438"
             cx="-19.015276"
             cy="26.062126"
             r="1.4407912" />
          <path
             style="fill:#000000;stroke-width:0.0110996"
             d="m -19.261889,27.080524 c -0.0056,-0.01068 -0.01902,-0.08301 -0.02981,-0.160726 -0.01732,-0.124827 -0.02232,-0.142155 -0.0429,-0.148614 -0.01282,-0.004 -0.05078,-0.02489 -0.08435,-0.04638 -0.03358,-0.02149 -0.06637,-0.03911 -0.07286,-0.03916 -0.0065,-4.6e-5 -0.07285,0.02416 -0.147444,0.0538 -0.134008,0.05325 -0.13588,0.05363 -0.156644,0.03237 -0.0414,-0.04239 -0.23415,-0.389923 -0.226834,-0.408989 0.0039,-0.01017 0.0576,-0.05826 0.119324,-0.106871 l 0.112229,-0.08838 7.54e-4,-0.106505 7.54e-4,-0.106505 -0.112955,-0.08747 c -0.06212,-0.04811 -0.116121,-0.09573 -0.119993,-0.10582 -0.0073,-0.01893 0.185734,-0.366717 0.226884,-0.408851 0.02077,-0.02126 0.02264,-0.02088 0.156644,0.03237 0.0746,0.02964 0.140947,0.05385 0.147446,0.0538 0.0065,-5e-5 0.03929,-0.01767 0.07286,-0.03916 0.03358,-0.02149 0.07154,-0.04236 0.08435,-0.04638 0.0206,-0.0065 0.02559,-0.02378 0.04291,-0.148614 0.01077,-0.07772 0.0242,-0.150043 0.02981,-0.160726 0.0092,-0.01758 0.03282,-0.01943 0.24807,-0.01943 0.215246,0 0.238832,0.0019 0.248068,0.01943 0.0056,0.01068 0.01902,0.08301 0.02981,0.160726 0.01732,0.124828 0.02232,0.142155 0.0429,0.148614 0.01282,0.004 0.05078,0.02489 0.08435,0.04638 0.03357,0.02149 0.06637,0.03911 0.07286,0.03916 0.0065,5e-5 0.07285,-0.02416 0.147443,-0.0538 0.133989,-0.05324 0.135883,-0.05363 0.15659,-0.03237 0.02515,0.02581 0.219447,0.359598 0.222778,0.382704 0.005,0.03499 -0.0041,0.04542 -0.11454,0.130967 l -0.114245,0.08847 7.54e-4,0.106504 7.54e-4,0.106505 0.113574,0.08944 c 0.109781,0.08645 0.11892,0.09706 0.113868,0.132096 -0.0033,0.02309 -0.197623,0.35688 -0.222749,0.382675 -0.02067,0.02122 -0.02272,0.02077 -0.162855,-0.03506 l -0.141924,-0.05655 -0.0333,0.02176 c -0.01832,0.01197 -0.05886,0.0347 -0.09009,0.05052 l -0.0568,0.02876 -0.01942,0.139932 c -0.01067,0.07696 -0.024,0.148674 -0.02962,0.159358 -0.0092,0.01758 -0.03282,0.01942 -0.248068,0.01942 -0.215245,0 -0.238831,-0.0019 -0.248067,-0.01942 z m 0.417932,-0.696353 c 0.06664,-0.03631 0.122513,-0.0934 0.159869,-0.16337 0.02167,-0.04058 0.02546,-0.0642 0.02546,-0.15867 0,-0.102052 -0.0026,-0.11574 -0.03261,-0.169864 -0.03704,-0.06686 -0.09429,-0.122696 -0.163906,-0.15987 -0.04058,-0.02166 -0.0642,-0.02545 -0.158671,-0.02545 -0.09447,0 -0.118094,0.0038 -0.158669,0.02545 -0.06962,0.03717 -0.126869,0.09301 -0.163908,0.15987 -0.02998,0.05412 -0.03261,0.06781 -0.03261,0.169864 0,0.09395 0.0039,0.118195 0.02504,0.157862 0.07614,0.1425 0.185789,0.205645 0.346794,0.199723 0.0791,-0.0029 0.103864,-0.0087 0.153215,-0.03554 z"
             id="path2316" />
        </g>
      </g>
    </g>
  </g>
</svg>
