<?xml version="1.0" encoding="UTF-8" standalone="no"?>
<!-- Created with Inkscape (http://www.inkscape.org/) -->

<svg
   width="120mm"
   height="23.016712mm"
   viewBox="0 0 120 23.016712"
   version="1.1"
   id="svg1100"
   inkscape:version="1.1.2 (0a00cf5339, 2022-02-04)"
   sodipodi:docname="Punch.svg"
   xmlns:inkscape="http://www.inkscape.org/namespaces/inkscape"
   xmlns:sodipodi="http://sodipodi.sourceforge.net/DTD/sodipodi-0.dtd"
   xmlns="http://www.w3.org/2000/svg"
   xmlns:svg="http://www.w3.org/2000/svg"
   xmlns:rdf="http://www.w3.org/1999/02/22-rdf-syntax-ns#"
   xmlns:cc="http://creativecommons.org/ns#"
   xmlns:dc="http://purl.org/dc/elements/1.1/">
  <defs
     id="defs1094" />
  <sodipodi:namedview
     id="base"
     pagecolor="#ffffff"
     bordercolor="#666666"
     borderopacity="1.0"
     inkscape:pageopacity="0.0"
     inkscape:pageshadow="2"
     inkscape:zoom="1"
     inkscape:cx="54.499999"
     inkscape:cy="-26.999999"
     inkscape:document-units="mm"
     inkscape:current-layer="layer1"
     showgrid="false"
     inkscape:window-width="1920"
     inkscape:window-height="1043"
     inkscape:window-x="0"
     inkscape:window-y="0"
     inkscape:window-maximized="1"
     fit-margin-top="0"
     fit-margin-left="0"
     fit-margin-right="0"
     fit-margin-bottom="0"
     inkscape:snap-global="true"
     inkscape:snap-bbox="true"
     inkscape:pagecheckerboard="0" />
  <metadata
     id="metadata1097">
    <rdf:RDF>
      <cc:Work
         rdf:about="">
        <dc:format>image/svg+xml</dc:format>
        <dc:type
           rdf:resource="http://purl.org/dc/dcmitype/StillImage" />
      </cc:Work>
    </rdf:RDF>
  </metadata>
  <g
     inkscape:groupmode="layer"
     id="layer3"
     inkscape:label="Background"
     style="display:inline" />
  <g
     inkscape:groupmode="layer"
     id="layer2"
     inkscape:label="Guias"
     style="display:inline"
     transform="translate(0,0.2323513)">
    <g
       id="g1399"
       transform="translate(-6.7978492)">
      <rect
         y="11.402682"
         x="50.431446"
         height="11"
         width="74.99527"
         id="rect1878-3"
         style="display:inline;opacity:1;vector-effect:none;fill:#ffe680;fill-opacity:1;stroke:none;stroke-width:0.47467926;stroke-linecap:butt;stroke-linejoin:miter;stroke-miterlimit:4;stroke-dasharray:none;stroke-dashoffset:0;stroke-opacity:1" />
      <rect
         y="0.30218902"
         x="8.1689825"
         height="22.148087"
         width="42.262463"
         id="rect1868"
         style="display:inline;opacity:1;vector-effect:none;fill:#decd87;fill-opacity:1;stroke:none;stroke-width:0.39467782;stroke-linecap:butt;stroke-linejoin:miter;stroke-miterlimit:4;stroke-dasharray:none;stroke-dashoffset:0;stroke-opacity:1" />
      <rect
         y="0.39782956"
         x="50.431446"
         height="11"
         width="74.99527"
         id="rect1878"
         style="display:inline;opacity:1;vector-effect:none;fill:#deaa87;fill-opacity:1;stroke:none;stroke-width:0.47467929;stroke-linecap:butt;stroke-linejoin:miter;stroke-miterlimit:4;stroke-dasharray:none;stroke-dashoffset:0;stroke-opacity:1" />
      <rect
         y="12.891373"
         x="76.863533"
         height="8.0226164"
         width="22"
         id="rect1878-7-3"
         style="display:inline;opacity:1;vector-effect:none;fill:#eeffaa;fill-opacity:1;stroke:none;stroke-width:0.19344766;stroke-linecap:butt;stroke-linejoin:miter;stroke-miterlimit:4;stroke-dasharray:none;stroke-dashoffset:0;stroke-opacity:1" />
      <rect
         y="12.891415"
         x="103.2956"
         height="8.0226164"
         width="22"
         id="rect1878-7-56"
         style="display:inline;opacity:1;vector-effect:none;fill:#ccffaa;fill-opacity:1;stroke:none;stroke-width:0.21753596;stroke-linecap:butt;stroke-linejoin:miter;stroke-miterlimit:4;stroke-dasharray:none;stroke-dashoffset:0;stroke-opacity:1" />
      <rect
         y="12.680782"
         x="50.431446"
         height="8.443799"
         width="22"
         id="rect1878-7"
         style="display:inline;opacity:1;vector-effect:none;fill:#ff9955;fill-opacity:1;stroke:none;stroke-width:0.22317314;stroke-linecap:butt;stroke-linejoin:miter;stroke-miterlimit:4;stroke-dasharray:none;stroke-dashoffset:0;stroke-opacity:1" />
      <rect
         y="13.158642"
         x="77.363533"
         height="7.4880772"
         width="21"
         id="rect1878-7-2-7"
         style="display:inline;opacity:1;vector-effect:none;fill:#ddff55;fill-opacity:1;stroke:none;stroke-width:0.20533194;stroke-linecap:butt;stroke-linejoin:miter;stroke-miterlimit:4;stroke-dasharray:none;stroke-dashoffset:0;stroke-opacity:1" />
      <rect
         y="13.158684"
         x="103.7956"
         height="7.4880772"
         width="21"
         id="rect1878-7-2-7-0"
         style="display:inline;opacity:1;vector-effect:none;fill:#66ff00;fill-opacity:1;stroke:none;stroke-width:0.20533194;stroke-linecap:butt;stroke-linejoin:miter;stroke-miterlimit:4;stroke-dasharray:none;stroke-dashoffset:0;stroke-opacity:1" />
      <rect
         y="13.158642"
         x="50.931446"
         height="7.4880772"
         width="21"
         id="rect1878-7-2"
         style="display:inline;opacity:1;vector-effect:none;fill:#d45500;fill-opacity:1;stroke:none;stroke-width:0.20533194;stroke-linecap:butt;stroke-linejoin:miter;stroke-miterlimit:4;stroke-dasharray:none;stroke-dashoffset:0;stroke-opacity:1" />
    </g>
  </g>
  <g
     inkscape:label="Capa 1"
     inkscape:groupmode="layer"
     id="layer1"
     transform="translate(28.060163,-27.595709)"
     style="display:inline">
    <g
       transform="matrix(0.35279357,0,0,0.35279357,27.66483,22.56444)"
       id="layer1-6-3-2"
       inkscape:label="Capa 1" />
    <rect
       style="display:inline;opacity:1;fill:#ffffff;fill-opacity:1;stroke:none;stroke-width:0.71100003;stroke-miterlimit:4;stroke-dasharray:none;stroke-dashoffset:0;stroke-opacity:1"
       id="rect1126"
       width="119.99902"
       height="23.017704"
       x="-28.060163"
       y="27.595709" />
    <g
       style="display:inline"
       id="g9128"
       transform="translate(-107.62953,-199.34653)">
      <path
         inkscape:connector-curvature="0"
         id="path9084"
         d="M 83.843672,227.37459 H 195.29507"
         style="fill:none;stroke:#000000;stroke-width:0.40000001;stroke-linecap:butt;stroke-linejoin:miter;stroke-miterlimit:4;stroke-dasharray:none;stroke-opacity:1" />
      <path
         inkscape:connector-curvature="0"
         id="path9084-3"
         d="M 83.843669,249.75895 H 195.29507"
         style="fill:none;stroke:#000000;stroke-width:0.40000001;stroke-linecap:butt;stroke-linejoin:miter;stroke-miterlimit:4;stroke-dasharray:none;stroke-opacity:1" />
    </g>
    <g
       id="g383"
       transform="matrix(1.3240563,0,0,1.3240565,-11.756817,13.836628)">
      <circle
         r="2.9059739"
         cy="15.820772"
         cx="24.290676"
         id="path1760-3-7"
         style="opacity:1;vector-effect:none;fill:#ffffff;fill-opacity:1;stroke:#000000;stroke-width:0.31159922;stroke-linecap:butt;stroke-linejoin:miter;stroke-miterlimit:4;stroke-dasharray:none;stroke-dashoffset:0;stroke-opacity:1" />
      <path
         inkscape:export-ydpi="300"
         inkscape:export-xdpi="300"
         inkscape:export-filename="1sword.png"
         sodipodi:nodetypes="cccccccsccssscssscsscscsscscccccccscscc"
         inkscape:connector-curvature="0"
         id="path1327"
         d="m 22.955075,17.371526 c 0.03685,-0.0091 0.06702,-0.02719 0.09377,-0.05619 0.03556,-0.03859 0.04582,-0.06185 0.04903,-0.111267 l 0.0028,-0.04328 0.250709,-0.250653 0.250707,-0.250653 0.06274,-5.02e-4 c 0.08226,-5.03e-4 0.114477,-0.01495 0.181922,-0.08061 l 0.04803,-0.04677 0.11105,0.110465 c 0.108933,0.108355 0.111538,0.110464 0.136755,0.110464 0.03549,0 0.05551,-0.02005 0.05551,-0.05556 0,-0.02537 -0.0018,-0.02755 -0.124401,-0.150661 l -0.1244,-0.124923 0.694148,-0.695057 c 0.782416,-0.783438 0.821412,-0.825699 0.988767,-1.071481 0.104214,-0.153054 0.21731,-0.351482 0.21731,-0.38128 0,-0.0098 -0.0048,-0.01849 -0.01222,-0.0225 -0.02594,-0.01391 -0.312856,0.156865 -0.50722,0.301841 -0.162718,0.12137 -0.224401,0.180047 -0.934768,0.889204 l -0.710463,0.70925 -0.118284,-0.118959 c -0.06506,-0.06543 -0.126483,-0.122533 -0.136501,-0.126903 -0.03885,-0.01693 -0.08196,0.01271 -0.08196,0.05633 0,0.02036 0.0082,0.03015 0.112296,0.134803 l 0.112296,0.112859 -0.0458,0.04536 c -0.03088,0.03057 -0.05212,0.05818 -0.06524,0.08474 -0.01811,0.03667 -0.01944,0.04364 -0.01928,0.101551 l 1.54e-4,0.06217 -0.246233,0.246178 -0.246234,0.246179 -0.03999,0.0021 c -0.04865,0.0026 -0.08662,0.01864 -0.121873,0.05115 -0.04341,0.04 -0.05637,0.07233 -0.05637,0.14059 0,0.0524 0.0016,0.06035 0.01721,0.08695 0.0095,0.0161 0.02585,0.03766 0.03643,0.04792 0.03961,0.03839 0.117208,0.05992 0.169582,0.04698 z"
         style="fill:#000000;stroke:#000000;stroke-width:0.16442627;stroke-miterlimit:4;stroke-dasharray:none;stroke-opacity:1" />
    </g>
    <g
       style="display:inline"
       id="g1033"
       transform="translate(19.247686,66.198426)">
      <rect
         y="-36.617252"
         x="21.17853"
         height="8.2894325"
         width="8.2894325"
         id="rect925-7-3-61-49-09"
         style="display:inline;opacity:1;vector-effect:none;fill:#ffffff;fill-opacity:1;stroke:#000000;stroke-width:0.71056741;stroke-linecap:butt;stroke-linejoin:miter;stroke-miterlimit:4;stroke-dasharray:none;stroke-dashoffset:0;stroke-opacity:1" />
      <rect
         y="-36.617252"
         x="31.46801"
         height="8.2894325"
         width="8.2894325"
         id="rect925-7-3-61-49-0-6"
         style="display:inline;opacity:1;vector-effect:none;fill:#ffffff;fill-opacity:1;stroke:#000000;stroke-width:0.71056741;stroke-linecap:butt;stroke-linejoin:miter;stroke-miterlimit:4;stroke-dasharray:none;stroke-dashoffset:0;stroke-opacity:1" />
      <rect
         y="-36.617252"
         x="41.757488"
         height="8.2894325"
         width="8.2894325"
         id="rect925-7-3-61-49-9-3"
         style="display:inline;opacity:1;vector-effect:none;fill:#ffffff;fill-opacity:1;stroke:#000000;stroke-width:0.71056741;stroke-linecap:butt;stroke-linejoin:miter;stroke-miterlimit:4;stroke-dasharray:none;stroke-dashoffset:0;stroke-opacity:1" />
      <rect
         y="-36.617252"
         x="52.046974"
         height="8.2894325"
         width="8.2894325"
         id="rect925-7-3-61-49-1-8"
         style="display:inline;opacity:1;vector-effect:none;fill:#ffffff;fill-opacity:1;stroke:#000000;stroke-width:0.71056741;stroke-linecap:butt;stroke-linejoin:miter;stroke-miterlimit:4;stroke-dasharray:none;stroke-dashoffset:0;stroke-opacity:1" />
      <rect
         y="-36.617252"
         x="62.336449"
         height="8.2894325"
         width="8.2894325"
         id="rect925-7-3-61-49-7-5"
         style="display:inline;opacity:1;vector-effect:none;fill:#ffffff;fill-opacity:1;stroke:#000000;stroke-width:0.71056741;stroke-linecap:butt;stroke-linejoin:miter;stroke-miterlimit:4;stroke-dasharray:none;stroke-dashoffset:0;stroke-opacity:1" />
    </g>
    <g
       id="g226"
       transform="translate(2.2151513,1.0583333)">
      <path
         inkscape:export-ydpi="300"
         inkscape:export-xdpi="300"
         inkscape:export-filename="1flame.png"
         sodipodi:nodetypes="ccccsccccscccccscscccsccccccc"
         inkscape:connector-curvature="0"
         id="path826-3-3"
         d="m -11.992062,47.899798 c -0.74036,-0.42454 -1.16313,-1.30599 -1.029019,-2.14547 0.0723,-0.45236 0.205399,-0.75728 0.51281,-1.17452 0.855259,-1.16082 1.01121,-1.47811 1.05736,-2.15132 0.0145,-0.21106 0.0365,-0.38375 0.049,-0.38375 0.0124,0 0.167669,0.10751 0.34492,0.23891 0.70314,0.52126 1.0979695,1.22932 1.1901695,2.13433 l 0.0354,0.34789 0.128,-0.13562 c 0.0704,-0.0746 0.15533,-0.22937 0.18875,-0.34397 l 0.0608,-0.20837 0.19096,0.39085 c 0.22784,0.46637 0.37001,0.95442 0.40995,1.40733 0.0722,0.81861 -0.34268,1.61611 -1.05246,2.0231 -0.2845895,0.16319 -0.3925495,0.19094 -0.2225405,0.0572 0.1735505,-0.13653 0.3687505,-0.53511 0.3972405,-0.81118 0.0384,-0.37175 -0.0755,-0.6917 -0.4090205,-1.14935 -0.334519,-0.45901 -0.487779,-0.77035 -0.53289,-1.08258 l -0.0324,-0.22468 -0.18305,0.17817 c -0.34858,0.3393 -0.59597,1.08145 -0.53423,1.6027 0.0148,0.1247 0.009,0.22675 -0.0126,0.22675 -0.089,0 -0.32551,-0.33503 -0.3523,-0.49904 -0.0158,-0.0965 -0.0345,-0.20683 -0.0417,-0.2452 -0.0169,-0.0902 -0.24643,0.40925 -0.30533,0.66445 -0.10999,0.4766 -0.0184,0.91088 0.26098,1.23724 0.0901,0.10532 0.15703,0.19129 0.14864,0.19105 -0.008,-1.8e-4 -0.12865,-0.0654 -0.26725,-0.14494 z"
         style="fill:#000000;stroke:#000000;stroke-width:0.30000001;stroke-miterlimit:4;stroke-dasharray:none;stroke-opacity:1" />
      <circle
         r="1.6063988"
         cy="45.131767"
         cx="-4.4457111"
         id="path3810-6"
         style="opacity:1;vector-effect:none;fill:#000000;fill-opacity:1;stroke:none;stroke-width:0.29209089;stroke-linecap:butt;stroke-linejoin:miter;stroke-miterlimit:4;stroke-dasharray:0.87627266, 0.29209089;stroke-dashoffset:0;stroke-opacity:1" />
    </g>
    <path
       style="fill:none;stroke:#000000;stroke-width:0.26458332px;stroke-linecap:butt;stroke-linejoin:miter;stroke-opacity:1"
       d="m 40.024002,43.317011 v 5.58932"
       id="path1183-5"
       inkscape:connector-curvature="0" />
    <path
       style="fill:none;stroke:#000000;stroke-width:0.26458332px;stroke-linecap:butt;stroke-linejoin:miter;stroke-opacity:1"
       d="m 66.456089,43.500759 v 5.58932"
       id="path1183-2-3"
       inkscape:connector-curvature="0" />
    <text
       xml:space="preserve"
       style="font-style:normal;font-weight:normal;font-size:132.329px;line-height:1.25;font-family:sans-serif;letter-spacing:0px;word-spacing:0px;fill:#000000;fill-opacity:1;stroke:none;stroke-width:0.220548"
       x="16.060684"
       y="47.510666"
       id="text1088-5"><tspan
         sodipodi:role="line"
         id="tspan1086-6"
         x="16.060684"
         y="47.510666"
         style="font-size:2.64658px;stroke-width:0.220548">1</tspan></text>
    <path
       style="fill:none;stroke:#000000;stroke-width:0.2093017px;stroke-linecap:butt;stroke-linejoin:miter;stroke-opacity:1"
       d="m 19.807967,46.557733 h 14"
       id="path1090-29"
       inkscape:connector-curvature="0"
       sodipodi:nodetypes="cc" />
    <text
       xml:space="preserve"
       style="font-style:normal;font-weight:normal;font-size:132.329px;line-height:1.25;font-family:sans-serif;letter-spacing:0px;word-spacing:0px;fill:#000000;fill-opacity:1;stroke:none;stroke-width:0.220548"
       x="34.195385"
       y="47.528107"
       id="text1088-0-1"><tspan
         sodipodi:role="line"
         id="tspan1086-9-27"
         x="34.195385"
         y="47.528107"
         style="font-size:2.64658px;stroke-width:0.220548">5</tspan></text>
    <g
       transform="matrix(0.35279357,0,0,0.35279357,21.380066,27.447003)"
       id="layer1-6-8-10-3-1"
       inkscape:label="Capa 1">
      <path
         sodipodi:nodetypes="cccssssssccscscccccsscscssccscsccscccccsscsssscs"
         inkscape:connector-curvature="0"
         id="path828-79-6-6-2"
         d="m 15.55133,51.922274 c -0.685146,-0.279517 -3.20637,-1.507059 -3.324727,-1.618753 -0.03438,-0.03244 -0.07718,-0.127286 -0.09554,-0.211722 -0.08948,-0.411375 -0.262648,-1.722668 -0.332832,-2.520399 -0.05025,-0.57112 -0.0596,-2.009074 -0.01364,-2.094972 0.04031,-0.07531 0.184184,-0.143729 0.562025,-0.267256 0.722856,-0.236322 1.733468,-0.499615 2.410752,-0.628071 0.275408,-0.05224 0.396016,-0.0603 0.707347,-0.04732 0.415417,0.01732 1.429283,0.142198 2.38188,0.293384 0.766175,0.121598 1.019543,0.178219 1.103853,0.246676 l 0.06543,0.05313 -0.0077,1.496494 c -0.0081,1.566318 -0.04308,2.635128 -0.0968,2.95367 -0.03024,0.179307 -0.04114,0.197626 -0.223796,0.376151 -0.196508,0.192058 -2.306176,1.852072 -2.49635,1.964276 -0.172205,0.101604 -0.398334,0.103271 -0.639907,0.0047 z m 0.681956,-0.312805 c 0.354128,-0.250525 1.358355,-1.012126 1.81541,-1.376797 0.537371,-0.428752 0.598921,-0.493547 0.633573,-0.666962 0.06192,-0.309915 0.154976,-1.794696 0.205292,-3.275805 0.02806,-0.82606 0.02665,-0.940151 -0.01209,-0.978893 -0.05115,-0.05115 -0.07672,-0.04286 -1.158797,0.375245 -1.269982,0.490712 -1.8449,0.758627 -1.912296,0.891141 -0.06033,0.118622 -0.03326,2.613007 0.04901,4.516299 0.02534,0.586113 0.04026,0.707347 0.08705,0.707347 0.01213,0 0.143904,-0.08621 0.292842,-0.191575 z m -0.622651,-1.013802 c -0.01218,-0.535923 -0.02681,-1.694557 -0.03252,-2.574744 -0.0081,-1.255585 -0.01836,-1.607633 -0.04745,-1.63421 -0.106289,-0.0971 -3.10159,-0.677511 -3.496415,-0.677511 h -0.135139 l 3.71e-4,0.281495 c 5.78e-4,0.445614 0.107808,1.632044 0.261587,2.894346 0.106753,0.876288 0.163675,1.197828 0.22476,1.269608 0.108101,0.127026 1.297194,0.741581 1.931131,0.998059 0.417345,0.168849 1.151926,0.414027 1.246224,0.415946 l 0.06959,0.0014 z m 0.778946,-4.666157 c 0.521312,-0.175316 1.631211,-0.587253 1.882404,-0.698649 0.123751,-0.05488 0.155359,-0.08002 0.123166,-0.09796 -0.08273,-0.04609 -1.835693,-0.312599 -2.781117,-0.422813 -0.349053,-0.04069 -0.466344,-0.04391 -0.635169,-0.01741 -0.320219,0.05026 -2.598014,0.698144 -2.656719,0.755658 -0.03178,0.03113 0.194652,0.08146 1.179323,0.262104 1.326108,0.243286 2.097867,0.369927 2.267379,0.372065 0.120438,0.0015 0.273269,-0.03615 0.620733,-0.153004 z"
         style="fill:#000000;stroke:#000000;stroke-width:0.229;stroke-miterlimit:4;stroke-dasharray:none;stroke-opacity:1" />
    </g>
    <g
       id="g1515"
       transform="matrix(1.462187,0,0,1.462187,34.503703,16.255)">
      <path
         style="fill:#000000;stroke-width:0.0250661"
         d="m -26.937915,15.823517 c -0.0242,-0.05574 0.08771,-0.340486 0.169254,-0.430789 l 0.06744,-0.07465 0.915527,0.03818 c 0.992215,0.04144 1.152729,0.03002 1.269175,-0.08873 l 0.06884,-0.07023 0.09904,-0.931689 c 0.05453,-0.512449 0.103473,-0.946797 0.108874,-0.965235 0.0054,-0.02028 0.110472,0.08032 0.264165,0.254233 l 0.254414,0.287759 -0.100273,0.297184 c -0.05516,0.163442 -0.218823,0.651145 -0.363677,1.083793 -0.207198,0.618778 -0.275871,0.799721 -0.321901,0.848073 -0.07053,0.07418 -0.276446,0.177432 -0.357507,0.179364 -0.03224,0.0013 -0.508087,-0.08625 -1.057503,-0.193433 -0.815957,-0.159148 -1.002013,-0.201951 -1.015807,-0.233755 z m -1.628179,-0.974285 c -0.0047,-0.01361 0.0013,-0.520145 0.01223,-1.12563 0.01114,-0.60547 0.01934,-1.121514 0.01889,-1.14674 -9.54e-4,-0.04814 -0.07891,-0.08353 -0.143555,-0.06483 -0.02989,0.0084 -0.04192,0.212441 -0.05791,0.981375 l -0.02046,0.970464 -0.06231,0.02725 c -0.113091,0.04956 -0.662299,0.01623 -0.742706,-0.04513 -0.01761,-0.01342 -0.05923,-0.492292 -0.09774,-1.123126 -0.0591,-0.968171 -0.06213,-1.128154 -0.0254,-1.336756 0.02293,-0.130333 0.06639,-0.293909 0.09651,-0.363501 l 0.05486,-0.126539 0.259438,-0.07959 0.259439,-0.07959 0.178964,0.0584 c 0.237774,0.07757 0.273375,0.06414 0.465542,-0.175178 0.08626,-0.107513 0.181473,-0.200959 0.214194,-0.210291 0.09944,-0.02845 0.548497,-0.0151 0.622374,0.01851 0.03834,0.01742 0.114833,0.06011 0.169982,0.09482 0.147449,0.09292 0.228185,0.07227 0.395344,-0.100974 0.07327,-0.07592 0.153758,-0.149359 0.178874,-0.163146 0.0251,-0.01385 0.198489,-0.0162 0.385276,-0.0053 0.387505,0.02251 0.37302,0.0151 0.528576,0.265814 0.138664,0.223442 0.205056,0.279366 0.317049,0.267084 0.04842,-0.0049 0.130905,-0.02967 0.183195,-0.05404 0.128108,-0.05983 0.173739,-0.06074 0.535136,-0.01059 l 0.311554,0.04327 0.04588,0.102984 c 0.07029,0.157832 0.144895,0.478677 0.149123,0.641027 0.0023,0.08027 -0.06654,0.789172 -0.152587,1.575429 -0.150832,1.378951 -0.158367,1.43072 -0.212779,1.461967 -0.126274,0.07258 -0.892842,0.0084 -0.998612,-0.08349 -0.04447,-0.03868 -0.04209,-0.134683 0.02998,-1.1969 l 0.07808,-1.154868 -0.06694,-0.0035 c -0.03675,-0.0028 -0.07939,0.0033 -0.09454,0.01005 -0.01627,0.0076 -0.0693,0.496542 -0.128909,1.186441 -0.05561,0.645095 -0.110359,1.181093 -0.121479,1.191134 -0.09692,0.08742 -1.268971,-0.0086 -1.29598,-0.10625 -0.0065,-0.02294 0.04544,-1.065706 0.103194,-2.07664 l 0.01731,-0.304355 -0.07787,-0.0067 c -0.04285,-0.0029 -0.08464,-0.0038 -0.09306,0.002 -0.01195,0.0067 -0.110034,1.355051 -0.15962,2.194302 l -0.0083,0.149815 -0.141227,0.02045 c -0.259443,0.03738 -0.887595,-0.04447 -0.908067,-0.118335 z"
         id="path20732" />
      <path
         id="rect20854"
         style="fill:#000000;stroke:none;stroke-width:0.264999;stroke-linecap:round;stroke-linejoin:round;stroke-miterlimit:4;stroke-dasharray:none"
         d="m -23.757147,10.49711 c 0.004,-0.183434 -0.140546,-0.334375 -0.323979,-0.338357 l -4.639966,-0.100723 c -0.183435,-0.004 -0.334378,0.140545 -0.33836,0.32398 l -0.0076,0.349766 c -0.004,0.183435 0.140546,0.334375 0.323981,0.338357 l 0.362681,0.0079 c 0.03705,-0.03454 0.07831,-0.08331 0.131964,-0.150134 0.08626,-0.107513 0.181701,-0.201038 0.214423,-0.21037 0.09944,-0.02845 0.548564,-0.01493 0.62244,0.01868 0.03834,0.01742 0.114921,0.05996 0.170069,0.09466 0.14745,0.09292 0.227867,0.07224 0.395027,-0.101005 0.07327,-0.07592 0.154165,-0.149274 0.17928,-0.163062 0.0251,-0.01385 0.198401,-0.01593 0.385191,-0.0051 0.387501,0.02252 0.372617,0.01506 0.528174,0.265773 0.138663,0.223442 0.205267,0.279162 0.31726,0.266881 0.04842,-0.0049 0.130824,-0.02955 0.183114,-0.05391 0.128108,-0.05983 0.17381,-0.06076 0.535207,-0.01061 l 0.311773,0.04346 0.04091,0.09186 0.262453,0.0057 c 0.183434,0.004 0.334374,-0.140545 0.338356,-0.32398 z" />
    </g>
  </g>
</svg>
