<?xml version="1.0" encoding="UTF-8" standalone="no"?>
<!-- Created with Inkscape (http://www.inkscape.org/) -->

<svg
   xmlns:dc="http://purl.org/dc/elements/1.1/"
   xmlns:cc="http://creativecommons.org/ns#"
   xmlns:rdf="http://www.w3.org/1999/02/22-rdf-syntax-ns#"
   xmlns:svg="http://www.w3.org/2000/svg"
   xmlns="http://www.w3.org/2000/svg"
   xmlns:sodipodi="http://sodipodi.sourceforge.net/DTD/sodipodi-0.dtd"
   xmlns:inkscape="http://www.inkscape.org/namespaces/inkscape"
   width="120mm"
   height="23.016712mm"
   viewBox="0 0 120 23.016712"
   version="1.1"
   id="svg1100"
   inkscape:version="0.92.5 (2060ec1f9f, 2020-04-08)"
   sodipodi:docname="Flamethrower.svg">
  <defs
     id="defs1094" />
  <sodipodi:namedview
     id="base"
     pagecolor="#ffffff"
     bordercolor="#666666"
     borderopacity="1.0"
     inkscape:pageopacity="0.0"
     inkscape:pageshadow="2"
     inkscape:zoom="1.4142136"
     inkscape:cx="-49.028043"
     inkscape:cy="-12.523559"
     inkscape:document-units="mm"
     inkscape:current-layer="layer1"
     showgrid="false"
     inkscape:window-width="1848"
     inkscape:window-height="1016"
     inkscape:window-x="72"
     inkscape:window-y="27"
     inkscape:window-maximized="1"
     fit-margin-top="0"
     fit-margin-left="0"
     fit-margin-right="0"
     fit-margin-bottom="0"
     inkscape:snap-global="true"
     inkscape:snap-bbox="true" />
  <metadata
     id="metadata1097">
    <rdf:RDF>
      <cc:Work
         rdf:about="">
        <dc:format>image/svg+xml</dc:format>
        <dc:type
           rdf:resource="http://purl.org/dc/dcmitype/StillImage" />
        <dc:title></dc:title>
      </cc:Work>
    </rdf:RDF>
  </metadata>
  <g
     inkscape:groupmode="layer"
     id="layer3"
     inkscape:label="Background"
     style="display:inline"
     sodipodi:insensitive="true" />
  <g
     inkscape:groupmode="layer"
     id="layer2"
     inkscape:label="Guias"
     style="display:none"
     transform="translate(0,0.2323513)">
    <g
       id="g1399"
       transform="translate(-6.7978492)">
      <rect
         y="11.402682"
         x="50.431446"
         height="11"
         width="74.99527"
         id="rect1878-3"
         style="display:inline;opacity:1;vector-effect:none;fill:#ffe680;fill-opacity:1;stroke:none;stroke-width:0.47467926;stroke-linecap:butt;stroke-linejoin:miter;stroke-miterlimit:4;stroke-dasharray:none;stroke-dashoffset:0;stroke-opacity:1" />
      <rect
         y="0.30218902"
         x="8.1689825"
         height="22.148087"
         width="42.262463"
         id="rect1868"
         style="display:inline;opacity:1;vector-effect:none;fill:#decd87;fill-opacity:1;stroke:none;stroke-width:0.39467782;stroke-linecap:butt;stroke-linejoin:miter;stroke-miterlimit:4;stroke-dasharray:none;stroke-dashoffset:0;stroke-opacity:1" />
      <rect
         y="0.39782956"
         x="50.431446"
         height="11"
         width="74.99527"
         id="rect1878"
         style="display:inline;opacity:1;vector-effect:none;fill:#deaa87;fill-opacity:1;stroke:none;stroke-width:0.47467929;stroke-linecap:butt;stroke-linejoin:miter;stroke-miterlimit:4;stroke-dasharray:none;stroke-dashoffset:0;stroke-opacity:1" />
      <rect
         y="12.891373"
         x="76.863533"
         height="8.0226164"
         width="22"
         id="rect1878-7-3"
         style="display:inline;opacity:1;vector-effect:none;fill:#eeffaa;fill-opacity:1;stroke:none;stroke-width:0.19344766;stroke-linecap:butt;stroke-linejoin:miter;stroke-miterlimit:4;stroke-dasharray:none;stroke-dashoffset:0;stroke-opacity:1" />
      <rect
         y="12.891415"
         x="103.2956"
         height="8.0226164"
         width="22"
         id="rect1878-7-56"
         style="display:inline;opacity:1;vector-effect:none;fill:#ccffaa;fill-opacity:1;stroke:none;stroke-width:0.21753596;stroke-linecap:butt;stroke-linejoin:miter;stroke-miterlimit:4;stroke-dasharray:none;stroke-dashoffset:0;stroke-opacity:1" />
      <rect
         y="12.680782"
         x="50.431446"
         height="8.443799"
         width="22"
         id="rect1878-7"
         style="display:inline;opacity:1;vector-effect:none;fill:#ff9955;fill-opacity:1;stroke:none;stroke-width:0.22317314;stroke-linecap:butt;stroke-linejoin:miter;stroke-miterlimit:4;stroke-dasharray:none;stroke-dashoffset:0;stroke-opacity:1" />
      <rect
         y="13.158642"
         x="77.363533"
         height="7.4880772"
         width="21"
         id="rect1878-7-2-7"
         style="display:inline;opacity:1;vector-effect:none;fill:#ddff55;fill-opacity:1;stroke:none;stroke-width:0.20533194;stroke-linecap:butt;stroke-linejoin:miter;stroke-miterlimit:4;stroke-dasharray:none;stroke-dashoffset:0;stroke-opacity:1" />
      <rect
         y="13.158684"
         x="103.7956"
         height="7.4880772"
         width="21"
         id="rect1878-7-2-7-0"
         style="display:inline;opacity:1;vector-effect:none;fill:#66ff00;fill-opacity:1;stroke:none;stroke-width:0.20533194;stroke-linecap:butt;stroke-linejoin:miter;stroke-miterlimit:4;stroke-dasharray:none;stroke-dashoffset:0;stroke-opacity:1" />
      <rect
         y="13.158642"
         x="50.931446"
         height="7.4880772"
         width="21"
         id="rect1878-7-2"
         style="display:inline;opacity:1;vector-effect:none;fill:#d45500;fill-opacity:1;stroke:none;stroke-width:0.20533194;stroke-linecap:butt;stroke-linejoin:miter;stroke-miterlimit:4;stroke-dasharray:none;stroke-dashoffset:0;stroke-opacity:1" />
    </g>
  </g>
  <g
     inkscape:label="Capa 1"
     inkscape:groupmode="layer"
     id="layer1"
     transform="translate(28.060163,-27.595709)"
     style="display:inline">
    <g
       transform="matrix(0.35279357,0,0,0.35279357,27.66483,22.56444)"
       id="layer1-6-3-2"
       inkscape:label="Capa 1" />
    <rect
       style="display:inline;opacity:1;fill:#ffffff;fill-opacity:1;stroke:none;stroke-width:0.71100003;stroke-miterlimit:4;stroke-dasharray:none;stroke-dashoffset:0;stroke-opacity:1"
       id="rect1126"
       width="119.99902"
       height="23.017704"
       x="-28.060163"
       y="27.595709" />
    <g
       style="display:inline"
       id="g9128"
       transform="translate(-107.62953,-199.34653)">
      <path
         inkscape:connector-curvature="0"
         id="path9084"
         d="M 83.843672,227.37459 H 195.29507"
         style="fill:none;stroke:#000000;stroke-width:0.40000001;stroke-linecap:butt;stroke-linejoin:miter;stroke-miterlimit:4;stroke-dasharray:none;stroke-opacity:1" />
      <path
         inkscape:connector-curvature="0"
         id="path9084-3"
         d="M 83.843669,249.75895 H 195.29507"
         style="fill:none;stroke:#000000;stroke-width:0.40000001;stroke-linecap:butt;stroke-linejoin:miter;stroke-miterlimit:4;stroke-dasharray:none;stroke-opacity:1" />
    </g>
    <g
       id="g1542"
       transform="matrix(1.3240563,0,0,1.3240565,-26.80827,28.551607)">
      <circle
         r="2.9059739"
         cy="4.7072134"
         cx="35.65836"
         id="path1760-3"
         style="opacity:1;vector-effect:none;fill:#ffffff;fill-opacity:1;stroke:#000000;stroke-width:0.31159922;stroke-linecap:butt;stroke-linejoin:miter;stroke-miterlimit:4;stroke-dasharray:none;stroke-dashoffset:0;stroke-opacity:1" />
      <path
         inkscape:export-ydpi="300"
         inkscape:export-xdpi="300"
         inkscape:export-filename="1flame.png"
         sodipodi:nodetypes="ccccsccccscccccscscccsccccccc"
         inkscape:connector-curvature="0"
         id="path826"
         d="M 34.955795,6.623751 C 34.458809,6.338769 34.175019,5.747079 34.26504,5.183563 c 0.04851,-0.303656 0.13788,-0.508339 0.344235,-0.788419 0.574113,-0.779224 0.678794,-0.99221 0.709778,-1.444116 0.0097,-0.141677 0.0245,-0.257598 0.03287,-0.257598 0.0084,0 0.112546,0.07217 0.231527,0.160372 0.471997,0.349906 0.737041,0.825205 0.79893,1.432709 L 36.40616,4.52004 36.49208,4.429 c 0.04726,-0.05008 0.104272,-0.153968 0.126705,-0.230897 l 0.04078,-0.139872 0.128181,0.262366 c 0.152945,0.313059 0.248381,0.640673 0.275192,0.944697 0.04845,0.549508 -0.230033,1.084845 -0.706484,1.358045 -0.19104,0.109544 -0.263508,0.128172 -0.149387,0.03839 0.116501,-0.09165 0.247531,-0.359203 0.266654,-0.54452 0.02575,-0.249545 -0.05067,-0.464318 -0.274559,-0.771523 -0.224556,-0.30812 -0.327431,-0.517113 -0.357718,-0.726703 l -0.02177,-0.150822 -0.122871,0.119601 c -0.233995,0.227762 -0.400057,0.725944 -0.358616,1.075843 0.0099,0.08371 0.006,0.152211 -0.0085,0.152211 -0.05974,0 -0.218501,-0.224896 -0.236484,-0.33499 -0.01058,-0.06478 -0.02318,-0.13884 -0.028,-0.164596 -0.01134,-0.06054 -0.165426,0.274717 -0.204961,0.446025 -0.07384,0.319927 -0.01234,0.611446 0.175186,0.830521 0.06052,0.0707 0.105415,0.128407 0.09978,0.128246 -0.0055,-1.22e-4 -0.08636,-0.0439 -0.179396,-0.09729 z"
         style="fill:#000000;stroke:#000000;stroke-width:0.20138074;stroke-miterlimit:4;stroke-dasharray:none;stroke-opacity:1" />
    </g>
    <g
       style="display:inline"
       id="g1033"
       transform="translate(19.247686,66.198426)">
      <rect
         y="-36.617252"
         x="21.17853"
         height="8.2894325"
         width="8.2894325"
         id="rect925-7-3-61-49-09"
         style="display:inline;opacity:1;vector-effect:none;fill:#ffffff;fill-opacity:1;stroke:#000000;stroke-width:0.71056741;stroke-linecap:butt;stroke-linejoin:miter;stroke-miterlimit:4;stroke-dasharray:none;stroke-dashoffset:0;stroke-opacity:1" />
      <rect
         y="-36.617252"
         x="31.46801"
         height="8.2894325"
         width="8.2894325"
         id="rect925-7-3-61-49-0-6"
         style="display:inline;opacity:1;vector-effect:none;fill:#ffffff;fill-opacity:1;stroke:#000000;stroke-width:0.71056741;stroke-linecap:butt;stroke-linejoin:miter;stroke-miterlimit:4;stroke-dasharray:none;stroke-dashoffset:0;stroke-opacity:1" />
      <rect
         y="-36.617252"
         x="41.757488"
         height="8.2894325"
         width="8.2894325"
         id="rect925-7-3-61-49-9-3"
         style="display:inline;opacity:1;vector-effect:none;fill:#ffffff;fill-opacity:1;stroke:#000000;stroke-width:0.71056741;stroke-linecap:butt;stroke-linejoin:miter;stroke-miterlimit:4;stroke-dasharray:none;stroke-dashoffset:0;stroke-opacity:1" />
      <rect
         y="-36.617252"
         x="52.046974"
         height="8.2894325"
         width="8.2894325"
         id="rect925-7-3-61-49-1-8"
         style="display:inline;opacity:1;vector-effect:none;fill:#ffffff;fill-opacity:1;stroke:#000000;stroke-width:0.71056741;stroke-linecap:butt;stroke-linejoin:miter;stroke-miterlimit:4;stroke-dasharray:none;stroke-dashoffset:0;stroke-opacity:1" />
      <rect
         y="-36.617252"
         x="62.336449"
         height="8.2894325"
         width="8.2894325"
         id="rect925-7-3-61-49-7-5"
         style="display:inline;opacity:1;vector-effect:none;fill:#ffffff;fill-opacity:1;stroke:#000000;stroke-width:0.71056741;stroke-linecap:butt;stroke-linejoin:miter;stroke-miterlimit:4;stroke-dasharray:none;stroke-dashoffset:0;stroke-opacity:1" />
    </g>
    <g
       id="g1495"
       transform="translate(-19.596436,26.1164)">
      <path
         sodipodi:nodetypes="ccccc"
         inkscape:connector-curvature="0"
         id="rect871"
         d="m 4.4606508,5.7299275 h 9.4133342 c 1.718306,0.821799 1.979788,3.436614 0,4.7066675 H 4.4606508 c -1.680952,-0.8217995 -1.755661,-3.8848685 0,-4.7066675 z"
         style="display:inline;opacity:1;vector-effect:none;fill:#000000;fill-opacity:1;stroke:none;stroke-width:0.2095146;stroke-linecap:butt;stroke-linejoin:miter;stroke-miterlimit:4;stroke-dasharray:none;stroke-dashoffset:0;stroke-opacity:1" />
      <path
         sodipodi:nodetypes="ccccc"
         inkscape:connector-curvature="0"
         id="rect874"
         d="M 3.6762068,10.660721 H 16.208642 c -0.07564,0.218313 -0.07224,0.853226 0,1.08328 H 3.6762068 c -0.336191,-0.130741 -0.336191,-0.915185 0,-1.08328 z"
         style="display:inline;opacity:1;vector-effect:none;fill:#000000;fill-opacity:1;stroke:none;stroke-width:0.2095146;stroke-linecap:butt;stroke-linejoin:miter;stroke-miterlimit:4;stroke-dasharray:none;stroke-dashoffset:0;stroke-opacity:1" />
      <path
         inkscape:connector-curvature="0"
         id="rect877"
         d="m 16.563428,9.9883925 c -0.33619,0.074711 -0.373544,2.3343695 0,2.4277595 h 0.438735 a 0.3828836,0.3828836 0 0 1 0.379304,-0.333313 0.3828836,0.3828836 0 0 1 0.379304,0.333313 h 0.600482 a 0.3828836,0.3828836 0 0 1 0.379304,-0.333313 0.3828836,0.3828836 0 0 1 0.379304,0.333313 h 0.623737 a 0.3828836,0.3828836 0 0 1 0.379304,-0.333313 0.3828836,0.3828836 0 0 1 0.379304,0.333313 h 0.623734 a 0.3828836,0.3828836 0 0 1 0.379306,-0.333313 0.3828836,0.3828836 0 0 1 0.379305,0.333313 h 0.623734 a 0.3828836,0.3828836 0 0 1 0.379306,-0.333313 0.3828836,0.3828836 0 0 1 0.379305,0.333313 h 0.580842 c 0.466934,-0.33619 0.392224,-2.166277 0,-2.4277595 h -0.580842 a 0.3828836,0.3828836 0 0 1 0.0036,0.046511 0.3828836,0.3828836 0 0 1 -0.382922,0.382922 0.3828836,0.3828836 0 0 1 -0.382924,-0.382922 0.3828836,0.3828836 0 0 1 0.0031,-0.046511 h -0.623218 a 0.3828836,0.3828836 0 0 1 0.0036,0.046511 0.3828836,0.3828836 0 0 1 -0.382921,0.382922 0.3828836,0.3828836 0 0 1 -0.382923,-0.382922 0.3828836,0.3828836 0 0 1 0.0031,-0.046511 h -0.623219 a 0.3828836,0.3828836 0 0 1 0.0036,0.046511 0.3828836,0.3828836 0 0 1 -0.38292,0.382922 0.3828836,0.3828836 0 0 1 -0.382924,-0.382922 0.3828836,0.3828836 0 0 1 0.0031,-0.046511 h -0.623164 a 0.3828836,0.3828836 0 0 1 0.0036,0.046511 0.3828836,0.3828836 0 0 1 -0.382922,0.382922 0.3828836,0.3828836 0 0 1 -0.382923,-0.382922 0.3828836,0.3828836 0 0 1 0.0031,-0.046511 H 17.76075 a 0.38288357,0.38288357 0 0 1 0.0036,0.046511 0.38288357,0.38288357 0 0 1 -0.382923,0.382922 0.38288357,0.38288357 0 0 1 -0.382921,-0.382922 0.38288357,0.38288357 0 0 1 0.0031,-0.046511 z m 1.398365,0.8666145 a 0.3828836,0.3828836 0 0 1 0.382924,0.382922 0.3828836,0.3828836 0 0 1 -0.382924,0.382406 0.3828836,0.3828836 0 0 1 -0.382923,-0.382406 0.3828836,0.3828836 0 0 1 0.382923,-0.382922 z m 1.359607,0 a 0.3828836,0.3828836 0 0 1 0.382405,0.382922 0.3828836,0.3828836 0 0 1 -0.382405,0.382406 0.3828836,0.3828836 0 0 1 -0.382921,-0.382406 0.3828836,0.3828836 0 0 1 0.382921,-0.382922 z m 1.381829,0 a 0.3828836,0.3828836 0 0 1 0.382921,0.382922 0.3828836,0.3828836 0 0 1 -0.382921,0.382406 0.3828836,0.3828836 0 0 1 -0.382405,-0.382406 0.3828836,0.3828836 0 0 1 0.382405,-0.382922 z m 1.382345,0 a 0.3828836,0.3828836 0 0 1 0.38292,0.382922 0.3828836,0.3828836 0 0 1 -0.38292,0.382406 0.3828836,0.3828836 0 0 1 -0.382925,-0.382406 0.3828836,0.3828836 0 0 1 0.382925,-0.382922 z m 1.382343,0 a 0.3828836,0.3828836 0 0 1 0.382922,0.382922 0.3828836,0.3828836 0 0 1 -0.382922,0.382406 0.3828836,0.3828836 0 0 1 -0.382923,-0.382406 0.3828836,0.3828836 0 0 1 0.382923,-0.382922 z"
         style="display:inline;opacity:1;vector-effect:none;fill:#000000;fill-opacity:1;stroke:none;stroke-width:0.2095146;stroke-linecap:butt;stroke-linejoin:miter;stroke-miterlimit:4;stroke-dasharray:none;stroke-dashoffset:0;stroke-opacity:1" />
      <path
         sodipodi:nodetypes="ccccc"
         inkscape:connector-curvature="0"
         id="rect882"
         d="m 24.208235,10.687295 h 1.030131 c 0.184895,0.257533 0.178292,0.87165 0,1.030131 h -1.030131 c 0.07263,-0.184895 0.07263,-0.812218 0,-1.030131 z"
         style="display:inline;opacity:1;vector-effect:none;fill:#000000;fill-opacity:1;stroke:none;stroke-width:0.2095146;stroke-linecap:butt;stroke-linejoin:miter;stroke-miterlimit:4;stroke-dasharray:none;stroke-dashoffset:0;stroke-opacity:1" />
      <path
         sodipodi:nodetypes="ccccc"
         inkscape:connector-curvature="0"
         id="rect895"
         d="m 4.1252388,11.796829 h 7.0167432 c 0.569656,0.242804 0.541641,1.122232 0,1.33702 H 4.1252388 c -0.691059,-0.224127 -0.653704,-1.019507 0,-1.33702 z"
         style="display:inline;opacity:1;vector-effect:none;fill:#000000;fill-opacity:1;stroke:none;stroke-width:0.16969463;stroke-linecap:butt;stroke-linejoin:miter;stroke-miterlimit:4;stroke-dasharray:none;stroke-dashoffset:0;stroke-opacity:1" />
      <path
         sodipodi:nodetypes="ccccc"
         inkscape:connector-curvature="0"
         id="rect895-6"
         d="m 12.068861,11.831411 h 3.292882 c 0.49699,0.280159 0.516814,1.084878 0,1.33702 h -3.292882 c -0.576449,-0.224127 -0.521565,-1.019506 0,-1.33702 z"
         style="display:inline;opacity:1;vector-effect:none;fill:#000000;fill-opacity:1;stroke:none;stroke-width:0.11624879;stroke-linecap:butt;stroke-linejoin:miter;stroke-miterlimit:4;stroke-dasharray:none;stroke-dashoffset:0;stroke-opacity:1" />
      <path
         sodipodi:nodetypes="ccccc"
         inkscape:connector-curvature="0"
         id="rect1333"
         d="m 7.0372178,5.2087405 c 0.192679,-0.124023 4.2456532,-0.153553 4.3598342,0 v 0.447804 H 7.0372178 Z"
         style="display:inline;opacity:1;vector-effect:none;fill:#000000;fill-opacity:1;stroke:none;stroke-width:0.17774689;stroke-linecap:butt;stroke-linejoin:miter;stroke-miterlimit:4;stroke-dasharray:none;stroke-dashoffset:0;stroke-opacity:1" />
      <rect
         y="5.4974036"
         x="5.1454487"
         height="5.7629991"
         width="1.1525998"
         id="rect866"
         style="display:inline;opacity:1;vector-effect:none;fill:#000000;fill-opacity:1;stroke:none;stroke-width:0.26499999;stroke-linecap:butt;stroke-linejoin:miter;stroke-miterlimit:4;stroke-dasharray:none;stroke-dashoffset:0;stroke-opacity:1" />
      <rect
         y="5.4222312"
         x="12.136219"
         height="5.7629991"
         width="1.1525998"
         id="rect866-3"
         style="display:inline;opacity:1;vector-effect:none;fill:#000000;fill-opacity:1;stroke:none;stroke-width:0.26499999;stroke-linecap:butt;stroke-linejoin:miter;stroke-miterlimit:4;stroke-dasharray:none;stroke-dashoffset:0;stroke-opacity:1" />
      <rect
         y="11.67588"
         x="4.8317738"
         height="1.6300223"
         width="0.5433408"
         id="rect891"
         style="display:inline;opacity:1;vector-effect:none;fill:#000000;fill-opacity:1;stroke:none;stroke-width:0.26499999;stroke-linecap:butt;stroke-linejoin:miter;stroke-miterlimit:4;stroke-dasharray:none;stroke-dashoffset:0;stroke-opacity:1" />
      <rect
         y="11.67588"
         x="9.8045254"
         height="1.6300223"
         width="0.5433408"
         id="rect891-6"
         style="display:inline;opacity:1;vector-effect:none;fill:#000000;fill-opacity:1;stroke:none;stroke-width:0.26499999;stroke-linecap:butt;stroke-linejoin:miter;stroke-miterlimit:4;stroke-dasharray:none;stroke-dashoffset:0;stroke-opacity:1" />
      <rect
         y="11.656456"
         x="12.412943"
         height="1.6300223"
         width="0.5433408"
         id="rect891-7"
         style="display:inline;opacity:1;vector-effect:none;fill:#000000;fill-opacity:1;stroke:none;stroke-width:0.26499999;stroke-linecap:butt;stroke-linejoin:miter;stroke-miterlimit:4;stroke-dasharray:none;stroke-dashoffset:0;stroke-opacity:1" />
      <rect
         y="11.648106"
         x="14.44252"
         height="1.6300223"
         width="0.5433408"
         id="rect891-5"
         style="display:inline;opacity:1;vector-effect:none;fill:#000000;fill-opacity:1;stroke:none;stroke-width:0.26499999;stroke-linecap:butt;stroke-linejoin:miter;stroke-miterlimit:4;stroke-dasharray:none;stroke-dashoffset:0;stroke-opacity:1" />
    </g>
    <g
       transform="translate(-7.4279952,2.5064464)"
       style="display:inline"
       id="g1271">
      <path
         inkscape:export-ydpi="300"
         inkscape:export-xdpi="300"
         inkscape:export-filename="1flame.png"
         sodipodi:nodetypes="ccccsccccscccccscscccsccccccc"
         inkscape:connector-curvature="0"
         id="path826-3-7"
         d="m -5.1839671,46.451685 c -0.74036,-0.42454 -1.16313,-1.30599 -1.029019,-2.14547 0.0723,-0.45236 0.205399,-0.75728 0.51281,-1.17452 0.855259,-1.16082 1.01121,-1.47811 1.05736,-2.15132 0.0145,-0.21106 0.0365,-0.38375 0.049,-0.38375 0.0124,0 0.167669,0.10751 0.34492,0.23891 0.7031398,0.52126 1.0979693,1.22932 1.1901693,2.13433 l 0.0354,0.34789 0.128,-0.13562 c 0.0704,-0.0746 0.15533,-0.22937 0.18875,-0.34397 l 0.0608,-0.20837 0.19096,0.39085 c 0.22784,0.46637 0.37001,0.95442 0.40995,1.40733 0.0722,0.81861 -0.34268,1.61611 -1.05246,2.0231 -0.2845895,0.16319 -0.3925495,0.19094 -0.2225405,0.0572 0.1735505,-0.13653 0.3687505,-0.53511 0.3972405,-0.81118 0.0384,-0.37175 -0.0755,-0.6917 -0.4090205,-1.14935 -0.334519,-0.45901 -0.4877788,-0.77035 -0.5328898,-1.08258 l -0.0324,-0.22468 -0.18305,0.17817 c -0.34858,0.3393 -0.59597,1.08145 -0.53423,1.6027 0.0148,0.1247 0.009,0.22675 -0.0126,0.22675 -0.089,0 -0.32551,-0.33503 -0.3523,-0.49904 -0.0158,-0.0965 -0.0345,-0.20683 -0.0417,-0.2452 -0.0169,-0.0902 -0.24643,0.40925 -0.30533,0.66445 -0.10999,0.4766 -0.0184,0.91088 0.26098,1.23724 0.0901,0.10532 0.15703,0.19129 0.14864,0.19105 -0.008,-1.8e-4 -0.12865,-0.0654 -0.26725,-0.14494 z"
         style="fill:#000000;stroke:#000000;stroke-width:0.30000001;stroke-miterlimit:4;stroke-dasharray:none;stroke-opacity:1" />
      <circle
         r="1.6063988"
         cy="43.683655"
         cx="2.3623836"
         id="path3810-5"
         style="opacity:1;vector-effect:none;fill:#000000;fill-opacity:1;stroke:none;stroke-width:0.29209089;stroke-linecap:butt;stroke-linejoin:miter;stroke-miterlimit:4;stroke-dasharray:0.87627266, 0.29209089;stroke-dashoffset:0;stroke-opacity:1" />
      <circle
         r="1.6063988"
         cy="43.683655"
         cx="8.0324869"
         id="path3810-8-3-6"
         style="opacity:1;vector-effect:none;fill:#000000;fill-opacity:1;stroke:none;stroke-width:0.29209092;stroke-linecap:butt;stroke-linejoin:miter;stroke-miterlimit:4;stroke-dasharray:0.87627267, 0.29209089;stroke-dashoffset:0;stroke-opacity:1" />
    </g>
    <path
       style="fill:#000000;stroke-width:0.0047986"
       d="m 28.810276,37.130425 c -0.297685,-0.02917 -0.579943,-0.201992 -0.744795,-0.456026 -0.07664,-0.118106 -0.126248,-0.242922 -0.15257,-0.383889 -0.01309,-0.07014 -0.01792,-0.215869 -0.0095,-0.288294 0.03126,-0.270214 0.158118,-0.503512 0.368791,-0.678229 l 0.06315,-0.05237 0.0012,-0.269129 c 6.95e-4,-0.148021 0.0019,-0.681464 0.0026,-1.185433 l 0.0013,-0.916303 0.0173,-0.04822 c 0.03331,-0.09288 0.08365,-0.180845 0.138014,-0.24115 0.06619,-0.07342 0.191992,-0.14517 0.293392,-0.167312 0.02879,-0.0063 0.0616,-0.0084 0.134095,-0.0086 0.08489,-2.17e-4 0.100847,0.0012 0.138198,0.01072 0.107632,0.02792 0.19293,0.07889 0.273248,0.163292 0.09558,0.100435 0.147832,0.216155 0.157314,0.348374 0.0032,0.04474 0.01,1.684279 0.0095,2.292132 l -1.8e-5,0.0224 0.04198,0.03274 c 0.183964,0.143445 0.317763,0.352101 0.370663,0.578032 0.0343,0.146489 0.03354,0.320794 -0.002,0.467308 -0.02613,0.107627 -0.07722,0.227965 -0.134447,0.316708 -0.158449,0.245708 -0.415482,0.415336 -0.690567,0.45574 -0.06121,0.009 -0.21818,0.01323 -0.276844,0.0074 z m 0.476522,-3.35084 c -6.73e-4,-0.261914 -0.002,-0.562579 -0.0028,-0.668149 l -0.0016,-0.191943 -0.01713,-0.0395 c -0.04459,-0.102859 -0.147471,-0.197266 -0.24362,-0.223563 -0.0363,-0.0099 -0.108959,-0.01361 -0.160753,-0.0082 -0.134663,0.01424 -0.254468,0.123303 -0.297893,0.271203 -0.0078,0.02666 -0.0087,0.0773 -0.01123,0.683003 -0.0015,0.359817 -0.0024,0.65457 -0.002,0.65501 4.49e-4,4.48e-4 0.166723,2.24e-4 0.369519,-4.49e-4 l 0.368719,-0.0013 z m 0.464251,1.350107 c -0.05158,-0.0041 -0.07784,-0.01773 -0.09334,-0.04843 -0.01853,-0.03671 -0.01188,-0.0721 0.01995,-0.106136 l 0.02191,-0.02343 0.266865,8.9e-5 c 0.267141,9.2e-5 0.323214,0.0028 0.344909,0.01708 0.01493,0.0098 0.02867,0.03315 0.03237,0.05505 0.0075,0.04472 -0.02438,0.09231 -0.06722,0.100156 -0.0295,0.0054 -0.469066,0.01009 -0.525447,0.0056 z m -0.03009,-0.557262 c -0.04896,-0.0082 -0.07148,-0.03491 -0.07194,-0.08522 -4.04e-4,-0.04542 0.01995,-0.07166 0.06412,-0.08261 0.01326,-0.0033 0.123397,-0.0063 0.296102,-0.0081 l 0.274987,-0.0028 0.01684,0.01628 c 0.05777,0.05584 0.05912,0.09525 0.0052,0.151839 l -0.01486,0.0156 -0.273779,-6.73e-4 c -0.150578,-2.23e-4 -0.28408,-0.0023 -0.296671,-0.0044 z m 0.0063,-0.551435 -0.04058,-0.0027 -0.01568,-0.0206 c -0.02745,-0.03604 -0.03066,-0.06784 -0.01083,-0.107034 0.0095,-0.01874 0.02599,-0.03161 0.04949,-0.03859 0.0085,-0.0025 0.138102,-0.0044 0.298105,-0.0044 l 0.283117,3.8e-5 0.0224,0.02335 c 0.02774,0.02892 0.0361,0.05465 0.02808,0.08647 -0.0072,0.02854 -0.01983,0.04558 -0.04199,0.0566 -0.01699,0.0084 -0.03377,0.009 -0.274815,0.0092 -0.141198,1.26e-4 -0.274982,-8.87e-4 -0.297296,-0.0024 z m -0.04961,-0.570691 c -0.03684,-0.03939 -0.03957,-0.07644 -0.0088,-0.11898 0.02728,-0.03765 0.01444,-0.03632 0.326157,-0.03389 0.192289,0.0016 0.282006,0.0038 0.294239,0.0078 0.02226,0.0071 0.04519,0.03297 0.05216,0.05884 0.01023,0.03799 -0.0098,0.08502 -0.04057,0.09517 -0.03189,0.01051 -0.128594,0.01437 -0.363231,0.01444 l -0.238074,7.8e-5 z m 0.0047,-0.547212 c -0.02252,-0.02492 -0.03053,-0.03807 -0.03434,-0.05637 -0.005,-0.02404 0.0051,-0.0513 0.02912,-0.07793 l 0.02198,-0.02444 0.252682,1.71e-4 c 0.276224,1.86e-4 0.340635,0.0034 0.359863,0.01771 0.03011,0.02248 0.03976,0.07769 0.02027,0.115926 -0.01816,0.03559 -0.01802,0.03557 -0.1748,0.0395 -0.07689,0.002 -0.211337,0.0036 -0.298785,0.0039 l -0.158995,4.48e-4 z"
       id="path1171"
       inkscape:connector-curvature="0" />
    <g
       id="g887"
       transform="translate(0,1.5174797)">
      <g
         id="g982">
        <text
           xml:space="preserve"
           style="font-style:normal;font-weight:normal;font-size:132.3289032px;line-height:1.25;font-family:sans-serif;letter-spacing:0px;word-spacing:0px;fill:#000000;fill-opacity:1;stroke:none;stroke-width:0.22054817"
           x="16.060684"
           y="45.927612"
           id="text1088"><tspan
             sodipodi:role="line"
             id="tspan1086"
             x="16.060684"
             y="45.927612"
             style="font-size:2.64657807px;stroke-width:0.22054817">1</tspan></text>
        <path
           style="fill:none;stroke:#000000;stroke-width:0.2093017px;stroke-linecap:butt;stroke-linejoin:miter;stroke-opacity:1"
           d="m 19.807967,44.974674 h 14"
           id="path1090"
           inkscape:connector-curvature="0"
           sodipodi:nodetypes="cc" />
        <text
           xml:space="preserve"
           style="font-style:normal;font-weight:normal;font-size:132.3289032px;line-height:1.25;font-family:sans-serif;letter-spacing:0px;word-spacing:0px;fill:#000000;fill-opacity:1;stroke:none;stroke-width:0.22054817"
           x="34.195385"
           y="45.945053"
           id="text1088-0"><tspan
             sodipodi:role="line"
             id="tspan1086-9"
             x="34.195385"
             y="45.945053"
             style="font-size:2.64657807px;stroke-width:0.22054817">12</tspan></text>
        <path
           style="display:inline;fill:none;stroke:#000000;stroke-width:0.26458332px;stroke-linecap:butt;stroke-linejoin:miter;stroke-opacity:1"
           d="m 40.040709,41.86511 v 5.58932"
           id="path1183"
           inkscape:connector-curvature="0" />
        <path
           style="display:inline;fill:none;stroke:#000000;stroke-width:0.26458332px;stroke-linecap:butt;stroke-linejoin:miter;stroke-opacity:1"
           d="m 66.5062,42.048858 v 5.58932"
           id="path1183-3"
           inkscape:connector-curvature="0" />
        <g
           id="g1224"
           transform="translate(-5.9387892,7.5900185)">
          <g
             inkscape:label="Capa 1"
             id="layer1-6-3-2-1"
             transform="matrix(0.35279356,0,0,0.35279356,24.366101,18.273927)">
            <path
               style="fill:#000000;stroke:#000000;stroke-width:0.229;stroke-miterlimit:4;stroke-dasharray:none;stroke-opacity:1"
               d="m 15.55133,51.922274 c -0.685146,-0.279517 -3.20637,-1.507059 -3.324727,-1.618753 -0.03438,-0.03244 -0.07718,-0.127286 -0.09554,-0.211722 -0.08948,-0.411375 -0.262648,-1.722668 -0.332832,-2.520399 -0.05025,-0.57112 -0.0596,-2.009074 -0.01364,-2.094972 0.04031,-0.07531 0.184184,-0.143729 0.562025,-0.267256 0.722856,-0.236322 1.733468,-0.499615 2.410752,-0.628071 0.275408,-0.05224 0.396016,-0.0603 0.707347,-0.04732 0.415417,0.01732 1.429283,0.142198 2.38188,0.293384 0.766175,0.121598 1.019543,0.178219 1.103853,0.246676 l 0.06543,0.05313 -0.0077,1.496494 c -0.0081,1.566318 -0.04308,2.635128 -0.0968,2.95367 -0.03024,0.179307 -0.04114,0.197626 -0.223796,0.376151 -0.196508,0.192058 -2.306176,1.852072 -2.49635,1.964276 -0.172205,0.101604 -0.398334,0.103271 -0.639907,0.0047 z m 0.681956,-0.312805 c 0.354128,-0.250525 1.358355,-1.012126 1.81541,-1.376797 0.537371,-0.428752 0.598921,-0.493547 0.633573,-0.666962 0.06192,-0.309915 0.154976,-1.794696 0.205292,-3.275805 0.02806,-0.82606 0.02665,-0.940151 -0.01209,-0.978893 -0.05115,-0.05115 -0.07672,-0.04286 -1.158797,0.375245 -1.269982,0.490712 -1.8449,0.758627 -1.912296,0.891141 -0.06033,0.118622 -0.03326,2.613007 0.04901,4.516299 0.02534,0.586113 0.04026,0.707347 0.08705,0.707347 0.01213,0 0.143904,-0.08621 0.292842,-0.191575 z m -0.622651,-1.013802 c -0.01218,-0.535923 -0.02681,-1.694557 -0.03252,-2.574744 -0.0081,-1.255585 -0.01836,-1.607633 -0.04745,-1.63421 -0.106289,-0.0971 -3.10159,-0.677511 -3.496415,-0.677511 h -0.135139 l 3.71e-4,0.281495 c 5.78e-4,0.445614 0.107808,1.632044 0.261587,2.894346 0.106753,0.876288 0.163675,1.197828 0.22476,1.269608 0.108101,0.127026 1.297194,0.741581 1.931131,0.998059 0.417345,0.168849 1.151926,0.414027 1.246224,0.415946 l 0.06959,0.0014 z m 0.778946,-4.666157 c 0.521312,-0.175316 1.631211,-0.587253 1.882404,-0.698649 0.123751,-0.05488 0.155359,-0.08002 0.123166,-0.09796 -0.08273,-0.04609 -1.835693,-0.312599 -2.781117,-0.422813 -0.349053,-0.04069 -0.466344,-0.04391 -0.635169,-0.01741 -0.320219,0.05026 -2.598014,0.698144 -2.656719,0.755658 -0.03178,0.03113 0.194652,0.08146 1.179323,0.262104 1.326108,0.243286 2.097867,0.369927 2.267379,0.372065 0.120438,0.0015 0.273269,-0.03615 0.620733,-0.153004 z"
               id="path828-6-0"
               inkscape:connector-curvature="0"
               sodipodi:nodetypes="cccssssssccscscccccsscscssccscsccscccccsscsssscs" />
          </g>
          <g
             inkscape:label="Capa 1"
             id="layer1-6-75-2-7"
             transform="matrix(0.35279356,0,0,0.35279356,27.318869,18.273927)">
            <path
               style="fill:#000000;stroke:#000000;stroke-width:0.229;stroke-miterlimit:4;stroke-dasharray:none;stroke-opacity:1"
               d="m 15.55133,51.922274 c -0.685146,-0.279517 -3.20637,-1.507059 -3.324727,-1.618753 -0.03438,-0.03244 -0.07718,-0.127286 -0.09554,-0.211722 -0.08948,-0.411375 -0.262648,-1.722668 -0.332832,-2.520399 -0.05025,-0.57112 -0.0596,-2.009074 -0.01364,-2.094972 0.04031,-0.07531 0.184184,-0.143729 0.562025,-0.267256 0.722856,-0.236322 1.733468,-0.499615 2.410752,-0.628071 0.275408,-0.05224 0.396016,-0.0603 0.707347,-0.04732 0.415417,0.01732 1.429283,0.142198 2.38188,0.293384 0.766175,0.121598 1.019543,0.178219 1.103853,0.246676 l 0.06543,0.05313 -0.0077,1.496494 c -0.0081,1.566318 -0.04308,2.635128 -0.0968,2.95367 -0.03024,0.179307 -0.04114,0.197626 -0.223796,0.376151 -0.196508,0.192058 -2.306176,1.852072 -2.49635,1.964276 -0.172205,0.101604 -0.398334,0.103271 -0.639907,0.0047 z m 0.681956,-0.312805 c 0.354128,-0.250525 1.358355,-1.012126 1.81541,-1.376797 0.537371,-0.428752 0.598921,-0.493547 0.633573,-0.666962 0.06192,-0.309915 0.154976,-1.794696 0.205292,-3.275805 0.02806,-0.82606 0.02665,-0.940151 -0.01209,-0.978893 -0.05115,-0.05115 -0.07672,-0.04286 -1.158797,0.375245 -1.269982,0.490712 -1.8449,0.758627 -1.912296,0.891141 -0.06033,0.118622 -0.03326,2.613007 0.04901,4.516299 0.02534,0.586113 0.04026,0.707347 0.08705,0.707347 0.01213,0 0.143904,-0.08621 0.292842,-0.191575 z m -0.622651,-1.013802 c -0.01218,-0.535923 -0.02681,-1.694557 -0.03252,-2.574744 -0.0081,-1.255585 -0.01836,-1.607633 -0.04745,-1.63421 -0.106289,-0.0971 -3.10159,-0.677511 -3.496415,-0.677511 h -0.135139 l 3.71e-4,0.281495 c 5.78e-4,0.445614 0.107808,1.632044 0.261587,2.894346 0.106753,0.876288 0.163675,1.197828 0.22476,1.269608 0.108101,0.127026 1.297194,0.741581 1.931131,0.998059 0.417345,0.168849 1.151926,0.414027 1.246224,0.415946 l 0.06959,0.0014 z m 0.778946,-4.666157 c 0.521312,-0.175316 1.631211,-0.587253 1.882404,-0.698649 0.123751,-0.05488 0.155359,-0.08002 0.123166,-0.09796 -0.08273,-0.04609 -1.835693,-0.312599 -2.781117,-0.422813 -0.349053,-0.04069 -0.466344,-0.04391 -0.635169,-0.01741 -0.320219,0.05026 -2.598014,0.698144 -2.656719,0.755658 -0.03178,0.03113 0.194652,0.08146 1.179323,0.262104 1.326108,0.243286 2.097867,0.369927 2.267379,0.372065 0.120438,0.0015 0.273269,-0.03615 0.620733,-0.153004 z"
               id="path828-35-3-9"
               inkscape:connector-curvature="0"
               sodipodi:nodetypes="cccssssssccscscccccsscscssccscsccscccccsscsssscs" />
          </g>
          <g
             inkscape:label="Capa 1"
             id="layer1-6-75-2-4"
             transform="matrix(0.35279356,0,0,0.35279356,30.271609,18.273927)">
            <path
               style="fill:#000000;stroke:#000000;stroke-width:0.229;stroke-miterlimit:4;stroke-dasharray:none;stroke-opacity:1"
               d="m 15.55133,51.922274 c -0.685146,-0.279517 -3.20637,-1.507059 -3.324727,-1.618753 -0.03438,-0.03244 -0.07718,-0.127286 -0.09554,-0.211722 -0.08948,-0.411375 -0.262648,-1.722668 -0.332832,-2.520399 -0.05025,-0.57112 -0.0596,-2.009074 -0.01364,-2.094972 0.04031,-0.07531 0.184184,-0.143729 0.562025,-0.267256 0.722856,-0.236322 1.733468,-0.499615 2.410752,-0.628071 0.275408,-0.05224 0.396016,-0.0603 0.707347,-0.04732 0.415417,0.01732 1.429283,0.142198 2.38188,0.293384 0.766175,0.121598 1.019543,0.178219 1.103853,0.246676 l 0.06543,0.05313 -0.0077,1.496494 c -0.0081,1.566318 -0.04308,2.635128 -0.0968,2.95367 -0.03024,0.179307 -0.04114,0.197626 -0.223796,0.376151 -0.196508,0.192058 -2.306176,1.852072 -2.49635,1.964276 -0.172205,0.101604 -0.398334,0.103271 -0.639907,0.0047 z m 0.681956,-0.312805 c 0.354128,-0.250525 1.358355,-1.012126 1.81541,-1.376797 0.537371,-0.428752 0.598921,-0.493547 0.633573,-0.666962 0.06192,-0.309915 0.154976,-1.794696 0.205292,-3.275805 0.02806,-0.82606 0.02665,-0.940151 -0.01209,-0.978893 -0.05115,-0.05115 -0.07672,-0.04286 -1.158797,0.375245 -1.269982,0.490712 -1.8449,0.758627 -1.912296,0.891141 -0.06033,0.118622 -0.03326,2.613007 0.04901,4.516299 0.02534,0.586113 0.04026,0.707347 0.08705,0.707347 0.01213,0 0.143904,-0.08621 0.292842,-0.191575 z m -0.622651,-1.013802 c -0.01218,-0.535923 -0.02681,-1.694557 -0.03252,-2.574744 -0.0081,-1.255585 -0.01836,-1.607633 -0.04745,-1.63421 -0.106289,-0.0971 -3.10159,-0.677511 -3.496415,-0.677511 h -0.135139 l 3.71e-4,0.281495 c 5.78e-4,0.445614 0.107808,1.632044 0.261587,2.894346 0.106753,0.876288 0.163675,1.197828 0.22476,1.269608 0.108101,0.127026 1.297194,0.741581 1.931131,0.998059 0.417345,0.168849 1.151926,0.414027 1.246224,0.415946 l 0.06959,0.0014 z m 0.778946,-4.666157 c 0.521312,-0.175316 1.631211,-0.587253 1.882404,-0.698649 0.123751,-0.05488 0.155359,-0.08002 0.123166,-0.09796 -0.08273,-0.04609 -1.835693,-0.312599 -2.781117,-0.422813 -0.349053,-0.04069 -0.466344,-0.04391 -0.635169,-0.01741 -0.320219,0.05026 -2.598014,0.698144 -2.656719,0.755658 -0.03178,0.03113 0.194652,0.08146 1.179323,0.262104 1.326108,0.243286 2.097867,0.369927 2.267379,0.372065 0.120438,0.0015 0.273269,-0.03615 0.620733,-0.153004 z"
               id="path828-35-3-5"
               inkscape:connector-curvature="0"
               sodipodi:nodetypes="cccssssssccscscccccsscscssccscsccscccccsscsssscs" />
          </g>
        </g>
      </g>
    </g>
  </g>
</svg>
