<?xml version="1.0" encoding="UTF-8" standalone="no"?>
<!-- Created with Inkscape (http://www.inkscape.org/) -->

<svg
   width="120mm"
   height="23.016712mm"
   viewBox="0 0 120 23.016712"
   version="1.1"
   id="svg1100"
   inkscape:version="1.2.2 (b0a8486541, 2022-12-01)"
   sodipodi:docname="lance.svg"
   xml:space="preserve"
   xmlns:inkscape="http://www.inkscape.org/namespaces/inkscape"
   xmlns:sodipodi="http://sodipodi.sourceforge.net/DTD/sodipodi-0.dtd"
   xmlns="http://www.w3.org/2000/svg"
   xmlns:svg="http://www.w3.org/2000/svg"
   xmlns:rdf="http://www.w3.org/1999/02/22-rdf-syntax-ns#"
   xmlns:cc="http://creativecommons.org/ns#"
   xmlns:dc="http://purl.org/dc/elements/1.1/"><defs
     id="defs1094" /><sodipodi:namedview
     id="base"
     pagecolor="#ffffff"
     bordercolor="#666666"
     borderopacity="1.0"
     inkscape:pageopacity="0.0"
     inkscape:pageshadow="2"
     inkscape:zoom="8.0000002"
     inkscape:cx="85.749998"
     inkscape:cy="23.374999"
     inkscape:document-units="mm"
     inkscape:current-layer="layer1"
     showgrid="false"
     inkscape:window-width="1920"
     inkscape:window-height="1043"
     inkscape:window-x="1920"
     inkscape:window-y="0"
     inkscape:window-maximized="1"
     fit-margin-top="0"
     fit-margin-left="0"
     fit-margin-right="0"
     fit-margin-bottom="0"
     inkscape:snap-global="false"
     inkscape:snap-bbox="true"
     inkscape:pagecheckerboard="0"
     showguides="true"
     inkscape:lockguides="false"
     inkscape:showpageshadow="2"
     inkscape:deskcolor="#d1d1d1" /><metadata
     id="metadata1097"><rdf:RDF><cc:Work
         rdf:about=""><dc:format>image/svg+xml</dc:format><dc:type
           rdf:resource="http://purl.org/dc/dcmitype/StillImage" /></cc:Work></rdf:RDF></metadata><g
     inkscape:groupmode="layer"
     id="layer3"
     inkscape:label="Background"
     style="display:inline" /><g
     inkscape:groupmode="layer"
     id="layer2"
     inkscape:label="Guias"
     style="display:inline"
     transform="translate(0,0.2323513)"><g
       id="g1399"
       transform="translate(-6.7978492)"><rect
         y="11.402682"
         x="50.431446"
         height="11"
         width="74.99527"
         id="rect1878-3"
         style="display:inline;opacity:1;vector-effect:none;fill:#ffe680;fill-opacity:1;stroke:none;stroke-width:0.47467926;stroke-linecap:butt;stroke-linejoin:miter;stroke-miterlimit:4;stroke-dasharray:none;stroke-dashoffset:0;stroke-opacity:1" /><rect
         y="0.30218902"
         x="8.1689825"
         height="22.148087"
         width="42.262463"
         id="rect1868"
         style="display:inline;opacity:1;vector-effect:none;fill:#decd87;fill-opacity:1;stroke:none;stroke-width:0.39467782;stroke-linecap:butt;stroke-linejoin:miter;stroke-miterlimit:4;stroke-dasharray:none;stroke-dashoffset:0;stroke-opacity:1" /><rect
         y="0.39782956"
         x="50.431446"
         height="11"
         width="74.99527"
         id="rect1878"
         style="display:inline;opacity:1;vector-effect:none;fill:#deaa87;fill-opacity:1;stroke:none;stroke-width:0.47467929;stroke-linecap:butt;stroke-linejoin:miter;stroke-miterlimit:4;stroke-dasharray:none;stroke-dashoffset:0;stroke-opacity:1" /><rect
         y="12.891373"
         x="76.863533"
         height="8.0226164"
         width="22"
         id="rect1878-7-3"
         style="display:inline;opacity:1;vector-effect:none;fill:#eeffaa;fill-opacity:1;stroke:none;stroke-width:0.19344766;stroke-linecap:butt;stroke-linejoin:miter;stroke-miterlimit:4;stroke-dasharray:none;stroke-dashoffset:0;stroke-opacity:1" /><rect
         y="12.891415"
         x="103.2956"
         height="8.0226164"
         width="22"
         id="rect1878-7-56"
         style="display:inline;opacity:1;vector-effect:none;fill:#ccffaa;fill-opacity:1;stroke:none;stroke-width:0.21753596;stroke-linecap:butt;stroke-linejoin:miter;stroke-miterlimit:4;stroke-dasharray:none;stroke-dashoffset:0;stroke-opacity:1" /><rect
         y="12.680782"
         x="50.431446"
         height="8.443799"
         width="22"
         id="rect1878-7"
         style="display:inline;opacity:1;vector-effect:none;fill:#ff9955;fill-opacity:1;stroke:none;stroke-width:0.22317314;stroke-linecap:butt;stroke-linejoin:miter;stroke-miterlimit:4;stroke-dasharray:none;stroke-dashoffset:0;stroke-opacity:1" /><rect
         y="13.158642"
         x="77.363533"
         height="7.4880772"
         width="21"
         id="rect1878-7-2-7"
         style="display:inline;opacity:1;vector-effect:none;fill:#ddff55;fill-opacity:1;stroke:none;stroke-width:0.20533194;stroke-linecap:butt;stroke-linejoin:miter;stroke-miterlimit:4;stroke-dasharray:none;stroke-dashoffset:0;stroke-opacity:1" /><rect
         y="13.158684"
         x="103.7956"
         height="7.4880772"
         width="21"
         id="rect1878-7-2-7-0"
         style="display:inline;opacity:1;vector-effect:none;fill:#66ff00;fill-opacity:1;stroke:none;stroke-width:0.20533194;stroke-linecap:butt;stroke-linejoin:miter;stroke-miterlimit:4;stroke-dasharray:none;stroke-dashoffset:0;stroke-opacity:1" /><rect
         y="13.158642"
         x="50.931446"
         height="7.4880772"
         width="21"
         id="rect1878-7-2"
         style="display:inline;opacity:1;vector-effect:none;fill:#d45500;fill-opacity:1;stroke:none;stroke-width:0.20533194;stroke-linecap:butt;stroke-linejoin:miter;stroke-miterlimit:4;stroke-dasharray:none;stroke-dashoffset:0;stroke-opacity:1" /></g></g><g
     inkscape:label="Capa 1"
     inkscape:groupmode="layer"
     id="layer1"
     transform="translate(28.060163,-27.595709)"
     style="display:inline"><g
       transform="matrix(0.35279357,0,0,0.35279357,27.66483,22.56444)"
       id="layer1-6-3-2"
       inkscape:label="Capa 1" /><rect
       style="display:inline;opacity:1;fill:#ffffff;fill-opacity:1;stroke:none;stroke-width:0.71100003;stroke-miterlimit:4;stroke-dasharray:none;stroke-dashoffset:0;stroke-opacity:1"
       id="rect1126"
       width="119.99902"
       height="23.017704"
       x="-28.060163"
       y="27.595709" /><g
       style="display:inline"
       id="g9128"
       transform="translate(-107.62953,-199.34653)"><path
         inkscape:connector-curvature="0"
         id="path9084"
         d="M 83.843672,227.37459 H 195.29507"
         style="fill:none;stroke:#000000;stroke-width:0.40000001;stroke-linecap:butt;stroke-linejoin:miter;stroke-miterlimit:4;stroke-dasharray:none;stroke-opacity:1" /><path
         inkscape:connector-curvature="0"
         id="path9084-3"
         d="M 83.843669,249.75895 H 195.29507"
         style="fill:none;stroke:#000000;stroke-width:0.40000001;stroke-linecap:butt;stroke-linejoin:miter;stroke-miterlimit:4;stroke-dasharray:none;stroke-opacity:1" /></g><g
       id="g383"
       transform="matrix(1.3240563,0,0,1.3240565,-11.756817,13.836628)"><circle
         r="2.9059739"
         cy="15.820772"
         cx="24.290676"
         id="path1760-3-7"
         style="opacity:1;vector-effect:none;fill:#ffffff;fill-opacity:1;stroke:#000000;stroke-width:0.31159922;stroke-linecap:butt;stroke-linejoin:miter;stroke-miterlimit:4;stroke-dasharray:none;stroke-dashoffset:0;stroke-opacity:1" /><path
         inkscape:export-ydpi="300"
         inkscape:export-xdpi="300"
         inkscape:export-filename="1sword.png"
         sodipodi:nodetypes="cccccccsccssscssscsscscsscscccccccscscc"
         inkscape:connector-curvature="0"
         id="path1327"
         d="m 22.955075,17.371526 c 0.03685,-0.0091 0.06702,-0.02719 0.09377,-0.05619 0.03556,-0.03859 0.04582,-0.06185 0.04903,-0.111267 l 0.0028,-0.04328 0.250709,-0.250653 0.250707,-0.250653 0.06274,-5.02e-4 c 0.08226,-5.03e-4 0.114477,-0.01495 0.181922,-0.08061 l 0.04803,-0.04677 0.11105,0.110465 c 0.108933,0.108355 0.111538,0.110464 0.136755,0.110464 0.03549,0 0.05551,-0.02005 0.05551,-0.05556 0,-0.02537 -0.0018,-0.02755 -0.124401,-0.150661 l -0.1244,-0.124923 0.694148,-0.695057 c 0.782416,-0.783438 0.821412,-0.825699 0.988767,-1.071481 0.104214,-0.153054 0.21731,-0.351482 0.21731,-0.38128 0,-0.0098 -0.0048,-0.01849 -0.01222,-0.0225 -0.02594,-0.01391 -0.312856,0.156865 -0.50722,0.301841 -0.162718,0.12137 -0.224401,0.180047 -0.934768,0.889204 l -0.710463,0.70925 -0.118284,-0.118959 c -0.06506,-0.06543 -0.126483,-0.122533 -0.136501,-0.126903 -0.03885,-0.01693 -0.08196,0.01271 -0.08196,0.05633 0,0.02036 0.0082,0.03015 0.112296,0.134803 l 0.112296,0.112859 -0.0458,0.04536 c -0.03088,0.03057 -0.05212,0.05818 -0.06524,0.08474 -0.01811,0.03667 -0.01944,0.04364 -0.01928,0.101551 l 1.54e-4,0.06217 -0.246233,0.246178 -0.246234,0.246179 -0.03999,0.0021 c -0.04865,0.0026 -0.08662,0.01864 -0.121873,0.05115 -0.04341,0.04 -0.05637,0.07233 -0.05637,0.14059 0,0.0524 0.0016,0.06035 0.01721,0.08695 0.0095,0.0161 0.02585,0.03766 0.03643,0.04792 0.03961,0.03839 0.117208,0.05992 0.169582,0.04698 z"
         style="fill:#000000;stroke:#000000;stroke-width:0.16442627;stroke-miterlimit:4;stroke-dasharray:none;stroke-opacity:1" /></g><g
       style="display:inline"
       id="g1033"
       transform="translate(19.247686,66.198426)"><rect
         y="-36.617252"
         x="21.17853"
         height="8.2894325"
         width="8.2894325"
         id="rect925-7-3-61-49-09"
         style="display:inline;opacity:1;vector-effect:none;fill:#ffffff;fill-opacity:1;stroke:#000000;stroke-width:0.71056741;stroke-linecap:butt;stroke-linejoin:miter;stroke-miterlimit:4;stroke-dasharray:none;stroke-dashoffset:0;stroke-opacity:1" /><rect
         y="-36.617252"
         x="31.46801"
         height="8.2894325"
         width="8.2894325"
         id="rect925-7-3-61-49-0-6"
         style="display:inline;opacity:1;vector-effect:none;fill:#ffffff;fill-opacity:1;stroke:#000000;stroke-width:0.71056741;stroke-linecap:butt;stroke-linejoin:miter;stroke-miterlimit:4;stroke-dasharray:none;stroke-dashoffset:0;stroke-opacity:1" /><rect
         y="-36.617252"
         x="41.757488"
         height="8.2894325"
         width="8.2894325"
         id="rect925-7-3-61-49-9-3"
         style="display:inline;opacity:1;vector-effect:none;fill:#ffffff;fill-opacity:1;stroke:#000000;stroke-width:0.71056741;stroke-linecap:butt;stroke-linejoin:miter;stroke-miterlimit:4;stroke-dasharray:none;stroke-dashoffset:0;stroke-opacity:1" /><rect
         y="-36.617252"
         x="52.046974"
         height="8.2894325"
         width="8.2894325"
         id="rect925-7-3-61-49-1-8"
         style="display:inline;opacity:1;vector-effect:none;fill:#ffffff;fill-opacity:1;stroke:#000000;stroke-width:0.71056741;stroke-linecap:butt;stroke-linejoin:miter;stroke-miterlimit:4;stroke-dasharray:none;stroke-dashoffset:0;stroke-opacity:1" /><rect
         y="-36.617252"
         x="62.336449"
         height="8.2894325"
         width="8.2894325"
         id="rect925-7-3-61-49-7-5"
         style="display:inline;opacity:1;vector-effect:none;fill:#ffffff;fill-opacity:1;stroke:#000000;stroke-width:0.71056741;stroke-linecap:butt;stroke-linejoin:miter;stroke-miterlimit:4;stroke-dasharray:none;stroke-dashoffset:0;stroke-opacity:1" /></g><g
       id="g226"
       transform="translate(2.2151513,1.0583333)"><path
         inkscape:export-ydpi="300"
         inkscape:export-xdpi="300"
         inkscape:export-filename="1flame.png"
         sodipodi:nodetypes="ccccsccccscccccscscccsccccccc"
         inkscape:connector-curvature="0"
         id="path826-3-3"
         d="m -11.992062,47.899798 c -0.74036,-0.42454 -1.16313,-1.30599 -1.029019,-2.14547 0.0723,-0.45236 0.205399,-0.75728 0.51281,-1.17452 0.855259,-1.16082 1.01121,-1.47811 1.05736,-2.15132 0.0145,-0.21106 0.0365,-0.38375 0.049,-0.38375 0.0124,0 0.167669,0.10751 0.34492,0.23891 0.70314,0.52126 1.0979695,1.22932 1.1901695,2.13433 l 0.0354,0.34789 0.128,-0.13562 c 0.0704,-0.0746 0.15533,-0.22937 0.18875,-0.34397 l 0.0608,-0.20837 0.19096,0.39085 c 0.22784,0.46637 0.37001,0.95442 0.40995,1.40733 0.0722,0.81861 -0.34268,1.61611 -1.05246,2.0231 -0.2845895,0.16319 -0.3925495,0.19094 -0.2225405,0.0572 0.1735505,-0.13653 0.3687505,-0.53511 0.3972405,-0.81118 0.0384,-0.37175 -0.0755,-0.6917 -0.4090205,-1.14935 -0.334519,-0.45901 -0.487779,-0.77035 -0.53289,-1.08258 l -0.0324,-0.22468 -0.18305,0.17817 c -0.34858,0.3393 -0.59597,1.08145 -0.53423,1.6027 0.0148,0.1247 0.009,0.22675 -0.0126,0.22675 -0.089,0 -0.32551,-0.33503 -0.3523,-0.49904 -0.0158,-0.0965 -0.0345,-0.20683 -0.0417,-0.2452 -0.0169,-0.0902 -0.24643,0.40925 -0.30533,0.66445 -0.10999,0.4766 -0.0184,0.91088 0.26098,1.23724 0.0901,0.10532 0.15703,0.19129 0.14864,0.19105 -0.008,-1.8e-4 -0.12865,-0.0654 -0.26725,-0.14494 z"
         style="fill:#000000;stroke:#000000;stroke-width:0.30000001;stroke-miterlimit:4;stroke-dasharray:none;stroke-opacity:1" /><circle
         r="1.6063988"
         cy="45.131767"
         cx="-4.4457111"
         id="path3810-6"
         style="opacity:1;vector-effect:none;fill:#000000;fill-opacity:1;stroke:none;stroke-width:0.29209089;stroke-linecap:butt;stroke-linejoin:miter;stroke-miterlimit:4;stroke-dasharray:0.87627266, 0.29209089;stroke-dashoffset:0;stroke-opacity:1" /></g><path
       style="fill:none;stroke:#000000;stroke-width:0.26458332px;stroke-linecap:butt;stroke-linejoin:miter;stroke-opacity:1"
       d="m 40.024002,43.317011 v 5.58932"
       id="path1183-5"
       inkscape:connector-curvature="0" /><path
       style="fill:none;stroke:#000000;stroke-width:0.26458332px;stroke-linecap:butt;stroke-linejoin:miter;stroke-opacity:1"
       d="m 66.456089,43.500759 v 5.58932"
       id="path1183-2-3"
       inkscape:connector-curvature="0" /><text
       xml:space="preserve"
       style="font-style:normal;font-weight:normal;font-size:132.329px;line-height:1.25;font-family:sans-serif;letter-spacing:0px;word-spacing:0px;fill:#000000;fill-opacity:1;stroke:none;stroke-width:0.220548"
       x="16.060684"
       y="47.510666"
       id="text1088-5"><tspan
         sodipodi:role="line"
         id="tspan1086-6"
         x="16.060684"
         y="47.510666"
         style="font-size:2.64658px;stroke-width:0.220548">1</tspan></text><path
       style="fill:none;stroke:#000000;stroke-width:0.2093017px;stroke-linecap:butt;stroke-linejoin:miter;stroke-opacity:1"
       d="m 19.807967,46.557733 h 14"
       id="path1090-29"
       inkscape:connector-curvature="0"
       sodipodi:nodetypes="cc" /><text
       xml:space="preserve"
       style="font-style:normal;font-weight:normal;font-size:132.329px;line-height:1.25;font-family:sans-serif;letter-spacing:0px;word-spacing:0px;fill:#000000;fill-opacity:1;stroke:none;stroke-width:0.220548"
       x="34.195385"
       y="47.528107"
       id="text1088-0-1"><tspan
         sodipodi:role="line"
         id="tspan1086-9-27"
         x="34.195385"
         y="47.528107"
         style="font-size:2.64658px;stroke-width:0.220548">5</tspan></text><path
       style="fill:#000000;stroke-width:0.0326585"
       d="m 29.146238,37.879738 c -0.0171,-0.0225 -0.10942,-0.41845 -0.20514,-0.87997 -0.16831,-0.81158 -0.17694,-0.84035 -0.26223,-0.87569 -0.0825,-0.0341 -0.13548,-0.005 -0.81624,0.44139 -0.57548,0.37777 -0.74409,0.47387 -0.80471,0.45866 -0.0476,-0.0121 -0.0767,-0.0433 -0.0767,-0.0828 0,-0.0349 0.19777,-0.36519 0.4395,-0.73375 0.54221,-0.82673 0.51652,-0.77902 0.47208,-0.87656 -0.0331,-0.0725 -0.1022,-0.0925 -0.88778,-0.2569 -0.88652,-0.18553 -0.96693,-0.21681 -0.88623,-0.34477 0.0263,-0.0417 0.25309,-0.10154 0.88703,-0.23404 0.78314,-0.16369 0.85452,-0.18429 0.88722,-0.25608 0.0442,-0.0969 0.0698,-0.0494 -0.4741,-0.8787 -0.28719,-0.43789 -0.43781,-0.69716 -0.43134,-0.74252 0.0204,-0.14315 0.13793,-0.0964 0.73238,0.29172 0.32114,0.20967 0.58687,0.38363 0.59049,0.3866 0.005,0.003 0.0662,0.36495 0.13928,0.80439 0.073,0.43946 0.14867,0.83022 0.1682,0.86839 0.0256,0.0502 0.0255,0.0881 -4.8e-4,0.13665 -0.0199,0.0371 -0.0359,0.22589 -0.0359,0.42138 0,0.53747 0.0671,0.59726 0.66948,0.59726 0.60248,0 0.66951,-0.0598 0.66951,-0.59726 0,-0.19477 -0.0151,-0.38254 -0.0339,-0.41729 -0.0239,-0.0446 -0.0226,-0.0841 0.005,-0.13425 0.0208,-0.0391 0.0652,-0.41599 0.0984,-0.83754 0.0333,-0.42156 0.0644,-0.76999 0.0693,-0.77432 0.10714,-0.095 1.28743,-0.83177 1.33227,-0.83177 0.0393,0 0.0707,0.0292 0.0828,0.0772 0.0154,0.0613 -0.0792,0.22727 -0.45855,0.80498 -0.44645,0.67988 -0.47553,0.7336 -0.44147,0.8158 0.0352,0.085 0.0653,0.094 0.88956,0.26652 0.88646,0.18552 0.96804,0.21714 0.88794,0.34416 -0.0256,0.0405 -0.25985,0.1023 -0.88676,0.2335 -0.78554,0.16439 -0.85473,0.18441 -0.88777,0.2569 -0.0445,0.0976 -0.0701,0.0499 0.47207,0.87656 0.24172,0.36856 0.43951,0.68874 0.43951,0.7115 0,0.0533 -0.0665,0.11977 -0.11976,0.11977 -0.0227,0 -0.34295,-0.19777 -0.71151,-0.43951 -0.82669,-0.54218 -0.77903,-0.5165 -0.8765,-0.47209 -0.0724,0.0331 -0.0921,0.10112 -0.25236,0.87376 -0.0955,0.46089 -0.18779,0.85635 -0.20488,0.87879 -0.0171,0.0225 -0.0569,0.0409 -0.0884,0.0409 -0.0315,0 -0.0714,-0.0183 -0.0884,-0.0409 z m -0.29695,-2.05587 c -0.0246,-0.0246 -0.0392,-0.14634 -0.0392,-0.32543 0,-0.35082 0.005,-0.35387 0.4409,-0.35387 0.43469,0 0.44089,0.005 0.44089,0.3414 0,0.15057 -0.008,0.29702 -0.0199,0.32544 -0.0164,0.0431 -0.0837,0.0517 -0.4017,0.0517 -0.25348,0 -0.39506,-0.0133 -0.42107,-0.0392 z m 0.002,-0.94873 c -0.0182,-0.0225 -0.10186,-0.45966 -0.18599,-0.97159 -0.0841,-0.51191 -0.15973,-0.95494 -0.16805,-0.98448 -0.0306,-0.10918 0.0728,-0.14647 0.61248,-0.22066 0.29372,-0.0404 0.55685,-0.0797 0.58474,-0.0874 0.0278,-0.007 0.0759,0.005 0.10682,0.0271 0.053,0.0388 0.0514,0.1023 -0.0281,1.11763 -0.0463,0.59211 -0.0999,1.09542 -0.11904,1.11846 -0.0483,0.058 -0.75604,0.0589 -0.80292,0.002 z m 0.12429,-2.44575 c 7.4e-4,-0.0244 0.0346,-0.19771 0.0754,-0.38505 0.0784,-0.35951 0.13211,-0.4433 0.24093,-0.37466 0.0363,0.0229 0.0749,0.12737 0.10834,0.29376 0.0286,0.142 0.0618,0.29696 0.0739,0.34435 0.021,0.0822 0.0148,0.0871 -0.13285,0.10778 -0.0852,0.0119 -0.20259,0.0298 -0.26097,0.0399 -0.0771,0.0134 -0.10574,0.006 -0.10488,-0.0261 z"
       id="path6297" /><path
       id="rect20107"
       style="fill:#000000;stroke:none;stroke-width:0.163014;stroke-linecap:round;stop-color:#000000"
       d="M -18.995083 32.277077 C -19.626236 32.277077 -20.134549 32.694252 -20.134549 33.211904 L -20.134549 35.908897 C -20.134549 36.426552 -19.626236 36.843723 -18.995083 36.843723 L -18.740318 36.843723 L -18.740318 36.427728 C -18.740318 36.102739 -18.473613 35.8381 -18.148623 35.8381 L -10.712901 35.8381 C -10.387912 35.8381 -10.123273 36.102739 -10.123273 36.427728 L -10.123273 36.843723 L -7.9327094 36.843723 C -7.5050381 36.843723 -7.1339104 36.652265 -6.9389716 36.367783 L -6.2992174 36.367783 C -6.1424722 36.367783 -6.0165473 36.263796 -6.0165473 36.135239 L -6.0165473 35.273793 C -6.0165473 35.145234 -6.1424722 35.041766 -6.2992174 35.041766 L -6.7932441 35.041766 L -6.7932441 34.841262 L -5.8232774 34.841262 C -5.5734274 34.841262 -5.3721422 34.676179 -5.3721422 34.471258 L -5.3721422 33.097699 C -5.3721422 32.892777 -5.5734274 32.727695 -5.8232774 32.727695 L -6.9565416 32.727695 C -7.155784 32.457232 -7.5178489 32.277077 -7.9327094 32.277077 L -8.2071112 32.277077 L -8.2071112 33.618597 C -8.2071112 33.808782 -8.3989749 33.964313 -8.630858 33.964313 L -11.900426 33.964313 C -12.13231 33.964313 -12.322106 33.808782 -12.322106 33.618597 L -12.322106 32.277077 L -13.419713 32.277077 L -13.419713 34.512599 C -13.419713 34.777466 -13.65939 34.996291 -13.949396 34.996291 L -18.210118 34.996291 C -18.500124 34.996291 -18.737735 34.777466 -18.737735 34.512599 L -18.737735 32.277077 L -18.995083 32.277077 z M -18.383751 32.277077 L -18.383751 34.512599 C -18.383751 34.603449 -18.309601 34.672796 -18.210118 34.672796 L -13.949396 34.672796 C -13.849916 34.672796 -13.775764 34.603459 -13.775764 34.512599 L -13.775764 32.277077 L -18.383751 32.277077 z M -12.043053 32.277077 L -12.043053 33.618597 C -12.043053 33.685527 -11.982033 33.735903 -11.900426 33.735903 L -8.630858 33.735903 C -8.5492511 33.735903 -8.486164 33.685526 -8.486164 33.618597 L -8.486164 32.277077 L -12.043053 32.277077 z M -8.981741 35.043316 A 0.68335497 0.56047036 0 0 1 -8.2980618 35.603489 A 0.68335497 0.56047036 0 0 1 -8.981741 36.164178 A 0.68335497 0.56047036 0 0 1 -9.6649034 35.603489 A 0.68335497 0.56047036 0 0 1 -8.981741 35.043316 z M -18.148623 36.117153 C -18.323336 36.117153 -18.459199 36.253016 -18.459199 36.427728 L -18.459199 36.843723 L -10.402326 36.843723 L -10.402326 36.427728 C -10.402326 36.253016 -10.538189 36.117153 -10.712901 36.117153 L -18.148623 36.117153 z " /><path
       id="path20704"
       style="fill:#000000;stroke:none;stroke-width:0.264583px;stroke-linecap:butt;stroke-linejoin:miter;stroke-opacity:1"
       d="m -2.3056788,32.947837 c -0.160264,0 -0.3003854,0.08297 -0.3803385,0.208256 l -2.3678142,-0.176217 v 1.646412 l 2.4179403,-0.111105 c 0.082214,0.08816 0.1995959,0.143144 0.3302124,0.143144 h 2.50527341 c 0.19404094,0 0.35831557,-0.121254 0.42219646,-0.292489 L 8.6306046,33.997902 0.65021311,33.40414 v -0.0052 c 0,-0.249851 -0.20076753,-0.451135 -0.4506185,-0.451135 z" /><g
       id="g21133"><g
         transform="matrix(0.35279356,0,0,0.35279356,19.903696,27.447001)"
         id="layer1-6-75-2-4-03"
         inkscape:label="Capa 1"><path
           sodipodi:nodetypes="cccssssssccscscccccsscscssccscsccscccccsscsssscs"
           inkscape:connector-curvature="0"
           id="path828-35-3-5-6"
           d="m 15.55133,51.922274 c -0.685146,-0.279517 -3.20637,-1.507059 -3.324727,-1.618753 -0.03438,-0.03244 -0.07718,-0.127286 -0.09554,-0.211722 -0.08948,-0.411375 -0.262648,-1.722668 -0.332832,-2.520399 -0.05025,-0.57112 -0.0596,-2.009074 -0.01364,-2.094972 0.04031,-0.07531 0.184184,-0.143729 0.562025,-0.267256 0.722856,-0.236322 1.733468,-0.499615 2.410752,-0.628071 0.275408,-0.05224 0.396016,-0.0603 0.707347,-0.04732 0.415417,0.01732 1.429283,0.142198 2.38188,0.293384 0.766175,0.121598 1.019543,0.178219 1.103853,0.246676 l 0.06543,0.05313 -0.0077,1.496494 c -0.0081,1.566318 -0.04308,2.635128 -0.0968,2.95367 -0.03024,0.179307 -0.04114,0.197626 -0.223796,0.376151 -0.196508,0.192058 -2.306176,1.852072 -2.49635,1.964276 -0.172205,0.101604 -0.398334,0.103271 -0.639907,0.0047 z m 0.681956,-0.312805 c 0.354128,-0.250525 1.358355,-1.012126 1.81541,-1.376797 0.537371,-0.428752 0.598921,-0.493547 0.633573,-0.666962 0.06192,-0.309915 0.154976,-1.794696 0.205292,-3.275805 0.02806,-0.82606 0.02665,-0.940151 -0.01209,-0.978893 -0.05115,-0.05115 -0.07672,-0.04286 -1.158797,0.375245 -1.269982,0.490712 -1.8449,0.758627 -1.912296,0.891141 -0.06033,0.118622 -0.03326,2.613007 0.04901,4.516299 0.02534,0.586113 0.04026,0.707347 0.08705,0.707347 0.01213,0 0.143904,-0.08621 0.292842,-0.191575 z m -0.622651,-1.013802 c -0.01218,-0.535923 -0.02681,-1.694557 -0.03252,-2.574744 -0.0081,-1.255585 -0.01836,-1.607633 -0.04745,-1.63421 -0.106289,-0.0971 -3.10159,-0.677511 -3.496415,-0.677511 h -0.135139 l 3.71e-4,0.281495 c 5.78e-4,0.445614 0.107808,1.632044 0.261587,2.894346 0.106753,0.876288 0.163675,1.197828 0.22476,1.269608 0.108101,0.127026 1.297194,0.741581 1.931131,0.998059 0.417345,0.168849 1.151926,0.414027 1.246224,0.415946 l 0.06959,0.0014 z m 0.778946,-4.666157 c 0.521312,-0.175316 1.631211,-0.587253 1.882404,-0.698649 0.123751,-0.05488 0.155359,-0.08002 0.123166,-0.09796 -0.08273,-0.04609 -1.835693,-0.312599 -2.781117,-0.422813 -0.349053,-0.04069 -0.466344,-0.04391 -0.635169,-0.01741 -0.320219,0.05026 -2.598014,0.698144 -2.656719,0.755658 -0.03178,0.03113 0.194652,0.08146 1.179323,0.262104 1.326108,0.243286 2.097867,0.369927 2.267379,0.372065 0.120438,0.0015 0.273269,-0.03615 0.620733,-0.153004 z"
           style="fill:#000000;stroke:#000000;stroke-width:0.229;stroke-miterlimit:4;stroke-dasharray:none;stroke-opacity:1" /></g><g
         transform="matrix(0.35279356,0,0,0.35279356,22.856436,27.447001)"
         id="layer1-6-75-2-4-0"
         inkscape:label="Capa 1"><path
           sodipodi:nodetypes="cccssssssccscscccccsscscssccscsccscccccsscsssscs"
           inkscape:connector-curvature="0"
           id="path828-35-3-5-3"
           d="m 15.55133,51.922274 c -0.685146,-0.279517 -3.20637,-1.507059 -3.324727,-1.618753 -0.03438,-0.03244 -0.07718,-0.127286 -0.09554,-0.211722 -0.08948,-0.411375 -0.262648,-1.722668 -0.332832,-2.520399 -0.05025,-0.57112 -0.0596,-2.009074 -0.01364,-2.094972 0.04031,-0.07531 0.184184,-0.143729 0.562025,-0.267256 0.722856,-0.236322 1.733468,-0.499615 2.410752,-0.628071 0.275408,-0.05224 0.396016,-0.0603 0.707347,-0.04732 0.415417,0.01732 1.429283,0.142198 2.38188,0.293384 0.766175,0.121598 1.019543,0.178219 1.103853,0.246676 l 0.06543,0.05313 -0.0077,1.496494 c -0.0081,1.566318 -0.04308,2.635128 -0.0968,2.95367 -0.03024,0.179307 -0.04114,0.197626 -0.223796,0.376151 -0.196508,0.192058 -2.306176,1.852072 -2.49635,1.964276 -0.172205,0.101604 -0.398334,0.103271 -0.639907,0.0047 z m 0.681956,-0.312805 c 0.354128,-0.250525 1.358355,-1.012126 1.81541,-1.376797 0.537371,-0.428752 0.598921,-0.493547 0.633573,-0.666962 0.06192,-0.309915 0.154976,-1.794696 0.205292,-3.275805 0.02806,-0.82606 0.02665,-0.940151 -0.01209,-0.978893 -0.05115,-0.05115 -0.07672,-0.04286 -1.158797,0.375245 -1.269982,0.490712 -1.8449,0.758627 -1.912296,0.891141 -0.06033,0.118622 -0.03326,2.613007 0.04901,4.516299 0.02534,0.586113 0.04026,0.707347 0.08705,0.707347 0.01213,0 0.143904,-0.08621 0.292842,-0.191575 z m -0.622651,-1.013802 c -0.01218,-0.535923 -0.02681,-1.694557 -0.03252,-2.574744 -0.0081,-1.255585 -0.01836,-1.607633 -0.04745,-1.63421 -0.106289,-0.0971 -3.10159,-0.677511 -3.496415,-0.677511 h -0.135139 l 3.71e-4,0.281495 c 5.78e-4,0.445614 0.107808,1.632044 0.261587,2.894346 0.106753,0.876288 0.163675,1.197828 0.22476,1.269608 0.108101,0.127026 1.297194,0.741581 1.931131,0.998059 0.417345,0.168849 1.151926,0.414027 1.246224,0.415946 l 0.06959,0.0014 z m 0.778946,-4.666157 c 0.521312,-0.175316 1.631211,-0.587253 1.882404,-0.698649 0.123751,-0.05488 0.155359,-0.08002 0.123166,-0.09796 -0.08273,-0.04609 -1.835693,-0.312599 -2.781117,-0.422813 -0.349053,-0.04069 -0.466344,-0.04391 -0.635169,-0.01741 -0.320219,0.05026 -2.598014,0.698144 -2.656719,0.755658 -0.03178,0.03113 0.194652,0.08146 1.179323,0.262104 1.326108,0.243286 2.097867,0.369927 2.267379,0.372065 0.120438,0.0015 0.273269,-0.03615 0.620733,-0.153004 z"
           style="fill:#000000;stroke:#000000;stroke-width:0.229;stroke-miterlimit:4;stroke-dasharray:none;stroke-opacity:1" /></g></g></g></svg>
