<?xml version="1.0" encoding="UTF-8" standalone="no"?>
<!-- Created with Inkscape (http://www.inkscape.org/) -->

<svg
   width="120mm"
   height="23.016712mm"
   viewBox="0 0 120 23.016712"
   version="1.1"
   id="svg1100"
   inkscape:version="1.1.2 (0a00cf5339, 2022-02-04)"
   sodipodi:docname="LargeRotatoryCannon.svg"
   xmlns:inkscape="http://www.inkscape.org/namespaces/inkscape"
   xmlns:sodipodi="http://sodipodi.sourceforge.net/DTD/sodipodi-0.dtd"
   xmlns="http://www.w3.org/2000/svg"
   xmlns:svg="http://www.w3.org/2000/svg"
   xmlns:rdf="http://www.w3.org/1999/02/22-rdf-syntax-ns#"
   xmlns:cc="http://creativecommons.org/ns#"
   xmlns:dc="http://purl.org/dc/elements/1.1/">
  <defs
     id="defs1094" />
  <sodipodi:namedview
     id="base"
     pagecolor="#ffffff"
     bordercolor="#666666"
     borderopacity="1.0"
     inkscape:pageopacity="0.0"
     inkscape:pageshadow="2"
     inkscape:zoom="1"
     inkscape:cx="-1"
     inkscape:cy="-130.5"
     inkscape:document-units="mm"
     inkscape:current-layer="layer1"
     showgrid="false"
     inkscape:window-width="1846"
     inkscape:window-height="1016"
     inkscape:window-x="74"
     inkscape:window-y="27"
     inkscape:window-maximized="1"
     fit-margin-top="0"
     fit-margin-left="0"
     fit-margin-right="0"
     fit-margin-bottom="0"
     inkscape:snap-global="true"
     inkscape:snap-bbox="true"
     inkscape:pagecheckerboard="0" />
  <metadata
     id="metadata1097">
    <rdf:RDF>
      <cc:Work
         rdf:about="">
        <dc:format>image/svg+xml</dc:format>
        <dc:type
           rdf:resource="http://purl.org/dc/dcmitype/StillImage" />
        <dc:title />
      </cc:Work>
    </rdf:RDF>
  </metadata>
  <g
     inkscape:groupmode="layer"
     id="layer3"
     inkscape:label="Background"
     style="display:inline"
     sodipodi:insensitive="true" />
  <g
     inkscape:groupmode="layer"
     id="layer2"
     inkscape:label="Guias"
     style="display:none"
     transform="translate(0,0.2323513)">
    <g
       id="g1399"
       transform="translate(-6.7978492)">
      <rect
         y="11.402682"
         x="50.431446"
         height="11"
         width="74.99527"
         id="rect1878-3"
         style="display:inline;opacity:1;vector-effect:none;fill:#ffe680;fill-opacity:1;stroke:none;stroke-width:0.47467926;stroke-linecap:butt;stroke-linejoin:miter;stroke-miterlimit:4;stroke-dasharray:none;stroke-dashoffset:0;stroke-opacity:1" />
      <rect
         y="0.30218902"
         x="8.1689825"
         height="22.148087"
         width="42.262463"
         id="rect1868"
         style="display:inline;opacity:1;vector-effect:none;fill:#decd87;fill-opacity:1;stroke:none;stroke-width:0.39467782;stroke-linecap:butt;stroke-linejoin:miter;stroke-miterlimit:4;stroke-dasharray:none;stroke-dashoffset:0;stroke-opacity:1" />
      <rect
         y="0.39782956"
         x="50.431446"
         height="11"
         width="74.99527"
         id="rect1878"
         style="display:inline;opacity:1;vector-effect:none;fill:#deaa87;fill-opacity:1;stroke:none;stroke-width:0.47467929;stroke-linecap:butt;stroke-linejoin:miter;stroke-miterlimit:4;stroke-dasharray:none;stroke-dashoffset:0;stroke-opacity:1" />
      <rect
         y="12.891373"
         x="76.863533"
         height="8.0226164"
         width="22"
         id="rect1878-7-3"
         style="display:inline;opacity:1;vector-effect:none;fill:#eeffaa;fill-opacity:1;stroke:none;stroke-width:0.19344766;stroke-linecap:butt;stroke-linejoin:miter;stroke-miterlimit:4;stroke-dasharray:none;stroke-dashoffset:0;stroke-opacity:1" />
      <rect
         y="12.891415"
         x="103.2956"
         height="8.0226164"
         width="22"
         id="rect1878-7-56"
         style="display:inline;opacity:1;vector-effect:none;fill:#ccffaa;fill-opacity:1;stroke:none;stroke-width:0.21753596;stroke-linecap:butt;stroke-linejoin:miter;stroke-miterlimit:4;stroke-dasharray:none;stroke-dashoffset:0;stroke-opacity:1" />
      <rect
         y="12.680782"
         x="50.431446"
         height="8.443799"
         width="22"
         id="rect1878-7"
         style="display:inline;opacity:1;vector-effect:none;fill:#ff9955;fill-opacity:1;stroke:none;stroke-width:0.22317314;stroke-linecap:butt;stroke-linejoin:miter;stroke-miterlimit:4;stroke-dasharray:none;stroke-dashoffset:0;stroke-opacity:1" />
      <rect
         y="13.158642"
         x="77.363533"
         height="7.4880772"
         width="21"
         id="rect1878-7-2-7"
         style="display:inline;opacity:1;vector-effect:none;fill:#ddff55;fill-opacity:1;stroke:none;stroke-width:0.20533194;stroke-linecap:butt;stroke-linejoin:miter;stroke-miterlimit:4;stroke-dasharray:none;stroke-dashoffset:0;stroke-opacity:1" />
      <rect
         y="13.158684"
         x="103.7956"
         height="7.4880772"
         width="21"
         id="rect1878-7-2-7-0"
         style="display:inline;opacity:1;vector-effect:none;fill:#66ff00;fill-opacity:1;stroke:none;stroke-width:0.20533194;stroke-linecap:butt;stroke-linejoin:miter;stroke-miterlimit:4;stroke-dasharray:none;stroke-dashoffset:0;stroke-opacity:1" />
      <rect
         y="13.158642"
         x="50.931446"
         height="7.4880772"
         width="21"
         id="rect1878-7-2"
         style="display:inline;opacity:1;vector-effect:none;fill:#d45500;fill-opacity:1;stroke:none;stroke-width:0.20533194;stroke-linecap:butt;stroke-linejoin:miter;stroke-miterlimit:4;stroke-dasharray:none;stroke-dashoffset:0;stroke-opacity:1" />
    </g>
  </g>
  <g
     inkscape:label="Capa 1"
     inkscape:groupmode="layer"
     id="layer1"
     transform="translate(28.060163,-27.595709)"
     style="display:inline">
    <g
       transform="matrix(0.35279357,0,0,0.35279357,27.66483,22.56444)"
       id="layer1-6-3-2"
       inkscape:label="Capa 1" />
    <rect
       style="display:inline;opacity:1;fill:#ffffff;fill-opacity:1;stroke:none;stroke-width:0.71100003;stroke-miterlimit:4;stroke-dasharray:none;stroke-dashoffset:0;stroke-opacity:1"
       id="rect1126"
       width="119.99902"
       height="23.017704"
       x="-28.060163"
       y="27.595709" />
    <g
       style="display:inline"
       id="g9128"
       transform="translate(-107.62953,-199.34653)">
      <path
         inkscape:connector-curvature="0"
         id="path9084"
         d="M 83.843672,227.37459 H 195.29507"
         style="fill:none;stroke:#000000;stroke-width:0.40000001;stroke-linecap:butt;stroke-linejoin:miter;stroke-miterlimit:4;stroke-dasharray:none;stroke-opacity:1" />
      <path
         inkscape:connector-curvature="0"
         id="path9084-3"
         d="M 83.843669,249.75895 H 195.29507"
         style="fill:none;stroke:#000000;stroke-width:0.40000001;stroke-linecap:butt;stroke-linejoin:miter;stroke-miterlimit:4;stroke-dasharray:none;stroke-opacity:1" />
    </g>
    <g
       transform="translate(-9.2270473,4.8825639)"
       id="g950">
      <path
         inkscape:connector-curvature="0"
         id="path1183-9"
         d="m 49.256287,38.434447 v 5.58932"
         style="fill:none;stroke:#000000;stroke-width:0.26458332px;stroke-linecap:butt;stroke-linejoin:miter;stroke-opacity:1" />
      <text
         id="text1088-4"
         y="42.628105"
         x="25.29821"
         style="font-style:normal;font-weight:normal;font-size:132.329px;line-height:1.25;font-family:sans-serif;letter-spacing:0px;word-spacing:0px;fill:#000000;fill-opacity:1;stroke:none;stroke-width:0.220548"
         xml:space="preserve"><tspan
           style="font-size:2.64658px;stroke-width:0.220548"
           y="42.628105"
           x="25.29821"
           id="tspan1086-7"
           sodipodi:role="line">1</tspan></text>
      <path
         sodipodi:nodetypes="cc"
         inkscape:connector-curvature="0"
         id="path1090-8"
         d="m 29.045493,41.675169 h 14"
         style="fill:none;stroke:#000000;stroke-width:0.2093017px;stroke-linecap:butt;stroke-linejoin:miter;stroke-opacity:1" />
      <text
         id="text1088-0-4"
         y="42.645546"
         x="43.432911"
         style="font-style:normal;font-weight:normal;font-size:132.329px;line-height:1.25;font-family:sans-serif;letter-spacing:0px;word-spacing:0px;fill:#000000;fill-opacity:1;stroke:none;stroke-width:0.220548"
         xml:space="preserve"><tspan
           style="font-size:2.64658px;stroke-width:0.220548"
           y="42.645546"
           x="43.432911"
           id="tspan1086-9-5"
           sodipodi:role="line">15</tspan></text>
      <g
         transform="translate(-2.9527483)"
         id="g965">
        <g
           transform="matrix(0.35279357,0,0,0.35279357,30.6176,22.56444)"
           id="layer1-6-75-2"
           inkscape:label="Capa 1">
          <path
             sodipodi:nodetypes="cccssssssccscscccccsscscssccscsccscccccsscsssscs"
             inkscape:connector-curvature="0"
             id="path828-35-3"
             d="m 15.55133,51.922274 c -0.685146,-0.279517 -3.20637,-1.507059 -3.324727,-1.618753 -0.03438,-0.03244 -0.07718,-0.127286 -0.09554,-0.211722 -0.08948,-0.411375 -0.262648,-1.722668 -0.332832,-2.520399 -0.05025,-0.57112 -0.0596,-2.009074 -0.01364,-2.094972 0.04031,-0.07531 0.184184,-0.143729 0.562025,-0.267256 0.722856,-0.236322 1.733468,-0.499615 2.410752,-0.628071 0.275408,-0.05224 0.396016,-0.0603 0.707347,-0.04732 0.415417,0.01732 1.429283,0.142198 2.38188,0.293384 0.766175,0.121598 1.019543,0.178219 1.103853,0.246676 l 0.06543,0.05313 -0.0077,1.496494 c -0.0081,1.566318 -0.04308,2.635128 -0.0968,2.95367 -0.03024,0.179307 -0.04114,0.197626 -0.223796,0.376151 -0.196508,0.192058 -2.306176,1.852072 -2.49635,1.964276 -0.172205,0.101604 -0.398334,0.103271 -0.639907,0.0047 z m 0.681956,-0.312805 c 0.354128,-0.250525 1.358355,-1.012126 1.81541,-1.376797 0.537371,-0.428752 0.598921,-0.493547 0.633573,-0.666962 0.06192,-0.309915 0.154976,-1.794696 0.205292,-3.275805 0.02806,-0.82606 0.02665,-0.940151 -0.01209,-0.978893 -0.05115,-0.05115 -0.07672,-0.04286 -1.158797,0.375245 -1.269982,0.490712 -1.8449,0.758627 -1.912296,0.891141 -0.06033,0.118622 -0.03326,2.613007 0.04901,4.516299 0.02534,0.586113 0.04026,0.707347 0.08705,0.707347 0.01213,0 0.143904,-0.08621 0.292842,-0.191575 z m -0.622651,-1.013802 c -0.01218,-0.535923 -0.02681,-1.694557 -0.03252,-2.574744 -0.0081,-1.255585 -0.01836,-1.607633 -0.04745,-1.63421 -0.106289,-0.0971 -3.10159,-0.677511 -3.496415,-0.677511 h -0.135139 l 3.71e-4,0.281495 c 5.78e-4,0.445614 0.107808,1.632044 0.261587,2.894346 0.106753,0.876288 0.163675,1.197828 0.22476,1.269608 0.108101,0.127026 1.297194,0.741581 1.931131,0.998059 0.417345,0.168849 1.151926,0.414027 1.246224,0.415946 l 0.06959,0.0014 z m 0.778946,-4.666157 c 0.521312,-0.175316 1.631211,-0.587253 1.882404,-0.698649 0.123751,-0.05488 0.155359,-0.08002 0.123166,-0.09796 -0.08273,-0.04609 -1.835693,-0.312599 -2.781117,-0.422813 -0.349053,-0.04069 -0.466344,-0.04391 -0.635169,-0.01741 -0.320219,0.05026 -2.598014,0.698144 -2.656719,0.755658 -0.03178,0.03113 0.194652,0.08146 1.179323,0.262104 1.326108,0.243286 2.097867,0.369927 2.267379,0.372065 0.120438,0.0015 0.273269,-0.03615 0.620733,-0.153004 z"
             style="fill:#000000;stroke:#000000;stroke-width:0.229;stroke-miterlimit:4;stroke-dasharray:none;stroke-opacity:1" />
        </g>
        <g
           transform="matrix(0.35279356,0,0,0.35279356,33.57034,22.56444)"
           id="layer1-6-75-2-4-03"
           inkscape:label="Capa 1">
          <path
             sodipodi:nodetypes="cccssssssccscscccccsscscssccscsccscccccsscsssscs"
             inkscape:connector-curvature="0"
             id="path828-35-3-5-6"
             d="m 15.55133,51.922274 c -0.685146,-0.279517 -3.20637,-1.507059 -3.324727,-1.618753 -0.03438,-0.03244 -0.07718,-0.127286 -0.09554,-0.211722 -0.08948,-0.411375 -0.262648,-1.722668 -0.332832,-2.520399 -0.05025,-0.57112 -0.0596,-2.009074 -0.01364,-2.094972 0.04031,-0.07531 0.184184,-0.143729 0.562025,-0.267256 0.722856,-0.236322 1.733468,-0.499615 2.410752,-0.628071 0.275408,-0.05224 0.396016,-0.0603 0.707347,-0.04732 0.415417,0.01732 1.429283,0.142198 2.38188,0.293384 0.766175,0.121598 1.019543,0.178219 1.103853,0.246676 l 0.06543,0.05313 -0.0077,1.496494 c -0.0081,1.566318 -0.04308,2.635128 -0.0968,2.95367 -0.03024,0.179307 -0.04114,0.197626 -0.223796,0.376151 -0.196508,0.192058 -2.306176,1.852072 -2.49635,1.964276 -0.172205,0.101604 -0.398334,0.103271 -0.639907,0.0047 z m 0.681956,-0.312805 c 0.354128,-0.250525 1.358355,-1.012126 1.81541,-1.376797 0.537371,-0.428752 0.598921,-0.493547 0.633573,-0.666962 0.06192,-0.309915 0.154976,-1.794696 0.205292,-3.275805 0.02806,-0.82606 0.02665,-0.940151 -0.01209,-0.978893 -0.05115,-0.05115 -0.07672,-0.04286 -1.158797,0.375245 -1.269982,0.490712 -1.8449,0.758627 -1.912296,0.891141 -0.06033,0.118622 -0.03326,2.613007 0.04901,4.516299 0.02534,0.586113 0.04026,0.707347 0.08705,0.707347 0.01213,0 0.143904,-0.08621 0.292842,-0.191575 z m -0.622651,-1.013802 c -0.01218,-0.535923 -0.02681,-1.694557 -0.03252,-2.574744 -0.0081,-1.255585 -0.01836,-1.607633 -0.04745,-1.63421 -0.106289,-0.0971 -3.10159,-0.677511 -3.496415,-0.677511 h -0.135139 l 3.71e-4,0.281495 c 5.78e-4,0.445614 0.107808,1.632044 0.261587,2.894346 0.106753,0.876288 0.163675,1.197828 0.22476,1.269608 0.108101,0.127026 1.297194,0.741581 1.931131,0.998059 0.417345,0.168849 1.151926,0.414027 1.246224,0.415946 l 0.06959,0.0014 z m 0.778946,-4.666157 c 0.521312,-0.175316 1.631211,-0.587253 1.882404,-0.698649 0.123751,-0.05488 0.155359,-0.08002 0.123166,-0.09796 -0.08273,-0.04609 -1.835693,-0.312599 -2.781117,-0.422813 -0.349053,-0.04069 -0.466344,-0.04391 -0.635169,-0.01741 -0.320219,0.05026 -2.598014,0.698144 -2.656719,0.755658 -0.03178,0.03113 0.194652,0.08146 1.179323,0.262104 1.326108,0.243286 2.097867,0.369927 2.267379,0.372065 0.120438,0.0015 0.273269,-0.03615 0.620733,-0.153004 z"
             style="fill:#000000;stroke:#000000;stroke-width:0.229;stroke-miterlimit:4;stroke-dasharray:none;stroke-opacity:1" />
        </g>
        <g
           transform="matrix(0.35279356,0,0,0.35279356,36.52308,22.56444)"
           id="layer1-6-75-2-4-0"
           inkscape:label="Capa 1">
          <path
             sodipodi:nodetypes="cccssssssccscscccccsscscssccscsccscccccsscsssscs"
             inkscape:connector-curvature="0"
             id="path828-35-3-5-3"
             d="m 15.55133,51.922274 c -0.685146,-0.279517 -3.20637,-1.507059 -3.324727,-1.618753 -0.03438,-0.03244 -0.07718,-0.127286 -0.09554,-0.211722 -0.08948,-0.411375 -0.262648,-1.722668 -0.332832,-2.520399 -0.05025,-0.57112 -0.0596,-2.009074 -0.01364,-2.094972 0.04031,-0.07531 0.184184,-0.143729 0.562025,-0.267256 0.722856,-0.236322 1.733468,-0.499615 2.410752,-0.628071 0.275408,-0.05224 0.396016,-0.0603 0.707347,-0.04732 0.415417,0.01732 1.429283,0.142198 2.38188,0.293384 0.766175,0.121598 1.019543,0.178219 1.103853,0.246676 l 0.06543,0.05313 -0.0077,1.496494 c -0.0081,1.566318 -0.04308,2.635128 -0.0968,2.95367 -0.03024,0.179307 -0.04114,0.197626 -0.223796,0.376151 -0.196508,0.192058 -2.306176,1.852072 -2.49635,1.964276 -0.172205,0.101604 -0.398334,0.103271 -0.639907,0.0047 z m 0.681956,-0.312805 c 0.354128,-0.250525 1.358355,-1.012126 1.81541,-1.376797 0.537371,-0.428752 0.598921,-0.493547 0.633573,-0.666962 0.06192,-0.309915 0.154976,-1.794696 0.205292,-3.275805 0.02806,-0.82606 0.02665,-0.940151 -0.01209,-0.978893 -0.05115,-0.05115 -0.07672,-0.04286 -1.158797,0.375245 -1.269982,0.490712 -1.8449,0.758627 -1.912296,0.891141 -0.06033,0.118622 -0.03326,2.613007 0.04901,4.516299 0.02534,0.586113 0.04026,0.707347 0.08705,0.707347 0.01213,0 0.143904,-0.08621 0.292842,-0.191575 z m -0.622651,-1.013802 c -0.01218,-0.535923 -0.02681,-1.694557 -0.03252,-2.574744 -0.0081,-1.255585 -0.01836,-1.607633 -0.04745,-1.63421 -0.106289,-0.0971 -3.10159,-0.677511 -3.496415,-0.677511 h -0.135139 l 3.71e-4,0.281495 c 5.78e-4,0.445614 0.107808,1.632044 0.261587,2.894346 0.106753,0.876288 0.163675,1.197828 0.22476,1.269608 0.108101,0.127026 1.297194,0.741581 1.931131,0.998059 0.417345,0.168849 1.151926,0.414027 1.246224,0.415946 l 0.06959,0.0014 z m 0.778946,-4.666157 c 0.521312,-0.175316 1.631211,-0.587253 1.882404,-0.698649 0.123751,-0.05488 0.155359,-0.08002 0.123166,-0.09796 -0.08273,-0.04609 -1.835693,-0.312599 -2.781117,-0.422813 -0.349053,-0.04069 -0.466344,-0.04391 -0.635169,-0.01741 -0.320219,0.05026 -2.598014,0.698144 -2.656719,0.755658 -0.03178,0.03113 0.194652,0.08146 1.179323,0.262104 1.326108,0.243286 2.097867,0.369927 2.267379,0.372065 0.120438,0.0015 0.273269,-0.03615 0.620733,-0.153004 z"
             style="fill:#000000;stroke:#000000;stroke-width:0.229;stroke-miterlimit:4;stroke-dasharray:none;stroke-opacity:1" />
        </g>
      </g>
      <text
         id="text1088-1-1"
         y="42.645546"
         x="51.759151"
         style="font-style:normal;font-weight:normal;font-size:132.329px;line-height:1.25;font-family:sans-serif;letter-spacing:0px;word-spacing:0px;fill:#000000;fill-opacity:1;stroke:none;stroke-width:0.220548"
         xml:space="preserve"><tspan
           style="font-size:2.64658px;stroke-width:0.220548"
           y="42.645546"
           x="51.759151"
           id="tspan1086-8-0"
           sodipodi:role="line">15</tspan></text>
      <text
         id="text1088-0-9-6"
         y="42.626808"
         x="69.749573"
         style="font-style:normal;font-weight:normal;font-size:132.329px;line-height:1.25;font-family:sans-serif;letter-spacing:0px;word-spacing:0px;fill:#000000;fill-opacity:1;stroke:none;stroke-width:0.220548"
         xml:space="preserve"><tspan
           style="font-size:2.64658px;stroke-width:0.220548"
           y="42.626808"
           x="69.749573"
           id="tspan1086-9-2-3"
           sodipodi:role="line">30</tspan></text>
      <g
         transform="translate(-1.854338)"
         id="g973">
        <g
           transform="matrix(0.35279357,0,0,0.35279357,55.940774,22.56444)"
           id="layer1-6-3-2-32"
           inkscape:label="Capa 1">
          <path
             sodipodi:nodetypes="cccssssssccscscccccsscscssccscsccscccccsscsssscs"
             inkscape:connector-curvature="0"
             id="path828-6-0-0"
             d="m 15.55133,51.922274 c -0.685146,-0.279517 -3.20637,-1.507059 -3.324727,-1.618753 -0.03438,-0.03244 -0.07718,-0.127286 -0.09554,-0.211722 -0.08948,-0.411375 -0.262648,-1.722668 -0.332832,-2.520399 -0.05025,-0.57112 -0.0596,-2.009074 -0.01364,-2.094972 0.04031,-0.07531 0.184184,-0.143729 0.562025,-0.267256 0.722856,-0.236322 1.733468,-0.499615 2.410752,-0.628071 0.275408,-0.05224 0.396016,-0.0603 0.707347,-0.04732 0.415417,0.01732 1.429283,0.142198 2.38188,0.293384 0.766175,0.121598 1.019543,0.178219 1.103853,0.246676 l 0.06543,0.05313 -0.0077,1.496494 c -0.0081,1.566318 -0.04308,2.635128 -0.0968,2.95367 -0.03024,0.179307 -0.04114,0.197626 -0.223796,0.376151 -0.196508,0.192058 -2.306176,1.852072 -2.49635,1.964276 -0.172205,0.101604 -0.398334,0.103271 -0.639907,0.0047 z m 0.681956,-0.312805 c 0.354128,-0.250525 1.358355,-1.012126 1.81541,-1.376797 0.537371,-0.428752 0.598921,-0.493547 0.633573,-0.666962 0.06192,-0.309915 0.154976,-1.794696 0.205292,-3.275805 0.02806,-0.82606 0.02665,-0.940151 -0.01209,-0.978893 -0.05115,-0.05115 -0.07672,-0.04286 -1.158797,0.375245 -1.269982,0.490712 -1.8449,0.758627 -1.912296,0.891141 -0.06033,0.118622 -0.03326,2.613007 0.04901,4.516299 0.02534,0.586113 0.04026,0.707347 0.08705,0.707347 0.01213,0 0.143904,-0.08621 0.292842,-0.191575 z m -0.622651,-1.013802 c -0.01218,-0.535923 -0.02681,-1.694557 -0.03252,-2.574744 -0.0081,-1.255585 -0.01836,-1.607633 -0.04745,-1.63421 -0.106289,-0.0971 -3.10159,-0.677511 -3.496415,-0.677511 h -0.135139 l 3.71e-4,0.281495 c 5.78e-4,0.445614 0.107808,1.632044 0.261587,2.894346 0.106753,0.876288 0.163675,1.197828 0.22476,1.269608 0.108101,0.127026 1.297194,0.741581 1.931131,0.998059 0.417345,0.168849 1.151926,0.414027 1.246224,0.415946 l 0.06959,0.0014 z m 0.778946,-4.666157 c 0.521312,-0.175316 1.631211,-0.587253 1.882404,-0.698649 0.123751,-0.05488 0.155359,-0.08002 0.123166,-0.09796 -0.08273,-0.04609 -1.835693,-0.312599 -2.781117,-0.422813 -0.349053,-0.04069 -0.466344,-0.04391 -0.635169,-0.01741 -0.320219,0.05026 -2.598014,0.698144 -2.656719,0.755658 -0.03178,0.03113 0.194652,0.08146 1.179323,0.262104 1.326108,0.243286 2.097867,0.369927 2.267379,0.372065 0.120438,0.0015 0.273269,-0.03615 0.620733,-0.153004 z"
             style="fill:#000000;stroke:#000000;stroke-width:0.229;stroke-miterlimit:4;stroke-dasharray:none;stroke-opacity:1" />
        </g>
        <g
           transform="matrix(0.35279357,0,0,0.35279357,58.893544,22.56444)"
           id="layer1-6-75-2-6"
           inkscape:label="Capa 1">
          <path
             sodipodi:nodetypes="cccssssssccscscccccsscscssccscsccscccccsscsssscs"
             inkscape:connector-curvature="0"
             id="path828-35-3-1"
             d="m 15.55133,51.922274 c -0.685146,-0.279517 -3.20637,-1.507059 -3.324727,-1.618753 -0.03438,-0.03244 -0.07718,-0.127286 -0.09554,-0.211722 -0.08948,-0.411375 -0.262648,-1.722668 -0.332832,-2.520399 -0.05025,-0.57112 -0.0596,-2.009074 -0.01364,-2.094972 0.04031,-0.07531 0.184184,-0.143729 0.562025,-0.267256 0.722856,-0.236322 1.733468,-0.499615 2.410752,-0.628071 0.275408,-0.05224 0.396016,-0.0603 0.707347,-0.04732 0.415417,0.01732 1.429283,0.142198 2.38188,0.293384 0.766175,0.121598 1.019543,0.178219 1.103853,0.246676 l 0.06543,0.05313 -0.0077,1.496494 c -0.0081,1.566318 -0.04308,2.635128 -0.0968,2.95367 -0.03024,0.179307 -0.04114,0.197626 -0.223796,0.376151 -0.196508,0.192058 -2.306176,1.852072 -2.49635,1.964276 -0.172205,0.101604 -0.398334,0.103271 -0.639907,0.0047 z m 0.681956,-0.312805 c 0.354128,-0.250525 1.358355,-1.012126 1.81541,-1.376797 0.537371,-0.428752 0.598921,-0.493547 0.633573,-0.666962 0.06192,-0.309915 0.154976,-1.794696 0.205292,-3.275805 0.02806,-0.82606 0.02665,-0.940151 -0.01209,-0.978893 -0.05115,-0.05115 -0.07672,-0.04286 -1.158797,0.375245 -1.269982,0.490712 -1.8449,0.758627 -1.912296,0.891141 -0.06033,0.118622 -0.03326,2.613007 0.04901,4.516299 0.02534,0.586113 0.04026,0.707347 0.08705,0.707347 0.01213,0 0.143904,-0.08621 0.292842,-0.191575 z m -0.622651,-1.013802 c -0.01218,-0.535923 -0.02681,-1.694557 -0.03252,-2.574744 -0.0081,-1.255585 -0.01836,-1.607633 -0.04745,-1.63421 -0.106289,-0.0971 -3.10159,-0.677511 -3.496415,-0.677511 h -0.135139 l 3.71e-4,0.281495 c 5.78e-4,0.445614 0.107808,1.632044 0.261587,2.894346 0.106753,0.876288 0.163675,1.197828 0.22476,1.269608 0.108101,0.127026 1.297194,0.741581 1.931131,0.998059 0.417345,0.168849 1.151926,0.414027 1.246224,0.415946 l 0.06959,0.0014 z m 0.778946,-4.666157 c 0.521312,-0.175316 1.631211,-0.587253 1.882404,-0.698649 0.123751,-0.05488 0.155359,-0.08002 0.123166,-0.09796 -0.08273,-0.04609 -1.835693,-0.312599 -2.781117,-0.422813 -0.349053,-0.04069 -0.466344,-0.04391 -0.635169,-0.01741 -0.320219,0.05026 -2.598014,0.698144 -2.656719,0.755658 -0.03178,0.03113 0.194652,0.08146 1.179323,0.262104 1.326108,0.243286 2.097867,0.369927 2.267379,0.372065 0.120438,0.0015 0.273269,-0.03615 0.620733,-0.153004 z"
             style="fill:#000000;stroke:#000000;stroke-width:0.229;stroke-miterlimit:4;stroke-dasharray:none;stroke-opacity:1" />
        </g>
        <g
           transform="matrix(0.35279356,0,0,0.35279356,61.846284,22.56444)"
           id="layer1-6-75-2-4-5"
           inkscape:label="Capa 1">
          <path
             sodipodi:nodetypes="cccssssssccscscccccsscscssccscsccscccccsscsssscs"
             inkscape:connector-curvature="0"
             id="path828-35-3-5-5"
             d="m 15.55133,51.922274 c -0.685146,-0.279517 -3.20637,-1.507059 -3.324727,-1.618753 -0.03438,-0.03244 -0.07718,-0.127286 -0.09554,-0.211722 -0.08948,-0.411375 -0.262648,-1.722668 -0.332832,-2.520399 -0.05025,-0.57112 -0.0596,-2.009074 -0.01364,-2.094972 0.04031,-0.07531 0.184184,-0.143729 0.562025,-0.267256 0.722856,-0.236322 1.733468,-0.499615 2.410752,-0.628071 0.275408,-0.05224 0.396016,-0.0603 0.707347,-0.04732 0.415417,0.01732 1.429283,0.142198 2.38188,0.293384 0.766175,0.121598 1.019543,0.178219 1.103853,0.246676 l 0.06543,0.05313 -0.0077,1.496494 c -0.0081,1.566318 -0.04308,2.635128 -0.0968,2.95367 -0.03024,0.179307 -0.04114,0.197626 -0.223796,0.376151 -0.196508,0.192058 -2.306176,1.852072 -2.49635,1.964276 -0.172205,0.101604 -0.398334,0.103271 -0.639907,0.0047 z m 0.681956,-0.312805 c 0.354128,-0.250525 1.358355,-1.012126 1.81541,-1.376797 0.537371,-0.428752 0.598921,-0.493547 0.633573,-0.666962 0.06192,-0.309915 0.154976,-1.794696 0.205292,-3.275805 0.02806,-0.82606 0.02665,-0.940151 -0.01209,-0.978893 -0.05115,-0.05115 -0.07672,-0.04286 -1.158797,0.375245 -1.269982,0.490712 -1.8449,0.758627 -1.912296,0.891141 -0.06033,0.118622 -0.03326,2.613007 0.04901,4.516299 0.02534,0.586113 0.04026,0.707347 0.08705,0.707347 0.01213,0 0.143904,-0.08621 0.292842,-0.191575 z m -0.622651,-1.013802 c -0.01218,-0.535923 -0.02681,-1.694557 -0.03252,-2.574744 -0.0081,-1.255585 -0.01836,-1.607633 -0.04745,-1.63421 -0.106289,-0.0971 -3.10159,-0.677511 -3.496415,-0.677511 h -0.135139 l 3.71e-4,0.281495 c 5.78e-4,0.445614 0.107808,1.632044 0.261587,2.894346 0.106753,0.876288 0.163675,1.197828 0.22476,1.269608 0.108101,0.127026 1.297194,0.741581 1.931131,0.998059 0.417345,0.168849 1.151926,0.414027 1.246224,0.415946 l 0.06959,0.0014 z m 0.778946,-4.666157 c 0.521312,-0.175316 1.631211,-0.587253 1.882404,-0.698649 0.123751,-0.05488 0.155359,-0.08002 0.123166,-0.09796 -0.08273,-0.04609 -1.835693,-0.312599 -2.781117,-0.422813 -0.349053,-0.04069 -0.466344,-0.04391 -0.635169,-0.01741 -0.320219,0.05026 -2.598014,0.698144 -2.656719,0.755658 -0.03178,0.03113 0.194652,0.08146 1.179323,0.262104 1.326108,0.243286 2.097867,0.369927 2.267379,0.372065 0.120438,0.0015 0.273269,-0.03615 0.620733,-0.153004 z"
             style="fill:#000000;stroke:#000000;stroke-width:0.229;stroke-miterlimit:4;stroke-dasharray:none;stroke-opacity:1" />
        </g>
      </g>
      <path
         sodipodi:nodetypes="cc"
         inkscape:connector-curvature="0"
         id="path1090-2-2"
         d="m 55.467092,41.675169 h 14"
         style="fill:none;stroke:#000000;stroke-width:0.20910574;stroke-linecap:butt;stroke-linejoin:miter;stroke-miterlimit:4;stroke-dasharray:1.67284595, 0.20910574;stroke-dashoffset:0;stroke-opacity:1" />
      <text
         id="text1088-8-0"
         y="42.626808"
         x="78.16568"
         style="font-style:normal;font-weight:normal;font-size:132.329px;line-height:1.25;font-family:sans-serif;letter-spacing:0px;word-spacing:0px;fill:#000000;fill-opacity:1;stroke:none;stroke-width:0.220548"
         xml:space="preserve"><tspan
           style="font-size:2.64658px;stroke-width:0.220548"
           y="42.626808"
           x="78.16568"
           id="tspan1086-97-6"
           sodipodi:role="line">30</tspan></text>
      <text
         id="text1088-0-6-1"
         y="42.609367"
         x="96.253502"
         style="font-style:normal;font-weight:normal;font-size:132.329px;line-height:1.25;font-family:sans-serif;letter-spacing:0px;word-spacing:0px;fill:#000000;fill-opacity:1;stroke:none;stroke-width:0.220548"
         xml:space="preserve"><tspan
           style="font-size:2.64658px;stroke-width:0.220548"
           y="42.609367"
           x="96.253502"
           id="tspan1086-9-1-5"
           sodipodi:role="line">50</tspan></text>
      <g
         transform="translate(-2.2323177)"
         id="g981">
        <g
           transform="matrix(0.35279357,0,0,0.35279357,82.740349,22.56444)"
           id="layer1-6-3-2-37"
           inkscape:label="Capa 1">
          <path
             sodipodi:nodetypes="cccssssssccscscccccsscscssccscsccscccccsscsssscs"
             inkscape:connector-curvature="0"
             id="path828-6-0-4"
             d="m 15.55133,51.922274 c -0.685146,-0.279517 -3.20637,-1.507059 -3.324727,-1.618753 -0.03438,-0.03244 -0.07718,-0.127286 -0.09554,-0.211722 -0.08948,-0.411375 -0.262648,-1.722668 -0.332832,-2.520399 -0.05025,-0.57112 -0.0596,-2.009074 -0.01364,-2.094972 0.04031,-0.07531 0.184184,-0.143729 0.562025,-0.267256 0.722856,-0.236322 1.733468,-0.499615 2.410752,-0.628071 0.275408,-0.05224 0.396016,-0.0603 0.707347,-0.04732 0.415417,0.01732 1.429283,0.142198 2.38188,0.293384 0.766175,0.121598 1.019543,0.178219 1.103853,0.246676 l 0.06543,0.05313 -0.0077,1.496494 c -0.0081,1.566318 -0.04308,2.635128 -0.0968,2.95367 -0.03024,0.179307 -0.04114,0.197626 -0.223796,0.376151 -0.196508,0.192058 -2.306176,1.852072 -2.49635,1.964276 -0.172205,0.101604 -0.398334,0.103271 -0.639907,0.0047 z m 0.681956,-0.312805 c 0.354128,-0.250525 1.358355,-1.012126 1.81541,-1.376797 0.537371,-0.428752 0.598921,-0.493547 0.633573,-0.666962 0.06192,-0.309915 0.154976,-1.794696 0.205292,-3.275805 0.02806,-0.82606 0.02665,-0.940151 -0.01209,-0.978893 -0.05115,-0.05115 -0.07672,-0.04286 -1.158797,0.375245 -1.269982,0.490712 -1.8449,0.758627 -1.912296,0.891141 -0.06033,0.118622 -0.03326,2.613007 0.04901,4.516299 0.02534,0.586113 0.04026,0.707347 0.08705,0.707347 0.01213,0 0.143904,-0.08621 0.292842,-0.191575 z m -0.622651,-1.013802 c -0.01218,-0.535923 -0.02681,-1.694557 -0.03252,-2.574744 -0.0081,-1.255585 -0.01836,-1.607633 -0.04745,-1.63421 -0.106289,-0.0971 -3.10159,-0.677511 -3.496415,-0.677511 h -0.135139 l 3.71e-4,0.281495 c 5.78e-4,0.445614 0.107808,1.632044 0.261587,2.894346 0.106753,0.876288 0.163675,1.197828 0.22476,1.269608 0.108101,0.127026 1.297194,0.741581 1.931131,0.998059 0.417345,0.168849 1.151926,0.414027 1.246224,0.415946 l 0.06959,0.0014 z m 0.778946,-4.666157 c 0.521312,-0.175316 1.631211,-0.587253 1.882404,-0.698649 0.123751,-0.05488 0.155359,-0.08002 0.123166,-0.09796 -0.08273,-0.04609 -1.835693,-0.312599 -2.781117,-0.422813 -0.349053,-0.04069 -0.466344,-0.04391 -0.635169,-0.01741 -0.320219,0.05026 -2.598014,0.698144 -2.656719,0.755658 -0.03178,0.03113 0.194652,0.08146 1.179323,0.262104 1.326108,0.243286 2.097867,0.369927 2.267379,0.372065 0.120438,0.0015 0.273269,-0.03615 0.620733,-0.153004 z"
             style="fill:#000000;stroke:#000000;stroke-width:0.229;stroke-miterlimit:4;stroke-dasharray:none;stroke-opacity:1" />
        </g>
        <g
           transform="matrix(0.35279357,0,0,0.35279357,85.693119,22.56444)"
           id="layer1-6-75-2-5"
           inkscape:label="Capa 1">
          <path
             sodipodi:nodetypes="cccssssssccscscccccsscscssccscsccscccccsscsssscs"
             inkscape:connector-curvature="0"
             id="path828-35-3-2"
             d="m 15.55133,51.922274 c -0.685146,-0.279517 -3.20637,-1.507059 -3.324727,-1.618753 -0.03438,-0.03244 -0.07718,-0.127286 -0.09554,-0.211722 -0.08948,-0.411375 -0.262648,-1.722668 -0.332832,-2.520399 -0.05025,-0.57112 -0.0596,-2.009074 -0.01364,-2.094972 0.04031,-0.07531 0.184184,-0.143729 0.562025,-0.267256 0.722856,-0.236322 1.733468,-0.499615 2.410752,-0.628071 0.275408,-0.05224 0.396016,-0.0603 0.707347,-0.04732 0.415417,0.01732 1.429283,0.142198 2.38188,0.293384 0.766175,0.121598 1.019543,0.178219 1.103853,0.246676 l 0.06543,0.05313 -0.0077,1.496494 c -0.0081,1.566318 -0.04308,2.635128 -0.0968,2.95367 -0.03024,0.179307 -0.04114,0.197626 -0.223796,0.376151 -0.196508,0.192058 -2.306176,1.852072 -2.49635,1.964276 -0.172205,0.101604 -0.398334,0.103271 -0.639907,0.0047 z m 0.681956,-0.312805 c 0.354128,-0.250525 1.358355,-1.012126 1.81541,-1.376797 0.537371,-0.428752 0.598921,-0.493547 0.633573,-0.666962 0.06192,-0.309915 0.154976,-1.794696 0.205292,-3.275805 0.02806,-0.82606 0.02665,-0.940151 -0.01209,-0.978893 -0.05115,-0.05115 -0.07672,-0.04286 -1.158797,0.375245 -1.269982,0.490712 -1.8449,0.758627 -1.912296,0.891141 -0.06033,0.118622 -0.03326,2.613007 0.04901,4.516299 0.02534,0.586113 0.04026,0.707347 0.08705,0.707347 0.01213,0 0.143904,-0.08621 0.292842,-0.191575 z m -0.622651,-1.013802 c -0.01218,-0.535923 -0.02681,-1.694557 -0.03252,-2.574744 -0.0081,-1.255585 -0.01836,-1.607633 -0.04745,-1.63421 -0.106289,-0.0971 -3.10159,-0.677511 -3.496415,-0.677511 h -0.135139 l 3.71e-4,0.281495 c 5.78e-4,0.445614 0.107808,1.632044 0.261587,2.894346 0.106753,0.876288 0.163675,1.197828 0.22476,1.269608 0.108101,0.127026 1.297194,0.741581 1.931131,0.998059 0.417345,0.168849 1.151926,0.414027 1.246224,0.415946 l 0.06959,0.0014 z m 0.778946,-4.666157 c 0.521312,-0.175316 1.631211,-0.587253 1.882404,-0.698649 0.123751,-0.05488 0.155359,-0.08002 0.123166,-0.09796 -0.08273,-0.04609 -1.835693,-0.312599 -2.781117,-0.422813 -0.349053,-0.04069 -0.466344,-0.04391 -0.635169,-0.01741 -0.320219,0.05026 -2.598014,0.698144 -2.656719,0.755658 -0.03178,0.03113 0.194652,0.08146 1.179323,0.262104 1.326108,0.243286 2.097867,0.369927 2.267379,0.372065 0.120438,0.0015 0.273269,-0.03615 0.620733,-0.153004 z"
             style="fill:#000000;stroke:#000000;stroke-width:0.229;stroke-miterlimit:4;stroke-dasharray:none;stroke-opacity:1" />
        </g>
        <g
           transform="matrix(0.35279356,0,0,0.35279356,88.645859,22.56444)"
           id="layer1-6-75-2-4-54"
           inkscape:label="Capa 1">
          <path
             sodipodi:nodetypes="cccssssssccscscccccsscscssccscsccscccccsscsssscs"
             inkscape:connector-curvature="0"
             id="path828-35-3-5-7"
             d="m 15.55133,51.922274 c -0.685146,-0.279517 -3.20637,-1.507059 -3.324727,-1.618753 -0.03438,-0.03244 -0.07718,-0.127286 -0.09554,-0.211722 -0.08948,-0.411375 -0.262648,-1.722668 -0.332832,-2.520399 -0.05025,-0.57112 -0.0596,-2.009074 -0.01364,-2.094972 0.04031,-0.07531 0.184184,-0.143729 0.562025,-0.267256 0.722856,-0.236322 1.733468,-0.499615 2.410752,-0.628071 0.275408,-0.05224 0.396016,-0.0603 0.707347,-0.04732 0.415417,0.01732 1.429283,0.142198 2.38188,0.293384 0.766175,0.121598 1.019543,0.178219 1.103853,0.246676 l 0.06543,0.05313 -0.0077,1.496494 c -0.0081,1.566318 -0.04308,2.635128 -0.0968,2.95367 -0.03024,0.179307 -0.04114,0.197626 -0.223796,0.376151 -0.196508,0.192058 -2.306176,1.852072 -2.49635,1.964276 -0.172205,0.101604 -0.398334,0.103271 -0.639907,0.0047 z m 0.681956,-0.312805 c 0.354128,-0.250525 1.358355,-1.012126 1.81541,-1.376797 0.537371,-0.428752 0.598921,-0.493547 0.633573,-0.666962 0.06192,-0.309915 0.154976,-1.794696 0.205292,-3.275805 0.02806,-0.82606 0.02665,-0.940151 -0.01209,-0.978893 -0.05115,-0.05115 -0.07672,-0.04286 -1.158797,0.375245 -1.269982,0.490712 -1.8449,0.758627 -1.912296,0.891141 -0.06033,0.118622 -0.03326,2.613007 0.04901,4.516299 0.02534,0.586113 0.04026,0.707347 0.08705,0.707347 0.01213,0 0.143904,-0.08621 0.292842,-0.191575 z m -0.622651,-1.013802 c -0.01218,-0.535923 -0.02681,-1.694557 -0.03252,-2.574744 -0.0081,-1.255585 -0.01836,-1.607633 -0.04745,-1.63421 -0.106289,-0.0971 -3.10159,-0.677511 -3.496415,-0.677511 h -0.135139 l 3.71e-4,0.281495 c 5.78e-4,0.445614 0.107808,1.632044 0.261587,2.894346 0.106753,0.876288 0.163675,1.197828 0.22476,1.269608 0.108101,0.127026 1.297194,0.741581 1.931131,0.998059 0.417345,0.168849 1.151926,0.414027 1.246224,0.415946 l 0.06959,0.0014 z m 0.778946,-4.666157 c 0.521312,-0.175316 1.631211,-0.587253 1.882404,-0.698649 0.123751,-0.05488 0.155359,-0.08002 0.123166,-0.09796 -0.08273,-0.04609 -1.835693,-0.312599 -2.781117,-0.422813 -0.349053,-0.04069 -0.466344,-0.04391 -0.635169,-0.01741 -0.320219,0.05026 -2.598014,0.698144 -2.656719,0.755658 -0.03178,0.03113 0.194652,0.08146 1.179323,0.262104 1.326108,0.243286 2.097867,0.369927 2.267379,0.372065 0.120438,0.0015 0.273269,-0.03615 0.620733,-0.153004 z"
             style="fill:#000000;stroke:#000000;stroke-width:0.229;stroke-miterlimit:4;stroke-dasharray:none;stroke-opacity:1" />
        </g>
      </g>
      <path
         sodipodi:nodetypes="cc"
         inkscape:connector-curvature="0"
         id="path1090-2-1-5"
         d="m 81.888688,41.675169 h 14"
         style="fill:none;stroke:#000000;stroke-width:0.20910574;stroke-linecap:butt;stroke-linejoin:miter;stroke-miterlimit:4;stroke-dasharray:0.62731723, 0.20910574;stroke-dashoffset:0;stroke-opacity:1" />
      <path
         inkscape:connector-curvature="0"
         id="path1183-2-4"
         d="m 75.677894,38.618195 v 5.58932"
         style="fill:none;stroke:#000000;stroke-width:0.26458332px;stroke-linecap:butt;stroke-linejoin:miter;stroke-opacity:1" />
    </g>
    <g
       id="g931"
       transform="matrix(1.3240563,0,0,1.3240565,-63.334155,-8.5250072)">
      <circle
         r="2.9059739"
         cy="32.709503"
         cx="63.244713"
         id="path1760-3"
         style="opacity:1;vector-effect:none;fill:#ffffff;fill-opacity:1;stroke:#000000;stroke-width:0.31159922;stroke-linecap:butt;stroke-linejoin:miter;stroke-miterlimit:4;stroke-dasharray:none;stroke-dashoffset:0;stroke-opacity:1" />
      <g
         inkscape:export-ydpi="300"
         inkscape:export-xdpi="300"
         inkscape:export-filename="3bullets.png"
         transform="matrix(0.57776063,0,0,0.57776063,39.266143,11.610937)"
         style="stroke:#000000;stroke-opacity:1"
         id="g1314">
        <path
           style="fill:#000000;stroke:#000000;stroke-width:0.01702486;stroke-opacity:1"
           d="m 38.791441,35.598415 c -0.03173,-0.0031 -0.06413,0.0061 -0.0884,0.0281 -0.02927,0.02659 -0.03117,0.07657 -0.03117,0.888129 0,0.776379 0.0026,0.863092 0.0281,0.891196 0.04312,0.04764 0.131989,0.04058 0.174765,-0.0138 0.01186,-0.01512 0.01931,-0.03909 0.02454,-0.08125 l 0.0603,0.06184 0.06285,0.06438 h 1.673546 1.673547 l 0.452751,-0.0077 c 0.542174,-0.0092 0.644723,-0.02758 0.930544,-0.167098 0.250498,-0.122274 0.419839,-0.275879 0.513562,-0.465528 0.05978,-0.120921 0.06388,-0.139766 0.06388,-0.283609 0,-0.13213 -0.0063,-0.168213 -0.04599,-0.252948 -0.09088,-0.193984 -0.361877,-0.42117 -0.647444,-0.542689 -0.241521,-0.102777 -0.362997,-0.111171 -0.749139,-0.11651 -0.191954,-0.0026 -0.385797,-0.0036 -0.430267,-0.0021 l -0.08788,-5.11e-4 H 40.697523 39.02551 l -0.06438,0.06285 -0.06234,0.06082 c -0.0053,-0.04063 -0.0123,-0.0638 -0.02402,-0.0787 -0.02071,-0.02632 -0.05156,-0.04189 -0.08329,-0.04498 z"
           id="path1002-7-2-3"
           inkscape:connector-curvature="0" />
        <path
           style="fill:#000000;stroke:#000000;stroke-width:0.01702486;stroke-opacity:1"
           d="m 38.791441,37.678538 c -0.03173,-0.0031 -0.06413,0.0061 -0.0884,0.0281 -0.02927,0.0266 -0.03117,0.07657 -0.03117,0.88813 0,0.776378 0.0026,0.863092 0.0281,0.891195 0.04312,0.04764 0.131989,0.04058 0.174765,-0.0138 0.01186,-0.01512 0.01931,-0.03909 0.02454,-0.08125 l 0.0603,0.06184 0.06285,0.06438 h 1.673546 1.673547 l 0.452751,-0.0077 c 0.542174,-0.0092 0.644723,-0.02758 0.930544,-0.167098 0.250498,-0.122273 0.419839,-0.275879 0.513562,-0.465528 0.05978,-0.12092 0.06388,-0.139765 0.06388,-0.283608 0,-0.13213 -0.0063,-0.168214 -0.04599,-0.252949 -0.09088,-0.193983 -0.361877,-0.421169 -0.647444,-0.542689 -0.241521,-0.102777 -0.362997,-0.11117 -0.749139,-0.11651 -0.191954,-0.0026 -0.385797,-0.0036 -0.430267,-0.0021 l -0.08788,-5.12e-4 H 40.697523 39.02551 l -0.06438,0.06286 -0.06234,0.06082 c -0.0053,-0.04063 -0.0123,-0.0638 -0.02402,-0.0787 -0.02071,-0.02632 -0.05156,-0.04189 -0.08329,-0.04498 z"
           id="path1002-7-0-7"
           inkscape:connector-curvature="0" />
        <path
           style="fill:#000000;stroke:#000000;stroke-width:0.01702486;stroke-opacity:1"
           d="m 38.79452,33.518312 c -0.03173,-0.0031 -0.06413,0.0061 -0.0884,0.0281 -0.02927,0.02659 -0.03117,0.07657 -0.03117,0.88813 0,0.776378 0.0026,0.863092 0.0281,0.891195 0.04312,0.04764 0.131989,0.04058 0.174765,-0.0138 0.01186,-0.01512 0.01931,-0.03909 0.02454,-0.08125 l 0.0603,0.06184 0.06285,0.06438 h 1.673547 1.673546 l 0.452751,-0.0077 c 0.542175,-0.0092 0.644723,-0.02759 0.930544,-0.167098 0.250498,-0.122274 0.419839,-0.275879 0.513562,-0.465528 0.05978,-0.120921 0.06388,-0.139766 0.06388,-0.283609 0,-0.13213 -0.0063,-0.168213 -0.04599,-0.252948 -0.09088,-0.193984 -0.361877,-0.42117 -0.647444,-0.542689 -0.24152,-0.102777 -0.362996,-0.11117 -0.749139,-0.11651 -0.191954,-0.0026 -0.385797,-0.0036 -0.430267,-0.0021 l -0.08788,-5.11e-4 H 40.700602 39.02859 l -0.06438,0.06286 -0.06234,0.06082 c -0.0053,-0.04063 -0.0123,-0.0638 -0.02402,-0.0787 -0.02071,-0.02632 -0.05156,-0.04189 -0.08329,-0.04498 z"
           id="path1002-7-2-3-5"
           inkscape:connector-curvature="0" />
      </g>
    </g>
    <g
       style="display:inline"
       id="g1033"
       transform="translate(19.247686,66.198426)">
      <rect
         y="-36.617252"
         x="21.17853"
         height="8.2894325"
         width="8.2894325"
         id="rect925-7-3-61-49-09"
         style="display:inline;opacity:1;vector-effect:none;fill:#ffffff;fill-opacity:1;stroke:#000000;stroke-width:0.71056741;stroke-linecap:butt;stroke-linejoin:miter;stroke-miterlimit:4;stroke-dasharray:none;stroke-dashoffset:0;stroke-opacity:1" />
      <rect
         y="-36.617252"
         x="31.46801"
         height="8.2894325"
         width="8.2894325"
         id="rect925-7-3-61-49-0-6"
         style="display:inline;opacity:1;vector-effect:none;fill:#ffffff;fill-opacity:1;stroke:#000000;stroke-width:0.71056741;stroke-linecap:butt;stroke-linejoin:miter;stroke-miterlimit:4;stroke-dasharray:none;stroke-dashoffset:0;stroke-opacity:1" />
      <rect
         y="-36.617252"
         x="41.757488"
         height="8.2894325"
         width="8.2894325"
         id="rect925-7-3-61-49-9-3"
         style="display:inline;opacity:1;vector-effect:none;fill:#ffffff;fill-opacity:1;stroke:#000000;stroke-width:0.71056741;stroke-linecap:butt;stroke-linejoin:miter;stroke-miterlimit:4;stroke-dasharray:none;stroke-dashoffset:0;stroke-opacity:1" />
      <rect
         y="-36.617252"
         x="52.046974"
         height="8.2894325"
         width="8.2894325"
         id="rect925-7-3-61-49-1-8"
         style="display:inline;opacity:1;vector-effect:none;fill:#ffffff;fill-opacity:1;stroke:#000000;stroke-width:0.71056741;stroke-linecap:butt;stroke-linejoin:miter;stroke-miterlimit:4;stroke-dasharray:none;stroke-dashoffset:0;stroke-opacity:1" />
      <rect
         y="-36.617252"
         x="62.336449"
         height="8.2894325"
         width="8.2894325"
         id="rect925-7-3-61-49-7-5"
         style="display:inline;opacity:1;vector-effect:none;fill:#ffffff;fill-opacity:1;stroke:#000000;stroke-width:0.71056741;stroke-linecap:butt;stroke-linejoin:miter;stroke-miterlimit:4;stroke-dasharray:none;stroke-dashoffset:0;stroke-opacity:1" />
    </g>
    <path
       style="fill:#000000;stroke-width:0.100053"
       d="m -10.681627,30.345735 -0.0501,2.8515 c -0.0539,3.0715 -0.0618,3.1179 -0.60719,3.4401 -0.22647,0.13383 -0.6051,0.16175 -2.18953,0.16175 -2.77059,0 -2.80603,-0.0288 -2.80603,-2.29598 0,-1.57334 -0.0192,-1.60687 -0.68162,-1.20303 -0.5641,0.34394 -0.61908,0.62392 -0.61908,3.14554 v 2.25465 h 1.17822 c 1.21613,0 1.62316,0.11418 1.62316,0.45578 0,0.10661 0.13098,0.1447 0.50023,0.1447 h 0.50022 v -0.65526 c 0,-0.56192 0.0353,-0.68948 0.24598,-0.9002 0.26774,-0.26773 0.80794,-0.33121 1.16996,-0.13746 0.27296,0.14608 0.48524,0.68807 0.48524,1.2392 v 0.45372 h 0.60048 0.59996 v 0.37982 c 0,0.20885 0.0545,0.43392 0.12041,0.50023 0.13504,0.1351 0.7637801,0.15957 0.9565301,0.0372 0.0992,-0.0629 0.12014,-1.12538 0.0997,-4.97592 l -0.0258,-4.89634 h -0.5503601 z m -1.3007,0.85059 c -0.24836,0 -0.65008,0.46356 -0.65008,0.74983 v 0.25838 l -0.92553,-0.0289 -0.92553,-0.0289 -0.0315,-0.32349 c -0.0543,-0.5629 -0.63824,-0.80767 -1.01906,-0.42685 -0.1874,0.1874 -0.19999,0.33344 -0.19999,2.30115 0,1.9677 0.0126,2.11375 0.19999,2.30115 v 5.29e-4 c 0.39019,0.39019 1.00046,0.13631 1.00046,-0.416 v -0.28473 h 0.93948 0.93947 l 0.0667,0.35501 c 0.11465,0.61116 0.94722,0.7447 1.15962,0.18604 0.0531,-0.13962 0.0966,-1.13099 0.0966,-2.20297 0,-1.93597 -0.002,-1.95075 -0.24546,-2.19469 -0.13507,-0.135079 -0.31755,-0.245479 -0.40515,-0.245479 z m -2.55126,1.60122 h 0.95033 0.95085 v 0.30024 0.29972 h -0.95085 -0.95033 v -0.29972 z m 1.90118,1.19321 v 0.35398 0.35398 h -0.90383 c -0.9443,0 -1.05908,-0.0553 -0.97978,-0.46973 0.0299,-0.15641 0.16006,-0.18491 0.95911,-0.20981 z"
       id="path978"
       inkscape:connector-curvature="0"
       sodipodi:nodetypes="cccsscscssscsccscccscccccccsccccssccscccccscccccccccccccccsccc" />
    <path
       inkscape:export-ydpi="300"
       inkscape:export-xdpi="300"
       inkscape:export-filename="1flame.png"
       sodipodi:nodetypes="ccccsccccscccccscscccsccccccc"
       inkscape:connector-curvature="0"
       id="path826-3-6"
       d="m -25.038118,48.958131 c -0.74036,-0.42454 -1.16313,-1.30599 -1.029019,-2.14547 0.0723,-0.45236 0.205399,-0.75728 0.51281,-1.17452 0.855259,-1.16082 1.01121,-1.47811 1.05736,-2.15132 0.0145,-0.21106 0.0365,-0.38375 0.049,-0.38375 0.0124,0 0.167669,0.10751 0.34492,0.23891 0.70314,0.52126 1.097969,1.22932 1.190169,2.13433 l 0.0354,0.34789 0.128,-0.13562 c 0.0704,-0.0746 0.15533,-0.22937 0.18875,-0.34397 l 0.0608,-0.20837 0.190961,0.39085 c 0.22784,0.46637 0.37001,0.95442 0.40995,1.40733 0.0722,0.81861 -0.34268,1.61611 -1.05246,2.0231 -0.28459,0.16319 -0.39255,0.19094 -0.222541,0.0572 0.173551,-0.13653 0.368751,-0.53511 0.397241,-0.81118 0.0384,-0.37175 -0.0755,-0.6917 -0.409021,-1.14935 -0.334519,-0.45901 -0.487779,-0.77035 -0.53289,-1.08258 l -0.0324,-0.22468 -0.18305,0.17817 c -0.34858,0.3393 -0.59597,1.08145 -0.53423,1.6027 0.0148,0.1247 0.009,0.22675 -0.0126,0.22675 -0.089,0 -0.32551,-0.33503 -0.3523,-0.49904 -0.0158,-0.0965 -0.0345,-0.20683 -0.0417,-0.2452 -0.0169,-0.0902 -0.24643,0.40925 -0.30533,0.66445 -0.10999,0.4766 -0.0184,0.91088 0.26098,1.23724 0.0901,0.10532 0.15703,0.19129 0.14864,0.19105 -0.008,-1.8e-4 -0.12865,-0.0654 -0.26725,-0.14494 z"
       style="fill:#000000;stroke:#000000;stroke-width:0.3;stroke-miterlimit:4;stroke-dasharray:none;stroke-opacity:1" />
    <circle
       style="vector-effect:none;fill:#000000;fill-opacity:1;stroke:none;stroke-width:0.292091;stroke-linecap:butt;stroke-linejoin:miter;stroke-miterlimit:4;stroke-dasharray:0.876273, 0.292091;stroke-dashoffset:0;stroke-opacity:1"
       id="path3810-75"
       cx="-18.713963"
       cy="46.190102"
       r="1.6063988" />
    <circle
       style="vector-effect:none;fill:#000000;fill-opacity:1;stroke:none;stroke-width:0.292091;stroke-linecap:butt;stroke-linejoin:miter;stroke-miterlimit:4;stroke-dasharray:0.876273, 0.292091;stroke-dashoffset:0;stroke-opacity:1"
       id="path3810-8-3"
       cx="-13.573278"
       cy="46.190102"
       r="1.6063988" />
    <circle
       style="vector-effect:none;fill:#000000;fill-opacity:1;stroke:none;stroke-width:0.292091;stroke-linecap:butt;stroke-linejoin:miter;stroke-miterlimit:4;stroke-dasharray:0.876273, 0.292091;stroke-dashoffset:0;stroke-opacity:1"
       id="path3810-89-5"
       cx="-8.4325962"
       cy="46.190102"
       r="1.6063988" />
    <circle
       style="vector-effect:none;fill:#000000;fill-opacity:1;stroke:none;stroke-width:0.292091;stroke-linecap:butt;stroke-linejoin:miter;stroke-miterlimit:4;stroke-dasharray:0.876273, 0.292091;stroke-dashoffset:0;stroke-opacity:1"
       id="path3810-7-6"
       cx="-3.2919123"
       cy="46.190102"
       r="1.6063988" />
    <circle
       style="vector-effect:none;fill:#000000;fill-opacity:1;stroke:none;stroke-width:0.292091;stroke-linecap:butt;stroke-linejoin:miter;stroke-miterlimit:4;stroke-dasharray:0.876273, 0.292091;stroke-dashoffset:0;stroke-opacity:1"
       id="path3810-76-2"
       cx="1.8487704"
       cy="46.190102"
       r="1.6063988" />
    <circle
       style="display:inline;vector-effect:none;fill:#000000;fill-opacity:1;stroke:none;stroke-width:0.292091;stroke-linecap:butt;stroke-linejoin:miter;stroke-miterlimit:4;stroke-dasharray:0.876273, 0.292091;stroke-dashoffset:0;stroke-opacity:1"
       id="path3810-76-2-6"
       cx="6.9894552"
       cy="46.190102"
       r="1.6063988" />
    <circle
       style="display:inline;vector-effect:none;fill:#000000;fill-opacity:1;stroke:none;stroke-width:0.292091;stroke-linecap:butt;stroke-linejoin:miter;stroke-miterlimit:4;stroke-dasharray:0.876273, 0.292091;stroke-dashoffset:0;stroke-opacity:1"
       id="path3810-76-2-6-6"
       cx="12.130136"
       cy="46.190102"
       r="1.6063988" />
    <g
       id="g16087"
       transform="matrix(1,0,0,1.1946948,-5.1905989,17.114931)">
      <path
         style="fill:#000000;stroke-width:0.075635"
         d="m 6.8056159,11.974919 c -0.3543106,0.0053 -0.6634456,0.02566 -0.6870726,0.04534 -0.041457,0.03451 -0.046574,6.413061 -0.00533,6.566946 0.011158,0.0417 0.087866,0.07132 0.170433,0.06637 0.082573,-0.005 0.3637338,-0.0066 0.6250939,-0.0034 0.2613627,0.0032 0.4972118,-0.03813 0.5241212,-0.09134 0.040266,-0.07959 0.066107,-6.165934 0.028316,-6.494004 -0.00817,-0.07151 -0.3717636,-0.0988 -0.6555516,-0.09003 z"
         id="path948-3"
         inkscape:connector-curvature="0"
         sodipodi:nodetypes="ccccccccc" />
      <g
         id="g968"
         transform="matrix(1.2396487,0,0,1.5246687,-6.9193006,-39.048963)">
        <path
           sodipodi:nodetypes="cccccsccc"
           inkscape:connector-curvature="0"
           id="path948-6-7"
           d="m 9.2778569,36.338232 c -1.8354061,0.0024 -5.4942551,0.025 -5.5187711,0.03921 -0.03684,0.671397 -0.02339,0.349287 -0.02237,1.071033 l 0.371511,4.5e-4 c 0.204174,2.43e-4 1.676857,-0.0058 3.272904,-0.01336 2.4843021,-0.01161 2.9157512,-0.02293 2.9157512,-0.02293 0.02054,-0.106837 0.02673,-1.04796 0.0064,-1.069219 -0.0045,-0.0047 -0.4135131,-0.006 -1.0253141,-0.0052 z"
           style="fill:#000000;stroke-width:0.0550156" />
        <path
           sodipodi:nodetypes="cccccsccc"
           inkscape:connector-curvature="0"
           id="path948-6-7-3"
           d="m 9.2778568,35.100156 c -1.835406,0.0024 -5.494255,0.025 -5.518771,0.03921 -0.03684,0.671397 -0.02339,0.349287 -0.02237,1.071033 l 0.371511,4.5e-4 c 0.204174,2.43e-4 1.676857,-0.0058 3.272904,-0.01336 2.484302,-0.01161 2.9157502,-0.02293 2.9157502,-0.02293 0.02054,-0.106837 0.02673,-1.04796 0.0064,-1.069219 -0.0045,-0.0047 -0.4135122,-0.006 -1.0253132,-0.0052 z"
           style="fill:#000000;stroke-width:0.0550156" />
        <path
           sodipodi:nodetypes="cccccsccc"
           inkscape:connector-curvature="0"
           id="path948-6-7-5"
           d="m 9.2778568,33.862079 c -1.835406,0.0024 -5.494255,0.025 -5.518771,0.03921 -0.03684,0.671397 -0.02339,0.349287 -0.02237,1.071033 l 0.371511,4.5e-4 c 0.204174,2.43e-4 1.676857,-0.0058 3.272904,-0.01336 2.484302,-0.01161 2.9157512,-0.02293 2.9157512,-0.02293 0.02054,-0.106837 0.02673,-1.04796 0.0064,-1.069219 -0.0045,-0.0047 -0.4135132,-0.006 -1.0253142,-0.0052 z"
           style="fill:#000000;stroke-width:0.0550156" />
      </g>
      <path
         style="fill:#000000;stroke-width:0.075635"
         d="m 7.658185,12.604539 c 0.00608,0.374301 0.00954,0.89364 0.00892,1.64276 0.070723,-0.0015 0.7834613,-0.0079 0.7834613,-0.0079 0.025449,-0.16289 0.033533,-1.597739 0.00833,-1.630153 -0.0035,-0.0046 -0.4616959,-0.0038 -0.800756,-0.0047 z m 0.00833,1.887794 c -0.001,0.57299 -0.00258,1.068576 -0.00642,1.642761 0.072182,-0.0015 0.790507,-0.0079 0.790507,-0.0079 0.025449,-0.162891 0.033533,-1.59774 0.00833,-1.630153 -0.0035,-0.0044 -0.4597117,-0.0038 -0.7924287,-0.0047 z m -0.00833,1.887796 c -0.00542,0.74356 -0.012275,1.261765 -0.02115,1.642759 0.077107,-0.0015 0.8135665,-0.0079 0.8135665,-0.0079 0.025449,-0.162891 0.033533,-1.597741 0.00833,-1.630155 -0.0035,-0.0046 -0.461695,-0.0038 -0.8007543,-0.0048 z"
         id="path948-6-7-2"
         inkscape:connector-curvature="0"
         sodipodi:nodetypes="ccccccccccccccc" />
      <path
         style="display:inline;fill:#000000;stroke-width:0.075635"
         d="m -3.21736,11.974925 c -0.3543107,0.0053 -0.6634456,0.02566 -0.6870726,0.04534 -0.041457,0.03452 -0.046574,6.413062 -0.00533,6.566947 0.011158,0.0417 0.087866,0.07132 0.1704329,0.06637 0.082573,-0.005 0.3637338,-0.0066 0.625094,-0.0034 0.2613627,0.0032 0.4972117,-0.03813 0.5241211,-0.09134 0.040266,-0.07959 0.066107,-6.165935 0.028316,-6.494005 -0.00817,-0.07151 -0.3717636,-0.0988 -0.6555516,-0.09003 z"
         id="path948-3-0"
         inkscape:connector-curvature="0"
         sodipodi:nodetypes="ccccccccc" />
    </g>
    <path
       style="display:inline;fill:#000000;stroke-width:0.100053"
       d="m 4.7609256,32.282321 c -0.6645,-0.003 -1.3312189,-0.004 -1.3430699,0.003 -0.013,0.007 -0.0156,0.21788 -0.015,1.28416 1e-4,0.24596 0.0108,0.44972 0.0233,0.45372 0.0309,0.009 2.63566,0.0193 2.653061,0.0103 0.012,-0.007 0.0235,-1.70597 0.0114,-1.73477 -0.003,-0.006 -0.66514,-0.0127 -1.329631,-0.016 z"
       id="path978-5"
       inkscape:connector-curvature="0"
       sodipodi:nodetypes="cccccccc" />
    <path
       style="display:inline;fill:#000000;stroke-width:0.100053"
       d="m 4.7609256,34.545108 c -0.6645,-0.003 -1.3312189,-0.004 -1.3430699,0.003 -0.013,0.007 -0.0156,0.21788 -0.015,1.28416 1e-4,0.24596 0.0108,0.44972 0.0233,0.45372 0.0309,0.009 2.63566,0.0193 2.653061,0.0103 0.012,-0.007 0.0235,-1.70597 0.0114,-1.73477 -0.003,-0.006 -0.66514,-0.0127 -1.329631,-0.016 z"
       id="path978-5-3"
       inkscape:connector-curvature="0"
       sodipodi:nodetypes="cccccccc" />
    <path
       style="display:inline;fill:#000000;stroke-width:0.100053"
       d="m 4.7609256,36.791567 c -0.6645,-0.003 -1.3312189,-0.004 -1.3430699,0.003 -0.013,0.007 -0.0156,0.21788 -0.015,1.28416 1e-4,0.24596 0.0108,0.44972 0.0233,0.45372 0.0309,0.009 2.63566,0.0193 2.653061,0.0103 0.012,-0.007 0.0235,-1.70597 0.0114,-1.73477 -0.003,-0.006 -0.66514,-0.0127 -1.329631,-0.016 z"
       id="path978-5-5"
       inkscape:connector-curvature="0"
       sodipodi:nodetypes="cccccccc" />
    <text
       xml:space="preserve"
       style="font-style:normal;font-weight:normal;font-size:118.341px;line-height:1.25;font-family:sans-serif;letter-spacing:0px;word-spacing:0px;display:inline;fill:#000000;fill-opacity:1;stroke:none;stroke-width:0.197236"
       x="27.6558"
       y="36.315884"
       id="text872"><tspan
         sodipodi:role="line"
         id="tspan870"
         x="27.6558"
         y="36.315884"
         style="font-size:4.2077px;stroke-width:0.197236">x3</tspan></text>
  </g>
</svg>
