<?xml version="1.0" encoding="UTF-8" standalone="no"?>
<!-- Created with Inkscape (http://www.inkscape.org/) -->

<svg
   xmlns:dc="http://purl.org/dc/elements/1.1/"
   xmlns:cc="http://creativecommons.org/ns#"
   xmlns:rdf="http://www.w3.org/1999/02/22-rdf-syntax-ns#"
   xmlns:svg="http://www.w3.org/2000/svg"
   xmlns="http://www.w3.org/2000/svg"
   xmlns:sodipodi="http://sodipodi.sourceforge.net/DTD/sodipodi-0.dtd"
   xmlns:inkscape="http://www.inkscape.org/namespaces/inkscape"
   width="120mm"
   height="23.016712mm"
   viewBox="0 0 120 23.016712"
   version="1.1"
   id="svg1100"
   inkscape:version="0.92.5 (2060ec1f9f, 2020-04-08)"
   sodipodi:docname="LargeSplinterCannon.svg">
  <defs
     id="defs1094" />
  <sodipodi:namedview
     id="base"
     pagecolor="#ffffff"
     bordercolor="#666666"
     borderopacity="1.0"
     inkscape:pageopacity="0.0"
     inkscape:pageshadow="2"
     inkscape:zoom="1.4142136"
     inkscape:cx="187.10787"
     inkscape:cy="-59.366622"
     inkscape:document-units="mm"
     inkscape:current-layer="layer1"
     showgrid="false"
     inkscape:window-width="1848"
     inkscape:window-height="1016"
     inkscape:window-x="72"
     inkscape:window-y="1107"
     inkscape:window-maximized="1"
     fit-margin-top="0"
     fit-margin-left="0"
     fit-margin-right="0"
     fit-margin-bottom="0"
     inkscape:snap-global="false"
     inkscape:snap-bbox="true" />
  <metadata
     id="metadata1097">
    <rdf:RDF>
      <cc:Work
         rdf:about="">
        <dc:format>image/svg+xml</dc:format>
        <dc:type
           rdf:resource="http://purl.org/dc/dcmitype/StillImage" />
        <dc:title></dc:title>
      </cc:Work>
    </rdf:RDF>
  </metadata>
  <g
     inkscape:groupmode="layer"
     id="layer3"
     inkscape:label="Background"
     style="display:inline"
     sodipodi:insensitive="true" />
  <g
     inkscape:groupmode="layer"
     id="layer2"
     inkscape:label="Guias"
     style="display:none"
     transform="translate(0,0.2323513)">
    <g
       id="g1399"
       transform="translate(-6.7978492)">
      <rect
         y="11.402682"
         x="50.431446"
         height="11"
         width="74.99527"
         id="rect1878-3"
         style="display:inline;opacity:1;vector-effect:none;fill:#ffe680;fill-opacity:1;stroke:none;stroke-width:0.47467926;stroke-linecap:butt;stroke-linejoin:miter;stroke-miterlimit:4;stroke-dasharray:none;stroke-dashoffset:0;stroke-opacity:1" />
      <rect
         y="0.30218902"
         x="8.1689825"
         height="22.148087"
         width="42.262463"
         id="rect1868"
         style="display:inline;opacity:1;vector-effect:none;fill:#decd87;fill-opacity:1;stroke:none;stroke-width:0.39467782;stroke-linecap:butt;stroke-linejoin:miter;stroke-miterlimit:4;stroke-dasharray:none;stroke-dashoffset:0;stroke-opacity:1" />
      <rect
         y="0.39782956"
         x="50.431446"
         height="11"
         width="74.99527"
         id="rect1878"
         style="display:inline;opacity:1;vector-effect:none;fill:#deaa87;fill-opacity:1;stroke:none;stroke-width:0.47467929;stroke-linecap:butt;stroke-linejoin:miter;stroke-miterlimit:4;stroke-dasharray:none;stroke-dashoffset:0;stroke-opacity:1" />
      <rect
         y="12.891373"
         x="76.863533"
         height="8.0226164"
         width="22"
         id="rect1878-7-3"
         style="display:inline;opacity:1;vector-effect:none;fill:#eeffaa;fill-opacity:1;stroke:none;stroke-width:0.19344766;stroke-linecap:butt;stroke-linejoin:miter;stroke-miterlimit:4;stroke-dasharray:none;stroke-dashoffset:0;stroke-opacity:1" />
      <rect
         y="12.891415"
         x="103.2956"
         height="8.0226164"
         width="22"
         id="rect1878-7-56"
         style="display:inline;opacity:1;vector-effect:none;fill:#ccffaa;fill-opacity:1;stroke:none;stroke-width:0.21753596;stroke-linecap:butt;stroke-linejoin:miter;stroke-miterlimit:4;stroke-dasharray:none;stroke-dashoffset:0;stroke-opacity:1" />
      <rect
         y="12.680782"
         x="50.431446"
         height="8.443799"
         width="22"
         id="rect1878-7"
         style="display:inline;opacity:1;vector-effect:none;fill:#ff9955;fill-opacity:1;stroke:none;stroke-width:0.22317314;stroke-linecap:butt;stroke-linejoin:miter;stroke-miterlimit:4;stroke-dasharray:none;stroke-dashoffset:0;stroke-opacity:1" />
      <rect
         y="13.158642"
         x="77.363533"
         height="7.4880772"
         width="21"
         id="rect1878-7-2-7"
         style="display:inline;opacity:1;vector-effect:none;fill:#ddff55;fill-opacity:1;stroke:none;stroke-width:0.20533194;stroke-linecap:butt;stroke-linejoin:miter;stroke-miterlimit:4;stroke-dasharray:none;stroke-dashoffset:0;stroke-opacity:1" />
      <rect
         y="13.158684"
         x="103.7956"
         height="7.4880772"
         width="21"
         id="rect1878-7-2-7-0"
         style="display:inline;opacity:1;vector-effect:none;fill:#66ff00;fill-opacity:1;stroke:none;stroke-width:0.20533194;stroke-linecap:butt;stroke-linejoin:miter;stroke-miterlimit:4;stroke-dasharray:none;stroke-dashoffset:0;stroke-opacity:1" />
      <rect
         y="13.158642"
         x="50.931446"
         height="7.4880772"
         width="21"
         id="rect1878-7-2"
         style="display:inline;opacity:1;vector-effect:none;fill:#d45500;fill-opacity:1;stroke:none;stroke-width:0.20533194;stroke-linecap:butt;stroke-linejoin:miter;stroke-miterlimit:4;stroke-dasharray:none;stroke-dashoffset:0;stroke-opacity:1" />
    </g>
  </g>
  <g
     inkscape:label="Capa 1"
     inkscape:groupmode="layer"
     id="layer1"
     transform="translate(28.060163,-27.595709)"
     style="display:inline">
    <g
       transform="matrix(0.35279357,0,0,0.35279357,27.66483,22.56444)"
       id="layer1-6-3-2"
       inkscape:label="Capa 1" />
    <rect
       style="display:inline;opacity:1;fill:#ffffff;fill-opacity:1;stroke:none;stroke-width:0.71100003;stroke-miterlimit:4;stroke-dasharray:none;stroke-dashoffset:0;stroke-opacity:1"
       id="rect1126"
       width="119.99902"
       height="23.017704"
       x="-28.060163"
       y="27.595709" />
    <g
       style="display:inline"
       id="g9128"
       transform="translate(-107.62953,-199.34653)">
      <path
         inkscape:connector-curvature="0"
         id="path9084"
         d="M 83.843672,227.37459 H 195.29507"
         style="fill:none;stroke:#000000;stroke-width:0.40000001;stroke-linecap:butt;stroke-linejoin:miter;stroke-miterlimit:4;stroke-dasharray:none;stroke-opacity:1" />
      <path
         inkscape:connector-curvature="0"
         id="path9084-3"
         d="M 83.843669,249.75895 H 195.29507"
         style="fill:none;stroke:#000000;stroke-width:0.40000001;stroke-linecap:butt;stroke-linejoin:miter;stroke-miterlimit:4;stroke-dasharray:none;stroke-opacity:1" />
    </g>
    <g
       transform="translate(-9.2270473,4.8825639)"
       id="g950">
      <path
         inkscape:connector-curvature="0"
         id="path1183-9"
         d="m 49.256287,38.434447 v 5.58932"
         style="fill:none;stroke:#000000;stroke-width:0.26458332px;stroke-linecap:butt;stroke-linejoin:miter;stroke-opacity:1" />
      <text
         id="text1088-4"
         y="42.628105"
         x="25.29821"
         style="font-style:normal;font-weight:normal;font-size:132.3289032px;line-height:1.25;font-family:sans-serif;letter-spacing:0px;word-spacing:0px;fill:#000000;fill-opacity:1;stroke:none;stroke-width:0.22054817"
         xml:space="preserve"><tspan
           style="font-size:2.64657807px;stroke-width:0.22054817"
           y="42.628105"
           x="25.29821"
           id="tspan1086-7"
           sodipodi:role="line">1</tspan></text>
      <path
         sodipodi:nodetypes="cc"
         inkscape:connector-curvature="0"
         id="path1090-8"
         d="m 29.045493,41.675169 h 14"
         style="fill:none;stroke:#000000;stroke-width:0.2093017px;stroke-linecap:butt;stroke-linejoin:miter;stroke-opacity:1" />
      <text
         id="text1088-0-4"
         y="42.645546"
         x="43.432911"
         style="font-style:normal;font-weight:normal;font-size:132.3289032px;line-height:1.25;font-family:sans-serif;letter-spacing:0px;word-spacing:0px;fill:#000000;fill-opacity:1;stroke:none;stroke-width:0.22054817"
         xml:space="preserve"><tspan
           style="font-size:2.64657807px;stroke-width:0.22054817"
           y="42.645546"
           x="43.432911"
           id="tspan1086-9-5"
           sodipodi:role="line">15</tspan></text>
      <g
         transform="translate(-2.9527483)"
         id="g965">
        <g
           transform="matrix(0.35279357,0,0,0.35279357,30.6176,22.56444)"
           id="layer1-6-75-2"
           inkscape:label="Capa 1">
          <path
             sodipodi:nodetypes="cccssssssccscscccccsscscssccscsccscccccsscsssscs"
             inkscape:connector-curvature="0"
             id="path828-35-3"
             d="m 15.55133,51.922274 c -0.685146,-0.279517 -3.20637,-1.507059 -3.324727,-1.618753 -0.03438,-0.03244 -0.07718,-0.127286 -0.09554,-0.211722 -0.08948,-0.411375 -0.262648,-1.722668 -0.332832,-2.520399 -0.05025,-0.57112 -0.0596,-2.009074 -0.01364,-2.094972 0.04031,-0.07531 0.184184,-0.143729 0.562025,-0.267256 0.722856,-0.236322 1.733468,-0.499615 2.410752,-0.628071 0.275408,-0.05224 0.396016,-0.0603 0.707347,-0.04732 0.415417,0.01732 1.429283,0.142198 2.38188,0.293384 0.766175,0.121598 1.019543,0.178219 1.103853,0.246676 l 0.06543,0.05313 -0.0077,1.496494 c -0.0081,1.566318 -0.04308,2.635128 -0.0968,2.95367 -0.03024,0.179307 -0.04114,0.197626 -0.223796,0.376151 -0.196508,0.192058 -2.306176,1.852072 -2.49635,1.964276 -0.172205,0.101604 -0.398334,0.103271 -0.639907,0.0047 z m 0.681956,-0.312805 c 0.354128,-0.250525 1.358355,-1.012126 1.81541,-1.376797 0.537371,-0.428752 0.598921,-0.493547 0.633573,-0.666962 0.06192,-0.309915 0.154976,-1.794696 0.205292,-3.275805 0.02806,-0.82606 0.02665,-0.940151 -0.01209,-0.978893 -0.05115,-0.05115 -0.07672,-0.04286 -1.158797,0.375245 -1.269982,0.490712 -1.8449,0.758627 -1.912296,0.891141 -0.06033,0.118622 -0.03326,2.613007 0.04901,4.516299 0.02534,0.586113 0.04026,0.707347 0.08705,0.707347 0.01213,0 0.143904,-0.08621 0.292842,-0.191575 z m -0.622651,-1.013802 c -0.01218,-0.535923 -0.02681,-1.694557 -0.03252,-2.574744 -0.0081,-1.255585 -0.01836,-1.607633 -0.04745,-1.63421 -0.106289,-0.0971 -3.10159,-0.677511 -3.496415,-0.677511 h -0.135139 l 3.71e-4,0.281495 c 5.78e-4,0.445614 0.107808,1.632044 0.261587,2.894346 0.106753,0.876288 0.163675,1.197828 0.22476,1.269608 0.108101,0.127026 1.297194,0.741581 1.931131,0.998059 0.417345,0.168849 1.151926,0.414027 1.246224,0.415946 l 0.06959,0.0014 z m 0.778946,-4.666157 c 0.521312,-0.175316 1.631211,-0.587253 1.882404,-0.698649 0.123751,-0.05488 0.155359,-0.08002 0.123166,-0.09796 -0.08273,-0.04609 -1.835693,-0.312599 -2.781117,-0.422813 -0.349053,-0.04069 -0.466344,-0.04391 -0.635169,-0.01741 -0.320219,0.05026 -2.598014,0.698144 -2.656719,0.755658 -0.03178,0.03113 0.194652,0.08146 1.179323,0.262104 1.326108,0.243286 2.097867,0.369927 2.267379,0.372065 0.120438,0.0015 0.273269,-0.03615 0.620733,-0.153004 z"
             style="fill:#000000;stroke:#000000;stroke-width:0.229;stroke-miterlimit:4;stroke-dasharray:none;stroke-opacity:1" />
        </g>
        <g
           transform="matrix(0.35279356,0,0,0.35279356,33.57034,22.56444)"
           id="layer1-6-75-2-4-03"
           inkscape:label="Capa 1">
          <path
             sodipodi:nodetypes="cccssssssccscscccccsscscssccscsccscccccsscsssscs"
             inkscape:connector-curvature="0"
             id="path828-35-3-5-6"
             d="m 15.55133,51.922274 c -0.685146,-0.279517 -3.20637,-1.507059 -3.324727,-1.618753 -0.03438,-0.03244 -0.07718,-0.127286 -0.09554,-0.211722 -0.08948,-0.411375 -0.262648,-1.722668 -0.332832,-2.520399 -0.05025,-0.57112 -0.0596,-2.009074 -0.01364,-2.094972 0.04031,-0.07531 0.184184,-0.143729 0.562025,-0.267256 0.722856,-0.236322 1.733468,-0.499615 2.410752,-0.628071 0.275408,-0.05224 0.396016,-0.0603 0.707347,-0.04732 0.415417,0.01732 1.429283,0.142198 2.38188,0.293384 0.766175,0.121598 1.019543,0.178219 1.103853,0.246676 l 0.06543,0.05313 -0.0077,1.496494 c -0.0081,1.566318 -0.04308,2.635128 -0.0968,2.95367 -0.03024,0.179307 -0.04114,0.197626 -0.223796,0.376151 -0.196508,0.192058 -2.306176,1.852072 -2.49635,1.964276 -0.172205,0.101604 -0.398334,0.103271 -0.639907,0.0047 z m 0.681956,-0.312805 c 0.354128,-0.250525 1.358355,-1.012126 1.81541,-1.376797 0.537371,-0.428752 0.598921,-0.493547 0.633573,-0.666962 0.06192,-0.309915 0.154976,-1.794696 0.205292,-3.275805 0.02806,-0.82606 0.02665,-0.940151 -0.01209,-0.978893 -0.05115,-0.05115 -0.07672,-0.04286 -1.158797,0.375245 -1.269982,0.490712 -1.8449,0.758627 -1.912296,0.891141 -0.06033,0.118622 -0.03326,2.613007 0.04901,4.516299 0.02534,0.586113 0.04026,0.707347 0.08705,0.707347 0.01213,0 0.143904,-0.08621 0.292842,-0.191575 z m -0.622651,-1.013802 c -0.01218,-0.535923 -0.02681,-1.694557 -0.03252,-2.574744 -0.0081,-1.255585 -0.01836,-1.607633 -0.04745,-1.63421 -0.106289,-0.0971 -3.10159,-0.677511 -3.496415,-0.677511 h -0.135139 l 3.71e-4,0.281495 c 5.78e-4,0.445614 0.107808,1.632044 0.261587,2.894346 0.106753,0.876288 0.163675,1.197828 0.22476,1.269608 0.108101,0.127026 1.297194,0.741581 1.931131,0.998059 0.417345,0.168849 1.151926,0.414027 1.246224,0.415946 l 0.06959,0.0014 z m 0.778946,-4.666157 c 0.521312,-0.175316 1.631211,-0.587253 1.882404,-0.698649 0.123751,-0.05488 0.155359,-0.08002 0.123166,-0.09796 -0.08273,-0.04609 -1.835693,-0.312599 -2.781117,-0.422813 -0.349053,-0.04069 -0.466344,-0.04391 -0.635169,-0.01741 -0.320219,0.05026 -2.598014,0.698144 -2.656719,0.755658 -0.03178,0.03113 0.194652,0.08146 1.179323,0.262104 1.326108,0.243286 2.097867,0.369927 2.267379,0.372065 0.120438,0.0015 0.273269,-0.03615 0.620733,-0.153004 z"
             style="fill:#000000;stroke:#000000;stroke-width:0.229;stroke-miterlimit:4;stroke-dasharray:none;stroke-opacity:1" />
        </g>
        <g
           transform="matrix(0.35279356,0,0,0.35279356,36.52308,22.56444)"
           id="layer1-6-75-2-4-0"
           inkscape:label="Capa 1">
          <path
             sodipodi:nodetypes="cccssssssccscscccccsscscssccscsccscccccsscsssscs"
             inkscape:connector-curvature="0"
             id="path828-35-3-5-3"
             d="m 15.55133,51.922274 c -0.685146,-0.279517 -3.20637,-1.507059 -3.324727,-1.618753 -0.03438,-0.03244 -0.07718,-0.127286 -0.09554,-0.211722 -0.08948,-0.411375 -0.262648,-1.722668 -0.332832,-2.520399 -0.05025,-0.57112 -0.0596,-2.009074 -0.01364,-2.094972 0.04031,-0.07531 0.184184,-0.143729 0.562025,-0.267256 0.722856,-0.236322 1.733468,-0.499615 2.410752,-0.628071 0.275408,-0.05224 0.396016,-0.0603 0.707347,-0.04732 0.415417,0.01732 1.429283,0.142198 2.38188,0.293384 0.766175,0.121598 1.019543,0.178219 1.103853,0.246676 l 0.06543,0.05313 -0.0077,1.496494 c -0.0081,1.566318 -0.04308,2.635128 -0.0968,2.95367 -0.03024,0.179307 -0.04114,0.197626 -0.223796,0.376151 -0.196508,0.192058 -2.306176,1.852072 -2.49635,1.964276 -0.172205,0.101604 -0.398334,0.103271 -0.639907,0.0047 z m 0.681956,-0.312805 c 0.354128,-0.250525 1.358355,-1.012126 1.81541,-1.376797 0.537371,-0.428752 0.598921,-0.493547 0.633573,-0.666962 0.06192,-0.309915 0.154976,-1.794696 0.205292,-3.275805 0.02806,-0.82606 0.02665,-0.940151 -0.01209,-0.978893 -0.05115,-0.05115 -0.07672,-0.04286 -1.158797,0.375245 -1.269982,0.490712 -1.8449,0.758627 -1.912296,0.891141 -0.06033,0.118622 -0.03326,2.613007 0.04901,4.516299 0.02534,0.586113 0.04026,0.707347 0.08705,0.707347 0.01213,0 0.143904,-0.08621 0.292842,-0.191575 z m -0.622651,-1.013802 c -0.01218,-0.535923 -0.02681,-1.694557 -0.03252,-2.574744 -0.0081,-1.255585 -0.01836,-1.607633 -0.04745,-1.63421 -0.106289,-0.0971 -3.10159,-0.677511 -3.496415,-0.677511 h -0.135139 l 3.71e-4,0.281495 c 5.78e-4,0.445614 0.107808,1.632044 0.261587,2.894346 0.106753,0.876288 0.163675,1.197828 0.22476,1.269608 0.108101,0.127026 1.297194,0.741581 1.931131,0.998059 0.417345,0.168849 1.151926,0.414027 1.246224,0.415946 l 0.06959,0.0014 z m 0.778946,-4.666157 c 0.521312,-0.175316 1.631211,-0.587253 1.882404,-0.698649 0.123751,-0.05488 0.155359,-0.08002 0.123166,-0.09796 -0.08273,-0.04609 -1.835693,-0.312599 -2.781117,-0.422813 -0.349053,-0.04069 -0.466344,-0.04391 -0.635169,-0.01741 -0.320219,0.05026 -2.598014,0.698144 -2.656719,0.755658 -0.03178,0.03113 0.194652,0.08146 1.179323,0.262104 1.326108,0.243286 2.097867,0.369927 2.267379,0.372065 0.120438,0.0015 0.273269,-0.03615 0.620733,-0.153004 z"
             style="fill:#000000;stroke:#000000;stroke-width:0.229;stroke-miterlimit:4;stroke-dasharray:none;stroke-opacity:1" />
        </g>
      </g>
      <text
         id="text1088-1-1"
         y="42.645546"
         x="51.759151"
         style="font-style:normal;font-weight:normal;font-size:132.3289032px;line-height:1.25;font-family:sans-serif;letter-spacing:0px;word-spacing:0px;fill:#000000;fill-opacity:1;stroke:none;stroke-width:0.22054817"
         xml:space="preserve"><tspan
           style="font-size:2.64657807px;stroke-width:0.22054817"
           y="42.645546"
           x="51.759151"
           id="tspan1086-8-0"
           sodipodi:role="line">15</tspan></text>
      <text
         id="text1088-0-9-6"
         y="42.626808"
         x="69.749573"
         style="font-style:normal;font-weight:normal;font-size:132.3289032px;line-height:1.25;font-family:sans-serif;letter-spacing:0px;word-spacing:0px;fill:#000000;fill-opacity:1;stroke:none;stroke-width:0.22054817"
         xml:space="preserve"><tspan
           style="font-size:2.64657807px;stroke-width:0.22054817"
           y="42.626808"
           x="69.749573"
           id="tspan1086-9-2-3"
           sodipodi:role="line">30</tspan></text>
      <g
         transform="translate(-1.854338)"
         id="g973">
        <g
           transform="matrix(0.35279357,0,0,0.35279357,55.940774,22.56444)"
           id="layer1-6-3-2-32"
           inkscape:label="Capa 1">
          <path
             sodipodi:nodetypes="cccssssssccscscccccsscscssccscsccscccccsscsssscs"
             inkscape:connector-curvature="0"
             id="path828-6-0-0"
             d="m 15.55133,51.922274 c -0.685146,-0.279517 -3.20637,-1.507059 -3.324727,-1.618753 -0.03438,-0.03244 -0.07718,-0.127286 -0.09554,-0.211722 -0.08948,-0.411375 -0.262648,-1.722668 -0.332832,-2.520399 -0.05025,-0.57112 -0.0596,-2.009074 -0.01364,-2.094972 0.04031,-0.07531 0.184184,-0.143729 0.562025,-0.267256 0.722856,-0.236322 1.733468,-0.499615 2.410752,-0.628071 0.275408,-0.05224 0.396016,-0.0603 0.707347,-0.04732 0.415417,0.01732 1.429283,0.142198 2.38188,0.293384 0.766175,0.121598 1.019543,0.178219 1.103853,0.246676 l 0.06543,0.05313 -0.0077,1.496494 c -0.0081,1.566318 -0.04308,2.635128 -0.0968,2.95367 -0.03024,0.179307 -0.04114,0.197626 -0.223796,0.376151 -0.196508,0.192058 -2.306176,1.852072 -2.49635,1.964276 -0.172205,0.101604 -0.398334,0.103271 -0.639907,0.0047 z m 0.681956,-0.312805 c 0.354128,-0.250525 1.358355,-1.012126 1.81541,-1.376797 0.537371,-0.428752 0.598921,-0.493547 0.633573,-0.666962 0.06192,-0.309915 0.154976,-1.794696 0.205292,-3.275805 0.02806,-0.82606 0.02665,-0.940151 -0.01209,-0.978893 -0.05115,-0.05115 -0.07672,-0.04286 -1.158797,0.375245 -1.269982,0.490712 -1.8449,0.758627 -1.912296,0.891141 -0.06033,0.118622 -0.03326,2.613007 0.04901,4.516299 0.02534,0.586113 0.04026,0.707347 0.08705,0.707347 0.01213,0 0.143904,-0.08621 0.292842,-0.191575 z m -0.622651,-1.013802 c -0.01218,-0.535923 -0.02681,-1.694557 -0.03252,-2.574744 -0.0081,-1.255585 -0.01836,-1.607633 -0.04745,-1.63421 -0.106289,-0.0971 -3.10159,-0.677511 -3.496415,-0.677511 h -0.135139 l 3.71e-4,0.281495 c 5.78e-4,0.445614 0.107808,1.632044 0.261587,2.894346 0.106753,0.876288 0.163675,1.197828 0.22476,1.269608 0.108101,0.127026 1.297194,0.741581 1.931131,0.998059 0.417345,0.168849 1.151926,0.414027 1.246224,0.415946 l 0.06959,0.0014 z m 0.778946,-4.666157 c 0.521312,-0.175316 1.631211,-0.587253 1.882404,-0.698649 0.123751,-0.05488 0.155359,-0.08002 0.123166,-0.09796 -0.08273,-0.04609 -1.835693,-0.312599 -2.781117,-0.422813 -0.349053,-0.04069 -0.466344,-0.04391 -0.635169,-0.01741 -0.320219,0.05026 -2.598014,0.698144 -2.656719,0.755658 -0.03178,0.03113 0.194652,0.08146 1.179323,0.262104 1.326108,0.243286 2.097867,0.369927 2.267379,0.372065 0.120438,0.0015 0.273269,-0.03615 0.620733,-0.153004 z"
             style="fill:#000000;stroke:#000000;stroke-width:0.229;stroke-miterlimit:4;stroke-dasharray:none;stroke-opacity:1" />
        </g>
        <g
           transform="matrix(0.35279357,0,0,0.35279357,58.893544,22.56444)"
           id="layer1-6-75-2-6"
           inkscape:label="Capa 1">
          <path
             sodipodi:nodetypes="cccssssssccscscccccsscscssccscsccscccccsscsssscs"
             inkscape:connector-curvature="0"
             id="path828-35-3-1"
             d="m 15.55133,51.922274 c -0.685146,-0.279517 -3.20637,-1.507059 -3.324727,-1.618753 -0.03438,-0.03244 -0.07718,-0.127286 -0.09554,-0.211722 -0.08948,-0.411375 -0.262648,-1.722668 -0.332832,-2.520399 -0.05025,-0.57112 -0.0596,-2.009074 -0.01364,-2.094972 0.04031,-0.07531 0.184184,-0.143729 0.562025,-0.267256 0.722856,-0.236322 1.733468,-0.499615 2.410752,-0.628071 0.275408,-0.05224 0.396016,-0.0603 0.707347,-0.04732 0.415417,0.01732 1.429283,0.142198 2.38188,0.293384 0.766175,0.121598 1.019543,0.178219 1.103853,0.246676 l 0.06543,0.05313 -0.0077,1.496494 c -0.0081,1.566318 -0.04308,2.635128 -0.0968,2.95367 -0.03024,0.179307 -0.04114,0.197626 -0.223796,0.376151 -0.196508,0.192058 -2.306176,1.852072 -2.49635,1.964276 -0.172205,0.101604 -0.398334,0.103271 -0.639907,0.0047 z m 0.681956,-0.312805 c 0.354128,-0.250525 1.358355,-1.012126 1.81541,-1.376797 0.537371,-0.428752 0.598921,-0.493547 0.633573,-0.666962 0.06192,-0.309915 0.154976,-1.794696 0.205292,-3.275805 0.02806,-0.82606 0.02665,-0.940151 -0.01209,-0.978893 -0.05115,-0.05115 -0.07672,-0.04286 -1.158797,0.375245 -1.269982,0.490712 -1.8449,0.758627 -1.912296,0.891141 -0.06033,0.118622 -0.03326,2.613007 0.04901,4.516299 0.02534,0.586113 0.04026,0.707347 0.08705,0.707347 0.01213,0 0.143904,-0.08621 0.292842,-0.191575 z m -0.622651,-1.013802 c -0.01218,-0.535923 -0.02681,-1.694557 -0.03252,-2.574744 -0.0081,-1.255585 -0.01836,-1.607633 -0.04745,-1.63421 -0.106289,-0.0971 -3.10159,-0.677511 -3.496415,-0.677511 h -0.135139 l 3.71e-4,0.281495 c 5.78e-4,0.445614 0.107808,1.632044 0.261587,2.894346 0.106753,0.876288 0.163675,1.197828 0.22476,1.269608 0.108101,0.127026 1.297194,0.741581 1.931131,0.998059 0.417345,0.168849 1.151926,0.414027 1.246224,0.415946 l 0.06959,0.0014 z m 0.778946,-4.666157 c 0.521312,-0.175316 1.631211,-0.587253 1.882404,-0.698649 0.123751,-0.05488 0.155359,-0.08002 0.123166,-0.09796 -0.08273,-0.04609 -1.835693,-0.312599 -2.781117,-0.422813 -0.349053,-0.04069 -0.466344,-0.04391 -0.635169,-0.01741 -0.320219,0.05026 -2.598014,0.698144 -2.656719,0.755658 -0.03178,0.03113 0.194652,0.08146 1.179323,0.262104 1.326108,0.243286 2.097867,0.369927 2.267379,0.372065 0.120438,0.0015 0.273269,-0.03615 0.620733,-0.153004 z"
             style="fill:#000000;stroke:#000000;stroke-width:0.229;stroke-miterlimit:4;stroke-dasharray:none;stroke-opacity:1" />
        </g>
        <g
           transform="matrix(0.35279356,0,0,0.35279356,61.846284,22.56444)"
           id="layer1-6-75-2-4-5"
           inkscape:label="Capa 1">
          <path
             sodipodi:nodetypes="cccssssssccscscccccsscscssccscsccscccccsscsssscs"
             inkscape:connector-curvature="0"
             id="path828-35-3-5-5"
             d="m 15.55133,51.922274 c -0.685146,-0.279517 -3.20637,-1.507059 -3.324727,-1.618753 -0.03438,-0.03244 -0.07718,-0.127286 -0.09554,-0.211722 -0.08948,-0.411375 -0.262648,-1.722668 -0.332832,-2.520399 -0.05025,-0.57112 -0.0596,-2.009074 -0.01364,-2.094972 0.04031,-0.07531 0.184184,-0.143729 0.562025,-0.267256 0.722856,-0.236322 1.733468,-0.499615 2.410752,-0.628071 0.275408,-0.05224 0.396016,-0.0603 0.707347,-0.04732 0.415417,0.01732 1.429283,0.142198 2.38188,0.293384 0.766175,0.121598 1.019543,0.178219 1.103853,0.246676 l 0.06543,0.05313 -0.0077,1.496494 c -0.0081,1.566318 -0.04308,2.635128 -0.0968,2.95367 -0.03024,0.179307 -0.04114,0.197626 -0.223796,0.376151 -0.196508,0.192058 -2.306176,1.852072 -2.49635,1.964276 -0.172205,0.101604 -0.398334,0.103271 -0.639907,0.0047 z m 0.681956,-0.312805 c 0.354128,-0.250525 1.358355,-1.012126 1.81541,-1.376797 0.537371,-0.428752 0.598921,-0.493547 0.633573,-0.666962 0.06192,-0.309915 0.154976,-1.794696 0.205292,-3.275805 0.02806,-0.82606 0.02665,-0.940151 -0.01209,-0.978893 -0.05115,-0.05115 -0.07672,-0.04286 -1.158797,0.375245 -1.269982,0.490712 -1.8449,0.758627 -1.912296,0.891141 -0.06033,0.118622 -0.03326,2.613007 0.04901,4.516299 0.02534,0.586113 0.04026,0.707347 0.08705,0.707347 0.01213,0 0.143904,-0.08621 0.292842,-0.191575 z m -0.622651,-1.013802 c -0.01218,-0.535923 -0.02681,-1.694557 -0.03252,-2.574744 -0.0081,-1.255585 -0.01836,-1.607633 -0.04745,-1.63421 -0.106289,-0.0971 -3.10159,-0.677511 -3.496415,-0.677511 h -0.135139 l 3.71e-4,0.281495 c 5.78e-4,0.445614 0.107808,1.632044 0.261587,2.894346 0.106753,0.876288 0.163675,1.197828 0.22476,1.269608 0.108101,0.127026 1.297194,0.741581 1.931131,0.998059 0.417345,0.168849 1.151926,0.414027 1.246224,0.415946 l 0.06959,0.0014 z m 0.778946,-4.666157 c 0.521312,-0.175316 1.631211,-0.587253 1.882404,-0.698649 0.123751,-0.05488 0.155359,-0.08002 0.123166,-0.09796 -0.08273,-0.04609 -1.835693,-0.312599 -2.781117,-0.422813 -0.349053,-0.04069 -0.466344,-0.04391 -0.635169,-0.01741 -0.320219,0.05026 -2.598014,0.698144 -2.656719,0.755658 -0.03178,0.03113 0.194652,0.08146 1.179323,0.262104 1.326108,0.243286 2.097867,0.369927 2.267379,0.372065 0.120438,0.0015 0.273269,-0.03615 0.620733,-0.153004 z"
             style="fill:#000000;stroke:#000000;stroke-width:0.229;stroke-miterlimit:4;stroke-dasharray:none;stroke-opacity:1" />
        </g>
      </g>
      <path
         sodipodi:nodetypes="cc"
         inkscape:connector-curvature="0"
         id="path1090-2-2"
         d="m 55.467092,41.675169 h 14"
         style="fill:none;stroke:#000000;stroke-width:0.20910574;stroke-linecap:butt;stroke-linejoin:miter;stroke-miterlimit:4;stroke-dasharray:1.67284595, 0.20910574;stroke-dashoffset:0;stroke-opacity:1" />
      <text
         id="text1088-8-0"
         y="42.626808"
         x="78.16568"
         style="font-style:normal;font-weight:normal;font-size:132.3289032px;line-height:1.25;font-family:sans-serif;letter-spacing:0px;word-spacing:0px;fill:#000000;fill-opacity:1;stroke:none;stroke-width:0.22054817"
         xml:space="preserve"><tspan
           style="font-size:2.64657807px;stroke-width:0.22054817"
           y="42.626808"
           x="78.16568"
           id="tspan1086-97-6"
           sodipodi:role="line">30</tspan></text>
      <text
         id="text1088-0-6-1"
         y="42.609367"
         x="96.253502"
         style="font-style:normal;font-weight:normal;font-size:132.3289032px;line-height:1.25;font-family:sans-serif;letter-spacing:0px;word-spacing:0px;fill:#000000;fill-opacity:1;stroke:none;stroke-width:0.22054817"
         xml:space="preserve"><tspan
           style="font-size:2.64657807px;stroke-width:0.22054817"
           y="42.609367"
           x="96.253502"
           id="tspan1086-9-1-5"
           sodipodi:role="line">45</tspan></text>
      <g
         transform="translate(-2.2323177)"
         id="g981">
        <g
           transform="matrix(0.35279357,0,0,0.35279357,82.740349,22.56444)"
           id="layer1-6-3-2-37"
           inkscape:label="Capa 1">
          <path
             sodipodi:nodetypes="cccssssssccscscccccsscscssccscsccscccccsscsssscs"
             inkscape:connector-curvature="0"
             id="path828-6-0-4"
             d="m 15.55133,51.922274 c -0.685146,-0.279517 -3.20637,-1.507059 -3.324727,-1.618753 -0.03438,-0.03244 -0.07718,-0.127286 -0.09554,-0.211722 -0.08948,-0.411375 -0.262648,-1.722668 -0.332832,-2.520399 -0.05025,-0.57112 -0.0596,-2.009074 -0.01364,-2.094972 0.04031,-0.07531 0.184184,-0.143729 0.562025,-0.267256 0.722856,-0.236322 1.733468,-0.499615 2.410752,-0.628071 0.275408,-0.05224 0.396016,-0.0603 0.707347,-0.04732 0.415417,0.01732 1.429283,0.142198 2.38188,0.293384 0.766175,0.121598 1.019543,0.178219 1.103853,0.246676 l 0.06543,0.05313 -0.0077,1.496494 c -0.0081,1.566318 -0.04308,2.635128 -0.0968,2.95367 -0.03024,0.179307 -0.04114,0.197626 -0.223796,0.376151 -0.196508,0.192058 -2.306176,1.852072 -2.49635,1.964276 -0.172205,0.101604 -0.398334,0.103271 -0.639907,0.0047 z m 0.681956,-0.312805 c 0.354128,-0.250525 1.358355,-1.012126 1.81541,-1.376797 0.537371,-0.428752 0.598921,-0.493547 0.633573,-0.666962 0.06192,-0.309915 0.154976,-1.794696 0.205292,-3.275805 0.02806,-0.82606 0.02665,-0.940151 -0.01209,-0.978893 -0.05115,-0.05115 -0.07672,-0.04286 -1.158797,0.375245 -1.269982,0.490712 -1.8449,0.758627 -1.912296,0.891141 -0.06033,0.118622 -0.03326,2.613007 0.04901,4.516299 0.02534,0.586113 0.04026,0.707347 0.08705,0.707347 0.01213,0 0.143904,-0.08621 0.292842,-0.191575 z m -0.622651,-1.013802 c -0.01218,-0.535923 -0.02681,-1.694557 -0.03252,-2.574744 -0.0081,-1.255585 -0.01836,-1.607633 -0.04745,-1.63421 -0.106289,-0.0971 -3.10159,-0.677511 -3.496415,-0.677511 h -0.135139 l 3.71e-4,0.281495 c 5.78e-4,0.445614 0.107808,1.632044 0.261587,2.894346 0.106753,0.876288 0.163675,1.197828 0.22476,1.269608 0.108101,0.127026 1.297194,0.741581 1.931131,0.998059 0.417345,0.168849 1.151926,0.414027 1.246224,0.415946 l 0.06959,0.0014 z m 0.778946,-4.666157 c 0.521312,-0.175316 1.631211,-0.587253 1.882404,-0.698649 0.123751,-0.05488 0.155359,-0.08002 0.123166,-0.09796 -0.08273,-0.04609 -1.835693,-0.312599 -2.781117,-0.422813 -0.349053,-0.04069 -0.466344,-0.04391 -0.635169,-0.01741 -0.320219,0.05026 -2.598014,0.698144 -2.656719,0.755658 -0.03178,0.03113 0.194652,0.08146 1.179323,0.262104 1.326108,0.243286 2.097867,0.369927 2.267379,0.372065 0.120438,0.0015 0.273269,-0.03615 0.620733,-0.153004 z"
             style="fill:#000000;stroke:#000000;stroke-width:0.229;stroke-miterlimit:4;stroke-dasharray:none;stroke-opacity:1" />
        </g>
        <g
           transform="matrix(0.35279357,0,0,0.35279357,85.693119,22.56444)"
           id="layer1-6-75-2-5"
           inkscape:label="Capa 1">
          <path
             sodipodi:nodetypes="cccssssssccscscccccsscscssccscsccscccccsscsssscs"
             inkscape:connector-curvature="0"
             id="path828-35-3-2"
             d="m 15.55133,51.922274 c -0.685146,-0.279517 -3.20637,-1.507059 -3.324727,-1.618753 -0.03438,-0.03244 -0.07718,-0.127286 -0.09554,-0.211722 -0.08948,-0.411375 -0.262648,-1.722668 -0.332832,-2.520399 -0.05025,-0.57112 -0.0596,-2.009074 -0.01364,-2.094972 0.04031,-0.07531 0.184184,-0.143729 0.562025,-0.267256 0.722856,-0.236322 1.733468,-0.499615 2.410752,-0.628071 0.275408,-0.05224 0.396016,-0.0603 0.707347,-0.04732 0.415417,0.01732 1.429283,0.142198 2.38188,0.293384 0.766175,0.121598 1.019543,0.178219 1.103853,0.246676 l 0.06543,0.05313 -0.0077,1.496494 c -0.0081,1.566318 -0.04308,2.635128 -0.0968,2.95367 -0.03024,0.179307 -0.04114,0.197626 -0.223796,0.376151 -0.196508,0.192058 -2.306176,1.852072 -2.49635,1.964276 -0.172205,0.101604 -0.398334,0.103271 -0.639907,0.0047 z m 0.681956,-0.312805 c 0.354128,-0.250525 1.358355,-1.012126 1.81541,-1.376797 0.537371,-0.428752 0.598921,-0.493547 0.633573,-0.666962 0.06192,-0.309915 0.154976,-1.794696 0.205292,-3.275805 0.02806,-0.82606 0.02665,-0.940151 -0.01209,-0.978893 -0.05115,-0.05115 -0.07672,-0.04286 -1.158797,0.375245 -1.269982,0.490712 -1.8449,0.758627 -1.912296,0.891141 -0.06033,0.118622 -0.03326,2.613007 0.04901,4.516299 0.02534,0.586113 0.04026,0.707347 0.08705,0.707347 0.01213,0 0.143904,-0.08621 0.292842,-0.191575 z m -0.622651,-1.013802 c -0.01218,-0.535923 -0.02681,-1.694557 -0.03252,-2.574744 -0.0081,-1.255585 -0.01836,-1.607633 -0.04745,-1.63421 -0.106289,-0.0971 -3.10159,-0.677511 -3.496415,-0.677511 h -0.135139 l 3.71e-4,0.281495 c 5.78e-4,0.445614 0.107808,1.632044 0.261587,2.894346 0.106753,0.876288 0.163675,1.197828 0.22476,1.269608 0.108101,0.127026 1.297194,0.741581 1.931131,0.998059 0.417345,0.168849 1.151926,0.414027 1.246224,0.415946 l 0.06959,0.0014 z m 0.778946,-4.666157 c 0.521312,-0.175316 1.631211,-0.587253 1.882404,-0.698649 0.123751,-0.05488 0.155359,-0.08002 0.123166,-0.09796 -0.08273,-0.04609 -1.835693,-0.312599 -2.781117,-0.422813 -0.349053,-0.04069 -0.466344,-0.04391 -0.635169,-0.01741 -0.320219,0.05026 -2.598014,0.698144 -2.656719,0.755658 -0.03178,0.03113 0.194652,0.08146 1.179323,0.262104 1.326108,0.243286 2.097867,0.369927 2.267379,0.372065 0.120438,0.0015 0.273269,-0.03615 0.620733,-0.153004 z"
             style="fill:#000000;stroke:#000000;stroke-width:0.229;stroke-miterlimit:4;stroke-dasharray:none;stroke-opacity:1" />
        </g>
        <g
           transform="matrix(0.35279356,0,0,0.35279356,88.645859,22.56444)"
           id="layer1-6-75-2-4-54"
           inkscape:label="Capa 1">
          <path
             sodipodi:nodetypes="cccssssssccscscccccsscscssccscsccscccccsscsssscs"
             inkscape:connector-curvature="0"
             id="path828-35-3-5-7"
             d="m 15.55133,51.922274 c -0.685146,-0.279517 -3.20637,-1.507059 -3.324727,-1.618753 -0.03438,-0.03244 -0.07718,-0.127286 -0.09554,-0.211722 -0.08948,-0.411375 -0.262648,-1.722668 -0.332832,-2.520399 -0.05025,-0.57112 -0.0596,-2.009074 -0.01364,-2.094972 0.04031,-0.07531 0.184184,-0.143729 0.562025,-0.267256 0.722856,-0.236322 1.733468,-0.499615 2.410752,-0.628071 0.275408,-0.05224 0.396016,-0.0603 0.707347,-0.04732 0.415417,0.01732 1.429283,0.142198 2.38188,0.293384 0.766175,0.121598 1.019543,0.178219 1.103853,0.246676 l 0.06543,0.05313 -0.0077,1.496494 c -0.0081,1.566318 -0.04308,2.635128 -0.0968,2.95367 -0.03024,0.179307 -0.04114,0.197626 -0.223796,0.376151 -0.196508,0.192058 -2.306176,1.852072 -2.49635,1.964276 -0.172205,0.101604 -0.398334,0.103271 -0.639907,0.0047 z m 0.681956,-0.312805 c 0.354128,-0.250525 1.358355,-1.012126 1.81541,-1.376797 0.537371,-0.428752 0.598921,-0.493547 0.633573,-0.666962 0.06192,-0.309915 0.154976,-1.794696 0.205292,-3.275805 0.02806,-0.82606 0.02665,-0.940151 -0.01209,-0.978893 -0.05115,-0.05115 -0.07672,-0.04286 -1.158797,0.375245 -1.269982,0.490712 -1.8449,0.758627 -1.912296,0.891141 -0.06033,0.118622 -0.03326,2.613007 0.04901,4.516299 0.02534,0.586113 0.04026,0.707347 0.08705,0.707347 0.01213,0 0.143904,-0.08621 0.292842,-0.191575 z m -0.622651,-1.013802 c -0.01218,-0.535923 -0.02681,-1.694557 -0.03252,-2.574744 -0.0081,-1.255585 -0.01836,-1.607633 -0.04745,-1.63421 -0.106289,-0.0971 -3.10159,-0.677511 -3.496415,-0.677511 h -0.135139 l 3.71e-4,0.281495 c 5.78e-4,0.445614 0.107808,1.632044 0.261587,2.894346 0.106753,0.876288 0.163675,1.197828 0.22476,1.269608 0.108101,0.127026 1.297194,0.741581 1.931131,0.998059 0.417345,0.168849 1.151926,0.414027 1.246224,0.415946 l 0.06959,0.0014 z m 0.778946,-4.666157 c 0.521312,-0.175316 1.631211,-0.587253 1.882404,-0.698649 0.123751,-0.05488 0.155359,-0.08002 0.123166,-0.09796 -0.08273,-0.04609 -1.835693,-0.312599 -2.781117,-0.422813 -0.349053,-0.04069 -0.466344,-0.04391 -0.635169,-0.01741 -0.320219,0.05026 -2.598014,0.698144 -2.656719,0.755658 -0.03178,0.03113 0.194652,0.08146 1.179323,0.262104 1.326108,0.243286 2.097867,0.369927 2.267379,0.372065 0.120438,0.0015 0.273269,-0.03615 0.620733,-0.153004 z"
             style="fill:#000000;stroke:#000000;stroke-width:0.229;stroke-miterlimit:4;stroke-dasharray:none;stroke-opacity:1" />
        </g>
      </g>
      <path
         sodipodi:nodetypes="cc"
         inkscape:connector-curvature="0"
         id="path1090-2-1-5"
         d="m 81.888688,41.675169 h 14"
         style="fill:none;stroke:#000000;stroke-width:0.20910574;stroke-linecap:butt;stroke-linejoin:miter;stroke-miterlimit:4;stroke-dasharray:0.62731723, 0.20910574;stroke-dashoffset:0;stroke-opacity:1" />
      <path
         inkscape:connector-curvature="0"
         id="path1183-2-4"
         d="m 75.677894,38.618195 v 5.58932"
         style="fill:none;stroke:#000000;stroke-width:0.26458332px;stroke-linecap:butt;stroke-linejoin:miter;stroke-opacity:1" />
    </g>
    <g
       style="display:inline"
       id="g1033"
       transform="translate(19.247686,66.198426)">
      <rect
         y="-36.617252"
         x="21.17853"
         height="8.2894325"
         width="8.2894325"
         id="rect925-7-3-61-49-09"
         style="display:inline;opacity:1;vector-effect:none;fill:#ffffff;fill-opacity:1;stroke:#000000;stroke-width:0.71056741;stroke-linecap:butt;stroke-linejoin:miter;stroke-miterlimit:4;stroke-dasharray:none;stroke-dashoffset:0;stroke-opacity:1" />
      <rect
         y="-36.617252"
         x="31.46801"
         height="8.2894325"
         width="8.2894325"
         id="rect925-7-3-61-49-0-6"
         style="display:inline;opacity:1;vector-effect:none;fill:#ffffff;fill-opacity:1;stroke:#000000;stroke-width:0.71056741;stroke-linecap:butt;stroke-linejoin:miter;stroke-miterlimit:4;stroke-dasharray:none;stroke-dashoffset:0;stroke-opacity:1" />
      <rect
         y="-36.617252"
         x="41.757488"
         height="8.2894325"
         width="8.2894325"
         id="rect925-7-3-61-49-9-3"
         style="display:inline;opacity:1;vector-effect:none;fill:#ffffff;fill-opacity:1;stroke:#000000;stroke-width:0.71056741;stroke-linecap:butt;stroke-linejoin:miter;stroke-miterlimit:4;stroke-dasharray:none;stroke-dashoffset:0;stroke-opacity:1" />
      <rect
         y="-36.617252"
         x="52.046974"
         height="8.2894325"
         width="8.2894325"
         id="rect925-7-3-61-49-1-8"
         style="display:inline;opacity:1;vector-effect:none;fill:#ffffff;fill-opacity:1;stroke:#000000;stroke-width:0.71056741;stroke-linecap:butt;stroke-linejoin:miter;stroke-miterlimit:4;stroke-dasharray:none;stroke-dashoffset:0;stroke-opacity:1" />
      <rect
         y="-36.617252"
         x="62.336449"
         height="8.2894325"
         width="8.2894325"
         id="rect925-7-3-61-49-7-5"
         style="display:inline;opacity:1;vector-effect:none;fill:#ffffff;fill-opacity:1;stroke:#000000;stroke-width:0.71056741;stroke-linecap:butt;stroke-linejoin:miter;stroke-miterlimit:4;stroke-dasharray:none;stroke-dashoffset:0;stroke-opacity:1" />
    </g>
    <g
       id="g887"
       transform="translate(-6.3743568,1.0583333)">
      <path
         inkscape:export-ydpi="300"
         inkscape:export-xdpi="300"
         inkscape:export-filename="1flame.png"
         sodipodi:nodetypes="ccccsccccscccccscscccsccccccc"
         inkscape:connector-curvature="0"
         id="path826-3"
         d="m -11.992062,47.899798 c -0.74036,-0.42454 -1.16313,-1.30599 -1.029019,-2.14547 0.0723,-0.45236 0.205399,-0.75728 0.51281,-1.17452 0.855259,-1.16082 1.01121,-1.47811 1.05736,-2.15132 0.0145,-0.21106 0.0365,-0.38375 0.049,-0.38375 0.0124,0 0.167669,0.10751 0.34492,0.23891 0.70314,0.52126 1.0979695,1.22932 1.1901695,2.13433 l 0.0354,0.34789 0.128,-0.13562 c 0.0704,-0.0746 0.15533,-0.22937 0.18875,-0.34397 l 0.0608,-0.20837 0.19096,0.39085 c 0.22784,0.46637 0.37001,0.95442 0.40995,1.40733 0.0722,0.81861 -0.34268,1.61611 -1.05246,2.0231 -0.2845895,0.16319 -0.3925495,0.19094 -0.2225405,0.0572 0.1735505,-0.13653 0.3687505,-0.53511 0.3972405,-0.81118 0.0384,-0.37175 -0.0755,-0.6917 -0.4090205,-1.14935 -0.334519,-0.45901 -0.487779,-0.77035 -0.53289,-1.08258 l -0.0324,-0.22468 -0.18305,0.17817 c -0.34858,0.3393 -0.59597,1.08145 -0.53423,1.6027 0.0148,0.1247 0.009,0.22675 -0.0126,0.22675 -0.089,0 -0.32551,-0.33503 -0.3523,-0.49904 -0.0158,-0.0965 -0.0345,-0.20683 -0.0417,-0.2452 -0.0169,-0.0902 -0.24643,0.40925 -0.30533,0.66445 -0.10999,0.4766 -0.0184,0.91088 0.26098,1.23724 0.0901,0.10532 0.15703,0.19129 0.14864,0.19105 -0.008,-1.8e-4 -0.12865,-0.0654 -0.26725,-0.14494 z"
         style="fill:#000000;stroke:#000000;stroke-width:0.30000001;stroke-miterlimit:4;stroke-dasharray:none;stroke-opacity:1" />
      <circle
         r="1.6063988"
         cy="45.131767"
         cx="-4.4457111"
         id="path3810"
         style="opacity:1;vector-effect:none;fill:#000000;fill-opacity:1;stroke:none;stroke-width:0.29209089;stroke-linecap:butt;stroke-linejoin:miter;stroke-miterlimit:4;stroke-dasharray:0.87627266, 0.29209089;stroke-dashoffset:0;stroke-opacity:1" />
      <circle
         r="1.6063988"
         cy="45.131767"
         cx="1.280627"
         id="path3810-8"
         style="opacity:1;vector-effect:none;fill:#000000;fill-opacity:1;stroke:none;stroke-width:0.29209092;stroke-linecap:butt;stroke-linejoin:miter;stroke-miterlimit:4;stroke-dasharray:0.87627267, 0.29209089;stroke-dashoffset:0;stroke-opacity:1" />
      <circle
         r="1.6063988"
         cy="45.131767"
         cx="7.0069661"
         id="path3810-89"
         style="opacity:1;vector-effect:none;fill:#000000;fill-opacity:1;stroke:none;stroke-width:0.29209092;stroke-linecap:butt;stroke-linejoin:miter;stroke-miterlimit:4;stroke-dasharray:0.87627267, 0.29209089;stroke-dashoffset:0;stroke-opacity:1" />
      <circle
         r="1.6063988"
         cy="45.131767"
         cx="12.733305"
         id="path3810-7"
         style="opacity:1;vector-effect:none;fill:#000000;fill-opacity:1;stroke:none;stroke-width:0.29209092;stroke-linecap:butt;stroke-linejoin:miter;stroke-miterlimit:4;stroke-dasharray:0.87627267, 0.29209089;stroke-dashoffset:0;stroke-opacity:1" />
    </g>
    <g
       id="g948">
      <g
         transform="matrix(1.3240563,0,0,1.3240565,-63.334155,-8.5250072)"
         id="g931">
        <circle
           style="opacity:1;vector-effect:none;fill:#ffffff;fill-opacity:1;stroke:#000000;stroke-width:0.31159922;stroke-linecap:butt;stroke-linejoin:miter;stroke-miterlimit:4;stroke-dasharray:none;stroke-dashoffset:0;stroke-opacity:1"
           id="path1760-3"
           cx="63.244713"
           cy="32.709503"
           r="2.9059739" />
        <g
           id="g1314"
           style="stroke:#000000;stroke-opacity:1"
           transform="matrix(0.57776063,0,0,0.57776063,39.266143,11.610937)"
           inkscape:export-filename="3bullets.png"
           inkscape:export-xdpi="300"
           inkscape:export-ydpi="300">
          <path
             inkscape:connector-curvature="0"
             id="path1002-7-2-3"
             d="m 38.791441,35.598415 c -0.03173,-0.0031 -0.06413,0.0061 -0.0884,0.0281 -0.02927,0.02659 -0.03117,0.07657 -0.03117,0.888129 0,0.776379 0.0026,0.863092 0.0281,0.891196 0.04312,0.04764 0.131989,0.04058 0.174765,-0.0138 0.01186,-0.01512 0.01931,-0.03909 0.02454,-0.08125 l 0.0603,0.06184 0.06285,0.06438 h 1.673546 1.673547 l 0.452751,-0.0077 c 0.542174,-0.0092 0.644723,-0.02758 0.930544,-0.167098 0.250498,-0.122274 0.419839,-0.275879 0.513562,-0.465528 0.05978,-0.120921 0.06388,-0.139766 0.06388,-0.283609 0,-0.13213 -0.0063,-0.168213 -0.04599,-0.252948 -0.09088,-0.193984 -0.361877,-0.42117 -0.647444,-0.542689 -0.241521,-0.102777 -0.362997,-0.111171 -0.749139,-0.11651 -0.191954,-0.0026 -0.385797,-0.0036 -0.430267,-0.0021 l -0.08788,-5.11e-4 H 40.697523 39.02551 l -0.06438,0.06285 -0.06234,0.06082 c -0.0053,-0.04063 -0.0123,-0.0638 -0.02402,-0.0787 -0.02071,-0.02632 -0.05156,-0.04189 -0.08329,-0.04498 z"
             style="fill:#000000;stroke:#000000;stroke-width:0.01702486;stroke-opacity:1" />
          <path
             inkscape:connector-curvature="0"
             id="path1002-7-0-7"
             d="m 38.791441,37.678538 c -0.03173,-0.0031 -0.06413,0.0061 -0.0884,0.0281 -0.02927,0.0266 -0.03117,0.07657 -0.03117,0.88813 0,0.776378 0.0026,0.863092 0.0281,0.891195 0.04312,0.04764 0.131989,0.04058 0.174765,-0.0138 0.01186,-0.01512 0.01931,-0.03909 0.02454,-0.08125 l 0.0603,0.06184 0.06285,0.06438 h 1.673546 1.673547 l 0.452751,-0.0077 c 0.542174,-0.0092 0.644723,-0.02758 0.930544,-0.167098 0.250498,-0.122273 0.419839,-0.275879 0.513562,-0.465528 0.05978,-0.12092 0.06388,-0.139765 0.06388,-0.283608 0,-0.13213 -0.0063,-0.168214 -0.04599,-0.252949 -0.09088,-0.193983 -0.361877,-0.421169 -0.647444,-0.542689 -0.241521,-0.102777 -0.362997,-0.11117 -0.749139,-0.11651 -0.191954,-0.0026 -0.385797,-0.0036 -0.430267,-0.0021 l -0.08788,-5.12e-4 H 40.697523 39.02551 l -0.06438,0.06286 -0.06234,0.06082 c -0.0053,-0.04063 -0.0123,-0.0638 -0.02402,-0.0787 -0.02071,-0.02632 -0.05156,-0.04189 -0.08329,-0.04498 z"
             style="fill:#000000;stroke:#000000;stroke-width:0.01702486;stroke-opacity:1" />
          <path
             inkscape:connector-curvature="0"
             id="path1002-7-2-3-5"
             d="m 38.79452,33.518312 c -0.03173,-0.0031 -0.06413,0.0061 -0.0884,0.0281 -0.02927,0.02659 -0.03117,0.07657 -0.03117,0.88813 0,0.776378 0.0026,0.863092 0.0281,0.891195 0.04312,0.04764 0.131989,0.04058 0.174765,-0.0138 0.01186,-0.01512 0.01931,-0.03909 0.02454,-0.08125 l 0.0603,0.06184 0.06285,0.06438 h 1.673547 1.673546 l 0.452751,-0.0077 c 0.542175,-0.0092 0.644723,-0.02759 0.930544,-0.167098 0.250498,-0.122274 0.419839,-0.275879 0.513562,-0.465528 0.05978,-0.120921 0.06388,-0.139766 0.06388,-0.283609 0,-0.13213 -0.0063,-0.168213 -0.04599,-0.252948 -0.09088,-0.193984 -0.361877,-0.42117 -0.647444,-0.542689 -0.24152,-0.102777 -0.362996,-0.11117 -0.749139,-0.11651 -0.191954,-0.0026 -0.385797,-0.0036 -0.430267,-0.0021 l -0.08788,-5.11e-4 H 40.700602 39.02859 l -0.06438,0.06286 -0.06234,0.06082 c -0.0053,-0.04063 -0.0123,-0.0638 -0.02402,-0.0787 -0.02071,-0.02632 -0.05156,-0.04189 -0.08329,-0.04498 z"
             style="fill:#000000;stroke:#000000;stroke-width:0.01702486;stroke-opacity:1" />
        </g>
      </g>
      <g
         id="g857"
         transform="matrix(0.73962006,0,0,0.73962006,-84.660117,-51.282331)"
         style="display:inline">
        <path
           style="fill:#000000;stroke:#000000;stroke-width:0.20942611;stroke-miterlimit:4;stroke-dasharray:none;stroke-opacity:1"
           d="m 150.81067,113.47052 v 0.19998 0.19948 l -0.0687,0.0109 c -0.0499,0.008 -0.0992,0.0213 -0.14883,0.0326 v 0.55449 c 0.057,-0.0172 0.11728,-0.0361 0.15348,-0.0419 l 0.0641,-0.0103 v 0.43666 0.43615 h 0.35347 0.35398 v -0.43408 c 0,-0.50316 -0.0233,-0.45876 0.20309,-0.39326 0.32803,0.095 0.576,0.23981 0.82786,0.48421 0.29627,0.28748 0.46412,0.59063 0.5674,1.02268 l 0.0109,0.0444 h -0.4346 -0.4346 v 0.36174 0.36225 h 0.43253 0.43253 l -0.015,0.0682 c -0.0286,0.13132 -0.0993,0.32684 -0.16743,0.4625 -0.18578,0.37022 -0.4993,0.68581 -0.86506,0.87075 -0.13271,0.0671 -0.41926,0.16825 -0.50126,0.17725 l -0.0481,0.005 v -0.43047 -0.42994 h -0.35812 -0.3576 v 0.42529 h -0.001 c 0,0.23392 -0.005,0.42802 -0.0124,0.43202 -0.007,0.004 -0.0626,-0.006 -0.12454,-0.0217 -0.0274,-0.007 -0.0527,-0.0179 -0.0796,-0.0258 v 0.55397 c 0.0136,0.003 0.0267,0.007 0.0403,0.0103 l 0.16898,0.0357 0.004,0.19585 0.005,0.19586 h 0.35295 0.35295 l 0.004,-0.19534 0.005,-0.19534 0.16846,-0.0377 c 0.30288,-0.0679 0.54466,-0.16528 0.80874,-0.32556 0.57364,-0.34818 0.99481,-0.9547 1.13275,-1.63091 l 0.0284,-0.14056 h 0.1974 0.19741 v -0.36173 -0.36226 h -0.19741 -0.19792 l -0.0279,-0.14831 c -0.0598,-0.31633 -0.19438,-0.63775 -0.38447,-0.91881 -0.1394,-0.20615 -0.47205,-0.53548 -0.68058,-0.67386 -0.28019,-0.18593 -0.58901,-0.31373 -0.90434,-0.37413 l -0.14883,-0.0289 v -0.19844 -0.19895 h -0.35347 z"
           id="path1101"
           inkscape:connector-curvature="0" />
        <path
           style="fill:#000000;stroke-width:0.04291296"
           d="m 155.39686,119.16773 c -0.25963,-0.0587 -0.49619,-0.12644 -0.52569,-0.1506 -0.092,-0.0754 -0.0593,-0.21666 0.0844,-0.3648 l 0.13797,-0.14235 -0.50272,-0.50404 c -0.37693,-0.37791 -0.50273,-0.53126 -0.50273,-0.61282 0,-0.14334 0.0743,-0.21178 0.22989,-0.21178 0.10433,0 0.21604,0.088 0.62684,0.49376 l 0.49991,0.49377 0.12361,-0.129 c 0.13169,-0.13745 0.28048,-0.16649 0.36032,-0.0703 0.0879,0.10594 0.30588,1.14701 0.25865,1.23524 -0.0555,0.10369 -0.1966,0.097 -0.79037,-0.0371 z m 0.73667,-2.10082 c -0.0158,-0.0157 -0.0286,-0.12195 -0.0286,-0.23602 v -0.20742 l -0.67588,-6.4e-4 c -0.79014,-8.2e-4 -0.89044,-0.0296 -0.89044,-0.25685 0,-0.22704 0.10046,-0.2561 0.8882,-0.25685 l 0.67363,-6.4e-4 0.013,-0.22529 c 0.0125,-0.21637 0.0181,-0.22568 0.14171,-0.23482 0.0957,-0.008 0.2432,0.0645 0.57481,0.27919 0.24534,0.1588 0.46731,0.32239 0.49327,0.36355 0.0736,0.11672 -0.002,0.1956 -0.49327,0.51212 -0.40513,0.26121 -0.61819,0.34186 -0.69641,0.26364 z m -1.99402,-1.56775 c -0.0283,-0.0283 -0.0515,-0.10861 -0.0515,-0.17841 0,-0.10432 0.088,-0.21602 0.49376,-0.62682 l 0.49377,-0.49993 -0.12901,-0.12359 c -0.137,-0.13126 -0.16654,-0.28045 -0.0712,-0.35959 0.0822,-0.0682 1.00305,-0.26983 1.1616,-0.25437 0.10858,0.0107 0.13477,0.034 0.14591,0.13099 0.017,0.14703 -0.18853,1.09573 -0.25451,1.17523 -0.0796,0.096 -0.22854,0.0668 -0.3601,-0.0705 l -0.1236,-0.12902 -0.49993,0.49377 c -0.41079,0.40573 -0.52254,0.49377 -0.62682,0.49377 -0.0698,0 -0.15008,-0.0232 -0.17841,-0.0515 z"
           id="path853"
           inkscape:connector-curvature="0"
           sodipodi:nodetypes="sccccsssccccscsccscccccccccsssccccccscsss" />
      </g>
    </g>
    <g
       id="g1370"
       transform="translate(2.1917306,19.979202)">
      <path
         transform="matrix(0.26458333,0,0,0.26458333,-28.060163,27.595709)"
         id="rect950"
         d="m 76.654297,-64.025391 -0.107422,6.136719 c 0.0086,0.05941 0.03516,0.112109 0.03516,0.173828 v 5.158203 c -0.233537,-0.08031 -0.471821,-0.152343 -0.732422,-0.152343 H 62.566406 v 1.115234 c 0,1.049091 -0.827415,1.890625 -1.853515,1.890625 -1.026108,0 -1.853516,-0.841534 -1.853516,-1.890625 v -1.115234 H 32.845703 c -0.177184,-0.05371 -0.408518,0.0061 -0.703125,0.144531 -0.315099,0.103597 -0.598175,0.259453 -0.83789,0.480469 -0.08232,0.05083 -0.131771,0.07346 -0.220704,0.128906 -1.963993,1.224298 -2.158203,2.219271 -2.158203,11.195312 v 8.025391 h 4.103516 c 4.234129,0 5.650391,0.409035 5.650391,1.625 0,0.379446 0.458488,0.515625 1.74414,0.515625 h 1.738281 v -2.333984 c 0,-0.15995 0.0098,-0.255433 0.01172,-0.396485 h 6.509766 c 0.05155,0.366047 0.09961,0.73687 0.09961,1.115235 v 1.615234 H 50.875 51.757812 v -2.730469 h 24.089844 0.734375 v 3.410157 c 0.07689,0.406366 0.178712,0.760721 0.314453,0.90039 0.470155,0.480968 2.660943,0.56846 3.332032,0.132813 0.345365,-0.223937 0.420773,-4.008331 0.349609,-17.714844 l -0.0918,-17.429688 h -1.914062 z m -27.304688,0.109375 c -1.118075,0 -2.003608,0.817342 -2.226562,1.890625 h -0.695313 c -0.654652,0 -1.18164,0.539687 -1.18164,1.208985 0,0.669328 0.526981,1.207031 1.18164,1.207031 h 0.59961 v 1.957031 h -0.59961 c -0.654652,0 -1.18164,0.537723 -1.18164,1.207032 0,0.669323 0.526981,1.208984 1.18164,1.208984 h 0.664063 c 0.162595,1.149562 1.087036,2.042969 2.257812,2.042969 h 10.220703 c -0.01058,0.06659 -0.03906,0.127457 -0.03906,0.197265 v 1.490235 c 0,0.669327 0.526992,1.208984 1.181641,1.208984 0.654652,0 1.18164,-0.539607 1.18164,-1.208984 v -1.490235 c 0,-0.07015 -0.02833,-0.13067 -0.03906,-0.197265 H 73.84375 c 1.285518,0 2.320313,-1.058735 2.320312,-2.373047 v -5.976563 c 0,-1.314315 -1.034794,-2.373047 -2.320312,-2.373047 z m -15.4375,24.615235 h 38.876953 c 0.588626,0 1.0625,0.473875 1.0625,1.0625 0,0.588625 -0.473874,1.0625 -1.0625,1.0625 H 33.912109 c -0.588625,0 -1.0625,-0.473875 -1.0625,-1.0625 0,-0.588625 0.473875,-1.0625 1.0625,-1.0625 z m 20.027344,6.789062 c -0.55088,0 -0.994141,0.44326 -0.994141,0.994141 v 1.386719 c 0,0.55088 0.443261,0.99414 0.994141,0.99414 h 20.574219 c 0.55088,0 0.99414,-0.44326 0.99414,-0.99414 v -1.386719 c 0,-0.550881 -0.44326,-0.994141 -0.99414,-0.994141 z"
         style="opacity:1;vector-effect:none;fill:#000000;fill-opacity:1;stroke:none;stroke-width:2.71257877;stroke-linecap:round;stroke-linejoin:miter;stroke-miterlimit:4;stroke-dasharray:none;stroke-dashoffset:0;stroke-opacity:1"
         inkscape:connector-curvature="0" />
      <path
         id="rect1054"
         transform="matrix(0.26458333,0,0,0.26458333,-28.060163,27.595709)"
         d="m 81.572266,-50.982422 c -0.33665,0 -0.609375,0.270773 -0.609375,0.607422 v 13.900391 c 0,0.336649 0.272725,0.607421 0.609375,0.607421 h 0.982422 a 1.875,1.875 0 0 1 1.84375,-1.535156 1.875,1.875 0 0 1 1.84375,1.535156 h 1.341796 a 1.875,1.875 0 0 1 1.84375,-1.535156 1.875,1.875 0 0 1 1.84375,1.535156 h 1.341797 a 1.875,1.875 0 0 1 1.841797,-1.535156 1.875,1.875 0 0 1 1.84375,1.535156 h 1.341797 a 1.875,1.875 0 0 1 1.84375,-1.535156 1.875,1.875 0 0 1 1.843745,1.535156 h 0.98438 c 0.33665,0 0.60742,-0.270772 0.60742,-0.607421 V -50.375 c 0,-0.336649 -0.27077,-0.607422 -0.60742,-0.607422 h -0.95508 a 1.875,1.875 0 0 1 0.002,0.03516 1.875,1.875 0 0 1 -1.875005,1.875 1.875,1.875 0 0 1 -1.875,-1.875 1.875,1.875 0 0 1 0.002,-0.03516 h -1.283203 a 1.875,1.875 0 0 1 0.002,0.03516 1.875,1.875 0 0 1 -1.875,1.875 1.875,1.875 0 0 1 -1.875,-1.875 1.875,1.875 0 0 1 0.002,-0.03516 h -1.28125 a 1.875,1.875 0 0 1 0.002,0.03516 1.875,1.875 0 0 1 -1.875,1.875 1.875,1.875 0 0 1 -1.875,-1.875 1.875,1.875 0 0 1 0.002,-0.03516 h -1.283204 a 1.875,1.875 0 0 1 0.002,0.03516 1.875,1.875 0 0 1 -1.875,1.875 1.875,1.875 0 0 1 -1.875,-1.875 1.875,1.875 0 0 1 0.002,-0.03516 z m 5.339843,2.015625 a 1.875,1.875 0 0 1 1.875,1.875 1.875,1.875 0 0 1 -1.875,1.875 1.875,1.875 0 0 1 -1.875,-1.875 1.875,1.875 0 0 1 1.875,-1.875 z m 5.029297,0 a 1.875,1.875 0 0 1 1.875,1.875 1.875,1.875 0 0 1 -1.875,1.875 1.875,1.875 0 0 1 -1.875,-1.875 1.875,1.875 0 0 1 1.875,-1.875 z m 5.029297,0 a 1.875,1.875 0 0 1 1.875,1.875 1.875,1.875 0 0 1 -1.875,1.875 1.875,1.875 0 0 1 -1.875,-1.875 1.875,1.875 0 0 1 1.875,-1.875 z m -12.572265,3.855469 a 1.875,1.875 0 0 1 1.875,1.875 1.875,1.875 0 0 1 -1.875,1.875 1.875,1.875 0 0 1 -1.875,-1.875 1.875,1.875 0 0 1 1.875,-1.875 z m 5.029296,0 a 1.875,1.875 0 0 1 1.875,1.875 1.875,1.875 0 0 1 -1.875,1.875 1.875,1.875 0 0 1 -1.875,-1.875 1.875,1.875 0 0 1 1.875,-1.875 z m 5.027344,0 a 1.875,1.875 0 0 1 1.875,1.875 1.875,1.875 0 0 1 -1.875,1.875 1.875,1.875 0 0 1 -1.875,-1.875 1.875,1.875 0 0 1 1.875,-1.875 z m 5.029297,0 a 1.875,1.875 0 0 1 1.875005,1.875 1.875,1.875 0 0 1 -1.875005,1.875 1.875,1.875 0 0 1 -1.875,-1.875 1.875,1.875 0 0 1 1.875,-1.875 z m -12.572266,3.853516 a 1.875,1.875 0 0 1 1.875,1.875 1.875,1.875 0 0 1 -1.875,1.875 1.875,1.875 0 0 1 -1.875,-1.875 1.875,1.875 0 0 1 1.875,-1.875 z m 5.029297,0 a 1.875,1.875 0 0 1 1.875,1.875 1.875,1.875 0 0 1 -1.875,1.875 1.875,1.875 0 0 1 -1.875,-1.875 1.875,1.875 0 0 1 1.875,-1.875 z m 5.029297,0 a 1.875,1.875 0 0 1 1.875,1.875 1.875,1.875 0 0 1 -1.875,1.875 1.875,1.875 0 0 1 -1.875,-1.875 1.875,1.875 0 0 1 1.875,-1.875 z"
         style="opacity:1;vector-effect:none;fill:#000000;fill-opacity:1;stroke:none;stroke-width:1.30711532;stroke-linecap:round;stroke-linejoin:miter;stroke-miterlimit:4;stroke-dasharray:none;stroke-dashoffset:0;stroke-opacity:1"
         inkscape:connector-curvature="0" />
      <path
         sodipodi:nodetypes="csscccc"
         inkscape:connector-curvature="0"
         id="rect1058"
         d="m 5.2161116,13.580559 c 0.089072,0 0.1607793,0.07171 0.1607793,0.160779 v 4.729835 c 0,0.08907 -0.071708,0.16078 -0.1607793,0.16078 C 3.456374,17.008106 0.09588164,18.127075 -0.68010451,17.627814 V 14.584697 C 1.0226019,14.259545 3.5288017,15.035767 5.2161116,13.580559 Z"
         style="opacity:1;vector-effect:none;fill:#000000;fill-opacity:1;stroke:none;stroke-width:0.36500001;stroke-linecap:round;stroke-linejoin:miter;stroke-miterlimit:4;stroke-dasharray:none;stroke-dashoffset:0;stroke-opacity:1" />
    </g>
  </g>
</svg>
