<?xml version="1.0" encoding="UTF-8" standalone="no"?>
<!-- Created with Inkscape (http://www.inkscape.org/) -->

<svg
   width="120mm"
   height="23.016712mm"
   viewBox="0 0 120 23.016712"
   version="1.1"
   id="svg1100"
   inkscape:version="1.1.2 (0a00cf5339, 2022-02-04)"
   sodipodi:docname="LargeLRM.svg"
   xmlns:inkscape="http://www.inkscape.org/namespaces/inkscape"
   xmlns:sodipodi="http://sodipodi.sourceforge.net/DTD/sodipodi-0.dtd"
   xmlns="http://www.w3.org/2000/svg"
   xmlns:svg="http://www.w3.org/2000/svg"
   xmlns:rdf="http://www.w3.org/1999/02/22-rdf-syntax-ns#"
   xmlns:cc="http://creativecommons.org/ns#"
   xmlns:dc="http://purl.org/dc/elements/1.1/">
  <defs
     id="defs1094" />
  <sodipodi:namedview
     id="base"
     pagecolor="#ffffff"
     bordercolor="#666666"
     borderopacity="1.0"
     inkscape:pageopacity="0.0"
     inkscape:pageshadow="2"
     inkscape:zoom="2.8284274"
     inkscape:cx="159.80612"
     inkscape:cy="56.92209"
     inkscape:document-units="mm"
     inkscape:current-layer="layer1"
     showgrid="false"
     inkscape:window-width="1920"
     inkscape:window-height="1043"
     inkscape:window-x="1920"
     inkscape:window-y="0"
     inkscape:window-maximized="1"
     fit-margin-top="0"
     fit-margin-left="0"
     fit-margin-right="0"
     fit-margin-bottom="0"
     inkscape:snap-global="true"
     inkscape:snap-bbox="true"
     inkscape:pagecheckerboard="0" />
  <metadata
     id="metadata1097">
    <rdf:RDF>
      <cc:Work
         rdf:about="">
        <dc:format>image/svg+xml</dc:format>
        <dc:type
           rdf:resource="http://purl.org/dc/dcmitype/StillImage" />
        <dc:title />
      </cc:Work>
    </rdf:RDF>
  </metadata>
  <g
     inkscape:groupmode="layer"
     id="layer3"
     inkscape:label="Background"
     style="display:inline"
     sodipodi:insensitive="true" />
  <g
     inkscape:groupmode="layer"
     id="layer2"
     inkscape:label="Guias"
     style="display:none"
     transform="translate(0,0.2323513)">
    <g
       id="g1399"
       transform="translate(-6.7978492)">
      <rect
         y="11.402682"
         x="50.431446"
         height="11"
         width="74.99527"
         id="rect1878-3"
         style="display:inline;opacity:1;vector-effect:none;fill:#ffe680;fill-opacity:1;stroke:none;stroke-width:0.47467926;stroke-linecap:butt;stroke-linejoin:miter;stroke-miterlimit:4;stroke-dasharray:none;stroke-dashoffset:0;stroke-opacity:1" />
      <rect
         y="0.30218902"
         x="8.1689825"
         height="22.148087"
         width="42.262463"
         id="rect1868"
         style="display:inline;opacity:1;vector-effect:none;fill:#decd87;fill-opacity:1;stroke:none;stroke-width:0.39467782;stroke-linecap:butt;stroke-linejoin:miter;stroke-miterlimit:4;stroke-dasharray:none;stroke-dashoffset:0;stroke-opacity:1" />
      <rect
         y="0.39782956"
         x="50.431446"
         height="11"
         width="74.99527"
         id="rect1878"
         style="display:inline;opacity:1;vector-effect:none;fill:#deaa87;fill-opacity:1;stroke:none;stroke-width:0.47467929;stroke-linecap:butt;stroke-linejoin:miter;stroke-miterlimit:4;stroke-dasharray:none;stroke-dashoffset:0;stroke-opacity:1" />
      <rect
         y="12.891373"
         x="76.863533"
         height="8.0226164"
         width="22"
         id="rect1878-7-3"
         style="display:inline;opacity:1;vector-effect:none;fill:#eeffaa;fill-opacity:1;stroke:none;stroke-width:0.19344766;stroke-linecap:butt;stroke-linejoin:miter;stroke-miterlimit:4;stroke-dasharray:none;stroke-dashoffset:0;stroke-opacity:1" />
      <rect
         y="12.891415"
         x="103.2956"
         height="8.0226164"
         width="22"
         id="rect1878-7-56"
         style="display:inline;opacity:1;vector-effect:none;fill:#ccffaa;fill-opacity:1;stroke:none;stroke-width:0.21753596;stroke-linecap:butt;stroke-linejoin:miter;stroke-miterlimit:4;stroke-dasharray:none;stroke-dashoffset:0;stroke-opacity:1" />
      <rect
         y="12.680782"
         x="50.431446"
         height="8.443799"
         width="22"
         id="rect1878-7"
         style="display:inline;opacity:1;vector-effect:none;fill:#ff9955;fill-opacity:1;stroke:none;stroke-width:0.22317314;stroke-linecap:butt;stroke-linejoin:miter;stroke-miterlimit:4;stroke-dasharray:none;stroke-dashoffset:0;stroke-opacity:1" />
      <rect
         y="13.158642"
         x="77.363533"
         height="7.4880772"
         width="21"
         id="rect1878-7-2-7"
         style="display:inline;opacity:1;vector-effect:none;fill:#ddff55;fill-opacity:1;stroke:none;stroke-width:0.20533194;stroke-linecap:butt;stroke-linejoin:miter;stroke-miterlimit:4;stroke-dasharray:none;stroke-dashoffset:0;stroke-opacity:1" />
      <rect
         y="13.158684"
         x="103.7956"
         height="7.4880772"
         width="21"
         id="rect1878-7-2-7-0"
         style="display:inline;opacity:1;vector-effect:none;fill:#66ff00;fill-opacity:1;stroke:none;stroke-width:0.20533194;stroke-linecap:butt;stroke-linejoin:miter;stroke-miterlimit:4;stroke-dasharray:none;stroke-dashoffset:0;stroke-opacity:1" />
      <rect
         y="13.158642"
         x="50.931446"
         height="7.4880772"
         width="21"
         id="rect1878-7-2"
         style="display:inline;opacity:1;vector-effect:none;fill:#d45500;fill-opacity:1;stroke:none;stroke-width:0.20533194;stroke-linecap:butt;stroke-linejoin:miter;stroke-miterlimit:4;stroke-dasharray:none;stroke-dashoffset:0;stroke-opacity:1" />
    </g>
  </g>
  <g
     inkscape:label="Capa 1"
     inkscape:groupmode="layer"
     id="layer1"
     transform="translate(28.060163,-27.595709)"
     style="display:inline">
    <g
       transform="matrix(0.35279357,0,0,0.35279357,27.66483,22.56444)"
       id="layer1-6-3-2"
       inkscape:label="Capa 1" />
    <rect
       style="display:inline;opacity:1;fill:#ffffff;fill-opacity:1;stroke:none;stroke-width:0.71100003;stroke-miterlimit:4;stroke-dasharray:none;stroke-dashoffset:0;stroke-opacity:1"
       id="rect1126"
       width="119.99902"
       height="23.017704"
       x="-29.548445"
       y="27.595709" />
    <g
       style="display:inline"
       id="g9128"
       transform="translate(-107.62953,-199.34653)">
      <path
         inkscape:connector-curvature="0"
         id="path9084"
         d="M 83.843672,227.37459 H 195.29507"
         style="fill:none;stroke:#000000;stroke-width:0.40000001;stroke-linecap:butt;stroke-linejoin:miter;stroke-miterlimit:4;stroke-dasharray:none;stroke-opacity:1" />
      <path
         inkscape:connector-curvature="0"
         id="path9084-3"
         d="M 83.843669,249.75895 H 195.29507"
         style="fill:none;stroke:#000000;stroke-width:0.40000001;stroke-linecap:butt;stroke-linejoin:miter;stroke-miterlimit:4;stroke-dasharray:none;stroke-opacity:1" />
    </g>
    <g
       id="g2857"
       transform="translate(-15.222604,-26.734379)">
      <path
         inkscape:connector-curvature="0"
         id="path1183-8"
         d="m 55.228227,70.0514 v 5.58932"
         style="fill:none;stroke:#000000;stroke-width:0.26458332px;stroke-linecap:butt;stroke-linejoin:miter;stroke-opacity:1" />
      <text
         id="text1088-1-4"
         y="74.262497"
         x="57.754707"
         style="font-style:normal;font-weight:normal;font-size:132.329px;line-height:1.25;font-family:sans-serif;letter-spacing:0px;word-spacing:0px;fill:#000000;fill-opacity:1;stroke:none;stroke-width:0.220548"
         xml:space="preserve"><tspan
           style="font-size:2.64658px;stroke-width:0.220548"
           y="74.262497"
           x="57.754707"
           id="tspan1086-8-3"
           sodipodi:role="line">20</tspan></text>
      <text
         id="text1088-0-9-1"
         y="74.243759"
         x="75.745132"
         style="font-style:normal;font-weight:normal;font-size:132.329px;line-height:1.25;font-family:sans-serif;letter-spacing:0px;word-spacing:0px;fill:#000000;fill-opacity:1;stroke:none;stroke-width:0.220548"
         xml:space="preserve"><tspan
           style="font-size:2.64658px;stroke-width:0.220548"
           y="74.243759"
           x="75.745132"
           id="tspan1086-9-2-4"
           sodipodi:role="line">50</tspan></text>
      <g
         transform="translate(7.0939533,31.616953)"
         id="g908">
        <g
           transform="matrix(0.35279357,0,0,0.35279357,52.988044,22.56444)"
           id="layer1-6-8-10"
           inkscape:label="Capa 1">
          <path
             sodipodi:nodetypes="cccssssssccscscccccsscscssccscsccscccccsscsssscs"
             inkscape:connector-curvature="0"
             id="path828-79-6"
             d="m 15.55133,51.922274 c -0.685146,-0.279517 -3.20637,-1.507059 -3.324727,-1.618753 -0.03438,-0.03244 -0.07718,-0.127286 -0.09554,-0.211722 -0.08948,-0.411375 -0.262648,-1.722668 -0.332832,-2.520399 -0.05025,-0.57112 -0.0596,-2.009074 -0.01364,-2.094972 0.04031,-0.07531 0.184184,-0.143729 0.562025,-0.267256 0.722856,-0.236322 1.733468,-0.499615 2.410752,-0.628071 0.275408,-0.05224 0.396016,-0.0603 0.707347,-0.04732 0.415417,0.01732 1.429283,0.142198 2.38188,0.293384 0.766175,0.121598 1.019543,0.178219 1.103853,0.246676 l 0.06543,0.05313 -0.0077,1.496494 c -0.0081,1.566318 -0.04308,2.635128 -0.0968,2.95367 -0.03024,0.179307 -0.04114,0.197626 -0.223796,0.376151 -0.196508,0.192058 -2.306176,1.852072 -2.49635,1.964276 -0.172205,0.101604 -0.398334,0.103271 -0.639907,0.0047 z m 0.681956,-0.312805 c 0.354128,-0.250525 1.358355,-1.012126 1.81541,-1.376797 0.537371,-0.428752 0.598921,-0.493547 0.633573,-0.666962 0.06192,-0.309915 0.154976,-1.794696 0.205292,-3.275805 0.02806,-0.82606 0.02665,-0.940151 -0.01209,-0.978893 -0.05115,-0.05115 -0.07672,-0.04286 -1.158797,0.375245 -1.269982,0.490712 -1.8449,0.758627 -1.912296,0.891141 -0.06033,0.118622 -0.03326,2.613007 0.04901,4.516299 0.02534,0.586113 0.04026,0.707347 0.08705,0.707347 0.01213,0 0.143904,-0.08621 0.292842,-0.191575 z m -0.622651,-1.013802 c -0.01218,-0.535923 -0.02681,-1.694557 -0.03252,-2.574744 -0.0081,-1.255585 -0.01836,-1.607633 -0.04745,-1.63421 -0.106289,-0.0971 -3.10159,-0.677511 -3.496415,-0.677511 h -0.135139 l 3.71e-4,0.281495 c 5.78e-4,0.445614 0.107808,1.632044 0.261587,2.894346 0.106753,0.876288 0.163675,1.197828 0.22476,1.269608 0.108101,0.127026 1.297194,0.741581 1.931131,0.998059 0.417345,0.168849 1.151926,0.414027 1.246224,0.415946 l 0.06959,0.0014 z m 0.778946,-4.666157 c 0.521312,-0.175316 1.631211,-0.587253 1.882404,-0.698649 0.123751,-0.05488 0.155359,-0.08002 0.123166,-0.09796 -0.08273,-0.04609 -1.835693,-0.312599 -2.781117,-0.422813 -0.349053,-0.04069 -0.466344,-0.04391 -0.635169,-0.01741 -0.320219,0.05026 -2.598014,0.698144 -2.656719,0.755658 -0.03178,0.03113 0.194652,0.08146 1.179323,0.262104 1.326108,0.243286 2.097867,0.369927 2.267379,0.372065 0.120438,0.0015 0.273269,-0.03615 0.620733,-0.153004 z"
             style="fill:#000000;stroke:#000000;stroke-width:0.229;stroke-miterlimit:4;stroke-dasharray:none;stroke-opacity:1" />
        </g>
        <path
           transform="matrix(0.35279356,0,0,0.35279356,55.940775,22.56444)"
           sodipodi:nodetypes="cccssssssccscscccccsscscssccscsccscccccsscsssscs"
           inkscape:connector-curvature="0"
           id="path828-6-0-0"
           d="m 15.55133,51.922274 c -0.685146,-0.279517 -3.20637,-1.507059 -3.324727,-1.618753 -0.03438,-0.03244 -0.07718,-0.127286 -0.09554,-0.211722 -0.08948,-0.411375 -0.262648,-1.722668 -0.332832,-2.520399 -0.05025,-0.57112 -0.0596,-2.009074 -0.01364,-2.094972 0.04031,-0.07531 0.184184,-0.143729 0.562025,-0.267256 0.722856,-0.236322 1.733468,-0.499615 2.410752,-0.628071 0.275408,-0.05224 0.396016,-0.0603 0.707347,-0.04732 0.415417,0.01732 1.429283,0.142198 2.38188,0.293384 0.766175,0.121598 1.019543,0.178219 1.103853,0.246676 l 0.06543,0.05313 -0.0077,1.496494 c -0.0081,1.566318 -0.04308,2.635128 -0.0968,2.95367 -0.03024,0.179307 -0.04114,0.197626 -0.223796,0.376151 -0.196508,0.192058 -2.306176,1.852072 -2.49635,1.964276 -0.172205,0.101604 -0.398334,0.103271 -0.639907,0.0047 z m 0.681956,-0.312805 c 0.354128,-0.250525 1.358355,-1.012126 1.81541,-1.376797 0.537371,-0.428752 0.598921,-0.493547 0.633573,-0.666962 0.06192,-0.309915 0.154976,-1.794696 0.205292,-3.275805 0.02806,-0.82606 0.02665,-0.940151 -0.01209,-0.978893 -0.05115,-0.05115 -0.07672,-0.04286 -1.158797,0.375245 -1.269982,0.490712 -1.8449,0.758627 -1.912296,0.891141 -0.06033,0.118622 -0.03326,2.613007 0.04901,4.516299 0.02534,0.586113 0.04026,0.707347 0.08705,0.707347 0.01213,0 0.143904,-0.08621 0.292842,-0.191575 z m -0.622651,-1.013802 c -0.01218,-0.535923 -0.02681,-1.694557 -0.03252,-2.574744 -0.0081,-1.255585 -0.01836,-1.607633 -0.04745,-1.63421 -0.106289,-0.0971 -3.10159,-0.677511 -3.496415,-0.677511 h -0.135139 l 3.71e-4,0.281495 c 5.78e-4,0.445614 0.107808,1.632044 0.261587,2.894346 0.106753,0.876288 0.163675,1.197828 0.22476,1.269608 0.108101,0.127026 1.297194,0.741581 1.931131,0.998059 0.417345,0.168849 1.151926,0.414027 1.246224,0.415946 l 0.06959,0.0014 z m 0.778946,-4.666157 c 0.521312,-0.175316 1.631211,-0.587253 1.882404,-0.698649 0.123751,-0.05488 0.155359,-0.08002 0.123166,-0.09796 -0.08273,-0.04609 -1.835693,-0.312599 -2.781117,-0.422813 -0.349053,-0.04069 -0.466344,-0.04391 -0.635169,-0.01741 -0.320219,0.05026 -2.598014,0.698144 -2.656719,0.755658 -0.03178,0.03113 0.194652,0.08146 1.179323,0.262104 1.326108,0.243286 2.097867,0.369927 2.267379,0.372065 0.120438,0.0015 0.273269,-0.03615 0.620733,-0.153004 z"
           style="fill:#000000;stroke:#000000;stroke-width:0.229;stroke-miterlimit:4;stroke-dasharray:none;stroke-opacity:1" />
        <g
           transform="matrix(0.35279357,0,0,0.35279357,58.893544,22.56444)"
           id="layer1-6-75-2-6"
           inkscape:label="Capa 1">
          <path
             sodipodi:nodetypes="cccssssssccscscccccsscscssccscsccscccccsscsssscs"
             inkscape:connector-curvature="0"
             id="path828-35-3-1"
             d="m 15.55133,51.922274 c -0.685146,-0.279517 -3.20637,-1.507059 -3.324727,-1.618753 -0.03438,-0.03244 -0.07718,-0.127286 -0.09554,-0.211722 -0.08948,-0.411375 -0.262648,-1.722668 -0.332832,-2.520399 -0.05025,-0.57112 -0.0596,-2.009074 -0.01364,-2.094972 0.04031,-0.07531 0.184184,-0.143729 0.562025,-0.267256 0.722856,-0.236322 1.733468,-0.499615 2.410752,-0.628071 0.275408,-0.05224 0.396016,-0.0603 0.707347,-0.04732 0.415417,0.01732 1.429283,0.142198 2.38188,0.293384 0.766175,0.121598 1.019543,0.178219 1.103853,0.246676 l 0.06543,0.05313 -0.0077,1.496494 c -0.0081,1.566318 -0.04308,2.635128 -0.0968,2.95367 -0.03024,0.179307 -0.04114,0.197626 -0.223796,0.376151 -0.196508,0.192058 -2.306176,1.852072 -2.49635,1.964276 -0.172205,0.101604 -0.398334,0.103271 -0.639907,0.0047 z m 0.681956,-0.312805 c 0.354128,-0.250525 1.358355,-1.012126 1.81541,-1.376797 0.537371,-0.428752 0.598921,-0.493547 0.633573,-0.666962 0.06192,-0.309915 0.154976,-1.794696 0.205292,-3.275805 0.02806,-0.82606 0.02665,-0.940151 -0.01209,-0.978893 -0.05115,-0.05115 -0.07672,-0.04286 -1.158797,0.375245 -1.269982,0.490712 -1.8449,0.758627 -1.912296,0.891141 -0.06033,0.118622 -0.03326,2.613007 0.04901,4.516299 0.02534,0.586113 0.04026,0.707347 0.08705,0.707347 0.01213,0 0.143904,-0.08621 0.292842,-0.191575 z m -0.622651,-1.013802 c -0.01218,-0.535923 -0.02681,-1.694557 -0.03252,-2.574744 -0.0081,-1.255585 -0.01836,-1.607633 -0.04745,-1.63421 -0.106289,-0.0971 -3.10159,-0.677511 -3.496415,-0.677511 h -0.135139 l 3.71e-4,0.281495 c 5.78e-4,0.445614 0.107808,1.632044 0.261587,2.894346 0.106753,0.876288 0.163675,1.197828 0.22476,1.269608 0.108101,0.127026 1.297194,0.741581 1.931131,0.998059 0.417345,0.168849 1.151926,0.414027 1.246224,0.415946 l 0.06959,0.0014 z m 0.778946,-4.666157 c 0.521312,-0.175316 1.631211,-0.587253 1.882404,-0.698649 0.123751,-0.05488 0.155359,-0.08002 0.123166,-0.09796 -0.08273,-0.04609 -1.835693,-0.312599 -2.781117,-0.422813 -0.349053,-0.04069 -0.466344,-0.04391 -0.635169,-0.01741 -0.320219,0.05026 -2.598014,0.698144 -2.656719,0.755658 -0.03178,0.03113 0.194652,0.08146 1.179323,0.262104 1.326108,0.243286 2.097867,0.369927 2.267379,0.372065 0.120438,0.0015 0.273269,-0.03615 0.620733,-0.153004 z"
             style="fill:#000000;stroke:#000000;stroke-width:0.229;stroke-miterlimit:4;stroke-dasharray:none;stroke-opacity:1" />
        </g>
      </g>
      <path
         sodipodi:nodetypes="cc"
         inkscape:connector-curvature="0"
         id="path1090-2-9"
         d="M 61.46265,73.292122 H 75.462651"
         style="fill:none;stroke:#000000;stroke-width:0.20910574;stroke-linecap:butt;stroke-linejoin:miter;stroke-miterlimit:4;stroke-dasharray:1.67284597, 0.20910574;stroke-dashoffset:0;stroke-opacity:1" />
      <text
         id="text1088-8-2"
         y="74.243759"
         x="84.208481"
         style="font-style:normal;font-weight:normal;font-size:132.329px;line-height:1.25;font-family:sans-serif;letter-spacing:0px;word-spacing:0px;fill:#000000;fill-opacity:1;stroke:none;stroke-width:0.220548"
         xml:space="preserve"><tspan
           style="font-size:2.64658px;stroke-width:0.220548"
           y="74.243759"
           x="84.208481"
           id="tspan1086-97-0"
           sodipodi:role="line">50</tspan></text>
      <text
         id="text1088-0-6-6"
         y="74.226318"
         x="102.2963"
         style="font-style:normal;font-weight:normal;font-size:132.329px;line-height:1.25;font-family:sans-serif;letter-spacing:0px;word-spacing:0px;fill:#000000;fill-opacity:1;stroke:none;stroke-width:0.220548"
         xml:space="preserve"><tspan
           style="font-size:2.64658px;stroke-width:0.220548"
           y="74.226318"
           x="102.2963"
           id="tspan1086-9-1-8"
           sodipodi:role="line">80</tspan></text>
      <g
         transform="translate(6.7632243,31.616953)"
         id="g900">
        <g
           transform="matrix(0.35279357,0,0,0.35279357,79.787619,22.56444)"
           id="layer1-6-8-6"
           inkscape:label="Capa 1">
          <path
             sodipodi:nodetypes="cccssssssccscscccccsscscssccscsccscccccsscsssscs"
             inkscape:connector-curvature="0"
             id="path828-79-9"
             d="m 15.55133,51.922274 c -0.685146,-0.279517 -3.20637,-1.507059 -3.324727,-1.618753 -0.03438,-0.03244 -0.07718,-0.127286 -0.09554,-0.211722 -0.08948,-0.411375 -0.262648,-1.722668 -0.332832,-2.520399 -0.05025,-0.57112 -0.0596,-2.009074 -0.01364,-2.094972 0.04031,-0.07531 0.184184,-0.143729 0.562025,-0.267256 0.722856,-0.236322 1.733468,-0.499615 2.410752,-0.628071 0.275408,-0.05224 0.396016,-0.0603 0.707347,-0.04732 0.415417,0.01732 1.429283,0.142198 2.38188,0.293384 0.766175,0.121598 1.019543,0.178219 1.103853,0.246676 l 0.06543,0.05313 -0.0077,1.496494 c -0.0081,1.566318 -0.04308,2.635128 -0.0968,2.95367 -0.03024,0.179307 -0.04114,0.197626 -0.223796,0.376151 -0.196508,0.192058 -2.306176,1.852072 -2.49635,1.964276 -0.172205,0.101604 -0.398334,0.103271 -0.639907,0.0047 z m 0.681956,-0.312805 c 0.354128,-0.250525 1.358355,-1.012126 1.81541,-1.376797 0.537371,-0.428752 0.598921,-0.493547 0.633573,-0.666962 0.06192,-0.309915 0.154976,-1.794696 0.205292,-3.275805 0.02806,-0.82606 0.02665,-0.940151 -0.01209,-0.978893 -0.05115,-0.05115 -0.07672,-0.04286 -1.158797,0.375245 -1.269982,0.490712 -1.8449,0.758627 -1.912296,0.891141 -0.06033,0.118622 -0.03326,2.613007 0.04901,4.516299 0.02534,0.586113 0.04026,0.707347 0.08705,0.707347 0.01213,0 0.143904,-0.08621 0.292842,-0.191575 z m -0.622651,-1.013802 c -0.01218,-0.535923 -0.02681,-1.694557 -0.03252,-2.574744 -0.0081,-1.255585 -0.01836,-1.607633 -0.04745,-1.63421 -0.106289,-0.0971 -3.10159,-0.677511 -3.496415,-0.677511 h -0.135139 l 3.71e-4,0.281495 c 5.78e-4,0.445614 0.107808,1.632044 0.261587,2.894346 0.106753,0.876288 0.163675,1.197828 0.22476,1.269608 0.108101,0.127026 1.297194,0.741581 1.931131,0.998059 0.417345,0.168849 1.151926,0.414027 1.246224,0.415946 l 0.06959,0.0014 z m 0.778946,-4.666157 c 0.521312,-0.175316 1.631211,-0.587253 1.882404,-0.698649 0.123751,-0.05488 0.155359,-0.08002 0.123166,-0.09796 -0.08273,-0.04609 -1.835693,-0.312599 -2.781117,-0.422813 -0.349053,-0.04069 -0.466344,-0.04391 -0.635169,-0.01741 -0.320219,0.05026 -2.598014,0.698144 -2.656719,0.755658 -0.03178,0.03113 0.194652,0.08146 1.179323,0.262104 1.326108,0.243286 2.097867,0.369927 2.267379,0.372065 0.120438,0.0015 0.273269,-0.03615 0.620733,-0.153004 z"
             style="fill:#000000;stroke:#000000;stroke-width:0.229;stroke-miterlimit:4;stroke-dasharray:none;stroke-opacity:1" />
        </g>
        <g
           transform="matrix(0.35279357,0,0,0.35279357,82.740349,22.56444)"
           id="layer1-6-3-2-37"
           inkscape:label="Capa 1">
          <path
             sodipodi:nodetypes="cccssssssccscscccccsscscssccscsccscccccsscsssscs"
             inkscape:connector-curvature="0"
             id="path828-6-0-4"
             d="m 15.55133,51.922274 c -0.685146,-0.279517 -3.20637,-1.507059 -3.324727,-1.618753 -0.03438,-0.03244 -0.07718,-0.127286 -0.09554,-0.211722 -0.08948,-0.411375 -0.262648,-1.722668 -0.332832,-2.520399 -0.05025,-0.57112 -0.0596,-2.009074 -0.01364,-2.094972 0.04031,-0.07531 0.184184,-0.143729 0.562025,-0.267256 0.722856,-0.236322 1.733468,-0.499615 2.410752,-0.628071 0.275408,-0.05224 0.396016,-0.0603 0.707347,-0.04732 0.415417,0.01732 1.429283,0.142198 2.38188,0.293384 0.766175,0.121598 1.019543,0.178219 1.103853,0.246676 l 0.06543,0.05313 -0.0077,1.496494 c -0.0081,1.566318 -0.04308,2.635128 -0.0968,2.95367 -0.03024,0.179307 -0.04114,0.197626 -0.223796,0.376151 -0.196508,0.192058 -2.306176,1.852072 -2.49635,1.964276 -0.172205,0.101604 -0.398334,0.103271 -0.639907,0.0047 z m 0.681956,-0.312805 c 0.354128,-0.250525 1.358355,-1.012126 1.81541,-1.376797 0.537371,-0.428752 0.598921,-0.493547 0.633573,-0.666962 0.06192,-0.309915 0.154976,-1.794696 0.205292,-3.275805 0.02806,-0.82606 0.02665,-0.940151 -0.01209,-0.978893 -0.05115,-0.05115 -0.07672,-0.04286 -1.158797,0.375245 -1.269982,0.490712 -1.8449,0.758627 -1.912296,0.891141 -0.06033,0.118622 -0.03326,2.613007 0.04901,4.516299 0.02534,0.586113 0.04026,0.707347 0.08705,0.707347 0.01213,0 0.143904,-0.08621 0.292842,-0.191575 z m -0.622651,-1.013802 c -0.01218,-0.535923 -0.02681,-1.694557 -0.03252,-2.574744 -0.0081,-1.255585 -0.01836,-1.607633 -0.04745,-1.63421 -0.106289,-0.0971 -3.10159,-0.677511 -3.496415,-0.677511 h -0.135139 l 3.71e-4,0.281495 c 5.78e-4,0.445614 0.107808,1.632044 0.261587,2.894346 0.106753,0.876288 0.163675,1.197828 0.22476,1.269608 0.108101,0.127026 1.297194,0.741581 1.931131,0.998059 0.417345,0.168849 1.151926,0.414027 1.246224,0.415946 l 0.06959,0.0014 z m 0.778946,-4.666157 c 0.521312,-0.175316 1.631211,-0.587253 1.882404,-0.698649 0.123751,-0.05488 0.155359,-0.08002 0.123166,-0.09796 -0.08273,-0.04609 -1.835693,-0.312599 -2.781117,-0.422813 -0.349053,-0.04069 -0.466344,-0.04391 -0.635169,-0.01741 -0.320219,0.05026 -2.598014,0.698144 -2.656719,0.755658 -0.03178,0.03113 0.194652,0.08146 1.179323,0.262104 1.326108,0.243286 2.097867,0.369927 2.267379,0.372065 0.120438,0.0015 0.273269,-0.03615 0.620733,-0.153004 z"
             style="fill:#000000;stroke:#000000;stroke-width:0.229;stroke-miterlimit:4;stroke-dasharray:none;stroke-opacity:1" />
        </g>
        <g
           transform="matrix(0.35279357,0,0,0.35279357,85.693119,22.56444)"
           id="layer1-6-75-2-5"
           inkscape:label="Capa 1">
          <path
             sodipodi:nodetypes="cccssssssccscscccccsscscssccscsccscccccsscsssscs"
             inkscape:connector-curvature="0"
             id="path828-35-3-2"
             d="m 15.55133,51.922274 c -0.685146,-0.279517 -3.20637,-1.507059 -3.324727,-1.618753 -0.03438,-0.03244 -0.07718,-0.127286 -0.09554,-0.211722 -0.08948,-0.411375 -0.262648,-1.722668 -0.332832,-2.520399 -0.05025,-0.57112 -0.0596,-2.009074 -0.01364,-2.094972 0.04031,-0.07531 0.184184,-0.143729 0.562025,-0.267256 0.722856,-0.236322 1.733468,-0.499615 2.410752,-0.628071 0.275408,-0.05224 0.396016,-0.0603 0.707347,-0.04732 0.415417,0.01732 1.429283,0.142198 2.38188,0.293384 0.766175,0.121598 1.019543,0.178219 1.103853,0.246676 l 0.06543,0.05313 -0.0077,1.496494 c -0.0081,1.566318 -0.04308,2.635128 -0.0968,2.95367 -0.03024,0.179307 -0.04114,0.197626 -0.223796,0.376151 -0.196508,0.192058 -2.306176,1.852072 -2.49635,1.964276 -0.172205,0.101604 -0.398334,0.103271 -0.639907,0.0047 z m 0.681956,-0.312805 c 0.354128,-0.250525 1.358355,-1.012126 1.81541,-1.376797 0.537371,-0.428752 0.598921,-0.493547 0.633573,-0.666962 0.06192,-0.309915 0.154976,-1.794696 0.205292,-3.275805 0.02806,-0.82606 0.02665,-0.940151 -0.01209,-0.978893 -0.05115,-0.05115 -0.07672,-0.04286 -1.158797,0.375245 -1.269982,0.490712 -1.8449,0.758627 -1.912296,0.891141 -0.06033,0.118622 -0.03326,2.613007 0.04901,4.516299 0.02534,0.586113 0.04026,0.707347 0.08705,0.707347 0.01213,0 0.143904,-0.08621 0.292842,-0.191575 z m -0.622651,-1.013802 c -0.01218,-0.535923 -0.02681,-1.694557 -0.03252,-2.574744 -0.0081,-1.255585 -0.01836,-1.607633 -0.04745,-1.63421 -0.106289,-0.0971 -3.10159,-0.677511 -3.496415,-0.677511 h -0.135139 l 3.71e-4,0.281495 c 5.78e-4,0.445614 0.107808,1.632044 0.261587,2.894346 0.106753,0.876288 0.163675,1.197828 0.22476,1.269608 0.108101,0.127026 1.297194,0.741581 1.931131,0.998059 0.417345,0.168849 1.151926,0.414027 1.246224,0.415946 l 0.06959,0.0014 z m 0.778946,-4.666157 c 0.521312,-0.175316 1.631211,-0.587253 1.882404,-0.698649 0.123751,-0.05488 0.155359,-0.08002 0.123166,-0.09796 -0.08273,-0.04609 -1.835693,-0.312599 -2.781117,-0.422813 -0.349053,-0.04069 -0.466344,-0.04391 -0.635169,-0.01741 -0.320219,0.05026 -2.598014,0.698144 -2.656719,0.755658 -0.03178,0.03113 0.194652,0.08146 1.179323,0.262104 1.326108,0.243286 2.097867,0.369927 2.267379,0.372065 0.120438,0.0015 0.273269,-0.03615 0.620733,-0.153004 z"
             style="fill:#000000;stroke:#000000;stroke-width:0.229;stroke-miterlimit:4;stroke-dasharray:none;stroke-opacity:1" />
        </g>
      </g>
      <path
         sodipodi:nodetypes="cc"
         inkscape:connector-curvature="0"
         id="path1090-2-1-9"
         d="M 87.931495,73.292122 H 101.9315"
         style="fill:none;stroke:#000000;stroke-width:0.20910574;stroke-linecap:butt;stroke-linejoin:miter;stroke-miterlimit:4;stroke-dasharray:0.62731724, 0.20910574;stroke-dashoffset:0;stroke-opacity:1" />
      <path
         inkscape:connector-curvature="0"
         id="path1183-2-2"
         d="m 81.697075,70.235148 v 5.58932"
         style="fill:none;stroke:#000000;stroke-width:0.26458332px;stroke-linecap:butt;stroke-linejoin:miter;stroke-opacity:1" />
      <text
         id="text1088-6"
         y="74.245056"
         x="31.246523"
         style="font-style:normal;font-weight:normal;font-size:132.329px;line-height:1.25;font-family:sans-serif;letter-spacing:0px;word-spacing:0px;fill:#000000;fill-opacity:1;stroke:none;stroke-width:0.220548"
         xml:space="preserve"><tspan
           style="font-size:2.64658px;stroke-width:0.220548"
           y="74.245056"
           x="31.246523"
           id="tspan1086-6"
           sodipodi:role="line">1</tspan></text>
      <path
         sodipodi:nodetypes="cc"
         inkscape:connector-curvature="0"
         id="path1090-4"
         d="m 34.993806,73.292122 h 14"
         style="fill:none;stroke:#000000;stroke-width:0.2093017px;stroke-linecap:butt;stroke-linejoin:miter;stroke-opacity:1" />
      <text
         id="text1088-0-95"
         y="74.262497"
         x="49.381222"
         style="font-style:normal;font-weight:normal;font-size:132.329px;line-height:1.25;font-family:sans-serif;letter-spacing:0px;word-spacing:0px;fill:#000000;fill-opacity:1;stroke:none;stroke-width:0.220548"
         xml:space="preserve"><tspan
           style="font-size:2.64658px;stroke-width:0.220548"
           y="74.262497"
           x="49.381222"
           id="tspan1086-9-0"
           sodipodi:role="line">20</tspan></text>
      <path
         inkscape:connector-curvature="0"
         id="path1524"
         d="m 41.893301,72.571629 c -0.32721,-0.0309 -0.608,-0.1648 -0.83408,-0.39766 -0.2053,-0.21148 -0.33063,-0.46763 -0.37577,-0.76802 -0.0146,-0.0964 -0.0146,-0.2929 0,-0.38932 0.0451,-0.30039 0.17047,-0.55655 0.37577,-0.76802 0.2053,-0.21146 0.45398,-0.34056 0.74561,-0.38706 0.0936,-0.0149 0.28435,-0.0149 0.37795,0 0.29163,0.0465 0.54032,0.1756 0.74561,0.38706 0.20529,0.21147 0.33063,0.46763 0.37577,0.76802 0.0146,0.0964 0.0146,0.2929 0,0.38932 -0.0451,0.30039 -0.17048,0.55654 -0.37577,0.76802 -0.20369,0.2098 -0.45536,0.34113 -0.73948,0.38588 -0.0606,0.01 -0.24253,0.0168 -0.29561,0.0118 z m 0.28674,-0.4043 c 0.37902,-0.0826 0.66052,-0.37337 0.74277,-0.76726 0.0114,-0.0546 0.0134,-0.0821 0.0134,-0.18878 0,-0.13727 -0.008,-0.19521 -0.0442,-0.30753 -0.0193,-0.0605 -0.0832,-0.19821 -0.0976,-0.21054 -0.008,-0.007 -0.0985,0.0842 -0.66014,0.66271 -0.52709,0.54293 -0.64968,0.67214 -0.64415,0.67901 0.0112,0.0138 0.11799,0.0686 0.17857,0.0916 0.0594,0.0225 0.14302,0.0439 0.20692,0.053 0.0658,0.009 0.23732,0.003 0.30447,-0.0122 z m -0.32558,-1.10178 c 0.56058,-0.57744 0.64885,-0.67074 0.6423,-0.67888 -0.012,-0.0148 -0.1457,-0.0806 -0.2044,-0.10052 -0.10905,-0.037 -0.16529,-0.0455 -0.29856,-0.0455 -0.10356,0 -0.13023,0.002 -0.18327,0.0138 -0.34077,0.0755 -0.6073,0.3177 -0.71464,0.6494 -0.036,0.11106 -0.0444,0.16988 -0.0444,0.30753 0,0.13764 0.008,0.19646 0.0444,0.30752 0.0273,0.0846 0.0909,0.21619 0.10432,0.21619 0.003,0 0.29681,-0.30125 0.65425,-0.66945 z"
         style="fill:#000000;stroke-width:0.00600021" />
    </g>
    <g
       id="g2751"
       transform="matrix(1.3240558,0,0,1.3240565,-26.069795,15.084269)">
      <circle
         r="2.9059739"
         cy="14.878485"
         cx="35.100636"
         id="path1760-3-3-8"
         style="opacity:1;vector-effect:none;fill:#ffffff;fill-opacity:1;stroke:#000000;stroke-width:0.31159922;stroke-linecap:butt;stroke-linejoin:miter;stroke-miterlimit:4;stroke-dasharray:none;stroke-dashoffset:0;stroke-opacity:1" />
      <path
         inkscape:export-ydpi="300"
         inkscape:export-xdpi="300"
         inkscape:export-filename="1missile.png"
         id="path974-3-6-6"
         d="m 36.329334,13.434034 c -0.18505,0.0038 -0.351646,0.03974 -0.481696,0.105405 -0.04656,0.02355 -0.139878,0.09825 -0.216179,0.172785 -0.07364,0.07195 -0.141366,0.135122 -0.141772,0.140353 l -2.76e-4,-2.83e-4 c 0,0 -3.07e-4,4.91e-4 -3.07e-4,4.91e-4 -4.31e-4,3.75e-4 -0.261698,0.261429 -0.470973,0.470704 -0.01281,-0.0054 -0.09448,-0.01043 -0.202096,-0.01043 h -0.211684 l -0.371766,0.372902 c -0.204528,0.205156 -0.371767,0.380818 -0.371767,0.390376 0,0.0095 0.01066,0.02823 0.02401,0.04142 0.01879,0.01879 0.05884,0.02416 0.180387,0.02416 h 0.149941 c -0.04687,0.04932 -0.130772,0.1347 -0.130772,0.137822 0,0.0061 0.02953,0.04027 0.07019,0.08456 -0.0976,0.01097 -0.217491,0.06582 -0.345279,0.161785 -0.107767,0.08092 -0.126676,0.114227 -0.08821,0.156708 0.02117,0.0234 0.03951,0.02738 0.09357,0.02002 0.03697,-0.0054 0.06704,-0.0054 0.06704,0 0,0.0054 -0.03145,0.05776 -0.06988,0.117248 -0.08021,0.123953 -0.111196,0.191495 -0.138389,0.299892 -0.02777,0.110513 -0.02577,0.141603 0.01043,0.177856 0.02731,0.02731 0.04296,0.03068 0.103449,0.02171 0.115323,-0.01711 0.231091,-0.06405 0.35993,-0.146 0.06635,-0.04227 0.124566,-0.07663 0.129368,-0.07663 0.0046,0 0.0046,0.03015 -4.83e-4,0.06704 -0.0069,0.05408 -0.0038,0.07241 0.01971,0.09358 0.0425,0.03851 0.07602,0.01987 0.157007,-0.08795 0.09574,-0.127482 0.15047,-0.247752 0.161493,-0.344988 0.04403,0.04035 0.07772,0.06965 0.08395,0.06965 0.0038,0 0.08145,-0.07464 0.138397,-0.12824 v 0.06482 c 0,0.121689 0.0054,0.161617 0.02416,0.180387 0.01327,0.01327 0.03183,0.02416 0.04142,0.02416 0.0095,0 0.185205,-0.167239 0.390369,-0.371766 l 0.373185,-0.37206 v -0.211392 c 0,-0.04963 -0.0015,-0.09122 -0.0023,-0.127397 l 0.463088,-0.463088 0.13022,-0.129376 c 0.207794,-0.206706 0.283383,-0.392838 0.289182,-0.71028 0.0038,-0.219846 0.0038,-0.220214 -0.216187,-0.216179 z"
         style="fill:#000000;stroke:#000000;stroke-width:0.06394002;stroke-miterlimit:4;stroke-dasharray:none;stroke-opacity:1"
         inkscape:connector-curvature="0" />
    </g>
    <g
       style="display:inline"
       id="g1033"
       transform="translate(19.247686,66.198426)">
      <rect
         y="-36.617252"
         x="21.17853"
         height="8.2894325"
         width="8.2894325"
         id="rect925-7-3-61-49-09"
         style="display:inline;opacity:1;vector-effect:none;fill:#ffffff;fill-opacity:1;stroke:#000000;stroke-width:0.71056741;stroke-linecap:butt;stroke-linejoin:miter;stroke-miterlimit:4;stroke-dasharray:none;stroke-dashoffset:0;stroke-opacity:1" />
      <rect
         y="-36.617252"
         x="31.46801"
         height="8.2894325"
         width="8.2894325"
         id="rect925-7-3-61-49-0-6"
         style="display:inline;opacity:1;vector-effect:none;fill:#ffffff;fill-opacity:1;stroke:#000000;stroke-width:0.71056741;stroke-linecap:butt;stroke-linejoin:miter;stroke-miterlimit:4;stroke-dasharray:none;stroke-dashoffset:0;stroke-opacity:1" />
      <rect
         y="-36.617252"
         x="41.757488"
         height="8.2894325"
         width="8.2894325"
         id="rect925-7-3-61-49-9-3"
         style="display:inline;opacity:1;vector-effect:none;fill:#ffffff;fill-opacity:1;stroke:#000000;stroke-width:0.71056741;stroke-linecap:butt;stroke-linejoin:miter;stroke-miterlimit:4;stroke-dasharray:none;stroke-dashoffset:0;stroke-opacity:1" />
      <rect
         y="-36.617252"
         x="52.046974"
         height="8.2894325"
         width="8.2894325"
         id="rect925-7-3-61-49-1-8"
         style="display:inline;opacity:1;vector-effect:none;fill:#ffffff;fill-opacity:1;stroke:#000000;stroke-width:0.71056741;stroke-linecap:butt;stroke-linejoin:miter;stroke-miterlimit:4;stroke-dasharray:none;stroke-dashoffset:0;stroke-opacity:1" />
      <rect
         y="-36.617252"
         x="62.336449"
         height="8.2894325"
         width="8.2894325"
         id="rect925-7-3-61-49-7-5"
         style="display:inline;opacity:1;vector-effect:none;fill:#ffffff;fill-opacity:1;stroke:#000000;stroke-width:0.71056741;stroke-linecap:butt;stroke-linejoin:miter;stroke-miterlimit:4;stroke-dasharray:none;stroke-dashoffset:0;stroke-opacity:1" />
    </g>
    <g
       id="g1141"
       transform="translate(3.3423961)">
      <path
         inkscape:export-ydpi="300"
         inkscape:export-xdpi="300"
         inkscape:export-filename="1flame.png"
         sodipodi:nodetypes="ccccsccccscccccscscccsccccccc"
         inkscape:connector-curvature="0"
         id="path826-3-7"
         d="m -21.229588,48.958131 c -0.74036,-0.42454 -1.16313,-1.30599 -1.029019,-2.14547 0.0723,-0.45236 0.205399,-0.75728 0.512809,-1.17452 0.85526,-1.16082 1.011211,-1.47811 1.057361,-2.15132 0.0145,-0.21106 0.0365,-0.38375 0.049,-0.38375 0.0124,0 0.167668,0.10751 0.344919,0.23891 0.703141,0.52126 1.09797,1.22932 1.19017,2.13433 l 0.0354,0.34789 0.128,-0.13562 c 0.0704,-0.0746 0.15533,-0.22937 0.18875,-0.34397 l 0.0608,-0.20837 0.19096,0.39085 c 0.22784,0.46637 0.37001,0.95442 0.40995,1.40733 0.0722,0.81861 -0.34268,1.61611 -1.05246,2.0231 -0.284589,0.16319 -0.392549,0.19094 -0.22254,0.0572 0.17355,-0.13653 0.36875,-0.53511 0.39724,-0.81118 0.0384,-0.37175 -0.0755,-0.6917 -0.40902,-1.14935 -0.334519,-0.45901 -0.487779,-0.77035 -0.532891,-1.08258 l -0.0324,-0.22468 -0.18305,0.17817 c -0.34858,0.3393 -0.59597,1.08145 -0.53423,1.6027 0.0148,0.1247 0.009,0.22675 -0.0126,0.22675 -0.089,0 -0.325509,-0.33503 -0.3523,-0.49904 -0.0158,-0.0965 -0.0345,-0.20683 -0.0417,-0.2452 -0.0169,-0.0902 -0.246429,0.40925 -0.30533,0.66445 -0.10999,0.4766 -0.0184,0.91088 0.26098,1.23724 0.0901,0.10532 0.157031,0.19129 0.14864,0.19105 -0.008,-1.8e-4 -0.12865,-0.0654 -0.26725,-0.14494 z"
         style="fill:#000000;stroke:#000000;stroke-width:0.3;stroke-miterlimit:4;stroke-dasharray:none;stroke-opacity:1" />
      <circle
         r="1.6063988"
         cy="46.190102"
         cx="-13.683238"
         id="path3810-6"
         style="vector-effect:none;fill:#000000;fill-opacity:1;stroke:none;stroke-width:0.292091;stroke-linecap:butt;stroke-linejoin:miter;stroke-miterlimit:4;stroke-dasharray:0.876273, 0.292091;stroke-dashoffset:0;stroke-opacity:1" />
      <circle
         r="1.6063988"
         cy="46.190102"
         cx="-7.9568996"
         id="path3810-8-5"
         style="vector-effect:none;fill:#000000;fill-opacity:1;stroke:none;stroke-width:0.292091;stroke-linecap:butt;stroke-linejoin:miter;stroke-miterlimit:4;stroke-dasharray:0.876273, 0.292091;stroke-dashoffset:0;stroke-opacity:1" />
      <circle
         r="1.6063988"
         cy="46.190102"
         cx="-2.2305603"
         id="path3810-89-6"
         style="vector-effect:none;fill:#000000;fill-opacity:1;stroke:none;stroke-width:0.292091;stroke-linecap:butt;stroke-linejoin:miter;stroke-miterlimit:4;stroke-dasharray:0.876273, 0.292091;stroke-dashoffset:0;stroke-opacity:1" />
      <circle
         r="1.6063988"
         cy="46.190102"
         cx="3.4957786"
         id="path3810-7-9"
         style="vector-effect:none;fill:#000000;fill-opacity:1;stroke:none;stroke-width:0.292091;stroke-linecap:butt;stroke-linejoin:miter;stroke-miterlimit:4;stroke-dasharray:0.876273, 0.292091;stroke-dashoffset:0;stroke-opacity:1" />
    </g>
    <path
       style="fill:#000000;stroke-width:0.07288762"
       d="m 0.35055613,29.740907 c -0.03716,-0.0041 -0.07341,0.0043 -0.111414,0.02213 -0.0684,0.03212 -2.39636073,0.524974 -4.77768673,1.011325 -1.261955,0.257743 -8.0765994,1.695229 -8.1053564,1.70971 -0.01978,0.01 -0.0079,0.141473 0.02622,0.292053 0.03417,0.150569 0.117968,0.542467 0.186372,0.870829 0.06841,0.328364 0.151483,0.605477 0.184734,0.616463 0.0332,0.01091 1.222299,-0.224208 2.6423924,-0.522662 1.420114,-0.298456 3.434423,-0.720298 4.476214,-0.937596 3.782886,-0.788951 5.91986073,-1.24142 5.95900073,-1.261189 0.02201,-0.01114 0.08855,-0.24 0.147869,-0.508734 L 1.0866291,30.544566 0.80195013,30.165269 c -0.218261,-0.291009 -0.339923,-0.412271 -0.451389,-0.424362 z m 0.5243,2.097201 c -0.03716,-0.0041 -0.07341,0.0042 -0.111414,0.02213 -0.0684,0.03212 -2.39636073,0.524973 -4.77768673,1.011326 -1.261955,0.257743 -8.0765994,1.695229 -8.1053554,1.709711 -0.01978,0.01 -0.0079,0.141472 0.02621,0.292051 0.03417,0.150571 0.117968,0.542467 0.186372,0.87083 0.06841,0.328364 0.151483,0.605477 0.184734,0.616463 0.0332,0.01091 1.2223,-0.224208 2.6423924,-0.522662 1.420114,-0.298455 3.434423,-0.720297 4.476214,-0.937596 3.78288603,-0.788952 5.9198607,-1.241419 5.9589997,-1.261188 0.02201,-0.01115 0.08855,-0.240001 0.147871,-0.508736 l 0.107726,-0.48867 -0.284677,-0.379298 C 1.1079811,31.97146 0.98631813,31.8502 0.87485213,31.838108 Z m 0.56526097,2.075493 -3.8953877,0.816352 c -4.028764,0.844715 -7.5723174,1.584953 -8.6083554,1.797777 -0.327535,0.06729 -0.604038,0.148051 -0.614824,0.179408 -0.01076,0.03139 0.06337,0.444305 0.165073,0.917527 0.101708,0.473221 0.209244,0.854933 0.238802,0.849938 0.02959,-0.0056 2.9898944,-0.624414 6.5783294,-1.37506 l 6.5242627,-1.364818 0.111823,-0.475147 c 0.118685,-0.505457 0.11459,-0.51952 -0.301881,-1.079731 z m -2.30323467,2.741927 c -0.05102,-0.06212 -9.92221843,2.001087 -9.94778143,2.079178 -0.01058,0.03208 0.01013,0.191319 0.04588,0.354312 l 0.06513,0.296558 0.35841,-0.07742 0.3588164,-0.07742 -0.04465,1.672437 8.8365098,-0.0045 -0.0426,-1.952595 -0.317447,-0.298605 -0.317856,-0.298606 -1.88871,0.0213 -2.296272,0.04342 2.629284,-0.547648 c 1.446207,-0.301131 2.64617303,-0.553406 2.66614903,-0.562394 0.04337,-0.01795 -0.04734,-0.577798 -0.10486,-0.648003 z"
       id="path1052-3"
       inkscape:connector-curvature="0" />
    <g
       id="g925"
       transform="matrix(1.4550545,0,0,1.4550545,-74.16461,-10.221638)">
      <path
         inkscape:connector-curvature="0"
         id="path917"
         d="m 70.941729,32.427433 c -0.0095,-0.01153 -0.09485,-0.187767 -0.189648,-0.391641 -0.09479,-0.203874 -0.179939,-0.384914 -0.189212,-0.402311 -0.01617,-0.03034 -0.01524,-0.03057 0.02284,-0.0056 0.02183,0.01431 0.122228,0.08455 0.223097,0.156096 0.100869,0.07155 0.185678,0.127805 0.188464,0.125018 0.0028,-0.0028 -0.06351,-0.206848 -0.147326,-0.453469 l -0.152393,-0.448402 0.09182,0.08712 c 0.0505,0.04792 0.15891,0.152309 0.240902,0.231985 0.134773,0.130964 0.149078,0.140811 0.149078,0.102611 0,-0.02324 -0.01106,-0.27252 -0.02458,-0.553955 -0.01352,-0.281435 -0.02258,-0.513532 -0.02015,-0.51577 0.0024,-0.0022 0.134977,0.18997 0.29453,0.427131 0.201004,0.298774 0.29316,0.423228 0.300069,0.405237 0.0055,-0.01428 0.01929,-0.125947 0.03068,-0.248146 0.01139,-0.122199 0.02523,-0.224977 0.03076,-0.228396 0.0055,-0.0034 0.04534,0.09154 0.08847,0.211016 0.04313,0.119478 0.08343,0.211377 0.08956,0.204221 0.0061,-0.0072 0.07943,-0.241462 0.162894,-0.520681 l 0.151747,-0.50767 0.01,0.306214 c 0.0055,0.168418 0.01093,0.434944 0.01209,0.592282 0.0012,0.157337 0.0082,0.286068 0.0157,0.286068 0.0075,0 0.06255,-0.05801 0.12239,-0.128918 0.05984,-0.0709 0.115504,-0.133066 0.123709,-0.138137 0.009,-0.0056 0.01089,0.07206 0.0047,0.197413 l -0.01023,0.206632 0.223455,-0.21863 c 0.328571,-0.321477 0.414032,-0.40199 0.420173,-0.395849 0.003,0.003 -0.09244,0.294357 -0.212157,0.64739 -0.119719,0.353033 -0.21434,0.645207 -0.210271,0.649277 0.0041,0.0041 0.09604,-0.02604 0.204379,-0.06692 0.108338,-0.04087 0.199308,-0.07199 0.202156,-0.06914 0.0028,0.0028 -0.05607,0.109584 -0.130937,0.237193 l -0.136114,0.232015 -0.236609,-0.0031 c -0.130135,-0.0017 -0.239256,-0.0057 -0.242491,-0.0089 -0.0032,-0.0032 0.01183,-0.110251 0.03348,-0.237813 0.03654,-0.215296 0.03931,-0.272776 0.01121,-0.233001 -0.0062,0.0087 -0.07286,0.07017 -0.148202,0.136523 -0.07534,0.06636 -0.142039,0.127702 -0.148211,0.136317 -0.01549,0.02162 -0.02291,-0.0075 -0.046,-0.180406 -0.01092,-0.08174 -0.02608,-0.144774 -0.03369,-0.140068 -0.0076,0.0047 -0.01417,0.02082 -0.01457,0.03581 -4.03e-4,0.01499 -0.0098,0.04861 -0.02097,0.07471 l -0.02024,0.04745 -0.05854,-0.09359 -0.05854,-0.09359 -0.0091,0.05822 c -0.005,0.03202 -0.01322,0.08434 -0.01822,0.11626 l -0.0091,0.05804 -0.139984,-0.187691 -0.139983,-0.187691 -0.01303,0.262213 c -0.0072,0.144217 -0.01558,0.264762 -0.01869,0.267878 -0.0031,0.0031 -0.05745,-0.032 -0.120739,-0.07803 -0.06329,-0.04603 -0.119012,-0.07976 -0.123826,-0.07494 -0.0048,0.0048 0.0016,0.07525 0.01424,0.15652 0.01617,0.103862 0.01781,0.149332 0.0055,0.153032 -0.0096,0.0029 -0.105117,0.0098 -0.212245,0.0154 -0.150153,0.0078 -0.198739,0.0053 -0.212072,-0.01083 z"
         style="fill:#000000;stroke-width:0.01611651" />
      <path
         sodipodi:nodetypes="cc"
         inkscape:connector-curvature="0"
         id="path921"
         d="m 68.847824,29.562684 c 2.315104,-0.07087 2.281678,0.141935 2.877438,1.419674"
         style="fill:none;stroke:#000000;stroke-width:0.26499999;stroke-linecap:butt;stroke-linejoin:miter;stroke-miterlimit:4;stroke-dasharray:0.52999997, 0.26499999;stroke-dashoffset:0;stroke-opacity:1" />
    </g>
    <g
       transform="matrix(0.73962006,0,0,0.73962006,-77.761962,-51.28233)"
       id="g857">
      <path
         inkscape:connector-curvature="0"
         id="path1101"
         d="m 150.81067,113.47052 v 0.19998 0.19948 l -0.0687,0.0109 c -0.0499,0.008 -0.0992,0.0213 -0.14883,0.0326 v 0.55449 c 0.057,-0.0172 0.11728,-0.0361 0.15348,-0.0419 l 0.0641,-0.0103 v 0.43666 0.43615 h 0.35347 0.35398 v -0.43408 c 0,-0.50316 -0.0233,-0.45876 0.20309,-0.39326 0.32803,0.095 0.576,0.23981 0.82786,0.48421 0.29627,0.28748 0.46412,0.59063 0.5674,1.02268 l 0.0109,0.0444 h -0.4346 -0.4346 v 0.36174 0.36225 h 0.43253 0.43253 l -0.015,0.0682 c -0.0286,0.13132 -0.0993,0.32684 -0.16743,0.4625 -0.18578,0.37022 -0.4993,0.68581 -0.86506,0.87075 -0.13271,0.0671 -0.41926,0.16825 -0.50126,0.17725 l -0.0481,0.005 v -0.43047 -0.42994 h -0.35812 -0.3576 v 0.42529 h -0.001 c 0,0.23392 -0.005,0.42802 -0.0124,0.43202 -0.007,0.004 -0.0626,-0.006 -0.12454,-0.0217 -0.0274,-0.007 -0.0527,-0.0179 -0.0796,-0.0258 v 0.55397 c 0.0136,0.003 0.0267,0.007 0.0403,0.0103 l 0.16898,0.0357 0.004,0.19585 0.005,0.19586 h 0.35295 0.35295 l 0.004,-0.19534 0.005,-0.19534 0.16846,-0.0377 c 0.30288,-0.0679 0.54466,-0.16528 0.80874,-0.32556 0.57364,-0.34818 0.99481,-0.9547 1.13275,-1.63091 l 0.0284,-0.14056 h 0.1974 0.19741 v -0.36173 -0.36226 h -0.19741 -0.19792 l -0.0279,-0.14831 c -0.0598,-0.31633 -0.19438,-0.63775 -0.38447,-0.91881 -0.1394,-0.20615 -0.47205,-0.53548 -0.68058,-0.67386 -0.28019,-0.18593 -0.58901,-0.31373 -0.90434,-0.37413 l -0.14883,-0.0289 v -0.19844 -0.19895 h -0.35347 z"
         style="fill:#000000;stroke:#000000;stroke-width:0.20942611;stroke-miterlimit:4;stroke-dasharray:none;stroke-opacity:1" />
      <path
         sodipodi:nodetypes="sccccsssccccscsccscccccccccsssccccccscsss"
         inkscape:connector-curvature="0"
         id="path853"
         d="m 155.39686,119.16773 c -0.25963,-0.0587 -0.49619,-0.12644 -0.52569,-0.1506 -0.092,-0.0754 -0.0593,-0.21666 0.0844,-0.3648 l 0.13797,-0.14235 -0.50272,-0.50404 c -0.37693,-0.37791 -0.50273,-0.53126 -0.50273,-0.61282 0,-0.14334 0.0743,-0.21178 0.22989,-0.21178 0.10433,0 0.21604,0.088 0.62684,0.49376 l 0.49991,0.49377 0.12361,-0.129 c 0.13169,-0.13745 0.28048,-0.16649 0.36032,-0.0703 0.0879,0.10594 0.30588,1.14701 0.25865,1.23524 -0.0555,0.10369 -0.1966,0.097 -0.79037,-0.0371 z m 0.73667,-2.10082 c -0.0158,-0.0157 -0.0286,-0.12195 -0.0286,-0.23602 v -0.20742 l -0.67588,-6.4e-4 c -0.79014,-8.2e-4 -0.89044,-0.0296 -0.89044,-0.25685 0,-0.22704 0.10046,-0.2561 0.8882,-0.25685 l 0.67363,-6.4e-4 0.013,-0.22529 c 0.0125,-0.21637 0.0181,-0.22568 0.14171,-0.23482 0.0957,-0.008 0.2432,0.0645 0.57481,0.27919 0.24534,0.1588 0.46731,0.32239 0.49327,0.36355 0.0736,0.11672 -0.002,0.1956 -0.49327,0.51212 -0.40513,0.26121 -0.61819,0.34186 -0.69641,0.26364 z m -1.99402,-1.56775 c -0.0283,-0.0283 -0.0515,-0.10861 -0.0515,-0.17841 0,-0.10432 0.088,-0.21602 0.49376,-0.62682 l 0.49377,-0.49993 -0.12901,-0.12359 c -0.137,-0.13126 -0.16654,-0.28045 -0.0712,-0.35959 0.0822,-0.0682 1.00305,-0.26983 1.1616,-0.25437 0.10858,0.0107 0.13477,0.034 0.14591,0.13099 0.017,0.14703 -0.18853,1.09573 -0.25451,1.17523 -0.0796,0.096 -0.22854,0.0668 -0.3601,-0.0705 l -0.1236,-0.12902 -0.49993,0.49377 c -0.41079,0.40573 -0.52254,0.49377 -0.62682,0.49377 -0.0698,0 -0.15008,-0.0232 -0.17841,-0.0515 z"
         style="fill:#000000;stroke-width:0.04291296" />
    </g>
  </g>
</svg>
