<?xml version="1.0" encoding="UTF-8" standalone="no"?>
<!-- Created with Inkscape (http://www.inkscape.org/) -->

<svg
   width="120mm"
   height="23.016712mm"
   viewBox="0 0 120 23.016712"
   version="1.1"
   id="svg1100"
   inkscape:version="1.1.2 (0a00cf5339, 2022-02-04)"
   sodipodi:docname="Lift Hoist.svg"
   xmlns:inkscape="http://www.inkscape.org/namespaces/inkscape"
   xmlns:sodipodi="http://sodipodi.sourceforge.net/DTD/sodipodi-0.dtd"
   xmlns="http://www.w3.org/2000/svg"
   xmlns:svg="http://www.w3.org/2000/svg"
   xmlns:rdf="http://www.w3.org/1999/02/22-rdf-syntax-ns#"
   xmlns:cc="http://creativecommons.org/ns#"
   xmlns:dc="http://purl.org/dc/elements/1.1/">
  <defs
     id="defs1094" />
  <sodipodi:namedview
     id="base"
     pagecolor="#ffffff"
     bordercolor="#666666"
     borderopacity="1.0"
     inkscape:pageopacity="0.0"
     inkscape:pageshadow="2"
     inkscape:zoom="4"
     inkscape:cx="205.75"
     inkscape:cy="-5.625"
     inkscape:document-units="mm"
     inkscape:current-layer="layer1"
     showgrid="false"
     inkscape:window-width="1850"
     inkscape:window-height="1016"
     inkscape:window-x="70"
     inkscape:window-y="1107"
     inkscape:window-maximized="1"
     fit-margin-top="0"
     fit-margin-left="0"
     fit-margin-right="0"
     fit-margin-bottom="0"
     inkscape:snap-global="true"
     inkscape:snap-bbox="true"
     inkscape:pagecheckerboard="0" />
  <metadata
     id="metadata1097">
    <rdf:RDF>
      <cc:Work
         rdf:about="">
        <dc:format>image/svg+xml</dc:format>
        <dc:type
           rdf:resource="http://purl.org/dc/dcmitype/StillImage" />
      </cc:Work>
    </rdf:RDF>
  </metadata>
  <g
     inkscape:groupmode="layer"
     id="layer3"
     inkscape:label="Background"
     style="display:inline" />
  <g
     inkscape:groupmode="layer"
     id="layer2"
     inkscape:label="Guias"
     style="display:inline"
     transform="translate(0,0.2323513)">
    <g
       id="g1399"
       transform="translate(-6.7978492)">
      <rect
         y="11.402682"
         x="50.431446"
         height="11"
         width="74.99527"
         id="rect1878-3"
         style="display:inline;opacity:1;vector-effect:none;fill:#ffe680;fill-opacity:1;stroke:none;stroke-width:0.47467926;stroke-linecap:butt;stroke-linejoin:miter;stroke-miterlimit:4;stroke-dasharray:none;stroke-dashoffset:0;stroke-opacity:1" />
      <rect
         y="0.30218902"
         x="8.1689825"
         height="22.148087"
         width="42.262463"
         id="rect1868"
         style="display:inline;opacity:1;vector-effect:none;fill:#decd87;fill-opacity:1;stroke:none;stroke-width:0.39467782;stroke-linecap:butt;stroke-linejoin:miter;stroke-miterlimit:4;stroke-dasharray:none;stroke-dashoffset:0;stroke-opacity:1" />
      <rect
         y="0.39782956"
         x="50.431446"
         height="11"
         width="74.99527"
         id="rect1878"
         style="display:inline;opacity:1;vector-effect:none;fill:#deaa87;fill-opacity:1;stroke:none;stroke-width:0.47467929;stroke-linecap:butt;stroke-linejoin:miter;stroke-miterlimit:4;stroke-dasharray:none;stroke-dashoffset:0;stroke-opacity:1" />
      <rect
         y="12.891373"
         x="76.863533"
         height="8.0226164"
         width="22"
         id="rect1878-7-3"
         style="display:inline;opacity:1;vector-effect:none;fill:#eeffaa;fill-opacity:1;stroke:none;stroke-width:0.19344766;stroke-linecap:butt;stroke-linejoin:miter;stroke-miterlimit:4;stroke-dasharray:none;stroke-dashoffset:0;stroke-opacity:1" />
      <rect
         y="12.891415"
         x="103.2956"
         height="8.0226164"
         width="22"
         id="rect1878-7-56"
         style="display:inline;opacity:1;vector-effect:none;fill:#ccffaa;fill-opacity:1;stroke:none;stroke-width:0.21753596;stroke-linecap:butt;stroke-linejoin:miter;stroke-miterlimit:4;stroke-dasharray:none;stroke-dashoffset:0;stroke-opacity:1" />
      <rect
         y="12.680782"
         x="50.431446"
         height="8.443799"
         width="22"
         id="rect1878-7"
         style="display:inline;opacity:1;vector-effect:none;fill:#ff9955;fill-opacity:1;stroke:none;stroke-width:0.22317314;stroke-linecap:butt;stroke-linejoin:miter;stroke-miterlimit:4;stroke-dasharray:none;stroke-dashoffset:0;stroke-opacity:1" />
      <rect
         y="13.158642"
         x="77.363533"
         height="7.4880772"
         width="21"
         id="rect1878-7-2-7"
         style="display:inline;opacity:1;vector-effect:none;fill:#ddff55;fill-opacity:1;stroke:none;stroke-width:0.20533194;stroke-linecap:butt;stroke-linejoin:miter;stroke-miterlimit:4;stroke-dasharray:none;stroke-dashoffset:0;stroke-opacity:1" />
      <rect
         y="13.158684"
         x="103.7956"
         height="7.4880772"
         width="21"
         id="rect1878-7-2-7-0"
         style="display:inline;opacity:1;vector-effect:none;fill:#66ff00;fill-opacity:1;stroke:none;stroke-width:0.20533194;stroke-linecap:butt;stroke-linejoin:miter;stroke-miterlimit:4;stroke-dasharray:none;stroke-dashoffset:0;stroke-opacity:1" />
      <rect
         y="13.158642"
         x="50.931446"
         height="7.4880772"
         width="21"
         id="rect1878-7-2"
         style="display:inline;opacity:1;vector-effect:none;fill:#d45500;fill-opacity:1;stroke:none;stroke-width:0.20533194;stroke-linecap:butt;stroke-linejoin:miter;stroke-miterlimit:4;stroke-dasharray:none;stroke-dashoffset:0;stroke-opacity:1" />
    </g>
  </g>
  <g
     inkscape:label="Capa 1"
     inkscape:groupmode="layer"
     id="layer1"
     transform="translate(28.060163,-27.595709)"
     style="display:inline">
    <g
       transform="matrix(0.35279357,0,0,0.35279357,27.66483,22.56444)"
       id="layer1-6-3-2"
       inkscape:label="Capa 1" />
    <rect
       style="display:inline;opacity:1;fill:#ffffff;fill-opacity:1;stroke:none;stroke-width:0.71100003;stroke-miterlimit:4;stroke-dasharray:none;stroke-dashoffset:0;stroke-opacity:1"
       id="rect1126"
       width="119.99902"
       height="23.017704"
       x="-28.060163"
       y="27.595709" />
    <g
       style="display:inline"
       id="g9128"
       transform="translate(-107.62953,-199.34653)">
      <path
         inkscape:connector-curvature="0"
         id="path9084"
         d="M 83.843672,227.37459 H 195.29507"
         style="fill:none;stroke:#000000;stroke-width:0.40000001;stroke-linecap:butt;stroke-linejoin:miter;stroke-miterlimit:4;stroke-dasharray:none;stroke-opacity:1" />
      <path
         inkscape:connector-curvature="0"
         id="path9084-3"
         d="M 83.843669,249.75895 H 195.29507"
         style="fill:none;stroke:#000000;stroke-width:0.40000001;stroke-linecap:butt;stroke-linejoin:miter;stroke-miterlimit:4;stroke-dasharray:none;stroke-opacity:1" />
    </g>
    <g
       id="g383"
       transform="matrix(1.3240563,0,0,1.3240565,-11.756817,13.836628)">
      <circle
         r="2.9059739"
         cy="15.820772"
         cx="24.290676"
         id="path1760-3-7"
         style="opacity:1;vector-effect:none;fill:#ffffff;fill-opacity:1;stroke:#000000;stroke-width:0.31159922;stroke-linecap:butt;stroke-linejoin:miter;stroke-miterlimit:4;stroke-dasharray:none;stroke-dashoffset:0;stroke-opacity:1" />
      <path
         inkscape:export-ydpi="300"
         inkscape:export-xdpi="300"
         inkscape:export-filename="1sword.png"
         sodipodi:nodetypes="cccccccsccssscssscsscscsscscccccccscscc"
         inkscape:connector-curvature="0"
         id="path1327"
         d="m 22.955075,17.371526 c 0.03685,-0.0091 0.06702,-0.02719 0.09377,-0.05619 0.03556,-0.03859 0.04582,-0.06185 0.04903,-0.111267 l 0.0028,-0.04328 0.250709,-0.250653 0.250707,-0.250653 0.06274,-5.02e-4 c 0.08226,-5.03e-4 0.114477,-0.01495 0.181922,-0.08061 l 0.04803,-0.04677 0.11105,0.110465 c 0.108933,0.108355 0.111538,0.110464 0.136755,0.110464 0.03549,0 0.05551,-0.02005 0.05551,-0.05556 0,-0.02537 -0.0018,-0.02755 -0.124401,-0.150661 l -0.1244,-0.124923 0.694148,-0.695057 c 0.782416,-0.783438 0.821412,-0.825699 0.988767,-1.071481 0.104214,-0.153054 0.21731,-0.351482 0.21731,-0.38128 0,-0.0098 -0.0048,-0.01849 -0.01222,-0.0225 -0.02594,-0.01391 -0.312856,0.156865 -0.50722,0.301841 -0.162718,0.12137 -0.224401,0.180047 -0.934768,0.889204 l -0.710463,0.70925 -0.118284,-0.118959 c -0.06506,-0.06543 -0.126483,-0.122533 -0.136501,-0.126903 -0.03885,-0.01693 -0.08196,0.01271 -0.08196,0.05633 0,0.02036 0.0082,0.03015 0.112296,0.134803 l 0.112296,0.112859 -0.0458,0.04536 c -0.03088,0.03057 -0.05212,0.05818 -0.06524,0.08474 -0.01811,0.03667 -0.01944,0.04364 -0.01928,0.101551 l 1.54e-4,0.06217 -0.246233,0.246178 -0.246234,0.246179 -0.03999,0.0021 c -0.04865,0.0026 -0.08662,0.01864 -0.121873,0.05115 -0.04341,0.04 -0.05637,0.07233 -0.05637,0.14059 0,0.0524 0.0016,0.06035 0.01721,0.08695 0.0095,0.0161 0.02585,0.03766 0.03643,0.04792 0.03961,0.03839 0.117208,0.05992 0.169582,0.04698 z"
         style="fill:#000000;stroke:#000000;stroke-width:0.16442627;stroke-miterlimit:4;stroke-dasharray:none;stroke-opacity:1" />
    </g>
    <g
       style="display:inline"
       id="g1033"
       transform="translate(19.247686,66.198426)">
      <rect
         y="-36.617252"
         x="21.17853"
         height="8.2894325"
         width="8.2894325"
         id="rect925-7-3-61-49-09"
         style="display:inline;opacity:1;vector-effect:none;fill:#ffffff;fill-opacity:1;stroke:#000000;stroke-width:0.71056741;stroke-linecap:butt;stroke-linejoin:miter;stroke-miterlimit:4;stroke-dasharray:none;stroke-dashoffset:0;stroke-opacity:1" />
      <rect
         y="-36.617252"
         x="31.46801"
         height="8.2894325"
         width="8.2894325"
         id="rect925-7-3-61-49-0-6"
         style="display:inline;opacity:1;vector-effect:none;fill:#ffffff;fill-opacity:1;stroke:#000000;stroke-width:0.71056741;stroke-linecap:butt;stroke-linejoin:miter;stroke-miterlimit:4;stroke-dasharray:none;stroke-dashoffset:0;stroke-opacity:1" />
      <rect
         y="-36.617252"
         x="41.757488"
         height="8.2894325"
         width="8.2894325"
         id="rect925-7-3-61-49-9-3"
         style="display:inline;opacity:1;vector-effect:none;fill:#ffffff;fill-opacity:1;stroke:#000000;stroke-width:0.71056741;stroke-linecap:butt;stroke-linejoin:miter;stroke-miterlimit:4;stroke-dasharray:none;stroke-dashoffset:0;stroke-opacity:1" />
      <rect
         y="-36.617252"
         x="52.046974"
         height="8.2894325"
         width="8.2894325"
         id="rect925-7-3-61-49-1-8"
         style="display:inline;opacity:1;vector-effect:none;fill:#ffffff;fill-opacity:1;stroke:#000000;stroke-width:0.71056741;stroke-linecap:butt;stroke-linejoin:miter;stroke-miterlimit:4;stroke-dasharray:none;stroke-dashoffset:0;stroke-opacity:1" />
      <rect
         y="-36.617252"
         x="62.336449"
         height="8.2894325"
         width="8.2894325"
         id="rect925-7-3-61-49-7-5"
         style="display:inline;opacity:1;vector-effect:none;fill:#ffffff;fill-opacity:1;stroke:#000000;stroke-width:0.71056741;stroke-linecap:butt;stroke-linejoin:miter;stroke-miterlimit:4;stroke-dasharray:none;stroke-dashoffset:0;stroke-opacity:1" />
    </g>
    <g
       id="g226"
       transform="translate(2.2151513,1.0583333)">
      <path
         inkscape:export-ydpi="300"
         inkscape:export-xdpi="300"
         inkscape:export-filename="1flame.png"
         sodipodi:nodetypes="ccccsccccscccccscscccsccccccc"
         inkscape:connector-curvature="0"
         id="path826-3-3"
         d="m -11.992062,47.899798 c -0.74036,-0.42454 -1.16313,-1.30599 -1.029019,-2.14547 0.0723,-0.45236 0.205399,-0.75728 0.51281,-1.17452 0.855259,-1.16082 1.01121,-1.47811 1.05736,-2.15132 0.0145,-0.21106 0.0365,-0.38375 0.049,-0.38375 0.0124,0 0.167669,0.10751 0.34492,0.23891 0.70314,0.52126 1.0979695,1.22932 1.1901695,2.13433 l 0.0354,0.34789 0.128,-0.13562 c 0.0704,-0.0746 0.15533,-0.22937 0.18875,-0.34397 l 0.0608,-0.20837 0.19096,0.39085 c 0.22784,0.46637 0.37001,0.95442 0.40995,1.40733 0.0722,0.81861 -0.34268,1.61611 -1.05246,2.0231 -0.2845895,0.16319 -0.3925495,0.19094 -0.2225405,0.0572 0.1735505,-0.13653 0.3687505,-0.53511 0.3972405,-0.81118 0.0384,-0.37175 -0.0755,-0.6917 -0.4090205,-1.14935 -0.334519,-0.45901 -0.487779,-0.77035 -0.53289,-1.08258 l -0.0324,-0.22468 -0.18305,0.17817 c -0.34858,0.3393 -0.59597,1.08145 -0.53423,1.6027 0.0148,0.1247 0.009,0.22675 -0.0126,0.22675 -0.089,0 -0.32551,-0.33503 -0.3523,-0.49904 -0.0158,-0.0965 -0.0345,-0.20683 -0.0417,-0.2452 -0.0169,-0.0902 -0.24643,0.40925 -0.30533,0.66445 -0.10999,0.4766 -0.0184,0.91088 0.26098,1.23724 0.0901,0.10532 0.15703,0.19129 0.14864,0.19105 -0.008,-1.8e-4 -0.12865,-0.0654 -0.26725,-0.14494 z"
         style="fill:#000000;stroke:#000000;stroke-width:0.30000001;stroke-miterlimit:4;stroke-dasharray:none;stroke-opacity:1" />
      <circle
         r="1.6063988"
         cy="45.131767"
         cx="-4.4457111"
         id="path3810-6"
         style="opacity:1;vector-effect:none;fill:#000000;fill-opacity:1;stroke:none;stroke-width:0.29209089;stroke-linecap:butt;stroke-linejoin:miter;stroke-miterlimit:4;stroke-dasharray:0.87627266, 0.29209089;stroke-dashoffset:0;stroke-opacity:1" />
    </g>
    <path
       style="fill:none;stroke:#000000;stroke-width:0.26458332px;stroke-linecap:butt;stroke-linejoin:miter;stroke-opacity:1"
       d="m 40.024002,43.317011 v 5.58932"
       id="path1183-5"
       inkscape:connector-curvature="0" />
    <path
       style="fill:none;stroke:#000000;stroke-width:0.26458332px;stroke-linecap:butt;stroke-linejoin:miter;stroke-opacity:1"
       d="m 66.456089,43.500759 v 5.58932"
       id="path1183-2-3"
       inkscape:connector-curvature="0" />
    <text
       xml:space="preserve"
       style="font-style:normal;font-weight:normal;font-size:132.329px;line-height:1.25;font-family:sans-serif;letter-spacing:0px;word-spacing:0px;fill:#000000;fill-opacity:1;stroke:none;stroke-width:0.220548"
       x="16.060684"
       y="47.510666"
       id="text1088-5"><tspan
         sodipodi:role="line"
         id="tspan1086-6"
         x="16.060684"
         y="47.510666"
         style="font-size:2.64658px;stroke-width:0.220548">1</tspan></text>
    <path
       style="fill:none;stroke:#000000;stroke-width:0.2093017px;stroke-linecap:butt;stroke-linejoin:miter;stroke-opacity:1"
       d="m 19.807967,46.557733 h 14"
       id="path1090-29"
       inkscape:connector-curvature="0"
       sodipodi:nodetypes="cc" />
    <text
       xml:space="preserve"
       style="font-style:normal;font-weight:normal;font-size:132.329px;line-height:1.25;font-family:sans-serif;letter-spacing:0px;word-spacing:0px;fill:#000000;fill-opacity:1;stroke:none;stroke-width:0.220548"
       x="34.195385"
       y="47.528107"
       id="text1088-0-1"><tspan
         sodipodi:role="line"
         id="tspan1086-9-27"
         x="34.195385"
         y="47.528107"
         style="font-size:2.64658px;stroke-width:0.220548">5</tspan></text>
    <g
       transform="matrix(0.35279357,0,0,0.35279357,21.380066,27.447003)"
       id="layer1-6-8-10-3-1"
       inkscape:label="Capa 1">
      <path
         sodipodi:nodetypes="cccssssssccscscccccsscscssccscsccscccccsscsssscs"
         inkscape:connector-curvature="0"
         id="path828-79-6-6-2"
         d="m 15.55133,51.922274 c -0.685146,-0.279517 -3.20637,-1.507059 -3.324727,-1.618753 -0.03438,-0.03244 -0.07718,-0.127286 -0.09554,-0.211722 -0.08948,-0.411375 -0.262648,-1.722668 -0.332832,-2.520399 -0.05025,-0.57112 -0.0596,-2.009074 -0.01364,-2.094972 0.04031,-0.07531 0.184184,-0.143729 0.562025,-0.267256 0.722856,-0.236322 1.733468,-0.499615 2.410752,-0.628071 0.275408,-0.05224 0.396016,-0.0603 0.707347,-0.04732 0.415417,0.01732 1.429283,0.142198 2.38188,0.293384 0.766175,0.121598 1.019543,0.178219 1.103853,0.246676 l 0.06543,0.05313 -0.0077,1.496494 c -0.0081,1.566318 -0.04308,2.635128 -0.0968,2.95367 -0.03024,0.179307 -0.04114,0.197626 -0.223796,0.376151 -0.196508,0.192058 -2.306176,1.852072 -2.49635,1.964276 -0.172205,0.101604 -0.398334,0.103271 -0.639907,0.0047 z m 0.681956,-0.312805 c 0.354128,-0.250525 1.358355,-1.012126 1.81541,-1.376797 0.537371,-0.428752 0.598921,-0.493547 0.633573,-0.666962 0.06192,-0.309915 0.154976,-1.794696 0.205292,-3.275805 0.02806,-0.82606 0.02665,-0.940151 -0.01209,-0.978893 -0.05115,-0.05115 -0.07672,-0.04286 -1.158797,0.375245 -1.269982,0.490712 -1.8449,0.758627 -1.912296,0.891141 -0.06033,0.118622 -0.03326,2.613007 0.04901,4.516299 0.02534,0.586113 0.04026,0.707347 0.08705,0.707347 0.01213,0 0.143904,-0.08621 0.292842,-0.191575 z m -0.622651,-1.013802 c -0.01218,-0.535923 -0.02681,-1.694557 -0.03252,-2.574744 -0.0081,-1.255585 -0.01836,-1.607633 -0.04745,-1.63421 -0.106289,-0.0971 -3.10159,-0.677511 -3.496415,-0.677511 h -0.135139 l 3.71e-4,0.281495 c 5.78e-4,0.445614 0.107808,1.632044 0.261587,2.894346 0.106753,0.876288 0.163675,1.197828 0.22476,1.269608 0.108101,0.127026 1.297194,0.741581 1.931131,0.998059 0.417345,0.168849 1.151926,0.414027 1.246224,0.415946 l 0.06959,0.0014 z m 0.778946,-4.666157 c 0.521312,-0.175316 1.631211,-0.587253 1.882404,-0.698649 0.123751,-0.05488 0.155359,-0.08002 0.123166,-0.09796 -0.08273,-0.04609 -1.835693,-0.312599 -2.781117,-0.422813 -0.349053,-0.04069 -0.466344,-0.04391 -0.635169,-0.01741 -0.320219,0.05026 -2.598014,0.698144 -2.656719,0.755658 -0.03178,0.03113 0.194652,0.08146 1.179323,0.262104 1.326108,0.243286 2.097867,0.369927 2.267379,0.372065 0.120438,0.0015 0.273269,-0.03615 0.620733,-0.153004 z"
         style="fill:#000000;stroke:#000000;stroke-width:0.229;stroke-miterlimit:4;stroke-dasharray:none;stroke-opacity:1" />
    </g>
    <path
       id="path5427-3"
       style="display:inline;fill:#000000;stroke:none;stroke-width:0.195593px;stroke-linecap:butt;stroke-linejoin:miter;stroke-opacity:1"
       d="m -14.03429,35.760651 c 0,0.383294 0.308136,0.691947 0.69143,0.691947 h 2.977597 c 0.3833072,0 0.6919463,-0.308653 0.6919463,-0.691947 v -0.266649 h -3.2530313 v -1.418003 h 3.2530313 v -0.26665 c 0,-0.383296 -0.3086391,-0.691949 -0.6919463,-0.691949 h -2.977597 c -0.383294,0 -0.69143,0.308653 -0.69143,0.691949 z M -12.538257,34.785 c 0,0.225505 0.291915,0.40721 0.654741,0.40721 h 2.5486808 v 0.196887 c 0,0.144031 0.097293,0.264644 0.2299599,0.299723 v 0.542086 c 0,0.416385 0.3349652,0.751377 0.7513744,0.751377 h 0.6356218 v -4.394565 h -0.6356218 c -0.4164092,0 -0.7513744,0.334975 -0.7513744,0.751374 v 0.542086 c -0.1326911,0.03505 -0.2299599,0.155705 -0.2299599,0.299723 v 0.196887 h -2.5486808 c -0.362826,0 -0.654741,0.181708 -0.654741,0.407212 z m 5.0151959,2.197283 h 1.8210794 v -4.394565 h -1.8210794 z m 2.0159,0 h 0.6351032 c 0.4164118,0 0.7518902,-0.334992 0.7518902,-0.751377 v -2.891814 c 0,-0.416399 -0.3354784,-0.751374 -0.7518902,-0.751374 h -0.6351032 z m 1.5146337,-1.56218 c 0.0078,0.144645 0.1263095,0.258382 0.2728516,0.258382 0.1512385,0 0.2733701,-0.121084 0.2733701,-0.272336 v -1.2423 c 0,-0.151239 -0.1221184,-0.272336 -0.2733701,-0.272336 -0.1512226,0 -0.2728516,0.121084 -0.2728516,0.272336 v 1.2423 c 0,0.0052 -2.328e-4,0.009 0,0.01395 z m 0.7177881,0.632003 0.7637754,1.632458 h 0.8867695 v -0.424262 h -0.1663991 c -0.2446258,0 -0.4449339,-0.200322 -0.4449339,-0.444934 v -0.606166 c 0,-0.244626 0.2003081,-0.444934 0.4449339,-0.444934 h 0.1663991 v -0.07648 h 0.73897072 V 35.492451 H -1.6241944 v -0.07596 h 0.73173702 V 35.220119 H -1.6241944 v -0.07493 h 0.73742292 V 34.948818 H -1.6241944 v -0.01344 -0.06408 h 0.73897072 v -0.19482 H -1.6241944 v -0.07648 h 0.73587242 V 34.403627 H -1.6241944 v -0.07493 h 0.73742292 V 34.132326 H -1.6241944 v -0.07648 h 0.74569112 V 33.861025 H -1.6241944 v -0.05684 h -0.1663991 c -0.2446258,0 -0.4449339,-0.200324 -0.4449339,-0.444934 v -0.606166 c 0,-0.244626 0.2003081,-0.444934 0.4449339,-0.444934 h 0.1663991 v -0.424264 h -0.8867695 l -0.7637754,1.63246 v 1.419551 0.354499 z m 0.7560257,2.297534 h 1.79317122 V 37.823573 H -2.5187136 Z m 0,-6.604766 h 1.79317122 V 31.218809 H -2.5187136 Z m 0.4180629,5.037937 c 0,0.17367 0.1400069,0.313677 0.3136741,0.313677 h 0.781349 c 0.17366982,0 0.31315812,-0.140007 0.31315812,-0.313677 v -0.564825 c 0,-0.173667 -0.1394883,-0.313674 -0.31315812,-0.313674 h -0.781349 c -0.1736672,0 -0.3136741,0.140007 -0.3136741,0.313674 z m 0,-3.431831 c 0,0.173667 0.1400069,0.313158 0.3136741,0.313158 h 0.781349 c 0.17366982,0 0.31315812,-0.139491 0.31315812,-0.313158 v -0.564825 c 0,-0.17367 -0.1394883,-0.313677 -0.31315812,-0.313677 h -0.781349 c -0.1736672,0 -0.3136741,0.140007 -0.3136741,0.313677 z m 0.6428528,4.333584 h 0.90123702 v 0.114723 h 0.730705 L 1.9202909,36.844821 h -2.42879288 c -0.015298,0.231024 -0.2086451,0.415481 -0.4433835,0.415481 H -1.454697 Z m 0,-5.80068 0.00259,0.42478 h 0.50280652 c 0.2347383,0 0.4280799,0.184457 0.4433834,0.415478 H 1.919775 L 0.17362822,31.769679 h -0.7307051 v 0.114205 z m 0.91725752,4.672068 H 2.4293043 v -0.756545 h -2.96984468 z m 0,-2.786393 H 2.4293043 v -0.756545 h -2.96984468 z" />
    <path
       id="path916-2"
       style="display:inline;fill:#000000;stroke-width:0.055218"
       d="m 28.629799,31.504664 -1.9327,0.0264 c 0.0113,0.0217 0.75288,1.253111 1.11208,1.868101 v -0.001 c 0.58151,0.99564 0.68949,1.192885 0.74569,1.070736 0.0361,-0.07841 0.40998,-0.330553 0.61857,-0.368453 l 0.20412,-0.03721 z m 0.6935,3.061832 c -0.12378,0.0017 -0.24616,0.04833 -0.34623,0.141077 -0.1158,0.10742 -0.14625,0.186588 -0.14625,0.381889 0,0.20716 0.0271,0.268933 0.17002,0.389123 0.5142,0.43267 1.19198,-0.270964 0.71779,-0.745174 -0.11305,-0.112986 -0.25504,-0.168824 -0.39533,-0.166915 z m 0.87592,0.0894 c -0.0293,-3.44e-4 -0.0469,5.29e-4 -0.0486,0.0031 -0.004,0.0051 -2.5e-4,0.164344 0.008,0.353984 l 0.0145,0.345198 0.33176,0.02739 0.33125,0.02791 0.001,0.283187 c 10e-4,0.15579 0.002,0.440313 0.004,0.632003 0.003,0.33293 -0.005,0.354806 -0.19638,0.494026 -0.22638,0.16498 -0.23134,0.184081 -0.0879,0.357601 h 5.3e-4 c 0.057,0.06898 0.12328,0.123406 0.14728,0.120406 0.024,-0.0027 0.16862,-0.09673 0.32143,-0.208773 l 0.27802,-0.203605 -0.0279,-1.058333 c -0.0152,-0.58228 -0.0422,-1.070288 -0.0599,-1.084688 -0.0262,-0.02109 -0.81128,-0.08708 -1.01648,-0.0894 z m -1.69447,0.15658 c -0.0418,0.0044 -0.29133,0.06924 -0.57981,0.150895 l -0.55966,0.15813 0.0553,0.371554 c 0.0301,0.204339 0.10577,0.685999 0.16847,1.070218 l 0.1142,0.698666 0.26975,0.136942 h 5.2e-4 c 0.42524,0.21584 0.44714,0.219115 0.48834,0.07596 0.0203,-0.07051 0.061,-0.159621 0.0899,-0.197921 0.0404,-0.05353 -0.006,-0.0962 -0.19999,-0.181901 l -0.25218,-0.111621 -0.092,-0.602031 c -0.051,-0.33112 -0.0748,-0.61787 -0.0527,-0.63717 0.0214,-0.01947 0.17117,-0.06822 0.3328,-0.108521 0.16173,-0.0402 0.29947,-0.07451 0.30747,-0.07751 0.007,-0.0027 -0.0119,-0.138504 -0.0429,-0.301274 -0.0311,-0.16285 -0.0474,-0.327586 -0.0362,-0.366386 0.0109,-0.0388 0.008,-0.07403 -0.006,-0.07803 -9e-4,-2.56e-4 -0.003,-2.91e-4 -0.006,0 z m 1.55907,1.684135 -1.11517,0.06563 c -0.10685,0.0063 -0.18819,0.09779 -0.1819,0.204639 l 0.0656,1.115177 c 0.006,0.106846 0.0978,0.187673 0.20463,0.181384 l 1.11518,-0.06563 c 0.10685,-0.0063 0.18767,-0.09728 0.18139,-0.204122 l -0.0656,-1.115177 c -0.006,-0.106846 -0.0973,-0.18819 -0.20413,-0.181901 z" />
  </g>
</svg>
