<?xml version="1.0" encoding="UTF-8" standalone="no"?>
<!-- Created with Inkscape (http://www.inkscape.org/) -->

<svg
   width="120mm"
   height="23.016712mm"
   viewBox="0 0 120 23.016712"
   version="1.1"
   id="svg1100"
   inkscape:version="1.2.2 (b0a8486541, 2022-12-01)"
   sodipodi:docname="LightMachineGun Array.svg"
   xmlns:inkscape="http://www.inkscape.org/namespaces/inkscape"
   xmlns:sodipodi="http://sodipodi.sourceforge.net/DTD/sodipodi-0.dtd"
   xmlns="http://www.w3.org/2000/svg"
   xmlns:svg="http://www.w3.org/2000/svg"
   xmlns:rdf="http://www.w3.org/1999/02/22-rdf-syntax-ns#"
   xmlns:cc="http://creativecommons.org/ns#"
   xmlns:dc="http://purl.org/dc/elements/1.1/">
  <defs
     id="defs1094" />
  <sodipodi:namedview
     id="base"
     pagecolor="#ffffff"
     bordercolor="#666666"
     borderopacity="1.0"
     inkscape:pageopacity="0.0"
     inkscape:pageshadow="2"
     inkscape:zoom="4"
     inkscape:cx="230.375"
     inkscape:cy="31.75"
     inkscape:document-units="mm"
     inkscape:current-layer="layer1"
     showgrid="false"
     inkscape:window-width="1920"
     inkscape:window-height="1043"
     inkscape:window-x="1920"
     inkscape:window-y="1080"
     inkscape:window-maximized="1"
     fit-margin-top="0"
     fit-margin-left="0"
     fit-margin-right="0"
     fit-margin-bottom="0"
     inkscape:snap-global="true"
     inkscape:snap-bbox="true"
     inkscape:pagecheckerboard="0"
     inkscape:showpageshadow="2"
     inkscape:deskcolor="#d1d1d1" />
  <metadata
     id="metadata1097">
    <rdf:RDF>
      <cc:Work
         rdf:about="">
        <dc:format>image/svg+xml</dc:format>
        <dc:type
           rdf:resource="http://purl.org/dc/dcmitype/StillImage" />
      </cc:Work>
    </rdf:RDF>
  </metadata>
  <g
     inkscape:groupmode="layer"
     id="layer3"
     inkscape:label="Background"
     style="display:inline"
     sodipodi:insensitive="true" />
  <g
     inkscape:groupmode="layer"
     id="layer2"
     inkscape:label="Guias"
     style="display:none"
     transform="translate(0,0.2323513)">
    <g
       id="g1399"
       transform="translate(-6.7978492)">
      <rect
         y="11.402682"
         x="50.431446"
         height="11"
         width="74.99527"
         id="rect1878-3"
         style="display:inline;opacity:1;vector-effect:none;fill:#ffe680;fill-opacity:1;stroke:none;stroke-width:0.47467926;stroke-linecap:butt;stroke-linejoin:miter;stroke-miterlimit:4;stroke-dasharray:none;stroke-dashoffset:0;stroke-opacity:1" />
      <rect
         y="0.30218902"
         x="8.1689825"
         height="22.148087"
         width="42.262463"
         id="rect1868"
         style="display:inline;opacity:1;vector-effect:none;fill:#decd87;fill-opacity:1;stroke:none;stroke-width:0.39467782;stroke-linecap:butt;stroke-linejoin:miter;stroke-miterlimit:4;stroke-dasharray:none;stroke-dashoffset:0;stroke-opacity:1" />
      <rect
         y="0.39782956"
         x="50.431446"
         height="11"
         width="74.99527"
         id="rect1878"
         style="display:inline;opacity:1;vector-effect:none;fill:#deaa87;fill-opacity:1;stroke:none;stroke-width:0.47467929;stroke-linecap:butt;stroke-linejoin:miter;stroke-miterlimit:4;stroke-dasharray:none;stroke-dashoffset:0;stroke-opacity:1" />
      <rect
         y="12.891373"
         x="76.863533"
         height="8.0226164"
         width="22"
         id="rect1878-7-3"
         style="display:inline;opacity:1;vector-effect:none;fill:#eeffaa;fill-opacity:1;stroke:none;stroke-width:0.19344766;stroke-linecap:butt;stroke-linejoin:miter;stroke-miterlimit:4;stroke-dasharray:none;stroke-dashoffset:0;stroke-opacity:1" />
      <rect
         y="12.891415"
         x="103.2956"
         height="8.0226164"
         width="22"
         id="rect1878-7-56"
         style="display:inline;opacity:1;vector-effect:none;fill:#ccffaa;fill-opacity:1;stroke:none;stroke-width:0.21753596;stroke-linecap:butt;stroke-linejoin:miter;stroke-miterlimit:4;stroke-dasharray:none;stroke-dashoffset:0;stroke-opacity:1" />
      <rect
         y="12.680782"
         x="50.431446"
         height="8.443799"
         width="22"
         id="rect1878-7"
         style="display:inline;opacity:1;vector-effect:none;fill:#ff9955;fill-opacity:1;stroke:none;stroke-width:0.22317314;stroke-linecap:butt;stroke-linejoin:miter;stroke-miterlimit:4;stroke-dasharray:none;stroke-dashoffset:0;stroke-opacity:1" />
      <rect
         y="13.158642"
         x="77.363533"
         height="7.4880772"
         width="21"
         id="rect1878-7-2-7"
         style="display:inline;opacity:1;vector-effect:none;fill:#ddff55;fill-opacity:1;stroke:none;stroke-width:0.20533194;stroke-linecap:butt;stroke-linejoin:miter;stroke-miterlimit:4;stroke-dasharray:none;stroke-dashoffset:0;stroke-opacity:1" />
      <rect
         y="13.158684"
         x="103.7956"
         height="7.4880772"
         width="21"
         id="rect1878-7-2-7-0"
         style="display:inline;opacity:1;vector-effect:none;fill:#66ff00;fill-opacity:1;stroke:none;stroke-width:0.20533194;stroke-linecap:butt;stroke-linejoin:miter;stroke-miterlimit:4;stroke-dasharray:none;stroke-dashoffset:0;stroke-opacity:1" />
      <rect
         y="13.158642"
         x="50.931446"
         height="7.4880772"
         width="21"
         id="rect1878-7-2"
         style="display:inline;opacity:1;vector-effect:none;fill:#d45500;fill-opacity:1;stroke:none;stroke-width:0.20533194;stroke-linecap:butt;stroke-linejoin:miter;stroke-miterlimit:4;stroke-dasharray:none;stroke-dashoffset:0;stroke-opacity:1" />
    </g>
  </g>
  <g
     inkscape:label="Capa 1"
     inkscape:groupmode="layer"
     id="layer1"
     transform="translate(28.060163,-27.595709)"
     style="display:inline">
    <g
       transform="matrix(0.35279357,0,0,0.35279357,27.66483,22.56444)"
       id="layer1-6-3-2"
       inkscape:label="Capa 1" />
    <rect
       style="display:inline;opacity:1;fill:#ffffff;fill-opacity:1;stroke:none;stroke-width:0.711;stroke-miterlimit:4;stroke-dasharray:none;stroke-dashoffset:0;stroke-opacity:1"
       id="rect1126"
       width="119.999"
       height="23.017704"
       x="-28.060163"
       y="27.595709" />
    <g
       style="display:inline"
       id="g9128"
       transform="translate(-107.62953,-199.34653)">
      <path
         inkscape:connector-curvature="0"
         id="path9084"
         d="M 83.843672,227.37459 H 195.29507"
         style="fill:none;stroke:#000000;stroke-width:0.40000001;stroke-linecap:butt;stroke-linejoin:miter;stroke-miterlimit:4;stroke-dasharray:none;stroke-opacity:1" />
      <path
         inkscape:connector-curvature="0"
         id="path9084-3"
         d="M 83.843669,249.75895 H 195.29507"
         style="fill:none;stroke:#000000;stroke-width:0.40000001;stroke-linecap:butt;stroke-linejoin:miter;stroke-miterlimit:4;stroke-dasharray:none;stroke-opacity:1" />
    </g>
    <g
       id="g931"
       transform="matrix(1.3240558,0,0,1.3240565,-63.334124,-8.5250075)">
      <circle
         r="2.9059739"
         cy="32.709503"
         cx="63.244713"
         id="path1760-3"
         style="opacity:1;vector-effect:none;fill:#ffffff;fill-opacity:1;stroke:#000000;stroke-width:0.31159922;stroke-linecap:butt;stroke-linejoin:miter;stroke-miterlimit:4;stroke-dasharray:none;stroke-dashoffset:0;stroke-opacity:1" />
      <g
         inkscape:export-ydpi="300"
         inkscape:export-xdpi="300"
         inkscape:export-filename="3bullets.png"
         transform="matrix(0.57776063,0,0,0.57776063,39.266143,11.610937)"
         style="stroke:#000000;stroke-opacity:1"
         id="g1314">
        <path
           style="fill:#000000;stroke:#000000;stroke-width:0.01702486;stroke-opacity:1"
           d="m 38.791441,35.598415 c -0.03173,-0.0031 -0.06413,0.0061 -0.0884,0.0281 -0.02927,0.02659 -0.03117,0.07657 -0.03117,0.888129 0,0.776379 0.0026,0.863092 0.0281,0.891196 0.04312,0.04764 0.131989,0.04058 0.174765,-0.0138 0.01186,-0.01512 0.01931,-0.03909 0.02454,-0.08125 l 0.0603,0.06184 0.06285,0.06438 h 1.673546 1.673547 l 0.452751,-0.0077 c 0.542174,-0.0092 0.644723,-0.02758 0.930544,-0.167098 0.250498,-0.122274 0.419839,-0.275879 0.513562,-0.465528 0.05978,-0.120921 0.06388,-0.139766 0.06388,-0.283609 0,-0.13213 -0.0063,-0.168213 -0.04599,-0.252948 -0.09088,-0.193984 -0.361877,-0.42117 -0.647444,-0.542689 -0.241521,-0.102777 -0.362997,-0.111171 -0.749139,-0.11651 -0.191954,-0.0026 -0.385797,-0.0036 -0.430267,-0.0021 l -0.08788,-5.11e-4 H 40.697523 39.02551 l -0.06438,0.06285 -0.06234,0.06082 c -0.0053,-0.04063 -0.0123,-0.0638 -0.02402,-0.0787 -0.02071,-0.02632 -0.05156,-0.04189 -0.08329,-0.04498 z"
           id="path1002-7-2-3"
           inkscape:connector-curvature="0" />
        <path
           style="fill:#000000;stroke:#000000;stroke-width:0.01702486;stroke-opacity:1"
           d="m 38.791441,37.678538 c -0.03173,-0.0031 -0.06413,0.0061 -0.0884,0.0281 -0.02927,0.0266 -0.03117,0.07657 -0.03117,0.88813 0,0.776378 0.0026,0.863092 0.0281,0.891195 0.04312,0.04764 0.131989,0.04058 0.174765,-0.0138 0.01186,-0.01512 0.01931,-0.03909 0.02454,-0.08125 l 0.0603,0.06184 0.06285,0.06438 h 1.673546 1.673547 l 0.452751,-0.0077 c 0.542174,-0.0092 0.644723,-0.02758 0.930544,-0.167098 0.250498,-0.122273 0.419839,-0.275879 0.513562,-0.465528 0.05978,-0.12092 0.06388,-0.139765 0.06388,-0.283608 0,-0.13213 -0.0063,-0.168214 -0.04599,-0.252949 -0.09088,-0.193983 -0.361877,-0.421169 -0.647444,-0.542689 -0.241521,-0.102777 -0.362997,-0.11117 -0.749139,-0.11651 -0.191954,-0.0026 -0.385797,-0.0036 -0.430267,-0.0021 l -0.08788,-5.12e-4 H 40.697523 39.02551 l -0.06438,0.06286 -0.06234,0.06082 c -0.0053,-0.04063 -0.0123,-0.0638 -0.02402,-0.0787 -0.02071,-0.02632 -0.05156,-0.04189 -0.08329,-0.04498 z"
           id="path1002-7-0-7"
           inkscape:connector-curvature="0" />
        <path
           style="fill:#000000;stroke:#000000;stroke-width:0.01702486;stroke-opacity:1"
           d="m 38.79452,33.518312 c -0.03173,-0.0031 -0.06413,0.0061 -0.0884,0.0281 -0.02927,0.02659 -0.03117,0.07657 -0.03117,0.88813 0,0.776378 0.0026,0.863092 0.0281,0.891195 0.04312,0.04764 0.131989,0.04058 0.174765,-0.0138 0.01186,-0.01512 0.01931,-0.03909 0.02454,-0.08125 l 0.0603,0.06184 0.06285,0.06438 h 1.673547 1.673546 l 0.452751,-0.0077 c 0.542175,-0.0092 0.644723,-0.02759 0.930544,-0.167098 0.250498,-0.122274 0.419839,-0.275879 0.513562,-0.465528 0.05978,-0.120921 0.06388,-0.139766 0.06388,-0.283609 0,-0.13213 -0.0063,-0.168213 -0.04599,-0.252948 -0.09088,-0.193984 -0.361877,-0.42117 -0.647444,-0.542689 -0.24152,-0.102777 -0.362996,-0.11117 -0.749139,-0.11651 -0.191954,-0.0026 -0.385797,-0.0036 -0.430267,-0.0021 l -0.08788,-5.11e-4 H 40.700602 39.02859 l -0.06438,0.06286 -0.06234,0.06082 c -0.0053,-0.04063 -0.0123,-0.0638 -0.02402,-0.0787 -0.02071,-0.02632 -0.05156,-0.04189 -0.08329,-0.04498 z"
           id="path1002-7-2-3-5"
           inkscape:connector-curvature="0" />
      </g>
    </g>
    <g
       style="display:inline"
       id="g1033"
       transform="translate(19.247686,66.198426)">
      <rect
         y="-36.617252"
         x="21.17853"
         height="8.2894325"
         width="8.2894325"
         id="rect925-7-3-61-49-09"
         style="display:inline;opacity:1;vector-effect:none;fill:#ffffff;fill-opacity:1;stroke:#000000;stroke-width:0.71056741;stroke-linecap:butt;stroke-linejoin:miter;stroke-miterlimit:4;stroke-dasharray:none;stroke-dashoffset:0;stroke-opacity:1" />
      <rect
         y="-36.617252"
         x="31.46801"
         height="8.2894325"
         width="8.2894325"
         id="rect925-7-3-61-49-0-6"
         style="display:inline;opacity:1;vector-effect:none;fill:#ffffff;fill-opacity:1;stroke:#000000;stroke-width:0.71056741;stroke-linecap:butt;stroke-linejoin:miter;stroke-miterlimit:4;stroke-dasharray:none;stroke-dashoffset:0;stroke-opacity:1" />
      <rect
         y="-36.617252"
         x="41.757488"
         height="8.2894325"
         width="8.2894325"
         id="rect925-7-3-61-49-9-3"
         style="display:inline;opacity:1;vector-effect:none;fill:#ffffff;fill-opacity:1;stroke:#000000;stroke-width:0.71056741;stroke-linecap:butt;stroke-linejoin:miter;stroke-miterlimit:4;stroke-dasharray:none;stroke-dashoffset:0;stroke-opacity:1" />
      <rect
         y="-36.617252"
         x="52.046974"
         height="8.2894325"
         width="8.2894325"
         id="rect925-7-3-61-49-1-8"
         style="display:inline;opacity:1;vector-effect:none;fill:#ffffff;fill-opacity:1;stroke:#000000;stroke-width:0.71056741;stroke-linecap:butt;stroke-linejoin:miter;stroke-miterlimit:4;stroke-dasharray:none;stroke-dashoffset:0;stroke-opacity:1" />
      <rect
         y="-36.617252"
         x="62.336449"
         height="8.2894325"
         width="8.2894325"
         id="rect925-7-3-61-49-7-5"
         style="display:inline;opacity:1;vector-effect:none;fill:#ffffff;fill-opacity:1;stroke:#000000;stroke-width:0.71056741;stroke-linecap:butt;stroke-linejoin:miter;stroke-miterlimit:4;stroke-dasharray:none;stroke-dashoffset:0;stroke-opacity:1" />
    </g>
    <path
       id="path964"
       style="fill:#000000;stroke-width:0.0622454"
       d="m -13.803566,31.226365 c -0.07381,0.005 -0.126914,0.01096 -0.144177,0.01702 l -0.310059,0.424113 0.01447,1.475646 v 5.849175 l 0.19017,0.173994 0.190169,0.173995 h 0.85111 0.851111 v -0.533332 -0.532859 l -0.43925,-0.01749 -0.43925,-0.01797 -0.01809,-5.141847 -0.01809,-0.818911 h 0.457337 0.457336 V 31.742198 31.22636 Z m 1.890324,4.323409 c -0.02399,0.23491 -0.002,0.465792 -0.0088,0.554135 0.03177,0.808846 10e-4,0.452444 10e-4,1.227893 v 2.418907 l 0.198437,0.181088 c 0.171286,0.156719 0.231011,0.1769 0.43925,0.146571 0.143785,-0.02094 0.299704,-0.09761 0.387056,-0.189597 l 0.146761,-0.154137 v -2.351296 c 0,-0.727536 0.05157,-1.381623 -0.02274,-1.833564 z m 1.33842,0 v 1.885102 1.905433 h 0.7394887 0.7389731 l 0.034106,-0.541843 c 0.03575,-0.57374 0.1082667,-0.72961 0.4501017,-0.963119 0.2087221,-0.142574 0.7134786,-0.15062 0.9394777,-0.01513 0.3157789,0.18931 0.416241,0.430275 0.4165119,0.999052 v 0.521039 h 0.8087362 c 0.648489,0 0.8290624,-0.0186 0.9110554,-0.09362 0.0883,-0.08079 0.1023194,-0.331375 0.1023194,-1.834039 0,-1.274146 -0.020852,-1.759033 -0.078031,-1.811344 -0.023434,-0.02144 -0.092084,-0.0391 -0.1922362,-0.05154 z m 2.4349924,2.718669 c -0.2407039,0 -0.2826432,0.125106 -0.3017901,0.896925 l -0.018087,0.740424 -0.5033285,0.02979 c -0.4511598,0.02669 -0.5235834,0.0484 -0.6981486,0.20851 -0.1071078,0.09824 -0.2140016,0.265677 -0.2371947,0.372103 l -0.041858,0.193381 h 1.7973063 c 1.1923631,0 1.7978231,-0.0207 1.7978231,-0.06147 0,-0.173504 -0.2122704,-0.485827 -0.4025595,-0.591961 -0.159729,-0.0891 -0.3290284,-0.119915 -0.6547403,-0.120094 l -0.4392496,-4.84e-4 v -0.762174 c 0,-0.803152 -0.033815,-0.904962 -0.2981733,-0.904962 z"
       sodipodi:nodetypes="ccccccccccccccccccccccsccsccsccccccccscccsssscccccsccsscccsscc" />
    <path
       id="path964-3"
       style="display:inline;fill:#000000;stroke-width:0.0622454"
       d="m -11.378375,30.4798 c -0.152544,0 -0.276889,0.04719 -0.384989,0.146099 l -0.159681,0.146099 v 2.418907 l 0.0083,2.010398 h 1.171504 l -0.0083,-1.958861 c -0.01203,-2.783603 0.0044,-2.762642 -0.626834,-2.762642 z m 2.2236367,0.842078 v 0.297399 0.560756 c 0.10682,0.06766 0.3442949,0.105343 1.0262939,0.09031 0.829892,0.004 1.0266523,-0.06019 1.0841714,-0.08274 v -0.560758 -0.297871 z m -1.4221347,0.06666 v 1.905433 1.904961 h 0.7394888 0.738973 1.8401977 0.8087363 c 0.648489,0 0.8290626,-0.01813 0.9110554,-0.09314 0.0883,-0.08079 0.1023194,-0.331375 0.1023194,-1.834039 0,-1.274146 -0.020851,-1.759505 -0.078032,-1.811816 -0.04739,-0.04336 -0.2774759,-0.07139 -0.5854938,-0.07139 h -0.5079793 v 0.403782 c 0,0.683801 0.035342,0.668084 -1.5115357,0.668084 -1.5857339,0 -1.5466756,0.01578 -1.5466756,-0.634515 v -0.437351 h -0.4557852 z"
       sodipodi:nodetypes="sscccccsccccccccccccccscscscsssccc" />
    <text
       id="text1088-4"
       y="47.445091"
       x="16.02392"
       style="font-style:normal;font-weight:normal;font-size:132.329px;line-height:1.25;font-family:sans-serif;letter-spacing:0px;word-spacing:0px;fill:#000000;fill-opacity:1;stroke:none;stroke-width:0.220548"
       xml:space="preserve"><tspan
         style="font-size:2.64658px;stroke-width:0.220548"
         y="47.445091"
         x="16.02392"
         id="tspan1086-90"
         sodipodi:role="line">1</tspan></text>
    <path
       sodipodi:nodetypes="cc"
       inkscape:connector-curvature="0"
       id="path1090-9"
       d="m 19.771203,46.492151 h 14"
       style="fill:none;stroke:#000000;stroke-width:0.209302px;stroke-linecap:butt;stroke-linejoin:miter;stroke-opacity:1" />
    <text
       id="text1088-0-1"
       y="47.462524"
       x="34.158623"
       style="font-style:normal;font-weight:normal;font-size:132.329px;line-height:1.25;font-family:sans-serif;letter-spacing:0px;word-spacing:0px;fill:#000000;fill-opacity:1;stroke:none;stroke-width:0.220548"
       xml:space="preserve"><tspan
         style="font-size:2.64658px;stroke-width:0.220548"
         y="47.462524"
         x="34.158623"
         id="tspan1086-9-7"
         sodipodi:role="line">25</tspan></text>
    <path
       inkscape:connector-curvature="0"
       id="path1183-7"
       d="m 40.005622,43.382595 v 5.58932"
       style="display:inline;fill:none;stroke:#000000;stroke-width:0.264583px;stroke-linecap:butt;stroke-linejoin:miter;stroke-opacity:1" />
    <path
       inkscape:connector-curvature="0"
       id="path1183-3"
       d="m 66.474471,43.566343 v 5.58932"
       style="display:inline;fill:none;stroke:#000000;stroke-width:0.264583px;stroke-linecap:butt;stroke-linejoin:miter;stroke-opacity:1" />
    <g
       style="display:inline"
       transform="matrix(0.73962006,0,0,0.73962006,-85.377935,-51.28335)"
       id="g857">
      <path
         inkscape:connector-curvature="0"
         id="path1101"
         d="m 150.81067,113.47052 v 0.19998 0.19948 l -0.0687,0.0109 c -0.0499,0.008 -0.0992,0.0213 -0.14883,0.0326 v 0.55449 c 0.057,-0.0172 0.11728,-0.0361 0.15348,-0.0419 l 0.0641,-0.0103 v 0.43666 0.43615 h 0.35347 0.35398 v -0.43408 c 0,-0.50316 -0.0233,-0.45876 0.20309,-0.39326 0.32803,0.095 0.576,0.23981 0.82786,0.48421 0.29627,0.28748 0.46412,0.59063 0.5674,1.02268 l 0.0109,0.0444 h -0.4346 -0.4346 v 0.36174 0.36225 h 0.43253 0.43253 l -0.015,0.0682 c -0.0286,0.13132 -0.0993,0.32684 -0.16743,0.4625 -0.18578,0.37022 -0.4993,0.68581 -0.86506,0.87075 -0.13271,0.0671 -0.41926,0.16825 -0.50126,0.17725 l -0.0481,0.005 v -0.43047 -0.42994 h -0.35812 -0.3576 v 0.42529 h -0.001 c 0,0.23392 -0.005,0.42802 -0.0124,0.43202 -0.007,0.004 -0.0626,-0.006 -0.12454,-0.0217 -0.0274,-0.007 -0.0527,-0.0179 -0.0796,-0.0258 v 0.55397 c 0.0136,0.003 0.0267,0.007 0.0403,0.0103 l 0.16898,0.0357 0.004,0.19585 0.005,0.19586 h 0.35295 0.35295 l 0.004,-0.19534 0.005,-0.19534 0.16846,-0.0377 c 0.30288,-0.0679 0.54466,-0.16528 0.80874,-0.32556 0.57364,-0.34818 0.99481,-0.9547 1.13275,-1.63091 l 0.0284,-0.14056 h 0.1974 0.19741 v -0.36173 -0.36226 h -0.19741 -0.19792 l -0.0279,-0.14831 c -0.0598,-0.31633 -0.19438,-0.63775 -0.38447,-0.91881 -0.1394,-0.20615 -0.47205,-0.53548 -0.68058,-0.67386 -0.28019,-0.18593 -0.58901,-0.31373 -0.90434,-0.37413 l -0.14883,-0.0289 v -0.19844 -0.19895 h -0.35347 z"
         style="fill:#000000;stroke:#000000;stroke-width:0.209426;stroke-miterlimit:4;stroke-dasharray:none;stroke-opacity:1" />
      <path
         sodipodi:nodetypes="sccccsssccccscsccscccccccccsssccccccscsss"
         inkscape:connector-curvature="0"
         id="path853"
         d="m 155.39686,119.16773 c -0.25963,-0.0587 -0.49619,-0.12644 -0.52569,-0.1506 -0.092,-0.0754 -0.0593,-0.21666 0.0844,-0.3648 l 0.13797,-0.14235 -0.50272,-0.50404 c -0.37693,-0.37791 -0.50273,-0.53126 -0.50273,-0.61282 0,-0.14334 0.0743,-0.21178 0.22989,-0.21178 0.10433,0 0.21604,0.088 0.62684,0.49376 l 0.49991,0.49377 0.12361,-0.129 c 0.13169,-0.13745 0.28048,-0.16649 0.36032,-0.0703 0.0879,0.10594 0.30588,1.14701 0.25865,1.23524 -0.0555,0.10369 -0.1966,0.097 -0.79037,-0.0371 z m 0.73667,-2.10082 c -0.0158,-0.0157 -0.0286,-0.12195 -0.0286,-0.23602 v -0.20742 l -0.67588,-6.4e-4 c -0.79014,-8.2e-4 -0.89044,-0.0296 -0.89044,-0.25685 0,-0.22704 0.10046,-0.2561 0.8882,-0.25685 l 0.67363,-6.4e-4 0.013,-0.22529 c 0.0125,-0.21637 0.0181,-0.22568 0.14171,-0.23482 0.0957,-0.008 0.2432,0.0645 0.57481,0.27919 0.24534,0.1588 0.46731,0.32239 0.49327,0.36355 0.0736,0.11672 -0.002,0.1956 -0.49327,0.51212 -0.40513,0.26121 -0.61819,0.34186 -0.69641,0.26364 z m -1.99402,-1.56775 c -0.0283,-0.0283 -0.0515,-0.10861 -0.0515,-0.17841 0,-0.10432 0.088,-0.21602 0.49376,-0.62682 l 0.49377,-0.49993 -0.12901,-0.12359 c -0.137,-0.13126 -0.16654,-0.28045 -0.0712,-0.35959 0.0822,-0.0682 1.00305,-0.26983 1.1616,-0.25437 0.10858,0.0107 0.13477,0.034 0.14591,0.13099 0.017,0.14703 -0.18853,1.09573 -0.25451,1.17523 -0.0796,0.096 -0.22854,0.0668 -0.3601,-0.0705 l -0.1236,-0.12902 -0.49993,0.49377 c -0.41079,0.40573 -0.52254,0.49377 -0.62682,0.49377 -0.0698,0 -0.15008,-0.0232 -0.17841,-0.0515 z"
         style="fill:#000000;stroke-width:0.042913" />
    </g>
    <g
       id="g897"
       transform="translate(-16.738805,54.428358)">
      <g
         id="path826-7"
         transform="translate(-150.84629,-123.12708)"
         style="fill:#000000">
        <path
           style="color:#000000;fill:#000000;stroke-width:0.3;-inkscape-stroke:none"
           d="m 161.33151,117.65688 c -0.74037,-0.42454 -1.16314,-1.30599 -1.02903,-2.14547 0.0723,-0.45236 0.2054,-0.75728 0.51281,-1.17452 0.85527,-1.16082 1.01121,-1.47811 1.05737,-2.15132 0.0145,-0.21106 0.0365,-0.38375 0.049,-0.38375 0.0124,0 0.16766,0.10751 0.34491,0.23891 0.70314,0.52126 1.09798,1.22932 1.19018,2.13433 l 0.0354,0.34789 0.128,-0.13562 c 0.0704,-0.0746 0.15533,-0.22937 0.18875,-0.34397 l 0.0607,-0.20837 0.19095,0.39085 c 0.22785,0.46637 0.37002,0.95442 0.40996,1.40733 0.0722,0.81861 -0.34269,1.61611 -1.05246,2.0231 -0.2846,0.16319 -0.39256,0.19094 -0.22255,0.0572 0.17356,-0.13653 0.36875,-0.53511 0.39724,-0.81118 0.0384,-0.37175 -0.0755,-0.6917 -0.40901,-1.14935 -0.33453,-0.45901 -0.48778,-0.77035 -0.5329,-1.08258 l -0.0324,-0.22468 -0.18304,0.17817 c -0.34859,0.3393 -0.59598,1.08145 -0.53424,1.6027 0.0148,0.1247 0.009,0.22675 -0.0126,0.22675 -0.089,0 -0.3255,-0.33503 -0.35229,-0.49904 -0.0158,-0.0965 -0.0345,-0.20683 -0.0417,-0.2452 -0.0169,-0.0902 -0.24644,0.40925 -0.30534,0.66445 -0.10998,0.4766 -0.0184,0.91088 0.26098,1.23724 0.0901,0.10532 0.15704,0.19129 0.14865,0.19105 -0.008,-1.8e-4 -0.12865,-0.0654 -0.26725,-0.14494 z"
           id="path1281" />
        <path
           style="color:#000000;fill:#000000;-inkscape-stroke:none"
           d="m 161.92187,111.65234 c -1.9e-4,0 -0.0584,0.0116 -0.0586,0.0117 -2e-4,9e-5 -0.0369,0.0213 -0.0371,0.0215 -2e-4,1.6e-4 -0.0213,0.0212 -0.0215,0.0215 -2.1e-4,2.5e-4 -0.009,0.011 -0.0117,0.0156 -0.012,0.0185 -0.0145,0.0284 -0.0176,0.0371 -0.006,0.0174 -0.009,0.0277 -0.0117,0.041 -0.006,0.0266 -0.009,0.0587 -0.0137,0.0957 -0.009,0.0739 -0.0199,0.17139 -0.0273,0.2793 -0.0224,0.32671 -0.0655,0.54404 -0.20899,0.83594 -0.14347,0.2919 -0.39201,0.65767 -0.81836,1.23633 -0.31584,0.42869 -0.46584,0.76991 -0.54101,1.24023 -0.14444,0.90412 0.3068,1.84198 1.10351,2.29883 l 0.0488,0.0293 h 0.002 c 0.0484,0.0274 0.0986,0.0546 0.13477,0.0742 0.025,0.0135 0.0456,0.0247 0.0625,0.0332 0.008,0.004 0.0155,0.008 0.0234,0.0117 0.004,0.002 0.007,0.003 0.0137,0.006 0.003,0.001 0.007,0.002 0.0137,0.004 0.003,9.2e-4 0.0135,0.004 0.0137,0.004 1.8e-4,3e-5 0.0253,0.002 0.0254,0.002 0.004,-6.3e-4 0.0585,-0.01 0.0586,-0.01 9e-5,-4e-5 0.0663,-0.0507 0.0664,-0.0508 6e-5,-8e-5 0.0254,-0.0624 0.0254,-0.0625 3e-5,-1.3e-4 0.004,-0.0389 0.004,-0.0391 -3e-5,-3.2e-4 -0.01,-0.0386 -0.01,-0.0391 -1.6e-4,-4.8e-4 -0.004,-0.0114 -0.006,-0.0156 -0.008,-0.017 -0.0124,-0.0236 -0.0176,-0.0312 -0.0104,-0.0154 -0.0225,-0.0301 -0.0371,-0.0488 -0.0292,-0.0375 -0.069,-0.0866 -0.11524,-0.14063 -0.24716,-0.28872 -0.3299,-0.6661 -0.22851,-1.10547 0.0174,-0.0755 0.0668,-0.19636 0.11133,-0.30664 0.0346,0.0854 0.0643,0.17233 0.11914,0.25 0.0409,0.0579 0.0837,0.1106 0.1289,0.1543 0.0452,0.0437 0.077,0.0977 0.19336,0.0977 10e-4,0 0.0828,-0.0246 0.084,-0.0254 6.1e-4,-3.9e-4 0.0201,-0.0143 0.0273,-0.0215 0.007,-0.007 0.0129,-0.0131 0.0176,-0.0195 0.0187,-0.0258 0.0228,-0.045 0.0273,-0.0605 0.009,-0.0312 0.0122,-0.0549 0.0137,-0.082 0.003,-0.0542 4.3e-4,-0.11616 -0.008,-0.18555 -0.0535,-0.45153 0.19056,-1.16078 0.48047,-1.45703 0.0594,0.32707 0.20846,0.64694 0.53125,1.08985 0.32349,0.44389 0.41524,0.71207 0.38086,1.04492 -0.0114,0.11057 -0.0611,0.26976 -0.12891,0.4082 -0.0678,0.13844 -0.15843,0.25948 -0.21093,0.30078 -0.0466,0.0367 -0.0742,0.0521 -0.10938,0.10352 -0.004,0.006 -0.009,0.0131 -0.0137,0.0234 -0.005,0.0103 -0.0135,0.0419 -0.0137,0.043 -2e-4,10e-4 0.006,0.0793 0.006,0.0801 1.4e-4,4.1e-4 0.0251,0.0426 0.0254,0.043 2.6e-4,3.3e-4 0.0348,0.0329 0.0351,0.0332 3.8e-4,2.5e-4 0.0327,0.0174 0.0332,0.0176 4.9e-4,1.8e-4 0.0194,0.004 0.0273,0.006 0.0159,0.003 0.0274,0.004 0.0371,0.004 0.0194,-9.3e-4 0.0316,-0.005 0.043,-0.008 0.0908,-0.0234 0.17214,-0.0705 0.31836,-0.1543 0.76124,-0.4365 1.20432,-1.29077 1.12695,-2.16797 -0.0418,-0.47454 -0.18866,-0.97764 -0.42383,-1.45898 l -0.36133,-0.74024 -0.16992,0.58203 c -0.011,0.0376 -0.0417,0.077 -0.0684,0.12696 -0.10251,-0.92402 -0.51552,-1.67174 -1.24023,-2.20899 -0.0897,-0.0665 -0.17385,-0.12725 -0.23828,-0.17187 -0.0322,-0.0223 -0.0581,-0.0407 -0.0801,-0.0547 -0.011,-0.007 -0.0207,-0.0117 -0.0312,-0.0176 -0.005,-0.003 -0.0108,-0.006 -0.0195,-0.01 -0.004,-0.002 -0.009,-0.005 -0.0176,-0.008 -0.004,-0.001 -0.0173,-0.004 -0.0176,-0.004 -2.6e-4,-6e-5 -0.0291,-0.002 -0.0293,-0.002 z m 0.11329,0.40625 c 0.0463,0.0331 0.0883,0.0633 0.14257,0.10352 0.67252,0.49856 1.04029,1.15744 1.12891,2.02734 l 0.0703,0.67578 0.35157,-0.375 c 0.0697,-0.0738 0.11163,-0.18027 0.15625,-0.28125 l 0.041,0.082 c 0.22054,0.45139 0.3565,0.92419 0.39453,1.35546 0.0533,0.60487 -0.23647,1.14724 -0.66601,1.55469 0.0326,-0.0957 0.0784,-0.19094 0.0879,-0.2832 0.0424,-0.41066 -0.094,-0.7825 -0.4375,-1.25391 -0.32836,-0.45054 -0.4656,-0.73701 -0.50586,-1.01562 l -0.0742,-0.51563 -0.39453,0.38282 c -0.37607,0.36604 -0.56899,1.0539 -0.54102,1.61914 -0.05,-0.0827 -0.10162,-0.18152 -0.10547,-0.20508 -0.0159,-0.0971 -0.0329,-0.20472 -0.041,-0.24805 -0.003,-0.0135 -0.008,-0.0293 -0.0195,-0.0508 -0.006,-0.0108 -0.0248,-0.0346 -0.0254,-0.0352 -5.7e-4,-5.7e-4 -0.0443,-0.0329 -0.0449,-0.0332 -6.5e-4,-3.1e-4 -0.0559,-0.0136 -0.0566,-0.0137 -7.4e-4,-5e-5 -0.046,0.004 -0.0469,0.004 -8.4e-4,2.1e-4 -0.0243,0.007 -0.0332,0.0117 -0.009,0.004 -0.0154,0.01 -0.0215,0.0137 -0.0485,0.0334 -0.0557,0.0527 -0.0723,0.0781 -0.0331,0.0508 -0.0664,0.11685 -0.10157,0.19336 -0.0703,0.15301 -0.1435,0.34192 -0.17773,0.49023 -0.0893,0.38703 0.0649,0.71474 0.2207,1.03125 -0.57179,-0.42453 -0.92497,-1.13192 -0.8125,-1.83593 0.0694,-0.43441 0.1854,-0.70359 0.48438,-1.10938 0.42892,-0.58216 0.68584,-0.956 0.8457,-1.28125 0.15986,-0.32525 0.21648,-0.60272 0.24023,-0.94922 0.004,-0.0539 0.009,-0.0906 0.0137,-0.13672 z"
           id="path1283" />
      </g>
      <rect
         style="fill:#ffffff;stroke:none;stroke-width:0.213;stroke-linecap:round;stroke-miterlimit:4;stroke-dasharray:none;stroke-opacity:1"
         id="rect1627-5"
         width="6.7970333"
         height="0.73555547"
         x="10.407046"
         y="1.8385123"
         transform="rotate(-43.888262)" />
      <rect
         style="fill:#ffffff;stroke:none;stroke-width:0.213;stroke-linecap:round;stroke-miterlimit:4;stroke-dasharray:none;stroke-opacity:1"
         id="rect1627-5-6"
         width="6.7970333"
         height="0.73555547"
         x="10.630586"
         y="1.4227713"
         transform="rotate(-43.888262)" />
      <rect
         style="fill:#000000;stroke:none;stroke-width:0.213;stroke-linecap:round;stroke-miterlimit:4;stroke-dasharray:none;stroke-opacity:1"
         id="rect1627"
         width="6.7970333"
         height="0.73555547"
         x="10.431842"
         y="1.6470145"
         transform="rotate(-43.888262)" />
    </g>
    <path
       style="display:inline;fill:#000000;stroke-width:0.0133824"
       d="m 35.583858,38.198214 c -1.37191,-0.10779 -2.53514,-1.00056 -2.98415,-2.29054 -0.24281,-0.6976 -0.25156,-1.46808 -0.0247,-2.1714 0.3381,-1.04785 1.15925,-1.86902 2.20764,-2.2077 0.60275,-0.19472 1.26886,-0.21697 1.87845,-0.0628 0.82817,0.2095 1.53213,0.70452 2.01175,1.41465 0.28706,0.42504 0.46428,0.88884 0.5462,1.42945 0.04,0.26439 0.04,0.68576 0,0.95015 -0.11325,0.74716 -0.41943,1.37345 -0.93159,1.90535 -0.52896,0.54933 -1.25418,0.91385 -2.014,1.0123 -0.18338,0.0237 -0.52039,0.0337 -0.68965,0.0205 z m 0.51716,-0.61687 c 0.50388,-0.0508 0.95417,-0.22111 1.38316,-0.5231 0.16073,-0.1131 0.51013,-0.46317 0.62262,-0.62373 0.2987,-0.42632 0.46609,-0.86703 0.52085,-1.3713 0.0505,-0.46394 -0.0344,-0.98132 -0.23445,-1.43279 -0.0562,-0.12685 -0.19016,-0.3646 -0.24667,-0.43794 l -0.0258,-0.0334 -0.6877,0.68719 -0.6877,0.6872 -0.0455,-0.0237 c -0.025,-0.0125 -0.095,-0.0397 -0.15544,-0.0594 l -0.11013,-0.0356 0.0478,-0.0458 c 0.12404,-0.11872 0.22631,-0.3056 0.26627,-0.48615 0.03,-0.13591 0.0214,-0.33558 -0.0205,-0.46836 l -0.0291,-0.0925 0.39597,-0.39613 c 0.21778,-0.21787 0.39597,-0.39998 0.39597,-0.4047 0,-0.0156 -0.24582,-0.1685 -0.38083,-0.23788 -0.75022,-0.38542 -1.64771,-0.40845 -2.42847,-0.0623 -0.31573,0.13997 -0.55766,0.30974 -0.83096,0.58304 -0.28401,0.28401 -0.45019,0.52501 -0.59873,0.86831 -0.26961,0.62309 -0.30217,1.34622 -0.0895,1.98841 0.0526,0.15895 0.12997,0.3405 0.1949,0.45778 0.0614,0.11076 0.20029,0.32574 0.2105,0.32574 0.005,0 0.18477,-0.17612 0.40011,-0.39135 l 0.39152,-0.39136 v 0.57871 0.57871 h 0.0498 0.0498 l -0.12356,0.12403 c -0.0679,0.0683 -0.12357,0.12794 -0.12357,0.13263 0,0.0156 0.2158,0.14715 0.36042,0.2198 0.31229,0.15686 0.67779,0.26052 1.02467,0.29066 0.12247,0.0109 0.37436,0.008 0.50377,-0.005 z m -1.56745,-1.56851 c 2.5e-4,-0.72221 0.003,-0.74561 0.10107,-0.94462 0.10889,-0.22061 0.31257,-0.38972 0.56122,-0.46602 0.0725,-0.0222 0.1345,-0.0247 0.64235,-0.0247 h 0.56207 l 0.11528,0.0412 c 0.23248,0.0833 0.40858,0.23843 0.51498,0.45386 0.0958,0.19396 0.0986,0.22012 0.0987,0.94011 l 2.5e-4,0.63232 h -0.25427 -0.25426 v -0.61559 -0.61559 h -0.0803 -0.0803 v 0.61559 0.61559 h -0.62899 -0.62898 v -0.61559 -0.61559 h -0.0803 -0.0803 v 0.61559 0.61559 h -0.25427 -0.25427 l 2.5e-4,-0.63232 z m 1.19751,-1.55754 c -0.28269,-0.0433 -0.50729,-0.22321 -0.61564,-0.49332 -0.049,-0.12201 -0.0612,-0.31702 -0.0281,-0.4484 0.072,-0.28645 0.30216,-0.50813 0.59025,-0.56861 0.1181,-0.0248 0.18969,-0.0248 0.30781,0 0.28496,0.0598 0.51726,0.28143 0.58859,0.56147 0.099,0.38874 -0.14122,0.80919 -0.52694,0.92249 -0.0761,0.0223 -0.24822,0.0367 -0.31592,0.0264 z"
       id="path861" />
    <g
       id="g8572"
       transform="translate(-1.363192,3.4657522)">
      <path
         id="rect8220"
         style="display:inline;stroke-width:0.391583;stroke-linecap:round;stroke-linejoin:round;stop-color:#000000"
         d="M -3.7355463,28.523579 H 2.093303 v 1.902132 l -5.8288493,0.50513 z"
         sodipodi:nodetypes="ccccc" />
      <rect
         style="display:inline;fill:#000000;stroke:none;stroke-width:0.448634;stroke-linecap:round;stroke-linejoin:round;stop-color:#000000"
         id="rect8224"
         width="1.5152794"
         height="1.1538305"
         x="2.3197827"
         y="28.573381" />
    </g>
    <path
       id="rect8220-7"
       style="display:inline;stroke-width:0.391583;stroke-linecap:round;stroke-linejoin:round;stop-color:#000000"
       d="M -5.0987383,36.145246 H 0.730111 v 1.902132 l -5.8288493,0.50513 z"
       sodipodi:nodetypes="ccccc" />
    <rect
       style="display:inline;fill:#000000;stroke:none;stroke-width:0.448634;stroke-linecap:round;stroke-linejoin:round;stop-color:#000000"
       id="rect8224-3"
       width="1.5152794"
       height="1.1538305"
       x="0.95659065"
       y="36.195045" />
    <g
       id="g8953"
       transform="translate(-1.2088708)">
      <g
         id="g164"
         transform="translate(-24.989112,-0.00151348)"
         style="display:inline">
        <g
           transform="matrix(0.35279357,0,0,0.35279357,44.856028,27.382934)"
           id="layer1-6-3-2-32-7"
           inkscape:label="Capa 1">
          <path
             sodipodi:nodetypes="cccssssssccscscccccsscscssccscsccscccccsscsssscs"
             inkscape:connector-curvature="0"
             id="path828-6-0-0-4"
             d="m 15.55133,51.922274 c -0.685146,-0.279517 -3.20637,-1.507059 -3.324727,-1.618753 -0.03438,-0.03244 -0.07718,-0.127286 -0.09554,-0.211722 -0.08948,-0.411375 -0.262648,-1.722668 -0.332832,-2.520399 -0.05025,-0.57112 -0.0596,-2.009074 -0.01364,-2.094972 0.04031,-0.07531 0.184184,-0.143729 0.562025,-0.267256 0.722856,-0.236322 1.733468,-0.499615 2.410752,-0.628071 0.275408,-0.05224 0.396016,-0.0603 0.707347,-0.04732 0.415417,0.01732 1.429283,0.142198 2.38188,0.293384 0.766175,0.121598 1.019543,0.178219 1.103853,0.246676 l 0.06543,0.05313 -0.0077,1.496494 c -0.0081,1.566318 -0.04308,2.635128 -0.0968,2.95367 -0.03024,0.179307 -0.04114,0.197626 -0.223796,0.376151 -0.196508,0.192058 -2.306176,1.852072 -2.49635,1.964276 -0.172205,0.101604 -0.398334,0.103271 -0.639907,0.0047 z m 0.681956,-0.312805 c 0.354128,-0.250525 1.358355,-1.012126 1.81541,-1.376797 0.537371,-0.428752 0.598921,-0.493547 0.633573,-0.666962 0.06192,-0.309915 0.154976,-1.794696 0.205292,-3.275805 0.02806,-0.82606 0.02665,-0.940151 -0.01209,-0.978893 -0.05115,-0.05115 -0.07672,-0.04286 -1.158797,0.375245 -1.269982,0.490712 -1.8449,0.758627 -1.912296,0.891141 -0.06033,0.118622 -0.03326,2.613007 0.04901,4.516299 0.02534,0.586113 0.04026,0.707347 0.08705,0.707347 0.01213,0 0.143904,-0.08621 0.292842,-0.191575 z m -0.622651,-1.013802 c -0.01218,-0.535923 -0.02681,-1.694557 -0.03252,-2.574744 -0.0081,-1.255585 -0.01836,-1.607633 -0.04745,-1.63421 -0.106289,-0.0971 -3.10159,-0.677511 -3.496415,-0.677511 h -0.135139 l 3.71e-4,0.281495 c 5.78e-4,0.445614 0.107808,1.632044 0.261587,2.894346 0.106753,0.876288 0.163675,1.197828 0.22476,1.269608 0.108101,0.127026 1.297194,0.741581 1.931131,0.998059 0.417345,0.168849 1.151926,0.414027 1.246224,0.415946 l 0.06959,0.0014 z m 0.778946,-4.666157 c 0.521312,-0.175316 1.631211,-0.587253 1.882404,-0.698649 0.123751,-0.05488 0.155359,-0.08002 0.123166,-0.09796 -0.08273,-0.04609 -1.835693,-0.312599 -2.781117,-0.422813 -0.349053,-0.04069 -0.466344,-0.04391 -0.635169,-0.01741 -0.320219,0.05026 -2.598014,0.698144 -2.656719,0.755658 -0.03178,0.03113 0.194652,0.08146 1.179323,0.262104 1.326108,0.243286 2.097867,0.369927 2.267379,0.372065 0.120438,0.0015 0.273269,-0.03615 0.620733,-0.153004 z"
             style="fill:#000000;stroke:#000000;stroke-width:0.229;stroke-miterlimit:4;stroke-dasharray:none;stroke-opacity:1" />
        </g>
        <g
           transform="matrix(0.35279357,0,0,0.35279357,47.808798,27.382934)"
           id="layer1-6-75-2-6-5"
           inkscape:label="Capa 1">
          <path
             sodipodi:nodetypes="cccssssssccscscccccsscscssccscsccscccccsscsssscs"
             inkscape:connector-curvature="0"
             id="path828-35-3-1-2"
             d="m 15.55133,51.922274 c -0.685146,-0.279517 -3.20637,-1.507059 -3.324727,-1.618753 -0.03438,-0.03244 -0.07718,-0.127286 -0.09554,-0.211722 -0.08948,-0.411375 -0.262648,-1.722668 -0.332832,-2.520399 -0.05025,-0.57112 -0.0596,-2.009074 -0.01364,-2.094972 0.04031,-0.07531 0.184184,-0.143729 0.562025,-0.267256 0.722856,-0.236322 1.733468,-0.499615 2.410752,-0.628071 0.275408,-0.05224 0.396016,-0.0603 0.707347,-0.04732 0.415417,0.01732 1.429283,0.142198 2.38188,0.293384 0.766175,0.121598 1.019543,0.178219 1.103853,0.246676 l 0.06543,0.05313 -0.0077,1.496494 c -0.0081,1.566318 -0.04308,2.635128 -0.0968,2.95367 -0.03024,0.179307 -0.04114,0.197626 -0.223796,0.376151 -0.196508,0.192058 -2.306176,1.852072 -2.49635,1.964276 -0.172205,0.101604 -0.398334,0.103271 -0.639907,0.0047 z m 0.681956,-0.312805 c 0.354128,-0.250525 1.358355,-1.012126 1.81541,-1.376797 0.537371,-0.428752 0.598921,-0.493547 0.633573,-0.666962 0.06192,-0.309915 0.154976,-1.794696 0.205292,-3.275805 0.02806,-0.82606 0.02665,-0.940151 -0.01209,-0.978893 -0.05115,-0.05115 -0.07672,-0.04286 -1.158797,0.375245 -1.269982,0.490712 -1.8449,0.758627 -1.912296,0.891141 -0.06033,0.118622 -0.03326,2.613007 0.04901,4.516299 0.02534,0.586113 0.04026,0.707347 0.08705,0.707347 0.01213,0 0.143904,-0.08621 0.292842,-0.191575 z m -0.622651,-1.013802 c -0.01218,-0.535923 -0.02681,-1.694557 -0.03252,-2.574744 -0.0081,-1.255585 -0.01836,-1.607633 -0.04745,-1.63421 -0.106289,-0.0971 -3.10159,-0.677511 -3.496415,-0.677511 h -0.135139 l 3.71e-4,0.281495 c 5.78e-4,0.445614 0.107808,1.632044 0.261587,2.894346 0.106753,0.876288 0.163675,1.197828 0.22476,1.269608 0.108101,0.127026 1.297194,0.741581 1.931131,0.998059 0.417345,0.168849 1.151926,0.414027 1.246224,0.415946 l 0.06959,0.0014 z m 0.778946,-4.666157 c 0.521312,-0.175316 1.631211,-0.587253 1.882404,-0.698649 0.123751,-0.05488 0.155359,-0.08002 0.123166,-0.09796 -0.08273,-0.04609 -1.835693,-0.312599 -2.781117,-0.422813 -0.349053,-0.04069 -0.466344,-0.04391 -0.635169,-0.01741 -0.320219,0.05026 -2.598014,0.698144 -2.656719,0.755658 -0.03178,0.03113 0.194652,0.08146 1.179323,0.262104 1.326108,0.243286 2.097867,0.369927 2.267379,0.372065 0.120438,0.0015 0.273269,-0.03615 0.620733,-0.153004 z"
             style="fill:#000000;stroke:#000000;stroke-width:0.229;stroke-miterlimit:4;stroke-dasharray:none;stroke-opacity:1" />
        </g>
      </g>
      <text
         id="text1088-4-1"
         y="45.369942"
         x="30.194866"
         style="font-style:normal;font-weight:normal;font-size:132.329px;line-height:1.25;font-family:sans-serif;letter-spacing:0px;word-spacing:0px;fill:#000000;fill-opacity:1;stroke:none;stroke-width:0.220548"
         xml:space="preserve"><tspan
           style="font-size:2.64658px;stroke-width:0.220548"
           y="45.369942"
           x="30.194866"
           id="tspan1086-90-2"
           sodipodi:role="line">-1</tspan></text>
    </g>
  </g>
</svg>
