<?xml version="1.0" encoding="UTF-8" standalone="no"?>
<!-- Created with Inkscape (http://www.inkscape.org/) -->

<svg
   xmlns:dc="http://purl.org/dc/elements/1.1/"
   xmlns:cc="http://creativecommons.org/ns#"
   xmlns:rdf="http://www.w3.org/1999/02/22-rdf-syntax-ns#"
   xmlns:svg="http://www.w3.org/2000/svg"
   xmlns="http://www.w3.org/2000/svg"
   xmlns:sodipodi="http://sodipodi.sourceforge.net/DTD/sodipodi-0.dtd"
   xmlns:inkscape="http://www.inkscape.org/namespaces/inkscape"
   width="120mm"
   height="23.016712mm"
   viewBox="0 0 120 23.016712"
   version="1.1"
   id="svg1100"
   inkscape:version="0.92.5 (2060ec1f9f, 2020-04-08)"
   sodipodi:docname="MachineGun.svg">
  <defs
     id="defs1094" />
  <sodipodi:namedview
     id="base"
     pagecolor="#ffffff"
     bordercolor="#666666"
     borderopacity="1.0"
     inkscape:pageopacity="0.0"
     inkscape:pageshadow="2"
     inkscape:zoom="2"
     inkscape:cx="110.70517"
     inkscape:cy="-1.6142808"
     inkscape:document-units="mm"
     inkscape:current-layer="layer1"
     showgrid="false"
     inkscape:window-width="1848"
     inkscape:window-height="1016"
     inkscape:window-x="72"
     inkscape:window-y="27"
     inkscape:window-maximized="1"
     fit-margin-top="0"
     fit-margin-left="0"
     fit-margin-right="0"
     fit-margin-bottom="0"
     inkscape:snap-global="true"
     inkscape:snap-bbox="true" />
  <metadata
     id="metadata1097">
    <rdf:RDF>
      <cc:Work
         rdf:about="">
        <dc:format>image/svg+xml</dc:format>
        <dc:type
           rdf:resource="http://purl.org/dc/dcmitype/StillImage" />
        <dc:title></dc:title>
      </cc:Work>
    </rdf:RDF>
  </metadata>
  <g
     inkscape:groupmode="layer"
     id="layer3"
     inkscape:label="Background"
     style="display:inline"
     sodipodi:insensitive="true" />
  <g
     inkscape:groupmode="layer"
     id="layer2"
     inkscape:label="Guias"
     style="display:none"
     transform="translate(0,0.2323513)">
    <g
       id="g1399"
       transform="translate(-6.7978492)">
      <rect
         y="11.402682"
         x="50.431446"
         height="11"
         width="74.99527"
         id="rect1878-3"
         style="display:inline;opacity:1;vector-effect:none;fill:#ffe680;fill-opacity:1;stroke:none;stroke-width:0.47467926;stroke-linecap:butt;stroke-linejoin:miter;stroke-miterlimit:4;stroke-dasharray:none;stroke-dashoffset:0;stroke-opacity:1" />
      <rect
         y="0.30218902"
         x="8.1689825"
         height="22.148087"
         width="42.262463"
         id="rect1868"
         style="display:inline;opacity:1;vector-effect:none;fill:#decd87;fill-opacity:1;stroke:none;stroke-width:0.39467782;stroke-linecap:butt;stroke-linejoin:miter;stroke-miterlimit:4;stroke-dasharray:none;stroke-dashoffset:0;stroke-opacity:1" />
      <rect
         y="0.39782956"
         x="50.431446"
         height="11"
         width="74.99527"
         id="rect1878"
         style="display:inline;opacity:1;vector-effect:none;fill:#deaa87;fill-opacity:1;stroke:none;stroke-width:0.47467929;stroke-linecap:butt;stroke-linejoin:miter;stroke-miterlimit:4;stroke-dasharray:none;stroke-dashoffset:0;stroke-opacity:1" />
      <rect
         y="12.891373"
         x="76.863533"
         height="8.0226164"
         width="22"
         id="rect1878-7-3"
         style="display:inline;opacity:1;vector-effect:none;fill:#eeffaa;fill-opacity:1;stroke:none;stroke-width:0.19344766;stroke-linecap:butt;stroke-linejoin:miter;stroke-miterlimit:4;stroke-dasharray:none;stroke-dashoffset:0;stroke-opacity:1" />
      <rect
         y="12.891415"
         x="103.2956"
         height="8.0226164"
         width="22"
         id="rect1878-7-56"
         style="display:inline;opacity:1;vector-effect:none;fill:#ccffaa;fill-opacity:1;stroke:none;stroke-width:0.21753596;stroke-linecap:butt;stroke-linejoin:miter;stroke-miterlimit:4;stroke-dasharray:none;stroke-dashoffset:0;stroke-opacity:1" />
      <rect
         y="12.680782"
         x="50.431446"
         height="8.443799"
         width="22"
         id="rect1878-7"
         style="display:inline;opacity:1;vector-effect:none;fill:#ff9955;fill-opacity:1;stroke:none;stroke-width:0.22317314;stroke-linecap:butt;stroke-linejoin:miter;stroke-miterlimit:4;stroke-dasharray:none;stroke-dashoffset:0;stroke-opacity:1" />
      <rect
         y="13.158642"
         x="77.363533"
         height="7.4880772"
         width="21"
         id="rect1878-7-2-7"
         style="display:inline;opacity:1;vector-effect:none;fill:#ddff55;fill-opacity:1;stroke:none;stroke-width:0.20533194;stroke-linecap:butt;stroke-linejoin:miter;stroke-miterlimit:4;stroke-dasharray:none;stroke-dashoffset:0;stroke-opacity:1" />
      <rect
         y="13.158684"
         x="103.7956"
         height="7.4880772"
         width="21"
         id="rect1878-7-2-7-0"
         style="display:inline;opacity:1;vector-effect:none;fill:#66ff00;fill-opacity:1;stroke:none;stroke-width:0.20533194;stroke-linecap:butt;stroke-linejoin:miter;stroke-miterlimit:4;stroke-dasharray:none;stroke-dashoffset:0;stroke-opacity:1" />
      <rect
         y="13.158642"
         x="50.931446"
         height="7.4880772"
         width="21"
         id="rect1878-7-2"
         style="display:inline;opacity:1;vector-effect:none;fill:#d45500;fill-opacity:1;stroke:none;stroke-width:0.20533194;stroke-linecap:butt;stroke-linejoin:miter;stroke-miterlimit:4;stroke-dasharray:none;stroke-dashoffset:0;stroke-opacity:1" />
    </g>
  </g>
  <g
     inkscape:label="Capa 1"
     inkscape:groupmode="layer"
     id="layer1"
     transform="translate(28.060163,-27.595709)"
     style="display:inline">
    <g
       transform="matrix(0.35279357,0,0,0.35279357,27.66483,22.56444)"
       id="layer1-6-3-2"
       inkscape:label="Capa 1" />
    <rect
       style="display:inline;opacity:1;fill:#ffffff;fill-opacity:1;stroke:none;stroke-width:0.71100003;stroke-miterlimit:4;stroke-dasharray:none;stroke-dashoffset:0;stroke-opacity:1"
       id="rect1126"
       width="119.99902"
       height="23.017704"
       x="-28.060163"
       y="27.595709" />
    <g
       style="display:inline"
       id="g9128"
       transform="translate(-107.62953,-199.34653)">
      <path
         inkscape:connector-curvature="0"
         id="path9084"
         d="M 83.843672,227.37459 H 195.29507"
         style="fill:none;stroke:#000000;stroke-width:0.40000001;stroke-linecap:butt;stroke-linejoin:miter;stroke-miterlimit:4;stroke-dasharray:none;stroke-opacity:1" />
      <path
         inkscape:connector-curvature="0"
         id="path9084-3"
         d="M 83.843669,249.75895 H 195.29507"
         style="fill:none;stroke:#000000;stroke-width:0.40000001;stroke-linecap:butt;stroke-linejoin:miter;stroke-miterlimit:4;stroke-dasharray:none;stroke-opacity:1" />
    </g>
    <g
       id="g931"
       transform="matrix(1.3240558,0,0,1.3240565,-63.334124,-8.5250075)">
      <circle
         r="2.9059739"
         cy="32.709503"
         cx="63.244713"
         id="path1760-3"
         style="opacity:1;vector-effect:none;fill:#ffffff;fill-opacity:1;stroke:#000000;stroke-width:0.31159922;stroke-linecap:butt;stroke-linejoin:miter;stroke-miterlimit:4;stroke-dasharray:none;stroke-dashoffset:0;stroke-opacity:1" />
      <g
         inkscape:export-ydpi="300"
         inkscape:export-xdpi="300"
         inkscape:export-filename="3bullets.png"
         transform="matrix(0.57776063,0,0,0.57776063,39.266143,11.610937)"
         style="stroke:#000000;stroke-opacity:1"
         id="g1314">
        <path
           style="fill:#000000;stroke:#000000;stroke-width:0.01702486;stroke-opacity:1"
           d="m 38.791441,35.598415 c -0.03173,-0.0031 -0.06413,0.0061 -0.0884,0.0281 -0.02927,0.02659 -0.03117,0.07657 -0.03117,0.888129 0,0.776379 0.0026,0.863092 0.0281,0.891196 0.04312,0.04764 0.131989,0.04058 0.174765,-0.0138 0.01186,-0.01512 0.01931,-0.03909 0.02454,-0.08125 l 0.0603,0.06184 0.06285,0.06438 h 1.673546 1.673547 l 0.452751,-0.0077 c 0.542174,-0.0092 0.644723,-0.02758 0.930544,-0.167098 0.250498,-0.122274 0.419839,-0.275879 0.513562,-0.465528 0.05978,-0.120921 0.06388,-0.139766 0.06388,-0.283609 0,-0.13213 -0.0063,-0.168213 -0.04599,-0.252948 -0.09088,-0.193984 -0.361877,-0.42117 -0.647444,-0.542689 -0.241521,-0.102777 -0.362997,-0.111171 -0.749139,-0.11651 -0.191954,-0.0026 -0.385797,-0.0036 -0.430267,-0.0021 l -0.08788,-5.11e-4 H 40.697523 39.02551 l -0.06438,0.06285 -0.06234,0.06082 c -0.0053,-0.04063 -0.0123,-0.0638 -0.02402,-0.0787 -0.02071,-0.02632 -0.05156,-0.04189 -0.08329,-0.04498 z"
           id="path1002-7-2-3"
           inkscape:connector-curvature="0" />
        <path
           style="fill:#000000;stroke:#000000;stroke-width:0.01702486;stroke-opacity:1"
           d="m 38.791441,37.678538 c -0.03173,-0.0031 -0.06413,0.0061 -0.0884,0.0281 -0.02927,0.0266 -0.03117,0.07657 -0.03117,0.88813 0,0.776378 0.0026,0.863092 0.0281,0.891195 0.04312,0.04764 0.131989,0.04058 0.174765,-0.0138 0.01186,-0.01512 0.01931,-0.03909 0.02454,-0.08125 l 0.0603,0.06184 0.06285,0.06438 h 1.673546 1.673547 l 0.452751,-0.0077 c 0.542174,-0.0092 0.644723,-0.02758 0.930544,-0.167098 0.250498,-0.122273 0.419839,-0.275879 0.513562,-0.465528 0.05978,-0.12092 0.06388,-0.139765 0.06388,-0.283608 0,-0.13213 -0.0063,-0.168214 -0.04599,-0.252949 -0.09088,-0.193983 -0.361877,-0.421169 -0.647444,-0.542689 -0.241521,-0.102777 -0.362997,-0.11117 -0.749139,-0.11651 -0.191954,-0.0026 -0.385797,-0.0036 -0.430267,-0.0021 l -0.08788,-5.12e-4 H 40.697523 39.02551 l -0.06438,0.06286 -0.06234,0.06082 c -0.0053,-0.04063 -0.0123,-0.0638 -0.02402,-0.0787 -0.02071,-0.02632 -0.05156,-0.04189 -0.08329,-0.04498 z"
           id="path1002-7-0-7"
           inkscape:connector-curvature="0" />
        <path
           style="fill:#000000;stroke:#000000;stroke-width:0.01702486;stroke-opacity:1"
           d="m 38.79452,33.518312 c -0.03173,-0.0031 -0.06413,0.0061 -0.0884,0.0281 -0.02927,0.02659 -0.03117,0.07657 -0.03117,0.88813 0,0.776378 0.0026,0.863092 0.0281,0.891195 0.04312,0.04764 0.131989,0.04058 0.174765,-0.0138 0.01186,-0.01512 0.01931,-0.03909 0.02454,-0.08125 l 0.0603,0.06184 0.06285,0.06438 h 1.673547 1.673546 l 0.452751,-0.0077 c 0.542175,-0.0092 0.644723,-0.02759 0.930544,-0.167098 0.250498,-0.122274 0.419839,-0.275879 0.513562,-0.465528 0.05978,-0.120921 0.06388,-0.139766 0.06388,-0.283609 0,-0.13213 -0.0063,-0.168213 -0.04599,-0.252948 -0.09088,-0.193984 -0.361877,-0.42117 -0.647444,-0.542689 -0.24152,-0.102777 -0.362996,-0.11117 -0.749139,-0.11651 -0.191954,-0.0026 -0.385797,-0.0036 -0.430267,-0.0021 l -0.08788,-5.11e-4 H 40.700602 39.02859 l -0.06438,0.06286 -0.06234,0.06082 c -0.0053,-0.04063 -0.0123,-0.0638 -0.02402,-0.0787 -0.02071,-0.02632 -0.05156,-0.04189 -0.08329,-0.04498 z"
           id="path1002-7-2-3-5"
           inkscape:connector-curvature="0" />
      </g>
    </g>
    <g
       style="display:inline"
       id="g1033"
       transform="translate(19.247686,66.198426)">
      <rect
         y="-36.617252"
         x="21.17853"
         height="8.2894325"
         width="8.2894325"
         id="rect925-7-3-61-49-09"
         style="display:inline;opacity:1;vector-effect:none;fill:#ffffff;fill-opacity:1;stroke:#000000;stroke-width:0.71056741;stroke-linecap:butt;stroke-linejoin:miter;stroke-miterlimit:4;stroke-dasharray:none;stroke-dashoffset:0;stroke-opacity:1" />
      <rect
         y="-36.617252"
         x="31.46801"
         height="8.2894325"
         width="8.2894325"
         id="rect925-7-3-61-49-0-6"
         style="display:inline;opacity:1;vector-effect:none;fill:#ffffff;fill-opacity:1;stroke:#000000;stroke-width:0.71056741;stroke-linecap:butt;stroke-linejoin:miter;stroke-miterlimit:4;stroke-dasharray:none;stroke-dashoffset:0;stroke-opacity:1" />
      <rect
         y="-36.617252"
         x="41.757488"
         height="8.2894325"
         width="8.2894325"
         id="rect925-7-3-61-49-9-3"
         style="display:inline;opacity:1;vector-effect:none;fill:#ffffff;fill-opacity:1;stroke:#000000;stroke-width:0.71056741;stroke-linecap:butt;stroke-linejoin:miter;stroke-miterlimit:4;stroke-dasharray:none;stroke-dashoffset:0;stroke-opacity:1" />
      <rect
         y="-36.617252"
         x="52.046974"
         height="8.2894325"
         width="8.2894325"
         id="rect925-7-3-61-49-1-8"
         style="display:inline;opacity:1;vector-effect:none;fill:#ffffff;fill-opacity:1;stroke:#000000;stroke-width:0.71056741;stroke-linecap:butt;stroke-linejoin:miter;stroke-miterlimit:4;stroke-dasharray:none;stroke-dashoffset:0;stroke-opacity:1" />
      <rect
         y="-36.617252"
         x="62.336449"
         height="8.2894325"
         width="8.2894325"
         id="rect925-7-3-61-49-7-5"
         style="display:inline;opacity:1;vector-effect:none;fill:#ffffff;fill-opacity:1;stroke:#000000;stroke-width:0.71056741;stroke-linecap:butt;stroke-linejoin:miter;stroke-miterlimit:4;stroke-dasharray:none;stroke-dashoffset:0;stroke-opacity:1" />
    </g>
    <path
       style="fill:#000000;stroke-width:0.06507427"
       d="m -11.37628,31.994226 c -0.152543,0 -0.277007,0.05166 -0.385107,0.159763 l -0.159763,0.159635 v 2.643515 2.643515 l 0.198273,0.198145 c 0.171286,0.171288 0.231013,0.193039 0.439252,0.159891 0.143785,-0.02289 0.300043,-0.106257 0.387395,-0.206789 l 0.146417,-0.168532 v -2.570052 c 0,-3.042387 0.0048,-3.019091 -0.626467,-3.019091 z m 2.2234553,0.919937 v 0.325371 0.612867 c 0.10682,0.07395 0.344319,0.115064 1.026318,0.09863 0.829892,0.0044 1.026502,-0.06572 1.084021,-0.09037 v -0.612996 -0.325371 z m -3.8487863,0.07321 c -0.462354,0 -0.888055,0.01818 -0.945992,0.04042 l -0.310247,0.463655 0.01449,1.612621 v 1.667655 l 0.190139,0.190266 0.190266,0.190139 h 0.850922 0.851049 v -0.582618 -0.582745 l -0.439251,-0.01919 -0.439251,-0.01932 -0.01818,-0.894771 -0.01805,-0.894771 h 0.457299 0.457427 v -0.585669 -0.585668 z m 2.426685,0 v 2.082376 2.082377 h 0.7393303 0.73933 l 0.03368,-0.59215 c 0.03575,-0.627074 0.108474,-0.797158 0.450309,-1.052373 0.208722,-0.155828 0.713383,-0.164856 0.939382,-0.01677 0.315779,0.206908 0.41623,0.47025 0.416501,1.0919 l 2.54e-4,0.5694 h 0.808726 c 0.648489,0 0.829046,-0.0202 0.911039,-0.102187 0.0883,-0.0883 0.102314,-0.361988 0.102314,-2.004338 0,-1.392589 -0.02099,-1.922889 -0.07817,-1.980062 -0.04739,-0.04739 -0.27765,-0.07817 -0.585668,-0.07817 h -0.507504 v 0.441031 c 0,0.747366 0.0353,0.730306 -1.511578,0.730306 -1.585734,0 -1.546912,0.01743 -1.546912,-0.69332 v -0.478017 h -0.4555193 z m 7.7069789,0.561774 v 0.229286 c 0,0.218329 -0.126637,0.363882 -0.316474,0.363882 -0.12751,0 -0.269194,-0.208025 -0.269194,-0.395149 0,-0.182483 -0.01243,-0.19052 -0.292835,-0.19052 -0.273979,0 -0.292834,0.01124 -0.292834,0.173871 0,0.204602 -0.166904,0.411798 -0.331726,0.411798 -0.144386,0 -0.319016,-0.239452 -0.319016,-0.437473 0,-0.132268 -0.03149,-0.148196 -0.292835,-0.148196 h -0.2928336 v 1.496708 1.496708 h 0.2803786 c 0.276333,0.0162 0.281107,-0.0035 0.34164,-0.276566 0.05339,-0.24087 0.08607,-0.279389 0.253306,-0.298426 0.226795,-0.02581 0.361086,0.120101 0.361086,0.392225 0,0.173242 0.01527,0.182767 0.292834,0.182767 0.287901,0 0.292835,-0.0036 0.292835,-0.214796 0,-0.24726 0.09763,-0.370872 0.292834,-0.370872 0.195204,0 0.292834,0.123612 0.292834,0.370872 0,0.200553 0.01448,0.214796 0.219753,0.214796 0.120885,0 0.253334,-0.04033 0.294232,-0.0896 0.05192,-0.06256 0.06896,-0.509365 0.05668,-1.480439 l -0.01754,-1.390842 -0.276566,-0.01995 z m 5.300502,0.185691 c -0.656541,0 -0.702731,0.0089 -0.847237,0.162685 l -0.152771,0.162684 H -0.31314711 -2.0588401 v 0.911039 0.911041 h 1.74696399 c 1.66427601,0 1.75244601,0.0062 1.86465701,0.130148 0.104938,0.115955 0.200433,0.130148 0.87558,0.130148 0.502627,0 0.784129,-0.02637 0.835925,-0.07817 0.02399,-0.02399 0.0417,-0.107024 0.0544,-0.248858 0.05271,0.0066 0.146628,0.006 0.174608,-0.02199 0.07831,-0.101929 0.07535,-0.292842 0,-0.394767 -0.02453,-0.02453 -0.107925,-0.0277 -0.154908,-0.02377 0.0012,-0.06134 0.0015,-0.13566 0.0021,-0.205898 0.04722,0.01249 0.174954,0.04099 0.221914,-0.006 0.05763,-0.104881 0.0724,-0.278203 0,-0.394894 -0.04617,-0.04617 -0.171039,-0.01918 -0.220261,-0.0064 -1e-6,-0.06797 3.44e-4,-0.145846 -1.27e-4,-0.20501 0.02608,-0.0026 0.09619,0.0051 0.110797,-0.0095 0.09307,-0.09307 0.101929,-0.319419 0.0089,-0.412485 -0.01857,-0.01857 -0.106936,-0.02156 -0.141766,-0.02196 -0.05505,-0.398052 -0.243684,-0.37814 -0.887264,-0.37814 z m -10.5722796,2.245949 c -0.240704,0 -0.282838,0.136743 -0.301985,0.980309 l -0.0183,0.809234 -0.503309,0.03254 c -0.45116,0.02917 -0.523458,0.05277 -0.698023,0.22776 -0.107108,0.107372 -0.213718,0.290395 -0.236911,0.406715 l -0.0422,0.211491 h 1.797676 c 1.192363,0 1.797676,-0.02256 1.797676,-0.06711 0,-0.189632 -0.212485,-0.531057 -0.402774,-0.647057 -0.159729,-0.09738 -0.32897,-0.13135 -0.654682,-0.131546 l -0.439252,-2.55e-4 v -0.832873 c 0,-0.877813 -0.03356,-0.989206 -0.297918,-0.989206 z"
       id="path964"
       inkscape:connector-curvature="0"
       sodipodi:nodetypes="sccccccccssccccccccccccccccccccccccccccccccccccccscscscsssccccssssssssccccccssssssccccccccccccscsccccccccccccccccccccccsscccscc" />
    <g
       id="g3329"
       transform="translate(-15.72133,-29.392171)">
      <circle
         r="1.6063988"
         cy="75.511505"
         cx="13.49222"
         id="path3810-76"
         style="opacity:1;vector-effect:none;fill:#000000;fill-opacity:1;stroke:none;stroke-width:0.29209095;stroke-linecap:butt;stroke-linejoin:miter;stroke-miterlimit:4;stroke-dasharray:0.87627269, 0.29209089;stroke-dashoffset:0;stroke-opacity:1" />
      <path
         inkscape:export-ydpi="300"
         inkscape:export-xdpi="300"
         inkscape:export-filename="1flame.png"
         sodipodi:nodetypes="ccccsccccscccccscscccsccccccc"
         inkscape:connector-curvature="0"
         id="path826-3"
         d="m 5.9429685,78.350303 c -0.74036,-0.42454 -1.16313,-1.30599 -1.029019,-2.14547 0.0723,-0.45236 0.205399,-0.75728 0.51281,-1.17452 0.855259,-1.16082 1.01121,-1.47811 1.05736,-2.15132 0.0145,-0.21106 0.0365,-0.38375 0.049,-0.38375 0.0124,0 0.167669,0.10751 0.34492,0.23891 0.70314,0.52126 1.097969,1.22932 1.190169,2.13433 l 0.0354,0.34789 0.128,-0.13562 c 0.0704,-0.0746 0.15533,-0.22937 0.18875,-0.34397 l 0.0608,-0.20837 0.19096,0.39085 c 0.22784,0.46637 0.37001,0.95442 0.409951,1.40733 0.0722,0.81861 -0.342681,1.61611 -1.052461,2.0231 -0.284589,0.16319 -0.392549,0.19094 -0.22254,0.0572 0.17355,-0.13653 0.36875,-0.53511 0.39724,-0.81118 0.0384,-0.37175 -0.0755,-0.6917 -0.40902,-1.14935 -0.334519,-0.45901 -0.487779,-0.77035 -0.53289,-1.08258 l -0.0324,-0.22468 -0.18305,0.17817 c -0.34858,0.3393 -0.59597,1.08145 -0.53423,1.6027 0.0148,0.1247 0.009,0.22675 -0.0126,0.22675 -0.089,0 -0.32551,-0.33503 -0.3523,-0.49904 -0.0158,-0.0965 -0.0345,-0.20683 -0.0417,-0.2452 -0.0169,-0.0902 -0.24643,0.40925 -0.30533,0.66445 -0.10999,0.4766 -0.0184,0.91088 0.26098,1.23724 0.0901,0.10532 0.15703,0.19129 0.14864,0.19105 -0.008,-1.8e-4 -0.12865,-0.0654 -0.26725,-0.14494 z"
         style="fill:#000000;stroke:#000000;stroke-width:0.30000001;stroke-miterlimit:4;stroke-dasharray:none;stroke-opacity:1" />
    </g>
    <g
       id="g863"
       transform="translate(0,1.5174751)">
      <text
         id="text1088-4"
         y="45.927616"
         x="16.02392"
         style="font-style:normal;font-weight:normal;font-size:132.3289032px;line-height:1.25;font-family:sans-serif;letter-spacing:0px;word-spacing:0px;fill:#000000;fill-opacity:1;stroke:none;stroke-width:0.22054817"
         xml:space="preserve"><tspan
           style="font-size:2.64657831px;stroke-width:0.22054817"
           y="45.927616"
           x="16.02392"
           id="tspan1086-90"
           sodipodi:role="line">1</tspan></text>
      <path
         sodipodi:nodetypes="cc"
         inkscape:connector-curvature="0"
         id="path1090-9"
         d="m 19.771203,44.974676 h 14"
         style="fill:none;stroke:#000000;stroke-width:0.2093017px;stroke-linecap:butt;stroke-linejoin:miter;stroke-opacity:1" />
      <text
         id="text1088-0-1"
         y="45.945049"
         x="34.158623"
         style="font-style:normal;font-weight:normal;font-size:132.3289032px;line-height:1.25;font-family:sans-serif;letter-spacing:0px;word-spacing:0px;fill:#000000;fill-opacity:1;stroke:none;stroke-width:0.22054817"
         xml:space="preserve"><tspan
           style="font-size:2.64657831px;stroke-width:0.22054817"
           y="45.945049"
           x="34.158623"
           id="tspan1086-9-7"
           sodipodi:role="line">15</tspan></text>
      <g
         inkscape:label="Capa 1"
         id="layer1-6-75-2"
         transform="matrix(0.35279356,0,0,0.35279356,21.343301,25.863946)">
        <path
           style="fill:#000000;stroke:#000000;stroke-width:0.229;stroke-miterlimit:4;stroke-dasharray:none;stroke-opacity:1"
           d="m 15.55133,51.922274 c -0.685146,-0.279517 -3.20637,-1.507059 -3.324727,-1.618753 -0.03438,-0.03244 -0.07718,-0.127286 -0.09554,-0.211722 -0.08948,-0.411375 -0.262648,-1.722668 -0.332832,-2.520399 -0.05025,-0.57112 -0.0596,-2.009074 -0.01364,-2.094972 0.04031,-0.07531 0.184184,-0.143729 0.562025,-0.267256 0.722856,-0.236322 1.733468,-0.499615 2.410752,-0.628071 0.275408,-0.05224 0.396016,-0.0603 0.707347,-0.04732 0.415417,0.01732 1.429283,0.142198 2.38188,0.293384 0.766175,0.121598 1.019543,0.178219 1.103853,0.246676 l 0.06543,0.05313 -0.0077,1.496494 c -0.0081,1.566318 -0.04308,2.635128 -0.0968,2.95367 -0.03024,0.179307 -0.04114,0.197626 -0.223796,0.376151 -0.196508,0.192058 -2.306176,1.852072 -2.49635,1.964276 -0.172205,0.101604 -0.398334,0.103271 -0.639907,0.0047 z m 0.681956,-0.312805 c 0.354128,-0.250525 1.358355,-1.012126 1.81541,-1.376797 0.537371,-0.428752 0.598921,-0.493547 0.633573,-0.666962 0.06192,-0.309915 0.154976,-1.794696 0.205292,-3.275805 0.02806,-0.82606 0.02665,-0.940151 -0.01209,-0.978893 -0.05115,-0.05115 -0.07672,-0.04286 -1.158797,0.375245 -1.269982,0.490712 -1.8449,0.758627 -1.912296,0.891141 -0.06033,0.118622 -0.03326,2.613007 0.04901,4.516299 0.02534,0.586113 0.04026,0.707347 0.08705,0.707347 0.01213,0 0.143904,-0.08621 0.292842,-0.191575 z m -0.622651,-1.013802 c -0.01218,-0.535923 -0.02681,-1.694557 -0.03252,-2.574744 -0.0081,-1.255585 -0.01836,-1.607633 -0.04745,-1.63421 -0.106289,-0.0971 -3.10159,-0.677511 -3.496415,-0.677511 h -0.135139 l 3.71e-4,0.281495 c 5.78e-4,0.445614 0.107808,1.632044 0.261587,2.894346 0.106753,0.876288 0.163675,1.197828 0.22476,1.269608 0.108101,0.127026 1.297194,0.741581 1.931131,0.998059 0.417345,0.168849 1.151926,0.414027 1.246224,0.415946 l 0.06959,0.0014 z m 0.778946,-4.666157 c 0.521312,-0.175316 1.631211,-0.587253 1.882404,-0.698649 0.123751,-0.05488 0.155359,-0.08002 0.123166,-0.09796 -0.08273,-0.04609 -1.835693,-0.312599 -2.781117,-0.422813 -0.349053,-0.04069 -0.466344,-0.04391 -0.635169,-0.01741 -0.320219,0.05026 -2.598014,0.698144 -2.656719,0.755658 -0.03178,0.03113 0.194652,0.08146 1.179323,0.262104 1.326108,0.243286 2.097867,0.369927 2.267379,0.372065 0.120438,0.0015 0.273269,-0.03615 0.620733,-0.153004 z"
           id="path828-35-3"
           inkscape:connector-curvature="0"
           sodipodi:nodetypes="cccssssssccscscccccsscscssccscsccscccccsscsssscs" />
      </g>
      <path
         inkscape:connector-curvature="0"
         id="path1183-7"
         d="m 40.005622,41.86512 v 5.58932"
         style="display:inline;fill:none;stroke:#000000;stroke-width:0.26458332px;stroke-linecap:butt;stroke-linejoin:miter;stroke-opacity:1" />
      <path
         inkscape:connector-curvature="0"
         id="path1183-3"
         d="m 66.474471,42.048868 v 5.58932"
         style="display:inline;fill:none;stroke:#000000;stroke-width:0.26458332px;stroke-linecap:butt;stroke-linejoin:miter;stroke-opacity:1" />
    </g>
  </g>
</svg>
