<?xml version="1.0" encoding="UTF-8" standalone="no"?>
<!-- Created with Inkscape (http://www.inkscape.org/) -->

<svg
   width="120mm"
   height="23.016712mm"
   viewBox="0 0 120 23.016712"
   version="1.1"
   id="svg1100"
   inkscape:version="1.1.2 (0a00cf5339, 2022-02-04)"
   sodipodi:docname="Plasma Rifle.svg"
   xmlns:inkscape="http://www.inkscape.org/namespaces/inkscape"
   xmlns:sodipodi="http://sodipodi.sourceforge.net/DTD/sodipodi-0.dtd"
   xmlns="http://www.w3.org/2000/svg"
   xmlns:svg="http://www.w3.org/2000/svg"
   xmlns:rdf="http://www.w3.org/1999/02/22-rdf-syntax-ns#"
   xmlns:cc="http://creativecommons.org/ns#"
   xmlns:dc="http://purl.org/dc/elements/1.1/">
  <defs
     id="defs1094" />
  <sodipodi:namedview
     id="base"
     pagecolor="#ffffff"
     bordercolor="#666666"
     borderopacity="1.0"
     inkscape:pageopacity="0.0"
     inkscape:pageshadow="2"
     inkscape:zoom="0.7071068"
     inkscape:cx="38.890872"
     inkscape:cy="67.175142"
     inkscape:document-units="mm"
     inkscape:current-layer="layer1"
     showgrid="false"
     inkscape:window-width="1850"
     inkscape:window-height="1016"
     inkscape:window-x="70"
     inkscape:window-y="1107"
     inkscape:window-maximized="1"
     fit-margin-top="0"
     fit-margin-left="0"
     fit-margin-right="0"
     fit-margin-bottom="0"
     inkscape:snap-global="false"
     inkscape:snap-bbox="true"
     inkscape:pagecheckerboard="0"
     showguides="true"
     inkscape:guide-bbox="true">
    <sodipodi:guide
       position="61.449478,22.884421"
       orientation="0,-1"
       id="guide29583" />
  </sodipodi:namedview>
  <metadata
     id="metadata1097">
    <rdf:RDF>
      <cc:Work
         rdf:about="">
        <dc:format>image/svg+xml</dc:format>
        <dc:type
           rdf:resource="http://purl.org/dc/dcmitype/StillImage" />
      </cc:Work>
    </rdf:RDF>
  </metadata>
  <g
     inkscape:groupmode="layer"
     id="layer3"
     inkscape:label="Background"
     style="display:inline" />
  <g
     inkscape:groupmode="layer"
     id="layer2"
     inkscape:label="Guias"
     style="display:none"
     transform="translate(0,0.2323513)">
    <g
       id="g1399"
       transform="translate(-6.7978492)">
      <rect
         y="11.402682"
         x="50.431446"
         height="11"
         width="74.99527"
         id="rect1878-3"
         style="display:inline;opacity:1;vector-effect:none;fill:#ffe680;fill-opacity:1;stroke:none;stroke-width:0.47467926;stroke-linecap:butt;stroke-linejoin:miter;stroke-miterlimit:4;stroke-dasharray:none;stroke-dashoffset:0;stroke-opacity:1" />
      <rect
         y="0.30218902"
         x="8.1689825"
         height="22.148087"
         width="42.262463"
         id="rect1868"
         style="display:inline;opacity:1;vector-effect:none;fill:#decd87;fill-opacity:1;stroke:none;stroke-width:0.39467782;stroke-linecap:butt;stroke-linejoin:miter;stroke-miterlimit:4;stroke-dasharray:none;stroke-dashoffset:0;stroke-opacity:1" />
      <rect
         y="0.39782956"
         x="50.431446"
         height="11"
         width="74.99527"
         id="rect1878"
         style="display:inline;opacity:1;vector-effect:none;fill:#deaa87;fill-opacity:1;stroke:none;stroke-width:0.47467929;stroke-linecap:butt;stroke-linejoin:miter;stroke-miterlimit:4;stroke-dasharray:none;stroke-dashoffset:0;stroke-opacity:1" />
      <rect
         y="12.891373"
         x="76.863533"
         height="8.0226164"
         width="22"
         id="rect1878-7-3"
         style="display:inline;opacity:1;vector-effect:none;fill:#eeffaa;fill-opacity:1;stroke:none;stroke-width:0.19344766;stroke-linecap:butt;stroke-linejoin:miter;stroke-miterlimit:4;stroke-dasharray:none;stroke-dashoffset:0;stroke-opacity:1" />
      <rect
         y="12.891415"
         x="103.2956"
         height="8.0226164"
         width="22"
         id="rect1878-7-56"
         style="display:inline;opacity:1;vector-effect:none;fill:#ccffaa;fill-opacity:1;stroke:none;stroke-width:0.21753596;stroke-linecap:butt;stroke-linejoin:miter;stroke-miterlimit:4;stroke-dasharray:none;stroke-dashoffset:0;stroke-opacity:1" />
      <rect
         y="12.680782"
         x="50.431446"
         height="8.443799"
         width="22"
         id="rect1878-7"
         style="display:inline;opacity:1;vector-effect:none;fill:#ff9955;fill-opacity:1;stroke:none;stroke-width:0.22317314;stroke-linecap:butt;stroke-linejoin:miter;stroke-miterlimit:4;stroke-dasharray:none;stroke-dashoffset:0;stroke-opacity:1" />
      <rect
         y="13.158642"
         x="77.363533"
         height="7.4880772"
         width="21"
         id="rect1878-7-2-7"
         style="display:inline;opacity:1;vector-effect:none;fill:#ddff55;fill-opacity:1;stroke:none;stroke-width:0.20533194;stroke-linecap:butt;stroke-linejoin:miter;stroke-miterlimit:4;stroke-dasharray:none;stroke-dashoffset:0;stroke-opacity:1" />
      <rect
         y="13.158684"
         x="103.7956"
         height="7.4880772"
         width="21"
         id="rect1878-7-2-7-0"
         style="display:inline;opacity:1;vector-effect:none;fill:#66ff00;fill-opacity:1;stroke:none;stroke-width:0.20533194;stroke-linecap:butt;stroke-linejoin:miter;stroke-miterlimit:4;stroke-dasharray:none;stroke-dashoffset:0;stroke-opacity:1" />
      <rect
         y="13.158642"
         x="50.931446"
         height="7.4880772"
         width="21"
         id="rect1878-7-2"
         style="display:inline;opacity:1;vector-effect:none;fill:#d45500;fill-opacity:1;stroke:none;stroke-width:0.20533194;stroke-linecap:butt;stroke-linejoin:miter;stroke-miterlimit:4;stroke-dasharray:none;stroke-dashoffset:0;stroke-opacity:1" />
    </g>
  </g>
  <g
     inkscape:label="Capa 1"
     inkscape:groupmode="layer"
     id="layer1"
     transform="translate(28.060163,-27.595709)"
     style="display:inline">
    <g
       transform="matrix(0.35279357,0,0,0.35279357,27.66483,22.56444)"
       id="layer1-6-3-2"
       inkscape:label="Capa 1" />
    <rect
       style="display:inline;opacity:1;fill:#ffffff;fill-opacity:1;stroke:none;stroke-width:0.71100003;stroke-miterlimit:4;stroke-dasharray:none;stroke-dashoffset:0;stroke-opacity:1"
       id="rect1126"
       width="119.99902"
       height="23.017704"
       x="-28.060163"
       y="27.595709" />
    <g
       style="display:inline"
       id="g9128"
       transform="translate(-107.62953,-199.34653)">
      <path
         inkscape:connector-curvature="0"
         id="path9084"
         d="M 83.843672,227.37459 H 195.29507"
         style="fill:none;stroke:#000000;stroke-width:0.40000001;stroke-linecap:butt;stroke-linejoin:miter;stroke-miterlimit:4;stroke-dasharray:none;stroke-opacity:1" />
      <path
         inkscape:connector-curvature="0"
         id="path9084-3"
         d="M 83.843669,249.75895 H 195.29507"
         style="fill:none;stroke:#000000;stroke-width:0.40000001;stroke-linecap:butt;stroke-linejoin:miter;stroke-miterlimit:4;stroke-dasharray:none;stroke-opacity:1" />
    </g>
    <path
       style="display:inline;fill:#000000;stroke-width:0.0133824"
       d="m 34.343677,38.198215 c -1.37191,-0.10779 -2.53514,-1.00056 -2.98415,-2.29054 -0.24281,-0.6976 -0.25156,-1.46808 -0.0247,-2.1714 0.3381,-1.04785 1.15925,-1.86902 2.20764,-2.2077 0.60275,-0.19472 1.26886,-0.21697 1.87845,-0.0628 0.82817,0.2095 1.53213,0.70452 2.01175,1.41465 0.28706,0.42504 0.46428,0.88884 0.5462,1.42945 0.04,0.26439 0.04,0.68576 0,0.95015 -0.11325,0.74716 -0.41943,1.37345 -0.93159,1.90535 -0.52896,0.54933 -1.25418,0.91385 -2.014,1.0123 -0.18338,0.0237 -0.52039,0.0337 -0.68965,0.0205 z m 0.51716,-0.61687 c 0.50388,-0.0508 0.95417,-0.22111 1.38316,-0.5231 0.16073,-0.1131 0.51013,-0.46317 0.62262,-0.62373 0.2987,-0.42632 0.46609,-0.86703 0.52085,-1.3713 0.0505,-0.46394 -0.0344,-0.98132 -0.23445,-1.43279 -0.0562,-0.12685 -0.19016,-0.3646 -0.24667,-0.43794 l -0.0258,-0.0334 -0.6877,0.68719 -0.6877,0.6872 -0.0455,-0.0237 c -0.025,-0.0125 -0.095,-0.0397 -0.15544,-0.0594 l -0.11013,-0.0356 0.0478,-0.0458 c 0.12404,-0.11872 0.22631,-0.3056 0.26627,-0.48615 0.03,-0.13591 0.0214,-0.33558 -0.0205,-0.46836 l -0.0291,-0.0925 0.39597,-0.39613 c 0.21778,-0.21787 0.39597,-0.39998 0.39597,-0.4047 0,-0.0156 -0.24582,-0.1685 -0.38083,-0.23788 -0.75022,-0.38542 -1.64771,-0.40845 -2.42847,-0.0623 -0.31573,0.13997 -0.55766,0.30974 -0.83096,0.58304 -0.28401,0.28401 -0.45019,0.52501 -0.59873,0.86831 -0.26961,0.62309 -0.30217,1.34622 -0.0895,1.98841 0.0526,0.15895 0.12997,0.3405 0.1949,0.45778 0.0614,0.11076 0.20029,0.32574 0.2105,0.32574 0.005,0 0.18477,-0.17612 0.40011,-0.39135 l 0.39152,-0.39136 v 0.57871 0.57871 h 0.0498 0.0498 l -0.12356,0.12403 c -0.0679,0.0683 -0.12357,0.12794 -0.12357,0.13263 0,0.0156 0.2158,0.14715 0.36042,0.2198 0.31229,0.15686 0.67779,0.26052 1.02467,0.29066 0.12247,0.0109 0.37436,0.008 0.50377,-0.005 z m -1.56745,-1.56851 c 2.5e-4,-0.72221 0.003,-0.74561 0.10107,-0.94462 0.10889,-0.22061 0.31257,-0.38972 0.56122,-0.46602 0.0725,-0.0222 0.1345,-0.0247 0.64235,-0.0247 h 0.56207 l 0.11528,0.0412 c 0.23248,0.0833 0.40858,0.23843 0.51498,0.45386 0.0958,0.19396 0.0986,0.22012 0.0987,0.94011 l 2.5e-4,0.63232 h -0.25427 -0.25426 v -0.61559 -0.61559 h -0.0803 -0.0803 v 0.61559 0.61559 h -0.62899 -0.62898 v -0.61559 -0.61559 h -0.0803 -0.0803 v 0.61559 0.61559 h -0.25427 -0.25427 l 2.5e-4,-0.63232 z m 1.19751,-1.55754 c -0.28269,-0.0433 -0.50729,-0.22321 -0.61564,-0.49332 -0.049,-0.12201 -0.0612,-0.31702 -0.0281,-0.4484 0.072,-0.28645 0.30216,-0.50813 0.59025,-0.56861 0.1181,-0.0248 0.18969,-0.0248 0.30781,0 0.28496,0.0598 0.51726,0.28143 0.58859,0.56147 0.099,0.38874 -0.14122,0.80919 -0.52694,0.92249 -0.0761,0.0223 -0.24822,0.0367 -0.31592,0.0264 z"
       id="path861" />
    <path
       inkscape:connector-curvature="0"
       id="path1183"
       d="m 40.024002,43.317021 v 5.58932"
       style="fill:none;stroke:#000000;stroke-width:0.264583px;stroke-linecap:butt;stroke-linejoin:miter;stroke-opacity:1" />
    <text
       id="text1088-1"
       y="47.528122"
       x="42.532104"
       style="font-style:normal;font-weight:normal;font-size:132.329px;line-height:1.25;font-family:sans-serif;letter-spacing:0px;word-spacing:0px;fill:#000000;fill-opacity:1;stroke:none;stroke-width:0.220548"
       xml:space="preserve"><tspan
         style="font-size:2.64658px;stroke-width:0.220548"
         y="47.528122"
         x="42.532104"
         id="tspan1086-8"
         sodipodi:role="line">20</tspan></text>
    <text
       id="text1088-0-9"
       y="47.509384"
       x="60.52253"
       style="font-style:normal;font-weight:normal;font-size:132.329px;line-height:1.25;font-family:sans-serif;letter-spacing:0px;word-spacing:0px;fill:#000000;fill-opacity:1;stroke:none;stroke-width:0.220548"
       xml:space="preserve"><tspan
         style="font-size:2.64658px;stroke-width:0.220548"
         y="47.509384"
         x="60.52253"
         id="tspan1086-9-2"
         sodipodi:role="line">40</tspan></text>
    <g
       transform="matrix(0.35279357,0,0,0.35279357,46.335756,27.447014)"
       id="layer1-6-3-2-32"
       inkscape:label="Capa 1">
      <path
         sodipodi:nodetypes="cccssssssccscscccccsscscssccscsccscccccsscsssscs"
         inkscape:connector-curvature="0"
         id="path828-6-0-0"
         d="m 15.55133,51.922274 c -0.685146,-0.279517 -3.20637,-1.507059 -3.324727,-1.618753 -0.03438,-0.03244 -0.07718,-0.127286 -0.09554,-0.211722 -0.08948,-0.411375 -0.262648,-1.722668 -0.332832,-2.520399 -0.05025,-0.57112 -0.0596,-2.009074 -0.01364,-2.094972 0.04031,-0.07531 0.184184,-0.143729 0.562025,-0.267256 0.722856,-0.236322 1.733468,-0.499615 2.410752,-0.628071 0.275408,-0.05224 0.396016,-0.0603 0.707347,-0.04732 0.415417,0.01732 1.429283,0.142198 2.38188,0.293384 0.766175,0.121598 1.019543,0.178219 1.103853,0.246676 l 0.06543,0.05313 -0.0077,1.496494 c -0.0081,1.566318 -0.04308,2.635128 -0.0968,2.95367 -0.03024,0.179307 -0.04114,0.197626 -0.223796,0.376151 -0.196508,0.192058 -2.306176,1.852072 -2.49635,1.964276 -0.172205,0.101604 -0.398334,0.103271 -0.639907,0.0047 z m 0.681956,-0.312805 c 0.354128,-0.250525 1.358355,-1.012126 1.81541,-1.376797 0.537371,-0.428752 0.598921,-0.493547 0.633573,-0.666962 0.06192,-0.309915 0.154976,-1.794696 0.205292,-3.275805 0.02806,-0.82606 0.02665,-0.940151 -0.01209,-0.978893 -0.05115,-0.05115 -0.07672,-0.04286 -1.158797,0.375245 -1.269982,0.490712 -1.8449,0.758627 -1.912296,0.891141 -0.06033,0.118622 -0.03326,2.613007 0.04901,4.516299 0.02534,0.586113 0.04026,0.707347 0.08705,0.707347 0.01213,0 0.143904,-0.08621 0.292842,-0.191575 z m -0.622651,-1.013802 c -0.01218,-0.535923 -0.02681,-1.694557 -0.03252,-2.574744 -0.0081,-1.255585 -0.01836,-1.607633 -0.04745,-1.63421 -0.106289,-0.0971 -3.10159,-0.677511 -3.496415,-0.677511 h -0.135139 l 3.71e-4,0.281495 c 5.78e-4,0.445614 0.107808,1.632044 0.261587,2.894346 0.106753,0.876288 0.163675,1.197828 0.22476,1.269608 0.108101,0.127026 1.297194,0.741581 1.931131,0.998059 0.417345,0.168849 1.151926,0.414027 1.246224,0.415946 l 0.06959,0.0014 z m 0.778946,-4.666157 c 0.521312,-0.175316 1.631211,-0.587253 1.882404,-0.698649 0.123751,-0.05488 0.155359,-0.08002 0.123166,-0.09796 -0.08273,-0.04609 -1.835693,-0.312599 -2.781117,-0.422813 -0.349053,-0.04069 -0.466344,-0.04391 -0.635169,-0.01741 -0.320219,0.05026 -2.598014,0.698144 -2.656719,0.755658 -0.03178,0.03113 0.194652,0.08146 1.179323,0.262104 1.326108,0.243286 2.097867,0.369927 2.267379,0.372065 0.120438,0.0015 0.273269,-0.03615 0.620733,-0.153004 z"
         style="fill:#000000;stroke:#000000;stroke-width:0.229;stroke-miterlimit:4;stroke-dasharray:none;stroke-opacity:1" />
    </g>
    <g
       transform="matrix(0.35279357,0,0,0.35279357,49.288526,27.447014)"
       id="layer1-6-75-2-6"
       inkscape:label="Capa 1">
      <path
         sodipodi:nodetypes="cccssssssccscscccccsscscssccscsccscccccsscsssscs"
         inkscape:connector-curvature="0"
         id="path828-35-3-1"
         d="m 15.55133,51.922274 c -0.685146,-0.279517 -3.20637,-1.507059 -3.324727,-1.618753 -0.03438,-0.03244 -0.07718,-0.127286 -0.09554,-0.211722 -0.08948,-0.411375 -0.262648,-1.722668 -0.332832,-2.520399 -0.05025,-0.57112 -0.0596,-2.009074 -0.01364,-2.094972 0.04031,-0.07531 0.184184,-0.143729 0.562025,-0.267256 0.722856,-0.236322 1.733468,-0.499615 2.410752,-0.628071 0.275408,-0.05224 0.396016,-0.0603 0.707347,-0.04732 0.415417,0.01732 1.429283,0.142198 2.38188,0.293384 0.766175,0.121598 1.019543,0.178219 1.103853,0.246676 l 0.06543,0.05313 -0.0077,1.496494 c -0.0081,1.566318 -0.04308,2.635128 -0.0968,2.95367 -0.03024,0.179307 -0.04114,0.197626 -0.223796,0.376151 -0.196508,0.192058 -2.306176,1.852072 -2.49635,1.964276 -0.172205,0.101604 -0.398334,0.103271 -0.639907,0.0047 z m 0.681956,-0.312805 c 0.354128,-0.250525 1.358355,-1.012126 1.81541,-1.376797 0.537371,-0.428752 0.598921,-0.493547 0.633573,-0.666962 0.06192,-0.309915 0.154976,-1.794696 0.205292,-3.275805 0.02806,-0.82606 0.02665,-0.940151 -0.01209,-0.978893 -0.05115,-0.05115 -0.07672,-0.04286 -1.158797,0.375245 -1.269982,0.490712 -1.8449,0.758627 -1.912296,0.891141 -0.06033,0.118622 -0.03326,2.613007 0.04901,4.516299 0.02534,0.586113 0.04026,0.707347 0.08705,0.707347 0.01213,0 0.143904,-0.08621 0.292842,-0.191575 z m -0.622651,-1.013802 c -0.01218,-0.535923 -0.02681,-1.694557 -0.03252,-2.574744 -0.0081,-1.255585 -0.01836,-1.607633 -0.04745,-1.63421 -0.106289,-0.0971 -3.10159,-0.677511 -3.496415,-0.677511 h -0.135139 l 3.71e-4,0.281495 c 5.78e-4,0.445614 0.107808,1.632044 0.261587,2.894346 0.106753,0.876288 0.163675,1.197828 0.22476,1.269608 0.108101,0.127026 1.297194,0.741581 1.931131,0.998059 0.417345,0.168849 1.151926,0.414027 1.246224,0.415946 l 0.06959,0.0014 z m 0.778946,-4.666157 c 0.521312,-0.175316 1.631211,-0.587253 1.882404,-0.698649 0.123751,-0.05488 0.155359,-0.08002 0.123166,-0.09796 -0.08273,-0.04609 -1.835693,-0.312599 -2.781117,-0.422813 -0.349053,-0.04069 -0.466344,-0.04391 -0.635169,-0.01741 -0.320219,0.05026 -2.598014,0.698144 -2.656719,0.755658 -0.03178,0.03113 0.194652,0.08146 1.179323,0.262104 1.326108,0.243286 2.097867,0.369927 2.267379,0.372065 0.120438,0.0015 0.273269,-0.03615 0.620733,-0.153004 z"
         style="fill:#000000;stroke:#000000;stroke-width:0.229;stroke-miterlimit:4;stroke-dasharray:none;stroke-opacity:1" />
    </g>
    <path
       sodipodi:nodetypes="cc"
       inkscape:connector-curvature="0"
       id="path1090-2"
       d="m 46.240047,46.557743 h 14"
       style="fill:none;stroke:#000000;stroke-width:0.209106;stroke-linecap:butt;stroke-linejoin:miter;stroke-miterlimit:4;stroke-dasharray:1.67285, 0.209106;stroke-dashoffset:0;stroke-opacity:1" />
    <text
       id="text1088-8"
       y="47.509384"
       x="68.949112"
       style="font-style:normal;font-weight:normal;font-size:132.329px;line-height:1.25;font-family:sans-serif;letter-spacing:0px;word-spacing:0px;fill:#000000;fill-opacity:1;stroke:none;stroke-width:0.220548"
       xml:space="preserve"><tspan
         style="font-size:2.64658px;stroke-width:0.220548"
         y="47.509384"
         x="68.949112"
         id="tspan1086-97"
         sodipodi:role="line">40</tspan></text>
    <text
       id="text1088-0-6"
       y="47.491943"
       x="87.036934"
       style="font-style:normal;font-weight:normal;font-size:132.329px;line-height:1.25;font-family:sans-serif;letter-spacing:0px;word-spacing:0px;fill:#000000;fill-opacity:1;stroke:none;stroke-width:0.220548"
       xml:space="preserve"><tspan
         style="font-size:2.64658px;stroke-width:0.220548"
         y="47.491943"
         x="87.036934"
         id="tspan1086-9-1"
         sodipodi:role="line">60</tspan></text>
    <g
       transform="matrix(0.35279357,0,0,0.35279357,72.767832,27.447014)"
       id="layer1-6-3-2-37"
       inkscape:label="Capa 1">
      <path
         sodipodi:nodetypes="cccssssssccscscccccsscscssccscsccscccccsscsssscs"
         inkscape:connector-curvature="0"
         id="path828-6-0-4"
         d="m 15.55133,51.922274 c -0.685146,-0.279517 -3.20637,-1.507059 -3.324727,-1.618753 -0.03438,-0.03244 -0.07718,-0.127286 -0.09554,-0.211722 -0.08948,-0.411375 -0.262648,-1.722668 -0.332832,-2.520399 -0.05025,-0.57112 -0.0596,-2.009074 -0.01364,-2.094972 0.04031,-0.07531 0.184184,-0.143729 0.562025,-0.267256 0.722856,-0.236322 1.733468,-0.499615 2.410752,-0.628071 0.275408,-0.05224 0.396016,-0.0603 0.707347,-0.04732 0.415417,0.01732 1.429283,0.142198 2.38188,0.293384 0.766175,0.121598 1.019543,0.178219 1.103853,0.246676 l 0.06543,0.05313 -0.0077,1.496494 c -0.0081,1.566318 -0.04308,2.635128 -0.0968,2.95367 -0.03024,0.179307 -0.04114,0.197626 -0.223796,0.376151 -0.196508,0.192058 -2.306176,1.852072 -2.49635,1.964276 -0.172205,0.101604 -0.398334,0.103271 -0.639907,0.0047 z m 0.681956,-0.312805 c 0.354128,-0.250525 1.358355,-1.012126 1.81541,-1.376797 0.537371,-0.428752 0.598921,-0.493547 0.633573,-0.666962 0.06192,-0.309915 0.154976,-1.794696 0.205292,-3.275805 0.02806,-0.82606 0.02665,-0.940151 -0.01209,-0.978893 -0.05115,-0.05115 -0.07672,-0.04286 -1.158797,0.375245 -1.269982,0.490712 -1.8449,0.758627 -1.912296,0.891141 -0.06033,0.118622 -0.03326,2.613007 0.04901,4.516299 0.02534,0.586113 0.04026,0.707347 0.08705,0.707347 0.01213,0 0.143904,-0.08621 0.292842,-0.191575 z m -0.622651,-1.013802 c -0.01218,-0.535923 -0.02681,-1.694557 -0.03252,-2.574744 -0.0081,-1.255585 -0.01836,-1.607633 -0.04745,-1.63421 -0.106289,-0.0971 -3.10159,-0.677511 -3.496415,-0.677511 h -0.135139 l 3.71e-4,0.281495 c 5.78e-4,0.445614 0.107808,1.632044 0.261587,2.894346 0.106753,0.876288 0.163675,1.197828 0.22476,1.269608 0.108101,0.127026 1.297194,0.741581 1.931131,0.998059 0.417345,0.168849 1.151926,0.414027 1.246224,0.415946 l 0.06959,0.0014 z m 0.778946,-4.666157 c 0.521312,-0.175316 1.631211,-0.587253 1.882404,-0.698649 0.123751,-0.05488 0.155359,-0.08002 0.123166,-0.09796 -0.08273,-0.04609 -1.835693,-0.312599 -2.781117,-0.422813 -0.349053,-0.04069 -0.466344,-0.04391 -0.635169,-0.01741 -0.320219,0.05026 -2.598014,0.698144 -2.656719,0.755658 -0.03178,0.03113 0.194652,0.08146 1.179323,0.262104 1.326108,0.243286 2.097867,0.369927 2.267379,0.372065 0.120438,0.0015 0.273269,-0.03615 0.620733,-0.153004 z"
         style="fill:#000000;stroke:#000000;stroke-width:0.229;stroke-miterlimit:4;stroke-dasharray:none;stroke-opacity:1" />
    </g>
    <g
       transform="matrix(0.35279357,0,0,0.35279357,75.720602,27.447014)"
       id="layer1-6-75-2-5"
       inkscape:label="Capa 1">
      <path
         sodipodi:nodetypes="cccssssssccscscccccsscscssccscsccscccccsscsssscs"
         inkscape:connector-curvature="0"
         id="path828-35-3-2"
         d="m 15.55133,51.922274 c -0.685146,-0.279517 -3.20637,-1.507059 -3.324727,-1.618753 -0.03438,-0.03244 -0.07718,-0.127286 -0.09554,-0.211722 -0.08948,-0.411375 -0.262648,-1.722668 -0.332832,-2.520399 -0.05025,-0.57112 -0.0596,-2.009074 -0.01364,-2.094972 0.04031,-0.07531 0.184184,-0.143729 0.562025,-0.267256 0.722856,-0.236322 1.733468,-0.499615 2.410752,-0.628071 0.275408,-0.05224 0.396016,-0.0603 0.707347,-0.04732 0.415417,0.01732 1.429283,0.142198 2.38188,0.293384 0.766175,0.121598 1.019543,0.178219 1.103853,0.246676 l 0.06543,0.05313 -0.0077,1.496494 c -0.0081,1.566318 -0.04308,2.635128 -0.0968,2.95367 -0.03024,0.179307 -0.04114,0.197626 -0.223796,0.376151 -0.196508,0.192058 -2.306176,1.852072 -2.49635,1.964276 -0.172205,0.101604 -0.398334,0.103271 -0.639907,0.0047 z m 0.681956,-0.312805 c 0.354128,-0.250525 1.358355,-1.012126 1.81541,-1.376797 0.537371,-0.428752 0.598921,-0.493547 0.633573,-0.666962 0.06192,-0.309915 0.154976,-1.794696 0.205292,-3.275805 0.02806,-0.82606 0.02665,-0.940151 -0.01209,-0.978893 -0.05115,-0.05115 -0.07672,-0.04286 -1.158797,0.375245 -1.269982,0.490712 -1.8449,0.758627 -1.912296,0.891141 -0.06033,0.118622 -0.03326,2.613007 0.04901,4.516299 0.02534,0.586113 0.04026,0.707347 0.08705,0.707347 0.01213,0 0.143904,-0.08621 0.292842,-0.191575 z m -0.622651,-1.013802 c -0.01218,-0.535923 -0.02681,-1.694557 -0.03252,-2.574744 -0.0081,-1.255585 -0.01836,-1.607633 -0.04745,-1.63421 -0.106289,-0.0971 -3.10159,-0.677511 -3.496415,-0.677511 h -0.135139 l 3.71e-4,0.281495 c 5.78e-4,0.445614 0.107808,1.632044 0.261587,2.894346 0.106753,0.876288 0.163675,1.197828 0.22476,1.269608 0.108101,0.127026 1.297194,0.741581 1.931131,0.998059 0.417345,0.168849 1.151926,0.414027 1.246224,0.415946 l 0.06959,0.0014 z m 0.778946,-4.666157 c 0.521312,-0.175316 1.631211,-0.587253 1.882404,-0.698649 0.123751,-0.05488 0.155359,-0.08002 0.123166,-0.09796 -0.08273,-0.04609 -1.835693,-0.312599 -2.781117,-0.422813 -0.349053,-0.04069 -0.466344,-0.04391 -0.635169,-0.01741 -0.320219,0.05026 -2.598014,0.698144 -2.656719,0.755658 -0.03178,0.03113 0.194652,0.08146 1.179323,0.262104 1.326108,0.243286 2.097867,0.369927 2.267379,0.372065 0.120438,0.0015 0.273269,-0.03615 0.620733,-0.153004 z"
         style="fill:#000000;stroke:#000000;stroke-width:0.229;stroke-miterlimit:4;stroke-dasharray:none;stroke-opacity:1" />
    </g>
    <path
       sodipodi:nodetypes="cc"
       inkscape:connector-curvature="0"
       id="path1090-2-1"
       d="m 72.672123,46.557743 h 14"
       style="fill:none;stroke:#000000;stroke-width:0.209106;stroke-linecap:butt;stroke-linejoin:miter;stroke-miterlimit:4;stroke-dasharray:0.627317, 0.209106;stroke-dashoffset:0;stroke-opacity:1" />
    <path
       inkscape:connector-curvature="0"
       id="path1183-2"
       d="m 66.456089,43.500769 v 5.58932"
       style="fill:none;stroke:#000000;stroke-width:0.264583px;stroke-linecap:butt;stroke-linejoin:miter;stroke-opacity:1" />
    <text
       id="text1088"
       y="47.510681"
       x="16.060684"
       style="font-style:normal;font-weight:normal;font-size:132.329px;line-height:1.25;font-family:sans-serif;letter-spacing:0px;word-spacing:0px;fill:#000000;fill-opacity:1;stroke:none;stroke-width:0.220548"
       xml:space="preserve"><tspan
         style="font-size:2.64658px;stroke-width:0.220548"
         y="47.510681"
         x="16.060684"
         id="tspan1086"
         sodipodi:role="line">1</tspan></text>
    <path
       sodipodi:nodetypes="cc"
       inkscape:connector-curvature="0"
       id="path1090"
       d="m 19.807967,46.557743 h 14"
       style="fill:none;stroke:#000000;stroke-width:0.209302px;stroke-linecap:butt;stroke-linejoin:miter;stroke-opacity:1" />
    <text
       id="text1088-0"
       y="47.528122"
       x="34.195385"
       style="font-style:normal;font-weight:normal;font-size:132.329px;line-height:1.25;font-family:sans-serif;letter-spacing:0px;word-spacing:0px;fill:#000000;fill-opacity:1;stroke:none;stroke-width:0.220548"
       xml:space="preserve"><tspan
         style="font-size:2.64658px;stroke-width:0.220548"
         y="47.528122"
         x="34.195385"
         id="tspan1086-9"
         sodipodi:role="line">20</tspan></text>
    <path
       inkscape:connector-curvature="0"
       id="path1524"
       d="m 26.707462,45.83725 c -0.32721,-0.0309 -0.608,-0.1648 -0.83408,-0.39766 -0.2053,-0.21148 -0.33063,-0.46763 -0.37577,-0.76802 -0.0146,-0.0964 -0.0146,-0.2929 0,-0.38932 0.0451,-0.30039 0.17047,-0.55655 0.37577,-0.76802 0.2053,-0.21146 0.45398,-0.34056 0.74561,-0.38706 0.0936,-0.0149 0.28435,-0.0149 0.37795,0 0.29163,0.0465 0.54032,0.1756 0.74561,0.38706 0.20529,0.21147 0.33063,0.46763 0.37577,0.76802 0.0146,0.0964 0.0146,0.2929 0,0.38932 -0.0451,0.30039 -0.17048,0.55654 -0.37577,0.76802 -0.20369,0.2098 -0.45536,0.34113 -0.73948,0.38588 -0.0606,0.01 -0.24253,0.0168 -0.29561,0.0118 z m 0.28674,-0.4043 c 0.37902,-0.0826 0.66052,-0.37337 0.74277,-0.76726 0.0114,-0.0546 0.0134,-0.0821 0.0134,-0.18878 0,-0.13727 -0.008,-0.19521 -0.0442,-0.30753 -0.0193,-0.0605 -0.0832,-0.19821 -0.0976,-0.21054 -0.008,-0.007 -0.0985,0.0842 -0.66014,0.66271 -0.52709,0.54293 -0.64968,0.67214 -0.64415,0.67901 0.0112,0.0138 0.11799,0.0686 0.17857,0.0916 0.0594,0.0225 0.14302,0.0439 0.20692,0.053 0.0658,0.009 0.23732,0.003 0.30447,-0.0122 z m -0.32558,-1.10178 c 0.56058,-0.57744 0.64885,-0.67074 0.6423,-0.67888 -0.012,-0.0148 -0.1457,-0.0806 -0.2044,-0.10052 -0.10905,-0.037 -0.16529,-0.0455 -0.29856,-0.0455 -0.10356,0 -0.13023,0.002 -0.18327,0.0138 -0.34077,0.0755 -0.6073,0.3177 -0.71464,0.6494 -0.036,0.11106 -0.0444,0.16988 -0.0444,0.30753 0,0.13764 0.008,0.19646 0.0444,0.30752 0.0273,0.0846 0.0909,0.21619 0.10432,0.21619 0.003,0 0.29681,-0.30125 0.65425,-0.66945 z"
       style="fill:#000000;stroke-width:0.00600021" />
    <g
       style="display:inline"
       id="g1033"
       transform="translate(19.247686,66.198426)">
      <rect
         y="-36.617252"
         x="21.17853"
         height="8.2894325"
         width="8.2894325"
         id="rect925-7-3-61-49-09"
         style="display:inline;opacity:1;vector-effect:none;fill:#ffffff;fill-opacity:1;stroke:#000000;stroke-width:0.71056741;stroke-linecap:butt;stroke-linejoin:miter;stroke-miterlimit:4;stroke-dasharray:none;stroke-dashoffset:0;stroke-opacity:1" />
      <rect
         y="-36.617252"
         x="31.46801"
         height="8.2894325"
         width="8.2894325"
         id="rect925-7-3-61-49-0-6"
         style="display:inline;opacity:1;vector-effect:none;fill:#ffffff;fill-opacity:1;stroke:#000000;stroke-width:0.71056741;stroke-linecap:butt;stroke-linejoin:miter;stroke-miterlimit:4;stroke-dasharray:none;stroke-dashoffset:0;stroke-opacity:1" />
      <rect
         y="-36.617252"
         x="41.757488"
         height="8.2894325"
         width="8.2894325"
         id="rect925-7-3-61-49-9-3"
         style="display:inline;opacity:1;vector-effect:none;fill:#ffffff;fill-opacity:1;stroke:#000000;stroke-width:0.71056741;stroke-linecap:butt;stroke-linejoin:miter;stroke-miterlimit:4;stroke-dasharray:none;stroke-dashoffset:0;stroke-opacity:1" />
      <rect
         y="-36.617252"
         x="52.046974"
         height="8.2894325"
         width="8.2894325"
         id="rect925-7-3-61-49-1-8"
         style="display:inline;opacity:1;vector-effect:none;fill:#ffffff;fill-opacity:1;stroke:#000000;stroke-width:0.71056741;stroke-linecap:butt;stroke-linejoin:miter;stroke-miterlimit:4;stroke-dasharray:none;stroke-dashoffset:0;stroke-opacity:1" />
      <rect
         y="-36.617252"
         x="62.336449"
         height="8.2894325"
         width="8.2894325"
         id="rect925-7-3-61-49-7-5"
         style="display:inline;opacity:1;vector-effect:none;fill:#ffffff;fill-opacity:1;stroke:#000000;stroke-width:0.71056741;stroke-linecap:butt;stroke-linejoin:miter;stroke-miterlimit:4;stroke-dasharray:none;stroke-dashoffset:0;stroke-opacity:1" />
    </g>
    <g
       id="g13907"
       transform="translate(-10.27193,9.4374732)">
      <ellipse
         cy="25.34675"
         cx="30.677336"
         id="path1760-3-3-6"
         style="vector-effect:none;fill:#ffffff;fill-opacity:1;stroke:#000000;stroke-width:0.412575;stroke-linecap:butt;stroke-linejoin:miter;stroke-miterlimit:4;stroke-dasharray:none;stroke-dashoffset:0;stroke-opacity:1"
         rx="3.8476732"
         ry="3.8476737" />
      <g
         inkscape:export-ydpi="300"
         inkscape:export-xdpi="300"
         inkscape:export-filename="5cpp.png"
         transform="matrix(0.73525216,0,0,0.73525227,8.6959405,-64.581259)"
         id="g1055">
        <path
           style="display:inline;fill:#000000;stroke:#000000;stroke-width:0.2;stroke-miterlimit:4;stroke-dasharray:none;stroke-opacity:1"
           d="m 31.683759,121.78745 c -0.149113,-0.37791 -0.304974,-0.63865 -0.476928,-0.79784 -0.159143,-0.14734 -0.442683,-0.30808 -0.762236,-0.43212 -0.06612,-0.0257 -0.11569,-0.0603 -0.110153,-0.0769 0.0055,-0.0166 0.134878,-0.0832 0.287426,-0.14805 0.566328,-0.24066 0.792737,-0.47837 1.037804,-1.08964 0.0504,-0.12572 0.103709,-0.22455 0.118462,-0.21964 0.01475,0.005 0.07963,0.13522 0.144175,0.28956 0.249895,0.59755 0.48919,0.8226 1.153122,1.08449 0.08805,0.0348 0.156286,0.0746 0.151633,0.0885 -0.0046,0.0139 -0.133297,0.0784 -0.285875,0.14327 -0.329974,0.14022 -0.557339,0.28557 -0.691746,0.44225 -0.09528,0.11106 -0.31251,0.51789 -0.4045,0.75755 -0.02481,0.0646 -0.05711,0.11752 -0.07178,0.11752 -0.01467,0 -0.0549,-0.0716 -0.08941,-0.15901 z"
           id="path932-27"
           inkscape:connector-curvature="0"
           sodipodi:nodetypes="cccccscccccccsc" />
        <path
           style="display:inline;fill:#000000;stroke:#000000;stroke-width:0.2;stroke-miterlimit:4;stroke-dasharray:none;stroke-opacity:1"
           d="m 31.683759,125.43568 c -0.149113,-0.37791 -0.304974,-0.63865 -0.476928,-0.79784 -0.159143,-0.14734 -0.442683,-0.30808 -0.762236,-0.43212 -0.06612,-0.0257 -0.11569,-0.0603 -0.110153,-0.0769 0.0055,-0.0166 0.134878,-0.0832 0.287426,-0.14805 0.566328,-0.24066 0.792737,-0.47837 1.037804,-1.08964 0.0504,-0.12572 0.103709,-0.22455 0.118462,-0.21964 0.01475,0.005 0.07963,0.13522 0.144175,0.28956 0.249895,0.59755 0.48919,0.8226 1.153122,1.08449 0.08805,0.0348 0.156286,0.0746 0.151633,0.0885 -0.0046,0.0139 -0.133297,0.0784 -0.285875,0.14327 -0.329974,0.14022 -0.557339,0.28557 -0.691746,0.44225 -0.09528,0.11106 -0.31251,0.51789 -0.4045,0.75755 -0.02481,0.0646 -0.05711,0.11752 -0.07178,0.11752 -0.01467,0 -0.0549,-0.0716 -0.08941,-0.15901 z"
           id="path932-5-0"
           inkscape:connector-curvature="0"
           sodipodi:nodetypes="cccccscccccccsc" />
        <path
           style="display:inline;fill:#000000;stroke:#000000;stroke-width:0.2;stroke-miterlimit:4;stroke-dasharray:none;stroke-opacity:1"
           d="m 27.918284,121.78745 c -0.149113,-0.37791 -0.304974,-0.63865 -0.476928,-0.79784 -0.159143,-0.14734 -0.442683,-0.30808 -0.762236,-0.43212 -0.06612,-0.0257 -0.11569,-0.0603 -0.110153,-0.0769 0.0055,-0.0166 0.134878,-0.0832 0.287426,-0.14805 0.566328,-0.24066 0.792737,-0.47837 1.037804,-1.08964 0.0504,-0.12572 0.103709,-0.22455 0.118462,-0.21964 0.01475,0.005 0.07963,0.13522 0.144175,0.28956 0.249895,0.59755 0.48919,0.8226 1.153122,1.08449 0.08805,0.0348 0.156286,0.0746 0.151633,0.0885 -0.0046,0.0139 -0.133297,0.0784 -0.285875,0.14327 -0.329974,0.14022 -0.557339,0.28557 -0.691746,0.44225 -0.09528,0.11106 -0.31251,0.51789 -0.4045,0.75755 -0.02481,0.0646 -0.05711,0.11752 -0.07178,0.11752 -0.01467,0 -0.0549,-0.0716 -0.08941,-0.15901 z"
           id="path932-6-9"
           inkscape:connector-curvature="0"
           sodipodi:nodetypes="cccccscccccccsc" />
        <path
           style="display:inline;fill:#000000;stroke:#000000;stroke-width:0.2;stroke-miterlimit:4;stroke-dasharray:none;stroke-opacity:1"
           d="m 27.918284,125.43568 c -0.149113,-0.37791 -0.304974,-0.63865 -0.476928,-0.79784 -0.159143,-0.14734 -0.442683,-0.30808 -0.762236,-0.43212 -0.06612,-0.0257 -0.11569,-0.0603 -0.110153,-0.0769 0.0055,-0.0166 0.134878,-0.0832 0.287426,-0.14805 0.566328,-0.24066 0.792737,-0.47837 1.037804,-1.08964 0.0504,-0.12572 0.103709,-0.22455 0.118462,-0.21964 0.01475,0.005 0.07963,0.13522 0.144175,0.28956 0.249895,0.59755 0.48919,0.8226 1.153122,1.08449 0.08805,0.0348 0.156286,0.0746 0.151633,0.0885 -0.0046,0.0139 -0.133297,0.0784 -0.285875,0.14327 -0.329974,0.14022 -0.557339,0.28557 -0.691746,0.44225 -0.09528,0.11106 -0.31251,0.51789 -0.4045,0.75755 -0.02481,0.0646 -0.05711,0.11752 -0.07178,0.11752 -0.01467,0 -0.0549,-0.0716 -0.08941,-0.15901 z"
           id="path932-2-3"
           inkscape:connector-curvature="0"
           sodipodi:nodetypes="cccccscccccccsc" />
        <path
           style="display:inline;fill:#000000;stroke:#000000;stroke-width:0.2;stroke-miterlimit:4;stroke-dasharray:none;stroke-opacity:1"
           d="m 29.801022,123.61156 c -0.149113,-0.37791 -0.304974,-0.63865 -0.476928,-0.79784 -0.159143,-0.14734 -0.442683,-0.30808 -0.762236,-0.43212 -0.06612,-0.0257 -0.115691,-0.0603 -0.110153,-0.0769 0.0055,-0.0166 0.134878,-0.0832 0.287426,-0.14805 0.566327,-0.24066 0.792736,-0.47837 1.037804,-1.08964 0.0504,-0.12572 0.103708,-0.22455 0.118462,-0.21964 0.01475,0.005 0.07963,0.13522 0.144175,0.28956 0.249895,0.59755 0.48919,0.8226 1.153122,1.08449 0.08805,0.0348 0.156286,0.0746 0.151632,0.0885 -0.0046,0.0139 -0.133296,0.0784 -0.285874,0.14327 -0.329974,0.14022 -0.557339,0.28557 -0.691746,0.44225 -0.09528,0.11106 -0.31251,0.51789 -0.4045,0.75755 -0.02481,0.0646 -0.05711,0.11752 -0.07178,0.11752 -0.01467,0 -0.0549,-0.0716 -0.08941,-0.15901 z"
           id="path932-27-6"
           inkscape:connector-curvature="0"
           sodipodi:nodetypes="cccccscccccccsc" />
      </g>
    </g>
    <path
       style="display:inline;fill:#000000;stroke-width:0.0047986"
       d="m 27.1855,37.130425 c -0.297685,-0.02917 -0.579943,-0.201992 -0.744795,-0.456026 -0.07664,-0.118106 -0.126248,-0.242922 -0.15257,-0.383889 -0.01309,-0.07014 -0.01792,-0.215869 -0.0095,-0.288294 0.03126,-0.270214 0.158118,-0.503512 0.368791,-0.678229 l 0.06315,-0.05237 0.0012,-0.269129 c 6.95e-4,-0.148021 0.0019,-0.681464 0.0026,-1.185433 l 0.0013,-0.916303 0.0173,-0.04822 c 0.03331,-0.09288 0.08365,-0.180845 0.138014,-0.24115 0.06619,-0.07342 0.191992,-0.14517 0.293392,-0.167312 0.02879,-0.0063 0.0616,-0.0084 0.134095,-0.0086 0.08489,-2.17e-4 0.100847,0.0012 0.138198,0.01072 0.107632,0.02792 0.19293,0.07889 0.273248,0.163292 0.09558,0.100435 0.147832,0.216155 0.157314,0.348374 0.0032,0.04474 0.01,1.684279 0.0095,2.292132 l -1.8e-5,0.0224 0.04198,0.03274 c 0.183964,0.143445 0.317763,0.352101 0.370663,0.578032 0.0343,0.146489 0.03354,0.320794 -0.002,0.467308 -0.02613,0.107627 -0.07722,0.227965 -0.134447,0.316708 -0.158449,0.245708 -0.415482,0.415336 -0.690567,0.45574 -0.06121,0.009 -0.21818,0.01323 -0.276844,0.0074 z m 0.476522,-3.35084 c -6.73e-4,-0.261914 -0.002,-0.562579 -0.0028,-0.668149 l -0.0016,-0.191943 -0.01713,-0.0395 c -0.04459,-0.102859 -0.147471,-0.197266 -0.24362,-0.223563 -0.0363,-0.0099 -0.108959,-0.01361 -0.160753,-0.0082 -0.134663,0.01424 -0.254468,0.123303 -0.297893,0.271203 -0.0078,0.02666 -0.0087,0.0773 -0.01123,0.683003 -0.0015,0.359817 -0.0024,0.65457 -0.002,0.65501 4.49e-4,4.48e-4 0.166723,2.24e-4 0.369519,-4.49e-4 l 0.368719,-0.0013 z m 0.464251,1.350107 c -0.05158,-0.0041 -0.07784,-0.01773 -0.09334,-0.04843 -0.01853,-0.03671 -0.01188,-0.0721 0.01995,-0.106136 l 0.02191,-0.02343 0.266865,8.9e-5 c 0.267141,9.2e-5 0.323214,0.0028 0.344909,0.01708 0.01493,0.0098 0.02867,0.03315 0.03237,0.05505 0.0075,0.04472 -0.02438,0.09231 -0.06722,0.100156 -0.0295,0.0054 -0.469066,0.01009 -0.525447,0.0056 z m -0.03009,-0.557262 c -0.04896,-0.0082 -0.07148,-0.03491 -0.07194,-0.08522 -4.04e-4,-0.04542 0.01995,-0.07166 0.06412,-0.08261 0.01326,-0.0033 0.123397,-0.0063 0.296102,-0.0081 l 0.274987,-0.0028 0.01684,0.01628 c 0.05777,0.05584 0.05912,0.09525 0.0052,0.151839 l -0.01486,0.0156 -0.273779,-6.73e-4 c -0.150578,-2.23e-4 -0.28408,-0.0023 -0.296671,-0.0044 z m 0.0063,-0.551435 -0.04058,-0.0027 -0.01568,-0.0206 c -0.02745,-0.03604 -0.03066,-0.06784 -0.01083,-0.107034 0.0095,-0.01874 0.02599,-0.03161 0.04949,-0.03859 0.0085,-0.0025 0.138102,-0.0044 0.298105,-0.0044 l 0.283117,3.8e-5 0.0224,0.02335 c 0.02774,0.02892 0.0361,0.05465 0.02808,0.08647 -0.0072,0.02854 -0.01983,0.04558 -0.04199,0.0566 -0.01699,0.0084 -0.03377,0.009 -0.274815,0.0092 -0.141198,1.26e-4 -0.274982,-8.87e-4 -0.297296,-0.0024 z m -0.04961,-0.570691 c -0.03684,-0.03939 -0.03957,-0.07644 -0.0088,-0.11898 0.02728,-0.03765 0.01444,-0.03632 0.326157,-0.03389 0.192289,0.0016 0.282006,0.0038 0.294239,0.0078 0.02226,0.0071 0.04519,0.03297 0.05216,0.05884 0.01023,0.03799 -0.0098,0.08502 -0.04057,0.09517 -0.03189,0.01051 -0.128594,0.01437 -0.363231,0.01444 l -0.238074,7.8e-5 z m 0.0047,-0.547212 c -0.02252,-0.02492 -0.03053,-0.03807 -0.03434,-0.05637 -0.005,-0.02404 0.0051,-0.0513 0.02912,-0.07793 l 0.02198,-0.02444 0.252682,1.71e-4 c 0.276224,1.86e-4 0.340635,0.0034 0.359863,0.01771 0.03011,0.02248 0.03976,0.07769 0.02027,0.115926 -0.01816,0.03559 -0.01802,0.03557 -0.1748,0.0395 -0.07689,0.002 -0.211337,0.0036 -0.298785,0.0039 l -0.158995,4.48e-4 z"
       id="path1171"
       inkscape:connector-curvature="0" />
    <g
       id="g944"
       transform="translate(-11.673247,1.058333)"
       style="display:inline">
      <path
         inkscape:export-ydpi="300"
         inkscape:export-xdpi="300"
         inkscape:export-filename="1flame.png"
         sodipodi:nodetypes="ccccsccccscccccscscccsccccccc"
         inkscape:connector-curvature="0"
         id="path826-3-6"
         d="m -11.992062,47.899798 c -0.74036,-0.42454 -1.16313,-1.30599 -1.029019,-2.14547 0.0723,-0.45236 0.205399,-0.75728 0.51281,-1.17452 0.855259,-1.16082 1.01121,-1.47811 1.05736,-2.15132 0.0145,-0.21106 0.0365,-0.38375 0.049,-0.38375 0.0124,0 0.167669,0.10751 0.34492,0.23891 0.70314,0.52126 1.0979695,1.22932 1.1901695,2.13433 l 0.0354,0.34789 0.128,-0.13562 c 0.0704,-0.0746 0.15533,-0.22937 0.18875,-0.34397 l 0.0608,-0.20837 0.19096,0.39085 c 0.22784,0.46637 0.37001,0.95442 0.40995,1.40733 0.0722,0.81861 -0.34268,1.61611 -1.05246,2.0231 -0.2845895,0.16319 -0.3925495,0.19094 -0.2225405,0.0572 0.1735505,-0.13653 0.3687505,-0.53511 0.3972405,-0.81118 0.0384,-0.37175 -0.0755,-0.6917 -0.4090205,-1.14935 -0.334519,-0.45901 -0.487779,-0.77035 -0.53289,-1.08258 l -0.0324,-0.22468 -0.18305,0.17817 c -0.34858,0.3393 -0.59597,1.08145 -0.53423,1.6027 0.0148,0.1247 0.009,0.22675 -0.0126,0.22675 -0.089,0 -0.32551,-0.33503 -0.3523,-0.49904 -0.0158,-0.0965 -0.0345,-0.20683 -0.0417,-0.2452 -0.0169,-0.0902 -0.24643,0.40925 -0.30533,0.66445 -0.10999,0.4766 -0.0184,0.91088 0.26098,1.23724 0.0901,0.10532 0.15703,0.19129 0.14864,0.19105 -0.008,-1.8e-4 -0.12865,-0.0654 -0.26725,-0.14494 z"
         style="fill:#000000;stroke:#000000;stroke-width:0.3;stroke-miterlimit:4;stroke-dasharray:none;stroke-opacity:1" />
      <g
         id="g934">
        <circle
           style="opacity:1;vector-effect:none;fill:#000000;fill-opacity:1;stroke:none;stroke-width:0.292091;stroke-linecap:butt;stroke-linejoin:miter;stroke-miterlimit:4;stroke-dasharray:0.876273, 0.292091;stroke-dashoffset:0;stroke-opacity:1"
           id="path3810-75"
           cx="-4.4457111"
           cy="45.131767"
           r="1.6063988" />
        <circle
           style="opacity:1;vector-effect:none;fill:#000000;fill-opacity:1;stroke:none;stroke-width:0.292091;stroke-linecap:butt;stroke-linejoin:miter;stroke-miterlimit:4;stroke-dasharray:0.876273, 0.292091;stroke-dashoffset:0;stroke-opacity:1"
           id="path3810-8-3"
           cx="1.280627"
           cy="45.131767"
           r="1.6063988" />
        <circle
           style="opacity:1;vector-effect:none;fill:#000000;fill-opacity:1;stroke:none;stroke-width:0.292091;stroke-linecap:butt;stroke-linejoin:miter;stroke-miterlimit:4;stroke-dasharray:0.876273, 0.292091;stroke-dashoffset:0;stroke-opacity:1"
           id="path3810-89-5"
           cx="7.0069661"
           cy="45.131767"
           r="1.6063988" />
        <circle
           style="opacity:1;vector-effect:none;fill:#000000;fill-opacity:1;stroke:none;stroke-width:0.292091;stroke-linecap:butt;stroke-linejoin:miter;stroke-miterlimit:4;stroke-dasharray:0.876273, 0.292091;stroke-dashoffset:0;stroke-opacity:1"
           id="path3810-7-6"
           cx="12.733305"
           cy="45.131767"
           r="1.6063988" />
        <circle
           style="opacity:1;vector-effect:none;fill:#000000;fill-opacity:1;stroke:none;stroke-width:0.292091;stroke-linecap:butt;stroke-linejoin:miter;stroke-miterlimit:4;stroke-dasharray:0.876273, 0.292091;stroke-dashoffset:0;stroke-opacity:1"
           id="path3810-76-2"
           cx="18.459644"
           cy="45.131767"
           r="1.6063988" />
        <circle
           style="opacity:1;vector-effect:none;fill:#000000;fill-opacity:1;stroke:none;stroke-width:0.292091;stroke-linecap:butt;stroke-linejoin:miter;stroke-miterlimit:4;stroke-dasharray:0.876273, 0.292091;stroke-dashoffset:0;stroke-opacity:1"
           id="path3810-3"
           cx="24.289539"
           cy="45.131767"
           r="1.6063988" />
      </g>
    </g>
    <path
       id="path948"
       style="fill:#000000;stroke-width:0.0631203"
       d="m -15.051134,31.157637 c -0.126267,0 -0.23006,0.09301 -0.247014,0.214457 h -0.749308 c -0.655549,0 -1.18339,0.527841 -1.18339,1.18339 v 0.334347 c 0,0.655549 0.527841,1.18339 1.18339,1.18339 h 0.780314 c 0.04302,0.07458 0.123381,0.12454 0.216008,0.12454 0.09258,0 0.172969,-0.05002 0.216007,-0.12454 h 2.938839 c 0.04302,0.07458 0.12338,0.12454 0.216007,0.12454 0.09259,0 0.17297,-0.05002 0.216008,-0.12454 h 0.780314 c 0.65555,0 1.1833904,-0.527841 1.1833904,-1.18339 v -0.334347 c 0,-0.655549 -0.5278404,-1.18339 -1.1833904,-1.18339 h -0.749308 c -0.01695,-0.12145 -0.120747,-0.214457 -0.247014,-0.214457 -0.126266,0 -0.230059,0.09301 -0.247013,0.214457 h -2.876827 c -0.01696,-0.121443 -0.120752,-0.214457 -0.247013,-0.214457 z m 6.8300737,0.340031 c -0.2432344,0.0057 -0.4828942,0.133658 -0.5513874,0.411344 -0.028162,-0.02915 -0.038956,0.342068 -0.042375,0.852661 h -0.1777669 v 0.961182 c -0.1091327,0.0039 -0.2103636,0.0083 -0.322461,0.01188 -0.016,0.0093 -0.028319,0.504981 -0.027389,1.101742 l 0.00207,1.085205 c 0.116826,-0.01136 0.2325862,-0.01957 0.3477827,-0.02687 v 1.518771 l 6.0616453,0.160713 2.35696335,0.778764 H 2.3679585 l -0.014986,-0.406693 c 0.440608,-0.0329 0.8874416,-0.105727 1.3441019,-0.229961 0.023566,-0.122575 -0.00827,-4.748547 -0.00827,-4.748547 -0.5267352,0.0049 -1.0191115,0.0139 -1.4846618,0.02687 l 0.00103,-0.233061 V 32.398905 C 2.166018,32.147767 1.9150236,31.999858 1.6558563,31.988594 1.396689,31.977354 1.1289518,32.102702 1.0558925,32.398905 1.035673,32.377975 1.0252061,32.53691 1.0186867,32.761673 h -1.29604552 v -0.729154 c -0.0391583,-0.251138 -0.29015266,-0.399047 -0.54932077,-0.410311 -0.25916861,-0.01124 -0.52690451,0.114108 -0.59996331,0.410311 -0.027077,-0.02803 -0.037885,0.283204 -0.041858,0.729154 h -1.1895915 v -0.852661 c -0.039158,-0.251138 -0.2896354,-0.399561 -0.5488038,-0.410828 -0.2591678,-0.01124 -0.5274212,0.11463 -0.6004801,0.410828 -0.028162,-0.02915 -0.038439,0.342068 -0.041858,0.852661 h -1.291911 v -0.852661 c -0.039159,-0.251138 -0.2896351,-0.399561 -0.5488035,-0.410828 -0.2591686,-0.01124 -0.5263888,0.11463 -0.5994468,0.410828 -0.028162,-0.02915 -0.038956,0.342068 -0.042375,0.852661 h -1.2919107 v -0.852661 c -0.039158,-0.251138 -0.2896346,-0.399561 -0.5488038,-0.410828 -0.016198,-7.02e-4 -0.03236,-8.93e-4 -0.048575,-5.16e-4 z m 12.3294797,1.437638 c -0.1113525,0.004 -0.1984375,0.10645 -0.1984375,0.221175 v 4.474662 c 0,0.122372 0.098838,0.232777 0.2206572,0.221175 l 2.8334203,-0.270267 c 0.1218221,-0.0116 0.2206572,-0.09829 0.2206572,-0.220659 v -0.38809 c 0.00521,4.24e-4 0.010186,0.001 0.015505,0.001 h 0.0987 c 0.1055741,0 0.1906879,-0.08511 0.1906879,-0.190686 v -0.63717 c 0,-0.105577 -0.085114,-0.190686 -0.1906879,-0.190686 h -0.0987 c -0.00532,0 -0.010298,6.43e-4 -0.015505,0.001 v -0.586461 h 0.1550299 c 0.08305,0 0.1498627,-0.06681 0.1498627,-0.149861 v -1.386479 c 0,-0.08305 -0.066813,-0.149862 -0.1498627,-0.149862 H 7.1847166 v -0.290938 c 0,-0.122371 -0.098708,-0.210468 -0.2206572,-0.220658 L 4.1306391,32.935823 c -0.00762,-6.37e-4 -0.014795,-7.83e-4 -0.02222,-5.17e-4 z M 4.536301,33.76988 c 0.00325,-1.64e-4 0.00652,0 0.00982,0 h 1.9616367 c 0.1054841,0 0.1906852,0.0852 0.1906852,0.190686 0,0.105484 -0.085198,0.19017 -0.1906852,0.19017 H 4.5461196 c -0.105484,0 -0.1906878,-0.08468 -0.1906878,-0.19017 0,-0.102187 0.07997,-0.185588 0.1808692,-0.190686 z m -21.825541,0.50953 c -0.01596,0.340727 -0.02067,0.796114 -0.02067,1.443323 v 0.225826 h 1.127063 c 1.163681,0 1.553393,0.109797 1.553393,0.436665 0,0.102009 0.124683,0.137977 0.478008,0.137977 h 0.303857 v -0.89917 h 2.361096 v 0.89917 h 0.207739 0.574642 v 0.363285 c 0,0.199844 0.05165,0.41559 0.114722,0.479041 0.129216,0.129273 0.7312703,0.152743 0.9157063,0.03566 0.06207,-0.03935 0.089262,-0.578281 0.097152,-1.914095 l 0.019637,-1.207678 z m 21.8188232,0.431498 c 0.00325,-1.63e-4 0.00652,0 0.00982,0 h 1.9616367 c 0.1054867,0 0.1901692,0.08468 0.1901692,0.19017 0,0.105482 -0.084682,0.190686 -0.1901692,0.190686 h -1.961638 c -0.1054841,0 -0.1906879,-0.0852 -0.1906879,-0.190686 0,-0.10219 0.07997,-0.185103 0.1808692,-0.19017 z m -0.01292,0.940511 c 0.00325,-1.64e-4 0.00652,0 0.00982,0 h 1.9616366 c 0.1054868,0 0.1906853,0.0852 0.1906853,0.190686 0,0.105485 -0.085198,0.19017 -0.1906853,0.19017 H 4.5264823 c -0.1054841,0 -0.1901693,-0.08468 -0.1901693,-0.19017 0,-0.102187 0.079484,-0.185589 0.1803502,-0.190686 z m -17.1359042,0.112138 c -0.0076,1.99e-4 -0.01513,6.42e-4 -0.02274,0.001 l -0.248047,0.01292 c -0.486712,0.02504 -0.881226,0.437144 -0.884184,0.924491 l -0.01188,1.948201 c -0.003,0.487347 0.38662,0.859098 0.873331,0.834058 l 0.248047,-0.0124 c 0.486712,-0.02504 0.881226,-0.437662 0.884184,-0.925008 l 0.01137,-1.947685 c 0.0029,-0.479732 -0.374033,-0.848104 -0.850077,-0.835608 z m -3.215825,0.330213 c -0.231227,0.0022 -0.461553,0.0879 -0.63717,0.256831 l -1.403532,1.350306 c -0.351234,0.33786 -0.346625,0.876429 0.01085,1.207678 l 0.182418,0.168982 c 0.357477,0.331248 0.928274,0.325975 1.279508,-0.01189 l 1.403532,-1.350305 c 0.351235,-0.337861 0.346109,-0.87643 -0.01137,-1.207678 l -0.181901,-0.168982 c -0.178738,-0.165624 -0.411111,-0.247104 -0.642338,-0.244946 z m 20.3941048,0.498677 h 1.9616367 c 0.1054868,0 0.1906852,0.08468 0.1906852,0.190169 0,0.105486 -0.085201,0.190686 -0.1906852,0.190686 H 4.5590392 c -0.105484,0 -0.1901692,-0.0852 -0.1901692,-0.190686 0,-0.105485 0.084685,-0.190169 0.1901688,-0.190169 z m -15.2972578,1.155485 c -0.289968,0 -0.523482,0.233514 -0.523482,0.523482 v 0.577743 c 0,0.289968 0.233514,0.523482 0.523482,0.523482 h 2.5998406 c 0.289968,0 0.5234824,-0.233514 0.5234824,-0.523482 v -0.577743 c 0,-0.289968 -0.2335144,-0.523482 -0.5234824,-0.523482 z" />
  </g>
</svg>
