<?xml version="1.0" encoding="UTF-8" standalone="no"?>
<!-- Created with Inkscape (http://www.inkscape.org/) -->

<svg
   width="120mm"
   height="23.016712mm"
   viewBox="0 0 120 23.016712"
   version="1.1"
   id="svg1100"
   inkscape:version="1.1.2 (0a00cf5339, 2022-02-04)"
   sodipodi:docname="Plasma Rifle.svg"
   xmlns:inkscape="http://www.inkscape.org/namespaces/inkscape"
   xmlns:sodipodi="http://sodipodi.sourceforge.net/DTD/sodipodi-0.dtd"
   xmlns="http://www.w3.org/2000/svg"
   xmlns:svg="http://www.w3.org/2000/svg"
   xmlns:rdf="http://www.w3.org/1999/02/22-rdf-syntax-ns#"
   xmlns:cc="http://creativecommons.org/ns#"
   xmlns:dc="http://purl.org/dc/elements/1.1/">
  <defs
     id="defs1094" />
  <sodipodi:namedview
     id="base"
     pagecolor="#ffffff"
     bordercolor="#666666"
     borderopacity="1.0"
     inkscape:pageopacity="0.0"
     inkscape:pageshadow="2"
     inkscape:zoom="4.0000001"
     inkscape:cx="219.12499"
     inkscape:cy="76.874997"
     inkscape:document-units="mm"
     inkscape:current-layer="layer1"
     showgrid="false"
     inkscape:window-width="1850"
     inkscape:window-height="1016"
     inkscape:window-x="70"
     inkscape:window-y="1107"
     inkscape:window-maximized="1"
     fit-margin-top="0"
     fit-margin-left="0"
     fit-margin-right="0"
     fit-margin-bottom="0"
     inkscape:snap-global="false"
     inkscape:snap-bbox="true"
     inkscape:pagecheckerboard="0"
     showguides="true"
     inkscape:guide-bbox="true">
    <sodipodi:guide
       position="61.449478,22.884421"
       orientation="0,-1"
       id="guide29583" />
  </sodipodi:namedview>
  <metadata
     id="metadata1097">
    <rdf:RDF>
      <cc:Work
         rdf:about="">
        <dc:format>image/svg+xml</dc:format>
        <dc:type
           rdf:resource="http://purl.org/dc/dcmitype/StillImage" />
      </cc:Work>
    </rdf:RDF>
  </metadata>
  <g
     inkscape:groupmode="layer"
     id="layer3"
     inkscape:label="Background"
     style="display:inline" />
  <g
     inkscape:groupmode="layer"
     id="layer2"
     inkscape:label="Guias"
     style="display:none"
     transform="translate(0,0.2323513)">
    <g
       id="g1399"
       transform="translate(-6.7978492)">
      <rect
         y="11.402682"
         x="50.431446"
         height="11"
         width="74.99527"
         id="rect1878-3"
         style="display:inline;opacity:1;vector-effect:none;fill:#ffe680;fill-opacity:1;stroke:none;stroke-width:0.47467926;stroke-linecap:butt;stroke-linejoin:miter;stroke-miterlimit:4;stroke-dasharray:none;stroke-dashoffset:0;stroke-opacity:1" />
      <rect
         y="0.30218902"
         x="8.1689825"
         height="22.148087"
         width="42.262463"
         id="rect1868"
         style="display:inline;opacity:1;vector-effect:none;fill:#decd87;fill-opacity:1;stroke:none;stroke-width:0.39467782;stroke-linecap:butt;stroke-linejoin:miter;stroke-miterlimit:4;stroke-dasharray:none;stroke-dashoffset:0;stroke-opacity:1" />
      <rect
         y="0.39782956"
         x="50.431446"
         height="11"
         width="74.99527"
         id="rect1878"
         style="display:inline;opacity:1;vector-effect:none;fill:#deaa87;fill-opacity:1;stroke:none;stroke-width:0.47467929;stroke-linecap:butt;stroke-linejoin:miter;stroke-miterlimit:4;stroke-dasharray:none;stroke-dashoffset:0;stroke-opacity:1" />
      <rect
         y="12.891373"
         x="76.863533"
         height="8.0226164"
         width="22"
         id="rect1878-7-3"
         style="display:inline;opacity:1;vector-effect:none;fill:#eeffaa;fill-opacity:1;stroke:none;stroke-width:0.19344766;stroke-linecap:butt;stroke-linejoin:miter;stroke-miterlimit:4;stroke-dasharray:none;stroke-dashoffset:0;stroke-opacity:1" />
      <rect
         y="12.891415"
         x="103.2956"
         height="8.0226164"
         width="22"
         id="rect1878-7-56"
         style="display:inline;opacity:1;vector-effect:none;fill:#ccffaa;fill-opacity:1;stroke:none;stroke-width:0.21753596;stroke-linecap:butt;stroke-linejoin:miter;stroke-miterlimit:4;stroke-dasharray:none;stroke-dashoffset:0;stroke-opacity:1" />
      <rect
         y="12.680782"
         x="50.431446"
         height="8.443799"
         width="22"
         id="rect1878-7"
         style="display:inline;opacity:1;vector-effect:none;fill:#ff9955;fill-opacity:1;stroke:none;stroke-width:0.22317314;stroke-linecap:butt;stroke-linejoin:miter;stroke-miterlimit:4;stroke-dasharray:none;stroke-dashoffset:0;stroke-opacity:1" />
      <rect
         y="13.158642"
         x="77.363533"
         height="7.4880772"
         width="21"
         id="rect1878-7-2-7"
         style="display:inline;opacity:1;vector-effect:none;fill:#ddff55;fill-opacity:1;stroke:none;stroke-width:0.20533194;stroke-linecap:butt;stroke-linejoin:miter;stroke-miterlimit:4;stroke-dasharray:none;stroke-dashoffset:0;stroke-opacity:1" />
      <rect
         y="13.158684"
         x="103.7956"
         height="7.4880772"
         width="21"
         id="rect1878-7-2-7-0"
         style="display:inline;opacity:1;vector-effect:none;fill:#66ff00;fill-opacity:1;stroke:none;stroke-width:0.20533194;stroke-linecap:butt;stroke-linejoin:miter;stroke-miterlimit:4;stroke-dasharray:none;stroke-dashoffset:0;stroke-opacity:1" />
      <rect
         y="13.158642"
         x="50.931446"
         height="7.4880772"
         width="21"
         id="rect1878-7-2"
         style="display:inline;opacity:1;vector-effect:none;fill:#d45500;fill-opacity:1;stroke:none;stroke-width:0.20533194;stroke-linecap:butt;stroke-linejoin:miter;stroke-miterlimit:4;stroke-dasharray:none;stroke-dashoffset:0;stroke-opacity:1" />
    </g>
  </g>
  <g
     inkscape:label="Capa 1"
     inkscape:groupmode="layer"
     id="layer1"
     transform="translate(28.060163,-27.595709)"
     style="display:inline">
    <g
       transform="matrix(0.35279357,0,0,0.35279357,27.66483,22.56444)"
       id="layer1-6-3-2"
       inkscape:label="Capa 1" />
    <rect
       style="display:inline;opacity:1;fill:#ffffff;fill-opacity:1;stroke:none;stroke-width:0.71100003;stroke-miterlimit:4;stroke-dasharray:none;stroke-dashoffset:0;stroke-opacity:1"
       id="rect1126"
       width="119.99902"
       height="23.017704"
       x="-28.060163"
       y="27.595709" />
    <g
       style="display:inline"
       id="g9128"
       transform="translate(-107.62953,-199.34653)">
      <path
         inkscape:connector-curvature="0"
         id="path9084"
         d="M 83.843672,227.37459 H 195.29507"
         style="fill:none;stroke:#000000;stroke-width:0.40000001;stroke-linecap:butt;stroke-linejoin:miter;stroke-miterlimit:4;stroke-dasharray:none;stroke-opacity:1" />
      <path
         inkscape:connector-curvature="0"
         id="path9084-3"
         d="M 83.843669,249.75895 H 195.29507"
         style="fill:none;stroke:#000000;stroke-width:0.40000001;stroke-linecap:butt;stroke-linejoin:miter;stroke-miterlimit:4;stroke-dasharray:none;stroke-opacity:1" />
    </g>
    <path
       style="display:inline;fill:#000000;stroke-width:0.0133824"
       d="m 34.343677,38.198215 c -1.37191,-0.10779 -2.53514,-1.00056 -2.98415,-2.29054 -0.24281,-0.6976 -0.25156,-1.46808 -0.0247,-2.1714 0.3381,-1.04785 1.15925,-1.86902 2.20764,-2.2077 0.60275,-0.19472 1.26886,-0.21697 1.87845,-0.0628 0.82817,0.2095 1.53213,0.70452 2.01175,1.41465 0.28706,0.42504 0.46428,0.88884 0.5462,1.42945 0.04,0.26439 0.04,0.68576 0,0.95015 -0.11325,0.74716 -0.41943,1.37345 -0.93159,1.90535 -0.52896,0.54933 -1.25418,0.91385 -2.014,1.0123 -0.18338,0.0237 -0.52039,0.0337 -0.68965,0.0205 z m 0.51716,-0.61687 c 0.50388,-0.0508 0.95417,-0.22111 1.38316,-0.5231 0.16073,-0.1131 0.51013,-0.46317 0.62262,-0.62373 0.2987,-0.42632 0.46609,-0.86703 0.52085,-1.3713 0.0505,-0.46394 -0.0344,-0.98132 -0.23445,-1.43279 -0.0562,-0.12685 -0.19016,-0.3646 -0.24667,-0.43794 l -0.0258,-0.0334 -0.6877,0.68719 -0.6877,0.6872 -0.0455,-0.0237 c -0.025,-0.0125 -0.095,-0.0397 -0.15544,-0.0594 l -0.11013,-0.0356 0.0478,-0.0458 c 0.12404,-0.11872 0.22631,-0.3056 0.26627,-0.48615 0.03,-0.13591 0.0214,-0.33558 -0.0205,-0.46836 l -0.0291,-0.0925 0.39597,-0.39613 c 0.21778,-0.21787 0.39597,-0.39998 0.39597,-0.4047 0,-0.0156 -0.24582,-0.1685 -0.38083,-0.23788 -0.75022,-0.38542 -1.64771,-0.40845 -2.42847,-0.0623 -0.31573,0.13997 -0.55766,0.30974 -0.83096,0.58304 -0.28401,0.28401 -0.45019,0.52501 -0.59873,0.86831 -0.26961,0.62309 -0.30217,1.34622 -0.0895,1.98841 0.0526,0.15895 0.12997,0.3405 0.1949,0.45778 0.0614,0.11076 0.20029,0.32574 0.2105,0.32574 0.005,0 0.18477,-0.17612 0.40011,-0.39135 l 0.39152,-0.39136 v 0.57871 0.57871 h 0.0498 0.0498 l -0.12356,0.12403 c -0.0679,0.0683 -0.12357,0.12794 -0.12357,0.13263 0,0.0156 0.2158,0.14715 0.36042,0.2198 0.31229,0.15686 0.67779,0.26052 1.02467,0.29066 0.12247,0.0109 0.37436,0.008 0.50377,-0.005 z m -1.56745,-1.56851 c 2.5e-4,-0.72221 0.003,-0.74561 0.10107,-0.94462 0.10889,-0.22061 0.31257,-0.38972 0.56122,-0.46602 0.0725,-0.0222 0.1345,-0.0247 0.64235,-0.0247 h 0.56207 l 0.11528,0.0412 c 0.23248,0.0833 0.40858,0.23843 0.51498,0.45386 0.0958,0.19396 0.0986,0.22012 0.0987,0.94011 l 2.5e-4,0.63232 h -0.25427 -0.25426 v -0.61559 -0.61559 h -0.0803 -0.0803 v 0.61559 0.61559 h -0.62899 -0.62898 v -0.61559 -0.61559 h -0.0803 -0.0803 v 0.61559 0.61559 h -0.25427 -0.25427 l 2.5e-4,-0.63232 z m 1.19751,-1.55754 c -0.28269,-0.0433 -0.50729,-0.22321 -0.61564,-0.49332 -0.049,-0.12201 -0.0612,-0.31702 -0.0281,-0.4484 0.072,-0.28645 0.30216,-0.50813 0.59025,-0.56861 0.1181,-0.0248 0.18969,-0.0248 0.30781,0 0.28496,0.0598 0.51726,0.28143 0.58859,0.56147 0.099,0.38874 -0.14122,0.80919 -0.52694,0.92249 -0.0761,0.0223 -0.24822,0.0367 -0.31592,0.0264 z"
       id="path861" />
    <path
       inkscape:connector-curvature="0"
       id="path1183"
       d="m 40.024002,43.317021 v 5.58932"
       style="fill:none;stroke:#000000;stroke-width:0.264583px;stroke-linecap:butt;stroke-linejoin:miter;stroke-opacity:1" />
    <text
       id="text1088-1"
       y="47.528122"
       x="42.532104"
       style="font-style:normal;font-weight:normal;font-size:132.329px;line-height:1.25;font-family:sans-serif;letter-spacing:0px;word-spacing:0px;fill:#000000;fill-opacity:1;stroke:none;stroke-width:0.220548"
       xml:space="preserve"><tspan
         style="font-size:2.64658px;stroke-width:0.220548"
         y="47.528122"
         x="42.532104"
         id="tspan1086-8"
         sodipodi:role="line">20</tspan></text>
    <text
       id="text1088-0-9"
       y="47.509384"
       x="60.52253"
       style="font-style:normal;font-weight:normal;font-size:132.329px;line-height:1.25;font-family:sans-serif;letter-spacing:0px;word-spacing:0px;fill:#000000;fill-opacity:1;stroke:none;stroke-width:0.220548"
       xml:space="preserve"><tspan
         style="font-size:2.64658px;stroke-width:0.220548"
         y="47.509384"
         x="60.52253"
         id="tspan1086-9-2"
         sodipodi:role="line">40</tspan></text>
    <g
       id="g932">
      <g
         transform="matrix(0.35279357,0,0,0.35279357,46.335756,27.447014)"
         id="layer1-6-3-2-32"
         inkscape:label="Capa 1">
        <path
           sodipodi:nodetypes="cccssssssccscscccccsscscssccscsccscccccsscsssscs"
           inkscape:connector-curvature="0"
           id="path828-6-0-0"
           d="m 15.55133,51.922274 c -0.685146,-0.279517 -3.20637,-1.507059 -3.324727,-1.618753 -0.03438,-0.03244 -0.07718,-0.127286 -0.09554,-0.211722 -0.08948,-0.411375 -0.262648,-1.722668 -0.332832,-2.520399 -0.05025,-0.57112 -0.0596,-2.009074 -0.01364,-2.094972 0.04031,-0.07531 0.184184,-0.143729 0.562025,-0.267256 0.722856,-0.236322 1.733468,-0.499615 2.410752,-0.628071 0.275408,-0.05224 0.396016,-0.0603 0.707347,-0.04732 0.415417,0.01732 1.429283,0.142198 2.38188,0.293384 0.766175,0.121598 1.019543,0.178219 1.103853,0.246676 l 0.06543,0.05313 -0.0077,1.496494 c -0.0081,1.566318 -0.04308,2.635128 -0.0968,2.95367 -0.03024,0.179307 -0.04114,0.197626 -0.223796,0.376151 -0.196508,0.192058 -2.306176,1.852072 -2.49635,1.964276 -0.172205,0.101604 -0.398334,0.103271 -0.639907,0.0047 z m 0.681956,-0.312805 c 0.354128,-0.250525 1.358355,-1.012126 1.81541,-1.376797 0.537371,-0.428752 0.598921,-0.493547 0.633573,-0.666962 0.06192,-0.309915 0.154976,-1.794696 0.205292,-3.275805 0.02806,-0.82606 0.02665,-0.940151 -0.01209,-0.978893 -0.05115,-0.05115 -0.07672,-0.04286 -1.158797,0.375245 -1.269982,0.490712 -1.8449,0.758627 -1.912296,0.891141 -0.06033,0.118622 -0.03326,2.613007 0.04901,4.516299 0.02534,0.586113 0.04026,0.707347 0.08705,0.707347 0.01213,0 0.143904,-0.08621 0.292842,-0.191575 z m -0.622651,-1.013802 c -0.01218,-0.535923 -0.02681,-1.694557 -0.03252,-2.574744 -0.0081,-1.255585 -0.01836,-1.607633 -0.04745,-1.63421 -0.106289,-0.0971 -3.10159,-0.677511 -3.496415,-0.677511 h -0.135139 l 3.71e-4,0.281495 c 5.78e-4,0.445614 0.107808,1.632044 0.261587,2.894346 0.106753,0.876288 0.163675,1.197828 0.22476,1.269608 0.108101,0.127026 1.297194,0.741581 1.931131,0.998059 0.417345,0.168849 1.151926,0.414027 1.246224,0.415946 l 0.06959,0.0014 z m 0.778946,-4.666157 c 0.521312,-0.175316 1.631211,-0.587253 1.882404,-0.698649 0.123751,-0.05488 0.155359,-0.08002 0.123166,-0.09796 -0.08273,-0.04609 -1.835693,-0.312599 -2.781117,-0.422813 -0.349053,-0.04069 -0.466344,-0.04391 -0.635169,-0.01741 -0.320219,0.05026 -2.598014,0.698144 -2.656719,0.755658 -0.03178,0.03113 0.194652,0.08146 1.179323,0.262104 1.326108,0.243286 2.097867,0.369927 2.267379,0.372065 0.120438,0.0015 0.273269,-0.03615 0.620733,-0.153004 z"
           style="fill:#000000;stroke:#000000;stroke-width:0.229;stroke-miterlimit:4;stroke-dasharray:none;stroke-opacity:1" />
      </g>
      <g
         transform="matrix(0.35279357,0,0,0.35279357,49.288526,27.447014)"
         id="layer1-6-75-2-6"
         inkscape:label="Capa 1">
        <path
           sodipodi:nodetypes="cccssssssccscscccccsscscssccscsccscccccsscsssscs"
           inkscape:connector-curvature="0"
           id="path828-35-3-1"
           d="m 15.55133,51.922274 c -0.685146,-0.279517 -3.20637,-1.507059 -3.324727,-1.618753 -0.03438,-0.03244 -0.07718,-0.127286 -0.09554,-0.211722 -0.08948,-0.411375 -0.262648,-1.722668 -0.332832,-2.520399 -0.05025,-0.57112 -0.0596,-2.009074 -0.01364,-2.094972 0.04031,-0.07531 0.184184,-0.143729 0.562025,-0.267256 0.722856,-0.236322 1.733468,-0.499615 2.410752,-0.628071 0.275408,-0.05224 0.396016,-0.0603 0.707347,-0.04732 0.415417,0.01732 1.429283,0.142198 2.38188,0.293384 0.766175,0.121598 1.019543,0.178219 1.103853,0.246676 l 0.06543,0.05313 -0.0077,1.496494 c -0.0081,1.566318 -0.04308,2.635128 -0.0968,2.95367 -0.03024,0.179307 -0.04114,0.197626 -0.223796,0.376151 -0.196508,0.192058 -2.306176,1.852072 -2.49635,1.964276 -0.172205,0.101604 -0.398334,0.103271 -0.639907,0.0047 z m 0.681956,-0.312805 c 0.354128,-0.250525 1.358355,-1.012126 1.81541,-1.376797 0.537371,-0.428752 0.598921,-0.493547 0.633573,-0.666962 0.06192,-0.309915 0.154976,-1.794696 0.205292,-3.275805 0.02806,-0.82606 0.02665,-0.940151 -0.01209,-0.978893 -0.05115,-0.05115 -0.07672,-0.04286 -1.158797,0.375245 -1.269982,0.490712 -1.8449,0.758627 -1.912296,0.891141 -0.06033,0.118622 -0.03326,2.613007 0.04901,4.516299 0.02534,0.586113 0.04026,0.707347 0.08705,0.707347 0.01213,0 0.143904,-0.08621 0.292842,-0.191575 z m -0.622651,-1.013802 c -0.01218,-0.535923 -0.02681,-1.694557 -0.03252,-2.574744 -0.0081,-1.255585 -0.01836,-1.607633 -0.04745,-1.63421 -0.106289,-0.0971 -3.10159,-0.677511 -3.496415,-0.677511 h -0.135139 l 3.71e-4,0.281495 c 5.78e-4,0.445614 0.107808,1.632044 0.261587,2.894346 0.106753,0.876288 0.163675,1.197828 0.22476,1.269608 0.108101,0.127026 1.297194,0.741581 1.931131,0.998059 0.417345,0.168849 1.151926,0.414027 1.246224,0.415946 l 0.06959,0.0014 z m 0.778946,-4.666157 c 0.521312,-0.175316 1.631211,-0.587253 1.882404,-0.698649 0.123751,-0.05488 0.155359,-0.08002 0.123166,-0.09796 -0.08273,-0.04609 -1.835693,-0.312599 -2.781117,-0.422813 -0.349053,-0.04069 -0.466344,-0.04391 -0.635169,-0.01741 -0.320219,0.05026 -2.598014,0.698144 -2.656719,0.755658 -0.03178,0.03113 0.194652,0.08146 1.179323,0.262104 1.326108,0.243286 2.097867,0.369927 2.267379,0.372065 0.120438,0.0015 0.273269,-0.03615 0.620733,-0.153004 z"
           style="fill:#000000;stroke:#000000;stroke-width:0.229;stroke-miterlimit:4;stroke-dasharray:none;stroke-opacity:1" />
      </g>
    </g>
    <g
       id="g963"
       transform="translate(-13.791242,-0.11771452)">
      <g
         transform="matrix(0.35279357,0,0,0.35279357,33.694923,27.564729)"
         id="layer1-6-3-2-32-3"
         inkscape:label="Capa 1"
         style="display:inline">
        <path
           sodipodi:nodetypes="cccssssssccscscccccsscscssccscsccscccccsscsssscs"
           inkscape:connector-curvature="0"
           id="path828-6-0-0-6"
           d="m 15.55133,51.922274 c -0.685146,-0.279517 -3.20637,-1.507059 -3.324727,-1.618753 -0.03438,-0.03244 -0.07718,-0.127286 -0.09554,-0.211722 -0.08948,-0.411375 -0.262648,-1.722668 -0.332832,-2.520399 -0.05025,-0.57112 -0.0596,-2.009074 -0.01364,-2.094972 0.04031,-0.07531 0.184184,-0.143729 0.562025,-0.267256 0.722856,-0.236322 1.733468,-0.499615 2.410752,-0.628071 0.275408,-0.05224 0.396016,-0.0603 0.707347,-0.04732 0.415417,0.01732 1.429283,0.142198 2.38188,0.293384 0.766175,0.121598 1.019543,0.178219 1.103853,0.246676 l 0.06543,0.05313 -0.0077,1.496494 c -0.0081,1.566318 -0.04308,2.635128 -0.0968,2.95367 -0.03024,0.179307 -0.04114,0.197626 -0.223796,0.376151 -0.196508,0.192058 -2.306176,1.852072 -2.49635,1.964276 -0.172205,0.101604 -0.398334,0.103271 -0.639907,0.0047 z m 0.681956,-0.312805 c 0.354128,-0.250525 1.358355,-1.012126 1.81541,-1.376797 0.537371,-0.428752 0.598921,-0.493547 0.633573,-0.666962 0.06192,-0.309915 0.154976,-1.794696 0.205292,-3.275805 0.02806,-0.82606 0.02665,-0.940151 -0.01209,-0.978893 -0.05115,-0.05115 -0.07672,-0.04286 -1.158797,0.375245 -1.269982,0.490712 -1.8449,0.758627 -1.912296,0.891141 -0.06033,0.118622 -0.03326,2.613007 0.04901,4.516299 0.02534,0.586113 0.04026,0.707347 0.08705,0.707347 0.01213,0 0.143904,-0.08621 0.292842,-0.191575 z m -0.622651,-1.013802 c -0.01218,-0.535923 -0.02681,-1.694557 -0.03252,-2.574744 -0.0081,-1.255585 -0.01836,-1.607633 -0.04745,-1.63421 -0.106289,-0.0971 -3.10159,-0.677511 -3.496415,-0.677511 h -0.135139 l 3.71e-4,0.281495 c 5.78e-4,0.445614 0.107808,1.632044 0.261587,2.894346 0.106753,0.876288 0.163675,1.197828 0.22476,1.269608 0.108101,0.127026 1.297194,0.741581 1.931131,0.998059 0.417345,0.168849 1.151926,0.414027 1.246224,0.415946 l 0.06959,0.0014 z m 0.778946,-4.666157 c 0.521312,-0.175316 1.631211,-0.587253 1.882404,-0.698649 0.123751,-0.05488 0.155359,-0.08002 0.123166,-0.09796 -0.08273,-0.04609 -1.835693,-0.312599 -2.781117,-0.422813 -0.349053,-0.04069 -0.466344,-0.04391 -0.635169,-0.01741 -0.320219,0.05026 -2.598014,0.698144 -2.656719,0.755658 -0.03178,0.03113 0.194652,0.08146 1.179323,0.262104 1.326108,0.243286 2.097867,0.369927 2.267379,0.372065 0.120438,0.0015 0.273269,-0.03615 0.620733,-0.153004 z"
           style="fill:#000000;stroke:#000000;stroke-width:0.229;stroke-miterlimit:4;stroke-dasharray:none;stroke-opacity:1" />
      </g>
      <g
         transform="matrix(0.35279357,0,0,0.35279357,36.647693,27.564729)"
         id="layer1-6-75-2-6-7"
         inkscape:label="Capa 1"
         style="display:inline">
        <path
           sodipodi:nodetypes="cccssssssccscscccccsscscssccscsccscccccsscsssscs"
           inkscape:connector-curvature="0"
           id="path828-35-3-1-5"
           d="m 15.55133,51.922274 c -0.685146,-0.279517 -3.20637,-1.507059 -3.324727,-1.618753 -0.03438,-0.03244 -0.07718,-0.127286 -0.09554,-0.211722 -0.08948,-0.411375 -0.262648,-1.722668 -0.332832,-2.520399 -0.05025,-0.57112 -0.0596,-2.009074 -0.01364,-2.094972 0.04031,-0.07531 0.184184,-0.143729 0.562025,-0.267256 0.722856,-0.236322 1.733468,-0.499615 2.410752,-0.628071 0.275408,-0.05224 0.396016,-0.0603 0.707347,-0.04732 0.415417,0.01732 1.429283,0.142198 2.38188,0.293384 0.766175,0.121598 1.019543,0.178219 1.103853,0.246676 l 0.06543,0.05313 -0.0077,1.496494 c -0.0081,1.566318 -0.04308,2.635128 -0.0968,2.95367 -0.03024,0.179307 -0.04114,0.197626 -0.223796,0.376151 -0.196508,0.192058 -2.306176,1.852072 -2.49635,1.964276 -0.172205,0.101604 -0.398334,0.103271 -0.639907,0.0047 z m 0.681956,-0.312805 c 0.354128,-0.250525 1.358355,-1.012126 1.81541,-1.376797 0.537371,-0.428752 0.598921,-0.493547 0.633573,-0.666962 0.06192,-0.309915 0.154976,-1.794696 0.205292,-3.275805 0.02806,-0.82606 0.02665,-0.940151 -0.01209,-0.978893 -0.05115,-0.05115 -0.07672,-0.04286 -1.158797,0.375245 -1.269982,0.490712 -1.8449,0.758627 -1.912296,0.891141 -0.06033,0.118622 -0.03326,2.613007 0.04901,4.516299 0.02534,0.586113 0.04026,0.707347 0.08705,0.707347 0.01213,0 0.143904,-0.08621 0.292842,-0.191575 z m -0.622651,-1.013802 c -0.01218,-0.535923 -0.02681,-1.694557 -0.03252,-2.574744 -0.0081,-1.255585 -0.01836,-1.607633 -0.04745,-1.63421 -0.106289,-0.0971 -3.10159,-0.677511 -3.496415,-0.677511 h -0.135139 l 3.71e-4,0.281495 c 5.78e-4,0.445614 0.107808,1.632044 0.261587,2.894346 0.106753,0.876288 0.163675,1.197828 0.22476,1.269608 0.108101,0.127026 1.297194,0.741581 1.931131,0.998059 0.417345,0.168849 1.151926,0.414027 1.246224,0.415946 l 0.06959,0.0014 z m 0.778946,-4.666157 c 0.521312,-0.175316 1.631211,-0.587253 1.882404,-0.698649 0.123751,-0.05488 0.155359,-0.08002 0.123166,-0.09796 -0.08273,-0.04609 -1.835693,-0.312599 -2.781117,-0.422813 -0.349053,-0.04069 -0.466344,-0.04391 -0.635169,-0.01741 -0.320219,0.05026 -2.598014,0.698144 -2.656719,0.755658 -0.03178,0.03113 0.194652,0.08146 1.179323,0.262104 1.326108,0.243286 2.097867,0.369927 2.267379,0.372065 0.120438,0.0015 0.273269,-0.03615 0.620733,-0.153004 z"
           style="fill:#000000;stroke:#000000;stroke-width:0.229;stroke-miterlimit:4;stroke-dasharray:none;stroke-opacity:1" />
      </g>
    </g>
    <path
       sodipodi:nodetypes="cc"
       inkscape:connector-curvature="0"
       id="path1090-2"
       d="m 46.240047,46.557743 h 14"
       style="fill:none;stroke:#000000;stroke-width:0.209106;stroke-linecap:butt;stroke-linejoin:miter;stroke-miterlimit:4;stroke-dasharray:1.67285, 0.209106;stroke-dashoffset:0;stroke-opacity:1" />
    <text
       id="text1088-8"
       y="47.509384"
       x="68.949112"
       style="font-style:normal;font-weight:normal;font-size:132.329px;line-height:1.25;font-family:sans-serif;letter-spacing:0px;word-spacing:0px;fill:#000000;fill-opacity:1;stroke:none;stroke-width:0.220548"
       xml:space="preserve"><tspan
         style="font-size:2.64658px;stroke-width:0.220548"
         y="47.509384"
         x="68.949112"
         id="tspan1086-97"
         sodipodi:role="line">40</tspan></text>
    <text
       id="text1088-0-6"
       y="47.491943"
       x="87.036934"
       style="font-style:normal;font-weight:normal;font-size:132.329px;line-height:1.25;font-family:sans-serif;letter-spacing:0px;word-spacing:0px;fill:#000000;fill-opacity:1;stroke:none;stroke-width:0.220548"
       xml:space="preserve"><tspan
         style="font-size:2.64658px;stroke-width:0.220548"
         y="47.491943"
         x="87.036934"
         id="tspan1086-9-1"
         sodipodi:role="line">60</tspan></text>
    <g
       transform="matrix(0.35279357,0,0,0.35279357,72.767832,27.447014)"
       id="layer1-6-3-2-37"
       inkscape:label="Capa 1">
      <path
         sodipodi:nodetypes="cccssssssccscscccccsscscssccscsccscccccsscsssscs"
         inkscape:connector-curvature="0"
         id="path828-6-0-4"
         d="m 15.55133,51.922274 c -0.685146,-0.279517 -3.20637,-1.507059 -3.324727,-1.618753 -0.03438,-0.03244 -0.07718,-0.127286 -0.09554,-0.211722 -0.08948,-0.411375 -0.262648,-1.722668 -0.332832,-2.520399 -0.05025,-0.57112 -0.0596,-2.009074 -0.01364,-2.094972 0.04031,-0.07531 0.184184,-0.143729 0.562025,-0.267256 0.722856,-0.236322 1.733468,-0.499615 2.410752,-0.628071 0.275408,-0.05224 0.396016,-0.0603 0.707347,-0.04732 0.415417,0.01732 1.429283,0.142198 2.38188,0.293384 0.766175,0.121598 1.019543,0.178219 1.103853,0.246676 l 0.06543,0.05313 -0.0077,1.496494 c -0.0081,1.566318 -0.04308,2.635128 -0.0968,2.95367 -0.03024,0.179307 -0.04114,0.197626 -0.223796,0.376151 -0.196508,0.192058 -2.306176,1.852072 -2.49635,1.964276 -0.172205,0.101604 -0.398334,0.103271 -0.639907,0.0047 z m 0.681956,-0.312805 c 0.354128,-0.250525 1.358355,-1.012126 1.81541,-1.376797 0.537371,-0.428752 0.598921,-0.493547 0.633573,-0.666962 0.06192,-0.309915 0.154976,-1.794696 0.205292,-3.275805 0.02806,-0.82606 0.02665,-0.940151 -0.01209,-0.978893 -0.05115,-0.05115 -0.07672,-0.04286 -1.158797,0.375245 -1.269982,0.490712 -1.8449,0.758627 -1.912296,0.891141 -0.06033,0.118622 -0.03326,2.613007 0.04901,4.516299 0.02534,0.586113 0.04026,0.707347 0.08705,0.707347 0.01213,0 0.143904,-0.08621 0.292842,-0.191575 z m -0.622651,-1.013802 c -0.01218,-0.535923 -0.02681,-1.694557 -0.03252,-2.574744 -0.0081,-1.255585 -0.01836,-1.607633 -0.04745,-1.63421 -0.106289,-0.0971 -3.10159,-0.677511 -3.496415,-0.677511 h -0.135139 l 3.71e-4,0.281495 c 5.78e-4,0.445614 0.107808,1.632044 0.261587,2.894346 0.106753,0.876288 0.163675,1.197828 0.22476,1.269608 0.108101,0.127026 1.297194,0.741581 1.931131,0.998059 0.417345,0.168849 1.151926,0.414027 1.246224,0.415946 l 0.06959,0.0014 z m 0.778946,-4.666157 c 0.521312,-0.175316 1.631211,-0.587253 1.882404,-0.698649 0.123751,-0.05488 0.155359,-0.08002 0.123166,-0.09796 -0.08273,-0.04609 -1.835693,-0.312599 -2.781117,-0.422813 -0.349053,-0.04069 -0.466344,-0.04391 -0.635169,-0.01741 -0.320219,0.05026 -2.598014,0.698144 -2.656719,0.755658 -0.03178,0.03113 0.194652,0.08146 1.179323,0.262104 1.326108,0.243286 2.097867,0.369927 2.267379,0.372065 0.120438,0.0015 0.273269,-0.03615 0.620733,-0.153004 z"
         style="fill:#000000;stroke:#000000;stroke-width:0.229;stroke-miterlimit:4;stroke-dasharray:none;stroke-opacity:1" />
    </g>
    <g
       transform="matrix(0.35279357,0,0,0.35279357,75.720602,27.447014)"
       id="layer1-6-75-2-5"
       inkscape:label="Capa 1">
      <path
         sodipodi:nodetypes="cccssssssccscscccccsscscssccscsccscccccsscsssscs"
         inkscape:connector-curvature="0"
         id="path828-35-3-2"
         d="m 15.55133,51.922274 c -0.685146,-0.279517 -3.20637,-1.507059 -3.324727,-1.618753 -0.03438,-0.03244 -0.07718,-0.127286 -0.09554,-0.211722 -0.08948,-0.411375 -0.262648,-1.722668 -0.332832,-2.520399 -0.05025,-0.57112 -0.0596,-2.009074 -0.01364,-2.094972 0.04031,-0.07531 0.184184,-0.143729 0.562025,-0.267256 0.722856,-0.236322 1.733468,-0.499615 2.410752,-0.628071 0.275408,-0.05224 0.396016,-0.0603 0.707347,-0.04732 0.415417,0.01732 1.429283,0.142198 2.38188,0.293384 0.766175,0.121598 1.019543,0.178219 1.103853,0.246676 l 0.06543,0.05313 -0.0077,1.496494 c -0.0081,1.566318 -0.04308,2.635128 -0.0968,2.95367 -0.03024,0.179307 -0.04114,0.197626 -0.223796,0.376151 -0.196508,0.192058 -2.306176,1.852072 -2.49635,1.964276 -0.172205,0.101604 -0.398334,0.103271 -0.639907,0.0047 z m 0.681956,-0.312805 c 0.354128,-0.250525 1.358355,-1.012126 1.81541,-1.376797 0.537371,-0.428752 0.598921,-0.493547 0.633573,-0.666962 0.06192,-0.309915 0.154976,-1.794696 0.205292,-3.275805 0.02806,-0.82606 0.02665,-0.940151 -0.01209,-0.978893 -0.05115,-0.05115 -0.07672,-0.04286 -1.158797,0.375245 -1.269982,0.490712 -1.8449,0.758627 -1.912296,0.891141 -0.06033,0.118622 -0.03326,2.613007 0.04901,4.516299 0.02534,0.586113 0.04026,0.707347 0.08705,0.707347 0.01213,0 0.143904,-0.08621 0.292842,-0.191575 z m -0.622651,-1.013802 c -0.01218,-0.535923 -0.02681,-1.694557 -0.03252,-2.574744 -0.0081,-1.255585 -0.01836,-1.607633 -0.04745,-1.63421 -0.106289,-0.0971 -3.10159,-0.677511 -3.496415,-0.677511 h -0.135139 l 3.71e-4,0.281495 c 5.78e-4,0.445614 0.107808,1.632044 0.261587,2.894346 0.106753,0.876288 0.163675,1.197828 0.22476,1.269608 0.108101,0.127026 1.297194,0.741581 1.931131,0.998059 0.417345,0.168849 1.151926,0.414027 1.246224,0.415946 l 0.06959,0.0014 z m 0.778946,-4.666157 c 0.521312,-0.175316 1.631211,-0.587253 1.882404,-0.698649 0.123751,-0.05488 0.155359,-0.08002 0.123166,-0.09796 -0.08273,-0.04609 -1.835693,-0.312599 -2.781117,-0.422813 -0.349053,-0.04069 -0.466344,-0.04391 -0.635169,-0.01741 -0.320219,0.05026 -2.598014,0.698144 -2.656719,0.755658 -0.03178,0.03113 0.194652,0.08146 1.179323,0.262104 1.326108,0.243286 2.097867,0.369927 2.267379,0.372065 0.120438,0.0015 0.273269,-0.03615 0.620733,-0.153004 z"
         style="fill:#000000;stroke:#000000;stroke-width:0.229;stroke-miterlimit:4;stroke-dasharray:none;stroke-opacity:1" />
    </g>
    <path
       sodipodi:nodetypes="cc"
       inkscape:connector-curvature="0"
       id="path1090-2-1"
       d="m 72.672123,46.557743 h 14"
       style="fill:none;stroke:#000000;stroke-width:0.209106;stroke-linecap:butt;stroke-linejoin:miter;stroke-miterlimit:4;stroke-dasharray:0.627317, 0.209106;stroke-dashoffset:0;stroke-opacity:1" />
    <path
       inkscape:connector-curvature="0"
       id="path1183-2"
       d="m 66.456089,43.500769 v 5.58932"
       style="fill:none;stroke:#000000;stroke-width:0.264583px;stroke-linecap:butt;stroke-linejoin:miter;stroke-opacity:1" />
    <text
       id="text1088"
       y="47.510681"
       x="16.060684"
       style="font-style:normal;font-weight:normal;font-size:132.329px;line-height:1.25;font-family:sans-serif;letter-spacing:0px;word-spacing:0px;fill:#000000;fill-opacity:1;stroke:none;stroke-width:0.220548"
       xml:space="preserve"><tspan
         style="font-size:2.64658px;stroke-width:0.220548"
         y="47.510681"
         x="16.060684"
         id="tspan1086"
         sodipodi:role="line">1</tspan></text>
    <path
       sodipodi:nodetypes="cc"
       inkscape:connector-curvature="0"
       id="path1090"
       d="m 19.807967,46.557743 h 14"
       style="fill:none;stroke:#000000;stroke-width:0.209302px;stroke-linecap:butt;stroke-linejoin:miter;stroke-opacity:1" />
    <text
       id="text1088-0"
       y="47.528122"
       x="34.195385"
       style="font-style:normal;font-weight:normal;font-size:132.329px;line-height:1.25;font-family:sans-serif;letter-spacing:0px;word-spacing:0px;fill:#000000;fill-opacity:1;stroke:none;stroke-width:0.220548"
       xml:space="preserve"><tspan
         style="font-size:2.64658px;stroke-width:0.220548"
         y="47.528122"
         x="34.195385"
         id="tspan1086-9"
         sodipodi:role="line">20</tspan></text>
    <g
       style="display:inline"
       id="g1033"
       transform="translate(19.247686,66.198426)">
      <rect
         y="-36.617252"
         x="21.17853"
         height="8.2894325"
         width="8.2894325"
         id="rect925-7-3-61-49-09"
         style="display:inline;opacity:1;vector-effect:none;fill:#ffffff;fill-opacity:1;stroke:#000000;stroke-width:0.71056741;stroke-linecap:butt;stroke-linejoin:miter;stroke-miterlimit:4;stroke-dasharray:none;stroke-dashoffset:0;stroke-opacity:1" />
      <rect
         y="-36.617252"
         x="31.46801"
         height="8.2894325"
         width="8.2894325"
         id="rect925-7-3-61-49-0-6"
         style="display:inline;opacity:1;vector-effect:none;fill:#ffffff;fill-opacity:1;stroke:#000000;stroke-width:0.71056741;stroke-linecap:butt;stroke-linejoin:miter;stroke-miterlimit:4;stroke-dasharray:none;stroke-dashoffset:0;stroke-opacity:1" />
      <rect
         y="-36.617252"
         x="41.757488"
         height="8.2894325"
         width="8.2894325"
         id="rect925-7-3-61-49-9-3"
         style="display:inline;opacity:1;vector-effect:none;fill:#ffffff;fill-opacity:1;stroke:#000000;stroke-width:0.71056741;stroke-linecap:butt;stroke-linejoin:miter;stroke-miterlimit:4;stroke-dasharray:none;stroke-dashoffset:0;stroke-opacity:1" />
      <rect
         y="-36.617252"
         x="52.046974"
         height="8.2894325"
         width="8.2894325"
         id="rect925-7-3-61-49-1-8"
         style="display:inline;opacity:1;vector-effect:none;fill:#ffffff;fill-opacity:1;stroke:#000000;stroke-width:0.71056741;stroke-linecap:butt;stroke-linejoin:miter;stroke-miterlimit:4;stroke-dasharray:none;stroke-dashoffset:0;stroke-opacity:1" />
      <rect
         y="-36.617252"
         x="62.336449"
         height="8.2894325"
         width="8.2894325"
         id="rect925-7-3-61-49-7-5"
         style="display:inline;opacity:1;vector-effect:none;fill:#ffffff;fill-opacity:1;stroke:#000000;stroke-width:0.71056741;stroke-linecap:butt;stroke-linejoin:miter;stroke-miterlimit:4;stroke-dasharray:none;stroke-dashoffset:0;stroke-opacity:1" />
    </g>
    <g
       id="g13907"
       transform="translate(-10.27193,9.4374732)">
      <ellipse
         cy="25.34675"
         cx="30.677336"
         id="path1760-3-3-6"
         style="vector-effect:none;fill:#ffffff;fill-opacity:1;stroke:#000000;stroke-width:0.412575;stroke-linecap:butt;stroke-linejoin:miter;stroke-miterlimit:4;stroke-dasharray:none;stroke-dashoffset:0;stroke-opacity:1"
         rx="3.8476732"
         ry="3.8476737" />
      <g
         inkscape:export-ydpi="300"
         inkscape:export-xdpi="300"
         inkscape:export-filename="5cpp.png"
         transform="matrix(0.73525216,0,0,0.73525227,8.6959405,-64.581259)"
         id="g1055">
        <path
           style="display:inline;fill:#000000;stroke:#000000;stroke-width:0.2;stroke-miterlimit:4;stroke-dasharray:none;stroke-opacity:1"
           d="m 31.683759,121.78745 c -0.149113,-0.37791 -0.304974,-0.63865 -0.476928,-0.79784 -0.159143,-0.14734 -0.442683,-0.30808 -0.762236,-0.43212 -0.06612,-0.0257 -0.11569,-0.0603 -0.110153,-0.0769 0.0055,-0.0166 0.134878,-0.0832 0.287426,-0.14805 0.566328,-0.24066 0.792737,-0.47837 1.037804,-1.08964 0.0504,-0.12572 0.103709,-0.22455 0.118462,-0.21964 0.01475,0.005 0.07963,0.13522 0.144175,0.28956 0.249895,0.59755 0.48919,0.8226 1.153122,1.08449 0.08805,0.0348 0.156286,0.0746 0.151633,0.0885 -0.0046,0.0139 -0.133297,0.0784 -0.285875,0.14327 -0.329974,0.14022 -0.557339,0.28557 -0.691746,0.44225 -0.09528,0.11106 -0.31251,0.51789 -0.4045,0.75755 -0.02481,0.0646 -0.05711,0.11752 -0.07178,0.11752 -0.01467,0 -0.0549,-0.0716 -0.08941,-0.15901 z"
           id="path932-27"
           inkscape:connector-curvature="0"
           sodipodi:nodetypes="cccccscccccccsc" />
        <path
           style="display:inline;fill:#000000;stroke:#000000;stroke-width:0.2;stroke-miterlimit:4;stroke-dasharray:none;stroke-opacity:1"
           d="m 31.683759,125.43568 c -0.149113,-0.37791 -0.304974,-0.63865 -0.476928,-0.79784 -0.159143,-0.14734 -0.442683,-0.30808 -0.762236,-0.43212 -0.06612,-0.0257 -0.11569,-0.0603 -0.110153,-0.0769 0.0055,-0.0166 0.134878,-0.0832 0.287426,-0.14805 0.566328,-0.24066 0.792737,-0.47837 1.037804,-1.08964 0.0504,-0.12572 0.103709,-0.22455 0.118462,-0.21964 0.01475,0.005 0.07963,0.13522 0.144175,0.28956 0.249895,0.59755 0.48919,0.8226 1.153122,1.08449 0.08805,0.0348 0.156286,0.0746 0.151633,0.0885 -0.0046,0.0139 -0.133297,0.0784 -0.285875,0.14327 -0.329974,0.14022 -0.557339,0.28557 -0.691746,0.44225 -0.09528,0.11106 -0.31251,0.51789 -0.4045,0.75755 -0.02481,0.0646 -0.05711,0.11752 -0.07178,0.11752 -0.01467,0 -0.0549,-0.0716 -0.08941,-0.15901 z"
           id="path932-5-0"
           inkscape:connector-curvature="0"
           sodipodi:nodetypes="cccccscccccccsc" />
        <path
           style="display:inline;fill:#000000;stroke:#000000;stroke-width:0.2;stroke-miterlimit:4;stroke-dasharray:none;stroke-opacity:1"
           d="m 27.918284,121.78745 c -0.149113,-0.37791 -0.304974,-0.63865 -0.476928,-0.79784 -0.159143,-0.14734 -0.442683,-0.30808 -0.762236,-0.43212 -0.06612,-0.0257 -0.11569,-0.0603 -0.110153,-0.0769 0.0055,-0.0166 0.134878,-0.0832 0.287426,-0.14805 0.566328,-0.24066 0.792737,-0.47837 1.037804,-1.08964 0.0504,-0.12572 0.103709,-0.22455 0.118462,-0.21964 0.01475,0.005 0.07963,0.13522 0.144175,0.28956 0.249895,0.59755 0.48919,0.8226 1.153122,1.08449 0.08805,0.0348 0.156286,0.0746 0.151633,0.0885 -0.0046,0.0139 -0.133297,0.0784 -0.285875,0.14327 -0.329974,0.14022 -0.557339,0.28557 -0.691746,0.44225 -0.09528,0.11106 -0.31251,0.51789 -0.4045,0.75755 -0.02481,0.0646 -0.05711,0.11752 -0.07178,0.11752 -0.01467,0 -0.0549,-0.0716 -0.08941,-0.15901 z"
           id="path932-6-9"
           inkscape:connector-curvature="0"
           sodipodi:nodetypes="cccccscccccccsc" />
        <path
           style="display:inline;fill:#000000;stroke:#000000;stroke-width:0.2;stroke-miterlimit:4;stroke-dasharray:none;stroke-opacity:1"
           d="m 27.918284,125.43568 c -0.149113,-0.37791 -0.304974,-0.63865 -0.476928,-0.79784 -0.159143,-0.14734 -0.442683,-0.30808 -0.762236,-0.43212 -0.06612,-0.0257 -0.11569,-0.0603 -0.110153,-0.0769 0.0055,-0.0166 0.134878,-0.0832 0.287426,-0.14805 0.566328,-0.24066 0.792737,-0.47837 1.037804,-1.08964 0.0504,-0.12572 0.103709,-0.22455 0.118462,-0.21964 0.01475,0.005 0.07963,0.13522 0.144175,0.28956 0.249895,0.59755 0.48919,0.8226 1.153122,1.08449 0.08805,0.0348 0.156286,0.0746 0.151633,0.0885 -0.0046,0.0139 -0.133297,0.0784 -0.285875,0.14327 -0.329974,0.14022 -0.557339,0.28557 -0.691746,0.44225 -0.09528,0.11106 -0.31251,0.51789 -0.4045,0.75755 -0.02481,0.0646 -0.05711,0.11752 -0.07178,0.11752 -0.01467,0 -0.0549,-0.0716 -0.08941,-0.15901 z"
           id="path932-2-3"
           inkscape:connector-curvature="0"
           sodipodi:nodetypes="cccccscccccccsc" />
        <path
           style="display:inline;fill:#000000;stroke:#000000;stroke-width:0.2;stroke-miterlimit:4;stroke-dasharray:none;stroke-opacity:1"
           d="m 29.801022,123.61156 c -0.149113,-0.37791 -0.304974,-0.63865 -0.476928,-0.79784 -0.159143,-0.14734 -0.442683,-0.30808 -0.762236,-0.43212 -0.06612,-0.0257 -0.115691,-0.0603 -0.110153,-0.0769 0.0055,-0.0166 0.134878,-0.0832 0.287426,-0.14805 0.566327,-0.24066 0.792736,-0.47837 1.037804,-1.08964 0.0504,-0.12572 0.103708,-0.22455 0.118462,-0.21964 0.01475,0.005 0.07963,0.13522 0.144175,0.28956 0.249895,0.59755 0.48919,0.8226 1.153122,1.08449 0.08805,0.0348 0.156286,0.0746 0.151632,0.0885 -0.0046,0.0139 -0.133296,0.0784 -0.285874,0.14327 -0.329974,0.14022 -0.557339,0.28557 -0.691746,0.44225 -0.09528,0.11106 -0.31251,0.51789 -0.4045,0.75755 -0.02481,0.0646 -0.05711,0.11752 -0.07178,0.11752 -0.01467,0 -0.0549,-0.0716 -0.08941,-0.15901 z"
           id="path932-27-6"
           inkscape:connector-curvature="0"
           sodipodi:nodetypes="cccccscccccccsc" />
      </g>
    </g>
    <path
       style="display:inline;fill:#000000;stroke-width:0.00482458"
       d="m 27.183921,37.143734 c -0.299291,-0.02936 -0.583084,-0.203093 -0.748824,-0.458504 -0.07702,-0.118742 -0.126935,-0.244231 -0.153395,-0.385968 -0.01319,-0.07048 -0.01798,-0.217035 -0.01005,-0.289848 0.03145,-0.271686 0.158977,-0.506245 0.370785,-0.681899 l 0.06353,-0.0527 6.95e-4,-0.270589 c 6.94e-4,-0.148826 0.0021,-0.685162 0.0028,-1.191851 l 6.95e-4,-0.92127 0.01736,-0.04846 c 0.03347,-0.0934 0.08405,-0.181819 0.138759,-0.242454 0.06658,-0.0738 0.193041,-0.145959 0.294987,-0.168219 0.02895,-0.0062 0.06194,-0.0081 0.134815,-0.0091 0.08536,-2.21e-4 0.101395,6.95e-4 0.138952,0.01078 0.108207,0.02805 0.193971,0.07933 0.274726,0.164179 0.09612,0.100978 0.148632,0.217333 0.158166,0.350266 0.0028,0.04492 0.01004,1.693404 0.01004,2.304545 l -2.1e-5,0.02249 0.04221,0.03284 c 0.184965,0.144223 0.319489,0.35401 0.372679,0.581162 0.03451,0.147285 0.03368,0.322529 -0.0021,0.469841 -0.02624,0.108207 -0.07762,0.229193 -0.135176,0.318426 -0.159311,0.247031 -0.417734,0.417581 -0.694313,0.458206 -0.06152,0.0091 -0.219362,0.01327 -0.278337,0.007 z m 0.474251,-4.233743 -0.01722,-0.03972 c -0.04485,-0.103417 -0.148264,-0.198332 -0.244933,-0.224771 -0.03652,-0.01004 -0.109554,-0.01368 -0.161636,-0.0081 -0.135385,0.01431 -0.255835,0.123963 -0.299499,0.272664 l -0.01333,1.726485 c 4.51e-4,4.45e-4 0.167628,2.23e-4 0.37152,-4.5e-4 l 0.370723,-6.95e-4 -0.0055,-1.725465 z m 0.471619,2.222171 c -0.05187,-0.0042 -0.07822,-0.01778 -0.0938,-0.04867 -0.01861,-0.03693 -0.01188,-0.0725 0.01999,-0.106712 l 0.02201,-0.02353 0.268304,9.1e-5 c 0.268589,8.9e-5 0.324974,0.0028 0.346775,0.01722 0.01499,0.01004 0.02889,0.03326 0.03256,0.05533 0.0081,0.04492 -0.02451,0.0928 -0.06756,0.100685 -0.02965,0.0049 -0.471599,0.01017 -0.528297,0.0062 z m -0.03027,-0.560283 c -0.0493,-0.0081 -0.07188,-0.03506 -0.07229,-0.08565 -4.09e-4,-0.04562 0.01999,-0.07209 0.06444,-0.08304 0.0134,-0.0028 0.12406,-0.0062 0.297708,-0.0081 l 0.276476,-0.0028 0.01687,0.01639 c 0.05812,0.05611 0.05944,0.09582 0.0049,0.152666 l -0.01499,0.01569 -0.27526,-6.74e-4 c -0.151396,-2.36e-4 -0.285619,-0.0021 -0.298278,-0.0042 z m 0.0062,-0.554416 -0.04083,-0.0028 -0.01577,-0.02069 c -0.02756,-0.03618 -0.03089,-0.06818 -0.01078,-0.107618 0.01004,-0.01882 0.0261,-0.0318 0.04978,-0.03881 0.0081,-0.0028 0.13885,-0.0042 0.299715,-0.0042 l 0.284655,4.2e-5 0.02249,0.0234 c 0.02784,0.02902 0.03631,0.05499 0.02826,0.08696 -0.007,0.02868 -0.01993,0.04583 -0.04222,0.05694 -0.01708,0.0081 -0.03396,0.0091 -0.276308,0.0091 -0.14196,1.31e-4 -0.276469,-6.95e-4 -0.298903,-0.0021 z m -0.04985,-0.573788 c -0.03701,-0.03958 -0.03979,-0.07681 -0.0091,-0.119624 0.02743,-0.03784 0.01452,-0.03652 0.327918,-0.03409 0.193331,0.0021 0.283536,0.0042 0.295832,0.0081 0.02243,0.007 0.04541,0.03319 0.05249,0.05908 0.01029,0.03818 -0.01004,0.08546 -0.04083,0.09571 -0.03207,0.01054 -0.129282,0.01452 -0.365195,0.01452 l -0.239358,7.6e-5 z m 0.0049,-0.550174 c -0.02264,-0.02506 -0.03069,-0.03833 -0.03451,-0.05673 -0.0049,-0.02416 0.0049,-0.05159 0.02923,-0.07833 l 0.02215,-0.02451 0.25405,1.73e-4 c 0.277711,1.87e-4 0.342469,0.0028 0.361806,0.01778 0.03027,0.02264 0.04,0.07812 0.02041,0.116549 -0.01833,0.03583 -0.01812,0.03583 -0.175752,0.03972 -0.07731,0.0021 -0.212473,0.0042 -0.300394,0.0042 l -0.159859,4.58e-4 z"
       id="path1171-3"
       inkscape:connector-curvature="0"
       sodipodi:nodetypes="ccccccccccccccccccccccccccccccccccccccscccccccccccccccccccccccccccccccccccccccccccccccccc" />
    <g
       id="g944"
       transform="translate(-11.673247,1.058333)"
       style="display:inline">
      <path
         inkscape:export-ydpi="300"
         inkscape:export-xdpi="300"
         inkscape:export-filename="1flame.png"
         sodipodi:nodetypes="ccccsccccscccccscscccsccccccc"
         inkscape:connector-curvature="0"
         id="path826-3-6"
         d="m -11.992062,47.899798 c -0.74036,-0.42454 -1.16313,-1.30599 -1.029019,-2.14547 0.0723,-0.45236 0.205399,-0.75728 0.51281,-1.17452 0.855259,-1.16082 1.01121,-1.47811 1.05736,-2.15132 0.0145,-0.21106 0.0365,-0.38375 0.049,-0.38375 0.0124,0 0.167669,0.10751 0.34492,0.23891 0.70314,0.52126 1.0979695,1.22932 1.1901695,2.13433 l 0.0354,0.34789 0.128,-0.13562 c 0.0704,-0.0746 0.15533,-0.22937 0.18875,-0.34397 l 0.0608,-0.20837 0.19096,0.39085 c 0.22784,0.46637 0.37001,0.95442 0.40995,1.40733 0.0722,0.81861 -0.34268,1.61611 -1.05246,2.0231 -0.2845895,0.16319 -0.3925495,0.19094 -0.2225405,0.0572 0.1735505,-0.13653 0.3687505,-0.53511 0.3972405,-0.81118 0.0384,-0.37175 -0.0755,-0.6917 -0.4090205,-1.14935 -0.334519,-0.45901 -0.487779,-0.77035 -0.53289,-1.08258 l -0.0324,-0.22468 -0.18305,0.17817 c -0.34858,0.3393 -0.59597,1.08145 -0.53423,1.6027 0.0148,0.1247 0.009,0.22675 -0.0126,0.22675 -0.089,0 -0.32551,-0.33503 -0.3523,-0.49904 -0.0158,-0.0965 -0.0345,-0.20683 -0.0417,-0.2452 -0.0169,-0.0902 -0.24643,0.40925 -0.30533,0.66445 -0.10999,0.4766 -0.0184,0.91088 0.26098,1.23724 0.0901,0.10532 0.15703,0.19129 0.14864,0.19105 -0.008,-1.8e-4 -0.12865,-0.0654 -0.26725,-0.14494 z"
         style="fill:#000000;stroke:#000000;stroke-width:0.3;stroke-miterlimit:4;stroke-dasharray:none;stroke-opacity:1" />
      <g
         id="g934">
        <circle
           style="opacity:1;vector-effect:none;fill:#000000;fill-opacity:1;stroke:none;stroke-width:0.292091;stroke-linecap:butt;stroke-linejoin:miter;stroke-miterlimit:4;stroke-dasharray:0.876273, 0.292091;stroke-dashoffset:0;stroke-opacity:1"
           id="path3810-75"
           cx="-4.4457111"
           cy="45.131767"
           r="1.6063988" />
        <circle
           style="opacity:1;vector-effect:none;fill:#000000;fill-opacity:1;stroke:none;stroke-width:0.292091;stroke-linecap:butt;stroke-linejoin:miter;stroke-miterlimit:4;stroke-dasharray:0.876273, 0.292091;stroke-dashoffset:0;stroke-opacity:1"
           id="path3810-8-3"
           cx="1.280627"
           cy="45.131767"
           r="1.6063988" />
        <circle
           style="opacity:1;vector-effect:none;fill:#000000;fill-opacity:1;stroke:none;stroke-width:0.292091;stroke-linecap:butt;stroke-linejoin:miter;stroke-miterlimit:4;stroke-dasharray:0.876273, 0.292091;stroke-dashoffset:0;stroke-opacity:1"
           id="path3810-89-5"
           cx="7.0069661"
           cy="45.131767"
           r="1.6063988" />
        <circle
           style="opacity:1;vector-effect:none;fill:#000000;fill-opacity:1;stroke:none;stroke-width:0.292091;stroke-linecap:butt;stroke-linejoin:miter;stroke-miterlimit:4;stroke-dasharray:0.876273, 0.292091;stroke-dashoffset:0;stroke-opacity:1"
           id="path3810-7-6"
           cx="12.733305"
           cy="45.131767"
           r="1.6063988" />
        <circle
           style="opacity:1;vector-effect:none;fill:#000000;fill-opacity:1;stroke:none;stroke-width:0.292091;stroke-linecap:butt;stroke-linejoin:miter;stroke-miterlimit:4;stroke-dasharray:0.876273, 0.292091;stroke-dashoffset:0;stroke-opacity:1"
           id="path3810-76-2"
           cx="18.459644"
           cy="45.131767"
           r="1.6063988" />
        <circle
           style="opacity:1;vector-effect:none;fill:#000000;fill-opacity:1;stroke:none;stroke-width:0.292091;stroke-linecap:butt;stroke-linejoin:miter;stroke-miterlimit:4;stroke-dasharray:0.876273, 0.292091;stroke-dashoffset:0;stroke-opacity:1"
           id="path3810-3"
           cx="24.289539"
           cy="45.131767"
           r="1.6063988" />
      </g>
    </g>
    <path
       id="path948"
       style="fill:#000000;stroke-width:0.0631203"
       d="m -15.051134,31.157637 c -0.126267,0 -0.23006,0.09301 -0.247014,0.214457 h -0.749308 c -0.655549,0 -1.18339,0.527841 -1.18339,1.18339 v 0.334347 c 0,0.655549 0.527841,1.18339 1.18339,1.18339 h 0.780314 c 0.04302,0.07458 0.123381,0.12454 0.216008,0.12454 0.09258,0 0.172969,-0.05002 0.216007,-0.12454 h 2.938839 c 0.04302,0.07458 0.12338,0.12454 0.216007,0.12454 0.09259,0 0.17297,-0.05002 0.216008,-0.12454 h 0.780314 c 0.65555,0 1.1833904,-0.527841 1.1833904,-1.18339 v -0.334347 c 0,-0.655549 -0.5278404,-1.18339 -1.1833904,-1.18339 h -0.749308 c -0.01695,-0.12145 -0.120747,-0.214457 -0.247014,-0.214457 -0.126266,0 -0.230059,0.09301 -0.247013,0.214457 h -2.876827 c -0.01696,-0.121443 -0.120752,-0.214457 -0.247013,-0.214457 z m 6.8300737,0.340031 c -0.2432344,0.0057 -0.4828942,0.133658 -0.5513874,0.411344 -0.028162,-0.02915 -0.038956,0.342068 -0.042375,0.852661 h -0.1777669 v 0.961182 c -0.1091327,0.0039 -0.2103636,0.0083 -0.322461,0.01188 -0.016,0.0093 -0.028319,0.504981 -0.027389,1.101742 l 0.00207,1.085205 c 0.116826,-0.01136 0.2325862,-0.01957 0.3477827,-0.02687 v 1.518771 l 6.0616453,0.160713 2.35696335,0.778764 H 2.3679585 l -0.014986,-0.406693 c 0.440608,-0.0329 0.8874416,-0.105727 1.3441019,-0.229961 0.023566,-0.122575 -0.00827,-4.748547 -0.00827,-4.748547 -0.5267352,0.0049 -1.0191115,0.0139 -1.4846618,0.02687 l 0.00103,-0.233061 V 32.398905 C 2.166018,32.147767 1.9150236,31.999858 1.6558563,31.988594 1.396689,31.977354 1.1289518,32.102702 1.0558925,32.398905 1.035673,32.377975 1.0252061,32.53691 1.0186867,32.761673 h -1.29604552 v -0.729154 c -0.0391583,-0.251138 -0.29015266,-0.399047 -0.54932077,-0.410311 -0.25916861,-0.01124 -0.52690451,0.114108 -0.59996331,0.410311 -0.027077,-0.02803 -0.037885,0.283204 -0.041858,0.729154 h -1.1895915 v -0.852661 c -0.039158,-0.251138 -0.2896354,-0.399561 -0.5488038,-0.410828 -0.2591678,-0.01124 -0.5274212,0.11463 -0.6004801,0.410828 -0.028162,-0.02915 -0.038439,0.342068 -0.041858,0.852661 h -1.291911 v -0.852661 c -0.039159,-0.251138 -0.2896351,-0.399561 -0.5488035,-0.410828 -0.2591686,-0.01124 -0.5263888,0.11463 -0.5994468,0.410828 -0.028162,-0.02915 -0.038956,0.342068 -0.042375,0.852661 h -1.2919107 v -0.852661 c -0.039158,-0.251138 -0.2896346,-0.399561 -0.5488038,-0.410828 -0.016198,-7.02e-4 -0.03236,-8.93e-4 -0.048575,-5.16e-4 z m 12.3294797,1.437638 c -0.1113525,0.004 -0.1984375,0.10645 -0.1984375,0.221175 v 4.474662 c 0,0.122372 0.098838,0.232777 0.2206572,0.221175 l 2.8334203,-0.270267 c 0.1218221,-0.0116 0.2206572,-0.09829 0.2206572,-0.220659 v -0.38809 c 0.00521,4.24e-4 0.010186,0.001 0.015505,0.001 h 0.0987 c 0.1055741,0 0.1906879,-0.08511 0.1906879,-0.190686 v -0.63717 c 0,-0.105577 -0.085114,-0.190686 -0.1906879,-0.190686 h -0.0987 c -0.00532,0 -0.010298,6.43e-4 -0.015505,0.001 v -0.586461 h 0.1550299 c 0.08305,0 0.1498627,-0.06681 0.1498627,-0.149861 v -1.386479 c 0,-0.08305 -0.066813,-0.149862 -0.1498627,-0.149862 H 7.1847166 v -0.290938 c 0,-0.122371 -0.098708,-0.210468 -0.2206572,-0.220658 L 4.1306391,32.935823 c -0.00762,-6.37e-4 -0.014795,-7.83e-4 -0.02222,-5.17e-4 z M 4.536301,33.76988 c 0.00325,-1.64e-4 0.00652,0 0.00982,0 h 1.9616367 c 0.1054841,0 0.1906852,0.0852 0.1906852,0.190686 0,0.105484 -0.085198,0.19017 -0.1906852,0.19017 H 4.5461196 c -0.105484,0 -0.1906878,-0.08468 -0.1906878,-0.19017 0,-0.102187 0.07997,-0.185588 0.1808692,-0.190686 z m -21.825541,0.50953 c -0.01596,0.340727 -0.02067,0.796114 -0.02067,1.443323 v 0.225826 h 1.127063 c 1.163681,0 1.553393,0.109797 1.553393,0.436665 0,0.102009 0.124683,0.137977 0.478008,0.137977 h 0.303857 v -0.89917 h 2.361096 v 0.89917 h 0.207739 0.574642 v 0.363285 c 0,0.199844 0.05165,0.41559 0.114722,0.479041 0.129216,0.129273 0.7312703,0.152743 0.9157063,0.03566 0.06207,-0.03935 0.089262,-0.578281 0.097152,-1.914095 l 0.019637,-1.207678 z m 21.8188232,0.431498 c 0.00325,-1.63e-4 0.00652,0 0.00982,0 h 1.9616367 c 0.1054867,0 0.1901692,0.08468 0.1901692,0.19017 0,0.105482 -0.084682,0.190686 -0.1901692,0.190686 h -1.961638 c -0.1054841,0 -0.1906879,-0.0852 -0.1906879,-0.190686 0,-0.10219 0.07997,-0.185103 0.1808692,-0.19017 z m -0.01292,0.940511 c 0.00325,-1.64e-4 0.00652,0 0.00982,0 h 1.9616366 c 0.1054868,0 0.1906853,0.0852 0.1906853,0.190686 0,0.105485 -0.085198,0.19017 -0.1906853,0.19017 H 4.5264823 c -0.1054841,0 -0.1901693,-0.08468 -0.1901693,-0.19017 0,-0.102187 0.079484,-0.185589 0.1803502,-0.190686 z m -17.1359042,0.112138 c -0.0076,1.99e-4 -0.01513,6.42e-4 -0.02274,0.001 l -0.248047,0.01292 c -0.486712,0.02504 -0.881226,0.437144 -0.884184,0.924491 l -0.01188,1.948201 c -0.003,0.487347 0.38662,0.859098 0.873331,0.834058 l 0.248047,-0.0124 c 0.486712,-0.02504 0.881226,-0.437662 0.884184,-0.925008 l 0.01137,-1.947685 c 0.0029,-0.479732 -0.374033,-0.848104 -0.850077,-0.835608 z m -3.215825,0.330213 c -0.231227,0.0022 -0.461553,0.0879 -0.63717,0.256831 l -1.403532,1.350306 c -0.351234,0.33786 -0.346625,0.876429 0.01085,1.207678 l 0.182418,0.168982 c 0.357477,0.331248 0.928274,0.325975 1.279508,-0.01189 l 1.403532,-1.350305 c 0.351235,-0.337861 0.346109,-0.87643 -0.01137,-1.207678 l -0.181901,-0.168982 c -0.178738,-0.165624 -0.411111,-0.247104 -0.642338,-0.244946 z m 20.3941048,0.498677 h 1.9616367 c 0.1054868,0 0.1906852,0.08468 0.1906852,0.190169 0,0.105486 -0.085201,0.190686 -0.1906852,0.190686 H 4.5590392 c -0.105484,0 -0.1901692,-0.0852 -0.1901692,-0.190686 0,-0.105485 0.084685,-0.190169 0.1901688,-0.190169 z m -15.2972578,1.155485 c -0.289968,0 -0.523482,0.233514 -0.523482,0.523482 v 0.577743 c 0,0.289968 0.233514,0.523482 0.523482,0.523482 h 2.5998406 c 0.289968,0 0.5234824,-0.233514 0.5234824,-0.523482 v -0.577743 c 0,-0.289968 -0.2335144,-0.523482 -0.5234824,-0.523482 z" />
  </g>
</svg>
