<?xml version="1.0" encoding="UTF-8" standalone="no"?>
<!-- Created with Inkscape (http://www.inkscape.org/) -->

<svg
   xmlns:dc="http://purl.org/dc/elements/1.1/"
   xmlns:cc="http://creativecommons.org/ns#"
   xmlns:rdf="http://www.w3.org/1999/02/22-rdf-syntax-ns#"
   xmlns:svg="http://www.w3.org/2000/svg"
   xmlns="http://www.w3.org/2000/svg"
   xmlns:sodipodi="http://sodipodi.sourceforge.net/DTD/sodipodi-0.dtd"
   xmlns:inkscape="http://www.inkscape.org/namespaces/inkscape"
   width="120mm"
   height="23.016712mm"
   viewBox="0 0 120 23.016712"
   version="1.1"
   id="svg1100"
   inkscape:version="0.92.5 (2060ec1f9f, 2020-04-08)"
   sodipodi:docname="Saw.svg">
  <defs
     id="defs1094" />
  <sodipodi:namedview
     id="base"
     pagecolor="#ffffff"
     bordercolor="#666666"
     borderopacity="1.0"
     inkscape:pageopacity="0.0"
     inkscape:pageshadow="2"
     inkscape:zoom="2"
     inkscape:cx="93.60726"
     inkscape:cy="35.821549"
     inkscape:document-units="mm"
     inkscape:current-layer="layer1"
     showgrid="false"
     inkscape:window-width="1848"
     inkscape:window-height="1016"
     inkscape:window-x="72"
     inkscape:window-y="27"
     inkscape:window-maximized="1"
     fit-margin-top="0"
     fit-margin-left="0"
     fit-margin-right="0"
     fit-margin-bottom="0"
     inkscape:snap-global="true"
     inkscape:snap-bbox="true" />
  <metadata
     id="metadata1097">
    <rdf:RDF>
      <cc:Work
         rdf:about="">
        <dc:format>image/svg+xml</dc:format>
        <dc:type
           rdf:resource="http://purl.org/dc/dcmitype/StillImage" />
        <dc:title />
      </cc:Work>
    </rdf:RDF>
  </metadata>
  <g
     inkscape:groupmode="layer"
     id="layer3"
     inkscape:label="Background"
     style="display:inline" />
  <g
     inkscape:groupmode="layer"
     id="layer2"
     inkscape:label="Guias"
     style="display:none"
     transform="translate(0,0.2323513)">
    <g
       id="g1399"
       transform="translate(-6.7978492)">
      <rect
         y="11.402682"
         x="50.431446"
         height="11"
         width="74.99527"
         id="rect1878-3"
         style="display:inline;opacity:1;vector-effect:none;fill:#ffe680;fill-opacity:1;stroke:none;stroke-width:0.47467926;stroke-linecap:butt;stroke-linejoin:miter;stroke-miterlimit:4;stroke-dasharray:none;stroke-dashoffset:0;stroke-opacity:1" />
      <rect
         y="0.30218902"
         x="8.1689825"
         height="22.148087"
         width="42.262463"
         id="rect1868"
         style="display:inline;opacity:1;vector-effect:none;fill:#decd87;fill-opacity:1;stroke:none;stroke-width:0.39467782;stroke-linecap:butt;stroke-linejoin:miter;stroke-miterlimit:4;stroke-dasharray:none;stroke-dashoffset:0;stroke-opacity:1" />
      <rect
         y="0.39782956"
         x="50.431446"
         height="11"
         width="74.99527"
         id="rect1878"
         style="display:inline;opacity:1;vector-effect:none;fill:#deaa87;fill-opacity:1;stroke:none;stroke-width:0.47467929;stroke-linecap:butt;stroke-linejoin:miter;stroke-miterlimit:4;stroke-dasharray:none;stroke-dashoffset:0;stroke-opacity:1" />
      <rect
         y="12.891373"
         x="76.863533"
         height="8.0226164"
         width="22"
         id="rect1878-7-3"
         style="display:inline;opacity:1;vector-effect:none;fill:#eeffaa;fill-opacity:1;stroke:none;stroke-width:0.19344766;stroke-linecap:butt;stroke-linejoin:miter;stroke-miterlimit:4;stroke-dasharray:none;stroke-dashoffset:0;stroke-opacity:1" />
      <rect
         y="12.891415"
         x="103.2956"
         height="8.0226164"
         width="22"
         id="rect1878-7-56"
         style="display:inline;opacity:1;vector-effect:none;fill:#ccffaa;fill-opacity:1;stroke:none;stroke-width:0.21753596;stroke-linecap:butt;stroke-linejoin:miter;stroke-miterlimit:4;stroke-dasharray:none;stroke-dashoffset:0;stroke-opacity:1" />
      <rect
         y="12.680782"
         x="50.431446"
         height="8.443799"
         width="22"
         id="rect1878-7"
         style="display:inline;opacity:1;vector-effect:none;fill:#ff9955;fill-opacity:1;stroke:none;stroke-width:0.22317314;stroke-linecap:butt;stroke-linejoin:miter;stroke-miterlimit:4;stroke-dasharray:none;stroke-dashoffset:0;stroke-opacity:1" />
      <rect
         y="13.158642"
         x="77.363533"
         height="7.4880772"
         width="21"
         id="rect1878-7-2-7"
         style="display:inline;opacity:1;vector-effect:none;fill:#ddff55;fill-opacity:1;stroke:none;stroke-width:0.20533194;stroke-linecap:butt;stroke-linejoin:miter;stroke-miterlimit:4;stroke-dasharray:none;stroke-dashoffset:0;stroke-opacity:1" />
      <rect
         y="13.158684"
         x="103.7956"
         height="7.4880772"
         width="21"
         id="rect1878-7-2-7-0"
         style="display:inline;opacity:1;vector-effect:none;fill:#66ff00;fill-opacity:1;stroke:none;stroke-width:0.20533194;stroke-linecap:butt;stroke-linejoin:miter;stroke-miterlimit:4;stroke-dasharray:none;stroke-dashoffset:0;stroke-opacity:1" />
      <rect
         y="13.158642"
         x="50.931446"
         height="7.4880772"
         width="21"
         id="rect1878-7-2"
         style="display:inline;opacity:1;vector-effect:none;fill:#d45500;fill-opacity:1;stroke:none;stroke-width:0.20533194;stroke-linecap:butt;stroke-linejoin:miter;stroke-miterlimit:4;stroke-dasharray:none;stroke-dashoffset:0;stroke-opacity:1" />
    </g>
  </g>
  <g
     inkscape:label="Capa 1"
     inkscape:groupmode="layer"
     id="layer1"
     transform="translate(28.060163,-27.595709)"
     style="display:inline">
    <g
       transform="matrix(0.35279357,0,0,0.35279357,27.66483,22.56444)"
       id="layer1-6-3-2"
       inkscape:label="Capa 1" />
    <rect
       style="display:inline;opacity:1;fill:#ffffff;fill-opacity:1;stroke:none;stroke-width:0.71100003;stroke-miterlimit:4;stroke-dasharray:none;stroke-dashoffset:0;stroke-opacity:1"
       id="rect1126"
       width="119.99902"
       height="23.017704"
       x="-28.060163"
       y="27.595709" />
    <g
       style="display:inline"
       id="g9128"
       transform="translate(-107.62953,-199.34653)">
      <path
         inkscape:connector-curvature="0"
         id="path9084"
         d="M 83.843672,227.37459 H 195.29507"
         style="fill:none;stroke:#000000;stroke-width:0.40000001;stroke-linecap:butt;stroke-linejoin:miter;stroke-miterlimit:4;stroke-dasharray:none;stroke-opacity:1" />
      <path
         inkscape:connector-curvature="0"
         id="path9084-3"
         d="M 83.843669,249.75895 H 195.29507"
         style="fill:none;stroke:#000000;stroke-width:0.40000001;stroke-linecap:butt;stroke-linejoin:miter;stroke-miterlimit:4;stroke-dasharray:none;stroke-opacity:1" />
    </g>
    <g
       id="g177"
       transform="matrix(0.20445989,-0.24459111,0.24459111,0.20445989,-59.000201,82.453113)">
      <g
         id="g203"
         transform="matrix(0.71956268,-0.25661769,0.25661769,0.71956268,128.30419,141.58177)">
        <g
           id="g197">
          <path
             sodipodi:nodetypes="ccccscccccccccscccsccccccsccccccccssccccsccccccccccccccsscscs"
             inkscape:connector-curvature="0"
             d="m 172.51208,-65.153317 c -0.87157,0.01055 -1.76591,0.130163 -2.42809,0.355794 -2.168,0.738708 -3.78319,3.060516 -4.19826,5.397729 l -0.16643,0.937072 -5.84062,0.02362 c -4.70995,0.01905 -4.9203,-0.05005 -5.45279,-0.08478 l -0.66515,-0.01098 c -0.22639,0.64453 -0.1772,0.776925 -0.67291,1.632183 -1.32057,2.278453 -1.68143,3.274425 -1.68379,4.646316 -9.4e-4,0.763916 0.079,1.384748 0.17862,1.379741 0.0997,-0.0051 0.39853,-0.349077 0.66425,-0.764299 0.80636,-1.260085 1.25927,-1.393164 1.96785,-0.577861 0.51972,0.597991 0.59119,0.866194 0.48172,1.811673 -0.4153,3.587005 -0.4343,4.128575 -0.16984,4.929879 0.49686,1.505493 0.87979,1.567317 1.51151,0.244516 0.70963,-1.485927 1.37942,-1.650442 2.08303,-0.511974 0.27224,0.440481 0.56914,1.397228 0.65986,2.126472 0.0908,0.72924 0.35824,1.760991 0.59446,2.292411 0.39959,0.899017 1.52536,2.29485 1.85071,2.29485 0.0784,0 0.0816,-0.456409 0.007,-1.013697 -0.16359,-1.219687 0.14251,-1.885608 0.86581,-1.883906 0.97593,0.0023 1.87854,0.820328 2.79756,2.534976 0.74747,1.39462 1.13238,1.827281 2.19626,2.46811 0.70944,0.427328 1.37197,0.726049 1.47199,0.66425 0.1,-0.06182 0.0335,-0.604304 -0.14741,-1.205505 -0.44961,-1.493975 -0.27971,-1.805818 0.98296,-1.805818 0.83624,0 1.2387,0.167181 2.0679,0.85996 0.56626,0.473093 1.32822,1.014399 1.69307,1.203063 0.79314,0.410145 3.36176,0.751072 3.36176,0.446086 -1e-5,-0.117931 -0.3863,-0.523313 -0.85899,-0.900469 -1.16797,-0.931929 -1.06358,-1.607598 0.3231,-2.086936 0.96519,-0.333639 1.13438,-0.321714 2.53643,0.181069 1.66153,0.595818 2.77385,0.657538 4.02063,0.223043 1.11509,-0.388607 1.1781,-0.783802 0.2167,-1.353875 -1.0867,-0.644367 -1.40658,-0.947376 -1.40658,-1.331911 0,-0.612248 1.23614,-1.140627 3.10941,-1.329471 1.93701,-0.195269 2.51891,-0.406231 3.83517,-1.388525 1.08206,-0.807537 1.00389,-1.105833 -0.24159,-0.92292 -1.27471,0.187203 -2.01583,-0.252909 -1.76385,-1.046884 0.28863,-0.90939 1.32322,-1.930761 2.13282,-2.105486 1.80456,-0.389443 4.03966,-2.201275 4.03966,-3.27487 0,-0.346487 -0.14399,-0.368342 -1.09764,-0.164965 -1.59648,0.340497 -1.89239,0.156486 -1.72724,-1.074704 0.1102,-0.821615 0.36273,-1.224786 1.32459,-2.113783 0.65359,-0.604071 1.3687,-1.447432 1.58961,-1.874632 0.33582,-0.649426 0.62756,-2.017718 0.62032,-2.638933 l -0.55834,-0.0068 c -0.12941,0.152296 -0.004,0.555384 -0.23805,0.688864 -0.55305,0.534851 -0.86639,0.759707 -1.47327,0.703401 -1.25691,0.317544 -3.30718,0.06318 -5.83309,0.08558 l -6.09647,-0.114597 -0.18546,-1.087881 c -0.37626,-2.20578 -1.71259,-4.31698 -3.98682,-5.155458 -0.57155,-0.210726 -1.42035,-0.309241 -2.29192,-0.298691 z m -0.81018,3.674592 c 1.1435,-0.0051 2.30665,0.513958 3.06501,1.64915 1.02296,1.531283 0.54885,3.995678 -0.94976,4.936224 -1.17492,0.737398 -3.06329,0.665376 -4.33054,-0.164965 -0.90884,-0.595491 -1.51415,-2.090066 -1.34803,-3.328558 0.26257,-1.957559 1.89205,-3.084364 3.56332,-3.091851 z"
             style="fill:#000000;stroke-width:0.24155499"
             id="path84-6" />
          <path
             sodipodi:nodetypes="csccsssscssscsscscsccssssscccsssccccsssssscc"
             inkscape:connector-curvature="0"
             id="path97-7"
             d="m 153.13791,-59.922109 c 0,-0.33062 0.52743,-0.396875 3.15939,-0.396875 1.97165,0 3.22559,-0.107137 3.33551,-0.284988 0.0969,-0.156741 0.34612,-1.013647 0.55388,-1.904235 0.95051,-4.074491 3.56403,-7.411853 7.14222,-9.120342 2.0318,-0.970131 2.15263,-0.993561 5.12358,-0.993561 2.87947,0 3.13941,0.0458 4.84508,0.853684 3.57763,1.694529 6.51884,5.401218 7.34953,9.262323 0.18053,0.839115 0.44221,1.674489 0.5815,1.85639 0.17641,0.230365 1.1668,0.330729 3.26358,0.330729 2.51629,0 3.01031,0.06596 3.01031,0.401937 0,0.349605 -0.76554,0.392665 -5.87981,0.330729 l -5.8798,-0.07121 -0.19648,-1.151792 c -0.39839,-2.335517 -2.38826,-4.621014 -4.79625,-5.508809 -1.21035,-0.44624 -3.59553,-0.417424 -4.9978,0.06038 -2.29551,0.782155 -4.38107,3.265646 -4.82055,5.740326 l -0.1762,0.992187 h -5.80885 c -4.98702,0 -5.80884,-0.05615 -5.80884,-0.396873 z m -1.4798,-2.516407 c 1.0143,-7.646182 7.07473,-15.271978 14.491,-18.233914 4.39383,-1.754825 10.10044,-2.081959 14.45811,-0.828818 4.99614,1.436748 10.07104,5.078597 12.92609,9.276013 1.93386,2.843103 4.0546,8.258415 4.0546,10.353412 v 0.769212 l -5.85107,-0.07121 -5.85106,-0.07121 -0.49098,-1.933946 c -0.65849,-2.593783 -1.62738,-4.308846 -3.65024,-6.46136 -7.31232,-7.781009 -19.69191,-4.045436 -22.40645,6.761207 l -0.4437,1.76639 h -3.70609 -3.70608 z m 4.12563,-2.461305 c 0,-0.180885 0.41156,-1.187661 0.91458,-2.237279 2.38101,-4.968347 5.52731,-8.175902 10.08557,-10.281948 1.45311,-0.671379 1.96444,-1.040857 1.96444,-1.419473 0,-0.951431 -0.80587,-1.062981 -2.50448,-0.346675 -4.85915,2.049104 -9.12655,6.435345 -11.4281,11.746344 -1.0138,2.339422 -1.02935,2.438894 -0.46884,2.999404 0.31345,0.313446 0.54047,0.348231 0.92604,0.141879 0.28094,-0.150351 0.51079,-0.421364 0.51079,-0.602252 z"
             style="fill:#000000;stroke-width:0.26458332" />
        </g>
        <path
           sodipodi:nodetypes="ccccscccccccccscccscccccccccccccccccccccscccccccccccscccccccccsccscccccsscccscccccccccccscccsccccccccccccccccsccccccsccccccccccscccsssccsccccccscccccccscccccccccccc"
           inkscape:connector-curvature="0"
           id="path190"
           d="m 181.64076,-84.038638 c 0.3061,-1.018124 -0.63548,-2.941425 -1.5916,-3.250123 -1.19478,-2.582479 -3.07658,-8.02128 -1.96925,-8.521116 0.95249,-0.368227 1.05364,-1.974988 0.14199,-2.249346 -0.80524,-0.242284 -2.74963,-9.262867 -2.31102,-10.720347 0.81597,-2.7112 -0.63597,-3.35665 -7.06538,-3.14025 l -4.58679,0.15501 -1.60791,-1.62653 c -1.12606,-1.13818 -1.4621,-1.83848 -1.12272,-2.33878 0.30435,-0.44866 0.0968,-1.22832 -0.55806,-2.09437 l -1.04421,-1.37903 1.37287,-1.27121 1.37284,-1.2712 -0.88333,-1.22737 c -0.95732,-1.33251 -2.46854,-2.04608 -2.70043,-1.27531 -0.24518,0.81339 -0.91729,0.32733 -3.8466,-2.78271 -1.74439,-1.85196 -2.93966,-3.61759 -3.12675,-4.61777 -0.43543,-2.3276 -2.99812,-5.44303 -5.41599,-6.58477 -2.47211,-1.16773 -5.64358,-1.28543 -8.28867,-0.30718 -2.36434,0.87432 -4.22842,0.36458 -4.55314,-1.24495 -0.62502,-0.58203 -0.7993,-0.52425 -1.36164,-0.38609 -5.8236,0.81335 -8.68976,12.9508 -5.11787,14.23872 0.39637,0.11904 0.62275,0.5407 0.5035,0.93698 -0.11905,0.39634 0.10719,0.81773 0.50349,0.93699 0.39634,0.11903 0.81772,-0.10719 0.93699,-0.50348 0.36225,-1.20297 3.39696,0.0525 5.11367,2.11616 0.93861,1.1283 2.53138,2.27136 4.19171,3.00845 3.38381,1.50232 8.08005,6.37766 7.38318,7.66432 -0.4921,0.90851 0.46481,2.5465 1.72537,2.95182 0.44491,0.14303 1.37753,-0.2648 2.07186,-0.9051 1.23571,-1.13949 1.2856,-1.1384 2.34867,0.0144 0.87927,0.95354 1.25879,1.10461 1.99213,0.7942 0.74302,-0.31451 1.22012,-0.0459 2.65125,1.49531 0.95979,1.03324 2.00417,2.42649 2.32194,3.09579 0.31774,0.6693 0.81863,1.28915 1.11391,1.37801 0.29527,0.0889 0.71557,1.03406 0.93367,2.10075 0.3297,1.612585 0.25219,2.035427 -0.45601,2.505261 -0.62338,0.413967 -0.75103,0.750421 -0.47837,1.257672 0.2726,0.507298 1.61798,0.380953 5.0215,-0.474493 4.60464,-1.156939 5.70783,-1.885201 3.77799,-2.49076 -1.02178,-0.32059 -1.92938,-2.09391 -1.61217,-3.14796 0.0977,-0.32351 1.22993,-1.00738 2.51689,-1.51773 l 2.33941,-0.92785 0.87696,3.55476 c 0.48246,1.95503 0.82186,4.244727 0.75392,5.088643 -0.0916,1.138876 0.14899,1.617462 0.932,1.853106 2.28481,3.636429 2.71259,4.787171 1.83492,9.496769 -0.63749,1.148994 0.0539,2.843795 1.55709,3.071771 1.37214,0.412934 3.06281,-0.31103 3.40838,-1.459333 z m -0.95808,-0.422064 c -0.0615,0.202989 -0.28824,0.355283 -0.72016,0.587363 -0.5433,0.291949 -1.27064,0.277296 -1.67388,-0.03483 -0.392,-0.303454 -0.59632,-0.937861 -0.45432,-1.409724 0.35699,-1.184976 1.94207,-1.204765 2.57244,-0.03163 0.23209,0.431907 0.33704,0.685734 0.27592,0.888819 z m -0.92669,-0.278839 c 0.0793,-0.26427 -0.0706,-0.54603 -0.33483,-0.625546 -0.26421,-0.07957 -0.54651,0.07219 -0.62602,0.336352 -0.0793,0.26427 0.0727,0.544945 0.33683,0.624455 0.26422,0.07957 0.54449,-0.07109 0.62402,-0.335261 z m -7.05965,1.07555 c -0.0322,-0.18841 -0.0495,-0.347412 -0.0273,-0.421264 0.0689,-0.228575 -0.16269,-0.502629 -0.51433,-0.608454 -0.35163,-0.105856 -0.76803,-0.836176 -0.92678,-1.622998 -0.2419,-1.198938 -0.1642,-1.462403 0.48017,-1.634654 0.43588,-0.116544 0.73912,-0.59518 0.70135,-1.104248 -0.0586,-0.789739 -0.45649,-0.808074 -3.30358,-0.154558 -1.78046,0.408679 -3.93602,0.8972 -4.78913,1.086131 -1.80864,0.40055 -2.21212,1.775344 -0.60941,2.076515 1.62106,0.304578 1.74353,2.151523 0.41255,4.467922 z m -0.57812,-7.652861 c 0.10401,-0.162234 -0.0263,-0.320279 -0.33396,-0.560944 -0.44419,-0.347464 -2.39903,-0.154685 -5.26329,0.518545 -4.47364,1.051553 -5.20365,1.440162 -4.40391,2.343019 0.41813,0.47204 6.43786,-0.68224 8.93025,-1.712158 0.62836,-0.25963 0.9669,-0.426207 1.07093,-0.588411 z m -2.02259,6.445272 c -0.0695,0.365985 -0.40491,0.550875 -1.18431,0.84719 -1.75228,0.666142 -2.16125,0.55211 -2.64228,-0.737617 -0.52718,-1.413532 -0.4114,-1.64265 1.07718,-2.133819 1.72703,-0.569812 2.22484,-0.360616 2.6244,1.106356 0.11261,0.413404 0.16664,0.698288 0.12498,0.917875 z m 1.22574,-9.090604 c 0.0423,-0.146417 0.0101,-0.301004 -0.0805,-0.46943 -0.29988,-0.560364 -1.16197,-0.560801 -3.66719,0.0018 -1.80165,0.404589 -4.01413,0.975733 -4.91659,1.267843 -1.2041,0.389744 -1.54162,0.715055 -1.26755,1.225019 0.27404,0.509993 1.33397,0.498667 3.98288,-0.04391 4.19541,-0.859348 5.7657,-1.346707 5.94895,-1.981324 z m 3.65433,-14.601126 c -0.35895,0.87464 -1.46105,1.3231 -2.54923,0.8207 -0.80801,-0.37306 -1.06109,-0.87386 -0.89961,-1.78072 0.12354,-0.69394 0.42528,-1.36967 0.67014,-1.50132 0.87315,-0.46921 2.65615,0.44303 2.86211,1.46399 0.074,0.36681 0.0361,0.70579 -0.0834,0.99736 z m -4.32986,12.053278 c 0.36428,-1.201749 -0.60163,-1.247944 -5.08051,-0.240683 -2.70324,0.607922 -4.64838,1.325379 -4.68254,1.727627 -0.0321,0.378497 0.11825,0.775008 0.33415,0.880947 0.72194,0.354135 9.25318,-1.788156 9.4289,-2.367871 z m 3.25135,-12.542058 c 0.11904,-0.39632 -0.10722,-0.81773 -0.50349,-0.937 -0.39632,-0.11905 -0.81927,0.10672 -0.93852,0.50306 -0.11904,0.39633 0.10876,0.81818 0.50508,0.93743 0.39633,0.11903 0.81773,-0.1072 0.937,-0.50349 z m -7.28273,3.3083 c -1.05537,3.50697 -5.64932,3.7875 -7.07049,0.43173 -0.8225,-1.94209 0.11498,-4.33014 1.98834,-5.06579 0.86091,-0.33809 2.04632,-0.46927 2.63555,-0.29196 0.58917,0.17757 1.50691,0.94143 2.03825,1.69851 0.74515,1.0617 0.83817,1.79924 0.40835,3.22751 z m -1.17358,0.11403 c 0.0711,-0.18795 0.12986,-0.39429 0.174,-0.6163 0.20169,-1.02582 -0.042,-1.859 -0.75698,-2.59775 -0.94294,-0.97423 -1.20896,-1.04081 -2.55587,-0.64222 -2.60866,0.77199 -2.70195,4.38213 -0.13285,5.15529 1.61677,0.48661 2.77397,0.0167 3.27207,-1.29891 z m -0.32487,-0.32121 c -0.10028,0.40131 -0.35094,0.7141 -0.78479,0.8303 -0.3212,0.0859 -0.41282,-0.3664 -0.21104,-1.03687 0.26026,-0.86497 0.0406,-1.41396 -0.80796,-2.01215 -0.89048,-0.62779 -0.96596,-0.83641 -0.31785,-0.88451 1.38582,-0.10286 2.42258,1.89935 2.12164,3.10324 z m -8.1539,-16.46023 c -0.0425,0.14176 -0.74793,0.85234 -1.56893,1.57955 l -1.49339,1.32296 -1.56846,-1.62823 c -1.51717,-1.57579 -1.54022,-1.70124 -0.74392,-3.89559 0.45259,-1.24719 0.88073,-2.25258 0.95122,-2.23265 0.36044,0.10229 4.48982,4.63351 4.42348,4.85396 z m -6.45545,-4.12644 c -0.47149,1.60499 -1.38229,3.08742 -2.70397,4.18684 -4.84462,4.03008 -12.41455,1.59772 -13.88281,-4.46061 -0.72029,-2.97199 0.21638,-6.55329 2.17343,-8.30771 4.20331,-3.76818 9.4778,-3.46393 12.9833,0.75012 1.78144,2.14147 2.21579,5.15635 1.43005,7.83136 z m -1.56947,-0.44359 c 1.01596,-3.4157 -0.81193,-7.37086 -4.71017,-8.54764 -2.76307,-0.83415 -5.18468,-0.19928 -6.97603,1.82795 -1.84162,2.08381 -2.11652,3.01373 -1.73315,5.86035 0.70689,5.24886 7.40667,7.57778 11.42791,3.97238 0.9992,-0.89587 1.65282,-1.97447 1.99146,-3.11304 z m -1.44962,-0.46503 c -0.37293,1.20959 -1.06648,2.30428 -1.94917,2.85998 -1.25034,0.78712 -1.27979,0.78435 -0.50533,-0.059 1.55519,-1.69362 1.91527,-4.1656 0.91868,-6.29842 -0.82727,-1.77044 -1.20043,-2.06781 -3.38027,-2.68978 -1.34805,-0.38488 -2.43385,-0.761 -2.4113,-0.83567 0.0225,-0.0747 0.97129,-0.13373 2.10844,-0.13235 2.47584,0.003 4.33138,1.27815 5.24575,3.60666 0.39846,1.01474 0.34612,2.33894 -0.0268,3.54855 z"
           style="fill:#000000;stroke-width:0.5016377" />
      </g>
    </g>
    <g
       id="g383"
       transform="matrix(1.3240563,0,0,1.3240565,-11.756817,13.836628)">
      <circle
         r="2.9059739"
         cy="15.820772"
         cx="24.290676"
         id="path1760-3-7"
         style="opacity:1;vector-effect:none;fill:#ffffff;fill-opacity:1;stroke:#000000;stroke-width:0.31159922;stroke-linecap:butt;stroke-linejoin:miter;stroke-miterlimit:4;stroke-dasharray:none;stroke-dashoffset:0;stroke-opacity:1" />
      <path
         inkscape:export-ydpi="300"
         inkscape:export-xdpi="300"
         inkscape:export-filename="1sword.png"
         sodipodi:nodetypes="cccccccsccssscssscsscscsscscccccccscscc"
         inkscape:connector-curvature="0"
         id="path1327"
         d="m 22.955075,17.371526 c 0.03685,-0.0091 0.06702,-0.02719 0.09377,-0.05619 0.03556,-0.03859 0.04582,-0.06185 0.04903,-0.111267 l 0.0028,-0.04328 0.250709,-0.250653 0.250707,-0.250653 0.06274,-5.02e-4 c 0.08226,-5.03e-4 0.114477,-0.01495 0.181922,-0.08061 l 0.04803,-0.04677 0.11105,0.110465 c 0.108933,0.108355 0.111538,0.110464 0.136755,0.110464 0.03549,0 0.05551,-0.02005 0.05551,-0.05556 0,-0.02537 -0.0018,-0.02755 -0.124401,-0.150661 l -0.1244,-0.124923 0.694148,-0.695057 c 0.782416,-0.783438 0.821412,-0.825699 0.988767,-1.071481 0.104214,-0.153054 0.21731,-0.351482 0.21731,-0.38128 0,-0.0098 -0.0048,-0.01849 -0.01222,-0.0225 -0.02594,-0.01391 -0.312856,0.156865 -0.50722,0.301841 -0.162718,0.12137 -0.224401,0.180047 -0.934768,0.889204 l -0.710463,0.70925 -0.118284,-0.118959 c -0.06506,-0.06543 -0.126483,-0.122533 -0.136501,-0.126903 -0.03885,-0.01693 -0.08196,0.01271 -0.08196,0.05633 0,0.02036 0.0082,0.03015 0.112296,0.134803 l 0.112296,0.112859 -0.0458,0.04536 c -0.03088,0.03057 -0.05212,0.05818 -0.06524,0.08474 -0.01811,0.03667 -0.01944,0.04364 -0.01928,0.101551 l 1.54e-4,0.06217 -0.246233,0.246178 -0.246234,0.246179 -0.03999,0.0021 c -0.04865,0.0026 -0.08662,0.01864 -0.121873,0.05115 -0.04341,0.04 -0.05637,0.07233 -0.05637,0.14059 0,0.0524 0.0016,0.06035 0.01721,0.08695 0.0095,0.0161 0.02585,0.03766 0.03643,0.04792 0.03961,0.03839 0.117208,0.05992 0.169582,0.04698 z"
         style="fill:#000000;stroke:#000000;stroke-width:0.16442627;stroke-miterlimit:4;stroke-dasharray:none;stroke-opacity:1" />
    </g>
    <g
       style="display:inline"
       id="g1033"
       transform="translate(19.247686,66.198426)">
      <rect
         y="-36.617252"
         x="21.17853"
         height="8.2894325"
         width="8.2894325"
         id="rect925-7-3-61-49-09"
         style="display:inline;opacity:1;vector-effect:none;fill:#ffffff;fill-opacity:1;stroke:#000000;stroke-width:0.71056741;stroke-linecap:butt;stroke-linejoin:miter;stroke-miterlimit:4;stroke-dasharray:none;stroke-dashoffset:0;stroke-opacity:1" />
      <rect
         y="-36.617252"
         x="31.46801"
         height="8.2894325"
         width="8.2894325"
         id="rect925-7-3-61-49-0-6"
         style="display:inline;opacity:1;vector-effect:none;fill:#ffffff;fill-opacity:1;stroke:#000000;stroke-width:0.71056741;stroke-linecap:butt;stroke-linejoin:miter;stroke-miterlimit:4;stroke-dasharray:none;stroke-dashoffset:0;stroke-opacity:1" />
      <rect
         y="-36.617252"
         x="41.757488"
         height="8.2894325"
         width="8.2894325"
         id="rect925-7-3-61-49-9-3"
         style="display:inline;opacity:1;vector-effect:none;fill:#ffffff;fill-opacity:1;stroke:#000000;stroke-width:0.71056741;stroke-linecap:butt;stroke-linejoin:miter;stroke-miterlimit:4;stroke-dasharray:none;stroke-dashoffset:0;stroke-opacity:1" />
      <rect
         y="-36.617252"
         x="52.046974"
         height="8.2894325"
         width="8.2894325"
         id="rect925-7-3-61-49-1-8"
         style="display:inline;opacity:1;vector-effect:none;fill:#ffffff;fill-opacity:1;stroke:#000000;stroke-width:0.71056741;stroke-linecap:butt;stroke-linejoin:miter;stroke-miterlimit:4;stroke-dasharray:none;stroke-dashoffset:0;stroke-opacity:1" />
      <rect
         y="-36.617252"
         x="62.336449"
         height="8.2894325"
         width="8.2894325"
         id="rect925-7-3-61-49-7-5"
         style="display:inline;opacity:1;vector-effect:none;fill:#ffffff;fill-opacity:1;stroke:#000000;stroke-width:0.71056741;stroke-linecap:butt;stroke-linejoin:miter;stroke-miterlimit:4;stroke-dasharray:none;stroke-dashoffset:0;stroke-opacity:1" />
    </g>
    <g
       id="g226"
       transform="translate(2.2151513,1.0583333)">
      <path
         inkscape:export-ydpi="300"
         inkscape:export-xdpi="300"
         inkscape:export-filename="1flame.png"
         sodipodi:nodetypes="ccccsccccscccccscscccsccccccc"
         inkscape:connector-curvature="0"
         id="path826-3-3"
         d="m -11.992062,47.899798 c -0.74036,-0.42454 -1.16313,-1.30599 -1.029019,-2.14547 0.0723,-0.45236 0.205399,-0.75728 0.51281,-1.17452 0.855259,-1.16082 1.01121,-1.47811 1.05736,-2.15132 0.0145,-0.21106 0.0365,-0.38375 0.049,-0.38375 0.0124,0 0.167669,0.10751 0.34492,0.23891 0.70314,0.52126 1.0979695,1.22932 1.1901695,2.13433 l 0.0354,0.34789 0.128,-0.13562 c 0.0704,-0.0746 0.15533,-0.22937 0.18875,-0.34397 l 0.0608,-0.20837 0.19096,0.39085 c 0.22784,0.46637 0.37001,0.95442 0.40995,1.40733 0.0722,0.81861 -0.34268,1.61611 -1.05246,2.0231 -0.2845895,0.16319 -0.3925495,0.19094 -0.2225405,0.0572 0.1735505,-0.13653 0.3687505,-0.53511 0.3972405,-0.81118 0.0384,-0.37175 -0.0755,-0.6917 -0.4090205,-1.14935 -0.334519,-0.45901 -0.487779,-0.77035 -0.53289,-1.08258 l -0.0324,-0.22468 -0.18305,0.17817 c -0.34858,0.3393 -0.59597,1.08145 -0.53423,1.6027 0.0148,0.1247 0.009,0.22675 -0.0126,0.22675 -0.089,0 -0.32551,-0.33503 -0.3523,-0.49904 -0.0158,-0.0965 -0.0345,-0.20683 -0.0417,-0.2452 -0.0169,-0.0902 -0.24643,0.40925 -0.30533,0.66445 -0.10999,0.4766 -0.0184,0.91088 0.26098,1.23724 0.0901,0.10532 0.15703,0.19129 0.14864,0.19105 -0.008,-1.8e-4 -0.12865,-0.0654 -0.26725,-0.14494 z"
         style="fill:#000000;stroke:#000000;stroke-width:0.30000001;stroke-miterlimit:4;stroke-dasharray:none;stroke-opacity:1" />
      <circle
         r="1.6063988"
         cy="45.131767"
         cx="-4.4457111"
         id="path3810-6"
         style="opacity:1;vector-effect:none;fill:#000000;fill-opacity:1;stroke:none;stroke-width:0.29209089;stroke-linecap:butt;stroke-linejoin:miter;stroke-miterlimit:4;stroke-dasharray:0.87627266, 0.29209089;stroke-dashoffset:0;stroke-opacity:1" />
    </g>
    <g
       id="g467"
       transform="translate(10.784234,-23.218246)">
      <path
         inkscape:connector-curvature="0"
         id="path1183-5"
         d="m 29.239768,66.535257 v 5.58932"
         style="fill:none;stroke:#000000;stroke-width:0.26458332px;stroke-linecap:butt;stroke-linejoin:miter;stroke-opacity:1" />
      <path
         inkscape:connector-curvature="0"
         id="path1183-2-3"
         d="m 55.671855,66.719005 v 5.58932"
         style="fill:none;stroke:#000000;stroke-width:0.26458332px;stroke-linecap:butt;stroke-linejoin:miter;stroke-opacity:1" />
      <text
         id="text1088-5"
         y="70.728912"
         x="5.2764497"
         style="font-style:normal;font-weight:normal;font-size:132.3289032px;line-height:1.25;font-family:sans-serif;letter-spacing:0px;word-spacing:0px;fill:#000000;fill-opacity:1;stroke:none;stroke-width:0.22054817"
         xml:space="preserve"><tspan
           style="font-size:2.64657831px;stroke-width:0.22054817"
           y="70.728912"
           x="5.2764497"
           id="tspan1086-6"
           sodipodi:role="line">1</tspan></text>
      <path
         sodipodi:nodetypes="cc"
         inkscape:connector-curvature="0"
         id="path1090-29"
         d="M 9.0237331,69.775979 H 23.023733"
         style="fill:none;stroke:#000000;stroke-width:0.2093017px;stroke-linecap:butt;stroke-linejoin:miter;stroke-opacity:1" />
      <text
         id="text1088-0-1"
         y="70.746353"
         x="23.41115"
         style="font-style:normal;font-weight:normal;font-size:132.3289032px;line-height:1.25;font-family:sans-serif;letter-spacing:0px;word-spacing:0px;fill:#000000;fill-opacity:1;stroke:none;stroke-width:0.22054817"
         xml:space="preserve"><tspan
           style="font-size:2.64657831px;stroke-width:0.22054817"
           y="70.746353"
           x="23.41115"
           id="tspan1086-9-27"
           sodipodi:role="line">5</tspan></text>
      <g
         transform="translate(-18.545377,28.100809)"
         id="g881">
        <g
           transform="matrix(0.35279357,0,0,0.35279357,27.664842,22.56444)"
           id="layer1-6-8-10-3-1"
           inkscape:label="Capa 1">
          <path
             sodipodi:nodetypes="cccssssssccscscccccsscscssccscsccscccccsscsssscs"
             inkscape:connector-curvature="0"
             id="path828-79-6-6-2"
             d="m 15.55133,51.922274 c -0.685146,-0.279517 -3.20637,-1.507059 -3.324727,-1.618753 -0.03438,-0.03244 -0.07718,-0.127286 -0.09554,-0.211722 -0.08948,-0.411375 -0.262648,-1.722668 -0.332832,-2.520399 -0.05025,-0.57112 -0.0596,-2.009074 -0.01364,-2.094972 0.04031,-0.07531 0.184184,-0.143729 0.562025,-0.267256 0.722856,-0.236322 1.733468,-0.499615 2.410752,-0.628071 0.275408,-0.05224 0.396016,-0.0603 0.707347,-0.04732 0.415417,0.01732 1.429283,0.142198 2.38188,0.293384 0.766175,0.121598 1.019543,0.178219 1.103853,0.246676 l 0.06543,0.05313 -0.0077,1.496494 c -0.0081,1.566318 -0.04308,2.635128 -0.0968,2.95367 -0.03024,0.179307 -0.04114,0.197626 -0.223796,0.376151 -0.196508,0.192058 -2.306176,1.852072 -2.49635,1.964276 -0.172205,0.101604 -0.398334,0.103271 -0.639907,0.0047 z m 0.681956,-0.312805 c 0.354128,-0.250525 1.358355,-1.012126 1.81541,-1.376797 0.537371,-0.428752 0.598921,-0.493547 0.633573,-0.666962 0.06192,-0.309915 0.154976,-1.794696 0.205292,-3.275805 0.02806,-0.82606 0.02665,-0.940151 -0.01209,-0.978893 -0.05115,-0.05115 -0.07672,-0.04286 -1.158797,0.375245 -1.269982,0.490712 -1.8449,0.758627 -1.912296,0.891141 -0.06033,0.118622 -0.03326,2.613007 0.04901,4.516299 0.02534,0.586113 0.04026,0.707347 0.08705,0.707347 0.01213,0 0.143904,-0.08621 0.292842,-0.191575 z m -0.622651,-1.013802 c -0.01218,-0.535923 -0.02681,-1.694557 -0.03252,-2.574744 -0.0081,-1.255585 -0.01836,-1.607633 -0.04745,-1.63421 -0.106289,-0.0971 -3.10159,-0.677511 -3.496415,-0.677511 h -0.135139 l 3.71e-4,0.281495 c 5.78e-4,0.445614 0.107808,1.632044 0.261587,2.894346 0.106753,0.876288 0.163675,1.197828 0.22476,1.269608 0.108101,0.127026 1.297194,0.741581 1.931131,0.998059 0.417345,0.168849 1.151926,0.414027 1.246224,0.415946 l 0.06959,0.0014 z m 0.778946,-4.666157 c 0.521312,-0.175316 1.631211,-0.587253 1.882404,-0.698649 0.123751,-0.05488 0.155359,-0.08002 0.123166,-0.09796 -0.08273,-0.04609 -1.835693,-0.312599 -2.781117,-0.422813 -0.349053,-0.04069 -0.466344,-0.04391 -0.635169,-0.01741 -0.320219,0.05026 -2.598014,0.698144 -2.656719,0.755658 -0.03178,0.03113 0.194652,0.08146 1.179323,0.262104 1.326108,0.243286 2.097867,0.369927 2.267379,0.372065 0.120438,0.0015 0.273269,-0.03615 0.620733,-0.153004 z"
             style="fill:#000000;stroke:#000000;stroke-width:0.229;stroke-miterlimit:4;stroke-dasharray:none;stroke-opacity:1" />
        </g>
        <path
           sodipodi:nodetypes="cccssssssccscscccccsscscssccscsccscccccsscsssscs"
           inkscape:connector-curvature="0"
           id="path828-6-0-0-7"
           d="m 36.103982,40.882284 c -0.241715,-0.09861 -1.131187,-0.531681 -1.172942,-0.571086 -0.01213,-0.01144 -0.02723,-0.0449 -0.03371,-0.07469 -0.03157,-0.14513 -0.09266,-0.607746 -0.117421,-0.88918 -0.01773,-0.201488 -0.02103,-0.708789 -0.0048,-0.739093 0.01422,-0.02657 0.06498,-0.05071 0.198279,-0.09429 0.255019,-0.08337 0.611556,-0.176261 0.850497,-0.22158 0.09716,-0.01843 0.139712,-0.02127 0.249548,-0.01669 0.146556,0.0061 0.504242,0.05017 0.840312,0.103504 0.270301,0.0429 0.359688,0.06288 0.389432,0.08703 l 0.02308,0.01874 -0.0027,0.527953 c -0.0029,0.552587 -0.0152,0.929656 -0.03415,1.042036 -0.01067,0.06326 -0.01451,0.06972 -0.07895,0.132704 -0.06933,0.06776 -0.813604,0.653399 -0.880697,0.692984 -0.06075,0.03584 -0.140529,0.03643 -0.225755,0.0017 z m 0.24059,-0.110356 c 0.124934,-0.08838 0.479219,-0.357071 0.640465,-0.485725 0.189581,-0.151261 0.211295,-0.17412 0.22352,-0.2353 0.02184,-0.109336 0.05468,-0.633157 0.07243,-1.155683 0.0099,-0.291428 0.0094,-0.331679 -0.0043,-0.345347 -0.01805,-0.01805 -0.02707,-0.01512 -0.408817,0.132384 -0.448041,0.17312 -0.650868,0.267639 -0.674645,0.314389 -0.02128,0.04185 -0.01173,0.921852 0.01729,1.593321 0.0089,0.206777 0.0142,0.249548 0.03071,0.249548 0.0043,0 0.05077,-0.03041 0.103313,-0.06759 z m -0.219668,-0.357663 c -0.0043,-0.18907 -0.0095,-0.597828 -0.01147,-0.908353 -0.0029,-0.442962 -0.0065,-0.567162 -0.01674,-0.576538 -0.0375,-0.03426 -1.094221,-0.239022 -1.233513,-0.239022 h -0.04768 l 1.31e-4,0.09931 c 2.04e-4,0.157209 0.03803,0.575774 0.09229,1.021106 0.03766,0.309149 0.05774,0.422586 0.07929,0.44791 0.03814,0.04481 0.457641,0.261625 0.68129,0.352109 0.147237,0.05957 0.406392,0.146066 0.43966,0.146743 l 0.02455,4.94e-4 z m 0.274808,-1.64619 c 0.183915,-0.06185 0.57548,-0.207179 0.6641,-0.246479 0.04366,-0.01936 0.05481,-0.02823 0.04345,-0.03456 -0.02919,-0.01626 -0.647621,-0.110283 -0.98116,-0.149166 -0.123144,-0.01436 -0.164524,-0.01549 -0.224084,-0.0061 -0.112971,0.01773 -0.916562,0.246301 -0.937273,0.266591 -0.01121,0.01098 0.06867,0.02874 0.416057,0.09247 0.467843,0.08583 0.740114,0.130508 0.799917,0.131262 0.04249,5.29e-4 0.09641,-0.01275 0.218991,-0.05398 z"
           style="fill:#000000;stroke:#000000;stroke-width:0.08078972;stroke-miterlimit:4;stroke-dasharray:none;stroke-opacity:1" />
      </g>
    </g>
  </g>
</svg>
