<?xml version="1.0" encoding="UTF-8" standalone="no"?>
<!-- Created with Inkscape (http://www.inkscape.org/) -->

<svg
   xmlns:dc="http://purl.org/dc/elements/1.1/"
   xmlns:cc="http://creativecommons.org/ns#"
   xmlns:rdf="http://www.w3.org/1999/02/22-rdf-syntax-ns#"
   xmlns:svg="http://www.w3.org/2000/svg"
   xmlns="http://www.w3.org/2000/svg"
   xmlns:sodipodi="http://sodipodi.sourceforge.net/DTD/sodipodi-0.dtd"
   xmlns:inkscape="http://www.inkscape.org/namespaces/inkscape"
   width="120mm"
   height="23.016712mm"
   viewBox="0 0 120 23.016712"
   version="1.1"
   id="svg1100"
   inkscape:version="0.92.5 (2060ec1f9f, 2020-04-08)"
   sodipodi:docname="SmallSRM.svg">
  <defs
     id="defs1094" />
  <sodipodi:namedview
     id="base"
     pagecolor="#ffffff"
     bordercolor="#666666"
     borderopacity="1.0"
     inkscape:pageopacity="0.0"
     inkscape:pageshadow="2"
     inkscape:zoom="1.0000001"
     inkscape:cx="-74.259655"
     inkscape:cy="48.744601"
     inkscape:document-units="mm"
     inkscape:current-layer="layer1"
     showgrid="false"
     inkscape:window-width="1848"
     inkscape:window-height="1016"
     inkscape:window-x="72"
     inkscape:window-y="27"
     inkscape:window-maximized="1"
     fit-margin-top="0"
     fit-margin-left="0"
     fit-margin-right="0"
     fit-margin-bottom="0"
     inkscape:snap-global="true"
     inkscape:snap-bbox="true" />
  <metadata
     id="metadata1097">
    <rdf:RDF>
      <cc:Work
         rdf:about="">
        <dc:format>image/svg+xml</dc:format>
        <dc:type
           rdf:resource="http://purl.org/dc/dcmitype/StillImage" />
        <dc:title />
      </cc:Work>
    </rdf:RDF>
  </metadata>
  <g
     inkscape:groupmode="layer"
     id="layer3"
     inkscape:label="Background"
     style="display:inline"
     sodipodi:insensitive="true" />
  <g
     inkscape:groupmode="layer"
     id="layer2"
     inkscape:label="Guias"
     style="display:none"
     transform="translate(0,0.2323513)">
    <g
       id="g1399"
       transform="translate(-6.7978492)">
      <rect
         y="11.402682"
         x="50.431446"
         height="11"
         width="74.99527"
         id="rect1878-3"
         style="display:inline;opacity:1;vector-effect:none;fill:#ffe680;fill-opacity:1;stroke:none;stroke-width:0.47467926;stroke-linecap:butt;stroke-linejoin:miter;stroke-miterlimit:4;stroke-dasharray:none;stroke-dashoffset:0;stroke-opacity:1" />
      <rect
         y="0.30218902"
         x="8.1689825"
         height="22.148087"
         width="42.262463"
         id="rect1868"
         style="display:inline;opacity:1;vector-effect:none;fill:#decd87;fill-opacity:1;stroke:none;stroke-width:0.39467782;stroke-linecap:butt;stroke-linejoin:miter;stroke-miterlimit:4;stroke-dasharray:none;stroke-dashoffset:0;stroke-opacity:1" />
      <rect
         y="0.39782956"
         x="50.431446"
         height="11"
         width="74.99527"
         id="rect1878"
         style="display:inline;opacity:1;vector-effect:none;fill:#deaa87;fill-opacity:1;stroke:none;stroke-width:0.47467929;stroke-linecap:butt;stroke-linejoin:miter;stroke-miterlimit:4;stroke-dasharray:none;stroke-dashoffset:0;stroke-opacity:1" />
      <rect
         y="12.891373"
         x="76.863533"
         height="8.0226164"
         width="22"
         id="rect1878-7-3"
         style="display:inline;opacity:1;vector-effect:none;fill:#eeffaa;fill-opacity:1;stroke:none;stroke-width:0.19344766;stroke-linecap:butt;stroke-linejoin:miter;stroke-miterlimit:4;stroke-dasharray:none;stroke-dashoffset:0;stroke-opacity:1" />
      <rect
         y="12.891415"
         x="103.2956"
         height="8.0226164"
         width="22"
         id="rect1878-7-56"
         style="display:inline;opacity:1;vector-effect:none;fill:#ccffaa;fill-opacity:1;stroke:none;stroke-width:0.21753596;stroke-linecap:butt;stroke-linejoin:miter;stroke-miterlimit:4;stroke-dasharray:none;stroke-dashoffset:0;stroke-opacity:1" />
      <rect
         y="12.680782"
         x="50.431446"
         height="8.443799"
         width="22"
         id="rect1878-7"
         style="display:inline;opacity:1;vector-effect:none;fill:#ff9955;fill-opacity:1;stroke:none;stroke-width:0.22317314;stroke-linecap:butt;stroke-linejoin:miter;stroke-miterlimit:4;stroke-dasharray:none;stroke-dashoffset:0;stroke-opacity:1" />
      <rect
         y="13.158642"
         x="77.363533"
         height="7.4880772"
         width="21"
         id="rect1878-7-2-7"
         style="display:inline;opacity:1;vector-effect:none;fill:#ddff55;fill-opacity:1;stroke:none;stroke-width:0.20533194;stroke-linecap:butt;stroke-linejoin:miter;stroke-miterlimit:4;stroke-dasharray:none;stroke-dashoffset:0;stroke-opacity:1" />
      <rect
         y="13.158684"
         x="103.7956"
         height="7.4880772"
         width="21"
         id="rect1878-7-2-7-0"
         style="display:inline;opacity:1;vector-effect:none;fill:#66ff00;fill-opacity:1;stroke:none;stroke-width:0.20533194;stroke-linecap:butt;stroke-linejoin:miter;stroke-miterlimit:4;stroke-dasharray:none;stroke-dashoffset:0;stroke-opacity:1" />
      <rect
         y="13.158642"
         x="50.931446"
         height="7.4880772"
         width="21"
         id="rect1878-7-2"
         style="display:inline;opacity:1;vector-effect:none;fill:#d45500;fill-opacity:1;stroke:none;stroke-width:0.20533194;stroke-linecap:butt;stroke-linejoin:miter;stroke-miterlimit:4;stroke-dasharray:none;stroke-dashoffset:0;stroke-opacity:1" />
    </g>
  </g>
  <g
     inkscape:label="Capa 1"
     inkscape:groupmode="layer"
     id="layer1"
     transform="translate(28.060163,-27.595709)"
     style="display:inline">
    <g
       transform="matrix(0.35279357,0,0,0.35279357,27.66483,22.56444)"
       id="layer1-6-3-2"
       inkscape:label="Capa 1" />
    <rect
       style="display:inline;opacity:1;fill:#ffffff;fill-opacity:1;stroke:none;stroke-width:0.71100003;stroke-miterlimit:4;stroke-dasharray:none;stroke-dashoffset:0;stroke-opacity:1"
       id="rect1126"
       width="119.99902"
       height="23.017704"
       x="-28.060163"
       y="27.595709" />
    <g
       style="display:inline"
       id="g9128"
       transform="translate(-107.62953,-199.34653)">
      <path
         inkscape:connector-curvature="0"
         id="path9084"
         d="M 83.843672,227.37459 H 195.29507"
         style="fill:none;stroke:#000000;stroke-width:0.40000001;stroke-linecap:butt;stroke-linejoin:miter;stroke-miterlimit:4;stroke-dasharray:none;stroke-opacity:1" />
      <path
         inkscape:connector-curvature="0"
         id="path9084-3"
         d="M 83.843669,249.75895 H 195.29507"
         style="fill:none;stroke:#000000;stroke-width:0.40000001;stroke-linecap:butt;stroke-linejoin:miter;stroke-miterlimit:4;stroke-dasharray:none;stroke-opacity:1" />
    </g>
    <g
       id="g2751"
       transform="matrix(1.3240558,0,0,1.3240565,-26.069795,15.084269)">
      <circle
         r="2.9059739"
         cy="14.878485"
         cx="35.100636"
         id="path1760-3-3-8"
         style="opacity:1;vector-effect:none;fill:#ffffff;fill-opacity:1;stroke:#000000;stroke-width:0.31159922;stroke-linecap:butt;stroke-linejoin:miter;stroke-miterlimit:4;stroke-dasharray:none;stroke-dashoffset:0;stroke-opacity:1" />
      <path
         inkscape:export-ydpi="300"
         inkscape:export-xdpi="300"
         inkscape:export-filename="1missile.png"
         id="path974-3-6-6"
         d="m 36.329334,13.434034 c -0.18505,0.0038 -0.351646,0.03974 -0.481696,0.105405 -0.04656,0.02355 -0.139878,0.09825 -0.216179,0.172785 -0.07364,0.07195 -0.141366,0.135122 -0.141772,0.140353 l -2.76e-4,-2.83e-4 c 0,0 -3.07e-4,4.91e-4 -3.07e-4,4.91e-4 -4.31e-4,3.75e-4 -0.261698,0.261429 -0.470973,0.470704 -0.01281,-0.0054 -0.09448,-0.01043 -0.202096,-0.01043 h -0.211684 l -0.371766,0.372902 c -0.204528,0.205156 -0.371767,0.380818 -0.371767,0.390376 0,0.0095 0.01066,0.02823 0.02401,0.04142 0.01879,0.01879 0.05884,0.02416 0.180387,0.02416 h 0.149941 c -0.04687,0.04932 -0.130772,0.1347 -0.130772,0.137822 0,0.0061 0.02953,0.04027 0.07019,0.08456 -0.0976,0.01097 -0.217491,0.06582 -0.345279,0.161785 -0.107767,0.08092 -0.126676,0.114227 -0.08821,0.156708 0.02117,0.0234 0.03951,0.02738 0.09357,0.02002 0.03697,-0.0054 0.06704,-0.0054 0.06704,0 0,0.0054 -0.03145,0.05776 -0.06988,0.117248 -0.08021,0.123953 -0.111196,0.191495 -0.138389,0.299892 -0.02777,0.110513 -0.02577,0.141603 0.01043,0.177856 0.02731,0.02731 0.04296,0.03068 0.103449,0.02171 0.115323,-0.01711 0.231091,-0.06405 0.35993,-0.146 0.06635,-0.04227 0.124566,-0.07663 0.129368,-0.07663 0.0046,0 0.0046,0.03015 -4.83e-4,0.06704 -0.0069,0.05408 -0.0038,0.07241 0.01971,0.09358 0.0425,0.03851 0.07602,0.01987 0.157007,-0.08795 0.09574,-0.127482 0.15047,-0.247752 0.161493,-0.344988 0.04403,0.04035 0.07772,0.06965 0.08395,0.06965 0.0038,0 0.08145,-0.07464 0.138397,-0.12824 v 0.06482 c 0,0.121689 0.0054,0.161617 0.02416,0.180387 0.01327,0.01327 0.03183,0.02416 0.04142,0.02416 0.0095,0 0.185205,-0.167239 0.390369,-0.371766 l 0.373185,-0.37206 v -0.211392 c 0,-0.04963 -0.0015,-0.09122 -0.0023,-0.127397 l 0.463088,-0.463088 0.13022,-0.129376 c 0.207794,-0.206706 0.283383,-0.392838 0.289182,-0.71028 0.0038,-0.219846 0.0038,-0.220214 -0.216187,-0.216179 z"
         style="fill:#000000;stroke:#000000;stroke-width:0.06394002;stroke-miterlimit:4;stroke-dasharray:none;stroke-opacity:1"
         inkscape:connector-curvature="0" />
    </g>
    <g
       style="display:inline"
       id="g1033"
       transform="translate(19.247686,66.198426)">
      <rect
         y="-36.617252"
         x="21.17853"
         height="8.2894325"
         width="8.2894325"
         id="rect925-7-3-61-49-09"
         style="display:inline;opacity:1;vector-effect:none;fill:#ffffff;fill-opacity:1;stroke:#000000;stroke-width:0.71056741;stroke-linecap:butt;stroke-linejoin:miter;stroke-miterlimit:4;stroke-dasharray:none;stroke-dashoffset:0;stroke-opacity:1" />
      <rect
         y="-36.617252"
         x="31.46801"
         height="8.2894325"
         width="8.2894325"
         id="rect925-7-3-61-49-0-6"
         style="display:inline;opacity:1;vector-effect:none;fill:#ffffff;fill-opacity:1;stroke:#000000;stroke-width:0.71056741;stroke-linecap:butt;stroke-linejoin:miter;stroke-miterlimit:4;stroke-dasharray:none;stroke-dashoffset:0;stroke-opacity:1" />
      <rect
         y="-36.617252"
         x="41.757488"
         height="8.2894325"
         width="8.2894325"
         id="rect925-7-3-61-49-9-3"
         style="display:inline;opacity:1;vector-effect:none;fill:#ffffff;fill-opacity:1;stroke:#000000;stroke-width:0.71056741;stroke-linecap:butt;stroke-linejoin:miter;stroke-miterlimit:4;stroke-dasharray:none;stroke-dashoffset:0;stroke-opacity:1" />
      <rect
         y="-36.617252"
         x="52.046974"
         height="8.2894325"
         width="8.2894325"
         id="rect925-7-3-61-49-1-8"
         style="display:inline;opacity:1;vector-effect:none;fill:#ffffff;fill-opacity:1;stroke:#000000;stroke-width:0.71056741;stroke-linecap:butt;stroke-linejoin:miter;stroke-miterlimit:4;stroke-dasharray:none;stroke-dashoffset:0;stroke-opacity:1" />
      <rect
         y="-36.617252"
         x="62.336449"
         height="8.2894325"
         width="8.2894325"
         id="rect925-7-3-61-49-7-5"
         style="display:inline;opacity:1;vector-effect:none;fill:#ffffff;fill-opacity:1;stroke:#000000;stroke-width:0.71056741;stroke-linecap:butt;stroke-linejoin:miter;stroke-miterlimit:4;stroke-dasharray:none;stroke-dashoffset:0;stroke-opacity:1" />
    </g>
    <g
       id="g1293"
       transform="translate(-8.4484131,-2.3211824)">
      <path
         sodipodi:nodetypes="cccccsccsccccccc"
         inkscape:connector-curvature="0"
         id="path1052"
         d="m -1.0041197,41.695153 0.04441,-1.656389 -0.355275,0.07674 -0.355275,0.07675 -0.06439,-0.293483 c -0.0354,-0.161424 -0.05588,-0.319464 -0.0454,-0.35123 0.02532,-0.07734 9.8012378,-2.120337 9.8517658,-2.058811 0.05697,0.06953 0.146865,0.623707 0.103914,0.641479 -0.01978,0.0089 -1.207982,0.258977 -2.640257,0.557206 l -2.6041698,0.542264 2.2742318,-0.04282 1.870457,-0.02116 0.314727,0.295757 0.314746,0.295757 0.04183,1.933525 z"
         style="fill:#000000;stroke-width:0.07218546" />
      <rect
         transform="rotate(-12.086967)"
         y="34.032845"
         x="-9.268405"
         height="4.1190252"
         width="7.7788725"
         id="rect973"
         style="opacity:1;vector-effect:none;fill:#000000;fill-opacity:1;stroke:none;stroke-width:0.26499999;stroke-linecap:butt;stroke-linejoin:miter;stroke-miterlimit:4;stroke-dasharray:0.52999997, 0.26499998;stroke-dashoffset:0;stroke-opacity:1" />
      <path
         inkscape:export-ydpi="300"
         inkscape:export-xdpi="300"
         inkscape:export-filename="1missile.png"
         id="path974-3-6-3"
         d="M 7.3558045,36.016944 C 7.194721,35.925788 7.0331083,35.871681 6.8877567,35.861791 c -0.052061,-0.0035 -0.1704316,0.01312 -0.2740848,0.03828 -0.1000463,0.0243 -0.1905264,0.04407 -0.193545,0.04836 l -9.29e-5,-3.85e-4 c 0,0 -5.143e-4,2.68e-4 -5.143e-4,2.68e-4 -5.633e-4,1.02e-4 -0.3584649,0.09129 -0.6452325,0.164478 -0.00826,-0.01118 -0.075931,-0.05718 -0.1684818,-0.112093 l -0.1820502,-0.10802 -0.5100065,0.13099 c -0.2805833,0.07207 -0.5140473,0.137798 -0.5189246,0.146018 -0.00485,0.0082 -0.00524,0.02971 -4.906e-4,0.04787 0.00657,0.02574 0.038275,0.0508 0.1428056,0.112823 l 0.1289497,0.07652 c -0.065476,0.0185 -0.1812002,0.04911 -0.1827933,0.0518 -0.00312,0.0053 0.00485,0.0497 0.017215,0.108539 -0.089535,-0.04037 -0.2206301,-0.05438 -0.3794993,-0.03705 -0.1339723,0.0146 -0.16723,0.03359 -0.1558267,0.08976 0.00627,0.03093 0.020007,0.04371 0.070256,0.06496 0.034549,0.01422 0.06041,0.02957 0.057655,0.0342 -0.00276,0.0046 -0.056521,0.03362 -0.1199267,0.06517 -0.1322329,0.06567 -0.1933462,0.107945 -0.2720458,0.187291 -0.080275,0.08087 -0.094421,0.108629 -0.081788,0.158279 0.00955,0.03742 0.02129,0.04831 0.077888,0.07146 0.1079097,0.04413 0.2314229,0.06284 0.3840434,0.05811 0.078631,-0.0025 0.1462311,-0.0023 0.1503609,1.07e-4 0.00395,0.0024 -0.011427,0.02828 -0.034627,0.05741 -0.03353,0.04299 -0.040219,0.06034 -0.030801,0.09054 0.016899,0.05481 0.055239,0.05588 0.1799063,0.0045 0.1473897,-0.06079 0.2558292,-0.136285 0.3149271,-0.214284 0.017276,0.05717 0.031298,0.09955 0.036656,0.102739 0.00326,0.002 0.1081346,-0.02262 0.1844613,-0.03967 l -0.033077,0.05575 c -0.062096,0.104652 -0.077827,0.141747 -0.071271,0.167462 0.00464,0.01818 0.015046,0.03702 0.023293,0.04192 0.00817,0.0049 0.2446164,-0.04931 0.5254261,-0.120521 l 0.5107965,-0.129563 0.1078698,-0.181798 c 0.025325,-0.04268 0.045258,-0.07921 0.063031,-0.110735 l 0.6345651,-0.161952 0.178008,-0.04481 c 0.2841831,-0.07174 0.4441704,-0.193237 0.6111435,-0.46328 0.1154519,-0.187129 0.1156404,-0.187446 -0.075609,-0.296232 z"
         style="fill:#000000;stroke:#000000;stroke-width:0.06394002;stroke-miterlimit:4;stroke-dasharray:none;stroke-opacity:1"
         inkscape:connector-curvature="0" />
      <path
         inkscape:export-ydpi="300"
         inkscape:export-xdpi="300"
         inkscape:export-filename="1missile.png"
         id="path974-3-6-3-7"
         d="m 7.0259034,34.45522 c -0.161084,-0.09116 -0.322697,-0.145263 -0.468048,-0.155153 -0.05206,-0.0035 -0.170432,0.01312 -0.274085,0.03828 -0.100046,0.0243 -0.190526,0.04407 -0.193545,0.04836 l -9.3e-5,-3.85e-4 c 0,0 -5.02e-4,2.68e-4 -5.02e-4,2.68e-4 -5.83e-4,1.02e-4 -0.358477,0.09129 -0.645245,0.164478 -0.0083,-0.01118 -0.07593,-0.05718 -0.168481,-0.112093 l -0.182051,-0.10802 -0.510006,0.13099 c -0.280583,0.07207 -0.514047,0.137798 -0.518925,0.146018 -0.0049,0.0082 -0.0052,0.02971 -4.89e-4,0.04787 0.0066,0.02574 0.03827,0.0508 0.142805,0.112823 l 0.12895,0.07652 c -0.06548,0.0185 -0.181201,0.04911 -0.182794,0.0518 -0.0031,0.0053 0.0048,0.0497 0.01722,0.108539 -0.08954,-0.04037 -0.22063,-0.05438 -0.3795,-0.03705 -0.133972,0.0146 -0.16723,0.03359 -0.155826,0.08976 0.0063,0.03093 0.02001,0.04371 0.07026,0.06496 0.03455,0.01422 0.06041,0.02957 0.05766,0.0342 -0.0028,0.0046 -0.05652,0.03362 -0.119927,0.06517 -0.132233,0.06567 -0.193346,0.107945 -0.272046,0.187291 -0.08028,0.08087 -0.09442,0.108629 -0.08179,0.158279 0.0095,0.03742 0.02129,0.04831 0.07789,0.07146 0.10791,0.04413 0.231423,0.06284 0.384044,0.05811 0.07863,-0.0025 0.146231,-0.0023 0.15036,1.07e-4 0.0039,0.0024 -0.01143,0.02828 -0.03463,0.05741 -0.03353,0.04299 -0.04022,0.06034 -0.0308,0.09054 0.0169,0.05481 0.05524,0.05588 0.179906,0.0045 0.14739,-0.06079 0.255829,-0.136285 0.314927,-0.214284 0.01728,0.05717 0.0313,0.09955 0.03666,0.102739 0.0033,0.002 0.108135,-0.02262 0.184461,-0.03967 l -0.03308,0.05575 c -0.0621,0.104652 -0.07783,0.141747 -0.07127,0.167462 0.0046,0.01818 0.01505,0.03702 0.02329,0.04192 0.0082,0.0049 0.244617,-0.04931 0.525426,-0.120521 l 0.510797,-0.129563 0.10787,-0.181798 c 0.02532,-0.04268 0.04526,-0.07921 0.06303,-0.110735 l 0.634565,-0.161952 0.178008,-0.04481 c 0.284183,-0.07174 0.44417,-0.193237 0.611143,-0.46328 0.115452,-0.187129 0.115641,-0.187446 -0.07561,-0.296232 z"
         style="fill:#000000;stroke:#000000;stroke-width:0.06394002;stroke-miterlimit:4;stroke-dasharray:none;stroke-opacity:1"
         inkscape:connector-curvature="0" />
    </g>
    <g
       id="g206"
       transform="translate(11.379817,-43.932295)">
      <path
         inkscape:connector-curvature="0"
         id="path1183"
         d="M 28.702261,87.34118 V 92.9305"
         style="fill:none;stroke:#000000;stroke-width:0.26458332px;stroke-linecap:butt;stroke-linejoin:miter;stroke-opacity:1" />
      <text
         id="text1088"
         y="91.534836"
         x="4.7389417"
         style="font-style:normal;font-weight:normal;font-size:132.3289032px;line-height:1.25;font-family:sans-serif;letter-spacing:0px;word-spacing:0px;fill:#000000;fill-opacity:1;stroke:none;stroke-width:0.22054817"
         xml:space="preserve"><tspan
           style="font-size:2.64657831px;stroke-width:0.22054817"
           y="91.534836"
           x="4.7389417"
           id="tspan1086"
           sodipodi:role="line">1</tspan></text>
      <path
         sodipodi:nodetypes="cc"
         inkscape:connector-curvature="0"
         id="path1090"
         d="M 8.4862253,90.581902 H 22.486225"
         style="fill:none;stroke:#000000;stroke-width:0.2093017px;stroke-linecap:butt;stroke-linejoin:miter;stroke-opacity:1" />
      <text
         id="text1088-0"
         y="91.552277"
         x="22.873642"
         style="font-style:normal;font-weight:normal;font-size:132.3289032px;line-height:1.25;font-family:sans-serif;letter-spacing:0px;word-spacing:0px;fill:#000000;fill-opacity:1;stroke:none;stroke-width:0.22054817"
         xml:space="preserve"><tspan
           style="font-size:2.64657831px;stroke-width:0.22054817"
           y="91.552277"
           x="22.873642"
           id="tspan1086-9"
           sodipodi:role="line">10</tspan></text>
      <g
         inkscape:label="Capa 1"
         id="layer1-6-8-10-3-1"
         transform="matrix(0.35279356,0,0,0.35279356,10.058323,71.471172)">
        <path
           style="fill:#000000;stroke:#000000;stroke-width:0.229;stroke-miterlimit:4;stroke-dasharray:none;stroke-opacity:1"
           d="m 15.55133,51.922274 c -0.685146,-0.279517 -3.20637,-1.507059 -3.324727,-1.618753 -0.03438,-0.03244 -0.07718,-0.127286 -0.09554,-0.211722 -0.08948,-0.411375 -0.262648,-1.722668 -0.332832,-2.520399 -0.05025,-0.57112 -0.0596,-2.009074 -0.01364,-2.094972 0.04031,-0.07531 0.184184,-0.143729 0.562025,-0.267256 0.722856,-0.236322 1.733468,-0.499615 2.410752,-0.628071 0.275408,-0.05224 0.396016,-0.0603 0.707347,-0.04732 0.415417,0.01732 1.429283,0.142198 2.38188,0.293384 0.766175,0.121598 1.019543,0.178219 1.103853,0.246676 l 0.06543,0.05313 -0.0077,1.496494 c -0.0081,1.566318 -0.04308,2.635128 -0.0968,2.95367 -0.03024,0.179307 -0.04114,0.197626 -0.223796,0.376151 -0.196508,0.192058 -2.306176,1.852072 -2.49635,1.964276 -0.172205,0.101604 -0.398334,0.103271 -0.639907,0.0047 z m 0.681956,-0.312805 c 0.354128,-0.250525 1.358355,-1.012126 1.81541,-1.376797 0.537371,-0.428752 0.598921,-0.493547 0.633573,-0.666962 0.06192,-0.309915 0.154976,-1.794696 0.205292,-3.275805 0.02806,-0.82606 0.02665,-0.940151 -0.01209,-0.978893 -0.05115,-0.05115 -0.07672,-0.04286 -1.158797,0.375245 -1.269982,0.490712 -1.8449,0.758627 -1.912296,0.891141 -0.06033,0.118622 -0.03326,2.613007 0.04901,4.516299 0.02534,0.586113 0.04026,0.707347 0.08705,0.707347 0.01213,0 0.143904,-0.08621 0.292842,-0.191575 z m -0.622651,-1.013802 c -0.01218,-0.535923 -0.02681,-1.694557 -0.03252,-2.574744 -0.0081,-1.255585 -0.01836,-1.607633 -0.04745,-1.63421 -0.106289,-0.0971 -3.10159,-0.677511 -3.496415,-0.677511 h -0.135139 l 3.71e-4,0.281495 c 5.78e-4,0.445614 0.107808,1.632044 0.261587,2.894346 0.106753,0.876288 0.163675,1.197828 0.22476,1.269608 0.108101,0.127026 1.297194,0.741581 1.931131,0.998059 0.417345,0.168849 1.151926,0.414027 1.246224,0.415946 l 0.06959,0.0014 z m 0.778946,-4.666157 c 0.521312,-0.175316 1.631211,-0.587253 1.882404,-0.698649 0.123751,-0.05488 0.155359,-0.08002 0.123166,-0.09796 -0.08273,-0.04609 -1.835693,-0.312599 -2.781117,-0.422813 -0.349053,-0.04069 -0.466344,-0.04391 -0.635169,-0.01741 -0.320219,0.05026 -2.598014,0.698144 -2.656719,0.755658 -0.03178,0.03113 0.194652,0.08146 1.179323,0.262104 1.326108,0.243286 2.097867,0.369927 2.267379,0.372065 0.120438,0.0015 0.273269,-0.03615 0.620733,-0.153004 z"
           id="path828-79-6-6-2"
           inkscape:connector-curvature="0"
           sodipodi:nodetypes="cccssssssccscscccccsscscssccscsccscccccsscsssscs" />
      </g>
      <text
         id="text1088-1"
         y="91.552277"
         x="31.210363"
         style="font-style:normal;font-weight:normal;font-size:132.3289032px;line-height:1.25;font-family:sans-serif;letter-spacing:0px;word-spacing:0px;fill:#000000;fill-opacity:1;stroke:none;stroke-width:0.22054817"
         xml:space="preserve"><tspan
           style="font-size:2.64657831px;stroke-width:0.22054817"
           y="91.552277"
           x="31.210363"
           id="tspan1086-8"
           sodipodi:role="line">10</tspan></text>
      <text
         id="text1088-0-9"
         y="91.533539"
         x="49.20079"
         style="font-style:normal;font-weight:normal;font-size:132.3289032px;line-height:1.25;font-family:sans-serif;letter-spacing:0px;word-spacing:0px;fill:#000000;fill-opacity:1;stroke:none;stroke-width:0.22054817"
         xml:space="preserve"><tspan
           style="font-size:2.64657831px;stroke-width:0.22054817"
           y="91.533539"
           x="49.20079"
           id="tspan1086-9-2"
           sodipodi:role="line">20</tspan></text>
      <path
         sodipodi:nodetypes="cc"
         inkscape:connector-curvature="0"
         id="path1090-2"
         d="M 34.918305,90.581902 H 48.918306"
         style="fill:none;stroke:#000000;stroke-width:0.20910574;stroke-linecap:butt;stroke-linejoin:miter;stroke-miterlimit:4;stroke-dasharray:1.67284597, 0.20910574;stroke-dashoffset:0;stroke-opacity:1" />
      <g
         inkscape:label="Capa 1"
         id="layer1-6-8-10-3-1-9"
         transform="matrix(0.35279356,0,0,0.35279356,36.490404,71.471172)">
        <path
           style="fill:#000000;stroke:#000000;stroke-width:0.229;stroke-miterlimit:4;stroke-dasharray:none;stroke-opacity:1"
           d="m 15.55133,51.922274 c -0.685146,-0.279517 -3.20637,-1.507059 -3.324727,-1.618753 -0.03438,-0.03244 -0.07718,-0.127286 -0.09554,-0.211722 -0.08948,-0.411375 -0.262648,-1.722668 -0.332832,-2.520399 -0.05025,-0.57112 -0.0596,-2.009074 -0.01364,-2.094972 0.04031,-0.07531 0.184184,-0.143729 0.562025,-0.267256 0.722856,-0.236322 1.733468,-0.499615 2.410752,-0.628071 0.275408,-0.05224 0.396016,-0.0603 0.707347,-0.04732 0.415417,0.01732 1.429283,0.142198 2.38188,0.293384 0.766175,0.121598 1.019543,0.178219 1.103853,0.246676 l 0.06543,0.05313 -0.0077,1.496494 c -0.0081,1.566318 -0.04308,2.635128 -0.0968,2.95367 -0.03024,0.179307 -0.04114,0.197626 -0.223796,0.376151 -0.196508,0.192058 -2.306176,1.852072 -2.49635,1.964276 -0.172205,0.101604 -0.398334,0.103271 -0.639907,0.0047 z m 0.681956,-0.312805 c 0.354128,-0.250525 1.358355,-1.012126 1.81541,-1.376797 0.537371,-0.428752 0.598921,-0.493547 0.633573,-0.666962 0.06192,-0.309915 0.154976,-1.794696 0.205292,-3.275805 0.02806,-0.82606 0.02665,-0.940151 -0.01209,-0.978893 -0.05115,-0.05115 -0.07672,-0.04286 -1.158797,0.375245 -1.269982,0.490712 -1.8449,0.758627 -1.912296,0.891141 -0.06033,0.118622 -0.03326,2.613007 0.04901,4.516299 0.02534,0.586113 0.04026,0.707347 0.08705,0.707347 0.01213,0 0.143904,-0.08621 0.292842,-0.191575 z m -0.622651,-1.013802 c -0.01218,-0.535923 -0.02681,-1.694557 -0.03252,-2.574744 -0.0081,-1.255585 -0.01836,-1.607633 -0.04745,-1.63421 -0.106289,-0.0971 -3.10159,-0.677511 -3.496415,-0.677511 h -0.135139 l 3.71e-4,0.281495 c 5.78e-4,0.445614 0.107808,1.632044 0.261587,2.894346 0.106753,0.876288 0.163675,1.197828 0.22476,1.269608 0.108101,0.127026 1.297194,0.741581 1.931131,0.998059 0.417345,0.168849 1.151926,0.414027 1.246224,0.415946 l 0.06959,0.0014 z m 0.778946,-4.666157 c 0.521312,-0.175316 1.631211,-0.587253 1.882404,-0.698649 0.123751,-0.05488 0.155359,-0.08002 0.123166,-0.09796 -0.08273,-0.04609 -1.835693,-0.312599 -2.781117,-0.422813 -0.349053,-0.04069 -0.466344,-0.04391 -0.635169,-0.01741 -0.320219,0.05026 -2.598014,0.698144 -2.656719,0.755658 -0.03178,0.03113 0.194652,0.08146 1.179323,0.262104 1.326108,0.243286 2.097867,0.369927 2.267379,0.372065 0.120438,0.0015 0.273269,-0.03615 0.620733,-0.153004 z"
           id="path828-79-6-6-2-2"
           inkscape:connector-curvature="0"
           sodipodi:nodetypes="cccssssssccscscccccsscscssccscsccscccccsscsssscs" />
      </g>
      <path
         inkscape:connector-curvature="0"
         id="path1183-3"
         d="M 55.134342,87.34118 V 92.9305"
         style="fill:none;stroke:#000000;stroke-width:0.26458332px;stroke-linecap:butt;stroke-linejoin:miter;stroke-opacity:1" />
    </g>
    <g
       id="g880"
       transform="translate(-6.853584,1.0583333)">
      <path
         inkscape:export-ydpi="300"
         inkscape:export-xdpi="300"
         inkscape:export-filename="1flame.png"
         sodipodi:nodetypes="ccccsccccscccccscscccsccccccc"
         inkscape:connector-curvature="0"
         id="path826-3"
         d="m -2.9233267,47.899798 c -0.74036,-0.42454 -1.16313,-1.30599 -1.029019,-2.14547 0.0723,-0.45236 0.205399,-0.75728 0.51281,-1.17452 0.855259,-1.16082 1.01121,-1.47811 1.05736,-2.15132 0.0145,-0.21106 0.0365,-0.38375 0.049,-0.38375 0.0124,0 0.167669,0.10751 0.34492,0.23891 0.7031399,0.52126 1.0979694,1.22932 1.1901694,2.13433 l 0.0354,0.34789 0.128,-0.13562 c 0.0704,-0.0746 0.15533,-0.22937 0.18875,-0.34397 l 0.0608,-0.20837 0.19096,0.39085 c 0.22784,0.46637 0.37001,0.95442 0.40995,1.40733 0.0722,0.81861 -0.34268,1.61611 -1.05246,2.0231 -0.2845895,0.16319 -0.3925495,0.19094 -0.2225405,0.0572 0.1735505,-0.13653 0.3687505,-0.53511 0.3972405,-0.81118 0.0384,-0.37175 -0.0755,-0.6917 -0.4090205,-1.14935 -0.334519,-0.45901 -0.4877789,-0.77035 -0.5328899,-1.08258 l -0.0324,-0.22468 -0.18305,0.17817 c -0.34858,0.3393 -0.59597,1.08145 -0.53423,1.6027 0.0148,0.1247 0.009,0.22675 -0.0126,0.22675 -0.089,0 -0.32551,-0.33503 -0.3523,-0.49904 -0.0158,-0.0965 -0.0345,-0.20683 -0.0417,-0.2452 -0.0169,-0.0902 -0.24643,0.40925 -0.30533,0.66445 -0.10999,0.4766 -0.0184,0.91088 0.26098,1.23724 0.0901,0.10532 0.15703,0.19129 0.14864,0.19105 -0.008,-1.8e-4 -0.12865,-0.0654 -0.26725,-0.14494 z"
         style="fill:#000000;stroke:#000000;stroke-width:0.30000001;stroke-miterlimit:4;stroke-dasharray:none;stroke-opacity:1" />
      <circle
         r="1.6063988"
         cy="45.131767"
         cx="4.623024"
         id="path3810"
         style="opacity:1;vector-effect:none;fill:#000000;fill-opacity:1;stroke:none;stroke-width:0.29209089;stroke-linecap:butt;stroke-linejoin:miter;stroke-miterlimit:4;stroke-dasharray:0.87627266, 0.29209089;stroke-dashoffset:0;stroke-opacity:1" />
    </g>
  </g>
</svg>
