<?xml version="1.0" encoding="UTF-8" standalone="no"?>
<!-- Created with Inkscape (http://www.inkscape.org/) -->

<svg
   xmlns:dc="http://purl.org/dc/elements/1.1/"
   xmlns:cc="http://creativecommons.org/ns#"
   xmlns:rdf="http://www.w3.org/1999/02/22-rdf-syntax-ns#"
   xmlns:svg="http://www.w3.org/2000/svg"
   xmlns="http://www.w3.org/2000/svg"
   xmlns:sodipodi="http://sodipodi.sourceforge.net/DTD/sodipodi-0.dtd"
   xmlns:inkscape="http://www.inkscape.org/namespaces/inkscape"
   width="120mm"
   height="23.016712mm"
   viewBox="0 0 120 23.016712"
   version="1.1"
   id="svg1100"
   inkscape:version="0.92.5 (2060ec1f9f, 2020-04-08)"
   sodipodi:docname="SmallTacticalMissiles.svg">
  <defs
     id="defs1094" />
  <sodipodi:namedview
     id="base"
     pagecolor="#ffffff"
     bordercolor="#666666"
     borderopacity="1.0"
     inkscape:pageopacity="0.0"
     inkscape:pageshadow="2"
     inkscape:zoom="2.8284273"
     inkscape:cx="90.102212"
     inkscape:cy="14.978466"
     inkscape:document-units="mm"
     inkscape:current-layer="layer1"
     showgrid="false"
     inkscape:window-width="1848"
     inkscape:window-height="1016"
     inkscape:window-x="72"
     inkscape:window-y="27"
     inkscape:window-maximized="1"
     fit-margin-top="0"
     fit-margin-left="0"
     fit-margin-right="0"
     fit-margin-bottom="0"
     inkscape:snap-global="true"
     inkscape:snap-bbox="true"
     showguides="false" />
  <metadata
     id="metadata1097">
    <rdf:RDF>
      <cc:Work
         rdf:about="">
        <dc:format>image/svg+xml</dc:format>
        <dc:type
           rdf:resource="http://purl.org/dc/dcmitype/StillImage" />
        <dc:title />
      </cc:Work>
    </rdf:RDF>
  </metadata>
  <g
     inkscape:groupmode="layer"
     id="layer3"
     inkscape:label="Background"
     style="display:inline"
     sodipodi:insensitive="true" />
  <g
     inkscape:groupmode="layer"
     id="layer2"
     inkscape:label="Guias"
     style="display:none"
     transform="translate(0,0.2323513)">
    <g
       id="g1399"
       transform="translate(-6.7978492)">
      <rect
         y="11.402682"
         x="50.431446"
         height="11"
         width="74.99527"
         id="rect1878-3"
         style="display:inline;opacity:1;vector-effect:none;fill:#ffe680;fill-opacity:1;stroke:none;stroke-width:0.47467926;stroke-linecap:butt;stroke-linejoin:miter;stroke-miterlimit:4;stroke-dasharray:none;stroke-dashoffset:0;stroke-opacity:1" />
      <rect
         y="0.30218902"
         x="8.1689825"
         height="22.148087"
         width="42.262463"
         id="rect1868"
         style="display:inline;opacity:1;vector-effect:none;fill:#decd87;fill-opacity:1;stroke:none;stroke-width:0.39467782;stroke-linecap:butt;stroke-linejoin:miter;stroke-miterlimit:4;stroke-dasharray:none;stroke-dashoffset:0;stroke-opacity:1" />
      <rect
         y="0.39782956"
         x="50.431446"
         height="11"
         width="74.99527"
         id="rect1878"
         style="display:inline;opacity:1;vector-effect:none;fill:#deaa87;fill-opacity:1;stroke:none;stroke-width:0.47467929;stroke-linecap:butt;stroke-linejoin:miter;stroke-miterlimit:4;stroke-dasharray:none;stroke-dashoffset:0;stroke-opacity:1" />
      <rect
         y="12.891373"
         x="76.863533"
         height="8.0226164"
         width="22"
         id="rect1878-7-3"
         style="display:inline;opacity:1;vector-effect:none;fill:#eeffaa;fill-opacity:1;stroke:none;stroke-width:0.19344766;stroke-linecap:butt;stroke-linejoin:miter;stroke-miterlimit:4;stroke-dasharray:none;stroke-dashoffset:0;stroke-opacity:1" />
      <rect
         y="12.891415"
         x="103.2956"
         height="8.0226164"
         width="22"
         id="rect1878-7-56"
         style="display:inline;opacity:1;vector-effect:none;fill:#ccffaa;fill-opacity:1;stroke:none;stroke-width:0.21753596;stroke-linecap:butt;stroke-linejoin:miter;stroke-miterlimit:4;stroke-dasharray:none;stroke-dashoffset:0;stroke-opacity:1" />
      <rect
         y="12.680782"
         x="50.431446"
         height="8.443799"
         width="22"
         id="rect1878-7"
         style="display:inline;opacity:1;vector-effect:none;fill:#ff9955;fill-opacity:1;stroke:none;stroke-width:0.22317314;stroke-linecap:butt;stroke-linejoin:miter;stroke-miterlimit:4;stroke-dasharray:none;stroke-dashoffset:0;stroke-opacity:1" />
      <rect
         y="13.158642"
         x="77.363533"
         height="7.4880772"
         width="21"
         id="rect1878-7-2-7"
         style="display:inline;opacity:1;vector-effect:none;fill:#ddff55;fill-opacity:1;stroke:none;stroke-width:0.20533194;stroke-linecap:butt;stroke-linejoin:miter;stroke-miterlimit:4;stroke-dasharray:none;stroke-dashoffset:0;stroke-opacity:1" />
      <rect
         y="13.158684"
         x="103.7956"
         height="7.4880772"
         width="21"
         id="rect1878-7-2-7-0"
         style="display:inline;opacity:1;vector-effect:none;fill:#66ff00;fill-opacity:1;stroke:none;stroke-width:0.20533194;stroke-linecap:butt;stroke-linejoin:miter;stroke-miterlimit:4;stroke-dasharray:none;stroke-dashoffset:0;stroke-opacity:1" />
      <rect
         y="13.158642"
         x="50.931446"
         height="7.4880772"
         width="21"
         id="rect1878-7-2"
         style="display:inline;opacity:1;vector-effect:none;fill:#d45500;fill-opacity:1;stroke:none;stroke-width:0.20533194;stroke-linecap:butt;stroke-linejoin:miter;stroke-miterlimit:4;stroke-dasharray:none;stroke-dashoffset:0;stroke-opacity:1" />
    </g>
  </g>
  <g
     inkscape:label="Capa 1"
     inkscape:groupmode="layer"
     id="layer1"
     transform="translate(28.060163,-27.595709)"
     style="display:inline">
    <g
       transform="matrix(0.35279357,0,0,0.35279357,27.66483,22.56444)"
       id="layer1-6-3-2"
       inkscape:label="Capa 1" />
    <rect
       style="display:inline;opacity:1;fill:#ffffff;fill-opacity:1;stroke:none;stroke-width:0.71100003;stroke-miterlimit:4;stroke-dasharray:none;stroke-dashoffset:0;stroke-opacity:1"
       id="rect1126"
       width="119.99902"
       height="23.017704"
       x="-28.060163"
       y="27.595709" />
    <g
       style="display:inline"
       id="g9128"
       transform="translate(-107.62953,-199.34653)">
      <path
         inkscape:connector-curvature="0"
         id="path9084"
         d="M 83.843672,227.37459 H 195.29507"
         style="fill:none;stroke:#000000;stroke-width:0.40000001;stroke-linecap:butt;stroke-linejoin:miter;stroke-miterlimit:4;stroke-dasharray:none;stroke-opacity:1" />
      <path
         inkscape:connector-curvature="0"
         id="path9084-3"
         d="M 83.843669,249.75895 H 195.29507"
         style="fill:none;stroke:#000000;stroke-width:0.40000001;stroke-linecap:butt;stroke-linejoin:miter;stroke-miterlimit:4;stroke-dasharray:none;stroke-opacity:1" />
    </g>
    <g
       id="g243"
       transform="translate(52.445114,-20.50546)">
      <path
         inkscape:connector-curvature="0"
         id="path1183"
         d="m -12.439491,63.822481 v 5.58932"
         style="fill:none;stroke:#000000;stroke-width:0.26458332px;stroke-linecap:butt;stroke-linejoin:miter;stroke-opacity:1" />
      <text
         id="text1088-1"
         y="68.033585"
         x="-9.9130125"
         style="font-style:normal;font-weight:normal;font-size:132.3289032px;line-height:1.25;font-family:sans-serif;letter-spacing:0px;word-spacing:0px;fill:#000000;fill-opacity:1;stroke:none;stroke-width:0.22054817"
         xml:space="preserve"><tspan
           style="font-size:2.64657831px;stroke-width:0.22054817"
           y="68.033585"
           x="-9.9130125"
           id="tspan1086-8"
           sodipodi:role="line">15</tspan></text>
      <text
         id="text1088-0-9"
         y="68.014839"
         x="8.0774183"
         style="font-style:normal;font-weight:normal;font-size:132.3289032px;line-height:1.25;font-family:sans-serif;letter-spacing:0px;word-spacing:0px;fill:#000000;fill-opacity:1;stroke:none;stroke-width:0.22054817"
         xml:space="preserve"><tspan
           style="font-size:2.64657831px;stroke-width:0.22054817"
           y="68.014839"
           x="8.0774183"
           id="tspan1086-9-2"
           sodipodi:role="line">30</tspan></text>
      <g
         inkscape:label="Capa 1"
         id="layer1-6-8-10-7"
         transform="matrix(0.35279356,0,0,0.35279356,-4.6329723,47.952473)">
        <path
           style="fill:#000000;stroke:#000000;stroke-width:0.229;stroke-miterlimit:4;stroke-dasharray:none;stroke-opacity:1"
           d="m 15.55133,51.922274 c -0.685146,-0.279517 -3.20637,-1.507059 -3.324727,-1.618753 -0.03438,-0.03244 -0.07718,-0.127286 -0.09554,-0.211722 -0.08948,-0.411375 -0.262648,-1.722668 -0.332832,-2.520399 -0.05025,-0.57112 -0.0596,-2.009074 -0.01364,-2.094972 0.04031,-0.07531 0.184184,-0.143729 0.562025,-0.267256 0.722856,-0.236322 1.733468,-0.499615 2.410752,-0.628071 0.275408,-0.05224 0.396016,-0.0603 0.707347,-0.04732 0.415417,0.01732 1.429283,0.142198 2.38188,0.293384 0.766175,0.121598 1.019543,0.178219 1.103853,0.246676 l 0.06543,0.05313 -0.0077,1.496494 c -0.0081,1.566318 -0.04308,2.635128 -0.0968,2.95367 -0.03024,0.179307 -0.04114,0.197626 -0.223796,0.376151 -0.196508,0.192058 -2.306176,1.852072 -2.49635,1.964276 -0.172205,0.101604 -0.398334,0.103271 -0.639907,0.0047 z m 0.681956,-0.312805 c 0.354128,-0.250525 1.358355,-1.012126 1.81541,-1.376797 0.537371,-0.428752 0.598921,-0.493547 0.633573,-0.666962 0.06192,-0.309915 0.154976,-1.794696 0.205292,-3.275805 0.02806,-0.82606 0.02665,-0.940151 -0.01209,-0.978893 -0.05115,-0.05115 -0.07672,-0.04286 -1.158797,0.375245 -1.269982,0.490712 -1.8449,0.758627 -1.912296,0.891141 -0.06033,0.118622 -0.03326,2.613007 0.04901,4.516299 0.02534,0.586113 0.04026,0.707347 0.08705,0.707347 0.01213,0 0.143904,-0.08621 0.292842,-0.191575 z m -0.622651,-1.013802 c -0.01218,-0.535923 -0.02681,-1.694557 -0.03252,-2.574744 -0.0081,-1.255585 -0.01836,-1.607633 -0.04745,-1.63421 -0.106289,-0.0971 -3.10159,-0.677511 -3.496415,-0.677511 h -0.135139 l 3.71e-4,0.281495 c 5.78e-4,0.445614 0.107808,1.632044 0.261587,2.894346 0.106753,0.876288 0.163675,1.197828 0.22476,1.269608 0.108101,0.127026 1.297194,0.741581 1.931131,0.998059 0.417345,0.168849 1.151926,0.414027 1.246224,0.415946 l 0.06959,0.0014 z m 0.778946,-4.666157 c 0.521312,-0.175316 1.631211,-0.587253 1.882404,-0.698649 0.123751,-0.05488 0.155359,-0.08002 0.123166,-0.09796 -0.08273,-0.04609 -1.835693,-0.312599 -2.781117,-0.422813 -0.349053,-0.04069 -0.466344,-0.04391 -0.635169,-0.01741 -0.320219,0.05026 -2.598014,0.698144 -2.656719,0.755658 -0.03178,0.03113 0.194652,0.08146 1.179323,0.262104 1.326108,0.243286 2.097867,0.369927 2.267379,0.372065 0.120438,0.0015 0.273269,-0.03615 0.620733,-0.153004 z"
           id="path828-79-6-5"
           inkscape:connector-curvature="0"
           sodipodi:nodetypes="cccssssssccscscccccsscscssccscsccscccccsscsssscs" />
      </g>
      <path
         sodipodi:nodetypes="cc"
         inkscape:connector-curvature="0"
         id="path1090-2"
         d="M -6.2050683,67.063203 H 7.7949332"
         style="fill:none;stroke:#000000;stroke-width:0.20910574;stroke-linecap:butt;stroke-linejoin:miter;stroke-miterlimit:4;stroke-dasharray:1.67284597, 0.20910574;stroke-dashoffset:0;stroke-opacity:1" />
      <text
         id="text1088-8"
         y="68.014839"
         x="16.540766"
         style="font-style:normal;font-weight:normal;font-size:132.3289032px;line-height:1.25;font-family:sans-serif;letter-spacing:0px;word-spacing:0px;fill:#000000;fill-opacity:1;stroke:none;stroke-width:0.22054817"
         xml:space="preserve"><tspan
           style="font-size:2.64657831px;stroke-width:0.22054817"
           y="68.014839"
           x="16.540766"
           id="tspan1086-97"
           sodipodi:role="line">30</tspan></text>
      <text
         id="text1088-0-6"
         y="67.997398"
         x="34.628586"
         style="font-style:normal;font-weight:normal;font-size:132.3289032px;line-height:1.25;font-family:sans-serif;letter-spacing:0px;word-spacing:0px;fill:#000000;fill-opacity:1;stroke:none;stroke-width:0.22054817"
         xml:space="preserve"><tspan
           style="font-size:2.64657831px;stroke-width:0.22054817"
           y="67.997398"
           x="34.628586"
           id="tspan1086-9-1"
           sodipodi:role="line">50</tspan></text>
      <g
         inkscape:label="Capa 1"
         id="layer1-6-8-6-3"
         transform="matrix(0.35279356,0,0,0.35279356,21.835875,47.952473)">
        <path
           style="fill:#000000;stroke:#000000;stroke-width:0.229;stroke-miterlimit:4;stroke-dasharray:none;stroke-opacity:1"
           d="m 15.55133,51.922274 c -0.685146,-0.279517 -3.20637,-1.507059 -3.324727,-1.618753 -0.03438,-0.03244 -0.07718,-0.127286 -0.09554,-0.211722 -0.08948,-0.411375 -0.262648,-1.722668 -0.332832,-2.520399 -0.05025,-0.57112 -0.0596,-2.009074 -0.01364,-2.094972 0.04031,-0.07531 0.184184,-0.143729 0.562025,-0.267256 0.722856,-0.236322 1.733468,-0.499615 2.410752,-0.628071 0.275408,-0.05224 0.396016,-0.0603 0.707347,-0.04732 0.415417,0.01732 1.429283,0.142198 2.38188,0.293384 0.766175,0.121598 1.019543,0.178219 1.103853,0.246676 l 0.06543,0.05313 -0.0077,1.496494 c -0.0081,1.566318 -0.04308,2.635128 -0.0968,2.95367 -0.03024,0.179307 -0.04114,0.197626 -0.223796,0.376151 -0.196508,0.192058 -2.306176,1.852072 -2.49635,1.964276 -0.172205,0.101604 -0.398334,0.103271 -0.639907,0.0047 z m 0.681956,-0.312805 c 0.354128,-0.250525 1.358355,-1.012126 1.81541,-1.376797 0.537371,-0.428752 0.598921,-0.493547 0.633573,-0.666962 0.06192,-0.309915 0.154976,-1.794696 0.205292,-3.275805 0.02806,-0.82606 0.02665,-0.940151 -0.01209,-0.978893 -0.05115,-0.05115 -0.07672,-0.04286 -1.158797,0.375245 -1.269982,0.490712 -1.8449,0.758627 -1.912296,0.891141 -0.06033,0.118622 -0.03326,2.613007 0.04901,4.516299 0.02534,0.586113 0.04026,0.707347 0.08705,0.707347 0.01213,0 0.143904,-0.08621 0.292842,-0.191575 z m -0.622651,-1.013802 c -0.01218,-0.535923 -0.02681,-1.694557 -0.03252,-2.574744 -0.0081,-1.255585 -0.01836,-1.607633 -0.04745,-1.63421 -0.106289,-0.0971 -3.10159,-0.677511 -3.496415,-0.677511 h -0.135139 l 3.71e-4,0.281495 c 5.78e-4,0.445614 0.107808,1.632044 0.261587,2.894346 0.106753,0.876288 0.163675,1.197828 0.22476,1.269608 0.108101,0.127026 1.297194,0.741581 1.931131,0.998059 0.417345,0.168849 1.151926,0.414027 1.246224,0.415946 l 0.06959,0.0014 z m 0.778946,-4.666157 c 0.521312,-0.175316 1.631211,-0.587253 1.882404,-0.698649 0.123751,-0.05488 0.155359,-0.08002 0.123166,-0.09796 -0.08273,-0.04609 -1.835693,-0.312599 -2.781117,-0.422813 -0.349053,-0.04069 -0.466344,-0.04391 -0.635169,-0.01741 -0.320219,0.05026 -2.598014,0.698144 -2.656719,0.755658 -0.03178,0.03113 0.194652,0.08146 1.179323,0.262104 1.326108,0.243286 2.097867,0.369927 2.267379,0.372065 0.120438,0.0015 0.273269,-0.03615 0.620733,-0.153004 z"
           id="path828-79-9-5"
           inkscape:connector-curvature="0"
           sodipodi:nodetypes="cccssssssccscscccccsscscssccscsccscccccsscsssscs" />
      </g>
      <path
         sodipodi:nodetypes="cc"
         inkscape:connector-curvature="0"
         id="path1090-2-1"
         d="M 20.263777,67.063203 H 34.263778"
         style="fill:none;stroke:#000000;stroke-width:0.20910574;stroke-linecap:butt;stroke-linejoin:miter;stroke-miterlimit:4;stroke-dasharray:0.62731724, 0.20910574;stroke-dashoffset:0;stroke-opacity:1" />
      <path
         inkscape:connector-curvature="0"
         id="path1183-2"
         d="m 14.029357,64.006229 v 5.58932"
         style="fill:none;stroke:#000000;stroke-width:0.26458332px;stroke-linecap:butt;stroke-linejoin:miter;stroke-opacity:1" />
      <text
         id="text1088"
         y="68.016136"
         x="-36.421196"
         style="font-style:normal;font-weight:normal;font-size:132.3289032px;line-height:1.25;font-family:sans-serif;letter-spacing:0px;word-spacing:0px;fill:#000000;fill-opacity:1;stroke:none;stroke-width:0.22054817"
         xml:space="preserve"><tspan
           style="font-size:2.64657831px;stroke-width:0.22054817"
           y="68.016136"
           x="-36.421196"
           id="tspan1086"
           sodipodi:role="line">1</tspan></text>
      <path
         sodipodi:nodetypes="cc"
         inkscape:connector-curvature="0"
         id="path1090"
         d="m -32.673912,67.063203 h 14"
         style="fill:none;stroke:#000000;stroke-width:0.2093017px;stroke-linecap:butt;stroke-linejoin:miter;stroke-opacity:1" />
      <text
         id="text1088-0"
         y="68.033585"
         x="-18.286495"
         style="font-style:normal;font-weight:normal;font-size:132.3289032px;line-height:1.25;font-family:sans-serif;letter-spacing:0px;word-spacing:0px;fill:#000000;fill-opacity:1;stroke:none;stroke-width:0.22054817"
         xml:space="preserve"><tspan
           style="font-size:2.64657831px;stroke-width:0.22054817"
           y="68.033585"
           x="-18.286495"
           id="tspan1086-9"
           sodipodi:role="line">15</tspan></text>
      <path
         inkscape:connector-curvature="0"
         id="path1524-6"
         d="m -25.774417,66.34271 c -0.32721,-0.0309 -0.608,-0.1648 -0.83408,-0.39766 -0.2053,-0.21148 -0.33063,-0.46763 -0.37577,-0.76802 -0.0146,-0.0964 -0.0146,-0.2929 0,-0.38932 0.0451,-0.30039 0.17047,-0.55655 0.37577,-0.76802 0.2053,-0.21146 0.45398,-0.34056 0.74561,-0.38706 0.0936,-0.0149 0.28435,-0.0149 0.37795,0 0.29163,0.0465 0.54032,0.1756 0.74561,0.38706 0.20529,0.21147 0.33063,0.46763 0.37577,0.76802 0.0146,0.0964 0.0146,0.2929 0,0.38932 -0.0451,0.30039 -0.17048,0.55654 -0.37577,0.76802 -0.20369,0.2098 -0.45536,0.34113 -0.73948,0.38588 -0.0606,0.01 -0.24253,0.0168 -0.29561,0.0118 z m 0.28674,-0.4043 c 0.37902,-0.0826 0.66052,-0.37337 0.74277,-0.76726 0.0114,-0.0546 0.0134,-0.0821 0.0134,-0.18878 0,-0.13727 -0.008,-0.19521 -0.0442,-0.30753 -0.0193,-0.0605 -0.0832,-0.19821 -0.0976,-0.21054 -0.008,-0.007 -0.0985,0.0842 -0.66014,0.66271 -0.52709,0.54293 -0.64968,0.67214 -0.64415,0.67901 0.0112,0.0138 0.11799,0.0686 0.17857,0.0916 0.0594,0.0225 0.14302,0.0439 0.20692,0.053 0.0658,0.009 0.23732,0.003 0.30447,-0.0122 z m -0.32558,-1.10178 c 0.56058,-0.57744 0.64885,-0.67074 0.6423,-0.67888 -0.012,-0.0148 -0.1457,-0.0806 -0.2044,-0.10052 -0.10905,-0.037 -0.16529,-0.0455 -0.29856,-0.0455 -0.10356,0 -0.13023,0.002 -0.18327,0.0138 -0.34077,0.0755 -0.6073,0.3177 -0.71464,0.6494 -0.036,0.11106 -0.0444,0.16988 -0.0444,0.30753 0,0.13764 0.008,0.19646 0.0444,0.30752 0.0273,0.0846 0.0909,0.21619 0.10432,0.21619 0.003,0 0.29681,-0.30125 0.65425,-0.66945 z"
         style="fill:#000000;stroke-width:0.00600021" />
    </g>
    <g
       id="g2751"
       transform="matrix(1.3240558,0,0,1.3240565,-26.069795,15.084269)">
      <circle
         r="2.9059739"
         cy="14.878485"
         cx="35.100636"
         id="path1760-3-3-8"
         style="opacity:1;vector-effect:none;fill:#ffffff;fill-opacity:1;stroke:#000000;stroke-width:0.31159922;stroke-linecap:butt;stroke-linejoin:miter;stroke-miterlimit:4;stroke-dasharray:none;stroke-dashoffset:0;stroke-opacity:1" />
      <path
         inkscape:export-ydpi="300"
         inkscape:export-xdpi="300"
         inkscape:export-filename="1missile.png"
         id="path974-3-6-6"
         d="m 36.329334,13.434034 c -0.18505,0.0038 -0.351646,0.03974 -0.481696,0.105405 -0.04656,0.02355 -0.139878,0.09825 -0.216179,0.172785 -0.07364,0.07195 -0.141366,0.135122 -0.141772,0.140353 l -2.76e-4,-2.83e-4 c 0,0 -3.07e-4,4.91e-4 -3.07e-4,4.91e-4 -4.31e-4,3.75e-4 -0.261698,0.261429 -0.470973,0.470704 -0.01281,-0.0054 -0.09448,-0.01043 -0.202096,-0.01043 h -0.211684 l -0.371766,0.372902 c -0.204528,0.205156 -0.371767,0.380818 -0.371767,0.390376 0,0.0095 0.01066,0.02823 0.02401,0.04142 0.01879,0.01879 0.05884,0.02416 0.180387,0.02416 h 0.149941 c -0.04687,0.04932 -0.130772,0.1347 -0.130772,0.137822 0,0.0061 0.02953,0.04027 0.07019,0.08456 -0.0976,0.01097 -0.217491,0.06582 -0.345279,0.161785 -0.107767,0.08092 -0.126676,0.114227 -0.08821,0.156708 0.02117,0.0234 0.03951,0.02738 0.09357,0.02002 0.03697,-0.0054 0.06704,-0.0054 0.06704,0 0,0.0054 -0.03145,0.05776 -0.06988,0.117248 -0.08021,0.123953 -0.111196,0.191495 -0.138389,0.299892 -0.02777,0.110513 -0.02577,0.141603 0.01043,0.177856 0.02731,0.02731 0.04296,0.03068 0.103449,0.02171 0.115323,-0.01711 0.231091,-0.06405 0.35993,-0.146 0.06635,-0.04227 0.124566,-0.07663 0.129368,-0.07663 0.0046,0 0.0046,0.03015 -4.83e-4,0.06704 -0.0069,0.05408 -0.0038,0.07241 0.01971,0.09358 0.0425,0.03851 0.07602,0.01987 0.157007,-0.08795 0.09574,-0.127482 0.15047,-0.247752 0.161493,-0.344988 0.04403,0.04035 0.07772,0.06965 0.08395,0.06965 0.0038,0 0.08145,-0.07464 0.138397,-0.12824 v 0.06482 c 0,0.121689 0.0054,0.161617 0.02416,0.180387 0.01327,0.01327 0.03183,0.02416 0.04142,0.02416 0.0095,0 0.185205,-0.167239 0.390369,-0.371766 l 0.373185,-0.37206 v -0.211392 c 0,-0.04963 -0.0015,-0.09122 -0.0023,-0.127397 l 0.463088,-0.463088 0.13022,-0.129376 c 0.207794,-0.206706 0.283383,-0.392838 0.289182,-0.71028 0.0038,-0.219846 0.0038,-0.220214 -0.216187,-0.216179 z"
         style="fill:#000000;stroke:#000000;stroke-width:0.06394002;stroke-miterlimit:4;stroke-dasharray:none;stroke-opacity:1"
         inkscape:connector-curvature="0" />
    </g>
    <g
       style="display:inline"
       id="g1033"
       transform="translate(19.247686,66.198426)">
      <rect
         y="-36.617252"
         x="21.17853"
         height="8.2894325"
         width="8.2894325"
         id="rect925-7-3-61-49-09"
         style="display:inline;opacity:1;vector-effect:none;fill:#ffffff;fill-opacity:1;stroke:#000000;stroke-width:0.71056741;stroke-linecap:butt;stroke-linejoin:miter;stroke-miterlimit:4;stroke-dasharray:none;stroke-dashoffset:0;stroke-opacity:1" />
      <rect
         y="-36.617252"
         x="31.46801"
         height="8.2894325"
         width="8.2894325"
         id="rect925-7-3-61-49-0-6"
         style="display:inline;opacity:1;vector-effect:none;fill:#ffffff;fill-opacity:1;stroke:#000000;stroke-width:0.71056741;stroke-linecap:butt;stroke-linejoin:miter;stroke-miterlimit:4;stroke-dasharray:none;stroke-dashoffset:0;stroke-opacity:1" />
      <rect
         y="-36.617252"
         x="41.757488"
         height="8.2894325"
         width="8.2894325"
         id="rect925-7-3-61-49-9-3"
         style="display:inline;opacity:1;vector-effect:none;fill:#ffffff;fill-opacity:1;stroke:#000000;stroke-width:0.71056741;stroke-linecap:butt;stroke-linejoin:miter;stroke-miterlimit:4;stroke-dasharray:none;stroke-dashoffset:0;stroke-opacity:1" />
      <rect
         y="-36.617252"
         x="52.046974"
         height="8.2894325"
         width="8.2894325"
         id="rect925-7-3-61-49-1-8"
         style="display:inline;opacity:1;vector-effect:none;fill:#ffffff;fill-opacity:1;stroke:#000000;stroke-width:0.71056741;stroke-linecap:butt;stroke-linejoin:miter;stroke-miterlimit:4;stroke-dasharray:none;stroke-dashoffset:0;stroke-opacity:1" />
      <rect
         y="-36.617252"
         x="62.336449"
         height="8.2894325"
         width="8.2894325"
         id="rect925-7-3-61-49-7-5"
         style="display:inline;opacity:1;vector-effect:none;fill:#ffffff;fill-opacity:1;stroke:#000000;stroke-width:0.71056741;stroke-linecap:butt;stroke-linejoin:miter;stroke-miterlimit:4;stroke-dasharray:none;stroke-dashoffset:0;stroke-opacity:1" />
    </g>
    <g
       id="g925"
       transform="matrix(1.4550545,0,0,1.4550545,-73.837205,-10.221638)">
      <path
         inkscape:connector-curvature="0"
         id="path917"
         d="m 70.941729,32.427433 c -0.0095,-0.01153 -0.09485,-0.187767 -0.189648,-0.391641 -0.09479,-0.203874 -0.179939,-0.384914 -0.189212,-0.402311 -0.01617,-0.03034 -0.01524,-0.03057 0.02284,-0.0056 0.02183,0.01431 0.122228,0.08455 0.223097,0.156096 0.100869,0.07155 0.185678,0.127805 0.188464,0.125018 0.0028,-0.0028 -0.06351,-0.206848 -0.147326,-0.453469 l -0.152393,-0.448402 0.09182,0.08712 c 0.0505,0.04792 0.15891,0.152309 0.240902,0.231985 0.134773,0.130964 0.149078,0.140811 0.149078,0.102611 0,-0.02324 -0.01106,-0.27252 -0.02458,-0.553955 -0.01352,-0.281435 -0.02258,-0.513532 -0.02015,-0.51577 0.0024,-0.0022 0.134977,0.18997 0.29453,0.427131 0.201004,0.298774 0.29316,0.423228 0.300069,0.405237 0.0055,-0.01428 0.01929,-0.125947 0.03068,-0.248146 0.01139,-0.122199 0.02523,-0.224977 0.03076,-0.228396 0.0055,-0.0034 0.04534,0.09154 0.08847,0.211016 0.04313,0.119478 0.08343,0.211377 0.08956,0.204221 0.0061,-0.0072 0.07943,-0.241462 0.162894,-0.520681 l 0.151747,-0.50767 0.01,0.306214 c 0.0055,0.168418 0.01093,0.434944 0.01209,0.592282 0.0012,0.157337 0.0082,0.286068 0.0157,0.286068 0.0075,0 0.06255,-0.05801 0.12239,-0.128918 0.05984,-0.0709 0.115504,-0.133066 0.123709,-0.138137 0.009,-0.0056 0.01089,0.07206 0.0047,0.197413 l -0.01023,0.206632 0.223455,-0.21863 c 0.328571,-0.321477 0.414032,-0.40199 0.420173,-0.395849 0.003,0.003 -0.09244,0.294357 -0.212157,0.64739 -0.119719,0.353033 -0.21434,0.645207 -0.210271,0.649277 0.0041,0.0041 0.09604,-0.02604 0.204379,-0.06692 0.108338,-0.04087 0.199308,-0.07199 0.202156,-0.06914 0.0028,0.0028 -0.05607,0.109584 -0.130937,0.237193 l -0.136114,0.232015 -0.236609,-0.0031 c -0.130135,-0.0017 -0.239256,-0.0057 -0.242491,-0.0089 -0.0032,-0.0032 0.01183,-0.110251 0.03348,-0.237813 0.03654,-0.215296 0.03931,-0.272776 0.01121,-0.233001 -0.0062,0.0087 -0.07286,0.07017 -0.148202,0.136523 -0.07534,0.06636 -0.142039,0.127702 -0.148211,0.136317 -0.01549,0.02162 -0.02291,-0.0075 -0.046,-0.180406 -0.01092,-0.08174 -0.02608,-0.144774 -0.03369,-0.140068 -0.0076,0.0047 -0.01417,0.02082 -0.01457,0.03581 -4.03e-4,0.01499 -0.0098,0.04861 -0.02097,0.07471 l -0.02024,0.04745 -0.05854,-0.09359 -0.05854,-0.09359 -0.0091,0.05822 c -0.005,0.03202 -0.01322,0.08434 -0.01822,0.11626 l -0.0091,0.05804 -0.139984,-0.187691 -0.139983,-0.187691 -0.01303,0.262213 c -0.0072,0.144217 -0.01558,0.264762 -0.01869,0.267878 -0.0031,0.0031 -0.05745,-0.032 -0.120739,-0.07803 -0.06329,-0.04603 -0.119012,-0.07976 -0.123826,-0.07494 -0.0048,0.0048 0.0016,0.07525 0.01424,0.15652 0.01617,0.103862 0.01781,0.149332 0.0055,0.153032 -0.0096,0.0029 -0.105117,0.0098 -0.212245,0.0154 -0.150153,0.0078 -0.198739,0.0053 -0.212072,-0.01083 z"
         style="fill:#000000;stroke-width:0.01611651" />
      <path
         sodipodi:nodetypes="cc"
         inkscape:connector-curvature="0"
         id="path921"
         d="m 68.847824,29.562684 c 2.315104,-0.07087 2.281678,0.141935 2.877438,1.419674"
         style="fill:none;stroke:#000000;stroke-width:0.26499999;stroke-linecap:butt;stroke-linejoin:miter;stroke-miterlimit:4;stroke-dasharray:0.52999997, 0.26499999;stroke-dashoffset:0;stroke-opacity:1" />
    </g>
    <g
       id="g878"
       transform="translate(-9.7783709,-3.156694)">
      <path
         sodipodi:nodetypes="ccccccccccccccccc"
         inkscape:connector-curvature="0"
         id="path1052-3-6"
         d="m 9.48826,37.858046 c -0.05102,-0.06212 -9.26076,1.847534 -9.286323,1.925625 -0.01058,0.03208 0.01013,0.191319 0.04588,0.354312 l 0.06513,0.296558 0.35841,-0.07742 0.358816,-0.07742 -0.04465,1.672437 7.891569,-0.0045 -0.0426,-1.952595 -0.317447,-0.298605 -0.317856,-0.298606 -0.94377,0.0213 -2.296272,0.04342 2.629284,-0.547648 c 1.446207,-0.301131 1.984715,-0.399853 2.004691,-0.408841 0.04337,-0.01795 -0.04734,-0.577798 -0.10486,-0.648003 z"
         style="fill:#000000;stroke-width:0.07288762" />
      <path
         sodipodi:nodetypes="cccccccccccc"
         inkscape:connector-curvature="0"
         id="path1052-3-3-5"
         d="m 10.066054,35.005144 c -0.03935,-0.0039 -0.07752,0.006 -0.11738,0.02632 -0.07174,0.03666 -2.523789,0.620278 -5.032356,1.19757 -1.329393,0.305897 -6.75835,1.590596 -6.788495,1.607092 -0.02073,0.01141 -0.006,0.156683 0.03273,0.322753 0.0387,0.166056 0.13398,0.598357 0.211906,0.960599 0.07793,0.362245 0.170521,0.667525 0.205849,0.679138 0.03528,0.01152 0.454032,-0.09833 1.949857,-0.451919 1.495848,-0.353585 2.702611,-0.605362 3.799987,-0.862932 3.984733,-0.93516 6.235614,-1.470947 6.276644,-1.493466 0.41231,-0.731649 0.102918,-1.752001 -0.538793,-1.985146 z"
         style="fill:#000000;stroke-width:0.07883607" />
    </g>
    <g
       id="g912"
       transform="translate(-3.9904147,1.0583333)">
      <path
         inkscape:export-ydpi="300"
         inkscape:export-xdpi="300"
         inkscape:export-filename="1flame.png"
         sodipodi:nodetypes="ccccsccccscccccscscccsccccccc"
         inkscape:connector-curvature="0"
         id="path826-3-3"
         d="m -5.7864961,47.899798 c -0.74036,-0.42454 -1.16313,-1.30599 -1.029019,-2.14547 0.0723,-0.45236 0.205399,-0.75728 0.51281,-1.17452 0.855259,-1.16082 1.01121,-1.47811 1.05736,-2.15132 0.0145,-0.21106 0.0365,-0.38375 0.049,-0.38375 0.0124,0 0.167669,0.10751 0.34492,0.23891 0.70314,0.52126 1.0979695,1.22932 1.1901695,2.13433 l 0.0354,0.34789 0.128,-0.13562 c 0.0704,-0.0746 0.15533,-0.22937 0.18875,-0.34397 l 0.0608,-0.20837 0.19096,0.39085 c 0.22784,0.46637 0.37001,0.95442 0.40995,1.40733 0.0722,0.81861 -0.34268,1.61611 -1.05246,2.0231 -0.2845895,0.16319 -0.3925495,0.19094 -0.2225405,0.0572 0.1735505,-0.13653 0.3687505,-0.53511 0.3972405,-0.81118 0.0384,-0.37175 -0.0755,-0.6917 -0.4090205,-1.14935 -0.334519,-0.45901 -0.487779,-0.77035 -0.53289,-1.08258 l -0.0324,-0.22468 -0.18305,0.17817 c -0.34858,0.3393 -0.59597,1.08145 -0.53423,1.6027 0.0148,0.1247 0.009,0.22675 -0.0126,0.22675 -0.089,0 -0.32551,-0.33503 -0.3523,-0.49904 -0.0158,-0.0965 -0.0345,-0.20683 -0.0417,-0.2452 -0.0169,-0.0902 -0.24643,0.40925 -0.30533,0.66445 -0.10999,0.4766 -0.0184,0.91088 0.26098,1.23724 0.0901,0.10532 0.15703,0.19129 0.14864,0.19105 -0.008,-1.8e-4 -0.12865,-0.0654 -0.26725,-0.14494 z"
         style="fill:#000000;stroke:#000000;stroke-width:0.30000001;stroke-miterlimit:4;stroke-dasharray:none;stroke-opacity:1" />
      <circle
         r="1.6063988"
         cy="45.131767"
         cx="1.7598548"
         id="path3810-6"
         style="opacity:1;vector-effect:none;fill:#000000;fill-opacity:1;stroke:none;stroke-width:0.29209089;stroke-linecap:butt;stroke-linejoin:miter;stroke-miterlimit:4;stroke-dasharray:0.87627266, 0.29209089;stroke-dashoffset:0;stroke-opacity:1" />
    </g>
  </g>
</svg>
