<?xml version="1.0" encoding="UTF-8" standalone="no"?>
<!-- Created with Inkscape (http://www.inkscape.org/) -->

<svg
   width="120mm"
   height="23.016712mm"
   viewBox="0 0 120 23.016712"
   version="1.1"
   id="svg1100"
   inkscape:version="1.2.2 (b0a8486541, 2022-12-01)"
   sodipodi:docname="WreckingBall.svg"
   xmlns:inkscape="http://www.inkscape.org/namespaces/inkscape"
   xmlns:sodipodi="http://sodipodi.sourceforge.net/DTD/sodipodi-0.dtd"
   xmlns="http://www.w3.org/2000/svg"
   xmlns:svg="http://www.w3.org/2000/svg"
   xmlns:rdf="http://www.w3.org/1999/02/22-rdf-syntax-ns#"
   xmlns:cc="http://creativecommons.org/ns#"
   xmlns:dc="http://purl.org/dc/elements/1.1/">
  <defs
     id="defs1094" />
  <sodipodi:namedview
     id="base"
     pagecolor="#ffffff"
     bordercolor="#666666"
     borderopacity="1.0"
     inkscape:pageopacity="0.0"
     inkscape:pageshadow="2"
     inkscape:zoom="1"
     inkscape:cx="-16"
     inkscape:cy="136"
     inkscape:document-units="mm"
     inkscape:current-layer="layer1"
     showgrid="false"
     inkscape:window-width="1549"
     inkscape:window-height="773"
     inkscape:window-x="290"
     inkscape:window-y="1267"
     inkscape:window-maximized="0"
     fit-margin-top="0"
     fit-margin-left="0"
     fit-margin-right="0"
     fit-margin-bottom="0"
     inkscape:snap-global="true"
     inkscape:snap-bbox="true"
     inkscape:showpageshadow="2"
     inkscape:pagecheckerboard="0"
     inkscape:deskcolor="#d1d1d1" />
  <metadata
     id="metadata1097">
    <rdf:RDF>
      <cc:Work
         rdf:about="">
        <dc:format>image/svg+xml</dc:format>
        <dc:type
           rdf:resource="http://purl.org/dc/dcmitype/StillImage" />
      </cc:Work>
    </rdf:RDF>
  </metadata>
  <g
     inkscape:groupmode="layer"
     id="layer3"
     inkscape:label="Background"
     style="display:inline" />
  <g
     inkscape:groupmode="layer"
     id="layer2"
     inkscape:label="Guias"
     style="display:inline"
     transform="translate(0,0.2323513)">
    <g
       id="g1399"
       transform="translate(-6.7978492)">
      <rect
         y="11.402682"
         x="50.431446"
         height="11"
         width="74.99527"
         id="rect1878-3"
         style="display:inline;opacity:1;vector-effect:none;fill:#ffe680;fill-opacity:1;stroke:none;stroke-width:0.47467926;stroke-linecap:butt;stroke-linejoin:miter;stroke-miterlimit:4;stroke-dasharray:none;stroke-dashoffset:0;stroke-opacity:1" />
      <rect
         y="0.30218902"
         x="8.1689825"
         height="22.148087"
         width="42.262463"
         id="rect1868"
         style="display:inline;opacity:1;vector-effect:none;fill:#decd87;fill-opacity:1;stroke:none;stroke-width:0.39467782;stroke-linecap:butt;stroke-linejoin:miter;stroke-miterlimit:4;stroke-dasharray:none;stroke-dashoffset:0;stroke-opacity:1" />
      <rect
         y="0.39782956"
         x="50.431446"
         height="11"
         width="74.99527"
         id="rect1878"
         style="display:inline;opacity:1;vector-effect:none;fill:#deaa87;fill-opacity:1;stroke:none;stroke-width:0.47467929;stroke-linecap:butt;stroke-linejoin:miter;stroke-miterlimit:4;stroke-dasharray:none;stroke-dashoffset:0;stroke-opacity:1" />
      <rect
         y="12.891373"
         x="76.863533"
         height="8.0226164"
         width="22"
         id="rect1878-7-3"
         style="display:inline;opacity:1;vector-effect:none;fill:#eeffaa;fill-opacity:1;stroke:none;stroke-width:0.19344766;stroke-linecap:butt;stroke-linejoin:miter;stroke-miterlimit:4;stroke-dasharray:none;stroke-dashoffset:0;stroke-opacity:1" />
      <rect
         y="12.891415"
         x="103.2956"
         height="8.0226164"
         width="22"
         id="rect1878-7-56"
         style="display:inline;opacity:1;vector-effect:none;fill:#ccffaa;fill-opacity:1;stroke:none;stroke-width:0.21753596;stroke-linecap:butt;stroke-linejoin:miter;stroke-miterlimit:4;stroke-dasharray:none;stroke-dashoffset:0;stroke-opacity:1" />
      <rect
         y="12.680782"
         x="50.431446"
         height="8.443799"
         width="22"
         id="rect1878-7"
         style="display:inline;opacity:1;vector-effect:none;fill:#ff9955;fill-opacity:1;stroke:none;stroke-width:0.22317314;stroke-linecap:butt;stroke-linejoin:miter;stroke-miterlimit:4;stroke-dasharray:none;stroke-dashoffset:0;stroke-opacity:1" />
      <rect
         y="13.158642"
         x="77.363533"
         height="7.4880772"
         width="21"
         id="rect1878-7-2-7"
         style="display:inline;opacity:1;vector-effect:none;fill:#ddff55;fill-opacity:1;stroke:none;stroke-width:0.20533194;stroke-linecap:butt;stroke-linejoin:miter;stroke-miterlimit:4;stroke-dasharray:none;stroke-dashoffset:0;stroke-opacity:1" />
      <rect
         y="13.158684"
         x="103.7956"
         height="7.4880772"
         width="21"
         id="rect1878-7-2-7-0"
         style="display:inline;opacity:1;vector-effect:none;fill:#66ff00;fill-opacity:1;stroke:none;stroke-width:0.20533194;stroke-linecap:butt;stroke-linejoin:miter;stroke-miterlimit:4;stroke-dasharray:none;stroke-dashoffset:0;stroke-opacity:1" />
      <rect
         y="13.158642"
         x="50.931446"
         height="7.4880772"
         width="21"
         id="rect1878-7-2"
         style="display:inline;opacity:1;vector-effect:none;fill:#d45500;fill-opacity:1;stroke:none;stroke-width:0.20533194;stroke-linecap:butt;stroke-linejoin:miter;stroke-miterlimit:4;stroke-dasharray:none;stroke-dashoffset:0;stroke-opacity:1" />
    </g>
  </g>
  <g
     inkscape:label="Capa 1"
     inkscape:groupmode="layer"
     id="layer1"
     transform="translate(28.060163,-27.595709)"
     style="display:inline">
    <g
       transform="matrix(0.35279357,0,0,0.35279357,27.66483,22.56444)"
       id="layer1-6-3-2"
       inkscape:label="Capa 1" />
    <rect
       style="display:inline;opacity:1;fill:#ffffff;fill-opacity:1;stroke:none;stroke-width:0.71100003;stroke-miterlimit:4;stroke-dasharray:none;stroke-dashoffset:0;stroke-opacity:1"
       id="rect1126"
       width="119.99902"
       height="23.017704"
       x="-28.060163"
       y="27.595709" />
    <g
       style="display:inline"
       id="g9128"
       transform="translate(-107.62953,-199.34653)">
      <path
         inkscape:connector-curvature="0"
         id="path9084"
         d="M 83.843672,227.37459 H 195.29507"
         style="fill:none;stroke:#000000;stroke-width:0.40000001;stroke-linecap:butt;stroke-linejoin:miter;stroke-miterlimit:4;stroke-dasharray:none;stroke-opacity:1" />
      <path
         inkscape:connector-curvature="0"
         id="path9084-3"
         d="M 83.843669,249.75895 H 195.29507"
         style="fill:none;stroke:#000000;stroke-width:0.40000001;stroke-linecap:butt;stroke-linejoin:miter;stroke-miterlimit:4;stroke-dasharray:none;stroke-opacity:1" />
    </g>
    <g
       id="g383"
       transform="matrix(1.3240563,0,0,1.3240565,-11.756817,13.836628)">
      <circle
         r="2.9059739"
         cy="15.820772"
         cx="24.290676"
         id="path1760-3-7"
         style="opacity:1;vector-effect:none;fill:#ffffff;fill-opacity:1;stroke:#000000;stroke-width:0.31159922;stroke-linecap:butt;stroke-linejoin:miter;stroke-miterlimit:4;stroke-dasharray:none;stroke-dashoffset:0;stroke-opacity:1" />
      <path
         inkscape:export-ydpi="300"
         inkscape:export-xdpi="300"
         inkscape:export-filename="1sword.png"
         sodipodi:nodetypes="cccccccsccssscssscsscscsscscccccccscscc"
         inkscape:connector-curvature="0"
         id="path1327"
         d="m 22.955075,17.371526 c 0.03685,-0.0091 0.06702,-0.02719 0.09377,-0.05619 0.03556,-0.03859 0.04582,-0.06185 0.04903,-0.111267 l 0.0028,-0.04328 0.250709,-0.250653 0.250707,-0.250653 0.06274,-5.02e-4 c 0.08226,-5.03e-4 0.114477,-0.01495 0.181922,-0.08061 l 0.04803,-0.04677 0.11105,0.110465 c 0.108933,0.108355 0.111538,0.110464 0.136755,0.110464 0.03549,0 0.05551,-0.02005 0.05551,-0.05556 0,-0.02537 -0.0018,-0.02755 -0.124401,-0.150661 l -0.1244,-0.124923 0.694148,-0.695057 c 0.782416,-0.783438 0.821412,-0.825699 0.988767,-1.071481 0.104214,-0.153054 0.21731,-0.351482 0.21731,-0.38128 0,-0.0098 -0.0048,-0.01849 -0.01222,-0.0225 -0.02594,-0.01391 -0.312856,0.156865 -0.50722,0.301841 -0.162718,0.12137 -0.224401,0.180047 -0.934768,0.889204 l -0.710463,0.70925 -0.118284,-0.118959 c -0.06506,-0.06543 -0.126483,-0.122533 -0.136501,-0.126903 -0.03885,-0.01693 -0.08196,0.01271 -0.08196,0.05633 0,0.02036 0.0082,0.03015 0.112296,0.134803 l 0.112296,0.112859 -0.0458,0.04536 c -0.03088,0.03057 -0.05212,0.05818 -0.06524,0.08474 -0.01811,0.03667 -0.01944,0.04364 -0.01928,0.101551 l 1.54e-4,0.06217 -0.246233,0.246178 -0.246234,0.246179 -0.03999,0.0021 c -0.04865,0.0026 -0.08662,0.01864 -0.121873,0.05115 -0.04341,0.04 -0.05637,0.07233 -0.05637,0.14059 0,0.0524 0.0016,0.06035 0.01721,0.08695 0.0095,0.0161 0.02585,0.03766 0.03643,0.04792 0.03961,0.03839 0.117208,0.05992 0.169582,0.04698 z"
         style="fill:#000000;stroke:#000000;stroke-width:0.16442627;stroke-miterlimit:4;stroke-dasharray:none;stroke-opacity:1" />
    </g>
    <g
       style="display:inline"
       id="g1033"
       transform="translate(19.247686,66.198426)">
      <rect
         y="-36.617252"
         x="21.17853"
         height="8.2894325"
         width="8.2894325"
         id="rect925-7-3-61-49-09"
         style="display:inline;opacity:1;vector-effect:none;fill:#ffffff;fill-opacity:1;stroke:#000000;stroke-width:0.71056741;stroke-linecap:butt;stroke-linejoin:miter;stroke-miterlimit:4;stroke-dasharray:none;stroke-dashoffset:0;stroke-opacity:1" />
      <rect
         y="-36.617252"
         x="31.46801"
         height="8.2894325"
         width="8.2894325"
         id="rect925-7-3-61-49-0-6"
         style="display:inline;opacity:1;vector-effect:none;fill:#ffffff;fill-opacity:1;stroke:#000000;stroke-width:0.71056741;stroke-linecap:butt;stroke-linejoin:miter;stroke-miterlimit:4;stroke-dasharray:none;stroke-dashoffset:0;stroke-opacity:1" />
      <rect
         y="-36.617252"
         x="41.757488"
         height="8.2894325"
         width="8.2894325"
         id="rect925-7-3-61-49-9-3"
         style="display:inline;opacity:1;vector-effect:none;fill:#ffffff;fill-opacity:1;stroke:#000000;stroke-width:0.71056741;stroke-linecap:butt;stroke-linejoin:miter;stroke-miterlimit:4;stroke-dasharray:none;stroke-dashoffset:0;stroke-opacity:1" />
      <rect
         y="-36.617252"
         x="52.046974"
         height="8.2894325"
         width="8.2894325"
         id="rect925-7-3-61-49-1-8"
         style="display:inline;opacity:1;vector-effect:none;fill:#ffffff;fill-opacity:1;stroke:#000000;stroke-width:0.71056741;stroke-linecap:butt;stroke-linejoin:miter;stroke-miterlimit:4;stroke-dasharray:none;stroke-dashoffset:0;stroke-opacity:1" />
      <rect
         y="-36.617252"
         x="62.336449"
         height="8.2894325"
         width="8.2894325"
         id="rect925-7-3-61-49-7-5"
         style="display:inline;opacity:1;vector-effect:none;fill:#ffffff;fill-opacity:1;stroke:#000000;stroke-width:0.71056741;stroke-linecap:butt;stroke-linejoin:miter;stroke-miterlimit:4;stroke-dasharray:none;stroke-dashoffset:0;stroke-opacity:1" />
    </g>
    <g
       id="g226"
       transform="translate(2.2151513,1.0583333)">
      <path
         inkscape:export-ydpi="300"
         inkscape:export-xdpi="300"
         inkscape:export-filename="1flame.png"
         sodipodi:nodetypes="ccccsccccscccccscscccsccccccc"
         inkscape:connector-curvature="0"
         id="path826-3-3"
         d="m -11.992062,47.899798 c -0.74036,-0.42454 -1.16313,-1.30599 -1.029019,-2.14547 0.0723,-0.45236 0.205399,-0.75728 0.51281,-1.17452 0.855259,-1.16082 1.01121,-1.47811 1.05736,-2.15132 0.0145,-0.21106 0.0365,-0.38375 0.049,-0.38375 0.0124,0 0.167669,0.10751 0.34492,0.23891 0.70314,0.52126 1.0979695,1.22932 1.1901695,2.13433 l 0.0354,0.34789 0.128,-0.13562 c 0.0704,-0.0746 0.15533,-0.22937 0.18875,-0.34397 l 0.0608,-0.20837 0.19096,0.39085 c 0.22784,0.46637 0.37001,0.95442 0.40995,1.40733 0.0722,0.81861 -0.34268,1.61611 -1.05246,2.0231 -0.2845895,0.16319 -0.3925495,0.19094 -0.2225405,0.0572 0.1735505,-0.13653 0.3687505,-0.53511 0.3972405,-0.81118 0.0384,-0.37175 -0.0755,-0.6917 -0.4090205,-1.14935 -0.334519,-0.45901 -0.487779,-0.77035 -0.53289,-1.08258 l -0.0324,-0.22468 -0.18305,0.17817 c -0.34858,0.3393 -0.59597,1.08145 -0.53423,1.6027 0.0148,0.1247 0.009,0.22675 -0.0126,0.22675 -0.089,0 -0.32551,-0.33503 -0.3523,-0.49904 -0.0158,-0.0965 -0.0345,-0.20683 -0.0417,-0.2452 -0.0169,-0.0902 -0.24643,0.40925 -0.30533,0.66445 -0.10999,0.4766 -0.0184,0.91088 0.26098,1.23724 0.0901,0.10532 0.15703,0.19129 0.14864,0.19105 -0.008,-1.8e-4 -0.12865,-0.0654 -0.26725,-0.14494 z"
         style="fill:#000000;stroke:#000000;stroke-width:0.30000001;stroke-miterlimit:4;stroke-dasharray:none;stroke-opacity:1" />
      <circle
         r="1.6063988"
         cy="45.131767"
         cx="-4.4457111"
         id="path3810-6"
         style="opacity:1;vector-effect:none;fill:#000000;fill-opacity:1;stroke:none;stroke-width:0.29209089;stroke-linecap:butt;stroke-linejoin:miter;stroke-miterlimit:4;stroke-dasharray:0.87627266, 0.29209089;stroke-dashoffset:0;stroke-opacity:1" />
    </g>
    <path
       style="fill:none;stroke:#000000;stroke-width:0.26458332px;stroke-linecap:butt;stroke-linejoin:miter;stroke-opacity:1"
       d="m 40.024002,43.317011 v 5.58932"
       id="path1183-5"
       inkscape:connector-curvature="0" />
    <path
       style="fill:none;stroke:#000000;stroke-width:0.26458332px;stroke-linecap:butt;stroke-linejoin:miter;stroke-opacity:1"
       d="m 66.456089,43.500759 v 5.58932"
       id="path1183-2-3"
       inkscape:connector-curvature="0" />
    <text
       xml:space="preserve"
       style="font-style:normal;font-weight:normal;font-size:132.329px;line-height:1.25;font-family:sans-serif;letter-spacing:0px;word-spacing:0px;fill:#000000;fill-opacity:1;stroke:none;stroke-width:0.220548"
       x="16.060684"
       y="47.510666"
       id="text1088-5"><tspan
         sodipodi:role="line"
         id="tspan1086-6"
         x="16.060684"
         y="47.510666"
         style="font-size:2.64658px;stroke-width:0.220548">1</tspan></text>
    <path
       style="fill:none;stroke:#000000;stroke-width:0.2093017px;stroke-linecap:butt;stroke-linejoin:miter;stroke-opacity:1"
       d="m 19.807967,46.557733 h 14"
       id="path1090-29"
       inkscape:connector-curvature="0"
       sodipodi:nodetypes="cc" />
    <text
       xml:space="preserve"
       style="font-style:normal;font-weight:normal;font-size:132.329px;line-height:1.25;font-family:sans-serif;letter-spacing:0px;word-spacing:0px;fill:#000000;fill-opacity:1;stroke:none;stroke-width:0.220548"
       x="34.195385"
       y="47.528107"
       id="text1088-0-1"><tspan
         sodipodi:role="line"
         id="tspan1086-9-27"
         x="34.195385"
         y="47.528107"
         style="font-size:2.64658px;stroke-width:0.220548">10</tspan></text>
    <path
       id="path12818"
       style="fill:#000000;stroke:none;stroke-width:0.465;stroke-linecap:round;stop-color:#000000"
       d="m 1.8475032,30.812888 a 4.9506345,4.9506345 0 0 0 -4.6787845,3.343465 h -0.714685 c -0.316585,0 -0.571541,0.254956 -0.571541,0.571542 v 0.434598 h -0.553455 c -0.109913,-0.511843 -0.57022,-0.904337 -1.11156,-0.904337 h -1.885156 c -0.54134,0 -1.001647,0.392494 -1.11156,0.904337 h -0.727604 c -0.109913,-0.511843 -0.5707367,-0.904337 -1.1120767,-0.904337 h -1.88464 c -0.541339,0 -1.003331,0.392494 -1.113627,0.904337 h -1.698604 c -0.325618,0 -0.599963,0.275896 -0.599963,0.601514 0,0.325618 0.274345,0.599963 0.599963,0.599963 h 1.698088 c 0.109486,0.512486 0.572067,0.904338 1.114143,0.904338 h 1.88464 c 0.542076,0 1.0034867,-0.391852 1.1125937,-0.904338 h 0.72657 c 0.109106,0.512486 0.570001,0.904338 1.112077,0.904338 h 1.885156 c 0.542077,0 1.002971,-0.391852 1.112077,-0.904338 h 0.552938 v 0.434599 c 0,0.316586 0.254956,0.571542 0.571541,0.571542 h 0.714685 A 4.9506345,4.9506345 0 0 0 1.8475032,40.714093 4.9506345,4.9506345 0 0 0 6.7981054,35.76349 4.9506345,4.9506345 0 0 0 1.8475032,30.812888 Z M -12.15836,35.230706 h 1.245402 c -0.193099,0.101547 -0.328662,0.305159 -0.328662,0.533301 0,0.227739 0.135075,0.43008 0.327629,0.531234 h -1.243335 c 0.192552,-0.101154 0.327628,-0.303495 0.327628,-0.531234 0,-0.228142 -0.135564,-0.431754 -0.328662,-0.533301 z m 4.6756837,0 h 1.64176 c -0.193098,0.101547 -0.328662,0.305159 -0.328662,0.533301 0,0.227739 0.135076,0.43008 0.327628,0.531234 h -1.639693 c 0.191979,-0.101154 0.326078,-0.303495 0.326078,-0.531234 1e-6,-0.228142 -0.134587,-0.431754 -0.327111,-0.533301 z" />
    <g
       id="g13595"
       transform="translate(3.3574561,-8.187517)">
      <g
         transform="matrix(0.35279357,0,0,0.35279357,16.550469,35.63452)"
         id="layer1-6-8-10-3-1-7"
         inkscape:label="Capa 1">
        <path
           sodipodi:nodetypes="cccssssssccscscccccsscscssccscsccscccccsscsssscs"
           inkscape:connector-curvature="0"
           id="path828-79-6-6-2-4"
           d="m 15.55133,51.922274 c -0.685146,-0.279517 -3.20637,-1.507059 -3.324727,-1.618753 -0.03438,-0.03244 -0.07718,-0.127286 -0.09554,-0.211722 -0.08948,-0.411375 -0.262648,-1.722668 -0.332832,-2.520399 -0.05025,-0.57112 -0.0596,-2.009074 -0.01364,-2.094972 0.04031,-0.07531 0.184184,-0.143729 0.562025,-0.267256 0.722856,-0.236322 1.733468,-0.499615 2.410752,-0.628071 0.275408,-0.05224 0.396016,-0.0603 0.707347,-0.04732 0.415417,0.01732 1.429283,0.142198 2.38188,0.293384 0.766175,0.121598 1.019543,0.178219 1.103853,0.246676 l 0.06543,0.05313 -0.0077,1.496494 c -0.0081,1.566318 -0.04308,2.635128 -0.0968,2.95367 -0.03024,0.179307 -0.04114,0.197626 -0.223796,0.376151 -0.196508,0.192058 -2.306176,1.852072 -2.49635,1.964276 -0.172205,0.101604 -0.398334,0.103271 -0.639907,0.0047 z m 0.681956,-0.312805 c 0.354128,-0.250525 1.358355,-1.012126 1.81541,-1.376797 0.537371,-0.428752 0.598921,-0.493547 0.633573,-0.666962 0.06192,-0.309915 0.154976,-1.794696 0.205292,-3.275805 0.02806,-0.82606 0.02665,-0.940151 -0.01209,-0.978893 -0.05115,-0.05115 -0.07672,-0.04286 -1.158797,0.375245 -1.269982,0.490712 -1.8449,0.758627 -1.912296,0.891141 -0.06033,0.118622 -0.03326,2.613007 0.04901,4.516299 0.02534,0.586113 0.04026,0.707347 0.08705,0.707347 0.01213,0 0.143904,-0.08621 0.292842,-0.191575 z m -0.622651,-1.013802 c -0.01218,-0.535923 -0.02681,-1.694557 -0.03252,-2.574744 -0.0081,-1.255585 -0.01836,-1.607633 -0.04745,-1.63421 -0.106289,-0.0971 -3.10159,-0.677511 -3.496415,-0.677511 h -0.135139 l 3.71e-4,0.281495 c 5.78e-4,0.445614 0.107808,1.632044 0.261587,2.894346 0.106753,0.876288 0.163675,1.197828 0.22476,1.269608 0.108101,0.127026 1.297194,0.741581 1.931131,0.998059 0.417345,0.168849 1.151926,0.414027 1.246224,0.415946 l 0.06959,0.0014 z m 0.778946,-4.666157 c 0.521312,-0.175316 1.631211,-0.587253 1.882404,-0.698649 0.123751,-0.05488 0.155359,-0.08002 0.123166,-0.09796 -0.08273,-0.04609 -1.835693,-0.312599 -2.781117,-0.422813 -0.349053,-0.04069 -0.466344,-0.04391 -0.635169,-0.01741 -0.320219,0.05026 -2.598014,0.698144 -2.656719,0.755658 -0.03178,0.03113 0.194652,0.08146 1.179323,0.262104 1.326108,0.243286 2.097867,0.369927 2.267379,0.372065 0.120438,0.0015 0.273269,-0.03615 0.620733,-0.153004 z"
           style="fill:#000000;stroke:#000000;stroke-width:0.229;stroke-miterlimit:4;stroke-dasharray:none;stroke-opacity:1" />
      </g>
      <path
         sodipodi:nodetypes="cccssssssccscscccccsscscssccscsccscccccsscsssscs"
         inkscape:connector-curvature="0"
         id="path828-6-0-0-7"
         d="m 24.981155,53.956425 c -0.241715,-0.09861 -1.131187,-0.531681 -1.172942,-0.571086 -0.01213,-0.01144 -0.02723,-0.0449 -0.03371,-0.07469 -0.03157,-0.14513 -0.09266,-0.607746 -0.117421,-0.88918 -0.01773,-0.201488 -0.02103,-0.708789 -0.0048,-0.739093 0.01422,-0.02657 0.06498,-0.05071 0.198279,-0.09429 0.255019,-0.08337 0.611556,-0.176261 0.850497,-0.22158 0.09716,-0.01843 0.139712,-0.02127 0.249548,-0.01669 0.146556,0.0061 0.504242,0.05017 0.840312,0.103504 0.270301,0.0429 0.359688,0.06288 0.389432,0.08703 l 0.02308,0.01874 -0.0027,0.527953 c -0.0029,0.552587 -0.0152,0.929656 -0.03415,1.042036 -0.01067,0.06326 -0.01451,0.06972 -0.07895,0.132704 -0.06933,0.06776 -0.813604,0.653399 -0.880697,0.692984 -0.06075,0.03584 -0.140529,0.03643 -0.225755,0.0017 z m 0.24059,-0.110356 c 0.124934,-0.08838 0.479219,-0.357071 0.640465,-0.485725 0.189581,-0.151261 0.211295,-0.17412 0.22352,-0.2353 0.02184,-0.109336 0.05468,-0.633157 0.07243,-1.155683 0.0099,-0.291428 0.0094,-0.331679 -0.0043,-0.345347 -0.01805,-0.01805 -0.02707,-0.01512 -0.408817,0.132384 -0.448041,0.17312 -0.650868,0.267639 -0.674645,0.314389 -0.02128,0.04185 -0.01173,0.921852 0.01729,1.593321 0.0089,0.206777 0.0142,0.249548 0.03071,0.249548 0.0043,0 0.05077,-0.03041 0.103313,-0.06759 z m -0.219668,-0.357663 c -0.0043,-0.18907 -0.0095,-0.597828 -0.01147,-0.908353 -0.0029,-0.442962 -0.0065,-0.567162 -0.01674,-0.576538 -0.0375,-0.03426 -1.094221,-0.239022 -1.233513,-0.239022 h -0.04768 l 1.31e-4,0.09931 c 2.04e-4,0.157209 0.03803,0.575774 0.09229,1.021106 0.03766,0.309149 0.05774,0.422586 0.07929,0.44791 0.03814,0.04481 0.457641,0.261625 0.68129,0.352109 0.147237,0.05957 0.406392,0.146066 0.43966,0.146743 l 0.02455,4.94e-4 z m 0.274808,-1.64619 c 0.183915,-0.06185 0.57548,-0.207179 0.6641,-0.246479 0.04366,-0.01936 0.05481,-0.02823 0.04345,-0.03456 -0.02919,-0.01626 -0.647621,-0.110283 -0.98116,-0.149166 -0.123144,-0.01436 -0.164524,-0.01549 -0.224084,-0.0061 -0.112971,0.01773 -0.916562,0.246301 -0.937273,0.266591 -0.01121,0.01098 0.06867,0.02874 0.416057,0.09247 0.467843,0.08583 0.740114,0.130508 0.799917,0.131262 0.04249,5.29e-4 0.09641,-0.01275 0.218991,-0.05398 z"
         style="fill:#000000;stroke:#000000;stroke-width:0.0807897;stroke-miterlimit:4;stroke-dasharray:none;stroke-opacity:1" />
    </g>
    <g
       id="g15415"
       transform="translate(-124.48717,-81.758688)">
      <path
         d="m 152.49666,118.52287 c -0.11002,-0.20748 -0.22954,-0.37724 -0.26548,-0.37724 -0.036,0 -0.24944,0.0933 -0.47442,0.2073 -0.23084,0.11698 -0.43031,0.17297 -0.45777,0.1285 -0.0267,-0.0433 0.008,-0.21611 0.0789,-0.38396 0.18466,-0.44198 0.16271,-0.50986 -0.18467,-0.57142 -0.73855,-0.13092 -0.78096,-0.22609 -0.20983,-0.4709 0.21655,-0.0929 0.40934,-0.18439 0.42843,-0.20349 0.019,-0.019 -0.0644,-0.1845 -0.18561,-0.3676 -0.35365,-0.53443 -0.3195,-0.57498 0.32181,-0.38198 0.22113,0.0665 0.42851,0.10464 0.46085,0.0848 0.0324,-0.0201 0.10138,-0.20557 0.1535,-0.4124 0.10802,-0.42872 0.27467,-0.48726 0.41893,-0.1471 0.0534,0.12593 0.14909,0.29822 0.21263,0.38288 0.11101,0.14797 0.13191,0.14504 0.53781,-0.0759 0.23225,-0.12636 0.44839,-0.20369 0.48033,-0.17176 0.032,0.032 -0.005,0.23117 -0.0846,0.44274 -0.0785,0.21158 -0.12637,0.40094 -0.10647,0.42082 0.0199,0.0199 0.22854,0.0796 0.46369,0.13264 0.23515,0.0532 0.43468,0.13318 0.44339,0.17795 0.008,0.0448 -0.17778,0.17591 -0.4144,0.29138 l -0.43027,0.20993 0.24769,0.35409 c 0.13618,0.19475 0.22588,0.38936 0.19924,0.43246 -0.0291,0.0472 -0.20519,0.0308 -0.44181,-0.0409 -0.56086,-0.1702 -0.58003,-0.16287 -0.70162,0.26765 -0.0605,0.21384 -0.1504,0.40232 -0.20002,0.41886 -0.0496,0.0165 -0.18025,-0.13972 -0.29031,-0.34718 z m 0.34279,-0.46819 c 0.0978,-0.36347 0.0599,-0.35271 0.65837,-0.18738 l 0.20256,0.056 -0.18903,-0.30589 -0.18906,-0.30587 0.34563,-0.15474 c 0.34147,-0.1529 0.31205,-0.2599 -0.0715,-0.2599 -0.26578,0 -0.33724,-0.15957 -0.20894,-0.46664 0.13447,-0.32191 0.11955,-0.33185 -0.22879,-0.15172 -0.30314,0.15676 -0.45655,0.11215 -0.5852,-0.17019 -0.12736,-0.2795 -0.19559,-0.26537 -0.29036,0.0601 -0.0837,0.28752 -0.259,0.33691 -0.68651,0.19348 l -0.20006,-0.0671 0.17925,0.29006 c 0.0986,0.15951 0.17926,0.31321 0.17926,0.34152 0,0.0283 -0.14043,0.11401 -0.31218,0.19041 l -0.3122,0.13888 0.3601,0.0834 c 0.30973,0.0718 0.35328,0.10789 0.31153,0.25765 -0.0267,0.0958 -0.0716,0.26072 -0.0998,0.36651 l -0.0513,0.19235 0.28087,-0.17123 c 0.15447,-0.0941 0.3102,-0.17137 0.34609,-0.17152 0.0359,-1.8e-4 0.14261,0.13077 0.23716,0.29105 0.0945,0.16027 0.18551,0.29138 0.20212,0.29138 0.0166,0 0.0715,-0.15331 0.12196,-0.3407 z"
         style="fill:#000000;stroke-width:0.0832504"
         id="path15134" />
      <path
         id="path15134-3-6"
         style="fill:#000000;stroke-width:0.0832504"
         d="m 153.75296,114.78617 c -0.0835,0.002 -0.16314,0.12566 -0.22391,0.36681 -0.0522,0.20683 -0.12085,0.3924 -0.15324,0.41248 -0.0324,0.0199 -0.23971,-0.0183 -0.46084,-0.0848 -0.31948,-0.0961 -0.48842,-0.13456 -0.53366,-0.0827 0.051,0.0246 0.10253,0.0936 0.15161,0.20923 0.0534,0.12593 0.14895,0.29847 0.21249,0.38312 0.0761,0.10148 0.11037,0.13162 0.25487,0.0695 -0.0182,-0.0313 -0.0373,-0.0639 -0.0576,-0.0968 l -0.17934,-0.28966 0.19999,0.0669 c 0.42751,0.14343 0.6032,0.094 0.68691,-0.19346 0.0948,-0.32552 0.16284,-0.33983 0.2902,-0.0604 0.12864,0.28234 0.28215,0.3274 0.58529,0.17065 0.34834,-0.18013 0.36327,-0.17029 0.22879,0.15162 -0.12829,0.30707 -0.0571,0.46682 0.20868,0.46682 0.38356,0 0.41322,0.10687 0.0717,0.25976 l -0.34564,0.15489 0.18913,0.30541 0.18911,0.30596 -0.2027,-0.0559 c -0.59843,-0.16532 -0.56085,-0.17598 -0.65866,0.18749 -0.0505,0.18739 -0.10516,0.34075 -0.12172,0.34075 -0.0166,0 -0.10763,-0.13103 -0.20217,-0.29129 -0.0302,-0.0512 -0.0613,-0.0989 -0.0913,-0.14075 l -0.15597,0.076 0.24782,0.35379 c 0.13618,0.19475 0.22608,0.38948 0.19944,0.43257 -0.001,0.002 -0.002,0.003 -0.004,0.005 0.0319,0.03 0.0586,0.0448 0.0755,0.0391 0.0496,-0.0165 0.13952,-0.20461 0.19999,-0.41845 0.12159,-0.43052 0.14072,-0.43811 0.70158,-0.26791 0.23662,0.0717 0.41269,0.088 0.44182,0.0408 0.0266,-0.0431 -0.0633,-0.23728 -0.19944,-0.43203 l -0.2478,-0.35432 0.4304,-0.20977 c 0.23662,-0.11547 0.42306,-0.24649 0.41464,-0.29129 -0.008,-0.0448 -0.2083,-0.12504 -0.44345,-0.17825 -0.23514,-0.053 -0.44368,-0.11273 -0.46355,-0.1326 -0.0199,-0.0199 0.0276,-0.20905 0.10597,-0.42062 0.0793,-0.21158 0.11675,-0.41095 0.0848,-0.44292 -0.032,-0.032 -0.24815,0.0453 -0.48041,0.17173 -0.40589,0.22097 -0.42645,0.22406 -0.53746,0.0761 -0.0635,-0.0846 -0.15961,-0.2572 -0.21303,-0.38313 -0.0631,-0.14882 -0.1302,-0.22097 -0.1951,-0.21955 z" />
      <path
         id="path15134-3-6-8"
         style="fill:#000000;stroke-width:0.0832504"
         d="m 155.07053,114.21456 c -0.0835,0.002 -0.16314,0.12566 -0.2239,0.36682 -0.0522,0.20683 -0.12086,0.3924 -0.15325,0.41248 -0.0324,0.0199 -0.2397,-0.0183 -0.46084,-0.0848 -0.31947,-0.0961 -0.48842,-0.13456 -0.53366,-0.0827 0.051,0.0246 0.10253,0.0936 0.15161,0.20924 0.0534,0.12593 0.14896,0.29847 0.2125,0.38311 0.0761,0.10149 0.11036,0.13163 0.25487,0.0695 -0.0182,-0.0313 -0.0373,-0.0639 -0.0576,-0.0968 l -0.17933,-0.28966 0.19998,0.0669 c 0.42751,0.14343 0.60321,0.094 0.68692,-0.19346 0.0948,-0.32552 0.16283,-0.33983 0.29019,-0.0604 0.12865,0.28234 0.28215,0.3274 0.5853,0.17065 0.34834,-0.18014 0.36326,-0.17029 0.22879,0.15162 -0.1283,0.30707 -0.0571,0.46682 0.20867,0.46682 0.38356,0 0.41322,0.10686 0.0717,0.25976 l -0.34563,0.15488 0.18912,0.30542 0.18911,0.30596 -0.2027,-0.0559 c -0.59843,-0.16532 -0.56085,-0.17598 -0.65865,0.18749 -0.0505,0.18739 -0.10517,0.34074 -0.12173,0.34074 -0.0166,0 -0.10762,-0.13102 -0.20216,-0.29129 -0.0302,-0.0512 -0.0613,-0.0988 -0.0913,-0.14075 l -0.15597,0.076 0.24781,0.35379 c 0.13618,0.19475 0.22608,0.38948 0.19945,0.43257 -0.001,0.002 -0.002,0.003 -0.004,0.005 0.0319,0.03 0.0586,0.0448 0.0755,0.0391 0.0496,-0.0165 0.13952,-0.20461 0.19998,-0.41845 0.12159,-0.43052 0.14072,-0.43811 0.70159,-0.26792 0.23661,0.0717 0.41269,0.088 0.44182,0.0408 0.0266,-0.0431 -0.0633,-0.23728 -0.19944,-0.43203 l -0.24781,-0.35433 0.4304,-0.20976 c 0.23663,-0.11547 0.42306,-0.2465 0.41465,-0.29129 -0.008,-0.0448 -0.20831,-0.12504 -0.44345,-0.17826 -0.23515,-0.053 -0.44369,-0.11272 -0.46356,-0.1326 -0.0199,-0.0199 0.0275,-0.20904 0.10597,-0.42061 0.0793,-0.21158 0.11675,-0.41095 0.0848,-0.44292 -0.032,-0.032 -0.24815,0.0453 -0.4804,0.17173 -0.4059,0.22097 -0.42646,0.22406 -0.53747,0.0761 -0.0635,-0.0847 -0.1596,-0.2572 -0.21303,-0.38313 -0.0631,-0.14883 -0.1302,-0.22097 -0.19509,-0.21955 z" />
    </g>
  </g>
</svg>
